<?xml version="1.0" encoding="UTF-8" standalone="no"?>
<svg
   xmlns:dc="http://purl.org/dc/elements/1.1/"
   xmlns:cc="http://creativecommons.org/ns#"
   xmlns:rdf="http://www.w3.org/1999/02/22-rdf-syntax-ns#"
   xmlns:svg="http://www.w3.org/2000/svg"
   xmlns="http://www.w3.org/2000/svg"
   id="svg8"
   version="1.1"
   viewBox="0 0 100 99.999997"
   height="10cm"
   width="10cm">
  <defs
     id="defs2" />
  <metadata
     id="metadata5">
    <rdf:RDF>
      <cc:Work
         rdf:about="">
        <dc:format>image/svg+xml</dc:format>
        <dc:type
           rdf:resource="http://purl.org/dc/dcmitype/StillImage" />
        <dc:title></dc:title>
      </cc:Work>
    </rdf:RDF>
  </metadata>
  <g
     transform="translate(0,-197.00002)"
     id="layer1">
    <path
       d="m 47.576028,202.99051 c 0.01691,0.11744 0.03065,0.23529 0.04446,0.35312 0.02697,0.22457 0.04733,0.44984 0.06649,0.67518 0.01895,0.23244 0.03892,0.46478 0.05986,0.69704 0.02424,0.27553 0.05104,0.55081 0.07872,0.82601 0.03545,0.34782 0.07081,0.69564 0.106727,1.0434 0.043,0.40664 0.08624,0.81325 0.12903,1.2199 0.05099,0.4757 0.09701,0.95191 0.140938,1.42831 0.04706,0.51171 0.08652,1.02407 0.12356,1.5366 0.03756,0.52175 0.0691,1.04389 0.09758,1.56621 0.02975,0.556 0.05095,1.1124 0.06762,1.66894 0.01741,0.61534 0.02352,1.23092 0.02879,1.84646 0.0043,0.65606 0.0038,1.31213 0.0038,1.96819 -7.94e-4,0.71036 -0.0021,1.42072 -0.0033,2.13108 -0.0035,0.78511 -2.65e-4,1.57019 0.0076,2.35526 0.0092,0.86973 0.02951,1.73929 0.04936,2.60883 0.02183,0.95441 0.04379,1.90882 0.06545,2.86324 0.02249,0.99016 0.04187,1.98039 0.06012,2.97064 0.01834,0.99544 0.03277,1.99096 0.04947,2.98643 0.01402,0.9769 0.04347,1.95344 0.08037,2.92971 0.03918,1.00283 0.09222,2.00504 0.147291,3.00709 0.05772,1.02743 0.117084,2.05476 0.176043,3.08212 0.05863,1.03119 0.120227,2.06221 0.182227,3.0932 0.06012,0.98729 0.118004,1.97471 0.174622,2.9622 0.05178,0.90156 0.09961,1.80335 0.145378,2.70524 0.04034,0.80746 0.08134,1.61489 0.123635,2.42225 0.03525,0.66919 0.0708,1.33836 0.107503,2.00747 0.02917,0.53325 0.06016,1.06641 0.09095,1.59957 0.02471,0.42748 0.04945,0.85496 0.07419,1.28245 0.01974,0.3423 0.03975,0.68458 0.05931,1.02689 0.01238,0.22566 0.0063,0.11045 0.01818,0.34561 0.244642,4.85815 -6.62582,5.20413 -6.870459,0.34598 v 0 c -0.01,-0.19958 -0.0048,-0.0999 -0.01566,-0.29908 -0.01947,-0.34066 -0.03938,-0.6813 -0.05903,-1.02196 -0.02477,-0.42776 -0.04951,-0.85552 -0.07424,-1.28328 -0.03117,-0.53978 -0.06254,-1.07955 -0.09207,-1.61942 -0.03701,-0.67475 -0.07286,-1.34957 -0.10841,-2.02439 -0.04248,-0.81112 -0.0837,-1.6223 -0.124214,-2.43351 -0.04499,-0.88683 -0.09202,-1.77355 -0.142936,-2.66006 -0.05625,-0.9811 -0.11376,-1.96213 -0.173498,-2.94302 -0.06237,-1.03726 -0.124341,-2.07455 -0.18333,-3.11201 -0.05928,-1.03292 -0.118964,-2.06582 -0.176982,-3.09881 -0.05721,-1.04138 -0.112183,-2.08293 -0.15276,-3.12511 -0.0386,-1.02429 -0.0695,-2.04885 -0.08429,-3.07379 -0.01662,-0.99168 -0.03102,-1.9834 -0.04927,-2.97506 -0.01807,-0.98044 -0.03725,-1.96087 -0.05951,-2.94124 -0.02167,-0.95413 -0.04361,-1.90825 -0.06543,-2.86238 -0.0205,-0.89875 -0.04135,-1.79753 -0.0508,-2.69649 -0.0082,-0.81193 -0.01151,-1.62389 -0.008,-2.43586 0.0011,-0.70657 0.0026,-1.41314 0.0033,-2.1197 -8e-6,-0.6365 5.29e-4,-1.27301 -0.0036,-1.9095 -0.0048,-0.56683 -0.01021,-1.13371 -0.02598,-1.70036 -0.01482,-0.50014 -0.03394,-1.00016 -0.0605,-1.49982 -0.02619,-0.48182 -0.05528,-0.96348 -0.08989,-1.44478 -0.03371,-0.46722 -0.06957,-0.9343 -0.112403,-1.40078 -0.04116,-0.44687 -0.08433,-0.89356 -0.132199,-1.33976 -0.04325,-0.41105 -0.08699,-0.82204 -0.1304,-1.23306 -0.03655,-0.35392 -0.07255,-0.70788 -0.108609,-1.06185 -0.03003,-0.29871 -0.05909,-0.59751 -0.08545,-0.89657 -0.02201,-0.24415 -0.04308,-0.48838 -0.06298,-0.73271 -0.01291,-0.15233 -0.02596,-0.30465 -0.0444,-0.45643 -0.01217,-0.10379 -0.02492,-0.20748 -0.03939,-0.31098 -0.595982,-4.82766 6.231355,-5.6705 6.82734,-0.84285 z"
       id="path881"
       style="opacity:1;fill:#020900;fill-opacity:1;stroke:none;stroke-width:1;stroke-linecap:butt;stroke-linejoin:round;stroke-miterlimit:4;stroke-dasharray:none;stroke-opacity:1" />
    <path
       d="m 47.413431,275.06631 c 0.394239,0.39704 0.883335,0.6421 1.418973,0.7814 0.14894,0.0447 0.305787,0.0359 0.457502,0.0551 -0.112091,0.0415 -0.227489,0.0815 -0.339884,0.12455 -0.307496,0.11992 -0.60317,0.26685 -0.894961,0.4204 -0.343995,0.17661 -0.663964,0.39268 -0.974688,0.62157 -0.385183,0.28875 -0.748128,0.60521 -1.101312,0.93186 -0.34971,0.32147 -0.66376,0.67745 -0.961522,1.04669 -0.310666,0.3883 -0.588582,0.8005 -0.845664,1.22571 -0.251497,0.42001 -0.454546,0.86544 -0.636821,1.31898 -0.192394,0.49832 -0.337579,1.01292 -0.475149,1.52851 -0.136546,0.52125 -0.249981,1.04811 -0.34299,1.57876 -0.05237,0.32093 -0.09311,0.64617 -0.06708,0.97145 -0.0034,0.0978 0.0317,0.0781 0.0755,0.12525 0.0547,0.0746 0.108918,0.15633 0.187798,0.202 -0.07808,-0.12716 -0.237334,-0.19442 -0.369252,-0.25 -0.163653,-0.0639 -0.337355,-0.0735 -0.51063,-0.062 -0.109834,0.0143 0.348326,-0.2762 0.34985,-0.27732 0.374518,-0.27852 0.713245,-0.59979 1.039757,-0.93214 0.38957,-0.40268 0.731756,-0.84652 1.059395,-1.29994 0.370099,-0.51955 0.68912,-1.07227 0.99606,-1.63065 0.319892,-0.58767 0.599337,-1.19578 0.87062,-1.807 0.263419,-0.60248 0.518192,-1.2087 0.773917,-1.81448 0.211645,-0.50209 0.42374,-1.00398 0.634791,-1.50632 0.167915,-0.40023 0.335462,-0.80061 0.503049,-1.20098 0.124394,-0.29409 0.246256,-0.58922 0.363937,-0.88606 0.09405,-0.25628 0.201404,-0.50623 0.318995,-0.7525 1.511229,-2.33996 0.377323,-0.99672 6.502286,1.25368 0.08132,0.0299 1.72e-4,0.7588 -0.01164,0.90458 -0.02199,0.24038 -0.03877,0.48114 -0.05316,0.72208 -0.02059,0.36938 -0.03582,0.73905 -0.04652,1.10885 -0.01355,0.43469 -0.0053,0.86945 0.01318,1.30382 0.02275,0.49919 0.07709,0.99604 0.138515,1.49171 0.06868,0.55083 0.169352,1.09674 0.282794,1.63988 0.117002,0.54985 0.260192,1.09353 0.418862,1.63268 0.117801,0.39348 0.252347,0.78207 0.433142,1.15126 0.05796,0.12132 0.134088,0.22522 0.242594,0.30364 0.1638,0.12302 0.338444,0.23 0.515408,0.33273 0.175932,0.0961 0.35533,0.19335 0.552127,0.23836 0.07165,-0.0348 -0.244213,-0.0465 -0.271732,-0.0466 -0.227005,0.0344 0.15068,-0.11459 0.167227,-0.12263 0.31659,-0.15874 0.632436,-0.31823 0.955445,-0.4636 4.447929,-1.96911 7.232671,4.32121 2.784742,6.29032 v 0 c -0.261808,0.10217 -0.498949,0.26256 -0.757547,0.37221 -0.659831,0.31582 -1.339104,0.59665 -2.065626,0.71688 -0.977776,0.13233 -1.922105,0.11922 -2.871647,-0.18281 -0.699125,-0.2277 -1.378442,-0.50899 -2.009783,-0.88984 -0.672227,-0.40384 -1.324017,-0.84591 -1.882915,-1.40078 -0.637051,-0.66078 -1.198695,-1.38514 -1.585175,-2.22402 -0.320892,-0.69415 -0.597537,-1.40684 -0.808437,-2.1427 -0.208737,-0.71598 -0.399102,-1.43737 -0.552383,-2.16748 -0.150294,-0.72787 -0.284007,-1.45933 -0.374762,-2.19732 -0.08332,-0.6808 -0.15495,-1.36337 -0.184195,-2.04896 -0.02394,-0.59634 -0.03494,-1.19318 -0.01601,-1.78989 0.0132,-0.43998 0.03078,-0.87984 0.05597,-1.3193 0.01765,-0.29127 0.03757,-0.5824 0.06392,-0.87302 0.02315,-0.27163 -0.01543,0.32684 0.02207,0.33943 6.162074,2.0706 4.990634,3.5119 6.471044,1.19303 0.02976,-0.0641 0.07108,-0.12439 0.08736,-0.19315 0.0026,-0.0109 -0.0087,0.0206 -0.01278,0.031 -0.04297,0.10848 -0.0842,0.21765 -0.127363,0.32605 -0.133633,0.33644 -0.271187,0.67127 -0.412282,1.00464 -0.168767,0.40319 -0.337494,0.80639 -0.506595,1.20944 -0.212563,0.50591 -0.426148,1.01139 -0.63931,1.51705 -0.27251,0.64553 -0.544041,1.29152 -0.825383,1.93327 -0.351867,0.79064 -0.716965,1.57596 -1.133121,2.33528 -0.446833,0.80808 -0.915553,1.60518 -1.456557,2.35473 -0.536337,0.7342 -1.099786,1.44979 -1.73898,2.09839 -0.603504,0.60487 -1.232201,1.18603 -1.926809,1.68634 -0.774787,0.54649 -1.58841,1.04364 -2.508065,1.30714 -1.062532,0.26763 -2.013461,0.35164 -3.090733,0.0824 -1.034804,-0.30406 -1.855658,-0.70403 -2.648222,-1.45275 -0.635902,-0.63477 -1.199621,-1.33338 -1.596374,-2.14569 -0.423159,-0.90867 -0.727906,-1.8601 -0.760744,-2.87116 -0.0226,-0.81491 0.01812,-1.62883 0.168363,-2.43194 0.12996,-0.72496 0.282585,-1.44575 0.471842,-2.15777 0.213542,-0.79285 0.444733,-1.58225 0.750207,-2.3454 0.326538,-0.79327 0.688409,-1.57247 1.135695,-2.30607 0.422146,-0.68683 0.873046,-1.35588 1.381347,-1.98265 0.509032,-0.62177 1.044218,-1.22223 1.637906,-1.76532 0.548521,-0.50311 1.111978,-0.99062 1.711875,-1.43217 0.588299,-0.42532 1.194361,-0.82613 1.840955,-1.15857 0.547545,-0.28414 1.103546,-0.55322 1.681771,-0.77003 0.576533,-0.21145 1.163434,-0.4 1.773465,-0.48732 0.612384,-0.0793 1.231273,-0.11307 1.841622,0.009 0.76422,0.17909 1.478082,0.47946 2.045362,1.04098 3.482773,3.39585 -1.319673,8.32123 -4.802447,4.92539 z"
       id="path883"
       style="opacity:1;fill:#020900;fill-opacity:1;stroke:none;stroke-width:1;stroke-linecap:butt;stroke-linejoin:round;stroke-miterlimit:4;stroke-dasharray:none;stroke-opacity:1" />
  </g>
</svg>
