<svg viewBox="0 0 100 100"><path d="M51.822 26.324a3.2 3.2 0 0 0-1.533 1.688c-.056.152-.05.212-.046 0q.007-.346-.041-.687a3.2 3.2 0 0 0-.174-.652 6 6 0 0 0-.446-.877 10.5 10.5 0 0 0-1.758-2.156c-.32-.3-.674-.563-1.046-.797a4 4 0 0 0-.991-.41 4.8 4.8 0 0 0-1.183-.139 6 6 0 0 0-1.386.182c-.49.12-.951.32-1.397.552-.48.254-.905.592-1.308.953-.472.43-.87.93-1.24 1.449-.426.604-.767 1.259-1.076 1.929-.345.764-.594 1.566-.819 2.372-.258.95-.435 1.92-.59 2.89a46 46 0 0 0-.366 3.256 57 57 0 0 0-.162 3.438 82 82 0 0 0 .018 3.532 139 139 0 0 0 .136 3.585c.058 1.184.14 2.367.232 3.55a96 96 0 0 0 .342 3.467c.131 1.141.285 2.28.442 3.418.155 1.118.318 2.236.481 3.353q.242 1.632.476 3.266.218 1.56.426 3.122l.391 2.938q.184 1.37.391 2.737.192 1.263.415 2.521c.135.76.288 1.517.45 2.272q.218 1.005.486 1.997c.16.59.343 1.173.54 1.751q.24.707.57 1.376c.204.402.45.78.708 1.148.252.36.543.686.855.993a7.4 7.4 0 0 0 1.033.81c.3.204.626.35.972.454.398.11.81.152 1.22.179.454.028.906-.008 1.354-.078.48-.08.944-.231 1.399-.402.48-.183.933-.425 1.366-.699.416-.267.78-.6 1.121-.957.388-.416.69-.897.971-1.389.376-.672.654-1.39.91-2.115.306-.891.545-1.804.767-2.72.232-.963.408-1.94.56-2.918.164-1.052.251-2.112.32-3.174.068-1.139.097-2.28.116-3.42.015-1.11.016-2.218.015-3.327a389 389 0 0 0-.063-6.426q-.026-1.555-.056-3.111c-.02-.999-.058-1.996-.103-2.994q-.068-1.422-.144-2.846-.069-1.306-.144-2.613-.073-1.254-.152-2.508-.074-1.17-.143-2.342-.06-1.041-.115-2.083-.043-.9-.11-1.8a72 72 0 0 0-.154-1.637q-.075-.743-.17-1.483a19 19 0 0 0-.504-2.535 35 35 0 0 0-.358-1.208l-.344-1.096-.28-.894-.223-.71-.178-.566-.141-.45c-.003-.02-.103-.315-.048-.153-1.715-4.552 4.722-6.978 6.437-2.426q.096.257.175.52l.142.452.177.566.223.71.278.886.353 1.124c.153.495.305.992.44 1.493a26 26 0 0 1 .674 3.41q.105.828.19 1.657c.062.608.123 1.217.171 1.826q.073.975.12 1.95.052 1.022.113 2.042.068 1.16.14 2.32.08 1.272.155 2.542.076 1.325.146 2.649.076 1.446.146 2.894c.048 1.053.088 2.107.109 3.162q.03 1.57.056 3.137a394 394 0 0 1 .064 6.534c.001 1.15 0 2.299-.016 3.448a86 86 0 0 1-.13 3.755c-.083 1.268-.19 2.536-.387 3.793a44 44 0 0 1-.673 3.477c-.28 1.147-.583 2.29-.972 3.406-.403 1.12-.848 2.226-1.442 3.26-.574.978-1.206 1.924-1.999 2.74-.739.748-1.528 1.446-2.425 2.001-.83.508-1.692.965-2.607 1.303-.91.33-1.838.613-2.798.755-.94.129-1.887.199-2.836.128-.977-.076-1.952-.21-2.889-.513-.938-.322-1.844-.724-2.663-1.291-.72-.494-1.417-1.024-2.037-1.642-.593-.599-1.153-1.23-1.633-1.924-.458-.663-.891-1.344-1.246-2.069a19 19 0 0 1-.893-2.16 35 35 0 0 1-.673-2.186 47 47 0 0 1-.57-2.34 72 72 0 0 1-.496-2.513 104 104 0 0 1-.445-2.7q-.214-1.418-.405-2.84l-.392-2.944a482 482 0 0 0-.42-3.07q-.23-1.62-.47-3.237-.252-1.702-.49-3.407a160 160 0 0 1-.463-3.585c-.14-1.235-.268-2.47-.365-3.71a132 132 0 0 1-.244-3.743 147 147 0 0 1-.142-3.769 89 89 0 0 1-.018-3.84 64 64 0 0 1 .185-3.86c.106-1.262.231-2.522.428-3.774.199-1.23.428-2.455.76-3.656.328-1.164.699-2.317 1.206-3.417.5-1.065 1.053-2.105 1.742-3.062.679-.93 1.41-1.82 2.275-2.585.846-.734 1.742-1.413 2.745-1.922.96-.477 1.953-.89 3.003-1.124 1.01-.219 2.033-.37 3.068-.343 1.014.035 2.026.141 3.001.436.948.297 1.872.667 2.71 1.208.736.48 1.443 1.002 2.078 1.612a18 18 0 0 1 1.636 1.78c.477.608.933 1.235 1.321 1.905.384.67.742 1.356.996 2.087.225.673.414 1.36.496 2.066.067.593.109 1.19.084 1.786-.03.61-.089 1.222-.275 1.808-.37 1.056-.906 1.802-1.91 2.354-4.34 2.2-7.45-3.937-3.11-6.136M64.905 8.399l.014.194.023.267c-.023-.37-.164-.71-.307-1.047-.455-.864-1.123-1.357-2.042-1.643.059-.013-.523-.076-.43-.074l.096.003h-.148l-.195.014c-.638.057-1.198.333-1.7.714-.48.389-.787.906-1 1.475a3 3 0 0 0-.11.44l.01-.068.01-.065-.017.141c-.001.003-.006.098-.004.048v.1c.01.26.117.804.246 1.052.185.355.434.672.651 1.008.439.291.836.66 1.316.874.702.313 1.593.264 2.305.01.053-.02.022-.008-.002.002l-.067.028-.055.022-.045.018-.012.005c.707-.35.317-.118 1.113-.73-3.464 3.415-8.294-1.484-4.83-4.899.508-.392.61-.537 1.15-.753l.043-.018.056-.022.071-.03.172-.067c.766-.277 1.696-.365 2.463-.027.49.216.894.588 1.341.883.224.343.481.667.671 1.03.207.394.254.87.285 1.308a5 5 0 0 1-.014.75 5 5 0 0 1-.042.337l-.014.095a4 4 0 0 1-.146.643c-.239.649-.585 1.238-1.127 1.683-.589.453-1.245.781-1.996.854a5 5 0 0 1-.698.019 4.7 4.7 0 0 1-.973-.118c-.136-.04-.275-.071-.408-.12a3.8 3.8 0 0 1-2.052-1.796c-.212-.48-.393-.97-.42-1.5l-.025-.293a14 14 0 0 1-.028-.414c-.234-4.86 6.637-5.191 6.871-.332zM29.569 9.744q-.043.076-.001.003l.046-.091c.024-.054.052-.205.065-.293a1 1 0 0 0 .007-.17 1.8 1.8 0 0 0-.112-.492 2.4 2.4 0 0 0-.4-.675 3.26 3.26 0 0 0-2.117-1.107c-.168-.018-.338-.008-.507-.012a3.1 3.1 0 0 0-.95.203c.024-.01.115-.05.04-.016-.384.168-.7.438-.991.733a3 3 0 0 0-.526.82 3 3 0 0 0-.21.855q-.017.213.003.428l-.02-.142c-.019-.097.032.155.042.196.069.29.192.559.343.813.238.376.557.7.932.94.147.095.307.167.46.25.815.33 1.704.379 2.526.036.158-.066.306-.156.458-.234.434-.309.23-.143.61-.494-3.327 3.548-8.345-1.157-5.018-4.705.469-.448.22-.238.75-.628.179-.093.35-.201.534-.28.935-.404 1.952-.369 2.889-.001.173.092.354.171.52.276A3.8 3.8 0 0 1 30.1 7.129c.216.357.399.734.5 1.14.043.184.084.368.107.555l.04.29c.033.303.05.607.025.911-.042.43-.122.855-.293 1.254-.18.412-.401.803-.706 1.138-.359.37-.754.704-1.231.914q-.132.06-.264.116c-.42.176-.861.301-1.32.327-.19-.003-.382.01-.572-.008a3.75 3.75 0 0 1-2.445-1.273c-.312-.385-.587-.798-.766-1.264a5.3 5.3 0 0 1-.335-1.361 6 6 0 0 1-.009-1.165c.046-.408.115-.813.25-1.202.095-.284.2-.565.335-.833q.133-.265.288-.518c2.542-4.147 8.407-.552 5.865 3.595z"/><path d="M77.535 37.569c-.048.007.31.066.23.06q-.255-.018-.508-.026-.63-.02-1.26-.034c-.643-.019-1.284-.059-1.926-.098q-1.047-.065-2.095-.118a66 66 0 0 0-2.243-.08c-.82-.016-1.64-.006-2.46.008q-1.446.03-2.892.057a419 419 0 0 1-6.6.07q-1.686.004-3.37.001a717 717 0 0 0-3.28.002q-1.61.008-3.22.038a260 260 0 0 0-6.498.217c-1.077.05-2.151.108-3.226.163q-1.615.081-3.231.155-1.527.07-3.051.159l-2.94.168a395 395 0 0 1-7.693.363q-1.019.034-2.036.086l-1.914.108c-.604.036-1.208.068-1.812.107-.573.039-1.144.093-1.715.147l-1.802.172-1.585.146-2.368.222q-.404.036-.807.079c-.033.004-.13.013-.17.02a1 1 0 0 0 .089-.012c.273-.058.24-.063.577-.185-4.43 2.01-7.273-4.253-2.844-6.264.548-.21 1.052-.365 1.639-.402q.435-.045.874-.085l2.367-.223 1.587-.146 1.796-.17c.64-.061 1.278-.12 1.918-.164.619-.04 1.238-.073 1.857-.11l1.958-.11q1.062-.054 2.125-.09 1.155-.045 2.308-.094a354 354 0 0 0 5.26-.263l2.942-.169c1.04-.058 2.08-.115 3.121-.162 1.066-.05 2.131-.098 3.197-.153 1.089-.056 2.178-.115 3.268-.165a266 266 0 0 1 6.689-.224q1.658-.03 3.317-.038 1.653-.005 3.307-.002 1.67.002 3.339 0 1.662-.006 3.324-.023 1.587-.016 3.175-.047 1.45-.027 2.901-.057a75 75 0 0 1 2.717-.009q1.227.023 2.454.089 1.082.054 2.164.122c.566.034 1.131.07 1.698.087.445.012.89.021 1.336.037.348.014.695.028 1.041.067.325.04.65.091.963.188 4.656 1.409 2.664 7.993-1.992 6.585m3.764 18.057a14 14 0 0 0-.38-.07c-.19-.034-.383-.057-.575-.081a44 44 0 0 0-2.397-.222 71 71 0 0 0-1.673-.092 94 94 0 0 0-2.024-.064q-1.18-.025-2.363-.034c-.885-.008-1.77-.003-2.656.002q-1.5.01-3.001.026-1.628.018-3.254.05c-1.098.022-2.196.06-3.294.1q-1.629.062-3.258.142c-1.074.051-2.148.108-3.222.161q-1.579.078-3.158.145-1.526.06-3.052.125-1.494.064-2.987.123-1.479.06-2.958.102-1.495.043-2.99.06-1.479.011-2.959.016-1.428.004-2.856.028-1.407.024-2.815.061-1.37.037-2.74.11c-.9.05-1.8.119-2.7.188q-1.305.103-2.609.217-1.17.1-2.34.21-1.016.092-2.03.195a735 735 0 0 0-3.242.343q-.611.066-1.222.14l-1.072.131-.913.109-.733.087c.06-.006-.472.057-.4.052.315-.045.584-.186.878-.307-4.29 2.291-7.531-3.777-3.24-6.068.387-.165.752-.342 1.171-.4q.384-.065.769-.107l.753-.09q.448-.051.895-.106l1.069-.13q.646-.078 1.293-.149.757-.083 1.516-.163l1.782-.186q1.049-.106 2.097-.202a411 411 0 0 1 5.047-.434c.955-.074 1.91-.147 2.867-.199q1.461-.079 2.924-.118 1.442-.038 2.884-.062 1.47-.025 2.94-.03 1.453-.003 2.905-.015 1.437-.015 2.872-.058 1.44-.04 2.88-.098 1.486-.06 2.971-.123 1.527-.064 3.054-.125 1.553-.065 3.104-.142l3.242-.163q1.665-.08 3.33-.145c1.137-.042 2.274-.08 3.411-.103a395 395 0 0 1 3.318-.051q1.515-.016 3.03-.026a176 176 0 0 1 5.222.033c.725.017 1.45.037 2.175.07q.92.04 1.84.101a53 53 0 0 1 2.774.259c.304.038.608.077.91.13q.222.04.443.083c4.783.887 3.53 7.65-1.253 6.764m-2.583 22.522c.036.01.105.016.023.01l-.71-.058q-.623-.053-1.245-.101a63 63 0 0 0-1.713-.1c-.725-.034-1.45-.058-2.176-.085-.844-.032-1.687-.076-2.53-.123l-2.718-.154q-1.465-.081-2.932-.158a246 246 0 0 0-3.175-.14 392 392 0 0 0-3.412-.112 548 548 0 0 0-3.557-.09l-3.682-.076q-1.88-.04-3.761-.071a168 168 0 0 0-3.644-.033c-1.168.004-2.337.024-3.505.048q-1.715.038-3.429.1a347 347 0 0 0-6.458.294q-1.511.083-3.021.192-1.408.101-2.813.225c-.846.075-1.691.165-2.535.258q-1.114.123-2.224.267c-.65.084-1.297.18-1.945.276l-1.731.263q-.718.11-1.435.223l-2.11.33-.746.116-.594.093c-.53.111.29-.102.311-.11-4.547 1.727-6.989-4.704-2.441-6.43.351-.112.702-.215 1.07-.257l.593-.093.746-.116.935-.146 1.17-.183 1.463-.228 1.755-.266c.693-.103 1.387-.205 2.082-.296q1.17-.15 2.341-.28c.896-.1 1.793-.194 2.69-.273q1.465-.13 2.932-.235 1.562-.111 3.125-.199a268 268 0 0 1 3.235-.164 357 357 0 0 1 3.37-.136 276 276 0 0 1 3.522-.103c1.213-.025 2.426-.045 3.638-.049q1.887-.004 3.773.034 1.892.032 3.784.072l3.694.076q1.803.04 3.604.091 1.74.05 3.476.115a254 254 0 0 1 3.264.143q1.481.077 2.962.16 1.358.075 2.714.153 1.202.07 2.404.118c.75.028 1.5.053 2.25.088a69 69 0 0 1 3.2.217l.76.062c.234.022.468.048.7.095 4.77.95 3.426 7.696-1.344 6.746"/></svg>
