<?xml version="1.0" encoding="UTF-8" standalone="no"?>
<svg
   xmlns:dc="http://purl.org/dc/elements/1.1/"
   xmlns:cc="http://creativecommons.org/ns#"
   xmlns:rdf="http://www.w3.org/1999/02/22-rdf-syntax-ns#"
   xmlns:svg="http://www.w3.org/2000/svg"
   xmlns="http://www.w3.org/2000/svg"
   id="svg8"
   version="1.1"
   viewBox="0 0 100 99.999997"
   height="10cm"
   width="10cm">
  <defs
     id="defs2" />
  <metadata
     id="metadata5">
    <rdf:RDF>
      <cc:Work
         rdf:about="">
        <dc:format>image/svg+xml</dc:format>
        <dc:type
           rdf:resource="http://purl.org/dc/dcmitype/StillImage" />
        <dc:title></dc:title>
      </cc:Work>
    </rdf:RDF>
  </metadata>
  <g
     transform="translate(0,-197.00002)"
     id="layer1">
    <path
       d="m 51.821656,223.32424 c -0.707136,0.3685 -1.245666,0.9456 -1.532855,1.68782 -0.05606,0.15187 -0.04941,0.2124 -0.04544,1.4e-4 0.0061,-0.22992 -0.01119,-0.45926 -0.04147,-0.68698 -0.0305,-0.2242 -0.09707,-0.44027 -0.174014,-0.65224 -0.118586,-0.30664 -0.280297,-0.59367 -0.445754,-0.87686 -0.226354,-0.38314 -0.491654,-0.7406 -0.767869,-1.08874 -0.303091,-0.38027 -0.637744,-0.7331 -0.990407,-1.06733 -0.320767,-0.30063 -0.673534,-0.56339 -1.045546,-0.79663 -0.307535,-0.18939 -0.645594,-0.31243 -0.991264,-0.41044 -0.386273,-0.10388 -0.784524,-0.134 -1.182769,-0.13878 -0.468905,-0.002 -0.930945,0.0751 -1.385811,0.18196 -0.490003,0.11902 -0.951614,0.32048 -1.397521,0.55193 -0.479952,0.25419 -0.904449,0.59195 -1.307587,0.95242 -0.472355,0.43041 -0.869585,0.93087 -1.240136,1.449 -0.426305,0.60404 -0.767504,1.25947 -1.076074,1.92946 -0.344945,0.7645 -0.594408,1.56571 -0.81906,2.37218 -0.258027,0.95014 -0.435012,1.91902 -0.590629,2.89032 -0.167757,1.07972 -0.273794,2.16743 -0.364953,3.25586 -0.09417,1.14384 -0.137264,2.29074 -0.16251,3.43789 -0.02421,1.17719 -0.0086,2.35456 0.01796,3.53153 0.0282,1.19558 0.07736,2.39049 0.136213,3.58491 0.05793,1.18443 0.139721,2.36745 0.231449,3.54969 0.09042,1.15815 0.211249,2.31356 0.342078,3.46774 0.131757,1.14121 0.284908,2.27976 0.442126,3.41769 0.155237,1.11843 0.317873,2.23583 0.481148,3.35311 0.161425,1.08815 0.32105,2.17655 0.475588,3.26569 0.146347,1.04028 0.286655,2.0814 0.42626,3.12261 0.130596,0.97941 0.259485,1.95904 0.391517,2.93825 0.122079,0.91345 0.253881,1.82554 0.390901,2.73685 0.126777,0.8422 0.26629,1.68236 0.415179,2.52091 0.135048,0.76026 0.287813,1.51716 0.449789,2.2721 0.143634,0.67006 0.307721,1.33541 0.486042,1.99701 0.159723,0.5898 0.34259,1.17288 0.540454,1.75088 0.159824,0.47093 0.350525,0.93002 0.570251,1.37592 0.202604,0.40229 0.448524,0.77983 0.706787,1.14803 0.251772,0.35894 0.543414,0.68564 0.85521,0.99282 0.3161,0.30473 0.668906,0.56632 1.033118,0.80993 0.299064,0.20452 0.626436,0.35084 0.972042,0.45446 0.398166,0.10966 0.809588,0.15145 1.220317,0.17827 0.453535,0.0288 0.905642,-0.008 1.353545,-0.0779 0.480644,-0.0797 0.944012,-0.2307 1.398812,-0.4016 0.48024,-0.18267 0.932743,-0.42528 1.366507,-0.69878 0.415948,-0.26747 0.780478,-0.60068 1.120701,-0.95717 0.388249,-0.41577 0.690401,-0.89752 0.971468,-1.38915 0.375605,-0.67211 0.653229,-1.39078 0.909499,-2.11483 0.306004,-0.89168 0.545214,-1.80403 0.767274,-2.71959 0.231838,-0.96388 0.407439,-1.93969 0.560591,-2.91874 0.163076,-1.05156 0.250259,-2.11229 0.318992,-3.1735 0.06815,-1.13915 0.09709,-2.28009 0.115991,-3.42096 0.01487,-1.1086 0.01635,-2.21732 0.01508,-3.326 -0.0021,-1.08137 -0.0092,-2.16273 -0.01887,-3.24405 -0.0091,-1.06067 -0.02647,-2.12124 -0.04424,-3.18179 -0.01762,-1.03736 -0.03453,-2.07474 -0.05574,-3.11204 -0.01931,-0.99818 -0.05778,-1.99581 -0.102778,-2.99311 -0.04505,-0.9489 -0.09453,-1.89757 -0.143896,-2.84624 -0.0459,-0.87107 -0.09431,-1.74201 -0.144121,-2.61286 -0.04813,-0.83614 -0.100777,-1.67201 -0.152718,-2.50792 -0.04852,-0.7807 -0.09611,-1.56146 -0.142155,-2.34231 -0.04098,-0.69427 -0.07907,-1.38872 -0.115787,-2.08323 -0.0289,-0.60036 -0.06397,-1.20034 -0.109077,-1.7997 -0.04359,-0.54648 -0.0987,-1.09194 -0.154686,-1.63726 -0.05048,-0.495 -0.106614,-0.98938 -0.17018,-1.48286 -0.05602,-0.432 -0.12973,-0.86139 -0.211556,-1.28917 -0.08157,-0.419 -0.183324,-0.83365 -0.292398,-1.24623 -0.109969,-0.40512 -0.233053,-0.80653 -0.35745,-1.20741 -0.114263,-0.36554 -0.229526,-0.73076 -0.344487,-1.09609 -0.09359,-0.29784 -0.186966,-0.59575 -0.280363,-0.89365 -0.07421,-0.23672 -0.148421,-0.47345 -0.222631,-0.71017 -0.05914,-0.18866 -0.118282,-0.37731 -0.177422,-0.56597 -0.04714,-0.15036 -0.09427,-0.30073 -0.141409,-0.45109 -0.0027,-0.0199 -0.102955,-0.31395 -0.04765,-0.15273 -1.715452,-4.55178 4.721733,-6.9778 6.437186,-2.42602 v 0 c 0.06369,0.17184 0.121578,0.34558 0.174651,0.52099 0.04714,0.15036 0.09427,0.30072 0.141409,0.45109 0.05914,0.18865 0.11828,0.37731 0.177422,0.56596 0.07419,0.23667 0.148381,0.47333 0.222575,0.71 0.09267,0.29557 0.185307,0.59114 0.278162,0.88665 0.117819,0.37439 0.235961,0.74869 0.353002,1.12334 0.153688,0.49581 0.305109,0.99247 0.439544,1.49391 0.148675,0.56659 0.287287,1.136 0.397756,1.71143 0.106852,0.56368 0.203618,1.12934 0.276739,1.69849 0.07071,0.55152 0.134072,1.10393 0.190314,1.65713 0.06239,0.60793 0.123455,1.21606 0.171387,1.82534 0.04855,0.64973 0.08756,1.30005 0.118737,1.95085 0.03598,0.68059 0.0733,1.36111 0.113451,2.04147 0.04562,0.77362 0.09277,1.54715 0.140845,2.32062 0.05264,0.84716 0.105974,1.69429 0.154731,2.54169 0.05048,0.88265 0.09955,1.76537 0.146056,2.64824 0.05019,0.9646 0.100507,1.92919 0.146214,2.89401 0.04743,1.05368 0.08789,2.10769 0.108317,3.16228 0.02135,1.04572 0.03849,2.09151 0.05621,3.13729 0.01807,1.07851 0.03571,2.15704 0.04493,3.23567 0.0098,1.09919 0.01701,2.19841 0.01913,3.29765 0.0013,1.14955 -2.65e-4,2.29913 -0.01603,3.44859 -0.02103,1.25209 -0.0536,2.50424 -0.129651,3.75437 -0.0834,1.26863 -0.191206,2.53639 -0.387781,3.79327 -0.184005,1.16639 -0.394433,2.32892 -0.672193,3.47711 -0.279931,1.14746 -0.583628,2.29024 -0.972783,3.40627 -0.402148,1.11958 -0.847555,2.22609 -1.441473,3.26013 -0.573964,0.97767 -1.205715,1.92316 -1.99897,2.73965 -0.739129,0.74767 -1.52822,1.44574 -2.425216,2.00132 -0.830619,0.50768 -1.691587,0.96514 -2.607161,1.30236 -0.909709,0.33059 -1.83791,0.61371 -2.79822,0.75483 -0.939576,0.12941 -1.886837,0.19941 -2.835244,0.12858 -0.97754,-0.0765 -1.952683,-0.20916 -2.88908,-0.51273 -0.937967,-0.32244 -1.844228,-0.72479 -2.663561,-1.29131 -0.720489,-0.49381 -1.416986,-1.024 -2.037119,-1.64186 -0.592347,-0.59919 -1.152422,-1.22987 -1.632675,-1.92404 -0.458235,-0.66288 -0.891292,-1.3441 -1.246063,-2.06903 -0.338455,-0.70254 -0.644189,-1.42013 -0.892877,-2.15986 -0.245615,-0.72191 -0.474583,-1.44946 -0.672972,-2.18591 -0.208151,-0.77583 -0.401225,-1.55566 -0.569159,-2.34128 -0.17876,-0.83472 -0.34766,-1.67155 -0.49679,-2.51213 -0.159236,-0.89816 -0.308877,-1.79799 -0.444529,-2.70005 -0.142134,-0.94575 -0.278931,-1.8923 -0.405643,-2.84026 -0.132239,-0.98087 -0.261406,-1.96216 -0.392186,-2.94324 -0.137274,-1.02381 -0.275209,-2.04754 -0.419066,-3.07046 -0.153173,-1.07968 -0.31152,-2.15862 -0.471503,-3.23732 -0.165868,-1.13507 -0.331066,-2.27025 -0.488733,-3.4065 -0.164841,-1.19355 -0.325221,-2.38778 -0.463132,-3.5848 -0.139761,-1.23489 -0.268677,-2.4711 -0.365202,-3.71023 -0.09658,-1.24672 -0.182687,-2.49428 -0.243716,-3.74331 -0.06171,-1.25559 -0.113326,-2.51169 -0.14279,-3.76849 -0.02862,-1.27956 -0.04479,-2.55956 -0.01799,-3.83935 0.02904,-1.28831 0.07847,-2.57634 0.184986,-3.8609 0.106437,-1.26177 0.231728,-2.52252 0.428379,-3.77392 0.199017,-1.22929 0.428019,-2.45488 0.759383,-3.65642 0.328835,-1.1634 0.699649,-2.3168 1.20627,-3.41692 0.499809,-1.06492 1.053669,-2.10522 1.742326,-3.06223 0.678683,-0.92869 1.410367,-1.82014 2.275057,-2.5842 0.846506,-0.73452 1.741871,-1.41332 2.745531,-1.92209 0.960189,-0.47731 1.95267,-0.88952 3.002944,-1.1247 1.008909,-0.21808 2.032437,-0.36901 3.068095,-0.34283 1.013902,0.0348 2.02519,0.14149 3.000648,0.43603 0.948065,0.29714 1.872041,0.66706 2.710526,1.2085 0.73514,0.47984 1.442522,1.00191 2.077022,1.61126 0.580649,0.55992 1.137031,1.145 1.636448,1.77956 0.477017,0.60907 0.932812,1.23564 1.320993,1.90605 0.38363,0.66975 0.742135,1.35607 0.995606,2.08731 0.225607,0.67295 0.413771,1.35883 0.496112,2.06586 0.06764,0.59279 0.10894,1.1888 0.08374,1.78584 -0.02901,0.61053 -0.08829,1.22228 -0.275026,1.80782 -0.369017,1.05647 -0.905574,1.80244 -1.910027,2.3544 -4.338873,2.19901 -7.448746,-3.93708 -3.109876,-6.13609 z"
       id="path889"
       style="opacity:1;fill:#020900;fill-opacity:1;stroke:none;stroke-width:1;stroke-linecap:butt;stroke-linejoin:round;stroke-miterlimit:4;stroke-dasharray:none;stroke-opacity:1" />
    <path
       d="m 64.90523,205.39876 c 0.0038,0.0648 0.0088,0.12943 0.01402,0.19409 0.0073,0.089 0.01484,0.17791 0.02233,0.26686 -0.02286,-0.36973 -0.163295,-0.71033 -0.306835,-1.04653 -0.454567,-0.86457 -1.122971,-1.35731 -2.041614,-1.64305 0.05887,-0.0136 -0.523553,-0.0763 -0.429213,-0.0737 0.03164,6.9e-4 0.06327,0.002 0.09492,0.003 0.006,9e-5 -0.01191,-6.4e-4 -0.01786,-6.1e-4 -0.04346,1.1e-4 -0.08695,-8.5e-4 -0.13036,0.001 -0.06511,0.003 -0.130046,0.009 -0.19507,0.0129 -0.637876,0.0568 -1.197853,0.33325 -1.7004,0.71454 -0.478877,0.38857 -0.786281,0.90541 -0.999945,1.4748 -0.04395,0.1186 -0.08855,0.32176 -0.109321,0.44038 0.0034,-0.0228 0.0068,-0.0456 0.01013,-0.0684 0.0032,-0.0216 0.0064,-0.0432 0.0096,-0.0647 -0.0071,0.0467 -0.01185,0.0937 -0.01643,0.14073 -0.0016,0.003 -0.006,0.0977 -0.0044,0.0479 -5.29e-4,-0.033 -5.29e-4,0.0818 -2.65e-4,0.1 0.01106,0.25914 0.1176,0.80426 0.246492,1.05189 0.184729,0.3549 0.434109,0.67221 0.651166,1.00832 0.438713,0.29121 0.83535,0.65889 1.316143,0.87362 0.702016,0.31355 1.592844,0.26411 2.305068,0.0106 0.05265,-0.0202 0.02125,-0.008 -0.0019,0.002 -0.02249,0.009 -0.045,0.0182 -0.0675,0.0273 -0.01844,0.007 -0.0369,0.0149 -0.05535,0.0224 -0.01471,0.006 -0.02944,0.0119 -0.04416,0.0179 0.0044,-0.002 -0.01669,0.007 -0.01262,0.005 0.707248,-0.35003 0.317003,-0.11809 1.112891,-0.72983 -3.464023,3.41497 -8.293518,-1.4839 -4.829495,-4.89886 v 0 c 0.507621,-0.39208 0.608954,-0.53751 1.148937,-0.75333 0.01471,-0.006 0.02944,-0.0119 0.04416,-0.0179 0.01849,-0.007 0.03697,-0.015 0.05545,-0.0224 0.02384,-0.01 0.04767,-0.0193 0.07151,-0.0289 0.057,-0.023 0.114024,-0.046 0.1716,-0.0675 0.765657,-0.27699 1.696083,-0.36539 2.463081,-0.0273 0.489706,0.21588 0.894056,0.5885 1.341083,0.88275 0.223787,0.34328 0.481226,0.66685 0.671356,1.02986 0.206687,0.39461 0.253894,0.87061 0.28452,1.30823 0.0064,0.15187 0.0091,0.30394 0.0026,0.45587 -0.0037,0.0984 -0.0081,0.19686 -0.01662,0.295 -0.0084,0.0907 -0.01796,0.18132 -0.03174,0.27139 -0.0032,0.0218 -0.0064,0.0436 -0.0097,0.0654 -0.0047,0.0316 -0.0093,0.0632 -0.01408,0.0948 -0.03314,0.21747 -0.07714,0.43333 -0.145987,0.64278 -0.2393,0.64875 -0.585372,1.23761 -1.127149,1.68271 -0.589084,0.45342 -1.245703,0.7813 -1.996628,0.8545 -0.232267,0.0177 -0.464407,0.0315 -0.697298,0.0186 -0.327174,-0.0111 -0.654079,-0.0393 -0.97308,-0.11762 -0.136215,-0.0403 -0.275563,-0.0713 -0.408643,-0.12096 -0.888323,-0.33173 -1.608368,-0.95615 -2.051953,-1.79486 -0.21174,-0.4806 -0.393147,-0.97075 -0.419817,-1.50106 -0.0082,-0.0976 -0.01648,-0.19519 -0.02447,-0.29281 -0.01106,-0.13788 -0.02122,-0.27584 -0.02817,-0.414 -0.234707,-4.85864 6.636445,-5.19056 6.871155,-0.33192 z"
       id="path891"
       style="opacity:1;fill:#020900;fill-opacity:1;stroke:none;stroke-width:1;stroke-linecap:butt;stroke-linejoin:round;stroke-miterlimit:4;stroke-dasharray:none;stroke-opacity:1" />
    <path
       d="m 29.569034,206.74429 c -0.0295,0.0519 -0.02779,0.0512 -0.0011,0.003 0.0094,-0.0196 0.04511,-0.0892 0.04624,-0.0914 0.02381,-0.054 0.052,-0.20489 0.06478,-0.29259 0.0092,-0.0565 0.01011,-0.11332 0.0075,-0.17032 -0.0097,-0.16965 -0.05769,-0.33227 -0.112871,-0.49182 -0.08907,-0.2504 -0.237604,-0.46771 -0.400379,-0.6749 -0.540646,-0.62419 -1.29336,-1.01669 -2.11641,-1.10679 -0.168126,-0.0184 -0.338166,-0.008 -0.507248,-0.0123 -0.325576,0.0185 -0.645061,0.0858 -0.948959,0.20292 0.02325,-0.01 0.114758,-0.0505 0.03883,-0.0165 -0.383191,0.16817 -0.699993,0.43864 -0.990529,0.73376 -0.223813,0.24114 -0.391468,0.52168 -0.525509,0.82018 -0.118698,0.27153 -0.178071,0.56112 -0.210332,0.85412 -0.01234,0.14245 -0.01084,0.28579 0.0028,0.42804 -0.0068,-0.0461 -0.01346,-0.0947 -0.02013,-0.1418 -0.01874,-0.0968 0.03254,0.15559 0.04183,0.19626 0.0691,0.28917 0.192495,0.55849 0.343265,0.8132 0.23813,0.37521 0.557268,0.69929 0.932112,0.94006 0.146756,0.0943 0.306611,0.16638 0.459916,0.24957 0.815325,0.32956 1.70373,0.37879 2.525912,0.036 0.158483,-0.0661 0.305816,-0.15623 0.458724,-0.23434 0.433112,-0.30828 0.230439,-0.14292 0.609814,-0.49389 -3.327094,3.5486 -8.345587,-1.15647 -5.018601,-4.70508 v 0 c 0.469318,-0.44722 0.219403,-0.23759 0.751098,-0.62727 0.177809,-0.0937 0.348886,-0.20156 0.533427,-0.28123 0.934736,-0.40358 1.951805,-0.36792 2.888676,-2e-4 0.173517,0.092 0.354333,0.1714 0.520552,0.27601 0.471017,0.29644 0.858478,0.70664 1.157859,1.17219 0.216088,0.35714 0.398254,0.73345 0.499295,1.1407 0.0435,0.18315 0.08405,0.36696 0.107302,0.55398 0.01371,0.0968 0.02755,0.19366 0.03955,0.29073 0.03387,0.30223 0.05073,0.60675 0.02574,0.91054 -0.0423,0.42968 -0.121872,0.85499 -0.293063,1.25417 -0.180107,0.41164 -0.401214,0.80301 -0.705688,1.13726 -0.359347,0.37093 -0.754132,0.7046 -1.231866,0.91397 -0.08735,0.0401 -0.175191,0.079 -0.263763,0.11636 -0.420735,0.17657 -0.860809,0.30122 -1.319226,0.32726 -0.190926,-0.003 -0.38277,0.0105 -0.572779,-0.008 -0.955828,-0.095 -1.812985,-0.55742 -2.44452,-1.27296 -0.312339,-0.38553 -0.586985,-0.79833 -0.765883,-1.26444 -0.163923,-0.43974 -0.292908,-0.89146 -0.335039,-1.36096 -0.03404,-0.38739 -0.04753,-0.77675 -0.0089,-1.16459 0.04515,-0.408 0.115031,-0.81318 0.249816,-1.20232 0.09511,-0.28389 0.200235,-0.56479 0.335076,-0.83258 0.08987,-0.17614 0.183834,-0.35012 0.287735,-0.51846 2.542198,-4.14713 8.407126,-0.55192 5.864927,3.59521 z"
       id="path893"
       style="opacity:1;fill:#020900;fill-opacity:1;stroke:none;stroke-width:1;stroke-linecap:butt;stroke-linejoin:round;stroke-miterlimit:4;stroke-dasharray:none;stroke-opacity:1" />
    <path
       d="m 77.53538,234.5689 c -0.04854,0.007 0.30993,0.0656 0.229166,0.0604 -0.168769,-0.0138 -0.3381,-0.0194 -0.507272,-0.0259 -0.420097,-0.0144 -0.840362,-0.0229 -1.260541,-0.0345 -0.642398,-0.0185 -1.283867,-0.0586 -1.925265,-0.0976 -0.698148,-0.0441 -1.396632,-0.0825 -2.095272,-0.11789 -0.747249,-0.0403 -1.495028,-0.0666 -2.243185,-0.0813 -0.819833,-0.0149 -1.639763,-0.005 -2.459511,0.009 -0.964248,0.0193 -1.928479,0.0394 -2.892756,0.0573 -1.076301,0.0199 -2.152658,0.0362 -3.229081,0.0478 -1.123717,0.0114 -2.247479,0.0176 -3.371244,0.022 -1.123352,0.003 -2.246712,0.002 -3.370066,0.001 -1.09314,-0.001 -2.186281,-0.002 -3.279415,0.002 -1.073656,0.004 -2.147219,0.0187 -3.220702,0.0374 -1.085585,0.0199 -2.17084,0.0537 -3.256021,0.0888 -1.081103,0.0352 -2.16186,0.0798 -3.242426,0.12849 -1.07532,0.0498 -2.15021,0.10821 -3.225258,0.16344 -1.076761,0.0551 -2.153782,0.10485 -3.23079,0.15479 -1.017394,0.0458 -2.03432,0.10104 -3.051106,0.15859 -0.979553,0.0565 -1.95912,0.11274 -2.938706,0.16863 -0.923268,0.0531 -1.846781,0.10176 -2.770394,0.14837 -0.861533,0.0434 -1.723291,0.082 -2.585109,0.1192 -0.779306,0.0333 -1.558699,0.0645 -2.338128,0.0947 -0.679139,0.0238 -1.358089,0.0517 -2.036741,0.0868 -0.637765,0.0349 -1.275475,0.0709 -1.913117,0.10794 -0.604186,0.0357 -1.208581,0.0678 -1.812561,0.10698 -0.572398,0.0386 -1.143595,0.0926 -1.714704,0.14657 -0.600647,0.0577 -1.201293,0.11548 -1.802082,0.17172 -0.528487,0.0491 -1.05713,0.0964 -1.585569,0.14597 -0.4375233,0.0412 -0.8750512,0.0824 -1.3125887,0.12346 -0.3516164,0.033 -0.703235,0.066 -1.054853,0.0989 -0.2692911,0.0247 -0.5384522,0.0508 -0.8074308,0.0787 -0.032304,0.004 -0.1288801,0.0136 -0.1689502,0.0199 -0.029194,0.005 0.059006,-0.005 0.087917,-0.0116 0.2730812,-0.0582 0.2403538,-0.0629 0.5773099,-0.18515 -4.4292098,2.01098 -7.27299828,-4.25287 -2.8437884,-6.26373 v 0 c 0.5481486,-0.21002 1.0517711,-0.36469 1.6385709,-0.4019 0.2911954,-0.0301 0.5825635,-0.0585 0.874092,-0.0853 0.3514125,-0.0329 0.7028249,-0.0659 1.0542352,-0.0989 0.4376828,-0.0411 0.8753554,-0.0823 1.3130242,-0.12351 0.5288679,-0.0496 1.0579319,-0.097 1.5868519,-0.14608 0.598909,-0.0561 1.197671,-0.11365 1.79644,-0.17119 0.638744,-0.0603 1.277631,-0.12012 1.917854,-0.16273 0.618721,-0.0399 1.237824,-0.0733 1.856761,-0.10969 0.652671,-0.038 1.30541,-0.0748 1.958212,-0.11041 0.707916,-0.0365 1.416122,-0.066 2.124543,-0.0908 0.769475,-0.0298 1.538913,-0.0606 2.308265,-0.0935 0.845058,-0.0365 1.690057,-0.0743 2.534834,-0.11685 0.908555,-0.0459 1.81701,-0.0937 2.725224,-0.14595 0.980649,-0.0559 1.961274,-0.11228 2.941889,-0.16881 1.040146,-0.0589 2.080435,-0.11528 3.1212,-0.1622 1.065553,-0.0494 2.13112,-0.0986 3.196431,-0.1531 1.089464,-0.056 2.178769,-0.1152 3.268514,-0.16553 1.109686,-0.05 2.219568,-0.0958 3.329805,-0.13187 1.119428,-0.0362 2.238939,-0.0709 3.358788,-0.0913 1.105669,-0.0192 2.211421,-0.0346 3.317269,-0.0384 1.102315,-0.004 2.204632,-0.003 3.306953,-0.002 1.113025,8e-4 2.226056,0.002 3.339078,-0.001 1.108043,-0.004 2.216084,-0.0104 3.324085,-0.0216 1.058439,-0.0113 2.116817,-0.0275 3.175138,-0.047 0.96711,-0.0179 1.93417,-0.0382 2.901254,-0.0575 0.905293,-0.0156 1.810789,-0.0257 2.716162,-0.009 0.818443,0.0165 1.636511,0.0447 2.453973,0.0888 0.721736,0.0366 1.443321,0.0762 2.164556,0.12175 0.565587,0.0344 1.131197,0.0705 1.697649,0.0875 0.445402,0.0123 0.890908,0.0211 1.336207,0.037 0.34758,0.0136 0.695494,0.0281 1.041318,0.0674 0.325035,0.0396 0.649419,0.0909 0.963075,0.1877 4.655902,1.40857 2.663889,7.99301 -1.992011,6.58444 z"
       id="path895"
       style="opacity:1;fill:#020900;fill-opacity:1;stroke:none;stroke-width:1;stroke-linecap:butt;stroke-linejoin:round;stroke-miterlimit:4;stroke-dasharray:none;stroke-opacity:1" />
    <path
       d="m 81.29861,252.62625 c -0.125865,-0.0257 -0.25222,-0.0486 -0.378746,-0.0708 -0.191085,-0.0335 -0.38372,-0.0569 -0.576157,-0.0809 -0.340238,-0.0417 -0.681267,-0.0766 -1.022368,-0.11035 -0.457383,-0.0454 -0.915752,-0.0796 -1.374241,-0.11145 -0.557284,-0.0383 -1.115171,-0.0666 -1.673174,-0.0918 -0.674201,-0.0301 -1.348807,-0.0488 -2.023473,-0.0644 -0.787659,-0.0175 -1.575461,-0.0268 -2.363274,-0.0339 -0.885529,-0.008 -1.771086,-0.003 -2.656612,0.002 -1.0002,0.007 -2.00038,0.0155 -3.000547,0.0259 -1.084856,0.0122 -2.16965,0.029 -3.254362,0.0504 -1.098095,0.0224 -2.195817,0.0591 -3.293372,0.0996 -1.086498,0.0409 -2.172637,0.0907 -3.258682,0.14202 -1.074053,0.0518 -2.147885,0.10798 -3.221832,0.16188 -1.052433,0.0529 -2.105144,0.0999 -3.157955,0.14445 -1.01731,0.0409 -2.034619,0.0818 -3.051829,0.12509 -0.995571,0.0427 -1.991233,0.0831 -2.98691,0.12316 -0.985808,0.0411 -1.971955,0.0729 -2.958195,0.10145 -0.996408,0.0305 -1.993119,0.048 -2.989903,0.0598 -0.986189,0.009 -1.972423,0.0127 -2.958645,0.0165 -0.952219,0.002 -1.90437,0.0131 -2.856457,0.0284 -0.938239,0.0153 -1.876372,0.0361 -2.81441,0.0607 -0.913892,0.0236 -1.82726,0.0622 -2.740136,0.11081 -0.900745,0.0493 -1.800273,0.11789 -2.699621,0.18762 -0.870144,0.0673 -1.739718,0.14168 -2.609245,0.21646 -0.780285,0.0671 -1.560286,0.13751 -2.340168,0.20917 -0.677233,0.0623 -1.354195,0.12751 -2.030805,0.19626 -0.586286,0.0602 -1.172468,0.12134 -1.758603,0.18295 -0.494438,0.0514 -0.988585,0.10561 -1.482712,0.15994 -0.407676,0.0437 -0.814919,0.0912 -1.221974,0.14034 -0.35753,0.0438 -0.715049,0.0878 -1.072695,0.13066 -0.304002,0.0368 -0.608075,0.073 -0.912211,0.10874 -0.244524,0.0284 -0.48891,0.0579 -0.7333101,0.0874 0.060044,-0.006 -0.4720693,0.0568 -0.3990515,0.0512 0.3141433,-0.0447 0.5826826,-0.18545 0.8771046,-0.30691 -4.2907415,2.29151 -7.5314221,-3.77652 -3.2406809,-6.06803 v 0 c 0.3879784,-0.16444 0.7527835,-0.34131 1.1720843,-0.40026 0.2550941,-0.0429 0.5112737,-0.0773 0.7683688,-0.10586 0.2511822,-0.0302 0.5023506,-0.0606 0.7536593,-0.0898 0.2984085,-0.035 0.5967525,-0.0706 0.8950285,-0.1067 0.356092,-0.0427 0.71205,-0.0865 1.068031,-0.1301 0.430991,-0.052 0.862178,-0.1023 1.293818,-0.14862 0.505035,-0.0555 1.010095,-0.11087 1.515447,-0.16346 0.59413,-0.0624 1.188306,-0.12446 1.78259,-0.18543 0.698508,-0.0709 1.397364,-0.13833 2.096514,-0.20261 0.793203,-0.0729 1.586527,-0.14444 2.38014,-0.21273 0.888791,-0.0764 1.777635,-0.15239 2.667057,-0.22119 0.954975,-0.074 1.910163,-0.14647 2.866637,-0.19852 0.974255,-0.0516 1.949012,-0.093 2.92434,-0.11811 0.961364,-0.0252 1.922822,-0.0466 2.884395,-0.0622 0.979935,-0.0157 1.959935,-0.0273 2.940008,-0.0292 0.96824,-0.004 1.936493,-0.007 2.904701,-0.0161 0.957366,-0.0112 1.91466,-0.0281 2.871666,-0.0574 0.960429,-0.0278 1.920769,-0.0587 2.880775,-0.0988 0.990288,-0.0398 1.98056,-0.0801 2.970739,-0.12249 1.017741,-0.0433 2.035577,-0.0843 3.053419,-0.12515 1.034891,-0.0438 2.069684,-0.09 3.104203,-0.14197 1.080648,-0.0542 2.16118,-0.11077 3.241934,-0.16286 1.10985,-0.0524 2.219793,-0.10323 3.330104,-0.14502 1.136896,-0.0419 2.273967,-0.0797 3.411421,-0.10289 1.105911,-0.0217 2.211903,-0.0389 3.31796,-0.0513 1.010065,-0.0105 2.020146,-0.0194 3.030243,-0.0261 0.920171,-0.006 1.840376,-0.0104 2.760546,-0.002 0.820275,0.007 1.640541,0.0172 2.460654,0.0355 0.725401,0.0169 1.45074,0.0372 2.175637,0.0696 0.613336,0.0279 1.226537,0.0591 1.839077,0.10133 0.525706,0.0366 1.05125,0.0763 1.575678,0.12844 0.400106,0.0397 0.800106,0.0809 1.199163,0.13019 0.304004,0.0382 0.607984,0.0775 0.909741,0.13109 0.147884,0.026 0.295802,0.052 0.442857,0.0824 4.782883,0.88628 3.529499,7.6503 -1.253384,6.76402 z"
       id="path897"
       style="opacity:1;fill:#020900;fill-opacity:1;stroke:none;stroke-width:1;stroke-linecap:butt;stroke-linejoin:round;stroke-miterlimit:4;stroke-dasharray:none;stroke-opacity:1" />
    <path
       d="m 78.715697,275.14823 c 0.03584,0.01 0.105534,0.0162 0.02379,0.01 -0.236712,-0.0198 -0.473525,-0.0384 -0.710245,-0.058 -0.415004,-0.0352 -0.830061,-0.0697 -1.245341,-0.10149 -0.570317,-0.0429 -1.141547,-0.0719 -1.712782,-0.0993 -0.725062,-0.0341 -1.450526,-0.0584 -2.175873,-0.0853 -0.844063,-0.0317 -1.687555,-0.0763 -2.530888,-0.12322 -0.905721,-0.0523 -1.811536,-0.10295 -2.717342,-0.15376 -0.977143,-0.0546 -1.954374,-0.10765 -2.931742,-0.1581 -1.057891,-0.0546 -2.116283,-0.0985 -3.174778,-0.13944 -1.137144,-0.0433 -2.274564,-0.0788 -3.412037,-0.11219 -1.185659,-0.0345 -2.371479,-0.0629 -3.557331,-0.0897 -1.227241,-0.0267 -2.454532,-0.0508 -3.681796,-0.0763 -1.253826,-0.0264 -2.507716,-0.0496 -3.761626,-0.0715 -1.214496,-0.0248 -2.429174,-0.034 -3.643897,-0.0325 -1.1683,0.004 -2.336467,0.0231 -3.504499,0.0472 -1.143183,0.0247 -2.286064,0.0609 -3.428826,0.10012 -1.100391,0.0384 -2.200473,0.085 -3.300444,0.13388 -1.052951,0.0458 -2.10543,0.10128 -3.157733,0.15988 -1.007774,0.0558 -2.014955,0.12135 -3.021745,0.1926 -0.938264,0.0665 -1.875808,0.14256 -2.812776,0.22525 -0.846188,0.0749 -1.690986,0.16423 -2.535264,0.25799 -0.742051,0.082 -1.483313,0.17093 -2.22378,0.26617 -0.649274,0.0848 -1.297047,0.18045 -1.944661,0.27694 -0.577293,0.0865 -1.154371,0.17444 -1.73143,0.26249 -0.4786,0.073 -0.956808,0.14846 -1.435103,0.22339 -0.391331,0.0612 -0.782684,0.12231 -1.174034,0.18341 -0.311829,0.0487 -0.623659,0.0974 -0.935489,0.14605 -0.248532,0.0388 -0.497064,0.0776 -0.745596,0.1164 -0.198085,0.0309 -0.396171,0.0618 -0.594256,0.0928 -0.52967,0.11121 0.289069,-0.10234 0.311153,-0.10912 -4.547607,1.72648 -6.9892192,-4.7048 -2.441612,-6.43129 v 0 c 0.3515384,-0.11131 0.7018583,-0.21503 1.0693807,-0.25643 0.1980853,-0.0309 0.3961713,-0.0618 0.5942563,-0.0928 0.248531,-0.0388 0.497062,-0.0776 0.745593,-0.1164 0.311801,-0.0487 0.623602,-0.0974 0.935403,-0.14603 0.390172,-0.0609 0.780347,-0.12182 1.170499,-0.18286 0.487313,-0.0763 0.97454,-0.15325 1.462165,-0.22758 0.585032,-0.0893 1.170085,-0.17841 1.755358,-0.26609 0.693096,-0.10325 1.386394,-0.20541 2.081295,-0.2959 0.77979,-0.10018 1.560381,-0.19396 2.341831,-0.28031 0.895768,-0.0994 1.792098,-0.19397 2.689892,-0.27339 0.976614,-0.0861 1.953811,-0.16542 2.931773,-0.23471 1.041098,-0.0736 2.082593,-0.14141 3.124708,-0.19911 1.078071,-0.06 2.156327,-0.11681 3.23506,-0.16375 1.123077,-0.0498 2.246265,-0.0974 3.369773,-0.1366 1.174044,-0.0403 2.348206,-0.0774 3.522681,-0.10271 1.212567,-0.025 2.425271,-0.0448 3.638113,-0.0486 1.257552,-0.002 2.515061,0.008 3.772379,0.0335 1.261552,0.022 2.523083,0.0454 3.784547,0.0719 1.231316,0.0256 2.46266,0.0498 3.693951,0.0766 1.201434,0.0271 2.402835,0.0559 3.604067,0.0909 1.158812,0.034 2.31757,0.0702 3.476048,0.11438 1.088057,0.0421 2.17601,0.0873 3.26345,0.14345 0.987552,0.051 1.974967,0.10456 2.962291,0.15974 0.904732,0.0507 1.809472,0.10135 2.71412,0.15357 0.801095,0.0446 1.602335,0.0871 2.404123,0.11735 0.750123,0.0279 1.500365,0.053 2.250186,0.0885 0.636728,0.0306 1.273426,0.0633 1.909112,0.11149 0.430239,0.033 0.860266,0.0686 1.290222,0.10508 0.253095,0.0211 0.506317,0.0407 0.759362,0.0623 0.234439,0.0219 0.468736,0.0481 0.699786,0.0946 4.770646,0.94994 3.427222,7.69666 -1.343425,6.74671 z"
       id="path899"
       style="opacity:1;fill:#020900;fill-opacity:1;stroke:none;stroke-width:1;stroke-linecap:butt;stroke-linejoin:round;stroke-miterlimit:4;stroke-dasharray:none;stroke-opacity:1" />
  </g>
</svg>
