<?xml version="1.0" encoding="UTF-8" standalone="no"?>
<!-- Created with Inkscape (http://www.inkscape.org/) -->

<svg
   xmlns:dc="http://purl.org/dc/elements/1.1/"
   xmlns:cc="http://creativecommons.org/ns#"
   xmlns:rdf="http://www.w3.org/1999/02/22-rdf-syntax-ns#"
   xmlns:svg="http://www.w3.org/2000/svg"
   xmlns="http://www.w3.org/2000/svg"
   xmlns:sodipodi="http://sodipodi.sourceforge.net/DTD/sodipodi-0.dtd"
   xmlns:inkscape="http://www.inkscape.org/namespaces/inkscape"
   width="10cm"
   height="10cm"
   viewBox="0 0 100 99.999997"
   version="1.1"
   id="svg8"
   sodipodi:docname="ala.svg"
   inkscape:version="0.92.3 (2405546, 2018-03-11)">
  <defs
     id="defs2" />
  <sodipodi:namedview
     id="base"
     pagecolor="#ffffff"
     bordercolor="#666666"
     borderopacity="1.0"
     inkscape:pageopacity="0.0"
     inkscape:pageshadow="2"
     inkscape:zoom="1"
     inkscape:cx="175.50186"
     inkscape:cy="160.37856"
     inkscape:document-units="cm"
     inkscape:current-layer="layer1"
     showgrid="true"
     units="cm"
     inkscape:window-width="882"
     inkscape:window-height="707"
     inkscape:window-x="784"
     inkscape:window-y="204"
     inkscape:window-maximized="1"
     inkscape:snap-nodes="false">
    <inkscape:grid
       type="xygrid"
       id="grid815"
       units="cm"
       spacingx="9.9999998"
       spacingy="9.9999998" />
  </sodipodi:namedview>
  <metadata
     id="metadata5">
    <rdf:RDF>
      <cc:Work
         rdf:about="">
        <dc:format>image/svg+xml</dc:format>
        <dc:type
           rdf:resource="http://purl.org/dc/dcmitype/StillImage" />
        <dc:title></dc:title>
      </cc:Work>
    </rdf:RDF>
  </metadata>
  <g
     inkscape:label="Layer 1"
     inkscape:groupmode="layer"
     id="layer1"
     transform="translate(0,-197.00002)">
    <path
       style="opacity:1;fill:#020900;fill-opacity:1;stroke:none;stroke-width:1;stroke-linecap:butt;stroke-linejoin:round;stroke-miterlimit:4;stroke-dasharray:none;stroke-opacity:1"
       id="path68"
       d="m 24.322039,217.11981 c 0.372634,0.2099 0.69714,0.48771 1.010518,0.77555 0.261741,0.24532 0.510251,0.5042 0.758272,0.76323 0.240903,0.25522 0.486963,0.50543 0.738957,0.7497 0.322795,0.31114 0.654563,0.61273 0.984422,0.91631 0.46631,0.42981 0.912953,0.88021 1.359271,1.33055 0.483208,0.4908 0.964779,0.98321 1.443913,1.47799 0.519231,0.53646 1.044144,1.06736 1.567421,1.59985 0.629099,0.63795 1.251521,1.28236 1.870098,1.9305 0.698072,0.73513 1.392656,1.47355 2.094466,2.20511 0.75951,0.79323 1.534655,1.57114 2.319721,2.33901 0.889042,0.86023 1.799368,1.69806 2.702846,2.54302 1.072615,1.00087 2.126493,2.02144 3.172618,3.04987 1.107589,1.09989 2.212698,2.20222 3.328326,3.29398 1.166305,1.13733 2.349765,2.25685 3.533892,3.37555 1.267542,1.19453 2.530623,2.39375 3.786997,3.60002 1.293132,1.24491 2.571104,2.50539 3.846073,3.76884 1.24886,1.24187 2.490441,2.49102 3.73353,3.73865 1.191287,1.19366 2.377435,2.3924 3.560022,3.59466 1.095182,1.11741 2.183595,2.24142 3.275589,3.36193 0.944568,0.96846 1.890183,1.93589 2.83822,2.90095 0.773739,0.78808 1.551469,1.57223 2.329024,2.35654 0.628147,0.63257 1.255119,1.26629 1.880909,1.90119 0.498647,0.50618 0.997043,1.01262 1.495465,1.51902 0.39461,0.40164 0.790056,0.80246 1.186175,1.20261 0.352374,0.35448 0.70594,0.70756 1.045337,1.07454 0.258638,0.27817 0.478602,0.58721 0.697013,0.89679 2.767446,4.00034 -2.889888,7.91409 -5.657334,3.91376 v 0 c -0.03413,-0.0549 -0.0656,-0.11152 -0.108842,-0.16012 -0.275876,-0.3069 -0.579154,-0.58805 -0.865082,-0.88539 -0.400753,-0.40484 -0.80083,-0.81034 -1.20006,-1.21668 -0.497265,-0.50523 -0.994505,-1.01049 -1.491998,-1.5155 -0.62112,-0.63016 -1.243423,-1.25916 -1.866887,-1.887 -0.784942,-0.79177 -1.570045,-1.58338 -2.351135,-2.37895 -0.954442,-0.9716 -1.906471,-1.94556 -2.857423,-2.92057 -1.084562,-1.11291 -2.16561,-2.22924 -3.253264,-3.33913 -1.172239,-1.19176 -2.348016,-2.38001 -3.528891,-3.56322 -1.232805,-1.2373 -2.464109,-2.47612 -3.702574,-3.70777 -1.249235,-1.23797 -2.501341,-2.47312 -3.768307,-3.69299 -1.242975,-1.19349 -2.492729,-2.37985 -3.746775,-3.56171 -1.213479,-1.14645 -2.426165,-2.29387 -3.621246,-3.45955 -1.119338,-1.09551 -2.228556,-2.2012 -3.339634,-3.30507 -1.0052,-0.9884 -2.017898,-1.96919 -3.048654,-2.93099 -0.941168,-0.88024 -1.889487,-1.75305 -2.814769,-2.65009 -0.836899,-0.81902 -1.663618,-1.64835 -2.473426,-2.49424 -0.705734,-0.73585 -1.404657,-1.47816 -2.106509,-2.21771 -0.595395,-0.62391 -1.19452,-1.24419 -1.800119,-1.85822 -0.53512,-0.54456 -1.071888,-1.08751 -1.60283,-1.63615 -0.460648,-0.47577 -0.923751,-0.94916 -1.388248,-1.42117 -0.372026,-0.37548 -0.743409,-0.75197 -1.131476,-1.11101 -0.376154,-0.34621 -0.75415,-0.69051 -1.121564,-1.04605 -0.310165,-0.30223 -0.615351,-0.60948 -0.912476,-0.92459 -0.152196,-0.15901 -0.304026,-0.3185 -0.461972,-0.47186 -0.148382,-0.14217 0.245391,0.1871 0.282067,0.16736 -4.236525,-2.39026 -0.856192,-8.38161 3.380333,-5.99135 z"
       inkscape:connector-curvature="0" />
    <path
       style="opacity:1;fill:#020900;fill-opacity:1;stroke:none;stroke-width:1;stroke-linecap:butt;stroke-linejoin:round;stroke-miterlimit:4;stroke-dasharray:none;stroke-opacity:1"
       id="path74"
       d="m 77.723461,218.03802 c 0.03395,-0.0421 0.06977,-0.10207 0.107138,-0.16305 0.05316,-0.0976 -0.04891,0.0992 -0.05873,0.11847 -0.07297,0.14702 -0.151847,0.29087 -0.233381,0.43328 -0.125169,0.21282 -0.261101,0.41904 -0.398076,0.62438 -0.127728,0.19013 -0.259675,0.37736 -0.387678,0.56731 -0.192336,0.2962 -0.395282,0.58516 -0.603224,0.87055 -0.307784,0.4162 -0.639619,0.81376 -0.97115,1.21104 -0.410128,0.49445 -0.831863,0.97881 -1.265666,1.45257 -0.574046,0.62714 -1.207487,1.1944 -1.853917,1.74501 -0.680712,0.56506 -1.367055,1.1233 -2.049359,1.68645 -0.786358,0.65275 -1.578991,1.29786 -2.371466,1.94316 -0.928045,0.75344 -1.851205,1.51286 -2.773556,2.27326 -1.020643,0.84011 -2.03173,1.69162 -3.033707,2.55388 -1.038839,0.89812 -2.058323,1.81817 -3.066523,2.75044 -1.058305,0.9808 -2.086438,1.9933 -3.103984,3.01609 -1.089604,1.098 -2.156198,2.21845 -3.21357,3.34742 -1.091954,1.17528 -2.172743,2.36085 -3.258466,3.54188 -1.093637,1.18129 -2.166162,2.38171 -3.226829,3.59261 -1.09247,1.24793 -2.157198,2.51969 -3.216738,3.79556 -1.032526,1.24206 -2.062975,2.48584 -3.085383,3.73624 -0.927161,1.13244 -1.841484,2.27527 -2.748904,3.42356 -0.784199,0.99448 -1.563952,1.99244 -2.335009,2.99714 -0.660027,0.86415 -1.313762,1.73307 -1.969969,2.60012 -0.545131,0.72013 -1.08962,1.44076 -1.633865,2.16157 -0.456369,0.60925 -0.915628,1.21631 -1.374952,1.82333 -0.372084,0.49307 -0.743839,0.98637 -1.117621,1.47815 -0.304785,0.40258 -0.610392,0.80453 -0.916996,1.20572 -0.249039,0.32623 -0.49793,0.65256 -0.747787,0.97816 -0.199543,0.2599 -0.399208,0.5197 -0.59886,0.77952 -0.176173,0.22825 -0.356714,0.45306 -0.537247,0.67785 -0.139076,0.17391 -0.279323,0.34688 -0.420383,0.51918 -0.108765,0.1327 -0.217676,0.26528 -0.32657,0.39787 -0.08595,0.10465 -0.171903,0.2093 -0.257853,0.31395 -0.06342,0.0772 -0.126859,0.15431 -0.189984,0.23172 -0.06341,0.0799 -0.127862,0.15903 -0.193,0.23757 -0.04801,0.0577 -0.09617,0.11531 -0.144317,0.17292 -0.03647,0.0436 -0.07294,0.0873 -0.109404,0.13089 -0.03041,0.0353 -0.143708,0.17413 -0.01526,0.0164 0.1271,-0.16622 -0.111324,0.14602 -0.0045,0.006 -2.8869,3.915 -8.423555,-0.16769 -5.536655,-4.08269 v 0 c 0.03268,-0.0437 0.05632,-0.16459 0.09899,-0.13053 3e-5,2e-5 -0.15537,0.20523 0.02038,-0.0269 0.05239,-0.0652 0.104635,-0.13042 0.158847,-0.1941 0.03634,-0.0435 0.07269,-0.087 0.109035,-0.13046 0.04314,-0.0516 0.0863,-0.10324 0.129349,-0.15495 0.04728,-0.0569 0.0935,-0.11463 0.139645,-0.17247 0.07322,-0.0902 0.147204,-0.17984 0.220922,-0.26966 0.0859,-0.10459 0.171794,-0.20917 0.257688,-0.31375 0.106654,-0.12986 0.213323,-0.25972 0.319856,-0.38968 0.127408,-0.15561 0.254062,-0.31183 0.379634,-0.46893 0.149756,-0.18646 0.299715,-0.37278 0.44614,-0.56189 0.19871,-0.25858 0.397433,-0.51716 0.596034,-0.77583 0.247109,-0.32202 0.493245,-0.64478 0.73955,-0.96741 0.302931,-0.39637 0.604848,-0.79352 0.905978,-1.19126 0.37081,-0.48787 0.739562,-0.97728 1.108708,-1.4664 0.45788,-0.6051 0.915684,-1.21027 1.370622,-1.81759 0.545814,-0.72289 1.091874,-1.4456 1.638575,-2.16781 0.665562,-0.8794 1.328592,-1.76073 1.998151,-2.63709 0.790925,-1.03041 1.590488,-2.05411 2.39489,-3.07403 0.931156,-1.1782 1.869313,-2.35086 2.820672,-3.51283 1.033505,-1.26389 2.074966,-2.52122 3.118697,-3.77667 1.098232,-1.32235 2.202056,-2.64025 3.334472,-3.93358 1.097024,-1.25208 2.206009,-2.4936 3.336901,-3.71527 1.10023,-1.19679 2.195389,-2.39828 3.302201,-3.58901 1.104882,-1.1794 2.219328,-2.34994 3.357931,-3.49694 1.085201,-1.09031 2.181727,-2.1696 3.310424,-3.21507 1.068438,-0.98752 2.148549,-1.9624 3.249507,-2.91365 1.038725,-0.89366 2.08661,-1.77651 3.144609,-2.6473 0.933072,-0.76923 1.866982,-1.53746 2.805801,-2.29967 0.780716,-0.63573 1.561629,-1.27122 2.336287,-1.91433 0.657008,-0.54224 1.317381,-1.08037 1.973868,-1.62323 0.431152,-0.36512 0.856742,-0.73819 1.240139,-1.15427 0.362096,-0.39321 0.710676,-0.79829 1.052584,-1.20916 0.236765,-0.28358 0.474935,-0.56636 0.697767,-0.86114 0.158186,-0.21553 0.309594,-0.43575 0.455298,-0.65993 0.124171,-0.18386 0.251005,-0.36588 0.375645,-0.54941 0.04137,-0.0609 0.142782,-0.21899 0.154588,-0.23336 0.02262,-0.04 0.04351,-0.0809 0.06419,-0.12187 0.05975,-0.11706 0.118787,-0.23452 0.182303,-0.3496 0.112117,-0.19777 0.232299,-0.39093 0.368625,-0.57307 2.895293,-3.90881 8.423177,0.18575 5.527884,4.09456 z"
       inkscape:connector-curvature="0" />
  </g>
</svg>
