<svg viewBox="0 0 100 100"><path style="opacity:1;fill:#020900;fill-opacity:1;stroke:none;stroke-width:1;stroke-linecap:butt;stroke-linejoin:round;stroke-miterlimit:4;stroke-dasharray:none;stroke-opacity:1" d="M24.322 217.12c.373.21.697.488 1.01.775.262.246.51.505.759.764q.36.382.739.75c.323.31.654.612.984.916.467.43.913.88 1.36 1.33q.724.735 1.443 1.478c.52.537 1.045 1.067 1.568 1.6q.942.958 1.87 1.93c.698.736 1.393 1.474 2.094 2.206q1.141 1.188 2.32 2.339c.89.86 1.8 1.698 2.703 2.543 1.073 1 2.126 2.021 3.173 3.05 1.107 1.1 2.212 2.202 3.328 3.293a309 309 0 0 0 3.534 3.376 562 562 0 0 1 3.787 3.6 372 372 0 0 1 3.846 3.769c1.249 1.242 2.49 2.49 3.733 3.739a697 697 0 0 1 3.56 3.594c1.096 1.118 2.184 2.242 3.276 3.362q1.417 1.453 2.838 2.901 1.162 1.18 2.33 2.357a719 719 0 0 1 1.88 1.9l1.496 1.52q.591.602 1.186 1.202c.352.355.706.708 1.045 1.075.259.278.479.587.697.897 2.768 4-2.89 7.914-5.657 3.914-.034-.055-.066-.112-.109-.16-.276-.307-.58-.589-.865-.886q-.6-.607-1.2-1.217l-1.492-1.515q-.932-.946-1.867-1.887-1.178-1.187-2.351-2.38a1141 1141 0 0 1-2.858-2.92c-1.084-1.113-2.165-2.229-3.253-3.339a690 690 0 0 0-3.529-3.563c-1.233-1.237-2.464-2.476-3.702-3.708a366 366 0 0 0-3.769-3.693 555 555 0 0 0-3.746-3.561 314 314 0 0 1-3.622-3.46c-1.119-1.096-2.228-2.201-3.34-3.305a162 162 0 0 0-3.048-2.931c-.941-.88-1.89-1.753-2.815-2.65a108 108 0 0 1-2.473-2.494c-.706-.736-1.405-1.479-2.107-2.218a157 157 0 0 0-1.8-1.858q-.804-.815-1.603-1.637-.69-.713-1.388-1.42c-.372-.376-.743-.753-1.131-1.112-.377-.346-.754-.69-1.122-1.046q-.466-.453-.912-.924c-.153-.16-.304-.319-.462-.472-.149-.142.245.187.282.167-4.237-2.39-.856-8.381 3.38-5.991" transform="translate(0 -197)"/><path style="opacity:1;fill:#020900;fill-opacity:1;stroke:none;stroke-width:1;stroke-linecap:butt;stroke-linejoin:round;stroke-miterlimit:4;stroke-dasharray:none;stroke-opacity:1" d="M77.723 218.038c.034-.042.07-.102.108-.163.053-.098-.05.1-.06.118q-.109.22-.233.434a13 13 0 0 1-.398.624c-.127.19-.26.377-.387.567a20 20 0 0 1-.603.871c-.308.416-.64.814-.972 1.211q-.615.742-1.265 1.453c-.574.627-1.208 1.194-1.854 1.745-.68.565-1.367 1.123-2.05 1.686q-1.181.977-2.371 1.943-1.39 1.132-2.774 2.273-1.53 1.26-3.033 2.554a123 123 0 0 0-3.067 2.75 109 109 0 0 0-3.104 3.017 161 161 0 0 0-3.213 3.347c-1.092 1.176-2.173 2.361-3.259 3.542a175 175 0 0 0-3.227 3.593 191 191 0 0 0-3.216 3.795 597 597 0 0 0-3.086 3.737 289 289 0 0 0-5.084 6.42c-.66.864-1.313 1.733-1.97 2.6a2191 2191 0 0 0-3.009 3.985q-.557.74-1.117 1.478-.457.605-.917 1.206l-.748.978-.599.78q-.265.341-.537.678l-.42.519-.327.398-.258.314-.19.231q-.095.12-.193.238l-.144.173-.11.13c-.03.036-.143.175-.015.017.127-.166-.111.146-.004.006-2.887 3.915-8.424-.168-5.537-4.083.033-.043.056-.164.1-.13 0 0-.156.205.02-.027q.078-.098.158-.194l.239-.285.14-.173.22-.27.258-.313.32-.39.38-.469q.226-.279.446-.562l.596-.776.74-.967.905-1.191 1.109-1.467q.688-.907 1.37-1.817l1.639-2.168c.666-.88 1.329-1.76 1.998-2.637a296 296 0 0 1 5.216-6.587 603 603 0 0 1 3.118-3.777 198 198 0 0 1 3.335-3.933 183 183 0 0 1 3.337-3.716c1.1-1.196 2.195-2.398 3.302-3.589 1.105-1.179 2.22-2.35 3.358-3.497 1.085-1.09 2.182-2.17 3.31-3.215a130 130 0 0 1 3.25-2.913 188 188 0 0 1 3.144-2.648q1.4-1.155 2.806-2.3c.781-.635 1.562-1.27 2.337-1.914.657-.542 1.317-1.08 1.973-1.623.432-.365.857-.738 1.24-1.154.363-.393.711-.798 1.053-1.21.237-.283.475-.566.698-.86q.237-.324.455-.66l.376-.55c.041-.06.143-.219.154-.233q.034-.06.065-.122c.06-.117.118-.234.182-.35a5 5 0 0 1 .369-.573c2.895-3.908 8.423.186 5.527 4.095" transform="translate(0 -197)"/></svg>
