<svg viewBox="0 0 100 100"><path style="opacity:1;fill:#020900;fill-opacity:1;stroke:none;stroke-width:1;stroke-linecap:butt;stroke-linejoin:round;stroke-miterlimit:4;stroke-dasharray:none;stroke-opacity:1" d="M20.311 280.464c.057-.202.11-.406.167-.609q.102-.367.211-.732c.082-.263.18-.52.268-.78a21 21 0 0 0 .459-1.547c.088-.363.186-.723.276-1.085q.134-.55.244-1.103c.076-.376.136-.755.188-1.134.051-.414.087-.83.118-1.246.031-.431.037-.864.038-1.296a23 23 0 0 0-.068-1.501 21 21 0 0 0-.195-1.674c-.094-.611-.199-1.22-.3-1.83a21 21 0 0 1-.262-2.026 38 38 0 0 1-.09-1.85q-.021-.847-.033-1.695a441 441 0 0 1-.039-3.672q0-.959.01-1.918.009-.905.021-1.809a953 953 0 0 0 .049-3.69 816 816 0 0 0 .03-3.735q.008-.907.01-1.813a40 40 0 0 0-.03-1.702c-.028-.599-.065-1.197-.1-1.795q-.058-.985-.105-1.972-.045-.95-.083-1.903a80 80 0 0 0-.088-1.749l-.105-1.738a204 204 0 0 1-.163-3.266q-.033-.786-.056-1.572c-.014-.538-.02-1.077-.028-1.616a489 489 0 0 1-.035-3.302c-.005-.585-.01-1.17-.004-1.755q.017-.818.041-1.634.02-.69.034-1.38.01-.594 0-1.19l-.018-1.12-.016-.929-.012-.76-.01-.607q-.006-.276-.007-.552a7 7 0 0 1 .214-1.593c.065-.264.155-.52.255-.771.148-.37.355-.708.584-1.031.321-.442.738-.793 1.185-1.1.398-.266.836-.46 1.282-.629.485-.177.99-.289 1.496-.385.634-.117 1.28-.154 1.923-.179a31 31 0 0 1 2.303.035q1.207.06 2.417.115c.884.037 1.768.067 2.651.123a36 36 0 0 1 3.04.357c1.077.168 2.145.39 3.21.616 1.085.23 2.163.488 3.237.759a54 54 0 0 1 3.382.968c1.251.395 2.46.902 3.64 1.472 1.196.59 2.32 1.31 3.42 2.063.99.682 1.938 1.42 2.869 2.182a34 34 0 0 1 2.494 2.27c.78.783 1.491 1.63 2.176 2.495a34 34 0 0 1 1.872 2.684 38 38 0 0 1 2.989 5.905c.437 1.079.79 2.189 1.114 3.306.33 1.165.581 2.35.812 3.538.232 1.197.397 2.404.528 3.615.13 1.236.18 2.478.216 3.719a63 63 0 0 1-.01 3.683 46 46 0 0 1-.257 3.608 35 35 0 0 1-.572 3.538c-.247 1.16-.601 2.292-.99 3.411a32 32 0 0 1-1.312 3.125c-.49 1.017-1.064 1.989-1.663 2.944a46 46 0 0 1-1.83 2.632 62 62 0 0 1-1.858 2.37 46 46 0 0 1-1.988 2.245c-.66.707-1.343 1.39-2.031 2.07a136 136 0 0 1-2.029 1.947 91 91 0 0 1-2.08 1.899 37 37 0 0 1-2.295 1.87 39 39 0 0 1-2.358 1.645c-.805.52-1.643.987-2.486 1.441q-1.21.643-2.456 1.217c-.823.38-1.666.712-2.517 1.024-.847.306-1.714.552-2.585.781a44 44 0 0 1-4.486.885q-.903.135-1.806.262-.786.116-1.575.211c-.505.058-1.011.098-1.517.133-.52.039-1.042.048-1.563.04a21 21 0 0 1-1.537-.095q-.636-.06-1.271-.125a17 17 0 0 1-1.314-.17l-.407-.095c-4.709-1.22-2.982-7.88 1.727-6.659l-.093-.014c.258.047.522.064.783.094l1.208.119c.34.031.68.06 1.021.067q.49.011.979-.026a27 27 0 0 0 1.18-.1c.47-.056.94-.123 1.41-.19a223 223 0 0 0 1.736-.252 38 38 0 0 0 3.78-.739 24 24 0 0 0 1.972-.59 26 26 0 0 0 1.992-.808 41 41 0 0 0 2.082-1.03 29 29 0 0 0 1.996-1.15 32 32 0 0 0 1.948-1.358c.646-.49 1.282-.992 1.886-1.533a84 84 0 0 0 1.924-1.756c.645-.61 1.287-1.22 1.92-1.843a65 65 0 0 0 1.836-1.87 39 39 0 0 0 1.693-1.907 55 55 0 0 0 1.645-2.095 40 40 0 0 0 1.54-2.208c.46-.73.902-1.473 1.28-2.25.379-.789.73-1.59 1.022-2.415.295-.847.569-1.704.758-2.583.2-.938.36-1.884.46-2.84.11-1.022.194-2.047.222-3.076.032-1.094.042-2.188.01-3.282-.03-1.063-.07-2.126-.18-3.184a37 37 0 0 0-.442-3.044 37 37 0 0 0-.667-2.937 27 27 0 0 0-.878-2.624 31 31 0 0 0-2.42-4.805 27 27 0 0 0-1.468-2.113 22 22 0 0 0-1.638-1.89 26 26 0 0 0-1.99-1.815 37 37 0 0 0-2.4-1.83c-.818-.562-1.651-1.105-2.54-1.55a20 20 0 0 0-2.734-1.11 46 46 0 0 0-2.962-.847 78 78 0 0 0-2.984-.7 54 54 0 0 0-2.815-.544 30 30 0 0 0-2.443-.293c-.84-.054-1.68-.079-2.52-.116q-1.2-.055-2.401-.114a25 25 0 0 0-1.765-.033c-.305.01-.612.02-.914.067a8 8 0 0 0-.37.076l.135-.09c.208-.153.396-.331.546-.543.094-.138.185-.28.245-.437a1 1 0 0 0 .052-.157l-.001-.1.006.436.01.608.028 1.685.019 1.142c.006.469.009.937-.001 1.406q-.014.725-.035 1.448c-.014.507-.03 1.013-.04 1.52-.006.54.001 1.082.005 1.624a739 739 0 0 0 .034 3.262q.009.76.027 1.522.02.737.053 1.474a178 178 0 0 0 .156 3.144l.106 1.753c.035.62.07 1.24.093 1.86q.037.927.081 1.855.044.947.1 1.894c.039.642.078 1.285.107 1.928q.04.993.037 1.988-.003.925-.01 1.85a1328 1328 0 0 1-.032 3.761 671 671 0 0 1-.048 3.718q-.013.888-.02 1.776-.011.921-.01 1.842.002.92.014 1.84.01.864.023 1.73.01.8.032 1.6c.015.495.032.99.069 1.484q.059.737.191 1.465c.11.654.221 1.307.322 1.962.106.73.202 1.461.25 2.197.047.665.085 1.331.085 1.999a25 25 0 0 1-.057 1.793 31 31 0 0 1-.164 1.67 26 26 0 0 1-.26 1.56c-.096.471-.197.941-.313 1.408-.096.379-.196.756-.29 1.135a28 28 0 0 1-.605 2.035q-.1.293-.204.586c-.06.19-.108.382-.165.573-.063.223-.119.448-.184.671-1.358 4.671-7.963 2.75-6.605-1.92z" transform="translate(0 -197)"/><path style="opacity:1;fill:#020900;fill-opacity:1;stroke:none;stroke-width:1;stroke-linecap:butt;stroke-linejoin:round;stroke-miterlimit:4;stroke-dasharray:none;stroke-opacity:1" d="M9.852 244.298c.18.033.359.071.539.105q.18.035.361.058.276.031.553.055.411.042.822.079.45.038.9.065a68 68 0 0 0 2.08.093c.336.013.673.015 1.01.014q.585-.007 1.172-.018.678-.012 1.356-.018.765-.005 1.528 0c.55 0 1.1.008 1.649.014l1.625.02 1.6.016q.803.014 1.606.034c.493.01.987.023 1.48.027.45 0 .9-.02 1.35-.04q.802-.046 1.605-.087l1.674-.079q.83-.038 1.659-.084a251 251 0 0 1 3.226-.154 202 202 0 0 1 4.596-.133 42 42 0 0 1 1.82.008c.64.021 1.28.057 1.918.092q.944.054 1.887.104c.645.033 1.29.06 1.935.092q1.034.049 2.067.131c.659.056 1.317.116 1.976.17q.957.083 1.914.17.857.075 1.714.145.803.064 1.604.136a127 127 0 0 0 2.693.212c.391.028.783.04 1.175.045q.669.006 1.338.003.669-.004 1.337-.03.725-.031 1.448-.07a168 168 0 0 1 4.567-.171q.715-.015 1.431-.022l1.333-.013 1.286-.011c.407-.003.813-.022 1.22-.038a150 150 0 0 0 1.341-.057 195 195 0 0 1 2.696-.105l1.15-.037q.516-.018 1.03-.026l.865-.012q.423-.007.846 0l.63.016.538.013.49.01.482.008.52.01.444.01a52 52 0 0 0 .772.016l.354.005.29.004c-.699-.026-1.333.235-1.908.605-1.124.864-1.499 2.043-1.286 3.412-.018.039.25.653.148.475a2 2 0 0 0-.11-.156q-.046-.051-.097-.098-.175-.163-.356-.32a9 9 0 0 0-.39-.327 6 6 0 0 0-.338-.237 10 10 0 0 0-.463-.285q-.446-.254-.873-.54c-.341-.232-.658-.497-.975-.76-.22-.182-.447-.356-.673-.531q-.42-.324-.83-.66-.39-.32-.778-.643c-.267-.222-.529-.451-.793-.677q-.377-.315-.746-.641a30 30 0 0 1-2.685-2.717l-.436-.504-.36-.421-.269-.318c.128.157.27.268.424.402-3.863-2.955.317-8.42 4.18-5.463.226.192.457.378.643.612l.268.316q.157.186.316.37l.395.458q.23.26.464.517.245.269.5.527a22 22 0 0 0 1.785 1.64q.354.308.712.61l.73.604q.343.28.696.551c.286.222.572.444.851.675q.215.18.435.355c.157.113.33.203.495.302q.404.234.792.49a12.4 12.4 0 0 1 1.462 1.126c.227.2.454.4.67.614a8 8 0 0 1 1.332 1.726c.234.415.45.843.56 1.31.264 1.55-.085 2.76-1.346 3.764-.678.444-1.426.745-2.254.715l-.285-.004-.361-.005-.403-.007-.418-.009-.453-.01q-.228-.008-.455-.01l-.508-.008-.512-.01-.556-.013-.597-.015a16 16 0 0 0-.62 0q-.42.004-.839.011-.465.007-.932.024a427 427 0 0 0-2.402.082q-.671.025-1.342.056-.692.032-1.382.059c-.476.019-.95.039-1.426.043l-1.291.01-1.317.014q-.672.006-1.344.02-.712.016-1.425.04a197 197 0 0 0-2.955.124q-.773.042-1.544.074-.791.031-1.582.036c-.487 0-.975.002-1.462-.004a28 28 0 0 1-1.519-.06q-.693-.045-1.386-.1-.732-.058-1.464-.124-.777-.069-1.554-.132-.883-.07-1.764-.15-.936-.084-1.872-.165c-.651-.054-1.302-.113-1.953-.168a54 54 0 0 0-1.863-.118c-.65-.032-1.3-.06-1.951-.093q-.955-.051-1.909-.105a82 82 0 0 0-1.715-.084 34 34 0 0 0-1.543-.007q-.762.012-1.523.032a183 183 0 0 0-4.398.163q-.813.039-1.627.083-.855.046-1.709.086l-1.648.078-1.627.087c-.578.028-1.157.05-1.736.049-.525-.005-1.05-.018-1.576-.03-.509-.01-1.018-.023-1.527-.031l-1.6-.017q-.819-.008-1.636-.02-.789-.01-1.578-.014c-.484 0-.968-.004-1.453.001q-.65.005-1.3.017-.632.012-1.262.019c-.42 0-.839-.002-1.258-.018q-.584-.019-1.167-.043-.563-.025-1.124-.06a45 45 0 0 1-1.916-.159 22 22 0 0 1-.835-.087 13 13 0 0 1-.753-.121l-.514-.101c-4.78-.903-3.503-7.662 1.277-6.76z" transform="translate(0 -197)"/><path style="opacity:1;fill:#020900;fill-opacity:1;stroke:none;stroke-width:1;stroke-linecap:butt;stroke-linejoin:round;stroke-miterlimit:4;stroke-dasharray:none;stroke-opacity:1" d="M91.852 251.177q-.22.31-.459.608a9 9 0 0 1-.689.753q-.285.279-.578.549c-.191.177-.39.345-.588.515a3 3 0 0 0-.288.282q-.263.287-.522.58-.285.315-.566.634l-.56.642q-.337.389-.696.758c-.293.3-.608.576-.927.848q-.408.346-.824.682l-.813.657c-.303.247-.611.487-.919.729-.294.234-.592.463-.887.696q-.431.351-.868.696l-.787.61q-.301.232-.602.467l-.485.382-.392.308-.313.246-.131.103c-3.824 3.007-8.077-2.4-4.253-5.407l.131-.103.313-.246.392-.308.497-.391q.315-.247.632-.491l.745-.577q.432-.342.86-.69c.297-.234.597-.464.893-.7q.424-.33.841-.667l.81-.655q.353-.284.698-.577.23-.192.448-.398.23-.236.445-.485l.584-.67q.302-.343.608-.682c.212-.236.422-.474.64-.706.254-.27.517-.533.8-.773.142-.123.287-.244.426-.371q.2-.185.395-.374.087-.081.164-.17c.072-.086.135-.178.202-.267 2.802-3.976 8.425-.014 5.623 3.963" transform="translate(0 -197)"/></svg>
