<?xml version="1.0" encoding="UTF-8" standalone="no"?>
<!-- Created with Inkscape (http://www.inkscape.org/) -->

<svg
   xmlns:dc="http://purl.org/dc/elements/1.1/"
   xmlns:cc="http://creativecommons.org/ns#"
   xmlns:rdf="http://www.w3.org/1999/02/22-rdf-syntax-ns#"
   xmlns:svg="http://www.w3.org/2000/svg"
   xmlns="http://www.w3.org/2000/svg"
   xmlns:sodipodi="http://sodipodi.sourceforge.net/DTD/sodipodi-0.dtd"
   xmlns:inkscape="http://www.inkscape.org/namespaces/inkscape"
   width="10cm"
   height="10cm"
   viewBox="0 0 100 99.999997"
   version="1.1"
   id="svg8"
   sodipodi:docname="alasa.svg"
   inkscape:version="0.92.3 (2405546, 2018-03-11)">
  <defs
     id="defs2" />
  <sodipodi:namedview
     id="base"
     pagecolor="#ffffff"
     bordercolor="#666666"
     borderopacity="1.0"
     inkscape:pageopacity="0.0"
     inkscape:pageshadow="2"
     inkscape:zoom="1"
     inkscape:cx="175.50186"
     inkscape:cy="160.37856"
     inkscape:document-units="cm"
     inkscape:current-layer="layer1"
     showgrid="true"
     units="cm"
     inkscape:window-width="1920"
     inkscape:window-height="1017"
     inkscape:window-x="-8"
     inkscape:window-y="-8"
     inkscape:window-maximized="1"
     inkscape:snap-nodes="false">
    <inkscape:grid
       type="xygrid"
       id="grid815"
       units="cm"
       spacingx="9.9999998"
       spacingy="9.9999998" />
  </sodipodi:namedview>
  <metadata
     id="metadata5">
    <rdf:RDF>
      <cc:Work
         rdf:about="">
        <dc:format>image/svg+xml</dc:format>
        <dc:type
           rdf:resource="http://purl.org/dc/dcmitype/StillImage" />
        <dc:title></dc:title>
      </cc:Work>
    </rdf:RDF>
  </metadata>
  <g
     inkscape:label="Layer 1"
     inkscape:groupmode="layer"
     id="layer1"
     transform="translate(0,-197.00002)">
    <path
       style="opacity:1;fill:#020900;fill-opacity:1;stroke:none;stroke-width:1;stroke-linecap:butt;stroke-linejoin:round;stroke-miterlimit:4;stroke-dasharray:none;stroke-opacity:1"
       id="path106"
       d="m 20.311434,280.46429 c 0.0564,-0.20277 0.109471,-0.40644 0.166147,-0.60915 0.0694,-0.24435 0.137733,-0.48897 0.211612,-0.73201 0.08131,-0.26294 0.179393,-0.52018 0.267401,-0.78086 0.08503,-0.24666 0.162376,-0.49583 0.23828,-0.74542 0.07998,-0.26529 0.151567,-0.53296 0.220887,-0.80119 0.0882,-0.36271 0.185811,-0.72303 0.276399,-1.08513 0.09068,-0.36534 0.169589,-0.73345 0.24423,-1.10235 0.07552,-0.37597 0.135726,-0.75475 0.187606,-1.13463 0.05136,-0.41384 0.08714,-0.82943 0.118209,-1.24522 0.03105,-0.43143 0.03712,-0.86412 0.03802,-1.2965 -0.0027,-0.50107 -0.03321,-1.00145 -0.06823,-1.50113 -0.03706,-0.5611 -0.112899,-1.11822 -0.194739,-1.67419 -0.09472,-0.61093 -0.198985,-1.22033 -0.300601,-1.83015 -0.121919,-0.67046 -0.203848,-1.3463 -0.261432,-2.02502 -0.04829,-0.61587 -0.07114,-1.23327 -0.08955,-1.85062 -0.0161,-0.56467 -0.02512,-1.12951 -0.03417,-1.69433 -0.0092,-0.58662 -0.01657,-1.17327 -0.02343,-1.75993 -0.0077,-0.63742 -0.01426,-1.27485 -0.01501,-1.91232 -0.0012,-0.6393 0.0044,-1.27857 0.01073,-1.91783 0.0059,-0.60297 0.01158,-1.20593 0.02042,-1.80886 0.0095,-0.61473 0.01834,-1.22948 0.02665,-1.84423 0.0083,-0.61528 0.01522,-1.23057 0.02179,-1.84587 0.0067,-0.62796 0.01215,-1.25594 0.0174,-1.88392 0.0051,-0.61721 0.0096,-1.23441 0.01389,-1.85163 0.0035,-0.60427 0.009,-1.20853 0.0098,-1.81282 0.0012,-0.56766 -0.0079,-1.13523 -0.03108,-1.70242 -0.02805,-0.5983 -0.06456,-1.19617 -0.100231,-1.79406 -0.03948,-0.65725 -0.07278,-1.31484 -0.104433,-1.97251 -0.03007,-0.63413 -0.0573,-1.26839 -0.0834,-1.9027 -0.0207,-0.58337 -0.05411,-1.16616 -0.08753,-1.7489 -0.03372,-0.57957 -0.07015,-1.15897 -0.10459,-1.73849 -0.03278,-0.55577 -0.06235,-1.11172 -0.09057,-1.66773 -0.02688,-0.53247 -0.05016,-1.06512 -0.07242,-1.5978 -0.02184,-0.52391 -0.04163,-1.04789 -0.05615,-1.57206 -0.014,-0.53852 -0.02117,-1.0772 -0.02866,-1.61584 -0.0074,-0.53564 -0.01347,-1.0713 -0.01911,-1.60696 -0.0059,-0.5651 -0.01061,-1.1302 -0.01514,-1.69531 -0.0052,-0.58508 -0.01073,-1.17011 -0.0046,-1.7552 0.0098,-0.54467 0.02622,-1.08918 0.0413,-1.63372 0.01273,-0.45997 0.02575,-0.91992 0.03381,-1.38 0.0085,-0.39666 0.0057,-0.79338 2.91e-4,-1.19005 -0.0057,-0.37333 -0.01211,-0.74663 -0.01842,-1.11995 -0.0053,-0.30962 -0.01046,-0.61925 -0.01557,-0.92888 -0.0042,-0.25333 -0.0083,-0.50666 -0.01242,-0.75998 -0.0033,-0.2026 -0.0066,-0.4052 -0.0099,-0.6078 -0.0031,-0.18402 -0.0066,-0.36802 -0.0071,-0.55206 2.2e-5,-0.30456 0.0322,-0.60754 0.07547,-0.90858 0.03291,-0.23066 0.08297,-0.4582 0.138355,-0.68434 0.06534,-0.26338 0.154865,-0.51934 0.255675,-0.77097 0.147388,-0.36942 0.354459,-0.70774 0.584081,-1.03092 0.32104,-0.44223 0.737125,-0.79247 1.184318,-1.09976 0.398286,-0.26588 0.836187,-0.45911 1.282094,-0.62872 0.485018,-0.17717 0.989507,-0.28931 1.495705,-0.38555 0.634773,-0.11701 1.279656,-0.15418 1.923443,-0.17826 0.767751,-0.0245 1.535688,0.003 2.302733,0.035 0.805662,0.0386 1.611249,0.0785 2.417033,0.11449 0.884197,0.0369 1.768509,0.0672 2.651765,0.123 1.018701,0.0676 2.030738,0.20432 3.039557,0.35733 1.077206,0.16772 2.144795,0.3896 3.21084,0.61613 1.084287,0.22896 2.161868,0.48762 3.236323,0.75857 1.138221,0.28387 2.264844,0.60993 3.381819,0.96776 1.250921,0.3955 2.459615,0.90222 3.639632,1.47253 1.196335,0.59044 2.319938,1.31045 3.419481,2.06233 0.99051,0.68208 1.939239,1.42118 2.869734,2.18227 0.872625,0.711 1.697432,1.47651 2.494264,2.2707 0.780627,0.7822 1.491144,1.62876 2.175896,2.49481 0.673878,0.85904 1.285986,1.76323 1.872375,2.68343 0.587806,0.9323 1.114774,1.90053 1.618953,2.87995 0.50423,0.98622 0.951188,1.99968 1.369134,3.02496 0.437306,1.07918 0.790327,2.18896 1.114116,3.30655 0.329755,1.16523 0.581665,2.35005 0.812241,3.53823 0.232111,1.19626 0.397201,2.40347 0.528572,3.61446 0.129696,1.23578 0.179324,2.47764 0.215969,3.71902 0.03651,1.22759 0.02511,2.4556 -0.0099,3.68299 -0.033,1.20611 -0.130426,2.40863 -0.257701,3.60801 -0.124214,1.18953 -0.325213,2.36801 -0.571932,3.53764 -0.246745,1.16023 -0.601273,2.29223 -0.98897,3.41185 -0.374462,1.06739 -0.826897,2.10417 -1.313296,3.12457 -0.490016,1.01654 -1.063548,1.98877 -1.662666,2.94393 -0.573513,0.90189 -1.195186,1.77167 -1.829313,2.63156 -0.597781,0.8071 -1.222473,1.59357 -1.858793,2.37046 -0.633667,0.77371 -1.305489,1.51457 -1.987965,2.24515 -0.660051,0.7064 -1.343073,1.3907 -2.031162,2.06963 -0.667985,0.65746 -1.346925,1.30363 -2.028372,1.94708 -0.682681,0.64478 -1.378172,1.27566 -2.080379,1.89904 -0.735918,0.6585 -1.509152,1.27249 -2.295353,1.86932 -0.763593,0.5802 -1.554115,1.1232 -2.357742,1.64606 -0.804889,0.52052 -1.64239,0.98715 -2.486099,1.44096 -0.806164,0.43031 -1.626447,0.83291 -2.455823,1.21628 -0.822955,0.37955 -1.665737,0.71281 -2.516473,1.02414 -0.84749,0.30605 -1.714407,0.55275 -2.585328,0.78176 -0.771412,0.19976 -1.551668,0.36258 -2.332628,0.51988 -0.714531,0.14133 -1.434118,0.25483 -2.154002,0.36488 -0.601229,0.0906 -1.203161,0.17651 -1.805104,0.26225 -0.524507,0.0758 -1.049388,0.14856 -1.575689,0.21078 -0.504468,0.0575 -1.010663,0.0979 -1.517147,0.13259 -0.520219,0.0392 -1.041636,0.048 -1.563045,0.0402 -0.513339,-0.009 -1.025197,-0.0481 -1.536211,-0.0951 -0.423966,-0.0403 -0.84778,-0.0822 -1.271473,-0.12526 -0.440184,-0.0406 -0.87841,-0.094 -1.314072,-0.16878 -0.135593,-0.0319 -0.271186,-0.0638 -0.40678,-0.0957 -4.708563,-1.22103 -2.981773,-7.87994 1.72679,-6.65892 v 0 c -0.03094,-0.005 -0.06188,-0.01 -0.09282,-0.0142 0.258283,0.0466 0.52191,0.0639 0.782851,0.0937 0.402714,0.041 0.805552,0.0807 1.208519,0.11915 0.339634,0.0316 0.679668,0.0606 1.020913,0.0669 0.326413,0.007 0.652724,-7.9e-4 0.978381,-0.0254 0.393813,-0.0266 0.787416,-0.0576 1.179748,-0.10127 0.471043,-0.0552 0.940535,-0.12195 1.409983,-0.18923 0.578982,-0.0825 1.157957,-0.16503 1.736267,-0.25209 0.613391,-0.0937 1.226693,-0.18927 1.835724,-0.30858 0.650888,-0.13085 1.301496,-0.26501 1.944743,-0.43006 0.663985,-0.17354 1.325441,-0.35897 1.972128,-0.58993 0.673592,-0.24491 1.340405,-0.50848 1.991923,-0.8078 0.703315,-0.32401 1.398114,-0.66594 2.081821,-1.02969 0.676672,-0.36338 1.349727,-0.73472 1.995916,-1.15071 0.664565,-0.43067 1.317152,-0.87974 1.948265,-1.35841 0.645959,-0.48914 1.281567,-0.99197 1.885434,-1.53283 0.649523,-0.57632 1.292685,-1.15974 1.924066,-1.75595 0.644964,-0.60892 1.287639,-1.22033 1.919941,-1.84243 0.62208,-0.61355 1.239988,-1.23156 1.836761,-1.86993 0.58089,-0.621 1.153435,-1.25014 1.692762,-1.90795 0.562991,-0.68656 1.115499,-1.38176 1.644496,-2.095 0.533141,-0.72177 1.056548,-1.45138 1.540193,-2.20756 0.460364,-0.73043 0.90248,-1.47327 1.28053,-2.25034 0.378331,-0.78817 0.729062,-1.58963 1.021197,-2.41424 0.295592,-0.84786 0.569171,-1.70422 0.758094,-2.58316 0.200787,-0.93834 0.360257,-1.88456 0.460862,-2.83931 0.109866,-1.02266 0.193165,-2.04811 0.221732,-3.07664 0.03204,-1.09398 0.04215,-2.18852 0.01,-3.2827 -0.03095,-1.06256 -0.07026,-2.1257 -0.179329,-3.18367 -0.109025,-1.01998 -0.248135,-2.03656 -0.442789,-3.04411 -0.190306,-0.98596 -0.396885,-1.96947 -0.667546,-2.93701 -0.255013,-0.88663 -0.532537,-1.76736 -0.87744,-2.62379 -0.339749,-0.83802 -0.704819,-1.66569 -1.115161,-2.47188 -0.406757,-0.79304 -0.831654,-1.57723 -1.30524,-2.33279 -0.459705,-0.72469 -0.939813,-1.43671 -1.468035,-2.11374 -0.51567,-0.6552 -1.049396,-1.29699 -1.637342,-1.88935 -0.634733,-0.63601 -1.294122,-1.24661 -1.990635,-1.81498 -0.778238,-0.63806 -1.571612,-1.25787 -2.400038,-1.83004 -0.817909,-0.56193 -1.650781,-1.10504 -2.539281,-1.55053 -0.88465,-0.43397 -1.794843,-0.81051 -2.734669,-1.10932 -0.977697,-0.3149 -1.964931,-0.59825 -2.961542,-0.84739 -0.990532,-0.25012 -1.983994,-0.48873 -2.983662,-0.69986 -0.934844,-0.19882 -1.870712,-0.39528 -2.815111,-0.54403 -0.811122,-0.12385 -1.624623,-0.23671 -2.443689,-0.29308 -0.839197,-0.0544 -1.679723,-0.0788 -2.519796,-0.11584 -0.800537,-0.0357 -1.600893,-0.0752 -2.401295,-0.1138 -0.587645,-0.025 -1.175925,-0.049 -1.764201,-0.0332 -0.305538,0.0103 -0.612377,0.0194 -0.914899,0.0671 -0.123824,0.0214 -0.246555,0.0479 -0.369082,0.0754 0.04414,-0.0305 0.08992,-0.0598 0.134765,-0.0899 0.208111,-0.15247 0.395985,-0.33111 0.545597,-0.54241 0.09408,-0.13832 0.185115,-0.28045 0.245452,-0.43727 0.02958,-0.0783 0.05297,-0.14535 0.05394,-0.16407 0.008,-0.0374 0.0011,-0.0186 -0.0026,0.007 -1.25e-4,-0.0334 -3.18e-4,-0.0669 -5.83e-4,-0.10029 0.0011,0.14554 0.0038,0.29111 0.0062,0.43666 0.0033,0.20258 0.0066,0.40516 0.0099,0.60774 0.0041,0.25279 0.0082,0.50557 0.01239,0.75836 0.0051,0.30876 0.01027,0.61752 0.01552,0.92628 0.0064,0.3809 0.013,0.7618 0.01876,1.14271 0.0063,0.46841 0.009,0.93687 -7.41e-4,1.40526 -0.0086,0.48297 -0.02184,0.96583 -0.03537,1.44869 -0.01402,0.50626 -0.02917,1.0125 -0.03908,1.51885 -0.0063,0.5415 6.08e-4,1.08296 0.0048,1.62446 0.0045,0.55933 0.0092,1.11865 0.01497,1.67797 0.0056,0.52795 0.01157,1.0559 0.01882,1.58383 0.007,0.50742 0.0137,1.01487 0.02672,1.52219 0.01343,0.49151 0.03243,0.98283 0.05275,1.47411 0.0214,0.5122 0.04375,1.02437 0.06958,1.53638 0.0272,0.53618 0.05571,1.0723 0.08729,1.60825 0.03472,0.58426 0.07148,1.16839 0.10542,1.7527 0.03554,0.61974 0.07075,1.23954 0.093,1.85994 0.02545,0.61839 0.05198,1.23674 0.08128,1.85496 0.03036,0.6313 0.06227,1.26254 0.100171,1.89345 0.03835,0.64277 0.07758,1.28554 0.106945,1.9288 0.02604,0.66219 0.03856,1.32475 0.03657,1.98747 -0.0011,0.61676 -0.0062,1.2335 -0.0099,1.85025 -0.0043,0.62049 -0.0088,1.24097 -0.01397,1.86145 -0.0053,0.63333 -0.01082,1.26665 -0.01754,1.89997 -0.0066,0.6218 -0.01368,1.24359 -0.02201,1.86537 -0.0083,0.61741 -0.01728,1.23481 -0.02676,1.8522 -0.0087,0.59197 -0.01423,1.18397 -0.02,1.77597 -0.0061,0.61407 -0.01153,1.22815 -0.0104,1.84226 5.3e-4,0.61315 0.0073,1.22625 0.01455,1.83935 0.0067,0.57677 0.01397,1.15354 0.02302,1.73029 0.0085,0.53346 0.01696,1.06696 0.03202,1.60029 0.01463,0.4948 0.0317,0.98968 0.06881,1.4834 0.03987,0.4917 0.101822,0.98042 0.191646,1.46575 0.108921,0.65369 0.220797,1.30692 0.321257,1.96198 0.106775,0.72941 0.202284,1.46074 0.251129,2.1967 0.04582,0.66525 0.08423,1.33145 0.08471,1.99853 -0.0024,0.59807 -0.01283,1.19644 -0.05749,1.79308 -0.0424,0.55758 -0.091,1.11492 -0.163499,1.66952 -0.07279,0.5224 -0.155236,1.04354 -0.260183,1.56057 -0.09585,0.47139 -0.197126,0.94176 -0.313661,1.40853 -0.09516,0.37846 -0.19607,0.75546 -0.288978,1.13449 -0.09371,0.36174 -0.191088,0.72255 -0.299408,1.08024 -0.09738,0.31989 -0.197204,0.63906 -0.305847,0.95534 -0.06671,0.19573 -0.136483,0.39035 -0.204332,0.58567 -0.05961,0.18952 -0.108476,0.38228 -0.164866,0.57277 -0.06299,0.22334 -0.119159,0.44854 -0.183921,0.67139 -1.357783,4.67096 -7.963522,2.75077 -6.605739,-1.9202 z"
       inkscape:connector-curvature="0" />
    <path
       style="opacity:1;fill:#020900;fill-opacity:1;stroke:none;stroke-width:1;stroke-linecap:butt;stroke-linejoin:round;stroke-miterlimit:4;stroke-dasharray:none;stroke-opacity:1"
       id="path112"
       d="m 9.8517824,244.29762 c 0.1799776,0.0334 0.3590366,0.0714 0.5387916,0.10585 0.119845,0.0232 0.240548,0.0414 0.361575,0.0571 0.183799,0.0228 0.368338,0.0388 0.552746,0.0557 0.273952,0.0269 0.547857,0.0543 0.822075,0.0784 0.299722,0.0261 0.599896,0.0463 0.900137,0.0652 0.338348,0.0211 0.676911,0.0384 1.01553,0.0544 0.354571,0.0153 0.709287,0.027 1.063999,0.0384 0.336693,0.0133 0.673596,0.0157 1.010497,0.0145 0.390578,-0.004 0.781104,-0.0115 1.171642,-0.018 0.451995,-0.008 0.904014,-0.0138 1.356058,-0.0177 0.509465,-0.004 1.018961,-0.002 1.528436,-8e-4 0.549553,0.001 1.09906,0.008 1.648561,0.0148 0.541672,0.007 1.083352,0.0134 1.625037,0.0194 0.533599,0.006 1.067217,0.0104 1.600818,0.0163 0.535014,0.008 1.069923,0.0217 1.604857,0.0337 0.493721,0.0103 0.98741,0.0231 1.481232,0.0271 0.449802,-8e-5 0.899327,-0.0193 1.348521,-0.0408 0.535114,-0.0284 1.070125,-0.0587 1.605303,-0.0859 0.558065,-0.0268 1.11615,-0.0531 1.674239,-0.0793 0.553132,-0.025 1.10608,-0.0538 1.658956,-0.0838 0.556368,-0.0305 1.112866,-0.0586 1.669423,-0.0854 0.518728,-0.0249 1.037563,-0.0476 1.556448,-0.069 0.49825,-0.0205 0.996598,-0.0383 1.494983,-0.0551 0.499356,-0.0169 0.9988,-0.031 1.498272,-0.0439 0.534411,-0.0138 1.068869,-0.0256 1.603404,-0.0333 0.606838,-0.0113 1.213705,-0.007 1.820405,0.008 0.639564,0.0208 1.278533,0.0563 1.917417,0.0917 0.628832,0.0362 1.257757,0.0707 1.88677,0.10361 0.64476,0.0335 1.28983,0.0605 1.934657,0.0926 0.689785,0.0315 1.378794,0.0762 2.067094,0.1309 0.658847,0.0556 1.317329,0.11532 1.976245,0.17011 0.638355,0.0541 1.276315,0.11261 1.914408,0.16965 0.57105,0.0514 1.14249,0.0982 1.713918,0.14509 0.534929,0.0422 1.069504,0.0886 1.603965,0.13632 0.465945,0.0423 0.932209,0.081 1.398593,0.11815 0.431239,0.0345 0.862774,0.065 1.294437,0.0936 0.390943,0.0274 0.782645,0.039 1.174416,0.0451 0.446223,0.005 0.892474,0.004 1.338715,0.003 0.445559,-0.002 0.890937,-0.0135 1.336146,-0.0304 0.48314,-0.0196 0.966007,-0.0453 1.448898,-0.0701 0.512704,-0.0265 1.025567,-0.0497 1.538494,-0.0715 0.511233,-0.0214 1.022583,-0.0397 1.533959,-0.0573 0.4978,-0.0177 0.995754,-0.0304 1.493713,-0.0425 0.477232,-0.0108 0.954566,-0.0159 1.43188,-0.0214 0.444251,-0.005 0.888511,-0.009 1.33277,-0.0134 0.428604,-0.004 0.857218,-0.007 1.285819,-0.0111 0.406839,-0.003 0.813369,-0.0213 1.219843,-0.0376 0.447273,-0.0165 0.89439,-0.0366 1.341491,-0.0571 0.463171,-0.0214 0.926457,-0.0402 1.389771,-0.0583 0.435269,-0.0169 0.870601,-0.032 1.305946,-0.0468 0.38353,-0.0129 0.76708,-0.0251 1.150642,-0.0371 0.343267,-0.0118 0.686614,-0.02 1.030033,-0.0258 0.287978,-0.005 0.575969,-0.008 0.86396,-0.0122 0.281985,-0.005 0.563996,-0.004 0.845957,10e-4 0.210389,0.005 0.420759,0.0103 0.631137,0.0155 0.178975,0.004 0.357955,0.009 0.536938,0.0125 0.163396,0.004 0.326797,0.007 0.490201,0.01 0.160711,0.003 0.321427,0.005 0.482145,0.008 0.173332,0.002 0.34662,0.006 0.519907,0.0104 0.148002,0.004 0.296007,0.007 0.444015,0.0106 0.131676,0.003 0.263359,0.006 0.395042,0.008 0.125714,0.003 0.251436,0.005 0.377161,0.007 0.117943,0.002 0.235886,0.004 0.35383,0.005 0.09659,0.002 0.193172,0.003 0.289758,0.004 -0.698328,-0.0261 -1.333148,0.23564 -1.907823,0.60561 -1.123553,0.8638 -1.499031,2.04311 -1.28551,3.41129 -0.0186,0.0394 0.249605,0.65373 0.147357,0.47541 -0.03253,-0.0549 -0.07121,-0.10565 -0.109873,-0.15631 -0.03,-0.0349 -0.06445,-0.0653 -0.09746,-0.0973 -0.115271,-0.11007 -0.23555,-0.21468 -0.355311,-0.3198 -0.127667,-0.11237 -0.256323,-0.22346 -0.390544,-0.32794 -0.108889,-0.0838 -0.222607,-0.1608 -0.337209,-0.23646 -0.151227,-0.1004 -0.307191,-0.19333 -0.463909,-0.28483 -0.297815,-0.16859 -0.587783,-0.34989 -0.872242,-0.54 -0.341407,-0.23233 -0.658071,-0.49772 -0.975415,-0.7612 -0.220784,-0.18104 -0.446979,-0.35533 -0.672605,-0.53026 -0.280144,-0.21559 -0.556734,-0.4357 -0.830657,-0.65912 -0.259117,-0.21488 -0.519073,-0.42875 -0.777928,-0.64395 -0.267102,-0.22212 -0.528587,-0.45084 -0.792263,-0.67697 -0.251799,-0.21037 -0.501063,-0.42362 -0.746792,-0.64104 -0.257117,-0.22819 -0.508738,-0.46239 -0.757915,-0.69918 -0.242588,-0.23116 -0.480419,-0.46716 -0.715033,-0.70638 -0.226283,-0.22916 -0.447017,-0.46364 -0.664464,-0.70117 -0.183703,-0.20201 -0.366464,-0.40486 -0.54705,-0.60966 -0.146077,-0.16752 -0.291,-0.33604 -0.436444,-0.5041 -0.120335,-0.13997 -0.239643,-0.2808 -0.359058,-0.42155 -0.0899,-0.10597 -0.179779,-0.21196 -0.269663,-0.31795 0.128294,0.15718 0.269653,0.26791 0.424336,0.40238 -3.863414,-2.95559 0.316415,-8.41928 4.179832,-5.46369 v 0 c 0.226237,0.19201 0.456829,0.378 0.642384,0.61197 0.08953,0.10558 0.179068,0.21116 0.268616,0.31672 0.104981,0.12373 0.209878,0.24753 0.315505,0.37071 0.13195,0.1525 0.263586,0.30528 0.395793,0.45755 0.152746,0.17351 0.30779,0.34496 0.463121,0.51615 0.163402,0.17913 0.329975,0.35531 0.500378,0.52781 0.177577,0.18141 0.357801,0.36015 0.541459,0.53542 0.190614,0.18128 0.382894,0.36079 0.579572,0.53552 0.218133,0.19352 0.441034,0.38142 0.664229,0.56907 0.236963,0.20329 0.471998,0.40885 0.711697,0.60892 0.242851,0.20198 0.486918,0.40248 0.729853,0.60436 0.229206,0.18731 0.461148,0.37122 0.69573,0.55176 0.28612,0.22186 0.572553,0.44345 0.851757,0.67402 0.143934,0.11951 0.286565,0.24078 0.434531,0.35531 0.157302,0.11276 0.329628,0.20275 0.495154,0.30244 0.267769,0.15711 0.533689,0.31753 0.792149,0.48967 0.268272,0.1786 0.532985,0.36268 0.786668,0.56167 0.23019,0.18194 0.455456,0.36978 0.675013,0.56446 0.227602,0.19987 0.4544,0.40088 0.669887,0.61392 0.275188,0.27593 0.539518,0.56306 0.771346,0.87699 0.201154,0.27344 0.393782,0.55334 0.561302,0.84895 0.233961,0.41542 0.448993,0.84304 0.560504,1.3103 0.263631,1.54942 -0.08589,2.7596 -1.346382,3.76343 -0.678863,0.44438 -1.426842,0.74544 -2.254499,0.71533 -0.09514,-0.002 -0.190275,-0.003 -0.285414,-0.004 -0.120245,-0.002 -0.24049,-0.004 -0.360733,-0.005 -0.13422,-0.002 -0.268441,-0.004 -0.402651,-0.007 -0.139525,-0.003 -0.27905,-0.006 -0.418568,-0.009 -0.150849,-0.003 -0.301699,-0.007 -0.452546,-0.0108 -0.151683,-0.004 -0.303363,-0.008 -0.455091,-0.009 -0.169151,-0.003 -0.338302,-0.005 -0.507444,-0.008 -0.170876,-0.003 -0.341749,-0.007 -0.512617,-0.0104 -0.18528,-0.004 -0.37056,-0.008 -0.555829,-0.0129 -0.199057,-0.005 -0.398105,-0.0101 -0.59717,-0.0147 -0.206846,-0.004 -0.413729,-0.005 -0.620593,-8e-4 -0.279292,0.004 -0.558581,0.007 -0.837862,0.0118 -0.310716,0.005 -0.621363,0.0127 -0.931944,0.0235 -0.37736,0.0117 -0.754711,0.0238 -1.132038,0.0365 -0.423471,0.0143 -0.846926,0.0291 -1.270321,0.0455 -0.44755,0.0174 -0.895074,0.0356 -1.342487,0.0563 -0.460595,0.0211 -0.921206,0.0419 -1.381975,0.0589 -0.47517,0.019 -0.950418,0.039 -1.426014,0.0427 -0.430236,0.004 -0.860486,0.007 -1.290722,0.0112 -0.439111,0.004 -0.878221,0.008 -1.317323,0.0133 -0.447945,0.005 -0.895914,0.01 -1.343785,0.0198 -0.475147,0.0116 -0.950288,0.0236 -1.425278,0.0405 -0.492975,0.0169 -0.985923,0.0346 -1.478759,0.0552 -0.492099,0.0208 -0.984134,0.0431 -1.476018,0.0685 -0.514665,0.0265 -1.029306,0.0537 -1.544249,0.0743 -0.526989,0.0196 -1.054179,0.0336 -1.58157,0.0352 -0.48741,7.9e-4 -0.974839,0.002 -1.462225,-0.004 -0.50658,-0.008 -1.013061,-0.0241 -1.518584,-0.0593 -0.462103,-0.0307 -0.924074,-0.0633 -1.385726,-0.10024 -0.488202,-0.0389 -0.976279,-0.0794 -1.464025,-0.12368 -0.518088,-0.0463 -1.036291,-0.0912 -1.554837,-0.13211 -0.588073,-0.0483 -1.176149,-0.0965 -1.763831,-0.14937 -0.624002,-0.0558 -1.247873,-0.11303 -1.872123,-0.166 -0.651087,-0.0542 -1.301777,-0.11287 -1.952763,-0.1682 -0.620255,-0.0497 -1.241216,-0.0893 -1.862833,-0.11767 -0.650288,-0.0325 -1.300835,-0.0594 -1.951046,-0.0934 -0.636352,-0.0333 -1.272614,-0.0682 -1.908783,-0.10479 -0.571492,-0.0317 -1.143045,-0.0637 -1.715101,-0.0835 -0.514339,-0.0137 -1.028837,-0.0164 -1.543304,-0.007 -0.507748,0.007 -1.015412,0.0187 -1.523044,0.0317 -0.481754,0.0125 -0.963478,0.0261 -1.44512,0.0424 -0.481124,0.0162 -0.962216,0.0335 -1.44321,0.0532 -0.503076,0.0208 -1.006102,0.0427 -1.509027,0.0669 -0.542396,0.0261 -1.084736,0.0535 -1.626947,0.0832 -0.569692,0.031 -1.139454,0.0605 -1.709406,0.0864 -0.54923,0.0258 -1.098452,0.0518 -1.647659,0.078 -0.542409,0.0276 -1.084633,0.0585 -1.626994,0.087 -0.578411,0.0275 -1.157282,0.0507 -1.736471,0.0484 -0.525376,-0.005 -1.050627,-0.0171 -1.575892,-0.0286 -0.508899,-0.0114 -1.017774,-0.0244 -1.526743,-0.0324 -0.533602,-0.006 -1.067221,-0.0102 -1.600821,-0.0163 -0.545287,-0.006 -1.090569,-0.0125 -1.635844,-0.0195 -0.52593,-0.007 -1.051864,-0.0134 -1.577844,-0.0143 -0.484094,-0.001 -0.96821,-0.004 -1.452295,5.3e-4 -0.433765,0.004 -0.867504,0.009 -1.301221,0.017 -0.420515,0.007 -0.841019,0.0155 -1.261584,0.0189 -0.419195,0.001 -0.8384,-0.002 -1.257344,-0.018 -0.389076,-0.0126 -0.778156,-0.0254 -1.167065,-0.0425 -0.374826,-0.0178 -0.749589,-0.037 -1.124112,-0.0604 -0.357189,-0.0226 -0.714288,-0.047 -1.070848,-0.0782 -0.281822,-0.0249 -0.563411,-0.0522 -0.844925,-0.0804 -0.278772,-0.0255 -0.557622,-0.0511 -0.8352344,-0.0875 -0.2520521,-0.0341 -0.5035793,-0.0722 -0.7532812,-0.12089 -0.1712536,-0.0331 -0.3420308,-0.0686 -0.5134099,-0.10102 -4.7798447,-0.90252 -3.5034818,-7.66224 1.2763629,-6.75972 z"
       inkscape:connector-curvature="0" />
    <path
       style="opacity:1;fill:#020900;fill-opacity:1;stroke:none;stroke-width:1;stroke-linecap:butt;stroke-linejoin:round;stroke-miterlimit:4;stroke-dasharray:none;stroke-opacity:1"
       id="path114"
       d="m 91.851838,251.17656 c -0.146749,0.20743 -0.300205,0.40988 -0.458404,0.60867 -0.212937,0.26591 -0.44812,0.51251 -0.689229,0.75272 -0.189632,0.18611 -0.382617,0.36876 -0.577972,0.54883 -0.191241,0.17706 -0.390737,0.34479 -0.58788,0.51515 -0.103426,0.0863 -0.196615,0.18347 -0.288153,0.28201 -0.176543,0.19087 -0.348615,0.38582 -0.522001,0.57955 -0.190358,0.21007 -0.378939,0.42172 -0.566031,0.6347 -0.186944,0.21384 -0.374254,0.42735 -0.560592,0.64172 -0.223898,0.26 -0.457385,0.51132 -0.695629,0.75815 -0.29319,0.29947 -0.608393,0.57597 -0.926775,0.84806 -0.271676,0.23094 -0.547277,0.45724 -0.82406,0.68202 -0.271492,0.21841 -0.542388,0.43755 -0.813025,0.65702 -0.303128,0.24682 -0.611516,0.48704 -0.918639,0.72883 -0.293989,0.23419 -0.592198,0.46299 -0.887182,0.69592 -0.287832,0.23375 -0.576471,0.46644 -0.867884,0.69572 -0.261778,0.20412 -0.52466,0.40683 -0.787159,0.61003 -0.200853,0.15543 -0.401875,0.31065 -0.601837,0.46723 -0.162078,0.12713 -0.323969,0.2545 -0.485881,0.38185 -0.130609,0.10273 -0.261212,0.20546 -0.391816,0.3082 -0.104132,0.0819 -0.208267,0.16382 -0.312399,0.24573 -0.04385,0.0345 -0.0877,0.069 -0.131548,0.10347 -3.823253,3.00736 -8.076303,-2.39953 -4.253053,-5.40689 v 0 c 0.04385,-0.0345 0.0877,-0.069 0.131551,-0.10348 0.104135,-0.0819 0.20827,-0.16382 0.312404,-0.24573 0.130702,-0.10281 0.261403,-0.20562 0.392108,-0.30843 0.165838,-0.13043 0.331655,-0.26089 0.497673,-0.3911 0.209973,-0.16439 0.420963,-0.32747 0.631891,-0.49063 0.248407,-0.19229 0.497136,-0.38418 0.745016,-0.57715 0.28856,-0.22691 0.57345,-0.45833 0.859142,-0.68883 0.297249,-0.2345 0.597371,-0.46532 0.89367,-0.70103 0.28113,-0.22132 0.563563,-0.44104 0.841103,-0.66688 0.269626,-0.21863 0.539466,-0.43698 0.809963,-0.65453 0.234458,-0.19028 0.467918,-0.38183 0.698111,-0.57726 0.152263,-0.1291 0.303522,-0.25966 0.447323,-0.39821 0.153334,-0.15721 0.301816,-0.31893 0.445217,-0.48528 0.194265,-0.22346 0.389483,-0.44608 0.584396,-0.66897 0.201113,-0.22887 0.403614,-0.4565 0.608211,-0.68226 0.211757,-0.23654 0.421897,-0.47459 0.638635,-0.70661 0.255196,-0.26969 0.517936,-0.53239 0.800892,-0.77325 0.142456,-0.12298 0.286908,-0.24371 0.425849,-0.37069 0.133673,-0.1227 0.265107,-0.2478 0.395184,-0.3743 0.05649,-0.055 0.112753,-0.11033 0.164394,-0.16992 0.07171,-0.0855 0.134818,-0.17775 0.20144,-0.26712 2.80224,-3.97604 8.425215,-0.0131 5.622976,3.96297 z"
       inkscape:connector-curvature="0" />
  </g>
</svg>
