<svg viewBox="0 0 100 100"><path d="M21.685 234.558q.214.113.447.176c.08.024.179.026.01.026q-.477.003-.953.015a5.3 5.3 0 0 0-.878.094 9 9 0 0 0-1.09.303q-.729.237-1.435.53a8.5 8.5 0 0 0-1.285.692c-.48.312-.928.668-1.363 1.04-.464.398-.89.837-1.301 1.289-.442.488-.842 1.01-1.223 1.547-.392.552-.727 1.14-1.042 1.739a14 14 0 0 0-.809 1.898c-.227.648-.39 1.316-.517 1.99-.12.648-.164 1.304-.172 1.961-.003.656.076 1.307.19 1.951.122.663.34 1.3.572 1.93.255.684.565 1.345.917 1.983.288.518.658.978 1.06 1.41.41.434.877.806 1.373 1.138.51.337 1.078.565 1.655.761.756.245 1.538.392 2.32.529.934.16 1.876.27 2.82.347.888.074 1.779.066 2.667.008.835-.056 1.657-.212 2.47-.405.821-.2 1.62-.478 2.407-.782.774-.3 1.512-.677 2.232-1.086a33 33 0 0 0 2.291-1.488 51 51 0 0 0 2.325-1.738c.77-.607 1.519-1.24 2.258-1.883a49 49 0 0 0 2.111-1.973c.708-.702 1.408-1.413 2.111-2.12a132 132 0 0 1 2.172-2.129q1.063-1.013 2.114-2.039c.678-.665 1.343-1.343 2.007-2.022.632-.648 1.254-1.305 1.878-1.96q.873-.91 1.739-1.827.78-.827 1.54-1.672.736-.812 1.483-1.61c.456-.491.923-.97 1.394-1.446q.653-.655 1.315-1.303.657-.644 1.332-1.268.708-.66 1.454-1.277a24 24 0 0 1 3.427-2.357c.628-.36 1.281-.67 1.944-.962a22 22 0 0 1 2.025-.753c.69-.219 1.396-.385 2.105-.53a19 19 0 0 1 2.2-.296c.763-.061 1.53-.052 2.295-.017.76.039 1.515.137 2.267.257.73.12 1.452.289 2.168.476.706.187 1.397.425 2.079.684.7.265 1.37.602 2.023.97.641.362 1.24.79 1.82 1.241.613.483 1.168 1.03 1.707 1.593.556.59 1.064 1.22 1.557 1.863a26.4 26.4 0 0 1 2.68 4.393c.397.8.717 1.635 1.005 2.479.275.822.483 1.664.665 2.511.177.838.284 1.687.373 2.538.08.809.132 1.62.177 2.432.045.8.058 1.6.055 2.4a18 18 0 0 1-.165 2.416c-.108.82-.307 1.622-.538 2.414-.235.81-.57 1.581-.949 2.332-.396.779-.907 1.486-1.462 2.158-.589.702-1.287 1.295-2.018 1.842-.733.54-1.538.965-2.361 1.348-.837.384-1.716.658-2.605.893-.913.235-1.846.374-2.78.49-.947.117-1.9.163-2.854.181-.972.018-1.942-.053-2.909-.152a39 39 0 0 1-2.653-.4 49 49 0 0 1-2.477-.529 40 40 0 0 1-2.44-.677 58 58 0 0 1-2.456-.827 81 81 0 0 1-2.583-.966 196 196 0 0 1-2.642-1.064q-1.366-.56-2.73-1.13-1.433-.595-2.85-1.232a72 72 0 0 1-2.857-1.39q-1.34-.684-2.662-1.398a82 82 0 0 1-2.603-1.477c-.819-.481-1.631-.972-2.443-1.465q-1.146-.696-2.29-1.395c-.739-.453-1.469-.92-2.196-1.392l-1.97-1.292c-.584-.382-1.168-.76-1.75-1.144a61 61 0 0 1-1.632-1.116 52 52 0 0 1-1.485-1.107c-.444-.343-.883-.695-1.323-1.043q-.604-.476-1.214-.945-.593-.465-1.192-.923-.532-.404-1.073-.796l-.98-.709-.8-.577-.64-.464-.51-.368-.41-.292a27 27 0 0 0-.602-.423c.03.02-.109-.075-.081-.057.754.502 1.115.476 2.037.565-4.856.292-5.269-6.574-.413-6.867.357.032.719.03 1.07.095.484.09.926.35 1.326.624l.287.2.377.268q.216.152.432.307l.517.373.643.466.802.58.996.719q.603.437 1.196.888.616.471 1.228.95.64.493 1.275.993.62.494 1.244.982.628.486 1.273.95.71.502 1.435.982l1.737 1.135q.973.64 1.947 1.277a90 90 0 0 0 2.043 1.295q1.132.692 2.266 1.38c.782.475 1.565.949 2.353 1.412s1.579.92 2.383 1.354q1.252.675 2.519 1.323c.848.43 1.699.856 2.565 1.25q1.332.599 2.683 1.16 1.338.56 2.68 1.108c.845.346 1.69.69 2.539 1.023.79.309 1.583.61 2.384.892a52 52 0 0 0 2.164.73 33 33 0 0 0 2.015.562c.699.166 1.4.321 2.107.452a34 34 0 0 0 2.145.328c.69.072 1.382.127 2.076.116a21 21 0 0 0 2.133-.13c.632-.077 1.264-.165 1.884-.318a9 9 0 0 0 1.462-.485c.397-.18.79-.374 1.146-.627.302-.219.594-.45.84-.732.233-.27.446-.557.613-.875.192-.366.356-.745.474-1.142a9 9 0 0 0 .317-1.373c.07-.513.108-1.029.106-1.546a32 32 0 0 0-.045-1.988 49 49 0 0 0-.15-2.102 18 18 0 0 0-.258-1.81 17 17 0 0 0-.453-1.74 13 13 0 0 0-.665-1.658 19 19 0 0 0-.912-1.68 20 20 0 0 0-1.056-1.562 17 17 0 0 0-1.075-1.299 10 10 0 0 0-.966-.922 7.8 7.8 0 0 0-2.06-1.202 14 14 0 0 0-1.37-.455 17 17 0 0 0-1.507-.338 15 15 0 0 0-1.514-.178 11 11 0 0 0-2.789.182c-.464.094-.925.2-1.378.341a15 15 0 0 0-1.368.505c-.437.19-.868.394-1.283.63a17 17 0 0 0-2.451 1.68q-.6.495-1.168 1.026-.606.56-1.197 1.138-.624.612-1.242 1.232-.638.641-1.255 1.3-.712.76-1.408 1.53-.808.899-1.636 1.776-.879.932-1.767 1.856c-.643.674-1.284 1.352-1.935 2.019a142 142 0 0 1-2.119 2.134q-1.07 1.045-2.153 2.078a119 119 0 0 0-2.063 2.021c-.724.728-1.445 1.46-2.174 2.183a56 56 0 0 1-2.408 2.246 67 67 0 0 1-2.529 2.108 58 58 0 0 1-2.645 1.975c-.925.642-1.86 1.27-2.838 1.831-1.016.57-2.057 1.098-3.146 1.516-1.082.414-2.179.79-3.307 1.059-1.19.275-2.392.496-3.613.573-1.22.072-2.444.085-3.664-.02a40 40 0 0 1-3.44-.427c-1.15-.204-2.297-.436-3.404-.812-1.144-.407-2.26-.892-3.267-1.58-.924-.64-1.804-1.344-2.566-2.175-.765-.847-1.469-1.746-2.015-2.751a22 22 0 0 1-1.338-2.912c-.372-1.022-.707-2.06-.893-3.134-.18-1.068-.304-2.146-.288-3.23.022-1.055.097-2.108.296-3.146.2-1.02.446-2.032.797-3.013.344-.954.727-1.895 1.203-2.792.46-.866.952-1.716 1.522-2.516a24 24 0 0 1 1.748-2.195c.61-.664 1.24-1.308 1.928-1.893.687-.58 1.395-1.136 2.155-1.618.742-.463 1.506-.893 2.317-1.224.64-.263 1.288-.506 1.947-.718.67-.215 1.345-.415 2.038-.537a12.5 12.5 0 0 1 1.884-.191q.578-.014 1.155-.016c.473.004.947.027 1.41.13.417.096.828.218 1.21.416 4.334 2.207 1.213 8.337-3.121 6.13" style="opacity:1;fill:#020900;fill-opacity:1;stroke:none;stroke-width:1;stroke-linecap:butt;stroke-linejoin:round;stroke-miterlimit:4;stroke-dasharray:none;stroke-opacity:1" transform="translate(0 -197)"/></svg>
