<?xml version="1.0" encoding="UTF-8" standalone="no"?>
<svg
   xmlns:dc="http://purl.org/dc/elements/1.1/"
   xmlns:cc="http://creativecommons.org/ns#"
   xmlns:rdf="http://www.w3.org/1999/02/22-rdf-syntax-ns#"
   xmlns:svg="http://www.w3.org/2000/svg"
   xmlns="http://www.w3.org/2000/svg"
   id="svg8"
   version="1.1"
   viewBox="0 0 100 99.999997"
   height="10cm"
   width="10cm">
  <defs
     id="defs2" />
  <metadata
     id="metadata5">
    <rdf:RDF>
      <cc:Work
         rdf:about="">
        <dc:format>image/svg+xml</dc:format>
        <dc:type
           rdf:resource="http://purl.org/dc/dcmitype/StillImage" />
        <dc:title></dc:title>
      </cc:Work>
    </rdf:RDF>
  </metadata>
  <g
     transform="translate(0,-197.00002)"
     id="layer1">
    <path
       d="m 21.684544,234.55812 c 0.142019,0.0755 0.292718,0.13245 0.447306,0.17602 0.08091,0.0239 0.179091,0.0262 0.01022,0.0263 -0.31781,0.002 -0.635596,0.007 -0.953325,0.0146 -0.295372,0.004 -0.58802,0.041 -0.878133,0.0939 -0.370864,0.0723 -0.731366,0.18685 -1.090184,0.30332 -0.485135,0.15773 -0.96353,0.33484 -1.434526,0.5306 -0.451352,0.18599 -0.873661,0.43024 -1.284794,0.69137 -0.480105,0.31193 -0.928425,0.66826 -1.363576,1.03935 -0.463546,0.39867 -0.889248,0.83772 -1.300523,1.28929 -0.442047,0.48797 -0.842295,1.01081 -1.223198,1.54719 -0.391638,0.55231 -0.727217,1.14015 -1.04227,1.7385 -0.321565,0.60967 -0.577589,1.24944 -0.808311,1.89794 -0.227652,0.64842 -0.389742,1.31617 -0.516945,1.9907 -0.119391,0.6473 -0.164254,1.30393 -0.171979,1.96108 -0.0033,0.65567 0.07608,1.30675 0.190159,1.95117 0.121305,0.66254 0.339435,1.30027 0.572025,1.93044 0.254748,0.6836 0.564688,1.34383 0.91692,1.9821 0.287372,0.51757 0.657169,0.97782 1.058892,1.40968 0.410535,0.43439 0.877737,0.80639 1.373265,1.13813 0.511366,0.33685 1.078571,0.56492 1.655198,0.76167 0.75633,0.2443 1.538345,0.39157 2.319784,0.52821 0.934421,0.16059 1.876204,0.2698 2.82078,0.34772 0.888062,0.0736 1.778708,0.0653 2.667044,0.008 0.834959,-0.056 1.656616,-0.21265 2.46937,-0.40521 0.821498,-0.19926 1.619568,-0.47823 2.407235,-0.78221 0.773528,-0.29942 1.511761,-0.67699 2.232121,-1.08593 0.788564,-0.45659 1.543357,-0.96783 2.290855,-1.488 0.794197,-0.55305 1.563719,-1.14005 2.324626,-1.7377 0.769938,-0.60705 1.519018,-1.23967 2.258084,-1.88374 0.726414,-0.63313 1.423821,-1.29813 2.111793,-1.97249 0.707774,-0.70251 1.407829,-1.41273 2.110978,-2.11986 0.713494,-0.72028 1.441249,-1.42613 2.171909,-2.12891 0.707753,-0.67637 1.413674,-1.35464 2.113804,-2.03891 0.677442,-0.66569 1.342707,-1.34363 2.006478,-2.0229 0.632362,-0.64726 1.253993,-1.30486 1.878629,-1.95954 0.581957,-0.60651 1.161772,-1.21506 1.738432,-1.82662 0.521366,-0.55021 1.03234,-1.11007 1.54097,-1.67202 0.488641,-0.54206 0.98393,-1.07804 1.482199,-1.61124 0.45589,-0.49009 0.923189,-0.96929 1.394237,-1.44476 0.435171,-0.43754 0.87367,-0.87175 1.314413,-1.30367 0.437356,-0.42992 0.88332,-0.85089 1.332802,-1.26806 0.471027,-0.44064 0.957328,-0.8642 1.453242,-1.27647 0.530831,-0.44012 1.085625,-0.8496 1.650368,-1.24478 0.573611,-0.39995 1.170911,-0.76372 1.777042,-1.11175 0.627989,-0.35997 1.281327,-0.67145 1.943547,-0.9624 0.660768,-0.28831 1.339297,-0.53169 2.025049,-0.75281 0.69078,-0.21946 1.396291,-0.38584 2.105811,-0.53129 0.725932,-0.14636 1.461379,-0.23318 2.198743,-0.2947 0.764077,-0.0616 1.530607,-0.0529 2.295533,-0.0174 0.76046,0.0387 1.515653,0.13733 2.267122,0.25648 0.731049,0.11955 1.452208,0.28949 2.168406,0.47693 0.706057,0.18608 1.396407,0.42415 2.078434,0.68348 0.701339,0.26546 1.370894,0.6025 2.023875,0.96914 0.640773,0.36279 1.24002,0.79046 1.820291,1.24213 0.611891,0.48318 1.167715,1.03041 1.705729,1.59311 0.556321,0.58916 1.064601,1.22057 1.557351,1.86306 0.517419,0.67736 0.985948,1.38954 1.436267,2.11262 0.457202,0.73649 0.862218,1.50293 1.244634,2.28029 0.396327,0.80048 0.715978,1.63428 1.003932,2.47876 0.275466,0.82218 0.483246,1.66416 0.665549,2.51116 0.176871,0.83744 0.283705,1.68688 0.372692,2.53741 0.08071,0.80919 0.131675,1.6209 0.176617,2.43273 0.04576,0.79885 0.05887,1.59889 0.05567,2.39888 0.0028,0.80922 -0.06191,1.61518 -0.165414,2.41705 -0.108286,0.81939 -0.306766,1.62166 -0.537867,2.41388 -0.235074,0.80895 -0.569624,1.58109 -0.94883,2.33147 -0.39615,0.77898 -0.907166,1.4863 -1.462272,2.1579 -0.58855,0.7027 -1.286664,1.295 -2.017705,1.84247 -0.732824,0.54044 -1.538343,0.96458 -2.361499,1.34777 -0.836721,0.38467 -1.716013,0.65843 -2.60445,0.89345 -0.91322,0.23435 -1.846212,0.37348 -2.780564,0.48987 -0.946997,0.11651 -1.900034,0.16288 -2.853349,0.18098 -0.972468,0.0176 -1.942578,-0.0528 -2.909101,-0.1522 -0.889471,-0.0975 -1.77274,-0.24181 -2.653155,-0.39989 -0.830754,-0.15206 -1.655487,-0.33426 -2.477156,-0.52897 -0.821338,-0.19475 -1.631987,-0.43021 -2.438985,-0.67684 -0.826344,-0.25301 -1.642438,-0.53745 -2.456547,-0.82694 -0.867177,-0.30542 -1.726713,-0.63155 -2.582982,-0.96613 -0.883933,-0.34738 -1.76404,-0.70435 -2.642822,-1.06451 -0.911,-0.3727 -1.820659,-0.74865 -2.728579,-1.12878 -0.956069,-0.39812 -1.907374,-0.80729 -2.851727,-1.23244 -0.964335,-0.43766 -1.912149,-0.91028 -2.856127,-1.3899 -0.89268,-0.45576 -1.779386,-0.92309 -2.662015,-1.39799 -0.878729,-0.47292 -1.74262,-0.97255 -2.603333,-1.47729 -0.818452,-0.48114 -1.630908,-0.97235 -2.44247,-1.46499 -0.763775,-0.46423 -1.527365,-0.92878 -2.289526,-1.39566 -0.739397,-0.45249 -1.469642,-0.91961 -2.196635,-1.39169 -0.658048,-0.429 -1.313862,-0.86141 -1.970897,-1.29196 -0.583046,-0.38143 -1.167617,-0.76051 -1.749502,-1.14371 -0.549796,-0.36334 -1.093737,-0.7354 -1.631434,-1.1164 -0.502724,-0.35861 -0.99583,-0.7304 -1.485458,-1.10662 -0.444214,-0.34361 -0.882531,-0.69475 -1.322789,-1.0434 -0.402384,-0.31805 -0.808488,-0.63135 -1.214139,-0.94521 -0.395962,-0.30906 -0.792382,-0.6175 -1.19171,-0.9222 -0.354187,-0.27017 -0.712777,-0.53447 -1.072816,-0.79676 -0.327342,-0.23565 -0.654348,-0.47177 -0.980975,-0.70841 -0.266458,-0.19284 -0.533645,-0.38468 -0.800091,-0.57754 -0.212819,-0.15438 -0.425287,-0.30923 -0.638382,-0.46322 -0.170245,-0.12292 -0.340591,-0.24569 -0.510926,-0.36847 -0.136252,-0.0981 -0.274097,-0.19398 -0.410692,-0.29162 -0.106675,-0.0771 -0.214259,-0.15292 -0.322059,-0.22843 -0.09307,-0.0651 -0.186207,-0.13016 -0.279334,-0.19521 0.02948,0.0197 -0.10841,-0.0748 -0.08099,-0.0566 0.753966,0.50176 1.115329,0.47548 2.037059,0.56514 -4.855526,0.29212 -5.268653,-6.57463 -0.413127,-6.86675 v 0 c 0.357001,0.0316 0.718713,0.029 1.071003,0.0949 0.483639,0.0904 0.925622,0.34957 1.325185,0.62363 0.09575,0.0669 0.191505,0.13375 0.287195,0.20071 0.126052,0.0883 0.251843,0.17699 0.376645,0.26706 0.143578,0.10274 0.288779,0.20319 0.431773,0.30676 0.172561,0.12439 0.345136,0.24877 0.517607,0.37329 0.214588,0.15508 0.428585,0.31098 0.642874,0.46647 0.267153,0.19342 0.535123,0.3857 0.80227,0.57912 0.331628,0.24027 0.663704,0.4799 0.99596,0.71929 0.401143,0.29232 0.8006,0.58697 1.195224,0.88805 0.411395,0.31401 0.820102,0.63149 1.227968,0.95006 0.426127,0.32971 0.85267,0.6589 1.275302,0.99309 0.414287,0.32811 0.826786,0.65851 1.24447,0.98229 0.419569,0.32269 0.842114,0.64161 1.272712,0.9495 0.472768,0.33573 0.951979,0.66223 1.435428,0.98239 0.57744,0.38034 1.157685,0.75637 1.736236,1.13501 0.649174,0.4254 1.29717,0.85261 1.947296,1.27656 0.676214,0.43924 1.355424,0.87394 2.043219,1.2949 0.754237,0.46205 1.509921,0.92173 2.265756,1.38116 0.781886,0.47465 1.564582,0.94801 2.353064,1.41165 0.787982,0.46224 1.578613,0.92028 2.383055,1.35347 0.835062,0.4495 1.674135,0.89156 2.518679,1.32301 0.847903,0.43104 1.698943,0.85644 2.564871,1.25039 0.888291,0.40042 1.783752,0.78436 2.683142,1.15919 0.891977,0.37349 1.785708,0.74277 2.680716,1.10894 0.844013,0.34597 1.689304,0.68886 2.538228,1.02264 0.790239,0.309 1.58351,0.61013 2.383951,0.89185 0.717254,0.25519 1.435918,0.50693 2.1639,0.73019 0.666861,0.20431 1.336463,0.40043 2.015233,0.56183 0.698932,0.16628 1.400583,0.32148 2.107208,0.45182 0.71202,0.12864 1.426279,0.24665 2.14548,0.32789 0.689417,0.0727 1.381297,0.1274 2.075251,0.11643 0.712534,-0.0116 1.424887,-0.0447 2.132854,-0.13023 0.632421,-0.0772 1.264838,-0.16494 1.884117,-0.31816 0.497977,-0.12744 0.991997,-0.27409 1.462254,-0.48436 0.397221,-0.18017 0.789519,-0.37425 1.146328,-0.62744 0.301247,-0.2184 0.594093,-0.44978 0.839423,-0.73172 0.233688,-0.27023 0.446513,-0.55747 0.612783,-0.8749 0.192283,-0.36598 0.356811,-0.7452 0.474453,-1.14232 0.134768,-0.45038 0.252561,-0.90624 0.31709,-1.3727 0.07084,-0.51269 0.107572,-1.02871 0.106079,-1.54658 0.0035,-0.66299 -0.0075,-1.32602 -0.04528,-1.98807 -0.03859,-0.70123 -0.08178,-1.40241 -0.150294,-2.10146 -0.06231,-0.60612 -0.134107,-1.21196 -0.257368,-1.80924 -0.124405,-0.58709 -0.265721,-1.17093 -0.453554,-1.74141 -0.189778,-0.56492 -0.400601,-1.12279 -0.665067,-1.65768 -0.27966,-0.57244 -0.576366,-1.13666 -0.91144,-1.67899 -0.331285,-0.53475 -0.675621,-1.06176 -1.056484,-1.56291 -0.340936,-0.44694 -0.691475,-0.8872 -1.07506,-1.2987 -0.306184,-0.32329 -0.619855,-0.64069 -0.966036,-0.92176 -0.307454,-0.24347 -0.625068,-0.47417 -0.965332,-0.6703 -0.352219,-0.20191 -0.714015,-0.38668 -1.093973,-0.53147 -0.449506,-0.17329 -0.905068,-0.33121 -1.370703,-0.45593 -0.497605,-0.13156 -0.9985,-0.25176 -1.506344,-0.33733 -0.501772,-0.0813 -1.005991,-0.1497 -1.513893,-0.17821 -0.468019,-0.0243 -0.937109,-0.0323 -1.404938,0.003 -0.464111,0.036 -0.92687,0.0898 -1.384067,0.17911 -0.464058,0.0934 -0.925613,0.20002 -1.37781,0.34114 -0.463502,0.1472 -0.92139,0.31151 -1.368017,0.50454 -0.437364,0.19003 -0.868715,0.39398 -1.283333,0.63026 -0.428722,0.24421 -0.85054,0.50077 -1.256281,0.78187 -0.409091,0.28468 -0.810522,0.58033 -1.194972,0.89779 -0.399097,0.33048 -0.789009,0.67169 -1.167503,1.02567 -0.403826,0.37459 -0.80445,0.75263 -1.197253,1.13881 -0.416599,0.40816 -0.830977,0.81859 -1.242353,1.23202 -0.423969,0.42783 -0.844765,0.85881 -1.254917,1.29997 -0.473363,0.50648 -0.943874,1.01562 -1.408011,1.53058 -0.540052,0.59663 -1.082765,1.19087 -1.636223,1.77513 -0.585915,0.62133 -1.174928,1.23971 -1.766224,1.85592 -0.643578,0.67451 -1.284113,1.35196 -1.935768,2.01871 -0.700694,0.71698 -1.40308,1.43244 -2.118429,2.13485 -0.713256,0.69698 -1.432118,1.38815 -2.153155,2.07707 -0.693862,0.66732 -1.385144,1.33738 -2.06261,2.02141 -0.724315,0.72841 -1.445318,1.46013 -2.174883,2.18329 -0.784333,0.768 -1.579811,1.5249 -2.407838,2.24599 -0.827667,0.72047 -1.66629,1.42843 -2.528525,2.10741 -0.865899,0.67933 -1.741813,1.34625 -2.645516,1.97487 -0.924837,0.6424 -1.860386,1.27118 -2.837984,1.83143 -1.01605,0.5705 -2.056381,1.09826 -3.1458,1.51616 -1.081839,0.41381 -2.178746,0.79061 -3.306993,1.05871 -1.18945,0.27552 -2.3921,0.49645 -3.612835,0.57286 -1.220602,0.0724 -2.444143,0.0854 -3.663845,-0.0188 -1.151733,-0.0976 -2.30043,-0.22985 -3.439664,-0.42796 -1.14963,-0.20355 -2.297196,-0.43554 -3.404805,-0.81211 -1.143439,-0.40732 -2.259959,-0.8916 -3.267028,-1.57891 -0.924096,-0.64098 -1.8035903,-1.34487 -2.565962,-2.17613 -0.7642752,-0.84636 -1.4683065,-1.74573 -2.0152328,-2.75084 -0.5093719,-0.94028 -0.9691897,-1.90652 -1.3378111,-2.91155 -0.372178,-1.02221 -0.7064992,-2.0604 -0.8927687,-3.13489 -0.1790838,-1.06758 -0.3036909,-2.14505 -0.2877847,-3.22968 0.021429,-1.05454 0.096437,-2.10819 0.2954158,-3.14587 0.1995556,-1.0206 0.4466555,-2.03198 0.7970956,-3.01254 0.3446452,-0.95418 0.7268369,-1.8952 1.2032597,-2.79241 0.4604125,-0.86625 0.9519652,-1.71639 1.5224931,-2.51582 0.5449594,-0.76096 1.1162914,-1.50341 1.7478301,-2.19531 0.6094061,-0.66369 1.240586,-1.30821 1.927452,-1.8928 0.68698,-0.57992 1.395292,-1.13572 2.155001,-1.61849 0.742436,-0.46267 1.506053,-0.89227 2.317535,-1.22359 0.640051,-0.26281 1.287819,-0.50627 1.946583,-0.71847 0.6693,-0.21493 1.344849,-0.41463 2.038341,-0.53633 0.623295,-0.10418 1.251015,-0.18213 1.883845,-0.1912 0.384977,-0.009 0.770035,-0.0154 1.155117,-0.0163 0.472636,0.004 0.946692,0.0272 1.40959,0.13107 0.417002,0.0953 0.828534,0.21727 1.209902,0.41519 4.334852,2.20692 1.21379,8.33733 -3.121063,6.13041 z"
       id="path939"
       style="opacity:1;fill:#020900;fill-opacity:1;stroke:none;stroke-width:1;stroke-linecap:butt;stroke-linejoin:round;stroke-miterlimit:4;stroke-dasharray:none;stroke-opacity:1" />
  </g>
</svg>
