<svg viewBox="0 0 100 100"><path d="m16.246 228.942-.002-.046.057.323q.047.252.099.502.086.425.159.85c.064.371.112.744.156 1.117.049.428.084.857.117 1.286.035.477.061.955.088 1.432q.04.727.096 1.453.064.84.113 1.678.057.921.088 1.842c.02.646.03 1.292.04 1.937q.015.972.026 1.944a81 81 0 0 1-.053 4.157c-.026.683-.06 1.366-.09 2.048q-.043.915-.08 1.831l-.064 1.538-.05 1.23c-.001.002.004.527-.003.319a1.4 1.4 0 0 0-.15-.485 1.7 1.7 0 0 0-.45-.536c-.106-.092-.233-.15-.357-.212.117.003.265.02.391.028.311.019.623.024.935.027.371.003.742-.01 1.113-.026.46-.022.918-.052 1.377-.08q.826-.048 1.653-.089c.592-.03 1.183-.07 1.774-.11q1.016-.067 2.033-.124a265 265 0 0 0 2.086-.12l2.156-.14q1.14-.074 2.282-.133 1.172-.058 2.345-.11l2.385-.11q1.18-.052 2.36-.098 1.124-.042 2.249-.08 1.065-.036 2.132-.077c.67-.027 1.338-.063 2.007-.097q.968-.05 1.936-.107.938-.056 1.875-.12.913-.058 1.827-.123l1.793-.124a159 159 0 0 0 3.609-.293q.94-.087 1.881-.17a120 120 0 0 1 3.932-.286q.99-.058 1.981-.1c.664-.027 1.328-.04 1.993-.05q.943-.01 1.888-.014.944-.004 1.888.006a208 208 0 0 1 3.809.09q.949.039 1.898.105a95 95 0 0 1 3.557.346q.818.1 1.636.206.712.091 1.427.17.658.075 1.317.134c.415.038.831.065 1.247.09q.628.039 1.256.073l1.066.061.843.05.672.039c.151.007.303.02.454.027l-.036-.003a2.9 2.9 0 0 0-1.658.48c-.147.097-.277.219-.415.328-.46.45-.78 1.007-.88 1.643-.008.188-.035-.258-.035-.261a17 17 0 0 0-.131-.932q-.112-.674-.221-1.352l-.243-1.519q-.135-.816-.26-1.634-.127-.87-.228-1.743c-.067-.565-.123-1.13-.181-1.696a50 50 0 0 0-.183-1.563c-.072-.531-.152-1.061-.23-1.592a79 79 0 0 1-.414-3.37q-.08-.78-.153-1.56a101 101 0 0 1-.247-3.119 140 140 0 0 1-.156-2.917 34 34 0 0 1-.037-1.422q0-.63.009-1.259c.005-.416.023-.83.042-1.246q.024-.525.052-1.052l.045-.848.035-.679q.007-.127.002-.058c.068-4.863 6.946-4.766 6.878.097-.005.241-.002.135-.01.32l-.035.678-.045.849-.05 1.002c-.015.341-.03.683-.036 1.025q-.007.567-.008 1.134.003.579.03 1.158a132 132 0 0 0 .252 4.213q.058.739.128 1.476.069.741.145 1.481.08.77.173 1.537.095.788.21 1.574c.08.56.165 1.12.241 1.681q.116.877.205 1.755c.055.53.106 1.06.169 1.59q.088.767.2 1.53.12.782.249 1.562l.243 1.524.22 1.353c.075.462.146.924.19 1.39.045.5.079 1.002.037 1.503-.114 1.043-.437 1.928-1.192 2.694-.173.143-.335.3-.519.428-.692.48-1.52.699-2.355.694q-.326-.012-.653-.034l-.672-.039-.842-.05-1.048-.06q-.651-.035-1.303-.075a51 51 0 0 1-2.903-.254q-.766-.085-1.528-.182c-.521-.066-1.043-.135-1.565-.197a88 88 0 0 0-3.228-.316 58 58 0 0 0-1.693-.094 97 97 0 0 0-1.808-.052q-.902-.02-1.805-.034-.894-.009-1.788-.006-.912.004-1.824.014c-.599.008-1.197.02-1.795.045a126 126 0 0 0-5.6.365q-.937.083-1.873.169-.945.086-1.89.164-.927.075-1.855.14l-1.795.125q-.927.064-1.854.125-.96.063-1.92.122-.994.06-1.99.11c-.696.035-1.393.073-2.09.1q-1.079.042-2.157.078-1.113.038-2.225.08-1.155.044-2.312.096l-2.388.11q-1.148.051-2.296.108-1.1.056-2.196.127-1.088.072-2.176.14-1.061.066-2.122.124-.98.054-1.96.12c-.627.041-1.253.084-1.88.116-.534.028-1.067.054-1.6.086-.502.03-1.004.063-1.506.086-.485.02-.97.035-1.455.031a24 24 0 0 1-1.356-.044c-.544-.039-1.09-.094-1.62-.226-.693-.188-1.364-.446-1.951-.869-.595-.451-1.129-.97-1.499-1.627-.33-.605-.59-1.242-.687-1.93a8 8 0 0 1-.066-1.608l.051-1.23.064-1.541q.038-.93.08-1.857c.03-.663.063-1.326.09-1.99a74 74 0 0 0 .049-3.817l-.027-1.918q-.013-.908-.037-1.815a60 60 0 0 0-.079-1.657q-.048-.794-.107-1.587a79 79 0 0 1-.103-1.57c-.025-.435-.049-.87-.08-1.305a27 27 0 0 0-.09-1.008 14 14 0 0 0-.225-1.394q-.069-.332-.13-.665-.05-.28-.094-.56a6 6 0 0 1-.06-.625c-.212-4.86 6.661-5.158 6.872-.298m35.964 44.937c-.008.007-.086.11-.04.049.043-.052.136-.2.151-.224q-.041.078-.084.155l-.05.095-.083.154-.013.03.01-.024q.034-.072.06-.149l.022-.074c.005-.013.013-.073.017-.099q.013-.125.009-.252c.004-.007-.016-.13-.002-.064-.008-.067-.035-.13-.056-.193-.148-.42-.417-.768-.732-1.076a2.6 2.6 0 0 0-.764-.484 1.5 1.5 0 0 0-.257-.073 1.9 1.9 0 0 0-.804.035 1.2 1.2 0 0 0-.226.093c-.079.05-.15.114-.217.178-.07.08.018-.028-.02.017q-.048.06-.087.126-.05.088-.086.183a2 2 0 0 0-.119.704c.007.23.05.457.116.677.012.042.029.076.051.128q.03.067.063.126.104.173.235.325a2.3 2.3 0 0 0 .574.47c.03.017.015.01-.011-.003-.035-.017-.067-.03-.003-.002q.13.056.269.095c.355.105.725.114 1.092.087a3 3 0 0 0 .998-.295c.07-.037.062-.033.003.002l-.167.099-.08.047c.173-.104-.027.024.37-.251l.558-.557c-3.021 3.812-8.412-.461-5.39-4.273l.571-.572c.166-.116.326-.238.503-.335l.11-.065q.17-.104.346-.197c.44-.22.906-.386 1.398-.438.5-.042 1.002-.032 1.488.108a5 5 0 0 1 .93.354q.177.084.349.179c.23.128.454.269.66.434a4.7 4.7 0 0 1 1.077 1.216c.105.175.206.353.292.539.092.202.177.407.246.618.126.395.215.803.227 1.22.009.314.003.629-.045.94-.054.32-.124.637-.236.942a5.7 5.7 0 0 1-.825 1.53c-.16.208-.326.41-.508.6-.25.254-.515.494-.81.696a6.5 6.5 0 0 1-.747.45 6 6 0 0 1-.889.367 5.2 5.2 0 0 1-1.155.238 5 5 0 0 1-1.193-.044 5.6 5.6 0 0 1-1.012-.257c-.518-.198-1.013-.451-1.43-.823-.493-.466-.908-.995-1.145-1.638a6 6 0 0 1-.26-.91 7 7 0 0 1-.113-.8 5.4 5.4 0 0 1 .108-1.552 5.5 5.5 0 0 1 .533-1.5q.056-.11.116-.218l.117-.22.08-.148a4.7 4.7 0 0 1 .512-.762c3.015-3.817 8.413.448 5.397 4.265z" style="opacity:1;fill:#020900;fill-opacity:1;stroke:none;stroke-width:1;stroke-linecap:butt;stroke-linejoin:round;stroke-miterlimit:4;stroke-dasharray:none;stroke-opacity:1" transform="translate(0 -197)"/></svg>
