<?xml version="1.0" encoding="UTF-8" standalone="no"?>
<svg
   xmlns:dc="http://purl.org/dc/elements/1.1/"
   xmlns:cc="http://creativecommons.org/ns#"
   xmlns:rdf="http://www.w3.org/1999/02/22-rdf-syntax-ns#"
   xmlns:svg="http://www.w3.org/2000/svg"
   xmlns="http://www.w3.org/2000/svg"
   id="svg8"
   version="1.1"
   viewBox="0 0 100 99.999997"
   height="10cm"
   width="10cm">
  <defs
     id="defs2" />
  <metadata
     id="metadata5">
    <rdf:RDF>
      <cc:Work
         rdf:about="">
        <dc:format>image/svg+xml</dc:format>
        <dc:type
           rdf:resource="http://purl.org/dc/dcmitype/StillImage" />
        <dc:title></dc:title>
      </cc:Work>
    </rdf:RDF>
  </metadata>
  <g
     transform="translate(0,-197.00002)"
     id="layer1">
    <path
       d="m 16.245903,228.94233 c 0.0019,0.0231 -0.0016,-0.0311 -0.002,-0.0461 0.01925,0.10738 0.03749,0.21495 0.05667,0.32235 0.031,0.16795 0.06503,0.33533 0.09903,0.50269 0.05837,0.28246 0.109799,0.56626 0.159038,0.85043 0.06412,0.37029 0.112361,0.74299 0.156101,1.11614 0.04896,0.42772 0.08442,0.85679 0.116965,1.28602 0.03525,0.47704 0.0614,0.95468 0.08864,1.43223 0.02614,0.48465 0.05972,0.96882 0.09566,1.45283 0.04257,0.55916 0.07932,1.11873 0.113318,1.67847 0.03783,0.61346 0.06705,1.22736 0.08798,1.84163 0.01901,0.64564 0.02899,1.29151 0.03929,1.93734 0.01014,0.64788 0.01854,1.29578 0.02653,1.94369 0.0099,0.68083 0.0088,1.36172 0.0016,2.04256 -0.0095,0.70509 -0.02839,1.40998 -0.0544,2.11464 -0.02662,0.68281 -0.05984,1.36534 -0.09101,2.04795 -0.02792,0.61026 -0.05382,1.2206 -0.0794,1.83095 -0.02139,0.51267 -0.04261,1.02535 -0.06385,1.53802 -0.01698,0.41002 -0.03396,0.82003 -0.05094,1.23005 -3.18e-4,0.002 0.0051,0.52648 -0.0025,0.31838 -0.01265,-0.17127 -0.07534,-0.33129 -0.148847,-0.48448 -0.10711,-0.21288 -0.270276,-0.38422 -0.450648,-0.5363 -0.106256,-0.0921 -0.233027,-0.14942 -0.35697,-0.21168 0.117279,0.003 0.265171,0.0192 0.391299,0.0276 0.310988,0.0189 0.622603,0.0246 0.934096,0.0271 0.371461,0.003 0.742721,-0.0105 1.113795,-0.0258 0.459109,-0.022 0.917778,-0.0522 1.376586,-0.0796 0.550876,-0.0332 1.102081,-0.0604 1.653205,-0.089 0.591637,-0.03 1.18265,-0.0706 1.773686,-0.11042 0.677341,-0.0458 1.35508,-0.0853 2.032867,-0.12385 0.695663,-0.0376 1.391168,-0.0779 2.086514,-0.12099 0.718783,-0.0455 1.437431,-0.0932 2.156145,-0.13975 0.760132,-0.0497 1.52069,-0.0923 2.281391,-0.13219 0.781527,-0.0398 1.563307,-0.0745 2.345039,-0.1099 0.795227,-0.036 1.590384,-0.0735 2.385595,-0.1098 0.786273,-0.0358 1.572707,-0.0679 2.359205,-0.0984 0.749654,-0.0288 1.499446,-0.0537 2.249186,-0.0801 0.710692,-0.0245 1.42137,-0.0494 2.131946,-0.0771 0.669367,-0.0265 1.338286,-0.0628 2.007293,-0.0968 0.645515,-0.0322 1.290775,-0.0692 1.935972,-0.10719 0.625057,-0.0374 1.249889,-0.0784 1.874727,-0.11924 0.609303,-0.0393 1.21844,-0.0811 1.827543,-0.1233 0.597545,-0.0416 1.195139,-0.0825 1.792684,-0.12413 0.593736,-0.0412 1.187167,-0.0866 1.780405,-0.13448 0.60968,-0.05 1.218994,-0.1044 1.828279,-0.159 0.627155,-0.057 1.254241,-0.11465 1.881531,-0.17013 0.64746,-0.0585 1.295511,-0.11 1.943831,-0.15795 0.662246,-0.0485 1.325025,-0.0893 1.98792,-0.1278 0.660172,-0.038 1.320591,-0.0716 1.981256,-0.0998 0.663881,-0.0271 1.328168,-0.0409 1.992503,-0.0502 0.629351,-0.007 1.258728,-0.0115 1.888111,-0.0143 0.629306,-0.003 1.258623,-1.9e-4 1.887903,0.006 0.628753,0.008 1.2574,0.0217 1.886042,0.0354 0.641176,0.0129 1.282216,0.0304 1.923045,0.0551 0.633172,0.0247 1.265714,0.0622 1.897864,0.10537 0.609629,0.0415 1.217943,0.0993 1.825921,0.15983 0.577766,0.0568 1.154949,0.11911 1.731569,0.18647 0.545674,0.0648 1.090533,0.13613 1.635619,0.20558 0.475195,0.0608 0.950998,0.11659 1.427052,0.17015 0.438634,0.0492 0.877832,0.093 1.317326,0.13371 0.415139,0.0376 0.831151,0.0643 1.24714,0.0903 0.418425,0.0256 0.836996,0.0489 1.255556,0.0722 0.355259,0.0201 0.710478,0.041 1.065702,0.0617 0.281072,0.0164 0.562144,0.0329 0.843219,0.0493 0.22397,0.0131 0.44794,0.0262 0.67191,0.0393 0.151574,0.007 0.302889,0.0201 0.454488,0.0266 0.01212,5.3e-4 -0.02416,-0.002 -0.03625,-0.003 -0.586465,-0.0143 -1.168151,0.15488 -1.658128,0.48031 -0.146875,0.0975 -0.276656,0.21866 -0.414983,0.32799 -0.458837,0.44964 -0.780028,1.00686 -0.879628,1.64276 -0.0078,0.18809 -0.03472,-0.25748 -0.03504,-0.26084 -0.03249,-0.31201 -0.08171,-0.62194 -0.13154,-0.93154 -0.07398,-0.45057 -0.148545,-0.90103 -0.220978,-1.35185 -0.07988,-0.5065 -0.160567,-1.01287 -0.2423,-1.51908 -0.08934,-0.54426 -0.177501,-1.08868 -0.259638,-1.63408 -0.0868,-0.57967 -0.159941,-1.16125 -0.229132,-1.74324 -0.0669,-0.56476 -0.12247,-1.13074 -0.180697,-1.69643 -0.05221,-0.52172 -0.113837,-1.04239 -0.182372,-1.5622 -0.07235,-0.53145 -0.15263,-1.06178 -0.229524,-1.59258 -0.08335,-0.57149 -0.158027,-1.14417 -0.228806,-1.71732 -0.06708,-0.55052 -0.127561,-1.10182 -0.186121,-1.6533 -0.05424,-0.51924 -0.103352,-1.03901 -0.152548,-1.55875 -0.05041,-0.52396 -0.0948,-1.04847 -0.137004,-1.57315 -0.04135,-0.51514 -0.07717,-1.03069 -0.11081,-1.54638 -0.03226,-0.49887 -0.06073,-0.99798 -0.08764,-1.49717 -0.02561,-0.47312 -0.04763,-0.94643 -0.0684,-1.41979 -0.02286,-0.47384 -0.03363,-0.94805 -0.03643,-1.4224 -5.29e-4,-0.41954 0.0033,-0.83907 0.0086,-1.25857 0.0056,-0.41557 0.02341,-0.83083 0.04205,-1.24597 0.01551,-0.35078 0.03421,-0.70141 0.05252,-1.05205 0.01479,-0.28272 0.02952,-0.56544 0.04425,-0.84817 0.01177,-0.22615 0.02357,-0.45229 0.03536,-0.67844 0.0039,-0.085 0.0062,-0.10415 0.0016,-0.0579 0.06848,-4.86383 6.946961,-4.76699 6.878484,0.0968 v 0 c -0.0055,0.24095 -0.0016,0.13459 -0.01013,0.31912 -0.01177,0.22616 -0.02357,0.45233 -0.03536,0.67849 -0.01474,0.28295 -0.02949,0.5659 -0.04429,0.84885 -0.01744,0.33395 -0.0353,0.66788 -0.05009,1.00196 -0.01537,0.34175 -0.0307,0.68358 -0.03569,1.02567 -0.0049,0.37784 -0.0081,0.75571 -0.0081,1.13358 0.0019,0.38605 0.01127,0.77196 0.02992,1.15759 0.01974,0.45046 0.04068,0.90088 0.06505,1.35113 0.02548,0.47337 0.05248,0.94666 0.08303,1.41974 0.03135,0.4811 0.06471,0.96207 0.103262,1.44265 0.03956,0.49235 0.08118,0.98453 0.128516,1.4762 0.04673,0.49374 0.09333,0.98751 0.144724,1.4808 0.0544,0.5127 0.110556,1.02522 0.172781,1.53704 0.06475,0.52521 0.133162,1.04997 0.209534,1.57363 0.08116,0.56044 0.166053,1.12036 0.241821,1.68157 0.07666,0.584 0.146307,1.16889 0.20497,1.755 0.05454,0.52999 0.106432,1.06028 0.168836,1.58943 0.06064,0.51118 0.124558,1.02201 0.200594,1.53117 0.07829,0.52103 0.163108,1.04102 0.248237,1.56098 0.08202,0.50802 0.163053,1.01621 0.243182,1.52454 0.07245,0.45111 0.147243,0.90184 0.221117,1.35272 0.07393,0.46165 0.144614,0.92411 0.189373,1.38966 0.0449,0.49942 0.07855,1.00174 0.03705,1.50282 -0.11475,1.04336 -0.437663,1.92807 -1.192591,2.69461 -0.172889,0.14273 -0.334526,0.3003 -0.518673,0.42818 -0.691819,0.48042 -1.520074,0.69852 -2.355032,0.69335 -0.217808,-0.007 -0.435296,-0.0197 -0.652804,-0.0334 -0.223967,-0.0131 -0.447932,-0.0262 -0.671899,-0.0393 -0.280921,-0.0164 -0.561843,-0.0328 -0.842767,-0.0493 -0.349059,-0.0204 -0.698113,-0.0408 -1.047207,-0.0607 -0.434528,-0.0242 -0.869067,-0.0483 -1.303452,-0.075 -0.484243,-0.0304 -0.968475,-0.062 -1.451694,-0.10623 -0.484309,-0.045 -0.968312,-0.0932 -1.451674,-0.1475 -0.509458,-0.0574 -1.018646,-0.11711 -1.527185,-0.18216 -0.521597,-0.0665 -1.042972,-0.13477 -1.565103,-0.19697 -0.537636,-0.0629 -1.075838,-0.12081 -1.614551,-0.1738 -0.537202,-0.0536 -1.074664,-0.10519 -1.613324,-0.14198 -0.564205,-0.0387 -1.128768,-0.0722 -1.693891,-0.0945 -0.602237,-0.0234 -1.204693,-0.0394 -1.80726,-0.0516 -0.601594,-0.0131 -1.203193,-0.0267 -1.804893,-0.0341 -0.596154,-0.006 -1.192344,-0.008 -1.788527,-0.006 -0.608068,0.003 -1.216131,0.007 -1.824173,0.0137 -0.598363,0.008 -1.196681,0.0205 -1.794645,0.0446 -0.62525,0.0266 -1.250251,0.0585 -1.875038,0.0944 -0.626801,0.0364 -1.253496,0.0748 -1.879688,0.12065 -0.615389,0.0455 -1.230516,0.0944 -1.845082,0.14994 -0.624591,0.0552 -1.248974,0.11275 -1.873433,0.16941 -0.629703,0.0564 -1.259437,0.11258 -1.889556,0.16421 -0.618117,0.0498 -1.236432,0.0971 -1.855068,0.14009 -0.598275,0.0417 -1.196602,0.0826 -1.79488,0.12429 -0.618117,0.0429 -1.236266,0.0852 -1.854586,0.12512 -0.639588,0.0418 -1.279171,0.0837 -1.918986,0.12199 -0.663395,0.0391 -1.326856,0.077 -1.990577,0.11019 -0.696383,0.0355 -1.392682,0.0731 -2.089444,0.10054 -0.719214,0.028 -1.438526,0.0533 -2.157857,0.0781 -0.741656,0.0261 -1.483367,0.0508 -2.224942,0.0792 -0.770638,0.0298 -1.541213,0.0613 -2.311632,0.0964 -0.795952,0.0363 -1.591845,0.0739 -2.387809,0.1099 -0.765678,0.0347 -1.531398,0.0686 -2.296875,0.10755 -0.732237,0.0383 -1.464336,0.0794 -2.196023,0.12718 -0.725257,0.047 -1.450446,0.0951 -2.175774,0.141 -0.707086,0.0438 -1.414326,0.0848 -2.121731,0.12309 -0.653741,0.0371 -1.307437,0.0752 -1.960747,0.11936 -0.626301,0.0422 -1.252592,0.0849 -1.879528,0.11674 -0.533367,0.0277 -1.066814,0.054 -1.599943,0.086 -0.501979,0.0299 -1.003803,0.0631 -1.506166,0.0861 -0.484526,0.0196 -0.969325,0.0352 -1.454332,0.0312 -0.452448,-0.004 -0.90504,-0.0137 -1.356619,-0.0438 -0.544107,-0.0394 -1.088833,-0.094 -1.619429,-0.2268 -0.692996,-0.18806 -1.364251,-0.4453 -1.951501,-0.8686 -0.595142,-0.45106 -1.128428,-0.96988 -1.498809,-1.62669 -0.330166,-0.60484 -0.590376,-1.24198 -0.687424,-1.92939 -0.07028,-0.53395 -0.1021,-1.07047 -0.06551,-1.60886 0.01698,-0.41005 0.03396,-0.82009 0.05095,-1.23014 0.02128,-0.51378 0.04255,-1.02756 0.06398,-1.54133 0.02594,-0.61895 0.05221,-1.23789 0.08053,-1.85674 0.03028,-0.66299 0.06255,-1.32589 0.08858,-1.98906 0.02402,-0.64429 0.04106,-1.28882 0.05007,-1.93351 0.0068,-0.62797 0.0078,-1.25599 -0.0014,-1.88396 -0.0079,-0.63959 -0.01617,-1.27918 -0.02617,-1.91874 -0.0097,-0.60495 -0.01894,-1.20993 -0.03625,-1.81472 -0.0185,-0.5528 -0.0454,-1.10524 -0.07927,-1.65732 -0.03207,-0.52895 -0.06682,-1.05775 -0.107093,-1.58615 -0.03879,-0.52308 -0.07497,-1.04634 -0.10335,-1.57011 -0.02483,-0.43527 -0.04845,-0.87064 -0.080232,-1.30547 -0.025334,-0.33638 -0.052526,-0.67269 -0.090259,-1.00794 -0.028641,-0.24763 -0.05971,-0.49504 -0.1018212,-0.74081 -0.037615,-0.21825 -0.076983,-0.43621 -0.1219477,-0.65308 -0.044943,-0.22135 -0.0897,-0.44277 -0.12998,-0.66503 -0.033171,-0.18641 -0.066417,-0.37287 -0.094758,-0.56009 -0.028329,-0.20738 -0.052524,-0.41546 -0.060193,-0.62479 -0.2109171,-4.85973 6.6617799,-5.15801 6.8726969,-0.29828 z"
       id="path943"
       style="opacity:1;fill:#020900;fill-opacity:1;stroke:none;stroke-width:1;stroke-linecap:butt;stroke-linejoin:round;stroke-miterlimit:4;stroke-dasharray:none;stroke-opacity:1" />
    <path
       d="m 52.209234,273.87853 c -0.007,0.007 -0.08504,0.10959 -0.03897,0.0492 0.04312,-0.052 0.135525,-0.19992 0.150767,-0.22396 -0.02711,0.0523 -0.05581,0.10408 -0.08439,0.1557 -0.01635,0.0317 -0.03312,0.0633 -0.04977,0.0949 -0.02727,0.0514 -0.05501,0.10251 -0.08281,0.15361 0.0047,-0.01 -0.01805,0.0394 -0.01339,0.0296 0.0037,-0.008 0.0072,-0.0154 0.01082,-0.0232 0.02215,-0.0487 0.04175,-0.0986 0.05909,-0.14928 0.0083,-0.0245 0.01519,-0.0498 0.02233,-0.0745 0.0046,-0.0131 0.01352,-0.073 0.01725,-0.0982 0.01006,-0.0837 0.01101,-0.16823 0.0085,-0.25243 0.0047,-0.007 -0.01553,-0.1294 -0.0013,-0.0638 -0.0081,-0.0667 -0.03551,-0.13021 -0.05662,-0.19335 -0.147527,-0.42031 -0.416901,-0.76777 -0.731626,-1.076 -0.225488,-0.20408 -0.482828,-0.36831 -0.763916,-0.48336 -0.0831,-0.0332 -0.169653,-0.0563 -0.257227,-0.0739 -0.141444,-0.0263 -0.285719,-0.0282 -0.428991,-0.0227 -0.12691,0.006 -0.251634,0.0299 -0.375226,0.0579 -0.05201,0.0144 -0.102685,0.0339 -0.152165,0.0554 -0.02537,0.0111 -0.04958,0.0242 -0.07358,0.0379 -0.0789,0.0508 -0.149178,0.11347 -0.216768,0.17822 -0.0699,0.0795 0.01794,-0.0287 -0.02085,0.0172 -0.03256,0.039 -0.05945,0.0822 -0.08629,0.12526 -0.03461,0.058 -0.06107,0.12022 -0.08582,0.18292 -0.04423,0.11279 -0.06931,0.23139 -0.09111,0.35016 -0.0196,0.11708 -0.02869,0.23562 -0.02748,0.35425 0.0061,0.2301 0.04956,0.45721 0.115713,0.67718 0.01122,0.0421 0.02831,0.0756 0.05078,0.12736 0.02008,0.044 0.04222,0.0888 0.06319,0.12661 0.068,0.11539 0.148386,0.22269 0.234936,0.32468 0.083,0.0978 0.179189,0.18272 0.277122,0.26508 0.09346,0.0759 0.192469,0.1448 0.296318,0.20569 0.03032,0.0167 0.01537,0.009 -0.01125,-0.004 -0.03437,-0.0166 -0.06666,-0.0302 -0.0021,-0.002 0.08694,0.0384 0.177081,0.0684 0.268187,0.0951 0.355796,0.10489 0.725345,0.11404 1.092264,0.0872 0.349305,-0.0352 0.684059,-0.14219 0.998614,-0.29497 0.07015,-0.0373 0.0618,-0.033 0.003,0.002 -0.0556,0.0335 -0.111586,0.0663 -0.167635,0.099 0.02653,-0.016 -0.106915,0.0627 -0.08033,0.0468 0.173498,-0.10393 -0.02635,0.0237 0.369583,-0.25128 0.186449,-0.18543 0.372896,-0.37086 0.559342,-0.55629 -3.021673,3.81195 -8.412583,-0.46135 -5.390909,-4.27329 v 0 c 0.190606,-0.19068 0.381212,-0.38136 0.571818,-0.57203 0.165595,-0.11614 0.325884,-0.23802 0.503102,-0.33531 0.0368,-0.0215 0.07361,-0.0429 0.110043,-0.065 0.11389,-0.0679 0.228108,-0.13546 0.345787,-0.19672 0.440298,-0.22003 0.905491,-0.38565 1.39801,-0.43785 0.499616,-0.0417 1.001663,-0.0317 1.487385,0.10821 0.208867,0.0586 0.415848,0.12438 0.615344,0.21026 0.106008,0.0457 0.211328,0.0929 0.315097,0.14354 0.11752,0.057 0.23436,0.11539 0.34869,0.17857 0.23006,0.12881 0.454109,0.2689 0.660058,0.43424 0.206563,0.16991 0.405839,0.34874 0.581885,0.55078 0.181869,0.20887 0.352917,0.42745 0.495303,0.66562 0.105349,0.17501 0.206197,0.35295 0.292343,0.53835 0.09121,0.20222 0.176305,0.4071 0.245129,0.61818 0.126172,0.39568 0.215244,0.8028 0.227353,1.2195 0.009,0.31431 0.0035,0.62947 -0.04517,0.94089 -0.05325,0.31978 -0.123248,0.63671 -0.235262,0.94171 -0.100685,0.27319 -0.213765,0.54188 -0.354891,0.79702 -0.141124,0.2543 -0.293476,0.5025 -0.470646,0.73361 -0.159758,0.20753 -0.325964,0.41025 -0.507643,0.59918 -0.25073,0.25401 -0.515591,0.4941 -0.811025,0.69582 -0.239908,0.16448 -0.486325,0.31972 -0.746524,0.4505 -0.287343,0.14267 -0.581158,0.27293 -0.888355,0.36734 -0.376748,0.11585 -0.76115,0.20903 -1.155605,0.23756 -0.398406,0.0251 -0.798464,0.024 -1.193209,-0.0442 -0.343596,-0.0587 -0.684459,-0.13506 -1.011902,-0.25688 -0.518044,-0.19752 -1.012267,-0.45092 -1.429597,-0.82278 -0.492768,-0.46566 -0.908439,-0.99531 -1.144942,-1.6385 -0.105841,-0.29764 -0.200678,-0.59887 -0.259593,-0.90986 -0.05127,-0.26424 -0.09511,-0.53019 -0.113588,-0.79903 -0.01852,-0.29902 -0.02307,-0.59909 0.0084,-0.89755 0.02259,-0.21989 0.05246,-0.43909 0.09956,-0.65522 0.0405,-0.18723 0.08523,-0.37366 0.143237,-0.55635 0.06138,-0.1923 0.128268,-0.38297 0.210527,-0.56749 0.05673,-0.12666 0.115398,-0.25245 0.178885,-0.37591 0.0379,-0.0731 0.07659,-0.1457 0.116255,-0.21781 0.03895,-0.0737 0.07726,-0.14767 0.117716,-0.22052 0.02722,-0.0489 0.05269,-0.0987 0.0799,-0.14761 0.101938,-0.18391 0.209788,-0.36488 0.335417,-0.53385 0.05747,-0.077 0.115705,-0.15336 0.175771,-0.22833 3.015591,-3.81677 8.413311,0.44792 5.397719,4.26468 z"
       id="path945"
       style="opacity:1;fill:#020900;fill-opacity:1;stroke:none;stroke-width:1;stroke-linecap:butt;stroke-linejoin:round;stroke-miterlimit:4;stroke-dasharray:none;stroke-opacity:1" />
  </g>
</svg>
