<svg viewBox="0 0 100 100"><path style="opacity:1;fill:#020900;fill-opacity:1;stroke:none;stroke-width:1;stroke-linecap:butt;stroke-linejoin:round;stroke-miterlimit:4;stroke-dasharray:none;stroke-opacity:1" d="M17.927 213.154c.108.112.2.238.307.35q.176.181.363.352c.191.167.397.317.598.473.43.332.838.692 1.242 1.056q.555.518 1.128 1.016c.41.356.83.698 1.255 1.035.534.42 1.073.833 1.61 1.25q.89.689 1.788 1.364c.616.465 1.247.91 1.88 1.352.655.452 1.32.89 1.984 1.328.672.449 1.347.892 2.022 1.337q.954.63 1.9 1.271.806.55 1.613 1.097c.503.34.997.694 1.488 1.05.44.318.877.64 1.318.957q.672.479 1.348.956.705.495 1.413.983c.48.332.96.662 1.436.998q.665.469 1.32.95c.46.336.898.699 1.324 1.075.334.299.66.606.988.913q.382.358.76.718l.607.576q.271.256.536.52l.391.387c.105.103.06.046-.081-.071a3.2 3.2 0 0 0-.564-.356 2.56 2.56 0 0 0-1.244-.232c-.133-.004-.396.099-.13-.024q.432-.195.847-.43c.274-.157.516-.364.757-.568.401-.341.793-.694 1.183-1.049q.637-.583 1.272-1.17c.468-.427.93-.862 1.4-1.288.55-.492 1.124-.955 1.693-1.423q.8-.655 1.584-1.33c.522-.455 1.038-.917 1.56-1.373a167 167 0 0 1 3.333-2.84q.864-.721 1.738-1.43.8-.65 1.591-1.311c.515-.427 1.017-.869 1.522-1.307.531-.46 1.066-.915 1.595-1.376q.747-.648 1.478-1.316c.462-.424.908-.867 1.35-1.313q.683-.697 1.349-1.41.664-.72 1.33-1.436.565-.608 1.134-1.211.483-.514.972-1.022.382-.401.762-.805.32-.342.644-.68l.507-.533.404-.424q.192-.203.389-.403c.34-.31.138-.14.617-.498 4.057-2.683 7.852 3.055 3.795 5.738.356-.275.216-.15.434-.357.05-.056-.254.266-.255.266l-.404.424-.505.53q-.31.326-.619.654-.403.428-.81.855-.465.483-.924.972-.553.587-1.102 1.177l-1.343 1.449a80 80 0 0 1-1.485 1.55 47 47 0 0 1-1.596 1.552q-.794.726-1.605 1.43c-.531.463-1.067.92-1.601 1.38-.54.47-1.079.943-1.63 1.4q-.822.686-1.653 1.362-.842.683-1.677 1.379-.826.688-1.647 1.384-.783.668-1.558 1.346c-.534.468-1.063.942-1.6 1.408q-.841.725-1.7 1.429c-.487.4-.978.795-1.45 1.213-.455.412-.901.833-1.355 1.247q-.651.602-1.306 1.2c-.458.417-.918.83-1.39 1.23-.574.48-1.167.94-1.823 1.304-.463.257-.934.5-1.418.714-.59.258-1.195.485-1.839.564-.813.073-1.618.024-2.375-.317-.511-.253-.999-.546-1.393-.967l-.384-.38q-.215-.215-.436-.423l-.603-.573-.739-.698q-.414-.391-.837-.775a11 11 0 0 0-.846-.689q-.598-.439-1.203-.867c-.46-.324-.924-.642-1.387-.962q-.74-.51-1.475-1.027-.7-.494-1.398-.991-.664-.481-1.326-.964a49 49 0 0 0-1.321-.933l-1.601-1.087q-.912-.618-1.83-1.226-1.018-.668-2.031-1.342c-.711-.47-1.424-.94-2.125-1.424a69 69 0 0 1-2.085-1.5q-.938-.707-1.868-1.425c-.556-.432-1.114-.861-1.667-1.296a43 43 0 0 1-2.714-2.331 15 15 0 0 0-.842-.722c-.358-.276-.72-.548-1.051-.855a16 16 0 0 1-.723-.71c-.004-.003-.488-.538-.313-.355-3.32-3.555 1.708-8.25 5.028-4.696m-.503 67.147c.134-.17.284-.325.437-.477q.154-.151.307-.304.178-.18.346-.37.238-.278.47-.563l.638-.777c.299-.366.616-.716.936-1.064.345-.374.696-.74 1.045-1.11q.576-.612 1.153-1.222c.4-.424.787-.859 1.174-1.293.457-.514.904-1.035 1.35-1.558a79 79 0 0 0 1.51-1.84c.499-.626.993-1.254 1.492-1.88q.683-.855 1.378-1.703.647-.786 1.301-1.567c.384-.457.772-.91 1.152-1.37.338-.413.67-.833 1.004-1.251l.913-1.147c.284-.358.58-.708.87-1.06q.369-.442.739-.88l.583-.7q.28-.342.57-.677.226-.262.455-.523.198-.228.402-.453.203-.225.417-.443.238-.24.493-.462c.2-.174.411-.332.626-.485q.217-.15.435-.297l.436-.294.345-.234q.143-.097.283-.199l.3-.22q.204-.146.414-.282c.166-.107.34-.202.515-.295a10 10 0 0 1 .4-.198q.132-.062.267-.122l.193-.088q.21-.093.426-.17c.238-.088.484-.147.732-.196.298-.06.6-.084.904-.094.351-.007.7.029 1.048.08q.413.07.823.152c.416.08.826.191 1.233.308.432.128.86.267 1.29.405a27 27 0 0 1 1.648.598c.684.27 1.343.595 1.988.948.603.343 1.19.716 1.777 1.085.645.397 1.272.82 1.89 1.257.68.492 1.35.999 2.018 1.506a178 178 0 0 1 2.137 1.655q1.06.84 2.118 1.686c.673.535 1.34 1.079 2.008 1.62q.902.731 1.811 1.454c.544.433 1.093.861 1.638 1.292a58 58 0 0 1 1.643 1.354q.802.683 1.601 1.37.852.725 1.698 1.458.841.73 1.69 1.452.79.67 1.583 1.337c.474.396.943.797 1.415 1.195.387.328.783.644 1.182.957q.552.432 1.115.851c.367.272.74.534 1.11.803.374.274.742.554 1.113.831l.929.69.804.6q.337.248.678.495a72 72 0 0 1 1.056.779l.367.277.285.216c.364.258-.305-.182-.34-.196-.292-.124-.6-.204-.901-.305 4.788.856 3.576 7.628-1.212 6.771-.612-.2-1.206-.353-1.697-.784l-.285-.215-.35-.265q-.21-.158-.426-.316-.27-.2-.543-.398-.362-.262-.722-.528-.408-.302-.814-.608-.475-.35-.946-.702-.52-.391-1.044-.78c-.392-.286-.79-.564-1.18-.854a67 67 0 0 1-1.244-.95 47 47 0 0 1-1.372-1.112c-.47-.396-.936-.795-1.407-1.19q-.808-.677-1.613-1.36-.87-.74-1.73-1.488-.834-.721-1.673-1.436-.787-.675-1.578-1.35c-.478-.406-.96-.81-1.453-1.2q-.833-.652-1.662-1.309-.931-.74-1.856-1.49c-.654-.53-1.307-1.063-1.966-1.588q-1.04-.829-2.082-1.656-1.016-.8-2.044-1.583c-.61-.463-1.22-.926-1.84-1.375a29 29 0 0 0-1.566-1.042c-.476-.299-.95-.6-1.436-.884a10 10 0 0 0-1.203-.578 20 20 0 0 0-1.237-.45q-.532-.174-1.067-.338a8 8 0 0 0-.652-.168l-.553-.105h.126c.086-.006.184-.01.262-.028q.149-.033.292-.085c.04-.015.043-.016.08-.033l-.18.083q-.089.038-.176.08l-.109.052c-.061.033-.086.047-.013 0l-.112.078q-.152.11-.304.223a23 23 0 0 1-.83.572l-.386.26-.328.223c-.012.008-.123.091-.062.04a3 3 0 0 0-.348.352q-.165.18-.323.364l-.426.489q-.24.279-.474.564-.306.369-.614.736-.359.426-.715.854c-.264.318-.53.634-.788.957l-.908 1.141q-.538.68-1.085 1.352c-.39.471-.787.936-1.18 1.404q-.633.755-1.259 1.515-.665.81-1.318 1.63c-.502.629-.999 1.26-1.5 1.889a86 86 0 0 1-1.647 2.007q-.717.842-1.449 1.67c-.429.48-.858.961-1.3 1.43-.385.41-.772.816-1.156 1.226-.328.348-.659.692-.983 1.043-.236.257-.472.514-.693.784l-.63.767c-.216.264-.432.528-.658.783q-.299.335-.614.653l-.357.355c.029-.032.183-.212.093-.104-3.066 3.776-8.407-.56-5.34-4.336z" transform="translate(0 -197)"/></svg>
