<?xml version="1.0" encoding="UTF-8" standalone="no"?>
<!-- Created with Inkscape (http://www.inkscape.org/) -->

<svg
   xmlns:dc="http://purl.org/dc/elements/1.1/"
   xmlns:cc="http://creativecommons.org/ns#"
   xmlns:rdf="http://www.w3.org/1999/02/22-rdf-syntax-ns#"
   xmlns:svg="http://www.w3.org/2000/svg"
   xmlns="http://www.w3.org/2000/svg"
   xmlns:sodipodi="http://sodipodi.sourceforge.net/DTD/sodipodi-0.dtd"
   xmlns:inkscape="http://www.inkscape.org/namespaces/inkscape"
   width="10cm"
   height="10cm"
   viewBox="0 0 100 99.999997"
   version="1.1"
   id="svg8"
   sodipodi:docname="ante.svg"
   inkscape:version="0.92.3 (2405546, 2018-03-11)">
  <defs
     id="defs2" />
  <sodipodi:namedview
     id="base"
     pagecolor="#ffffff"
     bordercolor="#666666"
     borderopacity="1.0"
     inkscape:pageopacity="0.0"
     inkscape:pageshadow="2"
     inkscape:zoom="1"
     inkscape:cx="175.50186"
     inkscape:cy="160.37856"
     inkscape:document-units="cm"
     inkscape:current-layer="layer1"
     showgrid="true"
     units="cm"
     inkscape:window-width="882"
     inkscape:window-height="707"
     inkscape:window-x="784"
     inkscape:window-y="204"
     inkscape:window-maximized="1"
     inkscape:snap-nodes="false">
    <inkscape:grid
       type="xygrid"
       id="grid815"
       units="cm"
       spacingx="9.9999998"
       spacingy="9.9999998" />
  </sodipodi:namedview>
  <metadata
     id="metadata5">
    <rdf:RDF>
      <cc:Work
         rdf:about="">
        <dc:format>image/svg+xml</dc:format>
        <dc:type
           rdf:resource="http://purl.org/dc/dcmitype/StillImage" />
        <dc:title></dc:title>
      </cc:Work>
    </rdf:RDF>
  </metadata>
  <g
     inkscape:label="Layer 1"
     inkscape:groupmode="layer"
     id="layer1"
     transform="translate(0,-197.00002)">
    <path
       style="opacity:1;fill:#020900;fill-opacity:1;stroke:none;stroke-width:1;stroke-linecap:butt;stroke-linejoin:round;stroke-miterlimit:4;stroke-dasharray:none;stroke-opacity:1"
       id="path56"
       d="m 17.926835,213.15433 c 0.107826,0.11214 0.1999,0.23794 0.307084,0.35045 0.118457,0.11972 0.238208,0.2382 0.362849,0.3515 0.19157,0.16686 0.396926,0.31721 0.597798,0.47255 0.430506,0.33254 0.838642,0.69252 1.242436,1.05662 0.370889,0.34429 0.746352,0.6834 1.128106,1.01559 0.409024,0.35603 0.829991,0.69793 1.254724,1.03494 0.534421,0.41918 1.072862,0.8332 1.609274,1.24982 0.592701,0.45954 1.190118,0.91297 1.788968,1.36445 0.616088,0.46495 1.246495,0.91033 1.879508,1.3518 0.655264,0.45179 1.320226,0.88928 1.98407,1.3283 0.672248,0.44824 1.347386,0.89212 2.021954,1.33685 0.635979,0.41979 1.268907,0.84417 1.900007,1.27126 0.537382,0.36634 1.075989,0.73088 1.61376,1.09665 0.502981,0.33979 0.996278,0.69345 1.487827,1.04947 0.439578,0.31857 0.877149,0.63989 1.317344,0.9576 0.448249,0.3202 0.898832,0.63712 1.348338,0.95555 0.469241,0.33048 0.941197,0.65711 1.413121,0.98375 0.479703,0.33108 0.959988,0.66129 1.436365,0.99715 0.44301,0.31298 0.883573,0.62939 1.320289,0.95109 0.459356,0.33506 0.896929,0.69796 1.323189,1.07381 0.334195,0.29915 0.661006,0.60638 0.987928,0.91341 0.254307,0.23877 0.507841,0.47835 0.761047,0.71828 0.202197,0.19151 0.403707,0.38375 0.605761,0.57541 0.181647,0.17027 0.35896,0.34505 0.536086,0.52 0.130529,0.12908 0.260921,0.25829 0.391329,0.3875 0.105294,0.1032 0.06095,0.0458 -0.08099,-0.0714 -0.175651,-0.1451 -0.362899,-0.25046 -0.564001,-0.35617 -0.392684,-0.1872 -0.814068,-0.25343 -1.24437,-0.2319 -0.133072,-0.004 -0.395893,0.099 -0.130289,-0.0237 0.289005,-0.13003 0.571405,-0.27338 0.84723,-0.42927 0.274918,-0.15809 0.51634,-0.36471 0.757561,-0.56864 0.401251,-0.34152 0.79276,-0.69422 1.182523,-1.04872 0.425683,-0.3881 0.848498,-0.77933 1.27204,-1.16977 0.467984,-0.42805 0.930288,-0.86224 1.400246,-1.28814 0.549188,-0.49242 1.124064,-0.95496 1.693289,-1.42375 0.533416,-0.43662 1.061238,-0.87996 1.583333,-1.33005 0.522414,-0.45474 1.038624,-0.91653 1.559745,-1.37275 0.537882,-0.47115 1.079381,-0.93814 1.623285,-1.40232 0.566761,-0.48328 1.138092,-0.96114 1.71042,-1.43779 0.576006,-0.48073 1.156176,-0.95642 1.738196,-1.42984 0.534096,-0.43248 1.062881,-0.87142 1.590955,-1.31122 0.514713,-0.42685 1.016905,-0.86839 1.521675,-1.30685 0.531399,-0.45908 1.065958,-0.91447 1.595583,-1.3756 0.497445,-0.43317 0.990943,-0.87084 1.477457,-1.31626 0.462552,-0.42439 0.907986,-0.8668 1.349174,-1.3132 0.456893,-0.46346 0.90525,-0.93516 1.349523,-1.4107 0.443193,-0.47826 0.885872,-0.95699 1.32969,-1.43467 0.37715,-0.40504 0.755515,-0.80896 1.135054,-1.21176 0.32163,-0.34252 0.645811,-0.68259 0.97137,-1.02137 0.255493,-0.26689 0.508503,-0.53615 0.761807,-0.80511 0.213567,-0.2278 0.428736,-0.45409 0.644036,-0.68025 0.169177,-0.17765 0.338418,-0.35523 0.50765,-0.53282 0.134589,-0.14124 0.26918,-0.28247 0.40377,-0.4237 0.128429,-0.13564 0.257363,-0.27071 0.388869,-0.40336 0.339331,-0.31041 0.138062,-0.13931 0.61681,-0.49759 4.057108,-2.68354 7.852196,3.05408 3.795088,5.73761 v 0 c 0.356045,-0.2753 0.216363,-0.15038 0.433975,-0.35736 0.05057,-0.0554 -0.253632,0.26631 -0.254714,0.26646 -0.134573,0.14121 -0.269143,0.28243 -0.403712,0.42364 -0.168437,0.17676 -0.336881,0.3535 -0.505264,0.53031 -0.206796,0.21723 -0.413491,0.43455 -0.618594,0.65338 -0.269181,0.28583 -0.538083,0.57192 -0.809688,0.85544 -0.309957,0.32252 -0.618612,0.64627 -0.924769,0.9724 -0.368517,0.39107 -0.735836,0.78326 -1.10204,1.17648 -0.448284,0.48249 -0.895353,0.9661 -1.34311,1.44907 -0.488651,0.52282 -0.981778,1.04143 -1.484333,1.55094 -0.522026,0.52764 -1.049539,1.05009 -1.596951,1.55155 -0.528603,0.48337 -1.063911,0.95931 -1.604304,1.42947 -0.531566,0.46267 -1.06767,0.92005 -1.601184,1.38046 -0.540734,0.46969 -1.079042,0.94228 -1.630508,1.39942 -0.548513,0.45682 -1.097844,0.91265 -1.652561,1.36193 -0.561412,0.45662 -1.121034,0.91544 -1.676614,1.37915 -0.551183,0.45903 -1.101453,0.91918 -1.647288,1.38456 -0.522015,0.44543 -1.041641,0.89364 -1.557851,1.34578 -0.534572,0.46784 -1.063638,0.94193 -1.600007,1.40772 -0.56107,0.4833 -1.127744,0.96001 -1.700826,1.42903 -0.486254,0.40044 -0.97785,0.79492 -1.449224,1.21297 -0.455184,0.41169 -0.901501,0.83303 -1.354889,1.2467 -0.434996,0.40098 -0.869246,0.80279 -1.306501,1.20131 -0.457706,0.41613 -0.917814,0.82976 -1.389769,1.22974 -0.574355,0.47956 -1.167006,0.93981 -1.823387,1.30362 -0.462735,0.25694 -0.933291,0.49929 -1.417338,0.71396 -0.589693,0.2577 -1.195716,0.48526 -1.839016,0.56405 -0.813099,0.0732 -1.61848,0.024 -2.374881,-0.31681 -0.511543,-0.25344 -0.999086,-0.54671 -1.393053,-0.96749 -0.127931,-0.12676 -0.255849,-0.25352 -0.3839,-0.38015 -0.144134,-0.14238 -0.288118,-0.28494 -0.436168,-0.42328 -0.201173,-0.19083 -0.401815,-0.38222 -0.603126,-0.57291 -0.245771,-0.23289 -0.491857,-0.46545 -0.738703,-0.6972 -0.27732,-0.26045 -0.554363,-0.52126 -0.837065,-0.77588 -0.271748,-0.24186 -0.551976,-0.47395 -0.846164,-0.68825 -0.39792,-0.29349 -0.799886,-0.58143 -1.203563,-0.86693 -0.459796,-0.32439 -0.923824,-0.64266 -1.386779,-0.96251 -0.492448,-0.34086 -0.984917,-0.68172 -1.474475,-1.02672 -0.466196,-0.33025 -0.933572,-0.65885 -1.398247,-0.99123 -0.443124,-0.31993 -0.883811,-0.6432 -1.326268,-0.96405 -0.436616,-0.31627 -0.874409,-0.63097 -1.321338,-0.93261 -0.533349,-0.36276 -1.067535,-0.72429 -1.600485,-1.08764 -0.60814,-0.41158 -1.218063,-0.82053 -1.830898,-1.2251 -0.677299,-0.44653 -1.35517,-0.8922 -2.03014,-1.34225 -0.711261,-0.47038 -1.423581,-0.93933 -2.125147,-1.42413 -0.702397,-0.49007 -1.401592,-0.98492 -2.085222,-1.50102 -0.625056,-0.47131 -1.248635,-0.94461 -1.867251,-1.42436 -0.555956,-0.43181 -1.114143,-0.86076 -1.667673,-1.29568 -0.505865,-0.40202 -1.007277,-0.8098 -1.494484,-1.23438 -0.412244,-0.35927 -0.819288,-0.72431 -1.219677,-1.09677 -0.274172,-0.24784 -0.549881,-0.49466 -0.841775,-0.72167 -0.357334,-0.27645 -0.719145,-0.54834 -1.051149,-0.85557 -0.247597,-0.22946 -0.49057,-0.46402 -0.723029,-0.70892 -0.004,-0.004 -0.487681,-0.53851 -0.312293,-0.35601 -3.3201549,-3.555 1.707376,-8.25041 5.027531,-4.69541 z"
       inkscape:connector-curvature="0" />
    <path
       style="opacity:1;fill:#020900;fill-opacity:1;stroke:none;stroke-width:1;stroke-linecap:butt;stroke-linejoin:round;stroke-miterlimit:4;stroke-dasharray:none;stroke-opacity:1"
       id="path58"
       d="m 17.424304,280.30122 c 0.133332,-0.16983 0.283261,-0.3252 0.436512,-0.47687 0.10295,-0.10089 0.204848,-0.20285 0.306817,-0.30474 0.119476,-0.11957 0.233781,-0.24401 0.346084,-0.3703 0.160937,-0.18376 0.314718,-0.37357 0.469662,-0.56236 0.213469,-0.25836 0.425136,-0.5182 0.638197,-0.7769 0.299043,-0.36617 0.6168,-0.71629 0.936466,-1.06438 0.344539,-0.37327 0.696224,-0.73984 1.044788,-1.10934 0.382778,-0.40899 0.769149,-0.8146 1.15322,-1.22238 0.399246,-0.42392 0.786651,-0.85879 1.174288,-1.29329 0.456198,-0.51369 0.903756,-1.03496 1.34985,-1.55742 0.514537,-0.6042 1.014324,-1.22068 1.510339,-1.84011 0.497983,-0.62598 0.992907,-1.25438 1.491919,-1.87955 0.454784,-0.57142 0.91449,-1.13887 1.377839,-1.70335 0.431194,-0.52443 0.864878,-1.0468 1.300752,-1.56734 0.383572,-0.45662 0.771856,-0.90922 1.151586,-1.36905 0.338754,-0.41418 0.671253,-0.83344 1.004306,-1.2522 0.305302,-0.38134 0.608443,-0.76439 0.912886,-1.14641 0.284462,-0.35813 0.579274,-0.70781 0.871101,-1.05991 0.244298,-0.29501 0.491636,-0.58748 0.73759,-0.88111 0.194855,-0.23293 0.390429,-0.46525 0.583792,-0.69942 0.186677,-0.22804 0.376465,-0.45346 0.568854,-0.67669 0.151395,-0.17469 0.303636,-0.34865 0.455787,-0.52268 0.132337,-0.15251 0.266383,-0.30349 0.401879,-0.4532 0.135527,-0.15106 0.2751,-0.29839 0.416912,-0.44354 0.157847,-0.16091 0.324268,-0.31307 0.493244,-0.46214 0.199197,-0.17352 0.41103,-0.33152 0.626065,-0.48465 0.143975,-0.10068 0.289846,-0.1986 0.435115,-0.29738 0.145365,-0.0979 0.29024,-0.19656 0.435994,-0.2939 0.115223,-0.0771 0.229952,-0.15504 0.344474,-0.23322 0.09511,-0.0655 0.189841,-0.13168 0.283443,-0.19936 0.09998,-0.0737 0.199922,-0.14743 0.300667,-0.22008 0.135199,-0.0977 0.273346,-0.19117 0.413157,-0.28212 0.166341,-0.10705 0.340098,-0.20173 0.514676,-0.29446 0.131545,-0.0695 0.265337,-0.1346 0.399836,-0.19814 0.08862,-0.0418 0.17808,-0.0818 0.267469,-0.12197 0.06448,-0.0295 0.128876,-0.0592 0.193482,-0.0884 0.139335,-0.0633 0.282123,-0.1183 0.425781,-0.17081 0.237871,-0.0868 0.48424,-0.14568 0.732266,-0.19457 0.297876,-0.0605 0.60044,-0.0844 0.903711,-0.0945 0.351279,-0.007 0.700712,0.0289 1.047684,0.08 0.275153,0.0463 0.549304,0.0985 0.823179,0.15181 0.416333,0.0808 0.825823,0.19164 1.233319,0.30816 0.431747,0.12824 0.860427,0.26664 1.288899,0.40536 0.556649,0.17884 1.10459,0.38286 1.648354,0.5973 0.684466,0.26946 1.343469,0.59569 1.988389,0.94813 0.603406,0.34333 1.189431,0.71597 1.77732,1.08492 0.644247,0.39742 1.271836,0.82031 1.889386,1.25779 0.68085,0.49109 1.349865,0.99832 2.018496,1.50583 0.716513,0.54577 1.428321,1.09762 2.136439,1.65423 0.707401,0.56053 1.412864,1.12351 2.118574,1.68617 0.672833,0.53571 1.339594,1.07896 2.007918,1.62027 0.601117,0.48809 1.205397,0.97225 1.811176,1.45454 0.54401,0.43297 1.092306,0.8605 1.638102,1.2912 0.55758,0.43902 1.101529,0.89483 1.642652,1.35385 0.534617,0.45575 1.067837,0.91314 1.601449,1.37007 0.568042,0.4838 1.133644,0.97044 1.697987,1.45855 0.561041,0.48638 1.123879,0.97067 1.689338,1.4519 0.525865,0.44784 1.055074,0.89172 1.583545,1.33647 0.473437,0.39628 0.942924,0.79725 1.414756,1.19544 0.386847,0.3278 0.78337,0.64388 1.182277,0.95681 0.36785,0.28843 0.739857,0.57149 1.114378,0.85119 0.367109,0.27176 0.740878,0.53432 1.110265,0.80295 0.373568,0.2738 0.742395,0.55398 1.113444,0.83117 0.308718,0.23076 0.618794,0.45969 0.928285,0.68941 0.268542,0.19965 0.535181,0.40184 0.80427,0.60075 0.224996,0.1662 0.451408,0.33047 0.67764,0.49498 0.195464,0.14129 0.389607,0.28437 0.583634,0.42761 0.157887,0.11647 0.31574,0.23298 0.472612,0.35081 0.122348,0.0922 0.244493,0.18456 0.366659,0.27694 0.09522,0.072 0.190442,0.14403 0.285663,0.21605 0.36368,0.25857 -0.305456,-0.18146 -0.339968,-0.1961 -0.292079,-0.12391 -0.601089,-0.20333 -0.901634,-0.305 4.788281,0.85664 3.576815,7.62829 -1.211466,6.77166 v 0 c -0.612371,-0.20023 -1.206241,-0.35343 -1.696633,-0.78395 -0.09508,-0.0719 -0.190164,-0.14382 -0.285247,-0.21573 -0.116502,-0.0881 -0.232984,-0.17623 -0.349647,-0.26412 -0.141386,-0.10626 -0.283832,-0.2111 -0.426106,-0.31617 -0.180743,-0.13344 -0.361556,-0.26677 -0.543671,-0.39833 -0.241041,-0.17528 -0.482246,-0.35035 -0.72194,-0.52747 -0.272362,-0.20146 -0.542597,-0.40576 -0.814268,-0.60815 -0.315291,-0.23403 -0.63118,-0.46726 -0.945671,-0.70236 -0.347814,-0.25991 -0.693719,-0.52238 -1.043522,-0.77962 -0.392623,-0.28591 -0.790742,-0.56423 -1.18019,-0.8545 -0.41797,-0.31241 -0.833348,-0.62829 -1.24391,-0.95039 -0.463023,-0.36352 -0.923104,-0.7309 -1.372287,-1.11147 -0.469279,-0.39613 -0.936358,-0.79487 -1.407235,-1.18911 -0.538207,-0.45295 -1.077153,-0.90503 -1.612693,-1.36113 -0.579308,-0.49309 -1.156047,-0.98918 -1.730846,-1.48752 -0.555749,-0.48068 -1.112758,-0.9599 -1.672161,-1.43633 -0.525685,-0.45014 -1.050997,-0.90071 -1.577621,-1.34975 -0.478978,-0.40647 -0.960096,-0.81052 -1.453697,-1.19922 -0.553543,-0.43684 -1.109679,-0.87039 -1.66134,-1.30962 -0.62079,-0.49426 -1.240055,-0.99044 -1.856095,-1.49062 -0.65464,-0.53022 -1.307719,-1.0624 -1.966748,-1.58717 -0.693375,-0.55284 -1.386541,-1.10594 -2.081475,-1.65681 -0.677534,-0.53267 -1.358696,-1.06068 -2.04425,-1.583 -0.609838,-0.46294 -1.219938,-0.92571 -1.84005,-1.37485 -0.510968,-0.36331 -1.031555,-0.71254 -1.565444,-1.04146 -0.476327,-0.29896 -0.951164,-0.60067 -1.436703,-0.88456 -0.388919,-0.21664 -0.78839,-0.41335 -1.202283,-0.57821 -0.40808,-0.16208 -0.819769,-0.31515 -1.237813,-0.44979 -0.354796,-0.11495 -0.70983,-0.22937 -1.066763,-0.33754 -0.215662,-0.0622 -0.431792,-0.12398 -0.651984,-0.16837 -0.184052,-0.036 -0.36848,-0.0699 -0.552752,-0.10468 0.03333,8e-4 0.08787,8e-4 0.125963,-0.001 0.08631,-0.005 0.184216,-0.01 0.261618,-0.0269 0.09892,-0.0229 0.197093,-0.0493 0.292282,-0.085 0.04049,-0.0153 0.04278,-0.016 0.08046,-0.0334 -0.06032,0.0274 -0.120457,0.0553 -0.180803,0.0827 -0.05863,0.0265 -0.117536,0.0523 -0.175779,0.0797 -0.03631,0.0172 -0.07267,0.0343 -0.108447,0.0525 -0.06143,0.0328 -0.08679,0.0472 -0.01312,10e-4 -0.03767,0.025 -0.07488,0.0507 -0.111768,0.0768 -0.102129,0.0736 -0.202827,0.14909 -0.304723,0.223 -0.140205,0.1007 -0.281265,0.20022 -0.42373,0.29771 -0.134813,0.092 -0.269886,0.18364 -0.405538,0.27442 -0.129283,0.0861 -0.257439,0.17384 -0.386347,0.26047 -0.10926,0.0742 -0.218723,0.14818 -0.327681,0.22286 -0.01199,0.008 -0.123505,0.0912 -0.06203,0.0394 -0.04065,0.0353 -0.08088,0.0711 -0.119549,0.10847 -0.07857,0.0793 -0.154413,0.1613 -0.22914,0.24424 -0.108907,0.12028 -0.216537,0.24169 -0.322812,0.36432 -0.14209,0.16252 -0.284261,0.32498 -0.425723,0.48806 -0.160642,0.18602 -0.318495,0.37438 -0.474205,0.56456 -0.203501,0.24629 -0.409019,0.4909 -0.614114,0.73587 -0.238429,0.28461 -0.47816,0.56813 -0.715033,0.85405 -0.263655,0.31797 -0.530109,0.63368 -0.787369,0.95689 -0.30303,0.38022 -0.604713,0.7615 -0.908605,1.14103 -0.359696,0.45225 -0.718852,0.90499 -1.085152,1.35193 -0.389556,0.47125 -0.786667,0.9361 -1.180473,1.40378 -0.421542,0.5034 -0.840946,1.00858 -1.257966,1.51574 -0.443466,0.54014 -0.883301,1.08323 -1.318504,1.63005 -0.501356,0.62806 -0.998408,1.25952 -1.498891,1.88827 -0.541231,0.67568 -1.086794,1.34798 -1.648335,2.00696 -0.478528,0.56035 -0.958708,1.11935 -1.448242,1.67014 -0.428948,0.4807 -0.857965,0.9615 -1.29993,1.43033 -0.385313,0.40899 -0.772771,0.81596 -1.156787,1.22617 -0.327658,0.34728 -0.658114,0.69194 -0.982431,1.04236 -0.236067,0.25691 -0.472284,0.51398 -0.692918,0.78445 -0.210479,0.25546 -0.419444,0.51218 -0.63032,0.76732 -0.216201,0.26342 -0.431809,0.52745 -0.658104,0.78235 -0.199558,0.22268 -0.402409,0.4424 -0.614142,0.65363 -0.118612,0.11841 -0.2371,0.23694 -0.356851,0.3542 0.02897,-0.0314 0.183197,-0.2115 0.09295,-0.104 -3.066104,3.77631 -8.406604,-0.55982 -5.3405,-4.33612 z"
       inkscape:connector-curvature="0" />
  </g>
</svg>
