<svg viewBox="0 0 100 100"><path style="opacity:1;fill:#020900;fill-opacity:1;stroke:none;stroke-width:1;stroke-linecap:butt;stroke-linejoin:round;stroke-miterlimit:4;stroke-dasharray:none;stroke-opacity:1" d="M18.319 206.291c.274.081.538.192.797.311.345.164.667.368.988.574q.518.336 1.025.685c.556.38 1.072.814 1.577 1.259.572.51 1.124 1.042 1.67 1.578.651.646 1.29 1.303 1.93 1.96.76.782 1.518 1.567 2.28 2.347.832.856 1.683 1.692 2.538 2.524q1.372 1.326 2.742 2.656a205 205 0 0 1 2.737 2.724c.91.922 1.8 1.864 2.685 2.81.853.918 1.703 1.84 2.556 2.758.81.872 1.627 1.738 2.44 2.607.792.845 1.568 1.704 2.34 2.567q1.002 1.124 2.006 2.247l1.613 1.807 2.312 2.589.818.915q.304.344.614.682.219.236.442.465c.167.116-.268-.2-.416-.29-.625-.345-1.313-.397-2.005-.282a2.6 2.6 0 0 0-.972.44c-.162.144.001-.039.048-.098q.288-.373.566-.754.394-.53.786-1.062c.282-.381.548-.772.81-1.167.312-.479.611-.966.911-1.452q.53-.859 1.07-1.712.574-.905 1.156-1.806l1.215-1.882q.636-.99 1.264-1.986.676-1.065 1.346-2.136c.459-.731.9-1.474 1.333-2.221.454-.788.895-1.584 1.34-2.377q.688-1.23 1.383-2.458.684-1.2 1.358-2.407c.438-.78.863-1.565 1.284-2.353.413-.773.816-1.551 1.22-2.329q.572-1.105 1.154-2.206a332 332 0 0 0 1.762-3.387l.635-1.23.506-.98.403-.782.335-.647c.125-.227.055-.105.211-.365 2.561-4.135 8.41-.513 5.848 3.623q.057-.101.027-.051-.155.297-.308.595l-.403.781-.506.98-.636 1.232-.798 1.544q-.492.947-.99 1.892-.571 1.082-1.133 2.168c-.417.802-.833 1.605-1.259 2.402q-.66 1.241-1.346 2.469-.685 1.224-1.379 2.442-.687 1.215-1.368 2.43c-.461.824-.92 1.65-1.39 2.468a81 81 0 0 1-1.45 2.412q-.68 1.088-1.367 2.171-.641 1.016-1.29 2.027-.608.944-1.218 1.887-.565.874-1.124 1.754-.521.824-1.032 1.653c-.339.548-.676 1.097-1.029 1.635-.324.489-.655.974-1.004 1.446q-.398.54-.8 1.08c-.237.321-.474.643-.722.957-.308.383-.627.76-1.006 1.076-.555.448-1.163.817-1.866.98-1.035.195-1.832.141-2.79-.335-.463-.268-.9-.57-1.267-.964a32 32 0 0 1-1.284-1.39l-.818-.915-1.025-1.148-1.287-1.44-3.613-4.049c-.74-.826-1.483-1.65-2.242-2.458-.818-.875-1.64-1.746-2.454-2.624l-2.54-2.74a137 137 0 0 0-2.554-2.674 198 198 0 0 0-2.645-2.632q-1.367-1.329-2.738-2.652a138 138 0 0 1-2.663-2.649q-1.144-1.174-2.283-2.351c-.604-.62-1.207-1.24-1.82-1.85a43 43 0 0 0-1.406-1.331 10 10 0 0 0-.929-.753q-.417-.287-.842-.563c-.035-.022-.324-.2-.204-.139q.065.029.135.048c-4.653-1.417-2.648-7.998 2.005-6.58" transform="translate(0 -197)"/><path style="opacity:1;fill:#020900;fill-opacity:1;stroke:none;stroke-width:1;stroke-linecap:butt;stroke-linejoin:round;stroke-miterlimit:4;stroke-dasharray:none;stroke-opacity:1" d="m57.155 246.299.013.177c.004.062.02.25.004.062a9 9 0 0 1 .073.725q.017.285.028.569.014.35.021.703l.018.893q.014.533.04 1.064.035.685.074 1.37.046.815.086 1.631.044.91.07 1.82.027 1 .045 2 .019 1.052.042 2.105l.056 2.172c.02.77.034 1.542.056 2.312.024.79.057 1.578.09 2.366q.043 1.132.12 2.262c.049.74.109 1.478.17 2.216q.09 1.033.183 2.066a223 223 0 0 1 .285 3.456q.052.68.101 1.36l.083 1.138.067.993.053.8q.025.368.047.735l.036.603.03.501.023.398.018.318q.02.291.01.583c-.007.202-.03.404-.058.604q-.02.165-.045.329l-.037.238-.029.187-.023.15-.015.098c-.766 4.804-7.56 3.722-6.794-1.082l.01-.067.024-.151.03-.19q.015-.112.034-.225l.027-.2c.02-.15-.004.036 0 .08 0 .06.007.231-.002.04l-.018-.315-.023-.398-.029-.488-.035-.594-.044-.69-.054-.809q-.031-.48-.065-.96l-.082-1.124q-.047-.668-.099-1.337-.06-.787-.123-1.575-.074-.896-.154-1.79-.097-1.055-.187-2.109a143 143 0 0 1-.18-2.333 86 86 0 0 1-.128-2.429c-.035-.82-.07-1.64-.094-2.46-.022-.778-.036-1.555-.056-2.332-.018-.731-.04-1.462-.057-2.193a448 448 0 0 1-.042-2.125q-.017-.965-.043-1.931a84 84 0 0 0-.065-1.689q-.038-.787-.083-1.576-.04-.714-.078-1.43a50 50 0 0 1-.045-1.215l-.018-.911a35 35 0 0 0-.037-.996q-.005-.058-.007-.115-.023-.153-.04-.306a8 8 0 0 1-.024-.276l-.013-.168c-.378-4.85 6.48-5.385 6.859-.535" transform="translate(0 -197)"/></svg>
