<?xml version="1.0" encoding="UTF-8" standalone="no"?>
<!-- Created with Inkscape (http://www.inkscape.org/) -->

<svg
   xmlns:dc="http://purl.org/dc/elements/1.1/"
   xmlns:cc="http://creativecommons.org/ns#"
   xmlns:rdf="http://www.w3.org/1999/02/22-rdf-syntax-ns#"
   xmlns:svg="http://www.w3.org/2000/svg"
   xmlns="http://www.w3.org/2000/svg"
   xmlns:sodipodi="http://sodipodi.sourceforge.net/DTD/sodipodi-0.dtd"
   xmlns:inkscape="http://www.inkscape.org/namespaces/inkscape"
   width="10cm"
   height="10cm"
   viewBox="0 0 100 99.999997"
   version="1.1"
   id="svg8"
   sodipodi:docname="anu.svg"
   inkscape:version="0.92.3 (2405546, 2018-03-11)">
  <defs
     id="defs2" />
  <sodipodi:namedview
     id="base"
     pagecolor="#ffffff"
     bordercolor="#666666"
     borderopacity="1.0"
     inkscape:pageopacity="0.0"
     inkscape:pageshadow="2"
     inkscape:zoom="2"
     inkscape:cx="177.65103"
     inkscape:cy="189.75419"
     inkscape:document-units="cm"
     inkscape:current-layer="layer1"
     showgrid="true"
     units="cm"
     inkscape:window-width="1920"
     inkscape:window-height="1017"
     inkscape:window-x="-8"
     inkscape:window-y="-8"
     inkscape:window-maximized="1">
    <inkscape:grid
       type="xygrid"
       id="grid815"
       units="cm"
       spacingx="9.9999998"
       spacingy="9.9999998" />
  </sodipodi:namedview>
  <metadata
     id="metadata5">
    <rdf:RDF>
      <cc:Work
         rdf:about="">
        <dc:format>image/svg+xml</dc:format>
        <dc:type
           rdf:resource="http://purl.org/dc/dcmitype/StillImage" />
        <dc:title></dc:title>
      </cc:Work>
    </rdf:RDF>
  </metadata>
  <g
     inkscape:label="Layer 1"
     inkscape:groupmode="layer"
     id="layer1"
     transform="translate(0,-197.00002)">
    <path
       style="opacity:1;fill:#020900;fill-opacity:1;stroke:none;stroke-width:1;stroke-linecap:butt;stroke-linejoin:round;stroke-miterlimit:4;stroke-dasharray:none;stroke-opacity:1"
       id="path971"
       d="m 18.318866,206.29105 c 0.274218,0.0813 0.53775,0.19202 0.797232,0.3113 0.34465,0.16367 0.667275,0.36805 0.987724,0.57389 0.344934,0.22347 0.686777,0.45162 1.025354,0.68459 0.556084,0.3803 1.071459,0.81447 1.576585,1.25895 0.572183,0.5098 1.123783,1.04196 1.670887,1.57837 0.650706,0.64557 1.289637,1.30287 1.929386,1.95926 0.759666,0.78306 1.51807,1.56734 2.28012,2.34808 0.831861,0.85501 1.68251,1.69134 2.537368,2.52324 0.914879,0.88482 1.83138,1.76794 2.742755,2.65637 0.92156,0.89853 1.832597,1.80773 2.73708,2.72343 0.910069,0.92234 1.800191,1.86397 2.684913,2.81055 0.853212,0.91831 1.703228,1.83958 2.556033,2.75827 0.809829,0.87208 1.626751,1.73752 2.439231,2.60713 0.792012,0.84483 1.568646,1.7038 2.340973,2.5666 0.667959,0.74933 1.336468,1.49817 2.005073,2.24693 0.537866,0.60231 1.075759,1.2046 1.613649,1.8069 0.428863,0.48021 0.857726,0.96042 1.286589,1.44064 0.341818,0.38274 0.683636,0.76548 1.025454,1.14823 0.272436,0.30505 0.544872,0.61011 0.817308,0.91517 0.203891,0.2284 0.406929,0.45756 0.614635,0.68251 0.14645,0.15575 0.291738,0.3127 0.442249,0.46455 0.166912,0.1159 -0.268772,-0.19959 -0.416277,-0.28977 -0.625504,-0.34523 -1.31331,-0.39733 -2.005164,-0.28233 -0.352594,0.0775 -0.68195,0.2255 -0.971843,0.43936 -0.161793,0.14475 7.93e-4,-0.0382 0.0478,-0.0975 0.192902,-0.24807 0.379129,-0.50125 0.566187,-0.75374 0.26231,-0.35379 0.525137,-0.70718 0.786125,-1.06195 0.281257,-0.38108 0.548026,-0.77243 0.809273,-1.1674 0.312396,-0.47854 0.611386,-0.96563 0.911714,-1.45178 0.352396,-0.57311 0.709848,-1.14307 1.069128,-1.71189 0.382112,-0.60415 0.769591,-1.20487 1.156708,-1.80582 0.40471,-0.62756 0.811237,-1.25393 1.215121,-1.88202 0.424272,-0.6602 0.844097,-1.32324 1.263943,-1.98625 0.450461,-0.71075 0.899504,-1.42239 1.345338,-2.13605 0.45952,-0.7313 0.900091,-1.47417 1.333632,-2.22108 0.45393,-0.78823 0.894985,-1.58377 1.339763,-2.37717 0.458583,-0.82041 0.919667,-1.63941 1.382966,-2.45717 0.45579,-0.80083 0.909069,-1.60308 1.358556,-2.40746 0.43751,-0.77919 0.862716,-1.56513 1.283637,-2.35336 0.412964,-0.77279 0.816186,-1.5507 1.219515,-2.32854 0.381166,-0.73722 0.767386,-1.47181 1.154086,-2.20614 0.32522,-0.61735 0.64898,-1.23546 0.970295,-1.85485 0.264354,-0.51042 0.528043,-1.02118 0.791705,-1.53196 0.211632,-0.41002 0.423241,-0.82005 0.634855,-1.23007 0.168709,-0.3269 0.337415,-0.6538 0.506124,-0.9807 0.134464,-0.26054 0.26893,-0.52109 0.403394,-0.78163 0.111649,-0.21571 0.222044,-0.43206 0.335071,-0.64704 0.124828,-0.22677 0.05523,-0.10482 0.210865,-0.36464 2.561468,-4.13526 8.409604,-0.51279 5.848136,3.62246 v 0 c 0.03737,-0.0677 0.04809,-0.0836 0.02696,-0.051 -0.104442,0.19741 -0.204737,0.397 -0.307959,0.59505 -0.134467,0.26055 -0.26893,0.52109 -0.403397,0.78164 -0.168709,0.3269 -0.337418,0.6538 -0.506129,0.9807 -0.211701,0.4102 -0.423397,0.8204 -0.635119,1.23059 -0.265806,0.51493 -0.531641,1.02985 -0.798153,1.54442 -0.327829,0.63189 -0.658074,1.26252 -0.989878,1.89232 -0.379923,0.72145 -0.759402,1.44314 -1.133866,2.16744 -0.416156,0.80257 -0.832321,1.60516 -1.258441,2.40251 -0.441579,0.8268 -0.887716,1.65116 -1.346562,2.46853 -0.456089,0.81614 -0.915911,1.63016 -1.378381,2.4427 -0.458198,0.80872 -0.914173,1.61871 -1.367695,2.43007 -0.461727,0.82362 -0.919612,1.64945 -1.391275,2.46745 -0.471011,0.81099 -0.949613,1.61761 -1.448543,2.41181 -0.45326,0.72545 -0.909651,1.44894 -1.367602,2.17144 -0.428413,0.67654 -0.856827,1.35309 -1.289775,2.02673 -0.404884,0.62959 -0.812321,1.25754 -1.218054,1.88658 -0.376055,0.58378 -0.752515,1.16731 -1.123755,1.75417 -0.34708,0.54947 -0.692409,1.10005 -1.032782,1.65371 -0.338344,0.54767 -0.675606,1.09614 -1.028642,1.63453 -0.324194,0.48907 -0.655143,0.9737 -1.003713,1.44583 -0.265583,0.36095 -0.532921,0.7206 -0.799856,1.08055 -0.237794,0.32093 -0.474708,0.64263 -0.722135,0.95624 -0.308073,0.38336 -0.627854,0.75977 -1.00611,1.07682 -0.555244,0.44761 -1.162868,0.81617 -1.866017,0.97992 -1.035528,0.19451 -1.831967,0.14095 -2.790184,-0.3351 -0.46277,-0.26842 -0.899943,-0.57098 -1.267026,-0.96433 -0.201785,-0.20575 -0.399971,-0.41498 -0.596136,-0.6261 -0.232166,-0.25203 -0.46038,-0.50761 -0.688194,-0.76357 -0.272436,-0.30506 -0.544872,-0.61011 -0.817309,-0.91517 -0.341817,-0.38274 -0.683635,-0.76549 -1.025453,-1.14823 -0.428866,-0.48022 -0.857732,-0.96043 -1.286597,-1.44065 -0.537988,-0.6024 -1.075981,-1.20481 -1.613946,-1.80723 -0.666771,-0.74671 -1.33346,-1.49349 -1.999572,-2.24078 -0.739664,-0.82637 -1.48332,-1.64921 -2.241929,-2.4583 -0.817501,-0.87501 -1.639546,-1.74577 -2.454322,-2.62333 -0.847537,-0.91303 -1.692362,-1.82856 -2.540217,-2.74129 -0.841436,-0.9004 -1.687854,-1.79625 -2.553369,-2.67364 -0.873893,-0.88488 -1.754257,-1.76336 -2.64468,-2.63163 -0.909971,-0.88712 -1.825236,-1.76875 -2.738627,-2.65234 -0.897024,-0.87307 -1.789477,-1.75094 -2.662462,-2.64815 -0.763173,-0.78193 -1.522802,-1.56729 -2.283537,-2.35159 -0.603727,-0.61944 -1.206635,-1.23979 -1.820097,-1.84962 -0.460546,-0.45194 -0.92443,-0.90076 -1.405259,-1.33123 -0.298475,-0.26444 -0.600156,-0.52663 -0.929119,-0.75309 -0.277704,-0.19186 -0.559072,-0.37831 -0.841941,-0.56246 -0.0353,-0.0227 -0.324511,-0.19971 -0.204295,-0.13949 0.04409,0.0182 0.0883,0.0365 0.134612,0.0485 -4.65305,-1.41795 -2.647758,-7.99836 2.005292,-6.5804 z"
       inkscape:connector-curvature="0" />
    <path
       style="opacity:1;fill:#020900;fill-opacity:1;stroke:none;stroke-width:1;stroke-linecap:butt;stroke-linejoin:round;stroke-miterlimit:4;stroke-dasharray:none;stroke-opacity:1"
       id="path975"
       d="m 57.154717,246.29871 c 0.0046,0.059 0.0092,0.11794 0.01373,0.17691 0.0037,0.0625 0.01958,0.2509 0.0034,0.0627 -0.0076,-0.0678 0.01947,0.13321 0.02056,0.14119 0.0259,0.1937 0.04018,0.38866 0.05273,0.5836 0.01167,0.18947 0.02019,0.37911 0.02794,0.56877 0.0094,0.23417 0.01548,0.46846 0.02095,0.70275 0.0063,0.29784 0.01061,0.59571 0.01839,0.89351 0.0081,0.35492 0.02228,0.70964 0.03932,1.06423 0.02331,0.45645 0.04812,0.91283 0.07402,1.36914 0.03117,0.54381 0.06002,1.08775 0.08646,1.63181 0.03012,0.60616 0.05158,1.21269 0.06956,1.81931 0.01881,0.66662 0.03258,1.33337 0.04561,2.00012 0.01241,0.70184 0.02556,1.40367 0.04127,2.10544 0.01767,0.72384 0.0382,1.4476 0.05661,2.17141 0.01929,0.77093 0.03354,1.54195 0.05535,2.31282 0.02392,0.78873 0.05698,1.57715 0.09014,2.36554 0.0286,0.75465 0.06928,1.5087 0.119465,2.26219 0.04972,0.73909 0.109363,1.47746 0.171114,2.21562 0.05841,0.68889 0.121015,1.3774 0.182938,2.06597 0.05562,0.61384 0.108095,1.22796 0.158618,1.84224 0.04381,0.53772 0.0852,1.07563 0.126428,1.61355 0.03507,0.45353 0.0676,0.90724 0.100777,1.36091 0.028,0.37932 0.05602,0.75864 0.083,1.13804 0.02334,0.3309 0.04526,0.6619 0.06719,0.9929 0.01757,0.26658 0.03512,0.53315 0.05312,0.7997 0.01659,0.24496 0.03161,0.49002 0.04657,0.73508 0.0122,0.20091 0.02445,0.40181 0.03642,0.60272 0.0099,0.16716 0.01953,0.33433 0.02918,0.5015 0.0077,0.13259 0.01532,0.26517 0.02296,0.39776 0.0061,0.10611 0.01228,0.21223 0.01836,0.31835 0.01416,0.19388 0.01466,0.38814 0.0099,0.58236 -0.0064,0.20262 -0.03071,0.40387 -0.05758,0.60458 -0.01376,0.10955 -0.02851,0.21893 -0.04507,0.3281 -0.01238,0.0793 -0.02482,0.1587 -0.03713,0.23806 -0.0097,0.0625 -0.01937,0.12504 -0.02904,0.18756 -0.0078,0.0501 -0.01553,0.10028 -0.02328,0.15041 -0.005,0.0325 -0.01005,0.0649 -0.01519,0.0973 -0.765048,4.80376 -7.558598,3.72182 -6.79355,-1.08195 v 0 c 0.0035,-0.0225 0.007,-0.0449 0.01048,-0.0674 0.0078,-0.0502 0.01553,-0.10032 0.02328,-0.15048 0.0098,-0.0632 0.01958,-0.12645 0.02937,-0.18968 0.01164,-0.0751 0.02336,-0.15017 0.03516,-0.22524 0.0071,-0.0447 0.01789,-0.13504 0.02661,-0.19949 0.02022,-0.15089 -0.0034,0.0357 5.3e-4,0.0791 -5.3e-4,0.0612 0.0062,0.23133 -0.0024,0.0411 -0.0061,-0.10536 -0.01217,-0.21071 -0.01823,-0.31607 -0.0076,-0.13246 -0.01529,-0.26493 -0.02294,-0.39739 -0.0094,-0.1629 -0.01881,-0.3258 -0.02843,-0.48868 -0.0118,-0.19779 -0.02387,-0.39556 -0.03586,-0.59334 -0.01405,-0.2303 -0.02814,-0.46061 -0.04373,-0.69083 -0.0182,-0.26947 -0.03594,-0.53896 -0.05371,-0.80846 -0.02119,-0.31995 -0.04236,-0.63991 -0.06491,-0.95977 -0.02663,-0.37476 -0.05435,-0.74944 -0.08199,-1.12412 -0.03258,-0.44564 -0.06453,-0.89133 -0.09897,-1.33683 -0.04026,-0.52524 -0.08065,-1.05048 -0.123407,-1.57552 -0.04907,-0.59682 -0.100068,-1.19348 -0.154109,-1.78987 -0.06321,-0.70284 -0.12709,-1.40562 -0.186653,-2.10878 -0.06499,-0.77727 -0.127656,-1.55476 -0.179919,-2.333 -0.05362,-0.80911 -0.09774,-1.61877 -0.128519,-2.4291 -0.03448,-0.82 -0.06876,-1.64004 -0.09347,-2.4604 -0.02191,-0.7773 -0.03662,-1.55475 -0.05587,-2.33211 -0.01857,-0.73077 -0.03937,-1.4615 -0.05711,-2.19229 -0.01585,-0.7083 -0.02919,-1.41664 -0.04168,-2.125 -0.01259,-0.64381 -0.02582,-1.28762 -0.04392,-1.93131 -0.01659,-0.56314 -0.0365,-1.12618 -0.06446,-1.68888 -0.02551,-0.52543 -0.05342,-1.05073 -0.08351,-1.57591 -0.02702,-0.47655 -0.05297,-0.95316 -0.0772,-1.42986 -0.01931,-0.40491 -0.0355,-0.80995 -0.04489,-1.21522 -0.0078,-0.30372 -0.01273,-0.60749 -0.01884,-0.91125 -0.0045,-0.19433 -0.0094,-0.38867 -0.01712,-0.58292 -0.0056,-0.13781 -0.01164,-0.27562 -0.01984,-0.4133 -0.0024,-0.0381 -0.0056,-0.0772 -0.0069,-0.11498 -0.01394,-0.10179 -0.02967,-0.2034 -0.04033,-0.30562 -0.0089,-0.0918 -0.01733,-0.18365 -0.0231,-0.27573 -0.0043,-0.0563 -0.0087,-0.11249 -0.0131,-0.16873 -0.378121,-4.84959 6.480231,-5.38433 6.858349,-0.53474 z"
       inkscape:connector-curvature="0" />
  </g>
</svg>
