<svg viewBox="0 0 100 100"><path d="m10.058 280.532.526-.054q.458-.045.917-.077.536-.035 1.072-.06c.422-.017.844-.031 1.265-.051l1.663-.09a108 108 0 0 1 2.094-.09c.805-.023 1.61-.023 2.416-.024h2.36l1.992.002q.803 0 1.604.003c.415 0 .829.006 1.243.005.013.009.28-.022.14-.021-.034-.005-.061.013-.028-.025.098-.088.186-.187.272-.288a9 9 0 0 0 .647-.933c.366-.601.703-1.22 1.036-1.839.449-.837.875-1.687 1.294-2.54a109 109 0 0 0 2.903-6.483 256 256 0 0 0 1.441-3.6 581 581 0 0 0 2.845-7.414q.722-1.962 1.434-3.929c.478-1.304.938-2.615 1.393-3.927.461-1.334.907-2.674 1.35-4.015q.656-2.001 1.305-4.005.646-2.007 1.285-4.017c.416-1.317.81-2.64 1.2-3.966a227 227 0 0 0 1.069-3.817q.479-1.767.965-3.532.409-1.465.822-2.929c.23-.81.45-1.625.67-2.438l.603-2.198.545-2.017q.236-.888.477-1.774.214-.778.43-1.555l.351-1.275q.152-.573.337-1.136c.22-.601.507-1.218.982-1.664.227-.214.489-.388.733-.581.444-.157.864-.417 1.332-.472 1.707-.198 2.957.644 3.739 2.049.21.417.342.865.452 1.317.098.415.15.838.198 1.261.042.409.072.818.11 1.228a52 52 0 0 0 .534 3.83c.166.938.352 1.871.542 2.804.22 1.08.447 2.16.673 3.24.244 1.17.496 2.339.743 3.509.267 1.251.51 2.508.743 3.766.24 1.3.459 2.603.674 3.907.217 1.323.429 2.648.647 3.971.224 1.356.462 2.71.695 4.064q.373 2.18.724 4.365a651 651 0 0 0 1.428 8.716c.238 1.359.486 2.716.733 4.073q.348 1.913.705 3.824c.21 1.133.429 2.264.648 3.395l.563 2.917.46 2.424q.183.968.37 1.934l.297 1.566a189 189 0 0 1 .436 2.39c.065.377.121.755.176 1.133q.067.45.14.901l.122.76.098.607.078.484q.022.147.049.292c-.086-.544-.391-.995-.725-1.417a3.1 3.1 0 0 0-1.658-.94c-.174-.02.024-.009.065-.007q.312.004.624.005.473.003.944.003c.33-.003.66-.018.99-.033q.623-.031 1.243-.07.687-.04 1.374-.076l1.434-.07q.793-.035 1.587-.06a205 205 0 0 1 3.552-.085q.912-.009 1.823-.009.852.004 1.704.013.74.007 1.479.022l1.168.021q.475.008.95.019l.75.02q.339.006.679.023c.52-.001 1.002.151 1.493.305 4.514 1.813 1.951 8.197-2.563 6.384.1.03 1.135.27.71.18-.167-.009-.334-.01-.501-.016l-.733-.019-.91-.018-1.165-.021q-.71-.013-1.42-.021-.817-.008-1.638-.013-.864 0-1.729.008-.883.013-1.765.035-.827.02-1.654.046a128 128 0 0 0-2.89.126q-.663.033-1.324.074-.664.039-1.329.073a31 31 0 0 1-2.296.038c-.288-.002-.575-.002-.863-.01a8 8 0 0 1-.923-.082c-.862-.16-1.645-.523-2.254-1.17-.476-.586-.867-1.219-.989-1.979q-.044-.239-.081-.479l-.078-.484-.098-.607-.122-.765a75 75 0 0 1-.155-.994c-.046-.318-.092-.636-.147-.953q-.09-.515-.184-1.03-.115-.627-.233-1.255-.146-.776-.296-1.553-.187-.975-.372-1.951-.227-1.203-.456-2.404-.28-1.454-.562-2.906c-.221-1.146-.443-2.292-.656-3.44q-.36-1.925-.71-3.854c-.25-1.377-.502-2.755-.744-4.134a569 569 0 0 1-1.44-8.79 414 414 0 0 0-.713-4.297c-.235-1.37-.477-2.74-.703-4.111-.218-1.322-.43-2.646-.646-3.968a208 208 0 0 0-.651-3.774 133 133 0 0 0-.71-3.597c-.247-1.174-.5-2.346-.745-3.52q-.345-1.641-.682-3.282c-.203-.998-.401-1.996-.578-2.998a59 59 0 0 1-.606-4.374c-.034-.369-.063-.738-.098-1.107-.016-.143-.03-.286-.054-.427-.017-.102.102.206.106.209.699 1.192 1.98 1.825 3.387 1.647.442-.056.837-.307 1.255-.46.494-.403 1.03-.802 1.227-1.434-.088.252-.151.512-.224.77l-.353 1.275-.423 1.53q-.238.878-.47 1.754l-.554 2.047-.6 2.186c-.226.835-.452 1.671-.688 2.504q-.408 1.444-.81 2.89c-.325 1.172-.643 2.345-.962 3.519-.36 1.315-.72 2.631-1.105 3.94-.403 1.37-.81 2.74-1.241 4.101q-.646 2.034-1.299 4.063-.655 2.02-1.317 4.039a315 315 0 0 1-1.382 4.112 243 243 0 0 1-1.428 4.025q-.721 1.991-1.452 3.978-.721 1.935-1.465 3.86a587 587 0 0 1-1.427 3.677 262 262 0 0 1-1.484 3.707 117 117 0 0 1-3.085 6.884c-.457.93-.922 1.856-1.411 2.77-.41.762-.827 1.521-1.281 2.258-.408.64-.832 1.272-1.335 1.843-.48.527-.99 1.028-1.587 1.425-.607.394-1.246.736-1.948.928-.638.167-1.288.276-1.95.27q-.65 0-1.297-.005l-1.578-.003-1.991-.001h-2.35c-.733 0-1.465 0-2.197.02q-.98.033-1.96.084l-1.698.091q-.636.028-1.272.052-.454.02-.907.05-.353.025-.705.058c-.227.024-.455.05-.682.069-4.85.38-5.389-6.477-.54-6.858" style="opacity:1;fill:#020900;fill-opacity:1;stroke:none;stroke-width:1;stroke-linecap:butt;stroke-linejoin:round;stroke-miterlimit:4;stroke-dasharray:none;stroke-opacity:1" transform="translate(0 -197)"/></svg>
