<?xml version="1.0" encoding="UTF-8" standalone="no"?>
<svg
   xmlns:dc="http://purl.org/dc/elements/1.1/"
   xmlns:cc="http://creativecommons.org/ns#"
   xmlns:rdf="http://www.w3.org/1999/02/22-rdf-syntax-ns#"
   xmlns:svg="http://www.w3.org/2000/svg"
   xmlns="http://www.w3.org/2000/svg"
   id="svg8"
   version="1.1"
   viewBox="0 0 100 99.999997"
   height="10cm"
   width="10cm">
  <defs
     id="defs2" />
  <metadata
     id="metadata5">
    <rdf:RDF>
      <cc:Work
         rdf:about="">
        <dc:format>image/svg+xml</dc:format>
        <dc:type
           rdf:resource="http://purl.org/dc/dcmitype/StillImage" />
        <dc:title></dc:title>
      </cc:Work>
    </rdf:RDF>
  </metadata>
  <g
     transform="translate(0,-197.00002)"
     id="layer1">
    <path
       d="m 10.057718,280.5317 c 0.175395,-0.017 0.350574,-0.0362 0.525891,-0.054 0.305453,-0.031 0.611556,-0.055 0.917799,-0.0766 0.357066,-0.0246 0.71452,-0.0429 1.072037,-0.0594 0.421595,-0.0177 0.843299,-0.0319 1.264797,-0.0519 0.55428,-0.0291 1.108465,-0.0599 1.662746,-0.089 0.697634,-0.0366 1.395575,-0.0668 2.093779,-0.0899 0.805089,-0.0239 1.610593,-0.024 2.415954,-0.0248 0.786821,-2.3e-4 1.573642,2.7e-4 2.360463,7.9e-4 0.663947,2.7e-4 1.327895,8e-4 1.991842,0.001 0.534828,-2.6e-4 1.069651,8e-4 1.604473,0.003 0.414038,7.9e-4 0.828077,0.006 1.242113,0.005 0.01378,0.009 0.281234,-0.0215 0.140782,-0.021 -0.03421,-0.005 -0.06163,0.0128 -0.02888,-0.0248 0.09893,-0.0881 0.186946,-0.18704 0.272624,-0.28776 0.240183,-0.29336 0.445868,-0.61245 0.647356,-0.93295 0.365254,-0.60154 0.702318,-1.21959 1.035618,-1.83922 0.448877,-0.83757 0.874917,-1.687 1.29345,-2.54003 0.49774,-1.01726 0.974911,-2.04425 1.440786,-3.07642 0.507984,-1.12686 0.990346,-2.26492 1.462882,-3.40701 0.492101,-1.19506 0.966885,-2.39714 1.440838,-3.59948 0.473385,-1.20642 0.94133,-2.41497 1.406631,-3.62453 0.485691,-1.26075 0.967081,-2.52312 1.438415,-3.78931 0.4815,-1.30836 0.957464,-2.61874 1.433791,-3.92898 0.478099,-1.30428 0.938397,-2.61495 1.393325,-3.92746 0.461155,-1.33442 0.906422,-2.67423 1.348867,-4.01494 0.438091,-1.33395 0.873117,-2.66891 1.306115,-4.00453 0.430549,-1.33851 0.859819,-2.67744 1.284296,-4.01789 0.416147,-1.31682 0.81031,-2.64042 1.199896,-3.9653 0.372065,-1.26796 0.720333,-2.54271 1.06944,-3.81713 0.320297,-1.17785 0.640324,-2.35576 0.965205,-3.53236 0.272304,-0.97678 0.546669,-1.95298 0.822381,-2.9288 0.229629,-0.8108 0.448725,-1.62452 0.669647,-2.43772 0.200192,-0.73307 0.402566,-1.46554 0.603163,-2.1985 0.181795,-0.67212 0.363992,-1.34414 0.544774,-2.01653 0.157684,-0.59189 0.31582,-1.18365 0.476724,-1.77467 0.142674,-0.51837 0.286427,-1.03645 0.429577,-1.5547 0.117356,-0.42499 0.234651,-0.85 0.351957,-1.27501 0.10201,-0.38185 0.212257,-0.76123 0.337132,-1.13622 0.220469,-0.60061 0.506177,-1.21727 0.981364,-1.66368 0.227311,-0.21354 0.488785,-0.38752 0.733178,-0.58128 0.444003,-0.15712 0.864159,-0.41713 1.332013,-0.47136 1.707145,-0.19786 2.957346,0.64361 3.738711,2.04872 0.2106,0.41693 0.342456,0.86495 0.452276,1.31696 0.09785,0.41479 0.150858,0.838 0.197821,1.26099 0.04215,0.40872 0.0724,0.81851 0.110159,1.22765 0.0505,0.5303 0.116375,1.05894 0.184915,1.58716 0.09667,0.75086 0.220004,1.49786 0.349377,2.24366 0.166008,0.93736 0.35193,1.87101 0.541343,2.80388 0.221284,1.08031 0.447199,2.15967 0.673465,3.23895 0.243954,1.17063 0.495832,2.33957 0.743008,3.50951 0.267404,1.25147 0.509598,2.50805 0.742664,3.76629 0.239679,1.29963 0.459063,2.60285 0.674259,3.90672 0.216628,1.32361 0.428821,2.64793 0.6466,3.97134 0.224131,1.3559 0.462589,2.70936 0.695227,4.06381 0.250298,1.45349 0.489161,2.90889 0.724159,4.36492 0.232442,1.4746 0.465778,2.94903 0.708364,4.422 0.235712,1.43213 0.473382,2.86392 0.720182,4.29419 0.237768,1.35887 0.485979,2.71589 0.732883,4.07313 0.231833,1.2752 0.466593,2.54986 0.704225,3.82398 0.210572,1.13275 0.429422,2.26392 0.648034,3.39513 0.188198,0.97216 0.376743,1.94425 0.563134,2.91676 0.154461,0.80762 0.307422,1.61552 0.45984,2.42352 0.122587,0.64502 0.246253,1.28983 0.369552,1.93472 0.100004,0.52193 0.199432,1.04398 0.298212,1.56614 0.08208,0.4329 0.16179,0.86624 0.240839,1.29971 0.06659,0.36326 0.131662,0.7268 0.19467,1.0907 0.06559,0.37628 0.121102,0.75417 0.176302,1.13208 0.04404,0.30092 0.09211,0.60122 0.14015,0.90153 0.04057,0.25309 0.08127,0.50617 0.121955,0.75924 0.03255,0.20244 0.0651,0.40487 0.09765,0.60731 0.02595,0.16136 0.05189,0.32273 0.07784,0.48409 0.01542,0.0976 0.03089,0.19519 0.04887,0.29235 -0.08612,-0.54413 -0.391006,-0.99508 -0.724408,-1.4177 -0.447924,-0.48006 -1.016579,-0.80696 -1.658337,-0.93964 -0.173492,-0.021 0.02413,-0.009 0.06478,-0.007 0.208092,0.003 0.416205,0.004 0.624316,0.005 0.314634,0.001 0.629271,0.004 0.943909,0.003 0.330443,-0.003 0.660635,-0.0178 0.990671,-0.0335 0.414396,-0.0209 0.82868,-0.0439 1.242862,-0.0687 0.457753,-0.0284 0.915744,-0.0526 1.373745,-0.0766 0.47778,-0.0247 0.955599,-0.0487 1.433521,-0.0706 0.529032,-0.0239 1.05827,-0.0429 1.587545,-0.0605 0.57177,-0.0188 1.143653,-0.0339 1.715561,-0.0479 0.611947,-0.0147 1.223936,-0.0275 1.835999,-0.0362 0.607722,-0.007 1.215496,-0.008 1.823249,-0.009 0.567878,0.002 1.135735,0.008 1.703591,0.013 0.493168,0.004 0.98628,0.0131 1.479386,0.0219 0.389345,0.007 0.778685,0.0141 1.168027,0.0211 0.316653,0.006 0.633304,0.0111 0.949918,0.0187 0.249708,0.006 0.499409,0.0129 0.749109,0.0195 0.22669,0.005 0.453295,0.0119 0.679757,0.0234 0.519269,-7.9e-4 1.00198,0.15164 1.492814,0.30567 4.514157,1.81214 1.951405,8.19612 -2.562754,6.38399 v 0 c 0.09933,0.0288 1.135388,0.27023 0.7103,0.18011 -0.167039,-0.009 -0.334357,-0.0114 -0.501565,-0.0164 -0.244354,-0.006 -0.488702,-0.0129 -0.733063,-0.0191 -0.303207,-0.007 -0.606459,-0.0124 -0.909706,-0.0179 -0.388213,-0.007 -0.776423,-0.0142 -1.164638,-0.0211 -0.473143,-0.008 -0.94629,-0.0168 -1.419492,-0.0211 -0.546079,-0.005 -1.092155,-0.0104 -1.638252,-0.0127 -0.576466,2.7e-4 -1.152951,0.002 -1.729388,0.008 -0.588357,0.008 -1.176637,0.0208 -1.76488,0.0349 -0.551595,0.0135 -1.103167,0.028 -1.654632,0.0461 -0.500888,0.0167 -1.001745,0.0346 -1.502405,0.0572 -0.462743,0.0212 -0.925383,0.0445 -1.387991,0.0684 -0.441227,0.0231 -0.882446,0.0464 -1.323433,0.0738 -0.442669,0.0264 -0.885441,0.0511 -1.328345,0.0733 -0.431094,0.0203 -0.862418,0.0387 -1.294051,0.0411 -0.334129,7.9e-4 -0.668256,-10e-4 -1.002385,-0.003 -0.287604,-0.002 -0.575275,-0.002 -0.862779,-0.0106 -0.308695,-0.0127 -0.617641,-0.0315 -0.922962,-0.0812 -0.861833,-0.15941 -1.644894,-0.52273 -2.254221,-1.17015 -0.476454,-0.58642 -0.867257,-1.21909 -0.988584,-1.97858 -0.02969,-0.15935 -0.0567,-0.31914 -0.08158,-0.47931 -0.02596,-0.16137 -0.05189,-0.32273 -0.07784,-0.48409 -0.03255,-0.20248 -0.06511,-0.40496 -0.09767,-0.60744 -0.04097,-0.25484 -0.08196,-0.50968 -0.122803,-0.76454 -0.05296,-0.33105 -0.105781,-0.66214 -0.154282,-0.99388 -0.04647,-0.3181 -0.09254,-0.63628 -0.14773,-0.95302 -0.05947,-0.34364 -0.121002,-0.68692 -0.183874,-1.02995 -0.07633,-0.41861 -0.153292,-0.83711 -0.232567,-1.25517 -0.09794,-0.51776 -0.196537,-1.0354 -0.295698,-1.55293 -0.124365,-0.65045 -0.249105,-1.30083 -0.372726,-1.95143 -0.151175,-0.80143 -0.302893,-1.60276 -0.456092,-2.4038 -0.185716,-0.96904 -0.373613,-1.93767 -0.561131,-2.90636 -0.221445,-1.14588 -0.44309,-2.29173 -0.656394,-3.43916 -0.23949,-1.28413 -0.476104,-2.56879 -0.709755,-3.854 -0.250635,-1.37775 -0.502576,-2.75529 -0.7438,-4.13474 -0.249721,-1.44753 -0.490415,-2.89658 -0.728921,-4.346 -0.243745,-1.48022 -0.478441,-2.96186 -0.711907,-4.44374 -0.231301,-1.4332 -0.466381,-2.86581 -0.712764,-4.29651 -0.235346,-1.37028 -0.476607,-2.73957 -0.70322,-4.11134 -0.217582,-1.32235 -0.429694,-2.64559 -0.64607,-3.96814 -0.207867,-1.25966 -0.419618,-2.51871 -0.651071,-3.77429 -0.222456,-1.20168 -0.453641,-2.40177 -0.709101,-3.59693 -0.247891,-1.17342 -0.500563,-2.34584 -0.745207,-3.51995 -0.229262,-1.09359 -0.458166,-2.18725 -0.682324,-3.2819 -0.202435,-0.99743 -0.400904,-1.99575 -0.577868,-2.99808 -0.145764,-0.84228 -0.284335,-1.68596 -0.393309,-2.53391 -0.07926,-0.61229 -0.155019,-1.22512 -0.212923,-1.83986 -0.03397,-0.36899 -0.06256,-0.73842 -0.09799,-1.10726 -0.01543,-0.14257 -0.02997,-0.28558 -0.05376,-0.427 -0.0172,-0.10185 0.101999,0.206 0.10637,0.2088 0.698339,1.19265 1.979954,1.82577 3.386487,1.64732 0.44205,-0.0561 0.836721,-0.30679 1.255083,-0.46018 0.494099,-0.40252 1.029232,-0.80157 1.227341,-1.43413 -0.08838,0.25234 -0.151495,0.51262 -0.224832,0.76952 -0.117425,0.42545 -0.234845,0.8509 -0.352322,1.27634 -0.140901,0.5101 -0.282369,1.02004 -0.422873,1.53025 -0.159012,0.58403 -0.315188,1.16882 -0.471048,1.75369 -0.183457,0.68233 -0.368332,1.36428 -0.552855,2.04632 -0.199467,0.72882 -0.400669,1.45715 -0.599774,2.18607 -0.226996,0.83555 -0.452225,1.67161 -0.688205,2.50469 -0.272005,0.96266 -0.54265,1.92571 -0.81135,2.8893 -0.323643,1.1721 -0.642382,2.34553 -0.961493,3.51887 -0.360399,1.31564 -0.720206,2.63153 -1.104461,3.94046 -0.403013,1.37035 -0.8109,2.73935 -1.241441,4.10135 -0.429233,1.35534 -0.863197,2.70918 -1.298604,4.06255 -0.436724,1.34707 -0.875466,2.69349 -1.317352,4.03887 -0.453176,1.37317 -0.909325,2.74538 -1.381726,4.11208 -0.466251,1.34504 -0.938022,2.68818 -1.4279,4.02483 -0.482362,1.32683 -0.964322,2.65383 -1.452076,3.97869 -0.480108,1.28949 -0.970156,2.57521 -1.46486,3.85918 -0.472115,1.22719 -0.946865,2.45339 -1.427216,3.67739 -0.488161,1.23836 -0.977331,2.47638 -1.484347,3.70718 -0.500515,1.20919 -1.011441,2.41412 -1.549463,3.60719 -0.496427,1.09927 -1.0047,2.19313 -1.535038,3.27652 -0.456632,0.9302 -0.921647,1.85636 -1.411508,2.7696 -0.410427,0.76212 -0.826349,1.52195 -1.280985,2.25886 -0.407231,0.64031 -0.832048,1.27183 -1.334892,1.84225 -0.479443,0.52787 -0.990478,1.02855 -1.5865,1.42572 -0.606742,0.39403 -1.246251,0.73532 -1.94819,0.9278 -0.638413,0.16668 -1.288312,0.27595 -1.950553,0.26985 -0.432232,10e-4 -0.864452,-0.003 -1.29668,-0.005 -0.525866,-0.002 -1.051732,-0.003 -1.577605,-0.003 -0.663886,-2.7e-4 -1.327773,-7.9e-4 -1.99166,-10e-4 -0.783459,-5.3e-4 -1.566917,-10e-4 -2.350376,-7.9e-4 -0.731937,7.9e-4 -1.464008,1.9e-4 -2.195719,0.0211 -0.653734,0.0214 -1.307195,0.0501 -1.960392,0.0842 -0.56617,0.0297 -1.132233,0.0613 -1.698415,0.0907 -0.423911,0.0199 -0.84799,0.0351 -1.272017,0.0522 -0.302336,0.0139 -0.604624,0.0292 -0.90659,0.0498 -0.235159,0.0164 -0.470217,0.0346 -0.704774,0.0583 -0.227512,0.0231 -0.454765,0.049 -0.682657,0.0682 -4.8493586,0.38104 -5.3882256,-6.47699 -0.538867,-6.85803 z"
       id="path985"
       style="opacity:1;fill:#020900;fill-opacity:1;stroke:none;stroke-width:1;stroke-linecap:butt;stroke-linejoin:round;stroke-miterlimit:4;stroke-dasharray:none;stroke-opacity:1" />
  </g>
</svg>
