<svg viewBox="0 0 100 100"><path style="opacity:1;fill:#020900;fill-opacity:1;stroke:none;stroke-width:1;stroke-linecap:butt;stroke-linejoin:round;stroke-miterlimit:4;stroke-dasharray:none;stroke-opacity:1" d="M21.274 218.367a4.3 4.3 0 0 1 1.178-.21 4.9 4.9 0 0 1 1.781.274c.296.101.578.235.854.382.25.135.485.297.719.46q.183.128.37.25.336.222.667.452.391.28.778.567.367.273.739.54.438.303.873.613c.372.267.733.549 1.093.83q.469.371.948.729c.375.28.75.556 1.125.836q.722.53 1.408 1.104c.474.403.938.819 1.398 1.237q.635.577 1.266 1.157.672.611 1.327 1.24c.488.473.953.97 1.413 1.47q.646.712 1.29 1.428.616.683 1.238 1.36.58.636 1.167 1.268c.343.363.694.72 1.044 1.077q.55.565 1.087 1.142.484.522.966 1.046l.838.91q.381.414.763.826l.746.825q.328.36.664.715.334.35.663.703l.52.557.413.442q.188.201.373.406c.504.533.794 1.194.987 1.891.175.703.125 1.41-.02 2.11-.132.55-.386 1.053-.675 1.534-.19.312-.404.61-.622.903q-.324.429-.662.847a20 20 0 0 1-.793.917l-.75.826c-.247.27-.497.535-.74.808-.203.23-.389.476-.57.723-.24.332-.47.669-.706 1.003-.265.374-.521.753-.78 1.13-.305.446-.62.885-.933 1.325a28 28 0 0 1-2.15 2.678c-.384.427-.789.836-1.196 1.242q-.552.555-1.11 1.103c-.379.373-.767.737-1.157 1.1q-.546.509-1.097 1.014-.542.497-1.073 1.007-.577.547-1.165 1.085-.585.54-1.175 1.074a102 102 0 0 1-2.456 2.17q-.577.493-1.15.988c-.335.285-.66.58-.986.876q-.524.49-1.056.97-.474.426-.954.846l-.77.671q-.275.241-.545.491-.258.24-.518.478c-.117.106-.238.208-.351.319l-.312.306-.274.27q-.13.13-.263.256c-.186.19.106-.124.137-.16l.157-.215c-2.665 4.069-8.42.3-5.754-3.77l.206-.289a5 5 0 0 1 .498-.537q.093-.088.184-.177l.275-.272q.188-.186.378-.371.24-.231.492-.45l.481-.444q.34-.316.69-.62l.753-.657q.45-.395.896-.795c.343-.307.679-.622 1.017-.935q.557-.512 1.13-1.005.58-.5 1.163-.998.582-.496 1.153-1.004.581-.512 1.153-1.034.574-.518 1.141-1.042.54-.493 1.07-.997.583-.56 1.177-1.104.536-.492 1.067-.987.519-.478 1.023-.971.536-.528 1.068-1.061c.316-.315.63-.63.93-.961a21 21 0 0 0 1.67-2.078q.432-.604.856-1.214c.275-.403.548-.806.83-1.203.265-.377.525-.757.796-1.13.307-.416.624-.826.968-1.213q.397-.443.802-.878.37-.409.743-.818c.183-.201.365-.403.534-.616q.254-.315.5-.638c.087-.117.176-.235.254-.36.013-.02-.135.354-.137.433-.067.372-.081.745.02 1.114.122.4.297.781.584 1.093q-.141-.155-.285-.308l-.413-.443-.517-.553q-.313-.336-.629-.669a45 45 0 0 1-.776-.835L42.53 244c-.252-.276-.509-.547-.76-.822l-.832-.903-.926-1.004q-.484-.52-.978-1.029-.586-.592-1.159-1.196-.606-.654-1.208-1.313-.643-.699-1.278-1.404-.62-.69-1.243-1.376c-.367-.4-.737-.797-1.126-1.176q-.59-.567-1.196-1.117l-1.243-1.136a53 53 0 0 0-1.187-1.053q-.539-.451-1.107-.867l-1.132-.84q-.54-.403-1.067-.82c-.282-.22-.564-.442-.854-.652-.288-.206-.58-.406-.87-.61a56 56 0 0 1-.816-.596q-.317-.235-.638-.466-.26-.181-.525-.357a21 21 0 0 1-.524-.354c-.064-.044-.197-.132-.054-.05.063.031.109.052.168.07.137.042.276.077.419.092q.167.018.334.01a2.8 2.8 0 0 0 .701-.132c-4.619 1.525-6.775-5.008-2.155-6.532" transform="translate(0 -197)"/><path style="opacity:1;fill:#020900;fill-opacity:1;stroke:none;stroke-width:1;stroke-linecap:butt;stroke-linejoin:round;stroke-miterlimit:4;stroke-dasharray:none;stroke-opacity:1" d="m50.685 215.685.171.155c.141.122.268.26.403.388q.24.221.472.45c.236.237.459.486.68.736q.325.372.648.747c.224.267.459.526.692.785q.474.528.935 1.068.471.556.95 1.107.497.574 1.007 1.135.569.625 1.132 1.254c.386.432.763.871 1.145 1.306.367.415.738.828 1.105 1.244.396.446.78.903 1.16 1.362.397.475.777.963 1.158 1.45a81 81 0 0 0 2.181 2.67q.607.702 1.207 1.412a34 34 0 0 0 1.1 1.232c.357.389.721.772 1.084 1.156q.468.498.95.98.484.485.961.978l.857.878q.366.374.741.74.302.293.616.575c.19.17.388.333.584.499l.593.503q.26.223.523.445.2.17.408.334l.41.332.322.26.257.209.205.165c.677.517 1.056 1.257 1.297 2.055.167.702.093 1.394-.102 2.077-.125.4-.327.767-.55 1.12q-.21.333-.44.653c-.176.235-.36.464-.538.697-.185.243-.364.49-.548.734a19 19 0 0 1-.744.924 28 28 0 0 1-.857.927q-.479.507-.99.983c-.347.317-.708.62-1.066.926q-.531.462-1.07.916-.544.466-1.083.94-.553.483-1.087.987-.542.507-1.054 1.043-.546.575-1.082 1.16c-.32.351-.618.723-.912 1.097q-.512.664-1.019 1.33l-1.042 1.364c-.363.474-.732.944-1.098 1.415q-.548.714-1.103 1.424l-1.065 1.379q-.534.684-1.076 1.362c-.359.447-.714.898-1.074 1.345q-.539.662-1.085 1.317-.52.626-1.052 1.244c-.318.368-.643.73-.966 1.096a38 38 0 0 0-.772.91q-.356.434-.71.87l-.595.735q-.24.295-.477.593l-.448.56q-.18.224-.363.446l-.283.348-.226.277-.18.221-.144.176c-.109.158.19-.288.27-.422-2.25 4.313-8.35 1.132-6.1-3.181.15-.259.3-.517.498-.743l.143-.176.18-.221.226-.277.284-.348.347-.427q.205-.254.407-.51a78 78 0 0 1 .517-.642l.606-.747q.374-.461.75-.921c.3-.361.6-.72.91-1.07.304-.344.61-.685.91-1.032q.495-.573.977-1.157.514-.614 1.02-1.236c.353-.438.7-.88 1.052-1.318q.515-.644 1.023-1.295l1.065-1.377q.55-.707 1.097-1.418c.358-.46.719-.92 1.073-1.383l1.042-1.363c.358-.467.713-.936 1.074-1.4.4-.51.808-1.014 1.246-1.492q.594-.648 1.2-1.285.633-.66 1.3-1.286.621-.586 1.264-1.148.58-.51 1.169-1.012.525-.445 1.045-.896c.286-.244.574-.486.854-.737q.359-.334.695-.691c.207-.218.414-.435.614-.66q.244-.283.47-.581c.192-.256.38-.516.575-.77q.218-.287.442-.57c.07-.089.126-.189.19-.283.068-.108-.214.42-.19.465-.142.527-.173 1.059-.039 1.595.205.654.513 1.282 1.07 1.711l-.205-.166-.257-.207-.322-.261-.397-.32c-.187-.152-.375-.302-.557-.459q-.27-.227-.537-.457c-.185-.16-.374-.315-.56-.475-.247-.21-.497-.416-.738-.633q-.42-.377-.823-.77-.428-.417-.845-.843l-.871-.893q-.452-.466-.91-.925a50 50 0 0 1-1.076-1.11q-.572-.603-1.138-1.213c-.443-.48-.882-.961-1.302-1.461q-.596-.705-1.199-1.404a88 88 0 0 1-2.355-2.882c-.34-.435-.678-.87-1.031-1.294a47 47 0 0 0-1.023-1.2c-.37-.42-.742-.834-1.111-1.253-.368-.418-.732-.84-1.103-1.257q-.555-.62-1.116-1.237a72 72 0 0 1-1.096-1.235 144 144 0 0 1-.976-1.137 49 49 0 0 0-.828-.947 34 34 0 0 1-.795-.902q-.294-.342-.592-.681-.177-.204-.362-.401c-.13-.13-.268-.253-.4-.38a12 12 0 0 1-.23-.227q-.142-.127-.28-.255c-3.548-3.329 1.16-8.345 4.706-5.017" transform="translate(0 -197)"/></svg>
