<?xml version="1.0" encoding="UTF-8" standalone="no"?>
<!-- Created with Inkscape (http://www.inkscape.org/) -->

<svg
   xmlns:dc="http://purl.org/dc/elements/1.1/"
   xmlns:cc="http://creativecommons.org/ns#"
   xmlns:rdf="http://www.w3.org/1999/02/22-rdf-syntax-ns#"
   xmlns:svg="http://www.w3.org/2000/svg"
   xmlns="http://www.w3.org/2000/svg"
   xmlns:sodipodi="http://sodipodi.sourceforge.net/DTD/sodipodi-0.dtd"
   xmlns:inkscape="http://www.inkscape.org/namespaces/inkscape"
   width="10cm"
   height="10cm"
   viewBox="0 0 100 99.999997"
   version="1.1"
   id="svg8"
   sodipodi:docname="e.svg"
   inkscape:version="0.92.3 (2405546, 2018-03-11)">
  <defs
     id="defs2" />
  <sodipodi:namedview
     id="base"
     pagecolor="#ffffff"
     bordercolor="#666666"
     borderopacity="1.0"
     inkscape:pageopacity="0.0"
     inkscape:pageshadow="2"
     inkscape:zoom="1"
     inkscape:cx="175.50186"
     inkscape:cy="160.37856"
     inkscape:document-units="cm"
     inkscape:current-layer="layer1"
     showgrid="true"
     units="cm"
     inkscape:window-width="882"
     inkscape:window-height="707"
     inkscape:window-x="784"
     inkscape:window-y="204"
     inkscape:window-maximized="1"
     inkscape:snap-nodes="false">
    <inkscape:grid
       type="xygrid"
       id="grid815"
       units="cm"
       spacingx="9.9999998"
       spacingy="9.9999998" />
  </sodipodi:namedview>
  <metadata
     id="metadata5">
    <rdf:RDF>
      <cc:Work
         rdf:about="">
        <dc:format>image/svg+xml</dc:format>
        <dc:type
           rdf:resource="http://purl.org/dc/dcmitype/StillImage" />
        <dc:title></dc:title>
      </cc:Work>
    </rdf:RDF>
  </metadata>
  <g
     inkscape:label="Layer 1"
     inkscape:groupmode="layer"
     id="layer1"
     transform="translate(0,-197.00002)">
    <path
       style="opacity:1;fill:#020900;fill-opacity:1;stroke:none;stroke-width:1;stroke-linecap:butt;stroke-linejoin:round;stroke-miterlimit:4;stroke-dasharray:none;stroke-opacity:1"
       id="path64"
       d="m 21.273529,218.36686 c 0.380031,-0.13164 0.778174,-0.18959 1.17828,-0.21009 0.273362,-0.0124 0.54632,0.008 0.817474,0.041 0.329622,0.0398 0.649621,0.12753 0.96363,0.23262 0.29568,0.10185 0.577959,0.23606 0.853894,0.38219 0.250781,0.1358 0.485653,0.29778 0.719023,0.46098 0.12174,0.0859 0.246388,0.16762 0.370707,0.24975 0.223911,0.14783 0.445787,0.29866 0.666012,0.45192 0.261572,0.18591 0.519555,0.37682 0.778194,0.56678 0.245168,0.18152 0.490858,0.36227 0.739234,0.53938 0.291405,0.20401 0.583567,0.4069 0.873097,0.61357 0.371681,0.26707 0.732478,0.54878 1.092961,0.83064 0.31212,0.2478 0.628675,0.48983 0.947908,0.72836 0.374584,0.2792 0.750732,0.55628 1.125273,0.83554 0.481772,0.35242 0.949831,0.72254 1.408105,1.10486 0.47408,0.40284 0.937297,0.81826 1.397918,1.23636 0.422844,0.38489 0.84442,0.77116 1.26602,1.1574 0.447414,0.40762 0.890882,0.81941 1.326587,1.23953 0.488048,0.47361 0.952833,0.97025 1.412997,1.47074 0.431596,0.47448 0.860948,0.951 1.290166,1.42763 0.409654,0.45584 0.823648,0.90775 1.237671,1.35962 0.38877,0.42289 0.774946,0.84814 1.166876,1.26811 0.343757,0.36334 0.694848,0.71967 1.044675,1.07714 0.366885,0.37637 0.728046,0.75824 1.087043,1.14212 0.322662,0.34796 0.644168,0.69698 0.96529,1.04636 0.279882,0.30296 0.559271,0.60637 0.837957,0.91043 0.25364,0.27604 0.510741,0.54884 0.763908,0.82532 0.24798,0.27542 0.497242,0.54969 0.745736,0.82465 0.217633,0.24171 0.440348,0.47872 0.664117,0.71474 0.222396,0.23297 0.442325,0.46827 0.662271,0.70356 0.173281,0.18545 0.346487,0.37096 0.519702,0.55647 0.137753,0.14753 0.2755,0.29506 0.41325,0.44259 0.125841,0.13408 0.250664,0.26912 0.373809,0.40568 0.503187,0.53321 0.793983,1.19463 0.986753,1.89149 0.174797,0.70244 0.12501,1.41021 -0.02085,2.11057 -0.131448,0.54936 -0.385231,1.05238 -0.674458,1.53309 -0.190643,0.3124 -0.403534,0.61009 -0.622244,0.90321 -0.21554,0.2862 -0.436504,0.56819 -0.661821,0.84672 -0.252693,0.31555 -0.520811,0.61805 -0.792771,0.91697 -0.250756,0.27466 -0.499435,0.5512 -0.750207,0.82585 -0.246539,0.26938 -0.497108,0.53502 -0.739352,0.8083 -0.203332,0.23056 -0.389213,0.47552 -0.570886,0.72325 -0.238747,0.33173 -0.470234,0.6686 -0.705065,1.00311 -0.265194,0.37314 -0.521581,0.75237 -0.77974,1.13037 -0.305617,0.4451 -0.620024,0.88407 -0.933201,1.32385 -0.328557,0.46785 -0.675122,0.92234 -1.0316,1.36912 -0.359143,0.44796 -0.7357,0.88135 -1.118553,1.30906 -0.384521,0.42754 -0.788897,0.83641 -1.195895,1.24238 -0.369163,0.36854 -0.737846,0.73755 -1.11034,1.10273 -0.379127,0.37324 -0.767149,0.73722 -1.15697,1.09922 -0.364146,0.33969 -0.729718,0.67783 -1.096639,1.01452 -0.363379,0.32976 -0.718693,0.66815 -1.073296,1.00727 -0.383799,0.36637 -0.77456,0.72533 -1.164823,1.08477 -0.389167,0.36121 -0.782783,0.71756 -1.175803,1.07455 -0.402204,0.3679 -0.809231,0.73045 -1.217258,1.09186 -0.408675,0.36404 -0.82282,0.72184 -1.238411,1.07795 -0.384673,0.32766 -0.766964,0.6581 -1.149906,0.98778 -0.334526,0.28537 -0.660741,0.58023 -0.985706,0.87638 -0.350227,0.32539 -0.700277,0.65093 -1.055947,0.97037 -0.3164,0.28376 -0.634757,0.56533 -0.954239,0.84561 -0.256087,0.22411 -0.512657,0.44768 -0.769175,0.6713 -0.185251,0.15971 -0.365824,0.32471 -0.545565,0.49056 -0.172188,0.1598 -0.3444,0.31956 -0.518168,0.47764 -0.117574,0.10588 -0.237794,0.20869 -0.3513,0.31896 -0.104313,0.10166 -0.207866,0.20411 -0.311502,0.30646 -0.09133,0.0902 -0.182646,0.18046 -0.273961,0.2707 -0.08684,0.0863 -0.175396,0.17079 -0.263845,0.25541 -0.185658,0.1895 0.105994,-0.12404 0.137099,-0.16046 0.0525,-0.0716 0.104991,-0.14318 0.157486,-0.21477 -2.665469,4.069 -8.4199,0.29946 -5.754431,-3.76954 v 0 c 0.0688,-0.0965 0.13761,-0.19297 0.206416,-0.28946 0.156274,-0.18803 0.316796,-0.37219 0.498166,-0.53673 0.06151,-0.0588 0.123277,-0.11742 0.183652,-0.17743 0.09184,-0.0908 0.183682,-0.18152 0.275542,-0.27227 0.125438,-0.12388 0.25075,-0.2479 0.377338,-0.37061 0.160622,-0.15386 0.324494,-0.30411 0.49197,-0.45048 0.161569,-0.14673 0.321132,-0.29564 0.481303,-0.44389 0.227112,-0.20944 0.455578,-0.41746 0.689342,-0.61949 0.251216,-0.219 0.502482,-0.43795 0.753292,-0.65742 0.300148,-0.26324 0.599174,-0.52778 0.896417,-0.7943 0.343035,-0.30739 0.678768,-0.62272 1.0171,-0.93525 0.372729,-0.33952 0.747151,-0.67728 1.130599,-1.00471 0.387002,-0.33315 0.773324,-0.66709 1.162055,-0.99822 0.387037,-0.33161 0.772811,-0.66469 1.153311,-1.00381 0.386514,-0.34231 0.7721,-0.68568 1.153012,-1.03423 0.381294,-0.34634 0.763218,-0.69199 1.140731,-1.04247 0.358605,-0.33028 0.717843,-0.65993 1.07067,-0.99641 0.388784,-0.3718 0.778659,-0.74247 1.176833,-1.10426 0.356954,-0.32754 0.712575,-0.65652 1.066818,-0.98699 0.344485,-0.31983 0.68766,-0.64112 1.02258,-0.97102 0.358545,-0.35131 0.712999,-0.70673 1.068377,-1.06124 0.315672,-0.31461 0.630367,-0.63045 0.929309,-0.96117 0.297183,-0.33137 0.589773,-0.66686 0.868699,-1.01387 0.277857,-0.34678 0.546571,-0.7006 0.801703,-1.06453 0.287108,-0.40316 0.575459,-0.80549 0.856046,-1.21323 0.274866,-0.40243 0.54809,-0.806 0.830289,-1.20337 0.264494,-0.37669 0.524791,-0.75638 0.795396,-1.12874 0.307478,-0.41661 0.624057,-0.82685 0.968245,-1.2141 0.263528,-0.2961 0.533316,-0.58641 0.80199,-0.87783 0.248364,-0.27193 0.494485,-0.5459 0.742875,-0.81781 0.183217,-0.20113 0.365189,-0.40348 0.534673,-0.61649 0.170008,-0.2094 0.335857,-0.42207 0.498631,-0.63714 0.08834,-0.11755 0.176438,-0.23535 0.254844,-0.35989 0.01323,-0.02 -0.135204,0.35307 -0.137393,0.43244 -0.06623,0.37174 -0.0809,0.74543 0.02096,1.11356 0.121666,0.40094 0.296892,0.78194 0.583756,1.09393 -0.09301,-0.10463 -0.189746,-0.2059 -0.284877,-0.30859 -0.137726,-0.1475 -0.275452,-0.29501 -0.413181,-0.44252 -0.172318,-0.18454 -0.344628,-0.3691 -0.517012,-0.55359 -0.208941,-0.22351 -0.417827,-0.44709 -0.629142,-0.66837 -0.261451,-0.27579 -0.521356,-0.55302 -0.775758,-0.83535 -0.238713,-0.26418 -0.478325,-0.52755 -0.716357,-0.79234 -0.251987,-0.27544 -0.508585,-0.54658 -0.760743,-0.82187 -0.276519,-0.3017 -0.553768,-0.60272 -0.831456,-0.90335 -0.307851,-0.33495 -0.616111,-0.66952 -0.925314,-1.00322 -0.323287,-0.34584 -0.648547,-0.68985 -0.978839,-1.02901 -0.388141,-0.39664 -0.777619,-0.79206 -1.158219,-1.19597 -0.405808,-0.43516 -0.806302,-0.87519 -1.20877,-1.31343 -0.427374,-0.46644 -0.85466,-0.93298 -1.277536,-1.40351 -0.413739,-0.45947 -0.827685,-0.91875 -1.243502,-1.37633 -0.366937,-0.39956 -0.736708,-0.79689 -1.125169,-1.17577 -0.392285,-0.37914 -0.793179,-0.74905 -1.196105,-1.11682 -0.414102,-0.37938 -0.828167,-0.7588 -1.243486,-1.13685 -0.391258,-0.35542 -0.784778,-0.70848 -1.186481,-1.0521 -0.359234,-0.30146 -0.728585,-0.59023 -1.107146,-0.86712 -0.376752,-0.28093 -0.755213,-0.55955 -1.131943,-0.84051 -0.359367,-0.26873 -0.716011,-0.54103 -1.0676,-0.81989 -0.281893,-0.22062 -0.56364,-0.44163 -0.853584,-0.65164 -0.288026,-0.20602 -0.579753,-0.40676 -0.869191,-0.61078 -0.274163,-0.19566 -0.545841,-0.39469 -0.816431,-0.59526 -0.21237,-0.156 -0.42448,-0.31237 -0.638144,-0.4666 -0.173654,-0.12117 -0.348994,-0.23987 -0.525625,-0.35666 -0.175743,-0.1161 -0.351386,-0.23239 -0.523589,-0.35373 -0.06397,-0.0448 -0.19752,-0.13234 -0.05417,-0.0498 0.06312,0.0308 0.109075,0.0513 0.167851,0.0689 0.136841,0.0428 0.276286,0.0771 0.419107,0.0927 0.111094,0.0116 0.22301,0.0151 0.334601,0.009 0.235962,-0.0155 0.494084,-0.0599 0.70094,-0.13089 -4.619265,1.52443 -6.77512,-5.0082 -2.155855,-6.53262 z"
       inkscape:connector-curvature="0" />
    <path
       style="opacity:1;fill:#020900;fill-opacity:1;stroke:none;stroke-width:1;stroke-linecap:butt;stroke-linejoin:round;stroke-miterlimit:4;stroke-dasharray:none;stroke-opacity:1"
       id="path66"
       d="m 50.685491,215.68519 c 0.05624,0.0523 0.113739,0.10321 0.170857,0.15454 0.140687,0.12264 0.267491,0.2599 0.402998,0.38796 0.159218,0.14797 0.316894,0.29744 0.471635,0.4501 0.235903,0.23672 0.458605,0.48606 0.679643,0.73656 0.216734,0.24815 0.433187,0.49656 0.648076,0.74631 0.224002,0.26782 0.458843,0.52616 0.692346,0.78564 0.31704,0.35101 0.62679,0.70847 0.934876,1.06733 0.315087,0.37017 0.630499,0.74005 0.949359,1.10698 0.330378,0.38338 0.668301,0.76009 1.007528,1.13562 0.379569,0.41591 0.755695,0.83494 1.131734,1.25404 0.385998,0.43145 0.763003,0.8708 1.145577,1.30526 0.367269,0.41576 0.737603,0.82879 1.104792,1.24462 0.396057,0.4461 0.7795,0.90312 1.160396,1.36216 0.396299,0.47486 0.776664,0.96261 1.157449,1.44989 0.350687,0.45058 0.709084,0.89506 1.069211,1.3381 0.366252,0.44749 0.738438,0.8901 1.112424,1.33113 0.404691,0.46855 0.80668,0.93937 1.206297,1.41226 0.353639,0.42204 0.725738,0.82802 1.09942,1.23224 0.358061,0.38874 0.721873,0.7721 1.08495,1.15615 0.31101,0.33252 0.629434,0.65785 0.950791,0.98033 0.323096,0.32275 0.64139,0.65024 0.960263,0.97715 0.286155,0.29217 0.570463,0.58614 0.856917,0.87802 0.244221,0.24946 0.491093,0.49629 0.740941,0.74011 0.201502,0.1958 0.406864,0.38746 0.615982,0.57508 0.190791,0.17085 0.388456,0.33371 0.583946,0.49909 0.196914,0.16872 0.396248,0.33457 0.593265,0.50316 0.172736,0.14991 0.348337,0.29644 0.522377,0.44481 0.133147,0.11504 0.27128,0.22407 0.408308,0.3344 0.136861,0.11042 0.273526,0.22108 0.410213,0.33172 0.107412,0.087 0.21482,0.1739 0.32223,0.26085 0.08557,0.0693 0.171138,0.13854 0.256707,0.20781 0.0682,0.0552 0.136401,0.11042 0.2046,0.16563 0.677066,0.51693 1.05651,1.25627 1.297651,2.05471 0.166418,0.70217 0.09227,1.39356 -0.102383,2.077 -0.125,0.40012 -0.327194,0.76659 -0.549447,1.11941 -0.139316,0.22301 -0.28693,0.44037 -0.440468,0.6538 -0.17581,0.23519 -0.360299,0.46368 -0.538297,0.6972 -0.184341,0.24305 -0.363818,0.4897 -0.547156,0.7335 -0.23758,0.31636 -0.487341,0.62323 -0.744278,0.92399 -0.276463,0.3173 -0.566528,0.62239 -0.856824,0.92698 -0.318741,0.33879 -0.64975,0.66544 -0.989801,0.98273 -0.347662,0.3179 -0.708686,0.62068 -1.066639,0.92681 -0.354446,0.30753 -0.711075,0.61249 -1.069093,0.91585 -0.364263,0.30969 -0.723919,0.62474 -1.083607,0.93971 -0.369485,0.32128 -0.730713,0.65182 -1.08749,0.98711 -0.361643,0.33733 -0.711375,0.68686 -1.054148,1.04323 -0.36363,0.38349 -0.724781,0.76935 -1.081611,1.15918 -0.320908,0.35156 -0.618366,0.72328 -0.912254,1.09741 -0.341641,0.4418 -0.679231,0.88673 -1.018755,1.33017 -0.347845,0.45434 -0.694449,0.90964 -1.042394,1.36391 -0.362924,0.47415 -0.731915,0.94361 -1.097765,1.4155 -0.365294,0.47641 -0.734298,0.94995 -1.10269,1.42396 -0.35514,0.45943 -0.709063,0.91978 -1.065462,1.37823 -0.355113,0.45677 -0.71506,0.90974 -1.075814,1.36206 -0.358516,0.4478 -0.71351,0.89839 -1.073407,1.34508 -0.358147,0.44212 -0.722267,0.87936 -1.085953,1.31692 -0.346826,0.41772 -0.697246,0.83244 -1.051126,1.24421 -0.318354,0.36857 -0.643858,0.73088 -0.965964,1.09617 -0.263147,0.29834 -0.518891,0.60304 -0.772623,0.90939 -0.237416,0.28944 -0.472954,0.58042 -0.70902,0.87097 -0.197329,0.24588 -0.397788,0.48921 -0.595985,0.73438 -0.159705,0.19707 -0.31946,0.39412 -0.477038,0.5929 -0.148977,0.18718 -0.297373,0.37479 -0.447837,0.56078 -0.120591,0.14864 -0.241548,0.29698 -0.362468,0.44536 -0.09456,0.11603 -0.189132,0.23205 -0.2837,0.34807 -0.07533,0.0924 -0.150656,0.18484 -0.225986,0.27726 -0.06004,0.0737 -0.120075,0.14731 -0.180112,0.22097 -0.04785,0.0587 -0.0957,0.11742 -0.143555,0.17612 -0.108863,0.15733 0.189079,-0.28777 0.269211,-0.42245 -2.249316,4.31301 -8.348832,1.132 -6.099516,-3.18101 v 0 c 0.150055,-0.25864 0.299865,-0.51716 0.498043,-0.74279 0.04785,-0.0587 0.0957,-0.11741 0.143553,-0.17612 0.06004,-0.0737 0.120076,-0.14731 0.180112,-0.22097 0.07533,-0.0924 0.150651,-0.18483 0.225978,-0.27724 0.09445,-0.11588 0.188894,-0.23175 0.283334,-0.34763 0.115936,-0.14226 0.231908,-0.2845 0.347554,-0.427 0.136769,-0.16895 0.271352,-0.33963 0.40684,-0.50962 0.170873,-0.21515 0.343432,-0.42895 0.516583,-0.64227 0.201599,-0.24922 0.405251,-0.49676 0.605975,-0.7467 0.249857,-0.30751 0.499105,-0.61553 0.750631,-0.92168 0.298921,-0.36075 0.600498,-0.71932 0.910471,-1.07066 0.303043,-0.34362 0.609126,-0.68457 0.909113,-1.03088 0.329168,-0.38273 0.654733,-0.76854 0.977287,-1.15686 0.341537,-0.41088 0.683503,-0.82144 1.020061,-1.23641 0.352721,-0.43749 0.700079,-0.87925 1.051512,-1.31778 0.342958,-0.42997 0.685197,-0.86053 1.022797,-1.29473 0.356209,-0.45819 0.70983,-0.91837 1.064869,-1.37746 0.366776,-0.47193 0.734129,-0.94341 1.09783,-1.41771 0.35763,-0.46123 0.718251,-0.92014 1.073111,-1.38351 0.347683,-0.45388 0.693957,-0.90885 1.041548,-1.3628 0.357618,-0.46707 0.712986,-0.93588 1.073504,-1.40073 0.400775,-0.50911 0.808601,-1.0131 1.246513,-1.49107 0.395843,-0.43198 0.795843,-0.86015 1.199573,-1.28478 0.423209,-0.43902 0.854446,-0.87018 1.300319,-1.28631 0.415131,-0.38952 0.83499,-0.77401 1.264534,-1.14765 0.387728,-0.33949 0.775488,-0.67898 1.168267,-1.01263 0.350068,-0.29662 0.698643,-0.59494 1.045271,-0.89558 0.285819,-0.24441 0.573966,-0.48624 0.854054,-0.73725 0.240189,-0.22173 0.470405,-0.45376 0.694798,-0.69146 0.20723,-0.2172 0.414454,-0.43457 0.61418,-0.65873 0.163148,-0.18859 0.318987,-0.38338 0.469493,-0.5822 0.192945,-0.25595 0.380563,-0.51587 0.575228,-0.77054 0.145735,-0.19068 0.292973,-0.3802 0.442174,-0.56818 0.07021,-0.0899 0.126389,-0.18974 0.189783,-0.28437 0.06844,-0.10726 -0.214146,0.42125 -0.18964,0.46589 -0.142211,0.52688 -0.172662,1.05825 -0.03885,1.59445 0.204949,0.65455 0.512369,1.2823 1.069015,1.71117 -0.0682,-0.0552 -0.136398,-0.11042 -0.204597,-0.16563 -0.08557,-0.0693 -0.171135,-0.13854 -0.256702,-0.20781 -0.107299,-0.0869 -0.214598,-0.17372 -0.3219,-0.26058 -0.132204,-0.10701 -0.264387,-0.21404 -0.39675,-0.32085 -0.187214,-0.15079 -0.375171,-0.30072 -0.557207,-0.45779 -0.178978,-0.15265 -0.359662,-0.30329 -0.537269,-0.45755 -0.18525,-0.15953 -0.374285,-0.31464 -0.559416,-0.47432 -0.247531,-0.20969 -0.49752,-0.41655 -0.738463,-0.63389 -0.279074,-0.25123 -0.553987,-0.50698 -0.822968,-0.76902 -0.284784,-0.27821 -0.566592,-0.55943 -0.84506,-0.84397 -0.291174,-0.29679 -0.580353,-0.59552 -0.871202,-0.89263 -0.301937,-0.30954 -0.603215,-0.61975 -0.909185,-0.92533 -0.363678,-0.36511 -0.723985,-0.73351 -1.076293,-1.10965 -0.380963,-0.40296 -0.762577,-0.80533 -1.13829,-1.21322 -0.442598,-0.47908 -0.882375,-0.96105 -1.301552,-1.46093 -0.397219,-0.47006 -0.797049,-0.93783 -1.1991,-1.40377 -0.404677,-0.47739 -0.807489,-0.95642 -1.2036,-1.44096 -0.387786,-0.47716 -0.773634,-0.95594 -1.151347,-1.44115 -0.339585,-0.43456 -0.678127,-0.87009 -1.031571,-1.29356 -0.335706,-0.40481 -0.673431,-0.80803 -1.022689,-1.20127 -0.369303,-0.41835 -0.742048,-0.83363 -1.111313,-1.25201 -0.368176,-0.41831 -0.731428,-0.84093 -1.102448,-1.25673 -0.370924,-0.41341 -0.741952,-0.82672 -1.116367,-1.23698 -0.36889,-0.4084 -0.736152,-0.81826 -1.095602,-1.23503 -0.327716,-0.37726 -0.652288,-0.75722 -0.97604,-1.13788 -0.273161,-0.31822 -0.547537,-0.6354 -0.828736,-0.94658 -0.26806,-0.29788 -0.537001,-0.59505 -0.794724,-0.90201 -0.195982,-0.22807 -0.393848,-0.45453 -0.591407,-0.68124 -0.11916,-0.13518 -0.238487,-0.27028 -0.362818,-0.40076 -0.12991,-0.13032 -0.267557,-0.25249 -0.400034,-0.38016 -0.06581,-0.0637 -0.19808,-0.19261 -0.230076,-0.22714 -0.09391,-0.0844 -0.188153,-0.16845 -0.280173,-0.25492 -3.547213,-3.32847 1.159965,-8.34499 4.707177,-5.01651 z"
       inkscape:connector-curvature="0" />
  </g>
</svg>
