<?xml version="1.0" encoding="UTF-8" standalone="no"?>
<!-- Created with Inkscape (http://www.inkscape.org/) -->

<svg
   xmlns:dc="http://purl.org/dc/elements/1.1/"
   xmlns:cc="http://creativecommons.org/ns#"
   xmlns:rdf="http://www.w3.org/1999/02/22-rdf-syntax-ns#"
   xmlns:svg="http://www.w3.org/2000/svg"
   xmlns="http://www.w3.org/2000/svg"
   xmlns:sodipodi="http://sodipodi.sourceforge.net/DTD/sodipodi-0.dtd"
   xmlns:inkscape="http://www.inkscape.org/namespaces/inkscape"
   width="10cm"
   height="10cm"
   viewBox="0 0 100 99.999997"
   version="1.1"
   id="svg8"
   sodipodi:docname="en.svg"
   inkscape:version="0.92.3 (2405546, 2018-03-11)">
  <defs
     id="defs2" />
  <sodipodi:namedview
     id="base"
     pagecolor="#ffffff"
     bordercolor="#666666"
     borderopacity="1.0"
     inkscape:pageopacity="0.0"
     inkscape:pageshadow="2"
     inkscape:zoom="1"
     inkscape:cx="125.50186"
     inkscape:cy="200.50542"
     inkscape:document-units="cm"
     inkscape:current-layer="layer1"
     showgrid="true"
     units="cm"
     inkscape:window-width="1920"
     inkscape:window-height="1017"
     inkscape:window-x="-8"
     inkscape:window-y="-8"
     inkscape:window-maximized="1">
    <inkscape:grid
       type="xygrid"
       id="grid815"
       units="cm"
       spacingx="9.9999998"
       spacingy="9.9999998" />
  </sodipodi:namedview>
  <metadata
     id="metadata5">
    <rdf:RDF>
      <cc:Work
         rdf:about="">
        <dc:format>image/svg+xml</dc:format>
        <dc:type
           rdf:resource="http://purl.org/dc/dcmitype/StillImage" />
        <dc:title></dc:title>
      </cc:Work>
    </rdf:RDF>
  </metadata>
  <g
     inkscape:label="Layer 1"
     inkscape:groupmode="layer"
     id="layer1"
     transform="translate(0,-197.00002)">
    <path
       style="opacity:1;fill:#020900;fill-opacity:1;stroke:none;stroke-width:1;stroke-linecap:butt;stroke-linejoin:round;stroke-miterlimit:4;stroke-dasharray:none;stroke-opacity:1"
       id="path1029"
       d="m 50.079679,214.62066 c 0.04688,0.34082 0.06111,0.68441 0.0629,1.02804 -0.003,0.36041 -0.03,0.71994 -0.05497,1.07931 -0.02458,0.34485 -0.04127,0.69016 -0.05627,1.03554 -0.01939,0.46936 -0.03393,0.93891 -0.04789,1.40847 -0.01429,0.53469 -0.02925,1.06934 -0.04955,1.60383 -0.02236,0.57533 -0.05615,1.15013 -0.09269,1.72471 -0.03836,0.59292 -0.08244,1.18544 -0.122732,1.77823 -0.04296,0.63746 -0.07692,1.27547 -0.109189,1.91355 -0.03276,0.65543 -0.06165,1.31104 -0.08886,1.96672 -0.02751,0.65197 -0.0501,1.30411 -0.06714,1.95643 -0.0173,0.69376 -0.01585,1.38777 -0.01135,2.08167 0.005,0.75942 0.01738,1.51877 0.02969,2.2781 0.01079,0.7814 0.02737,1.56268 0.05111,2.3438 0.02381,0.79177 0.05753,1.5832 0.09144,2.37459 0.03895,0.85289 0.08326,1.70552 0.127908,2.55813 0.04833,0.9287 0.108913,1.8567 0.167825,2.78478 0.06273,0.99378 0.121716,1.98779 0.177707,2.98197 0.05435,1.0024 0.107246,2.00488 0.158266,3.00745 0.05247,1.02751 0.100097,2.05525 0.149397,3.08291 0.04682,1.00129 0.107363,2.00187 0.164431,3.00261 0.05451,1.01075 0.117218,2.02102 0.178355,3.03138 0.06047,0.98754 0.111869,1.9756 0.165402,2.96354 0.05079,0.8987 0.110553,1.79686 0.169264,2.69508 0.05064,0.783 0.102481,1.56593 0.15616,2.34874 0.0495,0.72092 0.102304,1.44161 0.157975,2.16209 0.05346,0.68832 0.111352,1.37629 0.168346,2.06433 0.0475,0.58346 0.09869,1.16661 0.14958,1.74978 0.04303,0.49264 0.08517,0.98535 0.127362,1.47806 0.0338,0.39482 0.06758,0.78964 0.101362,1.18446 0.02437,0.27681 0.04478,0.55394 0.0692,0.83074 0.424235,4.84577 -6.428719,5.44573 -6.852955,0.59996 v 0 c -0.0245,-0.28133 -0.04604,-0.5629 -0.07037,-0.84425 -0.03377,-0.39464 -0.06753,-0.78928 -0.101316,-1.18392 -0.04188,-0.48904 -0.0837,-0.97808 -0.12641,-1.46705 -0.05176,-0.59321 -0.10381,-1.1864 -0.152141,-1.7799 -0.05804,-0.70071 -0.11698,-1.40135 -0.171392,-2.10235 -0.05717,-0.74024 -0.111453,-1.4807 -0.162298,-2.2214 -0.05416,-0.79009 -0.106511,-1.5803 -0.157623,-2.3706 -0.06038,-0.92371 -0.12178,-1.84738 -0.173839,-2.7716 -0.05274,-0.97349 -0.103354,-1.94711 -0.162915,-2.92022 -0.06162,-1.01831 -0.12479,-2.03654 -0.17976,-3.05524 -0.05824,-1.02141 -0.119946,-2.04265 -0.167685,-3.06462 -0.04898,-1.021 -0.09629,-2.04209 -0.148408,-3.06293 -0.05038,-0.99019 -0.102642,-1.98028 -0.156273,-2.9703 -0.05505,-0.97783 -0.113086,-1.95549 -0.174771,-2.93292 -0.06052,-0.95343 -0.122634,-1.90679 -0.172233,-2.86088 -0.04578,-0.87435 -0.09121,-1.74873 -0.131013,-2.62338 -0.03513,-0.82001 -0.06994,-1.64007 -0.09458,-2.46049 -0.02463,-0.81344 -0.04214,-1.62704 -0.05336,-2.44079 -0.01267,-0.78176 -0.02532,-1.56354 -0.03046,-2.34539 -0.0049,-0.76869 -0.0059,-1.53749 0.01357,-2.30602 0.01804,-0.68742 0.04169,-1.37466 0.07071,-2.06172 0.02809,-0.67642 0.05791,-1.35277 0.09173,-2.02893 0.03431,-0.6778 0.07053,-1.35553 0.116253,-2.03268 0.03966,-0.58291 0.08287,-1.16557 0.120779,-1.74859 0.03291,-0.51635 0.06354,-1.03287 0.0838,-1.54989 0.01976,-0.51524 0.03358,-1.03066 0.04759,-1.54608 0.01492,-0.50125 0.03053,-1.00249 0.05138,-1.50353 0.01767,-0.40449 0.03753,-0.80891 0.06629,-1.2128 0.01402,-0.20176 0.02902,-0.40347 0.03843,-0.60551 0.0024,-0.0329 0.0027,-0.069 -0.0013,-0.10686 -0.649237,-4.82078 6.168379,-5.73894 6.817616,-0.91816 z"
       inkscape:connector-curvature="0" />
    <path
       style="opacity:1;fill:#020900;fill-opacity:1;stroke:none;stroke-width:1;stroke-linecap:butt;stroke-linejoin:round;stroke-miterlimit:4;stroke-dasharray:none;stroke-opacity:1"
       id="path1031"
       d="m 75.929219,246.70023 c 0.01585,0.0126 -0.209066,0.0452 -0.275074,0.0592 -0.247639,0.0616 -0.49458,0.12591 -0.741982,0.18843 -0.369665,0.096 -0.740645,0.18651 -1.11298,0.27153 -0.400746,0.0907 -0.804047,0.16924 -1.208122,0.24342 -0.400166,0.0731 -0.802163,0.13535 -1.204841,0.19276 -0.412639,0.0565 -0.825955,0.10801 -1.239644,0.15618 -0.471768,0.0542 -0.944743,0.0968 -1.417937,0.13631 -0.524041,0.0418 -1.049409,0.0635 -1.574567,0.0856 -0.525774,0.0231 -1.051814,0.0382 -1.57793,0.0506 -0.559493,0.0125 -1.119005,0.0242 -1.678625,0.0287 -0.634402,0.006 -1.268595,-0.0125 -1.902418,-0.0373 -0.634714,-0.0288 -1.269015,-0.0658 -1.903452,-0.10006 -0.650917,-0.0351 -1.302144,-0.0639 -1.953448,-0.0906 -0.71734,-0.0292 -1.434957,-0.0509 -2.152443,-0.0761 -0.791202,-0.0309 -1.582351,-0.0629 -2.373651,-0.0912 -0.872702,-0.0309 -1.745628,-0.0548 -2.618587,-0.0769 -0.987737,-0.0221 -1.975413,-0.046 -2.963026,-0.0731 -1.047814,-0.0287 -2.095513,-0.0611 -3.1432,-0.094 -1.069951,-0.035 -2.140011,-0.0665 -3.210131,-0.0957 -1.077725,-0.0292 -2.155561,-0.0541 -3.233417,-0.0778 -1.056561,-0.0231 -2.113185,-0.0431 -3.169825,-0.0622 -1.005639,-0.0173 -2.011278,-0.0345 -3.016914,-0.052 -0.919732,-0.0173 -1.839505,-0.031 -2.759372,-0.0384 -0.845865,-0.006 -1.691748,-0.009 -2.537637,-0.008 -0.751067,0.002 -1.502106,0.009 -2.253142,0.0157 -0.64379,0.004 -1.287448,0.017 -1.931049,0.0322 -0.584648,0.0152 -1.169269,0.0315 -1.753913,0.0469 -0.540865,0.0143 -1.081765,0.0271 -1.622676,0.0394 -0.488221,0.011 -0.976459,0.0212 -1.464698,0.0314 -0.407102,0.008 -0.814205,0.0167 -1.22131,0.0249 -0.327396,0.007 -0.654792,0.0132 -0.982188,0.0198 -0.26109,0.005 -0.522179,0.0105 -0.783269,0.0158 -0.201369,0.005 -0.402783,0.007 -0.604132,0.0127 -0.143338,0.003 -0.286557,0.01 -0.429773,0.0166 -0.115056,0.005 -0.230145,0.0101 -0.345113,0.0172 -0.0991,0.006 -0.198175,0.0129 -0.297254,0.0195 0.510149,-0.0115 0.954116,-0.22806 1.401447,-0.44654 -4.142171,2.55027 -7.7488001,-3.30765 -3.60663,-5.85792 v 0 c 0.557147,-0.28193 1.111037,-0.54442 1.749877,-0.55962 0.111628,-0.007 0.223255,-0.0148 0.33491,-0.0219 0.149277,-0.009 0.298648,-0.016 0.448044,-0.0227 0.188401,-0.009 0.376824,-0.0169 0.565377,-0.0214 0.214796,-0.005 0.429633,-0.009 0.64445,-0.0136 0.261085,-0.005 0.52217,-0.0105 0.783255,-0.0158 0.327198,-0.007 0.654395,-0.0132 0.981593,-0.0198 0.405966,-0.008 0.811931,-0.0165 1.217895,-0.0249 0.483595,-0.01 0.967188,-0.0202 1.450764,-0.0311 0.532925,-0.0121 1.065839,-0.0248 1.598718,-0.0388 0.590859,-0.0155 1.181693,-0.032 1.772557,-0.0473 0.677061,-0.016 1.354183,-0.03 2.031441,-0.0339 0.768795,-0.007 1.537593,-0.0142 2.306421,-0.016 0.867106,-0.001 1.734206,0.002 2.601288,0.008 0.94138,0.008 1.882667,0.0214 2.823909,0.0392 1.007112,0.0175 2.01423,0.0348 3.021348,0.0521 1.065657,0.0193 2.131301,0.0395 3.196881,0.0627 1.090102,0.024 2.18018,0.0492 3.270147,0.0787 1.079429,0.0295 2.158794,0.0612 3.23805,0.0965 1.038633,0.0326 2.077276,0.0648 3.116033,0.0932 0.982882,0.027 1.96583,0.0508 2.948836,0.0728 0.896808,0.0228 1.793582,0.0473 2.690122,0.0791 0.789686,0.0283 1.579229,0.0601 2.368812,0.091 0.731237,0.0257 1.462604,0.0477 2.193687,0.0777 0.680701,0.028 1.361324,0.0581 2.041623,0.0948 0.601049,0.0324 1.201978,0.0674 1.803254,0.0954 0.526175,0.0208 1.052648,0.0372 1.579322,0.0322 0.523047,-0.004 1.04598,-0.0157 1.56891,-0.0269 0.484061,-0.0114 0.96805,-0.0251 1.45179,-0.0465 0.430922,-0.0181 0.86206,-0.0351 1.292164,-0.0679 0.39872,-0.0331 0.79728,-0.0687 1.194824,-0.11407 0.355648,-0.0412 0.71092,-0.0857 1.065716,-0.13371 0.311853,-0.0441 0.623144,-0.0923 0.933058,-0.14857 0.307583,-0.0562 0.614601,-0.11562 0.919702,-0.18418 0.320067,-0.0727 0.638612,-0.15155 0.956334,-0.2339 0.33365,-0.0842 0.666091,-0.17367 1.001969,-0.24877 0.310539,-0.0654 0.622128,-0.1284 0.93748,-0.16604 4.834342,-0.53907 5.596704,6.29772 0.762362,6.8368 z"
       inkscape:connector-curvature="0" />
  </g>
</svg>
