<svg viewBox="0 0 100 100"><path style="opacity:1;fill:#020900;fill-opacity:1;stroke:none;stroke-width:1;stroke-linecap:butt;stroke-linejoin:round;stroke-miterlimit:4;stroke-dasharray:none;stroke-opacity:1" d="M50.08 214.62c.047.341.06.685.063 1.029-.003.36-.03.72-.055 1.079q-.036.517-.057 1.036-.029.703-.048 1.408-.02.803-.05 1.604a62 62 0 0 1-.092 1.725c-.038.592-.082 1.185-.123 1.778q-.061.956-.109 1.913-.047.983-.089 1.967-.041.978-.067 1.956a66 66 0 0 0-.011 2.082q.009 1.14.03 2.278a141 141 0 0 0 .142 4.719q.06 1.279.128 2.558c.048.928.109 1.856.168 2.785a441 441 0 0 1 .336 5.989q.076 1.54.15 3.083c.046 1.001.107 2.002.164 3.002.054 1.011.117 2.022.178 3.032.06.987.112 1.975.165 2.963.051.9.111 1.797.17 2.696q.075 1.174.156 2.348.075 1.082.158 2.162.081 1.033.168 2.065.073.874.15 1.75l.127 1.477.102 1.185c.024.277.044.554.069.83.424 4.846-6.429 5.446-6.853.6q-.036-.42-.07-.844l-.102-1.184-.126-1.467q-.079-.89-.152-1.78-.089-1.05-.172-2.102-.085-1.11-.162-2.221-.081-1.185-.158-2.37c-.06-.925-.122-1.848-.174-2.772-.052-.974-.103-1.948-.163-2.92-.061-1.019-.124-2.037-.18-3.056-.058-1.021-.12-2.043-.167-3.064q-.072-1.532-.148-3.063-.075-1.485-.157-2.97-.082-1.468-.174-2.934c-.061-.953-.123-1.906-.173-2.86q-.069-1.313-.13-2.624-.056-1.23-.095-2.46-.037-1.22-.054-2.441c-.012-.782-.025-1.564-.03-2.346a73 73 0 0 1 .013-2.306q.028-1.03.071-2.061.041-1.015.092-2.03.049-1.016.116-2.032.062-.874.121-1.749.051-.774.084-1.55c.02-.515.033-1.03.047-1.545q.02-.753.052-1.504.024-.607.066-1.213.023-.302.038-.605a1 1 0 0 0 0-.107c-.65-4.821 6.168-5.74 6.817-.918" transform="translate(0 -197)"/><path style="opacity:1;fill:#020900;fill-opacity:1;stroke:none;stroke-width:1;stroke-linecap:butt;stroke-linejoin:round;stroke-miterlimit:4;stroke-dasharray:none;stroke-opacity:1" d="M75.93 246.7c.015.013-.21.045-.276.06l-.742.188q-.554.144-1.113.271a30 30 0 0 1-2.413.437 46 46 0 0 1-2.658.292c-.523.042-1.049.064-1.574.086q-.789.033-1.578.05-.84.02-1.678.029a39 39 0 0 1-1.903-.037q-.952-.047-1.903-.1-.976-.051-1.954-.091c-.717-.03-1.435-.05-2.152-.076q-1.187-.048-2.374-.091a260 260 0 0 0-2.618-.077 586 586 0 0 1-6.107-.167 593 593 0 0 0-9.613-.236l-3.017-.052a256 256 0 0 0-5.297-.046q-1.126.005-2.253.015-.966.007-1.931.033l-1.754.046a439 439 0 0 1-3.087.071l-1.222.025-.982.02-.783.016-.604.012q-.216.005-.43.017-.172.007-.345.017l-.298.02c.51-.012.955-.228 1.402-.447-4.142 2.55-7.749-3.307-3.607-5.858.557-.282 1.111-.544 1.75-.56l.335-.021q.225-.014.448-.023a24 24 0 0 1 .566-.021l.644-.014.783-.016.982-.02 1.218-.024a780 780 0 0 0 3.05-.07l1.772-.048c.677-.016 1.354-.03 2.031-.034q1.153-.012 2.307-.016 1.3 0 2.6.008 1.413.012 2.825.04l3.021.052a874 874 0 0 1 6.467.141q1.62.044 3.238.097 1.558.049 3.116.093 1.474.04 2.95.073 1.344.032 2.69.079 1.183.043 2.368.09c.731.026 1.463.048 2.194.078q1.02.042 2.041.095c.601.033 1.202.068 1.804.096.526.02 1.052.037 1.579.032.523-.004 1.046-.016 1.569-.027q.726-.015 1.452-.047c.43-.018.862-.035 1.292-.067a39 39 0 0 0 2.26-.248 24 24 0 0 0 1.853-.333q.48-.11.956-.234c.334-.084.666-.174 1.002-.249.31-.065.623-.128.938-.166 4.834-.539 5.597 6.298.762 6.837z" transform="translate(0 -197)"/></svg>
