<svg viewBox="0 0 100 100"><path style="opacity:1;fill:#020900;fill-opacity:1;stroke:none;stroke-width:1;stroke-linecap:butt;stroke-linejoin:round;stroke-miterlimit:4;stroke-dasharray:none;stroke-opacity:1" d="M28.533 217.31c-.035-.139-.027-.103.01.006q.054.131.117.258c.117.225.243.444.367.665.14.256.305.495.484.724.257.325.543.626.833.922.37.374.771.717 1.18 1.05.47.382.984.703 1.503 1.014.733.428 1.488.816 2.25 1.19.848.42 1.73.764 2.627 1.063.963.313 1.957.507 2.956.657.987.15 1.984.167 2.98.12.975-.055 1.937-.228 2.886-.452.925-.22 1.81-.56 2.67-.962.88-.423 1.694-.966 2.484-1.537.765-.56 1.476-1.188 2.167-1.836a18 18 0 0 0 1.65-1.785q.609-.757 1.094-1.598.313-.554.495-1.162c.04-.185.118-.388.082-.581-.05-.015-.013.094 0 .147a.9.9 0 0 0 .21.35c.119.105.03.07-.08.053a7 7 0 0 0-1.017-.071 9 9 0 0 0-1.336.098 6.4 6.4 0 0 0-1.249.329 7 7 0 0 0-1.18.599 6.4 6.4 0 0 0-1.078.854c-.41.407-.77.858-1.119 1.316a14 14 0 0 0-1.04 1.64 21 21 0 0 0-.954 2.034 43 43 0 0 0-.888 2.432c-.281.841-.539 1.69-.79 2.54a58 58 0 0 0-.654 2.453c-.209.85-.398 1.705-.577 2.562-.179.87-.34 1.744-.497 2.619-.16.905-.307 1.812-.454 2.72a241 241 0 0 1-.469 2.858l-.506 2.882q-.265 1.518-.535 3.035-.282 1.63-.574 3.259a101 101 0 0 1-.698 3.512 62 62 0 0 1-.915 3.567 58 58 0 0 1-1.097 3.426 45 45 0 0 1-1.312 3.28 42 42 0 0 1-1.522 3.062c-.56 1.027-1.217 1.994-1.92 2.926-.72.951-1.562 1.794-2.454 2.582-.904.787-1.913 1.433-2.955 2.02-1.007.563-2.08.988-3.175 1.341-1.085.346-2.21.476-3.344.49-1.111.004-2.173-.274-3.194-.688-1.059-.449-1.9-1.195-2.628-2.067-.675-.855-1.073-1.855-1.355-2.896-.277-1.114-.236-2.252-.08-3.378.172-1.098.574-2.13 1.043-3.13.446-.932 1.034-1.778 1.678-2.581.637-.78 1.392-1.444 2.18-2.063.815-.638 1.725-1.124 2.67-1.537.978-.418 2.014-.648 3.062-.801 1.113-.153 2.233-.09 3.343.047 1.117.15 2.204.45 3.275.794 1.121.37 2.19.876 3.245 1.403a39 39 0 0 1 3.093 1.77c1.057.67 2.062 1.416 3.066 2.162q1.497 1.119 2.985 2.25 1.476 1.126 3.003 2.18c.954.664 1.968 1.23 3.018 1.724 1.088.5 2.239.836 3.4 1.115 1.222.285 2.47.415 3.72.471 1.228.044 2.45-.094 3.664-.26 1.188-.178 2.37-.391 3.554-.6a50 50 0 0 0 2.782-.54 10 10 0 0 0 1.758-.586c.46-.207.902-.452 1.339-.704q.526-.308 1.032-.647c.276-.187.545-.383.823-.566l.243-.146c4.222-2.417 7.64 3.553 3.419 5.97l.088-.057c-.258.173-.507.36-.768.53-.459.304-.924.6-1.4.875a21 21 0 0 1-2.083 1.075c-.943.397-1.909.735-2.909.96-1.036.237-2.08.432-3.128.61-1.273.225-2.546.454-3.825.643-1.63.22-3.272.384-4.92.314-1.686-.085-3.368-.264-5.015-.658-1.617-.397-3.217-.877-4.73-1.587-1.377-.66-2.714-1.397-3.967-2.273a84 84 0 0 1-3.25-2.36q-1.466-1.112-2.939-2.213c-.857-.638-1.714-1.278-2.614-1.854a32 32 0 0 0-2.522-1.448c-.745-.375-1.497-.74-2.288-1.01-.661-.218-1.332-.41-2.022-.513-.504-.07-1.011-.117-1.519-.058a5.2 5.2 0 0 0-1.3.31 5 5 0 0 0-1.156.643c-.38.292-.75.6-1.063.967a6.3 6.3 0 0 0-.81 1.204c-.187.382-.363.773-.451 1.192-.041.218-.078.44-.058.664.013.099.044.194.059.292-.012.001-.124-.009-.054.036a1 1 0 0 0 .487.14q.654.02 1.283-.167a10.2 10.2 0 0 0 1.896-.787c.624-.345 1.232-.724 1.777-1.187a10.7 10.7 0 0 0 1.51-1.57c.502-.657.967-1.342 1.365-2.068q.686-1.245 1.266-2.544a37 37 0 0 0 1.111-2.772c.35-.997.683-2 .97-3.018.295-1.047.579-2.097.812-3.16q.354-1.631.65-3.274.29-1.617.571-3.236.27-1.513.533-3.025.252-1.426.501-2.853.239-1.4.46-2.8c.153-.943.306-1.886.472-2.826.168-.94.342-1.88.535-2.816.196-.938.403-1.874.632-2.806.227-.92.467-1.839.735-2.749.277-.94.562-1.877.873-2.805a49 49 0 0 1 1.055-2.873c.391-.934.808-1.858 1.3-2.744.477-.85.986-1.685 1.58-2.46.578-.754 1.182-1.49 1.87-2.149.695-.646 1.43-1.249 2.246-1.738.782-.466 1.59-.892 2.451-1.195.844-.29 1.704-.532 2.591-.652a16 16 0 0 1 2.424-.16c.802.02 1.606.07 2.391.243.94.226 1.853.546 2.64 1.124.816.632 1.522 1.373 1.958 2.324.377.882.63 1.8.618 2.769-.02.89-.131 1.774-.41 2.624-.288.878-.64 1.734-1.109 2.533a20 20 0 0 1-1.703 2.476 25 25 0 0 1-2.277 2.455c-.907.847-1.842 1.665-2.847 2.395-1.15.825-2.34 1.6-3.624 2.202-1.289.588-2.613 1.096-3.996 1.417-1.365.312-2.747.556-4.148.624-1.443.057-2.887.027-4.317-.194-1.388-.216-2.768-.494-4.104-.936-1.186-.402-2.355-.855-3.477-1.414a42 42 0 0 1-2.753-1.465c-.798-.482-1.584-.988-2.307-1.58a22 22 0 0 1-1.747-1.568c-.487-.5-.962-1.011-1.389-1.564-.365-.484-.71-.982-1.003-1.514-.201-.357-.404-.713-.583-1.081a10 10 0 0 1-.397-.938 8 8 0 0 1-.21-.681c-1.137-4.73 5.552-6.337 6.688-1.607z" transform="translate(0 -197)"/></svg>
