<?xml version="1.0" encoding="UTF-8" standalone="no"?>
<!-- Created with Inkscape (http://www.inkscape.org/) -->

<svg
   xmlns:dc="http://purl.org/dc/elements/1.1/"
   xmlns:cc="http://creativecommons.org/ns#"
   xmlns:rdf="http://www.w3.org/1999/02/22-rdf-syntax-ns#"
   xmlns:svg="http://www.w3.org/2000/svg"
   xmlns="http://www.w3.org/2000/svg"
   xmlns:sodipodi="http://sodipodi.sourceforge.net/DTD/sodipodi-0.dtd"
   xmlns:inkscape="http://www.inkscape.org/namespaces/inkscape"
   width="10cm"
   height="10cm"
   viewBox="0 0 100 99.999997"
   version="1.1"
   id="svg8"
   sodipodi:docname="esun.svg"
   inkscape:version="0.92.3 (2405546, 2018-03-11)">
  <defs
     id="defs2" />
  <sodipodi:namedview
     id="base"
     pagecolor="#ffffff"
     bordercolor="#666666"
     borderopacity="1.0"
     inkscape:pageopacity="0.0"
     inkscape:pageshadow="2"
     inkscape:zoom="1"
     inkscape:cx="175.50186"
     inkscape:cy="160.37856"
     inkscape:document-units="cm"
     inkscape:current-layer="layer1"
     showgrid="true"
     units="cm"
     inkscape:window-width="882"
     inkscape:window-height="707"
     inkscape:window-x="784"
     inkscape:window-y="204"
     inkscape:window-maximized="0"
     inkscape:snap-nodes="false">
    <inkscape:grid
       type="xygrid"
       id="grid815"
       units="cm"
       spacingx="9.9999998"
       spacingy="9.9999998" />
  </sodipodi:namedview>
  <metadata
     id="metadata5">
    <rdf:RDF>
      <cc:Work
         rdf:about="">
        <dc:format>image/svg+xml</dc:format>
        <dc:type
           rdf:resource="http://purl.org/dc/dcmitype/StillImage" />
        <dc:title></dc:title>
      </cc:Work>
    </rdf:RDF>
  </metadata>
  <g
     inkscape:label="Layer 1"
     inkscape:groupmode="layer"
     id="layer1"
     transform="translate(0,-197.00002)">
    <path
       style="opacity:1;fill:#020900;fill-opacity:1;stroke:none;stroke-width:1;stroke-linecap:butt;stroke-linejoin:round;stroke-miterlimit:4;stroke-dasharray:none;stroke-opacity:1"
       id="path1669"
       d="m 28.533397,217.31068 c -0.03578,-0.13932 -0.02701,-0.10396 0.01045,0.005 0.03428,0.088 0.07488,0.17378 0.116427,0.2587 0.11666,0.22442 0.242578,0.44399 0.366842,0.66428 0.139216,0.25612 0.305059,0.49493 0.483629,0.72473 0.257604,0.32486 0.543068,0.62568 0.833345,0.92114 0.370615,0.37485 0.771266,0.71764 1.179986,1.04981 0.470157,0.38256 0.984311,0.70399 1.503323,1.0148 0.732586,0.42817 1.488033,0.81543 2.249059,1.19007 0.848286,0.42054 1.730393,0.76414 2.627841,1.06305 0.962758,0.31247 1.956512,0.50627 2.955555,0.65712 0.987481,0.14934 1.984298,0.16674 2.979674,0.12025 0.97568,-0.0554 1.937406,-0.22902 2.886927,-0.45262 0.924679,-0.21911 1.809821,-0.56094 2.66872,-0.96244 0.881438,-0.42274 1.695082,-0.9652 2.48504,-1.53697 0.764792,-0.56041 1.475836,-1.18782 2.166589,-1.83588 0.594053,-0.55367 1.138957,-1.15497 1.650571,-1.78467 0.405463,-0.50402 0.770078,-1.03842 1.093208,-1.59842 0.209772,-0.36739 0.372999,-0.75733 0.495702,-1.16157 0.03967,-0.18514 0.117287,-0.38843 0.08123,-0.5812 -0.04909,-0.0148 -0.01241,0.0939 0.0013,0.14677 0.03818,0.13379 0.118494,0.24754 0.209154,0.35066 0.118909,0.10489 0.03014,0.07 -0.07984,0.0531 -0.336336,-0.0548 -0.677516,-0.0654 -1.017543,-0.0717 -0.447482,-0.005 -0.893194,0.0349 -1.335651,0.0983 -0.428077,0.0619 -0.842873,0.18239 -1.248675,0.32902 -0.415549,0.15393 -0.803391,0.36817 -1.180475,0.59857 -0.392637,0.24142 -0.746133,0.53582 -1.077577,0.8544 -0.409448,0.40672 -0.770207,0.85794 -1.11924,1.31642 -0.392094,0.51719 -0.725019,1.07421 -1.040183,1.64041 -0.360931,0.65692 -0.665967,1.34173 -0.953556,2.03321 -0.325725,0.7997 -0.611409,1.61478 -0.888484,2.43234 -0.28099,0.84102 -0.538369,1.6896 -0.78886,2.54011 -0.239234,0.81201 -0.452663,1.63118 -0.655254,2.45298 -0.208354,0.85029 -0.397655,1.70503 -0.576173,2.56203 -0.179342,0.87011 -0.341288,1.74369 -0.497054,2.6183 -0.159625,0.90508 -0.306938,1.81228 -0.454009,2.71947 -0.151286,0.9538 -0.306678,1.90692 -0.469426,2.85883 -0.166664,0.96091 -0.337437,1.9211 -0.505862,2.8817 -0.17625,1.01201 -0.355823,2.02343 -0.534747,3.03497 -0.189214,1.08667 -0.379071,2.17322 -0.574675,3.25876 -0.211397,1.17503 -0.445254,2.34585 -0.69818,3.5126 -0.262321,1.19965 -0.581324,2.38569 -0.914204,3.56735 -0.325017,1.15473 -0.701347,2.29375 -1.097479,3.42574 -0.388797,1.11206 -0.836506,2.20167 -1.311947,3.27908 -0.462481,1.04286 -0.975685,2.06169 -1.521806,3.06293 -0.560065,1.02683 -1.216988,1.99387 -1.920883,2.92627 -0.72005,0.95062 -1.561584,1.79359 -2.452815,2.58181 -0.904147,0.78706 -1.913823,1.43261 -2.955144,2.01989 -1.007697,0.56236 -2.079313,0.98818 -3.175474,1.3412 -1.084766,0.34552 -2.210514,0.47514 -3.343758,0.48912 -1.111063,0.004 -2.173068,-0.27314 -3.194394,-0.68747 -1.058414,-0.44871 -1.900084,-1.19506 -2.627106,-2.06738 -0.675701,-0.85465 -1.073426,-1.8547 -1.355478,-2.8955 -0.277506,-1.11433 -0.235844,-2.25188 -0.07955,-3.37851 0.171752,-1.09716 0.573586,-2.13044 1.042723,-3.13001 0.445574,-0.93138 1.034117,-1.77806 1.678087,-2.58085 0.636613,-0.77922 1.391695,-1.44341 2.180513,-2.06264 0.814175,-0.63828 1.72438,-1.12386 2.668628,-1.5369 0.978266,-0.41845 2.01475,-0.64827 3.063075,-0.80144 1.112893,-0.15299 2.232271,-0.0893 3.342039,0.0473 1.117293,0.15057 2.20472,0.44908 3.275441,0.79396 1.121442,0.37088 2.190147,0.87584 3.244625,1.40326 1.061228,0.53607 2.086282,1.1387 3.093652,1.76907 1.056417,0.67064 2.061829,1.41641 3.065314,2.16262 0.999035,0.74486 1.992432,1.49722 2.985852,2.24954 0.983715,0.75047 1.984229,1.47815 3.003018,2.18017 0.953389,0.66454 1.967384,1.22996 3.017449,1.72471 1.088538,0.50035 2.238748,0.83565 3.400533,1.11468 1.221804,0.28472 2.469179,0.41464 3.72006,0.47093 1.227974,0.0438 2.449828,-0.0936 3.663953,-0.25974 1.187892,-0.17864 2.370272,-0.39173 3.553111,-0.6007 0.931243,-0.16098 1.861862,-0.32549 2.782667,-0.53906 0.604729,-0.13724 1.189472,-0.34078 1.757625,-0.58685 0.460483,-0.20671 0.902456,-0.4512 1.338998,-0.70377 0.351179,-0.20416 0.694169,-0.42189 1.032288,-0.6469 0.275997,-0.18661 0.545126,-0.38277 0.823179,-0.56636 0.08102,-0.0485 0.162047,-0.097 0.243068,-0.14549 4.2213,-2.41704 7.639518,3.55277 3.418218,5.96982 v 0 c 0.02939,-0.0189 0.05879,-0.0379 0.08818,-0.0568 -0.25818,0.17259 -0.506793,0.36056 -0.767599,0.52985 -0.458851,0.30415 -0.923848,0.59912 -1.400394,0.87494 -0.677278,0.38976 -1.365237,0.76271 -2.082467,1.07465 -0.942877,0.39727 -1.909119,0.73585 -2.908913,0.96099 -1.036014,0.23687 -2.080395,0.43136 -3.12809,0.60925 -1.273201,0.22493 -2.54595,0.45425 -3.825118,0.64316 -1.630281,0.21961 -3.271795,0.38433 -4.919493,0.31422 -1.686856,-0.0851 -3.369072,-0.26473 -5.01519,-0.65788 -1.617962,-0.39722 -3.217564,-0.87777 -4.729996,-1.58696 -1.377162,-0.65964 -2.714633,-1.39767 -3.96784,-2.27384 -1.101937,-0.76064 -2.185921,-1.54649 -3.250322,-2.35897 -0.977505,-0.74026 -1.954958,-1.48061 -2.937951,-2.21359 -0.857367,-0.63768 -1.714228,-1.27802 -2.614674,-1.85447 -0.820896,-0.51607 -1.657154,-1.00802 -2.521968,-1.4475 -0.745019,-0.37454 -1.496984,-0.74078 -2.287628,-1.01053 -0.661265,-0.21776 -1.332301,-0.40995 -2.022332,-0.51283 -0.503327,-0.0691 -1.011158,-0.11668 -1.518605,-0.0577 -0.443719,0.0551 -0.883409,0.1417 -1.299977,0.30954 -0.410195,0.16787 -0.803158,0.37196 -1.155874,0.64328 -0.380943,0.29216 -0.750992,0.60071 -1.063524,0.96739 -0.309694,0.37337 -0.592768,0.7683 -0.809681,1.20392 -0.187041,0.3822 -0.363157,0.77317 -0.451135,1.19189 -0.04114,0.21846 -0.07827,0.44057 -0.05754,0.66363 0.01273,0.0993 0.04378,0.19479 0.05846,0.29276 -0.01144,0.001 -0.124036,-0.009 -0.05433,0.0354 0.146607,0.0941 0.314327,0.13135 0.48737,0.14061 0.434757,0.0124 0.865454,-0.0428 1.283181,-0.16727 0.65545,-0.20192 1.292748,-0.4576 1.895531,-0.78693 0.624613,-0.34514 1.231845,-0.72371 1.776987,-1.18716 0.55017,-0.47654 1.066282,-0.9904 1.510086,-1.56935 0.502483,-0.65745 0.966838,-1.34283 1.365618,-2.06888 0.455713,-0.8307 0.879946,-1.67816 1.265679,-2.54377 0.403318,-0.9105 0.781992,-1.83181 1.111401,-2.77194 0.349705,-0.9973 0.682069,-2.00076 0.968809,-3.01825 0.295381,-1.04682 0.579363,-2.09731 0.812673,-3.16 0.23636,-1.08716 0.453255,-2.17846 0.650674,-3.27338 0.194341,-1.07824 0.382738,-2.15754 0.570769,-3.23689 0.178327,-1.00815 0.357302,-2.01618 0.532956,-3.0248 0.166767,-0.95113 0.335812,-1.90185 0.500938,-2.85327 0.159494,-0.93235 0.311388,-1.86594 0.45965,-2.80014 0.152821,-0.94257 0.306004,-1.88512 0.472049,-2.82547 0.167708,-0.94053 0.341958,-1.87998 0.535201,-2.81564 0.195895,-0.93856 0.403114,-1.87476 0.631685,-2.80596 0.227491,-0.92098 0.466998,-1.83904 0.735367,-2.74907 0.27694,-0.93954 0.561774,-1.87686 0.873001,-2.80571 0.327998,-0.9661 0.667398,-1.92883 1.054973,-2.87295 0.39102,-0.93374 0.807447,-1.85759 1.299231,-2.74342 0.478041,-0.85037 0.986181,-1.68466 1.579697,-2.46061 0.578866,-0.75365 1.183199,-1.49008 1.870951,-2.1483 0.694981,-0.64639 1.430025,-1.2489 2.246104,-1.73845 0.782336,-0.46591 1.589738,-0.89138 2.450835,-1.19479 0.843801,-0.29084 1.704501,-0.53207 2.591088,-0.652 0.803701,-0.10673 1.612466,-0.17686 2.424213,-0.1596 0.801849,0.0205 1.605452,0.0701 2.391183,0.24273 0.939294,0.22609 1.852366,0.54619 2.639848,1.12371 0.815795,0.63265 1.52214,1.37283 1.957266,2.32391 0.37759,0.88213 0.63015,1.80064 0.6189,2.76914 -0.02074,0.89051 -0.13176,1.77366 -0.410498,2.62388 -0.288039,0.87822 -0.639623,1.73413 -1.108544,2.53319 -0.509788,0.86397 -1.068533,1.69792 -1.703218,2.47613 -0.70871,0.86382 -1.458148,1.69318 -2.277163,2.45476 -0.907086,0.84704 -1.84223,1.66521 -2.847265,2.39551 -1.150157,0.82493 -2.339298,1.5992 -3.623996,2.20131 -1.288322,0.58881 -2.612474,1.09654 -3.995766,1.41687 -1.364946,0.31296 -2.746698,0.55601 -4.148138,0.62411 -1.442418,0.0573 -2.887093,0.0274 -4.316833,-0.19384 -1.388007,-0.216 -2.767896,-0.49336 -4.10369,-0.93622 -1.186312,-0.40175 -2.355069,-0.8548 -3.477485,-1.4136 -0.932005,-0.4603 -1.857134,-0.93614 -2.752497,-1.46501 -0.798695,-0.48202 -1.584452,-0.98795 -2.307143,-1.58028 -0.605758,-0.49591 -1.198561,-1.00847 -1.747035,-1.56801 -0.48719,-0.49927 -0.962622,-1.01107 -1.389014,-1.56409 -0.365242,-0.48357 -0.71052,-0.98188 -1.002999,-1.5135 -0.201177,-0.35677 -0.404593,-0.71279 -0.583638,-1.08138 -0.145139,-0.30674 -0.284523,-0.6167 -0.396777,-0.93728 -0.07794,-0.22457 -0.153974,-0.45023 -0.210281,-0.6814 -1.136228,-4.72974 5.552637,-6.33661 6.688864,-1.60686 z"
       inkscape:connector-curvature="0" />
  </g>
</svg>
