<svg viewBox="0 0 100 100"><path style="opacity:1;fill:#020900;fill-opacity:1;stroke:none;stroke-width:1;stroke-linecap:butt;stroke-linejoin:round;stroke-miterlimit:4;stroke-dasharray:none;stroke-opacity:1" d="M44.25 217.09q-.277-.028-.556-.046a9 9 0 0 0-.702-.023q-.57.017-1.143.05a6.3 6.3 0 0 0-1.106.147 9 9 0 0 0-1.219.39c-.53.206-1.045.449-1.557.695-.616.302-1.22.626-1.82.959q-1.026.576-2.036 1.178-1.04.609-2.026 1.3a23.8 23.8 0 0 0-3.832 3.472c-.596.673-1.12 1.403-1.616 2.151-.538.816-.993 1.68-1.425 2.555-.46.94-.858 1.91-1.238 2.884-.38.987-.71 1.993-1.025 3.002a45 45 0 0 0-.813 3.001 32 32 0 0 0-.54 2.986 28 28 0 0 0-.23 3.001 37 37 0 0 0 .069 3.162c.063 1.03.207 2.053.374 3.07.177 1.039.4 2.068.641 3.093.244 1.018.528 2.025.825 3.028.284.963.612 1.913.96 2.855a41 41 0 0 0 1.13 2.71 34 34 0 0 0 1.336 2.546c.467.826.98 1.624 1.52 2.403a31 31 0 0 0 1.687 2.152 27 27 0 0 0 1.863 1.955 36 36 0 0 0 2.04 1.792 33 33 0 0 0 2.12 1.598c.737.51 1.496.987 2.262 1.453.745.456 1.514.87 2.296 1.258a26 26 0 0 0 2.382 1c.823.306 1.67.537 2.522.748.895.222 1.802.385 2.714.521a32 32 0 0 0 2.856.264c.99.05 1.982.05 2.974.024a27 27 0 0 0 2.845-.24 21 21 0 0 0 2.693-.569 20.5 20.5 0 0 0 2.607-.94c.888-.39 1.738-.86 2.572-1.353.846-.501 1.64-1.081 2.412-1.688a22 22 0 0 0 2.163-1.99c.684-.708 1.284-1.486 1.844-2.294.609-.89 1.102-1.85 1.565-2.823.514-1.099.944-2.233 1.354-3.374a49 49 0 0 0 1.086-3.527c.312-1.158.54-2.336.742-3.517.2-1.214.338-2.437.455-3.662.107-1.147.15-2.3.179-3.45.029-1.126 0-2.25-.055-3.375a44 44 0 0 0-.296-3.252 33 33 0 0 0-.528-3.007 31 31 0 0 0-.731-2.678 31 31 0 0 0-.872-2.352 36 36 0 0 0-.983-2.159 37 37 0 0 0-1.047-1.94 32 32 0 0 0-2.203-3.263 31 31 0 0 0-1.146-1.424 19 19 0 0 0-1.048-1.128c-.38-.372-.768-.734-1.153-1.1q-.483-.466-.999-.898a11 11 0 0 0-.895-.667 32 32 0 0 0-1.047-.662q-.574-.35-1.159-.682-.575-.329-1.159-.643a19 19 0 0 0-1.054-.527q-.54-.249-1.08-.49l-.985-.433a31 31 0 0 0-.801-.344 26 26 0 0 0-.702-.283 43 43 0 0 0-.672-.247c-.288-.101-.573-.21-.858-.319q-.344-.13-.691-.25a15 15 0 0 0-.686-.213q-.424-.121-.85-.238a91 91 0 0 1-.925-.256 23 23 0 0 0-1.593-.395 27 27 0 0 0-.754-.15l-.78-.142q-.348-.062-.698-.118l-.63-.1-1.01-.154-.458-.067a11 11 0 0 0-.65-.085c-.07-.009-.425-.042-.128-.016.8-.02.352.028 1.335-.21-4.524 1.786-7.05-4.612-2.526-6.398 1.116-.29.6-.225 1.538-.262q.279.018.556.05.216.025.432.053.235.03.47.066l.407.06.51.076 1.253.196q.42.067.837.142l.805.146a35 35 0 0 1 1.94.417q.507.128 1.01.27.435.123.87.24.467.128.93.26a22 22 0 0 1 1.953.657q.357.138.718.266.415.149.826.304.433.168.86.348.477.197.95.407l1.014.445q.6.269 1.196.544c.469.221.934.448 1.389.697a57 57 0 0 1 2.642 1.511c.453.278.904.558 1.344.855.492.338.974.69 1.43 1.073q.676.567 1.314 1.179c.43.41.865.814 1.287 1.232.49.492.968.997 1.416 1.528.48.564.947 1.138 1.392 1.73a39 39 0 0 1 2.68 3.983c.441.768.865 1.546 1.26 2.34.415.849.812 1.707 1.172 2.58.39.954.76 1.917 1.07 2.9.338 1.082.648 2.173.89 3.282.259 1.199.486 2.405.633 3.624.153 1.25.28 2.504.34 3.763.06 1.29.093 2.581.06 3.872a58 58 0 0 1-.208 3.939 61 61 0 0 1-.523 4.166c-.24 1.4-.514 2.794-.885 4.165a56 56 0 0 1-1.25 4.045c-.489 1.358-1.006 2.708-1.621 4.015-.628 1.307-1.302 2.594-2.129 3.79-.776 1.107-1.606 2.178-2.55 3.15-.903.926-1.842 1.817-2.86 2.616-1.012.79-2.052 1.544-3.16 2.197-1.092.642-2.205 1.25-3.368 1.755-1.145.486-2.31.926-3.51 1.253-1.183.317-2.378.589-3.594.747a34 34 0 0 1-3.567.297c-1.176.029-2.354.03-3.53-.032a39 39 0 0 1-3.494-.33 37 37 0 0 1-3.352-.649c-1.103-.276-2.2-.58-3.266-.98-1.03-.385-2.05-.796-3.036-1.283a37 37 0 0 1-2.812-1.542 52 52 0 0 1-2.633-1.695 40 40 0 0 1-2.551-1.927 43 43 0 0 1-2.449-2.158c-.809-.785-1.6-1.59-2.328-2.452a38 38 0 0 1-2.09-2.678 38 38 0 0 1-1.846-2.922c-.574-1.012-1.13-2.034-1.615-3.092a48 48 0 0 1-1.323-3.18 52 52 0 0 1-1.103-3.286 67 67 0 0 1-.924-3.402 57 57 0 0 1-.733-3.557c-.205-1.252-.378-2.51-.453-3.778a44 44 0 0 1-.078-3.784c.04-1.246.12-2.492.293-3.728.17-1.22.377-2.435.661-3.634.277-1.162.582-2.316.938-3.456.363-1.162.744-2.32 1.184-3.455.454-1.162.931-2.316 1.481-3.436.564-1.137 1.163-2.258 1.865-3.316.681-1.02 1.401-2.014 2.219-2.93a30 30 0 0 1 2.43-2.442c.829-.73 1.678-1.438 2.582-2.076a37 37 0 0 1 2.45-1.573q1.103-.657 2.222-1.285c.715-.395 1.435-.78 2.169-1.138.69-.332 1.387-.655 2.103-.93.734-.277 1.48-.529 2.25-.69a13.6 13.6 0 0 1 2.143-.284c.491-.026.983-.05 1.475-.059.4-.001.8.009 1.198.038q.348.022.694.058c4.846.422 4.249 7.275-.597 6.853" transform="translate(0 -197)"/></svg>
