<?xml version="1.0" encoding="UTF-8" standalone="no"?>
<!-- Created with Inkscape (http://www.inkscape.org/) -->

<svg
   xmlns:dc="http://purl.org/dc/elements/1.1/"
   xmlns:cc="http://creativecommons.org/ns#"
   xmlns:rdf="http://www.w3.org/1999/02/22-rdf-syntax-ns#"
   xmlns:svg="http://www.w3.org/2000/svg"
   xmlns="http://www.w3.org/2000/svg"
   xmlns:sodipodi="http://sodipodi.sourceforge.net/DTD/sodipodi-0.dtd"
   xmlns:inkscape="http://www.inkscape.org/namespaces/inkscape"
   width="10cm"
   height="10cm"
   viewBox="0 0 100 99.999997"
   version="1.1"
   id="svg8"
   sodipodi:docname="ijo.svg"
   inkscape:version="0.92.3 (2405546, 2018-03-11)">
  <defs
     id="defs2" />
  <sodipodi:namedview
     id="base"
     pagecolor="#ffffff"
     bordercolor="#666666"
     borderopacity="1.0"
     inkscape:pageopacity="0.0"
     inkscape:pageshadow="2"
     inkscape:zoom="1"
     inkscape:cx="125.50186"
     inkscape:cy="200.50542"
     inkscape:document-units="cm"
     inkscape:current-layer="layer1"
     showgrid="true"
     units="cm"
     inkscape:window-width="1920"
     inkscape:window-height="1017"
     inkscape:window-x="-8"
     inkscape:window-y="-8"
     inkscape:window-maximized="1">
    <inkscape:grid
       type="xygrid"
       id="grid815"
       units="cm"
       spacingx="9.9999998"
       spacingy="9.9999998" />
  </sodipodi:namedview>
  <metadata
     id="metadata5">
    <rdf:RDF>
      <cc:Work
         rdf:about="">
        <dc:format>image/svg+xml</dc:format>
        <dc:type
           rdf:resource="http://purl.org/dc/dcmitype/StillImage" />
        <dc:title></dc:title>
      </cc:Work>
    </rdf:RDF>
  </metadata>
  <g
     inkscape:label="Layer 1"
     inkscape:groupmode="layer"
     id="layer1"
     transform="translate(0,-197.00002)">
    <path
       style="opacity:1;fill:#020900;fill-opacity:1;stroke:none;stroke-width:1;stroke-linecap:butt;stroke-linejoin:round;stroke-miterlimit:4;stroke-dasharray:none;stroke-opacity:1"
       id="path1039"
       d="m 44.249943,217.09084 c -0.1851,-0.0197 -0.37061,-0.0344 -0.556329,-0.0467 -0.233487,-0.0166 -0.467111,-0.0256 -0.701151,-0.023 -0.38131,0.01 -0.762315,0.0287 -1.143167,0.0493 -0.373388,0.0146 -0.741966,0.0676 -1.106371,0.14779 -0.417481,0.0925 -0.819859,0.23731 -1.218443,0.38968 -0.530223,0.20627 -1.045102,0.44873 -1.557322,0.69559 -0.616132,0.30176 -1.220943,0.62576 -1.820944,0.95822 -0.683522,0.38411 -1.361647,0.77774 -2.035403,1.17871 -0.691885,0.40705 -1.36892,0.83771 -2.02588,1.29891 -0.689615,0.49034 -1.338014,1.03438 -1.971101,1.5948 -0.659971,0.58587 -1.273622,1.21991 -1.861013,1.8777 -0.595765,0.67294 -1.119854,1.40323 -1.615935,2.15129 -0.537489,0.81562 -0.993257,1.67982 -1.425181,2.55465 -0.459014,0.94097 -0.857464,1.90937 -1.237398,2.8844 -0.380835,0.98707 -0.710471,1.99252 -1.025053,3.0023 -0.308217,0.98994 -0.573609,1.99221 -0.81303,3.00077 -0.232018,0.98535 -0.401496,1.98343 -0.539335,2.98581 -0.137511,0.99522 -0.200925,1.99778 -0.231533,3.0013 -0.02776,1.05451 0.0065,2.10893 0.06942,3.16149 0.06312,1.03043 0.20693,2.05293 0.374502,3.07079 0.176424,1.03829 0.399266,2.0677 0.640901,3.09251 0.244072,1.01746 0.527658,2.02479 0.824514,3.02793 0.284394,0.96331 0.611928,1.91278 0.959936,2.8547 0.341061,0.91774 0.723492,1.81896 1.129867,2.70944 0.401525,0.87154 0.862383,1.71331 1.33636,2.54699 0.467566,0.82539 0.97948,1.62369 1.520285,2.40263 0.525262,0.74571 1.097095,1.45673 1.686507,2.15228 0.582901,0.68744 1.216451,1.32872 1.863696,1.95502 0.653577,0.62658 1.341258,1.21571 2.039596,1.79144 0.681863,0.56519 1.394349,1.09103 2.119776,1.59846 0.737121,0.51036 1.496576,0.98712 2.262354,1.45296 0.744863,0.45599 1.513639,0.87005 2.29598,1.25751 0.773845,0.37966 1.574514,0.69941 2.381753,0.99988 0.823121,0.30625 1.670574,0.53742 2.522143,0.74857 0.895011,0.22156 1.802453,0.38476 2.713866,0.52103 0.946954,0.13761 1.901176,0.21153 2.856079,0.26446 0.990518,0.0505 1.982459,0.0492 2.97362,0.024 0.952712,-0.0252 1.901296,-0.11657 2.845573,-0.24131 0.911354,-0.12077 1.80718,-0.32691 2.69332,-0.56777 0.892122,-0.24612 1.756659,-0.57623 2.606419,-0.9401 0.888193,-0.39086 1.737836,-0.86035 2.572437,-1.35352 0.845881,-0.50086 1.639171,-1.08121 2.411487,-1.68749 0.770747,-0.60833 1.481378,-1.28575 2.163286,-1.99074 0.683787,-0.70733 1.284441,-1.48577 1.843805,-2.29323 0.608806,-0.89094 1.102037,-1.85106 1.565293,-2.82332 0.513527,-1.09874 0.944274,-2.23295 1.353728,-3.3737 0.412062,-1.15994 0.763296,-2.33993 1.086527,-3.52728 0.311676,-1.15809 0.539758,-2.33581 0.741601,-3.51722 0.20039,-1.21411 0.338222,-2.43723 0.455464,-3.66178 0.106333,-1.1474 0.149979,-2.29905 0.178147,-3.4506 0.02916,-1.12519 -1.86e-4,-2.25021 -0.05429,-3.37408 -0.05182,-1.08817 -0.162758,-2.17181 -0.295952,-3.25262 -0.122365,-1.01112 -0.312253,-2.01165 -0.5286,-3.00631 -0.198689,-0.90482 -0.452835,-1.79565 -0.730819,-2.67886 -0.253151,-0.79738 -0.554424,-1.57794 -0.871855,-2.35156 -0.302514,-0.73092 -0.634087,-1.44911 -0.982795,-2.15898 -0.328658,-0.65751 -0.679985,-1.3032 -1.046911,-1.94003 -0.337532,-0.58078 -0.703623,-1.14408 -1.077034,-1.70221 -0.357045,-0.53314 -0.738897,-1.04891 -1.126064,-1.56037 -0.366874,-0.48702 -0.751354,-0.96024 -1.146593,-1.4244 -0.331375,-0.39241 -0.685173,-0.76465 -1.047936,-1.12792 -0.379275,-0.37171 -0.76749,-0.73416 -1.152469,-1.09994 -0.322763,-0.31074 -0.655233,-0.61087 -0.998879,-0.89829 -0.285705,-0.23879 -0.587639,-0.45668 -0.895075,-0.66633 -0.343736,-0.22919 -0.695026,-0.44684 -1.04739,-0.66244 -0.381899,-0.2348 -0.770048,-0.45918 -1.158713,-0.68252 -0.38312,-0.22002 -0.770435,-0.43249 -1.159214,-0.64229 -0.344691,-0.18874 -0.698294,-0.36017 -1.053751,-0.52746 -0.359116,-0.16576 -0.719537,-0.32871 -1.080386,-0.49066 -0.328007,-0.14427 -0.656791,-0.28676 -0.984414,-0.43192 -0.265303,-0.11918 -0.533249,-0.23221 -0.801812,-0.34379 -0.232579,-0.0977 -0.466143,-0.19303 -0.701516,-0.28385 -0.223216,-0.0844 -0.447495,-0.16603 -0.67209,-0.24673 -0.287909,-0.10085 -0.573121,-0.20907 -0.857877,-0.31845 -0.229084,-0.0873 -0.459692,-0.17051 -0.691493,-0.25027 -0.226949,-0.0767 -0.455682,-0.14773 -0.686105,-0.21321 -0.282453,-0.0813 -0.565536,-0.16051 -0.849116,-0.23784 -0.308843,-0.0835 -0.617167,-0.16881 -0.925108,-0.25557 -0.273592,-0.0775 -0.54818,-0.15139 -0.823979,-0.22063 -0.255278,-0.0635 -0.512183,-0.12004 -0.76944,-0.17481 -0.250441,-0.054 -0.501811,-0.10336 -0.753652,-0.15027 -0.260236,-0.0462 -0.520152,-0.0942 -0.780145,-0.14172 -0.232077,-0.0424 -0.464995,-0.08 -0.697879,-0.11766 -0.210039,-0.0341 -0.420179,-0.0675 -0.630515,-0.0997 -0.190569,-0.0298 -0.381151,-0.0595 -0.57178,-0.0889 -0.145894,-0.0226 -0.291807,-0.0451 -0.43796,-0.066 -0.152889,-0.0213 -0.305683,-0.0433 -0.458327,-0.0664 -0.107788,-0.017 -0.215778,-0.0325 -0.324009,-0.0463 -0.108759,-0.0139 -0.217656,-0.0266 -0.326596,-0.039 -0.06856,-0.009 -0.423786,-0.0419 -0.126878,-0.0158 0.79984,-0.0196 0.351898,0.0281 1.334997,-0.2102 -4.524412,1.78639 -7.050738,-4.6121 -2.526326,-6.39848 v 0 c 1.115851,-0.28908 0.599728,-0.22434 1.538399,-0.26173 0.185771,0.0131 0.371181,0.028 0.55604,0.051 0.144026,0.0164 0.287996,0.0333 0.431776,0.0517 0.156718,0.0204 0.313227,0.0422 0.46936,0.0667 0.135599,0.0205 0.271362,0.0399 0.407181,0.0588 0.170508,0.0245 0.340812,0.0503 0.511019,0.0768 0.188084,0.029 0.376129,0.0583 0.56415,0.0877 0.229415,0.0351 0.458642,0.0715 0.687734,0.10869 0.279508,0.0452 0.558993,0.0907 0.837509,0.14172 0.26815,0.049 0.536247,0.0984 0.804614,0.14624 0.309316,0.0578 0.618109,0.11845 0.925751,0.18468 0.339346,0.0724 0.678137,0.14761 1.014782,0.23183 0.337839,0.0853 0.674492,0.17503 1.009693,0.27016 0.289716,0.0816 0.579779,0.16194 0.87037,0.2404 0.310785,0.0849 0.621094,0.17147 0.930675,0.26062 0.349073,0.10029 0.696143,0.20729 1.039836,0.32483 0.305747,0.10588 0.610344,0.21511 0.912506,0.33087 0.238188,0.0915 0.476639,0.18239 0.71764,0.26632 0.276217,0.0993 0.552048,0.19973 0.826339,0.30426 0.288345,0.11168 0.575013,0.22751 0.860036,0.34742 0.317947,0.13213 0.635034,0.26631 0.949269,0.40709 0.33768,0.14968 0.676801,0.29605 1.014624,0.4454 0.399571,0.17941 0.798772,0.35971 1.196155,0.54391 0.468304,0.221 0.933741,0.44827 1.388367,0.69649 0.442534,0.23894 0.88334,0.48106 1.319461,0.73156 0.443947,0.2552 0.887047,0.51199 1.323303,0.7802 0.452641,0.27737 0.903774,0.55758 1.343861,0.85462 0.491373,0.33782 0.973627,0.68916 1.43039,1.07304 0.450085,0.37906 0.889212,0.77066 1.313048,1.17901 0.430554,0.40912 0.865037,0.81424 1.287481,1.23179 0.489807,0.49251 0.967621,0.99701 1.416045,1.52785 0.478917,0.56424 0.946258,1.13824 1.391433,1.72963 0.467505,0.61846 0.927743,1.24269 1.35873,1.88738 0.458698,0.68671 0.907349,1.38044 1.321147,2.09541 0.441452,0.76863 0.865693,1.5471 1.260231,2.341 0.415608,0.84875 0.811991,1.70685 1.1723,2.58073 0.389877,0.95356 0.759071,1.91595 1.06938,2.89879 0.338802,1.08217 0.648653,2.17356 0.890442,3.282 0.259014,1.19934 0.486235,2.40572 0.633309,3.62454 0.153075,1.25052 0.27998,2.50435 0.339424,3.76327 0.06103,1.28968 0.09369,2.58069 0.06,3.87182 -0.03279,1.31453 -0.08482,2.62909 -0.207603,3.93877 -0.134374,1.39338 -0.292581,2.78506 -0.522872,4.16629 -0.240707,1.39932 -0.51386,2.7939 -0.885214,4.16527 -0.372115,1.36128 -0.775417,2.71436 -1.249637,4.04404 -0.489138,1.3585 -1.005973,2.70828 -1.62178,4.01535 -0.627525,1.30727 -1.301948,2.59436 -2.128205,3.78931 -0.77651,1.1082 -1.606217,2.17904 -2.551197,3.15058 -0.90201,0.92611 -1.840696,1.81694 -2.858923,2.61583 -1.01196,0.78997 -2.052183,1.54471 -3.159485,2.19723 -1.092362,0.64188 -2.205247,1.25106 -3.368913,1.75553 -1.144776,0.48541 -2.30909,0.92596 -3.510312,1.25272 -1.182629,0.31704 -2.377795,0.58874 -3.593269,0.74707 -1.183907,0.15333 -2.3729,0.26752 -3.567076,0.29719 -1.176403,0.0283 -2.353709,0.0293 -3.529229,-0.0327 -1.168593,-0.0664 -2.336234,-0.15936 -3.494818,-0.33037 -1.12567,-0.17057 -2.246635,-0.37309 -3.352022,-0.64828 -1.103013,-0.27578 -2.199679,-0.58048 -3.265612,-0.97916 -1.029594,-0.38539 -2.050182,-0.79667 -3.036554,-1.2839 -0.957381,-0.47692 -1.899928,-0.98305 -2.812222,-1.54223 -0.891349,-0.54306 -1.775102,-1.09919 -2.632466,-1.69493 -0.872707,-0.61231 -1.730322,-1.24611 -2.551285,-1.92691 -0.8388,-0.693 -1.664379,-1.40258 -2.448607,-2.15741 -0.809151,-0.78546 -1.599899,-1.59077 -2.328501,-2.45249 -0.730609,-0.86542 -1.43987,-1.74957 -2.089404,-2.67811 -0.655232,-0.94827 -1.278824,-1.91785 -1.846407,-2.92158 -0.574079,-1.01178 -1.129822,-2.03465 -1.614915,-3.09273 -0.475403,-1.04541 -0.924462,-2.10269 -1.323487,-3.17991 -0.399458,-1.08416 -0.776022,-2.17677 -1.102848,-3.28531 -0.332949,-1.12709 -0.650804,-2.25894 -0.923815,-3.40226 -0.27696,-1.17856 -0.532379,-2.36242 -0.733413,-3.5566 -0.204274,-1.25242 -0.377454,-2.51068 -0.453068,-3.77834 -0.07329,-1.25996 -0.11363,-2.52209 -0.07786,-3.78423 0.04082,-1.24637 0.120951,-2.49161 0.293228,-3.72757 0.170233,-1.22015 0.376921,-2.43536 0.661278,-3.6347 0.277212,-1.1612 0.582151,-2.31569 0.937944,-3.45557 0.362872,-1.16224 0.743968,-2.3192 1.183767,-3.45499 0.45411,-1.16206 0.931594,-2.31563 1.48122,-3.43637 0.564204,-1.1365 1.162585,-2.2573 1.864821,-3.31583 0.681395,-1.01929 1.40149,-2.01372 2.219081,-2.92953 0.768418,-0.85444 1.568024,-1.68076 2.429864,-2.4422 0.829006,-0.73043 1.678588,-1.43862 2.58233,-2.0758 0.796785,-0.55541 1.612808,-1.08162 2.45069,-1.57324 0.735232,-0.43719 1.474912,-0.86692 2.221053,-1.28526 0.714584,-0.39514 1.434759,-0.78046 2.168983,-1.13811 0.690853,-0.33212 1.386734,-0.6551 2.102866,-0.92972 0.734652,-0.27684 1.47978,-0.52862 2.249371,-0.69069 0.707474,-0.14437 1.421355,-0.25271 2.143834,-0.28325 0.491397,-0.0263 0.983043,-0.051 1.475137,-0.0591 0.399819,-0.001 0.799337,0.009 1.19821,0.0383 0.231444,0.0156 0.462836,0.0327 0.693529,0.0573 4.845957,0.42209 4.249041,7.27531 -0.596916,6.85322 z"
       inkscape:connector-curvature="0" />
  </g>
</svg>
