<svg viewBox="0 0 100 100"><path style="opacity:1;fill:#020900;fill-opacity:1;stroke:none;stroke-width:1;stroke-linecap:butt;stroke-linejoin:round;stroke-miterlimit:4;stroke-dasharray:none;stroke-opacity:1" d="m11.77 252.97.396-.343q.318-.28.642-.55c.214-.174.42-.358.626-.541q.38-.337.754-.682.425-.395.843-.795c.3-.288.589-.587.879-.884.323-.328.63-.67.938-1.012q.545-.612 1.085-1.228c.39-.44.784-.875 1.17-1.318l1.24-1.442q.632-.736 1.263-1.477.646-.753 1.294-1.505.657-.768 1.327-1.524.686-.77 1.383-1.532a72 72 0 0 1 1.447-1.545 31 31 0 0 1 1.608-1.554c.556-.5 1.132-.977 1.717-1.443a25 25 0 0 1 1.943-1.378 31 31 0 0 1 1.992-1.16c.663-.359 1.344-.68 2.031-.991.683-.306 1.38-.58 2.08-.842a40 40 0 0 1 2.153-.728 36 36 0 0 1 2.25-.601c.76-.18 1.529-.32 2.3-.444a29 29 0 0 1 2.38-.267 27 27 0 0 1 2.455-.055c.843.015 1.683.093 2.52.194.82.102 1.631.262 2.439.436.748.163 1.49.355 2.23.552a40 40 0 0 1 2.174.638c.691.222 1.375.464 2.059.709q.96.345 1.919.702a57 57 0 0 1 1.946.771 37 37 0 0 1 2.005.92c.709.348 1.393.743 2.071 1.146.662.396 1.312.81 1.963 1.223l1.887 1.199a44 44 0 0 1 1.99 1.337 34 34 0 0 1 2 1.541 54 54 0 0 1 1.837 1.613c.577.522 1.14 1.059 1.697 1.601a81 81 0 0 1 1.55 1.564q.688.706 1.371 1.417.654.674 1.293 1.361c.437.472.855.96 1.264 1.456.372.456.727.925 1.083 1.392l.89 1.164.744.982.587.776q.229.304.46.606.234.299.46.605l.4.567q.123.179.253.353l.24.326q.14.186.272.378l.086.13c2.689 4.054-3.044 7.856-5.733 3.802l-.034-.052-.008-.012c.032.044-.094-.13-.118-.161l-.249-.337a20 20 0 0 1-.344-.48l-.324-.462c-.119-.165-.25-.322-.372-.485q-.239-.314-.476-.63-.294-.386-.586-.774l-.725-.957q-.446-.582-.89-1.165c-.305-.4-.608-.8-.924-1.19a27 27 0 0 0-1-1.155 83 83 0 0 0-1.202-1.264q-.673-.7-1.349-1.395a75 75 0 0 0-1.417-1.43q-.749-.733-1.524-1.44a48 48 0 0 0-1.592-1.399 27 27 0 0 0-1.599-1.234 37 37 0 0 0-1.709-1.148l-1.875-1.191c-.594-.377-1.187-.756-1.79-1.118a24 24 0 0 0-1.599-.89 29 29 0 0 0-1.616-.742q-.844-.353-1.702-.676-.913-.34-1.83-.668a62 62 0 0 0-1.838-.635 34 34 0 0 0-1.84-.54 46 46 0 0 0-1.916-.477 21 21 0 0 0-1.826-.331c-.6-.075-1.2-.133-1.805-.145a20 20 0 0 0-3.626.237c-.601.095-1.2.204-1.794.343-.607.144-1.213.298-1.81.48a33 33 0 0 0-1.772.598c-.561.21-1.12.428-1.667.672a24 24 0 0 0-3.112 1.655 18 18 0 0 0-1.407.994q-.706.557-1.377 1.154c-.437.395-.864.802-1.271 1.228q-.67.694-1.318 1.408-.668.728-1.324 1.466a94 94 0 0 0-1.252 1.438l-1.277 1.486q-.64.75-1.282 1.498l-1.267 1.473c-.394.452-.796.898-1.195 1.347q-.56.637-1.124 1.272c-.371.414-.744.826-1.134 1.222-.346.355-.69.71-1.049 1.051q-.46.441-.928.875-.422.392-.854.774c-.259.23-.518.46-.787.679q-.274.23-.543.466l-.45.39c-3.707 3.148-8.16-2.095-4.454-5.244" transform="translate(0 -197)"/></svg>
