<?xml version="1.0" encoding="UTF-8" standalone="no"?>
<!-- Created with Inkscape (http://www.inkscape.org/) -->

<svg
   xmlns:dc="http://purl.org/dc/elements/1.1/"
   xmlns:cc="http://creativecommons.org/ns#"
   xmlns:rdf="http://www.w3.org/1999/02/22-rdf-syntax-ns#"
   xmlns:svg="http://www.w3.org/2000/svg"
   xmlns="http://www.w3.org/2000/svg"
   xmlns:sodipodi="http://sodipodi.sourceforge.net/DTD/sodipodi-0.dtd"
   xmlns:inkscape="http://www.inkscape.org/namespaces/inkscape"
   width="10cm"
   height="10cm"
   viewBox="0 0 100 99.999997"
   version="1.1"
   id="svg8"
   sodipodi:docname="ike.svg"
   inkscape:version="0.92.3 (2405546, 2018-03-11)">
  <defs
     id="defs2" />
  <sodipodi:namedview
     id="base"
     pagecolor="#ffffff"
     bordercolor="#666666"
     borderopacity="1.0"
     inkscape:pageopacity="0.0"
     inkscape:pageshadow="2"
     inkscape:zoom="1"
     inkscape:cx="125.50186"
     inkscape:cy="200.50542"
     inkscape:document-units="cm"
     inkscape:current-layer="layer1"
     showgrid="true"
     units="cm"
     inkscape:window-width="1920"
     inkscape:window-height="1017"
     inkscape:window-x="-8"
     inkscape:window-y="-8"
     inkscape:window-maximized="1">
    <inkscape:grid
       type="xygrid"
       id="grid815"
       units="cm"
       spacingx="9.9999998"
       spacingy="9.9999998" />
  </sodipodi:namedview>
  <metadata
     id="metadata5">
    <rdf:RDF>
      <cc:Work
         rdf:about="">
        <dc:format>image/svg+xml</dc:format>
        <dc:type
           rdf:resource="http://purl.org/dc/dcmitype/StillImage" />
        <dc:title></dc:title>
      </cc:Work>
    </rdf:RDF>
  </metadata>
  <g
     inkscape:label="Layer 1"
     inkscape:groupmode="layer"
     id="layer1"
     transform="translate(0,-197.00002)">
    <path
       style="opacity:1;fill:#020900;fill-opacity:1;stroke:none;stroke-width:1;stroke-linecap:butt;stroke-linejoin:round;stroke-miterlimit:4;stroke-dasharray:none;stroke-opacity:1"
       id="path1041"
       d="m 11.770448,252.96923 c 0.132728,-0.11308 0.263816,-0.22807 0.395522,-0.34234 0.211995,-0.18592 0.425661,-0.36986 0.64197,-0.55074 0.214378,-0.17358 0.42023,-0.35705 0.626329,-0.54025 0.253889,-0.22446 0.504748,-0.45229 0.753516,-0.6824 0.282987,-0.26292 0.564101,-0.52783 0.843175,-0.7949 0.300154,-0.28736 0.588956,-0.58619 0.879051,-0.88361 0.322861,-0.32763 0.630779,-0.66929 0.937761,-1.01169 0.364171,-0.40735 0.723785,-0.81874 1.08513,-1.22859 0.389726,-0.43963 0.784076,-0.8751 1.169989,-1.3181 0.412771,-0.48084 0.825791,-0.96147 1.239331,-1.44166 0.423075,-0.49072 0.843248,-0.98392 1.264016,-1.47661 0.43052,-0.5026 0.862455,-1.00398 1.294151,-1.50556 0.437269,-0.51202 0.878764,-1.02034 1.326273,-1.52343 0.456895,-0.51471 0.919186,-1.02457 1.383292,-1.53277 0.474393,-0.52209 0.957075,-1.03649 1.446657,-1.54433 0.515425,-0.53915 1.055558,-1.05329 1.608164,-1.55395 0.556163,-0.50025 1.132031,-0.97776 1.71771,-1.44288 0.621919,-0.49489 1.276321,-0.946 1.942671,-1.37836 0.646914,-0.41549 1.316088,-0.79433 1.991529,-1.161 0.663295,-0.35786 1.344745,-0.67999 2.031384,-0.99006 0.682974,-0.30586 1.379516,-0.57956 2.079956,-0.84239 0.709901,-0.26508 1.429332,-0.50329 2.152986,-0.72769 0.742447,-0.22848 1.495152,-0.42105 2.250548,-0.60123 0.759862,-0.17973 1.528101,-0.31966 2.298748,-0.44368 0.78926,-0.12594 1.584555,-0.2062 2.381146,-0.26711 0.816976,-0.0602 1.636205,-0.0689 2.454881,-0.0553 0.842963,0.0156 1.682462,0.0934 2.518852,0.19484 0.820592,0.10141 1.631942,0.26136 2.439763,0.43512 0.748524,0.16339 1.490239,0.35579 2.230654,0.55216 0.731126,0.19004 1.454415,0.40774 2.173806,0.63779 0.69083,0.22257 1.37504,0.46488 2.058329,0.70941 0.640688,0.23114 1.280993,0.46334 1.919033,0.7017 0.653537,0.24491 1.301983,0.50293 1.946035,0.77171 0.678518,0.28435 1.34562,0.59453 2.005668,0.91916 0.708377,0.34856 1.392142,0.74341 2.070677,1.14614 0.661535,0.39615 1.311907,0.81049 1.962928,1.22357 0.628303,0.40035 1.258215,0.79816 1.886497,1.19854 0.676802,0.4258 1.338094,0.87502 1.990442,1.33719 0.687729,0.48578 1.349833,1.00571 1.999345,1.54107 0.627661,0.52049 1.234657,1.065 1.838127,1.61312 0.576612,0.52201 1.139582,1.05865 1.696945,1.60106 0.525835,0.51209 1.038632,1.03723 1.550318,1.56337 0.458203,0.47098 0.91427,0.94403 1.370314,1.4171 0.435163,0.44993 0.867624,0.90243 1.293299,1.36136 0.43655,0.47204 0.854493,0.96066 1.2637,1.45643 0.371505,0.45561 0.726642,0.92416 1.083284,1.39138 0.295804,0.38879 0.593476,0.77614 0.889955,1.16441 0.248708,0.32688 0.496356,0.65457 0.744117,0.98217 0.195495,0.25851 0.390972,0.51704 0.586449,0.77556 0.153223,0.20206 0.30534,0.40494 0.459179,0.60653 0.155863,0.19958 0.310719,0.39979 0.460425,0.60405 0.13448,0.18838 0.266989,0.37815 0.399786,0.56772 0.08174,0.11951 0.167523,0.23613 0.253259,0.35278 0.08008,0.10879 0.160308,0.21747 0.240519,0.32616 0.09327,0.12426 0.18379,0.25043 0.272037,0.37829 0.06393,0.0959 0.03525,0.0528 0.08611,0.12946 2.688506,4.05381 -3.044454,7.85593 -5.73296,3.80212 v 0 c -0.01143,-0.0172 -0.02286,-0.0345 -0.03429,-0.0517 -0.0026,-0.004 -0.0052,-0.008 -0.0078,-0.0122 0.03213,0.044 -0.09428,-0.13026 -0.118261,-0.16125 -0.08296,-0.11242 -0.165939,-0.22483 -0.248756,-0.33735 -0.116483,-0.15854 -0.232457,-0.31745 -0.344138,-0.47943 -0.107902,-0.15403 -0.215903,-0.30799 -0.324099,-0.46182 -0.11889,-0.16545 -0.248959,-0.32242 -0.371652,-0.48502 -0.159536,-0.20927 -0.317659,-0.41962 -0.476541,-0.62938 -0.195323,-0.25832 -0.390644,-0.51665 -0.585983,-0.77496 -0.241382,-0.31916 -0.482651,-0.6384 -0.724914,-0.95689 -0.296685,-0.38856 -0.594592,-0.77618 -0.8906,-1.16525 -0.304483,-0.39889 -0.607206,-0.79927 -0.922981,-1.18935 -0.323958,-0.39352 -0.655177,-0.7811 -1.000837,-1.15582 -0.394922,-0.42632 -0.797168,-0.84571 -1.200933,-1.26365 -0.44905,-0.46582 -0.898109,-0.93162 -1.349287,-1.39538 -0.467884,-0.48111 -0.936371,-0.96172 -1.417093,-1.43008 -0.500581,-0.48742 -1.006115,-0.96972 -1.524177,-1.4386 -0.522893,-0.4751 -1.048118,-0.94789 -1.591553,-1.39957 -0.519211,-0.42929 -1.048822,-0.84578 -1.599195,-1.23472 -0.559673,-0.3972 -1.127482,-0.78256 -1.708711,-1.14772 -0.62443,-0.39798 -1.250566,-0.79328 -1.875017,-1.19123 -0.593971,-0.3769 -1.187122,-0.75531 -1.790224,-1.11752 -0.524446,-0.31176 -1.051531,-0.62 -1.598922,-0.8903 -0.531582,-0.26273 -1.069729,-0.512 -1.616326,-0.74208 -0.563243,-0.23561 -1.130782,-0.46069 -1.702369,-0.67532 -0.608058,-0.22733 -1.218457,-0.44829 -1.829022,-0.66877 -0.610325,-0.21848 -1.221275,-0.43554 -1.838206,-0.6348 -0.608796,-0.1953 -1.221039,-0.37963 -1.84005,-0.54014 -0.6363,-0.16893 -1.273511,-0.3353 -1.916613,-0.47667 -0.60465,-0.13082 -1.211471,-0.25402 -1.825678,-0.33152 -0.599337,-0.0743 -1.200862,-0.13227 -1.805098,-0.14493 -0.605142,-0.0118 -1.210726,-0.006 -1.81474,0.0369 -0.605745,0.0449 -1.210467,0.10543 -1.810703,0.2 -0.601583,0.0958 -1.201274,0.20424 -1.794526,0.34345 -0.607361,0.14407 -1.212593,0.29809 -1.809668,0.48072 -0.595807,0.18381 -1.187765,0.38021 -1.772256,0.59758 -0.561146,0.20994 -1.119362,0.42811 -1.666769,0.67205 -0.533892,0.24016 -1.063916,0.4894 -1.579941,0.7663 -0.519414,0.28112 -1.03446,0.57082 -1.532551,0.88862 -0.48269,0.31126 -0.956585,0.63641 -1.406655,0.99379 -0.469775,0.37159 -0.930563,0.75451 -1.376849,1.15414 -0.437586,0.39489 -0.864206,0.80157 -1.271476,1.2279 -0.44645,0.46254 -0.885825,0.9318 -1.318236,1.4075 -0.444082,0.48624 -0.88645,0.97405 -1.323592,1.46655 -0.422537,0.47472 -0.8388,0.9549 -1.251606,1.43811 -0.425963,0.49492 -0.852154,0.98964 -1.276985,1.48553 -0.426943,0.49993 -0.853303,1.00035 -1.282585,1.49827 -0.422527,0.49062 -0.844379,0.98181 -1.266379,1.47288 -0.394675,0.45249 -0.796593,0.8985 -1.195528,1.34723 -0.374122,0.4243 -0.746426,0.85022 -1.123589,1.27184 -0.371232,0.4139 -0.744755,0.82585 -1.134743,1.2223 -0.345521,0.35424 -0.690367,0.70929 -1.048239,1.05117 -0.30731,0.2939 -0.616652,0.58566 -0.928307,0.87495 -0.281968,0.26062 -0.566093,0.51889 -0.853728,0.77325 -0.259044,0.23021 -0.518729,0.45973 -0.787262,0.6789 -0.183317,0.15273 -0.363239,0.3094 -0.542891,0.46641 -0.14978,0.12995 -0.29893,0.26064 -0.449989,0.3891 -3.70727,3.14923 -8.1609463,-2.09365 -4.453676,-5.24287 z"
       inkscape:connector-curvature="0" />
  </g>
</svg>
