<?xml version="1.0" encoding="UTF-8" standalone="no"?>
<!-- Created with Inkscape (http://www.inkscape.org/) -->

<svg
   xmlns:dc="http://purl.org/dc/elements/1.1/"
   xmlns:cc="http://creativecommons.org/ns#"
   xmlns:rdf="http://www.w3.org/1999/02/22-rdf-syntax-ns#"
   xmlns:svg="http://www.w3.org/2000/svg"
   xmlns="http://www.w3.org/2000/svg"
   xmlns:sodipodi="http://sodipodi.sourceforge.net/DTD/sodipodi-0.dtd"
   xmlns:inkscape="http://www.inkscape.org/namespaces/inkscape"
   width="10cm"
   height="10cm"
   viewBox="0 0 100 99.999997"
   version="1.1"
   id="svg8"
   sodipodi:docname="ilo.svg"
   inkscape:version="0.92.3 (2405546, 2018-03-11)">
  <defs
     id="defs2" />
  <sodipodi:namedview
     id="base"
     pagecolor="#ffffff"
     bordercolor="#666666"
     borderopacity="1.0"
     inkscape:pageopacity="0.0"
     inkscape:pageshadow="2"
     inkscape:zoom="1"
     inkscape:cx="125.50186"
     inkscape:cy="200.50542"
     inkscape:document-units="cm"
     inkscape:current-layer="layer1"
     showgrid="true"
     units="cm"
     inkscape:window-width="1920"
     inkscape:window-height="1017"
     inkscape:window-x="-8"
     inkscape:window-y="-8"
     inkscape:window-maximized="1">
    <inkscape:grid
       type="xygrid"
       id="grid815"
       units="cm"
       spacingx="9.9999998"
       spacingy="9.9999998" />
  </sodipodi:namedview>
  <metadata
     id="metadata5">
    <rdf:RDF>
      <cc:Work
         rdf:about="">
        <dc:format>image/svg+xml</dc:format>
        <dc:type
           rdf:resource="http://purl.org/dc/dcmitype/StillImage" />
        <dc:title></dc:title>
      </cc:Work>
    </rdf:RDF>
  </metadata>
  <g
     inkscape:label="Layer 1"
     inkscape:groupmode="layer"
     id="layer1"
     transform="translate(0,-197.00002)">
    <path
       style="opacity:1;fill:#020900;fill-opacity:1;stroke:none;stroke-width:1;stroke-linecap:butt;stroke-linejoin:round;stroke-miterlimit:4;stroke-dasharray:none;stroke-opacity:1"
       id="path1043"
       d="m 32.168689,216.00021 c 0.0271,0.21407 0.04992,0.42866 0.07235,0.64326 0.02681,0.24689 0.05623,0.49348 0.08373,0.74029 0.04255,0.38117 0.07217,0.76358 0.09909,1.14612 0.03132,0.45565 0.05385,0.91182 0.07447,1.36806 0.02442,0.53865 0.0336,1.07778 0.04031,1.61689 0.0059,0.53102 0.0099,1.06207 0.01371,1.59312 0.0044,0.6067 0.0067,1.21342 0.0108,1.82013 0.0063,0.67916 0.01357,1.35831 0.02011,2.03746 0.0066,0.69535 0.01241,1.39071 0.01789,2.08607 0.0095,0.74117 -0.0048,1.48226 -0.03045,2.22295 -0.0241,0.73997 -0.0758,1.47848 -0.137793,2.21611 -0.06097,0.69701 -0.138652,1.39239 -0.214214,2.08792 -0.06887,0.61861 -0.132551,1.23777 -0.195496,1.85701 -0.05727,0.55668 -0.11458,1.11336 -0.171833,1.67004 -0.04592,0.44791 -0.09272,0.89572 -0.137155,1.34378 -0.03844,0.39071 -0.07246,0.78183 -0.106476,1.17293 -0.02935,0.33861 -0.05853,0.67724 -0.08772,1.01586 -0.02336,0.27105 -0.04673,0.54209 -0.07009,0.81314 -0.01863,0.21606 -0.03725,0.43212 -0.05587,0.64818 -0.0042,0.0312 -0.04211,0.51022 -0.02802,0.32921 0.03268,-0.50344 -0.134302,-0.96797 -0.344564,-1.41556 -0.32498,-0.59769 -0.824482,-1.02313 -1.429832,-1.31379 -0.148596,-0.0688 -0.326139,-0.11696 -0.47883,-0.15186 0.120674,-5.3e-4 0.241364,-0.002 0.362045,-0.003 0.338807,-0.004 0.677617,-0.009 1.016437,-0.0121 0.383876,-5.3e-4 0.76745,-0.0133 1.150472,-0.0383 0.49409,-0.0358 0.985673,-0.0991 1.477391,-0.15803 0.630102,-0.0773 1.259927,-0.15668 1.890516,-0.22993 0.662379,-0.0766 1.325907,-0.14255 1.989794,-0.20449 0.649221,-0.0596 1.298588,-0.11764 1.948294,-0.17173 0.642379,-0.0507 1.283549,-0.11487 1.924891,-0.17698 0.717383,-0.0709 1.435656,-0.13222 2.154248,-0.18943 0.735121,-0.0578 1.47089,-0.10683 2.206805,-0.1533 0.743611,-0.0487 1.487879,-0.0849 2.232456,-0.11479 0.719974,-0.028 1.440117,-0.0513 2.160294,-0.0732 0.743746,-0.023 1.487601,-0.0421 2.231668,-0.0499 0.813258,-0.007 1.626203,0.0185 2.438675,0.0512 0.807111,0.0338 1.613498,0.0819 2.419435,0.13655 0.773258,0.0531 1.546397,0.10765 2.319046,0.16898 0.69655,0.0564 1.392555,0.11915 2.088777,0.17939 0.60067,0.052 1.201663,0.10016 1.80277,0.14686 0.541213,0.0412 1.082551,0.0812 1.624396,0.11327 0.500962,0.0285 1.00244,0.0467 1.503821,0.066 0.42251,0.0152 0.84519,0.0247 1.267851,0.0344 0.368618,0.009 0.73732,0.0146 1.105839,0.0271 0.404694,0.0145 0.807395,0.0584 1.209167,0.10693 0.288063,0.0345 0.575604,0.073 0.862965,0.11296 0.221951,0.031 0.443868,0.0622 0.665835,0.093 0.178435,0.0248 0.356875,0.0495 0.535318,0.0742 0.144002,0.02 0.288031,0.0398 0.432017,0.0599 0.01254,0.002 0.04914,0.0101 0.0376,0.005 -0.355195,-0.15835 -1.21948,0.12728 -1.501502,0.20243 -1.031788,0.45842 -1.762668,1.26814 -2.005182,2.36847 -0.03186,0.28049 -0.0149,-0.17066 -0.01479,-0.21263 -0.0011,-0.36854 -0.01013,-0.737 -0.02188,-1.10534 -0.01638,-0.47806 -0.04794,-0.95541 -0.08338,-1.43237 -0.05196,-0.61191 -0.111138,-1.22319 -0.166701,-1.83479 -0.06388,-0.70943 -0.134323,-1.41825 -0.202464,-2.12728 -0.07119,-0.74258 -0.142071,-1.48518 -0.207595,-2.22829 -0.07016,-0.8013 -0.125733,-1.60376 -0.178297,-2.40638 -0.05001,-0.7846 -0.09925,-1.56925 -0.150215,-2.35379 -0.05016,-0.76143 -0.09358,-1.52327 -0.138025,-2.28504 -0.04204,-0.75785 -0.0869,-1.51554 -0.131757,-2.27323 -0.04632,-0.76007 -0.08851,-1.52039 -0.128993,-2.28079 -0.03634,-0.68928 -0.07054,-1.37866 -0.104409,-2.06805 -0.02877,-0.58447 -0.05617,-1.16901 -0.08316,-1.75356 -0.02357,-0.50184 -0.04573,-1.00374 -0.06409,-1.5058 -0.0145,-0.42294 -0.02905,-0.84588 -0.03911,-1.26895 -0.0071,-0.33361 -0.01291,-0.66724 -0.01884,-1.00087 -0.0046,-0.26076 -0.0092,-0.52152 -0.01376,-0.78229 -0.0066,-0.17847 -0.0011,-0.35754 -0.01127,-0.53588 0.005,0.21852 0.06689,0.43481 0.135702,0.64252 0.111979,0.31989 0.305541,0.59489 0.526425,0.84795 0.321395,0.35252 0.73002,0.58727 1.172195,0.75098 0.181678,0.0705 0.430754,0.0985 0.601612,0.12097 -0.172186,0.008 -0.343638,0.0257 -0.515073,0.0428 -0.409458,0.0421 -0.819869,0.0736 -1.23046,0.10217 -0.478597,0.0306 -0.957083,0.0628 -1.435661,0.0937 -0.540724,0.0371 -1.081339,0.0758 -1.621809,0.11639 -0.604385,0.0435 -1.207775,0.0992 -1.81084,0.15789 -0.680085,0.0683 -1.360103,0.13718 -2.04004,0.2069 -0.708954,0.0725 -1.416749,0.1554 -2.124356,0.23984 -0.735496,0.0878 -1.469662,0.18605 -2.203008,0.29019 -0.771861,0.1136 -1.543923,0.22574 -2.316467,0.3346 -0.787326,0.11064 -1.575223,0.21712 -2.363247,0.32264 -0.796666,0.10851 -1.594033,0.21166 -2.39213,0.30903 -0.796208,0.0977 -1.5938,0.18346 -2.391825,0.26478 -0.780026,0.0789 -1.561074,0.14718 -2.34237,0.21215 -0.754644,0.0621 -1.50954,0.12084 -2.264738,0.17577 -0.737079,0.0529 -1.474509,0.10072 -2.212192,0.14436 -0.71302,0.0394 -1.426569,0.0686 -2.140156,0.0957 -0.676884,0.0256 -1.354182,0.0376 -2.031473,0.0453 -0.605338,0.006 -1.210702,0.005 -1.81605,0.002 -0.543192,-7.4e-4 -1.086271,-0.008 -1.62914,-0.0265 -0.456086,-0.0178 -0.911897,-0.0418 -1.367748,-0.0647 -0.377986,-0.0187 -0.755877,-0.0394 -1.133821,-0.059 -0.367213,-0.0178 -0.733912,-0.044 -1.100352,-0.0734 -0.388456,-0.0298 -0.775147,-0.0757 -1.160169,-0.13473 -0.294577,-0.0477 -0.587949,-0.10254 -0.881422,-0.15655 -0.21344,-0.0393 -0.42686,-0.0788 -0.640282,-0.11822 -0.08964,-0.0163 -0.179111,-0.0335 -0.268765,-0.0497 -0.02574,-0.005 0.05116,0.0113 0.07714,0.0143 0.09768,0.0112 0.195303,0.0304 0.293599,0.0283 0.235117,-0.005 0.469165,-0.0333 0.70375,-0.0499 0.521123,-0.24726 1.042246,-0.49451 1.56337,-0.74177 -3.694,3.1648 -8.169688,-2.05929 -4.475696,-5.22408 v 0 c 0.540271,-0.26366 1.080543,-0.52732 1.620815,-0.79098 0.589261,-0.0506 1.158711,-0.0994 1.735706,0.0492 0.211863,0.0391 0.423723,0.0783 0.635601,0.11736 0.233471,0.043 0.466841,0.0866 0.700987,0.12582 0.214688,0.0356 0.431324,0.0557 0.648097,0.0741 0.301149,0.0244 0.602512,0.0459 0.904322,0.0604 0.374012,0.0194 0.747972,0.0398 1.122026,0.0584 0.4219,0.0212 0.843762,0.0435 1.26586,0.0603 0.47236,0.0172 0.944969,0.0209 1.417616,0.0222 0.568949,0.003 1.137912,0.004 1.706851,-0.001 0.616466,-0.007 1.23294,-0.0177 1.849035,-0.0409 0.664991,-0.0251 1.329949,-0.0523 1.994434,-0.0886 0.706668,-0.0417 1.413084,-0.0877 2.119178,-0.13823 0.73152,-0.0532 1.462744,-0.11014 2.193729,-0.17023 0.738878,-0.0614 1.477526,-0.12581 2.215208,-0.20039 0.75275,-0.0766 1.50509,-0.15743 2.256118,-0.2496 0.771337,-0.094 1.541928,-0.19393 2.311871,-0.29876 0.772419,-0.10343 1.544717,-0.20777 2.316448,-0.31622 0.770337,-0.10853 1.540166,-0.22052 2.309839,-0.33365 0.783762,-0.11114 1.568366,-0.2162 2.354414,-0.30997 0.745365,-0.0889 1.490953,-0.17606 2.237734,-0.25241 0.691775,-0.0709 1.383631,-0.14109 2.075564,-0.21045 0.653489,-0.0635 1.30734,-0.12367 1.962242,-0.17094 0.564537,-0.0423 1.129213,-0.0829 1.694024,-0.12143 0.467453,-0.0301 0.93481,-0.0617 1.402292,-0.0915 0.342897,-0.0237 0.685654,-0.0497 1.027578,-0.0851 0.353468,-0.0349 0.707451,-0.0672 1.06276,-0.0751 0.536152,-0.007 1.07365,0.0292 1.588315,0.19311 0.65587,0.22901 1.268097,0.5502 1.748094,1.06617 0.385704,0.42715 0.716994,0.89625 0.919178,1.43997 0.175819,0.49422 0.300136,1.00337 0.312783,1.53051 0.0089,0.2335 0.01236,0.46711 0.01614,0.70074 0.0046,0.26044 0.0092,0.52087 0.01376,0.78131 0.0057,0.32024 0.01122,0.64048 0.01799,0.9607 0.0092,0.39351 0.0232,0.78688 0.03645,1.18027 0.01744,0.47985 0.03888,0.95953 0.06133,1.43917 0.02668,0.5778 0.05376,1.15557 0.0822,1.73328 0.03341,0.68004 0.06714,1.36006 0.102973,2.03997 0.03975,0.7468 0.08119,1.49352 0.126698,2.23999 0.04497,0.75963 0.08996,1.51926 0.132099,2.27905 0.04356,0.74668 0.08607,1.49343 0.135233,2.23977 0.05089,0.78342 0.100087,1.56693 0.149995,2.35042 0.04913,0.75106 0.100907,1.50198 0.166431,2.25182 0.06386,0.72504 0.133223,1.44956 0.2026,2.17408 0.06928,0.72093 0.140885,1.44164 0.205803,2.16298 0.05902,0.64969 0.122373,1.299 0.176128,1.94915 0.04238,0.57393 0.07968,1.14834 0.09875,1.72359 0.01408,0.45037 0.02519,0.90089 0.02522,1.35151 -0.0024,0.43224 -0.0087,0.8661 -0.07544,1.29419 -0.258918,1.31964 -0.979281,2.34525 -2.240301,2.91233 -0.67505,0.18754 -1.332124,0.35071 -2.032365,0.21379 -0.141047,-0.0197 -0.282144,-0.0391 -0.423212,-0.0587 -0.179475,-0.0249 -0.358952,-0.0497 -0.538421,-0.0746 -0.221785,-0.0308 -0.443519,-0.062 -0.665285,-0.093 -0.24801,-0.0345 -0.496144,-0.0679 -0.744778,-0.0976 -0.207576,-0.0254 -0.415414,-0.0513 -0.62443,-0.0612 -0.33982,-0.013 -0.680005,-0.0147 -1.019924,-0.0246 -0.458179,-0.0105 -0.916379,-0.0209 -1.374386,-0.0376 -0.54964,-0.0211 -1.099378,-0.0413 -1.648536,-0.073 -0.583108,-0.0349 -1.165755,-0.077 -1.748184,-0.12178 -0.621176,-0.0483 -1.242235,-0.098 -1.862963,-0.15179 -0.68013,-0.0589 -1.360057,-0.12017 -2.040496,-0.17539 -0.74639,-0.0593 -1.493282,-0.11181 -2.240259,-0.16318 -0.743431,-0.0506 -1.487289,-0.095 -2.231805,-0.12638 -0.696392,-0.0283 -1.39318,-0.0508 -2.090269,-0.0459 -0.69749,0.007 -1.394754,0.0259 -2.091942,0.047 -0.698325,0.0213 -1.396616,0.0438 -2.094746,0.0709 -0.691893,0.0277 -1.38349,0.0612 -2.074479,0.10664 -0.698486,0.0441 -1.396838,0.0905 -2.094579,0.1453 -0.679389,0.054 -1.358466,0.11195 -2.036701,0.17906 -0.672225,0.0651 -1.344298,0.13211 -2.017602,0.18533 -0.626991,0.0521 -1.253638,0.10826 -1.880161,0.16572 -0.612261,0.057 -1.22419,0.11775 -1.835062,0.18829 -0.621972,0.0721 -1.243121,0.15092 -1.864633,0.22688 -0.619527,0.0743 -1.23912,0.15169 -1.861936,0.19323 -0.503838,0.0313 -1.008237,0.0509 -1.513134,0.0517 -0.3386,0.004 -0.677193,0.008 -1.015783,0.0121 -0.381084,0.004 -0.762976,0.006 -1.1426,-0.0333 -0.492594,-0.056 -0.982295,-0.14288 -1.443064,-0.33415 -0.814395,-0.37222 -1.505462,-0.90241 -1.951304,-1.69756 -0.33135,-0.67688 -0.557402,-1.38254 -0.520183,-2.14677 0.01035,-0.23481 0.02742,-0.46893 0.05,-0.7029 0.01862,-0.21606 0.03725,-0.43211 0.05587,-0.64817 0.02337,-0.27109 0.04673,-0.54218 0.0701,-0.81327 0.02934,-0.34038 0.05867,-0.68076 0.08817,-1.02112 0.03643,-0.41879 0.07297,-0.83759 0.114206,-1.25595 0.04528,-0.45626 0.09284,-0.91229 0.139643,-1.3684 0.05697,-0.55399 0.113999,-1.10797 0.171004,-1.66195 0.06455,-0.63502 0.129896,-1.26996 0.200471,-1.90434 0.06959,-0.64056 0.141439,-1.28096 0.19829,-1.92282 0.05292,-0.62545 0.09742,-1.25163 0.117696,-1.87912 0.02281,-0.64234 0.03487,-1.28505 0.02644,-1.92782 -0.0054,-0.69134 -0.0112,-1.38268 -0.01778,-2.07402 -0.0066,-0.68603 -0.01401,-1.37206 -0.02028,-2.05809 -0.004,-0.60563 -0.0064,-1.21127 -0.01076,-1.8169 -0.0037,-0.51897 -0.0076,-1.03795 -0.01334,-1.55691 -0.0057,-0.4641 -0.01296,-0.92824 -0.03384,-1.39195 -0.01797,-0.3992 -0.03745,-0.79835 -0.06462,-1.19704 -0.02018,-0.28933 -0.04185,-0.57862 -0.07379,-0.86694 -0.0291,-0.26238 -0.06081,-0.52446 -0.08876,-0.78697 -0.01625,-0.15631 -0.03281,-0.31261 -0.05187,-0.46861 -0.628027,-4.82359 6.193561,-5.71178 6.821605,-0.88819 z"
       inkscape:connector-curvature="0" />
    <path
       style="opacity:1;fill:#020900;fill-opacity:1;stroke:none;stroke-width:1;stroke-linecap:butt;stroke-linejoin:round;stroke-miterlimit:4;stroke-dasharray:none;stroke-opacity:1"
       id="path1045"
       d="m 50.752478,219.02291 c 0.02529,0.35182 0.0092,0.70437 -0.01879,1.05539 -0.02431,0.28051 -0.05512,0.56039 -0.08916,0.83986 -0.03994,0.29808 -0.07651,0.59658 -0.113432,0.89504 -0.04241,0.3301 -0.08104,0.66062 -0.115429,0.99164 -0.03678,0.36053 -0.06648,0.72173 -0.0943,1.08304 -0.03118,0.40874 -0.0547,0.818 -0.07669,1.22731 -0.02458,0.46529 -0.04448,0.9308 -0.06305,1.39636 -0.01968,0.49983 -0.03587,0.99979 -0.05083,1.49978 -0.01513,0.52438 -0.02996,1.04878 -0.03587,1.57337 -0.0036,0.54248 0.0011,1.085 0.0077,1.62744 0.0082,0.60573 0.01654,1.21144 0.03215,1.81703 0.01884,0.66957 0.03711,1.33915 0.0539,2.00878 0.0172,0.69201 0.03171,1.38409 0.04532,2.07618 0.01323,0.71995 0.02694,1.4399 0.03963,2.15987 0.01288,0.76782 0.0254,1.53565 0.03901,2.30346 0.01386,0.79108 0.02862,1.58215 0.04436,2.3732 0.01561,0.80722 0.03439,1.61437 0.05235,2.42154 0.01648,0.80623 0.03475,1.61241 0.05403,2.41857 0.01886,0.77959 0.03597,1.55922 0.05217,2.33886 0.0154,0.74675 0.02905,1.49354 0.04194,2.24033 0.01262,0.73405 0.02339,1.46813 0.03344,2.20222 0.01191,0.72168 0.03212,1.4432 0.05487,2.16461 0.02535,0.72013 0.0587,1.43997 0.09338,2.1597 0.03554,0.69707 0.07397,1.39399 0.109429,2.09107 0.03509,0.69146 0.0653,1.38316 0.09387,2.07491 0.02777,0.67703 0.05179,1.3542 0.07467,2.03141 0.02185,0.65302 0.04118,1.30613 0.05937,1.95926 0.01757,0.63811 0.03284,1.27627 0.04727,1.91445 0.01204,0.60782 0.02469,1.21558 0.04917,1.82304 0.02798,0.60391 0.05579,1.20784 0.08822,1.81153 0.02938,0.57473 0.07475,1.1484 0.124754,1.72165 0.05064,0.54679 0.103979,1.09333 0.156604,1.63993 0.04614,0.47504 0.09044,0.95025 0.133289,1.42559 0.03671,0.40956 0.0717,0.81927 0.106389,1.229 0.02617,0.32602 0.05462,0.65183 0.08553,0.97744 0.02593,0.27083 0.05224,0.54162 0.0785,0.81242 0.02246,0.23169 0.04385,0.46348 0.06512,0.69528 0.01416,0.16104 0.03361,0.32158 0.05204,0.48218 0.01823,0.15682 0.03617,0.31366 0.05363,0.47056 0.0141,0.12719 0.02812,0.25439 0.04215,0.38159 0.01111,0.10068 0.0222,0.20136 0.0333,0.30205 0.0088,0.0802 0.01767,0.16045 0.02653,0.24068 0.007,0.064 0.0141,0.12789 0.02114,0.19184 0.0011,0.009 0.0042,0.0372 0.0031,0.0279 -0.02886,-0.23917 -0.08622,-0.4205 -0.151381,-0.66862 1.605491,4.59172 -4.888177,6.86223 -6.493669,2.27051 v 0 c -0.07957,-0.29095 -0.17381,-0.57421 -0.195776,-0.87605 -0.007,-0.0639 -0.0141,-0.12789 -0.02114,-0.19183 -0.0088,-0.0802 -0.01767,-0.16046 -0.02653,-0.24069 -0.01109,-0.10063 -0.02217,-0.20126 -0.03328,-0.30188 -0.01378,-0.12491 -0.02753,-0.24983 -0.04139,-0.37473 -0.01659,-0.14902 -0.03366,-0.29799 -0.05096,-0.44693 -0.0244,-0.21251 -0.0494,-0.42499 -0.06814,-0.6381 -0.02016,-0.2199 -0.04044,-0.43981 -0.06176,-0.65961 -0.02673,-0.27558 -0.05351,-0.55117 -0.07988,-0.82679 -0.03308,-0.34877 -0.0637,-0.69774 -0.09177,-1.04694 -0.03364,-0.39735 -0.06756,-0.79466 -0.103143,-1.19184 -0.04158,-0.46142 -0.08461,-0.9227 -0.129394,-1.38382 -0.05462,-0.56735 -0.110062,-1.13463 -0.162317,-1.70221 -0.0565,-0.64945 -0.107402,-1.29941 -0.140848,-1.95052 -0.03394,-0.6349 -0.06357,-1.27002 -0.0926,-1.90516 -0.02561,-0.6471 -0.04061,-1.29447 -0.05289,-1.94195 -0.01416,-0.62618 -0.02914,-1.25235 -0.04637,-1.87846 -0.01781,-0.63957 -0.03673,-1.27911 -0.05812,-1.91857 -0.02228,-0.66001 -0.04569,-1.31999 -0.07274,-1.97984 -0.02765,-0.66988 -0.05689,-1.33971 -0.09085,-2.00931 -0.03576,-0.70329 -0.07465,-1.40642 -0.110352,-2.10972 -0.03645,-0.75782 -0.07158,-1.51574 -0.09793,-2.27399 -0.02397,-0.76216 -0.04531,-1.52442 -0.05763,-2.28686 -0.0099,-0.72594 -0.02058,-1.45187 -0.03306,-2.17776 -0.01275,-0.73874 -0.02625,-1.47746 -0.04148,-2.21615 -0.01603,-0.77242 -0.03301,-1.54482 -0.05168,-2.31718 -0.01939,-0.81001 -0.03772,-1.62003 -0.0543,-2.43009 -0.01807,-0.81257 -0.03698,-1.62512 -0.05269,-2.43773 -0.01585,-0.79607 -0.03071,-1.59215 -0.04464,-2.38825 -0.0136,-0.76799 -0.02614,-1.536 -0.03902,-2.304 -0.01262,-0.7153 -0.02622,-1.43058 -0.03937,-2.14587 -0.01336,-0.67973 -0.0276,-1.35944 -0.04449,-2.03909 -0.01675,-0.66837 -0.03504,-1.3367 -0.0538,-2.00502 -0.01619,-0.63593 -0.02548,-1.27198 -0.03388,-1.90806 -0.0073,-0.59753 -0.01238,-1.19514 -0.0078,-1.79271 0.0068,-0.56648 0.02172,-1.13278 0.03849,-1.69905 0.01566,-0.52282 0.03261,-1.04561 0.05323,-1.56827 0.01987,-0.49732 0.04118,-0.99459 0.06751,-1.49161 0.02492,-0.46248 0.05174,-0.92489 0.08712,-1.3867 0.03266,-0.42277 0.06766,-0.84538 0.110995,-1.26721 0.03917,-0.37486 0.08238,-0.74926 0.130411,-1.12309 0.0365,-0.29504 0.07238,-0.59015 0.112167,-0.88476 0.02307,-0.18793 0.04391,-0.37611 0.06113,-0.56466 0.0057,-0.067 0.0075,-0.0987 0.01363,-0.004 -0.347789,-4.85186 6.513772,-5.34371 6.861561,-0.49185 z"
       inkscape:connector-curvature="0" />
  </g>
</svg>
