<svg viewBox="0 0 100 100"><path style="opacity:1;fill:#020900;fill-opacity:1;stroke:none;stroke-width:1;stroke-linecap:butt;stroke-linejoin:round;stroke-miterlimit:4;stroke-dasharray:none;stroke-opacity:1" d="M32.169 216q.04.321.072.643l.084.74c.042.382.072.764.099 1.147q.045.684.074 1.368c.025.539.034 1.078.04 1.617q.01.796.014 1.593l.011 1.82.02 2.038q.01 1.042.018 2.086a47 47 0 0 1-.168 4.439c-.061.697-.139 1.392-.214 2.088a195 195 0 0 0-.196 1.857l-.172 1.67-.137 1.343q-.056.587-.106 1.173l-.088 1.016-.07.813-.056.649c-.004.03-.042.51-.028.329.033-.504-.134-.968-.345-1.416-.325-.598-.824-1.023-1.43-1.314a2.5 2.5 0 0 0-.478-.151l.362-.003 1.016-.013q.577 0 1.15-.038c.495-.036.986-.099 1.478-.158.63-.077 1.26-.157 1.89-.23a91 91 0 0 1 1.99-.204q.974-.09 1.949-.172c.642-.05 1.283-.115 1.925-.177a113 113 0 0 1 4.36-.343 88 88 0 0 1 2.233-.115q1.08-.04 2.16-.073 1.116-.036 2.232-.05c.813-.007 1.626.019 2.439.052q1.21.051 2.42.136 1.159.078 2.318.17c.697.055 1.393.118 2.09.178q.9.077 1.802.147.811.065 1.624.114c.501.028 1.003.046 1.504.066q.634.02 1.268.034c.369.009.737.015 1.106.027.404.015.807.059 1.209.107q.431.053.863.113l.666.093.535.074.432.06c.013.002.05.01.038.005-.356-.158-1.22.127-1.502.203-1.032.458-1.763 1.268-2.005 2.368-.032.28-.015-.17-.015-.213a38 38 0 0 0-.022-1.105 36 36 0 0 0-.083-1.432c-.052-.612-.111-1.224-.167-1.835-.064-.71-.134-1.418-.202-2.127q-.108-1.114-.208-2.229c-.07-.801-.126-1.603-.178-2.406l-.15-2.354q-.073-1.142-.138-2.285-.064-1.136-.132-2.273-.069-1.14-.13-2.28a578 578 0 0 1-.25-5.328q-.024-.634-.04-1.27l-.019-1-.014-.782c-.006-.179 0-.358-.01-.536.004.218.066.434.135.642.112.32.305.595.526.848.322.353.73.587 1.173.751.181.07.43.099.601.121-.172.008-.343.026-.515.043-.41.042-.82.073-1.23.102l-1.436.094q-.81.056-1.622.116c-.604.044-1.208.1-1.81.158l-2.04.207c-.71.072-1.417.155-2.125.24q-1.104.133-2.203.29-1.158.171-2.317.335a367 367 0 0 1-4.755.631 117 117 0 0 1-4.734.477q-1.133.093-2.265.176-1.105.079-2.212.144c-.713.04-1.427.069-2.14.096-.677.026-1.354.038-2.032.045q-.907.008-1.816.002-.815 0-1.629-.026-.684-.029-1.368-.065l-1.133-.059a35 35 0 0 1-1.1-.073q-.584-.046-1.161-.135-.442-.074-.881-.157l-.64-.118-.27-.05c-.025-.005.052.012.078.015.097.011.195.03.293.028.235-.005.47-.033.704-.05l1.563-.742c-3.694 3.165-8.17-2.059-4.475-5.224l1.62-.79c.59-.051 1.16-.1 1.736.049l.636.117q.35.066.7.126c.216.035.432.055.649.074q.451.037.904.06l1.122.059c.422.02.844.043 1.266.06.472.017.945.02 1.418.022q.854.005 1.707 0a70 70 0 0 0 1.849-.042 119 119 0 0 0 1.994-.088 170 170 0 0 0 4.313-.309q1.108-.09 2.215-.2a110 110 0 0 0 2.256-.25q1.157-.141 2.312-.299 1.16-.154 2.317-.316 1.155-.163 2.31-.333 1.175-.17 2.354-.31 1.117-.136 2.238-.253l2.075-.21a79 79 0 0 1 1.962-.171q.848-.064 1.694-.122l1.403-.091q.514-.034 1.027-.085c.354-.035.708-.067 1.063-.075.536-.007 1.074.029 1.588.193.656.229 1.268.55 1.748 1.066.386.427.717.896.92 1.44.175.494.3 1.003.312 1.53q.013.351.017.701l.013.781.018.961q.016.59.037 1.18.027.72.061 1.44a570 570 0 0 0 .185 3.773q.059 1.12.127 2.24.068 1.14.132 2.279c.044.747.086 1.493.135 2.24l.15 2.35c.05.751.101 1.502.167 2.252q.097 1.088.202 2.174.107 1.08.206 2.163c.06.65.123 1.299.176 1.95a41 41 0 0 1 .124 3.074c-.002.432-.008.866-.075 1.294-.26 1.32-.98 2.346-2.24 2.913-.676.187-1.333.35-2.033.214l-.423-.06-.539-.074-.665-.093a39 39 0 0 0-.745-.097 8 8 0 0 0-.624-.062c-.34-.013-.68-.014-1.02-.024q-.687-.014-1.374-.038c-.55-.02-1.1-.041-1.649-.073q-.875-.053-1.748-.122-.931-.072-1.863-.151-1.02-.091-2.04-.176-1.12-.088-2.24-.163a87 87 0 0 0-2.233-.126 44 44 0 0 0-2.09-.046c-.697.007-1.395.026-2.092.047q-1.047.031-2.095.07-1.037.04-2.074.107-1.047.064-2.095.146-1.019.08-2.036.179c-.672.065-1.345.132-2.018.185q-.94.078-1.88.166a83 83 0 0 0-1.835.188c-.622.072-1.243.151-1.865.227-.62.074-1.239.152-1.862.193q-.756.049-1.513.052l-1.016.012c-.38.004-.763.006-1.142-.033-.493-.056-.982-.143-1.443-.334-.815-.373-1.506-.903-1.952-1.698-.33-.677-.557-1.383-.52-2.147q.016-.352.05-.703l.056-.648.07-.813.088-1.021q.054-.63.115-1.256.068-.685.14-1.369l.17-1.662q.096-.953.2-1.904c.07-.64.142-1.28.199-1.923a40 40 0 0 0 .144-3.807l-.018-2.074-.02-2.058-.01-1.817-.014-1.557a43 43 0 0 0-.098-2.589q-.028-.433-.074-.867-.046-.393-.089-.786a26 26 0 0 0-.052-.47c-.628-4.823 6.194-5.71 6.822-.887z" transform="translate(0 -197)"/><path style="opacity:1;fill:#020900;fill-opacity:1;stroke:none;stroke-width:1;stroke-linecap:butt;stroke-linejoin:round;stroke-miterlimit:4;stroke-dasharray:none;stroke-opacity:1" d="M50.752 219.023c.026.352.01.704-.018 1.055a24 24 0 0 1-.09.84q-.059.448-.113.895-.063.495-.115.992a44 44 0 0 0-.171 2.31q-.037.698-.063 1.397a159 159 0 0 0-.087 3.073q-.004.814.008 1.627.01.91.032 1.817l.054 2.009q.025 1.038.045 2.076l.04 2.16.039 2.303q.02 1.188.044 2.374.024 1.21.052 2.421.026 1.21.054 2.419a686 686 0 0 1 .128 6.781q.02 1.083.055 2.165.039 1.08.093 2.16l.11 2.09a220 220 0 0 1 .168 4.107 350 350 0 0 1 .107 3.874c.012.607.024 1.215.049 1.823q.041.905.088 1.811c.03.575.075 1.149.125 1.722q.076.82.157 1.64a207 207 0 0 1 .24 2.654q.038.489.085.978l.078.812q.034.348.065.695.024.242.052.483.029.234.054.47l.042.382.033.302.027.24.021.192.003.028c-.029-.239-.086-.42-.151-.668 1.605 4.591-4.888 6.862-6.494 2.27-.08-.29-.174-.574-.196-.876l-.02-.192-.027-.24-.034-.302-.04-.375-.052-.447c-.024-.212-.05-.425-.068-.638l-.062-.66-.08-.826a73 73 0 0 1-.091-1.047 245 245 0 0 0-.233-2.576q-.083-.851-.162-1.702c-.057-.65-.108-1.3-.141-1.95a247 247 0 0 1-.093-1.906 94 94 0 0 1-.053-1.942 383 383 0 0 0-.104-3.797 274 274 0 0 0-.164-3.99l-.11-2.109c-.036-.758-.072-1.516-.098-2.274q-.037-1.143-.058-2.287a613 613 0 0 0-.126-6.71q-.03-1.215-.054-2.43-.028-1.22-.053-2.439l-.044-2.388-.04-2.304-.039-2.146a393 393 0 0 0-.098-4.044q-.023-.954-.034-1.908a90 90 0 0 1-.008-1.793q.012-.849.039-1.699.022-.783.053-1.568.029-.745.067-1.491.036-.694.088-1.387.047-.635.11-1.267.06-.563.13-1.123.054-.443.113-.885.035-.282.061-.565c.006-.067.008-.099.014-.004-.348-4.852 6.514-5.344 6.861-.492" transform="translate(0 -197)"/></svg>
