<?xml version="1.0" encoding="UTF-8" standalone="no"?>
<!-- Created with Inkscape (http://www.inkscape.org/) -->

<svg
   xmlns:dc="http://purl.org/dc/elements/1.1/"
   xmlns:cc="http://creativecommons.org/ns#"
   xmlns:rdf="http://www.w3.org/1999/02/22-rdf-syntax-ns#"
   xmlns:svg="http://www.w3.org/2000/svg"
   xmlns="http://www.w3.org/2000/svg"
   xmlns:sodipodi="http://sodipodi.sourceforge.net/DTD/sodipodi-0.dtd"
   xmlns:inkscape="http://www.inkscape.org/namespaces/inkscape"
   width="10cm"
   height="10cm"
   viewBox="0 0 100 99.999997"
   version="1.1"
   id="svg8"
   sodipodi:docname="insa.svg"
   inkscape:version="0.92.3 (2405546, 2018-03-11)">
  <defs
     id="defs2" />
  <sodipodi:namedview
     id="base"
     pagecolor="#ffffff"
     bordercolor="#666666"
     borderopacity="1.0"
     inkscape:pageopacity="0.0"
     inkscape:pageshadow="2"
     inkscape:zoom="1"
     inkscape:cx="125.50186"
     inkscape:cy="200.50542"
     inkscape:document-units="cm"
     inkscape:current-layer="layer1"
     showgrid="true"
     units="cm"
     inkscape:window-width="1920"
     inkscape:window-height="1017"
     inkscape:window-x="-8"
     inkscape:window-y="-8"
     inkscape:window-maximized="1">
    <inkscape:grid
       type="xygrid"
       id="grid815"
       units="cm"
       spacingx="9.9999998"
       spacingy="9.9999998" />
  </sodipodi:namedview>
  <metadata
     id="metadata5">
    <rdf:RDF>
      <cc:Work
         rdf:about="">
        <dc:format>image/svg+xml</dc:format>
        <dc:type
           rdf:resource="http://purl.org/dc/dcmitype/StillImage" />
        <dc:title></dc:title>
      </cc:Work>
    </rdf:RDF>
  </metadata>
  <g
     inkscape:label="Layer 1"
     inkscape:groupmode="layer"
     id="layer1"
     transform="translate(0,-197.00002)">
    <path
       style="opacity:1;fill:#020900;fill-opacity:1;stroke:none;stroke-width:1;stroke-linecap:butt;stroke-linejoin:round;stroke-miterlimit:4;stroke-dasharray:none;stroke-opacity:1"
       id="path1047"
       d="m 16.005579,228.04331 c 0.1385,0.39668 0.225785,0.80778 0.300484,1.2204 0.08498,0.503 0.135519,1.01086 0.182223,1.51857 0.05428,0.60898 0.0905,1.21934 0.124466,1.82973 0.03554,0.66116 0.0739,1.32216 0.111302,1.98322 0.03997,0.69648 0.08463,1.39268 0.125969,2.08909 0.04289,0.74258 0.08181,1.48539 0.120099,2.22822 0.03899,0.7493 0.07812,1.49859 0.117024,2.24788 0.04059,0.79073 0.08054,1.58148 0.116605,2.37243 0.03936,0.87067 0.07179,1.74162 0.09685,2.61281 0.02475,0.89384 0.03755,1.78796 0.05102,2.68202 0.01451,0.85536 0.02238,1.71079 0.02681,2.56626 0.0034,0.75986 0.0059,1.51973 0.0083,2.2796 0.0021,0.64015 0.0041,1.28029 0.0061,1.92043 0.0018,0.4495 -0.0043,0.89911 0.02337,1.34796 0.02452,0.19049 0.02175,0.39315 0.0857,0.57671 0.0085,-0.0494 -0.04896,-0.16431 -0.08245,-0.22827 -0.03415,-0.0591 -0.100918,-0.15018 -0.126184,-0.19065 0.157767,0.0914 0.321938,0.16935 0.488497,0.2432 0.322796,0.13969 0.655245,0.25451 0.990579,0.35978 0.431977,0.13298 0.87291,0.23319 1.315287,0.32437 0.569738,0.11412 1.144567,0.19976 1.720534,0.27516 0.68011,0.0846 1.363971,0.13304 2.047783,0.17552 0.808477,0.0458 1.618035,0.0682 2.427545,0.0855 0.905754,0.0203 1.811714,0.0181 2.717473,0.001 0.967692,-0.0234 1.934607,-0.0709 2.901452,-0.11645 0.961705,-0.0438 1.922651,-0.10142 2.88303,-0.16791 0.961199,-0.0699 1.921841,-0.14723 2.882492,-0.22421 0.978358,-0.0776 1.957065,-0.15065 2.935756,-0.22384 0.97082,-0.0724 1.941891,-0.14114 2.913258,-0.20573 0.934996,-0.0622 1.870552,-0.11545 2.806018,-0.16999 0.879959,-0.0511 1.759413,-0.11028 2.638869,-0.1693 0.863113,-0.059 1.726766,-0.1095 2.590112,-0.16483 0.841907,-0.0552 1.683547,-0.1142 2.525501,-0.16862 0.840743,-0.0522 1.681686,-0.10083 2.522342,-0.15449 0.832937,-0.0567 1.665517,-0.11849 2.498262,-0.17795 0.860605,-0.0612 1.721569,-0.1171 2.582751,-0.16947 0.86069,-0.0508 1.721493,-0.0996 2.582373,-0.14712 0.832932,-0.0442 1.665851,-0.0885 2.498754,-0.13326 0.807834,-0.0436 1.615906,-0.0824 2.424073,-0.11921 0.784437,-0.0354 1.569072,-0.0662 2.353754,-0.0956 0.760852,-0.0283 1.521833,-0.0527 2.282849,-0.076 0.726419,-0.0218 1.452883,-0.0423 2.179415,-0.06 0.687065,-0.0175 1.374355,-0.021 2.061605,-0.0224 0.622342,-0.002 1.244586,0.009 1.866691,0.0248 0.587472,0.0156 1.174247,0.0476 1.760135,0.0927 0.530672,0.0435 1.059841,0.10327 1.587704,0.17265 0.49848,0.0664 0.992489,0.16128 1.485886,0.25751 0.371539,0.0734 0.743236,0.14606 1.114536,0.22067 0.304779,0.0611 0.609092,0.12442 0.913175,0.18888 0.234792,0.0499 0.469535,0.1 0.704284,0.15008 0.02689,0.006 0.05368,0.0116 0.08068,0.0167 0.0063,0.001 -0.0122,-0.004 -0.01849,-0.005 -0.04635,-0.008 -0.0925,-0.0183 -0.139369,-0.0223 -0.117272,-0.0102 -0.234942,-0.0253 -0.352544,-0.0203 -0.683305,0.0292 -0.642091,0.0799 -1.362113,0.32519 -0.842478,0.46922 -1.484632,1.18238 -1.669862,2.14083 -0.0024,0.01 -0.0021,0.0382 -0.007,0.0294 -0.05897,-0.10751 -0.03879,-0.66549 -0.04791,-0.79731 -0.04657,-0.60704 -0.109757,-1.21265 -0.167026,-1.81875 -0.06456,-0.71201 -0.135805,-1.42338 -0.204653,-2.13499 -0.07563,-0.80087 -0.14366,-1.60244 -0.214653,-2.40373 -0.06868,-0.81091 -0.148196,-1.6208 -0.238454,-2.42958 -0.103163,-0.90165 -0.215013,-1.80227 -0.320561,-2.70363 -0.109495,-0.94176 -0.210994,-1.88443 -0.310486,-2.82728 -0.09377,-0.91431 -0.182427,-1.82913 -0.276669,-2.74338 -0.08824,-0.86335 -0.175689,-1.72678 -0.268846,-2.58962 -0.08502,-0.78674 -0.167703,-1.57374 -0.253108,-2.36044 -0.07769,-0.71917 -0.159851,-1.43781 -0.247428,-2.15584 -0.0847,-0.66625 -0.169349,-1.3325 -0.251849,-1.99903 -0.06842,-0.56223 -0.138755,-1.12422 -0.208994,-1.68623 -0.05806,-0.4625 -0.115734,-0.92504 -0.171855,-1.38778 -0.0487,-0.40078 -0.09453,-0.8019 -0.139478,-1.20311 -0.03644,-0.32688 -0.07259,-0.65379 -0.108765,-0.9807 -0.03063,-0.2747 -0.06001,-0.54954 -0.08865,-0.82446 -0.02318,-0.22339 -0.04617,-0.4468 -0.06918,-0.6702 -0.06188,-0.42675 0.0501,0.16645 0.0702,0.25505 -1.390521,-4.66133 5.201583,-6.62782 6.592104,-1.96649 v 0 c 0.0808,0.33287 0.159943,0.66359 0.180652,1.00653 0.02275,0.2208 0.04547,0.4416 0.06837,0.66238 0.02711,0.26027 0.05492,0.52046 0.08393,0.78052 0.03585,0.32389 0.07166,0.6478 0.107763,0.97166 0.0426,0.38039 0.08602,0.76069 0.132191,1.14067 0.0551,0.45442 0.111789,0.90864 0.168785,1.36283 0.07057,0.56472 0.141251,1.12942 0.210005,1.69436 0.08301,0.67069 0.168328,1.34108 0.253381,2.01151 0.09116,0.74804 0.176901,1.4967 0.25781,2.24592 0.08555,0.78808 0.168405,1.57644 0.253553,2.36456 0.09431,0.87388 0.183039,1.74832 0.272336,2.62271 0.09363,0.90874 0.181972,1.81801 0.274942,2.72681 0.09671,0.91679 0.195392,1.83341 0.301789,2.74913 0.107005,0.91418 0.220673,1.82758 0.324953,2.74208 0.09564,0.86022 0.180909,1.72152 0.253889,2.58398 0.06935,0.78284 0.135853,1.56595 0.209526,2.3484 0.06933,0.71676 0.141102,1.43329 0.206132,2.15046 0.06271,0.66407 0.132069,1.32762 0.181247,1.99288 0.04435,0.64642 0.0922,1.29596 0.03524,1.94332 -0.184478,1.46705 -0.75239,2.51291 -2.069592,3.29578 -0.298535,0.10822 -0.587989,0.24588 -0.895604,0.32467 -0.60737,0.15556 -1.24737,0.0973 -1.851671,-0.0303 -0.231793,-0.0495 -0.463579,-0.0989 -0.695412,-0.1482 -0.280625,-0.0595 -0.561454,-0.11797 -0.842727,-0.17432 -0.358428,-0.0721 -0.717285,-0.14206 -1.075939,-0.21303 -0.355954,-0.0695 -0.711996,-0.1402 -1.071414,-0.1897 -0.405651,-0.0543 -0.812567,-0.0992 -1.220367,-0.13402 -0.466606,-0.0371 -0.93409,-0.0609 -1.40199,-0.0741 -0.558609,-0.0145 -1.117343,-0.0247 -1.67617,-0.0225 -0.635603,0.001 -1.271246,0.004 -1.906677,0.0203 -0.712245,0.0174 -1.424421,0.0375 -2.136558,0.0588 -0.745453,0.0229 -1.490877,0.0468 -2.236168,0.0744 -0.766242,0.0287 -1.532438,0.0587 -2.298438,0.0933 -0.789461,0.0359 -1.57883,0.0739 -2.367966,0.11643 -0.829606,0.0446 -1.659231,0.0888 -2.488866,0.13273 -0.847984,0.0468 -1.695895,0.0949 -2.543691,0.14487 -0.837015,0.0509 -1.673812,0.10525 -2.510264,0.16468 -0.850032,0.0607 -1.699895,0.12383 -2.550141,0.18146 -0.838811,0.0535 -1.677903,0.10219 -2.516809,0.15413 -0.843206,0.0545 -1.686087,0.11373 -2.52925,0.16886 -0.856427,0.0548 -1.713148,0.10505 -2.569348,0.16347 -0.899525,0.0604 -1.799055,0.12082 -2.699102,0.17307 -0.916813,0.0535 -1.833718,0.10554 -2.750076,0.16651 -0.952471,0.0633 -1.904648,0.13077 -2.856582,0.20172 -0.966526,0.0723 -1.933067,0.14446 -2.899267,0.22102 -0.985618,0.079 -1.971223,0.1583 -2.957417,0.2298 -1.010613,0.0698 -2.021808,0.13051 -3.033805,0.17668 -1.033079,0.0487 -2.066245,0.099 -3.100263,0.12294 -0.996794,0.0178 -1.9938,0.0207 -2.99058,-0.002 -0.903214,-0.0196 -1.806477,-0.045 -2.708483,-0.0973 -0.840956,-0.0528 -1.681823,-0.1145 -2.517952,-0.22115 -0.744049,-0.0986 -1.486631,-0.21035 -2.222309,-0.36031 -0.672247,-0.14072 -1.341796,-0.29686 -1.997403,-0.50318 -0.593709,-0.18997 -1.182272,-0.39726 -1.751651,-0.6523 -0.5676,-0.26031 -1.124908,-0.54559 -1.637271,-0.90515 -0.605212,-0.44276 -1.166025,-0.94229 -1.587486,-1.56954 -0.400988,-0.62143 -0.731994,-1.28139 -0.899899,-2.00687 -0.135669,-0.59009 -0.233308,-1.18787 -0.264846,-1.79345 -0.03098,-0.57162 -0.03718,-1.14362 -0.03439,-1.71604 -0.002,-0.63986 -0.004,-1.27972 -0.0061,-1.91958 -0.0025,-0.75548 -0.0049,-1.51096 -0.0083,-2.26644 -0.0043,-0.83279 -0.01195,-1.66555 -0.02613,-2.49824 -0.01299,-0.86282 -0.02522,-1.72569 -0.04896,-2.5883 -0.02383,-0.83255 -0.05503,-1.66486 -0.09255,-2.49692 -0.03537,-0.77646 -0.07468,-1.55272 -0.114487,-2.32896 -0.03895,-0.75018 -0.07812,-1.50034 -0.117159,-2.2505 -0.03736,-0.72502 -0.07535,-1.45002 -0.1171373,-2.1748 -0.041684,-0.70272 -0.086842,-1.40523 -0.1270669,-2.10804 -0.037523,-0.66334 -0.076022,-1.32663 -0.1116864,-1.99008 -0.029326,-0.52859 -0.060071,-1.0572 -0.1064499,-1.58463 -0.028872,-0.3178 -0.058477,-0.63581 -0.1064389,-0.95142 -0.00346,-0.0218 -0.042741,-0.22381 -0.019791,-0.14497 -1.6046675,-4.59201 4.8894084,-6.86135 6.4940754,-2.26935 z"
       inkscape:connector-curvature="0" />
    <path
       style="opacity:1;fill:#020900;fill-opacity:1;stroke:none;stroke-width:1;stroke-linecap:butt;stroke-linejoin:round;stroke-miterlimit:4;stroke-dasharray:none;stroke-opacity:1"
       id="path1049"
       d="m 49.575412,236.6678 c 0.02418,-0.02 0.0051,0.002 0.0058,0.002 0.04084,-0.0394 0.03055,-0.0286 -0.0045,0.0273 -0.0452,0.0682 -0.08004,0.14188 -0.114368,0.21586 -0.07853,0.16946 -0.154893,0.33997 -0.228725,0.51152 -0.0419,0.094 -0.07147,0.1926 -0.100819,0.291 -0.0463,0.15474 -0.08413,0.31185 -0.122275,0.46875 -0.0292,0.14997 0.01082,-0.0536 0.01765,-0.0891 -5.29e-4,0.0653 0.0047,0.13 0.01363,0.19455 0.01323,0.0951 0.03265,0.18902 0.05416,0.28251 0.0095,0.0119 0.03284,0.071 0.03817,0.0826 -0.06187,-0.17577 -0.173529,-0.32863 -0.290605,-0.4713 -0.02956,-0.0192 -0.04232,-0.0515 -0.05848,-0.0776 -0.05471,-0.0369 -0.11592,-0.064 -0.168609,-0.10376 0.02014,0.006 0.04176,2.7e-4 0.06264,5.3e-4 0.01498,-0.002 0.02894,-0.008 0.04313,-0.0134 -0.15943,0.02 -0.311518,0.0742 -0.456319,0.14205 -0.02685,0.009 0.01132,-0.0301 0.01863,-0.0401 0.02775,-0.0398 0.05074,-0.0826 0.07319,-0.12548 0.08276,-0.1509 0.150281,-0.30932 0.215453,-0.4684 0.06529,-0.14982 0.103124,-0.30864 0.134916,-0.46829 0.03062,-0.1569 0.03648,-0.31711 0.04232,-0.47642 -0.0011,-0.1516 0.01175,-0.30657 -0.01407,-0.45691 -0.0016,0.0507 0.0071,0.10193 0.01521,0.15133 0.06497,0.19335 0.184798,0.36152 0.313979,0.51691 0.06385,0.0745 0.07593,0.0881 0.157122,0.14507 0.27931,0.18346 0.599623,0.27344 0.928177,0.3132 0.208786,0.0184 0.417074,-2.2e-4 0.618914,-0.055 0.189481,-0.0736 -0.05695,0.0516 -0.101476,0.0763 -0.09039,0.0417 -0.378082,0.23242 -0.04733,0.0169 -3.928586,2.86839 -7.985106,-2.68747 -4.056518,-5.55586 v 0 c 0.247719,-0.17053 0.498229,-0.33535 0.76476,-0.47548 0.367382,-0.20374 0.739357,-0.40188 1.13606,-0.54357 0.657206,-0.22192 1.335278,-0.36848 2.033923,-0.33369 0.802222,0.0609 1.580992,0.24161 2.275557,0.66599 0.456838,0.28763 0.89325,0.60601 1.26818,0.99754 0.460174,0.50325 0.857948,1.05612 1.104133,1.69771 0.211166,0.54832 0.37746,1.11343 0.434612,1.70079 0.04413,0.48049 0.06424,0.96275 0.04111,1.4452 -0.02635,0.55156 -0.07574,1.10279 -0.195082,1.64309 -0.126241,0.56134 -0.28048,1.11679 -0.507035,1.64706 -0.2111,0.50105 -0.440219,0.99547 -0.726979,1.45856 -0.318469,0.50061 -0.668481,0.98138 -1.09474,1.39711 -0.406882,0.39104 -0.83842,0.75696 -1.326306,1.04461 -0.575324,0.32931 -1.182066,0.59874 -1.840304,0.71157 -0.480492,0.0807 -0.965783,0.13336 -1.453963,0.11777 -0.516098,-0.0196 -1.030239,-0.0742 -1.531702,-0.20327 -0.606933,-0.1571 -1.201465,-0.36288 -1.738447,-0.69353 -0.484087,-0.30158 -0.947256,-0.63675 -1.34284,-1.05084 -0.448503,-0.49146 -0.842108,-1.027 -1.089387,-1.65028 -0.159994,-0.39705 -0.303194,-0.80139 -0.396156,-1.22008 -0.07434,-0.33977 -0.138665,-0.68193 -0.176892,-1.02787 -0.03758,-0.3616 -0.06056,-0.72464 -0.05224,-1.08843 0.01413,-0.46782 0.05791,-0.93481 0.176329,-1.38915 0.07043,-0.2885 0.14287,-0.57667 0.230137,-0.86063 0.105206,-0.33893 0.219387,-0.67536 0.362352,-1.00054 0.111564,-0.25732 0.225386,-0.51374 0.34553,-0.76718 0.163793,-0.3367 0.33967,-0.66758 0.545232,-0.981 0.208384,-0.31769 0.428681,-0.62821 0.685673,-0.90902 0.208741,-0.22711 0.425739,-0.44696 0.663382,-0.64421 3.729681,-3.12265 8.145775,2.15192 4.416094,5.27457 z"
       inkscape:connector-curvature="0" />
  </g>
</svg>
