<svg viewBox="0 0 100 100"><path style="opacity:1;fill:#020900;fill-opacity:1;stroke:none;stroke-width:1;stroke-linecap:butt;stroke-linejoin:round;stroke-miterlimit:4;stroke-dasharray:none;stroke-opacity:1" d="M16.006 228.043c.138.397.225.808.3 1.22.085.504.136 1.012.182 1.52.055.608.09 1.219.125 1.829q.054.992.111 1.983c.04.697.085 1.393.126 2.09q.064 1.113.12 2.228l.117 2.247q.06 1.186.117 2.373.06 1.305.097 2.613c.024.894.037 1.788.05 2.682q.022 1.282.027 2.566a1732 1732 0 0 1 .015 4.2c.002.45-.004.9.023 1.348.025.19.022.393.086.577.008-.05-.05-.165-.083-.229-.034-.059-.1-.15-.126-.19q.238.135.489.243c.323.14.655.254.99.36.432.133.873.233 1.316.324.57.114 1.144.2 1.72.275.68.085 1.364.133 2.048.176a69 69 0 0 0 2.427.085q1.359.028 2.718.001c.968-.023 1.935-.07 2.901-.116q1.443-.067 2.883-.168 1.442-.107 2.883-.224 1.467-.116 2.936-.224 1.456-.109 2.913-.206c.935-.062 1.87-.115 2.806-.17q1.32-.078 2.639-.17c.863-.058 1.727-.109 2.59-.164l2.525-.169c.841-.052 1.682-.1 2.523-.154l2.498-.178q1.29-.091 2.583-.17a679 679 0 0 1 7.505-.4 308 308 0 0 1 4.637-.17q1.089-.034 2.179-.06a88 88 0 0 1 2.062-.023q.933-.001 1.866.025.882.023 1.76.092.796.068 1.588.173c.499.066.993.161 1.486.258l1.115.22q.456.092.913.19.353.074.704.15l.062.01c-.046-.007-.092-.017-.14-.021-.116-.01-.234-.026-.352-.02-.683.028-.642.08-1.362.324-.842.47-1.484 1.183-1.67 2.141-.002.01-.002.038-.007.03-.059-.108-.038-.666-.048-.798-.046-.607-.11-1.212-.167-1.818-.064-.712-.135-1.424-.204-2.135-.076-.801-.144-1.603-.215-2.404q-.103-1.216-.238-2.43c-.104-.901-.215-1.802-.32-2.703q-.164-1.413-.311-2.828c-.094-.914-.183-1.829-.277-2.743q-.13-1.295-.269-2.59l-.253-2.36q-.117-1.08-.247-2.156-.128-.999-.252-1.999l-.21-1.686-.171-1.388q-.073-.6-.14-1.203l-.108-.98q-.046-.413-.089-.825l-.07-.67c-.061-.427.05.166.071.255-1.39-4.662 5.202-6.628 6.592-1.967.08.333.16.664.18 1.007l.07.662q.04.39.083.78l.108.972q.063.57.132 1.14.083.683.169 1.364l.21 1.694q.125 1.005.253 2.012.137 1.121.258 2.246l.254 2.364q.14 1.31.272 2.623c.093.909.182 1.818.275 2.727q.143 1.375.302 2.749c.107.914.22 1.827.325 2.742q.143 1.29.253 2.584c.07.783.136 1.566.21 2.348q.107 1.076.206 2.15c.063.665.132 1.328.181 1.994.045.646.093 1.296.036 1.943-.185 1.467-.753 2.513-2.07 3.296-.299.108-.588.246-.896.324-.607.156-1.247.098-1.851-.03l-.696-.148q-.42-.09-.842-.174l-1.076-.214c-.356-.069-.712-.14-1.072-.19a26 26 0 0 0-1.22-.133q-.7-.055-1.402-.074a79 79 0 0 0-3.583-.002 390 390 0 0 0-4.373.133 299 299 0 0 0-4.666.21l-2.489.132q-1.272.07-2.544.145-1.255.075-2.51.165c-.85.06-1.7.124-2.55.181-.839.054-1.678.102-2.517.154l-2.53.17c-.856.054-1.712.104-2.568.163q-1.35.092-2.7.173c-.916.053-1.833.105-2.75.166q-1.428.095-2.856.202-1.45.107-2.9.22c-.985.08-1.97.16-2.957.23q-1.515.106-3.034.177c-1.033.05-2.066.1-3.1.123a73 73 0 0 1-2.99-.002 75 75 0 0 1-2.71-.097 39 39 0 0 1-2.517-.221 33 33 0 0 1-2.222-.36 21 21 0 0 1-1.998-.504 17 17 0 0 1-1.751-.652c-.568-.26-1.125-.545-1.638-.905-.605-.443-1.166-.942-1.587-1.57-.401-.621-.732-1.281-.9-2.006a10.4 10.4 0 0 1-.265-1.794 29 29 0 0 1-.034-1.716l-.006-1.92-.009-2.266q-.005-1.25-.026-2.498c-.013-.863-.025-1.726-.049-2.589q-.036-1.248-.092-2.496-.054-1.165-.115-2.33l-.117-2.25q-.055-1.087-.117-2.175-.065-1.053-.127-2.108-.058-.994-.112-1.99c-.03-.528-.06-1.057-.106-1.584a16 16 0 0 0-.107-.952c-.003-.022-.042-.224-.02-.145-1.604-4.592 4.89-6.861 6.495-2.27z" transform="translate(0 -197)"/><path style="opacity:1;fill:#020900;fill-opacity:1;stroke:none;stroke-width:1;stroke-linecap:butt;stroke-linejoin:round;stroke-miterlimit:4;stroke-dasharray:none;stroke-opacity:1" d="M49.575 236.668c.025-.02.006.002.006.002.041-.04.03-.029-.004.027-.045.068-.08.142-.115.216q-.118.255-.228.511a2 2 0 0 0-.101.291q-.067.233-.122.47c-.03.15.01-.054.017-.09q0 .097.014.195.02.142.054.282c.01.012.033.071.038.083a1.6 1.6 0 0 0-.29-.472c-.03-.019-.043-.051-.059-.077-.055-.037-.116-.064-.169-.104.02.006.042 0 .063 0q.022-.003.043-.013c-.16.02-.311.074-.456.142-.027.01.011-.03.019-.04q.04-.06.073-.125c.082-.151.15-.31.215-.469a2.3 2.3 0 0 0 .135-.468 3 3 0 0 0 .042-.476c0-.152.012-.307-.014-.457q0 .076.016.151c.065.193.184.362.314.517a.6.6 0 0 0 .157.145c.279.183.6.273.928.313q.315.028.619-.055c.19-.073-.057.052-.102.077-.09.041-.378.232-.047.016-3.929 2.869-7.985-2.687-4.057-5.555.248-.171.499-.336.765-.476.368-.204.74-.402 1.136-.543.657-.222 1.336-.369 2.034-.334.802.06 1.581.241 2.276.666.457.287.893.606 1.268.997.46.504.858 1.056 1.104 1.698.211.548.377 1.113.435 1.7.044.481.064.964.04 1.446a10 10 0 0 1-.194 1.643 9.5 9.5 0 0 1-.507 1.647c-.211.501-.44.996-.727 1.459-.319.5-.669.981-1.095 1.397-.407.39-.839.757-1.326 1.044-.576.33-1.182.6-1.84.712-.481.08-.966.133-1.455.118a7.2 7.2 0 0 1-1.531-.203c-.607-.158-1.202-.363-1.739-.694-.484-.302-.947-.637-1.343-1.05-.448-.492-.842-1.028-1.089-1.651a8 8 0 0 1-.396-1.22 8.6 8.6 0 0 1-.23-2.116c.015-.468.059-.935.177-1.39.07-.288.143-.576.23-.86a9 9 0 0 1 .362-1q.167-.388.346-.768a9 9 0 0 1 .545-.981c.209-.318.429-.628.686-.909.209-.227.426-.447.663-.644 3.73-3.123 8.146 2.152 4.416 5.274z" transform="translate(0 -197)"/></svg>
