<?xml version="1.0" encoding="UTF-8" standalone="no"?>
<!-- Created with Inkscape (http://www.inkscape.org/) -->

<svg
   xmlns:dc="http://purl.org/dc/elements/1.1/"
   xmlns:cc="http://creativecommons.org/ns#"
   xmlns:rdf="http://www.w3.org/1999/02/22-rdf-syntax-ns#"
   xmlns:svg="http://www.w3.org/2000/svg"
   xmlns="http://www.w3.org/2000/svg"
   xmlns:sodipodi="http://sodipodi.sourceforge.net/DTD/sodipodi-0.dtd"
   xmlns:inkscape="http://www.inkscape.org/namespaces/inkscape"
   width="10cm"
   height="10cm"
   viewBox="0 0 100 99.999997"
   version="1.1"
   id="svg8"
   sodipodi:docname="jaki.svg"
   inkscape:version="0.92.3 (2405546, 2018-03-11)">
  <defs
     id="defs2" />
  <sodipodi:namedview
     id="base"
     pagecolor="#ffffff"
     bordercolor="#666666"
     borderopacity="1.0"
     inkscape:pageopacity="0.0"
     inkscape:pageshadow="2"
     inkscape:zoom="1"
     inkscape:cx="125.50186"
     inkscape:cy="200.50542"
     inkscape:document-units="cm"
     inkscape:current-layer="layer1"
     showgrid="true"
     units="cm"
     inkscape:window-width="1920"
     inkscape:window-height="1017"
     inkscape:window-x="-8"
     inkscape:window-y="-8"
     inkscape:window-maximized="1">
    <inkscape:grid
       type="xygrid"
       id="grid815"
       units="cm"
       spacingx="9.9999998"
       spacingy="9.9999998" />
  </sodipodi:namedview>
  <metadata
     id="metadata5">
    <rdf:RDF>
      <cc:Work
         rdf:about="">
        <dc:format>image/svg+xml</dc:format>
        <dc:type
           rdf:resource="http://purl.org/dc/dcmitype/StillImage" />
        <dc:title></dc:title>
      </cc:Work>
    </rdf:RDF>
  </metadata>
  <g
     inkscape:label="Layer 1"
     inkscape:groupmode="layer"
     id="layer1"
     transform="translate(0,-197.00002)">
    <path
       style="opacity:1;fill:#020900;fill-opacity:1;stroke:none;stroke-width:1;stroke-linecap:butt;stroke-linejoin:round;stroke-miterlimit:4;stroke-dasharray:none;stroke-opacity:1"
       id="path1053"
       d="m 38.059301,249.07446 c -0.242853,7.9e-4 -0.485502,0.0123 -0.728146,0.0212 -0.581935,0.0157 -1.163161,0.0424 -1.743512,0.0881 -0.897887,0.0761 -1.787771,0.22056 -2.675125,0.37372 -1.176324,0.20254 -2.338943,0.4714 -3.490968,0.78203 -1.190612,0.32492 -2.342555,0.76833 -3.476006,1.25264 -1.056601,0.45324 -2.064933,1.00389 -3.03313,1.62174 -0.769432,0.49506 -1.467555,1.08377 -2.087609,1.75485 -0.402113,0.43464 -0.675382,0.94878 -0.888084,1.49575 -0.161235,0.42904 -0.219258,0.87543 -0.183924,1.33007 0.05868,0.47047 0.260773,0.90059 0.469579,1.32021 0.369128,0.71981 0.86327,1.36025 1.385546,1.97362 0.658965,0.76387 1.433508,1.41022 2.229975,2.02389 0.972409,0.73816 2.028073,1.35205 3.09903,1.93336 1.236731,0.65971 2.517468,1.2304 3.810908,1.76832 1.378683,0.56653 2.795381,1.03114 4.220845,1.46342 1.482685,0.44633 2.992376,0.79091 4.510828,1.08947 1.499748,0.28902 3.017652,0.45976 4.539128,0.57959 1.515779,0.1128 3.035983,0.11586 4.554458,0.0764 1.530813,-0.0417 3.053691,-0.20234 4.570473,-0.40449 1.510065,-0.20669 3.005069,-0.50383 4.491673,-0.83688 1.379244,-0.30215 2.723994,-0.72658 4.033208,-1.25203 1.291611,-0.53358 2.478188,-1.27425 3.640362,-2.04182 1.184685,-0.7902 2.311434,-1.66114 3.398523,-2.57977 0.970425,-0.81455 1.830511,-1.742 2.623764,-2.72676 0.799976,-1.0141 1.445837,-2.13311 2.05115,-3.27034 0.561774,-1.06811 1.033376,-2.17874 1.443964,-3.31257 0.328605,-0.91461 0.556456,-1.85872 0.716812,-2.81592 0.134667,-0.83283 0.1549,-1.67516 0.101719,-2.51534 -0.03769,-0.64545 -0.213109,-1.25769 -0.47802,-1.84318 -0.290727,-0.60092 -0.718344,-1.1135 -1.166778,-1.60153 -0.612267,-0.64845 -1.333365,-1.17354 -2.0729,-1.66529 -0.92202,-0.60213 -1.919316,-1.0685 -2.938907,-1.47742 -1.269918,-0.48646 -2.589627,-0.82079 -3.913097,-1.12356 -1.546926,-0.35509 -3.122536,-0.54301 -4.702336,-0.66943 -1.752373,-0.1268 -3.509701,-0.0993 -5.263023,-0.016 -1.775487,0.095 -3.540736,0.31159 -5.298146,0.5748 -1.639242,0.24938 -3.257193,0.61336 -4.865082,1.01411 -1.462249,0.3692 -2.902659,0.81649 -4.328075,1.30754 -1.202648,0.41115 -2.361533,0.93116 -3.488587,1.51582 -0.862949,0.45018 -1.674683,0.98622 -2.408587,1.625 -0.480113,0.42988 -0.850246,0.95247 -1.159449,1.51347 -0.242438,0.45186 -0.391729,0.93756 -0.453345,1.44484 -0.04219,0.3839 0.03287,0.75646 0.139454,1.12283 0.137155,0.44993 0.377121,0.8493 0.661821,1.21943 0.388453,0.47131 0.884354,0.82961 1.392534,1.15988 0.685771,0.4338 1.448599,0.70212 2.226574,0.91417 1.000808,0.25722 2.032058,0.29906 3.059618,0.28374 1.19824,-0.0277 2.372188,-0.26074 3.527187,-0.56371 1.269944,-0.34718 2.469811,-0.88595 3.628326,-1.50319 1.267989,-0.69163 2.405931,-1.58031 3.495321,-2.52132 1.130252,-0.99381 2.134523,-2.11556 3.07858,-3.2844 0.86182,-1.06721 1.562651,-2.24392 2.178365,-3.46585 0.556683,-1.12227 0.931056,-2.3154 1.199732,-3.53529 0.22928,-1.09166 0.273812,-2.20448 0.218731,-3.31494 -0.04974,-0.88602 -0.260734,-1.7408 -0.603954,-2.55581 -0.34173,-0.7584 -0.864767,-1.40058 -1.435719,-1.99619 -0.718127,-0.73314 -1.58692,-1.27606 -2.477291,-1.77198 -1.104723,-0.60426 -2.287815,-1.0324 -3.492643,-1.38557 -1.240901,-0.34935 -2.520754,-0.5086 -3.80184,-0.61559 -1.153382,-0.0978 -2.307148,-0.0498 -3.449235,0.12727 -0.874485,0.14145 -1.691651,0.46362 -2.464769,0.88588 -0.589809,0.33239 -1.083143,0.78411 -1.507238,1.30654 -0.362106,0.46942 -0.590032,1.01273 -0.760413,1.57565 -0.113763,0.41331 -0.167806,0.83863 -0.08012,1.26054 0.09678,0.32225 0.272208,0.6127 0.446894,0.89755 0.291407,0.45104 0.629274,0.8693 0.963139,1.28903 0.225854,0.27038 0.432919,0.55494 0.638953,0.84041 2.823858,3.96072 -2.777445,7.95426 -5.601303,3.99354 v 0 c -0.131818,-0.19105 -0.27404,-0.37409 -0.42231,-0.55278 -0.530698,-0.66774 -1.058442,-1.34053 -1.501344,-2.07125 -0.647535,-1.11348 -1.182163,-2.28777 -1.354357,-3.57824 -0.146642,-1.4271 -0.0743,-2.84711 0.373701,-4.22211 0.475749,-1.40674 1.103473,-2.7521 2.065654,-3.89935 1.01395,-1.1639 2.158474,-2.19284 3.530045,-2.92452 1.474486,-0.76381 3.022272,-1.36087 4.674319,-1.60711 1.669294,-0.23678 3.352396,-0.32635 5.035717,-0.1751 1.745583,0.15249 3.48724,0.38646 5.174787,0.87569 1.69682,0.50947 3.362415,1.12439 4.914635,1.98926 1.49569,0.85203 2.93333,1.80928 4.12355,3.0679 1.137727,1.23579 2.153108,2.57665 2.797209,4.14286 0.600287,1.54527 1.01594,3.14571 1.086877,4.81086 0.0657,1.71927 -0.01,3.44108 -0.382466,5.12725 -0.408376,1.77075 -0.955138,3.50626 -1.776973,5.13361 -0.844,1.64909 -1.796741,3.24048 -2.968056,4.68178 -1.20831,1.48434 -2.491452,2.90965 -3.937913,4.16833 -1.485257,1.27083 -3.041391,2.46276 -4.770123,3.38874 -1.636448,0.85633 -3.3285,1.60606 -5.119729,2.07942 -1.697496,0.43203 -3.42296,0.75609 -5.18082,0.78107 -1.683522,0.009 -3.369463,-0.0955 -5.001167,-0.54489 -1.463932,-0.42472 -2.891848,-0.96703 -4.171066,-1.8128 -1.181259,-0.80075 -2.296774,-1.69914 -3.150574,-2.85709 -0.76627,-1.08789 -1.411637,-2.24994 -1.748359,-3.54805 -0.310049,-1.2793 -0.468902,-2.58249 -0.265921,-3.89534 0.22702,-1.33035 0.611253,-2.62038 1.28621,-3.79896 0.723202,-1.23241 1.570913,-2.38282 2.662259,-3.31905 1.146228,-0.9638 2.376598,-1.8164 3.712747,-2.49951 1.42539,-0.73239 2.887517,-1.39062 4.406177,-1.90781 1.615311,-0.55437 3.24689,-1.06133 4.903772,-1.47777 1.821209,-0.45237 3.654047,-0.86171 5.51066,-1.14227 1.987909,-0.29568 3.984617,-0.53869 5.992886,-0.64267 2.046084,-0.094 4.096732,-0.12242 6.141196,0.0312 1.910464,0.15744 3.815641,0.38967 5.686044,0.82169 1.678982,0.38759 3.351046,0.82229 4.957747,1.45322 1.454118,0.59459 2.876552,1.26934 4.188235,2.14122 1.203925,0.81388 2.365629,1.69543 3.349643,2.77286 0.948624,1.06507 1.815444,2.20386 2.388751,3.52093 0.547598,1.32763 0.940012,2.70488 1.012717,4.14817 0.06856,1.35738 0.03834,2.71773 -0.190958,4.06099 -0.238257,1.36055 -0.559679,2.70515 -1.033148,4.00508 -0.526182,1.43635 -1.122854,2.84608 -1.839936,4.19887 -0.815644,1.52151 -1.695588,3.01209 -2.777059,4.36325 -1.073023,1.31497 -2.227212,2.56083 -3.53183,3.65177 -1.296278,1.09012 -2.636316,2.12774 -4.048397,3.06496 -1.555351,1.02172 -3.15245,1.98982 -4.883338,2.68937 -1.649918,0.65086 -3.337539,1.19564 -5.072804,1.57258 -1.683988,0.37571 -3.377475,0.71076 -5.087979,0.94286 -1.759218,0.23233 -3.525571,0.41548 -5.300792,0.462 -1.758789,0.0435 -3.51952,0.0377 -5.274919,-0.0959 -1.784924,-0.14358 -3.565694,-0.34583 -5.324795,-0.68805 -1.743308,-0.34518 -3.476784,-0.74194 -5.178906,-1.25646 -1.643918,-0.50042 -3.277283,-1.03918 -4.866654,-1.69544 -1.512667,-0.63132 -3.010279,-1.3013 -4.455384,-2.07706 -1.393146,-0.76086 -2.76253,-1.57004 -4.024066,-2.53829 -1.176376,-0.91635 -2.311156,-1.89024 -3.278398,-3.03129 -0.891405,-1.06739 -1.721512,-2.18901 -2.332561,-3.44473 -0.608849,-1.30433 -1.086072,-2.66295 -1.136051,-4.11785 -0.01268,-1.41264 0.1621,-2.80599 0.70573,-4.12284 0.556877,-1.31163 1.259066,-2.54793 2.245666,-3.59006 1.026196,-1.07192 2.146191,-2.04524 3.404575,-2.83943 1.286489,-0.81055 2.619227,-1.54422 4.020235,-2.14001 1.43049,-0.60685 2.884446,-1.16108 4.386435,-1.56684 1.356092,-0.36268 2.723615,-0.68065 4.107841,-0.91759 1.098561,-0.18852 2.200698,-0.36282 3.312454,-0.45297 0.672856,-0.0511 1.34644,-0.0865 2.021064,-0.10385 0.326494,-0.012 0.653018,-0.0261 0.979805,-0.0258 4.864304,0 4.864304,6.87917 0,6.87917 z"
       inkscape:connector-curvature="0" />
    <path
       style="opacity:1;fill:#020900;fill-opacity:1;stroke:none;stroke-width:1;stroke-linecap:butt;stroke-linejoin:round;stroke-miterlimit:4;stroke-dasharray:none;stroke-opacity:1"
       id="path1059"
       d="m 58.697436,255.75456 c 0.278593,0.0964 0.557527,0.19149 0.838729,0.27999 0.298678,0.0785 0.592254,0.19103 0.897509,0.2425 -0.485531,-0.14408 -1.102722,0.0224 -1.525987,0.26072 -0.209251,0.11782 -0.387993,0.28308 -0.581988,0.42463 -0.417266,0.5146 -0.388093,0.40154 -0.62476,0.93557 -0.03141,0.0709 -0.07386,0.28438 -0.09826,0.21079 -0.05388,-0.16254 -0.0659,-0.33608 -0.100722,-0.50373 -0.338653,-1.42368 -0.924594,-2.77106 -1.517012,-4.10358 -0.976717,-2.17506 -2.227829,-4.20569 -3.527285,-6.19875 -1.705488,-2.56196 -3.586805,-4.99943 -5.503563,-7.40511 -2.096828,-2.61461 -4.330242,-5.11416 -6.609435,-7.56983 -2.061715,-2.2075 -4.213053,-4.3281 -6.396222,-6.41464 -1.750206,-1.6678 -3.547126,-3.2853 -5.345375,-4.90082 -3.618494,-3.25084 0.978887,-8.36816 4.597382,-5.11732 v 0 c 1.850998,1.66294 3.700168,3.32842 5.501449,5.04546 2.282135,2.18191 4.530754,4.39967 6.685566,6.70832 2.396085,2.58311 4.743767,5.21255 6.947633,7.96307 2.052269,2.57765 4.064949,5.1906 5.887704,7.93772 1.496978,2.30258 2.930353,4.65269 4.051884,7.16584 0.810829,1.83615 1.592562,3.70122 1.998523,5.6759 0.246409,1.4667 0.398108,3.01253 -0.328899,4.38668 -0.178847,0.33804 -0.434602,0.62942 -0.651901,0.94413 -0.292976,0.24482 -0.558488,0.52689 -0.87893,0.73448 -1.02067,0.66122 -2.264003,0.76579 -3.428646,0.54533 -0.512566,-0.11497 -1.019966,-0.2509 -1.521393,-0.40788 -0.313323,-0.0993 -0.625232,-0.2027 -0.935443,-0.31134 -4.616085,-1.53402 -2.446647,-8.06215 2.169438,-6.52813 z"
       inkscape:connector-curvature="0" />
  </g>
</svg>
