<svg viewBox="0 0 100 100"><path style="opacity:1;fill:#020900;fill-opacity:1;stroke:none;stroke-width:1;stroke-linecap:butt;stroke-linejoin:round;stroke-miterlimit:4;stroke-dasharray:none;stroke-opacity:1" d="M38.06 249.074c-.244.001-.486.013-.729.022a34 34 0 0 0-1.743.088c-.898.076-1.788.22-2.675.373a39 39 0 0 0-3.491.783c-1.191.324-2.343.768-3.476 1.252a21 21 0 0 0-3.034 1.622 10.8 10.8 0 0 0-2.087 1.755c-.402.434-.676.949-.888 1.495a3.05 3.05 0 0 0-.184 1.33c.058.471.26.901.47 1.32.369.72.863 1.361 1.385 1.974.659.764 1.433 1.41 2.23 2.024.972.738 2.028 1.352 3.099 1.934 1.237.66 2.517 1.23 3.81 1.768 1.38.566 2.796 1.031 4.222 1.463 1.482.447 2.992.791 4.51 1.09 1.5.289 3.018.46 4.54.58 1.515.112 3.036.115 4.554.076 1.53-.042 3.054-.203 4.57-.405 1.51-.206 3.006-.503 4.492-.837a25.5 25.5 0 0 0 4.033-1.252c1.292-.533 2.479-1.274 3.64-2.041a38 38 0 0 0 3.4-2.58c.97-.815 1.83-1.742 2.623-2.727.8-1.014 1.446-2.133 2.051-3.27a26 26 0 0 0 1.444-3.313c.329-.914.557-1.859.717-2.816a11.3 11.3 0 0 0 .102-2.515 5.2 5.2 0 0 0-.478-1.843c-.291-.601-.719-1.114-1.167-1.602-.612-.648-1.333-1.173-2.073-1.665-.922-.602-1.92-1.069-2.939-1.478-1.27-.486-2.59-.82-3.913-1.123-1.547-.355-3.122-.543-4.702-.67-1.753-.126-3.51-.099-5.263-.015-1.776.095-3.541.311-5.298.574-1.64.25-3.258.614-4.866 1.014-1.462.37-2.902.817-4.328 1.308a25.5 25.5 0 0 0-3.488 1.516c-.863.45-1.675.986-2.409 1.625-.48.43-.85.952-1.16 1.513a4.1 4.1 0 0 0-.453 1.445c-.042.384.033.757.14 1.123.137.45.377.85.662 1.22.388.47.884.829 1.392 1.16.686.433 1.449.701 2.227.913 1 .258 2.032.3 3.06.284 1.198-.028 2.372-.26 3.527-.564 1.27-.347 2.47-.886 3.628-1.503 1.268-.691 2.406-1.58 3.495-2.521 1.13-.994 2.135-2.116 3.079-3.284.862-1.068 1.562-2.244 2.178-3.466.557-1.123.931-2.316 1.2-3.536.23-1.091.274-2.204.219-3.315a7.7 7.7 0 0 0-.604-2.555c-.342-.759-.865-1.401-1.436-1.997-.718-.733-1.587-1.276-2.477-1.772-1.105-.604-2.288-1.032-3.493-1.385-1.24-.35-2.52-.509-3.802-.616a14.5 14.5 0 0 0-3.449.128c-.875.141-1.692.463-2.465.885-.59.333-1.083.785-1.507 1.307-.362.47-.59 1.013-.76 1.576-.114.413-.168.838-.08 1.26.096.322.272.613.446.898.292.45.63.869.963 1.289.226.27.433.555.64.84 2.823 3.96-2.778 7.954-5.602 3.994a8 8 0 0 0-.422-.553c-.53-.668-1.059-1.34-1.502-2.071-.647-1.114-1.182-2.288-1.354-3.579-.147-1.427-.074-2.847.374-4.222.476-1.406 1.103-2.752 2.065-3.899 1.014-1.164 2.159-2.193 3.53-2.925 1.475-.763 3.023-1.36 4.675-1.607 1.67-.236 3.352-.326 5.036-.175 1.745.153 3.487.387 5.174.876 1.697.51 3.363 1.124 4.915 1.99 1.496.851 2.933 1.808 4.124 3.067 1.137 1.236 2.153 2.577 2.797 4.143.6 1.545 1.016 3.146 1.087 4.81.065 1.72-.01 3.442-.383 5.128-.408 1.77-.955 3.506-1.777 5.134-.844 1.649-1.797 3.24-2.968 4.681-1.208 1.485-2.491 2.91-3.938 4.169-1.485 1.27-3.041 2.463-4.77 3.389-1.636.856-3.328 1.606-5.12 2.079-1.697.432-3.423.756-5.18.781-1.684.009-3.37-.095-5.002-.545-1.464-.425-2.891-.967-4.17-1.813-1.182-.8-2.297-1.699-3.151-2.857-.767-1.088-1.412-2.25-1.749-3.548-.31-1.28-.469-2.582-.266-3.895.227-1.33.612-2.62 1.287-3.8.723-1.232 1.57-2.382 2.662-3.318 1.146-.964 2.376-1.817 3.713-2.5 1.425-.732 2.887-1.39 4.406-1.907a61 61 0 0 1 4.904-1.478c1.82-.453 3.654-.862 5.51-1.143 1.988-.295 3.985-.538 5.993-.642 2.046-.094 4.097-.123 6.141.031 1.91.157 3.816.39 5.686.822 1.68.387 3.351.822 4.958 1.453 1.454.595 2.877 1.27 4.188 2.141 1.204.814 2.366 1.696 3.35 2.773.949 1.065 1.815 2.204 2.389 3.52.547 1.329.94 2.706 1.012 4.15.069 1.356.039 2.717-.19 4.06-.239 1.36-.56 2.705-1.034 4.005-.526 1.437-1.122 2.846-1.84 4.199-.815 1.522-1.695 3.012-2.777 4.363-1.073 1.315-2.227 2.561-3.531 3.652-1.297 1.09-2.637 2.128-4.049 3.065-1.555 1.022-3.152 1.99-4.883 2.69-1.65.65-3.338 1.195-5.073 1.572-1.684.376-3.377.71-5.088.943-1.76.232-3.526.415-5.3.462-1.76.043-3.52.038-5.276-.096-1.785-.144-3.565-.346-5.324-.688-1.744-.345-3.477-.742-5.18-1.257-1.643-.5-3.277-1.039-4.866-1.695-1.513-.631-3.01-1.301-4.455-2.077-1.394-.76-2.763-1.57-4.024-2.538-1.177-.917-2.312-1.89-3.279-3.032-.891-1.067-1.721-2.189-2.332-3.444-.61-1.305-1.087-2.663-1.137-4.118-.012-1.413.163-2.806.706-4.123.557-1.312 1.26-2.548 2.246-3.59 1.026-1.072 2.146-2.045 3.404-2.84 1.287-.81 2.62-1.544 4.02-2.14 1.431-.606 2.885-1.16 4.387-1.566a46 46 0 0 1 4.108-.918c1.099-.189 2.2-.363 3.312-.453a40 40 0 0 1 2.021-.104c.327-.012.654-.026.98-.026 4.865 0 4.865 6.88 0 6.88" transform="translate(0 -197)"/><path style="opacity:1;fill:#020900;fill-opacity:1;stroke:none;stroke-width:1;stroke-linecap:butt;stroke-linejoin:round;stroke-miterlimit:4;stroke-dasharray:none;stroke-opacity:1" d="M58.697 255.755q.418.145.84.28c.298.078.591.19.897.242-.486-.144-1.103.022-1.526.26-.21.119-.388.284-.582.425-.418.515-.388.402-.625.936-.031.07-.074.284-.098.21-.054-.162-.066-.335-.101-.503-.339-1.424-.925-2.771-1.517-4.104-.977-2.175-2.228-4.205-3.527-6.198-1.706-2.562-3.587-5-5.504-7.405-2.097-2.615-4.33-5.115-6.61-7.57-2.061-2.208-4.212-4.328-6.396-6.415-1.75-1.668-3.547-3.285-5.345-4.9-3.618-3.252.979-8.369 4.597-5.118 1.851 1.663 3.7 3.328 5.502 5.045 2.282 2.182 4.53 4.4 6.685 6.709 2.397 2.583 4.744 5.212 6.948 7.963 2.052 2.577 4.065 5.19 5.888 7.938 1.497 2.302 2.93 4.652 4.052 7.165.81 1.837 1.592 3.702 1.998 5.676.247 1.467.398 3.013-.329 4.387-.179.338-.434.63-.652.944-.293.245-.558.527-.879.735-1.02.66-2.264.765-3.428.545q-.77-.173-1.522-.408-.47-.15-.935-.311c-4.616-1.534-2.447-8.062 2.17-6.528" transform="translate(0 -197)"/></svg>
