<?xml version="1.0" encoding="UTF-8" standalone="no"?>
<!-- Created with Inkscape (http://www.inkscape.org/) -->

<svg
   xmlns:dc="http://purl.org/dc/elements/1.1/"
   xmlns:cc="http://creativecommons.org/ns#"
   xmlns:rdf="http://www.w3.org/1999/02/22-rdf-syntax-ns#"
   xmlns:svg="http://www.w3.org/2000/svg"
   xmlns="http://www.w3.org/2000/svg"
   xmlns:sodipodi="http://sodipodi.sourceforge.net/DTD/sodipodi-0.dtd"
   xmlns:inkscape="http://www.inkscape.org/namespaces/inkscape"
   width="10cm"
   height="10cm"
   viewBox="0 0 100 99.999997"
   version="1.1"
   id="svg8"
   sodipodi:docname="jan.svg"
   inkscape:version="0.92.3 (2405546, 2018-03-11)">
  <defs
     id="defs2" />
  <sodipodi:namedview
     id="base"
     pagecolor="#ffffff"
     bordercolor="#666666"
     borderopacity="1.0"
     inkscape:pageopacity="0.0"
     inkscape:pageshadow="2"
     inkscape:zoom="1"
     inkscape:cx="175.50186"
     inkscape:cy="160.37856"
     inkscape:document-units="cm"
     inkscape:current-layer="layer1"
     showgrid="true"
     units="cm"
     inkscape:window-width="882"
     inkscape:window-height="707"
     inkscape:window-x="784"
     inkscape:window-y="204"
     inkscape:window-maximized="0"
     inkscape:snap-nodes="false">
    <inkscape:grid
       type="xygrid"
       id="grid815"
       units="cm"
       spacingx="9.9999998"
       spacingy="9.9999998" />
  </sodipodi:namedview>
  <metadata
     id="metadata5">
    <rdf:RDF>
      <cc:Work
         rdf:about="">
        <dc:format>image/svg+xml</dc:format>
        <dc:type
           rdf:resource="http://purl.org/dc/dcmitype/StillImage" />
        <dc:title></dc:title>
      </cc:Work>
    </rdf:RDF>
  </metadata>
  <g
     inkscape:label="Layer 1"
     inkscape:groupmode="layer"
     id="layer1"
     transform="translate(0,-197.00002)">
    <path
       style="opacity:1;fill:#020900;fill-opacity:1;stroke:none;stroke-width:1;stroke-linecap:butt;stroke-linejoin:round;stroke-miterlimit:4;stroke-dasharray:none;stroke-opacity:1"
       id="path1671"
       d="m 47.541216,212.56043 c -0.122078,-0.004 -0.244178,-0.008 -0.366281,-0.0121 -0.246729,-0.007 -0.493538,-0.0106 -0.740336,-0.0141 -0.421092,-0.006 -0.842211,-0.009 -1.263324,-0.0122 -0.526402,-0.009 -1.052653,2.3e-4 -1.578629,0.0212 -0.597728,0.0193 -1.191593,0.088 -1.783442,0.16994 -0.700471,0.0987 -1.393391,0.24153 -2.081877,0.40247 -0.733083,0.17161 -1.450737,0.39927 -2.162326,0.64347 -0.741624,0.2547 -1.468225,0.54912 -2.18463,0.86723 -0.727001,0.32575 -1.427133,0.70617 -2.117375,1.10275 -0.706501,0.40106 -1.368502,0.87075 -2.0055,1.37327 -0.70713,0.56684 -1.346758,1.20948 -1.968468,1.86696 -0.698217,0.74929 -1.349806,1.53977 -1.98197,2.34498 -0.61536,0.77544 -1.150402,1.60719 -1.644748,2.46339 -0.511621,0.90331 -0.94134,1.84865 -1.339697,2.80622 -0.395242,0.95897 -0.703512,1.94933 -0.965145,2.95199 -0.258893,1.02574 -0.416271,2.07246 -0.535393,3.12241 -0.122881,1.11234 -0.121591,2.23118 -0.06743,3.34726 0.06632,1.19881 0.287784,2.37884 0.545962,3.54876 0.295866,1.30786 0.696097,2.58764 1.154466,3.84669 0.455818,1.24251 1.067514,2.41568 1.728686,3.55897 0.70318,1.19129 1.51588,2.31166 2.353593,3.41063 0.829913,1.08459 1.73311,2.109 2.662732,3.10831 0.905327,0.9679 1.863222,1.8841 2.839215,2.77996 0.902522,0.83327 1.863979,1.59704 2.857931,2.31738 0.966285,0.69442 2.000522,1.28276 3.054715,1.83103 1.109467,0.5707 2.266074,1.03858 3.438948,1.46028 1.185754,0.42089 2.409121,0.7159 3.638426,0.97591 1.277964,0.26399 2.572782,0.42607 3.870999,0.54784 1.24291,0.11257 2.49069,0.14109 3.737825,0.11815 1.167373,-0.0256 2.326489,-0.16917 3.476805,-0.36098 1.106902,-0.18329 2.179425,-0.50808 3.227718,-0.9013 1.039609,-0.39149 1.987592,-0.96535 2.897809,-1.59376 0.99772,-0.71245 1.911871,-1.53124 2.808642,-2.3646 0.855541,-0.80211 1.652762,-1.66245 2.419067,-2.54929 0.719704,-0.83255 1.343237,-1.73905 1.934967,-2.66489 0.597423,-0.94274 1.126579,-1.92548 1.626412,-2.9226 0.479856,-0.96862 0.909481,-1.9607 1.299892,-2.96838 0.367078,-0.95265 0.650489,-1.9335 0.892533,-2.92436 0.257437,-1.0757 0.396504,-2.17328 0.498879,-3.27297 0.105688,-1.2192 0.110924,-2.44336 0.08724,-3.66589 -0.01979,-1.16738 -0.130064,-2.3294 -0.285456,-3.48566 -0.1499,-1.07322 -0.384128,-2.13171 -0.637665,-3.18442 -0.24503,-1.01166 -0.544658,-2.00868 -0.868267,-2.99762 -0.29338,-0.89115 -0.647504,-1.76016 -1.024377,-2.61874 -0.340952,-0.77681 -0.745106,-1.52258 -1.165915,-2.25831 -0.424177,-0.73238 -0.866659,-1.45383 -1.327235,-2.16383 -0.391816,-0.59845 -0.81244,-1.17702 -1.250521,-1.74224 -0.333777,-0.43693 -0.708189,-0.8382 -1.109599,-1.21295 -0.397663,-0.36111 -0.822166,-0.69064 -1.257443,-1.00476 -0.439819,-0.31446 -0.899665,-0.59917 -1.365541,-0.87299 -0.459216,-0.26758 -0.928394,-0.51742 -1.401548,-0.7593 -0.428469,-0.21793 -0.866177,-0.41675 -1.306013,-0.61042 -0.404656,-0.17773 -0.816326,-0.33869 -1.229751,-0.49468 -0.375124,-0.14009 -0.753438,-0.27135 -1.134914,-0.39302 -0.359122,-0.11213 -0.721919,-0.21193 -1.086033,-0.3064 -0.361707,-0.0931 -0.727009,-0.17104 -1.092816,-0.246 -0.373505,-0.0763 -0.748832,-0.14309 -1.124593,-0.20719 -0.360014,-0.0614 -0.721167,-0.11572 -1.082813,-0.16652 -0.34454,-0.0483 -0.690745,-0.083 -1.037209,-0.11396 -0.371575,-0.0328 -0.744096,-0.0523 -1.116608,-0.0706 -0.376375,-0.0179 -0.752819,-0.0344 -1.129263,-0.0508 -0.318269,-0.0139 -0.636563,-0.0273 -0.954868,-0.0404 -0.274597,-0.0113 -0.54923,-0.0219 -0.823883,-0.0318 -0.20466,-0.006 -0.409358,-0.018 -0.61413,-0.0108 -0.178601,0.005 -0.356653,0.0198 -0.534125,0.04 -0.145862,0.0188 -0.293097,0.0415 -0.435191,0.0741 0.0392,-0.009 0.0784,-0.0175 0.117599,-0.0262 -4.642038,1.4536 -6.697737,-5.11123 -2.055699,-6.56483 v 0 c 0.130694,-0.0374 0.261387,-0.0748 0.392084,-0.11216 0.410419,-0.0904 0.824174,-0.16466 1.242237,-0.21026 0.371316,-0.0393 0.743619,-0.0697 1.117084,-0.078 0.339593,-0.006 0.679024,-0.002 1.018363,0.0135 0.286173,0.0103 0.572325,0.0213 0.858443,0.0331 0.32377,0.0133 0.647528,0.027 0.971264,0.0411 0.389461,0.0169 0.778918,0.034 1.168302,0.0526 0.465662,0.023 0.93127,0.0485 1.39572,0.09 0.46057,0.0417 0.920734,0.0887 1.378735,0.15337 0.428189,0.0604 0.855824,0.12471 1.282092,0.19755 0.451167,0.0771 0.901763,0.15777 1.350206,0.24961 0.482658,0.0993 0.964419,0.2035 1.441526,0.32712 0.487061,0.12703 0.972408,0.26103 1.45246,0.41268 0.49308,0.15846 0.982874,0.32692 1.467728,0.50914 0.529011,0.20014 1.055547,0.40715 1.573268,0.63518 0.561171,0.24768 1.119251,0.50269 1.665716,0.78162 0.594638,0.30479 1.184323,0.61948 1.76108,0.95713 0.653087,0.38607 1.297366,0.78782 1.912959,1.23197 0.673618,0.49105 1.33133,1.00495 1.942287,1.57317 0.655201,0.62398 1.275549,1.28292 1.825054,2.00325 0.553638,0.71738 1.086977,1.45034 1.581856,2.20979 0.529765,0.81866 1.040686,1.64927 1.528136,2.4939 0.540046,0.94768 1.055838,1.90973 1.493324,2.90987 0.464431,1.06327 0.900872,2.13925 1.262105,3.24258 0.379015,1.16337 0.730805,2.33588 1.017653,3.5258 0.307602,1.28361 0.588643,2.5748 0.767787,3.88354 0.18683,1.41499 0.321082,2.83675 0.344379,4.26492 0.02672,1.48189 0.01582,2.96567 -0.116726,4.4431 -0.137867,1.43515 -0.32638,2.8669 -0.66797,4.26976 -0.316939,1.27803 -0.683713,2.54397 -1.160783,3.77262 -0.471712,1.20873 -0.985144,2.40092 -1.56406,3.56265 -0.609275,1.21045 -1.254054,2.40346 -1.982314,3.5473 -0.772266,1.20148 -1.589051,2.37541 -2.526313,3.45587 -0.932022,1.07389 -1.899592,2.11731 -2.939796,3.08812 -1.147329,1.06317 -2.322256,2.10133 -3.605051,3.00057 -1.379453,0.93688 -2.819763,1.78375 -4.389559,2.36532 -1.463376,0.5379 -2.958018,0.98779 -4.500208,1.23862 -1.482074,0.24193 -2.974954,0.42332 -4.478317,0.4515 -1.502672,0.0238 -3.006111,-0.009 -4.503459,-0.14782 -1.560505,-0.14905 -3.116877,-0.34676 -4.652587,-0.66753 -1.53661,-0.32801 -3.064481,-0.70433 -4.545629,-1.2349 -1.461585,-0.53012 -2.903474,-1.11608 -4.285361,-1.83214 -1.35214,-0.7082 -2.677731,-1.46909 -3.916119,-2.36503 -1.203886,-0.87754 -2.371831,-1.8033 -3.466481,-2.81541 -1.108837,-1.01943 -2.19692,-2.06211 -3.225067,-3.16366 -1.081369,-1.16525 -2.131767,-2.35985 -3.09694,-3.62423 -1.014178,-1.33425 -1.994498,-2.69681 -2.841555,-4.14506 -0.856645,-1.49358 -1.645841,-3.02725 -2.23494,-4.64885 -0.55688,-1.54466 -1.048391,-3.11276 -1.406088,-4.71677 -0.337665,-1.55076 -0.618329,-3.11611 -0.698008,-4.70445 -0.06556,-1.48469 -0.06324,-2.9728 0.105456,-4.45167 0.160524,-1.37467 0.370954,-2.74485 0.717043,-4.08664 0.346863,-1.30756 0.749534,-2.6004 1.269589,-3.85076 0.51628,-1.23231 1.073693,-2.44842 1.738285,-3.60905 0.65995,-1.13209 1.370358,-2.2341 2.186332,-3.26153 0.764743,-0.97127 1.552796,-1.92485 2.398665,-2.82715 0.85615,-0.90036 1.741006,-1.77581 2.716887,-2.54783 0.900356,-0.70207 1.832388,-1.36284 2.827065,-1.92635 0.89794,-0.51372 1.809509,-1.00481 2.755373,-1.42561 0.899631,-0.3968 1.810785,-0.76698 2.741552,-1.08516 0.931775,-0.31778 1.87198,-0.61215 2.831595,-0.83512 0.894641,-0.20687 1.794753,-0.39126 2.704795,-0.51726 0.81298,-0.11055 1.628916,-0.20108 2.449558,-0.2284 0.632605,-0.0242 1.265526,-0.0368 1.898613,-0.0263 0.436197,0.003 0.872394,0.007 1.308568,0.0127 0.284401,0.004 0.568809,0.008 0.853123,0.0167 0.160509,0.005 0.321024,0.01 0.481467,0.0166 4.858856,0.23016 4.533352,7.10162 -0.325504,6.87146 z"
       inkscape:connector-curvature="0" />
    <path
       style="opacity:1;fill:#020900;fill-opacity:1;stroke:none;stroke-width:1;stroke-linecap:butt;stroke-linejoin:round;stroke-miterlimit:4;stroke-dasharray:none;stroke-opacity:1"
       id="path1673"
       d="m 34.150027,263.67851 c -0.212527,0.41252 -0.503007,0.77492 -0.794179,1.13332 -0.311009,0.37899 -0.622302,0.75776 -0.9369,1.13379 -0.458221,0.54127 -0.918247,1.08098 -1.374095,1.62427 -0.602713,0.72003 -1.190725,1.45219 -1.779942,2.18325 -0.678434,0.84392 -1.357198,1.68756 -2.038471,2.52919 -0.612961,0.7589 -1.224787,1.51872 -1.836505,2.27863 -0.32111,0.43712 -0.736451,0.83248 -0.983541,1.3121 -2.307814,4.28199 -8.363466,1.01825 -6.055651,-3.26374 v 0 c 0.478592,-0.8458 1.050364,-1.62214 1.680538,-2.36203 0.61563,-0.76477 1.23137,-1.52944 1.848262,-2.29319 0.678217,-0.83783 1.35388,-1.67771 2.029276,-2.51781 0.617677,-0.76637 1.234322,-1.53369 1.866355,-2.28833 0.454038,-0.54104 0.911875,-1.07885 1.368554,-1.61766 0.294098,-0.3512 0.584605,-0.70538 0.875432,-1.05929 0.22901,-0.2811 0.162857,-0.21974 0.01479,0.0584 2.226728,-4.32471 8.342796,-1.17565 6.116068,3.14907 z"
       inkscape:connector-curvature="0" />
    <path
       style="opacity:1;fill:#020900;fill-opacity:1;stroke:none;stroke-width:1;stroke-linecap:butt;stroke-linejoin:round;stroke-miterlimit:4;stroke-dasharray:none;stroke-opacity:1"
       id="path1675"
       d="m 77.612514,259.07066 c 0.09565,0.12072 0.187045,0.24472 0.280366,0.36723 0.161798,0.20926 0.324609,0.41776 0.487855,0.62591 0.24163,0.30494 0.501165,0.59514 0.756356,0.88866 0.412649,0.47581 0.830696,0.94688 1.246164,1.42022 0.547348,0.62448 1.085881,1.25658 1.622512,1.89026 0.596358,0.70886 1.186429,1.42296 1.781458,2.13292 0.550365,0.65463 1.114372,1.2976 1.678495,1.94034 0.478838,0.54573 0.957546,1.09158 1.436265,1.63741 0.381889,0.43543 0.763775,0.87086 1.145661,1.30629 0.30438,0.34705 0.608759,0.69411 0.913136,1.04116 0.242596,0.27661 0.485193,0.55323 0.727789,0.82984 0.193355,0.22046 0.38671,0.44092 0.580065,0.66139 0.154109,0.17572 0.308218,0.35143 0.462325,0.52715 0.343643,0.34875 0.578413,0.76815 0.814329,1.19317 2.075876,4.39912 -4.145412,7.33485 -6.221288,2.93574 v 0 c 0.249015,0.41899 0.141285,0.27413 0.367937,0.56056 0.042,0.0531 -0.173434,-0.20774 -0.132866,-0.15356 -0.154109,-0.17572 -0.308215,-0.35143 -0.462325,-0.52715 -0.193354,-0.22046 -0.386709,-0.44093 -0.580064,-0.66139 -0.242597,-0.27661 -0.485193,-0.55322 -0.727789,-0.82983 -0.30438,-0.34706 -0.608756,-0.69411 -0.913133,-1.04117 -0.381876,-0.43541 -0.763749,-0.87083 -1.145625,-1.30624 -0.478197,-0.54524 -0.956379,-1.09048 -1.43469,-1.63561 -0.598614,-0.68207 -1.196842,-1.3646 -1.780645,-2.05945 -0.587463,-0.701 -1.170253,-1.4059 -1.758786,-2.106 -0.510363,-0.60271 -1.022438,-1.20399 -1.542955,-1.79798 -0.422553,-0.48146 -0.847783,-0.96057 -1.267434,-1.44457 -0.331544,-0.38135 -0.666956,-0.75982 -0.97863,-1.15783 -0.183848,-0.23458 -0.367427,-0.46939 -0.549315,-0.70549 -0.07358,-0.0968 -0.145737,-0.19475 -0.220964,-0.29028 -2.99934,-3.82954 2.416456,-8.07125 5.415796,-4.2417 z"
       inkscape:connector-curvature="0" />
  </g>
</svg>
