<svg viewBox="0 0 100 100"><path style="opacity:1;fill:#020900;fill-opacity:1;stroke:none;stroke-width:1;stroke-linecap:butt;stroke-linejoin:round;stroke-miterlimit:4;stroke-dasharray:none;stroke-opacity:1" d="m47.541 212.56-.366-.012a52 52 0 0 0-.74-.014q-.632-.008-1.264-.012-.789-.012-1.578.021c-.598.02-1.192.088-1.784.17a22.3 22.3 0 0 0-4.244 1.046c-.742.255-1.468.55-2.185.867-.727.326-1.427.707-2.117 1.103-.707.401-1.369.87-2.006 1.373-.707.567-1.346 1.21-1.968 1.867-.698.75-1.35 1.54-1.982 2.345a20 20 0 0 0-1.645 2.464c-.511.903-.941 1.848-1.34 2.806a23 23 0 0 0-.965 2.952c-.258 1.026-.416 2.072-.535 3.122-.123 1.113-.122 2.231-.067 3.348.066 1.198.287 2.378.546 3.548a32 32 0 0 0 1.154 3.847c.456 1.243 1.068 2.416 1.729 3.559.703 1.191 1.516 2.312 2.353 3.41.83 1.085 1.733 2.11 2.663 3.109a52 52 0 0 0 2.84 2.78 31 31 0 0 0 2.857 2.317c.967.695 2 1.283 3.055 1.831 1.11.571 2.266 1.039 3.439 1.46 1.186.421 2.409.716 3.638.976 1.278.264 2.573.427 3.871.548a34 34 0 0 0 3.738.118c1.168-.025 2.327-.169 3.477-.36 1.107-.184 2.18-.509 3.228-.902 1.04-.391 1.987-.965 2.897-1.594.998-.712 1.912-1.53 2.81-2.364a34 34 0 0 0 2.418-2.55c.72-.832 1.343-1.739 1.935-2.664a33 33 0 0 0 1.627-2.923c.48-.969.909-1.96 1.3-2.968.367-.953.65-1.934.892-2.925.257-1.075.396-2.173.499-3.273.106-1.219.11-2.443.087-3.666a30 30 0 0 0-.285-3.485c-.15-1.073-.384-2.132-.638-3.185a40 40 0 0 0-.868-2.997 29 29 0 0 0-1.025-2.619 24 24 0 0 0-1.166-2.258 50 50 0 0 0-1.327-2.164 27 27 0 0 0-1.25-1.742 10 10 0 0 0-1.11-1.213 15 15 0 0 0-1.257-1.005c-.44-.315-.9-.6-1.366-.873-.46-.268-.928-.517-1.401-.76a26 26 0 0 0-2.536-1.104q-.563-.21-1.135-.393c-.36-.113-.722-.212-1.086-.307a23 23 0 0 0-1.093-.246 35 35 0 0 0-2.207-.374 21 21 0 0 0-1.038-.114 29 29 0 0 0-1.116-.07 284 284 0 0 0-2.908-.123c-.205-.006-.41-.018-.614-.011q-.269.009-.534.04a5 5 0 0 0-.436.074l.118-.026c-4.642 1.454-6.698-5.111-2.056-6.565l.392-.112c.41-.09.824-.165 1.243-.21.37-.04.743-.07 1.117-.078q.51-.01 1.018.013a164 164 0 0 1 1.83.074q.585.025 1.168.053c.466.023.931.049 1.396.09.46.042.92.089 1.378.153a45 45 0 0 1 2.633.448 29 29 0 0 1 2.894.739 32 32 0 0 1 3.04 1.145 33 33 0 0 1 3.428 1.738c.653.386 1.297.788 1.912 1.232a21 21 0 0 1 1.943 1.574 17 17 0 0 1 1.825 2.003 34 34 0 0 1 1.582 2.21q.796 1.227 1.528 2.493c.54.948 1.056 1.91 1.493 2.91.465 1.064.901 2.14 1.262 3.243a47 47 0 0 1 1.018 3.526c.308 1.283.589 2.575.768 3.883.187 1.415.32 2.837.344 4.265.027 1.482.016 2.966-.117 4.443-.138 1.435-.326 2.867-.668 4.27-.317 1.278-.683 2.544-1.16 3.773a43 43 0 0 1-1.564 3.562c-.61 1.21-1.255 2.404-1.983 3.548-.772 1.201-1.589 2.375-2.526 3.455-.932 1.074-1.9 2.118-2.94 3.089-1.147 1.063-2.322 2.1-3.605 3-1.38.937-2.82 1.784-4.39 2.365-1.463.538-2.958.988-4.5 1.24-1.482.241-2.975.422-4.478.45a42 42 0 0 1-4.503-.147c-1.561-.15-3.117-.347-4.653-.668-1.537-.328-3.065-.704-4.546-1.235-1.461-.53-2.903-1.116-4.285-1.832-1.352-.708-2.678-1.469-3.916-2.365a38 38 0 0 1-3.467-2.815 59 59 0 0 1-3.225-3.164c-1.081-1.165-2.131-2.36-3.097-3.624-1.014-1.334-1.994-2.697-2.841-4.145-.857-1.494-1.646-3.027-2.235-4.649-.557-1.545-1.049-3.113-1.406-4.717-.338-1.55-.619-3.116-.698-4.704-.066-1.485-.063-2.973.105-4.452.16-1.375.371-2.745.717-4.087.347-1.307.75-2.6 1.27-3.85.516-1.233 1.074-2.449 1.738-3.61.66-1.131 1.37-2.233 2.186-3.26a43 43 0 0 1 2.4-2.828c.855-.9 1.74-1.776 2.716-2.548.9-.702 1.832-1.363 2.827-1.926a31 31 0 0 1 2.755-1.426c.9-.397 1.811-.767 2.742-1.085a29 29 0 0 1 2.832-.835 31 31 0 0 1 2.704-.517 25 25 0 0 1 2.45-.229 35 35 0 0 1 1.899-.026q.654.004 1.308.013.427.005.853.016.24.007.482.017c4.859.23 4.533 7.102-.326 6.871" transform="translate(0 -197)"/><path style="opacity:1;fill:#020900;fill-opacity:1;stroke:none;stroke-width:1;stroke-linecap:butt;stroke-linejoin:round;stroke-miterlimit:4;stroke-dasharray:none;stroke-opacity:1" d="M34.15 263.679c-.212.412-.503.774-.794 1.133q-.465.57-.937 1.134-.688.809-1.374 1.624c-.603.72-1.19 1.452-1.78 2.183q-1.017 1.266-2.039 2.53-.919 1.137-1.836 2.278c-.321.437-.737.832-.984 1.312-2.307 4.282-8.363 1.018-6.055-3.264a15 15 0 0 1 1.68-2.362l1.849-2.293q1.016-1.258 2.029-2.518c.617-.766 1.234-1.533 1.866-2.288q.682-.81 1.369-1.618.44-.526.875-1.059c.23-.281.163-.22.015.058 2.227-4.324 8.343-1.175 6.116 3.15m43.463-4.609q.142.183.28.368.243.315.488.626c.241.305.5.595.756.888q.62.712 1.246 1.42c.548.625 1.086 1.257 1.623 1.89.596.71 1.186 1.424 1.781 2.134.55.654 1.115 1.297 1.679 1.94l1.436 1.638 1.146 1.306.913 1.041.728.83.58.661.462.527c.344.35.578.769.814 1.194 2.076 4.399-4.145 7.334-6.221 2.935.249.42.141.274.368.56.042.054-.173-.207-.133-.153l-.462-.527-.58-.661-.728-.83-.913-1.041-1.146-1.306-1.435-1.636a126 126 0 0 1-1.78-2.06c-.588-.7-1.17-1.405-1.759-2.105q-.763-.906-1.543-1.798c-.422-.482-.848-.961-1.267-1.445-.332-.381-.667-.76-.979-1.158q-.276-.352-.55-.705-.108-.146-.22-.29c-3-3.83 2.416-8.072 5.416-4.242" transform="translate(0 -197)"/></svg>
