<svg viewBox="0 0 100 100"><path style="opacity:1;fill:#020900;fill-opacity:1;stroke:none;stroke-width:1;stroke-linecap:butt;stroke-linejoin:round;stroke-miterlimit:4;stroke-dasharray:none;stroke-opacity:1" d="M23.447 281.16a17 17 0 0 1 1.634-.303c.36-.05.719-.105 1.078-.155q.72-.099 1.442-.165a28 28 0 0 1 1.728-.09 41 41 0 0 1 2.004.003q1.115.021 2.228.065c.784.036 1.568.081 2.352.124.793.044 1.585.08 2.378.116q1.278.053 2.554.116a280 280 0 0 0 5.262.202q1.287.04 2.575.067c.799.014 1.598.008 2.397-.005a94 94 0 0 0 2.253-.07q1.054-.046 2.107-.105a192 192 0 0 0 1.985-.12l1.92-.13a157 157 0 0 1 3.803-.204 38 38 0 0 1 3.942.037q.84.05 1.68.106l1.353.09 1.078.072a97 97 0 0 1 1.573.113q.28.02.557.044c.04-.004.558.063.415.043-2.666-.558-.564 6.908-1.659 6.625a64 64 0 0 1-.732-.196 16 16 0 0 1-1.292-.418 15 15 0 0 1-1.802-.829 26 26 0 0 1-1.938-1.187 48 48 0 0 1-1.945-1.357c-.62-.458-1.233-.928-1.847-1.394q-.916-.683-1.798-1.41a62 62 0 0 1-1.621-1.414 35 35 0 0 1-1.49-1.427 72 72 0 0 1-2.702-2.876q-.651-.726-1.293-1.46a72 72 0 0 1-1.318-1.558 87 87 0 0 0-1.193-1.423 263 263 0 0 1-2.268-2.655q-.427-.51-.87-1.008-.381-.427-.764-.852-.308-.346-.617-.688l-.504-.563q-.233-.265-.463-.532c-.173-.2-.337-.409-.505-.614a7 7 0 0 0-.318-.362l-.345-.36-.313-.322c-.285-.253.271.204.282.212.686.466 1.48.57 2.288.47.449-.076.846-.278 1.212-.541.248-.214.153-.129.004.03l-.426.481c-.235.26-.48.51-.727.76q-.408.41-.823.815c-.32.317-.637.638-.96.952q-.583.564-1.178 1.115c-.428.399-.87.783-1.312 1.167q-.634.553-1.27 1.101-.633.552-1.263 1.106l-1.296 1.126c-.436.38-.875.754-1.305 1.14l-1.331 1.207q-.65.59-1.298 1.182a55 55 0 0 0-1.202 1.121 239 239 0 0 0-2.386 2.35q-.564.568-1.107 1.157-.55.596-1.088 1.201-.51.568-1.008 1.146a57 57 0 0 0-1.655 2.006q-.352.45-.71.895-.335.42-.684.829c-.107.108-.319.406-.036.023-2.588 4.12-8.413.46-5.826-3.66a7 7 0 0 1 .621-.819q.285-.332.557-.674.345-.43.686-.866.422-.534.853-1.06.486-.59.985-1.168.537-.621 1.085-1.233.583-.654 1.177-1.3c.42-.451.844-.899 1.279-1.335q.611-.614 1.23-1.22.63-.621 1.266-1.238.654-.628 1.327-1.237.66-.603 1.321-1.204l1.35-1.222c.453-.407.914-.803 1.374-1.203l1.283-1.114q.647-.571 1.298-1.136.628-.543 1.255-1.088c.386-.336.773-.672 1.149-1.02q.533-.494 1.056-.999c.318-.31.63-.628.947-.94q.376-.367.747-.739.253-.253.497-.516c.174-.193.343-.391.52-.582.23-.246.46-.494.723-.706.537-.403 1.12-.722 1.788-.845.992-.138 1.958-.017 2.809.548.297.214.586.437.834.709l.345.355q.236.243.468.49c.199.217.395.436.58.664.13.16.26.323.393.48q.193.225.389.448l.481.537.618.69q.393.436.784.874.5.562.983 1.138l1.058 1.246q.59.69 1.184 1.379.64.747 1.265 1.508c.397.48.795.958 1.205 1.426.41.471.828.938 1.245 1.404a65 65 0 0 0 2.436 2.595c.398.4.8.796 1.221 1.17q.687.622 1.394 1.22a42 42 0 0 0 1.578 1.235c.58.44 1.16.884 1.745 1.318.551.402 1.107.797 1.677 1.172.453.298.908.593 1.383.856.307.165.619.322.945.446q.364.137.739.24.317.088.635.17c.066.018.624.152.62.183-.92 6.854 1.151 6.842-1.509 6.682-.167-.021.026.001-.168-.018l-.498-.04-.68-.05q-.417-.03-.835-.058l-1.077-.072-1.35-.09q-.795-.054-1.59-.1a30 30 0 0 0-3.29-.033 154 154 0 0 0-3.636.194l-1.93.131a198 198 0 0 1-4.252.232c-.81.034-1.62.064-2.429.076a77 77 0 0 1-2.637.004q-1.329-.027-2.657-.07a378 378 0 0 1-2.695-.091q-1.341-.052-2.682-.115-1.268-.062-2.534-.114a244 244 0 0 1-2.444-.12c-.752-.04-1.503-.084-2.255-.119a105 105 0 0 0-2.08-.06 36 36 0 0 0-1.676-.007c-.429.012-.858.026-1.286.064q-.564.051-1.124.128l-1.04.15c-.211.03-.423.061-.632.102a10 10 0 0 0-.428.091c-4.736 1.11-6.306-5.587-1.57-6.697zm23.603-60.234q-.122-.018-.242-.029-.306-.027-.613-.04-.543-.026-1.087-.039a10 10 0 0 0-1.216.052c-.551.052-1.098.14-1.642.242a10.4 10.4 0 0 0-1.607.464 10 10 0 0 0-1.519.714c-.408.235-.765.54-1.102.868-.382.376-.706.804-1.013 1.242a9.4 9.4 0 0 0-.81 1.451c-.217.48-.37.985-.492 1.497-.106.464-.16.936-.172 1.411-.007.411.057.816.143 1.216.097.43.259.84.444 1.239.17.362.392.69.65.994.332.364.71.682 1.091.992.478.385.99.725 1.511 1.047.526.321 1.08.593 1.643.842.56.244 1.142.425 1.73.587.64.172 1.292.299 1.948.4.67.1 1.347.142 2.024.165.643.023 1.284-.028 1.922-.102.605-.072 1.199-.2 1.783-.37.47-.137.904-.355 1.318-.61.463-.302.874-.673 1.272-1.053a10.3 10.3 0 0 0 1.132-1.315c.29-.4.52-.837.717-1.288.2-.473.33-.97.443-1.47.137-.634.21-1.28.28-1.924q.106-.969.157-1.94a8.4 8.4 0 0 0-.03-1.282 6 6 0 0 0-.188-.965 8 8 0 0 0-.334-.887 6 6 0 0 0-.391-.736 7 7 0 0 0-.447-.633 3.4 3.4 0 0 0-.37-.419 2 2 0 0 0-.295-.232 4 4 0 0 0-.413-.219 15 15 0 0 0-.716-.321q-.297-.123-.606-.206a1.7 1.7 0 0 0-.433-.055 5.5 5.5 0 0 0-1.754.34l-.128.053c-4.528 1.778-7.042-4.625-2.515-6.403l.369-.143a12.7 12.7 0 0 1 2.222-.574c.725-.107 1.457-.18 2.192-.142.66.043 1.316.126 1.952.313.458.134.912.284 1.353.47q.546.229 1.08.485c.445.22.883.453 1.293.733.437.304.856.632 1.234 1.007.356.357.695.73.998 1.132a13.2 13.2 0 0 1 1.7 2.845c.254.597.49 1.202.658 1.828.18.693.325 1.396.39 2.11.066.752.092 1.508.049 2.263a43 43 0 0 1-.188 2.326c-.101.919-.215 1.838-.42 2.74-.22.933-.48 1.857-.87 2.735-.412.9-.881 1.775-1.475 2.571-.585.78-1.21 1.529-1.919 2.2-.768.723-1.571 1.412-2.474 1.963-.938.55-1.918 1.027-2.97 1.322-.945.264-1.904.476-2.88.586-.978.11-1.96.179-2.944.142-.95-.035-1.9-.099-2.84-.244a25 25 0 0 1-2.735-.57c-.91-.255-1.813-.544-2.679-.928a21 21 0 0 1-2.473-1.283c-.774-.483-1.533-.992-2.24-1.568-.736-.605-1.455-1.237-2.067-1.97-.621-.775-1.178-1.598-1.586-2.507-.388-.871-.724-1.766-.917-2.703-.184-.935-.31-1.88-.275-2.836.04-.941.141-1.879.365-2.796.236-.948.527-1.883.94-2.77.41-.872.868-1.72 1.424-2.51.573-.805 1.185-1.584 1.901-2.268.754-.707 1.556-1.361 2.46-1.869.83-.462 1.686-.878 2.582-1.197.87-.308 1.751-.581 2.66-.748.76-.14 1.523-.261 2.293-.331a17 17 0 0 1 2.002-.077q.632.016 1.264.046c.317.016.635.035.951.066.26.027.519.058.776.104 4.786.87 3.556 7.638-1.23 6.769" transform="translate(0 -197)"/><path style="opacity:1;fill:#020900;fill-opacity:1;stroke:none;stroke-width:1;stroke-linecap:butt;stroke-linejoin:round;stroke-miterlimit:4;stroke-dasharray:none;stroke-opacity:1" d="M49.648 241.765c.13.464.194.94.25 1.418q.073.669.115 1.341.041.651.07 1.301.023.561.062 1.122l.065.961q.027.377.058.753l.053.622c.002.037.055.605.027.31.697 4.815-6.11 5.802-6.808.988q-.046-.352-.072-.706l-.055-.643a79 79 0 0 1-.065-.835l-.068-1.001q-.042-.622-.069-1.246a77 77 0 0 0-.062-1.174c-.022-.335-.047-.67-.085-1.003-.003-.029-.061-.419-.029-.314-1.339-4.677 5.275-6.57 6.613-1.894m11.441-14.755q.389-.028.779-.044a33 33 0 0 1 1.167-.025q.756-.004 1.513-.006l1.83-.005q.935 0 1.87-.004.784 0 1.568-.003.583-.007 1.165.036c4.851.364 4.336 7.224-.514 6.86a6 6 0 0 0-.638-.017l-1.568.003-1.868.004-1.824.005-1.478.006c-.311.003-.622.006-.933.02q-.256.009-.508.027c-4.848.397-5.41-6.46-.561-6.856zm-32.926 6.02q-.23-.015-.46-.022-.402-.014-.805-.023-.53-.012-1.059-.019l-1.27-.015a90 90 0 0 0-1.376-.006H21.83c-.313.01-.628-.014-.94.012l.003.003.052-.003c-4.805.76-5.879-6.035-1.074-6.795.422-.06.212-.036.63-.074.44-.022.88-.024 1.32-.021l1.37-.001q.724-.002 1.45.007l1.3.015q.558.008 1.117.02.453.01.904.026c.251.01.502.02.752.039 4.848.39 4.297 7.246-.551 6.857M42.05 215.4c-.05.226-.01-.083-.004-.135.027-.287.038-.575.05-.863q.025-.477.031-.955c.004-.353.011-.705.01-1.058q-.005-.445-.018-.892l-.021-.809a52 52 0 0 0-.02-.68l-.02-.59q-.006-.225-.017-.452l-.02-.523-.016-.497-.012-.4-.01-.311c.002.292.076.573.161.85l.113.281c-2.031-4.42 4.22-7.292 6.25-2.873l.127.31c.125.396.22.8.225 1.218l.01.32.012.399.015.47q.007.225.017.446.013.27.02.537l.02.586q.014.369.022.738l.02.801c.01.357.02.714.022 1.07q-.002.587-.012 1.174-.008.577-.036 1.153c-.019.409-.037.818-.077 1.225-.043.428-.093.856-.206 1.272-1.282 4.693-7.918 2.88-6.636-1.813z" transform="translate(0 -197)"/></svg>
