<?xml version="1.0" encoding="UTF-8" standalone="no"?>
<!-- Created with Inkscape (http://www.inkscape.org/) -->

<svg
   xmlns:dc="http://purl.org/dc/elements/1.1/"
   xmlns:cc="http://creativecommons.org/ns#"
   xmlns:rdf="http://www.w3.org/1999/02/22-rdf-syntax-ns#"
   xmlns:svg="http://www.w3.org/2000/svg"
   xmlns="http://www.w3.org/2000/svg"
   xmlns:sodipodi="http://sodipodi.sourceforge.net/DTD/sodipodi-0.dtd"
   xmlns:inkscape="http://www.inkscape.org/namespaces/inkscape"
   width="10cm"
   height="10cm"
   viewBox="0 0 100 99.999997"
   version="1.1"
   id="svg8"
   sodipodi:docname="jelo.svg"
   inkscape:version="0.92.3 (2405546, 2018-03-11)">
  <defs
     id="defs2" />
  <sodipodi:namedview
     id="base"
     pagecolor="#ffffff"
     bordercolor="#666666"
     borderopacity="1.0"
     inkscape:pageopacity="0.0"
     inkscape:pageshadow="2"
     inkscape:zoom="1"
     inkscape:cx="125.50186"
     inkscape:cy="200.50542"
     inkscape:document-units="cm"
     inkscape:current-layer="layer1"
     showgrid="true"
     units="cm"
     inkscape:window-width="1920"
     inkscape:window-height="1017"
     inkscape:window-x="-8"
     inkscape:window-y="-8"
     inkscape:window-maximized="1"
     inkscape:snap-nodes="false">
    <inkscape:grid
       type="xygrid"
       id="grid815"
       units="cm"
       spacingx="9.9999998"
       spacingy="9.9999998" />
  </sodipodi:namedview>
  <metadata
     id="metadata5">
    <rdf:RDF>
      <cc:Work
         rdf:about="">
        <dc:format>image/svg+xml</dc:format>
        <dc:type
           rdf:resource="http://purl.org/dc/dcmitype/StillImage" />
        <dc:title></dc:title>
      </cc:Work>
    </rdf:RDF>
  </metadata>
  <g
     inkscape:label="Layer 1"
     inkscape:groupmode="layer"
     id="layer1"
     transform="translate(0,-197.00002)">
    <path
       style="opacity:1;fill:#020900;fill-opacity:1;stroke:none;stroke-width:1;stroke-linecap:butt;stroke-linejoin:round;stroke-miterlimit:4;stroke-dasharray:none;stroke-opacity:1"
       id="path1071"
       d="m 23.446503,281.16 c 0.226327,-0.0541 0.454209,-0.10116 0.682541,-0.14588 0.315731,-0.0616 0.633605,-0.11094 0.951836,-0.15755 0.359614,-0.0501 0.718669,-0.1041 1.078208,-0.15473 0.479312,-0.0673 0.960494,-0.11969 1.442314,-0.16505 0.574659,-0.0528 1.151472,-0.074 1.728094,-0.0907 0.667917,-0.0194 1.336085,-0.009 2.003997,0.004 0.742648,0.0152 1.48513,0.0353 2.227333,0.0651 0.784405,0.0354 1.568292,0.0813 2.352316,0.12414 0.792358,0.0436 1.585073,0.0803 2.377823,0.11588 0.851543,0.0349 1.702851,0.0748 2.554124,0.11555 0.872976,0.042 1.746228,0.0779 2.619557,0.11173 0.880798,0.0337 1.761773,0.0626 2.642788,0.0901 0.858025,0.0264 1.716096,0.0513 2.57438,0.0676 0.798949,0.0139 1.59802,0.008 2.396929,-0.005 0.75157,-0.0119 1.502736,-0.0399 2.253716,-0.0709 0.702357,-0.0287 1.404297,-0.0662 2.106168,-0.10475 0.662019,-0.0359 1.323776,-0.0763 1.985385,-0.11905 0.639787,-0.0422 1.279345,-0.0878 1.919119,-0.13023 0.635574,-0.0423 1.271484,-0.0791 1.907516,-0.11365 0.631923,-0.0339 1.264047,-0.0639 1.896327,-0.0903 0.667617,-0.0307 1.335836,-0.038 2.004038,-0.033 0.646489,0.007 1.292416,0.0354 1.937949,0.0696 0.560274,0.0321 1.120262,0.0689 1.680226,0.10598 0.450903,0.0299 0.901795,0.0601 1.35269,0.0902 0.359325,0.024 0.718651,0.048 1.077976,0.072 0.294717,0.0191 0.589325,0.0396 0.883851,0.0614 0.229759,0.0171 0.459502,0.0344 0.689245,0.0517 0.18579,0.0138 0.371552,0.0279 0.557202,0.0435 0.04031,-0.004 0.558228,0.0635 0.414613,0.0437 -2.666146,-0.55841 -0.564095,6.9078 -1.658398,6.62467 -0.244353,-0.0639 -0.48836,-0.12901 -0.731922,-0.1958 -0.437314,-0.11903 -0.866958,-0.26283 -1.292535,-0.41815 -0.621472,-0.22962 -1.216993,-0.5198 -1.801947,-0.82913 -0.666692,-0.36113 -1.305523,-0.77008 -1.938309,-1.1869 -0.660939,-0.43395 -1.306009,-0.89123 -1.944703,-1.3571 -0.620773,-0.45819 -1.232694,-0.9282 -1.847416,-1.39443 -0.609902,-0.45586 -1.209765,-0.92458 -1.797534,-1.4086 -0.549407,-0.46119 -1.087964,-0.93516 -1.621036,-1.41508 -0.513874,-0.45781 -1.005232,-0.93963 -1.490893,-1.42697 -0.456856,-0.45654 -0.902361,-0.92413 -1.346692,-1.3928 -0.462103,-0.48439 -0.909008,-0.98283 -1.3541,-1.48278 -0.433094,-0.48502 -0.866169,-0.97003 -1.29336,-1.46027 -0.448456,-0.51158 -0.883767,-1.03439 -1.317493,-1.55844 -0.392324,-0.47882 -0.791088,-0.9523 -1.193488,-1.42267 -0.398732,-0.46124 -0.795933,-0.92379 -1.191445,-1.3878 -0.359172,-0.42211 -0.718315,-0.84425 -1.076108,-1.26753 -0.284745,-0.34077 -0.575839,-0.67604 -0.870892,-1.00788 -0.253791,-0.28448 -0.50846,-0.56818 -0.763032,-0.85195 -0.20583,-0.22943 -0.411681,-0.45884 -0.617529,-0.68826 -0.16817,-0.1873 -0.33641,-0.37453 -0.503608,-0.5627 -0.155038,-0.17661 -0.309782,-0.35348 -0.46309,-0.53159 -0.172977,-0.20086 -0.337103,-0.40906 -0.50482,-0.61428 -0.100999,-0.12526 -0.209645,-0.24406 -0.318561,-0.36241 -0.114236,-0.12055 -0.22984,-0.2398 -0.345313,-0.35916 -0.104401,-0.10725 -0.207697,-0.21557 -0.312626,-0.3223 -0.284522,-0.25293 0.271214,0.20392 0.281834,0.21182 0.686734,0.46622 1.480815,0.57091 2.288418,0.47002 0.448691,-0.0759 0.845836,-0.27803 1.211467,-0.54121 0.247888,-0.21412 0.153183,-0.12822 0.0047,0.0311 -0.143245,0.15931 -0.283715,0.32108 -0.426675,0.48067 -0.235085,0.25981 -0.480269,0.51021 -0.726474,0.75942 -0.271963,0.27423 -0.547497,0.54487 -0.823301,0.81523 -0.320178,0.31721 -0.637255,0.63749 -0.959771,0.95234 -0.387755,0.37659 -0.781632,0.74682 -1.177629,1.11471 -0.428797,0.39844 -0.870738,0.78236 -1.312018,1.16682 -0.422402,0.3686 -0.847114,0.73454 -1.270947,1.10149 -0.422598,0.36637 -0.841828,0.7366 -1.262161,1.10556 -0.431474,0.37627 -0.865627,0.74943 -1.296829,1.12601 -0.435316,0.37951 -0.874646,0.75429 -1.304271,1.14028 -0.443264,0.40291 -0.887331,0.80493 -1.331754,1.20656 -0.433427,0.39319 -0.86542,0.78795 -1.297765,1.18232 -0.406569,0.36737 -0.806794,0.74154 -1.202217,1.12084 -0.403669,0.39107 -0.80478,0.78477 -1.205674,1.17868 -0.395655,0.38799 -0.788556,0.77875 -1.179838,1.17114 -0.377161,0.37794 -0.744342,0.76557 -1.107448,1.15697 -0.366493,0.3968 -0.727689,0.79844 -1.087392,1.2014 -0.339675,0.37887 -0.676302,0.76042 -1.008603,1.14578 -0.30217,0.34809 -0.597527,0.70198 -0.891196,1.05725 -0.258082,0.31334 -0.511355,0.63061 -0.763384,0.94883 -0.234654,0.29984 -0.471098,0.59825 -0.709176,0.89538 -0.22237,0.28074 -0.452443,0.55516 -0.68434,0.82804 -0.107543,0.10829 -0.31908,0.40676 -0.03688,0.0234 -2.587326,4.11913 -8.412651,0.46009 -5.825325,-3.65903 v 0 c 0.193157,-0.28442 0.386869,-0.56654 0.620689,-0.81968 0.188919,-0.22221 0.376718,-0.44538 0.557479,-0.67433 0.230108,-0.28718 0.45849,-0.57569 0.68533,-0.86545 0.281807,-0.35567 0.565008,-0.71027 0.853682,-1.0604 0.324376,-0.39233 0.650743,-0.78302 0.984349,-1.16756 0.357891,-0.41471 0.719943,-0.82577 1.085669,-1.2336 0.389295,-0.43602 0.780254,-0.87059 1.17702,-1.29985 0.419205,-0.45148 0.843108,-0.89861 1.278401,-1.33467 0.407797,-0.40893 0.817287,-0.81617 1.229614,-1.22055 0.420947,-0.41361 0.842111,-0.82701 1.266198,-1.23741 0.436729,-0.41854 0.878274,-0.83194 1.327039,-1.23758 0.440211,-0.40155 0.880065,-0.80349 1.321414,-1.20379 0.450323,-0.40696 0.9002,-0.81441 1.349475,-1.22252 0.453152,-0.40631 0.914646,-0.80294 1.374085,-1.20209 0.426796,-0.37267 0.856287,-0.74222 1.283541,-1.11437 0.432096,-0.37928 0.863068,-0.75984 1.297538,-1.13641 0.418481,-0.36231 0.837835,-0.72361 1.254903,-1.08754 0.386241,-0.33648 0.773557,-0.67193 1.149162,-1.02033 0.354968,-0.32962 0.708009,-0.66137 1.055716,-0.99866 0.318805,-0.31068 0.630794,-0.62819 0.947833,-0.94067 0.249894,-0.24495 0.49965,-0.49005 0.746168,-0.73841 0.167962,-0.16984 0.335676,-0.34004 0.497284,-0.51598 0.173757,-0.19354 0.342664,-0.3914 0.519515,-0.58215 0.230068,-0.24625 0.460263,-0.49382 0.723196,-0.70601 0.537157,-0.40283 1.120582,-0.72214 1.788607,-0.84503 0.992124,-0.13751 1.957903,-0.0169 2.808787,0.54812 0.297252,0.21409 0.585978,0.43707 0.833713,0.70867 0.115586,0.11804 0.230161,0.23707 0.345152,0.3557 0.157149,0.16245 0.314639,0.3246 0.468653,0.49004 0.198454,0.21651 0.394664,0.43525 0.579438,0.66366 0.130821,0.16033 0.259204,0.32268 0.392869,0.48066 0.128625,0.14991 0.25917,0.29815 0.389096,0.44693 0.15974,0.17981 0.32057,0.35864 0.481222,0.53763 0.206018,0.2296 0.412038,0.4592 0.618043,0.68882 0.261556,0.29157 0.523216,0.58304 0.783934,0.87536 0.332935,0.37465 0.661596,0.75301 0.983202,1.13745 0.351599,0.41603 0.704633,0.83085 1.057592,1.24572 0.392997,0.46106 0.787773,0.92058 1.183894,1.37896 0.426453,0.49872 0.849363,1.00047 1.265299,1.50801 0.396801,0.47949 0.794689,0.95816 1.205121,1.4261 0.410747,0.47177 0.827932,0.93783 1.244338,1.4046 0.397198,0.44624 0.795478,0.89162 1.208045,1.32381 0.4053,0.4275 0.811261,0.8544 1.228085,1.27075 0.398042,0.39974 0.799746,0.796 1.221587,1.17086 0.458398,0.41323 0.921985,0.82082 1.393563,1.21898 0.514998,0.42551 1.043088,0.83445 1.57785,1.23482 0.581081,0.44074 1.159579,0.88494 1.745803,1.31883 0.550622,0.40216 1.106787,0.79688 1.676853,1.17118 0.45231,0.29884 0.907772,0.59387 1.382331,0.85659 0.307158,0.1653 0.619281,0.32163 0.945687,0.44593 0.242583,0.0907 0.488545,0.17161 0.738296,0.24046 0.211471,0.0581 0.423431,0.11447 0.635579,0.17009 0.06622,0.0172 0.623983,0.15174 0.619832,0.18269 -0.919337,6.85417 1.151252,6.84188 -1.508966,6.68186 -0.167109,-0.0214 0.02622,10e-4 -0.16773,-0.0185 -0.16596,-0.014 -0.332045,-0.0264 -0.498129,-0.0388 -0.226761,-0.0171 -0.453522,-0.0342 -0.680296,-0.0511 -0.27807,-0.0206 -0.556215,-0.04 -0.834467,-0.058 -0.359291,-0.024 -0.718585,-0.048 -1.077876,-0.072 -0.449558,-0.03 -0.899117,-0.06 -1.348687,-0.0899 -0.530304,-0.0351 -1.060627,-0.07 -1.591209,-0.10068 -0.542031,-0.0289 -1.084361,-0.0534 -1.627196,-0.0601 -0.554437,-0.005 -1.108871,0.002 -1.662821,0.0273 -0.603438,0.0251 -1.20672,0.0539 -1.809819,0.0861 -0.60865,0.0331 -1.217184,0.0683 -1.825395,0.1087 -0.643636,0.0427 -1.287049,0.0886 -1.930704,0.13099 -0.683636,0.0442 -1.367422,0.0859 -2.051484,0.123 -0.733308,0.0403 -1.466696,0.0793 -2.200516,0.10928 -0.809318,0.0333 -1.618842,0.0632 -2.42879,0.0759 -0.87879,0.0137 -1.757757,0.0198 -2.636581,0.004 -0.885952,-0.017 -1.771697,-0.0423 -2.657385,-0.0697 -0.898263,-0.028 -1.796486,-0.0575 -2.69453,-0.0919 -0.894349,-0.0346 -1.788623,-0.0714 -2.68261,-0.11446 -0.844452,-0.0405 -1.688936,-0.08 -2.533653,-0.11459 -0.814916,-0.0366 -1.629791,-0.0744 -2.444302,-0.11919 -0.75151,-0.0411 -1.502887,-0.0849 -2.254735,-0.11951 -0.692874,-0.0281 -1.38603,-0.0463 -2.07932,-0.0607 -0.558808,-0.0105 -1.117833,-0.0213 -1.67667,-0.006 -0.429149,0.0122 -0.858552,0.0259 -1.286362,0.0638 -0.375467,0.0346 -0.750326,0.076 -1.123839,0.12783 -0.346935,0.0487 -0.693323,0.10118 -1.040342,0.14929 -0.211098,0.0308 -0.422141,0.0623 -0.631623,0.10296 -0.143293,0.0277 -0.286242,0.0572 -0.42817,0.0913 -4.735874,1.11039 -6.306201,-5.58714 -1.570327,-6.69753 z"
       inkscape:connector-curvature="0" />
    <path
       style="opacity:1;fill:#020900;fill-opacity:1;stroke:none;stroke-width:1;stroke-linecap:butt;stroke-linejoin:round;stroke-miterlimit:4;stroke-dasharray:none;stroke-opacity:1"
       id="path1073"
       d="m 47.049054,220.92578 c -0.08005,-0.0128 -0.160723,-0.0207 -0.241358,-0.0287 -0.203747,-0.019 -0.408122,-0.0299 -0.612441,-0.0404 -0.362122,-0.0176 -0.724498,-0.0292 -1.086914,-0.0385 -0.406199,-0.0142 -0.811723,0.0151 -1.215911,0.0519 -0.551397,0.0522 -1.098299,0.13972 -1.642385,0.2418 -0.549582,0.10356 -1.081657,0.27525 -1.606706,0.46449 -0.526675,0.19271 -1.03282,0.43461 -1.518883,0.71339 -0.4083,0.23567 -0.765922,0.54102 -1.102929,0.8678 -0.381609,0.37678 -0.705824,0.80414 -1.01214,1.24268 -0.316918,0.45659 -0.579411,0.94633 -0.810689,1.45077 -0.217088,0.48074 -0.370173,0.98512 -0.491524,1.49733 -0.106648,0.46378 -0.160015,0.93608 -0.171842,1.41115 -0.0071,0.41046 0.05678,0.81537 0.142764,1.21518 0.09655,0.43034 0.258713,0.8404 0.443929,1.23923 0.169156,0.36163 0.391874,0.69094 0.65024,0.9938 0.331626,0.36421 0.7097,0.68192 1.091147,0.99203 0.477835,0.38503 0.989221,0.72494 1.510911,1.04691 0.525748,0.32182 1.079084,0.59372 1.642454,0.84233 0.559292,0.2443 1.142243,0.42521 1.729631,0.58741 0.641149,0.1716 1.292762,0.2982 1.948432,0.39882 0.670287,0.10087 1.347091,0.14313 2.023911,0.16613 0.643091,0.0223 1.284423,-0.0281 1.922531,-0.10235 0.604391,-0.0718 1.198727,-0.20077 1.782692,-0.37004 0.469145,-0.1369 0.904274,-0.35449 1.318133,-0.61065 0.462899,-0.30146 0.873595,-0.67225 1.272098,-1.05246 0.417496,-0.40275 0.788222,-0.84886 1.131736,-1.31528 0.290957,-0.39928 0.519301,-0.83667 0.717524,-1.28771 0.199834,-0.47286 0.328798,-0.97042 0.442994,-1.46955 0.136666,-0.63451 0.209984,-1.28007 0.280072,-1.9246 0.06902,-0.6452 0.123087,-1.29188 0.156501,-1.9399 0.02305,-0.42762 0.0123,-0.85566 -0.02975,-1.28159 -0.03439,-0.32682 -0.10088,-0.64876 -0.188515,-0.96512 -0.08809,-0.30377 -0.208206,-0.59683 -0.333357,-0.88685 -0.111757,-0.25528 -0.246028,-0.49929 -0.391837,-0.73643 -0.135054,-0.2205 -0.288975,-0.42822 -0.446461,-0.63296 -0.112852,-0.14867 -0.233796,-0.29048 -0.369673,-0.41848 -0.08975,-0.0884 -0.189471,-0.164 -0.295092,-0.23196 -0.132826,-0.082 -0.272566,-0.15172 -0.413179,-0.21915 -0.236453,-0.1124 -0.474654,-0.22116 -0.716592,-0.32126 -0.197234,-0.0816 -0.399619,-0.14965 -0.605258,-0.20649 -0.141521,-0.0394 -0.286909,-0.0521 -0.433076,-0.0546 -0.2566,-0.002 -0.511384,0.0312 -0.763955,0.0732 -0.338608,0.0552 -0.668224,0.1491 -0.99001,0.26653 -0.04274,0.0177 -0.08548,0.0353 -0.128214,0.0529 -4.527585,1.77833 -7.042521,-4.62464 -2.514936,-6.40297 v 0 c 0.122838,-0.0474 0.245676,-0.0948 0.368517,-0.14218 0.724543,-0.24968 1.462862,-0.45856 2.221973,-0.574 0.725572,-0.10748 1.457561,-0.1808 2.192147,-0.14189 0.659479,0.0424 1.316024,0.12594 1.952091,0.31272 0.458435,0.13404 0.912354,0.28373 1.352849,0.46939 0.364146,0.15293 0.724794,0.31402 1.080455,0.48585 0.444976,0.21862 0.883139,0.45257 1.293265,0.73241 0.436451,0.30393 0.855929,0.63169 1.233537,1.00757 0.35636,0.35608 0.695267,0.72887 0.998368,1.13194 0.308534,0.40442 0.605875,0.81767 0.869477,1.25319 0.308417,0.51367 0.594757,1.0406 0.830778,1.59201 0.25359,0.59621 0.488612,1.20141 0.65744,1.82787 0.180443,0.69291 0.325154,1.39517 0.39048,2.10931 0.06512,0.7527 0.09154,1.50817 0.04815,2.26323 -0.04163,0.77676 -0.103775,1.5522 -0.187735,2.32558 -0.100989,0.91912 -0.214895,1.83844 -0.419581,2.74129 -0.220361,0.93203 -0.480563,1.85664 -0.871252,2.73378 -0.411557,0.90094 -0.880274,1.77546 -1.473875,2.57177 -0.585308,0.7792 -1.210823,1.52828 -1.918941,2.20019 -0.768075,0.72259 -1.57131,1.4119 -2.474753,1.96242 -0.938007,0.5509 -1.917222,1.02726 -2.968872,1.32199 -0.94538,0.26402 -1.904478,0.47596 -2.881159,0.58631 -0.977312,0.10888 -1.959506,0.17855 -2.943629,0.14177 -0.949743,-0.0352 -1.899161,-0.0989 -2.839281,-0.24408 -0.920655,-0.14544 -1.836367,-0.32315 -2.735953,-0.56956 -0.910569,-0.25583 -1.812663,-0.54486 -2.678509,-0.9289 -0.848355,-0.37979 -1.682253,-0.79284 -2.473437,-1.28261 -0.773953,-0.48247 -1.532315,-0.99145 -2.239967,-1.56831 -0.735867,-0.60511 -1.454656,-1.23646 -2.066825,-1.97005 -0.620964,-0.77469 -1.177523,-1.59766 -1.585994,-2.50657 -0.388385,-0.87107 -0.724265,-1.76613 -0.916551,-2.70324 -0.184526,-0.93431 -0.309624,-1.88053 -0.275548,-2.83559 0.03952,-0.94147 0.141624,-1.87917 0.365017,-2.79663 0.236421,-0.94785 0.5271,-1.88216 0.939733,-2.77 0.410798,-0.87124 0.868313,-1.7204 1.424739,-2.50878 0.572585,-0.80555 1.184921,-1.58443 1.901092,-2.26908 0.754071,-0.70635 1.555954,-1.3611 2.460393,-1.8686 0.829945,-0.46221 1.685231,-0.87801 2.581407,-1.19739 0.869098,-0.3077 1.751248,-0.5807 2.65952,-0.74812 0.759915,-0.14034 1.523685,-0.26083 2.293686,-0.33093 0.665432,-0.0577 1.332958,-0.0986 2.001271,-0.0763 0.42163,0.0111 0.843222,0.0246 1.264497,0.0455 0.317349,0.0166 0.634706,0.035 0.951,0.0664 0.259477,0.0268 0.518668,0.0575 0.775443,0.1042 4.785977,0.86941 3.556439,7.63781 -1.22954,6.76839 z"
       inkscape:connector-curvature="0" />
    <path
       style="opacity:1;fill:#020900;fill-opacity:1;stroke:none;stroke-width:1;stroke-linecap:butt;stroke-linejoin:round;stroke-miterlimit:4;stroke-dasharray:none;stroke-opacity:1"
       id="path1075"
       d="m 49.648485,241.76539 c 0.129646,0.46318 0.193654,0.94055 0.249462,1.41716 0.05064,0.44615 0.08585,0.8938 0.115488,1.34176 0.02746,0.43346 0.04899,0.86726 0.06953,1.30109 0.015,0.3741 0.03751,0.74782 0.06198,1.1214 0.0217,0.3205 0.04239,0.64107 0.06529,0.96148 0.01826,0.25092 0.03688,0.50182 0.05779,0.75254 0.01754,0.20746 0.03551,0.41488 0.05344,0.6223 0.0013,0.0371 0.05501,0.60507 0.02606,0.3105 0.697934,4.81397 -6.110054,5.801 -6.807991,0.98703 v 0 c -0.02978,-0.23456 -0.05424,-0.46933 -0.07167,-0.70515 -0.01855,-0.21456 -0.03714,-0.42911 -0.05526,-0.6437 -0.02312,-0.27799 -0.04396,-0.55616 -0.06412,-0.83438 -0.02373,-0.33377 -0.04556,-0.66766 -0.06803,-1.00151 -0.02712,-0.4149 -0.05203,-0.82995 -0.06897,-1.24541 -0.01852,-0.39157 -0.03782,-0.78311 -0.06236,-1.17435 -0.02191,-0.33493 -0.04753,-0.66964 -0.08479,-1.00327 -0.0032,-0.0284 -0.06135,-0.41889 -0.02933,-0.31414 -1.338805,-4.67644 5.274677,-6.56979 6.613481,-1.89335 z"
       inkscape:connector-curvature="0" />
    <path
       style="opacity:1;fill:#020900;fill-opacity:1;stroke:none;stroke-width:1;stroke-linecap:butt;stroke-linejoin:round;stroke-miterlimit:4;stroke-dasharray:none;stroke-opacity:1"
       id="path1077"
       d="m 61.088621,227.01077 c 0.259406,-0.021 0.519406,-0.0332 0.779391,-0.0443 0.388676,-0.0172 0.777701,-0.022 1.166694,-0.0253 0.504327,-0.003 1.008665,-0.005 1.513001,-0.006 0.60996,-0.002 1.219925,-0.003 1.829887,-0.005 0.623647,-0.001 1.247294,-0.002 1.870938,-0.004 0.522478,-0.001 1.044953,-0.002 1.567428,-0.003 0.388941,-0.006 0.777492,0.008 1.165342,0.0362 4.850664,0.36402 4.335864,7.2239 -0.5148,6.85988 v 0 c -0.212132,-0.0182 -0.424987,-0.0199 -0.63782,-0.0169 -0.522425,0.001 -1.044851,0.002 -1.567273,0.003 -0.622943,0.001 -1.245883,0.002 -1.868823,0.004 -0.607714,0.001 -1.215427,0.003 -1.823141,0.005 -0.492789,0.002 -0.985581,0.003 -1.478362,0.006 -0.311079,0.003 -0.622199,0.006 -0.933032,0.0194 -0.169577,0.007 -0.339198,0.0143 -0.508439,0.0275 -4.848106,0.39668 -5.409094,-6.45958 -0.560991,-6.85625 z"
       inkscape:connector-curvature="0" />
    <path
       style="opacity:1;fill:#020900;fill-opacity:1;stroke:none;stroke-width:1;stroke-linecap:butt;stroke-linejoin:round;stroke-miterlimit:4;stroke-dasharray:none;stroke-opacity:1"
       id="path1079"
       d="m 28.162599,233.02927 c -0.152913,-0.0103 -0.306102,-0.0159 -0.459243,-0.0216 -0.268337,-0.01 -0.53677,-0.0165 -0.805209,-0.0228 -0.352996,-0.008 -0.70604,-0.0136 -1.059086,-0.0188 -0.423187,-0.006 -0.846393,-0.0109 -1.269602,-0.0152 -0.458813,-0.006 -0.917656,-0.007 -1.376499,-0.006 -0.454259,2.6e-4 -0.908517,7.9e-4 -1.362776,0.001 -0.313091,0.01 -0.628137,-0.0152 -0.940679,0.0107 0.0013,0.001 0.0026,0.002 0.0039,0.003 0.01719,-0.001 0.03438,-0.002 0.05157,-0.003 -4.804616,0.75969 -5.878978,-6.03506 -1.074361,-6.79475 v 0 c 0.422737,-0.06 0.212882,-0.0357 0.629488,-0.0736 0.440392,-0.0224 0.880928,-0.0241 1.321836,-0.0217 0.456408,-5.3e-4 0.912818,-0.001 1.369227,-0.001 0.483108,-1.2e-4 0.966216,5.3e-4 1.449292,0.007 0.433435,0.004 0.866866,0.009 1.300278,0.0156 0.372595,0.006 0.745188,0.0114 1.117729,0.0199 0.301374,0.007 0.602737,0.0147 0.903994,0.0258 0.250563,0.01 0.501184,0.0195 0.751221,0.0388 4.848675,0.38964 4.297638,7.2467 -0.551037,6.85706 z"
       inkscape:connector-curvature="0" />
    <path
       style="opacity:1;fill:#020900;fill-opacity:1;stroke:none;stroke-width:1;stroke-linecap:butt;stroke-linejoin:round;stroke-miterlimit:4;stroke-dasharray:none;stroke-opacity:1"
       id="path1081"
       d="m 42.050012,215.39926 c -0.05035,0.22632 -0.0093,-0.0826 -0.0043,-0.13448 0.02693,-0.2868 0.03792,-0.5748 0.05098,-0.86248 0.01609,-0.3184 0.02514,-0.637 0.0304,-0.95573 0.0039,-0.35237 0.0109,-0.70475 0.0104,-1.05715 -0.0024,-0.29741 -0.01103,-0.59473 -0.01876,-0.89204 -0.0072,-0.26964 -0.01439,-0.53928 -0.02111,-0.80894 -0.0046,-0.22666 -0.01209,-0.45324 -0.01966,-0.67982 -0.0066,-0.19678 -0.01323,-0.39356 -0.01968,-0.59035 -0.004,-0.15094 -0.01095,-0.30175 -0.01775,-0.45258 -0.008,-0.17413 -0.01431,-0.34833 -0.02021,-0.52254 -0.0055,-0.16561 -0.01043,-0.33123 -0.0154,-0.49685 -0.004,-0.13328 -0.008,-0.26656 -0.01196,-0.39984 -0.0031,-0.10395 -0.0062,-0.2079 -0.0094,-0.31185 0.0011,0.29228 0.07496,0.57295 0.160404,0.84973 0.03778,0.0941 0.07557,0.1881 0.113361,0.28215 -2.031572,-4.41974 4.218897,-7.29282 6.250469,-2.87307 v 0 c 0.0421,0.10342 0.08419,0.20685 0.126283,0.31027 0.124669,0.39565 0.220421,0.7992 0.225316,1.21685 0.0033,0.10679 0.0065,0.21359 0.0097,0.32039 0.004,0.13295 0.0079,0.26591 0.01193,0.39887 0.0047,0.15698 0.0094,0.31397 0.01458,0.47094 0.005,0.14861 0.01035,0.29722 0.0172,0.44576 0.008,0.17874 0.01606,0.35749 0.02101,0.53635 0.0064,0.19541 0.01294,0.39082 0.01955,0.58623 0.0082,0.24595 0.01622,0.49191 0.02135,0.73795 0.0067,0.26714 0.01384,0.53427 0.02093,0.80141 0.0093,0.35655 0.01937,0.71314 0.02109,1.06983 -2.65e-4,0.39116 -0.0061,0.78229 -0.01135,1.17341 -0.0065,0.38453 -0.01746,0.76892 -0.03653,1.15306 -0.01863,0.4088 -0.03681,0.81787 -0.07709,1.22524 -0.04288,0.4277 -0.0927,0.85636 -0.205658,1.27231 -1.282004,4.69233 -7.917955,2.8793 -6.635951,-1.81303 z"
       inkscape:connector-curvature="0" />
  </g>
</svg>
