<?xml version="1.0" encoding="UTF-8" standalone="no"?>
<!-- Created with Inkscape (http://www.inkscape.org/) -->

<svg
   xmlns:dc="http://purl.org/dc/elements/1.1/"
   xmlns:cc="http://creativecommons.org/ns#"
   xmlns:rdf="http://www.w3.org/1999/02/22-rdf-syntax-ns#"
   xmlns:svg="http://www.w3.org/2000/svg"
   xmlns="http://www.w3.org/2000/svg"
   xmlns:sodipodi="http://sodipodi.sourceforge.net/DTD/sodipodi-0.dtd"
   xmlns:inkscape="http://www.inkscape.org/namespaces/inkscape"
   width="10cm"
   height="10cm"
   viewBox="0 0 100 99.999997"
   version="1.1"
   id="svg8"
   sodipodi:docname="jo.svg"
   inkscape:version="0.92.3 (2405546, 2018-03-11)">
  <defs
     id="defs2" />
  <sodipodi:namedview
     id="base"
     pagecolor="#ffffff"
     bordercolor="#666666"
     borderopacity="1.0"
     inkscape:pageopacity="0.0"
     inkscape:pageshadow="2"
     inkscape:zoom="1"
     inkscape:cx="125.50186"
     inkscape:cy="200.50542"
     inkscape:document-units="cm"
     inkscape:current-layer="layer1"
     showgrid="true"
     units="cm"
     inkscape:window-width="1920"
     inkscape:window-height="1017"
     inkscape:window-x="-8"
     inkscape:window-y="-8"
     inkscape:window-maximized="1"
     inkscape:snap-nodes="false">
    <inkscape:grid
       type="xygrid"
       id="grid815"
       units="cm"
       spacingx="9.9999998"
       spacingy="9.9999998" />
  </sodipodi:namedview>
  <metadata
     id="metadata5">
    <rdf:RDF>
      <cc:Work
         rdf:about="">
        <dc:format>image/svg+xml</dc:format>
        <dc:type
           rdf:resource="http://purl.org/dc/dcmitype/StillImage" />
        <dc:title></dc:title>
      </cc:Work>
    </rdf:RDF>
  </metadata>
  <g
     inkscape:label="Layer 1"
     inkscape:groupmode="layer"
     id="layer1"
     transform="translate(0,-197.00002)">
    <path
       style="opacity:1;fill:#020900;fill-opacity:1;stroke:none;stroke-width:1;stroke-linecap:butt;stroke-linejoin:round;stroke-miterlimit:4;stroke-dasharray:none;stroke-opacity:1"
       id="path1083"
       d="m 57.817689,222.4621 c -0.05169,0.12141 -0.101897,0.24342 -0.148246,0.36697 -0.07495,0.20177 -0.148792,0.40394 -0.219234,0.60733 -0.08224,0.24027 -0.160912,0.48177 -0.232212,0.72552 -0.07343,0.252 -0.126661,0.50911 -0.176548,0.76659 -0.06201,0.3175 -0.107159,0.63775 -0.134639,0.96 -0.02548,0.3731 -0.02503,0.74729 -0.01823,1.12099 0.0096,0.39122 0.04393,0.78107 0.095,1.16889 0.04016,0.3193 0.131254,0.62752 0.23708,0.93029 0.139766,0.3923 0.320593,0.76766 0.512013,1.13687 0.211278,0.40113 0.452522,0.785 0.707308,1.15962 0.22143,0.32275 0.474115,0.62179 0.735349,0.91259 0.174215,0.19298 0.364463,0.36933 0.577424,0.51838 0.108646,0.067 0.225716,0.12064 0.349387,0.15272 0.05979,0.0166 0.05345,0.001 0.07976,-0.024 0.167859,-0.0379 0.333764,-0.0823 0.498543,-0.13184 0.169442,-0.0434 0.319019,-0.12494 0.463204,-0.2205 0.187989,-0.12629 0.356285,-0.27778 0.51766,-0.43586 0.202255,-0.20478 0.379013,-0.43218 0.549526,-0.66344 0.181287,-0.24337 0.343525,-0.49966 0.48428,-0.76835 0.126982,-0.24163 0.202946,-0.50414 0.274423,-0.76619 0.100698,-0.39243 0.168712,-0.7921 0.228005,-1.19255 0.05511,-0.37473 0.08328,-0.75239 0.09176,-1.13084 0.01048,-0.27825 -0.02458,-0.55324 -0.07272,-0.82639 -0.05333,-0.30391 -0.158001,-0.59442 -0.265084,-0.88259 -0.125269,-0.34155 -0.279617,-0.67038 -0.455713,-0.98831 -0.185092,-0.32607 -0.398081,-0.63475 -0.616894,-0.93877 -0.246674,-0.33962 -0.50986,-0.6665 -0.789525,-0.9794 -0.234585,-0.26224 -0.497453,-0.49511 -0.777163,-0.7076 -0.280723,-0.2076 -0.593206,-0.3651 -0.906952,-0.51558 -0.442841,-0.20908 -0.904698,-0.37276 -1.369049,-0.52642 -0.571834,-0.18603 -1.154581,-0.33516 -1.739001,-0.47551 -0.59214,-0.1475 -1.194154,-0.24564 -1.799735,-0.31653 -0.66761,-0.0752 -1.339109,-0.10152 -2.010299,-0.11776 -0.724652,-0.0172 -1.449112,0.003 -2.172391,0.0469 -0.775779,0.0529 -1.546629,0.1565 -2.314596,0.27577 -0.815887,0.13236 -1.626129,0.29634 -2.431833,0.48021 -0.770088,0.17572 -1.527064,0.40124 -2.274366,0.65584 -0.760373,0.26471 -1.496296,0.59226 -2.225564,0.93182 -0.750342,0.35025 -1.475327,0.7503 -2.187866,1.17125 -0.701508,0.41431 -1.367687,0.88316 -2.012577,1.38001 -0.645618,0.50058 -1.240192,1.061 -1.814682,1.64051 -0.600837,0.61182 -1.147286,1.27302 -1.679868,1.94409 -0.541878,0.69058 -1.038199,1.41486 -1.516775,2.15019 -0.469701,0.72324 -0.881263,1.48116 -1.273794,2.24827 -0.402812,0.79352 -0.753509,1.61145 -1.087736,2.43569 -0.333367,0.82718 -0.620779,1.67141 -0.885889,2.52257 -0.278563,0.89101 -0.489823,1.80014 -0.671893,2.71507 -0.199189,1.02516 -0.328679,2.06158 -0.435142,3.09988 -0.106534,1.09874 -0.153662,2.20181 -0.18575,3.30484 -0.03388,1.12633 -0.0079,2.2528 0.0426,3.3781 0.05363,1.14025 0.169706,2.27586 0.308748,3.40843 0.138184,1.11782 0.325837,2.22829 0.549238,3.33198 0.21909,1.05429 0.493228,2.09586 0.790694,3.13041 0.288676,0.98871 0.625451,1.96219 0.985438,2.92691 0.329096,0.88539 0.718182,1.74596 1.133117,2.59388 0.392936,0.79959 0.843201,1.56833 1.31685,2.3222 0.450078,0.71255 0.95014,1.39075 1.485943,2.04069 0.487846,0.58743 1.046718,1.10775 1.625877,1.60298 0.598096,0.50592 1.243116,0.95105 1.901693,1.37355 0.662771,0.42153 1.357365,0.78849 2.060062,1.13801 0.691192,0.34272 1.403344,0.63929 2.122638,0.91707 0.72086,0.27533 1.455232,0.51262 2.192491,0.73952 0.688779,0.21165 1.38317,0.40366 2.085697,0.56386 0.607769,0.1373 1.224381,0.22699 1.842789,0.29919 0.601538,0.0688 1.206476,0.0961 1.811469,0.10783 0.595739,0.0112 1.191004,-0.0164 1.784689,-0.0634 0.597392,-0.0496 1.189109,-0.14654 1.778646,-0.25243 0.615418,-0.11001 1.221657,-0.26172 1.822759,-0.43212 0.610981,-0.17757 1.211022,-0.38968 1.806363,-0.61347 0.566637,-0.21146 1.115264,-0.46624 1.658176,-0.73172 0.54121,-0.263 1.062085,-0.56396 1.577411,-0.87381 0.513869,-0.30988 1.013198,-0.64243 1.500735,-0.99204 0.469514,-0.34235 0.920081,-0.70958 1.359244,-1.08981 0.423879,-0.36913 0.820653,-0.76758 1.206106,-1.17621 0.378307,-0.40139 0.720799,-0.83392 1.052669,-1.27384 0.335333,-0.44492 0.634949,-0.91467 0.920744,-1.39242 0.284602,-0.4775 0.537692,-0.97245 0.775518,-1.47456 0.236527,-0.50637 0.436282,-1.02857 0.629695,-1.55255 0.193268,-0.51739 0.357016,-1.04464 0.503753,-1.57687 0.151213,-0.56394 0.27255,-1.13513 0.384982,-1.70787 0.107035,-0.54957 0.189249,-1.10341 0.264404,-1.65809 0.06827,-0.48981 0.122306,-0.98127 0.162007,-1.47417 0.03432,-0.45552 0.05205,-0.91206 0.06387,-1.36865 0.0077,-0.40957 0.01979,-0.81913 0.01852,-1.22879 -0.0019,-0.26645 -0.01966,-0.53249 -0.04073,-0.79801 -0.01042,-0.11537 -0.01688,-0.23219 -0.04347,-0.3453 0.0013,0.0336 0.03451,0.13583 0.0062,0.0519 -0.02339,-0.0699 -0.04792,-0.13934 -0.07238,-0.20884 -0.02373,-0.0674 -0.04753,-0.13477 -0.07132,-0.20214 -0.0223,-0.0632 -0.03591,-0.10181 -0.01561,-0.044 0.414681,1.04331 1.339921,1.78318 2.431208,2.031 0.241073,0.0547 0.492485,0.0437 0.738725,0.0656 0.525878,-0.0585 0.454205,-0.0241 0.878636,-0.14669 0.05021,-0.0145 0.0986,-0.0347 0.147794,-0.0523 0.01093,-0.004 0.03651,-0.0233 0.03256,-0.0124 -0.01257,0.0347 -0.06623,0.0326 -0.09934,0.0489 -0.236138,0.11481 -0.46572,0.24226 -0.693513,0.37265 -0.415052,0.24356 -0.826873,0.49257 -1.240954,0.73779 -0.528098,0.30847 -1.047025,0.63211 -1.566193,0.95525 -0.624454,0.39123 -1.253614,0.77483 -1.885704,1.15356 -0.664805,0.39908 -1.342054,0.77668 -2.021356,1.15033 -0.626102,0.33897 -1.249801,0.68229 -1.870477,1.0311 -0.586012,0.32755 -1.164145,0.66879 -1.740826,1.01242 -0.538734,0.32018 -1.074584,0.64518 -1.612334,0.96702 -0.445928,0.26627 -0.892333,0.53174 -1.338686,0.7973 -0.354348,0.21081 -0.708704,0.42161 -1.063064,0.63241 -0.282392,0.16799 -0.564787,0.33597 -0.84718,0.50396 -0.23033,0.13756 -0.461473,0.27375 -0.692679,0.40983 -0.18184,0.10699 -0.363709,0.21393 -0.545576,0.32087 -0.144655,0.0851 -0.289311,0.17011 -0.433967,0.25517 -0.115287,0.0678 -0.230574,0.13558 -0.34586,0.20337 -0.09189,0.054 -0.183772,0.10806 -0.275659,0.16209 -0.07323,0.0431 -0.146471,0.0861 -0.219705,0.12919 0.03963,-0.0249 -0.160935,0.0958 -0.121097,0.0712 0.245504,-0.15165 0.0034,0.0108 0.470247,-0.33742 -3.671031,3.1914 -8.184343,-2.00023 -4.513313,-5.19162 v 0 c 0.220747,-0.16705 0.433594,-0.34064 0.677299,-0.47214 0.07323,-0.0431 0.14647,-0.0861 0.219704,-0.12919 0.09189,-0.054 0.183772,-0.10806 0.275659,-0.16209 0.115287,-0.0678 0.230571,-0.13558 0.345858,-0.20337 0.144637,-0.0851 0.289272,-0.17009 0.433906,-0.25514 0.181047,-0.10646 0.362093,-0.21291 0.543111,-0.31941 0.221996,-0.13067 0.443947,-0.26141 0.665091,-0.39351 0.282392,-0.16799 0.564782,-0.33597 0.847172,-0.50396 0.354234,-0.21072 0.708469,-0.42145 1.062693,-0.63218 0.441288,-0.26255 0.882629,-0.52501 1.323507,-0.78825 0.541584,-0.32409 1.081183,-0.65148 1.623782,-0.97386 0.626796,-0.37342 1.255369,-0.74391 1.892216,-1.10003 0.638915,-0.35892 1.280662,-0.71272 1.925179,-1.0615 0.605195,-0.33277 1.208908,-0.66845 1.801183,-1.0239 0.598694,-0.35856 1.194424,-0.72203 1.785803,-1.09256 0.562239,-0.34993 1.124537,-0.69988 1.696262,-1.03422 0.446648,-0.26444 0.890386,-0.5338 1.339061,-0.7948 0.355386,-0.20206 0.713656,-0.39925 1.081588,-0.57776 0.583613,-0.28388 1.183494,-0.51564 1.845191,-0.53191 0.272238,0.0211 0.549727,0.006 0.816716,0.0632 1.189879,0.25505 2.174094,1.05939 2.624912,2.18749 0.03686,0.0936 0.07214,0.18778 0.104931,0.28288 0.0245,0.0694 0.049,0.13881 0.07346,0.20823 0.03694,0.10498 0.07375,0.21002 0.108969,0.31559 0.08854,0.26646 0.167825,0.53619 0.220898,0.81224 0.07044,0.37241 0.12328,0.74788 0.149304,1.12622 0.03359,0.43934 0.06059,0.87946 0.06131,1.32027 1.37e-4,0.47358 -0.01042,0.94704 -0.0209,1.42049 -0.01569,0.58282 -0.03897,1.16555 -0.08432,1.74691 -0.05079,0.61512 -0.116382,1.22878 -0.201795,1.84014 -0.09394,0.68958 -0.197625,1.37796 -0.331412,2.06111 -0.146978,0.74432 -0.306723,1.4864 -0.506015,2.21873 -0.199811,0.71628 -0.419905,1.4267 -0.680411,2.12353 -0.265716,0.71699 -0.543208,1.43024 -0.869995,2.12205 -0.335076,0.70167 -0.690224,1.3939 -1.090353,2.06111 -0.413912,0.68682 -0.847992,1.36183 -1.33254,2.00152 -0.4857,0.64005 -0.988901,1.2675 -1.541989,1.85126 -0.546126,0.57538 -1.107918,1.13649 -1.708343,1.65573 -0.599019,0.5154 -1.211852,1.0151 -1.852871,1.47778 -0.637593,0.45452 -1.288479,0.88993 -1.959901,1.29324 -0.686872,0.41178 -1.382567,0.8092 -2.103406,1.1592 -0.739392,0.35963 -1.487287,0.70282 -2.258391,0.98981 -0.776134,0.29024 -1.558451,0.56499 -2.355352,0.79333 -0.817494,0.22926 -1.641766,0.43411 -2.478212,0.58262 -0.815107,0.14502 -1.633723,0.27391 -2.459665,0.3393 -0.81747,0.0619 -1.636905,0.0995 -2.456989,0.0822 -0.827397,-0.0181 -1.654636,-0.0577 -2.477093,-0.15407 -0.864727,-0.10346 -1.726769,-0.23213 -2.57633,-0.42664 -0.864669,-0.20022 -1.721456,-0.43134 -2.569416,-0.69387 -0.891792,-0.27523 -1.779699,-0.56416 -2.65125,-0.89887 -0.917768,-0.35642 -1.826397,-0.73687 -2.708245,-1.17589 -0.927175,-0.46353 -1.842575,-0.95197 -2.716123,-1.51156 -0.92347,-0.59718 -1.826797,-1.22726 -2.663611,-1.94284 -0.877329,-0.75894 -1.721186,-1.55808 -2.458672,-2.45646 -0.715965,-0.87772 -1.391782,-1.78737 -1.993963,-2.74775 -0.60036,-0.9603 -1.171467,-1.93916 -1.669441,-2.95717 -0.511326,-1.04977 -0.991274,-2.11487 -1.397603,-3.21031 -0.420565,-1.13098 -0.8148,-2.27191 -1.151358,-3.43105 -0.347098,-1.21239 -0.66749,-2.43278 -0.921838,-3.66841 -0.256467,-1.2775 -0.475287,-2.56218 -0.633917,-3.85582 -0.159512,-1.3088 -0.292211,-2.62114 -0.352865,-3.93872 -0.05682,-1.29419 -0.08583,-2.58969 -0.04638,-3.88499 0.03773,-1.27148 0.09411,-2.54294 0.219162,-3.80929 0.13031,-1.25458 0.289351,-2.50676 0.532888,-3.7451 0.231869,-1.15057 0.49905,-2.29413 0.850785,-3.41476 0.323395,-1.03248 0.672708,-2.05692 1.078724,-3.06025 0.411387,-1.01106 0.844253,-2.01381 1.340426,-2.98672 0.502884,-0.97812 1.031224,-1.94378 1.632287,-2.86582 0.597475,-0.91466 1.217087,-1.81545 1.894219,-2.67356 0.69266,-0.86993 1.406199,-1.72449 2.188842,-2.51583 0.793057,-0.79446 1.614273,-1.56183 2.505017,-2.24708 0.868727,-0.66365 1.763226,-1.29348 2.706515,-1.84786 0.906024,-0.53248 1.82725,-1.03942 2.780787,-1.48267 0.955479,-0.44314 1.921145,-0.86684 2.918198,-1.20901 0.971733,-0.32744 1.954636,-0.62145 2.95533,-0.84795 0.963268,-0.21829 1.931503,-0.41496 2.907032,-0.5708 0.980374,-0.15066 1.964532,-0.28026 2.954896,-0.34414 0.916691,-0.0536 1.834748,-0.0801 2.753045,-0.0569 0.888709,0.0226 1.77763,0.0619 2.661216,0.16494 0.87072,0.10668 1.737162,0.24686 2.589226,0.45867 0.774475,0.18715 1.546201,0.38776 2.303314,0.63727 0.751478,0.25185 1.496843,0.52495 2.211139,0.8706 0.740984,0.365 1.46685,0.76466 2.120609,1.27374 0.606777,0.47853 1.185743,0.99138 1.697315,1.57256 0.432816,0.49183 0.847609,0.99911 1.229773,1.53165 0.382979,0.53615 0.751488,1.08339 1.069496,1.6612 0.332129,0.61687 0.632653,1.25005 0.871657,1.90946 0.25183,0.6945 0.474419,1.40084 0.592899,2.132 0.112366,0.70591 0.185616,1.41782 0.160684,2.13388 -0.02045,0.6562 -0.06704,1.31145 -0.1657,1.96104 -0.104823,0.68883 -0.227944,1.37574 -0.413168,2.04817 -0.214919,0.74367 -0.468876,1.47724 -0.840984,2.15909 -0.305837,0.55879 -0.638812,1.10215 -1.022895,1.61127 -0.405741,0.54005 -0.833255,1.06493 -1.321739,1.53329 -0.531463,0.49992 -1.091935,0.97005 -1.717979,1.34894 -0.661601,0.38887 -1.352262,0.72482 -2.094675,0.93108 -0.726265,0.20623 -1.465799,0.37425 -2.223749,0.39935 -0.888113,0.0106 -1.771142,-0.077 -2.610942,-0.38679 -0.747393,-0.28121 -1.470142,-0.62373 -2.113182,-1.10378 -0.57585,-0.43625 -1.120376,-0.91122 -1.59915,-1.45426 -0.464267,-0.52268 -0.910492,-1.06205 -1.302628,-1.6418 -0.405665,-0.60335 -0.791099,-1.22055 -1.125609,-1.86673 -0.3453,-0.67616 -0.66693,-1.36535 -0.912379,-2.08496 -0.243874,-0.7363 -0.447712,-1.48618 -0.541713,-2.25813 -0.07944,-0.63832 -0.137382,-1.27934 -0.1489,-1.9229 -0.0094,-0.6215 -0.0059,-1.24387 0.04622,-1.86372 0.05276,-0.55452 0.125238,-1.10693 0.234244,-1.6535 0.09248,-0.46834 0.194392,-0.93513 0.330203,-1.39312 0.102878,-0.34606 0.212256,-0.69013 0.330414,-1.0313 0.09243,-0.26586 0.188444,-0.53045 0.287091,-0.79408 0.09101,-0.23834 0.186383,-0.475 0.288674,-0.70875 1.968802,-4.44807 8.259315,-1.66376 6.290514,2.78431 z"
       inkscape:connector-curvature="0" />
  </g>
</svg>
