<svg viewBox="0 0 100 100"><path style="opacity:1;fill:#020900;fill-opacity:1;stroke:none;stroke-width:1;stroke-linecap:butt;stroke-linejoin:round;stroke-miterlimit:4;stroke-dasharray:none;stroke-opacity:1" d="M57.818 222.462a9 9 0 0 0-.149.367q-.113.303-.219.607-.123.36-.232.726a9 9 0 0 0-.177.767 9 9 0 0 0-.134.96c-.026.373-.025.747-.018 1.12q.017.588.095 1.17c.04.319.13.627.237.93.14.392.32.767.512 1.137.211.4.452.785.707 1.16.221.322.474.621.735.912.175.193.365.37.578.518q.162.102.35.153c.059.016.053 0 .079-.024q.252-.057.498-.132c.17-.043.32-.125.464-.22a3.7 3.7 0 0 0 .517-.436c.203-.205.38-.433.55-.664q.272-.365.484-.768c.127-.242.203-.504.275-.766.1-.393.168-.792.228-1.193q.08-.563.091-1.13a4 4 0 0 0-.072-.827 5 5 0 0 0-.266-.883 7 7 0 0 0-.455-.988 12.4 12.4 0 0 0-1.406-1.918 5.5 5.5 0 0 0-.778-.708 5.5 5.5 0 0 0-.907-.515c-.443-.21-.904-.373-1.369-.527a23 23 0 0 0-1.739-.475 14 14 0 0 0-1.8-.317 23 23 0 0 0-2.01-.118 26 26 0 0 0-2.172.047c-.776.053-1.547.157-2.315.276-.816.132-1.626.296-2.432.48-.77.176-1.527.402-2.274.656a24 24 0 0 0-2.226.932c-.75.35-1.475.75-2.187 1.171a20 20 0 0 0-2.013 1.38c-.646.5-1.24 1.061-1.815 1.64-.6.613-1.147 1.274-1.68 1.945a30 30 0 0 0-1.516 2.15 25 25 0 0 0-1.274 2.248 32 32 0 0 0-1.088 2.436 33 33 0 0 0-.886 2.523c-.278.89-.49 1.8-.672 2.715a35 35 0 0 0-.435 3.1 49 49 0 0 0-.186 3.304 45 45 0 0 0 .043 3.378c.054 1.14.17 2.276.309 3.409.138 1.118.326 2.228.549 3.332a44 44 0 0 0 .79 3.13c.29.989.626 1.962.986 2.927.33.886.718 1.746 1.133 2.594.393.8.843 1.568 1.317 2.322.45.713.95 1.391 1.486 2.04.488.588 1.047 1.109 1.626 1.604.598.506 1.243.951 1.902 1.373.662.422 1.357.789 2.06 1.138a25 25 0 0 0 2.122.918c.721.275 1.456.512 2.193.74.689.21 1.383.403 2.086.563.607.137 1.224.227 1.842.3a19 19 0 0 0 3.596.044c.598-.05 1.19-.147 1.78-.253.615-.11 1.22-.262 1.822-.432a25 25 0 0 0 1.806-.613A20.3 20.3 0 0 0 60 274.29q.77-.466 1.5-.992c.47-.342.92-.71 1.36-1.09.424-.369.82-.767 1.206-1.176a15.6 15.6 0 0 0 1.973-2.666c.285-.478.538-.973.776-1.475a20 20 0 0 0 .63-1.552c.193-.518.357-1.045.503-1.577a26 26 0 0 0 .385-1.708c.107-.55.19-1.104.265-1.658q.102-.736.162-1.474c.034-.456.052-.912.064-1.37.007-.409.02-.818.018-1.228a12 12 0 0 0-.04-.798c-.011-.115-.018-.232-.044-.345.001.033.034.136.006.052l-.072-.21-.072-.201c-.022-.063-.036-.102-.015-.044.414 1.043 1.34 1.783 2.431 2.03.241.055.492.044.739.066.526-.058.454-.024.878-.146q.075-.024.148-.053c.011-.004.037-.023.033-.012-.013.035-.067.033-.1.049-.236.115-.465.242-.693.372-.415.244-.827.493-1.241.738-.528.309-1.047.632-1.566.956q-.938.585-1.886 1.153c-.665.4-1.342.777-2.021 1.15q-.94.51-1.87 1.032a69 69 0 0 0-1.742 1.012c-.538.32-1.074.645-1.612.967l-1.339.797-1.063.633-.847.504-.693.41-.545.32-.434.256-.346.203-.276.162-.22.13c.04-.026-.16.095-.12.07.245-.151.003.011.47-.337-3.671 3.191-8.185-2-4.514-5.192.221-.167.434-.34.678-.472l.22-.129.275-.162.346-.203.434-.256.543-.319q.333-.195.665-.394l.847-.503 1.063-.633 1.323-.788 1.624-.974a80 80 0 0 1 1.892-1.1q.96-.539 1.926-1.061a55 55 0 0 0 1.8-1.024q.9-.538 1.787-1.093c.562-.35 1.124-.7 1.696-1.034.447-.264.89-.534 1.339-.795.355-.202.714-.399 1.082-.578.583-.283 1.183-.515 1.845-.531.272.02.55.006.816.063 1.19.255 2.175 1.06 2.625 2.187q.055.14.105.283l.183.524c.088.266.168.536.22.812.071.373.124.748.15 1.126.034.44.06.88.061 1.32 0 .474-.01.948-.02 1.421a34 34 0 0 1-.085 1.747q-.074.923-.202 1.84c-.094.69-.197 1.378-.331 2.061a32 32 0 0 1-.506 2.219c-.2.716-.42 1.427-.68 2.124-.266.717-.544 1.43-.87 2.122a25 25 0 0 1-1.091 2.06 23 23 0 0 1-1.333 2.002c-.485.64-.988 1.268-1.542 1.852a24 24 0 0 1-1.708 1.655 28 28 0 0 1-1.853 1.478c-.637.455-1.288.89-1.96 1.293a27 27 0 0 1-4.361 2.15 32 32 0 0 1-2.356.793c-.817.229-1.642.434-2.478.582-.815.145-1.634.274-2.46.34-.817.061-1.637.099-2.457.082a26 26 0 0 1-2.477-.154 25 25 0 0 1-2.576-.427q-1.298-.3-2.57-.694a42 42 0 0 1-2.65-.899 32 32 0 0 1-2.709-1.176c-.927-.463-1.843-.952-2.716-1.511-.924-.597-1.827-1.227-2.664-1.943-.877-.759-1.72-1.558-2.458-2.456a27 27 0 0 1-1.994-2.748c-.6-.96-1.172-1.94-1.67-2.957a36 36 0 0 1-1.397-3.21 49 49 0 0 1-1.152-3.432 50 50 0 0 1-.922-3.668 51 51 0 0 1-.633-3.856 53 53 0 0 1-.353-3.939 52 52 0 0 1-.047-3.885c.038-1.271.094-2.543.22-3.809.13-1.255.289-2.507.532-3.745.232-1.15.5-2.294.851-3.415a40 40 0 0 1 1.079-3.06 38 38 0 0 1 1.34-2.987c.503-.978 1.031-1.944 1.633-2.866a37 37 0 0 1 1.894-2.673c.692-.87 1.406-1.725 2.189-2.516.793-.794 1.614-1.562 2.505-2.247a27 27 0 0 1 2.706-1.848 33 33 0 0 1 2.78-1.483c.956-.443 1.922-.866 2.92-1.209a30 30 0 0 1 2.954-.848 46 46 0 0 1 2.907-.57c.98-.151 1.965-.28 2.955-.345.917-.053 1.835-.08 2.753-.056.89.022 1.778.061 2.662.164.87.107 1.737.247 2.589.46.774.186 1.546.387 2.303.636.752.252 1.497.525 2.211.871.741.365 1.467.765 2.12 1.274.608.478 1.187.991 1.698 1.572.433.492.848 1 1.23 1.532.383.536.751 1.083 1.07 1.661.332.617.632 1.25.871 1.91.252.694.475 1.4.593 2.132.112.706.186 1.417.16 2.134-.02.656-.066 1.311-.165 1.96a18 18 0 0 1-.413 2.049c-.215.743-.469 1.477-.841 2.159a13 13 0 0 1-1.023 1.611c-.406.54-.833 1.065-1.322 1.533-.531.5-1.092.97-1.718 1.35-.661.388-1.352.724-2.094.93-.727.207-1.466.375-2.224.4-.888.01-1.771-.077-2.611-.387-.747-.281-1.47-.624-2.113-1.104a11 11 0 0 1-1.6-1.454 16 16 0 0 1-1.302-1.642 19 19 0 0 1-1.126-1.867c-.345-.676-.667-1.365-.912-2.085-.244-.736-.448-1.486-.542-2.258a18.4 18.4 0 0 1-.102-3.786c.052-.555.125-1.107.234-1.654.092-.468.194-.935.33-1.393a24 24 0 0 1 .618-1.825q.135-.358.288-.71c1.969-4.447 8.26-1.663 6.29 2.785z" transform="translate(0 -197)"/></svg>
