<?xml version="1.0" encoding="UTF-8" standalone="no"?>
<!-- Created with Inkscape (http://www.inkscape.org/) -->

<svg
   xmlns:dc="http://purl.org/dc/elements/1.1/"
   xmlns:cc="http://creativecommons.org/ns#"
   xmlns:rdf="http://www.w3.org/1999/02/22-rdf-syntax-ns#"
   xmlns:svg="http://www.w3.org/2000/svg"
   xmlns="http://www.w3.org/2000/svg"
   xmlns:sodipodi="http://sodipodi.sourceforge.net/DTD/sodipodi-0.dtd"
   xmlns:inkscape="http://www.inkscape.org/namespaces/inkscape"
   width="10cm"
   height="10cm"
   viewBox="0 0 100 99.999997"
   version="1.1"
   id="svg8"
   sodipodi:docname="kalama.svg"
   inkscape:version="0.92.3 (2405546, 2018-03-11)">
  <defs
     id="defs2" />
  <sodipodi:namedview
     id="base"
     pagecolor="#ffffff"
     bordercolor="#666666"
     borderopacity="1.0"
     inkscape:pageopacity="0.0"
     inkscape:pageshadow="2"
     inkscape:zoom="1"
     inkscape:cx="125.50186"
     inkscape:cy="200.50542"
     inkscape:document-units="cm"
     inkscape:current-layer="layer1"
     showgrid="true"
     units="cm"
     inkscape:window-width="1920"
     inkscape:window-height="1017"
     inkscape:window-x="-8"
     inkscape:window-y="-8"
     inkscape:window-maximized="1"
     inkscape:snap-nodes="false">
    <inkscape:grid
       type="xygrid"
       id="grid815"
       units="cm"
       spacingx="9.9999998"
       spacingy="9.9999998" />
  </sodipodi:namedview>
  <metadata
     id="metadata5">
    <rdf:RDF>
      <cc:Work
         rdf:about="">
        <dc:format>image/svg+xml</dc:format>
        <dc:type
           rdf:resource="http://purl.org/dc/dcmitype/StillImage" />
        <dc:title></dc:title>
      </cc:Work>
    </rdf:RDF>
  </metadata>
  <g
     inkscape:label="Layer 1"
     inkscape:groupmode="layer"
     id="layer1"
     transform="translate(0,-197.00002)">
    <path
       style="opacity:1;fill:#020900;fill-opacity:1;stroke:none;stroke-width:1;stroke-linecap:butt;stroke-linejoin:round;stroke-miterlimit:4;stroke-dasharray:none;stroke-opacity:1"
       id="path1087"
       d="m 20.005081,250.80625 c -8.9e-5,0.21829 -0.003,0.43656 -0.0049,0.65484 -0.0025,0.28566 -0.0043,0.57133 -0.0059,0.857 8.73e-4,0.31582 -0.0096,0.63181 0.0027,0.94748 0.01025,0.25265 0.05437,0.50162 0.103677,0.74903 0.08472,0.40418 0.203492,0.79983 0.330115,1.19251 0.162872,0.49783 0.373667,0.97735 0.592003,1.45277 0.266977,0.58268 0.566724,1.14908 0.887055,1.70394 0.349479,0.59789 0.735404,1.1732 1.133903,1.73922 0.436487,0.61326 0.904824,1.20276 1.380969,1.78542 0.495431,0.61148 1.022134,1.19597 1.568234,1.76229 0.557652,0.56891 1.151176,1.10083 1.757437,1.61705 0.638153,0.53929 1.314386,1.03033 1.998122,1.50954 0.7487,0.52084 1.518134,1.01066 2.293141,1.49112 0.785736,0.487 1.59344,0.9366 2.40587,1.37708 0.837919,0.45314 1.688452,0.8822 2.546125,1.29655 0.852493,0.41186 1.722755,0.78444 2.603587,1.13094 0.901589,0.35105 1.825985,0.63736 2.756202,0.90122 0.999725,0.27836 2.013714,0.49969 3.03036,0.70583 1.098455,0.22006 2.204426,0.39908 3.311737,0.56778 1.155001,0.17301 2.313397,0.32211 3.473307,0.45794 1.116779,0.13334 2.238102,0.21959 3.361327,0.27281 1.072203,0.0481 2.145342,0.0275 3.216582,-0.0294 0.990608,-0.0536 1.972075,-0.1968 2.947778,-0.37022 0.941094,-0.16916 1.870015,-0.39537 2.790476,-0.65265 0.839976,-0.23436 1.662007,-0.52437 2.466425,-0.86002 0.760592,-0.31845 1.478425,-0.7237 2.177489,-1.15825 0.744982,-0.4688 1.435343,-1.01538 2.115621,-1.57192 0.736103,-0.60832 1.452362,-1.24 2.16003,-1.881 0.640143,-0.58152 1.269322,-1.17486 1.875559,-1.79169 0.516245,-0.5263 0.984192,-1.09591 1.422533,-1.68783 0.431435,-0.59452 0.802835,-1.22883 1.160208,-1.86962 0.341831,-0.60795 0.62152,-1.24672 0.881253,-1.89305 0.248092,-0.63203 0.468784,-1.27429 0.680569,-1.91924 0.169802,-0.50659 0.299771,-1.02467 0.415142,-1.54592 0.108479,-0.51118 0.205259,-1.02475 0.30335,-1.53801 0.07825,-0.39678 0.152837,-0.79405 0.210871,-1.19432 0.04445,-0.32565 0.08106,-0.65226 0.113919,-0.97926 0.02064,-0.25988 0.04815,-0.51946 0.06199,-0.77984 8e-6,-0.072 -0.0083,-0.14384 -0.01548,-0.21547 -0.01453,-0.10927 -0.03167,-0.2182 -0.05003,-0.32689 -0.0232,-0.12655 -0.0476,-0.25287 -0.07193,-0.37921 -0.02368,-0.12279 -0.04739,-0.24557 -0.07111,-0.36836 -0.019,-0.0984 -0.03801,-0.19681 -0.05702,-0.29521 -0.01516,-0.0784 -0.0303,-0.15689 -0.04546,-0.23533 0.105405,0.51331 0.388115,1.1339 0.788424,1.54288 0.211397,0.21598 0.464518,0.38674 0.696778,0.58011 0.768101,0.44427 1.643181,0.62261 2.507027,0.40819 0.0127,-7.9e-4 0.02416,-0.008 0.03678,-0.009 0.03151,-0.002 -0.06092,0.0279 -0.154948,0.0706 -0.36095,0.16905 -0.728128,0.32367 -1.098529,0.47065 -0.576453,0.22998 -1.169508,0.41293 -1.767035,0.57882 -0.730565,0.1972 -1.474147,0.33892 -2.219204,0.46817 -0.812127,0.13676 -1.628819,0.24381 -2.446517,0.34082 -0.887444,0.10266 -1.77873,0.16508 -2.670175,0.22007 -0.899057,0.053 -1.799111,0.0855 -2.699298,0.11143 -0.864573,0.0233 -1.729279,0.0414 -2.59399,0.0588 -0.854657,0.02 -1.709481,0.0282 -2.564326,0.0342 -0.862052,0.006 -1.724115,0.009 -2.586178,0.0133 -0.898742,0.004 -1.797489,0.007 -2.696234,0.0101 -0.925388,0.004 -1.850757,0.006 -2.776132,-5.3e-4 -0.946365,-0.009 -1.892525,-0.0311 -2.838638,-0.0537 -0.955633,-0.0224 -1.91108,-0.052 -2.866475,-0.0827 -1.007819,-0.0333 -2.015693,-0.0647 -3.023618,-0.0945 -1.110885,-0.0349 -2.221836,-0.0674 -3.332779,-0.10035 -1.207884,-0.0347 -2.414791,-0.0948 -3.621421,-0.1587 -1.211181,-0.0669 -2.422091,-0.13849 -3.633248,-0.20583 -1.194546,-0.0664 -2.389576,-0.12356 -3.584752,-0.17729 -1.190173,-0.0531 -2.380657,-0.0986 -3.571216,-0.14199 -1.131933,-0.0402 -2.263934,-0.0788 -3.396089,-0.11223 -0.998056,-0.0279 -1.996413,-0.0424 -2.994726,-0.0571 -0.841252,-0.0111 -1.682553,-0.0171 -2.523856,-0.0224 -0.702334,-0.004 -1.404671,-0.008 -2.107008,-0.0119 -0.57532,-0.003 -1.15064,-0.006 -1.72596,-0.009 -0.462217,-0.002 -0.924434,-0.005 -1.386652,-0.007 -0.349732,-0.002 -0.699465,-0.004 -1.049205,-0.004 -4.864305,0.002 -4.86666,-6.8775 -0.0024,-6.87916 v 0 c 0.36276,-1.2e-4 0.725513,0.001 1.088265,0.004 0.462235,0.002 0.92447,0.005 1.386705,0.007 0.575596,0.003 1.151192,0.006 1.726788,0.009 0.704121,0.004 1.408242,0.008 2.112361,0.0119 0.860775,0.005 1.721547,0.0116 2.582268,0.023 1.032328,0.0152 2.064695,0.0304 3.096747,0.0594 1.147919,0.034 2.295681,0.0729 3.443375,0.11379 1.210008,0.0441 2.419942,0.0904 3.629559,0.14436 1.219496,0.0548 2.438839,0.11317 3.657693,0.18096 1.205071,0.067 2.409907,0.13817 3.614999,0.20484 1.153361,0.0611 2.306979,0.11887 3.461546,0.1521 1.11092,0.0329 2.221852,0.0655 3.332713,0.10036 1.013862,0.03 2.027674,0.0616 3.041431,0.0951 0.936328,0.0302 1.872707,0.0591 2.809271,0.0811 0.908347,0.0217 1.81673,0.0432 2.725314,0.052 0.900639,0.007 1.801273,0.005 2.701923,2.6e-4 0.896371,-0.003 1.792742,-0.006 2.689111,-0.0101 0.856115,-0.004 1.712227,-0.008 2.568329,-0.0132 0.824775,-0.006 1.649531,-0.0136 2.474121,-0.033 0.844979,-0.017 1.689955,-0.0346 2.534804,-0.0573 0.825188,-0.0236 1.650264,-0.0532 2.474441,-0.10129 0.762598,-0.0468 1.525164,-0.0987 2.284458,-0.18542 0.696494,-0.0821 1.392115,-0.17292 2.084006,-0.28812 0.524907,-0.0901 1.049242,-0.18674 1.564741,-0.32197 0.360965,-0.0978 0.718981,-0.20707 1.066882,-0.3451 0.271412,-0.10604 0.538419,-0.22228 0.802391,-0.34571 0.334568,-0.14983 0.673029,-0.29297 1.025832,-0.39486 1.038474,-0.28262 2.073309,-0.20725 3.025193,0.34885 0.248004,0.20311 0.518197,0.38181 0.744013,0.60933 0.482923,0.48656 0.772515,1.15111 0.906585,1.81359 0.01516,0.0784 0.0303,0.15688 0.04546,0.23533 0.01902,0.0984 0.03803,0.19687 0.05704,0.29531 0.024,0.12418 0.04798,0.24836 0.07191,0.37254 0.03528,0.18327 0.07089,0.36648 0.102637,0.55039 0.04603,0.2787 0.08907,0.5581 0.115655,0.83945 0.03605,0.41487 0.05608,0.83159 0.03061,1.24786 -0.0223,0.35207 -0.05199,0.70364 -0.0842,1.05494 -0.04351,0.42955 -0.0919,0.85863 -0.151894,1.28623 -0.07358,0.49828 -0.161965,0.99391 -0.260416,1.48788 -0.11126,0.58213 -0.221181,1.1646 -0.345996,1.74402 -0.166108,0.74088 -0.35374,1.47704 -0.594524,2.19767 -0.259786,0.78894 -0.530887,1.57445 -0.837039,2.3468 -0.370435,0.91353 -0.771734,1.81504 -1.25604,2.67491 -0.505592,0.90165 -1.035659,1.79112 -1.649722,2.62422 -0.630243,0.84088 -1.297268,1.65409 -2.0363,2.40272 -0.699492,0.70861 -1.420709,1.39498 -2.158867,2.06328 -0.794578,0.71907 -1.598734,1.42775 -2.425724,2.10951 -0.914781,0.74599 -1.848104,1.47178 -2.851626,2.09635 -1.015429,0.62452 -2.058705,1.20492 -3.161887,1.66189 -1.062805,0.43744 -2.145131,0.82477 -3.253598,1.13131 -1.134565,0.31445 -2.278901,0.59323 -3.438593,0.79963 -1.253297,0.21995 -2.514254,0.39903 -3.786241,0.46564 -1.300408,0.0664 -2.603005,0.0915 -3.904387,0.0308 -1.280337,-0.0624 -2.558727,-0.15915 -3.831778,-0.31167 -1.238705,-0.14542 -2.47586,-0.30449 -3.709299,-0.48975 -1.218502,-0.18599 -2.435429,-0.38392 -3.644085,-0.62684 -1.189194,-0.24197 -2.374959,-0.50315 -3.543935,-0.83088 -1.146837,-0.32727 -2.286196,-0.68294 -3.397314,-1.1183 -1.039545,-0.41093 -2.067758,-0.84992 -3.074133,-1.33717 -0.953664,-0.46152 -1.899888,-0.9384 -2.831642,-1.44293 -0.929434,-0.50444 -1.852906,-1.0203 -2.751767,-1.57794 -0.885381,-0.54945 -1.764065,-1.11012 -2.618965,-1.70627 -0.860731,-0.6048 -1.710284,-1.22673 -2.512571,-1.90822 -0.776286,-0.66399 -1.53674,-1.34742 -2.249089,-2.08036 -0.673871,-0.70201 -1.326401,-1.42409 -1.939046,-2.18058 -0.58049,-0.71161 -1.150568,-1.43223 -1.681473,-2.18195 -0.516975,-0.73738 -1.017561,-1.48681 -1.469432,-2.2663 -0.423692,-0.74003 -0.824053,-1.49322 -1.178037,-2.26944 -0.330709,-0.72518 -0.64428,-1.45893 -0.88838,-2.21858 -0.208344,-0.65497 -0.400502,-1.31579 -0.533627,-1.99076 -0.114012,-0.60448 -0.205534,-1.21382 -0.223699,-1.82981 -0.01135,-0.40107 -0.0098,-0.80211 -0.006,-1.20331 0.0017,-0.29291 0.0035,-0.58582 0.0061,-0.87872 0.0017,-0.19793 0.0044,-0.39586 0.0046,-0.5938 0,-4.8643 6.879167,-4.8643 6.879167,0 z"
       inkscape:connector-curvature="0" />
    <path
       style="opacity:1;fill:#020900;fill-opacity:1;stroke:none;stroke-width:1;stroke-linecap:butt;stroke-linejoin:round;stroke-miterlimit:4;stroke-dasharray:none;stroke-opacity:1"
       id="path1089"
       d="m 43.519957,235.63711 c -0.08423,0.54331 -0.07214,-0.16503 -0.08042,-0.31308 -0.06063,-0.89232 -0.18252,-1.77877 -0.309454,-2.66359 -0.171119,-1.14835 -0.37316,-2.29177 -0.575889,-3.43486 -0.177895,-1.00081 -0.364752,-1.99999 -0.544772,-3.0004 -0.09268,-0.52488 -0.176025,-1.05133 -0.258289,-1.57792 -0.750527,-4.80606 6.046264,-5.86747 6.796789,-1.06141 v 0 c 0.07404,0.4743 0.148873,0.94849 0.231976,1.42131 0.180946,1.00604 0.369075,2.01079 0.547783,3.01725 0.216053,1.21844 0.430879,2.43731 0.612192,3.66151 0.155377,1.08812 0.301517,2.17871 0.369319,3.27645 0.03955,0.78228 0.07041,1.57387 -0.115184,2.34209 -1.178993,4.71926 -7.853039,3.05192 -6.674048,-1.66735 z"
       inkscape:connector-curvature="0" />
    <path
       style="opacity:1;fill:#020900;fill-opacity:1;stroke:none;stroke-width:1;stroke-linecap:butt;stroke-linejoin:round;stroke-miterlimit:4;stroke-dasharray:none;stroke-opacity:1"
       id="path1091"
       d="m 69.093756,234.48417 c 0.23622,-0.35559 0.449498,-0.7254 0.661202,-1.09587 0.571622,-1.03295 1.140989,-2.0671 1.718143,-3.09699 0.766853,-1.36159 1.52894,-2.72589 2.314742,-4.07667 0.117059,-0.19817 0.234116,-0.39634 0.351173,-0.59451 2.474405,-4.18793 8.397039,-0.6886 5.922635,3.49934 v 0 c -0.109395,0.1851 -0.21879,0.3702 -0.328184,0.5553 -0.767541,1.31834 -1.510239,2.65085 -2.259357,3.97969 -0.587383,1.04804 -1.165778,2.10099 -1.748935,3.15136 -0.276603,0.48256 -0.556588,0.96342 -0.863656,1.42746 -2.651021,4.07842 -8.418785,0.32931 -5.767763,-3.74911 z"
       inkscape:connector-curvature="0" />
    <path
       style="opacity:1;fill:#020900;fill-opacity:1;stroke:none;stroke-width:1;stroke-linecap:butt;stroke-linejoin:round;stroke-miterlimit:4;stroke-dasharray:none;stroke-opacity:1"
       id="path1093"
       d="m 23.724669,239.34153 c -0.397703,-0.34868 -0.749745,-0.74508 -1.111117,-1.13023 -0.645622,-0.6933 -1.309966,-1.36852 -1.987456,-2.03059 -0.829547,-0.81268 -1.720495,-1.55772 -2.62935,-2.27916 -0.904588,-0.71158 -1.851273,-1.36632 -2.808414,-2.00447 -4.046309,-2.69979 -0.228232,-8.42213 3.818076,-5.72234 v 0 c 1.115806,0.74497 2.218271,1.51094 3.271938,2.34249 1.091755,0.86945 2.16138,1.76779 3.158304,2.74601 0.747074,0.73149 1.481264,1.47589 2.19376,2.24124 0.415047,0.44241 0.05652,0.0599 0.403641,0.43113 0.05946,0.0636 0.250169,0.23997 0.178266,0.19089 -0.01048,-0.007 -0.01966,-0.016 -0.0295,-0.024 3.704579,3.15239 -0.753573,8.39146 -4.458152,5.23907 z"
       inkscape:connector-curvature="0" />
  </g>
</svg>
