<?xml version="1.0" encoding="UTF-8" standalone="no"?>
<!-- Created with Inkscape (http://www.inkscape.org/) -->

<svg
   xmlns:dc="http://purl.org/dc/elements/1.1/"
   xmlns:cc="http://creativecommons.org/ns#"
   xmlns:rdf="http://www.w3.org/1999/02/22-rdf-syntax-ns#"
   xmlns:svg="http://www.w3.org/2000/svg"
   xmlns="http://www.w3.org/2000/svg"
   xmlns:sodipodi="http://sodipodi.sourceforge.net/DTD/sodipodi-0.dtd"
   xmlns:inkscape="http://www.inkscape.org/namespaces/inkscape"
   width="10cm"
   height="10cm"
   viewBox="0 0 100 99.999997"
   version="1.1"
   id="svg8"
   sodipodi:docname="kala.svg"
   inkscape:version="0.92.3 (2405546, 2018-03-11)">
  <defs
     id="defs2" />
  <sodipodi:namedview
     id="base"
     pagecolor="#ffffff"
     bordercolor="#666666"
     borderopacity="1.0"
     inkscape:pageopacity="0.0"
     inkscape:pageshadow="2"
     inkscape:zoom="1"
     inkscape:cx="125.50186"
     inkscape:cy="200.50542"
     inkscape:document-units="cm"
     inkscape:current-layer="layer1"
     showgrid="true"
     units="cm"
     inkscape:window-width="1920"
     inkscape:window-height="1017"
     inkscape:window-x="-8"
     inkscape:window-y="-8"
     inkscape:window-maximized="1"
     inkscape:snap-nodes="false">
    <inkscape:grid
       type="xygrid"
       id="grid815"
       units="cm"
       spacingx="9.9999998"
       spacingy="9.9999998" />
  </sodipodi:namedview>
  <metadata
     id="metadata5">
    <rdf:RDF>
      <cc:Work
         rdf:about="">
        <dc:format>image/svg+xml</dc:format>
        <dc:type
           rdf:resource="http://purl.org/dc/dcmitype/StillImage" />
        <dc:title></dc:title>
      </cc:Work>
    </rdf:RDF>
  </metadata>
  <g
     inkscape:label="Layer 1"
     inkscape:groupmode="layer"
     id="layer1"
     transform="translate(0,-197.00002)">
    <path
       style="opacity:1;fill:#020900;fill-opacity:1;stroke:none;stroke-width:1;stroke-linecap:butt;stroke-linejoin:round;stroke-miterlimit:4;stroke-dasharray:none;stroke-opacity:1"
       id="path1085"
       d="m 16.958163,231.63218 c 0.03137,0.0466 0.05373,0.0693 0.0908,0.11133 0.09921,0.11222 0.193944,0.22843 0.29864,0.33563 0.07042,0.0687 0.144142,0.13371 0.221395,0.19466 0.21221,0.16801 0.424782,0.33551 0.635399,0.50551 0.222772,0.18426 0.447305,0.36631 0.674593,0.54496 0.247218,0.19292 0.489858,0.39162 0.737465,0.58404 0.262457,0.20196 0.525727,0.40285 0.788447,0.60448 0.287608,0.22217 0.577749,0.44103 0.866738,0.6614 0.366029,0.28048 0.723813,0.57148 1.081305,0.8627 0.424397,0.34335 0.838296,0.69923 1.250781,1.0567 0.468868,0.40361 0.933166,0.81242 1.396331,1.22254 0.534284,0.46984 1.066105,0.94238 1.592834,1.42068 0.589651,0.54015 1.173413,1.08669 1.756718,1.63367 0.619446,0.58594 1.245007,1.16533 1.871186,1.74404 0.647043,0.59985 1.30459,1.18811 1.967392,1.77045 0.673515,0.58858 1.35389,1.16925 2.035862,1.748 0.642289,0.55049 1.29855,1.08423 1.957329,1.61476 0.661272,0.52817 1.313937,1.06694 1.971899,1.59919 0.609856,0.49364 1.232007,0.97172 1.861329,1.44018 0.637871,0.47442 1.285588,0.93528 1.939947,1.38662 0.666748,0.45885 1.347908,0.89603 2.032838,1.32707 0.707281,0.44461 1.421774,0.87748 2.14283,1.29933 0.672456,0.39372 1.360475,0.75923 2.058199,1.10584 0.69294,0.34236 1.404193,0.64497 2.122341,0.92987 0.708169,0.28349 1.434915,0.51495 2.167847,0.72449 0.750213,0.21353 1.511904,0.38185 2.276197,0.53585 0.76473,0.15355 1.536309,0.26746 2.310326,0.36171 0.779731,0.093 1.562877,0.15182 2.347093,0.18889 0.715124,0.0359 1.429805,-0.003 2.141863,-0.0678 0.740119,-0.0752 1.472102,-0.21029 2.199335,-0.36423 0.686219,-0.14459 1.354348,-0.35597 2.01027,-0.60168 0.721629,-0.276 1.403698,-0.64018 2.077097,-1.01594 0.82767,-0.46926 1.626014,-0.98732 2.418033,-1.51378 0.808144,-0.53698 1.596239,-1.10292 2.375943,-1.68015 0.703877,-0.52213 1.401264,-1.05285 2.091821,-1.59246 0.563956,-0.4366 1.106194,-0.89943 1.630201,-1.38297 0.51487,-0.47817 0.997704,-0.989 1.477645,-1.50174 0.500066,-0.53699 0.992996,-1.08056 1.486495,-1.62356 0.431933,-0.47777 0.870545,-0.94938 1.311649,-1.41866 0.358646,-0.3824 0.716382,-0.76566 1.075368,-1.14774 0.291392,-0.3099 0.583008,-0.61957 0.874601,-0.92927 0.239202,-0.25458 0.478068,-0.50948 0.718382,-0.76301 0.204034,-0.21597 0.407498,-0.43246 0.611031,-0.64891 0.166388,-0.17695 0.33276,-0.3539 0.499136,-0.53087 0.132696,-0.14113 0.265392,-0.28227 0.398089,-0.4234 0.105764,-0.1125 0.211526,-0.22498 0.317288,-0.33748 0.137661,-0.15165 0.282636,-0.29563 0.430316,-0.43749 0.339874,-0.31204 0.732594,-0.55179 1.155769,-0.73182 0.258787,-0.11344 0.531436,-0.17182 0.806605,-0.22628 0.294293,-0.0497 0.591558,-0.0536 0.887805,-0.0299 0.01758,0.002 0.03507,0.004 0.05268,0.005 0.0084,8.2e-4 0.01684,0.002 0.02527,0.002 0.0066,6.1e-4 0.01316,0.001 0.01972,0.002 0.908213,5.24213 2.582679,6.43789 -0.02354,6.87253 -0.221932,0.0328 -0.446046,0.0437 -0.670038,0.0482 -0.389332,0.015 -0.772875,-0.0458 -1.151563,-0.12975 -0.55525,-0.13278 -1.051107,-0.40636 -1.519711,-0.72333 -0.438152,-0.30889 -0.809478,-0.69474 -1.15649,-1.10022 -0.240183,-0.298 -0.472778,-0.60199 -0.710595,-0.90189 -0.288912,-0.36323 -0.572452,-0.73063 -0.852543,-1.10069 -0.298761,-0.39548 -0.594578,-0.79317 -0.892826,-1.18903 -0.247322,-0.32974 -0.513294,-0.64468 -0.783785,-0.95546 -0.263023,-0.29932 -0.53583,-0.58984 -0.814026,-0.87504 -0.257457,-0.26226 -0.526622,-0.51258 -0.800955,-0.75698 -0.314163,-0.27632 -0.637577,-0.54197 -0.962282,-0.80576 -0.356486,-0.28746 -0.724623,-0.56003 -1.090275,-0.83561 -0.39332,-0.2977 -0.792809,-0.58705 -1.192856,-0.8756 -0.416499,-0.30213 -0.834155,-0.60265 -1.25238,-0.90237 -0.411289,-0.29579 -0.820832,-0.59399 -1.23163,-0.89046 -0.397421,-0.28457 -0.796643,-0.56658 -1.19162,-0.85454 -0.381319,-0.28324 -0.759666,-0.57036 -1.143314,-0.85044 -0.353345,-0.25867 -0.714878,-0.50571 -1.078775,-0.74918 -0.458651,-0.30223 -0.905426,-0.62177 -1.352779,-0.94031 -0.410904,-0.2919 -0.826634,-0.57693 -1.24001,-0.86531 -0.359623,-0.25159 -0.716153,-0.50759 -1.081022,-0.75156 -0.259213,-0.17071 -0.52482,-0.33195 -0.800063,-0.47549 -0.257838,-0.13067 -0.523597,-0.24502 -0.789956,-0.35703 -0.247898,-0.10445 -0.500216,-0.19797 -0.756468,-0.27972 -0.220923,-0.0663 -0.44817,-0.10788 -0.674797,-0.14914 -0.28553,-0.0511 -0.573626,-0.0842 -0.862801,-0.10486 -0.324079,-0.0203 -0.648951,-0.0198 -0.97331,-0.008 -0.377645,0.0162 -0.753473,0.058 -1.127936,0.10796 -0.436006,0.0614 -0.865181,0.16074 -1.293466,0.2612 -0.551406,0.13057 -1.101904,0.26476 -1.648273,0.41511 -0.534552,0.14922 -1.060492,0.32656 -1.582768,0.51371 -0.575854,0.20898 -1.144329,0.43749 -1.709054,0.67468 -0.586303,0.24973 -1.157404,0.53297 -1.728982,0.81422 -0.626074,0.30703 -1.23971,0.63826 -1.851167,0.97317 -0.624191,0.34052 -1.242991,0.69072 -1.859176,1.04548 -0.62759,0.36124 -1.249721,0.73183 -1.872397,1.10144 -0.636175,0.37213 -1.25664,0.76983 -1.874518,1.1713 -0.676337,0.43848 -1.34384,0.89022 -2.006136,1.34956 -0.713409,0.49415 -1.423278,0.9933 -2.124821,1.50417 -0.720751,0.52785 -1.430411,1.0705 -2.133643,1.62138 -0.720741,0.56862 -1.431247,1.15002 -2.141655,1.73143 -0.713884,0.58463 -1.430364,1.16609 -2.146343,1.74815 -0.747756,0.60626 -1.490723,1.21834 -2.226423,1.83917 -0.784454,0.66696 -1.552828,1.3525 -2.322118,2.0368 -0.76727,0.68558 -1.531816,1.37417 -2.302587,2.05582 -0.705448,0.62089 -1.412589,1.23985 -2.120804,1.85758 -0.637654,0.55319 -1.281073,1.09968 -1.926354,1.64393 -0.554433,0.46615 -1.109943,0.93101 -1.666598,1.3945 -0.46397,0.38642 -0.927837,0.77297 -1.391713,1.15949 -0.373064,0.31182 -0.747481,0.622 -1.121555,0.93259 -0.309948,0.26143 -0.625974,0.51544 -0.941015,0.77066 -0.237912,0.19258 -0.473045,0.38856 -0.708523,0.58409 -0.224943,0.18987 -0.452153,0.37684 -0.683302,0.5591 -0.172749,0.1352 -0.346529,0.26908 -0.518506,0.40527 -0.187996,0.15129 -0.38459,0.29128 -0.57883,0.43431 -0.149033,0.11076 -0.298477,0.22094 -0.44846,0.33041 -0.119568,0.0872 -0.239225,0.17419 -0.358874,0.26125 -0.09436,0.0686 -0.188745,0.13731 -0.283118,0.20598 -0.0752,0.0547 -0.150386,0.1094 -0.225579,0.16411 -0.05993,0.0436 -0.11986,0.0872 -0.179791,0.1308 -0.04777,0.0348 -0.09553,0.0695 -0.143297,0.10425 -0.03807,0.0277 -0.07614,0.0554 -0.114209,0.0831 -0.03034,0.022 -0.06069,0.0442 -0.09103,0.0662 -0.0045,0.003 -0.0089,0.007 -0.01327,0.01 0.07499,-0.0595 0.149979,-0.11897 0.224968,-0.17845 -3.667619,3.19531 -8.1864779,-1.99148 -4.5188599,-5.1868 v 0 c 0.082286,-0.0659 0.1645643,-0.13167 0.246846,-0.19751 0.00449,-0.003 0.00887,-0.007 0.013266,-0.01 0.030338,-0.0221 0.060676,-0.0441 0.091028,-0.0662 0.03807,-0.0277 0.07614,-0.0554 0.114209,-0.0831 0.04777,-0.0348 0.09553,-0.0695 0.143298,-0.10425 0.05992,-0.0436 0.11986,-0.0872 0.179789,-0.1308 0.0752,-0.0547 0.150384,-0.10941 0.225575,-0.16412 0.09432,-0.0686 0.188615,-0.13722 0.282921,-0.20583 0.116972,-0.0851 0.233944,-0.1702 0.350836,-0.2554 0.142857,-0.10425 0.285102,-0.20931 0.427092,-0.31474 0.12956,-0.0953 0.261272,-0.18776 0.387078,-0.28799 0.176179,-0.1393 0.353656,-0.27693 0.530814,-0.41499 0.1847,-0.14518 0.364862,-0.29579 0.544676,-0.44698 0.256974,-0.21339 0.513663,-0.42714 0.773333,-0.63725 0.293473,-0.23768 0.588007,-0.47406 0.876539,-0.71778 0.370972,-0.30801 0.742271,-0.61561 1.112228,-0.92483 0.464568,-0.38711 0.929123,-0.77422 1.393784,-1.16122 0.545477,-0.45416 1.08979,-0.9097 1.633105,-1.36642 0.616199,-0.5197 1.230642,-1.0415 1.83967,-1.56959 0.696443,-0.60745 1.391817,-1.21613 2.085574,-1.82664 0.765816,-0.67716 1.525138,-1.36156 2.287576,-2.04251 0.81419,-0.72422 1.627666,-1.44948 2.458357,-2.15482 0.767755,-0.64755 1.54257,-1.28659 2.322827,-1.91902 0.710152,-0.57731 1.420798,-1.15403 2.128875,-1.7339 0.748561,-0.61263 1.497373,-1.22505 2.257094,-1.82384 0.766899,-0.60042 1.540665,-1.19207 2.326767,-1.76722 0.744331,-0.54155 1.496722,-1.07176 2.253579,-1.59565 0.719225,-0.4985 1.443906,-0.98905 2.178243,-1.46508 0.695679,-0.4518 1.394781,-0.89856 2.110633,-1.31799 0.649011,-0.38524 1.297534,-0.77138 1.951714,-1.14781 0.658735,-0.37916 1.320253,-0.75346 1.98748,-1.11752 0.699476,-0.38286 1.401866,-0.7607 2.117984,-1.11177 0.695235,-0.34201 1.391059,-0.68391 2.105117,-0.98544 0.679099,-0.2845 1.362531,-0.55895 2.055177,-0.80899 0.686023,-0.24458 1.376932,-0.47598 2.079155,-0.67017 0.630138,-0.17216 1.264027,-0.32956 1.899936,-0.47901 0.649805,-0.15161 1.30225,-0.29497 1.964219,-0.38336 0.599987,-0.078 1.202211,-0.14185 1.807237,-0.16314 0.571085,-0.0167 1.142921,-0.0168 1.713102,0.0247 0.532532,0.0422 1.063623,0.10191 1.589267,0.19895 0.52308,0.0975 1.044696,0.20723 1.551561,0.37158 0.440888,0.14454 0.877375,0.30233 1.304503,0.484 0.456113,0.19291 0.909978,0.39242 1.348601,0.62295 0.478391,0.25693 0.947251,0.53134 1.398333,0.83411 0.399478,0.26841 0.792481,0.54609 1.185886,0.82329 0.431358,0.301 0.865282,0.59834 1.293878,0.90329 0.393625,0.28027 0.786152,0.5623 1.189976,0.82786 0.441583,0.29583 0.880105,0.59625 1.309031,0.91027 0.382596,0.27957 0.761015,0.56467 1.140531,0.8484 0.385065,0.28125 0.775351,0.55522 1.162583,0.83347 0.404632,0.29203 0.80807,0.5857 1.21312,0.87715 0.423977,0.30385 0.847386,0.60848 1.269616,0.91476 0.438992,0.31668 0.877162,0.63453 1.308856,0.96114 0.432965,0.32632 0.868227,0.64991 1.289382,0.9915 0.407766,0.33172 0.81372,0.66599 1.207235,1.01461 0.392269,0.35141 0.777872,0.71042 1.145793,1.08745 0.368082,0.3787 0.729778,0.76367 1.077377,1.16136 0.37489,0.43197 0.742396,0.87059 1.085653,1.32837 0.295391,0.39216 0.588536,0.78601 0.884374,1.17783 0.248527,0.3287 0.500433,0.65478 0.756964,0.97728 0.197614,0.2493 0.394077,0.49949 0.588007,0.75168 -0.04508,-0.0254 -0.08809,-0.0544 -0.129529,-0.0853 -0.245243,-0.1552 -0.508895,-0.27661 -0.793462,-0.3408 -0.208254,-0.0429 -0.418905,-0.0805 -0.632536,-0.0747 -0.04914,0.004 -0.154272,0.0125 -0.212177,0.0235 -2.452206,0.45059 2.002194,5.1139 0.381325,6.78327 -0.0066,-6.2e-4 -0.01314,-0.001 -0.01969,-0.002 -0.0081,-7.9e-4 -0.01612,-0.002 -0.02419,-0.002 -0.0021,-2e-4 -0.0218,-0.002 -0.0094,-9.6e-4 0.270177,0.0209 0.541294,0.011 0.809328,-0.0331 0.239108,-0.0479 0.474918,-0.0975 0.69929,-0.19832 0.32674,-0.14052 0.631807,-0.32354 0.891494,-0.56892 0.245445,-0.24339 -0.02962,0.0314 -0.07339,0.0846 -0.105764,0.11248 -0.211527,0.22498 -0.317292,0.33747 -0.132697,0.14113 -0.265399,0.28228 -0.398097,0.42342 -0.166522,0.17711 -0.333041,0.35423 -0.499574,0.53133 -0.209806,0.22311 -0.419543,0.4463 -0.629897,0.66889 -0.235004,0.24789 -0.468474,0.49721 -0.702418,0.74611 -0.289949,0.30796 -0.579921,0.61589 -0.869672,0.92402 -0.359366,0.38249 -0.717446,0.76618 -1.076497,1.14896 -0.414717,0.44115 -0.82714,0.88446 -1.233121,1.33369 -0.516521,0.56834 -1.03252,1.13719 -1.556115,1.69903 -0.597055,0.63732 -1.200125,1.26983 -1.841887,1.86273 -0.661316,0.60683 -1.342194,1.19156 -2.052304,1.74096 -0.737911,0.57629 -1.482736,1.14357 -2.234845,1.70122 -0.873421,0.64602 -1.756319,1.27929 -2.661442,1.88041 -0.943154,0.62614 -1.895052,1.24037 -2.881881,1.79617 -0.981174,0.54393 -1.979308,1.06153 -3.032088,1.45497 -0.974668,0.35788 -1.965517,0.67074 -2.983392,0.88231 -0.99381,0.20761 -1.994237,0.38814 -3.005815,0.48429 -1.024883,0.0891 -2.053456,0.13962 -3.082167,0.0867 -0.953246,-0.0469 -1.905347,-0.11746 -2.853083,-0.23215 -0.949744,-0.11725 -1.896677,-0.25733 -2.835021,-0.44682 -0.944655,-0.19152 -1.885837,-0.40173 -2.812926,-0.66699 -0.950175,-0.27408 -1.892465,-0.576 -2.810954,-0.94421 -0.895063,-0.35688 -1.781787,-0.73514 -2.645316,-1.1636 -0.836077,-0.41697 -1.661584,-0.85461 -2.46771,-1.32732 -0.784585,-0.45954 -1.562583,-0.93016 -2.332252,-1.41434 -0.766724,-0.4828 -1.528959,-0.97288 -2.275243,-1.48692 -0.722461,-0.4988 -1.437984,-1.00755 -2.142305,-1.53173 -0.702513,-0.52364 -1.397562,-1.05729 -2.078502,-1.6088 -0.653969,-0.52913 -1.30283,-1.06454 -1.960052,-1.58965 -0.704663,-0.56755 -1.406384,-1.13883 -2.09364,-1.72746 -0.712096,-0.60436 -1.42251,-1.21076 -2.125646,-1.82553 -0.705856,-0.62041 -1.406252,-1.24697 -2.095459,-1.88587 -0.638399,-0.59001 -1.276141,-1.18074 -1.907726,-1.77805 -0.556641,-0.522 -1.113709,-1.04358 -1.676156,-1.55933 -0.505214,-0.45896 -1.015753,-0.9119 -1.528227,-1.36273 -0.444949,-0.39399 -0.890933,-0.78679 -1.341433,-1.17445 -0.359766,-0.31184 -0.720296,-0.62287 -1.090676,-0.92215 -0.300217,-0.2447 -0.600508,-0.48945 -0.907493,-0.72566 -0.294453,-0.22459 -0.590116,-0.44759 -0.883186,-0.67399 -0.275955,-0.21177 -0.552577,-0.42268 -0.828043,-0.63509 -0.255615,-0.19946 -0.507617,-0.40345 -0.7626,-0.60372 -0.250548,-0.19715 -0.49893,-0.397 -0.744339,-0.60054 -0.22511,-0.18198 -0.453716,-0.35952 -0.679122,-0.54113 -0.292347,-0.24233 -0.57685,-0.49422 -0.839296,-0.76913 -0.173158,-0.18329 -0.341333,-0.37095 -0.505141,-0.56265 -0.17784,-0.20647 -0.351026,-0.41716 -0.507401,-0.6406 -2.8179258,-3.96493 2.789348,-7.95008 5.607275,-3.98515 z"
       inkscape:connector-curvature="0" />
  </g>
</svg>
