<svg viewBox="0 0 100 100"><path style="opacity:1;fill:#020900;fill-opacity:1;stroke:none;stroke-width:1;stroke-linecap:butt;stroke-linejoin:round;stroke-miterlimit:4;stroke-dasharray:none;stroke-opacity:1" d="M20.005 250.806q-.001.328-.005.655l-.006.857c.001.316-.01.632.003.948.01.252.054.501.104.749.084.404.203.8.33 1.192.163.498.373.977.592 1.453.267.583.567 1.149.887 1.704.35.598.735 1.173 1.134 1.739.436.613.905 1.203 1.38 1.785a27 27 0 0 0 1.569 1.763 27 27 0 0 0 1.757 1.617c.639.54 1.315 1.03 1.998 1.51.75.52 1.519 1.01 2.294 1.49.785.487 1.593.937 2.406 1.378.837.453 1.688.882 2.546 1.296.852.412 1.722.785 2.603 1.131a31 31 0 0 0 2.756.901c1 .279 2.014.5 3.03.706 1.1.22 2.205.4 3.313.568 1.155.173 2.313.322 3.473.458 1.117.133 2.238.22 3.361.273 1.072.048 2.145.027 3.217-.03.99-.053 1.972-.197 2.948-.37.94-.17 1.87-.395 2.79-.653a21 21 0 0 0 2.466-.86c.761-.318 1.479-.723 2.178-1.158.745-.469 1.435-1.015 2.116-1.572a63 63 0 0 0 2.16-1.88 46 46 0 0 0 1.875-1.793 16 16 0 0 0 1.423-1.687c.431-.595.802-1.23 1.16-1.87.342-.608.621-1.247.881-1.893.248-.632.469-1.274.68-1.92.17-.506.3-1.024.416-1.545.108-.511.205-1.025.303-1.538.078-.397.153-.794.211-1.195q.065-.488.114-.979c.02-.26.048-.52.062-.78 0-.072-.008-.143-.016-.215a9 9 0 0 0-.05-.327l-.071-.38-.129-.663-.045-.235c.105.513.388 1.134.788 1.543.212.216.465.387.697.58.768.444 1.643.623 2.507.408.013 0 .024-.008.037-.009.031-.002-.061.028-.155.07a17 17 0 0 1-2.866 1.05c-.73.197-1.474.34-2.219.468-.812.137-1.629.244-2.446.341-.888.103-1.779.165-2.67.22-.9.053-1.8.086-2.7.112q-1.297.034-2.594.058-1.282.028-2.564.035-1.293.008-2.586.013l-2.697.01q-1.387.007-2.776 0c-.946-.01-1.892-.032-2.838-.054q-1.434-.036-2.867-.083a871 871 0 0 0-3.023-.094q-1.666-.052-3.333-.1a150 150 0 0 1-3.622-.16c-1.21-.066-2.422-.138-3.633-.205q-1.792-.099-3.585-.178-1.785-.078-3.57-.142-1.7-.06-3.397-.112c-.998-.028-1.996-.042-2.995-.057a366 366 0 0 0-2.523-.022l-2.107-.012-1.726-.01q-.694-.002-1.387-.006-.525-.004-1.05-.004c-4.864.002-4.866-6.878-.002-6.88q.545 0 1.089.005l1.386.007 1.727.009 2.112.012q1.292.006 2.583.023c1.032.015 2.064.03 3.096.059a574 574 0 0 1 7.073.258q1.83.08 3.658.181l3.615.205c1.153.061 2.307.119 3.462.152l3.332.1q1.521.045 3.042.095 1.404.047 2.809.082c.908.021 1.817.043 2.725.052q1.352.009 2.702 0a2191 2191 0 0 0 5.258-.023c.824-.006 1.65-.014 2.474-.033q1.267-.024 2.535-.058c.825-.023 1.65-.053 2.474-.101a44 44 0 0 0 2.285-.185 44 44 0 0 0 2.084-.289c.524-.09 1.049-.186 1.564-.322a10 10 0 0 0 1.067-.345q.408-.16.803-.345c.334-.15.673-.293 1.025-.395 1.039-.283 2.074-.207 3.026.349.248.203.518.381.744.609.483.487.772 1.151.906 1.814l.046.235.057.295.072.373q.053.274.102.55c.046.279.09.558.116.84.036.414.056.831.03 1.247a38 38 0 0 1-.084 1.055q-.063.645-.152 1.287-.111.747-.26 1.487c-.111.583-.221 1.165-.346 1.744a22 22 0 0 1-.595 2.198c-.26.79-.53 1.575-.837 2.347-.37.913-.771 1.815-1.256 2.675-.505.902-1.035 1.791-1.65 2.624a23 23 0 0 1-2.036 2.403 53 53 0 0 1-2.159 2.063 70 70 0 0 1-2.425 2.11c-.915.746-1.848 1.471-2.852 2.096-1.015.624-2.059 1.205-3.162 1.662a29 29 0 0 1-3.253 1.131 38 38 0 0 1-3.439.8c-1.253.22-2.514.399-3.786.465-1.3.067-2.603.092-3.905.031a55 55 0 0 1-3.831-.311 116 116 0 0 1-3.71-.49 79 79 0 0 1-3.644-.627 50 50 0 0 1-3.544-.83c-1.146-.328-2.286-.684-3.397-1.12-1.04-.41-2.068-.85-3.074-1.336-.954-.462-1.9-.939-2.832-1.443a55 55 0 0 1-2.752-1.578 58 58 0 0 1-2.618-1.707c-.861-.604-1.71-1.226-2.513-1.908a33 33 0 0 1-2.25-2.08 35 35 0 0 1-1.938-2.18 41 41 0 0 1-1.682-2.183 31 31 0 0 1-1.47-2.266 28 28 0 0 1-1.177-2.27c-.33-.725-.644-1.458-.889-2.218-.208-.655-.4-1.316-.533-1.99a12 12 0 0 1-.224-1.83 32 32 0 0 1-.006-1.204l.006-.879q.004-.296.005-.593c0-4.865 6.879-4.865 6.879 0zm23.515-15.169c-.084.543-.072-.165-.08-.313-.061-.892-.183-1.779-.31-2.664a126 126 0 0 0-.576-3.434c-.178-1.001-.365-2-.545-3a81 81 0 0 1-.258-1.579c-.75-4.806 6.046-5.867 6.797-1.061q.11.711.232 1.421c.18 1.006.369 2.01.548 3.017.216 1.219.43 2.438.612 3.662.155 1.088.301 2.179.37 3.276.039.783.07 1.574-.116 2.342-1.179 4.72-7.853 3.052-6.674-1.667m25.574-1.153c.236-.355.45-.725.661-1.096.572-1.033 1.14-2.067 1.718-3.097.767-1.361 1.529-2.726 2.315-4.076l.351-.595c2.474-4.188 8.397-.688 5.923 3.5l-.329.555c-.767 1.318-1.51 2.65-2.259 3.98-.587 1.047-1.166 2.1-1.749 3.15a26 26 0 0 1-.863 1.428c-2.652 4.079-8.42.33-5.768-3.749m-45.369 4.858c-.398-.35-.75-.746-1.111-1.13a60 60 0 0 0-1.988-2.031c-.83-.813-1.72-1.558-2.63-2.28a44 44 0 0 0-2.808-2.004c-4.046-2.7-.228-8.422 3.818-5.722 1.116.745 2.219 1.51 3.272 2.342 1.092.87 2.162 1.768 3.159 2.746a68 68 0 0 1 2.193 2.241l.404.432c.06.063.25.24.178.19q-.015-.01-.03-.023c3.705 3.152-.753 8.391-4.457 5.239" transform="translate(0 -197)"/></svg>
