<svg viewBox="0 0 100 100"><path style="opacity:1;fill:#020900;fill-opacity:1;stroke:none;stroke-width:1;stroke-linecap:butt;stroke-linejoin:round;stroke-miterlimit:4;stroke-dasharray:none;stroke-opacity:1" d="M16.958 231.632c.032.047.054.07.091.112.1.112.194.228.299.335q.105.103.221.195.319.251.635.505.334.278.675.545c.247.193.49.392.737.584l.789.605.867.661c.366.28.723.572 1.08.863.425.343.84.7 1.252 1.057q.703.606 1.396 1.222.802.705 1.593 1.42.883.813 1.757 1.634.931.878 1.87 1.745.973.898 1.968 1.77 1.012.882 2.036 1.748a83 83 0 0 0 1.957 1.615c.662.528 1.314 1.067 1.972 1.599q.916.74 1.862 1.44.956.71 1.94 1.387c.666.459 1.347.896 2.032 1.327a79 79 0 0 0 2.143 1.3c.673.393 1.36.758 2.058 1.105.693.342 1.405.645 2.123.93a22 22 0 0 0 2.168.724c.75.214 1.512.382 2.276.536a30 30 0 0 0 2.31.362c.78.093 1.563.152 2.347.189a15 15 0 0 0 2.142-.068 21 21 0 0 0 2.2-.364 14 14 0 0 0 2.01-.602c.721-.276 1.403-.64 2.077-1.016.827-.47 1.626-.987 2.418-1.514a57 57 0 0 0 2.376-1.68q1.056-.783 2.092-1.592.845-.657 1.63-1.383c.515-.478.997-.99 1.477-1.502.5-.537.993-1.08 1.487-1.624q.649-.715 1.312-1.418l1.075-1.148.875-.93q.358-.382.718-.762l.611-.65.5-.53.397-.423.317-.338q.208-.227.43-.437c.34-.312.733-.552 1.157-.732.258-.114.531-.172.806-.226.294-.05.592-.054.888-.03l.053.005.025.002.02.002c.908 5.242 2.582 6.438-.024 6.872a5 5 0 0 1-.67.048 4.5 4.5 0 0 1-1.152-.13c-.555-.132-1.05-.406-1.52-.723-.437-.309-.809-.694-1.156-1.1-.24-.298-.472-.602-.71-.902q-.434-.545-.853-1.1c-.299-.396-.594-.794-.893-1.19a17 17 0 0 0-.783-.955q-.396-.449-.814-.875a17 17 0 0 0-.801-.757 32 32 0 0 0-.963-.806c-.356-.287-.724-.56-1.09-.835a64 64 0 0 0-1.193-.876q-.624-.453-1.252-.902l-1.232-.89c-.397-.285-.797-.567-1.191-.855-.382-.284-.76-.57-1.144-.85a31 31 0 0 0-1.079-.75c-.458-.302-.905-.622-1.352-.94-.411-.292-.827-.577-1.24-.866-.36-.251-.717-.507-1.081-.751a9 9 0 0 0-.8-.476 12 12 0 0 0-1.547-.636 8 8 0 0 0-1.538-.254 10 10 0 0 0-.973-.008c-.377.016-.753.058-1.128.108-.436.061-.865.16-1.293.26-.552.131-1.102.266-1.648.416-.535.15-1.06.326-1.583.514a37 37 0 0 0-1.71.674c-.586.25-1.157.533-1.728.814a46 46 0 0 0-1.851.974q-.936.511-1.86 1.045c-.627.361-1.25.732-1.872 1.102-.636.372-1.257.77-1.875 1.17a78 78 0 0 0-2.006 1.35q-1.071.74-2.124 1.505-1.08.792-2.134 1.621c-.72.569-1.431 1.15-2.142 1.731q-1.072.876-2.146 1.749-1.122.908-2.227 1.839c-.784.667-1.552 1.352-2.322 2.037-.767.685-1.531 1.374-2.302 2.055q-1.059.931-2.121 1.858-.958.829-1.926 1.644-.832.699-1.667 1.394l-1.392 1.16q-.56.468-1.121.932c-.31.262-.626.516-.941.771q-.356.29-.709.584-.337.285-.683.56-.26.2-.519.405c-.188.15-.384.29-.578.434l-.449.33-.359.262-.283.206-.405.294-.144.105-.114.083-.09.066-.014.01.225-.178c-3.668 3.195-8.187-1.992-4.519-5.187l.247-.198.013-.01.091-.066.114-.083.144-.104.18-.131.225-.164.283-.206.35-.255.428-.315c.13-.096.261-.188.387-.288q.265-.209.53-.415.277-.219.545-.447.385-.322.774-.637c.293-.238.588-.475.876-.718l1.113-.925 1.393-1.161q.819-.681 1.633-1.367.926-.778 1.84-1.57 1.045-.91 2.086-1.826c.766-.677 1.525-1.361 2.287-2.042.814-.725 1.628-1.45 2.459-2.155q1.151-.971 2.322-1.92 1.066-.864 2.13-1.733c.748-.613 1.497-1.225 2.256-1.824.767-.6 1.541-1.192 2.327-1.767q1.118-.811 2.254-1.596 1.078-.749 2.178-1.465a54 54 0 0 1 2.11-1.318c.65-.385 1.298-.771 1.952-1.148q.988-.57 1.988-1.117c.7-.383 1.402-.761 2.118-1.112a40 40 0 0 1 2.105-.986 44 44 0 0 1 2.055-.808 30 30 0 0 1 2.08-.67 55 55 0 0 1 1.9-.48 21 21 0 0 1 1.963-.383c.6-.078 1.203-.142 1.808-.163a17 17 0 0 1 1.713.025 16 16 0 0 1 1.589.198c.523.098 1.045.208 1.552.372.44.145.877.302 1.304.484.456.193.91.392 1.349.623.478.257.947.531 1.398.834q.598.405 1.186.823c.431.301.865.599 1.294.904.393.28.786.562 1.19.828q.663.44 1.309.91.572.421 1.14.848c.385.281.776.555 1.163.834l1.213.877q.636.455 1.27.915.66.472 1.309.96c.432.327.868.65 1.289.992.408.332.814.666 1.207 1.015.392.351.778.71 1.146 1.087.368.379.73.764 1.077 1.162.375.432.743.87 1.086 1.328l.884 1.178q.372.494.757.977.297.375.588.752a1 1 0 0 1-.13-.085 2.5 2.5 0 0 0-.793-.341 2.8 2.8 0 0 0-.632-.075c-.05.004-.154.013-.212.024-2.453.45 2.002 5.113.38 6.783l-.019-.002-.024-.002-.01-.001q.407.03.81-.033c.24-.048.475-.098.7-.199a3 3 0 0 0 .89-.569c.246-.243-.029.032-.073.085l-.317.338-.398.423-.5.531-.63.67-.702.745-.87.924-1.076 1.15q-.623.66-1.233 1.333-.773.854-1.556 1.699c-.597.637-1.2 1.27-1.842 1.863a32 32 0 0 1-2.053 1.74q-1.106.865-2.234 1.702a64 64 0 0 1-2.662 1.88 47 47 0 0 1-2.882 1.797c-.98.543-1.979 1.061-3.032 1.454-.974.358-1.965.671-2.983.883-.994.207-1.994.388-3.006.484-1.025.09-2.053.14-3.082.087a40 40 0 0 1-2.853-.232 38 38 0 0 1-2.835-.447 37 37 0 0 1-2.813-.667 30 30 0 0 1-2.811-.944 36 36 0 0 1-2.645-1.164 41 41 0 0 1-2.468-1.327q-1.178-.689-2.332-1.415a66 66 0 0 1-2.276-1.487 74 74 0 0 1-2.142-1.531 65 65 0 0 1-2.078-1.61c-.654-.528-1.303-1.064-1.96-1.589a90 90 0 0 1-2.094-1.727q-1.07-.906-2.126-1.826-1.06-.929-2.095-1.886-.96-.883-1.908-1.778a205 205 0 0 0-1.676-1.559q-.759-.687-1.528-1.363-.667-.592-1.342-1.174c-.36-.312-.72-.623-1.09-.922-.3-.245-.601-.49-.908-.726q-.442-.336-.883-.674l-.828-.635-.763-.604q-.376-.296-.744-.6l-.68-.541a10 10 0 0 1-.839-.77 15 15 0 0 1-.505-.562 8 8 0 0 1-.507-.64c-2.818-3.966 2.79-7.95 5.607-3.986" transform="translate(0 -197)"/></svg>
