<svg viewBox="0 0 100 100"><path style="opacity:1;fill:#020900;fill-opacity:1;stroke:none;stroke-width:1;stroke-linecap:butt;stroke-linejoin:round;stroke-miterlimit:4;stroke-dasharray:none;stroke-opacity:1" d="M18.243 266.802c.596.226 1.11.599 1.59 1.009.39.338.742.718 1.087 1.102q.478.538.949 1.084.459.538.906 1.087.346.427.698.85l.608.74q.227.275.46.544.143.167.298.323.123.118.252.23.098.087.202.166l.026.018.003.001c-.207-.156-.442-.248-.681-.343-.851-.276-1.706-.149-2.478.276-.098-.02-.578.55-.404.28q.301-.489.591-.983c.252-.426.48-.865.706-1.305.285-.56.549-1.129.807-1.7q.477-1.08.949-2.163.557-1.261 1.094-2.53c.41-.982.793-1.974 1.183-2.963.452-1.15.933-2.289 1.428-3.421.529-1.192 1.074-2.377 1.618-3.563a384 384 0 0 0 1.695-3.717 156 156 0 0 0 3.338-8.074c.527-1.374 1.04-2.754 1.547-4.135q.742-2.017 1.433-4.053c.446-1.326.868-2.66 1.282-3.997.399-1.297.776-2.6 1.15-3.904.336-1.183.672-2.367 1.018-3.548.295-1.006.603-2.008.91-3.011l.747-2.436c.203-.657.402-1.316.608-1.973.18-.564.38-1.122.58-1.68q.23-.647.473-1.29.21-.542.439-1.077a9 9 0 0 1 .55-1.101c.174-.304.375-.59.587-.87.448-.645 1.084-1.05 1.775-1.395 1.467-.504 2.702-.214 3.89.723.49.425.854.96 1.18 1.515.274.48.51.982.734 1.487.3.69.561 1.395.826 2.099.306.827.627 1.648.948 2.47q.582 1.482 1.157 2.966.665 1.703 1.31 3.413.673 1.795 1.341 3.593a178 178 0 0 1 1.368 3.851c.46 1.34.922 2.68 1.377 4.021q.696 2.053 1.384 4.108.681 2.025 1.355 4.051.638 1.94 1.265 3.884c.394 1.22.78 2.443 1.166 3.666a812 812 0 0 1 1.116 3.528q.51 1.645 1.051 3.281c.334 1.008.674 2.012 1.01 3.018q.47 1.397.92 2.8c.268.842.52 1.69.766 2.538.208.716.407 1.435.605 2.154q.24.867.487 1.732l.402 1.407.321 1.123q.13.451.258.904l.205.72.162.573.13.457.103.365c.176.618.238 1.29.075 1.921-.084.33-.245.635-.367.953-.66 1.082-1.654 1.66-2.87 1.86-.373.05-.748.07-1.123.086q-.662.027-1.325.039c-.603.013-1.205.02-1.808.03q-1.058.014-2.112.07c-.793.049-1.583.144-2.372.233q-1.373.159-2.75.285c-.845.073-1.692.125-2.538.178q-1.02.066-2.039.124c-.555.032-1.11.054-1.666.078l-1.288.052-1.025.042c-.025-.005-.411.03-.02-.003-4.807.741-5.855-6.058-1.047-6.799.261-.032.522-.07.786-.071l1.025-.042 1.284-.053c.52-.021 1.04-.042 1.56-.072q1-.058 1.997-.121c.786-.05 1.572-.098 2.356-.165.865-.077 1.728-.17 2.59-.268.925-.105 1.85-.214 2.78-.267q1.188-.064 2.378-.08c.586-.01 1.171-.016 1.757-.029.39-.009.782-.017 1.172-.033.114-.005.37-.02.427-.02-.936.188-1.65.803-2.145 1.609-.345.923-.546 1.427-.295 2.393l-.015-.053-.103-.365-.13-.457-.163-.573-.203-.718-.255-.892-.32-1.123-.404-1.412q-.256-.895-.505-1.794c-.19-.688-.38-1.376-.58-2.06a92 92 0 0 0-.71-2.362 201 201 0 0 0-.891-2.711c-.34-1.015-.683-2.029-1.02-3.045q-.556-1.685-1.082-3.379a809 809 0 0 0-1.11-3.511c-.383-1.21-.765-2.42-1.155-3.627q-.618-1.92-1.248-3.834-.67-2.016-1.347-4.028-.685-2.043-1.376-4.084-.678-1.994-1.365-3.984a171 171 0 0 0-1.314-3.703 1230 1230 0 0 0-1.331-3.564q-.634-1.68-1.286-3.353-.57-1.473-1.149-2.944c-.332-.848-.663-1.697-.98-2.552-.217-.58-.432-1.16-.674-1.73a11 11 0 0 0-.404-.838c-.095-.176.246.284.286.254.939.7 2.07.86 3.175.444.42-.22.863-.446 1.146-.845l-.026.032c-.035.046-.073.089-.1.14a2 2 0 0 0-.17.335 30 30 0 0 0-.343.84q-.221.585-.43 1.172c-.17.474-.341.948-.495 1.427-.202.641-.394 1.285-.593 1.926q-.374 1.214-.745 2.428c-.298.977-.599 1.953-.886 2.932-.342 1.168-.674 2.339-1.007 3.51a182 182 0 0 1-2.531 8.219 178 178 0 0 1-1.49 4.213c-.52 1.416-1.046 2.83-1.587 4.24a185 185 0 0 1-1.717 4.316 160 160 0 0 1-1.763 4.098 389 389 0 0 1-1.717 3.766c-.526 1.149-1.055 2.297-1.568 3.452a91 91 0 0 0-1.332 3.19c-.41 1.04-.813 2.082-1.245 3.114q-.557 1.314-1.132 2.618-.487 1.116-.979 2.23a47 47 0 0 1-.954 2.005c-.287.561-.58 1.12-.902 1.663-.262.444-.525.889-.805 1.323-.426.627-.902 1.22-1.543 1.643-1.05.621-2.191.887-3.388.517-.511-.191-1.005-.416-1.43-.766q-.292-.223-.567-.466a12 12 0 0 1-1.22-1.23q-.277-.321-.547-.648l-.601-.731q-.367-.442-.729-.887a51 51 0 0 0-1.646-1.928c-.153-.17-.303-.343-.472-.498-.048-.046.465.235.464.22-4.545-1.733-2.094-8.16 2.451-6.427" transform="translate(0 -197)"/></svg>
