<?xml version="1.0" encoding="UTF-8" standalone="no"?>
<!-- Created with Inkscape (http://www.inkscape.org/) -->

<svg
   xmlns:dc="http://purl.org/dc/elements/1.1/"
   xmlns:cc="http://creativecommons.org/ns#"
   xmlns:rdf="http://www.w3.org/1999/02/22-rdf-syntax-ns#"
   xmlns:svg="http://www.w3.org/2000/svg"
   xmlns="http://www.w3.org/2000/svg"
   xmlns:sodipodi="http://sodipodi.sourceforge.net/DTD/sodipodi-0.dtd"
   xmlns:inkscape="http://www.inkscape.org/namespaces/inkscape"
   width="10cm"
   height="10cm"
   viewBox="0 0 100 99.999997"
   version="1.1"
   id="svg8"
   sodipodi:docname="kama.svg"
   inkscape:version="0.92.3 (2405546, 2018-03-11)">
  <defs
     id="defs2" />
  <sodipodi:namedview
     id="base"
     pagecolor="#ffffff"
     bordercolor="#666666"
     borderopacity="1.0"
     inkscape:pageopacity="0.0"
     inkscape:pageshadow="2"
     inkscape:zoom="1"
     inkscape:cx="125.50186"
     inkscape:cy="200.50542"
     inkscape:document-units="cm"
     inkscape:current-layer="layer1"
     showgrid="true"
     units="cm"
     inkscape:window-width="1920"
     inkscape:window-height="1017"
     inkscape:window-x="-8"
     inkscape:window-y="-8"
     inkscape:window-maximized="1"
     inkscape:snap-nodes="false">
    <inkscape:grid
       type="xygrid"
       id="grid815"
       units="cm"
       spacingx="9.9999998"
       spacingy="9.9999998" />
  </sodipodi:namedview>
  <metadata
     id="metadata5">
    <rdf:RDF>
      <cc:Work
         rdf:about="">
        <dc:format>image/svg+xml</dc:format>
        <dc:type
           rdf:resource="http://purl.org/dc/dcmitype/StillImage" />
        <dc:title></dc:title>
      </cc:Work>
    </rdf:RDF>
  </metadata>
  <g
     inkscape:label="Layer 1"
     inkscape:groupmode="layer"
     id="layer1"
     transform="translate(0,-197.00002)">
    <path
       style="opacity:1;fill:#020900;fill-opacity:1;stroke:none;stroke-width:1;stroke-linecap:butt;stroke-linejoin:round;stroke-miterlimit:4;stroke-dasharray:none;stroke-opacity:1"
       id="path1095"
       d="m 18.243441,266.80229 c 0.59566,0.22562 1.108811,0.59838 1.588978,1.00839 0.390742,0.33871 0.742204,0.71814 1.087272,1.10223 0.319218,0.35882 0.635458,0.72025 0.948944,1.08408 0.307365,0.35783 0.607486,0.72177 0.905878,1.08709 0.230777,0.2853 0.464652,0.56805 0.69868,0.85068 0.203335,0.24607 0.404884,0.4936 0.608078,0.73978 0.150935,0.18307 0.304847,0.36362 0.45951,0.54354 0.09548,0.11136 0.195356,0.2187 0.298661,0.32279 0.0809,0.0797 0.166439,0.15457 0.251683,0.22959 0.06513,0.0582 0.132807,0.11331 0.202218,0.16627 0.0085,0.006 0.01699,0.0124 0.02549,0.0186 0.0011,5.3e-4 0.0041,0.002 0.0032,10e-4 -0.207265,-0.15585 -0.442364,-0.24799 -0.681311,-0.34339 -0.850806,-0.27566 -1.705449,-0.14888 -2.477314,0.27574 -0.09888,-0.0199 -0.578409,0.55089 -0.404417,0.28041 0.201833,-0.32494 0.39717,-0.65385 0.591399,-0.98337 0.251551,-0.42606 0.480322,-0.86489 0.70563,-1.3052 0.284755,-0.55919 0.54899,-1.12841 0.807081,-1.70028 0.318578,-0.7197 0.632536,-1.44143 0.948824,-2.16214 0.369154,-0.84159 0.736684,-1.68387 1.094123,-2.5305 0.409555,-0.98159 0.792949,-1.97376 1.183292,-2.96306 0.45189,-1.15012 0.932722,-2.28844 1.427567,-3.42064 0.529072,-1.19214 1.074558,-2.37691 1.618131,-3.56248 0.571156,-1.23639 1.136597,-2.47537 1.69455,-3.71777 0.584412,-1.2992 1.140767,-2.61073 1.688711,-3.92564 0.570416,-1.37445 1.113343,-2.76007 1.649225,-4.14827 0.527264,-1.37409 1.039982,-2.75372 1.54782,-4.13508 0.494761,-1.34477 0.972101,-2.69586 1.432793,-4.05265 0.445551,-1.32637 0.867778,-2.66042 1.281488,-3.99701 0.399328,-1.29657 0.776754,-2.59973 1.150388,-3.90388 0.336015,-1.18353 0.67189,-2.36707 1.017619,-3.5478 0.295423,-1.00634 0.603753,-2.00882 0.910587,-3.01172 0.247502,-0.81215 0.497554,-1.62353 0.746877,-2.43512 0.203128,-0.6577 0.401447,-1.31688 0.608142,-1.97347 0.179477,-0.56443 0.379201,-1.12209 0.578913,-1.67959 0.154374,-0.43151 0.3115,-0.86202 0.473864,-1.29059 0.138816,-0.36201 0.287911,-0.71996 0.43866,-1.07713 0.156163,-0.38021 0.345948,-0.74468 0.550379,-1.1008 0.173574,-0.30412 0.375229,-0.59045 0.586623,-0.86912 0.448194,-0.64555 1.083996,-1.05079 1.775177,-1.39591 1.467385,-0.5042 2.702412,-0.21401 3.890346,0.72313 0.490202,0.42543 0.853424,0.95951 1.178978,1.51467 0.274871,0.48065 0.50991,0.98217 0.735216,1.48746 0.299181,0.68987 0.56079,1.39516 0.825834,2.09861 0.306094,0.82701 0.626377,1.64859 0.947854,2.4697 0.387556,0.98814 0.773594,1.97687 1.157102,2.96658 0.442545,1.13521 0.879626,2.27253 1.309254,3.41269 0.44905,1.19705 0.896612,2.39467 1.341937,3.59311 0.474726,1.27702 0.921949,2.56397 1.367174,3.85149 0.461227,1.33968 0.922247,2.67943 1.377603,4.02112 0.463349,1.36845 0.924708,2.73756 1.384181,4.10732 0.453144,1.34996 0.906494,2.69985 1.354346,4.05157 0.426781,1.29298 0.846797,2.58817 1.265164,3.88389 0.394195,1.22014 0.779841,2.44302 1.16664,3.66551 0.374441,1.17534 0.746303,2.3515 1.115383,3.52853 0.34022,1.09699 0.691568,2.19043 1.05152,3.28109 0.333203,1.00718 0.673349,2.01204 1.009918,3.0181 0.312301,0.93126 0.620963,1.8637 0.920027,2.7993 0.268155,0.8422 0.518904,1.68976 0.765241,2.53854 0.208365,0.71598 0.40716,1.43468 0.604946,2.15364 0.159748,0.57816 0.323274,1.15526 0.487725,1.7321 0.133842,0.46893 0.267941,0.93779 0.402011,1.40665 0.107066,0.37442 0.214135,0.74883 0.321204,1.12325 0.08629,0.3011 0.172172,0.60233 0.257747,0.90364 0.06816,0.24011 0.136257,0.48023 0.204366,0.72035 0.05422,0.19115 0.108432,0.3823 0.162648,0.57344 0.04321,0.15235 0.08642,0.30469 0.129627,0.45703 0.03444,0.12142 0.06888,0.24284 0.103317,0.36426 0.175736,0.61841 0.237736,1.29016 0.07521,1.92155 -0.08485,0.32964 -0.245086,0.63512 -0.36763,0.95267 -0.66044,1.082 -1.654181,1.66071 -2.870219,1.85961 -0.37211,0.0513 -0.747519,0.0699 -1.122428,0.0868 -0.441452,0.0184 -0.883182,0.0289 -1.324894,0.0386 -0.602736,0.013 -1.205566,0.0207 -1.808371,0.0296 -0.704556,0.01 -1.408745,0.033 -2.11233,0.071 -0.792925,0.0485 -1.582023,0.14325 -2.371085,0.23279 -0.915744,0.1046 -1.832311,0.20179 -2.750304,0.2844 -0.845148,0.0729 -1.691841,0.12545 -2.538389,0.17882 -0.679508,0.0423 -1.358984,0.0851 -2.038712,0.12379 -0.554942,0.0321 -1.110403,0.0542 -1.665777,0.0773 -0.429384,0.0177 -0.858777,0.0353 -1.288166,0.0529 -0.341665,0.014 -0.683332,0.0279 -1.024996,0.0419 -0.02556,-0.005 -0.411414,0.0289 -0.01974,-0.003 -4.807585,0.74066 -5.855039,-6.05829 -1.047451,-6.79895 v 0 c 0.261514,-0.0328 0.522004,-0.0699 0.786106,-0.0717 0.34163,-0.014 0.683258,-0.0279 1.024888,-0.0419 0.427918,-0.0175 0.855839,-0.035 1.283753,-0.0527 0.52039,-0.0216 1.040873,-0.0421 1.560867,-0.0721 0.665636,-0.0378 1.331015,-0.0799 1.996442,-0.12126 0.785868,-0.0495 1.571898,-0.098 2.356525,-0.16493 0.864351,-0.0773 1.727195,-0.16999 2.589421,-0.26806 0.924992,-0.10493 1.850263,-0.21346 2.780025,-0.26686 0.792112,-0.0419 1.58482,-0.0692 2.378001,-0.08 0.585756,-0.009 1.171535,-0.0161 1.757227,-0.0287 0.390703,-0.009 0.781423,-0.0176 1.171911,-0.0335 0.114261,-0.005 0.370756,-0.0201 0.426956,-0.0204 -0.935998,0.18909 -1.650384,0.80382 -2.145006,1.60968 -0.344554,0.92319 -0.545915,1.42728 -0.2949,2.3927 0.0046,0.0178 -0.01003,-0.0354 -0.01505,-0.0531 -0.03444,-0.12142 -0.06888,-0.24284 -0.103317,-0.36426 -0.04321,-0.15234 -0.08642,-0.30468 -0.129628,-0.45703 -0.05421,-0.19112 -0.108421,-0.38225 -0.162631,-0.57338 -0.0679,-0.2394 -0.1358,-0.4788 -0.203751,-0.71818 -0.08443,-0.2973 -0.169171,-0.5945 -0.254309,-0.89159 -0.10708,-0.37446 -0.214162,-0.74891 -0.321241,-1.12337 -0.134567,-0.47061 -0.269164,-0.94121 -0.4035,-1.41188 -0.170281,-0.59729 -0.339561,-1.19486 -0.504934,-1.79353 -0.189272,-0.68808 -0.379399,-1.37594 -0.57881,-2.06116 -0.229082,-0.78959 -0.462045,-1.57812 -0.711311,-2.36162 -0.289481,-0.90611 -0.588791,-1.80899 -0.891114,-2.71089 -0.339535,-1.01498 -0.682739,-2.02873 -1.018813,-3.04487 -0.37053,-1.12307 -0.732515,-2.24892 -1.082855,-3.37848 -0.367308,-1.17139 -0.737417,-2.34189 -1.110054,-3.5116 -0.382733,-1.20965 -0.764294,-2.41968 -1.154329,-3.62699 -0.412994,-1.2791 -0.827606,-2.55769 -1.248871,-3.83409 -0.445156,-1.34365 -0.895852,-2.68543 -1.346261,-4.02732 -0.456895,-1.36208 -0.915672,-2.72352 -1.376418,-4.0843 -0.451088,-1.32924 -0.907907,-2.65652 -1.364805,-3.98376 -0.428077,-1.23801 -0.857732,-2.47558 -1.314104,-3.70352 -0.441682,-1.18866 -0.8856,-2.37648 -1.330957,-3.56377 -0.421994,-1.12014 -0.851593,-2.23738 -1.286311,-3.35265 -0.38059,-0.98224 -0.763757,-1.96348 -1.148374,-2.94416 -0.332211,-0.84855 -0.663056,-1.69765 -0.979551,-2.55223 -0.218242,-0.57928 -0.432737,-1.16039 -0.674754,-1.73029 -0.125452,-0.28371 -0.254148,-0.56625 -0.404312,-0.83796 -0.09467,-0.17571 0.245845,0.28405 0.286761,0.25419 0.93809,0.70023 2.070052,0.8605 3.17469,0.44373 0.420738,-0.21935 0.863312,-0.44539 1.145844,-0.8446 0.008,-0.0113 -0.0172,0.0216 -0.0258,0.0324 -0.03538,0.0456 -0.07286,0.0882 -0.100549,0.13942 -0.06362,0.10813 -0.12514,0.21718 -0.169453,0.33516 -0.117686,0.27869 -0.234537,0.5578 -0.343688,0.83997 -0.147638,0.38923 -0.289928,0.78045 -0.430281,1.17236 -0.169784,0.47388 -0.340419,0.9476 -0.49393,1.42708 -0.202131,0.64063 -0.394663,1.28426 -0.593365,1.92597 -0.248552,0.80909 -0.497837,1.61796 -0.744572,2.42761 -0.298762,0.97651 -0.599083,1.95259 -0.886846,2.93242 -0.34203,1.16787 -0.67396,2.33862 -1.006449,3.50923 -0.387056,1.35086 -0.778203,2.70063 -1.192016,4.04357 -0.432308,1.39618 -0.873453,2.78974 -1.339303,4.17514 -0.479345,1.41067 -0.975177,2.81569 -1.489816,4.21391 -0.520644,1.41605 -1.04627,2.83033 -1.586936,4.23888 -0.557829,1.44474 -1.123077,2.88674 -1.716982,4.3171 -0.572106,1.3725 -1.153035,2.74145 -1.763138,4.09759 -0.565306,1.25862 -1.137981,2.5139 -1.71664,3.76645 -0.526677,1.14871 -1.055201,2.29665 -1.568413,3.45146 -0.461791,1.05558 -0.910019,2.11708 -1.331471,3.1895 -0.410387,1.04006 -0.813649,2.08308 -1.245195,3.11463 -0.370089,0.87597 -0.749824,1.74776 -1.132012,2.6185 -0.326165,0.74322 -0.649719,1.48758 -0.978816,2.2295 -0.304892,0.67449 -0.617299,1.34571 -0.953891,2.00509 -0.287761,0.56113 -0.581147,1.11967 -0.902325,1.6626 -0.262276,0.44467 -0.524814,0.88948 -0.805262,1.32302 -0.426085,0.62744 -0.901803,1.22092 -1.542983,1.64363 -1.049509,0.62114 -2.191169,0.8864 -3.387822,0.51713 -0.511359,-0.19133 -1.004984,-0.41619 -1.429899,-0.766 -0.193915,-0.14957 -0.384173,-0.30379 -0.56736,-0.46642 -0.206835,-0.18245 -0.411441,-0.36764 -0.605196,-0.56408 -0.21139,-0.21543 -0.417469,-0.43597 -0.613807,-0.66529 -0.184514,-0.2147 -0.367958,-0.43031 -0.548091,-0.64871 -0.200839,-0.24336 -0.40017,-0.48795 -0.601046,-0.73128 -0.243939,-0.2946 -0.487677,-0.58936 -0.728296,-0.88669 -0.26021,-0.31868 -0.521772,-0.63629 -0.789679,-0.94856 -0.282993,-0.32857 -0.568587,-0.65487 -0.856593,-0.97906 -0.152712,-0.17037 -0.302996,-0.34362 -0.472362,-0.49798 -0.04757,-0.0465 0.465146,0.23462 0.464381,0.22009 -4.544999,-1.73334 -2.093696,-8.16094 2.451304,-6.4276 z"
       inkscape:connector-curvature="0" />
  </g>
</svg>
