<?xml version="1.0" encoding="UTF-8" standalone="no"?>
<!-- Created with Inkscape (http://www.inkscape.org/) -->

<svg
   xmlns:dc="http://purl.org/dc/elements/1.1/"
   xmlns:cc="http://creativecommons.org/ns#"
   xmlns:rdf="http://www.w3.org/1999/02/22-rdf-syntax-ns#"
   xmlns:svg="http://www.w3.org/2000/svg"
   xmlns="http://www.w3.org/2000/svg"
   xmlns:sodipodi="http://sodipodi.sourceforge.net/DTD/sodipodi-0.dtd"
   xmlns:inkscape="http://www.inkscape.org/namespaces/inkscape"
   width="10cm"
   height="10cm"
   viewBox="0 0 100 99.999997"
   version="1.1"
   id="svg8"
   sodipodi:docname="kasi.svg"
   inkscape:version="0.92.3 (2405546, 2018-03-11)">
  <defs
     id="defs2" />
  <sodipodi:namedview
     id="base"
     pagecolor="#ffffff"
     bordercolor="#666666"
     borderopacity="1.0"
     inkscape:pageopacity="0.0"
     inkscape:pageshadow="2"
     inkscape:zoom="1"
     inkscape:cx="125.50186"
     inkscape:cy="200.50542"
     inkscape:document-units="cm"
     inkscape:current-layer="layer1"
     showgrid="true"
     units="cm"
     inkscape:window-width="1920"
     inkscape:window-height="1017"
     inkscape:window-x="-8"
     inkscape:window-y="-8"
     inkscape:window-maximized="1"
     inkscape:snap-nodes="false">
    <inkscape:grid
       type="xygrid"
       id="grid815"
       units="cm"
       spacingx="9.9999998"
       spacingy="9.9999998" />
  </sodipodi:namedview>
  <metadata
     id="metadata5">
    <rdf:RDF>
      <cc:Work
         rdf:about="">
        <dc:format>image/svg+xml</dc:format>
        <dc:type
           rdf:resource="http://purl.org/dc/dcmitype/StillImage" />
        <dc:title></dc:title>
      </cc:Work>
    </rdf:RDF>
  </metadata>
  <g
     inkscape:label="Layer 1"
     inkscape:groupmode="layer"
     id="layer1"
     transform="translate(0,-197.00002)">
    <path
       style="opacity:1;fill:#020900;fill-opacity:1;stroke:none;stroke-width:1;stroke-linecap:butt;stroke-linejoin:round;stroke-miterlimit:4;stroke-dasharray:none;stroke-opacity:1"
       id="path1097"
       d="m 44.548866,284.85019 c 0.04069,-0.19864 0.08671,-0.39615 0.135337,-0.59298 0.04343,-0.17221 0.09249,-0.34291 0.136017,-0.5151 0.02793,-0.11119 0.04902,-0.22385 0.06795,-0.33686 0.03547,-0.20859 0.06884,-0.41749 0.09828,-0.62702 0.03147,-0.23063 0.05476,-0.4623 0.07264,-0.69435 0.01471,-0.24511 0.0063,-0.4908 -0.0039,-0.73591 -0.01826,-0.38615 -0.05605,-0.77105 -0.09074,-1.15597 -0.03979,-0.43711 -0.07777,-0.87437 -0.114009,-1.31178 -0.03557,-0.4216 -0.0675,-0.84346 -0.09123,-1.2659 -0.02154,-0.41567 -0.0304,-0.83187 -0.03518,-1.24803 -0.0034,-0.37153 -0.0013,-0.74308 -2.62e-4,-1.11461 0.0028,-0.3365 0.003,-0.67289 -0.0073,-1.00926 -0.01363,-0.37877 -0.03102,-0.75739 -0.05031,-1.13592 -0.02222,-0.41869 -0.0423,-0.83749 -0.06108,-1.25635 -0.01902,-0.42754 -0.03501,-0.8552 -0.05022,-1.28289 -0.01492,-0.42426 -0.02965,-0.84852 -0.03785,-1.27296 -0.0066,-0.46055 7.94e-4,-0.92111 0.0065,-1.38162 0.0064,-0.49783 0.01834,-0.99555 0.02952,-1.49328 0.01214,-0.51862 0.02058,-1.03732 0.03211,-1.55596 0.01302,-0.57904 0.03068,-1.15796 0.04621,-1.73693 0.01638,-0.6126 0.03005,-1.22527 0.04266,-1.83796 0.01344,-0.66313 0.02405,-1.3263 0.03424,-1.98948 0.01048,-0.68636 0.01926,-1.37275 0.02738,-2.05915 0.0079,-0.75183 0.01992,-1.50361 0.03048,-2.25541 0.01079,-0.77851 0.02035,-1.55703 0.02957,-2.33556 0.0087,-0.73508 0.01648,-1.47018 0.02371,-2.20527 0.0075,-0.76698 0.01333,-1.53398 0.01886,-2.30097 0.0057,-0.80767 0.01053,-1.61535 0.01508,-2.42304 0.0043,-0.78249 0.0083,-1.56498 0.01201,-2.34748 0.0021,-0.75847 0.0073,-1.51691 0.01897,-2.2753 0.01598,-0.76398 0.03314,-1.52795 0.05445,-2.29181 0.02027,-0.7898 0.06248,-1.5787 0.116544,-2.36684 0.05336,-0.75056 0.123642,-1.49975 0.193855,-2.24887 0.06877,-0.73264 0.143383,-1.46471 0.222496,-2.1963 0.08059,-0.76322 0.184205,-1.52353 0.304302,-2.28144 0.127474,-0.81353 0.302488,-1.61792 0.505781,-2.41552 0.217344,-0.83429 0.504269,-1.64759 0.810532,-2.45267 0.297942,-0.78433 0.653616,-1.54397 1.037794,-2.2892 0.376018,-0.72241 0.807289,-1.41318 1.262306,-2.08787 0.427291,-0.62795 0.901766,-1.22141 1.38789,-1.80428 0.462439,-0.55413 0.963456,-1.07355 1.477388,-1.57961 0.486109,-0.47778 0.994704,-0.93127 1.51714,-1.36871 0.539795,-0.44893 1.106313,-0.86385 1.679609,-1.26855 0.573921,-0.40134 1.163646,-0.77914 1.75945,-1.14693 0.601044,-0.3708 1.220661,-0.70955 1.852491,-1.02455 0.709123,-0.35681 1.463537,-0.60095 2.229456,-0.80054 0.770895,-0.20105 1.561719,-0.28176 2.355723,-0.30534 0.801478,-0.0143 1.593143,0.10853 2.373572,0.2783 0.690895,0.15718 1.358389,0.39459 2.011769,0.66553 0.69082,0.2852 1.324878,0.67641 1.925828,1.11669 0.600282,0.44958 1.104004,1.00394 1.567223,1.5895 0.407088,0.5225 0.740479,1.09455 1.043625,1.68179 0.305927,0.60271 0.535384,1.23869 0.74228,1.88081 0.185301,0.59076 0.329581,1.19307 0.459796,1.798 0.133033,0.62194 0.210516,1.2532 0.266065,1.88616 0.05293,0.64053 0.04809,1.2834 0.0267,1.92511 -0.02259,0.68139 -0.109963,1.35735 -0.223662,2.02878 -0.118314,0.69354 -0.308333,1.37046 -0.532625,2.0363 -0.243599,0.70581 -0.580141,1.37285 -0.93775,2.02639 -0.370176,0.67964 -0.816848,1.3113 -1.291608,1.92081 -0.502666,0.64293 -1.089099,1.20936 -1.7081,1.73818 -0.710599,0.6074 -1.526976,1.04964 -2.385772,1.40602 -0.912981,0.362 -1.880679,0.47952 -2.854758,0.49907 -0.825998,0.001 -1.642896,-0.1242 -2.451323,-0.28146 -0.745537,-0.14894 -1.476639,-0.35809 -2.201034,-0.58679 -0.716021,-0.2285 -1.417323,-0.49895 -2.110973,-0.7875 -0.649462,-0.27867 -1.287364,-0.58327 -1.924314,-0.88917 -0.590066,-0.2845 -1.177174,-0.57507 -1.760895,-0.87235 -0.648425,-0.32814 -1.2813,-0.68538 -1.906262,-1.05589 -0.636312,-0.38361 -1.261073,-0.78601 -1.886942,-1.18633 -0.676963,-0.4314 -1.337609,-0.88748 -1.99779,-1.34392 -0.710776,-0.48934 -1.40698,-0.99923 -2.105535,-1.50571 -0.667383,-0.48472 -1.340879,-0.96095 -2.023139,-1.42449 -0.643626,-0.43315 -1.300591,-0.84588 -1.964553,-1.24699 -0.610706,-0.3676 -1.237149,-0.70783 -1.872591,-1.03043 -0.606869,-0.30775 -1.233048,-0.57411 -1.863222,-0.82973 -0.647086,-0.26235 -1.308021,-0.48745 -1.971641,-0.70364 -0.70454,-0.22642 -1.4142,-0.43627 -2.127154,-0.63445 -0.718331,-0.19752 -1.44452,-0.36445 -2.173997,-0.51497 -0.604343,-0.12597 -1.217493,-0.18945 -1.833779,-0.20791 -0.569587,-0.0118 -1.135952,0.053 -1.698797,0.1325 -0.589574,0.0859 -1.171369,0.21406 -1.744975,0.37396 -0.583798,0.17134 -1.153474,0.38642 -1.71906,0.60961 -0.52645,0.20758 -1.039914,0.44557 -1.53794,0.71398 -0.340981,0.18189 -0.647365,0.41599 -0.930297,0.67751 -0.144592,0.12858 -0.235714,0.28907 -0.305758,0.46618 -0.07356,0.18312 -0.117251,0.37466 -0.12886,0.57131 -0.0094,0.14769 0.02163,0.29083 0.06395,0.43112 0.07399,0.23537 0.201901,0.4482 0.329226,0.65774 0.224842,0.36126 0.509351,0.67763 0.806034,0.98039 0.390885,0.38872 0.830483,0.72212 1.278521,1.04124 0.519387,0.36591 1.074413,0.67591 1.635993,0.97122 0.567055,0.2958 1.153067,0.55129 1.757053,0.76093 0.562993,0.19084 1.14926,0.29298 1.735359,0.38145 0.67858,0.0964 1.363266,0.13508 2.047235,0.16886 0.668748,0.0326 1.338194,0.0323 2.00709,0.007 0.611475,-0.0228 1.219906,-0.089 1.825916,-0.17087 0.575759,-0.0796 1.146852,-0.18831 1.715185,-0.30924 0.519237,-0.1126 1.030057,-0.25927 1.536745,-0.41819 0.517525,-0.16565 1.023517,-0.36426 1.527603,-0.56644 0.502383,-0.20275 0.998223,-0.42092 1.490314,-0.64735 0.469505,-0.21738 0.937728,-0.43753 1.405657,-0.65828 0.378597,-0.17839 0.75297,-0.36551 1.126096,-0.55501 0.286779,-0.14447 0.571195,-0.29363 0.848907,-0.45491 0.213715,-0.12454 0.419651,-0.26163 0.621435,-0.40452 0.192807,-0.13885 0.378547,-0.28708 0.564015,-0.43548 0.18823,-0.15209 0.375378,-0.30551 0.562644,-0.45878 0.181793,-0.14941 0.363458,-0.29888 0.548617,-0.4441 0.09842,-0.0685 0.196844,-0.13703 0.295267,-0.20554 4.076879,-2.6534 7.829348,3.11218 3.752469,5.76558 v 0 c 0.0525,-0.0386 0.105005,-0.0773 0.157506,-0.11588 -0.110006,0.0877 -0.268721,0.2187 -0.396856,0.32343 -0.207315,0.16967 -0.414483,0.33953 -0.623065,0.50766 -0.296706,0.2372 -0.595463,0.47207 -0.905568,0.69167 -0.370872,0.25956 -0.74853,0.5096 -1.140886,0.73581 -0.384228,0.2206 -0.774272,0.43069 -1.170485,0.62906 -0.432398,0.21943 -0.866302,0.43597 -1.304999,0.6426 -0.488715,0.23055 -0.977744,0.46046 -1.46816,0.68738 -0.595969,0.27361 -1.196332,0.53758 -1.804749,0.78248 -0.671552,0.26876 -1.346727,0.52978 -2.036863,0.74758 -0.712362,0.22141 -1.430507,0.42533 -2.160442,0.58114 -0.738426,0.15581 -1.480328,0.29607 -2.228374,0.39777 -0.827688,0.10985 -1.658638,0.19765 -2.493563,0.22725 -0.864552,0.0296 -1.729764,0.0322 -2.594022,-0.0114 -0.919848,-0.0462 -1.840156,-0.10496 -2.75194,-0.24051 -1.011343,-0.15786 -2.018597,-0.35579 -2.986602,-0.69663 -0.915797,-0.32845 -1.812206,-0.70699 -2.672826,-1.16268 -0.837259,-0.44404 -1.662047,-0.91405 -2.434263,-1.46558 -0.785375,-0.56687 -1.549402,-1.16627 -2.226055,-1.86234 -0.668237,-0.702 -1.29648,-1.44368 -1.789035,-2.28251 -0.477643,-0.8322 -0.894766,-1.70014 -1.104361,-2.6429 -0.191321,-0.92247 -0.290466,-1.85933 -0.167151,-2.79983 0.136959,-0.96063 0.370779,-1.90267 0.80629,-2.77613 0.488336,-0.93735 1.079662,-1.811 1.880028,-2.514 0.698506,-0.612 1.440012,-1.17334 2.265013,-1.60652 0.732479,-0.38773 1.481599,-0.74287 2.254115,-1.04437 0.795183,-0.31219 1.597173,-0.60993 2.419777,-0.84273 0.862533,-0.23392 1.735056,-0.42971 2.620836,-0.55373 0.958691,-0.13072 1.924008,-0.22441 2.893076,-0.19272 1.000286,0.0404 1.996966,0.13896 2.977861,0.34645 0.88002,0.18304 1.756424,0.38413 2.622939,0.62386 0.80957,0.22569 1.615702,0.4636 2.415622,0.72161 0.817542,0.26702 1.631167,0.54676 2.428246,0.87066 0.810056,0.32975 1.614056,0.67532 2.393965,1.07215 0.783889,0.39989 1.557814,0.81933 2.311324,1.27433 0.768188,0.46489 1.528675,0.94262 2.273062,1.44496 0.739177,0.50296 1.469919,1.01813 2.19311,1.54385 0.656941,0.47633 1.311359,0.9563 1.979721,1.41662 0.592484,0.40967 1.184785,0.81991 1.792274,1.20722 0.561729,0.35931 1.122349,0.72067 1.692537,1.06647 0.497117,0.2958 1.001008,0.58025 1.51725,0.84157 0.535668,0.27315 1.074822,0.53939 1.616316,0.8008 0.528473,0.25393 1.057497,0.5072 1.595046,0.7415 0.506222,0.21223 1.01846,0.41022 1.54111,0.57868 0.47837,0.15271 0.960832,0.29396 1.45314,0.39505 0.347694,0.0703 0.697775,0.13533 1.052935,0.15165 0.123527,0.005 0.248809,0.0139 0.371139,-0.009 0.186503,-0.0519 0.349118,-0.15413 0.499782,-0.27465 0.267246,-0.21798 0.515745,-0.45774 0.732232,-0.72695 0.249394,-0.31331 0.483754,-0.63865 0.676585,-0.99049 0.16933,-0.3049 0.335825,-0.61316 0.457406,-0.94087 0.113549,-0.31685 0.200396,-0.64219 0.260797,-0.97346 0.06467,-0.36379 0.114179,-0.73019 0.127982,-1.09987 0.01355,-0.36735 0.02082,-0.73541 -0.006,-1.10242 -0.02781,-0.34609 -0.06825,-0.69127 -0.138805,-1.03157 -0.0813,-0.3841 -0.171313,-0.76661 -0.285417,-1.14246 -0.09114,-0.28953 -0.186772,-0.57862 -0.319281,-0.8524 -0.097,-0.19815 -0.204419,-0.39123 -0.335137,-0.56947 -0.08343,-0.11156 -0.166404,-0.22569 -0.270774,-0.3189 -0.137682,-0.12076 -0.300363,-0.20545 -0.46667,-0.28034 -0.273822,-0.11913 -0.55518,-0.22019 -0.845,-0.29336 -0.239281,-0.0571 -0.481528,-0.10628 -0.72821,-0.11459 -0.268382,-0.003 -0.534606,0.0281 -0.79566,0.0919 -0.302845,0.0745 -0.603358,0.1594 -0.88302,0.301 -0.443135,0.21685 -0.873509,0.45852 -1.294715,0.71532 -0.476229,0.2933 -0.947589,0.59458 -1.406726,0.91417 -0.420989,0.29623 -0.837835,0.59888 -1.234789,0.92701 -0.381143,0.31668 -0.749737,0.64778 -1.10399,0.99441 -0.354431,0.34725 -0.700963,0.70273 -1.019728,1.08348 -0.338844,0.40461 -0.671497,0.81521 -0.970701,1.25043 -0.306752,0.45033 -0.596206,0.91231 -0.850148,1.39484 -0.267433,0.51266 -0.512226,1.03667 -0.718828,1.57712 -0.215188,0.56215 -0.419741,1.12911 -0.574821,1.71128 -0.152847,0.58935 -0.280035,1.18478 -0.375269,1.78634 -0.103105,0.64447 -0.189928,1.2913 -0.258744,1.94038 -0.07568,0.69893 -0.146844,1.39833 -0.212598,2.09827 -0.06494,0.69277 -0.130315,1.38557 -0.180096,2.07964 -0.0481,0.6947 -0.08512,1.39009 -0.102966,2.08628 -0.02058,0.73525 -0.03691,1.47062 -0.05258,2.20598 -0.01143,0.73391 -0.01593,1.46788 -0.01823,2.20187 -0.0038,0.78441 -0.0077,1.56881 -0.01206,2.35322 -0.0046,0.81132 -0.0094,1.62265 -0.01513,2.43397 -0.0056,0.77297 -0.01151,1.54594 -0.01902,2.3189 -0.0073,0.73976 -0.01511,1.47951 -0.02387,2.21926 -0.0093,0.78356 -0.01889,1.56712 -0.02977,2.35067 -0.0105,0.74674 -0.02249,1.49346 -0.03028,2.24024 -0.0082,0.69442 -0.01712,1.38883 -0.02771,2.08323 -0.01037,0.67521 -0.02117,1.35042 -0.03489,2.02558 -0.01291,0.62698 -0.02691,1.25395 -0.04368,1.88084 -0.01527,0.56861 -0.03258,1.13716 -0.04545,1.70582 -0.01162,0.51904 -0.01987,1.03815 -0.03214,1.55718 -0.01066,0.47411 -0.02207,0.94822 -0.02829,1.42241 -0.0047,0.38964 -0.0114,0.77932 -0.0072,1.16899 0.0069,0.38589 0.0217,0.77157 0.0347,1.15729 0.01445,0.40652 0.02961,0.81302 0.04767,1.2194 0.01815,0.40507 0.03761,0.81008 0.0591,1.21498 0.02172,0.42802 0.04144,0.85615 0.05626,1.28447 0.01161,0.41032 0.01431,0.82066 0.01021,1.23113 -0.0011,0.33911 -0.0029,0.67822 -1.27e-4,1.01732 0.0033,0.31493 0.0097,0.62989 0.02511,0.94449 0.01942,0.35978 0.04869,0.71888 0.07825,1.07795 0.03484,0.42084 0.07144,0.84153 0.10971,1.26207 0.04525,0.50211 0.09263,1.00434 0.113395,1.50821 0.01908,0.51662 0.02745,1.03434 -0.01296,1.5503 -0.03031,0.37082 -0.06666,0.74122 -0.118642,1.10971 -0.03968,0.27874 -0.0833,0.55687 -0.130876,0.83438 -0.05052,0.28865 -0.106929,0.57633 -0.179586,0.86035 -0.04226,0.16562 -0.0872,0.33049 -0.131104,0.49565 -0.02468,0.10147 -0.04884,0.20318 -0.06965,0.30556 -0.981829,4.76419 -7.719407,3.37567 -6.737581,-1.38851 z"
       inkscape:connector-curvature="0" />
  </g>
</svg>
