<svg viewBox="0 0 100 100"><path style="opacity:1;fill:#020900;fill-opacity:1;stroke:none;stroke-width:1;stroke-linecap:butt;stroke-linejoin:round;stroke-miterlimit:4;stroke-dasharray:none;stroke-opacity:1" d="M44.549 284.85q.062-.297.135-.593c.044-.172.093-.343.136-.515q.041-.167.068-.337.054-.312.098-.627.047-.345.073-.694a7 7 0 0 0-.004-.736c-.018-.386-.056-.771-.09-1.156q-.06-.655-.115-1.312a45 45 0 0 1-.09-1.266 31 31 0 0 1-.036-1.248q-.003-.557 0-1.114c.003-.337.003-.673-.008-1.01a76 76 0 0 0-.05-1.136 153 153 0 0 1-.111-2.539q-.024-.636-.038-1.273c-.007-.46 0-.92.007-1.381q.01-.747.029-1.494l.032-1.556q.02-.869.046-1.736a299 299 0 0 0 .077-3.828l.028-2.06.03-2.254a1158 1158 0 0 0 .1-11.613q.002-1.137.018-2.275.023-1.146.055-2.292c.02-.79.062-1.579.116-2.367a156 156 0 0 1 .416-4.445q.123-1.144.305-2.281a26 26 0 0 1 .506-2.416c.217-.834.504-1.647.81-2.453.298-.784.654-1.544 1.038-2.289.376-.722.807-1.413 1.262-2.088a23.3 23.3 0 0 1 2.866-3.384c.486-.477.994-.93 1.517-1.368.54-.45 1.106-.864 1.68-1.269a37 37 0 0 1 1.759-1.147q.902-.554 1.852-1.024c.71-.357 1.464-.601 2.23-.8.77-.202 1.562-.283 2.356-.306.801-.014 1.593.108 2.373.278.691.157 1.358.395 2.012.666.69.285 1.325.676 1.926 1.116.6.45 1.104 1.004 1.567 1.59.407.522.74 1.094 1.044 1.682.305.602.535 1.238.742 1.88.185.591.33 1.194.46 1.798.133.622.21 1.254.266 1.887.053.64.048 1.283.026 1.925-.022.681-.11 1.357-.223 2.029-.119.693-.309 1.37-.533 2.036-.244.706-.58 1.373-.938 2.026-.37.68-.817 1.312-1.291 1.921-.503.643-1.09 1.21-1.708 1.738-.711.608-1.527 1.05-2.386 1.406-.913.362-1.88.48-2.855.5-.826 0-1.643-.125-2.451-.282a21 21 0 0 1-2.201-.587 26 26 0 0 1-2.111-.787 50 50 0 0 1-1.925-.89 90 90 0 0 1-1.76-.872 33 33 0 0 1-1.907-1.056c-.636-.383-1.26-.786-1.887-1.186a64 64 0 0 1-1.997-1.344c-.711-.49-1.407-1-2.106-1.506a79 79 0 0 0-2.023-1.424q-.967-.648-1.965-1.247a30 30 0 0 0-1.872-1.03 24 24 0 0 0-1.863-.83 30 30 0 0 0-1.972-.704 56 56 0 0 0-2.127-.635 35 35 0 0 0-2.174-.515 10.5 10.5 0 0 0-1.834-.207c-.57-.012-1.136.053-1.699.132-.59.086-1.171.214-1.745.374a20 20 0 0 0-1.719.61q-.79.31-1.538.714a4.5 4.5 0 0 0-.93.677c-.145.129-.236.29-.306.466a1.8 1.8 0 0 0-.129.572c-.01.147.022.29.064.43.074.236.202.449.33.658.224.362.509.678.805.98.391.39.831.723 1.279 1.042.52.366 1.074.676 1.636.971q.85.446 1.757.761c.563.191 1.15.293 1.735.382.679.096 1.364.135 2.048.169q1.003.046 2.007.007a19 19 0 0 0 1.826-.171 24 24 0 0 0 1.715-.31c.52-.112 1.03-.259 1.537-.418a23 23 0 0 0 1.527-.566q.753-.306 1.49-.648.705-.326 1.406-.658.568-.269 1.126-.555.431-.214.85-.455.319-.188.62-.404.288-.211.565-.436.282-.228.562-.459.272-.224.549-.444l.295-.205c4.077-2.654 7.83 3.112 3.753 5.765l.157-.115c-.11.087-.269.218-.397.323q-.31.255-.623.508a15.5 15.5 0 0 1-2.046 1.427q-.577.33-1.17.63-.648.33-1.306.642-.732.346-1.468.687c-.596.274-1.196.538-1.805.783a29 29 0 0 1-2.037.747 25 25 0 0 1-2.16.581c-.738.156-1.48.296-2.228.398-.828.11-1.659.198-2.494.227-.864.03-1.73.033-2.594-.011-.92-.046-1.84-.105-2.752-.24-1.011-.158-2.018-.356-2.986-.697a20.5 20.5 0 0 1-2.673-1.163c-.838-.444-1.662-.914-2.435-1.465-.785-.567-1.549-1.167-2.226-1.863-.668-.702-1.296-1.443-1.789-2.282-.477-.832-.894-1.7-1.104-2.643-.191-.923-.29-1.86-.167-2.8.137-.96.37-1.903.806-2.776.488-.937 1.08-1.811 1.88-2.514.699-.612 1.44-1.173 2.265-1.607a22 22 0 0 1 2.254-1.044c.795-.312 1.597-.61 2.42-.843.863-.234 1.735-.43 2.62-.553.96-.131 1.925-.225 2.894-.193 1 .04 1.997.139 2.978.346.88.183 1.756.384 2.623.624q1.215.337 2.415.722c.818.267 1.632.546 2.429.87a31 31 0 0 1 2.394 1.073c.783.4 1.557.819 2.31 1.274.77.465 1.53.942 2.274 1.445q1.11.755 2.193 1.544c.657.476 1.311.956 1.98 1.416.592.41 1.185.82 1.792 1.208.562.359 1.122.72 1.693 1.066.497.296 1 .58 1.517.842q.804.409 1.616.8c.529.254 1.058.508 1.595.742.506.212 1.019.41 1.541.579.479.152.961.293 1.453.395.348.07.698.135 1.053.151.124.005.25.014.372-.009.186-.052.349-.154.5-.274.267-.218.515-.458.732-.727a7 7 0 0 0 .676-.99c.17-.306.336-.614.458-.942q.17-.476.26-.973a8 8 0 0 0 .128-1.1 10 10 0 0 0-.006-1.102 8 8 0 0 0-.138-1.032 14 14 0 0 0-.286-1.143 6 6 0 0 0-.32-.852 3.7 3.7 0 0 0-.334-.57c-.084-.11-.167-.225-.271-.318a1.8 1.8 0 0 0-.467-.28 5.5 5.5 0 0 0-.845-.294 3.7 3.7 0 0 0-.728-.115 3.2 3.2 0 0 0-.796.092 4 4 0 0 0-.883.301c-.443.217-.873.459-1.294.716-.477.293-.948.594-1.407.914-.421.296-.838.599-1.235.927a18 18 0 0 0-2.124 2.078 17 17 0 0 0-.97 1.25c-.307.45-.596.912-.85 1.395a15 15 0 0 0-.72 1.577c-.214.562-.419 1.13-.574 1.711a19 19 0 0 0-.375 1.787q-.155.966-.26 1.94-.113 1.048-.212 2.098a97 97 0 0 0-.18 2.08 48 48 0 0 0-.103 2.086q-.03 1.103-.052 2.206-.016 1.101-.019 2.202l-.027 4.787a939 939 0 0 1-.072 6.89c-.01.746-.023 1.493-.03 2.24a605 605 0 0 1-.063 4.108q-.019.94-.044 1.881c-.015.569-.033 1.137-.045 1.706-.012.519-.02 1.038-.033 1.557q-.017.711-.028 1.422c-.005.39-.011.78-.007 1.17.007.385.022.771.035 1.157a137 137 0 0 0 .106 2.434q.034.642.057 1.285.016.615.01 1.23-.003.51 0 1.018.004.473.025.945c.02.36.049.718.078 1.077q.053.632.11 1.263c.045.502.092 1.004.113 1.508.02.516.028 1.034-.013 1.55a19 19 0 0 1-.25 1.944c-.05.289-.106.576-.179.86q-.064.249-.13.496a8 8 0 0 0-.07.306c-.982 4.764-7.72 3.375-6.738-1.389" transform="translate(0 -197)"/></svg>
