<?xml version="1.0" encoding="UTF-8" standalone="no"?>
<!-- Created with Inkscape (http://www.inkscape.org/) -->

<svg
   xmlns:dc="http://purl.org/dc/elements/1.1/"
   xmlns:cc="http://creativecommons.org/ns#"
   xmlns:rdf="http://www.w3.org/1999/02/22-rdf-syntax-ns#"
   xmlns:svg="http://www.w3.org/2000/svg"
   xmlns="http://www.w3.org/2000/svg"
   xmlns:sodipodi="http://sodipodi.sourceforge.net/DTD/sodipodi-0.dtd"
   xmlns:inkscape="http://www.inkscape.org/namespaces/inkscape"
   width="10cm"
   height="10cm"
   viewBox="0 0 100 99.999997"
   version="1.1"
   id="svg8"
   sodipodi:docname="ken.svg"
   inkscape:version="0.92.3 (2405546, 2018-03-11)">
  <defs
     id="defs2" />
  <sodipodi:namedview
     id="base"
     pagecolor="#ffffff"
     bordercolor="#666666"
     borderopacity="1.0"
     inkscape:pageopacity="0.0"
     inkscape:pageshadow="2"
     inkscape:zoom="1"
     inkscape:cx="125.50186"
     inkscape:cy="200.50542"
     inkscape:document-units="cm"
     inkscape:current-layer="layer1"
     showgrid="true"
     units="cm"
     inkscape:window-width="1920"
     inkscape:window-height="1017"
     inkscape:window-x="-8"
     inkscape:window-y="-8"
     inkscape:window-maximized="1"
     inkscape:snap-nodes="false">
    <inkscape:grid
       type="xygrid"
       id="grid815"
       units="cm"
       spacingx="9.9999998"
       spacingy="9.9999998" />
  </sodipodi:namedview>
  <metadata
     id="metadata5">
    <rdf:RDF>
      <cc:Work
         rdf:about="">
        <dc:format>image/svg+xml</dc:format>
        <dc:type
           rdf:resource="http://purl.org/dc/dcmitype/StillImage" />
        <dc:title></dc:title>
      </cc:Work>
    </rdf:RDF>
  </metadata>
  <g
     inkscape:label="Layer 1"
     inkscape:groupmode="layer"
     id="layer1"
     transform="translate(0,-197.00002)">
    <path
       style="opacity:1;fill:#020900;fill-opacity:1;stroke:none;stroke-width:1;stroke-linecap:butt;stroke-linejoin:round;stroke-miterlimit:4;stroke-dasharray:none;stroke-opacity:1"
       id="path1099"
       d="m 25.506175,217.61563 c 0.056,-0.15625 0.111973,-0.31247 0.170938,-0.46763 0.0994,-0.26782 0.223433,-0.52465 0.357086,-0.77674 0.346742,-0.6788 0.86308,-1.10121 1.471469,-1.55028 0.350387,-0.13552 0.682082,-0.33644 1.05116,-0.40656 1.561219,-0.29663 2.77032,0.31828 3.72064,1.48279 0.437314,0.5839 0.677963,1.26794 0.869664,1.96312 0.154442,0.59032 0.266742,1.19037 0.370657,1.79128 0.107538,0.64482 0.195567,1.29267 0.279927,1.94087 0.08509,0.65079 0.153006,1.30359 0.215045,1.95692 0.06112,0.65364 0.111702,1.3082 0.158845,1.96298 0.04459,0.67185 0.0917,1.34352 0.140306,2.0151 0.05299,0.72444 0.099,1.44936 0.142817,2.1744 0.0446,0.7378 0.08148,1.47602 0.115681,2.21436 0.03762,0.80306 0.05484,1.60687 0.06852,2.41064 0.01765,0.8594 0.0034,1.71878 -0.02564,2.57772 -0.0327,0.87215 -0.09122,1.743 -0.14941,2.61372 -0.05719,0.86465 -0.112316,1.72944 -0.165248,2.59436 -0.05114,0.84156 -0.09689,1.68344 -0.140293,2.52543 -0.04215,0.82665 -0.07952,1.65355 -0.110154,2.48071 -0.03163,0.86306 -0.04424,1.72663 -0.05475,2.59015 -0.01183,0.92294 -0.01334,1.84596 -0.01085,2.76896 0.0045,0.92604 0.01471,1.85204 0.02331,2.77805 0.0082,0.92731 0.02265,1.85454 0.04222,2.78168 0.02162,0.94559 0.04875,1.89105 0.07743,2.83646 0.03004,0.92835 0.05976,1.85671 0.08759,2.78513 0.02635,0.88299 0.05,1.76607 0.07244,2.64917 0.02103,0.83319 0.03986,1.66644 0.05775,2.4997 0.0167,0.7841 0.03155,1.56824 0.04599,2.35238 0.01318,0.71383 0.02521,1.42769 0.03663,2.14156 0.01,0.62531 0.024,1.25055 0.04322,1.87564 0.0177,0.53239 0.0349,1.0648 0.05398,1.59714 0.01662,0.45243 0.03348,0.90485 0.05024,1.35728 0.0127,0.36106 0.02699,0.72206 0.04253,1.08301 0.01275,0.29338 0.02572,0.58676 0.03868,0.88013 0.01037,0.23484 0.02074,0.46968 0.03111,0.70452 0.0061,0.24262 0.03954,0.39353 -0.05174,-0.26891 1.040476,4.75173 -5.679474,6.22318 -6.719951,1.47146 v 0 c -0.04565,-0.30024 -0.09994,-0.59525 -0.100777,-0.89903 -0.01037,-0.2349 -0.02074,-0.4698 -0.03112,-0.7047 -0.01307,-0.29586 -0.02614,-0.59172 -0.039,-0.88758 -0.01614,-0.37469 -0.03098,-0.74943 -0.04418,-1.12423 -0.01685,-0.45527 -0.03383,-0.91054 -0.05055,-1.36582 -0.01945,-0.54407 -0.03712,-1.08821 -0.05515,-1.63233 -0.02016,-0.65876 -0.03509,-1.31765 -0.04557,-1.97663 -0.01132,-0.70831 -0.02328,-1.4166 -0.03634,-2.12488 -0.01431,-0.77714 -0.02904,-1.55427 -0.04557,-2.33137 -0.0177,-0.82423 -0.03631,-1.64844 -0.05712,-2.4726 -0.02217,-0.87265 -0.04553,-1.74528 -0.07158,-2.61783 -0.0278,-0.92761 -0.05753,-1.85517 -0.08752,-2.78272 -0.0293,-0.96661 -0.05704,-1.93329 -0.07906,-2.9001 -0.02006,-0.95413 -0.03504,-1.90836 -0.04345,-2.86267 -0.0087,-0.94114 -0.0191,-1.88227 -0.02358,-2.82345 -0.0026,-0.95713 -0.0011,-1.91428 0.01132,-2.87135 0.01127,-0.92065 0.02508,-1.84134 0.05898,-2.76149 0.03202,-0.86016 0.07059,-1.72007 0.114546,-2.5797 0.04456,-0.864 0.09151,-1.72788 0.144016,-2.59144 0.05373,-0.87775 0.109653,-1.75536 0.167711,-2.63284 0.05323,-0.79635 0.107371,-1.59278 0.138126,-2.39039 0.02577,-0.74163 0.03797,-1.48365 0.02259,-2.22569 -0.01243,-0.73656 -0.02779,-1.47318 -0.06215,-2.20909 -0.03267,-0.70608 -0.06789,-1.41205 -0.110516,-2.11761 -0.04215,-0.69781 -0.08638,-1.3955 -0.137396,-2.09272 -0.04867,-0.67258 -0.09597,-1.34526 -0.140525,-2.01813 -0.04332,-0.60281 -0.08976,-1.20542 -0.145857,-1.8072 -0.05433,-0.574 -0.113631,-1.14757 -0.188346,-1.71933 -0.07205,-0.55477 -0.146887,-1.10928 -0.237723,-1.66133 -0.06686,-0.39128 -0.137734,-0.78222 -0.233294,-1.16769 -0.07701,-0.31189 0.172625,0.34793 0.260646,0.36291 0.818708,0.95328 2.007304,1.37439 3.265975,1.12035 0.342109,-0.069 0.647999,-0.25946 0.971997,-0.38919 0.402227,-0.30499 0.826156,-0.59752 1.059333,-1.05994 0.0098,-0.0194 0.09676,-0.20431 0.03884,-0.0774 -0.04712,0.11953 -0.08616,0.24209 -0.131591,0.36226 -1.664337,4.57071 -8.128307,2.21698 -6.463968,-2.35373 z"
       inkscape:connector-curvature="0" />
    <path
       style="opacity:1;fill:#020900;fill-opacity:1;stroke:none;stroke-width:1;stroke-linecap:butt;stroke-linejoin:round;stroke-miterlimit:4;stroke-dasharray:none;stroke-opacity:1"
       id="path1101"
       d="m 61.013257,211.86204 c 0.354587,0.48361 0.580972,1.03854 0.786403,1.59714 0.181811,0.50175 0.336653,1.01256 0.483012,1.52558 0.184915,0.64291 0.325456,1.29698 0.452081,1.95345 0.143708,0.76597 0.247925,1.53845 0.344387,2.31154 0.108963,0.87661 0.189489,1.75623 0.2501,2.63741 0.06773,0.98697 0.07117,1.97625 0.04498,2.96467 -0.03021,1.08874 -0.167529,2.16931 -0.343199,3.24286 -0.183994,1.10627 -0.479163,2.18832 -0.815428,3.25668 -0.327398,1.03179 -0.757682,2.02526 -1.222467,3.00134 -0.452208,0.94763 -0.9965,1.84524 -1.576491,2.71893 -0.579882,0.86909 -1.253223,1.66762 -1.958943,2.43579 -0.695418,0.74642 -1.453954,1.42904 -2.232877,2.08634 -0.772705,0.64412 -1.588963,1.23243 -2.420713,1.79716 -0.849897,0.57594 -1.745739,1.07736 -2.657528,1.54719 -0.895146,0.45189 -1.8167,0.84809 -2.745086,1.22583 -0.950505,0.38631 -1.923672,0.71172 -2.90453,1.01101 -0.975841,0.2958 -1.969973,0.52331 -2.967945,0.72962 -0.891386,0.18257 -1.789774,0.32721 -2.689693,0.46015 -0.773015,0.11153 -1.549019,0.20057 -2.325193,0.28673 -0.661074,0.0764 -1.323908,0.13526 -1.987531,0.1841 -0.572757,0.0464 -1.146596,0.0705 -1.721149,0.0713 -0.371332,-0.003 -0.742516,-0.0147 -1.113671,-0.0258 -0.276442,-0.008 -0.552892,-0.0157 -0.829096,-0.0301 -3.322335,-0.25967 -1.737931,-1.66039 -2.011801,-6.36404 0.57192,-0.39233 1.224293,-0.58224 1.887177,-0.74537 0.566566,-0.13694 1.143477,-0.22206 1.720744,-0.29842 0.71949,-0.0921 1.44263,-0.15013 2.165914,-0.20229 0.889762,-0.0665 1.781691,-0.0823 2.673556,-0.0799 1.01322,0.007 2.025335,0.0541 3.036454,0.11636 1.092081,0.0717 2.182987,0.15894 3.272105,0.26649 1.139753,0.10931 2.270236,0.28991 3.393762,0.50759 1.067255,0.20981 2.116381,0.49673 3.153455,0.8223 1.024438,0.31965 2.004169,0.75595 2.96127,1.23725 0.92239,0.46896 1.793793,1.0271 2.64202,1.61753 0.900364,0.62293 1.713913,1.35335 2.481723,2.13076 0.756735,0.78449 1.410743,1.65763 2.040914,2.54446 0.58143,0.8163 1.098965,1.67428 1.585505,2.54961 0.483965,0.87678 0.893487,1.79083 1.27572,2.71556 0.383776,0.94081 0.692643,1.9091 0.982591,2.88211 0.282435,0.95488 0.519465,1.92194 0.732423,2.89439 0.212068,0.97885 0.362706,1.96911 0.493437,2.96161 0.124751,0.95734 0.205438,1.91941 0.265007,2.88276 0.05534,0.93717 0.05701,1.87608 0.0458,2.81444 -0.01183,0.83925 -0.05043,1.67774 -0.09696,2.51568 -0.04127,0.73056 -0.09631,1.46023 -0.150429,2.18992 -0.04416,0.59317 -0.08843,1.18633 -0.132191,1.77952 -0.03532,0.47972 -0.07053,0.95944 -0.105748,1.43917 -0.02819,0.38339 -0.05627,0.76679 -0.08427,1.1502 -0.02241,0.30715 -0.04482,0.6143 -0.06722,0.92146 -0.01786,0.24491 -0.03573,0.48983 -0.05359,0.73475 -0.01423,0.19521 -0.02847,0.39041 -0.04271,0.58562 -0.01135,0.15559 -0.0227,0.31117 -0.03404,0.46676 -0.009,0.12401 -0.0181,0.24801 -0.02713,0.37202 -0.0071,0.10292 -0.01508,0.20576 -0.02434,0.30852 -0.455348,4.84295 -7.304307,4.19899 -6.848961,-0.64396 v 0 c 0.0043,-0.055 0.0084,-0.10998 0.01236,-0.16499 0.009,-0.12401 0.0181,-0.24801 0.02714,-0.37202 0.01135,-0.15558 0.0227,-0.31117 0.03404,-0.46675 0.01423,-0.19521 0.02848,-0.39042 0.04272,-0.58563 0.01786,-0.24492 0.03573,-0.48984 0.05359,-0.73476 0.02241,-0.30732 0.04483,-0.61463 0.06726,-0.92195 0.02806,-0.38432 0.05621,-0.76864 0.08447,-1.15295 0.03528,-0.48054 0.07055,-0.96109 0.105932,-1.44162 0.04383,-0.59409 0.08816,-1.18813 0.132386,-1.78219 0.051,-0.68761 0.103116,-1.37518 0.14223,-2.0636 0.04125,-0.73855 0.0759,-1.47758 0.08684,-2.21729 0.0097,-0.77008 0.01066,-1.54065 -0.03345,-2.30986 -0.04871,-0.80496 -0.11606,-1.60879 -0.219469,-2.40877 -0.10441,-0.80042 -0.223899,-1.59923 -0.393539,-2.38883 -0.175461,-0.8068 -0.372121,-1.60883 -0.605422,-2.40107 -0.222279,-0.74962 -0.45643,-1.49655 -0.749221,-2.22219 -0.279609,-0.68166 -0.578472,-1.35593 -0.93281,-2.00265 -0.360719,-0.65427 -0.746453,-1.2945 -1.179523,-1.90397 -0.418232,-0.59148 -0.845933,-1.17904 -1.342339,-1.70842 -0.463728,-0.47962 -0.960118,-0.92515 -1.508853,-1.30688 -0.579874,-0.40742 -1.175565,-0.79305 -1.806485,-1.11775 -0.6223,-0.31745 -1.25903,-0.60631 -1.926934,-0.81576 -0.788244,-0.25056 -1.586698,-0.46821 -2.398247,-0.63024 -0.912391,-0.17888 -1.830866,-0.32507 -2.756786,-0.41422 -1.004768,-0.0999 -2.011339,-0.17922 -3.018838,-0.24612 -0.877302,-0.0546 -1.755452,-0.0964 -2.634604,-0.10327 -0.719746,-0.003 -1.439526,0.009 -2.157606,0.0623 -0.58906,0.0421 -1.178104,0.088 -1.764231,0.16156 -0.33265,0.0431 -0.665818,0.0874 -0.993028,0.1628 -0.594337,0.13909 0.350366,-0.12013 0.420139,-0.29348 -0.209677,-2.49765 1.231252,-5.99112 -1.541745,-6.15111 0.219575,0.014 0.43992,0.0134 0.659696,0.0229 0.303424,0.009 0.606861,0.0188 0.910407,0.0228 0.405749,0.002 0.810663,-0.0212 1.21512,-0.053 0.578197,-0.0421 1.155629,-0.0938 1.731555,-0.16053 0.694235,-0.077 1.388375,-0.15605 2.079879,-0.25504 0.771086,-0.11355 1.540997,-0.23634 2.304849,-0.39216 0.791814,-0.1626 1.581018,-0.34039 2.355475,-0.57374 0.782767,-0.2369 1.558991,-0.49612 2.317451,-0.80305 0.74074,-0.30006 1.47611,-0.61474 2.191437,-0.97189 0.66615,-0.34025 1.320337,-0.70429 1.941164,-1.12276 0.635373,-0.42916 1.258673,-0.8767 1.849924,-1.36552 0.559604,-0.469 1.104858,-0.95598 1.606201,-1.48769 0.464283,-0.49986 0.90823,-1.01897 1.29018,-1.58562 0.402582,-0.60074 0.780796,-1.21788 1.094329,-1.87062 0.329957,-0.68677 0.637659,-1.38511 0.870911,-2.11154 0.241168,-0.75509 0.453432,-1.52003 0.586668,-2.30245 0.128381,-0.76476 0.229442,-1.53473 0.253633,-2.31075 0.02254,-0.76901 0.01971,-1.53874 -0.03171,-2.30673 -0.05071,-0.75355 -0.120867,-1.50558 -0.213329,-2.25523 -0.07744,-0.6239 -0.159885,-1.24751 -0.274021,-1.86596 -0.08738,-0.45969 -0.183898,-0.91791 -0.313036,-1.36798 -0.09974,-0.35281 -0.205235,-0.70413 -0.328755,-1.04945 -0.129961,-0.36312 0.0063,-0.017 0.124044,0.10727 -2.871766,-3.92612 2.680605,-7.98741 5.552374,-4.06129 z"
       inkscape:connector-curvature="0" />
  </g>
</svg>
