<svg viewBox="0 0 100 100"><path style="opacity:1;fill:#020900;fill-opacity:1;stroke:none;stroke-width:1;stroke-linecap:butt;stroke-linejoin:round;stroke-miterlimit:4;stroke-dasharray:none;stroke-opacity:1" d="M25.506 217.616q.083-.236.171-.468c.1-.268.224-.525.357-.777.347-.679.863-1.101 1.472-1.55.35-.136.682-.336 1.05-.407 1.562-.296 2.771.319 3.721 1.483.438.584.678 1.268.87 1.963.155.59.267 1.19.37 1.792.108.644.196 1.292.28 1.94.086.651.154 1.304.216 1.957q.088.982.159 1.963.066 1.008.14 2.015a172 172 0 0 1 .258 4.39c.038.802.055 1.606.069 2.41.018.86.003 1.719-.026 2.578-.032.872-.09 1.743-.15 2.613q-.084 1.298-.164 2.595a275 275 0 0 0-.14 2.525q-.065 1.24-.11 2.48c-.032.864-.045 1.727-.056 2.591q-.016 1.385-.01 2.769.008 1.389.023 2.778a227 227 0 0 0 .12 5.618q.046 1.393.087 2.785a599 599 0 0 1 .176 7.501q.02 1.071.037 2.142.015.937.043 1.876l.054 1.597.05 1.357q.02.541.043 1.083l.039.88.03.705c.007.242.04.393-.051-.27 1.04 4.753-5.68 6.224-6.72 1.472-.046-.3-.1-.595-.1-.899l-.032-.704-.039-.888-.044-1.124-.05-1.366q-.03-.816-.056-1.632a135 135 0 0 1-.045-1.977 865 865 0 0 0-.14-6.929 589 589 0 0 0-.158-5.4q-.046-1.45-.08-2.9-.03-1.432-.043-2.863c-.009-.941-.02-1.882-.024-2.824q-.005-1.435.012-2.871a112 112 0 0 1 .173-5.341q.067-1.296.144-2.592.081-1.316.168-2.632c.053-.797.107-1.593.138-2.39.026-.742.038-1.484.023-2.227a74 74 0 0 0-.062-2.209 150 150 0 0 0-.248-4.21 331 331 0 0 1-.14-2.018 86 86 0 0 0-.147-1.807 50 50 0 0 0-.426-3.38 16 16 0 0 0-.233-1.169c-.077-.312.173.348.26.363.82.954 2.008 1.375 3.267 1.12.342-.068.648-.259.972-.389.402-.305.826-.597 1.059-1.06.01-.019.097-.204.039-.077-.047.12-.086.242-.132.362-1.664 4.571-8.128 2.217-6.464-2.353" transform="translate(0 -197)"/><path style="opacity:1;fill:#020900;fill-opacity:1;stroke:none;stroke-width:1;stroke-linecap:butt;stroke-linejoin:round;stroke-miterlimit:4;stroke-dasharray:none;stroke-opacity:1" d="M61.013 211.862c.355.484.581 1.039.787 1.597a23 23 0 0 1 .935 3.48c.143.765.248 1.538.344 2.31.11.877.19 1.757.25 2.638.068.987.071 1.976.045 2.965-.03 1.089-.167 2.17-.343 3.243-.184 1.106-.48 2.188-.815 3.256-.328 1.032-.758 2.026-1.223 3.002-.452.947-.996 1.845-1.576 2.719-.58.869-1.254 1.667-1.96 2.435-.695.747-1.453 1.43-2.232 2.087a31 31 0 0 1-2.42 1.797 26 26 0 0 1-2.658 1.547 37 37 0 0 1-2.746 1.226c-.95.386-1.923.712-2.904 1.011-.976.296-1.97.523-2.968.73-.891.182-1.79.327-2.69.46-.773.111-1.549.2-2.325.286q-.991.113-1.987.185-.86.07-1.722.07c-.37-.002-.742-.014-1.113-.025q-.415-.01-.83-.03c-3.322-.26-1.737-1.66-2.011-6.364.572-.392 1.224-.582 1.887-.745a17 17 0 0 1 1.72-.299c.72-.092 1.443-.15 2.167-.202.89-.067 1.781-.082 2.673-.08 1.013.007 2.026.054 3.037.116q1.638.107 3.272.267c1.14.11 2.27.29 3.394.507 1.067.21 2.116.497 3.153.823 1.024.32 2.004.756 2.961 1.237.923.469 1.794 1.027 2.642 1.617.9.623 1.714 1.354 2.482 2.131.757.785 1.41 1.658 2.041 2.545a27 27 0 0 1 1.585 2.55c.484.876.894 1.79 1.276 2.715.384.94.693 1.909.983 2.882.282.955.52 1.922.732 2.894.212.98.363 1.97.494 2.962.124.957.205 1.92.265 2.883.055.937.057 1.876.045 2.814-.011.84-.05 1.678-.097 2.516-.04.73-.096 1.46-.15 2.19l-.132 1.78-.106 1.438-.084 1.15-.067.922-.054.735-.043.585-.034.467-.027.372-.024.309c-.456 4.843-7.304 4.199-6.85-.644q.008-.082.013-.165l.027-.372.034-.467.043-.586.054-.734.151-2.075.106-1.442.133-1.782c.05-.688.103-1.375.142-2.064.041-.738.076-1.477.087-2.217.01-.77.01-1.54-.034-2.31a36 36 0 0 0-.22-2.409c-.103-.8-.223-1.599-.393-2.388a34 34 0 0 0-.605-2.401 25 25 0 0 0-.75-2.223 20 20 0 0 0-.932-2.002 20 20 0 0 0-1.18-1.904c-.418-.592-.846-1.18-1.342-1.709-.464-.48-.96-.925-1.509-1.307a15.5 15.5 0 0 0-1.806-1.117c-.623-.318-1.26-.607-1.927-.816a22 22 0 0 0-2.398-.63 29 29 0 0 0-2.757-.415 92 92 0 0 0-3.02-.246 49 49 0 0 0-2.634-.103c-.72-.003-1.44.01-2.157.062-.59.042-1.178.088-1.765.162a10 10 0 0 0-.993.163c-.594.139.35-.12.42-.294-.21-2.497 1.232-5.99-1.541-6.15.22.013.44.013.66.022q.454.015.91.023c.406.002.81-.021 1.215-.053a41 41 0 0 0 1.732-.16 66 66 0 0 0 2.08-.256 43 43 0 0 0 2.304-.392 27 27 0 0 0 2.356-.574 27 27 0 0 0 2.317-.803c.741-.3 1.476-.614 2.192-.972.666-.34 1.32-.704 1.94-1.122.636-.43 1.26-.877 1.85-1.366a19 19 0 0 0 1.607-1.488c.464-.5.908-1.019 1.29-1.585.403-.6.781-1.218 1.095-1.87.33-.688.637-1.386.87-2.112.242-.755.454-1.52.587-2.303.128-.765.23-1.534.254-2.31.022-.77.02-1.54-.032-2.307q-.074-1.131-.213-2.255a32 32 0 0 0-.274-1.866 16 16 0 0 0-.642-2.417c-.13-.364.006-.018.124.106-2.872-3.926 2.68-7.987 5.552-4.06" transform="translate(0 -197)"/></svg>
