<svg viewBox="0 0 100 100"><path style="opacity:1;fill:#020900;fill-opacity:1;stroke:none;stroke-width:1;stroke-linecap:butt;stroke-linejoin:round;stroke-miterlimit:4;stroke-dasharray:none;stroke-opacity:1" d="M12.155 267.613c.369.05.727.15 1.082.26.326.103.644.23.958.364.32.137.633.289.943.447q.576.303 1.13.649.588.374 1.166.763a81 81 0 0 1 2.714 1.918q.737.553 1.468 1.114.73.553 1.457 1.11c.466.362.942.712 1.42 1.061q.755.548 1.5 1.109c.508.385 1.003.786 1.493 1.193q.639.539 1.258 1.1.489.445.975.894.387.357.772.717.334.31.66.629l.491.481q.228.22.448.446c.256.296.397.398.008.036-1.998-1.694-5.22-.468-5.548 2.159-.001.01-.001.042-.003.032-.027-.171 0-.37-.002-.542l-.005-1.31a86 86 0 0 1 .005-1.775c.01-.747.043-1.493.09-2.238.057-.846.146-1.69.247-2.533a39 39 0 0 1 .458-2.792c.196-.98.459-1.945.743-2.903a36 36 0 0 1 1.023-2.884c.4-1.007.876-1.98 1.39-2.932.547-1 1.19-1.94 1.863-2.859.666-.895 1.392-1.743 2.131-2.578a41 41 0 0 1 2.34-2.415 34 34 0 0 1 2.657-2.277 33 33 0 0 1 2.866-1.967 41 41 0 0 1 2.87-1.587c.92-.466 1.865-.881 2.818-1.276a35 35 0 0 1 2.83-1.016c1.027-.33 2.086-.525 3.156-.652 1.094-.122 2.192-.051 3.282.08 1.019.127 2.014.382 2.994.682.957.3 1.88.693 2.787 1.119.913.434 1.785.945 2.64 1.484.865.554 1.683 1.176 2.483 1.82.824.664 1.575 1.41 2.299 2.18a36 36 0 0 1 1.917 2.292 31 31 0 0 1 1.627 2.35c.472.737.906 1.496 1.314 2.269a35 35 0 0 1 1.056 2.289q.436 1.024.821 2.068c.27.718.488 1.452.687 2.19a33 33 0 0 1 .772 3.895q.123.856.223 1.716.098.817.175 1.638c.054.573.087 1.147.109 1.721.017.525.017 1.05.017 1.574q.003.636-.004 1.273c-.007.406-.028.812-.051 1.218-.018.375-.044.75-.087 1.122-.047.372-.117.74-.191 1.106q-.078.392-.16.783l-.145.653-.112.5-.088.398-.071.317c-.022.204.03-.214.063-.536-.112 4.863-6.99 4.705-6.878-.158.025-.275.032-.537.1-.803l.071-.318.09-.398.11-.499q.066-.292.13-.586.075-.352.145-.707c.039-.191.078-.382.106-.576.034-.226.029-.456.049-.684.017-.312.034-.625.04-.938.007-.386.004-.772.004-1.158 0-.441 0-.882-.013-1.323a23 23 0 0 0-.084-1.343 57 57 0 0 0-.155-1.462q-.09-.765-.199-1.526a37 37 0 0 0-.247-1.513 26 26 0 0 0-.365-1.609 17 17 0 0 0-.492-1.578 37 37 0 0 0-.693-1.748 29 29 0 0 0-.821-1.795 24 24 0 0 0-1.026-1.773A24 24 0 0 0 67 261.44a29 29 0 0 0-1.511-1.816c-.503-.54-1.023-1.063-1.597-1.528a22 22 0 0 0-1.84-1.36c-.614-.39-1.242-.76-1.898-1.076a15 15 0 0 0-1.88-.766 11 11 0 0 0-1.81-.428c-.55-.072-1.105-.124-1.66-.071a9.5 9.5 0 0 0-1.875.38q-1.149.356-2.26.81a33 33 0 0 0-4.684 2.348c-.778.482-1.542.987-2.266 1.548a27 27 0 0 0-2.123 1.815 34 34 0 0 0-1.958 2.017c-.6.677-1.192 1.363-1.735 2.088-.49.664-.96 1.343-1.359 2.066a20 20 0 0 0-1.043 2.19 29 29 0 0 0-.824 2.31c-.225.75-.432 1.506-.588 2.275a31 31 0 0 0-.376 2.276 42 42 0 0 0-.211 2.152 38 38 0 0 0-.078 1.896 80 80 0 0 0-.004 1.654l.005 1.296c.002.335.008.67-.01 1.005-.04.41-.225 1.63-.565 1.822-2.527 1.429-3.353 2.202-5.218.792a5 5 0 0 1-.494-.493c-.1-.107-.209-.204-.311-.308l-.475-.465a32 32 0 0 0-.551-.526l-.747-.694q-.454-.421-.913-.836a40 40 0 0 0-1.054-.924 36 36 0 0 0-1.239-.992 98 98 0 0 0-1.417-1.046 67 67 0 0 1-1.542-1.154q-.724-.553-1.45-1.104-.693-.531-1.39-1.055-.635-.474-1.284-.927a74 74 0 0 0-1.165-.804 47 47 0 0 0-.952-.625 11 11 0 0 0-.664-.385 8 8 0 0 0-.502-.24 4 4 0 0 0-.307-.121c-.17-.054.007-.004.073-.004-4.822-.642-3.914-7.46.908-6.82zm24.725-58.564-.006.597q-.004.502-.005 1.006 0 .702-.013 1.404c-.012.53-.032 1.061-.05 1.591q-.03.866-.054 1.73a300 300 0 0 1-.11 3.725q-.027.911-.049 1.822-.02.885-.046 1.771-.028.847-.067 1.695-.037.762-.071 1.526-.032.735-.058 1.47-.029.648-.029 1.296c.003.41.017.82.03 1.23.011.358.03.715.047 1.073.013.265.026.53.05.794q.018.18.056.354c-.001.025.062.214.023.088-.099-.3-.286-.554-.489-.792-.27-.302-.612-.502-.986-.645-.018-.035-.39-.069-.17-.072.264-.006.528-.027.791-.048a46 46 0 0 0 1.276-.116c.486-.054.97-.123 1.453-.189q.873-.118 1.748-.211l1.764-.18a87 87 0 0 1 1.907-.175q.972-.078 1.944-.14a149 149 0 0 1 3.936-.196 27 27 0 0 1 2.243.027q1.002.048 2.002.108c.693.04 1.384.103 2.074.174.664.07 1.326.152 1.988.236.612.077 1.223.157 1.835.23q.892.103 1.785.185c.6.057 1.2.104 1.8.15l1.65.124q.662.05 1.326.093.56.035 1.12.062l.95.047.754.036q.31.011.619.018.303.008.607.013l.53.011.428.01.342.006.273.005.217.004c.205-.016-.336.026-.504.047-1.492.316-2.387 1.322-2.712 2.783-.076.007.007.865-.038.53l-.104-.76q-.072-.537-.155-1.071-.12-.73-.226-1.46a69 69 0 0 1-.215-1.658l-.192-1.62q-.097-.84-.187-1.679a104 104 0 0 1-.298-3.57 58 58 0 0 1-.093-1.888 24 24 0 0 1 .028-2.004c.03-.573.074-1.145.118-1.716l.118-1.501q.06-.76.132-1.517.073-.762.174-1.52c.058-.437.13-.872.201-1.307l.161-.967.128-.771.102-.617.069-.423c-.135.795.165 1.464.536 2.148.327.455.738.821 1.25 1.044.155.053-.028.005-.072-.004-.145-.03-.29-.05-.436-.07a19 19 0 0 0-.733-.077c-.316-.028-.633-.048-.95-.069a45 45 0 0 1-1.276-.097 63 63 0 0 1-1.473-.153c-.541-.065-1.082-.138-1.623-.205a57 57 0 0 0-1.652-.173c-.587-.055-1.176-.1-1.764-.143-.619-.045-1.238-.095-1.856-.14q-.908-.066-1.814-.122-.9-.056-1.801-.1-.896-.044-1.793-.08a87 87 0 0 0-1.742-.058q-.906-.017-1.811-.027a204 204 0 0 0-4.006.004l-2.223.015q-1.092.005-2.183.015c-.653.006-1.306.03-1.958.063q-.9.05-1.8.123a31 31 0 0 0-1.455.15c-.425.055-.848.116-1.272.175q-.52.074-1.04.151l-.846.125-.669.1c-.612.125.263-.092.325-.11-4.536 1.754-7.018-4.661-2.482-6.416.375-.12.746-.237 1.138-.277l.678-.101.85-.126q.54-.081 1.084-.157.693-.1 1.386-.19a38 38 0 0 1 1.755-.181 72 72 0 0 1 2-.136 54 54 0 0 1 2.229-.072c.739-.008 1.478-.01 2.217-.015l2.216-.015q1.074-.008 2.148-.011.994-.002 1.987.008.942.01 1.884.029.936.022 1.872.061.928.037 1.856.083a149 149 0 0 1 3.773.231l1.85.14q.956.069 1.908.155c.62.058 1.24.12 1.857.196.523.065 1.046.135 1.57.198q.65.076 1.304.136.55.05 1.1.083.56.035 1.119.083c.348.031.697.065 1.045.112.33.045.66.096.985.167a8 8 0 0 1 1.042.294c.768.308 1.435.746 1.93 1.429.129.23.28.45.387.691.293.662.35 1.397.257 2.107q-.043.278-.09.555l-.102.617-.128.776-.16.96c-.06.364-.12.727-.17 1.092q-.085.637-.146 1.277-.065.695-.12 1.39l-.118 1.5q-.062.76-.107 1.52c-.024.478-.04.955-.023 1.433q.026.83.08 1.659a97 97 0 0 0 .277 3.31q.087.807.18 1.614c.06.528.126 1.056.188 1.584.06.494.12.989.191 1.482q.102.699.216 1.396.093.595.174 1.192l.11.804c.057.439.096.88.03 1.322-.344 1.631-1.23 2.654-2.885 3.034a4.5 4.5 0 0 1-.85.06l-.217-.004-.272-.005-.342-.007-.429-.01-.533-.01-.632-.014q-.372-.008-.744-.022-.401-.017-.802-.038l-.959-.048a97 97 0 0 1-2.607-.165q-.834-.061-1.669-.125-.96-.072-1.919-.16a84 84 0 0 1-1.95-.204q-.941-.113-1.88-.235a98 98 0 0 0-1.83-.218 42 42 0 0 0-1.785-.15q-.948-.057-1.897-.103a20 20 0 0 0-1.7-.024q-.94.034-1.877.082-.927.046-1.853.104-.912.058-1.825.13-.882.072-1.762.161-.867.09-1.736.178-.779.082-1.553.188c-.554.076-1.109.154-1.665.214q-.73.077-1.463.134c-.464.035-.928.07-1.394.067-.598-.01-1.198-.054-1.774-.228-.738-.252-1.427-.603-1.97-1.178-.422-.473-.788-.988-.998-1.593a8 8 0 0 1-.3-1.056 10 10 0 0 1-.171-1.134 24 24 0 0 1-.07-1.07q-.032-.6-.053-1.2c-.015-.48-.031-.962-.033-1.443q0-.776.034-1.55.026-.766.06-1.528.034-.764.07-1.527a129 129 0 0 0 .11-3.33 366 366 0 0 1 .11-3.733q.026-.915.049-1.83.023-.893.055-1.784.027-.745.047-1.49.012-.645.012-1.293 0-.516.005-1.032l.007-.664c.086-4.863 6.964-4.742 6.878.122z" transform="translate(0 -197)"/><path style="opacity:1;fill:#020900;fill-opacity:1;stroke:none;stroke-width:1;stroke-linecap:butt;stroke-linejoin:round;stroke-miterlimit:4;stroke-dasharray:none;stroke-opacity:1" d="M55.067 207.44q.047.258.084.516l.081.526.1.603a30 30 0 0 1 .252 2.09c.042.479.072.96.104 1.44q.053.799.097 1.598.046.864.08 1.729.037.978.064 1.956.029 1.056.05 2.113c.019.78.017 1.562.01 2.342l-.03 2.465q-.015 1.309-.027 2.618c-.007.86-.012 1.719-.028 2.578-.016.83-.058 1.66-.1 2.49q-.062 1.125-.131 2.252c-.041.682-.078 1.365-.12 2.048q-.053.906-.11 1.81-.05.823-.104 1.645l-.1 1.485-.087 1.278a54 54 0 0 1-.1 1.16l-.089.94-.076.827-.061.718-.056.661a91 91 0 0 0-.08 1.042l-.03.404-.024.327-.018.26-.015.209-.012.165-.005.07c.031-.547-.073-.815-.206-1.402l-.584-.997c3.158 3.7-2.073 8.166-5.232 4.467l-.617-1.035c-.127-.543-.291-1.039-.218-1.596l.012-.166.015-.208.019-.26.024-.328.067-.92.049-.602.055-.657.066-.772.078-.842.09-.954q.047-.498.086-.996.044-.63.085-1.258l.1-1.463q.052-.816.102-1.633l.11-1.79c.041-.684.078-1.367.12-2.05.043-.731.088-1.463.126-2.195.04-.754.078-1.51.093-2.265.016-.836.02-1.673.028-2.51l.026-2.634.03-2.451c.007-.711.008-1.422-.009-2.132q-.02-1.032-.049-2.064-.025-.938-.06-1.874a110 110 0 0 0-.168-3.147c-.028-.426-.055-.853-.092-1.279a29 29 0 0 0-.097-.936 25 25 0 0 0-.091-.655l-.112-.68-.085-.552a9 9 0 0 0-.06-.37c-.82-4.794 5.96-5.953 6.78-1.158" transform="translate(0 -197)"/></svg>
