<?xml version="1.0" encoding="UTF-8" standalone="no"?>
<!-- Created with Inkscape (http://www.inkscape.org/) -->

<svg
   xmlns:dc="http://purl.org/dc/elements/1.1/"
   xmlns:cc="http://creativecommons.org/ns#"
   xmlns:rdf="http://www.w3.org/1999/02/22-rdf-syntax-ns#"
   xmlns:svg="http://www.w3.org/2000/svg"
   xmlns="http://www.w3.org/2000/svg"
   xmlns:sodipodi="http://sodipodi.sourceforge.net/DTD/sodipodi-0.dtd"
   xmlns:inkscape="http://www.inkscape.org/namespaces/inkscape"
   width="10cm"
   height="10cm"
   viewBox="0 0 100 99.999997"
   version="1.1"
   id="svg8"
   sodipodi:docname="kepeken.svg"
   inkscape:version="0.92.3 (2405546, 2018-03-11)">
  <defs
     id="defs2" />
  <sodipodi:namedview
     id="base"
     pagecolor="#ffffff"
     bordercolor="#666666"
     borderopacity="1.0"
     inkscape:pageopacity="0.0"
     inkscape:pageshadow="2"
     inkscape:zoom="1"
     inkscape:cx="125.50186"
     inkscape:cy="200.50542"
     inkscape:document-units="cm"
     inkscape:current-layer="layer1"
     showgrid="true"
     units="cm"
     inkscape:window-width="1920"
     inkscape:window-height="1017"
     inkscape:window-x="-8"
     inkscape:window-y="-8"
     inkscape:window-maximized="1"
     inkscape:snap-nodes="false">
    <inkscape:grid
       type="xygrid"
       id="grid815"
       units="cm"
       spacingx="9.9999998"
       spacingy="9.9999998" />
  </sodipodi:namedview>
  <metadata
     id="metadata5">
    <rdf:RDF>
      <cc:Work
         rdf:about="">
        <dc:format>image/svg+xml</dc:format>
        <dc:type
           rdf:resource="http://purl.org/dc/dcmitype/StillImage" />
        <dc:title></dc:title>
      </cc:Work>
    </rdf:RDF>
  </metadata>
  <g
     inkscape:label="Layer 1"
     inkscape:groupmode="layer"
     id="layer1"
     transform="translate(0,-197.00002)">
    <path
       style="opacity:1;fill:#020900;fill-opacity:1;stroke:none;stroke-width:1;stroke-linecap:butt;stroke-linejoin:round;stroke-miterlimit:4;stroke-dasharray:none;stroke-opacity:1"
       id="path1103"
       d="m 12.154543,267.61336 c 0.369069,0.0492 0.727866,0.14942 1.082391,0.26018 0.326162,0.10269 0.643823,0.22919 0.958091,0.36336 0.319863,0.1375 0.633312,0.28886 0.943098,0.44758 0.385302,0.20099 0.760414,0.42045 1.130213,0.64847 0.392831,0.24794 0.780033,0.50463 1.165682,0.76355 0.429824,0.28924 0.855264,0.58487 1.279434,0.8823 0.483867,0.33695 0.96067,0.68371 1.434121,1.03509 0.492092,0.36816 0.980653,0.74099 1.468889,1.11424 0.48589,0.36902 0.971766,0.73805 1.456051,1.10918 0.466705,0.36261 0.942687,0.71289 1.41964,1.06181 0.503125,0.36582 1.004434,0.73409 1.500915,1.10889 0.507601,0.38505 1.003181,0.78552 1.493036,1.1928 0.427167,0.35772 0.844005,0.72747 1.258025,1.10024 0.327012,0.2956 0.650812,0.59472 0.974709,0.89372 0.258575,0.23796 0.51566,0.47753 0.772647,0.7172 0.222541,0.20689 0.442005,0.41702 0.659696,0.62899 0.163994,0.16012 0.3276,0.32065 0.491247,0.48112 0.15108,0.14702 0.301109,0.29506 0.447863,0.4464 0.255733,0.29597 0.396618,0.39749 0.008,0.0354 -1.998213,-1.69436 -5.220412,-0.46749 -5.548157,2.15914 -0.0011,0.0106 -0.0016,0.0424 -0.0032,0.0318 -0.02696,-0.17099 -7.94e-4,-0.36931 -0.0019,-0.54174 -0.0024,-0.43662 -0.004,-0.87325 -0.0055,-1.30987 -0.0039,-0.59186 -0.0031,-1.18367 0.0052,-1.77548 0.0098,-0.74654 0.04368,-1.4923 0.09101,-2.2373 0.05673,-0.84673 0.144904,-1.69084 0.245774,-2.53331 0.114194,-0.93662 0.27623,-1.8663 0.458851,-2.79171 0.1958,-0.98044 0.458322,-1.94535 0.742799,-2.90321 0.294487,-0.97755 0.647544,-1.93562 1.023284,-2.8844 0.399124,-1.00696 0.875745,-1.97943 1.390129,-2.93174 0.546095,-1.0002 1.189921,-1.94092 1.862759,-2.85889 0.665324,-0.89552 1.391306,-1.74315 2.130666,-2.57773 0.742823,-0.84102 1.532218,-1.63828 2.340859,-2.41556 0.840692,-0.81015 1.736735,-1.55832 2.656025,-2.27684 0.915588,-0.71242 1.881883,-1.35441 2.865969,-1.96722 0.931683,-0.57285 1.895602,-1.08995 2.869647,-1.58633 0.920324,-0.46694 1.865389,-0.88169 2.818648,-1.27601 0.926786,-0.38328 1.87302,-0.71569 2.829299,-1.0168 1.0274,-0.32878 2.086983,-0.5249 3.156124,-0.6514 1.094626,-0.12182 2.19292,-0.0517 3.282252,0.0795 1.019114,0.12767 2.013817,0.38246 2.994001,0.68235 0.957439,0.29943 1.880639,0.69264 2.787409,1.11886 0.912775,0.4341 1.785085,0.94506 2.639208,1.48378 0.865547,0.55376 1.683729,1.17591 2.483244,1.82003 0.824198,0.66421 1.575676,1.40946 2.299034,2.18032 0.676338,0.73243 1.305269,1.50618 1.917538,2.29233 0.584557,0.7536 1.114235,1.54692 1.627116,2.3503 0.471837,0.73621 0.905648,1.49523 1.313723,2.26829 0.386887,0.7464 0.724712,1.51664 1.055875,2.28894 0.292282,0.68203 0.563443,1.37272 0.821402,2.06837 0.268811,0.7173 0.487679,1.45121 0.686225,2.19057 0.180354,0.67926 0.332505,1.3654 0.468869,2.05469 0.117763,0.61027 0.21237,1.22467 0.303141,1.83944 0.08377,0.5707 0.155532,1.14306 0.223819,1.71579 0.06504,0.54533 0.123433,1.09138 0.174442,1.63819 0.05451,0.57257 0.08681,1.14676 0.108863,1.72139 0.01688,0.52441 0.01707,1.04913 0.01775,1.57376 5.3e-4,0.42413 0.0016,0.84825 -0.0047,1.27235 -0.007,0.40637 -0.02813,0.81231 -0.05087,1.21805 -0.01789,0.37524 -0.04421,0.74955 -0.08708,1.12278 -0.04644,0.37145 -0.117261,0.73916 -0.190831,1.106 -0.0523,0.26114 -0.104899,0.52222 -0.160229,0.78274 -0.04766,0.2179 -0.09648,0.43555 -0.145029,0.65325 -0.03713,0.16651 -0.07427,0.33302 -0.111413,0.49953 -0.0296,0.13271 -0.0592,0.26542 -0.0888,0.39813 -0.0236,0.10578 -0.04719,0.21155 -0.07078,0.31733 -0.02199,0.20357 0.0301,-0.21453 0.06282,-0.53604 -0.111906,4.86301 -6.989252,4.70475 -6.877344,-0.15826 v 0 c 0.02453,-0.27533 0.03193,-0.53745 0.100351,-0.80329 0.0236,-0.10578 0.04719,-0.21155 0.07078,-0.31733 0.0296,-0.13271 0.0592,-0.26542 0.0888,-0.39813 0.03712,-0.1664 0.07423,-0.33281 0.111345,-0.49921 0.04355,-0.19529 0.08721,-0.39056 0.130371,-0.58593 0.05003,-0.23525 0.09722,-0.47107 0.144552,-0.70688 0.03847,-0.19135 0.07756,-0.38274 0.105775,-0.57593 0.03416,-0.2262 0.02837,-0.45673 0.04836,-0.68428 0.01757,-0.31251 0.03477,-0.62514 0.04087,-0.93814 0.0064,-0.3859 0.0034,-0.77188 0.0039,-1.15783 -5.29e-4,-0.4411 -1.8e-4,-0.88227 -0.01286,-1.32324 -0.01654,-0.44843 -0.04165,-0.8965 -0.08415,-1.34331 -0.0453,-0.48799 -0.09784,-0.97523 -0.155739,-1.4619 -0.06063,-0.50934 -0.124185,-1.01837 -0.198515,-1.52592 -0.07447,-0.50563 -0.151394,-1.01106 -0.246978,-1.5132 -0.105754,-0.5396 -0.225091,-1.07647 -0.365339,-1.60825 -0.141499,-0.53289 -0.297778,-1.0618 -0.491551,-1.57839 -0.21726,-0.58792 -0.446828,-1.17121 -0.693367,-1.74754 -0.259014,-0.60501 -0.52115,-1.20939 -0.820893,-1.79563 -0.316752,-0.6051 -0.65808,-1.19673 -1.025867,-1.7724 -0.396817,-0.62321 -0.804661,-1.24001 -1.256614,-1.82511 -0.483315,-0.62225 -0.979006,-1.23531 -1.511435,-1.81659 -0.502539,-0.53955 -1.023229,-1.06286 -1.597044,-1.52764 -0.592828,-0.48014 -1.199181,-0.94452 -1.840174,-1.35924 -0.614162,-0.39048 -1.241798,-0.76055 -1.89819,-1.07635 -0.611595,-0.29082 -1.234247,-0.55988 -1.880013,-0.76649 -0.592084,-0.18569 -1.192643,-0.34613 -1.809046,-0.42807 -0.550722,-0.0714 -1.106014,-0.1241 -1.661321,-0.0712 -0.635836,0.0662 -1.263968,0.18764 -1.874404,0.38041 -0.764693,0.23814 -1.519833,0.50596 -2.260703,0.81074 -0.786045,0.32402 -1.565423,0.66474 -2.324423,1.04861 -0.800298,0.40664 -1.592516,0.82988 -2.358755,1.29827 -0.778031,0.48229 -1.542148,0.9875 -2.266169,1.54869 -0.735304,0.57202 -1.451179,1.16877 -2.122893,1.81515 -0.676677,0.64859 -1.336775,1.31438 -1.957768,2.01701 -0.600726,0.67675 -1.192194,1.36281 -1.734714,2.08771 -0.489596,0.66372 -0.960297,1.34272 -1.359392,2.06569 -0.38776,0.70999 -0.742503,1.43754 -1.042816,2.18925 -0.302575,0.75977 -0.586181,1.52731 -0.824169,2.31007 -0.224544,0.75088 -0.432231,1.50726 -0.587594,2.2759 -0.150091,0.75417 -0.282438,1.51202 -0.376833,2.27539 -0.08629,0.71581 -0.161534,1.43304 -0.210736,2.15246 -0.04079,0.6314 -0.06918,1.2635 -0.07766,1.89624 -0.008,0.55109 -0.008,1.10219 -0.0046,1.65333 0.0016,0.43208 0.0031,0.86417 0.0055,1.29626 0.0019,0.33509 0.0076,0.6705 -0.01011,1.00528 -0.04069,0.40973 -0.224915,1.63033 -0.564605,1.8223 -2.527356,1.4283 -3.353247,2.20209 -5.218616,0.79161 -0.171799,-0.156 -0.346188,-0.31422 -0.493765,-0.49281 -0.09972,-0.10669 -0.208566,-0.20457 -0.311123,-0.30846 -0.158047,-0.15499 -0.316051,-0.31001 -0.474413,-0.46467 -0.182077,-0.17739 -0.365636,-0.35322 -0.551876,-0.52624 -0.248424,-0.23168 -0.496923,-0.46329 -0.746898,-0.69331 -0.303189,-0.27988 -0.606233,-0.55993 -0.912234,-0.83675 -0.347227,-0.31281 -0.696545,-0.6234 -1.054461,-0.92399 -0.406443,-0.33854 -0.817899,-0.67112 -1.238982,-0.99135 -0.468366,-0.35395 -0.942003,-0.70078 -1.416652,-1.04625 -0.518174,-0.3791 -1.03502,-0.76005 -1.542315,-1.15368 -0.482126,-0.36949 -0.965918,-0.73678 -1.449595,-1.10424 -0.462486,-0.35356 -0.925252,-0.70677 -1.391232,-1.05573 -0.423673,-0.31459 -0.850351,-0.62503 -1.283551,-0.92643 -0.386291,-0.27092 -0.773647,-0.54032 -1.165061,-0.80381 -0.315133,-0.21173 -0.631571,-0.42154 -0.951769,-0.62556 -0.216992,-0.13539 -0.438108,-0.26399 -0.66387,-0.38427 -0.164224,-0.0864 -0.332419,-0.16482 -0.502282,-0.23949 -0.101062,-0.044 -0.202372,-0.0873 -0.307116,-0.12196 -0.168827,-0.0539 0.0078,-0.004 0.07368,-0.004 -4.8218145,-0.64154 -3.914544,-7.46062 0.907271,-6.81908 z"
       inkscape:connector-curvature="0" />
    <path
       style="opacity:1;fill:#020900;fill-opacity:1;stroke:none;stroke-width:1;stroke-linecap:butt;stroke-linejoin:round;stroke-miterlimit:4;stroke-dasharray:none;stroke-opacity:1"
       id="path1105"
       d="m 36.880276,209.04869 c -0.0031,0.1992 -0.0047,0.39843 -0.0063,0.59765 -0.0026,0.33513 -0.0039,0.67027 -0.0053,1.00541 -2.64e-4,0.46821 -0.0035,0.93637 -0.01288,1.40448 -0.01225,0.53049 -0.03157,1.06078 -0.0502,1.59107 -0.02074,0.57668 -0.0376,1.15348 -0.05328,1.73032 -0.01537,0.61886 -0.03078,1.23771 -0.04998,1.85647 -0.02109,0.62245 -0.0412,1.24493 -0.05987,1.86746 -0.01815,0.6076 -0.03415,1.21526 -0.04923,1.82295 -0.01365,0.59021 -0.028,1.1804 -0.04603,1.7705 -0.01804,0.56511 -0.04179,1.13 -0.06695,1.69482 -0.0241,0.50858 -0.0489,1.01712 -0.07152,1.52576 -0.02154,0.49011 -0.03983,0.98035 -0.05755,1.47061 -0.0181,0.43187 -0.02972,0.86381 -0.02891,1.29606 0.0024,0.41007 0.01624,0.81996 0.02932,1.2298 0.01161,0.35777 0.02946,0.71528 0.04749,1.07276 0.01259,0.26513 0.02601,0.53021 0.05069,0.79452 0.01196,0.11898 0.02786,0.23752 0.05491,0.35405 -7.94e-4,0.0249 0.06192,0.21398 0.02339,0.0877 -0.09877,-0.30062 -0.286482,-0.5543 -0.488873,-0.79237 -0.270505,-0.30131 -0.61228,-0.50131 -0.986237,-0.6444 -0.01791,-0.0357 -0.389091,-0.0693 -0.169926,-0.0725 0.264155,-0.006 0.527677,-0.0271 0.790996,-0.0476 0.425926,-0.0329 0.851352,-0.0715 1.276188,-0.11635 0.485516,-0.0541 0.96928,-0.12239 1.453264,-0.18846 0.581144,-0.0808 1.163897,-0.14884 1.74721,-0.21172 0.588219,-0.0591 1.17628,-0.11976 1.764321,-0.18062 0.635,-0.0662 1.270982,-0.12211 1.907255,-0.17438 0.64739,-0.0526 1.295405,-0.097 1.943563,-0.13899 0.64825,-0.0416 1.296881,-0.0769 1.945611,-0.11003 0.663405,-0.033 1.326956,-0.0632 1.99078,-0.0863 0.7478,-0.0287 1.495872,-0.006 2.24305,0.0268 0.667618,0.0317 1.33504,0.0676 2.002221,0.10743 0.692624,0.0409 1.383607,0.10386 2.073767,0.17424 0.663583,0.0701 1.325753,0.15266 1.987802,0.23579 0.611499,0.0774 1.222713,0.15698 1.834795,0.22972 0.594283,0.0701 1.189726,0.1297 1.785459,0.18595 0.59967,0.0563 1.200073,0.10409 1.800579,0.15036 0.549373,0.0418 1.098833,0.0824 1.648291,0.12311 0.442248,0.0334 0.884584,0.0655 1.327219,0.0933 0.373163,0.0235 0.746567,0.0428 1.119984,0.0617 0.316814,0.0159 0.633642,0.0316 0.950468,0.0472 0.25111,0.0121 0.502163,0.0255 0.753345,0.0361 0.206105,0.008 0.41234,0.0131 0.618551,0.0181 0.202488,0.005 0.404992,0.009 0.607499,0.0133 0.176456,0.004 0.352915,0.007 0.529376,0.0107 0.142859,0.003 0.285718,0.006 0.428577,0.009 0.113969,0.002 0.227941,0.005 0.341911,0.007 0.09084,0.002 0.181676,0.004 0.272515,0.005 0.0724,10e-4 0.144801,0.003 0.217205,0.004 0.20471,-0.0159 -0.3355,0.0254 -0.503598,0.0469 -1.492557,0.31587 -2.387367,1.32237 -2.711876,2.78327 -0.07621,0.007 0.0066,0.86494 -0.0384,0.52878 -0.03487,-0.25327 -0.06859,-0.5067 -0.103587,-0.75996 -0.04821,-0.35729 -0.09975,-0.7141 -0.155536,-1.07028 -0.0798,-0.48584 -0.154463,-0.97249 -0.226017,-1.45961 -0.08007,-0.55174 -0.14809,-1.10515 -0.214813,-1.65864 -0.06361,-0.54018 -0.130122,-1.08002 -0.192339,-1.62038 -0.06365,-0.55922 -0.127944,-1.11836 -0.187079,-1.67808 -0.06248,-0.60104 -0.115427,-1.20302 -0.166359,-1.80513 -0.04963,-0.58809 -0.09239,-1.17673 -0.132027,-1.76557 -0.0419,-0.62855 -0.07112,-1.25782 -0.09261,-1.88738 -0.02365,-0.66822 -0.0046,-1.33659 0.02791,-2.00409 0.03104,-0.57273 0.07433,-1.14467 0.118829,-1.71647 0.03896,-0.50033 0.07853,-1.00061 0.117621,-1.50092 0.04093,-0.50591 0.08362,-1.01168 0.132313,-1.51691 0.04793,-0.5078 0.106661,-1.01446 0.173558,-1.52009 0.0581,-0.4368 0.129932,-0.87157 0.201655,-1.30628 0.05333,-0.3224 0.107246,-0.64469 0.160756,-0.96705 0.04261,-0.25709 0.0851,-0.51419 0.127603,-0.77129 0.034,-0.20566 0.068,-0.41132 0.101994,-0.61699 0.02313,-0.14078 0.04707,-0.28183 0.06916,-0.4225 -0.135128,0.79491 0.16484,1.46322 0.53581,2.14759 0.326861,0.4549 0.738127,0.82092 1.250617,1.04395 0.154977,0.0525 -0.0287,0.005 -0.07286,-0.004 -0.144187,-0.0298 -0.290046,-0.0502 -0.435898,-0.0697 -0.243647,-0.0317 -0.488273,-0.0549 -0.732959,-0.0769 -0.316019,-0.0282 -0.63263,-0.0487 -0.949204,-0.0694 -0.425963,-0.0263 -0.851482,-0.0581 -1.276506,-0.0966 -0.491476,-0.0451 -0.982305,-0.0966 -1.47257,-0.15326 -0.541449,-0.0651 -1.081958,-0.13771 -1.623176,-0.2047 -0.549543,-0.0678 -1.100559,-0.12241 -1.651818,-0.17394 -0.5876,-0.0545 -1.175999,-0.0996 -1.764559,-0.14232 -0.618879,-0.0454 -1.237401,-0.0954 -1.85628,-0.14077 -0.604446,-0.0432 -1.209074,-0.0837 -1.813853,-0.1219 -0.600012,-0.0377 -1.200367,-0.0695 -1.800799,-0.0997 -0.597438,-0.0297 -1.195049,-0.0556 -1.792722,-0.0801 -0.580662,-0.0244 -1.161457,-0.0446 -1.74249,-0.0573 -0.603565,-0.0117 -1.207177,-0.0209 -1.810811,-0.0278 -0.638651,-0.006 -1.277337,-0.007 -1.916012,-0.007 -0.696489,8.7e-4 -1.39296,0.006 -2.089425,0.0112 -0.741326,0.006 -1.482654,0.0104 -2.223984,0.015 -0.72761,0.004 -1.455219,0.007 -2.182797,0.0153 -0.653145,0.006 -1.305851,0.0297 -1.958112,0.063 -0.600247,0.0314 -1.199762,0.075 -1.798881,0.12301 -0.486585,0.0371 -0.971683,0.0901 -1.455875,0.15036 -0.424527,0.0546 -0.848255,0.11515 -1.272064,0.17499 -0.34712,0.0483 -0.69383,0.0994 -1.040516,0.1506 -0.281721,0.0417 -0.563425,0.0835 -0.845132,0.12533 -0.223034,0.0331 -0.446072,0.0661 -0.66906,0.0995 -0.612442,0.12496 0.263226,-0.092 0.325355,-0.11054 -4.536675,1.75501 -7.018633,-4.66082 -2.481958,-6.41583 v 0 c 0.374383,-0.11946 0.745495,-0.23683 1.137822,-0.27694 0.225986,-0.0338 0.452025,-0.0673 0.678056,-0.10086 0.282958,-0.042 0.565914,-0.084 0.848886,-0.12589 0.361426,-0.0534 0.722884,-0.10665 1.084757,-0.15699 0.46191,-0.0652 0.923748,-0.13115 1.386502,-0.19017 0.583583,-0.0722 1.168236,-0.13582 1.754624,-0.18083 0.666017,-0.0532 1.332476,-0.1015 1.99975,-0.13613 0.742569,-0.0374 1.485622,-0.0647 2.229175,-0.0713 0.738952,-0.008 1.477936,-0.0112 2.21692,-0.0156 0.738785,-0.005 1.477571,-0.009 2.216351,-0.0149 0.715955,-0.005 1.431912,-0.0106 2.147887,-0.0113 0.662377,7.9e-4 1.324764,0.001 1.987114,0.008 0.627832,0.007 1.255644,0.0167 1.883402,0.029 0.624194,0.0139 1.248151,0.0351 1.871948,0.0614 0.618858,0.0254 1.237657,0.0522 1.856274,0.083 0.629979,0.0316 1.259872,0.0651 1.889406,0.10469 0.62802,0.0397 1.25589,0.0817 1.883558,0.12666 0.617003,0.0453 1.233667,0.0949 1.85066,0.14036 0.636355,0.0462 1.272529,0.0952 1.907839,0.15422 0.619596,0.058 1.238885,0.11984 1.856539,0.19619 0.523237,0.0649 1.045863,0.13452 1.569243,0.19824 0.434288,0.0504 0.869125,0.0958 1.304494,0.13588 0.366567,0.0335 0.733645,0.0601 1.10104,0.0829 0.372819,0.0243 0.745646,0.0491 1.117793,0.0824 0.348972,0.0315 0.69778,0.0657 1.045131,0.11217 0.330118,0.0454 0.659701,0.0961 0.985358,0.16747 0.352436,0.0786 0.703525,0.16661 1.042144,0.29363 0.767707,0.30772 1.43511,0.74576 1.929331,1.4287 0.129304,0.23047 0.281135,0.44967 0.387919,0.6914 0.292658,0.66249 0.348916,1.39728 0.256259,2.10673 -0.0279,0.18533 -0.05907,0.37013 -0.08974,0.55503 -0.034,0.20571 -0.06801,0.41141 -0.102013,0.61711 -0.04275,0.25858 -0.08549,0.51717 -0.128341,0.77574 -0.05315,0.32017 -0.106686,0.64028 -0.159671,0.96048 -0.05999,0.36352 -0.120798,0.72696 -0.169778,1.09216 -0.05668,0.42453 -0.105212,0.85008 -0.145606,1.27648 -0.04498,0.46312 -0.08337,0.92684 -0.121269,1.39058 -0.03904,0.49964 -0.07856,0.99924 -0.117464,1.49889 -0.03946,0.50689 -0.07818,1.01386 -0.106437,1.52153 -0.02394,0.47707 -0.04012,0.95475 -0.02349,1.43244 0.01855,0.55321 0.04449,1.10615 0.08105,1.65848 0.03692,0.54952 0.07681,1.09883 0.123076,1.64765 0.04687,0.55458 0.09546,1.10904 0.152818,1.66264 0.05675,0.53828 0.118925,1.07595 0.179983,1.61375 0.06074,0.52822 0.125984,1.05589 0.188047,1.58395 0.05954,0.49457 0.120055,0.98909 0.191228,1.48214 0.0684,0.46607 0.140163,0.93162 0.216447,1.39647 0.06189,0.39657 0.119777,0.79374 0.173384,1.19153 0.03702,0.26811 0.07282,0.53637 0.109593,0.80451 0.05717,0.43864 0.09611,0.88038 0.03067,1.32152 -0.344096,1.63126 -1.230622,2.65403 -2.884686,3.0339 -0.28218,0.0384 -0.564314,0.0756 -0.849825,0.0601 -0.0724,-0.001 -0.144804,-0.003 -0.217205,-0.004 -0.09084,-0.002 -0.181676,-0.004 -0.272515,-0.005 -0.113975,-0.002 -0.227947,-0.005 -0.341919,-0.007 -0.142981,-0.003 -0.285964,-0.006 -0.428945,-0.009 -0.177689,-0.004 -0.355378,-0.007 -0.533067,-0.0108 -0.210748,-0.004 -0.421494,-0.009 -0.632227,-0.0138 -0.247946,-0.006 -0.495916,-0.0119 -0.743728,-0.0222 -0.267496,-0.0114 -0.534887,-0.0252 -0.802306,-0.0383 -0.319498,-0.0158 -0.638995,-0.0316 -0.958482,-0.0477 -0.401402,-0.0203 -0.802789,-0.0412 -1.203915,-0.0665 -0.467874,-0.0295 -0.935461,-0.0631 -1.402924,-0.0985 -0.55639,-0.0412 -1.11278,-0.0823 -1.669082,-0.12468 -0.640051,-0.0493 -1.27998,-0.10047 -1.919129,-0.16052 -0.650936,-0.0616 -1.301543,-0.12683 -1.950886,-0.2036 -0.626901,-0.0746 -1.252985,-0.15564 -1.879278,-0.23517 -0.609594,-0.0765 -1.219271,-0.15283 -1.830228,-0.21784 -0.593971,-0.0609 -1.188644,-0.11553 -1.784763,-0.15084 -0.632135,-0.0378 -1.264513,-0.0717 -1.897057,-0.10196 -0.566105,-0.0254 -1.132885,-0.0461 -1.699543,-0.0242 -0.626176,0.0215 -1.252064,0.0506 -1.877846,0.0815 -0.617657,0.0316 -1.235223,0.065 -1.852425,0.10464 -0.608634,0.0394 -1.217139,0.0809 -1.825056,0.13029 -0.587766,0.0482 -1.175266,0.0998 -1.76185,0.16088 -0.57871,0.0599 -1.157422,0.11972 -1.736328,0.17767 -0.51848,0.0557 -1.036449,0.11616 -1.552972,0.18801 -0.554431,0.0757 -1.108686,0.15346 -1.66503,0.21403 -0.486918,0.051 -0.974426,0.0958 -1.462575,0.13337 -0.463981,0.0359 -0.928693,0.0697 -1.394378,0.0679 -0.598371,-0.01 -1.197798,-0.0547 -1.774097,-0.22887 -0.738285,-0.25206 -1.426551,-0.60279 -1.969736,-1.17788 -0.422576,-0.47275 -0.787797,-0.98768 -0.997958,-1.59248 -0.122131,-0.34546 -0.227695,-0.69636 -0.300252,-1.05595 -0.07631,-0.37501 -0.137538,-0.75291 -0.171148,-1.13437 -0.0318,-0.356 -0.05433,-0.71263 -0.07011,-1.06971 -0.02016,-0.39992 -0.03986,-0.79989 -0.05273,-1.20013 -0.01532,-0.48094 -0.0309,-0.96196 -0.03281,-1.44318 -5e-5,-0.51703 0.0114,-1.03379 0.03339,-1.55037 0.01841,-0.50931 0.03745,-1.01861 0.05986,-1.52776 0.02265,-0.50882 0.04732,-1.01754 0.07154,-1.52629 0.02376,-0.53289 0.04623,-1.06584 0.06335,-1.59898 0.01767,-0.57687 0.03152,-1.15384 0.04493,-1.73083 0.01537,-0.61954 0.03169,-1.23906 0.05021,-1.85851 0.01876,-0.62493 0.03889,-1.24982 0.06009,-1.87467 0.01894,-0.60997 0.03399,-1.22003 0.04921,-1.8301 0.01619,-0.595 0.0336,-1.18998 0.05499,-1.78482 0.01744,-0.49631 0.03559,-0.99261 0.04737,-1.48909 0.0089,-0.43095 0.01101,-0.86195 0.01154,-1.29298 0.0013,-0.34403 0.0029,-0.68806 0.0055,-1.03209 0.0019,-0.2214 0.0035,-0.4428 0.0071,-0.66418 0.08577,-4.86354 6.96387,-4.74224 6.878095,0.12131 z"
       inkscape:connector-curvature="0" />
    <path
       style="opacity:1;fill:#020900;fill-opacity:1;stroke:none;stroke-width:1;stroke-linecap:butt;stroke-linejoin:round;stroke-miterlimit:4;stroke-dasharray:none;stroke-opacity:1"
       id="path1107"
       d="m 55.066927,207.44056 c 0.03206,0.17117 0.05872,0.34325 0.08438,0.51547 0.0267,0.17541 0.05403,0.35073 0.08083,0.52613 0.03226,0.20121 0.0667,0.40207 0.09978,0.60316 0.04732,0.29472 0.08724,0.59057 0.125719,0.88655 0.05016,0.39986 0.08959,0.80095 0.125905,1.20226 0.04226,0.47987 0.07254,0.96067 0.104463,1.44131 0.03554,0.53218 0.06726,1.0646 0.09652,1.59716 0.03178,0.57616 0.05731,1.15264 0.08052,1.7292 0.02572,0.65187 0.04536,1.30396 0.06375,1.95607 0.01958,0.70429 0.03545,1.40867 0.05029,2.11307 0.01852,0.78069 0.01699,1.56162 0.0096,2.34243 -0.01003,0.82162 -0.02077,1.64323 -0.03022,2.46485 -0.0099,0.87247 -0.01812,1.74495 -0.02604,2.61744 -0.0073,0.85943 -0.01262,1.71887 -0.02882,2.57819 -0.01577,0.83063 -0.05727,1.66044 -0.100185,2.49001 -0.03982,0.75087 -0.08543,1.50141 -0.130482,2.25198 -0.04093,0.68257 -0.07816,1.36534 -0.119078,2.04791 -0.03602,0.60377 -0.07355,1.20745 -0.111554,1.8111 -0.03339,0.54804 -0.06759,1.09604 -0.102938,1.64396 -0.03239,0.49511 -0.06742,0.99005 -0.100947,1.48508 -0.02849,0.42623 -0.05671,0.85247 -0.08684,1.27859 -0.02823,0.3867 -0.06271,0.7729 -0.09921,1.15889 -0.03033,0.31318 -0.05991,0.62644 -0.08893,0.93974 -0.02519,0.27584 -0.05144,0.55156 -0.07637,0.82742 -0.02154,0.23924 -0.04155,0.47862 -0.06129,0.71802 -0.0181,0.22064 -0.03739,0.44118 -0.05575,0.6618 -0.0155,0.18631 -0.0304,0.37268 -0.04475,0.55909 -0.01238,0.16087 -0.02434,0.32177 -0.03617,0.48268 -0.0098,0.13456 -0.01947,0.26913 -0.02917,0.4037 -0.0079,0.10903 -0.01569,0.21806 -0.02355,0.32709 -0.0062,0.0869 -0.01251,0.17388 -0.01876,0.26082 -0.005,0.0693 -0.01,0.13859 -0.01495,0.20788 -0.004,0.0552 -0.0079,0.11046 -0.01193,0.16569 0.0013,-0.0233 -0.0063,0.0931 -0.005,0.0698 0.03145,-0.54759 -0.07237,-0.81559 -0.205486,-1.40257 -0.194858,-0.33211 -0.389716,-0.66422 -0.584573,-0.99633 3.158733,3.69917 -2.072683,8.16629 -5.231419,4.46712 v 0 c -0.205811,-0.34494 -0.411622,-0.68988 -0.617434,-1.03482 -0.12686,-0.54368 -0.291277,-1.03948 -0.217493,-1.59691 0.004,-0.0552 0.008,-0.11046 0.01193,-0.16569 0.005,-0.0693 0.01,-0.13858 0.01495,-0.20788 0.0063,-0.0869 0.01252,-0.17388 0.01876,-0.26082 0.0079,-0.10911 0.01572,-0.21823 0.02355,-0.32734 0.0099,-0.138 0.01984,-0.276 0.02992,-0.414 0.01241,-0.16886 0.02498,-0.33772 0.03796,-0.50654 0.01545,-0.20059 0.03146,-0.40114 0.04816,-0.60164 0.0182,-0.21879 0.03731,-0.43751 0.0553,-0.65633 0.02125,-0.25748 0.0428,-0.51494 0.06598,-0.77226 0.0254,-0.28084 0.05208,-0.56155 0.07774,-0.84236 0.02946,-0.31804 0.05946,-0.63602 0.09026,-0.95393 0.03146,-0.33158 0.06118,-0.66333 0.0857,-0.99551 0.02966,-0.41935 0.05736,-0.83883 0.08543,-1.25829 0.03304,-0.4877 0.06752,-0.9753 0.09949,-1.46306 0.03512,-0.54438 0.06907,-1.08882 0.102259,-1.63332 0.03757,-0.59679 0.07468,-1.19362 0.110291,-1.79053 0.04094,-0.68272 0.0781,-1.36565 0.119102,-2.04837 0.04392,-0.7317 0.08842,-1.46338 0.12732,-2.19538 0.03908,-0.75467 0.07758,-1.50953 0.09223,-2.26515 0.01603,-0.83654 0.0204,-1.67322 0.02786,-2.50987 0.008,-0.87807 0.01624,-1.75614 0.02622,-2.63418 0.0094,-0.8172 0.02003,-1.63437 0.03008,-2.45156 0.0069,-0.71058 0.0086,-1.42127 -0.0084,-2.13174 -0.0145,-0.68808 -0.02996,-1.37614 -0.04908,-2.06411 -0.0176,-0.62456 -0.03634,-1.2491 -0.06092,-1.87344 -0.02183,-0.543 -0.04583,-1.08592 -0.07574,-1.62854 -0.02778,-0.50631 -0.05796,-1.01247 -0.09174,-1.51842 -0.02833,-0.42658 -0.05488,-0.85333 -0.09178,-1.27929 -0.02806,-0.31255 -0.05852,-0.62493 -0.09671,-0.93643 -0.02817,-0.21859 -0.05762,-0.43706 -0.09168,-0.65482 -0.03717,-0.22651 -0.07638,-0.45268 -0.111879,-0.67947 -0.02814,-0.18414 -0.05687,-0.3682 -0.08479,-0.55238 -0.01836,-0.12343 -0.03755,-0.24669 -0.06101,-0.36929 -0.819584,-4.79476 5.961235,-5.95383 6.780818,-1.15906 z"
       inkscape:connector-curvature="0" />
  </g>
</svg>
