<?xml version="1.0" encoding="UTF-8" standalone="no"?>
<!-- Created with Inkscape (http://www.inkscape.org/) -->

<svg
   xmlns:dc="http://purl.org/dc/elements/1.1/"
   xmlns:cc="http://creativecommons.org/ns#"
   xmlns:rdf="http://www.w3.org/1999/02/22-rdf-syntax-ns#"
   xmlns:svg="http://www.w3.org/2000/svg"
   xmlns="http://www.w3.org/2000/svg"
   xmlns:sodipodi="http://sodipodi.sourceforge.net/DTD/sodipodi-0.dtd"
   xmlns:inkscape="http://www.inkscape.org/namespaces/inkscape"
   width="10cm"
   height="10cm"
   viewBox="0 0 100 99.999997"
   version="1.1"
   id="svg8"
   sodipodi:docname="kijetesantakalu.svg"
   inkscape:version="0.92.3 (2405546, 2018-03-11)"
   inkscape:export-filename="C:\Bitnami\wampstack-7.2.24-0\apache2\htdocs\kijetesantakalu.png"
   inkscape:export-xdpi="260.10001"
   inkscape:export-ydpi="260.10001">
  <defs
     id="defs2" />
  <sodipodi:namedview
     id="base"
     pagecolor="#ffffff"
     bordercolor="#666666"
     borderopacity="1.0"
     inkscape:pageopacity="0.0"
     inkscape:pageshadow="2"
     inkscape:zoom="1"
     inkscape:cx="-68.49814"
     inkscape:cy="206.1632"
     inkscape:document-units="cm"
     inkscape:current-layer="layer1"
     showgrid="true"
     units="cm"
     inkscape:window-width="1920"
     inkscape:window-height="1017"
     inkscape:window-x="-8"
     inkscape:window-y="-8"
     inkscape:window-maximized="1"
     inkscape:snap-nodes="false">
    <inkscape:grid
       type="xygrid"
       id="grid815"
       units="cm"
       spacingx="9.9999998"
       spacingy="9.9999998" />
  </sodipodi:namedview>
  <metadata
     id="metadata5">
    <rdf:RDF>
      <cc:Work
         rdf:about="">
        <dc:format>image/svg+xml</dc:format>
        <dc:type
           rdf:resource="http://purl.org/dc/dcmitype/StillImage" />
        <dc:title></dc:title>
      </cc:Work>
    </rdf:RDF>
  </metadata>
  <g
     inkscape:label="Layer 1"
     inkscape:groupmode="layer"
     id="layer1"
     transform="translate(0,-197.00002)">
    <path
       style="opacity:1;fill:#000000;fill-opacity:1;stroke:none;stroke-width:1;stroke-linecap:butt;stroke-linejoin:round;stroke-miterlimit:4;stroke-dasharray:none;stroke-opacity:1"
       id="path894"
       d="m 34.713588,219.53952 c 0.0276,0.0936 0.06764,0.1825 0.111328,0.2695 -0.01738,0.002 -0.129918,-0.11596 -0.162486,-0.14639 -0.175355,-0.16415 -0.376991,-0.29482 -0.578826,-0.42331 -0.392361,-0.24205 -0.799833,-0.45817 -1.209892,-0.66835 -0.503806,-0.26072 -1.02924,-0.47468 -1.561303,-0.66975 -0.581637,-0.21225 -1.180645,-0.36821 -1.784475,-0.5018 -0.611275,-0.13402 -1.230878,-0.21756 -1.854599,-0.26208 -0.65537,-0.0384 -1.311876,-0.0184 -1.966233,0.0263 -0.685866,0.0494 -1.360331,0.18308 -2.028719,0.33889 -0.730567,0.17735 -1.448551,0.40105 -2.159958,0.64299 -0.648239,0.21946 -1.274442,0.49472 -1.8869,0.79863 -0.595101,0.30157 -1.165492,0.648 -1.722365,1.01455 -0.523384,0.34338 -0.997588,0.7516 -1.456796,1.17499 -0.4905,0.45713 -0.944282,0.95091 -1.379748,1.46011 -0.423888,0.49783 -0.799419,1.03301 -1.152515,1.58247 -0.371924,0.58686 -0.686406,1.20652 -0.977813,1.83638 -0.31113,0.68352 -0.560182,1.39242 -0.786812,2.10766 -0.232088,0.74271 -0.398735,1.50308 -0.543683,2.26686 -0.13811,0.72849 -0.20472,1.46675 -0.236637,2.20665 -0.02922,0.7125 0.02558,1.42346 0.107675,2.13056 0.08146,0.69668 0.236191,1.38055 0.426651,2.05461 0.179897,0.62268 0.443936,1.21468 0.733719,1.79273 0.281906,0.55594 0.627103,1.07463 1.008376,1.5665 0.395202,0.50053 0.860493,0.93765 1.33272,1.36372 0.528385,0.47412 1.095468,0.90116 1.674545,1.31067 0.595208,0.41846 1.226746,0.78022 1.86452,1.12877 0.645217,0.35322 1.312729,0.662 1.989448,0.94922 0.605372,0.2616 1.236232,0.45076 1.876952,0.60202 0.696298,0.15752 1.407035,0.23076 2.117428,0.28741 0.759688,0.0594 1.521564,0.0625 2.282574,0.0354 0.757156,-0.0321 1.510652,-0.11522 2.261169,-0.21725 0.73769,-0.10312 1.465157,-0.26387 2.186503,-0.4473 0.702556,-0.18308 1.386925,-0.42599 2.06057,-0.69501 0.688409,-0.28427 1.356503,-0.61418 2.017781,-0.95599 0.684924,-0.35411 1.340789,-0.75924 1.980306,-1.18898 0.64335,-0.43755 1.24709,-0.92879 1.842799,-1.42816 0.582636,-0.48595 1.140748,-0.99952 1.667068,-1.54581 0.537684,-0.5751 1.026062,-1.19368 1.511734,-1.81258 0.522772,-0.66442 1.026938,-1.34311 1.52159,-2.02862 0.49553,-0.68613 0.963681,-1.39125 1.424757,-2.10079 0.476552,-0.73374 0.932262,-1.48061 1.38502,-2.22915 0.466203,-0.77098 0.926682,-1.5454 1.388237,-2.31916 0.4655,-0.78373 0.942755,-1.56035 1.423963,-2.3345 0.473274,-0.76751 0.970095,-1.51991 1.478153,-2.26472 0.496414,-0.72384 1.006891,-1.43786 1.524937,-2.14633 0.491569,-0.67108 0.99596,-1.3326 1.507567,-1.98848 0.505957,-0.65135 1.036481,-1.28274 1.583983,-1.89938 0.572379,-0.6453 1.197827,-1.23913 1.844562,-1.80869 0.627631,-0.54592 1.296794,-1.04059 1.971336,-1.52627 0.599482,-0.43166 1.211244,-0.84575 1.828408,-1.25158 0.603113,-0.39798 1.224174,-0.76718 1.855253,-1.11874 0.660638,-0.36878 1.349423,-0.68156 2.048105,-0.97017 0.677868,-0.27426 1.372669,-0.50306 2.069516,-0.72343 0.654653,-0.20874 1.318445,-0.38596 1.986743,-0.54487 0.731694,-0.17637 1.477523,-0.27597 2.225598,-0.34887 0.745014,-0.0655 1.492763,-0.0875 2.240328,-0.0925 0.744434,-0.003 1.487799,0.0376 2.229291,0.10022 0.743863,0.063 1.479005,0.19245 2.207768,0.35085 0.70675,0.15744 1.395791,0.37996 2.074947,0.62874 0.664568,0.25168 1.308532,0.55312 1.946643,0.86475 0.631968,0.30785 1.24524,0.6513 1.846736,1.01457 0.685345,0.40957 1.320202,0.89233 1.926712,1.40965 0.654823,0.56753 1.216327,1.22783 1.750626,1.90688 0.491818,0.63266 0.932434,1.30198 1.350161,1.9851 0.444778,0.73275 0.819116,1.50399 1.162709,2.28827 0.346196,0.80719 0.613987,1.64422 0.865955,2.48458 0.234661,0.78779 0.430884,1.58599 0.602223,2.3897 0.165447,0.7963 0.276228,1.60221 0.372176,2.40936 0.09275,0.77809 0.145444,1.55985 0.175414,2.34262 0.02344,0.74507 0.0067,1.49058 -0.01805,2.23535 -0.0226,0.69498 -0.07119,1.38851 -0.138763,2.08044 -0.06873,0.67387 -0.172922,1.34325 -0.29082,2.01003 -0.121422,0.7 -0.306784,1.38572 -0.519192,2.06288 -0.205256,0.63847 -0.461803,1.25843 -0.734904,1.87037 -0.290422,0.66192 -0.656952,1.28403 -1.05555,1.88548 -0.396592,0.58577 -0.850878,1.12845 -1.319363,1.65727 -0.438878,0.49138 -0.912106,0.95004 -1.394918,1.39771 -0.469177,0.43054 -0.960744,0.83544 -1.460534,1.22966 -0.521764,0.41454 -1.072835,0.78865 -1.637699,1.14131 -0.617361,0.38379 -1.26982,0.70399 -1.933422,0.9985 -0.679696,0.29712 -1.384125,0.53024 -2.094278,0.74186 -0.693105,0.2034 -1.399002,0.35686 -2.108856,0.48806 -0.723053,0.13219 -1.454742,0.20191 -2.187924,0.24356 -0.734877,0.0409 -1.469734,0.004 -2.201357,-0.0659 -0.76299,-0.0768 -1.510649,-0.24644 -2.248559,-0.44969 -0.740508,-0.21236 -1.459156,-0.49081 -2.169342,-0.78728 -0.686414,-0.29165 -1.358091,-0.61592 -2.024968,-0.94935 -0.63242,-0.31985 -1.261094,-0.64705 -1.887839,-0.97785 -0.708403,-0.36919 -1.392748,-0.7811 -2.067173,-1.20848 -0.663142,-0.42154 -1.303941,-0.8764 -1.933472,-1.34624 -0.645115,-0.48473 -1.256321,-1.01205 -1.862913,-1.54354 -0.581626,-0.51473 -1.159015,-1.03423 -1.736085,-1.55405 -0.615878,-0.55252 -1.223052,-1.11452 -1.822812,-1.68445 -0.618527,-0.59156 -1.225172,-1.19537 -1.830835,-1.80003 -0.613775,-0.614 -1.219044,-1.23641 -1.825278,-1.85783 -0.615334,-0.62792 -1.228079,-1.2583 -1.832692,-1.89656 -0.589031,-0.62287 -1.164058,-1.25871 -1.739522,-1.89406 -0.525819,-0.58035 -1.060177,-1.15287 -1.594019,-1.72582 -0.507362,-0.54473 -1.017828,-1.08655 -1.532739,-1.62415 -0.465286,-0.48467 -0.939546,-0.96057 -1.419199,-1.43099 -0.423185,-0.41409 -0.862176,-0.81142 -1.305044,-1.20422 -0.419973,-0.37328 -0.847936,-0.73733 -1.281366,-1.09484 -0.392446,-0.32304 -0.794748,-0.63369 -1.198176,-0.9428 -0.402495,-0.30571 -0.801209,-0.61634 -1.199899,-0.92698 -0.312547,-0.24615 -0.63078,-0.48472 -0.956297,-0.71341 -0.334219,-0.23207 -0.669867,-0.46208 -1.004178,-0.69402 -0.31478,-0.21917 -0.628592,-0.43973 -0.941176,-0.66202 -0.267139,-0.18907 -0.533403,-0.37936 -0.80182,-0.56662 -0.244689,-0.1696 -0.491633,-0.3359 -0.738084,-0.50292 -0.233953,-0.15983 -0.469763,-0.31691 -0.705427,-0.47419 -0.217175,-0.14505 -0.433308,-0.29165 -0.649097,-0.43875 -0.171085,-0.117 -0.342463,-0.23357 -0.514466,-0.34921 -0.14922,-0.10007 -0.298651,-0.19984 -0.448054,-0.29964 -0.190672,-0.12198 -0.02336,-0.0172 0.0632,0.0291 -4.048128,-1.94265 -1.300803,-7.66757 2.747325,-5.72492 v 0 c 0.247176,0.12408 0.490307,0.25571 0.716679,0.41551 0.154943,0.1035 0.309915,0.20696 0.464656,0.31076 0.183002,0.12311 0.365451,0.24704 0.547487,0.37157 0.198585,0.13539 0.397465,0.27033 0.597326,0.40383 0.248142,0.16561 0.496398,0.33107 0.74277,0.49931 0.270475,0.1833 0.541464,0.36588 0.809834,0.55227 0.283921,0.19821 0.565846,0.39924 0.848381,0.59942 0.292304,0.20798 0.585912,0.41413 0.880255,0.61922 0.346827,0.24064 0.695209,0.47902 1.041646,0.72021 0.408237,0.28819 0.809361,0.58606 1.201857,0.89542 0.385215,0.30014 0.770411,0.60033 1.159351,0.89565 0.464236,0.35576 0.926669,0.71395 1.378114,1.08592 0.491578,0.40599 0.977411,0.81885 1.453891,1.24251 0.521944,0.46337 1.038863,0.93258 1.537491,1.42113 0.526516,0.51677 1.047409,1.03926 1.558166,1.57165 0.5349,0.55862 1.065405,1.1214 1.592487,1.6874 0.554188,0.59479 1.108803,1.18924 1.654601,1.79177 0.543851,0.60045 1.087004,1.20161 1.643528,1.79041 0.582914,0.61565 1.174277,1.22311 1.767536,1.82878 0.586766,0.60147 1.172519,1.20397 1.766485,1.79835 0.568934,0.56805 1.138653,1.13543 1.71939,1.69146 0.558376,0.53104 1.124217,1.05408 1.697759,1.56873 0.555782,0.50065 1.111888,1.00098 1.67185,1.49696 0.482676,0.42334 0.967343,0.84545 1.479616,1.23303 0.499171,0.37412 1.00811,0.73525 1.534189,1.07083 0.530989,0.33783 1.06988,0.66336 1.628486,0.95398 0.585878,0.30936 1.173652,0.61517 1.764702,0.91456 0.539742,0.27029 1.082914,0.53408 1.638012,0.7717 0.465579,0.19622 0.936143,0.38214 1.420601,0.52711 0.384426,0.10962 0.773694,0.20341 1.171821,0.24755 0.407421,0.0432 0.816906,0.0646 1.226624,0.0441 0.465757,-0.0237 0.930452,-0.0672 1.389954,-0.14912 0.487723,-0.088 0.972418,-0.19299 1.448882,-0.33036 0.452697,-0.13293 0.902399,-0.27793 1.336562,-0.46389 0.392818,-0.17119 0.779094,-0.35762 1.144621,-0.58233 0.366665,-0.22569 0.722173,-0.46848 1.059744,-0.73618 0.368136,-0.28913 0.730044,-0.58632 1.076291,-0.90155 0.331821,-0.30606 0.657838,-0.61898 0.960413,-0.95437 0.277405,-0.31083 0.54931,-0.62753 0.787951,-0.96965 0.20615,-0.30232 0.392734,-0.61691 0.53949,-0.95295 0.17553,-0.38883 0.340667,-0.78283 0.475023,-1.18804 0.132424,-0.41261 0.246779,-0.83098 0.321368,-1.25834 0.09028,-0.50499 0.169899,-1.012 0.223565,-1.52234 0.05547,-0.55552 0.093,-1.11252 0.111704,-1.67055 0.02021,-0.5953 0.03516,-1.1912 0.01881,-1.7868 -0.02172,-0.61223 -0.06415,-1.2235 -0.135808,-1.83206 -0.07242,-0.61591 -0.154323,-1.23115 -0.278244,-1.83916 -0.133329,-0.63471 -0.290065,-1.26421 -0.473845,-1.88631 -0.178154,-0.59753 -0.363273,-1.19422 -0.604602,-1.76988 -0.224308,-0.52066 -0.471492,-1.03166 -0.763047,-1.51849 -0.286282,-0.47234 -0.589082,-0.93466 -0.92596,-1.37286 -0.276714,-0.35553 -0.559795,-0.70872 -0.895538,-1.01126 -0.335409,-0.29463 -0.693251,-0.56152 -1.076126,-0.79204 -0.436949,-0.26672 -0.884862,-0.51491 -1.344663,-0.74023 -0.444675,-0.21809 -0.892636,-0.43077 -1.354154,-0.61126 -0.4056,-0.15152 -0.817435,-0.28651 -1.239707,-0.38412 -0.457849,-0.10246 -0.920115,-0.18489 -1.38793,-0.22611 -0.54867,-0.0482 -1.098905,-0.0776 -1.649865,-0.077 -0.558036,0.002 -1.116172,0.0183 -1.672537,0.0638 -0.459486,0.0426 -0.918015,0.0989 -1.367438,0.20702 -0.517163,0.12154 -1.030222,0.2596 -1.536589,0.42071 -0.527505,0.16633 -1.054182,0.33698 -1.568318,0.54168 -0.470143,0.19165 -0.933228,0.40055 -1.377408,0.64739 -0.494448,0.27377 -0.979701,0.56365 -1.451832,0.87455 -0.542753,0.35652 -1.080659,0.72043 -1.60777,1.09981 -0.508934,0.36575 -1.015955,0.73554 -1.491445,1.14457 -0.45217,0.39463 -0.888471,0.80737 -1.288053,1.25591 -0.458113,0.51384 -0.899578,1.04212 -1.322382,1.58549 -0.471315,0.6038 -0.935654,1.21305 -1.388483,1.83087 -0.477462,0.65261 -0.947767,1.31047 -1.405406,1.97718 -0.457478,0.66991 -0.904451,1.34691 -1.330137,2.03759 -0.460766,0.74116 -0.917787,1.48466 -1.363414,2.23505 -0.468249,0.785 -0.935437,1.57063 -1.408424,2.35277 -0.488321,0.80721 -0.980297,1.61231 -1.494362,2.40347 -0.51771,0.79612 -1.043905,1.58691 -1.600208,2.35678 -0.54501,0.75458 -1.100105,1.50191 -1.675839,2.23343 -0.622477,0.79226 -1.252196,1.58097 -1.947389,2.31146 -0.682466,0.70069 -1.396354,1.36915 -2.149332,1.99409 -0.770509,0.6444 -1.554236,1.27457 -2.387711,1.83673 -0.840721,0.56082 -1.701223,1.09195 -2.600452,1.55484 -0.847357,0.43644 -1.704096,0.85632 -2.587691,1.21525 -0.931151,0.36759 -1.876322,0.70087 -2.847128,0.94914 -0.954664,0.23983 -1.91716,0.45032 -2.893187,0.5837 -0.961274,0.12867 -1.926291,0.23323 -2.895992,0.27055 -1.004157,0.0323 -2.009425,0.0281 -3.011574,-0.0528 -1.038083,-0.0859 -2.075347,-0.20419 -3.090949,-0.44353 -0.980755,-0.23975 -1.94833,-0.531 -2.876394,-0.93292 -0.867735,-0.37069 -1.724165,-0.76791 -2.551817,-1.22223 -0.852089,-0.46773 -1.693532,-0.95675 -2.487798,-1.51877 -0.783552,-0.55725 -1.54996,-1.13935 -2.264263,-1.78429 -0.7564953,-0.68768 -1.4904323,-1.40363 -2.1157963,-2.21562 -0.620628,-0.81977 -1.19184,-1.67632 -1.650248,-2.59898 -0.462189,-0.93855 -0.878975,-1.9006 -1.161986,-2.91026 -0.27561,-0.99929 -0.502506,-2.01195 -0.619068,-3.04348 -0.11592,-1.04165 -0.188975,-2.08886 -0.141273,-3.1376 0.05016,-1.04187 0.145697,-2.08159 0.34296,-3.10714 0.194756,-1.01218 0.419614,-2.01939 0.730751,-3.00306 0.31093,-0.97055 0.652756,-1.93211 1.079937,-2.85852 0.417878,-0.89368 0.868623,-1.77268 1.401979,-2.604 0.51194,-0.78858 1.054796,-1.5574 1.6676103,-2.2718 0.602041,-0.69901 1.22813,-1.37775 1.906419,-2.00412 0.714512,-0.65239 1.456032,-1.27633 2.268008,-1.80579 0.774722,-0.50577 1.56707,-0.9853 2.395487,-1.39895 0.862964,-0.42311 1.743594,-0.80965 2.655397,-1.11655 0.912943,-0.3085 1.834257,-0.59376 2.772284,-0.8168 1.001358,-0.2288 2.012582,-0.41888 3.039295,-0.48742 0.953101,-0.0607 1.90921,-0.0867 2.86308,-0.0216 0.927748,0.0733 1.850845,0.19358 2.759922,0.39714 0.8802,0.19861 1.753235,0.43019 2.600708,0.74295 0.770213,0.28666 1.531321,0.59884 2.261439,0.9779 0.596506,0.30738 1.188643,0.6247 1.755765,0.98421 0.541853,0.35329 1.06917,0.7306 1.535173,1.18178 0.390768,0.38023 0.765955,0.77878 1.066284,1.2363 0.244369,0.38295 0.466561,0.78089 0.606592,1.21535 1.412975,4.26201 -4.614421,6.26026 -6.027397,1.99825 z"
       inkscape:connector-curvature="0" />
    <path
       style="opacity:1;fill:#000000;fill-opacity:1;stroke:none;stroke-width:1;stroke-linecap:butt;stroke-linejoin:round;stroke-miterlimit:4;stroke-dasharray:none;stroke-opacity:1"
       id="path896"
       d="m 29.767636,230.77808 c 0.03236,-0.48972 -0.132662,-0.94349 -0.343064,-1.37683 -0.303575,-0.54207 -0.765916,-0.90354 -1.323488,-1.1512 -0.42205,-0.16635 -0.867987,-0.18678 -1.312079,-0.12352 -0.564656,0.0957 -1.024017,0.40891 -1.433926,0.79333 -0.1769,0.18067 -0.336192,0.41913 -0.444965,0.63479 -7.94e-4,0.002 -1.9e-5,-0.004 -2.7e-5,-0.006 -0.104267,0.30078 -0.129418,0.61898 -0.131326,0.93502 0.0043,0.229 0.04159,0.4549 0.09845,0.67608 0.03081,0.11378 0.07658,0.22256 0.120904,0.33153 0.118904,0.24444 0.06777,0.14932 0.145462,0.28947 -2.233345,-3.89531 3.275452,-7.05373 5.508797,-3.15843 v 0 c 0.08662,0.15553 0.03092,0.0522 0.15911,0.31411 0.06357,0.15498 0.125146,0.31074 0.169585,0.47249 0.08151,0.28608 0.136623,0.57961 0.144637,0.8779 2.46e-4,0.43607 -0.04764,0.87005 -0.195794,1.28276 -0.05639,0.16578 -0.116163,0.33047 -0.185293,0.49143 -0.185492,0.4277 -0.415118,0.83412 -0.73482,1.17829 -0.566769,0.54953 -1.210339,0.97106 -1.99853,1.11866 -0.707665,0.11644 -1.417873,0.10629 -2.098847,-0.14684 -0.816462,-0.3406 -1.515319,-0.8338 -1.973863,-1.61186 -0.3287,-0.64337 -0.556413,-1.31589 -0.51685,-2.04845 0.160827,-4.48725 6.506752,-4.2598 6.345925,0.22744 z"
       inkscape:connector-curvature="0" />
    <path
       style="opacity:1;fill:#000000;fill-opacity:1;stroke:none;stroke-width:1;stroke-linecap:butt;stroke-linejoin:round;stroke-miterlimit:4;stroke-dasharray:none;stroke-opacity:1"
       id="path900"
       d="m 27.26504,265.03463 c 0.07263,-0.0651 0.133276,-0.14253 0.198284,-0.2142 -0.0447,0.0927 -0.08038,0.18967 -0.11436,0.28684 -0.08798,0.26212 -0.148125,0.53227 -0.200205,0.80344 -0.071,0.39846 -0.09391,0.80308 -0.104871,1.20698 -0.0099,0.43552 0.04275,0.868 0.10798,1.29758 0.08298,0.51922 0.209139,1.02973 0.349644,1.53594 0.13622,0.49372 0.319474,0.97145 0.53227,1.43668 0.198107,0.43023 0.453361,0.82907 0.72358,1.21668 0.290544,0.41261 0.625155,0.79051 0.969208,1.15861 0.354687,0.37996 0.743125,0.72482 1.147562,1.05039 0.417271,0.33292 0.86637,0.62156 1.323297,0.89618 0.453845,0.2719 0.929611,0.50297 1.415802,0.71033 0.437689,0.18827 0.894535,0.32061 1.359757,0.41918 0.514252,0.10189 1.038682,0.12656 1.561269,0.14393 0.59182,0.0178 1.183815,0.004 1.773933,-0.0428 0.485087,-0.0415 0.963589,-0.13186 1.436989,-0.24288 0.399868,-0.0964 0.787014,-0.23484 1.165326,-0.39481 0.332928,-0.14343 0.642316,-0.3324 0.946076,-0.52854 0.32794,-0.21625 0.63814,-0.45739 0.942721,-0.70498 0.275622,-0.2244 0.531241,-0.47121 0.778899,-0.72568 0.248324,-0.2584 0.486338,-0.52635 0.714081,-0.803 0.213765,-0.26445 0.41162,-0.54112 0.607735,-0.81875 0.198099,-0.28173 0.387773,-0.56924 0.576725,-0.85715 0.165711,-0.25138 0.32674,-0.50577 0.483164,-0.76302 0.137943,-0.22836 0.269631,-0.4604 0.400103,-0.69308 0.127571,-0.22827 0.254582,-0.45685 0.381661,-0.68539 0.109273,-0.19653 0.218535,-0.39306 0.3278,-0.5896 0.115181,-0.20975 0.237567,-0.41527 0.366128,-0.61706 0.280757,-0.46237 0.673441,-0.82348 1.108483,-1.13684 0.763169,-0.47621 1.686173,-0.68016 2.574086,-0.45963 0.253124,0.0629 0.489828,0.17936 0.734742,0.26903 0.805358,0.42285 1.333172,1.10147 1.66297,1.92802 0.09819,0.26051 0.172445,0.52903 0.247801,0.79677 0.04106,0.15272 0.08958,0.3031 0.144336,0.4514 0.05504,0.15122 0.121935,0.2974 0.194069,0.4411 0.09341,0.1848 0.198353,0.36341 0.309282,0.53815 0.155588,0.24488 0.31923,0.48458 0.491638,0.71791 0.151569,0.20418 0.330195,0.38557 0.507637,0.56689 0.292098,0.29682 0.593384,0.58421 0.900632,0.86524 0.312295,0.28721 0.645858,0.54918 0.984517,0.8042 0.388297,0.29031 0.785839,0.56784 1.19203,0.83246 0.40418,0.26037 0.827743,0.48846 1.25218,0.71357 0.445945,0.23846 0.904859,0.45096 1.371981,0.64421 0.407352,0.16634 0.832157,0.28048 1.262721,0.36709 0.390028,0.0753 0.787149,0.0883 1.183045,0.0777 0.386249,-0.0152 0.76686,-0.0861 1.143616,-0.16816 0.37314,-0.0823 0.73424,-0.20754 1.089904,-0.34545 0.319376,-0.12418 0.619614,-0.28893 0.911939,-0.46628 0.298889,-0.18289 0.570751,-0.40374 0.833922,-0.63389 0.27781,-0.24475 0.531061,-0.51463 0.767082,-0.79938 0.250148,-0.31366 0.463479,-0.65418 0.672764,-0.99577 0.196274,-0.31702 0.356132,-0.65335 0.493438,-0.99941 0.128817,-0.32813 0.205936,-0.67184 0.273002,-1.01683 0.07968,-0.43316 0.134607,-0.87029 0.175474,-1.30867 0.03263,-0.32045 0.0226,-0.64187 -0.0056,-0.96198 -0.03056,-0.3431 -0.108667,-0.67879 -0.190759,-1.01247 -0.11426,-0.4502 -0.248232,-0.89502 -0.38299,-1.33941 -0.131463,-0.43035 -0.261948,-0.86105 -0.402865,-1.28842 -0.112683,-0.34067 -0.250793,-0.67204 -0.390229,-1.0024 -0.153082,-0.35817 -0.309866,-0.71474 -0.466039,-1.07157 -0.134573,-0.30696 -0.27127,-0.61298 -0.408554,-0.91874 -0.11965,-0.26623 -0.239456,-0.5324 -0.359241,-0.79858 -0.101719,-0.22603 -0.203443,-0.45205 -0.305165,-0.67808 -0.08612,-0.19135 -0.172233,-0.3827 -0.258349,-0.57404 -0.03837,-0.0909 -0.08539,-0.17764 -0.131438,-0.26477 -0.05299,-0.10016 -0.107944,-0.19927 -0.162557,-0.29855 -0.05347,-0.0971 -0.106979,-0.19426 -0.160483,-0.29138 -0.04555,-0.0827 -0.09111,-0.16538 -0.136665,-0.24806 -0.02983,-0.0574 -0.06603,-0.11313 -0.01122,-0.0231 -2.415562,-3.78501 2.937253,-7.20113 5.352814,-3.41612 v 0 c 0.07725,0.12275 0.151458,0.24733 0.220199,0.37507 0.04557,0.0827 0.09114,0.16543 0.136711,0.24815 0.05414,0.0983 0.108283,0.19654 0.162385,0.29483 0.07234,0.13151 0.144886,0.26291 0.214889,0.39567 0.107797,0.20449 0.21286,0.41051 0.305962,0.6222 0.08612,0.19135 0.172233,0.3827 0.25835,0.57406 0.10174,0.22606 0.203477,0.45212 0.305215,0.67818 0.120534,0.26784 0.241088,0.53567 0.361484,0.80357 0.145481,0.32403 0.290301,0.64835 0.432898,0.97365 0.167828,0.38346 0.33632,0.76664 0.500452,1.15169 0.205772,0.48891 0.405646,0.98074 0.570944,1.48511 0.155652,0.47448 0.302329,0.9518 0.447461,1.4296 0.169201,0.55842 0.336002,1.11782 0.476988,1.68417 0.159385,0.66255 0.297016,1.33137 0.350271,2.01208 0.05112,0.68708 0.06621,1.37673 -0.0036,2.06348 -0.0635,0.65435 -0.146012,1.30711 -0.270573,1.95296 -0.150085,0.73675 -0.33456,1.46723 -0.618757,2.16531 -0.274884,0.66631 -0.584216,1.31802 -0.965817,1.93088 -0.375491,0.60833 -0.766574,1.20886 -1.224661,1.75924 -0.456062,0.53703 -0.938395,1.05159 -1.472038,1.51309 -0.545399,0.46815 -1.112422,0.91192 -1.730671,1.28128 -0.609323,0.36073 -1.236009,0.69277 -1.899087,0.94508 -0.665745,0.25245 -1.342395,0.47773 -2.039956,0.62588 -0.777052,0.16234 -1.562849,0.28989 -2.358483,0.30546 -0.869659,0.01 -1.740402,-0.0343 -2.594189,-0.21317 -0.817753,-0.17606 -1.625952,-0.39677 -2.399186,-0.72046 -0.647557,-0.27167 -1.286219,-0.56429 -1.905328,-0.89645 -0.593905,-0.3158 -1.184357,-0.63952 -1.748454,-1.00679 -0.525597,-0.34451 -1.042093,-0.70267 -1.544508,-1.08037 -0.498163,-0.37713 -0.987472,-0.7662 -1.447443,-1.1897 -0.394824,-0.36236 -0.782846,-0.73205 -1.158012,-1.11484 -0.38291,-0.39397 -0.756142,-0.79849 -1.080339,-1.24318 -0.26262,-0.35952 -0.515937,-0.72584 -0.752882,-1.10291 -0.224015,-0.35988 -0.438394,-0.72597 -0.625898,-1.10646 -0.172239,-0.35305 -0.333479,-0.71147 -0.466466,-1.08141 -0.105773,-0.29445 -0.204169,-0.59147 -0.286351,-0.89347 -0.02371,-0.0843 -0.114818,-0.17956 -0.06826,-0.25374 0.27976,0.65139 0.787284,1.145 1.410081,1.47855 0.230883,0.0826 0.454258,0.19037 0.692655,0.2478 0.806604,0.19431 1.652739,0.0191 2.344439,-0.41898 0.284043,-0.20878 0.563359,-0.43648 0.749961,-0.74139 -0.0577,0.0885 -0.108923,0.1809 -0.160454,0.27313 -0.109347,0.19668 -0.218691,0.39337 -0.328046,0.59004 -0.130876,0.23537 -0.261678,0.47078 -0.393086,0.70585 -0.167696,0.29889 -0.33745,0.59667 -0.51512,0.88978 -0.194024,0.31819 -0.392779,0.63344 -0.59799,0.94456 -0.229203,0.34909 -0.459793,0.69736 -0.70045,1.03872 -0.289251,0.40872 -0.583316,0.81441 -0.901002,1.20174 -0.341627,0.4113 -0.695372,0.81243 -1.068035,1.19604 -0.419685,0.42716 -0.853472,0.84067 -1.319398,1.21765 -0.489212,0.39535 -0.989287,0.77794 -1.517806,1.11987 -0.619395,0.39412 -1.256337,0.76226 -1.935514,1.04506 -0.706631,0.29011 -1.427835,0.54477 -2.173179,0.71731 -0.785852,0.1789 -1.579785,0.32415 -2.38437,0.38679 -0.824317,0.0602 -1.650725,0.0853 -2.477151,0.0568 -0.908436,-0.0338 -1.81805,-0.0974 -2.708798,-0.29023 -0.854343,-0.19339 -1.696432,-0.43741 -2.501125,-0.78808 -0.749729,-0.32557 -1.485432,-0.68323 -2.185585,-1.10663 -0.706068,-0.42837 -1.398022,-0.88124 -2.041187,-1.40093 -0.63129,-0.51523 -1.240266,-1.05756 -1.794978,-1.65572 -0.551402,-0.59492 -1.08308,-1.20926 -1.545918,-1.87683 -0.484127,-0.70594 -0.935363,-1.43529 -1.287777,-2.21739 -0.341197,-0.76532 -0.643472,-1.5474 -0.863738,-2.35702 -0.206957,-0.75631 -0.391279,-1.51932 -0.509459,-2.2952 -0.116228,-0.80302 -0.198384,-1.61197 -0.172649,-2.42474 0.02588,-0.75286 0.07948,-1.50608 0.224138,-2.24675 0.121313,-0.598 0.262718,-1.19295 0.472718,-1.76696 0.171622,-0.4561 0.360735,-0.90651 0.610566,-1.3263 0.232373,-0.38262 0.48582,-0.75386 0.807315,-1.0685 3.200884,-3.1489 7.654107,1.37783 4.453223,4.52674 z"
       inkscape:connector-curvature="0" />
    <path
       style="opacity:1;fill:#000000;fill-opacity:1;stroke:none;stroke-width:1;stroke-linecap:butt;stroke-linejoin:round;stroke-miterlimit:4;stroke-dasharray:none;stroke-opacity:1"
       id="path902"
       d="m 74.884288,227.68532 c 0.01503,0.0259 0.03074,0.0513 0.04672,0.0766 -0.06575,-0.10413 -0.144745,-0.1991 -0.229097,-0.28858 -0.01397,-0.0269 -0.193702,-0.15769 -0.27768,-0.21671 -0.176205,-0.11563 -0.367144,-0.20757 -0.56705,-0.27391 -0.202144,-0.0659 -0.41483,-0.0831 -0.625531,-0.10068 -0.429011,-0.024 -0.837803,0.0732 -1.232492,0.23026 -0.384794,0.16037 -0.696135,0.42252 -0.978223,0.72298 -0.01378,-0.0171 -0.217755,0.2936 -0.163013,0.20713 -0.138935,0.18993 -0.294539,0.61546 -0.369043,0.91911 -0.02604,0.0991 -0.04517,0.29182 -0.05186,0.36783 0.0013,-0.0311 0.0027,-0.0622 0.004,-0.0933 0.0013,-0.0301 0.0026,-0.0601 0.0038,-0.0902 -2.35e-4,0.01 0.0013,-0.0359 0.0011,-0.027 -0.0072,0.29843 0.02843,0.57853 0.08982,0.86964 0.116014,0.5112 0.40518,0.93654 0.734618,1.33312 0.225531,0.24015 0.489286,0.44128 0.779172,0.59689 0.0067,0.0277 0.503282,0.20884 0.331226,0.14833 0.06636,0.0229 0.09125,0.0302 0.02748,0.011 -0.0324,-0.01 -0.0648,-0.0194 -0.09721,-0.0291 -0.02813,-0.008 -0.05627,-0.0169 -0.0844,-0.0253 0.158223,0.05 0.320093,0.0806 0.483806,0.10348 -4.456168,-0.55119 -3.676674,-6.85316 0.779494,-6.30198 v 0 c 0.188699,0.0256 0.375833,0.0582 0.558277,0.11538 0.02817,0.008 0.05634,0.0169 0.0845,0.0253 0.03405,0.0102 0.0681,0.0204 0.10215,0.0306 0.08497,0.0256 0.169974,0.0511 0.253685,0.0806 0.1103,0.0389 0.352325,0.12975 0.502346,0.21395 0.33265,0.17683 0.640728,0.39768 0.899033,0.67396 0.360746,0.43122 0.671359,0.89545 0.798306,1.45232 0.07041,0.3276 0.126267,0.65896 0.100926,0.99589 -0.0013,0.0303 -0.0026,0.0605 -0.0038,0.0908 -0.0016,0.0402 -0.0034,0.0803 -0.0052,0.12049 -0.0098,0.20793 -0.02906,0.41567 -0.07215,0.6197 -0.100428,0.42287 -0.244022,0.83527 -0.487579,1.19925 -0.112469,0.17721 -0.229653,0.35178 -0.366845,0.51122 -0.364128,0.39588 -0.769416,0.74178 -1.268569,0.95744 -0.503809,0.20605 -1.026625,0.34108 -1.576763,0.31617 -0.342905,-0.0253 -0.684181,-0.0645 -1.012044,-0.17419 -0.352478,-0.11064 -0.694727,-0.25389 -1.005729,-0.45576 -0.265443,-0.18061 -0.520875,-0.37431 -0.747062,-0.60326 -0.236511,-0.23709 -0.457258,-0.49006 -0.637299,-0.77347 -0.09511,-0.14824 -0.187373,-0.29831 -0.272796,-0.45239 -2.180532,-3.92512 3.370421,-7.00885 5.55095,-3.08374 z"
       inkscape:connector-curvature="0" />
  </g>
</svg>
