<svg viewBox="0 0 100 100"><path style="opacity:1;fill:#000;fill-opacity:1;stroke:none;stroke-width:1;stroke-linecap:butt;stroke-linejoin:round;stroke-miterlimit:4;stroke-dasharray:none;stroke-opacity:1" d="M34.714 219.54c.027.093.067.182.11.269-.016.002-.129-.116-.162-.146a4 4 0 0 0-.578-.424c-.393-.242-.8-.458-1.21-.668a13.5 13.5 0 0 0-3.346-1.172 13 13 0 0 0-1.855-.262 16 16 0 0 0-1.966.027c-.686.049-1.36.183-2.029.339-.73.177-1.448.4-2.16.643-.648.219-1.274.494-1.886.798a18 18 0 0 0-1.723 1.015c-.523.343-.997.751-1.457 1.175-.49.457-.944.95-1.38 1.46a15 15 0 0 0-1.152 1.582 16 16 0 0 0-.978 1.837 19 19 0 0 0-.787 2.107 20 20 0 0 0-.543 2.267 15.4 15.4 0 0 0-.237 2.207c-.03.712.026 1.423.108 2.13.081.697.236 1.38.426 2.055.18.623.444 1.215.734 1.793a10 10 0 0 0 1.009 1.566c.395.5.86.938 1.332 1.364a18 18 0 0 0 1.675 1.31c.595.42 1.227.78 1.864 1.13a22 22 0 0 0 1.99.949 11 11 0 0 0 1.877.602c.696.157 1.407.23 2.117.287.76.06 1.522.063 2.283.035a25 25 0 0 0 2.26-.217 20 20 0 0 0 2.187-.447 17 17 0 0 0 2.061-.695 26 26 0 0 0 2.018-.956c.685-.354 1.34-.76 1.98-1.19.643-.437 1.247-.928 1.843-1.427q.876-.728 1.667-1.546c.538-.575 1.026-1.194 1.512-1.813a61 61 0 0 0 1.521-2.028c.496-.686.964-1.392 1.425-2.101.477-.734.932-1.48 1.385-2.23q.698-1.157 1.388-2.318.7-1.174 1.424-2.335c.474-.767.97-1.52 1.478-2.265a83 83 0 0 1 3.033-4.135 38 38 0 0 1 1.584-1.899 21 21 0 0 1 1.844-1.808c.628-.546 1.297-1.041 1.972-1.527.6-.431 1.211-.845 1.828-1.251a29 29 0 0 1 1.855-1.12 19 19 0 0 1 2.049-.97 28 28 0 0 1 2.07-.723 27 27 0 0 1 1.986-.545 16 16 0 0 1 2.225-.348 28 28 0 0 1 2.24-.093 26 26 0 0 1 2.23.1c.744.063 1.479.193 2.208.351.707.158 1.396.38 2.075.629.664.252 1.308.553 1.946.865.632.308 1.246.651 1.847 1.014.685.41 1.32.893 1.927 1.41.655.567 1.216 1.228 1.75 1.907.492.632.933 1.302 1.35 1.985.445.733.82 1.504 1.163 2.288.347.807.614 1.644.866 2.485.235.787.431 1.586.603 2.39.165.796.276 1.602.372 2.409.092.778.145 1.56.175 2.342.024.745.007 1.491-.018 2.236a32 32 0 0 1-.139 2.08 28 28 0 0 1-.29 2.01c-.122.7-.307 1.386-.52 2.063a19 19 0 0 1-.735 1.87c-.29.662-.657 1.284-1.055 1.886a16 16 0 0 1-1.32 1.657c-.438.492-.912.95-1.394 1.398-.47.43-.961.835-1.461 1.23-.522.414-1.073.788-1.638 1.14a16 16 0 0 1-1.933 1c-.68.297-1.384.53-2.094.741-.693.204-1.4.357-2.11.488-.722.133-1.454.202-2.187.244-.735.04-1.47.004-2.202-.066-.763-.077-1.51-.246-2.248-.45-.74-.212-1.46-.49-2.17-.787a36 36 0 0 1-2.024-.95 122 122 0 0 1-1.888-.977 28 28 0 0 1-2.067-1.209 32 32 0 0 1-1.934-1.346 32 32 0 0 1-1.863-1.543 265 265 0 0 1-1.736-1.555 87 87 0 0 1-1.823-1.684 120 120 0 0 1-1.83-1.8q-.919-.923-1.826-1.858a156 156 0 0 1-1.832-1.896c-.59-.623-1.165-1.26-1.74-1.894q-.791-.868-1.594-1.726a160 160 0 0 0-1.533-1.624q-.699-.727-1.419-1.431a46 46 0 0 0-2.586-2.3 44 44 0 0 0-1.199-.942q-.602-.46-1.2-.927a22 22 0 0 0-.956-.714l-1.004-.694q-.473-.329-.941-.662-.4-.284-.802-.566-.368-.254-.738-.503-.352-.24-.705-.474l-.65-.44-.514-.348-.448-.3c-.19-.122-.023-.017.063.03-4.048-1.944-1.3-7.668 2.747-5.726.248.124.49.256.717.416l.465.31q.274.185.547.372l.598.404q.373.246.742.5.407.272.81.551l.849.6q.438.311.88.62l1.042.72q.613.43 1.201.895.577.451 1.16.895c.464.356.926.714 1.378 1.086a53 53 0 0 1 2.991 2.664q.792.775 1.558 1.572a167 167 0 0 1 1.593 1.687c.554.595 1.109 1.19 1.654 1.792.544.6 1.087 1.201 1.644 1.79q.876.922 1.768 1.829c.586.601 1.172 1.204 1.766 1.798a115 115 0 0 0 1.72 1.692 80 80 0 0 0 1.697 1.568q.833.752 1.672 1.497c.483.424.967.846 1.48 1.233.499.375 1.008.736 1.534 1.071.53.338 1.07.664 1.628.954q.879.465 1.765.915c.54.27 1.083.534 1.638.772.466.196.936.382 1.42.527.385.11.774.203 1.172.247a8 8 0 0 0 1.227.044c.466-.023.93-.067 1.39-.149.488-.088.972-.193 1.449-.33.453-.133.902-.278 1.336-.464.393-.171.78-.358 1.145-.582a11 11 0 0 0 1.06-.737c.368-.289.73-.586 1.076-.901.332-.306.658-.62.96-.955.278-.31.55-.627.788-.97.207-.302.393-.616.54-.952.176-.389.34-.783.475-1.188.132-.413.247-.831.321-1.259.09-.505.17-1.012.224-1.522q.083-.833.112-1.67c.02-.596.035-1.192.018-1.787a23 23 0 0 0-.135-1.832 22 22 0 0 0-.279-1.84 24 24 0 0 0-.473-1.886 18 18 0 0 0-.605-1.77 13 13 0 0 0-.763-1.518c-.286-.472-.59-.935-.926-1.373-.277-.355-.56-.709-.896-1.011a7.5 7.5 0 0 0-1.076-.792 17 17 0 0 0-1.344-.74 18 18 0 0 0-1.355-.612 10 10 0 0 0-1.24-.384 11 11 0 0 0-1.387-.226 19 19 0 0 0-1.65-.077 22 22 0 0 0-1.673.064 10 10 0 0 0-1.367.207q-.776.18-1.537.42c-.527.167-1.054.338-1.568.542-.47.192-.933.4-1.377.648q-.743.409-1.452.874c-.543.357-1.08.72-1.608 1.1a22 22 0 0 0-1.491 1.145c-.453.394-.889.807-1.288 1.255q-.689.771-1.323 1.586a76 76 0 0 0-2.794 3.808 52 52 0 0 0-1.33 2.038c-.46.74-.918 1.484-1.363 2.235q-.701 1.178-1.409 2.352c-.488.808-.98 1.613-1.494 2.404a58 58 0 0 1-1.6 2.357 68 68 0 0 1-1.676 2.233c-.623.792-1.252 1.581-1.947 2.312-.683.7-1.397 1.369-2.15 1.994-.77.644-1.554 1.274-2.388 1.836-.84.561-1.7 1.092-2.6 1.555a31 31 0 0 1-2.588 1.215 24 24 0 0 1-2.847.95c-.954.24-1.917.45-2.893.583-.961.129-1.926.234-2.896.27-1.004.033-2.01.029-3.012-.052-1.038-.086-2.075-.204-3.09-.443-.981-.24-1.949-.531-2.877-.933a29 29 0 0 1-2.552-1.223c-.852-.467-1.693-.956-2.488-1.518a25 25 0 0 1-2.264-1.785c-.756-.687-1.49-1.403-2.116-2.215-.62-.82-1.191-1.677-1.65-2.6-.462-.938-.879-1.9-1.162-2.91-.275-.999-.502-2.012-.619-3.043-.116-1.042-.189-2.089-.141-3.138.05-1.042.146-2.081.343-3.107.195-1.012.42-2.02.73-3.003.312-.97.653-1.932 1.08-2.858.418-.894.87-1.773 1.402-2.604a21 21 0 0 1 1.668-2.272 24 24 0 0 1 1.907-2.004c.714-.653 1.456-1.277 2.268-1.806a24 24 0 0 1 2.395-1.399c.863-.423 1.744-.81 2.655-1.117a31 31 0 0 1 2.773-.816c1.001-.23 2.012-.42 3.039-.488.953-.06 1.91-.086 2.863-.021.928.073 1.85.193 2.76.397.88.198 1.753.43 2.6.743.77.286 1.532.599 2.262.978.597.307 1.189.624 1.756.984.542.353 1.07.73 1.535 1.182.39.38.766.778 1.066 1.236.245.383.467.78.607 1.215 1.413 4.262-4.614 6.26-6.027 1.998" transform="translate(0 -197)"/><path style="opacity:1;fill:#000;fill-opacity:1;stroke:none;stroke-width:1;stroke-linecap:butt;stroke-linejoin:round;stroke-miterlimit:4;stroke-dasharray:none;stroke-opacity:1" d="M29.768 230.778c.032-.49-.133-.943-.343-1.377-.304-.542-.766-.903-1.324-1.151-.422-.166-.868-.187-1.312-.123-.565.095-1.024.408-1.434.793a2.6 2.6 0 0 0-.445.635v-.006c-.104.3-.13.619-.131.935.004.229.041.455.098.676.031.114.077.222.121.331.119.245.068.15.146.29-2.234-3.896 3.275-7.054 5.508-3.159.087.156.031.053.16.314.063.155.125.311.17.473.08.286.136.58.144.878 0 .436-.048.87-.196 1.283q-.083.249-.185.491c-.186.428-.415.834-.735 1.178-.567.55-1.21.971-1.999 1.119-.707.116-1.418.106-2.099-.147-.816-.34-1.515-.834-1.973-1.612-.33-.643-.557-1.316-.517-2.048.16-4.487 6.506-4.26 6.346.227m-2.503 34.257c.073-.065.133-.143.198-.215a3 3 0 0 0-.114.287 6 6 0 0 0-.2.804 8 8 0 0 0-.105 1.207c-.01.435.043.868.108 1.297.083.52.209 1.03.35 1.536.136.494.319.972.532 1.437.198.43.453.829.723 1.217.29.412.626.79.97 1.158.354.38.743.725 1.147 1.05a12 12 0 0 0 2.74 1.607c.437.188.894.32 1.359.42.514.101 1.039.126 1.561.143q.889.027 1.774-.043a10 10 0 0 0 1.437-.242 7.5 7.5 0 0 0 1.166-.395 6.5 6.5 0 0 0 .946-.529c.328-.216.638-.457.942-.705a9 9 0 0 0 .78-.726q.372-.387.713-.803c.214-.264.412-.54.608-.818a32 32 0 0 0 1.06-1.62q.206-.343.4-.694l.382-.685.327-.59q.174-.315.367-.617c.28-.462.673-.823 1.108-1.136.763-.477 1.686-.68 2.574-.46.253.063.49.18.735.269.805.423 1.333 1.101 1.663 1.928.098.26.172.53.248.797q.062.23.144.451.084.227.194.441.14.277.31.538.233.368.491.718c.152.205.33.386.508.567q.439.445.9.865c.313.288.646.55.985.805q.583.435 1.192.832c.404.26.828.489 1.252.714.446.238.905.45 1.372.644a7 7 0 0 0 1.263.367c.39.075.787.088 1.183.078a6.6 6.6 0 0 0 1.143-.168 7.5 7.5 0 0 0 1.09-.346c.32-.124.62-.289.912-.466.3-.183.571-.404.834-.634a7 7 0 0 0 .767-.8c.25-.313.464-.654.673-.995.196-.317.356-.654.493-1 .13-.328.206-.671.273-1.016.08-.434.135-.87.176-1.31.033-.32.022-.641-.006-.961a7 7 0 0 0-.19-1.013c-.115-.45-.249-.895-.383-1.339-.132-.43-.262-.861-.403-1.288a14 14 0 0 0-.39-1.003q-.231-.537-.467-1.071-.201-.46-.408-.92l-.36-.798-.305-.678-.258-.574c-.038-.09-.085-.177-.131-.265q-.08-.15-.163-.298l-.16-.292-.137-.248c-.03-.057-.066-.113-.011-.023-2.416-3.785 2.937-7.2 5.353-3.416q.116.184.22.375l.136.248.163.295q.109.197.215.396c.108.204.213.41.306.622l.258.574.305.678.362.804q.218.486.433.974.252.574.5 1.151c.206.49.406.981.571 1.485.156.475.302.952.447 1.43.17.558.337 1.118.477 1.684.16.663.298 1.332.35 2.012a12 12 0 0 1-.003 2.064 21 21 0 0 1-.27 1.953c-.15.736-.335 1.467-.62 2.165a13 13 0 0 1-.965 1.93c-.375.61-.767 1.21-1.225 1.76a14 14 0 0 1-1.472 1.513c-.545.468-1.112.912-1.73 1.281-.61.361-1.236.693-1.9.946-.665.252-1.342.477-2.04.625-.776.163-1.562.29-2.358.306-.87.01-1.74-.034-2.594-.213-.818-.176-1.626-.397-2.4-.72a22 22 0 0 1-1.905-.897 23 23 0 0 1-1.748-1.007 29 29 0 0 1-1.545-1.08 20 20 0 0 1-1.447-1.19 30 30 0 0 1-1.158-1.115 12 12 0 0 1-1.08-1.243q-.396-.539-.753-1.103a13 13 0 0 1-.626-1.106 11 11 0 0 1-.753-1.975c-.024-.085-.115-.18-.068-.254.28.651.787 1.145 1.41 1.478.23.083.454.19.693.248.806.195 1.652.02 2.344-.419.284-.208.563-.436.75-.741q-.085.133-.16.273l-.329.59-.393.706q-.25.45-.515.89-.29.477-.598.944-.342.526-.7 1.039a22 22 0 0 1-.901 1.202q-.511.618-1.068 1.196c-.42.427-.854.84-1.32 1.217-.489.396-.989.778-1.517 1.12-.62.394-1.257.763-1.936 1.045-.707.29-1.428.545-2.173.718-.786.179-1.58.324-2.385.386-.824.06-1.65.086-2.477.057-.908-.034-1.818-.097-2.708-.29-.855-.193-1.697-.437-2.502-.788a18 18 0 0 1-2.185-1.107c-.706-.428-1.398-.88-2.041-1.4a18 18 0 0 1-1.795-1.656c-.552-.595-1.083-1.21-1.546-1.877-.484-.706-.936-1.435-1.288-2.218a16 16 0 0 1-.864-2.357 20 20 0 0 1-.51-2.295c-.115-.803-.198-1.612-.172-2.425.026-.752.08-1.506.224-2.246.122-.598.263-1.193.473-1.767.172-.456.36-.907.61-1.327.233-.382.486-.753.808-1.068 3.2-3.149 7.654 1.378 4.453 4.527m47.619-37.35.047.077a2 2 0 0 0-.23-.289c-.013-.027-.193-.157-.277-.216a2.4 2.4 0 0 0-.567-.274c-.202-.066-.415-.083-.625-.101-.43-.024-.838.073-1.233.23-.385.16-.696.423-.978.723-.014-.017-.218.294-.163.207-.139.19-.295.616-.37.92a3 3 0 0 0-.051.367l.004-.093.004-.09v-.027c-.006.298.03.578.09.87.117.51.406.936.735 1.333.226.24.49.44.78.596.006.028.503.21.33.149.067.023.092.03.028.01l-.097-.028-.084-.026c.158.05.32.081.483.104-4.456-.551-3.676-6.853.78-6.302.189.026.376.058.558.115l.085.026.102.03q.128.038.254.08c.11.04.352.13.502.215.333.177.64.397.899.674.36.43.671.895.798 1.452.07.328.126.659.101.996l-.004.09-.005.121c-.01.208-.029.416-.072.62-.1.423-.244.835-.488 1.2a4 4 0 0 1-.366.51c-.365.396-.77.742-1.269.958-.504.206-1.027.34-1.577.316-.343-.025-.684-.065-1.012-.174a4 4 0 0 1-1.006-.456 5 5 0 0 1-.747-.603 4.6 4.6 0 0 1-.637-.774 8 8 0 0 1-.273-.452c-2.18-3.925 3.37-7.009 5.551-3.084" transform="translate(0 -197)"/></svg>
