<svg viewBox="0 0 100 100"><path style="opacity:1;fill:#020900;fill-opacity:1;stroke:none;stroke-width:1;stroke-linecap:butt;stroke-linejoin:round;stroke-miterlimit:4;stroke-dasharray:none;stroke-opacity:1" d="M37.502 222.037q.021.176.045.35c.03.23.064.459.111.685.054.231.124.458.2.683.081.236.188.461.312.678.14.245.325.458.51.669.324.356.679.682 1.039 1 .426.372.879.71 1.348 1.025.5.327 1.037.59 1.58.836.628.277 1.28.494 1.936.69.624.186 1.263.31 1.909.386.565.06 1.133.031 1.697-.03.647-.082 1.283-.23 1.916-.383.7-.173 1.39-.385 2.078-.604q1.138-.37 2.277-.737c.769-.248 1.537-.5 2.306-.747a63 63 0 0 1 2.564-.77 42 42 0 0 1 2.797-.664c1.08-.221 2.178-.314 3.278-.357 1.17-.046 2.333.076 3.484.265 1.088.19 2.15.49 3.2.826 1.1.347 2.155.809 3.18 1.334 1.08.565 2.067 1.283 3.011 2.049.93.758 1.744 1.636 2.506 2.559.757.929 1.383 1.951 1.967 2.995a27 27 0 0 1 1.481 3.214c.458 1.183.773 2.411 1.05 3.647.282 1.299.47 2.615.633 3.934.17 1.429.27 2.865.343 4.303a45 45 0 0 1 .01 4.388c-.064 1.43-.227 2.853-.416 4.27a62 62 0 0 1-.702 4.091c-.272 1.351-.659 2.674-1.103 3.977-.447 1.294-1.024 2.536-1.658 3.747-.642 1.209-1.421 2.335-2.23 3.437-.802 1.084-1.685 2.102-2.596 3.095-.914.987-1.894 1.91-2.896 2.806-1.01.898-2.086 1.713-3.185 2.496-1.104.78-2.267 1.466-3.447 2.122-1.183.656-2.41 1.222-3.652 1.755-1.317.577-2.69.991-4.085 1.33-1.426.335-2.882.494-4.34.598-1.414.097-2.83.057-4.243-.04-1.363-.094-2.71-.321-4.044-.607-1.337-.294-2.634-.735-3.915-1.214a35 35 0 0 1-3.8-1.723c-1.285-.675-2.495-1.474-3.68-2.308-1.206-.856-2.328-1.82-3.421-2.812-1.14-1.044-2.204-2.164-3.236-3.313-1.119-1.251-2.124-2.597-3.09-3.968-.979-1.41-1.877-2.875-2.75-4.353a55 55 0 0 1-2.377-4.533c-.76-1.602-1.347-3.275-1.879-4.964-.507-1.635-.886-3.305-1.217-4.984a40 40 0 0 1-.611-4.652c-.109-1.474-.08-2.952-.012-4.426a48 48 0 0 1 .399-4.007c.172-1.254.423-2.494.704-3.727a46 46 0 0 1 .998-3.614c.37-1.154.82-2.28 1.307-3.388.45-1.005.978-1.971 1.529-2.924a28 28 0 0 1 1.746-2.607c.658-.897 1.418-1.707 2.227-2.467.884-.83 1.9-1.487 2.954-2.074 1.01-.543 2.075-.973 3.147-1.377a42 42 0 0 1 3.243-1.031c1.163-.33 2.35-.554 3.542-.745a50 50 0 0 1 3.56-.401c1.239-.102 2.48-.098 3.721-.048 1.184.054 2.361.196 3.534.363 1.026.151 2.046.338 3.064.532a71 71 0 0 1 2.644.558c.858.193 1.702.437 2.536.715.797.273 1.569.609 2.333.96.65.3 1.288.63 1.92.97.588.32 1.157.674 1.715 1.045.55.363 1.062.78 1.554 1.216.366.331.718.678 1.068 1.026l.752.752c.123.157.652.594.147.177l-.341-.214c4.348 2.18 1.266 8.33-3.083 6.15l-.536-.311a8 8 0 0 1-1.054-.94l-.736-.736a26 26 0 0 0-.799-.772 6.6 6.6 0 0 0-.787-.623 15 15 0 0 0-1.178-.721 27 27 0 0 0-1.52-.77 19 19 0 0 0-1.641-.687 19 19 0 0 0-1.893-.534 64 64 0 0 0-2.388-.504 68 68 0 0 0-2.752-.479c-.945-.136-1.894-.254-2.848-.3a23 23 0 0 0-2.883.032c-1.012.08-2.022.184-3.025.337-.931.148-1.86.319-2.768.575a35 35 0 0 0-2.684.849c-.763.285-1.522.585-2.245.962-.564.304-1.109.641-1.581 1.078a11 11 0 0 0-1.401 1.545c-.47.628-.919 1.27-1.312 1.948-.427.735-.838 1.48-1.188 2.255-.39.88-.747 1.774-1.043 2.69a39 39 0 0 0-1.443 6.19 41 41 0 0 0-.344 3.4c-.057 1.193-.085 2.389 0 3.58.096 1.292.252 2.578.502 3.85.28 1.43.6 2.853 1.03 4.247.435 1.39.913 2.77 1.537 4.09a48 48 0 0 0 2.081 3.973c.779 1.32 1.58 2.63 2.452 3.89.809 1.152 1.648 2.282 2.585 3.334a40 40 0 0 0 2.744 2.816c.882.805 1.786 1.588 2.76 2.281.928.658 1.876 1.29 2.882 1.824.988.516 1.999.989 3.042 1.385.967.364 1.944.705 2.954.932 1.012.22 2.034.395 3.069.469 1.093.078 2.19.112 3.285.04 1.08-.074 2.159-.184 3.216-.425 1.018-.241 2.02-.543 2.98-.963 1.027-.44 2.044-.907 3.023-1.447.958-.53 1.904-1.085 2.8-1.715.894-.634 1.77-1.294 2.59-2.021a36 36 0 0 0 2.414-2.331c.743-.807 1.464-1.634 2.118-2.515.607-.823 1.197-1.661 1.683-2.563.475-.895.902-1.816 1.238-2.773a25 25 0 0 0 .871-3.125c.246-1.2.46-2.407.623-3.621s.306-2.43.363-3.654a38 38 0 0 0-.008-3.746 57 57 0 0 0-.301-3.817c-.134-1.1-.288-2.197-.521-3.28-.197-.892-.416-1.78-.741-2.635a20 20 0 0 0-1.085-2.37c-.38-.687-.782-1.363-1.272-1.977-.467-.574-.966-1.122-1.539-1.594-.572-.471-1.167-.917-1.822-1.269-.68-.357-1.387-.66-2.12-.893-.734-.237-1.476-.452-2.236-.592-.692-.12-1.391-.2-2.095-.176-.729.024-1.457.082-2.173.226q-1.167.235-2.315.549-1.156.32-2.296.69l-2.314.75q-1.146.369-2.29.74a39 39 0 0 1-2.55.737c-.94.226-1.888.436-2.852.542-1.073.102-2.152.141-3.225.01a18.7 18.7 0 0 1-3.05-.626c-.948-.288-1.887-.607-2.791-1.014-.893-.408-1.771-.852-2.588-1.4a21 21 0 0 1-2.059-1.576c-.583-.518-1.154-1.052-1.67-1.638-.505-.587-.981-1.199-1.353-1.88a11 11 0 0 1-.805-1.815 14 14 0 0 1-.413-1.487q-.111-.555-.183-1.116a11 11 0 0 1-.098-.91c-.26-4.857 6.61-5.223 6.87-.366" transform="translate(0 -197)"/><path style="opacity:1;fill:#020900;fill-opacity:1;stroke:none;stroke-width:1;stroke-linecap:butt;stroke-linejoin:round;stroke-miterlimit:4;stroke-dasharray:none;stroke-opacity:1" d="M45.533 224.1c-.287.265-.482.6-.639.952a4.5 4.5 0 0 0 .051-.915 17 17 0 0 0-.18-1.779 10.4 10.4 0 0 0-.374-1.658c-.19-.575-.46-1.117-.735-1.656q-.654-1.258-1.327-2.505a17 17 0 0 0-1.23-1.983c-.355-.468-.74-.913-1.123-1.36q-.52-.608-1.044-1.214a9.7 9.7 0 0 1-1.18-1.57c-2.405-4.227 3.575-7.628 5.98-3.4-.329-.439.37.476.415.483l1.057 1.23c.506.592 1.014 1.183 1.477 1.81a24 24 0 0 1 1.695 2.724q.719 1.332 1.415 2.674c.452.894.882 1.801 1.18 2.76.265.882.479 1.779.604 2.692.127.898.23 1.8.25 2.708 0 .865-.042 1.731-.244 2.576-.223.863-.56 1.683-1.208 2.32-3.457 3.422-8.297-1.467-4.84-4.889" transform="translate(0 -197)"/></svg>
