<?xml version="1.0" encoding="UTF-8" standalone="no"?>
<!-- Created with Inkscape (http://www.inkscape.org/) -->

<svg
   xmlns:dc="http://purl.org/dc/elements/1.1/"
   xmlns:cc="http://creativecommons.org/ns#"
   xmlns:rdf="http://www.w3.org/1999/02/22-rdf-syntax-ns#"
   xmlns:svg="http://www.w3.org/2000/svg"
   xmlns="http://www.w3.org/2000/svg"
   xmlns:sodipodi="http://sodipodi.sourceforge.net/DTD/sodipodi-0.dtd"
   xmlns:inkscape="http://www.inkscape.org/namespaces/inkscape"
   width="10cm"
   height="10cm"
   viewBox="0 0 100 99.999997"
   version="1.1"
   id="svg8"
   sodipodi:docname="kili.svg"
   inkscape:version="0.92.3 (2405546, 2018-03-11)">
  <defs
     id="defs2" />
  <sodipodi:namedview
     id="base"
     pagecolor="#ffffff"
     bordercolor="#666666"
     borderopacity="1.0"
     inkscape:pageopacity="0.0"
     inkscape:pageshadow="2"
     inkscape:zoom="1"
     inkscape:cx="125.50186"
     inkscape:cy="200.50542"
     inkscape:document-units="cm"
     inkscape:current-layer="layer1"
     showgrid="true"
     units="cm"
     inkscape:window-width="1920"
     inkscape:window-height="1017"
     inkscape:window-x="-8"
     inkscape:window-y="-8"
     inkscape:window-maximized="1"
     inkscape:snap-nodes="false">
    <inkscape:grid
       type="xygrid"
       id="grid815"
       units="cm"
       spacingx="9.9999998"
       spacingy="9.9999998" />
  </sodipodi:namedview>
  <metadata
     id="metadata5">
    <rdf:RDF>
      <cc:Work
         rdf:about="">
        <dc:format>image/svg+xml</dc:format>
        <dc:type
           rdf:resource="http://purl.org/dc/dcmitype/StillImage" />
        <dc:title></dc:title>
      </cc:Work>
    </rdf:RDF>
  </metadata>
  <g
     inkscape:label="Layer 1"
     inkscape:groupmode="layer"
     id="layer1"
     transform="translate(0,-197.00002)">
    <path
       style="opacity:1;fill:#020900;fill-opacity:1;stroke:none;stroke-width:1;stroke-linecap:butt;stroke-linejoin:round;stroke-miterlimit:4;stroke-dasharray:none;stroke-opacity:1"
       id="path1109"
       d="m 37.502094,222.03721 c 0.01254,0.117 0.02947,0.23357 0.04533,0.35017 0.02969,0.22947 0.06364,0.45831 0.110771,0.68488 0.05376,0.23118 0.12397,0.45809 0.199585,0.68293 0.08128,0.2359 0.188397,0.4612 0.311891,0.67762 0.14038,0.24486 0.325276,0.45835 0.51104,0.66912 0.323424,0.35621 0.677979,0.68184 1.038315,0.99993 0.42595,0.37196 0.878708,0.71076 1.348383,1.02509 0.499859,0.32747 1.036667,0.59066 1.580507,0.83556 0.627565,0.27749 1.278924,0.4943 1.935419,0.69133 0.623869,0.18535 1.262494,0.30956 1.908289,0.38506 0.565613,0.0605 1.133758,0.0311 1.697662,-0.0292 0.64684,-0.0825 1.282994,-0.23046 1.915964,-0.38407 0.700574,-0.17303 1.390523,-0.38505 2.077829,-0.60403 0.758579,-0.24653 1.517142,-0.49309 2.276689,-0.73663 0.768879,-0.24816 1.536748,-0.49941 2.305801,-0.74703 0.849032,-0.27578 1.704203,-0.53141 2.564207,-0.77057 0.92419,-0.25484 1.857663,-0.47338 2.797074,-0.66385 1.080273,-0.22083 2.178566,-0.31385 3.278434,-0.35694 1.169445,-0.0453 2.332217,0.0768 3.484121,0.26586 1.08712,0.18998 2.149448,0.49033 3.19951,0.82518 1.1,0.34715 2.155405,0.80906 3.180551,1.33427 1.080395,0.56535 2.066148,1.28268 3.010562,2.04885 0.92933,0.75786 1.74381,1.63672 2.505956,2.55877 0.757002,0.92951 1.383443,1.95182 1.967182,2.9958 0.570352,1.03479 1.049298,2.11496 1.481095,3.21365 0.457859,1.18264 0.773089,2.41142 1.048967,3.64696 0.283046,1.29885 0.471083,2.61514 0.633421,3.93365 0.17122,1.42938 0.269785,2.86579 0.343736,4.30304 0.08187,1.46227 0.07102,2.92634 0.01019,4.38889 -0.0643,1.43001 -0.227719,2.85232 -0.416168,4.27044 -0.18455,1.37168 -0.425736,2.73448 -0.702043,4.09036 -0.272637,1.3509 -0.65918,2.6734 -1.103198,3.97674 -0.44703,1.29395 -1.023806,2.53551 -1.657843,3.74685 -0.642471,1.20889 -1.421714,2.33546 -2.230712,3.43702 -0.801405,1.08402 -1.684703,2.10251 -2.595843,3.09468 -0.914239,0.98736 -1.893279,1.91079 -2.896103,2.8069 -1.009197,0.89714 -2.085893,1.71245 -3.184975,2.49513 -1.103346,0.77968 -2.266997,1.46674 -3.446772,2.12277 -1.182825,0.65519 -2.410698,1.22175 -3.652287,1.75497 -1.316397,0.57626 -2.690434,0.9911 -4.084418,1.32925 -1.425839,0.33529 -2.882357,0.49414 -4.340661,0.59823 -1.413777,0.0976 -2.830229,0.0569 -4.242406,-0.0393 -1.362858,-0.0944 -2.709656,-0.3217 -4.043886,-0.60747 -1.337506,-0.29396 -2.634253,-0.73545 -3.91514,-1.21377 -1.30352,-0.49147 -2.564768,-1.0827 -3.800907,-1.72285 -1.28375,-0.67499 -2.494668,-1.47444 -3.678793,-2.30893 -1.206338,-0.85506 -2.328166,-1.81865 -3.421411,-2.81184 -1.13963,-1.04334 -2.204064,-2.16346 -3.235788,-3.31237 -1.118754,-1.25172 -2.123729,-2.59691 -3.089619,-3.96807 -0.979557,-1.41045 -1.877515,-2.87483 -2.750161,-4.35305 -0.870744,-1.4694 -1.648343,-2.98993 -2.377743,-4.53346 -0.760015,-1.60169 -1.346763,-3.27481 -1.878642,-4.96338 -0.507363,-1.63536 -0.886501,-3.30538 -1.21704,-4.98412 -0.304325,-1.53679 -0.491025,-3.09182 -0.611406,-4.65271 -0.108281,-1.47357 -0.08054,-2.9512 -0.01194,-4.42559 0.06754,-1.34168 0.217993,-2.67687 0.398967,-4.00737 0.172696,-1.25342 0.423587,-2.49364 0.703961,-3.7268 0.279849,-1.21894 0.621288,-2.42208 0.998891,-3.61396 0.369729,-1.15377 0.818861,-2.27916 1.306844,-3.38733 0.449256,-1.00516 0.977348,-1.9717 1.52819,-2.92399 0.524754,-0.90685 1.122284,-1.76737 1.746514,-2.60772 0.658264,-0.89645 1.418015,-1.70635 2.226691,-2.46697 0.884209,-0.82917 1.899552,-1.48649 2.954483,-2.07366 1.010693,-0.54268 2.074966,-0.97321 3.147081,-1.37672 1.064104,-0.39557 2.150729,-0.72473 3.243107,-1.03177 1.162597,-0.32916 2.350042,-0.55325 3.541882,-0.74444 1.180734,-0.18261 2.369394,-0.30538 3.559947,-0.40127 1.23829,-0.10222 2.480564,-0.0984 3.720899,-0.0479 1.183984,0.0541 2.360909,0.19616 3.533455,0.36332 1.02594,0.15089 2.046078,0.3375 3.064605,0.53142 0.884888,0.16835 1.76589,0.35593 2.643706,0.55774 0.857859,0.19365 1.702448,0.43767 2.536492,0.71542 0.796194,0.27274 1.568166,0.60898 2.332331,0.96005 0.651049,0.30081 1.288745,0.62911 1.919414,0.97025 0.589172,0.31943 1.157827,0.6742 1.71582,1.04487 0.550352,0.36318 1.061636,0.77911 1.554166,1.21629 0.366334,0.33082 0.717711,0.67759 1.067675,1.02552 0.251198,0.25042 0.501783,0.50145 0.752433,0.75242 0.123267,0.15705 0.651462,0.59361 0.146791,0.1762 -0.113829,-0.0712 -0.227658,-0.14242 -0.341487,-0.21363 4.34866,2.17959 1.266251,8.32952 -3.082409,6.14993 v 0 c -0.17861,-0.10368 -0.35722,-0.20736 -0.535829,-0.31104 -0.376124,-0.2878 -0.732224,-0.59239 -1.054444,-0.94023 -0.245015,-0.24533 -0.489966,-0.49071 -0.735497,-0.73552 -0.262702,-0.26126 -0.525613,-0.52249 -0.799158,-0.77248 -0.248547,-0.22467 -0.506907,-0.43811 -0.787006,-0.62291 -0.382791,-0.25633 -0.773837,-0.50037 -1.178404,-0.72112 -0.498956,-0.27098 -1.003974,-0.53089 -1.519129,-0.76991 -0.538689,-0.24875 -1.081976,-0.48931 -1.642102,-0.68637 -0.621445,-0.21053 -1.253064,-0.38825 -1.892972,-0.53392 -0.792662,-0.18277 -1.588447,-0.35156 -2.387555,-0.50389 -0.914736,-0.17431 -1.830784,-0.34281 -2.75206,-0.47931 -0.945145,-0.13591 -1.893602,-0.25374 -2.848023,-0.30002 -0.961038,-0.0421 -1.923656,-0.0462 -2.883321,0.0321 -1.01151,0.0802 -2.021332,0.18425 -3.024695,0.33728 -0.931064,0.14749 -1.859293,0.31833 -2.767526,0.57466 -0.903862,0.25295 -1.803225,0.52341 -2.684071,0.84884 -0.763021,0.2853 -1.522439,0.58509 -2.245775,0.96205 -0.563324,0.30417 -1.10857,0.64143 -1.580692,1.07835 -0.513424,0.4717 -0.986814,0.98305 -1.401324,1.54492 -0.468841,0.62758 -0.918043,1.27007 -1.311865,1.94807 -0.426638,0.73472 -0.837586,1.47952 -1.187608,2.25439 -0.390168,0.87999 -0.747247,1.77462 -1.043366,2.69108 -0.321641,1.00879 -0.60953,2.02805 -0.848013,3.05994 -0.236731,1.03513 -0.448814,2.0762 -0.595127,3.12846 -0.154896,1.12929 -0.28414,2.26259 -0.343391,3.40144 -0.05742,1.19261 -0.08475,2.38795 -1.14e-4,3.58025 0.09599,1.29128 0.252077,2.57716 0.50235,3.84844 0.27969,1.43044 0.60009,2.85367 1.029702,4.24758 0.435377,1.39086 0.912641,2.77042 1.537171,4.08966 0.637196,1.3533 1.318781,2.68539 2.081123,3.97317 0.778586,1.32073 1.579242,2.62946 2.451867,3.89073 0.808294,1.15115 1.648121,2.28162 2.584476,3.3331 0.874657,0.97698 1.777662,1.92903 2.743793,2.8168 0.882565,0.80445 1.786366,1.58734 2.760176,2.28089 0.928362,0.6573 1.876499,1.28936 2.88219,1.82378 0.988457,0.51579 1.998861,0.98864 3.041764,1.38497 0.967192,0.36347 1.944693,0.70479 2.954428,0.9318 1.01211,0.22088 2.034283,0.39493 3.068783,0.46906 1.093377,0.0778 2.190181,0.11254 3.285228,0.0396 1.079576,-0.0737 2.158685,-0.18303 3.215489,-0.42502 1.018024,-0.24066 2.01985,-0.54234 2.979824,-0.96288 1.02778,-0.43953 2.044483,-0.9062 3.023762,-1.44681 0.957763,-0.53055 1.90336,-1.08493 2.799868,-1.71506 0.893744,-0.63392 1.769531,-1.29421 2.590591,-2.02107 0.835364,-0.74409 1.650678,-1.51125 2.412905,-2.33093 0.743096,-0.80642 1.464135,-1.63379 2.118323,-2.51493 0.607034,-0.82295 1.19757,-1.6611 1.683478,-2.56292 0.474485,-0.89534 0.902059,-1.81545 1.237763,-2.77272 0.352938,-1.02327 0.655481,-2.06327 0.871326,-3.12485 0.245977,-1.20036 0.458628,-2.40725 0.623046,-3.62169 0.162062,-1.2133 0.305204,-2.42994 0.362108,-3.65346 0.05414,-1.24837 0.06254,-2.49802 -0.0074,-3.74623 -0.06473,-1.27493 -0.151099,-2.54916 -0.301591,-3.81723 -0.13407,-1.0991 -0.287872,-2.19664 -0.521026,-3.27979 -0.196482,-0.89164 -0.415631,-1.7802 -0.741021,-2.63508 -0.313978,-0.81104 -0.668126,-1.60621 -1.084082,-2.37067 -0.379532,-0.68621 -0.781979,-1.36178 -1.272712,-1.97576 -0.466765,-0.57439 -0.9661,-1.1222 -1.538478,-1.59441 -0.572352,-0.47109 -1.1674,-0.91658 -1.822032,-1.26876 -0.680408,-0.35759 -1.387144,-0.65935 -2.119963,-0.89366 -0.734349,-0.237 -1.47677,-0.45197 -2.236661,-0.59151 -0.692092,-0.11994 -1.390846,-0.20009 -2.094836,-0.17592 -0.728683,0.0241 -1.456491,0.0816 -2.172475,0.22611 -0.777936,0.15533 -1.549755,0.33953 -2.315059,0.54854 -0.770374,0.21352 -1.535906,0.44348 -2.296314,0.69028 -0.771739,0.24848 -1.542258,0.5007 -2.313855,0.74962 -0.764252,0.24503 -1.527439,0.49333 -2.290794,0.74114 -0.842807,0.26796 -1.689407,0.52541 -2.548771,0.73567 -0.9413,0.22655 -1.888837,0.43697 -2.852579,0.54283 -1.072544,0.10188 -2.151957,0.14074 -3.224715,0.0102 -1.031449,-0.13236 -2.054333,-0.32421 -3.050802,-0.62694 -0.947475,-0.28798 -1.88658,-0.60673 -2.790735,-1.01336 -0.892918,-0.40822 -1.771039,-0.85197 -2.587966,-1.39988 -0.715097,-0.48658 -1.409946,-1.0027 -2.058474,-1.57619 -0.583057,-0.51849 -1.153777,-1.05241 -1.670153,-1.63853 -0.504886,-0.58619 -0.981427,-1.19833 -1.352603,-1.88005 -0.314349,-0.58382 -0.598779,-1.1838 -0.805866,-1.81508 -0.160327,-0.48879 -0.308435,-0.98221 -0.412477,-1.48649 -0.07334,-0.36986 -0.136126,-0.74158 -0.183303,-1.11577 -0.04101,-0.30223 -0.08198,-0.60488 -0.09816,-0.9097 -0.259051,-4.8574 6.610355,-5.22375 6.869406,-0.36635 z"
       inkscape:connector-curvature="0" />
    <path
       style="opacity:1;fill:#020900;fill-opacity:1;stroke:none;stroke-width:1;stroke-linecap:butt;stroke-linejoin:round;stroke-miterlimit:4;stroke-dasharray:none;stroke-opacity:1"
       id="path1111"
       d="m 45.532799,224.1001 c -0.286909,0.26539 -0.481481,0.59931 -0.638395,0.95141 0.05592,-0.30166 0.05661,-0.60867 0.05066,-0.91422 -0.02339,-0.59606 -0.09405,-1.18902 -0.179617,-1.77895 -0.07978,-0.56248 -0.204023,-1.11621 -0.374132,-1.65791 -0.189735,-0.5752 -0.461108,-1.11762 -0.735163,-1.65604 -0.437108,-0.83798 -0.87666,-1.6747 -1.327417,-2.50542 -0.368411,-0.68642 -0.770292,-1.35315 -1.228979,-1.9829 -0.356129,-0.4679 -0.741347,-0.9126 -1.123397,-1.35927 -0.347496,-0.40535 -0.695839,-0.80997 -1.044086,-1.21468 -0.449598,-0.48317 -0.836615,-1.00652 -1.180227,-1.56926 -2.404932,-4.22821 3.574659,-7.6293 5.979592,-3.40109 v 0 c -0.32856,-0.43855 0.369525,0.47626 0.415033,0.48337 0.352766,0.40996 0.705628,0.81983 1.057616,1.23045 0.505881,0.59155 1.013849,1.18242 1.476637,1.80886 0.623602,0.871 1.19113,1.7788 1.694836,2.72482 0.480653,0.88657 0.950397,1.77899 1.415706,2.67371 0.451917,0.89358 0.881579,1.80138 1.179584,2.75996 0.265152,0.88236 0.478729,1.77859 0.604404,2.69241 0.126931,0.89786 0.230314,1.80057 0.248637,2.7081 5.29e-4,0.86433 -0.04067,1.73098 -0.243271,2.5751 -0.222687,0.86315 -0.559816,1.68313 -1.20812,2.32014 -3.456754,3.42232 -8.296653,-1.46626 -4.839898,-4.88859 z"
       inkscape:connector-curvature="0" />
  </g>
</svg>
