<?xml version="1.0" encoding="UTF-8" standalone="no"?>
<!-- Created with Inkscape (http://www.inkscape.org/) -->

<svg
   xmlns:dc="http://purl.org/dc/elements/1.1/"
   xmlns:cc="http://creativecommons.org/ns#"
   xmlns:rdf="http://www.w3.org/1999/02/22-rdf-syntax-ns#"
   xmlns:svg="http://www.w3.org/2000/svg"
   xmlns="http://www.w3.org/2000/svg"
   xmlns:sodipodi="http://sodipodi.sourceforge.net/DTD/sodipodi-0.dtd"
   xmlns:inkscape="http://www.inkscape.org/namespaces/inkscape"
   width="10cm"
   height="10cm"
   viewBox="0 0 100 99.999997"
   version="1.1"
   id="svg8"
   sodipodi:docname="kiwen.svg"
   inkscape:version="0.92.3 (2405546, 2018-03-11)">
  <defs
     id="defs2" />
  <sodipodi:namedview
     id="base"
     pagecolor="#ffffff"
     bordercolor="#666666"
     borderopacity="1.0"
     inkscape:pageopacity="0.0"
     inkscape:pageshadow="2"
     inkscape:zoom="1"
     inkscape:cx="175.50186"
     inkscape:cy="160.37856"
     inkscape:document-units="cm"
     inkscape:current-layer="layer1"
     showgrid="true"
     units="cm"
     inkscape:window-width="882"
     inkscape:window-height="707"
     inkscape:window-x="970"
     inkscape:window-y="213"
     inkscape:window-maximized="0"
     inkscape:snap-nodes="false">
    <inkscape:grid
       type="xygrid"
       id="grid815"
       units="cm"
       spacingx="9.9999998"
       spacingy="9.9999998" />
  </sodipodi:namedview>
  <metadata
     id="metadata5">
    <rdf:RDF>
      <cc:Work
         rdf:about="">
        <dc:format>image/svg+xml</dc:format>
        <dc:type
           rdf:resource="http://purl.org/dc/dcmitype/StillImage" />
        <dc:title></dc:title>
      </cc:Work>
    </rdf:RDF>
  </metadata>
  <g
     inkscape:label="Layer 1"
     inkscape:groupmode="layer"
     id="layer1"
     transform="translate(0,-197.00002)">
    <path
       style="opacity:1;fill:#020900;fill-opacity:1;stroke:none;stroke-width:1;stroke-linecap:butt;stroke-linejoin:round;stroke-miterlimit:4;stroke-dasharray:none;stroke-opacity:1"
       id="path1641"
       d="m 9.2018685,230.04289 c 0.08988,-0.12482 0.185882,-0.24499 0.2813891,-0.3655 0.015121,-0.0186 0.028473,-0.0386 0.041837,-0.0585 0.085741,-0.13631 0.1687759,-0.2743 0.2529015,-0.41162 0.1115221,-0.1853 0.2221749,-0.37113 0.3335259,-0.55655 0.151333,-0.25225 0.308265,-0.50102 0.470344,-0.74649 0.186683,-0.27259 0.381595,-0.53951 0.577949,-0.80519 0.217642,-0.2957 0.448062,-0.58165 0.680888,-0.86544 0.229916,-0.2811 0.469961,-0.55364 0.705407,-0.83007 0.213896,-0.25569 0.42203,-0.51612 0.631386,-0.77551 0.2403,-0.29779 0.473989,-0.6008 0.710528,-0.90156 0.259914,-0.33238 0.522548,-0.66262 0.784648,-0.99328 0.251671,-0.31605 0.500505,-0.63432 0.744269,-0.95651 0.243633,-0.32379 0.474357,-0.65691 0.701763,-0.99219 0.285184,-0.4305 0.571949,-0.8599 0.862892,-1.28653 0.306921,-0.4464 0.627937,-0.88282 0.942955,-1.32348 0.26147,-0.3652 0.510662,-0.73886 0.75678,-1.11449 0.22867,-0.34766 0.446782,-0.702 0.658155,-1.06038 0.214255,-0.36913 0.422637,-0.74162 0.634992,-1.11183 0.183427,-0.31871 0.36405,-0.63901 0.543299,-0.96007 0.14736,-0.26477 0.28877,-0.53278 0.431065,-0.80028 0.132052,-0.24721 0.26287,-0.49508 0.394365,-0.74258 0.119606,-0.2275 0.244031,-0.45239 0.36932,-0.67679 0.105104,-0.18557 0.210932,-0.37072 0.316652,-0.55593 0.09946,-0.17624 0.203569,-0.34979 0.309284,-0.52233 0.140812,-0.23113 0.298837,-0.45067 0.463802,-0.66496 0.211591,-0.27024 0.458056,-0.50911 0.71597,-0.73433 0.368686,-0.32783 0.800686,-0.55973 1.250848,-0.75328 0.327204,-0.13103 0.669609,-0.2135 1.015503,-0.27625 0.263105,-0.0443 0.529444,-0.0627 0.795469,-0.0785 0.218111,-0.0125 0.436427,-0.0208 0.654756,-0.0283 0.221327,-0.0125 0.442524,-0.0272 0.66384,-0.0401 0.31936,-0.0183 0.638942,-0.0322 0.958564,-0.0449 0.360524,-0.0145 0.721233,-0.0236 1.081844,-0.0355 0.410231,-0.0144 0.820518,-0.027 1.230836,-0.0385 0.448503,-0.012 0.896925,-0.0269 1.345401,-0.0399 0.473858,-0.0156 0.947553,-0.0353 1.421263,-0.0548 0.476723,-0.017 0.952973,-0.0436 1.428908,-0.0755 0.510509,-0.0359 1.021239,-0.0684 1.531864,-0.10255 0.486407,-0.0359 0.972222,-0.0793 1.458354,-0.11873 0.498991,-0.0399 0.99813,-0.0778 1.497258,-0.11582 0.462005,-0.0348 0.923243,-0.0788 1.384232,-0.12489 0.479388,-0.0477 0.958778,-0.0954 1.438124,-0.14353 0.447267,-0.0442 0.8934,-0.0987 1.339567,-0.15262 0.441351,-0.0554 0.882311,-0.11391 1.323242,-0.17259 0.429294,-0.0582 0.85957,-0.10869 1.289079,-0.1652 0.396002,-0.0521 0.791818,-0.10556 1.187069,-0.16308 0.427794,-0.0646 0.856049,-0.12583 1.284909,-0.18288 0.437891,-0.0578 0.876721,-0.10816 1.315818,-0.15585 0.434893,-0.0469 0.870537,-0.0863 1.306327,-0.12383 0.422953,-0.0376 0.846461,-0.0677 1.270236,-0.0941 0.391358,-0.0239 0.782894,-0.0447 1.174461,-0.0647 0.369446,-0.019 0.739005,-0.0357 1.108618,-0.0511 0.382767,-0.0158 0.765712,-0.0271 1.148683,-0.0366 0.392374,-0.008 0.784855,-0.007 1.177274,-0.004 0.420463,0.001 0.840555,0.0159 1.2603,0.0397 0.357418,0.0217 0.714587,0.0473 1.07183,0.0716 0.306732,0.0218 0.613392,0.0445 0.920097,0.0667 0.258759,0.0178 0.517339,0.0381 0.776025,0.057 0.250534,0.0179 0.501269,0.0329 0.751933,0.049 0.27986,0.0184 0.559919,0.0334 0.840049,0.0469 0.322133,0.0151 0.644401,0.0271 0.966679,0.0386 0.33237,0.0118 0.664798,0.0218 0.997233,0.0315 0.310539,0.009 0.621094,0.0173 0.931659,0.0254 0.27776,0.007 0.555532,0.0137 0.833305,0.0203 0.23114,0.005 0.46228,0.0109 0.693418,0.0163 0.185861,0.004 0.371726,0.009 0.557588,0.013 0.14914,0.003 0.29828,0.007 0.447418,0.0104 0.118896,0.003 0.237789,0.006 0.356685,0.008 0.09476,0.002 0.189524,0.004 0.284287,0.007 0.07553,0.002 0.151056,0.004 0.226584,0.005 0.0602,0.001 0.120393,0.003 0.180591,0.004 0.04798,0.001 0.09596,0.002 0.143936,0.003 0.03824,8.7e-4 0.07648,0.002 0.114721,0.003 0.03048,7.1e-4 0.06096,0.001 0.09143,0.002 0.12168,0.001 0.24301,0.0107 0.363988,0.0231 0.164817,0.0154 0.32666,0.0495 0.48854,0.083 0.374525,0.0592 0.939191,0.36635 1.181703,0.52736 0.182769,0.11573 0.355944,0.24534 0.526275,0.37844 0.181366,0.14584 0.361807,0.29282 0.542348,0.43968 0.259485,0.20963 0.51453,0.42463 0.76691,0.64273 0.333624,0.2875 0.643049,0.60093 0.947727,0.91842 0.259549,0.27074 0.510104,0.54981 0.756103,0.83285 0.254793,0.29146 0.493942,0.59571 0.725395,0.90586 0.190426,0.2602 0.383122,0.51872 0.576217,0.77694 0.189709,0.25572 0.389983,0.50328 0.591391,0.7498 0.222428,0.27177 0.459129,0.53137 0.692857,0.79336 0.283369,0.31645 0.559721,0.63906 0.837972,0.95999 0.234966,0.27377 0.4786,0.53989 0.723742,0.80452 0.225927,0.24751 0.459483,0.48777 0.696153,0.72496 0.266456,0.26411 0.528695,0.5324 0.790583,0.80103 0.260331,0.2652 0.514355,0.53647 0.774723,0.80162 0.228603,0.2276 0.46686,0.44525 0.706126,0.66152 0.293505,0.26162 0.595788,0.51317 0.895905,0.76712 0.369385,0.31191 0.732685,0.63091 1.099148,0.94623 0.373039,0.31571 0.740003,0.63849 1.11142,0.95609 0.383476,0.32419 0.762378,0.65365 1.138787,0.986 0.343657,0.308 0.689319,0.61375 1.034511,0.92003 0.322693,0.28686 0.642778,0.57663 0.963953,0.86518 0.290703,0.26285 0.58066,0.52649 0.873517,0.78695 0.299363,0.26559 0.594953,0.5354 0.890762,0.80493 0.273656,0.25223 0.548384,0.5033 0.822145,0.75541 0.228952,0.21131 0.456682,0.42394 0.685004,0.63593 0.188875,0.1729 0.376274,0.34739 0.562962,0.52265 0.15336,0.14402 0.306625,0.28813 0.458859,0.43334 0.30622,0.28137 0.562506,0.60795 0.798025,0.94895 0.193834,0.29032 0.348594,0.60301 0.485675,0.92324 0.119853,0.28569 0.203647,0.58403 0.272902,0.8854 0.09742,0.41472 0.112381,0.84003 0.08995,1.26357 -0.01797,0.27206 -0.06538,0.54059 -0.121756,0.80692 -0.06173,0.28953 -0.154094,0.57091 -0.256715,0.84815 -0.09619,0.2566 -0.208891,0.50642 -0.326726,0.75366 -0.113916,0.22998 -0.226899,0.46041 -0.343233,0.68917 -0.180838,0.35235 -0.389507,0.68923 -0.599049,1.02495 -0.218389,0.34858 -0.449659,0.6888 -0.678193,1.03074 -0.256995,0.38966 -0.51902,0.7759 -0.78301,1.16084 -0.28043,0.40519 -0.553694,0.81525 -0.828953,1.22394 -0.299329,0.44651 -0.599591,0.8924 -0.901039,1.33748 -0.323032,0.48554 -0.651716,0.96721 -0.986001,1.44506 -0.350491,0.49963 -0.703403,0.99755 -1.058336,1.49404 -0.376161,0.52499 -0.747657,1.05329 -1.123328,1.57864 -0.403905,0.56511 -0.811737,1.12737 -1.224709,1.68588 -0.422958,0.56779 -0.854567,1.12904 -1.286224,1.69022 -0.444045,0.57547 -0.892982,1.14714 -1.346423,1.71524 -0.464079,0.57842 -0.94113,1.14623 -1.421796,1.71088 -0.472882,0.55669 -0.954903,1.10548 -1.443249,1.64862 -0.481621,0.53295 -0.972678,1.05726 -1.461098,1.58395 -0.494337,0.53151 -0.991466,1.06043 -1.492041,1.58607 -0.495422,0.51362 -0.990584,1.02747 -1.484358,1.54267 -0.485351,0.50674 -0.973346,1.01094 -1.460727,1.51572 -0.487376,0.50818 -0.976228,1.01489 -1.468784,1.51806 -0.475914,0.48224 -0.941369,0.97462 -1.410915,1.46303 -0.47077,0.48662 -0.9408,0.97394 -1.407533,1.46444 -0.470561,0.49713 -0.939879,0.99544 -1.409758,1.49322 -0.480573,0.50928 -0.965854,1.01408 -1.449856,1.52009 -0.477798,0.49942 -0.956585,0.99788 -1.435883,1.49585 -0.462214,0.48003 -0.926396,0.95816 -1.387568,1.43919 -0.444219,0.46639 -0.888918,0.93231 -1.332193,1.39959 -0.427913,0.45416 -0.852802,0.91116 -1.279252,1.36669 -0.403916,0.43165 -0.80954,0.86168 -1.209201,1.29729 -0.37356,0.40966 -0.74031,0.82546 -1.107168,1.2411 -0.359881,0.40621 -0.723794,0.80879 -1.08208,1.21641 -0.32658,0.37644 -0.646961,0.7582 -0.969052,1.13848 -0.318944,0.37344 -0.638334,0.74649 -0.956146,1.12089 -0.298495,0.35305 -0.599479,0.70398 -0.899112,1.05606 -0.255384,0.29877 -0.507796,0.60003 -0.755997,0.90478 -0.224943,0.27913 -0.454739,0.5543 -0.679495,0.83358 -0.191034,0.23821 -0.37887,0.47896 -0.565631,0.72054 -0.163873,0.21297 -0.322427,0.42996 -0.482344,0.6459 -0.152294,0.20821 -0.307845,0.41401 -0.461277,0.62138 -0.121354,0.16429 -0.240903,0.32991 -0.360688,0.49535 -0.110101,0.15098 -0.221414,0.30108 -0.332602,0.45126 -0.103047,0.13887 -0.20991,0.27484 -0.316548,0.41095 -0.07074,0.0902 -0.141536,0.18038 -0.212325,0.27056 -0.05591,0.0712 -0.111824,0.14244 -0.167735,0.21366 -0.208579,0.29395 -0.480047,0.52468 -0.749692,0.76049 -1.318982,0.89998 -2.594404,0.90979 -3.982215,0.21459 -0.358777,-0.20505 -0.660122,-0.48443 -0.942506,-0.78168 -0.110887,-0.11385 -0.222631,-0.22684 -0.332984,-0.34121 -0.207018,-0.21868 -0.405886,-0.44489 -0.60258,-0.67284 -0.22892,-0.26801 -0.444627,-0.54688 -0.663924,-0.82272 -0.257607,-0.3192 -0.50694,-0.64487 -0.753417,-0.9727 -0.293307,-0.39181 -0.579189,-0.78909 -0.869966,-1.18277 -0.34049,-0.45458 -0.677733,-0.91158 -1.018493,-1.36595 -0.392578,-0.51941 -0.783362,-1.04018 -1.17679,-1.55895 -0.403598,-0.52952 -0.810638,-1.05641 -1.217112,-1.58372 -0.391192,-0.50959 -0.785167,-1.01703 -1.179579,-1.52413 -0.383063,-0.48913 -0.767003,-0.97757 -1.150675,-1.46622 -0.372748,-0.47134 -0.753766,-0.93603 -1.130726,-1.40398 -0.388602,-0.48645 -0.777465,-0.97267 -1.171422,-1.4548 -0.414842,-0.50672 -0.830045,-1.01315 -1.246526,-1.51853 -0.44578,-0.5417 -0.894291,-1.08114 -1.342422,-1.62089 -0.496371,-0.59271 -0.982199,-1.19404 -1.461963,-1.80023 -0.518829,-0.65073 -1.017124,-1.31725 -1.507635,-1.98945 -0.480349,-0.66379 -0.955254,-1.3315 -1.42788,-2.0008 -0.471723,-0.66988 -0.932802,-1.34714 -1.389311,-2.02745 -0.46801,-0.69256 -0.919041,-1.39621 -1.358024,-2.10745 -0.425992,-0.70037 -0.839842,-1.40803 -1.260141,-2.11181 -0.388481,-0.65126 -0.780147,-1.3006 -1.172275,-1.94966 -0.353843,-0.58655 -0.708714,-1.17247 -1.06854,-1.75537 -0.336831,-0.54211 -0.674334,-1.08381 -1.013213,-1.62464 -0.31006,-0.4938 -0.625951,-0.98389 -0.949029,-1.46927 -0.324609,-0.48158 -0.653107,-0.96056 -0.987514,-1.43539 -0.341654,-0.48136 -0.689155,-0.95856 -1.040277,-1.43306 -0.337126,-0.45666 -0.680891,-0.90837 -1.027998,-1.35748 -0.328668,-0.42383 -0.660148,-0.84546 -0.988159,-1.2698 -0.331277,-0.42275 -0.651044,-0.85413 -0.961764,-1.29215 -0.294015,-0.41714 -0.571659,-0.84539 -0.845409,-1.27598 -0.243105,-0.38158 -0.474609,-0.77035 -0.704284,-1.16011 -0.188752,-0.32093 -0.372678,-0.64467 -0.559865,-0.96651 -0.146899,-0.25609 -0.302971,-0.50665 -0.45893,-0.75726 -0.148658,-0.2372 -0.294211,-0.47633 -0.444423,-0.71255 -0.131361,-0.204 -0.262088,-0.40841 -0.392489,-0.61302 -0.11439,-0.1791 -0.227448,-0.35904 -0.339671,-0.5395 -0.07227,-0.11789 -0.145894,-0.23491 -0.221403,-0.35075 -0.074419,-0.11309 -0.148419,-0.22646 -0.2218954,-0.34017 -0.058308,-0.0904 -0.1165262,-0.18075 -0.1747538,-0.27115 -0.083098,-0.12724 -0.00373,-0.009 -0.044448,-0.0658 -0.032172,-0.0439 -0.077221,-0.10356 -0.1216713,-0.16192 -0.035117,-0.0469 -0.071073,-0.093 -0.1076529,-0.13869 -0.040846,-0.0509 -0.081811,-0.10173 -0.1227632,-0.15256 -0.070071,-0.0868 -0.017775,-0.0229 -0.069574,-0.0849 -0.031887,-0.0382 -0.063779,-0.0763 -0.09567,-0.11447 -0.055685,-0.0691 -0.1891043,-0.21785 0.067209,0.0714 0.9162646,0.78203 0.3258976,0.37801 1.8920226,1.01298 -4.7944374,-0.82149 -3.6326785,-7.60185 1.161759,-6.78036 v 0 c 1.596361,0.64131 0.990678,0.23149 1.936063,1.03194 0.07467,0.0834 0.150561,0.16547 0.221177,0.25231 0.03211,0.0384 0.06423,0.0768 0.09633,0.11526 0.04977,0.0596 0.09929,0.11933 0.14765,0.18004 0.04639,0.0576 0.0928,0.11515 0.139051,0.17286 0.07054,0.0883 0.140111,0.17737 0.208207,0.26758 0.07294,0.0959 0.145323,0.19215 0.216399,0.28939 0.08964,0.12434 0.177682,0.24986 0.259184,0.37973 0.05648,0.0877 0.112947,0.17538 0.1695,0.26301 0.0692,0.10711 0.139025,0.21379 0.209047,0.32036 0.101379,0.15586 0.200923,0.31289 0.298159,0.47138 0.09876,0.15886 0.198283,0.31723 0.298983,0.47486 0.132575,0.20803 0.26558,0.41578 0.399004,0.62327 0.16091,0.25377 0.318143,0.50983 0.477232,0.76474 0.192292,0.309 0.383772,0.61853 0.5653,0.93405 0.180545,0.31057 0.358267,0.62278 0.540043,0.93264 0.190377,0.32326 0.381795,0.64599 0.583322,0.96247 0.211698,0.33337 0.425714,0.66539 0.652572,0.98872 0.254916,0.36047 0.518832,0.7143 0.791244,1.06178 0.328161,0.42457 0.659994,0.84628 0.988668,1.27046 0.376445,0.48721 0.749308,0.97721 1.115013,1.47256 0.3833,0.51825 0.762865,1.03929 1.135624,1.56519 0.36882,0.52438 0.73199,1.05274 1.089722,1.58476 0.357329,0.53757 0.707621,1.07976 1.050618,1.6266 0.347031,0.55391 0.692745,1.10865 1.037624,1.6639 0.371245,0.60153 0.737637,1.20602 1.102707,1.81132 0.398211,0.65913 0.795933,1.31856 1.190448,1.97991 0.403463,0.67567 0.801131,1.35481 1.209127,2.02775 0.392345,0.63677 0.796607,1.266 1.215369,1.88577 0.425915,0.63491 0.856133,1.26696 1.296201,1.89219 0.452239,0.64048 0.906683,1.27942 1.366129,1.91476 0.437388,0.59986 0.881658,1.1947 1.344747,1.77509 0.446069,0.56397 0.898157,1.12311 1.359932,1.67434 0.453477,0.5462 0.907328,1.09209 1.358437,1.64025 0.42272,0.51296 0.844148,1.02697 1.265198,1.5413 0.403852,0.49446 0.803026,0.99267 1.201306,1.49163 0.394835,0.49022 0.79411,0.97687 1.184042,1.47102 0.390171,0.49693 0.780637,0.99362 1.170112,1.49109 0.400518,0.51496 0.800587,1.03027 1.197853,1.54774 0.417502,0.54162 0.835584,1.08281 1.25003,1.62677 0.400984,0.52878 0.799364,1.05952 1.199441,1.58898 0.350821,0.46801 0.698386,0.93844 1.048832,1.40673 0.279,0.37804 0.553892,0.7591 0.834879,1.13568 0.208976,0.27818 0.420423,0.55448 0.639265,0.82502 0.16374,0.206 0.324829,0.4142 0.493255,0.61641 0.113067,0.13206 0.228478,0.26214 0.345699,0.39054 0.111739,0.11691 0.226915,0.2305 0.33881,0.34727 0.297042,0.31063 -0.437859,-0.4187 -0.536723,-0.3867 -1.285619,-0.62871 -2.47741,-0.58015 -3.681918,0.25352 -0.04976,0.0442 -0.767715,0.74494 -0.481158,0.45508 0.05588,-0.0712 0.111757,-0.14235 0.167635,-0.21353 0.06945,-0.0885 0.138895,-0.17692 0.208288,-0.26542 0.06803,-0.0868 0.136453,-0.17336 0.202739,-0.26153 0.09669,-0.1306 0.193485,-0.26114 0.289436,-0.3923 0.134064,-0.18516 0.26793,-0.37047 0.403839,-0.55429 0.153752,-0.20757 0.3093,-0.41382 0.461917,-0.62224 0.188267,-0.25421 0.375179,-0.50947 0.568566,-0.75984 0.214783,-0.27772 0.430842,-0.55447 0.650647,-0.82824 0.233133,-0.28915 0.470474,-0.57485 0.703935,-0.86374 0.279228,-0.34243 0.562525,-0.68148 0.849696,-1.01729 0.297754,-0.34987 0.596855,-0.69859 0.893477,-1.04943 0.316203,-0.3725 0.633867,-0.74375 0.95132,-1.1152 0.349501,-0.41264 0.697116,-0.82692 1.052184,-1.2348 0.361278,-0.41077 0.727554,-0.81707 1.090695,-1.22619 0.39634,-0.44905 0.792715,-0.89811 1.19657,-1.34044 0.415118,-0.45216 0.835797,-0.89913 1.2554,-1.34713 0.43684,-0.46662 0.87203,-0.9348 1.310529,-1.39987 0.451628,-0.47604 0.904624,-0.95078 1.357246,-1.42586 0.464294,-0.48424 0.93149,-0.96567 1.396868,-1.44887 0.474334,-0.49281 0.948158,-0.98611 1.421008,-1.48035 0.473559,-0.49509 0.948394,-0.98897 1.418625,-1.48723 0.476218,-0.50448 0.95183,-1.00953 1.4288,-1.5133 0.474938,-0.49907 0.953048,-0.99507 1.432126,-1.49016 0.483899,-0.5032 0.963496,-1.01059 1.453981,-1.50742 0.481494,-0.49182 0.959199,-0.98727 1.435653,-1.48397 0.481486,-0.49869 0.963591,-0.99677 1.443082,-1.49738 0.488894,-0.51012 0.979043,-1.01901 1.46975,-1.52738 0.479562,-0.50335 0.955511,-1.01014 1.429102,-1.51911 0.464754,-0.50115 0.932045,-1.00002 1.390655,-1.50682 0.446918,-0.4966 0.887518,-0.99884 1.320138,-1.50796 0.433817,-0.5093 0.864336,-1.02147 1.283394,-1.54303 0.427752,-0.53565 0.850931,-1.07492 1.269836,-1.61752 0.405267,-0.52683 0.810561,-1.05369 1.207979,-1.58648 0.39131,-0.52895 0.777356,-1.06173 1.160031,-1.59696 0.375552,-0.52509 0.746739,-1.05328 1.122852,-1.57798 0.341453,-0.47752 0.680847,-0.95652 1.018042,-1.43707 0.314392,-0.44915 0.6228,-0.90238 0.9266,-1.35878 0.298133,-0.44016 0.595035,-0.88115 0.891077,-1.32272 0.286017,-0.42463 0.570032,-0.85064 0.861378,-1.27165 0.248481,-0.36232 0.495112,-0.72585 0.73688,-1.09271 0.189455,-0.28346 0.381617,-0.56521 0.563653,-0.85354 0.104769,-0.16742 0.21096,-0.33432 0.30603,-0.5075 0.09229,-0.17938 0.179075,-0.36152 0.270079,-0.54154 0.02993,-0.0601 0.05761,-0.1212 0.0835,-0.18312 -0.0076,0.0348 -0.01506,0.0696 -0.02304,0.10435 -0.0047,0.0371 -0.01889,0.14248 -0.01908,0.19215 -0.0082,0.22809 0.0049,0.45755 0.05716,0.68042 0.02312,0.0911 0.0525,0.18052 0.09056,0.26662 0.04046,0.0891 0.08588,0.17534 0.143751,0.25465 0.01781,0.0244 0.279609,0.34118 0.177324,0.21267 -0.138938,-0.13257 -0.278953,-0.26401 -0.418905,-0.39552 -0.177392,-0.16655 -0.355576,-0.33224 -0.535029,-0.49658 -0.221682,-0.20582 -0.442799,-0.41226 -0.665052,-0.61747 -0.26457,-0.24377 -0.530288,-0.4863 -0.794689,-0.73026 -0.275717,-0.25123 -0.55113,-0.50283 -0.83017,-0.75037 -0.301056,-0.26795 -0.599609,-0.53865 -0.898358,-0.80916 -0.310597,-0.27906 -0.620149,-0.55928 -0.932141,-0.83678 -0.34109,-0.30266 -0.682738,-0.60469 -1.02222,-0.90915 -0.349552,-0.30871 -0.701519,-0.61459 -1.057764,-0.91557 -0.376182,-0.32205 -0.748462,-0.64863 -1.12625,-0.96881 -0.351956,-0.30293 -0.701024,-0.60922 -1.055608,-0.90908 -0.358224,-0.30314 -0.718717,-0.60379 -1.067784,-0.91753 -0.340585,-0.30842 -0.679003,-0.61959 -1.002408,-0.94615 -0.264689,-0.27023 -0.524333,-0.54528 -0.788652,-0.81587 -0.243861,-0.25015 -0.487973,-0.50006 -0.736211,-0.74588 -0.296323,-0.29736 -0.588777,-0.59853 -0.872249,-0.90822 -0.296093,-0.31986 -0.589992,-0.64182 -0.874152,-0.97239 -0.256854,-0.29632 -0.511873,-0.59426 -0.773366,-0.88653 -0.30045,-0.33678 -0.603173,-0.6718 -0.888058,-1.02203 -0.263131,-0.32241 -0.523915,-0.64685 -0.772097,-0.981 -0.196545,-0.26284 -0.392787,-0.52591 -0.586562,-0.79081 -0.127244,-0.17208 -0.259033,-0.34054 -0.400225,-0.50152 -0.171416,-0.19769 -0.345929,-0.39266 -0.52691,-0.58169 -0.156564,-0.16342 -0.312269,-0.32816 -0.483079,-0.47702 -0.199712,-0.17299 -0.401965,-0.34303 -0.607544,-0.50903 -0.151815,-0.12351 -0.303898,-0.24669 -0.455636,-0.37029 0.0048,0.003 0.02519,0.007 5.29e-4,-0.003 -0.46672,-0.30433 0.769247,0.47099 0.947804,0.38194 0.09845,0.0201 0.287112,0.0606 0.368085,0.0651 0.03338,0.003 0.354817,0.0224 0.218237,0.0151 -0.03048,-7.2e-4 -0.06096,-0.001 -0.09144,-0.002 -0.03824,-8.7e-4 -0.07648,-0.002 -0.114721,-0.003 -0.04798,-10e-4 -0.09596,-0.002 -0.143936,-0.003 -0.0602,-0.001 -0.120396,-0.003 -0.180594,-0.004 -0.07552,-0.002 -0.151053,-0.004 -0.226581,-0.005 -0.09476,-0.002 -0.189526,-0.004 -0.284287,-0.007 -0.118896,-0.003 -0.237791,-0.006 -0.356687,-0.008 -0.149172,-0.003 -0.298342,-0.007 -0.447514,-0.0104 -0.186568,-0.004 -0.373134,-0.009 -0.559699,-0.013 -0.231514,-0.005 -0.463024,-0.0109 -0.694537,-0.0163 -0.282945,-0.007 -0.565891,-0.0134 -0.848823,-0.0207 -0.318217,-0.008 -0.636429,-0.0168 -0.954619,-0.026 -0.347586,-0.0102 -0.695164,-0.0207 -1.042681,-0.033 -0.350816,-0.0126 -0.701619,-0.0257 -1.052277,-0.0422 -0.315722,-0.0153 -0.631364,-0.0322 -0.946788,-0.0529 -0.271605,-0.0174 -0.54329,-0.0336 -0.814744,-0.0533 -0.256625,-0.0188 -0.513152,-0.0389 -0.769853,-0.0566 -0.29745,-0.0215 -0.594863,-0.0435 -0.892331,-0.0647 -0.333222,-0.0227 -0.666374,-0.0465 -0.999736,-0.0671 -0.306195,-0.0181 -0.612669,-0.0275 -0.919427,-0.0285 -0.31776,-0.003 -0.635569,-0.004 -0.953302,0.002 -0.343792,0.008 -0.687551,0.0187 -1.031161,0.0327 -0.347781,0.0145 -0.69551,0.0302 -1.043135,0.0481 -0.366292,0.0188 -0.732555,0.0382 -1.098653,0.0604 -0.369885,0.023 -0.739532,0.0492 -1.108684,0.0822 -0.384942,0.0331 -0.769776,0.0677 -1.153935,0.10901 -0.384323,0.0416 -0.768416,0.0856 -1.151692,0.13604 -0.400928,0.0532 -0.801192,0.11099 -1.201123,0.17122 -0.426644,0.062 -0.853842,0.11998 -1.281293,0.17613 -0.425577,0.0558 -0.851812,0.10638 -1.277204,0.16362 -0.468244,0.0623 -0.936519,0.12443 -1.40525,0.18301 -0.492162,0.0595 -0.984337,0.11914 -1.477711,0.1679 -0.480441,0.0482 -0.960927,0.096 -1.44141,0.14386 -0.514705,0.0514 -1.029687,0.10026 -1.545514,0.1391 -0.488185,0.0372 -0.976384,0.0743 -1.464434,0.11323 -0.51844,0.042 -1.036516,0.0887 -1.555327,0.1259 -0.510778,0.0341 -1.021659,0.0667 -1.532318,0.10258 -0.534689,0.0356 -1.069708,0.0657 -1.605256,0.085 -0.501571,0.0206 -1.003128,0.0415 -1.504863,0.0577 -0.450241,0.013 -0.900419,0.0279 -1.350685,0.04 -0.399216,0.0112 -0.798398,0.0235 -1.197525,0.0375 -0.345083,0.0113 -0.690245,0.0202 -1.035248,0.0338 -0.278374,0.011 -0.556715,0.0231 -0.834861,0.0389 -0.274775,0.0158 -0.549328,0.0358 -0.824326,0.0474 -0.162975,0.006 -0.325948,0.0115 -0.488772,0.0206 -0.08069,0.005 -0.209622,0.016 -0.0479,-0.007 0.126904,-0.026 0.251608,-0.06 0.370895,-0.11153 0.248513,-0.11164 0.491826,-0.23846 0.695391,-0.42291 0.07754,-0.0713 0.147643,-0.15037 0.211254,-0.23436 0.05704,-0.0789 -0.0019,-0.001 -0.01177,0.016 -0.06755,0.10932 -0.133252,0.2198 -0.196389,0.33174 -0.09524,0.16685 -0.190479,0.33371 -0.285467,0.50071 -0.10182,0.18213 -0.202973,0.36463 -0.299919,0.54942 -0.132043,0.24852 -0.263408,0.49741 -0.395999,0.74565 -0.164203,0.30868 -0.327686,0.61779 -0.498036,0.92315 -0.192348,0.34449 -0.386175,0.68815 -0.582955,1.03013 -0.227139,0.39571 -0.449283,0.79429 -0.679493,1.18824 -0.266235,0.44981 -0.539826,0.89522 -0.827238,1.33187 -0.297138,0.45306 -0.598436,0.90343 -0.913949,1.34398 -0.28565,0.39947 -0.576433,0.79529 -0.85604,1.19904 -0.288158,0.42231 -0.571212,0.848 -0.854211,1.27377 -0.294392,0.43334 -0.59369,0.86344 -0.909397,1.28163 -0.274613,0.36231 -0.553902,0.721 -0.837259,1.07652 -0.256795,0.32396 -0.514132,0.6475 -0.768766,0.97316 -0.254358,0.32329 -0.505543,0.64909 -0.764222,0.96895 -0.248039,0.30732 -0.494731,0.61579 -0.74935,0.91772 -0.208369,0.24428 -0.420384,0.48547 -0.624483,0.73336 -0.159733,0.19421 -0.318437,0.38944 -0.467599,0.59196 -0.126704,0.17081 -0.250862,0.3435 -0.375207,0.51603 -0.106467,0.15857 -0.205866,0.32173 -0.30511,0.48488 -0.12192,0.20301 -0.242855,0.40661 -0.365468,0.6092 -0.109047,0.17789 -0.216538,0.35675 -0.328804,0.53264 -0.138267,0.21302 -0.282808,0.42186 -0.442807,0.61931 -0.03022,0.038 -0.06766,0.0843 -0.0954,0.12004 -2.850212,3.94179 -8.4247538,-0.089 -5.5745415,-4.03081 z"
       inkscape:connector-curvature="0" />
  </g>
</svg>
