<svg viewBox="0 0 100 100"><path style="opacity:1;fill:#020900;fill-opacity:1;stroke:none;stroke-width:1;stroke-linecap:butt;stroke-linejoin:round;stroke-miterlimit:4;stroke-dasharray:none;stroke-opacity:1" d="M9.202 230.043q.137-.186.281-.366.022-.028.042-.058.128-.204.253-.412l.334-.556q.226-.379.47-.747.281-.408.578-.805c.217-.296.448-.582.68-.865.23-.282.47-.554.706-.83q.32-.386.631-.776c.24-.298.474-.6.711-.902q.391-.497.785-.993.377-.474.744-.956c.244-.324.474-.657.702-.993q.427-.646.863-1.286c.307-.446.628-.883.943-1.324A33 33 0 0 0 19.339 216c.215-.37.423-.742.635-1.112q.276-.48.544-.96.22-.399.43-.8.199-.372.395-.743.18-.341.37-.677l.316-.556q.15-.264.31-.522c.14-.231.298-.45.463-.665a5.4 5.4 0 0 1 .716-.734c.369-.328.8-.56 1.251-.754.327-.13.67-.213 1.016-.276a7 7 0 0 1 .795-.079q.327-.017.655-.028l.664-.04q.479-.026.958-.045c.36-.014.721-.023 1.082-.035q.615-.022 1.23-.039l1.346-.04q.711-.024 1.422-.055.715-.026 1.428-.075l1.532-.103c.487-.035.973-.079 1.459-.118q.749-.06 1.497-.116.693-.054 1.384-.125.72-.071 1.438-.144c.448-.044.894-.098 1.34-.152q.661-.084 1.323-.173c.43-.058.86-.108 1.29-.165q.593-.078 1.186-.163a58 58 0 0 1 5.177-.557 118 118 0 0 1 2.284-.116q.573-.022 1.148-.036.589-.01 1.178-.004.63.002 1.26.04.535.033 1.072.071l.92.067.776.057q.375.026.752.049.42.026.84.047.483.022.966.038a158 158 0 0 0 1.93.057l.833.02.693.017.558.013.447.01.357.008.284.007.227.005.18.004.144.003.115.003.091.002q.183.003.364.023c.165.016.327.05.489.083.374.06.94.367 1.182.528.182.115.356.245.526.378l.542.44q.39.316.767.643c.334.287.643.6.948.918q.389.407.756.833c.255.291.494.596.725.906q.285.39.577.777c.19.255.39.503.59.75.223.271.46.53.694.793.283.316.56.639.838.96q.354.41.724.804.339.37.696.725.398.397.79.801c.26.266.515.537.775.802.229.228.467.445.706.661.294.262.596.514.896.768.37.312.733.63 1.1.946.372.316.74.638 1.11.956q.575.487 1.14.986.515.462 1.034.92.483.432.964.865.434.396.873.787.448.4.891.805l.822.755q.344.318.685.636a61 61 0 0 1 1.022.956c.306.282.563.608.798.95.194.29.349.602.486.923.12.285.203.584.273.885.097.415.112.84.09 1.263a6 6 0 0 1-.122.807c-.062.29-.154.571-.257.849a10 10 0 0 1-.327.753q-.168.345-.343.69c-.18.352-.39.689-.599 1.024-.218.349-.45.69-.678 1.031q-.387.585-.783 1.16-.418.61-.829 1.225l-.901 1.337a75 75 0 0 1-.986 1.445q-.525.75-1.058 1.494c-.377.525-.748 1.054-1.124 1.58q-.605.846-1.224 1.685a138 138 0 0 1-2.633 3.405 77 77 0 0 1-1.422 1.711 78 78 0 0 1-1.443 1.649c-.482.533-.973 1.057-1.461 1.584q-.742.797-1.492 1.586-.743.77-1.485 1.543-.728.758-1.46 1.515-.731.764-1.47 1.518c-.475.483-.94.975-1.41 1.463q-.706.73-1.408 1.465l-1.41 1.493q-.721.763-1.45 1.52-.716.75-1.435 1.496l-1.388 1.44q-.667.699-1.332 1.399l-1.28 1.366c-.403.432-.809.862-1.208 1.298-.374.41-.74.825-1.107 1.24-.36.407-.724.81-1.083 1.217-.326.377-.646.758-.969 1.139l-.956 1.12q-.449.53-.899 1.057-.383.447-.756.905c-.225.279-.455.554-.68.833q-.285.358-.565.72c-.164.214-.322.43-.482.647q-.23.312-.462.62l-.36.496-.333.452q-.156.206-.316.41l-.213.271-.167.214c-.21.294-.48.524-.75.76-1.32.9-2.595.91-3.982.215-.36-.205-.66-.485-.943-.782l-.333-.341a20 20 0 0 1-.602-.673c-.23-.268-.445-.547-.664-.823a36 36 0 0 1-.754-.972c-.293-.392-.579-.79-.87-1.183q-.508-.684-1.018-1.366l-1.177-1.56q-.606-.792-1.217-1.583-.587-.764-1.18-1.524l-1.15-1.466c-.373-.471-.754-.936-1.131-1.404q-.582-.731-1.172-1.455-.621-.76-1.246-1.518-.67-.813-1.343-1.621a84 84 0 0 1-1.461-1.8 59 59 0 0 1-1.508-1.99q-.72-.996-1.428-2-.706-1.007-1.39-2.028a61 61 0 0 1-1.357-2.108c-.426-.7-.84-1.408-1.26-2.112a405 405 0 0 0-2.241-3.705l-1.013-1.624q-.465-.741-.95-1.47-.486-.722-.987-1.435a89 89 0 0 0-2.068-2.79l-.988-1.27a34 34 0 0 1-.962-1.292 32 32 0 0 1-.846-1.276c-.243-.382-.474-.77-.704-1.16-.189-.321-.373-.645-.56-.967a24 24 0 0 0-.459-.757q-.22-.357-.444-.713a155 155 0 0 1-.732-1.152 15 15 0 0 0-.222-.351 49 49 0 0 1-.396-.611c-.083-.128-.004-.01-.045-.066a12 12 0 0 0-.23-.3q-.06-.077-.122-.153c-.07-.087-.018-.023-.07-.085l-.095-.115c-.056-.069-.19-.218.067.072.916.782.326.378 1.892 1.013-4.794-.822-3.633-7.602 1.162-6.78 1.596.64.99.23 1.936 1.031q.113.124.221.253l.096.115.148.18.14.173q.106.132.207.267.11.144.217.29.135.185.259.38l.17.262q.103.162.208.32.152.235.299.472.147.239.299.475.198.312.399.623.24.382.477.765c.192.31.384.619.565.934q.268.466.54.933a30 30 0 0 0 1.236 1.951q.383.54.791 1.062l.989 1.27q.566.73 1.115 1.473.575.776 1.136 1.565a92 92 0 0 1 1.09 1.585q.535.806 1.05 1.626l1.038 1.664q.555.903 1.102 1.812.599.988 1.19 1.98c.404.675.802 1.354 1.21 2.027q.587.956 1.215 1.886.638.953 1.296 1.892.678.961 1.367 1.915c.437.6.881 1.195 1.344 1.775q.668.847 1.36 1.674.682.82 1.359 1.64l1.265 1.542q.605.742 1.201 1.492c.395.49.794.976 1.184 1.47l1.17 1.492q.6.772 1.198 1.547.628.812 1.25 1.627l1.2 1.59 1.049 1.406c.279.378.553.759.834 1.136.21.278.42.554.64.825.163.206.324.414.493.616q.17.198.346.39c.111.117.227.231.338.348.297.31-.437-.419-.536-.387-1.286-.629-2.478-.58-3.682.254-.05.044-.768.745-.481.455l.167-.214.209-.265q.102-.13.202-.262l.29-.392q.2-.278.404-.554.231-.31.461-.623c.189-.254.376-.51.569-.76q.321-.416.65-.828l.705-.863q.418-.514.85-1.018.447-.524.893-1.05.475-.558.951-1.114c.35-.413.697-.827 1.052-1.235q.545-.615 1.091-1.226.593-.676 1.197-1.34.624-.678 1.255-1.348.654-.702 1.31-1.4l1.358-1.426 1.397-1.449q.712-.738 1.42-1.48.712-.741 1.42-1.487.712-.758 1.428-1.513.713-.749 1.432-1.49c.484-.504.964-1.011 1.454-1.508q.722-.738 1.436-1.484l1.443-1.497q.734-.766 1.47-1.528.719-.755 1.429-1.519c.464-.501.932-1 1.39-1.507q.671-.744 1.32-1.508c.434-.509.865-1.021 1.284-1.543q.641-.803 1.27-1.617.61-.789 1.208-1.587.586-.793 1.16-1.597c.375-.525.746-1.053 1.123-1.578q.511-.715 1.018-1.437.47-.674.926-1.358.447-.66.891-1.323c.286-.425.57-.85.862-1.272q.373-.543.737-1.093c.189-.283.381-.565.563-.853.105-.167.211-.334.306-.508.093-.179.18-.361.27-.541q.045-.09.084-.183l-.023.104c-.005.037-.02.143-.02.192a2.6 2.6 0 0 0 .058.68q.034.138.09.267.059.136.144.255c.018.024.28.341.178.213l-.42-.396a59 59 0 0 0-.534-.496l-.665-.618-.795-.73q-.413-.378-.83-.75-.451-.404-.899-.81-.465-.42-.932-.837-.512-.452-1.022-.909-.524-.463-1.058-.915c-.376-.322-.748-.649-1.126-.969-.352-.303-.701-.61-1.056-.91-.358-.302-.718-.603-1.067-.917-.341-.308-.68-.62-1.003-.946-.265-.27-.524-.545-.789-.816q-.363-.376-.736-.746a30 30 0 0 1-.872-.908q-.446-.478-.874-.972c-.257-.296-.512-.594-.773-.887-.3-.336-.604-.671-.889-1.022a27 27 0 0 1-.772-.98 94 94 0 0 1-.586-.792 8 8 0 0 0-.4-.501 16 16 0 0 0-.527-.582c-.157-.163-.313-.328-.483-.477q-.3-.26-.608-.509l-.456-.37c.005.003.026.007 0-.003-.466-.304.77.47.949.382.098.02.287.06.368.065.033.003.355.022.218.015l-.091-.002q-.058 0-.115-.003l-.144-.003-.18-.004-.227-.005-.284-.007-.357-.008-.448-.01-.56-.013-.694-.017-.849-.02a253 253 0 0 1-1.997-.06q-.526-.017-1.052-.042a55 55 0 0 1-.947-.052q-.407-.025-.815-.054-.384-.03-.77-.056l-.892-.065q-.5-.036-1-.067a17 17 0 0 0-.92-.029 34 34 0 0 0-1.984.035 107 107 0 0 0-2.141.109q-.555.034-1.11.082a54 54 0 0 0-2.305.245q-.6.08-1.2.171-.642.093-1.282.176c-.426.056-.852.107-1.277.164q-.703.094-1.406.183c-.492.06-.984.119-1.477.168l-1.442.144q-.772.078-1.545.139-.732.055-1.465.113c-.518.042-1.036.089-1.555.126l-1.532.102q-.802.055-1.606.085-.752.033-1.504.058l-1.351.04q-.6.017-1.198.038-.518.014-1.035.033-.417.015-.835.04c-.275.015-.55.035-.824.047q-.244.008-.489.02c-.08.005-.21.016-.048-.007a2 2 0 0 0 .371-.111c.249-.112.492-.239.695-.423a2 2 0 0 0 .2-.219q-.102.165-.196.332l-.286.5q-.154.274-.3.55-.197.374-.396.746c-.164.309-.327.618-.498.923q-.288.517-.583 1.03c-.227.396-.45.795-.68 1.189q-.398.676-.827 1.331c-.297.453-.598.904-.913 1.344-.286.4-.577.796-.857 1.2q-.43.634-.854 1.273c-.294.434-.593.864-.91 1.282q-.411.542-.836 1.076-.387.486-.77.973c-.254.324-.505.65-.763.97-.248.307-.495.615-.75.917-.208.244-.42.486-.624.734-.16.194-.319.389-.468.591q-.189.257-.375.516-.158.24-.305.485l-.366.61q-.162.267-.328.532a7 7 0 0 1-.443.62l-.096.12c-2.85 3.941-8.424-.09-5.574-4.031z" transform="translate(0 -197)"/></svg>
