<?xml version="1.0" encoding="UTF-8" standalone="no"?>
<!-- Created with Inkscape (http://www.inkscape.org/) -->

<svg
   xmlns:dc="http://purl.org/dc/elements/1.1/"
   xmlns:cc="http://creativecommons.org/ns#"
   xmlns:rdf="http://www.w3.org/1999/02/22-rdf-syntax-ns#"
   xmlns:svg="http://www.w3.org/2000/svg"
   xmlns="http://www.w3.org/2000/svg"
   xmlns:sodipodi="http://sodipodi.sourceforge.net/DTD/sodipodi-0.dtd"
   xmlns:inkscape="http://www.inkscape.org/namespaces/inkscape"
   width="10cm"
   height="10cm"
   viewBox="0 0 100 99.999997"
   version="1.1"
   id="svg8"
   sodipodi:docname="ko.svg"
   inkscape:version="0.92.3 (2405546, 2018-03-11)">
  <defs
     id="defs2" />
  <sodipodi:namedview
     id="base"
     pagecolor="#ffffff"
     bordercolor="#666666"
     borderopacity="1.0"
     inkscape:pageopacity="0.0"
     inkscape:pageshadow="2"
     inkscape:zoom="1"
     inkscape:cx="125.50186"
     inkscape:cy="200.50542"
     inkscape:document-units="cm"
     inkscape:current-layer="layer1"
     showgrid="true"
     units="cm"
     inkscape:window-width="1920"
     inkscape:window-height="1017"
     inkscape:window-x="-8"
     inkscape:window-y="-8"
     inkscape:window-maximized="1"
     inkscape:snap-nodes="false">
    <inkscape:grid
       type="xygrid"
       id="grid815"
       units="cm"
       spacingx="9.9999998"
       spacingy="9.9999998" />
  </sodipodi:namedview>
  <metadata
     id="metadata5">
    <rdf:RDF>
      <cc:Work
         rdf:about="">
        <dc:format>image/svg+xml</dc:format>
        <dc:type
           rdf:resource="http://purl.org/dc/dcmitype/StillImage" />
        <dc:title></dc:title>
      </cc:Work>
    </rdf:RDF>
  </metadata>
  <g
     inkscape:label="Layer 1"
     inkscape:groupmode="layer"
     id="layer1"
     transform="translate(0,-197.00002)">
    <path
       style="opacity:1;fill:#020900;fill-opacity:1;stroke:none;stroke-width:1;stroke-linecap:butt;stroke-linejoin:round;stroke-miterlimit:4;stroke-dasharray:none;stroke-opacity:1"
       id="path1123"
       d="m 30.834572,231.61597 c 0.114095,-0.28113 0.23708,-0.55846 0.36175,-0.83502 0.258055,-0.57008 0.540094,-1.12868 0.829435,-1.68338 0.466307,-0.90401 1.016484,-1.75884 1.599401,-2.59099 0.746397,-1.03815 1.588714,-2.00162 2.443668,-2.95053 0.993304,-1.10539 2.074693,-2.12425 3.191975,-3.1022 1.203227,-1.04311 2.502342,-1.96483 3.828688,-2.84273 1.270164,-0.83046 2.596911,-1.56809 3.93746,-2.27732 1.310026,-0.69313 2.660843,-1.30256 4.029419,-1.8695 1.39451,-0.57563 2.837307,-1.01585 4.29727,-1.38927 1.287415,-0.31718 2.597359,-0.52633 3.910314,-0.70306 1.102611,-0.15174 2.213377,-0.21107 3.325452,-0.21152 0.930262,0.001 1.854939,0.0951 2.77068,0.25269 0.852292,0.15155 1.665907,0.44167 2.451587,0.79803 0.850715,0.38935 1.570307,0.97277 2.219298,1.63676 0.627452,0.66951 1.069525,1.46892 1.44208,2.29989 0.384551,0.86781 0.561276,1.79503 0.65423,2.73358 0.07798,0.9112 -0.0016,1.82181 -0.120351,2.72516 -0.130114,0.90447 -0.32167,1.79836 -0.517448,2.69041 -0.203489,0.92391 -0.428699,1.84278 -0.655656,2.76114 -0.22429,0.89528 -0.431136,1.7947 -0.626338,2.69672 -0.178099,0.79983 -0.328049,1.60489 -0.430085,2.41793 -0.07041,0.57673 -0.07879,1.1568 -0.01185,1.73357 0.06151,0.45199 0.221319,0.87875 0.398632,1.29601 0.228534,0.52463 0.532045,1.01034 0.853935,1.48165 0.353679,0.51004 0.774993,0.9657 1.218814,1.39745 0.551481,0.51803 1.150971,0.98125 1.74916,1.44332 0.71338,0.54691 1.433896,1.08445 2.154002,1.62245 0.713653,0.53758 1.437013,1.06201 2.161548,1.58476 0.762674,0.54319 1.511244,1.10526 2.243267,1.68902 0.75628,0.60445 1.463328,1.26577 2.146477,1.95076 0.705692,0.70834 1.334852,1.48523 1.936269,2.28232 0.555405,0.74822 1.068847,1.52604 1.566309,2.31356 0.484838,0.76607 0.920941,1.56073 1.327267,2.3707 0.456533,0.89925 0.781068,1.85225 1.044487,2.82312 0.255813,0.96316 0.387064,1.95004 0.457774,2.94207 0.06504,1.02438 -0.01714,2.04689 -0.154895,3.06138 -0.151323,1.07685 -0.466066,2.11659 -0.836647,3.13546 -0.399184,1.06289 -0.928041,2.06842 -1.485526,3.05501 -0.591312,1.03195 -1.266122,2.01172 -1.965667,2.97234 -0.726818,0.99209 -1.526429,1.92659 -2.352744,2.83629 -0.814197,0.8893 -1.682339,1.72627 -2.565733,2.54601 -0.871357,0.80677 -1.787567,1.56235 -2.717885,2.29956 -0.923012,0.73367 -1.886452,1.41312 -2.867972,2.06557 -0.971449,0.64158 -1.982208,1.21927 -3.013334,1.75851 -1.063755,0.56259 -2.189086,0.98102 -3.345127,1.30624 -1.110882,0.29923 -2.256983,0.38507 -3.402227,0.40313 -0.933455,0.003 -1.865164,-0.0617 -2.794325,-0.14496 -0.901928,-0.0817 -1.796868,-0.221 -2.686955,-0.38553 -0.888799,-0.16626 -1.762855,-0.39818 -2.629876,-0.65262 -0.890598,-0.26209 -1.761199,-0.58441 -2.622683,-0.92891 -0.844087,-0.343 -1.673905,-0.71959 -2.504712,-1.09321 -0.827114,-0.37049 -1.64937,-0.75169 -2.475995,-1.12326 -0.802108,-0.36645 -1.621435,-0.69193 -2.450555,-0.9915 -0.891841,-0.31897 -1.801923,-0.58213 -2.715265,-0.83128 -0.93848,-0.2565 -1.886286,-0.47442 -2.842432,-0.65332 -0.960506,-0.17353 -1.933019,-0.26096 -2.90595,-0.32599 -0.999403,-0.0632 -2.001023,-0.0612 -3.001513,-0.033 -0.917318,0.0239 -1.828644,0.13094 -2.735703,0.26324 -0.858932,0.12894 -1.71018,0.30186 -2.555588,0.49988 -0.732996,0.17219 -1.452036,0.39542 -2.165706,0.63391 -0.728342,0.25105 -1.456609,0.5021 -2.189419,0.73985 -0.869372,0.29673 -1.765439,0.48965 -2.672539,0.62443 -0.956653,0.13359 -1.922124,0.13038 -2.883662,0.0684 -1.00197,-0.0726 -1.978391,-0.30771 -2.937143,-0.59636 -0.947243,-0.29141 -1.845357,-0.7098 -2.717774,-1.17509 -0.926444,-0.49593 -1.749604,-1.14487 -2.521024,-1.85246 -0.87448,-0.79804 -1.5352855,-1.7648 -2.0852899,-2.80458 -0.5526693,-1.10517 -0.8332745,-2.30428 -1.0167759,-3.51787 -0.170803,-1.23089 -0.1127243,-2.47038 0.027248,-3.69989 0.1585343,-1.23188 0.4826716,-2.43214 0.831702,-3.62124 0.3554994,-1.20021 0.7722732,-2.38049 1.2272448,-3.54621 0.465788,-1.2009 1.058067,-2.34405 1.703593,-3.4565 0.62878,-1.05712 1.343104,-2.0592 2.07451,-3.04683 0.695594,-0.9377 1.433125,-1.84275 2.185624,-2.73503 0.755952,-0.88659 1.530492,-1.75707 2.304894,-2.62752 0.808115,-0.92005 1.643055,-1.81544 2.497121,-2.69281 0.773359,-0.78642 1.560978,-1.5586 2.342562,-2.3368 0.671463,-0.65848 1.309469,-1.34918 1.933081,-2.05272 0.568967,-0.64543 1.11993,-1.30637 1.66241,-1.97412 0.467723,-0.5734 0.920512,-1.1586 1.359338,-1.75434 0.365645,-0.49509 0.704867,-1.00851 1.030822,-1.53033 0.301827,-0.49446 0.593155,-0.99524 0.885567,-1.4953 0.249225,-0.42653 0.498195,-0.85321 0.747193,-1.27986 0.198898,-0.34082 0.39779,-0.68164 0.596683,-1.02247 0.170527,-0.29259 0.339773,-0.58589 0.516892,-0.87457 0.169704,-0.26164 0.07951,-0.12778 0.271605,-0.40089 2.847398,-3.94383 8.424818,0.083 5.577419,4.02683 v 0 c 0.08426,-0.14024 -0.0047,0.0108 0.0074,-0.0169 -0.149778,0.24076 -0.287115,0.48899 -0.431845,0.73277 -0.198916,0.34087 -0.397832,0.68173 -0.596754,1.02259 -0.249992,0.42836 -0.499957,0.85674 -0.750176,1.28497 -0.327366,0.55983 -0.653566,1.12044 -0.993116,1.67301 -0.419576,0.66913 -0.855599,1.32788 -1.325293,1.96317 -0.503544,0.6821 -1.021387,1.35341 -1.557546,2.01028 -0.605254,0.7443 -1.219697,1.48124 -1.854668,2.20048 -0.718432,0.80917 -1.45315,1.60383 -2.225366,2.36232 -0.756702,0.75336 -1.519062,1.50109 -2.268393,2.26182 -0.782362,0.80261 -1.545771,1.62304 -2.285381,2.46537 -0.734494,0.82557 -1.469295,1.65101 -2.186917,2.49136 -0.659958,0.78161 -1.307117,1.57416 -1.917109,2.39572 -0.582015,0.78396 -1.152897,1.57771 -1.657566,2.41444 -0.471373,0.80325 -0.902033,1.62997 -1.240601,2.4991 -0.384849,0.9798 -0.733575,1.9733 -1.03428,2.98238 -0.241997,0.81829 -0.476661,1.642 -0.599381,2.48824 -0.08063,0.63268 -0.124566,1.27104 -0.04983,1.90719 0.05989,0.46497 0.144981,0.92912 0.330212,1.36283 0.154194,0.34347 0.366925,0.64389 0.64463,0.90135 0.334269,0.31957 0.692442,0.61209 1.099699,0.8354 0.470881,0.25768 0.956163,0.48995 1.468541,0.65399 0.458275,0.14417 0.924621,0.26825 1.404632,0.31254 0.476273,0.0386 0.955149,0.042 1.430369,-0.0156 0.52022,-0.0683 1.029629,-0.18847 1.526484,-0.35874 0.714852,-0.23141 1.424389,-0.47842 2.135154,-0.72201 0.915607,-0.30454 1.83867,-0.58758 2.778859,-0.80718 1.036496,-0.2408 2.079707,-0.45289 3.132711,-0.6087 1.171603,-0.1684 2.348872,-0.30168 3.53329,-0.33156 1.218247,-0.0323 2.437794,-0.0333 3.654525,0.0462 1.244016,0.0854 2.487033,0.20275 3.714462,0.42924 1.136981,0.21553 2.265481,0.47111 3.381669,0.77761 1.092403,0.29898 2.180362,0.61641 3.246604,0.99989 0.98961,0.35977 1.968862,0.7471 2.927003,1.18468 0.826638,0.37183 1.649241,0.75254 2.476317,1.1234 0.744586,0.33486 1.487917,0.6732 2.243717,0.98224 0.658651,0.26511 1.324322,0.51321 2.005542,0.71484 0.641062,0.18967 1.287092,0.36376 1.944399,0.48839 0.678326,0.12721 1.36062,0.23385 2.048161,0.29747 0.695145,0.0635 1.392094,0.11401 2.090491,0.11757 0.558266,-0.004 1.11919,-0.025 1.664277,-0.1578 0.690891,-0.18043 1.354217,-0.44363 1.988161,-0.77316 0.818198,-0.42458 1.617993,-0.88378 2.388849,-1.3899 0.822542,-0.54491 1.629148,-1.11358 2.402102,-1.72746 0.790834,-0.62542 1.570016,-1.26608 2.310815,-1.95065 0.741373,-0.68667 1.470861,-1.3869 2.154933,-2.13136 0.661279,-0.72503 1.301216,-1.46994 1.883291,-2.26084 0.546423,-0.74722 1.074809,-1.50857 1.538653,-2.31056 0.375465,-0.65933 0.737743,-1.32854 1.013544,-2.0369 0.208598,-0.55643 0.391063,-1.12317 0.479984,-1.71276 0.08024,-0.54632 0.1314,-1.0971 0.104079,-1.65001 -0.03208,-0.54792 -0.103889,-1.09218 -0.239768,-1.62493 -0.136652,-0.5255 -0.305687,-1.0411 -0.553207,-1.52648 -0.301114,-0.60719 -0.629867,-1.20011 -0.991095,-1.77382 -0.395901,-0.62874 -0.804574,-1.24973 -1.245306,-1.8482 -0.409501,-0.54663 -0.835422,-1.08158 -1.317048,-1.56735 -0.496451,-0.50139 -1.011566,-0.9843 -1.562031,-1.42653 -0.643107,-0.51492 -1.304081,-1.00642 -1.974655,-1.48501 -0.75548,-0.54509 -1.509604,-1.09212 -2.253845,-1.65253 -0.75025,-0.56054 -1.500896,-1.12063 -2.243897,-1.69077 -0.81499,-0.63042 -1.626854,-1.26843 -2.369137,-1.98483 -0.763886,-0.75777 -1.487911,-1.55676 -2.09318,-2.44956 -0.577786,-0.86178 -1.114237,-1.75328 -1.514268,-2.71362 -0.421447,-1.04061 -0.766339,-2.11239 -0.882388,-3.23519 -0.100627,-1.09471 -0.110562,-2.19374 0.03422,-3.28617 0.131056,-1.00759 0.307391,-2.00771 0.530122,-2.99932 0.209582,-0.96694 0.430985,-1.93125 0.671388,-2.89105 0.212627,-0.8603 0.424074,-1.72098 0.614889,-2.58644 0.155395,-0.70686 0.309928,-1.41461 0.418524,-2.1305 0.05509,-0.39581 0.107087,-0.79392 0.08663,-1.19462 -0.01095,-0.20052 -0.02463,-0.40023 -0.103704,-0.58802 -0.04374,-0.10966 -0.09969,-0.21816 -0.135133,-0.32924 -0.01085,-0.064 -0.06639,-0.099 -0.12478,-0.12945 -0.23826,-0.1231 -0.493837,-0.20759 -0.756052,-0.26325 -0.520507,-0.0996 -1.049486,-0.13898 -1.579134,-0.14649 -0.802495,-0.004 -1.603619,0.0423 -2.399324,0.1506 -1.050454,0.13997 -2.099021,0.30315 -3.129981,0.55218 -1.142976,0.28779 -2.27149,0.63182 -3.363206,1.07933 -1.16985,0.48232 -2.323595,1.00306 -3.443113,1.59414 -1.14333,0.60347 -2.275734,1.22979 -3.360113,1.93518 -1.071488,0.70605 -2.122262,1.44598 -3.09558,2.2845 -0.913971,0.79571 -1.796859,1.62679 -2.608492,2.52804 -0.671047,0.74299 -1.335376,1.49474 -1.927146,2.30349 -0.412689,0.58156 -0.798674,1.18145 -1.126702,1.81554 -0.229126,0.43786 -0.452453,0.87882 -0.656973,1.32882 -0.108339,0.23952 -0.213524,0.48036 -0.312733,0.72382 -1.922824,4.46813 -8.241718,1.74885 -6.318891,-2.71928 z"
       inkscape:connector-curvature="0" />
  </g>
</svg>
