<svg viewBox="0 0 100 100"><path style="opacity:1;fill:#020900;fill-opacity:1;stroke:none;stroke-width:1;stroke-linecap:butt;stroke-linejoin:round;stroke-miterlimit:4;stroke-dasharray:none;stroke-opacity:1" d="M30.835 231.616q.173-.42.361-.835c.258-.57.54-1.129.83-1.683.466-.904 1.016-1.76 1.6-2.591.746-1.039 1.588-2.002 2.443-2.95.993-1.106 2.075-2.125 3.192-3.103 1.203-1.043 2.502-1.965 3.828-2.843 1.27-.83 2.597-1.568 3.938-2.277a47 47 0 0 1 4.03-1.87c1.394-.575 2.837-1.016 4.297-1.389 1.287-.317 2.597-.526 3.91-.703a24 24 0 0 1 3.325-.212c.93.001 1.855.096 2.771.253.852.152 1.666.442 2.452.798.85.39 1.57.973 2.219 1.637.627.67 1.07 1.469 1.442 2.3.385.868.561 1.795.654 2.733.078.912-.001 1.822-.12 2.726-.13.904-.322 1.798-.518 2.69-.203.924-.428 1.843-.655 2.761a86 86 0 0 0-.627 2.697 26 26 0 0 0-.43 2.418 7.3 7.3 0 0 0-.011 1.733c.061.452.22.88.398 1.296.229.525.532 1.01.854 1.482.354.51.775.966 1.219 1.397.551.518 1.15.982 1.75 1.444.712.547 1.433 1.084 2.153 1.622.714.538 1.437 1.062 2.162 1.585a52 52 0 0 1 2.243 1.689 26 26 0 0 1 2.146 1.95c.706.71 1.335 1.486 1.937 2.283a37 37 0 0 1 1.566 2.314c.485.766.92 1.56 1.327 2.37.457.9.781 1.853 1.045 2.823.256.964.387 1.95.457 2.943.066 1.024-.017 2.046-.154 3.06-.152 1.078-.466 2.117-.837 3.136-.4 1.063-.928 2.069-1.486 3.055-.59 1.032-1.266 2.012-1.965 2.973-.727.992-1.527 1.926-2.353 2.836a44 44 0 0 1-2.566 2.546 46 46 0 0 1-2.718 2.3 42 42 0 0 1-2.868 2.065 34 34 0 0 1-3.013 1.759c-1.064.562-2.189.98-3.345 1.306-1.11.3-2.257.385-3.402.403a30 30 0 0 1-2.795-.145 29 29 0 0 1-2.687-.385 27 27 0 0 1-2.63-.653 30 30 0 0 1-2.622-.929c-.844-.343-1.674-.72-2.505-1.093-.827-.37-1.65-.752-2.476-1.123a32 32 0 0 0-2.45-.992 37 37 0 0 0-2.716-.831 36 36 0 0 0-2.842-.654c-.96-.173-1.933-.26-2.906-.326-1-.063-2.001-.06-3.002-.033-.917.024-1.828.131-2.735.264-.86.129-1.71.302-2.556.5-.733.172-1.452.395-2.166.633-.728.252-1.456.503-2.189.74-.87.297-1.765.49-2.672.625-.957.133-1.923.13-2.884.068-1.002-.072-1.979-.308-2.937-.596-.948-.292-1.846-.71-2.718-1.175-.927-.496-1.75-1.145-2.521-1.853-.875-.798-1.535-1.765-2.085-2.804-.553-1.106-.834-2.305-1.017-3.518-.171-1.231-.113-2.47.027-3.7.159-1.232.483-2.432.832-3.621.355-1.2.772-2.38 1.227-3.547.466-1.2 1.058-2.344 1.704-3.456.628-1.057 1.343-2.06 2.074-3.047a56 56 0 0 1 2.186-2.735c.756-.887 1.53-1.757 2.305-2.627a72 72 0 0 1 2.497-2.693c.773-.787 1.56-1.559 2.342-2.337a40 40 0 0 0 1.933-2.053 64 64 0 0 0 1.663-1.974q.701-.86 1.36-1.754c.365-.495.704-1.009 1.03-1.53.302-.495.593-.996.886-1.496l.747-1.28.596-1.022c.171-.293.34-.586.517-.875.17-.261.08-.128.272-.4 2.847-3.944 8.425.082 5.577 4.026.085-.14-.004.011.008-.017-.15.241-.287.49-.432.733l-.597 1.023-.75 1.285c-.327.56-.654 1.12-.993 1.673-.42.669-.856 1.328-1.325 1.963a52 52 0 0 1-1.558 2.01 71 71 0 0 1-1.855 2.2 48 48 0 0 1-2.225 2.363c-.757.753-1.52 1.501-2.268 2.262a65 65 0 0 0-2.286 2.465c-.734.826-1.47 1.651-2.187 2.491a49 49 0 0 0-1.917 2.396c-.582.784-1.153 1.578-1.657 2.415-.472.803-.902 1.63-1.241 2.499a37 37 0 0 0-1.034 2.982c-.242.818-.477 1.642-.6 2.488-.08.633-.124 1.271-.05 1.907.06.465.146.93.33 1.363q.231.516.645.902c.335.32.693.612 1.1.835.471.258.956.49 1.469.654.458.144.924.268 1.404.313.477.038.955.042 1.43-.016a8 8 0 0 0 1.527-.359c.715-.231 1.424-.478 2.135-.722a32 32 0 0 1 2.78-.807 40 40 0 0 1 3.132-.609c1.171-.168 2.349-.301 3.533-.331a40 40 0 0 1 3.655.046c1.244.085 2.487.203 3.714.43 1.137.215 2.266.47 3.382.777a43 43 0 0 1 3.246 1c.99.36 1.97.747 2.927 1.184.827.372 1.65.753 2.477 1.124.744.335 1.488.673 2.243.982.66.265 1.325.513 2.006.715.641.19 1.287.364 1.944.488.679.128 1.361.234 2.049.298.695.063 1.392.114 2.09.117.558-.004 1.12-.025 1.664-.157a9.5 9.5 0 0 0 1.988-.774 27 27 0 0 0 2.39-1.39 34 34 0 0 0 2.401-1.727 39 39 0 0 0 2.311-1.95 38 38 0 0 0 2.155-2.132 28 28 0 0 0 1.883-2.26 26 26 0 0 0 1.54-2.311c.375-.66.737-1.329 1.013-2.037.208-.557.39-1.123.48-1.713.08-.546.131-1.097.104-1.65a8.6 8.6 0 0 0-.24-1.625 7.5 7.5 0 0 0-.553-1.526q-.45-.912-.991-1.774a31 31 0 0 0-1.246-1.848c-.41-.547-.835-1.082-1.317-1.568a19 19 0 0 0-1.562-1.426 45 45 0 0 0-1.974-1.485 137 137 0 0 1-2.254-1.653c-.75-.56-1.501-1.12-2.244-1.69-.815-.631-1.627-1.27-2.37-1.986-.763-.757-1.487-1.556-2.092-2.45-.578-.86-1.115-1.752-1.515-2.713-.421-1.04-.766-2.112-.882-3.235-.1-1.095-.11-2.194.034-3.286q.196-1.512.53-3c.21-.966.431-1.93.672-2.89.212-.86.424-1.721.614-2.587.156-.707.31-1.414.419-2.13.055-.396.107-.794.087-1.195-.011-.2-.025-.4-.104-.588-.044-.11-.1-.218-.135-.33-.011-.063-.067-.098-.125-.129a3 3 0 0 0-.756-.263 9 9 0 0 0-1.58-.146 17 17 0 0 0-2.398.15c-1.05.14-2.1.303-3.13.552a25 25 0 0 0-3.364 1.08 40 40 0 0 0-3.443 1.594c-1.143.603-2.276 1.23-3.36 1.935-1.071.706-2.122 1.446-3.095 2.285a30 30 0 0 0-2.609 2.528c-.671.743-1.335 1.494-1.927 2.303a15 15 0 0 0-1.127 1.816 27 27 0 0 0-.657 1.328q-.162.359-.313.724c-1.922 4.468-8.241 1.75-6.318-2.72" transform="translate(0 -197)"/></svg>
