<svg viewBox="0 0 100 100"><path style="opacity:1;fill:#020900;fill-opacity:1;stroke:none;stroke-width:1;stroke-linecap:butt;stroke-linejoin:round;stroke-miterlimit:4;stroke-dasharray:none;stroke-opacity:1" d="M34.258 219.705c.095.018.193.016.29.013.08.006.286-.052.084.016a6 6 0 0 0-.509.212 3 3 0 0 0-.49.283c-.22.16-.424.34-.63.518q-.426.372-.83.77c-.275.27-.535.553-.79.842a11 11 0 0 0-1.332 1.893c-.208.37-.383.757-.547 1.149-.193.473-.347.96-.493 1.448a50 50 0 0 0-.879 3.507 24 24 0 0 0-.284 1.562q-.106.705-.149 1.414-.037.62-.005 1.24c.02.337.07.67.14 1 .062.29.16.57.265.845.078.209.192.4.312.585q.192.295.432.55c.193.195.4.373.613.545.27.214.555.407.843.595q.504.324 1.022.62.586.331 1.176.652c.465.252.925.515 1.384.78q.677.392 1.349.794c.53.31 1.034.657 1.525 1.024.512.384.988.81 1.449 1.254.487.476.935.988 1.363 1.518.423.536.806 1.102 1.177 1.675.354.553.684 1.121 1 1.696.325.597.622 1.208.912 1.822.3.638.578 1.287.845 1.94.291.71.537 1.436.77 2.167a25.7 25.7 0 0 1 1.018 4.584c.11.82.153 1.645.164 2.47.012.855-.076 1.706-.201 2.55a20 20 0 0 1-.555 2.42 21 21 0 0 1-.834 2.34 21 21 0 0 1-1.154 2.267 35 35 0 0 1-1.31 2.047 36 36 0 0 1-1.39 1.89 66 66 0 0 1-1.397 1.722 55 55 0 0 1-1.438 1.66 39 39 0 0 1-1.544 1.58q-.672.657-1.35 1.31-.572.545-1.143 1.092-.505.482-1.018.956l-.802.745q-.307.282-.604.575l-.098.096c-3.481 3.398-8.286-1.525-4.805-4.923l.101-.099c.24-.233.48-.466.725-.691l.807-.749q.473-.437.939-.882l1.14-1.09q.65-.623 1.293-1.253c.427-.419.854-.84 1.258-1.282q.643-.714 1.258-1.454a59 59 0 0 0 1.248-1.536c.392-.504.777-1.013 1.135-1.542.36-.526.712-1.056 1.034-1.606.283-.488.553-.984.776-1.504q.33-.771.564-1.577a13 13 0 0 0 .362-1.54c.075-.478.13-.96.124-1.445a13 13 0 0 0-.106-1.642 18.5 18.5 0 0 0-.755-3.408 21 21 0 0 0-.58-1.645 35 35 0 0 0-.699-1.61 30 30 0 0 0-.719-1.444 22 22 0 0 0-.755-1.282 15 15 0 0 0-.758-1.095 10 10 0 0 0-.786-.883 8.4 8.4 0 0 0-1.712-1.312q-.629-.375-1.262-.743a53 53 0 0 0-1.252-.705q-.66-.358-1.312-.728a30 30 0 0 1-1.35-.822 18 18 0 0 1-1.43-1.026 13 13 0 0 1-1.363-1.26 11 11 0 0 1-1.15-1.5c-.358-.577-.684-1.174-.921-1.813a12.6 12.6 0 0 1-.574-1.918 14 14 0 0 1-.268-2.049 19 19 0 0 1 .013-1.997c.045-.67.11-1.337.212-2a31 31 0 0 1 .361-1.978 58 58 0 0 1 1.016-4.04c.219-.723.451-1.443.742-2.14.272-.64.564-1.274.909-1.88.32-.559.657-1.108 1.035-1.63.353-.484.719-.958 1.115-1.407.368-.417.745-.826 1.144-1.214.368-.36.742-.712 1.131-1.048.43-.372.867-.74 1.341-1.056.465-.304.942-.588 1.45-.814.398-.178.8-.348 1.214-.484.478-.154.964-.287 1.467-.329a5.7 5.7 0 0 1 1.28.035c4.813.702 3.82 7.51-.994 6.807m26.691-1.445h-.539a3 3 0 0 0-.416.03 2.2 2.2 0 0 0-.425.123c-.346.133-.682.29-1.02.445q-.67.306-1.329.64c-.45.226-.887.475-1.32.732q-.686.406-1.35.85a16 16 0 0 0-1.172.902c-.382.317-.741.661-1.086 1.019-.313.32-.582.676-.827 1.05-.284.445-.51.923-.727 1.404-.25.56-.454 1.139-.641 1.722a12 12 0 0 0-.39 1.641c-.088.5-.128 1.007-.14 1.515q-.014.637.093 1.265c.067.364.174.72.31 1.064.132.332.313.641.507.941.215.326.472.622.74.906.32.336.675.636 1.034.93.421.339.852.664 1.287.984.43.314.866.62 1.3.927q.68.486 1.367.96c.515.353 1.036.697 1.554 1.045.603.402 1.19.827 1.768 1.264.612.466 1.195.967 1.773 1.473.59.516 1.154 1.059 1.704 1.615.6.605 1.14 1.264 1.66 1.937.495.644.951 1.315 1.387 1.999.42.668.8 1.359 1.167 2.057.37.707.69 1.439.985 2.18.302.762.547 1.545.776 2.332.234.812.421 1.637.596 2.463.175.847.323 1.7.454 2.554.141.913.218 1.833.26 2.755.046.993-.04 1.982-.18 2.963-.144.936-.391 1.85-.667 2.755-.268.882-.63 1.73-1.023 2.563-.373.77-.79 1.517-1.22 2.256a42 42 0 0 1-1.286 2.032 78 78 0 0 1-2.372 3.368c-.34.46-.68.92-1.03 1.374-.334.43-.688.846-1.042 1.26q-.444.519-.9 1.026-.419.46-.847.912c-.245.261-.5.513-.753.766q-.333.335-.677.658c-.224.209-.457.407-.69.604q-.267.22-.535.437l-.407.338q-.191.158-.385.315l-.298.238c-.024.017-.213.17-.135.107l.273-.26c-3.303 3.572-8.353-1.1-5.05-4.67l.325-.315q.153-.128.311-.252l.262-.208q.15-.12.299-.244l.434-.36.476-.39q.216-.178.425-.368c.176-.163.345-.333.515-.501.207-.207.416-.413.617-.628q.365-.384.722-.775.402-.448.793-.904c.278-.325.556-.65.82-.988.32-.413.63-.835.94-1.255.354-.48.708-.96 1.051-1.447a71 71 0 0 0 1.125-1.64 35 35 0 0 0 1.073-1.691c.334-.573.66-1.15.952-1.746.253-.53.49-1.068.66-1.63.176-.57.34-1.146.437-1.736a8.6 8.6 0 0 0 .114-1.667 18 18 0 0 0-.187-2.01 43 43 0 0 0-.386-2.18 28 28 0 0 0-.47-1.962 20 20 0 0 0-.562-1.707 16 16 0 0 0-.69-1.534 23 23 0 0 0-.878-1.558 21 21 0 0 0-1.029-1.489 14 14 0 0 0-1.105-1.3c-.434-.441-.88-.87-1.345-1.277a27 27 0 0 0-1.392-1.163 29 29 0 0 0-1.448-1.035c-.54-.363-1.084-.722-1.62-1.09q-.73-.502-1.45-1.018c-.468-.332-.938-.661-1.401-1-.53-.39-1.054-.787-1.566-1.201-.595-.49-1.177-.997-1.705-1.56-.553-.6-1.078-1.224-1.517-1.913-.44-.701-.842-1.427-1.136-2.204-.29-.789-.535-1.596-.667-2.428a14 14 0 0 1-.171-2.51c.026-.85.093-1.697.244-2.534.155-.86.344-1.714.616-2.546.268-.827.561-1.646.919-2.44.375-.826.778-1.642 1.28-2.4.482-.713 1.003-1.4 1.607-2.014a21 21 0 0 1 1.636-1.527c.56-.462 1.13-.914 1.734-1.32a37 37 0 0 1 1.669-1.05 29 29 0 0 1 1.718-.95q.78-.397 1.576-.76c.54-.246 1.079-.493 1.638-.691.592-.2 1.195-.37 1.818-.446a10 10 0 0 1 1.229-.083h.574c4.864 0 4.864 6.879 0 6.879" transform="translate(0 -197)"/></svg>
