<?xml version="1.0" encoding="UTF-8" standalone="no"?>
<!-- Created with Inkscape (http://www.inkscape.org/) -->

<svg
   xmlns:dc="http://purl.org/dc/elements/1.1/"
   xmlns:cc="http://creativecommons.org/ns#"
   xmlns:rdf="http://www.w3.org/1999/02/22-rdf-syntax-ns#"
   xmlns:svg="http://www.w3.org/2000/svg"
   xmlns="http://www.w3.org/2000/svg"
   xmlns:sodipodi="http://sodipodi.sourceforge.net/DTD/sodipodi-0.dtd"
   xmlns:inkscape="http://www.inkscape.org/namespaces/inkscape"
   width="10cm"
   height="10cm"
   viewBox="0 0 100 99.999997"
   version="1.1"
   id="svg8"
   sodipodi:docname="kon.svg"
   inkscape:version="0.92.3 (2405546, 2018-03-11)">
  <defs
     id="defs2" />
  <sodipodi:namedview
     id="base"
     pagecolor="#ffffff"
     bordercolor="#666666"
     borderopacity="1.0"
     inkscape:pageopacity="0.0"
     inkscape:pageshadow="2"
     inkscape:zoom="1"
     inkscape:cx="125.50186"
     inkscape:cy="200.50542"
     inkscape:document-units="cm"
     inkscape:current-layer="layer1"
     showgrid="true"
     units="cm"
     inkscape:window-width="1920"
     inkscape:window-height="1017"
     inkscape:window-x="-8"
     inkscape:window-y="-8"
     inkscape:window-maximized="1"
     inkscape:snap-nodes="false">
    <inkscape:grid
       type="xygrid"
       id="grid815"
       units="cm"
       spacingx="9.9999998"
       spacingy="9.9999998" />
  </sodipodi:namedview>
  <metadata
     id="metadata5">
    <rdf:RDF>
      <cc:Work
         rdf:about="">
        <dc:format>image/svg+xml</dc:format>
        <dc:type
           rdf:resource="http://purl.org/dc/dcmitype/StillImage" />
        <dc:title></dc:title>
      </cc:Work>
    </rdf:RDF>
  </metadata>
  <g
     inkscape:label="Layer 1"
     inkscape:groupmode="layer"
     id="layer1"
     transform="translate(0,-197.00002)">
    <path
       style="opacity:1;fill:#020900;fill-opacity:1;stroke:none;stroke-width:1;stroke-linecap:butt;stroke-linejoin:round;stroke-miterlimit:4;stroke-dasharray:none;stroke-opacity:1"
       id="path1125"
       d="m 34.2579,219.7048 c 0.09525,0.0187 0.192884,0.0161 0.289378,0.0134 0.08029,0.006 0.286247,-0.0525 0.08499,0.0155 -0.173458,0.0611 -0.341596,0.1357 -0.508823,0.21186 -0.172866,0.0773 -0.333552,0.17712 -0.489561,0.28361 -0.220464,0.15949 -0.425352,0.33942 -0.630701,0.51761 -0.285469,0.24723 -0.560194,0.50644 -0.830117,0.77044 -0.275066,0.2692 -0.535186,0.5529 -0.789297,0.84178 -0.251785,0.2868 -0.484468,0.58934 -0.707771,0.8986 -0.227899,0.31879 -0.431763,0.65343 -0.624631,0.99424 -0.208171,0.37048 -0.383799,0.75747 -0.547748,1.1491 -0.1929,0.47272 -0.346324,0.95986 -0.492995,1.44845 -0.172287,0.58962 -0.327761,1.18393 -0.47832,1.7794 -0.144645,0.57299 -0.275407,1.14933 -0.399878,1.72699 -0.113474,0.51734 -0.205075,1.03898 -0.284188,1.56256 -0.07159,0.46889 -0.119407,0.94075 -0.149154,1.414 -0.02484,0.41278 -0.02561,0.82638 -0.0049,1.23926 0.01918,0.337 0.06996,0.67084 0.139446,1.00083 0.06252,0.28923 0.159427,0.56907 0.265626,0.84471 0.07773,0.2086 0.191288,0.39929 0.311695,0.58533 0.127474,0.19605 0.272605,0.37913 0.432289,0.54968 0.192562,0.19446 0.400222,0.37276 0.612728,0.54485 0.269391,0.21426 0.55477,0.40704 0.842849,0.59498 0.334883,0.21673 0.677216,0.42154 1.022622,0.62096 0.38921,0.22146 0.782481,0.4357 1.175163,0.65092 0.46587,0.25228 0.925851,0.51511 1.384646,0.77996 0.450713,0.26259 0.900721,0.5264 1.348666,0.79369 0.529387,0.3096 1.034042,0.65746 1.525045,1.0242 0.511765,0.38405 0.988209,0.81111 1.448578,1.2546 0.487413,0.47548 0.93563,0.98799 1.363073,1.51735 0.423576,0.53604 0.806653,1.10216 1.177036,1.67572 0.354266,0.55289 0.684381,1.12057 1.001143,1.69561 0.324144,0.59683 0.621385,1.20773 0.911315,1.82174 0.300048,0.63837 0.577739,1.28681 0.844992,1.93947 0.291312,0.70998 0.536525,1.43727 0.768972,2.16822 0.232899,0.73328 0.430085,1.47681 0.604165,2.22602 0.179332,0.77826 0.307385,1.56649 0.413361,2.35764 0.11143,0.81907 0.154472,1.64443 0.165481,2.47026 0.01204,0.85506 -0.07622,1.70551 -0.201252,2.54997 -0.125862,0.81942 -0.326967,1.62381 -0.555056,2.41993 -0.227783,0.79737 -0.514033,1.57526 -0.833665,2.33984 -0.331076,0.78236 -0.731661,1.53153 -1.154383,2.2674 -0.407318,0.70049 -0.854001,1.37682 -1.309891,2.04633 -0.439073,0.6479 -0.91009,1.273 -1.390237,1.89077 -0.454303,0.58288 -0.923348,1.154 -1.396902,1.72128 -0.46858,0.56246 -0.946484,1.11692 -1.437233,1.66013 -0.495641,0.54496 -1.018376,1.06416 -1.54418,1.57975 -0.448386,0.43856 -0.898122,0.87573 -1.351219,1.30943 -0.379955,0.36499 -0.761587,0.72824 -1.14232,1.09243 -0.336491,0.32162 -0.676227,0.63981 -1.017606,0.95623 -0.267583,0.24816 -0.534995,0.4965 -0.80246,0.74478 -0.205451,0.18742 -0.404418,0.38168 -0.60352,0.57577 -0.03273,0.0319 -0.06546,0.0639 -0.09819,0.0958 -3.480912,3.39775 -8.286059,-1.525 -4.805148,-4.92275 v 0 c 0.03385,-0.033 0.0677,-0.0661 0.101545,-0.0991 0.239172,-0.23313 0.478729,-0.4659 0.725124,-0.69144 0.268851,-0.24958 0.537649,-0.49921 0.806625,-0.74865 0.314896,-0.29178 0.628221,-0.58526 0.938601,-0.88185 0.38028,-0.36374 0.761436,-0.72656 1.140939,-1.09111 0.433297,-0.41463 0.863187,-0.83279 1.291992,-1.25206 0.427786,-0.41922 0.854337,-0.84015 1.25853,-1.28243 0.430514,-0.47498 0.847233,-0.96205 1.258126,-1.45408 0.42274,-0.50614 0.841597,-1.01559 1.247243,-1.5356 0.392144,-0.50375 0.777669,-1.01289 1.135851,-1.54161 0.358965,-0.52609 0.711816,-1.05685 1.033888,-1.60658 0.282628,-0.48836 0.552805,-0.98438 0.775267,-1.50362 0.219463,-0.51417 0.408749,-1.04022 0.564073,-1.5775 0.148005,-0.50631 0.278513,-1.01811 0.362278,-1.53945 0.07488,-0.47826 0.129394,-0.96017 0.124447,-1.44513 -0.0042,-0.5489 -0.03284,-1.0974 -0.10608,-1.64186 -0.07547,-0.57568 -0.167608,-1.14913 -0.296884,-1.7155 -0.130362,-0.57001 -0.28227,-1.13467 -0.458152,-1.69243 -0.175567,-0.55453 -0.359127,-1.10691 -0.57952,-1.64556 -0.221083,-0.54159 -0.451418,-1.07944 -0.699714,-1.60919 -0.229031,-0.48655 -0.463883,-0.97064 -0.718862,-1.44422 -0.238027,-0.43533 -0.48863,-0.86372 -0.755015,-1.28237 -0.239715,-0.37369 -0.487172,-0.74293 -0.758471,-1.09464 -0.24512,-0.30896 -0.505828,-0.6051 -0.785643,-0.88329 -0.251005,-0.24619 -0.51285,-0.48133 -0.792856,-0.6944 -0.2942,-0.22349 -0.599564,-0.43119 -0.918972,-0.61734 -0.419203,-0.2503 -0.840557,-0.49696 -1.262284,-0.74298 -0.414761,-0.23945 -0.830424,-0.47737 -1.251741,-0.70517 -0.438732,-0.24048 -0.878084,-0.47992 -1.312453,-0.72824 -0.455988,-0.26401 -0.907984,-0.53504 -1.349682,-0.82248 -0.490287,-0.32227 -0.974077,-0.65536 -1.429753,-1.02567 -0.478156,-0.39361 -0.944072,-0.80351 -1.363406,-1.26045 -0.419699,-0.47075 -0.814225,-0.9636 -1.149778,-1.49884 -0.358501,-0.57717 -0.683977,-1.17495 -0.921463,-1.81338 -0.234009,-0.62575 -0.441511,-1.26213 -0.574023,-1.91805 -0.133302,-0.67648 -0.236239,-1.35915 -0.267637,-2.04885 -0.02807,-0.66562 -0.03094,-1.33215 0.01267,-1.99733 0.0449,-0.66907 0.110432,-1.3366 0.212753,-1.99957 0.101377,-0.66271 0.216906,-1.32323 0.360577,-1.97824 0.14185,-0.65693 0.290692,-1.31238 0.455411,-1.964 0.176043,-0.69517 0.358053,-1.38893 0.560741,-2.07688 0.218471,-0.72273 0.451362,-1.44184 0.742152,-2.13931 0.272025,-0.64083 0.563811,-1.27365 0.908402,-1.8793 0.3201,-0.55929 0.657691,-1.10877 1.035724,-1.63122 0.352589,-0.48358 0.718359,-0.95771 1.114795,-1.4065 0.368315,-0.41665 0.74523,-0.82585 1.143502,-1.21425 0.368297,-0.3588 0.742667,-0.71151 1.131805,-1.04777 0.430451,-0.37208 0.866537,-0.73967 1.340564,-1.0559 0.464577,-0.30377 0.942362,-0.58785 1.450467,-0.81372 0.397222,-0.17864 0.798807,-0.34855 1.212988,-0.48448 0.478208,-0.15364 0.964732,-0.28713 1.46744,-0.32878 0.426993,-0.0283 0.855329,-0.0327 1.279472,0.0346 4.813308,0.70251 3.819805,7.50956 -0.993502,6.80705 z"
       inkscape:connector-curvature="0" />
    <path
       style="opacity:1;fill:#020900;fill-opacity:1;stroke:none;stroke-width:1;stroke-linecap:butt;stroke-linejoin:round;stroke-miterlimit:4;stroke-dasharray:none;stroke-opacity:1"
       id="path1127"
       d="m 60.948948,218.2598 c -0.179645,2e-4 -0.359289,-5e-4 -0.53893,5e-4 -0.139597,-0.002 -0.278249,0.0117 -0.41629,0.0306 -0.146352,0.0226 -0.28651,0.0713 -0.424844,0.12252 -0.346022,0.13298 -0.682104,0.29012 -1.019075,0.44415 -0.44791,0.2038 -0.890728,0.41837 -1.329642,0.64082 -0.449543,0.22597 -0.886958,0.47458 -1.319514,0.73125 -0.457034,0.27208 -0.908217,0.55375 -1.349918,0.85007 -0.407567,0.27826 -0.793038,0.58703 -1.172522,0.902 -0.382373,0.31758 -0.741243,0.6617 -1.086181,1.01918 -0.313295,0.31959 -0.582197,0.67659 -0.827283,1.04991 -0.284226,0.44536 -0.510408,0.92345 -0.726286,1.40455 -0.250545,0.55994 -0.454433,1.13845 -0.641927,1.72197 -0.17412,0.53587 -0.292555,1.08652 -0.389806,1.64073 -0.08756,0.5007 -0.128045,1.00721 -0.139321,1.51487 -0.01027,0.42408 0.02159,0.8474 0.0923,1.26534 0.06767,0.36399 0.174591,0.7191 0.309756,1.06336 0.132286,0.33271 0.313576,0.64144 0.507206,0.94136 0.215675,0.3265 0.47221,0.62205 0.740416,0.90585 0.320751,0.33588 0.675055,0.63657 1.034174,0.93009 0.420719,0.33868 0.851969,0.66394 1.286563,0.98452 0.430463,0.31324 0.866518,0.61868 1.300498,0.927 0.452816,0.32395 0.908381,0.64401 1.366981,0.95972 0.514603,0.35299 1.03538,0.69684 1.553466,1.04467 0.603017,0.40237 1.190548,0.82688 1.768523,1.26425 0.611386,0.46579 1.194535,0.96679 1.772301,1.4732 0.589586,0.51552 1.153956,1.05852 1.70458,1.61517 0.599917,0.60492 1.140437,1.26342 1.660457,1.93705 0.493961,0.64368 0.950531,1.31433 1.386183,1.99844 0.419944,0.66775 0.800783,1.35881 1.166839,2.0572 0.37083,0.70684 0.689727,1.43854 0.985703,2.17929 0.301514,0.76289 0.546801,1.54586 0.775856,2.33298 0.233712,0.81204 0.421153,1.6361 0.595408,2.4626 0.175662,0.84699 0.323045,1.69939 0.454382,2.55426 0.140949,0.91262 0.218279,1.83271 0.259868,2.75467 0.04645,0.99257 -0.04026,1.98173 -0.180665,2.96315 -0.142706,0.93607 -0.390647,1.85036 -0.666673,2.75454 -0.267317,0.88284 -0.629365,1.73094 -1.02302,2.56359 -0.372647,0.7699 -0.790241,1.51666 -1.220012,2.25577 -0.403971,0.69279 -0.842804,1.36417 -1.285938,2.03228 -0.402373,0.60632 -0.814917,1.20577 -1.234006,1.80063 -0.372073,0.52728 -0.754232,1.04732 -1.13718,1.56672 -0.3401,0.46054 -0.680886,0.92053 -1.030311,1.37404 -0.334423,0.43082 -0.687726,0.84645 -1.042313,1.26067 -0.295973,0.34549 -0.596037,0.68741 -0.899946,1.02592 -0.278317,0.30752 -0.561781,0.6103 -0.847063,0.91136 -0.245004,0.26136 -0.499232,0.51378 -0.752882,0.76668 -0.222547,0.22243 -0.447268,0.4426 -0.676871,0.65774 -0.22366,0.2087 -0.456779,0.40685 -0.690734,0.60381 -0.176935,0.14727 -0.356656,0.29115 -0.534358,0.43749 -0.135927,0.11234 -0.271476,0.22512 -0.407067,0.33786 -0.127246,0.10597 -0.255487,0.21074 -0.384426,0.31464 -0.09937,0.0796 -0.199152,0.15865 -0.298895,0.23777 -0.02323,0.0177 -0.212791,0.16972 -0.13489,0.10693 0.09112,-0.0863 0.182235,-0.17254 0.273352,-0.25881 -3.303143,3.57081 -8.353036,-1.10053 -5.049893,-4.67135 v 0 c 0.108164,-0.1047 0.216329,-0.2094 0.324493,-0.3141 0.102616,-0.0857 0.206542,-0.16979 0.311878,-0.25218 0.08727,-0.0692 0.174582,-0.13842 0.261598,-0.20797 0.100375,-0.0805 0.199732,-0.16233 0.298726,-0.24454 0.144674,-0.12029 0.2893,-0.24064 0.434371,-0.36045 0.158081,-0.12998 0.317286,-0.25858 0.475446,-0.38846 0.143653,-0.12086 0.287724,-0.24139 0.425667,-0.3688 0.175633,-0.16275 0.344252,-0.33281 0.51453,-0.50111 0.207695,-0.20708 0.416531,-0.41312 0.616979,-0.62729 0.243015,-0.25637 0.484579,-0.51412 0.721945,-0.77574 0.267853,-0.29812 0.532013,-0.59949 0.792832,-0.90379 0.278413,-0.32502 0.55668,-0.65045 0.820359,-0.98763 0.319574,-0.41379 0.629433,-0.83488 0.940557,-1.25503 0.3538,-0.47986 0.707138,-0.96011 1.051004,-1.44717 0.382124,-0.54203 0.757989,-1.08845 1.124812,-1.64098 0.369068,-0.55609 0.736111,-1.11392 1.073166,-1.69024 0.333886,-0.57265 0.659196,-1.15072 0.951214,-1.7461 0.253281,-0.52957 0.489638,-1.0677 0.660453,-1.63048 0.176297,-0.57012 0.339995,-1.14542 0.436857,-1.73523 0.0847,-0.55169 0.138347,-1.10806 0.114157,-1.66707 -0.02719,-0.673 -0.08576,-1.3443 -0.187029,-2.01049 -0.11126,-0.72952 -0.237434,-1.45673 -0.386347,-2.17959 -0.138025,-0.65814 -0.28548,-1.3146 -0.470186,-1.96148 -0.166378,-0.57552 -0.342749,-1.14866 -0.56107,-1.70699 -0.206259,-0.52171 -0.429734,-1.03664 -0.689644,-1.5342 -0.275781,-0.52885 -0.563126,-1.05199 -0.878708,-1.55834 -0.322416,-0.51014 -0.662975,-1.00856 -1.029105,-1.48853 -0.346583,-0.45174 -0.704345,-0.89558 -1.105268,-1.30094 -0.433795,-0.44056 -0.87997,-0.86881 -1.345133,-1.27633 -0.454314,-0.39875 -0.911651,-0.79473 -1.391603,-1.16264 -0.472641,-0.35897 -0.954265,-0.70579 -1.447927,-1.03541 -0.540491,-0.36292 -1.083855,-0.7216 -1.620483,-1.09024 -0.486164,-0.3349 -0.969436,-0.67394 -1.449543,-1.01748 -0.467808,-0.33237 -0.937943,-0.66152 -1.401355,-1.00003 -0.529191,-0.39076 -1.0541,-0.78753 -1.565381,-1.20159 -0.595318,-0.48987 -1.177478,-0.99722 -1.70528,-1.56053 -0.552862,-0.59833 -1.078065,-1.22325 -1.516634,-1.91187 -0.440301,-0.70136 -0.842824,-1.42729 -1.135943,-2.20412 -0.291153,-0.78909 -0.535009,-1.59593 -0.667785,-2.42839 -0.124026,-0.8312 -0.197913,-1.66926 -0.170783,-2.51072 0.02633,-0.84878 0.09346,-1.69606 0.243864,-2.53286 0.155432,-0.86019 0.34439,-1.71457 0.615987,-2.54655 0.268377,-0.82688 0.561303,-1.64614 0.918938,-2.43929 0.375171,-0.82626 0.778023,-1.64192 1.279728,-2.40019 0.482238,-0.71296 1.003131,-1.39946 1.608011,-2.01431 0.520978,-0.53418 1.059754,-1.05123 1.63563,-1.52652 0.560316,-0.46251 1.130602,-0.91408 1.733738,-1.32011 0.546952,-0.3649 1.103114,-0.71559 1.668769,-1.05087 0.56356,-0.33319 1.133393,-0.65592 1.718525,-0.95004 0.520554,-0.2631 1.045173,-0.51802 1.576173,-0.75947 0.538818,-0.24622 1.078322,-0.49323 1.637234,-0.69125 0.592502,-0.19997 1.195736,-0.37054 1.818481,-0.44547 0.407985,-0.049 0.817684,-0.0847 1.229034,-0.0829 0.191305,-9e-4 0.382612,-5.6e-4 0.573919,-6.1e-4 4.864306,0 4.864306,6.87917 0,6.87917 z"
       inkscape:connector-curvature="0" />
  </g>
</svg>
