<?xml version="1.0" encoding="UTF-8" standalone="no"?>
<!-- Created with Inkscape (http://www.inkscape.org/) -->

<svg
   xmlns:dc="http://purl.org/dc/elements/1.1/"
   xmlns:cc="http://creativecommons.org/ns#"
   xmlns:rdf="http://www.w3.org/1999/02/22-rdf-syntax-ns#"
   xmlns:svg="http://www.w3.org/2000/svg"
   xmlns="http://www.w3.org/2000/svg"
   xmlns:sodipodi="http://sodipodi.sourceforge.net/DTD/sodipodi-0.dtd"
   xmlns:inkscape="http://www.inkscape.org/namespaces/inkscape"
   width="10cm"
   height="10cm"
   viewBox="0 0 100 99.999997"
   version="1.1"
   id="svg8"
   sodipodi:docname="kule.svg"
   inkscape:version="0.92.3 (2405546, 2018-03-11)">
  <defs
     id="defs2" />
  <sodipodi:namedview
     id="base"
     pagecolor="#ffffff"
     bordercolor="#666666"
     borderopacity="1.0"
     inkscape:pageopacity="0.0"
     inkscape:pageshadow="2"
     inkscape:zoom="1"
     inkscape:cx="125.50186"
     inkscape:cy="200.50542"
     inkscape:document-units="cm"
     inkscape:current-layer="layer1"
     showgrid="true"
     units="cm"
     inkscape:window-width="1920"
     inkscape:window-height="1017"
     inkscape:window-x="-8"
     inkscape:window-y="-8"
     inkscape:window-maximized="1"
     inkscape:snap-nodes="false">
    <inkscape:grid
       type="xygrid"
       id="grid815"
       units="cm"
       spacingx="9.9999998"
       spacingy="9.9999998" />
  </sodipodi:namedview>
  <metadata
     id="metadata5">
    <rdf:RDF>
      <cc:Work
         rdf:about="">
        <dc:format>image/svg+xml</dc:format>
        <dc:type
           rdf:resource="http://purl.org/dc/dcmitype/StillImage" />
        <dc:title></dc:title>
      </cc:Work>
    </rdf:RDF>
  </metadata>
  <g
     inkscape:label="Layer 1"
     inkscape:groupmode="layer"
     id="layer1"
     transform="translate(0,-197.00002)">
    <path
       style="opacity:1;fill:#020900;fill-opacity:1;stroke:none;stroke-width:1;stroke-linecap:butt;stroke-linejoin:round;stroke-miterlimit:4;stroke-dasharray:none;stroke-opacity:1"
       id="path1129"
       d="m 25.005928,278.29003 c 0.221464,-0.005 0.442808,0.005 0.664071,0.0128 0.13392,0.007 0.267607,0.008 0.401544,0.005 0.190939,-0.0102 0.381806,-0.0213 0.572586,-0.0342 0.177792,-0.01 0.354131,-0.0333 0.52986,-0.0611 0.29378,-0.0495 0.587597,-0.0988 0.881872,-0.14531 0.353822,-0.0557 0.708718,-0.10385 1.064088,-0.14837 0.349721,-0.0433 0.699307,-0.0877 1.049369,-0.12816 0.399899,-0.0434 0.80028,-0.082 1.200002,-0.1271 0.485997,-0.0543 0.972153,-0.10717 1.458124,-0.16174 0.585107,-0.067 1.171559,-0.12086 1.758333,-0.17072 0.627822,-0.0526 1.256451,-0.0946 1.88509,-0.13593 0.621306,-0.0411 1.242142,-0.0888 1.86322,-0.13308 0.662755,-0.0471 1.326018,-0.0865 1.989386,-0.12372 0.662853,-0.0371 1.326039,-0.0677 1.989206,-0.0986 0.651121,-0.0326 1.302293,-0.0641 1.953583,-0.0932 0.673002,-0.0299 1.346208,-0.0547 2.019464,-0.078 0.701773,-0.0242 1.403766,-0.0413 2.105753,-0.058 0.72577,-0.018 1.451755,-0.0231 2.177708,-0.0267 0.737688,-0.004 1.475365,0.004 2.212999,0.0116 0.734912,0.008 1.469827,0.0145 2.204667,0.0273 0.754412,0.0129 1.507726,0.0565 2.260402,0.10694 0.704633,0.0491 1.407782,0.1169 2.110838,0.18439 0.704236,0.0654 1.40716,0.14349 2.109324,0.22805 0.666356,0.0822 1.332802,0.16364 1.999015,0.24701 0.592142,0.0746 1.184023,0.15133 1.775796,0.22885 0.473495,0.0621 0.946967,0.12444 1.420444,0.18673 0.405673,0.052 0.810729,0.10829 1.214864,0.17111 0.370411,0.0589 0.73928,0.12673 1.106635,0.20225 0.332007,0.0706 0.662237,0.1492 0.99187,0.23008 0.298755,0.0719 0.596355,0.14842 0.893226,0.22772 0.242223,0.0647 0.485156,0.12666 0.727562,0.19065 0.237487,0.0616 0.473408,0.12905 0.708501,0.19922 0.192434,0.0588 0.383243,0.12272 0.573836,0.18717 0.12228,0.0416 0.244433,0.0835 0.366599,0.12545 0.192209,0.0621 0.379185,0.13747 0.564515,0.21748 0.530235,0.25667 1.034605,0.60909 1.381059,1.09619 0.169584,0.23843 0.478131,0.46954 0.439835,0.75961 -0.183893,1.39292 -0.718717,2.71654 -1.078074,4.07481 -0.919588,0.69792 -1.980427,0.87444 -3.088934,0.6957 -0.480874,-0.0922 -0.928904,-0.28742 -1.359373,-0.51418 -0.465939,-0.24294 -0.873427,-0.57219 -1.256197,-0.92848 -0.364458,-0.35508 -0.673073,-0.76052 -0.979125,-1.16538 -0.310647,-0.41259 -0.609571,-0.8338 -0.905282,-1.25716 -0.407162,-0.57868 -0.784342,-1.17736 -1.152541,-1.78131 -0.437854,-0.72277 -0.84841,-1.4615 -1.254427,-2.20247 -0.468238,-0.84935 -0.905129,-1.71519 -1.324044,-2.58975 -0.459594,-0.96863 -0.881655,-1.95424 -1.284914,-2.94743 -0.429646,-1.07291 -0.824865,-2.15908 -1.213535,-3.24735 -0.380916,-1.07489 -0.758397,-2.151 -1.132343,-3.22833 -0.373562,-1.07423 -0.730975,-2.15394 -1.08059,-3.23617 -0.359378,-1.11917 -0.70281,-2.24337 -1.036955,-3.3703 -0.351713,-1.19454 -0.669978,-2.3985 -0.978117,-3.60489 -0.310854,-1.23506 -0.597416,-2.47604 -0.887534,-3.71608 -0.291415,-1.23722 -0.582673,-2.47447 -0.87286,-3.71197 -0.288963,-1.22336 -0.568251,-2.44893 -0.840598,-3.67608 -0.278272,-1.26187 -0.531151,-2.52913 -0.784608,-3.79615 -0.246647,-1.2429 -0.506225,-2.48315 -0.769882,-3.72253 -0.241057,-1.126 -0.484381,-2.25152 -0.72607,-3.37739 -0.19618,-0.9202 -0.401079,-1.83849 -0.606925,-2.75656 -0.160623,-0.72138 -0.324085,-1.44212 -0.498276,-2.16036 -0.138965,-0.56511 -0.281295,-1.12939 -0.423257,-1.69376 -0.106997,-0.42518 -0.211018,-0.85107 -0.329073,-1.27334 -0.09299,-0.32387 -0.188166,-0.64711 -0.287671,-0.96903 -0.07795,-0.24704 -0.155368,-0.49428 -0.239045,-0.73944 -0.04549,-0.1308 -0.09046,-0.26897 -0.142717,-0.3938 0.0067,0.0247 0.01757,0.0474 0.02934,0.0699 0.160025,0.25804 0.396536,0.45295 0.63133,0.63944 0.74241,0.53914 1.597247,0.62014 2.478074,0.48445 0.530882,-0.13042 1.012587,-0.38893 1.39322,-0.78074 0.147695,-0.18413 -0.09818,0.1823 -0.118399,0.2143 -0.155316,0.24906 -0.305559,0.50119 -0.455163,0.75369 -0.202824,0.34071 -0.395702,0.68711 -0.586919,1.03441 -0.257493,0.4752 -0.509231,0.95347 -0.764413,1.4299 -0.322091,0.59845 -0.660832,1.18772 -0.999631,1.77681 -0.37188,0.64952 -0.759962,1.28949 -1.152152,1.92688 -0.401238,0.64726 -0.808341,1.29084 -1.209058,1.93843 -0.422733,0.68394 -0.841978,1.37003 -1.260928,2.0563 -0.432773,0.70496 -0.862848,1.41158 -1.294876,2.11699 -0.447138,0.73008 -0.889674,1.46294 -1.326374,2.1993 -0.449975,0.76133 -0.884516,1.53163 -1.315496,2.30382 -0.439332,0.79132 -0.873913,1.58526 -1.306454,2.3803 -0.428254,0.78282 -0.842539,1.57311 -1.249222,2.36731 -0.402513,0.78839 -0.786582,1.58597 -1.168162,2.38464 -0.386966,0.81735 -0.775046,1.63419 -1.162333,2.45139 -0.382677,0.80722 -0.75547,1.61904 -1.12432,2.43264 -0.368938,0.81473 -0.735182,1.63066 -1.101387,2.44661 -0.356174,0.78631 -0.705641,1.57558 -1.046959,2.36845 -0.337515,0.78729 -0.661762,1.58017 -0.988023,2.37216 -0.331716,0.80649 -0.658405,1.61503 -0.989377,2.42183 -0.344525,0.8275 -0.684861,1.65672 -1.022514,2.48705 -0.346797,0.8591 -0.697394,1.71664 -1.058066,2.57003 -0.348205,0.82275 -0.715172,1.63732 -1.085228,2.45041 -0.350023,0.76984 -0.715048,1.5327 -1.079887,2.29559 -0.326244,0.68492 -0.650039,1.37099 -0.980143,2.05406 -0.302536,0.63086 -0.622607,1.253 -0.948201,1.8722 -0.296148,0.56003 -0.605249,1.11307 -0.910927,1.66793 -0.255634,0.46324 -0.506815,0.92892 -0.759805,1.39361 -0.214893,0.39582 -0.433629,0.78954 -0.654861,1.18185 -0.183883,0.32308 -0.370958,0.64432 -0.556449,0.96648 -0.14872,0.25775 -0.300004,0.51401 -0.44902,0.77159 -0.116485,0.2021 -0.232363,0.40454 -0.348309,0.60695 -0.09454,0.16506 -0.189077,0.33013 -0.28361,0.4952 -0.0754,0.13166 -0.150794,0.26331 -0.22619,0.39497 -0.05551,0.0979 -0.110525,0.19603 -0.165595,0.29415 -0.110252,0.26586 0.165105,-0.41662 0.199491,-0.52131 0.03162,-0.12212 0.05713,-0.24594 0.07718,-0.37047 -0.0045,0.0518 -0.0087,0.10372 -0.01288,0.1556 0.09071,-0.54499 -0.191716,-1.25611 -0.391542,-1.81216 2.336089,4.26663 -3.69784,7.57036 -6.033929,3.30373 v 0 c -0.253604,-0.68478 -0.534366,-1.2987 -0.4316,-2.04248 0.0057,-0.0711 0.01152,-0.14227 0.01776,-0.21336 0.02462,-0.27451 0.06074,-0.54845 0.133906,-0.81493 0.114581,-0.36446 0.241905,-0.72395 0.442679,-1.05147 0.06479,-0.11544 0.129497,-0.23092 0.194969,-0.34597 0.0754,-0.13166 0.1508,-0.26332 0.2262,-0.39498 0.09466,-0.16529 0.189316,-0.33058 0.283986,-0.49586 0.12108,-0.21137 0.242087,-0.42279 0.363774,-0.63381 0.146495,-0.25298 0.294816,-0.5049 0.441157,-0.75797 0.175329,-0.3045 0.35204,-0.60821 0.526194,-0.91339 0.204439,-0.3624 0.406459,-0.72616 0.604975,-1.09184 0.258469,-0.47469 0.515054,-0.95042 0.776247,-1.42363 0.284335,-0.51609 0.57196,-1.03043 0.847992,-1.55104 0.289487,-0.55008 0.574184,-1.10274 0.842843,-1.66336 0.326065,-0.67442 0.64538,-1.35205 0.967724,-2.02824 0.346087,-0.72367 0.692635,-1.44718 1.024742,-2.17741 0.344319,-0.75644 0.686128,-1.5141 1.01021,-2.27949 0.348601,-0.82421 0.686616,-1.65279 1.021789,-2.48255 0.340317,-0.83687 0.683238,-1.67265 1.030523,-2.50666 0.332261,-0.80987 0.660111,-1.62155 0.993187,-2.43109 0.34008,-0.82554 0.678223,-1.65193 1.030275,-2.47246 0.355295,-0.825 0.718608,-1.64645 1.089263,-2.46467 0.369779,-0.8239 0.739597,-1.6478 1.112144,-2.47046 0.384895,-0.84887 0.773914,-1.69587 1.173205,-2.53808 0.390416,-0.8238 0.7816,-1.64725 1.171747,-2.47118 0.408948,-0.85578 0.820872,-1.71026 1.252439,-2.55492 0.432896,-0.84493 0.87358,-1.68586 1.329211,-2.5188 0.444434,-0.81686 0.890953,-1.63261 1.342441,-2.4456 0.460398,-0.82471 0.92474,-1.6473 1.405564,-2.46032 0.453361,-0.76424 0.912503,-1.525 1.376664,-2.28273 0.430319,-0.70261 0.858668,-1.40643 1.289736,-2.10859 0.426246,-0.69821 0.85281,-1.39624 1.282922,-2.09208 0.397764,-0.6426 0.801354,-1.28155 1.199935,-1.92364 0.356579,-0.57932 0.709692,-1.16083 1.047645,-1.75128 0.304292,-0.529 0.608951,-1.05794 0.898736,-1.59509 0.267793,-0.49993 0.531678,-1.00195 0.802598,-1.5002 0.226195,-0.41067 0.454932,-0.81993 0.694642,-1.22291 0.183174,-0.30907 0.367443,-0.61751 0.558178,-0.92199 0.224497,-0.3551 0.450308,-0.71094 0.723654,-1.03132 0.593371,-0.66042 1.291328,-1.18389 2.168404,-1.40581 1.150331,-0.19852 2.143651,-0.10717 3.129396,0.56871 0.446723,0.34264 0.85539,0.72517 1.156737,1.20576 0.203073,0.31351 0.389909,0.63768 0.537993,0.98128 0.126834,0.29969 0.240509,0.6042 0.342675,0.9132 0.103265,0.30552 0.20165,0.61264 0.297683,0.9205 0.117954,0.38262 0.231553,0.76658 0.341276,1.15164 0.1329,0.47829 0.253616,0.95969 0.373602,1.44136 0.146852,0.58381 0.294092,1.16753 0.437674,1.75216 0.183089,0.75646 0.356153,1.51527 0.525018,2.27503 0.210412,0.93845 0.419788,1.87714 0.620355,2.81775 0.242583,1.13005 0.486825,2.25974 0.728747,3.38993 0.269431,1.26666 0.534681,2.53423 0.786794,3.80447 0.244033,1.21994 0.487209,2.44017 0.754878,3.65521 0.266353,1.20039 0.53962,2.39921 0.822293,3.59587 0.290449,1.23864 0.581988,2.47702 0.873654,3.71537 0.27959,1.19504 0.555593,2.39103 0.854594,3.58141 0.286244,1.12162 0.581768,2.24102 0.908298,3.3517 0.318138,1.07369 0.645488,2.14466 0.987618,3.21097 0.334204,1.03497 0.676032,2.06748 1.033222,3.09477 0.367255,1.05811 0.738021,2.115 1.112062,3.17073 0.355915,0.99697 0.717291,1.99222 1.109914,2.97545 0.349928,0.86411 0.717053,1.72126 1.115724,2.56417 0.363538,0.76125 0.744334,1.51412 1.151488,2.25311 0.355349,0.64884 0.713931,1.29614 1.096587,1.9294 0.293166,0.482 0.592894,0.96021 0.91781,1.42166 0.246886,0.35385 0.496351,0.70599 0.755576,1.05096 0.01312,0.0174 0.350565,0.4412 0.249947,0.34464 -0.07971,-0.0641 -0.162393,-0.12598 -0.255387,-0.16972 -0.180334,-0.0757 -0.366207,-0.13869 -0.559622,-0.172 -0.908207,-0.12997 -1.78021,0.0942 -2.5159,0.66285 -0.327503,1.33302 -0.823293,2.63565 -0.982511,3.99905 -0.05805,0.4971 1.183645,1.51899 1.671113,1.72548 0.158975,0.0666 0.221539,0.0858 0.04525,0.0248 -0.113131,-0.0388 -0.226253,-0.0777 -0.339479,-0.1162 -0.112848,-0.0382 -0.225848,-0.0761 -0.339304,-0.11245 -0.163778,-0.0491 -0.328221,-0.096 -0.493787,-0.13879 -0.249312,-0.0658 -0.499218,-0.12941 -0.748295,-0.19615 -0.251833,-0.0674 -0.504354,-0.13209 -0.757843,-0.193 -0.247859,-0.061 -0.496178,-0.12021 -0.745643,-0.17435 -0.255355,-0.0536 -0.512318,-0.099 -0.769795,-0.14117 -0.350478,-0.0547 -0.701884,-0.10277 -1.053711,-0.14797 -0.472228,-0.0621 -0.944451,-0.12427 -1.416701,-0.18624 -0.578686,-0.0758 -1.157478,-0.15082 -1.736529,-0.22382 -0.655865,-0.0821 -1.311968,-0.16224 -1.967976,-0.24319 -0.646978,-0.0781 -1.294681,-0.14998 -1.9436,-0.21012 -0.637646,-0.0612 -1.275342,-0.12316 -1.914369,-0.16836 -0.639292,-0.0431 -1.279091,-0.0813 -1.919875,-0.0925 -0.718354,-0.0127 -1.436785,-0.0192 -2.155208,-0.0267 -0.702287,-0.007 -1.404613,-0.0147 -2.106946,-0.0113 -0.683398,0.003 -1.366827,0.008 -2.050053,0.0249 -0.676952,0.016 -1.35391,0.0324 -2.030656,0.0558 -0.650237,0.0225 -1.300424,0.0465 -1.950413,0.0753 -0.647036,0.0289 -1.29395,0.0603 -1.940822,0.0926 -0.641183,0.0298 -1.28239,0.0593 -1.923274,0.0952 -0.628762,0.0353 -1.257427,0.0725 -1.885606,0.11712 -0.633709,0.0452 -1.267164,0.0939 -1.901114,0.13567 -0.585213,0.0385 -1.170432,0.0774 -1.754896,0.12613 -0.524693,0.0444 -1.049108,0.0924 -1.572292,0.15239 -0.485627,0.0545 -0.971436,0.10736 -1.457092,0.16162 -0.39297,0.0441 -0.786429,0.0833 -1.179679,0.12479 -0.328705,0.0378 -0.656876,0.08 -0.985266,0.12045 -0.28211,0.0351 -0.563819,0.0733 -0.844696,0.11735 -0.3039,0.0479 -0.60707,0.10011 -0.910674,0.14979 -0.369615,0.0559 -0.740614,0.10277 -1.113957,0.12536 -0.286896,0.0192 -0.573937,0.0368 -0.861292,0.0475 -0.271965,0.006 -0.543865,0.006 -0.815676,-0.007 -0.08189,-0.003 -0.175775,-0.005 -0.25352,-0.0105 -4.862867,0.11829 -5.030156,-6.75884 -0.167289,-6.87713 z"
       inkscape:connector-curvature="0" />
    <path
       style="opacity:1;fill:#020900;fill-opacity:1;stroke:none;stroke-width:1;stroke-linecap:butt;stroke-linejoin:round;stroke-miterlimit:4;stroke-dasharray:none;stroke-opacity:1"
       id="path1133"
       d="m 17.283078,234.52099 c 0.07,0.0241 0.139709,0.0498 0.211377,0.0686 0.05802,0.0152 0.117455,0.0242 0.176539,0.0342 0.153163,0.0252 0.307277,0.0439 0.461479,0.0615 0.221042,0.0242 0.442579,0.0434 0.664177,0.0616 0.255621,0.0207 0.511567,0.0369 0.767542,0.0525 0.263323,0.0152 0.526651,0.0309 0.790298,0.0391 0.246127,0.002 0.49218,-0.007 0.738128,-0.0151 0.329443,-0.0113 0.658533,-0.0307 0.987657,-0.0487 0.412302,-0.0212 0.824347,-0.047 1.236559,-0.0699 0.532071,-0.0289 1.064457,-0.0515 1.597005,-0.0694 0.656397,-0.023 1.313209,-0.0135 1.969634,0.002 0.691627,0.0187 1.382779,0.0512 2.074019,0.0804 0.730239,0.0339 1.460513,0.0671 2.191007,0.0951 0.764114,0.0268 1.528516,0.0439 2.292916,0.06 0.791599,0.0163 1.583253,0.0298 2.374916,0.0425 0.815702,0.013 1.631436,0.0237 2.447178,0.0338 0.84218,0.0113 1.684362,0.02 2.526623,0.0178 0.908164,-0.006 1.816253,-0.02 2.724359,-0.0318 0.943364,-0.0127 1.886797,-0.0197 2.83006,-0.0389 0.926515,-0.0206 1.851933,-0.0722 2.777233,-0.12176 0.955342,-0.0521 1.910916,-0.0996 2.866628,-0.14434 0.912739,-0.0401 1.825438,-0.0805 2.737851,-0.12746 0.86833,-0.0448 1.736603,-0.0907 2.604449,-0.14413 0.821005,-0.051 1.640602,-0.12132 2.460265,-0.18996 0.816153,-0.0681 1.632461,-0.13419 2.448351,-0.20536 0.786496,-0.0706 1.573126,-0.13974 2.359615,-0.21044 0.746821,-0.0682 1.49324,-0.14067 2.23964,-0.21328 0.714351,-0.0702 1.429218,-0.13488 2.144345,-0.19662 0.669369,-0.0577 1.339228,-0.1095 2.009283,-0.15861 0.64893,-0.0471 1.298165,-0.0899 1.947844,-0.12526 0.640355,-0.0342 1.28143,-0.0515 1.922512,-0.0645 0.559946,-0.008 1.11995,-0.0122 1.679946,-0.0146 0.477514,-0.002 0.955016,0.002 1.432512,0.006 0.399288,0.003 0.798576,0.006 1.197867,0.009 0.335587,0.003 0.671174,0.005 1.00676,0.007 0.271892,0.002 0.54378,0.004 0.815671,0.006 0.216959,0.002 0.433917,0.003 0.650873,0.005 0.291314,-0.004 0.581376,0.0124 0.871291,0.0393 0.381238,0.0575 0.194225,0.0233 0.561202,0.10163 4.734507,1.1162 3.155969,7.8118 -1.578541,6.69561 v 0 c 0.169185,0.0316 0.08189,0.0179 0.262001,0.0403 0.278382,0.0178 -0.104852,-0.006 -0.166264,0.002 -0.216958,-0.002 -0.433919,-0.003 -0.65088,-0.005 -0.271973,-0.002 -0.543949,-0.004 -0.815925,-0.006 -0.336031,-0.002 -0.67206,-0.005 -1.008092,-0.007 -0.399563,-0.003 -0.799126,-0.006 -1.198686,-0.009 -0.450245,-0.003 -0.900497,-0.007 -1.350759,-0.006 -0.523595,0.002 -1.047192,0.006 -1.570741,0.0132 -0.562896,0.0112 -1.125797,0.026 -1.688069,0.0557 -0.606343,0.0328 -1.212222,0.0733 -1.81787,0.11698 -0.6404,0.0469 -1.280617,0.0964 -1.920367,0.15151 -0.690279,0.0596 -1.380307,0.12202 -2.069835,0.18978 -0.763143,0.0742 -1.526307,0.14836 -2.289887,0.21799 -0.792564,0.0712 -1.585269,0.14091 -2.377842,0.21205 -0.82374,0.0718 -1.647886,0.1387 -2.471891,0.20737 -0.870304,0.0729 -1.740572,0.14711 -2.612316,0.201 -0.89078,0.0547 -1.781971,0.10218 -2.673246,0.14801 -0.922965,0.0474 -1.846205,0.0886 -2.7695,0.12902 -0.940221,0.044 -1.880304,0.0908 -2.820159,0.142 -1.001565,0.0537 -2.003285,0.10857 -3.00618,0.13022 -0.95989,0.0193 -1.919936,0.0271 -2.879929,0.0397 -0.932201,0.0121 -1.864392,0.0262 -2.796656,0.0323 -0.876229,0.002 -1.752381,-0.006 -2.628522,-0.0183 -0.824307,-0.0102 -1.648608,-0.021 -2.472872,-0.0342 -0.803011,-0.0129 -1.606013,-0.0266 -2.408958,-0.0432 -0.804253,-0.0169 -1.608507,-0.035 -2.412449,-0.0635 -0.739045,-0.0285 -1.477883,-0.0616 -2.216666,-0.0962 -0.647883,-0.0273 -1.295678,-0.0579 -1.943896,-0.0761 -0.526956,-0.0124 -1.054244,-0.0218 -1.581206,-0.004 -0.481756,0.0159 -0.963345,0.0367 -1.444672,0.0626 -0.413872,0.0229 -0.82757,0.0489 -1.241536,0.0702 -0.378002,0.0207 -0.755982,0.0425 -1.134363,0.0551 -0.398519,0.0132 -0.797337,0.0257 -1.196091,0.0151 -0.326486,-0.0113 -0.65271,-0.0282 -0.978791,-0.048 -0.305299,-0.0186 -0.610549,-0.0382 -0.915412,-0.063 -0.295104,-0.0244 -0.590107,-0.0504 -0.884397,-0.0833 -0.289868,-0.0335 -0.579434,-0.0705 -0.867017,-0.12034 -0.292329,-0.0521 -0.583641,-0.11105 -0.869226,-0.19322 -0.203884,-0.059 -0.40652,-0.12216 -0.606303,-0.19398 -4.589762,-1.61107 -2.311362,-8.10197 2.2784,-6.4909 z"
       inkscape:connector-curvature="0" />
  </g>
</svg>
