<svg viewBox="0 0 100 100"><path style="opacity:1;fill:#020900;fill-opacity:1;stroke:none;stroke-width:1;stroke-linecap:butt;stroke-linejoin:round;stroke-miterlimit:4;stroke-dasharray:none;stroke-opacity:1" d="M25.006 278.29c.221-.005.443.005.664.013q.201.01.402.005.285-.015.572-.034c.178-.01.354-.034.53-.061q.441-.076.882-.146.531-.082 1.064-.148.525-.066 1.05-.128c.4-.044.8-.082 1.2-.127q.728-.082 1.457-.162a58 58 0 0 1 1.759-.17c.628-.053 1.256-.095 1.885-.137.621-.04 1.242-.089 1.863-.133q.994-.069 1.99-.124.994-.053 1.989-.098.976-.05 1.953-.093a206 206 0 0 1 4.125-.136c.726-.018 1.452-.023 2.178-.027.738-.004 1.476.004 2.213.012.735.008 1.47.014 2.205.027a45 45 0 0 1 2.26.107c.705.049 1.408.117 2.111.184a78 78 0 0 1 2.11.228l1.998.247q.889.113 1.776.229l1.42.187q.609.078 1.216.17.555.09 1.106.203c.332.07.662.15.992.23q.448.109.893.228.363.097.728.19.355.094.708.2.29.09.574.187l.367.125q.287.096.564.218c.53.257 1.035.609 1.381 1.096.17.239.478.47.44.76-.184 1.393-.719 2.716-1.078 4.075-.92.697-1.98.874-3.089.695-.48-.092-.929-.287-1.36-.514-.465-.243-.873-.572-1.255-.928-.365-.356-.673-.761-.98-1.166-.31-.412-.61-.834-.905-1.257a32 32 0 0 1-1.152-1.781 58 58 0 0 1-1.255-2.203 51 51 0 0 1-1.324-2.59 56 56 0 0 1-1.285-2.947 92 92 0 0 1-1.213-3.247q-.572-1.612-1.133-3.229a154 154 0 0 1-1.08-3.236q-.538-1.679-1.037-3.37c-.352-1.195-.67-2.399-.978-3.605-.311-1.235-.598-2.476-.888-3.716l-.873-3.712a278 278 0 0 1-.84-3.676c-.279-1.262-.531-2.53-.785-3.796a277 277 0 0 0-.77-3.723q-.362-1.689-.726-3.377a268 268 0 0 0-1.105-4.917q-.21-.848-.423-1.694c-.107-.425-.211-.85-.33-1.273a50 50 0 0 0-.287-.97c-.078-.246-.155-.494-.24-.739-.045-.13-.09-.269-.142-.393a.4.4 0 0 0 .03.07c.16.257.396.452.63.639.743.539 1.598.62 2.479.484a2.9 2.9 0 0 0 1.393-.78c.148-.185-.098.182-.118.214a39 39 0 0 0-1.042 1.788c-.258.475-.51.953-.765 1.43-.322.598-.66 1.188-1 1.777-.371.65-.76 1.29-1.152 1.927-.4.647-.808 1.29-1.209 1.938q-.633 1.026-1.26 2.056l-1.295 2.117q-.672 1.095-1.327 2.2c-.45.76-.884 1.531-1.315 2.303q-.659 1.189-1.307 2.38a98 98 0 0 0-1.249 2.368c-.402.788-.786 1.586-1.168 2.385l-1.162 2.451a157 157 0 0 0-1.125 2.433q-.553 1.221-1.101 2.446-.535 1.18-1.047 2.369c-.338.787-.662 1.58-.988 2.372-.332.806-.659 1.615-.99 2.422q-.515 1.24-1.022 2.487c-.347.859-.697 1.716-1.058 2.57a99 99 0 0 1-1.085 2.45c-.35.77-.715 1.533-1.08 2.296-.326.685-.65 1.37-.98 2.054-.303.63-.623 1.253-.949 1.872-.296.56-.605 1.113-.91 1.668q-.382.695-.76 1.394-.323.594-.655 1.181-.277.485-.557.967l-.449.772-.348.606-.51.89-.165.295c-.11.266.165-.417.2-.522q.046-.183.076-.37l-.012.156c.09-.545-.192-1.256-.392-1.813 2.336 4.267-3.698 7.57-6.034 3.304-.254-.685-.534-1.299-.432-2.042l.018-.214a4.6 4.6 0 0 1 .134-.815c.115-.364.242-.724.443-1.051l.195-.346.226-.395.284-.496.364-.634.44-.758q.265-.456.527-.913.308-.543.605-1.092.386-.713.776-1.423c.285-.517.572-1.03.848-1.552.29-.55.574-1.102.843-1.663q.487-1.012.968-2.028c.346-.724.692-1.447 1.025-2.178a95 95 0 0 0 1.01-2.279q.52-1.237 1.022-2.483.51-1.255 1.03-2.506c.332-.81.66-1.622.993-2.431.34-.826.679-1.652 1.03-2.473q.535-1.237 1.09-2.464.555-1.237 1.112-2.47.576-1.275 1.173-2.539l1.172-2.471c.409-.856.82-1.71 1.252-2.555q.648-1.268 1.33-2.519.665-1.226 1.342-2.446a114 114 0 0 1 2.782-4.743l1.29-2.108q.639-1.047 1.283-2.092c.398-.643.801-1.282 1.2-1.924.356-.58.71-1.16 1.047-1.751.305-.53.61-1.058.9-1.595.267-.5.53-1.002.802-1.5a42 42 0 0 1 1.253-2.145c.224-.355.45-.711.723-1.032.594-.66 1.292-1.184 2.169-1.405 1.15-.199 2.143-.108 3.13.568.446.343.854.725 1.156 1.206.203.314.39.638.538.981q.19.45.343.913a41 41 0 0 1 1.012 3.514q.221.876.438 1.752.273 1.135.525 2.275c.21.939.42 1.877.62 2.818l.729 3.39q.407 1.9.787 3.804c.244 1.22.487 2.44.755 3.656q.399 1.8.822 3.595l.873 3.716c.28 1.195.556 2.39.855 3.581.286 1.122.582 2.241.908 3.352q.477 1.612.988 3.21a146 146 0 0 0 1.033 3.096q.55 1.587 1.112 3.17c.356.997.718 1.993 1.11 2.976.35.864.717 1.721 1.116 2.564q.543 1.143 1.151 2.253c.356.649.714 1.296 1.097 1.93.293.481.593.96.918 1.421.247.354.496.706.755 1.051.013.017.35.441.25.345a1.3 1.3 0 0 0-.255-.17 2.6 2.6 0 0 0-.56-.172 3.27 3.27 0 0 0-2.516.663c-.327 1.333-.823 2.636-.982 3.999-.058.497 1.184 1.519 1.671 1.725.159.067.222.086.045.025l-.34-.116-.339-.112q-.245-.075-.493-.14l-.749-.195a30 30 0 0 0-.757-.193q-.372-.092-.746-.175a18 18 0 0 0-.77-.14q-.525-.083-1.054-.149l-1.416-.186q-.868-.113-1.737-.224l-1.968-.243a71 71 0 0 0-1.943-.21c-.638-.061-1.276-.123-1.915-.169a40 40 0 0 0-1.92-.092q-1.077-.018-2.155-.027c-.702-.007-1.404-.015-2.107-.011-.683.003-1.367.008-2.05.025a186 186 0 0 0-5.922.223q-.96.043-1.923.096-.943.051-1.886.117c-.633.045-1.267.094-1.9.135-.586.039-1.171.078-1.756.127q-.787.064-1.572.152l-1.457.162q-.59.064-1.18.124l-.985.12q-.423.053-.845.118-.456.074-.91.15c-.37.056-.74.103-1.114.125q-.43.03-.862.048-.407.01-.815-.007c-.082-.003-.176-.005-.254-.01-4.863.118-5.03-6.76-.167-6.878" transform="translate(0 -197)"/><path style="opacity:1;fill:#020900;fill-opacity:1;stroke:none;stroke-width:1;stroke-linecap:butt;stroke-linejoin:round;stroke-miterlimit:4;stroke-dasharray:none;stroke-opacity:1" d="M17.283 234.521c.07.024.14.05.211.069q.088.02.177.034.23.037.461.061.333.036.665.062.383.03.767.052.396.025.79.04c.247.001.493-.008.739-.016.33-.01.658-.03.987-.048q.62-.034 1.237-.07a77 77 0 0 1 1.597-.07 34 34 0 0 1 1.97.002c.691.02 1.382.052 2.073.08q1.096.053 2.191.096c.765.027 1.529.044 2.293.06a522 522 0 0 0 4.823.076c.842.011 1.684.02 2.526.018.908-.006 1.816-.02 2.724-.032.944-.013 1.887-.02 2.83-.039.927-.02 1.852-.072 2.778-.121q1.432-.078 2.866-.145 1.37-.058 2.738-.127 1.303-.066 2.605-.144c.82-.051 1.64-.122 2.46-.19q1.224-.1 2.448-.206l2.36-.21q1.12-.103 2.24-.213a182 182 0 0 1 4.153-.356q.974-.072 1.948-.125a58 58 0 0 1 1.923-.064q.84-.012 1.68-.015.716-.001 1.432.006l1.198.009 1.007.007.815.006.651.005a8 8 0 0 1 .871.04c.382.057.195.023.562.1 4.734 1.117 3.156 7.813-1.579 6.697.17.031.082.017.262.04.279.018-.105-.006-.166.002l-.651-.005-.816-.006-1.008-.007-1.199-.01q-.675-.005-1.35-.005-.786.003-1.571.013c-.563.011-1.126.026-1.688.056q-.91.05-1.818.117a150 150 0 0 0-3.99.341q-1.145.112-2.29.218l-2.378.212q-1.236.107-2.472.207c-.87.073-1.74.148-2.612.201q-1.336.082-2.674.148-1.384.07-2.769.13-1.41.065-2.82.141c-1.002.054-2.003.109-3.006.13-.96.02-1.92.028-2.88.04-.932.012-1.865.027-2.797.033a161 161 0 0 1-2.628-.019 680 680 0 0 1-4.882-.077c-.805-.017-1.609-.035-2.413-.064q-1.109-.043-2.216-.096c-.648-.027-1.296-.058-1.944-.076a28 28 0 0 0-1.582-.004q-.722.024-1.444.063l-1.242.07c-.378.02-.756.042-1.134.055-.399.013-.797.026-1.196.015a45 45 0 0 1-1.894-.111q-.442-.035-.885-.083c-.29-.034-.58-.07-.867-.12a8.6 8.6 0 0 1-1.475-.388c-4.59-1.61-2.312-8.102 2.278-6.49" transform="translate(0 -197)"/></svg>
