<svg viewBox="0 0 100 100"><path style="opacity:1;fill:#020900;fill-opacity:1;stroke:none;stroke-width:.99999994;stroke-linecap:butt;stroke-linejoin:round;stroke-miterlimit:4;stroke-dasharray:none;stroke-opacity:1" d="M15.82 282.933c.18-.035.363-.04.546-.03.016-.009.248.05.156.01a9 9 0 0 1-.549-.264 3.6 3.6 0 0 1-.573-.358 4 4 0 0 1-.56-.522 11 11 0 0 1-.757-.971 12 12 0 0 1-.755-1.27c-.274-.52-.512-1.06-.735-1.605a20 20 0 0 1-.609-1.795 17 17 0 0 1-.424-1.868 11.4 11.4 0 0 1-.14-1.716c-.004-.592.054-1.181.12-1.769.077-.656.204-1.305.341-1.95a26 26 0 0 1 .521-1.99 14 14 0 0 1 .644-1.754 7.2 7.2 0 0 1 .812-1.324c.371-.477.797-.901 1.237-1.308.45-.413.944-.768 1.455-1.093.464-.295.96-.519 1.473-.703.57-.194 1.164-.3 1.756-.396.662-.104 1.33-.148 1.999-.172.636-.02 1.27.012 1.904.068a10 10 0 0 1 1.649.308c.518.142 1.021.338 1.517.55.43.184.842.41 1.237.665.342.224.65.499.942.789.314.315.58.675.833 1.043q.404.59.71 1.241c.19.417.32.858.438 1.302.123.462.191.935.24 1.41.054.54.063 1.08.057 1.622a11 11 0 0 1-.14 1.498 30 30 0 0 1-.313 1.698 30 30 0 0 1-.4 1.602c-.128.47-.291.928-.471 1.38a17 17 0 0 1-1.262 2.5c-.211.35-.444.684-.683 1.014-.21.291-.435.57-.665.844q-.278.333-.584.634a8 8 0 0 1-1.094.867 5 5 0 0 1-.49.293 8 8 0 0 1-.541.242c-.193.082-.39.151-.589.218a13 13 0 0 1-1.186.331 6 6 0 0 1-.46.089 10 10 0 0 1-.478.063q-.266.024-.53.04a.2.2 0 0 1-.109-.01q-.244-.045-.49-.094l-.714-.141q-.315-.064-.628-.134-.259-.06-.516-.124c-.237-.065-.054-.011.098.043-4.511-1.905-7.084 4.775-2.572 6.68.295.113.591.22.9.288q.335.084.671.16.377.084.756.16.365.075.731.145c.34.067.68.138 1.023.178.422.045.845.068 1.268.037q.405-.026.809-.064.429-.046.856-.114c.296-.05.591-.103.884-.173a20 20 0 0 0 1.805-.508c.344-.117.686-.24 1.021-.382.376-.157.75-.321 1.112-.512.368-.198.73-.41 1.078-.646a15 15 0 0 0 2.105-1.693c.36-.358.708-.73 1.034-1.122.34-.407.672-.82.982-1.252a22 22 0 0 0 1.008-1.504 24.5 24.5 0 0 0 1.807-3.602 21 21 0 0 0 .725-2.143c.186-.676.36-1.356.507-2.042.15-.718.288-1.439.397-2.164.12-.831.211-1.667.217-2.509a22 22 0 0 0-.1-2.509c-.097-.864-.23-1.723-.458-2.56-.242-.883-.521-1.756-.915-2.58a16.6 16.6 0 0 0-1.293-2.242c-.516-.736-1.066-1.448-1.706-2.072-.643-.62-1.318-1.203-2.068-1.678a15.5 15.5 0 0 0-2.208-1.175c-.802-.339-1.617-.648-2.457-.87-.9-.23-1.811-.415-2.736-.493a23 23 0 0 0-2.713-.087c-.94.037-1.88.103-2.811.253-1.013.167-2.023.371-2.994.723-.964.364-1.904.792-2.777 1.358-.852.552-1.676 1.15-2.426 1.848-.756.708-1.484 1.452-2.111 2.29-.614.842-1.176 1.725-1.605 2.688a22 22 0 0 0-.973 2.648 35 35 0 0 0-.668 2.57 29 29 0 0 0-.458 2.68c-.101.919-.18 1.841-.164 2.767.023.953.085 1.905.25 2.844.162.915.36 1.823.623 2.712.252.845.524 1.684.857 2.499.32.776.66 1.544 1.054 2.283.376.7.772 1.387 1.228 2.034.426.598.87 1.181 1.366 1.718.486.516.999 1.005 1.57 1.416.47.336.956.649 1.47.905.414.21.83.413 1.263.577.465.17.94.314 1.431.366.426.038.853.05 1.276-.027 4.8-.822 3.69-7.93-1.111-7.107m59.23-.4c-.057.004-.12.004-.17.002-.16-.027-.32-.047-.482-.07a13 13 0 0 1-1.912-.42c-.346-.1-.69-.211-1.027-.343a9 9 0 0 1-.926-.45 7 7 0 0 1-.916-.6 8.4 8.4 0 0 1-.897-.809 12.4 12.4 0 0 1-1.777-2.408 16 16 0 0 1-.71-1.445c-.218-.488-.4-.992-.568-1.501a20 20 0 0 1-.443-1.57 11 11 0 0 1-.28-2.727 12 12 0 0 1 .39-2.833 19 19 0 0 1 .507-1.542 27 27 0 0 1 .664-1.63c.204-.467.446-.914.7-1.353.238-.41.511-.794.803-1.164.28-.349.589-.669.915-.97a8 8 0 0 1 1.008-.763c.425-.266.873-.487 1.323-.703a22 22 0 0 1 1.583-.661 11 11 0 0 1 1.385-.42 7 7 0 0 1 1.18-.183 6 6 0 0 1 1.11.054c.439.054.87.15 1.295.268.42.118.824.287 1.221.47.402.183.776.42 1.142.669.41.283.799.597 1.18.92q.57.489 1.11 1.012.479.471.905.998c.3.37.558.77.809 1.177.293.48.558.976.813 1.478.252.496.475 1.007.682 1.524.21.532.391 1.075.567 1.62q.255.792.471 1.595a15.5 15.5 0 0 1 .461 2.743 13 13 0 0 1-.104 2.329c-.043.328-.115.65-.19.973q-.121.517-.276 1.025a8 8 0 0 1-.298.826c-.107.25-.23.493-.358.732-.114.205-.226.413-.363.603a5 5 0 0 1-.352.419 7 7 0 0 1-.458.44 6 6 0 0 1-.449.355q-.24.176-.49.336c-.132.085-.272.157-.411.23q-.272.144-.549.277c-.138.067-.28.124-.423.18a15 15 0 0 1-.503.184l-.504.168q-.218.068-.438.133-.21.062-.419.118a7 7 0 0 1-.352.082q-.195.041-.391.075-.217.037-.436.069c-.147.023-.295.04-.442.06l-.428.052q-.173.02-.347.036l-.364.032c-.09.012-.386.027.022.002-4.864.046-4.803 7.248.061 7.202.16-.007.32-.011.48-.027a32 32 0 0 0 .924-.09q.237-.028.473-.058a26 26 0 0 0 1.197-.177q.326-.056.648-.125.349-.073.693-.166.299-.08.596-.169c.197-.06.394-.117.59-.18q.307-.101.612-.206.375-.13.745-.274c.298-.117.594-.24.883-.38q.383-.184.76-.384c.314-.166.627-.336.926-.53q.439-.281.86-.59a13.5 13.5 0 0 0 1.915-1.709c.344-.38.675-.774.968-1.199a16 16 0 0 0 1.442-2.674c.202-.493.387-.994.54-1.506.148-.495.286-.994.402-1.5.13-.565.249-1.133.322-1.71.077-.607.137-1.218.16-1.83.024-.666.032-1.333-.014-1.998a21 21 0 0 0-.25-2.07 23 23 0 0 0-.451-2.09q-.264-.978-.574-1.943a34 34 0 0 0-.746-2.112c-.29-.718-.6-1.427-.95-2.114a29 29 0 0 0-1.111-2.006c-.422-.678-.863-1.344-1.368-1.959a19 19 0 0 0-1.454-1.592 32 32 0 0 0-1.458-1.327 22 22 0 0 0-1.777-1.37c-.677-.454-1.373-.877-2.112-1.212-.73-.33-1.473-.63-2.244-.84a16 16 0 0 0-2.297-.459c-.78-.084-1.564-.133-2.347-.074-.753.063-1.5.168-2.236.353a18 18 0 0 0-2.164.663c-.71.27-1.416.557-2.104.885-.723.349-1.44.714-2.118 1.154-.677.449-1.333.932-1.932 1.491a16 16 0 0 0-1.658 1.785c-.491.634-.957 1.29-1.36 1.991-.384.67-.75 1.353-1.06 2.065a35 35 0 0 0-.849 2.09c-.27.746-.53 1.499-.729 2.27a19.3 19.3 0 0 0-.614 4.64c0 .747.018 1.495.103 2.238.09.768.206 1.534.39 2.285.178.726.377 1.447.612 2.156.246.74.513 1.473.832 2.183.327.73.669 1.454 1.068 2.144.414.71.853 1.403 1.35 2.053a19 19 0 0 0 1.525 1.793 15.5 15.5 0 0 0 1.686 1.494c.56.414 1.135.804 1.746 1.131.557.3 1.123.583 1.711.81.519.198 1.044.377 1.577.528a20 20 0 0 0 2.796.61c.407.059.814.119 1.225.134q.415.012.829-.016c4.853-.343 4.39-7.528-.464-7.185zm-26.424-49.414q-.287.067-.572.144a5 5 0 0 1-.512.111c-.1.028-.191.01-.29-.002a6 6 0 0 1-.803-.167 11 11 0 0 1-1.135-.396 10 10 0 0 1-1.18-.592 8 8 0 0 1-1.108-.757 10 10 0 0 1-1.053-1.008 12 12 0 0 1-.997-1.284 15 15 0 0 1-.884-1.528 21 21 0 0 1-.775-1.766 16 16 0 0 1-.59-1.752 11 11 0 0 1-.3-1.68 10 10 0 0 1-.03-1.612c.03-.512.136-1.012.258-1.508a10 10 0 0 1 .573-1.64 14 14 0 0 1 .938-1.7 16 16 0 0 1 1.263-1.711c.466-.55.995-1.034 1.537-1.499a15.5 15.5 0 0 1 1.8-1.286c.598-.373 1.24-.658 1.889-.919a21.2 21.2 0 0 1 4.47-1.168c.62-.09 1.244-.074 1.865-.018.655.067 1.297.22 1.931.402.642.19 1.262.452 1.871.737a8.3 8.3 0 0 1 1.491.91c.44.337.83.735 1.201 1.151.393.448.733.943 1.055 1.448.345.545.641 1.12.92 1.703.294.626.545 1.271.788 1.92.232.622.453 1.248.648 1.884.155.507.276 1.024.375 1.545a9.2 9.2 0 0 1 .093 2.542c-.043.43-.115.857-.204 1.28-.08.382-.205.75-.336 1.116-.14.393-.307.774-.488 1.148-.189.385-.4.759-.612 1.13-.183.322-.377.637-.591.937a4.5 4.5 0 0 1-1.05 1.06 3 3 0 0 1-.509.313c-.234.12-.477.217-.722.31a23 23 0 0 1-1.646.543q-.341.096-.685.168-.385.08-.772.148a6 6 0 0 1-.579.077 37 37 0 0 1-1.45.083q-.343.013-.686.018c-.159.002-.317-.004-.476-.009l-.55-.018q-.218-.008-.437-.02-.199-.01-.397-.023l-.343-.018a9 9 0 0 1-.273-.016c-.033 0-.213-.011-.044-.002-4.847-.422-5.418 6.755-.57 7.177.086.006.171.014.257.016l.272.014.328.018.418.024q.273.014.545.024.294.011.59.018c.271.009.544.016.816.011a43 43 0 0 0 1.666-.06q.475-.027.95-.067c.375-.036.749-.082 1.12-.15q.515-.09 1.027-.199c.361-.08.721-.165 1.077-.267q.53-.15 1.05-.323a29 29 0 0 0 1.175-.414c.49-.19.975-.393 1.442-.639.522-.279 1.03-.584 1.5-.952.454-.355.897-.727 1.301-1.144.431-.451.84-.925 1.2-1.441.337-.485.656-.982.947-1.499.3-.525.594-1.053.859-1.599.29-.609.561-1.228.787-1.867.244-.691.467-1.391.614-2.113a20 20 0 0 0 .329-2.137c.064-.756.098-1.514.062-2.273a17 17 0 0 0-.262-2.351 22 22 0 0 0-.573-2.339 42 42 0 0 0-.79-2.301 33 33 0 0 0-1.046-2.524 24 24 0 0 0-1.358-2.487c-.536-.83-1.104-1.637-1.758-2.368-.693-.764-1.426-1.49-2.248-2.101-.842-.614-1.72-1.172-2.663-1.604-.932-.43-1.881-.822-2.865-1.105-1.044-.291-2.101-.532-3.18-.628-1.118-.088-2.24-.102-3.354.064a26 26 0 0 0-3.048.624c-1 .274-1.992.575-2.958.961-1.016.414-2.017.875-2.953 1.465-.912.576-1.802 1.191-2.628 1.899-.83.719-1.635 1.473-2.347 2.323a23 23 0 0 0-1.839 2.508c-.535.863-1.043 1.747-1.45 2.685-.392.919-.74 1.858-.972 2.837-.225.947-.406 1.905-.456 2.882-.045.956-.04 1.915.07 2.867.115.952.27 1.899.525 2.822.24.85.515 1.689.845 2.506.328.823.673 1.638 1.076 2.424.415.8.854 1.587 1.363 2.326.507.728 1.04 1.437 1.641 2.085.58.618 1.182 1.213 1.843 1.735a15.4 15.4 0 0 0 1.981 1.343c.654.367 1.319.713 2.012.99.633.249 1.273.482 1.93.653.647.164 1.3.304 1.964.357.64.04 1.283.04 1.915-.082.354-.064.706-.135 1.052-.231q.177-.05.355-.09c4.752-1.091 3.279-8.126-1.473-7.036z" transform="translate(0 -197)"/></svg>
