<?xml version="1.0" encoding="UTF-8" standalone="no"?>
<!-- Created with Inkscape (http://www.inkscape.org/) -->

<svg
   xmlns:dc="http://purl.org/dc/elements/1.1/"
   xmlns:cc="http://creativecommons.org/ns#"
   xmlns:rdf="http://www.w3.org/1999/02/22-rdf-syntax-ns#"
   xmlns:svg="http://www.w3.org/2000/svg"
   xmlns="http://www.w3.org/2000/svg"
   xmlns:sodipodi="http://sodipodi.sourceforge.net/DTD/sodipodi-0.dtd"
   xmlns:inkscape="http://www.inkscape.org/namespaces/inkscape"
   width="10cm"
   height="10cm"
   viewBox="0 0 100 99.999997"
   version="1.1"
   id="svg8"
   sodipodi:docname="kulupu.svg"
   inkscape:version="0.92.3 (2405546, 2018-03-11)">
  <defs
     id="defs2" />
  <sodipodi:namedview
     id="base"
     pagecolor="#ffffff"
     bordercolor="#666666"
     borderopacity="1.0"
     inkscape:pageopacity="0.0"
     inkscape:pageshadow="2"
     inkscape:zoom="1"
     inkscape:cx="25.50186"
     inkscape:cy="240.37856"
     inkscape:document-units="cm"
     inkscape:current-layer="layer1"
     showgrid="true"
     units="cm"
     inkscape:window-width="1291"
     inkscape:window-height="844"
     inkscape:window-x="232"
     inkscape:window-y="68"
     inkscape:window-maximized="0"
     inkscape:snap-nodes="false">
    <inkscape:grid
       type="xygrid"
       id="grid815"
       units="cm"
       spacingx="9.9999998"
       spacingy="9.9999998" />
  </sodipodi:namedview>
  <metadata
     id="metadata5">
    <rdf:RDF>
      <cc:Work
         rdf:about="">
        <dc:format>image/svg+xml</dc:format>
        <dc:type
           rdf:resource="http://purl.org/dc/dcmitype/StillImage" />
        <dc:title />
      </cc:Work>
    </rdf:RDF>
  </metadata>
  <g
     inkscape:label="Layer 1"
     inkscape:groupmode="layer"
     id="layer1"
     transform="translate(0,-197.00002)">
    <path
       style="opacity:1;fill:#020900;fill-opacity:1;stroke:none;stroke-width:0.99999994;stroke-linecap:butt;stroke-linejoin:round;stroke-miterlimit:4;stroke-dasharray:none;stroke-opacity:1"
       id="path1663"
       d="m 15.819994,282.9329 c 0.180266,-0.0352 0.363356,-0.0404 0.545872,-0.0295 0.01642,-0.009 0.247972,0.0488 0.155812,0.009 -0.186275,-0.0797 -0.367618,-0.17116 -0.548326,-0.2638 -0.202749,-0.099 -0.39175,-0.22177 -0.573568,-0.35727 -0.205763,-0.15118 -0.386752,-0.33253 -0.559347,-0.52267 -0.272753,-0.30571 -0.520998,-0.63368 -0.757181,-0.9707 -0.281004,-0.40363 -0.523764,-0.8337 -0.755745,-1.26947 -0.273819,-0.52033 -0.51149,-1.05992 -0.734492,-1.60579 -0.23687,-0.5852 -0.42903,-1.18819 -0.608538,-1.79482 -0.179595,-0.61288 -0.316469,-1.23772 -0.424596,-1.86832 -0.09733,-0.56647 -0.128615,-1.14086 -0.139522,-1.71524 -0.0042,-0.59203 0.05372,-1.18169 0.119685,-1.76886 0.07677,-0.65693 0.203548,-1.30544 0.34096,-1.95089 0.145361,-0.67137 0.325242,-1.33352 0.521125,-1.99041 0.178009,-0.59894 0.387095,-1.18649 0.643425,-1.75345 0.218904,-0.4749 0.501395,-0.91088 0.812435,-1.32388 0.371102,-0.4769 0.797439,-0.90111 1.237142,-1.30735 0.450619,-0.41334 0.944167,-0.76818 1.45534,-1.09324 0.463184,-0.29555 0.960434,-0.51904 1.47211,-0.70311 0.571311,-0.19453 1.164263,-0.30061 1.756582,-0.3959 0.661991,-0.10465 1.330216,-0.14778 1.998642,-0.17184 0.635794,-0.0204 1.271085,0.0113 1.904435,0.0679 0.557993,0.0488 1.106533,0.16503 1.64862,0.30774 0.518577,0.14211 1.021361,0.33782 1.516801,0.55029 0.430227,0.1841 0.841859,0.40982 1.237257,0.66472 0.342555,0.22428 0.650183,0.49849 0.942542,0.78891 0.313799,0.3146 0.579596,0.6746 0.832961,1.04256 0.269579,0.39262 0.504804,0.80818 0.708906,1.24152 0.190231,0.41672 0.320501,0.85846 0.438611,1.30224 0.122931,0.46153 0.191042,0.93492 0.240638,1.41028 0.05335,0.53859 0.06289,1.08016 0.05632,1.6211 -0.0039,0.5033 -0.06575,1.00225 -0.138994,1.49871 -0.08769,0.56918 -0.195209,1.13472 -0.31405,1.69761 -0.116578,0.53833 -0.254235,1.07127 -0.400171,1.60158 -0.12759,0.47059 -0.290957,0.92866 -0.470736,1.37972 -0.180996,0.45166 -0.386662,0.89156 -0.603459,1.32535 -0.202317,0.40199 -0.425606,0.79159 -0.658347,1.17493 -0.211151,0.35025 -0.444521,0.68473 -0.68329,1.01468 -0.210376,0.29092 -0.434716,0.57017 -0.665011,0.84388 -0.185407,0.22087 -0.37844,0.43416 -0.584128,0.6343 -0.175372,0.16844 -0.360921,0.32445 -0.550035,0.47548 -0.175086,0.13982 -0.358451,0.26745 -0.544069,0.39125 -0.157964,0.10714 -0.321109,0.20543 -0.489758,0.29292 -0.17687,0.0888 -0.358829,0.16571 -0.541023,0.2415 -0.193036,0.082 -0.39023,0.15186 -0.588387,0.2186 -0.201451,0.0681 -0.405331,0.12758 -0.609801,0.18455 -0.190776,0.0538 -0.382966,0.10147 -0.575808,0.14641 -0.152295,0.0375 -0.306784,0.0633 -0.461229,0.0888 -0.158843,0.0238 -0.317916,0.0468 -0.477683,0.0627 -0.176736,0.0159 -0.353601,0.0293 -0.530629,0.0402 -0.03925,0.009 -0.07873,7e-5 -0.108033,-0.009 -0.163639,-0.0297 -0.326713,-0.0629 -0.489933,-0.0951 -0.238203,-0.0461 -0.476092,-0.0935 -0.713995,-0.1412 -0.20981,-0.0427 -0.41932,-0.0869 -0.628451,-0.13325 -0.172587,-0.0391 -0.344369,-0.0819 -0.516256,-0.12416 -0.236968,-0.0656 -0.05332,-0.0113 0.09844,0.0427 -4.511384,-1.90438 -7.083885,4.77504 -2.572501,6.67944 v 0 c 0.295087,0.11418 0.5916,0.22155 0.900201,0.28888 0.223498,0.055 0.446928,0.11033 0.671496,0.16049 0.25142,0.0554 0.503225,0.10873 0.755472,0.16004 0.243688,0.0488 0.487358,0.0976 0.73135,0.14459 0.339761,0.0669 0.679367,0.13733 1.023213,0.17797 0.421241,0.0445 0.844588,0.0679 1.267714,0.0365 0.269803,-0.0181 0.539486,-0.0377 0.808646,-0.0637 0.286151,-0.0313 0.571757,-0.0681 0.856113,-0.11395 0.296138,-0.0492 0.591705,-0.10283 0.884076,-0.17297 0.286673,-0.0672 0.572416,-0.13847 0.856119,-0.21838 0.318176,-0.0892 0.635214,-0.18319 0.948692,-0.28935 0.343997,-0.11691 0.685889,-0.24059 1.02144,-0.38215 0.37588,-0.15754 0.749774,-0.32118 1.111544,-0.51206 0.368512,-0.19818 0.730546,-0.40928 1.078132,-0.64575 0.350237,-0.23542 0.695156,-0.47962 1.025403,-0.74514 0.372182,-0.30041 0.736846,-0.6114 1.079921,-0.94808 0.360318,-0.35809 0.707446,-0.73012 1.033939,-1.12242 0.339886,-0.40635 0.671518,-0.82035 0.982406,-1.2516 0.352462,-0.4889 0.695034,-0.98587 1.007279,-1.50423 0.334851,-0.55487 0.656608,-1.11848 0.94733,-1.70028 0.30907,-0.6227 0.602821,-1.25382 0.860258,-1.90208 0.275313,-0.70123 0.527566,-1.41232 0.725049,-2.14234 0.185216,-0.67635 0.360082,-1.35598 0.506947,-2.04271 0.150286,-0.71755 0.287477,-1.43817 0.396777,-2.16391 0.119224,-0.83104 0.211135,-1.66701 0.216643,-2.50861 0.0065,-0.83748 -0.01209,-1.67574 -0.100322,-2.50894 -0.09641,-0.86368 -0.230058,-1.72305 -0.457806,-2.56079 -0.241885,-0.88265 -0.520925,-1.75578 -0.914312,-2.57903 -0.379487,-0.77918 -0.799944,-1.53542 -1.29348,-2.24255 -0.516257,-0.73599 -1.066143,-1.44758 -1.705665,-2.07178 -0.642723,-0.61993 -1.31849,-1.20307 -2.068071,-1.67811 -0.709157,-0.44482 -1.440196,-0.8505 -2.208051,-1.17433 -0.802336,-0.3392 -1.617129,-0.64872 -2.457373,-0.86986 -0.900231,-0.22986 -1.810874,-0.41604 -2.736027,-0.49347 -0.902335,-0.0758 -1.80732,-0.12054 -2.712763,-0.0872 -0.940353,0.0368 -1.880183,0.10283 -2.811035,0.25319 -1.012711,0.16708 -2.022468,0.3709 -2.993611,0.72334 -0.963812,0.36363 -1.904071,0.79181 -2.777587,1.35703 -0.851663,0.55207 -1.675627,1.15089 -2.425868,1.84857 -0.7559572,0.70808 -1.4840236,1.45163 -2.1112242,2.28916 -0.6139357,0.84237 -1.1759144,1.72589 -1.6044457,2.68916 -0.3776864,0.8605 -0.708556,1.74162 -0.9729293,2.648 -0.2510427,0.84795 -0.482446,1.70237 -0.6680522,2.56896 -0.1872017,0.88675 -0.3562935,1.77833 -0.4584134,2.68087 -0.100705,0.91834 -0.180113,1.84094 -0.163621,2.7665 0.023204,0.953 0.085159,1.90553 0.2501863,2.84467 0.1620144,0.91471 0.3588245,1.8225 0.6229345,2.7115 0.2521603,0.84504 0.5240038,1.68423 0.8569449,2.49877 0.3199683,0.77638 0.6605955,1.54388 1.0538153,2.2831 0.3760023,0.69947 0.772351,1.3877 1.228245,2.03411 0.4253206,0.598 0.8707469,1.18107 1.3656519,1.71828 0.4864939,0.51565 0.9988179,1.00463 1.5710209,1.41567 0.470082,0.33612 0.954706,0.64916 1.469674,0.9053 0.413102,0.20998 0.830035,0.41336 1.262299,0.57705 0.465059,0.16912 0.939684,0.31348 1.431532,0.36538 0.425176,0.0388 0.853038,0.0506 1.275575,-0.0266 4.800454,-0.82242 3.689503,-7.92985 -1.110951,-7.10741 z"
       inkscape:connector-curvature="0" />
    <path
       style="opacity:1;fill:#020900;fill-opacity:1;stroke:none;stroke-width:0.99999994;stroke-linecap:butt;stroke-linejoin:round;stroke-miterlimit:4;stroke-dasharray:none;stroke-opacity:1"
       id="path1665"
       d="m 75.049253,282.53259 c -0.05638,0.004 -0.11919,0.004 -0.168431,0.002 -0.160039,-0.0261 -0.321678,-0.0463 -0.482336,-0.0695 -0.304681,-0.0399 -0.606428,-0.0994 -0.907449,-0.16208 -0.338646,-0.0697 -0.672415,-0.16185 -1.004946,-0.25791 -0.346406,-0.10079 -0.690065,-0.21134 -1.026829,-0.3432 -0.318797,-0.12667 -0.624584,-0.28466 -0.926717,-0.44923 -0.321011,-0.17297 -0.622739,-0.37968 -0.91513,-0.60044 -0.319614,-0.24422 -0.615098,-0.51978 -0.897803,-0.80897 -0.334764,-0.34324 -0.635637,-0.71951 -0.926621,-1.10324 -0.313002,-0.41342 -0.589147,-0.8545 -0.849622,-1.30544 -0.26544,-0.46539 -0.491334,-0.95337 -0.709533,-1.44439 -0.21917,-0.48782 -0.400423,-0.99227 -0.568425,-1.50138 -0.16908,-0.51631 -0.315913,-1.04009 -0.44327,-1.56922 -0.108276,-0.44775 -0.175234,-0.90427 -0.225896,-1.36256 -0.049,-0.45325 -0.05615,-0.90947 -0.05409,-1.36508 0.0013,-0.46611 0.04709,-0.92967 0.104513,-1.39129 0.06259,-0.48732 0.164878,-0.96717 0.285549,-1.44189 0.141764,-0.52323 0.321916,-1.03373 0.506407,-1.54175 0.201586,-0.55206 0.428098,-1.09345 0.664633,-1.62992 0.204121,-0.46718 0.445659,-0.91421 0.70027,-1.35281 0.237395,-0.41014 0.510945,-0.79479 0.802119,-1.16435 0.279757,-0.34883 0.589296,-0.66869 0.915032,-0.96991 0.313492,-0.28607 0.65517,-0.53375 1.008103,-0.76274 0.424947,-0.26604 0.872961,-0.48773 1.322795,-0.70294 0.518178,-0.24471 1.048623,-0.45908 1.582978,-0.66146 0.451712,-0.17478 0.916244,-0.30758 1.385078,-0.42078 0.388098,-0.0953 0.78223,-0.15618 1.179798,-0.18251 0.371623,-0.0227 0.742474,0.0113 1.111483,0.054 0.437803,0.0542 0.868849,0.1505 1.294524,0.26879 0.419936,0.11781 0.823796,0.28656 1.220766,0.47018 0.401379,0.18273 0.775756,0.41938 1.142082,0.66815 0.410205,0.2828 0.798661,0.59773 1.180444,0.92061 0.379272,0.32527 0.748527,0.66297 1.108353,1.01155 0.320897,0.31353 0.621395,0.64828 0.905986,0.99786 0.299278,0.36949 0.55826,0.77118 0.80868,1.17769 0.293463,0.47883 0.557954,0.97589 0.813134,1.47788 0.252423,0.49553 0.475014,1.00637 0.682538,1.52394 0.210055,0.53173 0.391033,1.07518 0.566848,1.6201 0.169902,0.52731 0.326626,1.05907 0.470739,1.5947 0.127794,0.4705 0.221631,0.94969 0.305205,1.43061 0.07634,0.43409 0.125875,0.87229 0.155987,1.31235 0.02408,0.39282 0.01514,0.78664 4.3e-5,1.17957 -0.01654,0.38465 -0.05417,0.76766 -0.104164,1.14897 -0.04296,0.32847 -0.114956,0.65135 -0.189791,0.97312 -0.08003,0.34538 -0.173926,0.6868 -0.276677,1.02544 -0.0841,0.28143 -0.185492,0.55622 -0.297932,0.82637 -0.107079,0.25001 -0.229529,0.49222 -0.357494,0.73107 -0.114403,0.2052 -0.225973,0.41359 -0.362839,0.6037 -0.109244,0.14664 -0.228214,0.28497 -0.351872,0.41838 -0.145418,0.15504 -0.30126,0.29852 -0.458722,0.43981 -0.142869,0.12757 -0.294931,0.24298 -0.448442,0.35598 -0.159906,0.1169 -0.322826,0.22926 -0.489413,0.33548 -0.132882,0.0851 -0.272931,0.15685 -0.412025,0.22977 -0.181573,0.0956 -0.364196,0.18886 -0.548907,0.27766 -0.138348,0.0667 -0.28048,0.12394 -0.423103,0.17956 -0.166495,0.0647 -0.334381,0.12507 -0.502867,0.18386 -0.167564,0.0572 -0.335571,0.11282 -0.503672,0.16821 -0.145769,0.0459 -0.29228,0.089 -0.438465,0.13347 -0.138983,0.0415 -0.279,0.079 -0.41883,0.11714 -0.116377,0.0313 -0.233987,0.0574 -0.351671,0.0829 -0.130066,0.0277 -0.260823,0.0518 -0.391736,0.0747 -0.145021,0.0248 -0.290357,0.0472 -0.435838,0.0688 -0.147103,0.0227 -0.294587,0.0409 -0.442108,0.0595 -0.142605,0.0181 -0.285216,0.0354 -0.427913,0.0524 -0.115488,0.0136 -0.23118,0.0248 -0.346904,0.0359 -0.121348,0.0113 -0.242755,0.0227 -0.364183,0.0325 -0.0893,0.0113 -0.385773,0.0268 0.02215,0.002 -4.864108,0.0456 -4.802444,7.24732 0.06167,7.20167 v 0 c 0.159941,-0.007 0.319453,-0.0113 0.478653,-0.0272 0.141144,-0.0113 0.282268,-0.0245 0.423323,-0.0377 0.167232,-0.0159 0.334401,-0.0327 0.501274,-0.0524 0.157975,-0.0181 0.315865,-0.0383 0.473736,-0.0581 0.195215,-0.0245 0.390345,-0.05 0.585013,-0.079 0.204065,-0.0304 0.407945,-0.0622 0.611306,-0.0974 0.216773,-0.0383 0.433247,-0.0785 0.648557,-0.12508 0.231804,-0.0506 0.463175,-0.1035 0.692285,-0.16616 0.199192,-0.0544 0.398563,-0.10827 0.596329,-0.16843 0.196805,-0.0597 0.394155,-0.11758 0.589827,-0.18137 0.204423,-0.0674 0.408771,-0.13506 0.612394,-0.20521 0.249582,-0.0872 0.498293,-0.17706 0.744832,-0.27348 0.297987,-0.11759 0.594045,-0.24065 0.883173,-0.38062 0.255276,-0.12325 0.508437,-0.25124 0.759484,-0.38373 0.31455,-0.16571 0.627145,-0.33591 0.926756,-0.53002 0.291648,-0.18841 0.579126,-0.38399 0.859166,-0.59099 0.331338,-0.24611 0.657108,-0.50072 0.965044,-0.77853 0.328197,-0.2967 0.650285,-0.60123 0.950396,-0.92931 0.343824,-0.38043 0.67527,-0.77391 0.968357,-1.19908 0.280302,-0.4159 0.542393,-0.84452 0.777668,-1.29028 0.238985,-0.45188 0.467522,-0.91012 0.664279,-1.38416 0.201454,-0.49305 0.386403,-0.99321 0.539202,-1.50534 0.148887,-0.49558 0.286481,-0.9948 0.402919,-1.49996 0.130058,-0.56498 0.248401,-1.13331 0.321759,-1.70989 0.0768,-0.6079 0.136756,-1.21821 0.160184,-1.83124 0.02347,-0.6657 0.03184,-1.33266 -0.01461,-1.99763 -0.05161,-0.69366 -0.127709,-1.3851 -0.249441,-2.06952 -0.123947,-0.7026 -0.264374,-1.40226 -0.451665,-2.08979 -0.176675,-0.65237 -0.366315,-1.30079 -0.574003,-1.94313 -0.230018,-0.71098 -0.468799,-1.41923 -0.745257,-2.11217 -0.29028,-0.71759 -0.599789,-1.42661 -0.951132,-2.11405 -0.348102,-0.68184 -0.709882,-1.35636 -1.110623,-2.00617 -0.421547,-0.67818 -0.862888,-1.34394 -1.367404,-1.95834 -0.459546,-0.55569 -0.938485,-1.09349 -1.454729,-1.59241 -0.473813,-0.45663 -0.957929,-0.90143 -1.457669,-1.32688 -0.573635,-0.48268 -1.158983,-0.951 -1.776822,-1.37067 -0.677188,-0.45307 -1.372799,-0.87692 -2.111894,-1.21116 -0.729832,-0.33055 -1.473023,-0.63064 -2.244037,-0.83989 -0.756118,-0.20248 -1.52069,-0.37116 -2.297586,-0.45926 -0.779616,-0.084 -1.563566,-0.13347 -2.346965,-0.0738 -0.752256,0.0627 -1.500497,0.16799 -2.235296,0.35224 -0.732155,0.18114 -1.458063,0.39039 -2.164439,0.66349 -0.71037,0.27076 -1.415577,0.55719 -2.103933,0.88516 -0.72322,0.34837 -1.440248,0.71402 -2.11796,1.15333 -0.676571,0.4492 -1.332704,0.93249 -1.931755,1.49149 -0.589621,0.5562 -1.154091,1.1416 -1.658363,1.78461 -0.491186,0.63437 -0.956659,1.29067 -1.358887,1.99149 -0.385318,0.67 -0.750461,1.35295 -1.061013,2.06499 -0.301959,0.68763 -0.591349,1.38145 -0.848493,2.089 -0.270115,0.74723 -0.529666,1.49971 -0.729133,2.27158 -0.192127,0.77598 -0.356968,1.5596 -0.454623,2.35551 -0.09093,0.75797 -0.159229,1.5193 -0.15965,2.28405 -5.29e-4,0.7471 0.01834,1.49483 0.102717,2.23748 0.08944,0.76859 0.206092,1.53403 0.390012,2.28487 0.177985,0.72674 0.377266,1.44762 0.611941,2.15676 0.24679,0.74003 0.513469,1.47299 0.832612,2.1827 0.32639,0.7303 0.668541,1.45372 1.067649,2.14415 0.41433,0.70915 0.853141,1.40285 1.349148,2.05307 0.478454,0.62508 0.975611,1.23541 1.52631,1.79283 0.531852,0.53365 1.084865,1.04467 1.685168,1.49346 0.559652,0.41419 1.135724,0.80399 1.746581,1.13136 0.55694,0.29996 1.122748,0.583 1.710867,0.81048 0.518898,0.19794 1.044199,0.37602 1.57721,0.5279 0.494221,0.14188 0.990746,0.27558 1.493867,0.37866 0.431998,0.0892 0.865238,0.17229 1.302102,0.23125 0.406564,0.0585 0.813884,0.11872 1.224531,0.13392 0.276434,0.007 0.552894,0.004 0.828834,-0.0159 4.853262,-0.343 4.389953,-7.52858 -0.463307,-7.1856 z"
       inkscape:connector-curvature="0" />
    <path
       style="opacity:1;fill:#020900;fill-opacity:1;stroke:none;stroke-width:0.99999994;stroke-linecap:butt;stroke-linejoin:round;stroke-miterlimit:4;stroke-dasharray:none;stroke-opacity:1"
       id="path1667"
       d="m 48.626114,233.11895 c -0.191857,0.0436 -0.382288,0.0937 -0.572582,0.14414 -0.168097,0.0488 -0.339584,0.0815 -0.5115,0.11123 -0.09971,0.0272 -0.191212,0.009 -0.290685,-0.002 -0.271237,-0.0336 -0.537506,-0.0976 -0.80206,-0.16707 -0.386445,-0.10578 -0.762529,-0.2474 -1.135568,-0.39582 -0.406839,-0.16707 -0.79674,-0.37427 -1.180401,-0.59239 -0.390078,-0.21792 -0.756246,-0.47677 -1.107229,-0.75727 -0.378166,-0.30413 -0.722497,-0.64958 -1.053383,-1.00803 -0.364603,-0.39972 -0.688954,-0.83594 -0.996738,-1.28413 -0.330226,-0.48596 -0.614,-1.00331 -0.883719,-1.52781 -0.290438,-0.57276 -0.53817,-1.16734 -0.775716,-1.76571 -0.229005,-0.57194 -0.42731,-1.15601 -0.590449,-1.75201 -0.148614,-0.55002 -0.236146,-1.11404 -0.299993,-1.68074 -0.05787,-0.5355 -0.06068,-1.07427 -0.02976,-1.61149 0.03149,-0.51169 0.13689,-1.01222 0.258297,-1.5074 0.136014,-0.5669 0.342667,-1.109 0.573749,-1.63958 0.265586,-0.59453 0.594619,-1.15384 0.938096,-1.70165 0.380433,-0.60205 0.807397,-1.16886 1.262353,-1.71053 0.466394,-0.54931 0.994889,-1.03349 1.536877,-1.49836 0.566195,-0.47872 1.175547,-0.89583 1.799514,-1.28622 0.599146,-0.37264 1.240298,-0.65832 1.889519,-0.91896 0.722585,-0.28458 1.465257,-0.50629 2.211861,-0.70933 0.743797,-0.19839 1.497338,-0.35086 2.257716,-0.45871 0.619982,-0.0906 1.244219,-0.0742 1.865704,-0.0182 0.655167,0.0667 1.297427,0.21996 1.931011,0.40202 0.642408,0.1909 1.26243,0.45206 1.87143,0.73665 0.528468,0.24491 1.021919,0.55787 1.490768,0.90956 0.439227,0.33775 0.830263,0.7354 1.200846,1.15194 0.393319,0.44833 0.732941,0.9428 1.055426,1.44801 0.344217,0.54481 0.640876,1.11962 0.919974,1.70311 0.293259,0.62543 0.544637,1.27081 0.787427,1.91908 0.231629,0.62247 0.452715,1.24909 0.648036,1.88512 0.154641,0.50671 0.276032,1.02312 0.374692,1.54466 0.07849,0.42396 0.117044,0.85358 0.135062,1.28449 0.01709,0.4199 -0.0033,0.83955 -0.04218,1.25741 -0.04205,0.43095 -0.114874,0.85749 -0.203594,1.28034 -0.07955,0.38215 -0.204838,0.75052 -0.335846,1.11592 -0.139317,0.39327 -0.307192,0.77379 -0.487953,1.14772 -0.188963,0.38545 -0.399182,0.75877 -0.611918,1.13018 -0.182911,0.32214 -0.377581,0.63656 -0.591269,0.93721 -0.147677,0.21066 -0.315037,0.40403 -0.494398,0.5852 -0.173622,0.17252 -0.362453,0.32663 -0.555482,0.47432 -0.157475,0.12575 -0.332169,0.22155 -0.509059,0.31275 -0.234058,0.11986 -0.477448,0.21701 -0.721793,0.31088 -0.2882,0.10873 -0.579324,0.20838 -0.871302,0.30522 -0.256681,0.0849 -0.515197,0.16367 -0.775031,0.23731 -0.226372,0.0647 -0.45538,0.11849 -0.685054,0.16843 -0.256262,0.0549 -0.513956,0.10192 -0.771782,0.148 -0.191555,0.0365 -0.384855,0.059 -0.578665,0.0767 -0.236312,0.0181 -0.472892,0.0349 -0.709572,0.0484 -0.246894,0.0137 -0.493832,0.0252 -0.740863,0.0347 -0.228632,0.009 -0.457388,0.0136 -0.686115,0.0181 -0.15858,0.002 -0.317079,-0.004 -0.475559,-0.009 -0.183155,-0.007 -0.366369,-0.0113 -0.549503,-0.0181 -0.145968,-0.006 -0.29193,-0.0113 -0.437814,-0.0204 -0.132392,-0.006 -0.264771,-0.0159 -0.39715,-0.0227 -0.114183,-0.006 -0.228377,-0.0136 -0.342574,-0.0182 -0.0911,-0.004 -0.182208,-0.009 -0.273312,-0.0159 -0.03324,-7.2e-4 -0.213032,-0.0113 -0.0437,-0.002 -4.847564,-0.42217 -5.417844,6.75499 -0.570283,7.17716 v 0 c 0.08564,0.006 0.171222,0.0136 0.257013,0.0159 0.09061,0.004 0.181224,0.009 0.271833,0.0137 0.109255,0.006 0.218504,0.0113 0.327745,0.0182 0.139612,0.009 0.279223,0.0159 0.418848,0.0236 0.181354,0.009 0.362787,0.0181 0.544248,0.0243 0.196546,0.007 0.393142,0.0137 0.589709,0.0181 0.272076,0.009 0.544248,0.0159 0.816464,0.0113 0.269603,-0.004 0.539234,-0.0113 0.808718,-0.0204 0.285843,-0.0113 0.5716,-0.025 0.857274,-0.0401 0.316822,-0.0181 0.633558,-0.0391 0.949782,-0.0665 0.375095,-0.0359 0.749226,-0.0819 1.120299,-0.15049 0.343255,-0.0613 0.686221,-0.12486 1.027237,-0.19885 0.361196,-0.0797 0.721228,-0.16526 1.077341,-0.26734 0.352073,-0.10033 0.702612,-0.20657 1.050467,-0.3222 0.393735,-0.13098 0.786194,-0.26616 1.17443,-0.41409 0.489514,-0.19 0.974752,-0.39343 1.441649,-0.63918 0.521644,-0.27869 1.030475,-0.58379 1.49978,-0.95251 0.454525,-0.35448 0.89681,-0.72698 1.30121,-1.14377 0.431191,-0.45098 0.840528,-0.92448 1.199793,-1.44103 0.337563,-0.48436 0.656494,-0.98225 0.94774,-1.49876 0.299937,-0.5246 0.593833,-1.05337 0.858004,-1.59891 0.290838,-0.60906 0.561829,-1.2284 0.787521,-1.86754 0.244383,-0.69084 0.466802,-1.39095 0.613942,-2.11256 0.143587,-0.70627 0.263996,-1.41796 0.328872,-2.13746 0.06418,-0.75554 0.09827,-1.51401 0.0626,-2.27249 -0.03961,-0.78896 -0.113509,-1.57594 -0.262313,-2.35151 -0.153578,-0.78899 -0.336241,-1.57159 -0.573046,-2.33828 -0.240762,-0.77567 -0.505793,-1.54247 -0.790426,-2.30174 -0.320829,-0.85356 -0.65559,-1.70212 -1.045747,-2.52401 -0.411573,-0.8527 -0.850009,-1.69189 -1.357972,-2.48672 -0.535633,-0.82898 -1.103466,-1.63663 -1.758209,-2.36828 -0.693134,-0.76364 -1.425514,-1.4896 -2.247889,-2.10107 -0.842203,-0.61396 -1.72043,-1.17179 -2.662637,-1.60356 -0.93226,-0.42971 -1.881492,-0.82196 -2.865149,-1.10475 -1.043575,-0.29142 -2.101427,-0.53242 -3.179877,-0.62797 -1.118055,-0.0879 -2.240864,-0.1026 -3.354112,0.064 -1.026025,0.15163 -2.044822,0.35128 -3.048423,0.62363 -0.998998,0.2739 -1.991887,0.5756 -2.957531,0.96132 -1.0164,0.41429 -2.016736,0.87489 -2.953417,1.46448 -0.911571,0.57683 -1.801979,1.19183 -2.627384,1.89895 -0.830556,0.71922 -1.63558,1.47299 -2.347185,2.3233 -0.660368,0.79702 -1.28674,1.62467 -1.838965,2.50854 -0.535474,0.86273 -1.043326,1.74607 -1.451081,2.68405 -0.3914,0.91912 -0.739336,1.85859 -0.971171,2.83729 -0.224438,0.94677 -0.405982,1.90567 -0.456131,2.88222 -0.04482,0.95626 -0.03948,1.91484 0.0711,2.86681 0.113721,0.95201 0.268192,1.89918 0.524113,2.82206 0.239366,0.85063 0.515043,1.68909 0.844804,2.50647 0.328044,0.82223 0.672944,1.63784 1.07578,2.42352 0.415065,0.79974 0.854326,1.58663 1.363334,2.32579 0.506955,0.72868 1.04093,1.43755 1.64133,2.08538 0.578818,0.61827 1.181727,1.21271 1.842693,1.73508 0.631238,0.49361 1.284782,0.95557 1.981414,1.34333 0.653482,0.36663 1.318411,0.71237 2.012011,0.98912 0.633114,0.24927 1.272929,0.48197 1.929863,0.6536 0.646382,0.16367 1.299522,0.30398 1.963981,0.35657 0.639858,0.0406 1.282319,0.0404 1.915263,-0.0822 0.353192,-0.0635 0.705279,-0.13438 1.051814,-0.23078 0.118065,-0.0313 0.236016,-0.0633 0.355042,-0.0906 4.751453,-1.09058 3.278259,-8.12546 -1.473198,-7.03487 z"
       inkscape:connector-curvature="0" />
  </g>
</svg>
