<svg viewBox="0 0 100 100"><path style="opacity:1;fill:#020900;fill-opacity:1;stroke:none;stroke-width:1;stroke-linecap:butt;stroke-linejoin:round;stroke-miterlimit:4;stroke-dasharray:none;stroke-opacity:1" d="M29.22 227.673c.057-.382.161-.755.278-1.123.117-.358.258-.708.403-1.056.17-.408.369-.804.58-1.193.218-.383.452-.757.69-1.127.288-.451.605-.883.932-1.305.38-.483.783-.947 1.194-1.403.48-.536.995-1.038 1.527-1.522.56-.504 1.16-.963 1.768-1.405a22 22 0 0 1 1.984-1.256c.707-.4 1.437-.755 2.178-1.087.77-.342 1.56-.63 2.354-.91a92 92 0 0 1 2.335-.766 48 48 0 0 1 2.506-.716 50 50 0 0 1 2.649-.592 30 30 0 0 1 2.81-.427 27 27 0 0 1 2.899-.12c.978.01 1.95.114 2.92.24.878.116 1.753.259 2.624.42.911.171 1.81.403 2.7.659.91.264 1.797.6 2.67.967.892.374 1.744.828 2.573 1.322.784.474 1.52 1.017 2.24 1.584a25 25 0 0 1 1.918 1.725 18 18 0 0 1 1.715 1.968c.593.78 1.058 1.643 1.48 2.524.419.9.749 1.836 1.056 2.78.299.935.545 1.887.781 2.841.22.896.415 1.798.6 2.702.197.935.342 1.88.454 2.83a24 24 0 0 1 .128 2.948c-.007.983-.126 1.956-.299 2.922-.176.949-.47 1.868-.8 2.773-.326.885-.722 1.742-1.133 2.59a98 98 0 0 1-1.297 2.517 147 147 0 0 1-2.674 4.815c-.465.808-.945 1.606-1.43 2.402a60 60 0 0 1-3.168 4.685 63 63 0 0 1-1.833 2.368c-.681.836-1.4 1.64-2.133 2.43a67 67 0 0 1-2.365 2.398c-.766.746-1.545 1.48-2.324 2.211-.73.686-1.453 1.379-2.185 2.062q-1.05.972-2.118 1.921a69 69 0 0 1-2.028 1.74c-.601.494-1.208.981-1.813 1.47-.554.454-1.118.893-1.687 1.326q-.838.637-1.72 1.211c-.614.4-1.256.75-1.902 1.093-.663.353-1.35.657-2.044.94-.713.289-1.447.518-2.19.714-.632.16-1.272.286-1.913.4-.616.108-1.236.184-1.858.239a13 13 0 0 1-1.961 0 9.5 9.5 0 0 1-1.96-.362c-.67-.197-1.294-.51-1.89-.87-.616-.385-1.138-.89-1.635-1.413q-.554-.6-1.076-1.228a13 13 0 0 1-1.136-1.61 24 24 0 0 1-1.45-2.934 73 73 0 0 1-.455-1.118q-.204-.516-.387-1.037-.144-.405-.283-.812c-.067-.189-.128-.38-.197-.567l-.027-.073c-1.683-4.564 4.771-6.944 6.454-2.38l.034.092q.122.34.238.68.13.38.264.76.14.401.298.798.198.499.405.995a18 18 0 0 0 .983 2.019c.164.275.342.543.549.789q.383.46.788.903c.063.068.248.241.25.285a1 1 0 0 0 .226.125c.158.067.336.074.504.097q.438.038.876.006.627-.051 1.245-.158c.461-.08.921-.17 1.376-.283.458-.117.909-.258 1.347-.435.48-.192.952-.4 1.408-.643.46-.242.917-.488 1.354-.769a22 22 0 0 0 1.324-.932q.772-.584 1.522-1.196.877-.706 1.75-1.418a62 62 0 0 0 1.84-1.579c.671-.6 1.34-1.202 2-1.814.728-.679 1.446-1.367 2.17-2.049.748-.701 1.494-1.404 2.228-2.119a61 61 0 0 0 2.126-2.151c.63-.68 1.25-1.371 1.837-2.09a56 56 0 0 0 1.643-2.123 53 53 0 0 0 2.824-4.172c.454-.745.904-1.494 1.34-2.25a140 140 0 0 0 2.56-4.607c.403-.763.803-1.527 1.187-2.3.31-.64.613-1.285.862-1.952.198-.537.382-1.08.492-1.643a10 10 0 0 0 .188-1.768c.01-.693-.007-1.386-.082-2.076a24 24 0 0 0-.361-2.246 65 65 0 0 0-.539-2.43 38 38 0 0 0-.646-2.368c-.213-.662-.44-1.32-.727-1.954-.214-.458-.444-.91-.747-1.317a11 11 0 0 0-1.06-1.22c-.434-.43-.88-.85-1.357-1.232a16 16 0 0 0-1.506-1.077 13.5 13.5 0 0 0-1.714-.887 17 17 0 0 0-1.905-.696 22 22 0 0 0-2.053-.505 44 44 0 0 0-2.249-.362c-.692-.09-1.387-.17-2.086-.182a20 20 0 0 0-2.119.081 23 23 0 0 0-2.19.332c-.76.152-1.52.313-2.272.506q-1.087.279-2.156.616c-.713.225-1.424.454-2.13.697-.617.217-1.234.438-1.832.702a18 18 0 0 0-1.576.783 15 15 0 0 0-1.35.847 15 15 0 0 0-1.182.929c-.365.33-.717.674-1.046 1.04q-.451.494-.87 1.017c-.201.257-.395.52-.572.795q-.232.36-.45.727a5 5 0 0 0-.263.533 10 10 0 0 0-.201.508c-.026.073-.036.122-.018.004-.699 4.814-7.507 3.825-6.807-.989z" transform="translate(0 -197)"/><path style="opacity:1;fill:#020900;fill-opacity:1;stroke:none;stroke-width:1;stroke-linecap:butt;stroke-linejoin:round;stroke-miterlimit:4;stroke-dasharray:none;stroke-opacity:1" d="M39.057 239.147q.345.04.687.089.456.07.906.17c.296.071.588.156.88.243l.686.215q.423.13.835.286c.307.113.605.248.9.393q.405.202.791.438c.417.254.78.58 1.12.928.324.334.59.715.831 1.112.254.425.437.884.592 1.353.165.51.242 1.038.283 1.57.04.612-.054 1.215-.196 1.808-.135.527-.344 1.03-.572 1.524-.217.463-.476.902-.748 1.334-.21.327-.433.646-.654.965l-.475.683q-.2.29-.406.58l-.317.443q-.139.195-.281.386l-.208.282-.164.221c-.142.202.037-.061.083-.135l.08-.145c-2.172 4.353-8.328 1.283-6.157-3.07l.118-.222a5 5 0 0 1 .343-.515l.164-.221.202-.275q.114-.154.226-.31l.31-.433.36-.513.47-.678q.249-.354.489-.714a6 6 0 0 0 .333-.575c.041-.085.1-.226.132-.286-.005.095-.011.196.002.292.005.035.011.074.03.098l.042.057a1 1 0 0 0 .113.135q.111.1.24.173a4 4 0 0 0-.232-.127 2 2 0 0 0-.273-.12 6 6 0 0 0-.443-.152l-.61-.191a25 25 0 0 0-.447-.129c-.128-.033-.26-.05-.39-.074-.134-.02-.27-.034-.405-.053-4.837-.516-4.106-7.356.73-6.84" transform="translate(0 -197)"/></svg>
