<?xml version="1.0" encoding="UTF-8" standalone="no"?>
<!-- Created with Inkscape (http://www.inkscape.org/) -->

<svg
   xmlns:dc="http://purl.org/dc/elements/1.1/"
   xmlns:cc="http://creativecommons.org/ns#"
   xmlns:rdf="http://www.w3.org/1999/02/22-rdf-syntax-ns#"
   xmlns:svg="http://www.w3.org/2000/svg"
   xmlns="http://www.w3.org/2000/svg"
   xmlns:sodipodi="http://sodipodi.sourceforge.net/DTD/sodipodi-0.dtd"
   xmlns:inkscape="http://www.inkscape.org/namespaces/inkscape"
   width="10cm"
   height="10cm"
   viewBox="0 0 100 99.999997"
   version="1.1"
   id="svg8"
   sodipodi:docname="kute.svg"
   inkscape:version="0.92.3 (2405546, 2018-03-11)">
  <defs
     id="defs2" />
  <sodipodi:namedview
     id="base"
     pagecolor="#ffffff"
     bordercolor="#666666"
     borderopacity="1.0"
     inkscape:pageopacity="0.0"
     inkscape:pageshadow="2"
     inkscape:zoom="1"
     inkscape:cx="125.50186"
     inkscape:cy="200.50542"
     inkscape:document-units="cm"
     inkscape:current-layer="layer1"
     showgrid="true"
     units="cm"
     inkscape:window-width="1920"
     inkscape:window-height="1017"
     inkscape:window-x="-8"
     inkscape:window-y="-8"
     inkscape:window-maximized="1"
     inkscape:snap-nodes="false">
    <inkscape:grid
       type="xygrid"
       id="grid815"
       units="cm"
       spacingx="9.9999998"
       spacingy="9.9999998" />
  </sodipodi:namedview>
  <metadata
     id="metadata5">
    <rdf:RDF>
      <cc:Work
         rdf:about="">
        <dc:format>image/svg+xml</dc:format>
        <dc:type
           rdf:resource="http://purl.org/dc/dcmitype/StillImage" />
        <dc:title></dc:title>
      </cc:Work>
    </rdf:RDF>
  </metadata>
  <g
     inkscape:label="Layer 1"
     inkscape:groupmode="layer"
     id="layer1"
     transform="translate(0,-197.00002)">
    <path
       style="opacity:1;fill:#020900;fill-opacity:1;stroke:none;stroke-width:1;stroke-linecap:butt;stroke-linejoin:round;stroke-miterlimit:4;stroke-dasharray:none;stroke-opacity:1"
       id="path1141"
       d="m 29.220766,227.67291 c 0.05607,-0.3824 0.160578,-0.7548 0.276751,-1.12259 0.117562,-0.35817 0.258159,-0.7081 0.403188,-1.05584 0.170199,-0.40888 0.36916,-0.80446 0.581083,-1.19303 0.217334,-0.38337 0.451424,-0.75696 0.689145,-1.12792 0.287969,-0.45096 0.604617,-0.88229 0.932322,-1.30489 0.379828,-0.48292 0.782958,-0.94675 1.194237,-1.40294 0.480115,-0.53565 0.994934,-1.03781 1.526241,-1.52212 0.560782,-0.50369 1.159327,-0.96209 1.768607,-1.40492 0.634934,-0.45915 1.304047,-0.86693 1.983896,-1.25527 0.706401,-0.40087 1.437011,-0.75579 2.177931,-1.08756 0.769099,-0.34212 1.560103,-0.63054 2.353744,-0.90956 0.774322,-0.26792 1.554401,-0.51871 2.335564,-0.76582 0.827884,-0.26349 1.664211,-0.49849 2.505025,-0.71673 0.876525,-0.22598 1.761945,-0.41443 2.649321,-0.59206 0.92933,-0.19083 1.868164,-0.32521 2.811002,-0.42671 0.962922,-0.0983 1.930585,-0.12564 2.897854,-0.11988 0.978112,0.0106 1.951133,0.11421 2.920166,0.23924 0.878481,0.1164 1.752984,0.2596 2.624119,0.42157 0.9114,0.17053 1.809393,0.40169 2.699989,0.65784 0.91086,0.26379 1.797277,0.60064 2.670892,0.96748 0.890788,0.37407 1.743043,0.82829 2.572567,1.32161 0.783262,0.47416 1.520407,1.01768 2.238809,1.58381 0.674362,0.53559 1.304721,1.12259 1.918528,1.72569 0.62371,0.6096 1.186487,1.27529 1.715095,1.96774 0.593567,0.78014 1.05844,1.64257 1.480209,2.52416 0.418822,0.89972 0.74871,1.83627 1.055532,2.77887 0.299206,0.93639 0.545785,1.88821 0.781428,2.84219 0.219432,0.896 0.414557,1.79763 0.599445,2.7013 0.19779,0.93561 0.342697,1.88051 0.454364,2.82988 0.111397,0.97916 0.137673,1.96445 0.128058,2.94897 -0.0067,0.9821 -0.126336,1.95606 -0.298796,2.92126 -0.175858,0.94901 -0.470557,1.86809 -0.799677,2.77332 -0.326901,0.88513 -0.721969,1.74214 -1.132911,2.5907 -0.418151,0.84606 -0.855597,1.68237 -1.297012,2.51647 -0.432226,0.81582 -0.874993,1.62598 -1.322535,2.43348 -0.443728,0.79761 -0.897353,1.58965 -1.351868,2.38115 -0.464838,0.80775 -0.944814,1.60663 -1.429485,2.4026 -0.487641,0.80407 -1.000649,1.59217 -1.525278,2.37246 -0.527362,0.78516 -1.081318,1.5518 -1.643555,2.3122 -0.591341,0.80459 -1.203973,1.59285 -1.832938,2.36827 -0.681199,0.83559 -1.400225,1.6389 -2.132502,2.42972 -0.76304,0.82394 -1.56193,1.61331 -2.3652,2.39769 -0.766384,0.74605 -1.544968,1.47937 -2.3246,2.21151 -0.729369,0.68621 -1.452713,1.37875 -2.184678,2.06221 -0.698585,0.64824 -1.406387,1.28642 -2.117722,1.92061 -0.663231,0.59478 -1.342009,1.17172 -2.02773,1.74029 -0.601766,0.49354 -1.208455,0.98103 -1.813578,1.47044 -0.55354,0.45272 -1.117495,0.89234 -1.686788,1.32499 -0.557747,0.42584 -1.133298,0.82697 -1.719993,1.21166 -0.613603,0.39907 -1.255958,0.7505 -1.902375,1.09277 -0.662599,0.35302 -1.349089,0.65691 -2.044142,0.93943 -0.712708,0.28934 -1.446821,0.51801 -2.189924,0.71408 -0.631783,0.16029 -1.271498,0.28626 -1.912988,0.40046 -0.61528,0.10831 -1.235403,0.18363 -1.857531,0.23834 -0.653007,0.0565 -1.308073,0.0454 -1.961168,0.001 -0.666192,-0.0447 -1.31858,-0.18003 -1.959327,-0.36214 -0.670759,-0.19787 -1.294223,-0.51113 -1.890919,-0.8705 -0.615516,-0.38485 -1.137438,-0.88928 -1.634495,-1.41289 -0.369972,-0.39951 -0.727604,-0.81017 -1.076164,-1.22843 -0.423598,-0.50409 -0.791882,-1.04959 -1.135681,-1.61007 -0.297808,-0.49892 -0.563417,-1.01597 -0.821349,-1.53631 -0.227208,-0.45796 -0.430856,-0.92688 -0.628695,-1.39809 -0.154599,-0.37105 -0.306509,-0.74321 -0.454949,-1.11677 -0.136945,-0.34291 -0.26407,-0.68957 -0.387622,-1.03748 -0.09541,-0.27021 -0.188825,-0.54111 -0.282451,-0.81194 -0.06686,-0.18845 -0.127905,-0.379 -0.197511,-0.56648 -0.009,-0.0245 -0.01807,-0.049 -0.02711,-0.0735 -1.682815,-4.56395 4.77158,-6.94381 6.454394,-2.37986 v 0 c 0.0113,0.0306 0.0226,0.0613 0.03388,0.0919 0.08203,0.22581 0.159539,0.45318 0.237967,0.68026 0.08753,0.25318 0.174834,0.50643 0.26393,0.75907 0.09495,0.26785 0.192375,0.53485 0.297902,0.79875 0.132101,0.33281 0.267642,0.66423 0.405162,0.99484 0.142232,0.3394 0.287054,0.67788 0.45045,1.00778 0.168709,0.34157 0.341175,0.68159 0.532352,1.01127 0.164735,0.27526 0.342456,0.54259 0.549072,0.78867 0.255023,0.30783 0.518702,0.6083 0.788214,0.90353 0.06353,0.068 0.24846,0.24129 0.250386,0.28461 0.06793,0.0532 0.14536,0.0927 0.225454,0.12525 0.158234,0.0671 0.336434,0.0736 0.504323,0.0973 0.291557,0.0251 0.584348,0.0277 0.876334,0.006 0.417076,-0.0341 0.832247,-0.0874 1.244769,-0.15794 0.461214,-0.0812 0.921176,-0.17078 1.375982,-0.28299 0.457713,-0.11717 0.908582,-0.25858 1.347282,-0.43494 0.479025,-0.19244 0.951645,-0.40091 1.407795,-0.64336 0.45879,-0.24235 0.916509,-0.48807 1.353264,-0.76891 0.452403,-0.29486 0.894485,-0.60486 1.324033,-0.93228 0.513972,-0.39031 1.022864,-0.78724 1.52231,-1.19604 0.583652,-0.47204 1.16873,-0.94233 1.74947,-1.41795 0.622379,-0.51569 1.238319,-1.03912 1.840015,-1.57891 0.672069,-0.59911 1.34084,-1.20192 2.001012,-1.81414 0.727168,-0.67876 1.445231,-1.36712 2.169988,-2.04845 0.747171,-0.70163 1.493481,-1.40423 2.228065,-2.11908 0.721357,-0.70416 1.43978,-1.41185 2.125212,-2.15137 0.630809,-0.68007 1.250172,-1.37093 1.837243,-2.08941 0.564513,-0.69477 1.112928,-1.40216 1.643208,-2.12348 0.501587,-0.67787 0.996051,-1.36111 1.466411,-2.06117 0.467193,-0.69404 0.923719,-1.39523 1.357635,-2.11067 0.454081,-0.74557 0.903872,-1.49379 1.339437,-2.25037 0.43723,-0.76136 0.873692,-1.52321 1.300666,-2.29039 0.426124,-0.76868 0.847645,-1.53993 1.259181,-2.31654 0.403714,-0.76267 0.803931,-1.52728 1.187455,-2.30035 0.310925,-0.63993 0.612817,-1.28489 0.861991,-1.95191 0.198105,-0.53668 0.382048,-1.07978 0.492311,-1.64245 0.10977,-0.58374 0.18306,-1.17333 0.187983,-1.76831 0.0098,-0.69285 -0.0074,-1.38632 -0.08255,-2.07573 -0.08609,-0.75392 -0.204165,-1.50345 -0.360968,-2.24612 -0.166063,-0.81323 -0.341453,-1.62459 -0.538483,-2.43095 -0.195773,-0.79435 -0.398978,-1.58735 -0.646083,-2.36758 -0.213551,-0.6613 -0.439759,-1.31967 -0.727342,-1.95313 -0.21403,-0.45798 -0.443487,-0.9104 -0.747067,-1.31696 -0.323337,-0.43213 -0.674272,-0.84247 -1.059259,-1.22133 -0.434843,-0.42932 -0.880359,-0.84846 -1.357779,-1.23066 -0.483626,-0.38383 -0.978998,-0.75373 -1.505339,-1.07768 -0.551291,-0.33316 -1.1207,-0.63488 -1.714277,-0.88649 -0.622882,-0.26452 -1.255573,-0.50605 -1.905466,-0.69659 -0.676992,-0.1965 -1.359829,-0.37336 -2.052865,-0.50444 -0.746371,-0.13974 -1.495951,-0.2615 -2.248641,-0.36222 -0.692409,-0.0906 -1.387335,-0.17066 -2.08638,-0.18217 -0.706956,-0.007 -1.414187,0.0131 -2.118248,0.0815 -0.73482,0.0769 -1.465951,0.18319 -2.189988,0.33182 -0.761225,0.15196 -1.520929,0.31255 -2.272933,0.50575 -0.723728,0.18702 -1.443222,0.38977 -2.155671,0.61632 -0.712354,0.22525 -1.423771,0.45367 -2.130102,0.69726 -0.617072,0.21654 -1.233284,0.43736 -1.831801,0.70191 -0.536546,0.23784 -1.064503,0.49486 -1.576093,0.78298 -0.462489,0.26205 -0.917999,0.53689 -1.350267,0.84699 -0.406252,0.29331 -0.806,0.59613 -1.181703,0.9282 -0.365308,0.32954 -0.716656,0.67411 -1.045604,1.04027 -0.299538,0.33067 -0.59254,0.66745 -0.870279,1.01676 -0.201414,0.25718 -0.395321,0.52031 -0.571711,0.79546 -0.154168,0.23967 -0.305094,0.48145 -0.450408,0.72661 -0.09721,0.17309 -0.185569,0.35086 -0.263025,0.53372 -0.0706,0.16786 -0.139626,0.33646 -0.200856,0.50801 -0.02646,0.0727 -0.03551,0.12112 -0.01751,0.004 -0.699408,4.81376 -7.507095,3.82465 -6.807687,-0.98911 z"
       inkscape:connector-curvature="0" />
    <path
       style="opacity:1;fill:#020900;fill-opacity:1;stroke:none;stroke-width:1;stroke-linecap:butt;stroke-linejoin:round;stroke-miterlimit:4;stroke-dasharray:none;stroke-opacity:1"
       id="path1143"
       d="m 39.057304,239.14724 c 0.229339,0.0273 0.458531,0.0553 0.68706,0.0888 0.303998,0.0457 0.605734,0.10404 0.905732,0.17087 0.295693,0.0704 0.58764,0.15539 0.878988,0.24175 0.229336,0.0707 0.457859,0.144 0.687091,0.21506 0.281816,0.0848 0.5593,0.18286 0.834681,0.28641 0.307269,0.11318 0.605618,0.24801 0.899237,0.3925 0.270738,0.13406 0.534125,0.28153 0.792316,0.4382 0.416724,0.25451 0.780148,0.57989 1.119838,0.92786 0.323832,0.33436 0.590188,0.71528 0.830861,1.11202 0.253799,0.42501 0.436525,0.88466 0.591426,1.35317 0.165248,0.50962 0.242787,1.0385 0.283024,1.57084 0.04057,0.61123 -0.0531,1.21473 -0.195302,1.80682 -0.135078,0.52788 -0.344363,1.03132 -0.572137,1.5248 -0.216633,0.4623 -0.476399,0.90202 -0.747808,1.33377 -0.209751,0.32721 -0.43284,0.64556 -0.654362,0.96483 -0.15811,0.22769 -0.316376,0.45526 -0.474623,0.68285 -0.133776,0.19436 -0.269539,0.38732 -0.40649,0.57946 -0.105569,0.14786 -0.211349,0.29558 -0.317109,0.4433 -0.09215,0.12996 -0.186406,0.25839 -0.280889,0.38665 -0.06918,0.0938 -0.138449,0.18759 -0.207703,0.28137 -0.05457,0.0739 -0.109146,0.14778 -0.163722,0.22167 -0.142735,0.20189 0.0368,-0.0617 0.08239,-0.13521 0.02649,-0.0484 0.05299,-0.0969 0.07948,-0.14527 -2.170821,4.35304 -8.326956,1.28304 -6.156134,-3.07001 v 0 c 0.03916,-0.0738 0.07833,-0.14766 0.117494,-0.22149 0.106669,-0.17689 0.216598,-0.35157 0.343281,-0.51501 0.05453,-0.0738 0.109066,-0.14767 0.163599,-0.22151 0.06761,-0.0915 0.135224,-0.18308 0.202766,-0.27467 0.076,-0.10316 0.151977,-0.20634 0.225936,-0.31099 0.103042,-0.14393 0.206111,-0.28785 0.308975,-0.43191 0.121396,-0.17027 0.241681,-0.34131 0.360146,-0.51364 0.15694,-0.22571 0.313899,-0.4514 0.470701,-0.6772 0.164502,-0.23708 0.330354,-0.47331 0.488688,-0.71457 0.118875,-0.18704 0.236093,-0.37566 0.33328,-0.57514 0.04142,-0.0851 0.100076,-0.22535 0.13176,-0.2857 -0.0043,0.0951 -0.01077,0.19581 0.0019,0.29233 0.0057,0.0351 0.01146,0.0736 0.03031,0.0978 0.01405,0.0189 0.02796,0.038 0.04168,0.0572 0.03468,0.0474 0.06888,0.0961 0.113736,0.13452 0.07335,0.066 0.153821,0.12444 0.239536,0.17345 -0.03621,-0.024 -0.16138,-0.0914 -0.232058,-0.12716 -0.08871,-0.0451 -0.178835,-0.0871 -0.272984,-0.1199 -0.14578,-0.0554 -0.29273,-0.10776 -0.442434,-0.15173 -0.203568,-0.0631 -0.406792,-0.12727 -0.609962,-0.19165 -0.148575,-0.0443 -0.297649,-0.087 -0.447038,-0.1285 -0.128127,-0.0328 -0.259559,-0.0505 -0.389596,-0.0739 -0.134874,-0.0209 -0.270693,-0.0344 -0.405889,-0.0529 -4.836809,-0.5165 -4.106376,-7.35678 0.730432,-6.84028 z"
       inkscape:connector-curvature="0" />
  </g>
</svg>
