<svg viewBox="0 0 100 100"><path style="opacity:1;fill:#020900;fill-opacity:1;stroke:none;stroke-width:1;stroke-linecap:butt;stroke-linejoin:round;stroke-miterlimit:4;stroke-dasharray:none;stroke-opacity:1" d="M33.871 205.86c.482.023.949.146 1.408.288.338.106.672.228 1.004.354q.536.204 1.065.431c.453.19.892.41 1.325.642.504.273.986.582 1.465.894q.708.471 1.406.955c.502.345.994.706 1.481 1.072q.76.582 1.502 1.186a38 38 0 0 1 1.608 1.385 35 35 0 0 1 1.632 1.55 35 35 0 0 1 1.619 1.787q.717.84 1.402 1.707.67.851 1.303 1.733.562.795 1.12 1.592.565.794 1.105 1.604c.37.557.719 1.128 1.06 1.702.361.6.69 1.217 1.001 1.843.3.613.576 1.238.84 1.868.268.634.497 1.283.716 1.935.209.623.4 1.253.582 1.884a56 56 0 0 1 .914 3.724c.136.646.253 1.296.36 1.948.11.689.202 1.38.29 2.072q.133 1.091.238 2.185c.074.77.135 1.54.192 2.31q.083 1.104.15 2.209c.046.754.065 1.51.072 2.266.01.756-.02 1.512-.06 2.267-.041.732-.1 1.462-.166 2.191a75 75 0 0 1-.22 2.111 40 40 0 0 1-.305 2.083 60 60 0 0 1-.4 2.01q-.223 1.062-.505 2.11a42 42 0 0 1-.63 2.069 46 46 0 0 1-1.526 3.949 25 25 0 0 1-.99 1.977c-.34.605-.706 1.195-1.068 1.787a291 291 0 0 1-2.093 3.377q-.528.84-1.068 1.67-.558.855-1.137 1.695a34 34 0 0 1-1.318 1.768 49 49 0 0 1-2.656 3.021c-.42.438-.856.859-1.294 1.278-.386.37-.778.733-1.168 1.098l-.995.932-.845.798-.695.654-.553.519-.44.414-.352.33-.28.262-.222.21c-.166.129-.15.31.203-.229.21-.319.376-.664.564-.996-1.623 4.585-8.108 2.29-6.485-2.295.32-.578.515-1.082 1.008-1.495l.223-.21.28-.262.351-.33.44-.413.553-.52.69-.647q.423-.401.85-.803l1.006-.944q.557-.517 1.109-1.04c.364-.35.728-.7 1.078-1.063a44 44 0 0 0 2.238-2.541c.362-.456.715-.921 1.047-1.4q.526-.766 1.035-1.544.513-.79 1.015-1.587.518-.822 1.028-1.648.511-.824 1.015-1.65c.31-.506.623-1.01.917-1.527.254-.457.493-.923.705-1.4q.361-.825.688-1.666a35 35 0 0 0 1.126-3.372q.237-.879.424-1.77c.124-.582.244-1.164.349-1.75q.15-.854.252-1.715a68 68 0 0 0 .347-3.862c.033-.612.06-1.225.052-1.838a37 37 0 0 0-.06-1.913 172 172 0 0 0-.144-2.112 100 100 0 0 0-.179-2.155 73 73 0 0 0-.216-1.988 60 60 0 0 0-.254-1.827q-.133-.825-.303-1.642a50 50 0 0 0-.791-3.23 41 41 0 0 0-.492-1.599 22 22 0 0 0-.539-1.467 29 29 0 0 0-.659-1.47 19 19 0 0 0-.75-1.385 35 35 0 0 0-.873-1.405q-.49-.734-1-1.452c-.362-.512-.72-1.026-1.082-1.538a42 42 0 0 0-1.116-1.485 53 53 0 0 0-1.234-1.502 28 28 0 0 0-1.284-1.425q-.651-.659-1.343-1.273a31 31 0 0 0-1.33-1.148 66 66 0 0 0-1.31-1.037 36 36 0 0 0-1.254-.907q-.629-.437-1.265-.86a15 15 0 0 0-.956-.593 8 8 0 0 0-.764-.373 20 20 0 0 0-.811-.329 12 12 0 0 0-.61-.218c-.26-.082.196.036.27.014-4.857-.26-4.49-7.13.367-6.87" transform="translate(0 -197)"/></svg>
