<?xml version="1.0" encoding="UTF-8" standalone="no"?>
<!-- Created with Inkscape (http://www.inkscape.org/) -->

<svg
   xmlns:dc="http://purl.org/dc/elements/1.1/"
   xmlns:cc="http://creativecommons.org/ns#"
   xmlns:rdf="http://www.w3.org/1999/02/22-rdf-syntax-ns#"
   xmlns:svg="http://www.w3.org/2000/svg"
   xmlns="http://www.w3.org/2000/svg"
   xmlns:sodipodi="http://sodipodi.sourceforge.net/DTD/sodipodi-0.dtd"
   xmlns:inkscape="http://www.inkscape.org/namespaces/inkscape"
   width="10cm"
   height="10cm"
   viewBox="0 0 100 99.999997"
   version="1.1"
   id="svg8"
   sodipodi:docname="la.svg"
   inkscape:version="0.92.3 (2405546, 2018-03-11)">
  <defs
     id="defs2" />
  <sodipodi:namedview
     id="base"
     pagecolor="#ffffff"
     bordercolor="#666666"
     borderopacity="1.0"
     inkscape:pageopacity="0.0"
     inkscape:pageshadow="2"
     inkscape:zoom="1"
     inkscape:cx="125.50186"
     inkscape:cy="200.50542"
     inkscape:document-units="cm"
     inkscape:current-layer="layer1"
     showgrid="true"
     units="cm"
     inkscape:window-width="1920"
     inkscape:window-height="1017"
     inkscape:window-x="-8"
     inkscape:window-y="-8"
     inkscape:window-maximized="1"
     inkscape:snap-nodes="false">
    <inkscape:grid
       type="xygrid"
       id="grid815"
       units="cm"
       spacingx="9.9999998"
       spacingy="9.9999998" />
  </sodipodi:namedview>
  <metadata
     id="metadata5">
    <rdf:RDF>
      <cc:Work
         rdf:about="">
        <dc:format>image/svg+xml</dc:format>
        <dc:type
           rdf:resource="http://purl.org/dc/dcmitype/StillImage" />
        <dc:title></dc:title>
      </cc:Work>
    </rdf:RDF>
  </metadata>
  <g
     inkscape:label="Layer 1"
     inkscape:groupmode="layer"
     id="layer1"
     transform="translate(0,-197.00002)">
    <path
       style="opacity:1;fill:#020900;fill-opacity:1;stroke:none;stroke-width:1;stroke-linecap:butt;stroke-linejoin:round;stroke-miterlimit:4;stroke-dasharray:none;stroke-opacity:1"
       id="path1145"
       d="m 33.871056,205.86016 c 0.482256,0.0228 0.948856,0.14603 1.407493,0.28785 0.33872,0.10645 0.672208,0.22838 1.004176,0.35405 0.358592,0.13509 0.712716,0.28138 1.065292,0.43134 0.453117,0.18976 0.891955,0.41038 1.324903,0.64186 0.5036,0.27238 0.985983,0.58135 1.465093,0.89413 0.472599,0.31227 0.939083,0.63366 1.405494,0.95506 0.5027,0.3448 0.994256,0.70538 1.481751,1.07124 0.507079,0.38689 1.005316,0.78525 1.501476,1.186 0.551815,0.44324 1.081783,0.91248 1.607894,1.38564 0.561446,0.49813 1.104466,1.01593 1.632783,1.54891 0.564571,0.57304 1.09546,1.1775 1.618637,1.78812 0.478094,0.55991 0.944673,1.12937 1.401923,1.70638 0.448429,0.56704 0.880409,1.1467 1.303325,1.73291 0.376094,0.52895 0.74622,1.0621 1.120632,1.59223 0.376108,0.52909 0.744207,1.06376 1.104521,1.60371 0.369848,0.55707 0.71809,1.128 1.060273,1.70233 0.360598,0.5995 0.688745,1.21725 1.000599,1.8432 0.300569,0.61314 0.575908,1.23814 0.840547,1.86748 0.266903,0.63434 0.495831,1.28346 0.715613,1.93531 0.208404,0.62359 0.398603,1.25297 0.581321,1.88449 0.175533,0.61359 0.333499,1.23198 0.487947,1.85115 0.155181,0.62123 0.294474,1.24622 0.426424,1.87274 0.135729,0.64614 0.252587,1.29591 0.359368,1.94739 0.109759,0.68889 0.202311,1.38037 0.290107,2.07236 0.09123,0.72705 0.166984,1.4559 0.238231,2.18513 0.07439,0.76916 0.134715,1.53957 0.192313,2.31014 0.05381,0.7358 0.105399,1.47178 0.150124,2.2082 0.04605,0.75475 0.06496,1.51068 0.07214,2.26668 0.0093,0.75625 -0.02082,1.51192 -0.06084,2.2669 -0.04059,0.73149 -0.100389,1.46167 -0.165217,2.19135 -0.06296,0.70464 -0.13685,1.40821 -0.219607,2.11079 -0.08245,0.69699 -0.186375,1.39109 -0.305514,2.08267 -0.119303,0.67262 -0.257347,1.3417 -0.399614,2.00977 -0.147462,0.70863 -0.319095,1.4117 -0.505354,2.11102 -0.188806,0.69571 -0.406058,1.38321 -0.630782,2.06801 -0.221576,0.66978 -0.465373,1.33187 -0.717503,1.99066 -0.255611,0.65833 -0.525578,1.31096 -0.807947,1.95823 -0.297191,0.67522 -0.634196,1.33148 -0.990259,1.97722 -0.340579,0.60472 -0.705569,1.19518 -1.067787,1.78704 -0.342431,0.56153 -0.687713,1.12131 -1.033941,1.6805 -0.351298,0.56679 -0.703368,1.13311 -1.059156,1.6971 -0.352539,0.55885 -0.707324,1.11626 -1.067753,1.67006 -0.372697,0.56919 -0.751051,1.13463 -1.137115,1.69483 -0.418042,0.60509 -0.862127,1.19131 -1.318334,1.76794 -0.436113,0.54438 -0.891194,1.07311 -1.349965,1.5984 -0.423641,0.48466 -0.861127,0.95693 -1.305545,1.42253 -0.419957,0.43747 -0.856286,0.85879 -1.294085,1.27827 -0.38608,0.36935 -0.778327,0.73217 -1.168585,1.09709 -0.331999,0.3104 -0.663175,0.62168 -0.994381,0.93293 -0.282217,0.26531 -0.562954,0.5322 -0.844968,0.79773 -0.231764,0.21802 -0.463716,0.43583 -0.695647,0.65366 -0.18423,0.17303 -0.368464,0.34606 -0.552699,0.51908 -0.146823,0.13789 -0.293645,0.27578 -0.440468,0.41367 -0.11702,0.10991 -0.23404,0.21981 -0.35106,0.32971 -0.09327,0.0876 -0.186536,0.17519 -0.279804,0.26278 -0.07434,0.0698 -0.148675,0.13963 -0.223012,0.20944 -0.16586,0.12938 -0.148874,0.3106 0.203647,-0.22817 0.208997,-0.31941 0.375809,-0.66452 0.563713,-0.99678 -1.622872,4.5856 -8.107894,2.29052 -6.485022,-2.29509 v 0 c 0.320892,-0.5771 0.515345,-1.08139 1.008279,-1.4944 0.07434,-0.0698 0.148675,-0.13963 0.223012,-0.20944 0.09327,-0.0876 0.186534,-0.17519 0.279803,-0.26278 0.117022,-0.1099 0.234042,-0.21981 0.351062,-0.32971 0.146823,-0.13789 0.293642,-0.27578 0.440465,-0.41367 0.184182,-0.17297 0.368366,-0.34595 0.552545,-0.51894 0.22987,-0.21589 0.459761,-0.43177 0.689467,-0.64784 0.283626,-0.26704 0.565918,-0.53549 0.849789,-0.80227 0.335389,-0.31517 0.67074,-0.63038 1.00693,-0.9447 0.370128,-0.34607 0.742164,-0.69013 1.108501,-1.04023 0.364501,-0.34899 0.728263,-0.69906 1.078534,-1.06244 0.374291,-0.39131 0.742135,-0.78884 1.098847,-1.1963 0.386508,-0.4423 0.770406,-0.88708 1.138822,-1.34467 0.3625,-0.45663 0.714629,-0.92144 1.046755,-1.40077 0.351735,-0.50982 0.695669,-1.02492 1.035296,-1.54287 0.3428,-0.52646 0.679802,-1.05663 1.01509,-1.5879 0.345509,-0.54749 0.687102,-1.09743 1.02824,-1.64764 0.339957,-0.54905 0.678976,-1.09867 1.015185,-1.65002 0.309784,-0.50619 0.622461,-1.01083 0.916149,-1.52662 0.25428,-0.45721 0.493056,-0.92291 0.705765,-1.40108 0.240885,-0.55018 0.469442,-1.10569 0.687861,-1.66519 0.212844,-0.55472 0.418365,-1.11236 0.605716,-1.67628 0.184721,-0.56163 0.36376,-1.12533 0.520004,-1.69565 0.156999,-0.58618 0.300027,-1.17592 0.423585,-1.77014 0.124055,-0.58175 0.244679,-1.16434 0.349448,-1.74992 0.09929,-0.56937 0.183319,-1.14125 0.252042,-1.71514 0.07535,-0.63696 0.14191,-1.2749 0.199221,-1.91374 0.05772,-0.64863 0.111416,-1.29767 0.147918,-1.9479 0.03276,-0.61218 0.05922,-1.22487 0.0514,-1.83814 -0.0056,-0.63824 -0.02122,-1.27641 -0.05984,-1.91361 -0.04255,-0.70425 -0.09236,-1.40803 -0.143597,-2.1117 -0.05366,-0.7186 -0.109678,-1.43707 -0.178893,-2.15437 -0.0647,-0.66359 -0.133413,-1.32685 -0.216175,-1.98847 -0.07724,-0.61015 -0.158565,-1.21986 -0.254569,-1.82738 -0.0895,-0.54917 -0.188121,-1.09679 -0.302212,-1.64144 -0.114131,-0.54351 -0.234945,-1.08561 -0.369396,-1.62449 -0.133757,-0.53682 -0.270205,-1.07306 -0.421761,-1.60518 -0.154731,-0.53601 -0.315881,-1.07017 -0.492215,-1.59953 -0.166032,-0.49398 -0.337241,-0.98658 -0.53889,-1.46741 -0.207511,-0.49525 -0.42376,-0.98695 -0.658585,-1.46995 -0.232834,-0.47065 -0.479685,-0.9342 -0.750465,-1.3843 -0.28194,-0.47385 -0.568452,-0.94517 -0.87282,-1.40505 -0.32594,-0.48915 -0.659935,-0.97284 -1.000392,-1.45201 -0.361572,-0.512 -0.719389,-1.02664 -1.081921,-1.53797 -0.361855,-0.50248 -0.73206,-0.99891 -1.115883,-1.48489 -0.402191,-0.50831 -0.813406,-1.0093 -1.234017,-1.50251 -0.415808,-0.48585 -0.836126,-0.96825 -1.284237,-1.42487 -0.433258,-0.43926 -0.881613,-0.86285 -1.343007,-1.27254 -0.435535,-0.39197 -0.873273,-0.78187 -1.330277,-1.1489 -0.432784,-0.34979 -0.867505,-0.69733 -1.309026,-1.03607 -0.412615,-0.31008 -0.828696,-0.61566 -1.254397,-0.90763 -0.419939,-0.28941 -0.839886,-0.5789 -1.264957,-0.86075 -0.313489,-0.20507 -0.627558,-0.41026 -0.955559,-0.59166 -0.249642,-0.1349 -0.502491,-0.26391 -0.764688,-0.37301 -0.268468,-0.11427 -0.537819,-0.22644 -0.811004,-0.32908 -0.20202,-0.0768 -0.404598,-0.15223 -0.610441,-0.21824 -0.258556,-0.0818 0.196736,0.0362 0.270931,0.0134 -4.857388,-0.25935 -4.490617,-7.12873 0.366768,-6.86939 z"
       inkscape:connector-curvature="0" />
  </g>
</svg>
