<svg viewBox="0 0 100 100"><path style="opacity:1;fill:#020900;fill-opacity:1;stroke:none;stroke-width:1;stroke-linecap:butt;stroke-linejoin:round;stroke-miterlimit:4;stroke-dasharray:none;stroke-opacity:1" d="M10.582 244.14c.26-.109.53-.194.8-.274.255-.073.513-.133.771-.19q.396-.083.797-.144.418-.063.838-.107.415-.044.83-.078.307-.03.61-.074l.817-.123c.26-.037.516-.084.774-.127l.867-.139q.497-.083.997-.154a46 46 0 0 1 2.267-.265q.667-.059 1.336-.103.715-.045 1.43-.08.745-.034 1.49-.063l1.51-.062a220 220 0 0 1 3.137-.1 279 279 0 0 1 3.539-.063q.939-.01 1.878-.016a826 826 0 0 1 3.661-.023 73 73 0 0 1 1.807.009c.591.013 1.182.044 1.773.072q.832.037 1.663.079l1.663.083q.816.037 1.633.068l1.604.059a298 298 0 0 0 5.4.143c.352.004.705.005 1.057-.005q.531-.017 1.062-.039.492-.024.983-.052a204 204 0 0 1 2.445-.117l.61-.024.49-.02.394-.015.313-.012.25-.01.2-.008.158-.006.127-.005c.141-.003.37-.03-.269.029-.347.11-.718.162-1.04.329a3.37 3.37 0 0 0-1.698 2.02c-.018.037-.044.217-.027.074q.021-.19.033-.38.023-.404.056-.804c.038-.469.121-.93.223-1.39a20.5 20.5 0 0 1 .866-2.738c.203-.515.436-1.016.685-1.51.274-.532.582-1.047.9-1.554.367-.582.787-1.128 1.22-1.66.445-.543.93-1.05 1.426-1.545.508-.509 1.051-.98 1.609-1.433a22 22 0 0 1 1.738-1.247 19 19 0 0 1 1.743-1.006c.58-.299 1.188-.54 1.805-.753a9.7 9.7 0 0 1 2.045-.444c.812-.087 1.62.01 2.413.175.622.142 1.222.358 1.814.591.653.254 1.261.6 1.85.977.628.409 1.197.897 1.745 1.406.538.501 1.027 1.05 1.508 1.605a24 24 0 0 1 1.278 1.64c.447.61.82 1.266 1.153 1.943.354.731.585 1.51.783 2.296.182.747.295 1.507.384 2.27.091.782.117 1.569.12 2.355-.002.782-.04 1.562-.1 2.342-.062.793-.177 1.58-.313 2.363a23 23 0 0 1-.534 2.257c-.206.734-.47 1.449-.77 2.148-.342.793-.813 1.513-1.337 2.195-.563.72-1.257 1.31-1.999 1.837-.77.536-1.635.89-2.527 1.166-.844.25-1.718.334-2.593.37-.773.025-1.544-.036-2.31-.12a26 26 0 0 1-2.041-.326 19 19 0 0 1-2.016-.51 22 22 0 0 1-1.84-.693 16 16 0 0 1-1.766-.875 17 17 0 0 1-1.572-1.057 14 14 0 0 1-1.37-1.155 26 26 0 0 1-1.035-1.079 31 31 0 0 1-.815-.92q-.4-.47-.762-.967a8 8 0 0 1-.727-1.253q-.164-.342-.32-.689l-.23-.504-.18-.399a4 4 0 0 0-.088-.189c.009.023.029.055.044.08.033.058.135.174.19.239-3.273-3.599 1.816-8.227 5.089-4.628.162.186.319.377.453.585.131.2.255.405.362.62q.113.224.215.452l.18.398.224.494q.124.273.253.543c.034.071.063.145.104.212.134.188.28.366.428.542q.316.372.646.73c.231.252.463.503.705.745q.341.33.722.61c.29.216.583.43.894.615q.49.287 1.013.504c.403.17.81.334 1.225.47q.635.201 1.29.327c.49.096.983.183 1.48.24.433.05.867.092 1.303.083.293-.008.588-.019.875-.086.197-.05.39-.113.565-.22.188-.12.364-.256.51-.427.179-.216.334-.448.45-.704a10 10 0 0 0 .462-1.289c.147-.512.279-1.03.373-1.555.1-.567.185-1.137.231-1.712q.072-.894.08-1.79c0-.53-.015-1.058-.074-1.584a12 12 0 0 0-.229-1.407c-.078-.32-.157-.643-.294-.945a5.6 5.6 0 0 0-.545-.925c-.286-.398-.58-.79-.9-1.163-.32-.37-.641-.74-.997-1.075a6.5 6.5 0 0 0-.8-.667 3.3 3.3 0 0 0-.635-.35 8 8 0 0 0-.75-.267c-.07-.02-.142-.043-.215-.054-.191 0-.378.066-.56.116q-.456.15-.885.363-.575.29-1.115.641a13.7 13.7 0 0 0-2.255 1.794c-.332.33-.657.667-.955 1.028-.258.314-.51.633-.728.977-.206.325-.406.656-.585.998q-.234.456-.425.933a10 10 0 0 0-.31.87 16 16 0 0 0-.239.842 3 3 0 0 0-.08.475c-.021.231-.031.464-.048.695-.018.251-.038.502-.07.752-.036.287-.08.573-.154.853-.292 1-.875 1.825-1.829 2.324-.332.174-.713.23-1.07.344-.158.015-.313.036-.47.04l-.127.005-.159.006-.199.008-.25.01-.313.012-.393.015-.487.02-.6.023-.678.03a255 255 0 0 0-1.673.084q-.528.03-1.055.055-.59.024-1.18.043-.672.016-1.343.007-.638-.01-1.276-.025a342 342 0 0 1-4.269-.122l-1.621-.06q-.848-.031-1.695-.07l-1.674-.084q-.825-.041-1.651-.078c-.526-.025-1.052-.053-1.578-.066a66 66 0 0 0-1.642-.008l-1.792.01-1.852.013-1.85.016a312 312 0 0 0-3.452.061 183 183 0 0 0-3.028.097l-1.515.063q-.713.026-1.424.06-.655.03-1.31.073-.58.037-1.157.088a40 40 0 0 0-1.937.226q-.43.061-.858.133-.42.069-.838.134c-.302.05-.603.105-.906.148-.284.042-.568.088-.852.128-.33.047-.662.09-.995.118q-.33.027-.661.061c-.175.02-.349.039-.522.065a8 8 0 0 0-.404.072 8 8 0 0 0-.305.07 1 1 0 0 1-.088.024c-4.492 1.866-7.131-4.487-2.64-6.353z" transform="translate(0 -197)"/></svg>
