<?xml version="1.0" encoding="UTF-8" standalone="no"?>
<!-- Created with Inkscape (http://www.inkscape.org/) -->

<svg
   xmlns:dc="http://purl.org/dc/elements/1.1/"
   xmlns:cc="http://creativecommons.org/ns#"
   xmlns:rdf="http://www.w3.org/1999/02/22-rdf-syntax-ns#"
   xmlns:svg="http://www.w3.org/2000/svg"
   xmlns="http://www.w3.org/2000/svg"
   xmlns:sodipodi="http://sodipodi.sourceforge.net/DTD/sodipodi-0.dtd"
   xmlns:inkscape="http://www.inkscape.org/namespaces/inkscape"
   width="10cm"
   height="10cm"
   viewBox="0 0 100 99.999997"
   version="1.1"
   id="svg8"
   sodipodi:docname="lape.svg"
   inkscape:version="0.92.3 (2405546, 2018-03-11)">
  <defs
     id="defs2" />
  <sodipodi:namedview
     id="base"
     pagecolor="#ffffff"
     bordercolor="#666666"
     borderopacity="1.0"
     inkscape:pageopacity="0.0"
     inkscape:pageshadow="2"
     inkscape:zoom="1"
     inkscape:cx="125.50186"
     inkscape:cy="200.50542"
     inkscape:document-units="cm"
     inkscape:current-layer="layer1"
     showgrid="true"
     units="cm"
     inkscape:window-width="1920"
     inkscape:window-height="1017"
     inkscape:window-x="-8"
     inkscape:window-y="-8"
     inkscape:window-maximized="1"
     inkscape:snap-nodes="false">
    <inkscape:grid
       type="xygrid"
       id="grid815"
       units="cm"
       spacingx="9.9999998"
       spacingy="9.9999998" />
  </sodipodi:namedview>
  <metadata
     id="metadata5">
    <rdf:RDF>
      <cc:Work
         rdf:about="">
        <dc:format>image/svg+xml</dc:format>
        <dc:type
           rdf:resource="http://purl.org/dc/dcmitype/StillImage" />
        <dc:title></dc:title>
      </cc:Work>
    </rdf:RDF>
  </metadata>
  <g
     inkscape:label="Layer 1"
     inkscape:groupmode="layer"
     id="layer1"
     transform="translate(0,-197.00002)">
    <path
       style="opacity:1;fill:#020900;fill-opacity:1;stroke:none;stroke-width:1;stroke-linecap:butt;stroke-linejoin:round;stroke-miterlimit:4;stroke-dasharray:none;stroke-opacity:1"
       id="path1147"
       d="m 10.581723,244.14032 c 0.260505,-0.10913 0.529908,-0.19442 0.800566,-0.27416 0.254331,-0.0731 0.51223,-0.13289 0.770674,-0.18941 0.264203,-0.057 0.53062,-0.1027 0.797526,-0.14489 0.278113,-0.0432 0.557614,-0.0765 0.837321,-0.10734 0.276565,-0.0303 0.553779,-0.0541 0.830986,-0.0776 0.203929,-0.0187 0.407128,-0.0447 0.609787,-0.0739 0.272404,-0.0393 0.544154,-0.0829 0.816434,-0.12313 0.259048,-0.0367 0.516438,-0.0839 0.774452,-0.12711 0.288822,-0.0461 0.577713,-0.0916 0.866388,-0.13859 0.331598,-0.0559 0.664016,-0.10654 0.996916,-0.15395 0.355368,-0.0506 0.71131,-0.097 1.06776,-0.13934 0.399203,-0.0474 0.799133,-0.0882 1.199399,-0.12548 0.444949,-0.0409 0.890613,-0.0732 1.336424,-0.10303 0.476323,-0.0314 0.953016,-0.0565 1.429784,-0.08 0.496538,-0.0243 0.993306,-0.0433 1.490041,-0.063 0.503544,-0.02 1.00698,-0.0425 1.510515,-0.0627 0.513998,-0.0205 1.028094,-0.0386 1.542224,-0.0555 0.53131,-0.0174 1.062721,-0.0314 1.594152,-0.0444 0.570712,-0.0138 1.141481,-0.0249 1.712264,-0.0352 0.608814,-0.0107 1.21765,-0.0202 1.826514,-0.0274 0.626161,-0.007 1.252337,-0.0117 1.878513,-0.0166 0.620768,-0.005 1.241541,-0.009 1.862315,-0.0126 0.599551,-0.004 1.199104,-0.007 1.798658,-0.01 0.602337,-0.004 1.204619,-0.002 1.806866,0.009 0.591236,0.0129 1.181833,0.044 1.772492,0.0719 0.554606,0.0246 1.109088,0.0518 1.663573,0.0789 0.55413,0.028 1.108231,0.0566 1.662456,0.0828 0.54446,0.0256 1.089078,0.0475 1.633731,0.0684 0.534672,0.0195 1.069329,0.0394 1.604012,0.0586 0.498065,0.0179 0.996188,0.0339 1.494335,0.0493 0.46404,0.0142 0.928116,0.027 1.392206,0.0394 0.4303,0.0114 0.860629,0.0217 1.290971,0.0314 0.407363,0.009 0.814744,0.0174 1.222168,0.0234 0.352214,0.004 0.704398,0.005 1.056505,-0.005 0.354106,-0.0125 0.708322,-0.0228 1.062297,-0.0387 0.327658,-0.0151 0.655122,-0.034 0.982636,-0.0519 0.30816,-0.0168 0.61636,-0.0328 0.924595,-0.0482 0.26848,-0.0133 0.53699,-0.026 0.805513,-0.0384 0.238257,-0.0111 0.476554,-0.0212 0.71487,-0.031 0.203255,-0.008 0.406521,-0.0162 0.609785,-0.0242 0.163753,-0.007 0.327512,-0.0129 0.49127,-0.0192 0.131128,-0.005 0.262253,-0.0102 0.39338,-0.0153 0.104495,-0.004 0.208987,-0.008 0.313481,-0.0122 0.08328,-0.003 0.166566,-0.006 0.249849,-0.01 0.06638,-0.003 0.132757,-0.005 0.199136,-0.008 0.05291,-0.002 0.105812,-0.004 0.158715,-0.006 0.04217,-0.002 0.08433,-0.003 0.1265,-0.005 0.14173,-0.003 0.369986,-0.0291 -0.268586,0.0288 -0.347001,0.10965 -0.717632,0.16202 -1.041001,0.32895 -0.829699,0.4283 -1.426733,1.14288 -1.697251,2.02111 -0.01786,0.0361 -0.04391,0.21601 -0.02704,0.0734 0.01479,-0.12664 0.02379,-0.25385 0.03276,-0.381 0.01598,-0.26807 0.0333,-0.53598 0.0561,-0.80357 0.0379,-0.46842 0.121554,-0.9306 0.222877,-1.38892 0.103513,-0.44777 0.233307,-0.88879 0.366596,-1.32841 0.143044,-0.4783 0.316044,-0.9465 0.499679,-1.41045 0.203038,-0.51442 0.435692,-1.01587 0.68485,-1.50934 0.274015,-0.53305 0.582326,-1.04727 0.901252,-1.55437 0.366004,-0.58254 0.785678,-1.12773 1.219939,-1.66031 0.444452,-0.54258 0.928756,-1.04991 1.424691,-1.54514 0.508688,-0.50834 1.051536,-0.97979 1.609418,-1.43289 0.555569,-0.44837 1.141582,-0.85627 1.738352,-1.24731 0.561801,-0.36768 1.145805,-0.69844 1.742408,-1.00572 0.581195,-0.29835 1.187892,-0.54002 1.804885,-0.75253 0.662937,-0.23006 1.350507,-0.36179 2.045538,-0.44395 0.811679,-0.0874 1.618983,0.009 2.413254,0.1744 0.62139,0.14233 1.221682,0.35866 1.813931,0.59145 0.652899,0.25341 1.261123,0.59927 1.849032,0.97638 0.628293,0.40917 1.197515,0.89726 1.746036,1.40605 0.537128,0.50181 1.027073,1.05008 1.507726,1.60523 0.45326,0.52502 0.871669,1.07835 1.277601,1.64032 0.447029,0.60951 0.819703,1.266 1.153028,1.94298 0.35466,0.7312 0.585726,1.51027 0.782751,2.29591 0.182888,0.74661 0.295074,1.50732 0.384686,2.26992 0.09092,0.78197 0.11658,1.56879 0.119792,2.35533 -0.0019,0.78154 -0.04091,1.56215 -0.100417,2.34121 -0.0617,0.79316 -0.176763,1.58037 -0.312669,2.36377 -0.134363,0.76215 -0.32308,1.51271 -0.53395,2.2568 -0.205989,0.7338 -0.469225,1.44852 -0.769766,2.1483 -0.342286,0.79218 -0.813527,1.51279 -1.337323,2.19467 -0.562845,0.72029 -1.257199,1.30956 -1.998379,1.83661 -0.770962,0.53598 -1.635959,0.89048 -2.527586,1.16679 -0.843499,0.24869 -1.71822,0.33328 -2.592935,0.36906 -0.772597,0.0256 -1.54346,-0.0355 -2.310723,-0.11909 -0.68477,-0.0777 -1.363935,-0.19492 -2.040202,-0.32612 -0.681831,-0.13028 -1.353071,-0.30549 -2.016201,-0.50945 -0.625126,-0.19893 -1.234954,-0.44147 -1.839889,-0.69424 -0.608298,-0.25096 -1.193639,-0.55105 -1.765718,-0.87509 -0.547944,-0.31555 -1.064122,-0.6814 -1.572376,-1.05641 -0.482966,-0.35312 -0.935011,-0.74472 -1.369968,-1.15479 -0.358301,-0.34657 -0.697344,-0.71227 -1.034608,-1.07913 -0.278151,-0.30105 -0.549045,-0.60863 -0.815195,-0.92031 -0.267239,-0.31177 -0.519477,-0.63572 -0.761579,-0.96724 -0.286298,-0.39112 -0.516003,-0.81806 -0.727482,-1.25291 -0.109615,-0.22814 -0.215406,-0.45808 -0.320368,-0.68839 -0.07651,-0.16818 -0.152818,-0.33646 -0.229145,-0.50473 -0.06023,-0.1328 -0.120465,-0.2656 -0.180695,-0.39839 -0.03246,-0.0728 -0.06328,-0.14081 -0.08819,-0.18917 0.0092,0.0233 0.02933,0.0545 0.04413,0.079 0.03298,0.0586 0.134768,0.17486 0.189933,0.23999 -3.2728,-3.59864 1.816455,-8.22708 5.089253,-4.62843 v 0 c 0.161861,0.18686 0.318735,0.37769 0.453273,0.58557 0.130972,0.20026 0.255077,0.40505 0.362173,0.61926 0.07497,0.14909 0.14683,0.29965 0.214328,0.45229 0.06019,0.1327 0.12038,0.26541 0.180573,0.39812 0.07469,0.16464 0.149349,0.3293 0.224205,0.49386 0.08286,0.18184 0.166164,0.36348 0.252413,0.54374 0.03397,0.0709 0.06323,0.1448 0.104394,0.21142 0.133561,0.18767 0.278826,0.36662 0.427371,0.54258 0.210613,0.24752 0.42601,0.49091 0.646482,0.72971 0.23113,0.2518 0.463008,0.50318 0.705282,0.74436 0.227208,0.21921 0.467357,0.42426 0.721968,0.61124 0.290513,0.21517 0.582798,0.42925 0.893834,0.61424 0.326726,0.18942 0.663956,0.35963 1.013013,0.50439 0.403101,0.16933 0.808834,0.33345 1.224336,0.47026 0.423243,0.13413 0.853842,0.24159 1.289753,0.32639 0.490871,0.0961 0.983729,0.1828 1.480762,0.24085 0.432684,0.0489 0.867114,0.0908 1.303184,0.0821 0.29283,-0.008 0.587759,-0.019 0.874318,-0.0855 0.197181,-0.0496 0.390599,-0.11393 0.565428,-0.22018 0.188018,-0.1201 0.364382,-0.25655 0.509839,-0.42732 0.178692,-0.21558 0.334256,-0.44849 0.45039,-0.70422 0.186838,-0.41698 0.33447,-0.84967 0.461737,-1.28835 0.147143,-0.51265 0.278704,-1.02985 0.373222,-1.5551 0.0999,-0.56743 0.184898,-1.13763 0.230756,-1.71231 0.04709,-0.59579 0.07622,-1.19289 0.07988,-1.79064 -5.29e-4,-0.52871 -0.01439,-1.0577 -0.07421,-1.58354 -0.05336,-0.47229 -0.119005,-0.9438 -0.228505,-1.40682 -0.07765,-0.32086 -0.157425,-0.64337 -0.293762,-0.9454 -0.152035,-0.32503 -0.333097,-0.63449 -0.544936,-0.92461 -0.286152,-0.39804 -0.580556,-0.79048 -0.900035,-1.16265 -0.31976,-0.37006 -0.641586,-0.73943 -0.997599,-1.07558 -0.252626,-0.23816 -0.511093,-0.47144 -0.799396,-0.6664 -0.201297,-0.13518 -0.408572,-0.26171 -0.635436,-0.3501 -0.246155,-0.0988 -0.494766,-0.19227 -0.749501,-0.26681 -0.07122,-0.0207 -0.142227,-0.0431 -0.215162,-0.0548 -0.191686,5.3e-4 -0.37819,0.0659 -0.560726,0.11647 -0.302993,0.1 -0.599139,0.21896 -0.884272,0.36271 -0.382831,0.19405 -0.755039,0.40759 -1.115079,0.64149 -0.402886,0.26217 -0.798711,0.5355 -1.174054,0.83626 -0.37543,0.302 -0.739272,0.61803 -1.080976,0.95811 -0.331862,0.3297 -0.657405,0.66611 -0.955294,1.02728 -0.257829,0.3138 -0.510098,0.63285 -0.727443,0.97662 -0.206782,0.32589 -0.406072,0.65683 -0.585639,0.99864 -0.1563,0.30416 -0.29817,0.61516 -0.424657,0.93298 -0.114226,0.28605 -0.222736,0.57441 -0.31062,0.86985 -0.08489,0.27903 -0.169032,0.5585 -0.238117,0.84196 -0.03721,0.15637 -0.06854,0.31385 -0.08063,0.47451 -0.02125,0.23159 -0.03122,0.46397 -0.04756,0.69592 -0.01807,0.25095 -0.03804,0.50185 -0.06934,0.75156 -0.03682,0.28683 -0.08031,0.57334 -0.15513,0.85313 -0.291955,0.99923 -0.87476,1.82459 -1.828589,2.32406 -0.331994,0.17384 -0.713589,0.22925 -1.070382,0.34388 -0.157451,0.015 -0.312714,0.0361 -0.470233,0.0399 -0.04217,0.002 -0.08434,0.003 -0.126503,0.005 -0.0529,0.002 -0.10581,0.004 -0.158716,0.006 -0.06638,0.003 -0.132757,0.005 -0.199136,0.008 -0.08328,0.003 -0.166565,0.006 -0.249848,0.01 -0.10449,0.004 -0.208982,0.008 -0.313471,0.0122 -0.131008,0.005 -0.262017,0.0102 -0.393025,0.0153 -0.162359,0.006 -0.324715,0.0126 -0.487069,0.0191 -0.199961,0.008 -0.399926,0.0158 -0.599879,0.0238 -0.225949,0.009 -0.451885,0.0188 -0.677778,0.0294 -0.26053,0.0121 -0.521052,0.0244 -0.781542,0.0373 -0.297349,0.0148 -0.594664,0.0303 -0.891937,0.0465 -0.351607,0.0192 -0.703162,0.0394 -1.054931,0.0554 -0.393342,0.0171 -0.78687,0.0298 -1.180361,0.0429 -0.447535,0.0116 -0.895147,0.0128 -1.342801,0.007 -0.425174,-0.006 -0.850307,-0.0148 -1.275416,-0.0244 -0.439912,-0.01 -0.879811,-0.0204 -1.319678,-0.0321 -0.473567,-0.0126 -0.947118,-0.0258 -1.420632,-0.0402 -0.509662,-0.0157 -1.019302,-0.0322 -1.528879,-0.0505 -0.540446,-0.0194 -1.080868,-0.0395 -1.621301,-0.0592 -0.564933,-0.0217 -1.129826,-0.0444 -1.694553,-0.071 -0.558228,-0.0264 -1.116338,-0.0551 -1.674471,-0.0834 -0.550328,-0.027 -1.100651,-0.054 -1.6511,-0.0783 -0.525624,-0.0248 -1.051174,-0.0529 -1.577277,-0.0654 -0.547486,-0.0105 -1.095004,-0.0111 -1.642576,-0.008 -0.59709,0.003 -1.194178,0.006 -1.791266,0.01 -0.61741,0.004 -1.234821,0.008 -1.852226,0.0125 -0.616611,0.005 -1.233225,0.01 -1.849821,0.0163 -0.594558,0.007 -1.18909,0.0164 -1.783601,0.0268 -0.556252,0.01 -1.112491,0.0209 -1.668674,0.0343 -0.512207,0.0125 -1.02439,0.026 -1.536478,0.0428 -0.497321,0.0163 -0.994606,0.0338 -1.4918,0.0536 -0.50487,0.0203 -1.009642,0.0429 -1.514524,0.0629 -0.474928,0.0188 -0.94989,0.0369 -1.424632,0.0601 -0.43656,0.0214 -0.873055,0.0444 -1.309213,0.073 -0.38619,0.0257 -0.772263,0.0535 -1.157718,0.0888 -0.343083,0.0318 -0.685861,0.0667 -1.028023,0.10738 -0.303276,0.0357 -0.606019,0.0757 -0.908362,0.11859 -0.286791,0.0406 -0.573061,0.0847 -0.858692,0.13288 -0.279232,0.0455 -0.55864,0.0897 -0.838077,0.13392 -0.301665,0.0504 -0.602626,0.10523 -0.905552,0.14772 -0.284168,0.0418 -0.567682,0.0879 -0.852062,0.12829 -0.330773,0.0466 -0.662232,0.0889 -0.995093,0.11762 -0.220596,0.0187 -0.441241,0.0371 -0.66135,0.0611 -0.174251,0.0191 -0.348441,0.039 -0.521787,0.0653 -0.135085,0.0209 -0.269981,0.0434 -0.403839,0.0713 -0.102094,0.0219 -0.203931,0.0451 -0.305077,0.071 -0.04063,0.0114 -0.102393,0.0296 -0.08812,0.0231 -4.4921434,1.86604 -7.1311269,-4.48681 -2.638984,-6.35285 z"
       inkscape:connector-curvature="0" />
  </g>
</svg>
