<svg viewBox="0 0 100 100"><path style="opacity:1;fill:#020900;fill-opacity:1;stroke:none;stroke-width:1;stroke-linecap:butt;stroke-linejoin:round;stroke-miterlimit:4;stroke-dasharray:none;stroke-opacity:1" d="M27.919 280.832c-.054.003-.355.212-.245.116.265-.236.522-.48.784-.72.397-.354.791-.711 1.173-1.082.456-.45.9-.912 1.349-1.37q.727-.736 1.453-1.475.74-.75 1.468-1.512c.503-.524 1.008-1.046 1.504-1.578.523-.565 1.032-1.143 1.543-1.72a94 94 0 0 1 1.673-1.85q.758-.808 1.5-1.63.67-.742 1.321-1.498.577-.669 1.117-1.368c.345-.449.668-.913.99-1.378.31-.443.607-.893.907-1.342q.388-.58.778-1.159.361-.53.746-1.041.366-.485.777-.931c.378-.425.831-.761 1.313-1.058.792-.47 1.675-.605 2.581-.572.63.046 1.227.24 1.806.48.45.193.877.438 1.291.7a10 10 0 0 1 1.295 1.018c.43.387.823.811 1.203 1.247q.529.625 1.044 1.26.57.698 1.123 1.407c.396.514.783 1.035 1.176 1.55q.602.789 1.207 1.575.616.794 1.243 1.58.616.771 1.25 1.53.608.735 1.235 1.456.648.752 1.287 1.513.6.717 1.21 1.424.573.672 1.154 1.339.497.573 1.007 1.136.472.525.951 1.043.372.406.764.791.351.341.707.678l.59.562c.274.244.525.507.764.783 1.041 1.353 1.1 3.09.112 4.513-.189.272-.47.467-.704.701-.636.483-1.374.693-2.146.816-.405.06-.814.098-1.222.132q-.608.05-1.213.109-.724.075-1.448.14-.735.058-1.471.126-.763.074-1.528.138-.783.063-1.568.114c-.48.03-.96.074-1.439.116a82 82 0 0 1-1.582.124q-.825.052-1.648.116-.885.069-1.772.128-.878.059-1.755.106c-.58.031-1.16.061-1.742.08-.645.025-1.29 0-1.935-.039a55 55 0 0 1-1.678-.143c-.532-.051-1.064-.114-1.595-.176a79 79 0 0 0-2.93-.275 21 21 0 0 0-1.239-.052 22 22 0 0 0-1.207.023l-1.299.055q-.579.024-1.158.063-.56.036-1.123.076c-.311.02-.622.054-.932.091l-.996.128c-.257.03-.512.073-.767.12q-.404.076-.804.158l-.77.158-.64.13-.532.105-.4.079.066-.014c-4.733 1.124-6.321-5.57-1.589-6.693l.166-.037.43-.085q.25-.048.498-.099l.626-.127.781-.16q.469-.096.939-.184c.373-.068.748-.13 1.124-.175l1.047-.134c.423-.05.846-.095 1.27-.123l1.162-.08q.651-.042 1.302-.07l1.333-.056a29 29 0 0 1 1.578-.027q.823.012 1.644.07a86 86 0 0 1 3.207.301c.493.057.986.116 1.48.164q.714.072 1.43.123c.426.027.854.046 1.282.03.531-.017 1.061-.046 1.592-.074a142 142 0 0 0 3.383-.225q.846-.066 1.694-.119.73-.049 1.458-.114c.524-.046 1.048-.093 1.574-.126.488-.033.977-.066 1.465-.107q.73-.06 1.457-.132a118 118 0 0 1 1.506-.129q.69-.06 1.38-.133.657-.065 1.315-.119c.247-.02.495-.041.741-.074.018-.002.07-.011.054-.005-.38.122-.732.273-1.047.532-.203.21-.448.387-.61.63-.824 1.237-.865 2.79.067 3.965.351.38-.042-.044-.159-.133l-.618-.588q-.4-.38-.795-.765-.503-.494-.98-1.013a108 108 0 0 1-2.098-2.336 229 229 0 0 1-2.432-2.842q-.61-.73-1.232-1.448a95 95 0 0 1-1.32-1.557c-.451-.543-.9-1.088-1.339-1.64q-.661-.827-1.31-1.664-.617-.803-1.232-1.608c-.377-.494-.748-.992-1.126-1.485q-.51-.654-1.034-1.295-.447-.55-.902-1.092a8 8 0 0 0-.622-.656c-.126-.115-.252-.231-.392-.33a3 3 0 0 0-.27-.161c.079.004.278.057.384.048.483 0 .962-.085 1.378-.345.095-.063.368-.271.27-.211-.117.12-.219.256-.322.388q-.288.383-.558.777c-.253.372-.5.747-.752 1.12-.321.48-.64.962-.97 1.436a41 41 0 0 1-1.204 1.668q-.65.841-1.343 1.646-.702.814-1.421 1.61-.775.86-1.566 1.704a87 87 0 0 0-1.566 1.73c-.55.623-1.1 1.246-1.666 1.856-.515.552-1.04 1.097-1.563 1.641q-.758.79-1.526 1.571-.726.74-1.454 1.477c-.491.5-.977 1.006-1.477 1.497q-.646.622-1.317 1.217c-.334.305-.66.62-1.005.913-.416.345-.853.668-1.351.886-4.436 1.996-7.259-4.277-2.823-6.273z" transform="translate(0 -197)"/><path style="opacity:1;fill:#020900;fill-opacity:1;stroke:none;stroke-width:1;stroke-linecap:butt;stroke-linejoin:round;stroke-miterlimit:4;stroke-dasharray:none;stroke-opacity:1" d="M46.042 257.05q.018-.23.026-.46.019-.473.03-.947a167 167 0 0 0 .054-3.742q0-.752.026-1.504c.023-.524.062-1.047.1-1.57q.051-.705.098-1.409a115 115 0 0 0 .144-2.771q.029-.696.045-1.392.014-.716.022-1.43a477 477 0 0 0 .029-3.096q.005-.69-.001-1.38l-.015-1.27c-.003-.394-.016-.788-.028-1.181a236 236 0 0 1-.064-2.586l-.023-1.22q-.007-.59-.007-1.179l-.003-1.07q-.002-.555-.011-1.106-.009-.562-.027-1.125-.016-.582-.028-1.166a23 23 0 0 1 .024-1.34c.017-.395.043-.79.066-1.186a141 141 0 0 0 .101-1.94q.018-.494.056-.984c.043-.58.176-1.143.348-1.696.219-.674.573-1.288.964-1.875.4-.59.885-1.11 1.394-1.604a17 17 0 0 1 1.545-1.275 20 20 0 0 1 1.633-1.068c.579-.34 1.185-.63 1.797-.904a23 23 0 0 1 1.908-.731c.726-.253 1.47-.439 2.223-.59a14.6 14.6 0 0 1 2.38-.252c.859-.02 1.706.12 2.541.306a23 23 0 0 1 1.839.535q.83.261 1.633.596c.636.267 1.227.623 1.796 1.009.535.366 1.013.802 1.47 1.259.496.483.9 1.042 1.255 1.633.376.65.601 1.364.769 2.092.137.626.175 1.266.175 1.904.006.668-.104 1.323-.269 1.967-.17.625-.437 1.216-.733 1.79a10.6 10.6 0 0 1-1.003 1.55c-.395.513-.854.968-1.337 1.396-.434.375-.905.703-1.383 1.018-.367.24-.743.463-1.121.683-.384.227-.783.426-1.189.61a9 9 0 0 1-1.345.473c-.562.15-1.142.193-1.721.196-.587-.003-1.165-.103-1.735-.234-.552-.134-1.085-.333-1.612-.542-.495-.198-.98-.421-1.461-.652a19 19 0 0 1-1.548-.846c-.48-.291-.946-.604-1.419-.907q-.662-.414-1.329-.824-.673-.414-1.35-.82a36 36 0 0 0-1.288-.742c-.406-.225-.823-.43-1.24-.631-.42-.204-.849-.391-1.28-.57-.487-.195-.982-.37-1.474-.55-.587-.22-1.174-.44-1.765-.65a38 38 0 0 0-1.879-.612c-.673-.2-1.354-.37-2.038-.53a44 44 0 0 0-2.157-.433q-.976-.179-1.966-.26a13 13 0 0 0-1.66-.016c-.464.02-.924.086-1.381.168-.452.085-.898.2-1.342.318-.351.094-.7.2-1.036.338-.206.09-.398.207-.583.334a4.3 4.3 0 0 0-.534.45c-.061.063-.138.13-.156.212.034.015.02.06.016.11a.6.6 0 0 0 .03.245c.034-.01.02-.034.01-.068.105.083.214.189.319.279.3.26.637.472.979.672a14 14 0 0 0 1.546.735c.585.241 1.187.437 1.793.615.52.151 1.05.259 1.585.34.424.062.852.097 1.281.083.357-.022.707-.101 1.056-.178a19 19 0 0 0 1.41-.385c.51-.16 1.01-.35 1.509-.543a32 32 0 0 0 1.558-.655l1.478-.673c.37-.17.74-.34 1.102-.527.265-.142.52-.302.773-.467.28-.185.556-.376.833-.565l.713-.49q.293-.205.587-.408c.733-.474 1.669-.897 2.57-.732.573.104 1.098.385 1.646.578l1.16 1.286c2.3 4.286-3.763 7.538-6.062 3.251l1.117 1.207c.527.178 1.032.439 1.58.534.634.11 1.361-.125 1.896-.462l-.574.399q-.372.257-.745.512c-.326.223-.652.448-.982.665a17 17 0 0 1-1.366.81q-.685.348-1.385.664-.77.352-1.54.701a39 39 0 0 1-1.881.79c-.652.251-1.306.496-1.973.703a27 27 0 0 1-1.957.528c-.792.172-1.592.318-2.405.335-.82.01-1.64-.035-2.451-.164a19 19 0 0 1-2.48-.54 25 25 0 0 1-2.496-.864c-.825-.346-1.64-.717-2.412-1.17-.709-.425-1.4-.882-2.02-1.431-.603-.54-1.176-1.119-1.608-1.809-.452-.76-.81-1.565-.954-2.444-.12-.814-.165-1.636-.031-2.453.147-.852.377-1.688.812-2.444.387-.65.831-1.262 1.39-1.779.458-.43.938-.838 1.462-1.187.588-.384 1.198-.737 1.853-.996.588-.23 1.187-.431 1.798-.59a25 25 0 0 1 1.909-.443 17 17 0 0 1 2.287-.268 20 20 0 0 1 2.539.035c.87.076 1.739.184 2.599.343.84.151 1.678.313 2.51.506.82.193 1.637.397 2.444.638.744.224 1.484.46 2.215.722q.92.33 1.833.675c.576.212 1.156.417 1.724.65.55.227 1.096.465 1.632.725.537.259 1.07.524 1.592.813q.76.418 1.503.866.712.428 1.42.863.714.439 1.424.884c.413.265.822.538 1.24.796.324.195.651.385.993.548.338.163.679.32 1.028.46.215.087.43.174.652.24.062.017.141.035.19.049-.02.009-.023.012-.053.025a1.5 1.5 0 0 0 .258-.089q.283-.124.55-.282.404-.232.8-.484c.215-.142.43-.284.631-.447a3.1 3.1 0 0 0 .768-.942 4 4 0 0 0 .195-.407.5.5 0 0 0 .032-.206 2 2 0 0 0-.015-.397c-.006-.038-.03-.099-.003-.124-.043-.09-.115-.162-.183-.233a3.7 3.7 0 0 0-.475-.43 3.4 3.4 0 0 0-.581-.345 12 12 0 0 0-1.088-.394c-.41-.133-.82-.266-1.238-.369-.279-.066-.56-.13-.848-.137a7 7 0 0 0-1.219.125c-.453.087-.9.2-1.336.352-.447.152-.892.312-1.325.503a11 11 0 0 0-1.094.541q-.534.31-1.035.671c-.305.225-.603.46-.883.716a3.6 3.6 0 0 0-.459.494c-.026.036-.093.158-.12.147-.024.043-.028.096-.034.145-.023.244-.025.488-.04.732a224 224 0 0 1-.105 2.02c-.02.358-.044.716-.06 1.075q-.023.465-.019.93c.006.365.018.73.027 1.095.011.408.024.817.029 1.227q.009.588.011 1.177l.003 1.065q-.001.54.007 1.08a384 384 0 0 0 .05 2.457q.015.63.034 1.26c.013.435.027.87.03 1.306l.016 1.286q.006.738.001 1.475-.002.807-.011 1.615a483 483 0 0 1-.042 3.048 76 76 0 0 1-.048 1.508 125 125 0 0 1-.154 2.941q-.048.725-.1 1.448c-.032.445-.066.89-.087 1.336a35 35 0 0 0-.022 1.293l-.01 1.35q-.007.657-.02 1.315-.01.607-.026 1.215-.014.536-.035 1.07a16 16 0 0 1-.054.85c-.493 4.839-7.336 4.142-6.844-.697" transform="translate(0 -197)"/></svg>
