<?xml version="1.0" encoding="UTF-8" standalone="no"?>
<!-- Created with Inkscape (http://www.inkscape.org/) -->

<svg
   xmlns:dc="http://purl.org/dc/elements/1.1/"
   xmlns:cc="http://creativecommons.org/ns#"
   xmlns:rdf="http://www.w3.org/1999/02/22-rdf-syntax-ns#"
   xmlns:svg="http://www.w3.org/2000/svg"
   xmlns="http://www.w3.org/2000/svg"
   xmlns:sodipodi="http://sodipodi.sourceforge.net/DTD/sodipodi-0.dtd"
   xmlns:inkscape="http://www.inkscape.org/namespaces/inkscape"
   width="10cm"
   height="10cm"
   viewBox="0 0 100 99.999997"
   version="1.1"
   id="svg8"
   sodipodi:docname="laso.svg"
   inkscape:version="0.92.3 (2405546, 2018-03-11)">
  <defs
     id="defs2" />
  <sodipodi:namedview
     id="base"
     pagecolor="#ffffff"
     bordercolor="#666666"
     borderopacity="1.0"
     inkscape:pageopacity="0.0"
     inkscape:pageshadow="2"
     inkscape:zoom="1"
     inkscape:cx="125.50186"
     inkscape:cy="200.50542"
     inkscape:document-units="cm"
     inkscape:current-layer="layer1"
     showgrid="true"
     units="cm"
     inkscape:window-width="1920"
     inkscape:window-height="1017"
     inkscape:window-x="-8"
     inkscape:window-y="-8"
     inkscape:window-maximized="1"
     inkscape:snap-nodes="false">
    <inkscape:grid
       type="xygrid"
       id="grid815"
       units="cm"
       spacingx="9.9999998"
       spacingy="9.9999998" />
  </sodipodi:namedview>
  <metadata
     id="metadata5">
    <rdf:RDF>
      <cc:Work
         rdf:about="">
        <dc:format>image/svg+xml</dc:format>
        <dc:type
           rdf:resource="http://purl.org/dc/dcmitype/StillImage" />
        <dc:title></dc:title>
      </cc:Work>
    </rdf:RDF>
  </metadata>
  <g
     inkscape:label="Layer 1"
     inkscape:groupmode="layer"
     id="layer1"
     transform="translate(0,-197.00002)">
    <path
       style="opacity:1;fill:#020900;fill-opacity:1;stroke:none;stroke-width:1;stroke-linecap:butt;stroke-linejoin:round;stroke-miterlimit:4;stroke-dasharray:none;stroke-opacity:1"
       id="path1149"
       d="m 27.918857,280.83245 c -0.05419,0.003 -0.355015,0.21177 -0.244854,0.11512 0.264756,-0.23599 0.521907,-0.4803 0.783638,-0.71962 0.397574,-0.35384 0.791655,-0.71133 1.173618,-1.08201 0.455482,-0.45056 0.899816,-0.91223 1.348335,-1.3697 0.484608,-0.49173 0.970245,-0.98244 1.453462,-1.47555 0.492387,-0.50087 0.982681,-1.00374 1.468191,-1.51129 0.503161,-0.52413 1.007915,-1.04668 1.503373,-1.57813 0.523375,-0.56511 1.032807,-1.14288 1.542968,-1.71989 0.548799,-0.62481 1.108213,-1.24007 1.673397,-1.85006 0.505111,-0.53906 1.006163,-1.08185 1.500476,-1.63082 0.445767,-0.49427 0.886286,-0.99322 1.320652,-1.49754 0.385053,-0.44554 0.756523,-0.90241 1.116735,-1.36819 0.345019,-0.44849 0.668562,-0.91287 0.991036,-1.37765 0.308528,-0.44294 0.605716,-0.89359 0.906119,-1.34204 0.259961,-0.38581 0.51666,-0.77381 0.778034,-1.15866 0.240456,-0.35306 0.490283,-0.69961 0.746416,-1.04142 0.242204,-0.3241 0.503052,-0.63322 0.776401,-0.93128 0.378269,-0.42432 0.831614,-0.76072 1.313,-1.05742 0.792049,-0.47039 1.675463,-0.60486 2.58146,-0.5726 0.628933,0.0467 1.226749,0.24059 1.805318,0.47994 0.451271,0.19353 0.877155,0.43812 1.291564,0.69995 0.463894,0.29665 0.885756,0.65083 1.294516,1.01805 0.429493,0.38771 0.822928,0.81185 1.203177,1.2472 0.353338,0.41584 0.699553,0.83772 1.044329,1.26068 0.379754,0.46459 0.753462,0.93407 1.122873,1.40692 0.395986,0.5138 0.782934,1.03446 1.176025,1.55047 0.401527,0.52521 0.803058,1.05043 1.206958,1.57383 0.409731,0.53017 0.825595,1.05555 1.24319,1.57955 0.409461,0.51572 0.828153,1.02396 1.249031,1.53037 0.405705,0.49073 0.819203,0.97488 1.235433,1.45668 0.433713,0.50038 0.860605,1.0066 1.287261,1.513 0.399976,0.47737 0.803733,0.95151 1.209421,1.42402 0.382791,0.44775 0.767871,0.89354 1.154216,1.33823 0.330872,0.38313 0.668559,0.76027 1.007081,1.13663 0.31456,0.35007 0.632203,0.69734 0.951616,1.04298 0.246541,0.27132 0.502954,0.53322 0.763696,0.79081 0.234024,0.22769 0.470548,0.45279 0.706784,0.67818 0.196728,0.1877 0.393332,0.37553 0.591082,0.56215 0.273338,0.24318 0.523618,0.50672 0.763521,0.78265 1.040723,1.35338 1.09946,3.09011 0.111906,4.51286 -0.188908,0.27215 -0.469445,0.46758 -0.704168,0.70137 -0.636119,0.48317 -1.374246,0.69306 -2.14612,0.81592 -0.405442,0.0605 -0.813832,0.0975 -1.222171,0.13166 -0.404807,0.0323 -0.809196,0.0694 -1.213337,0.10915 -0.482187,0.051 -0.964851,0.0972 -1.447842,0.13982 -0.490535,0.0398 -0.980985,0.0802 -1.471001,0.12593 -0.508717,0.0502 -1.017868,0.0957 -1.527292,0.13806 -0.522518,0.0434 -1.045615,0.0791 -1.568709,0.11463 -0.480113,0.0302 -0.959215,0.0736 -1.438392,0.11566 -0.527034,0.0469 -1.054602,0.0873 -1.58243,0.12403 -0.549532,0.0339 -1.098627,0.0737 -1.647598,0.11563 -0.590393,0.0464 -1.181105,0.0887 -1.771972,0.12861 -0.584833,0.0393 -1.170009,0.0732 -1.755262,0.10556 -0.580297,0.0316 -1.160687,0.0614 -1.741522,0.081 -0.645697,0.0238 -1.291336,-5.3e-4 -1.935826,-0.0396 -0.559898,-0.0376 -1.118802,-0.0883 -1.677255,-0.14298 -0.532733,-0.0514 -1.064181,-0.11468 -1.595826,-0.17597 -0.496256,-0.0575 -0.993458,-0.10623 -1.490811,-0.15311 -0.479539,-0.0444 -0.959318,-0.0864 -1.439603,-0.122 -0.41206,-0.0298 -0.824871,-0.0462 -1.237925,-0.0519 -0.402669,-0.006 -0.805193,0.007 -1.207484,0.0231 -0.432906,0.0179 -0.865807,0.0359 -1.298673,0.0548 -0.386284,0.0152 -0.772223,0.0376 -1.157981,0.0626 -0.374332,0.0244 -0.748575,0.0501 -1.122775,0.0764 -0.311719,0.0197 -0.622131,0.0536 -0.932127,0.091 -0.332028,0.0421 -0.663948,0.085 -0.995931,0.12743 -0.257273,0.0306 -0.512691,0.0734 -0.767485,0.11986 -0.2687,0.0497 -0.536435,0.10443 -0.804262,0.15859 -0.256217,0.0527 -0.512495,0.10509 -0.768787,0.15742 -0.213809,0.0437 -0.427751,0.0868 -0.641678,0.12998 -0.17686,0.0358 -0.353837,0.0709 -0.530894,0.10574 -0.133054,0.0265 -0.266409,0.0515 -0.399373,0.0784 0.0218,-0.004 0.04359,-0.009 0.06538,-0.0134 -4.732801,1.12342 -6.321548,-5.56977 -1.588746,-6.69319 v 0 c 0.05518,-0.0124 0.110352,-0.0248 0.165528,-0.0372 0.143516,-0.0288 0.287256,-0.0564 0.430877,-0.0847 0.165695,-0.0326 0.331322,-0.0655 0.496832,-0.099 0.208658,-0.0421 0.417332,-0.0841 0.625877,-0.12676 0.260551,-0.0532 0.521086,-0.10649 0.781574,-0.16002 0.312502,-0.0632 0.624943,-0.12678 0.938543,-0.18436 0.373391,-0.0676 0.747855,-0.12911 1.124609,-0.17506 0.349009,-0.0446 0.697931,-0.0899 1.047028,-0.13377 0.422568,-0.0506 0.84582,-0.0956 1.270598,-0.12325 0.387093,-0.0272 0.774226,-0.0539 1.161454,-0.079 0.43375,-0.028 0.867699,-0.0531 1.302025,-0.0704 0.444201,-0.0194 0.888437,-0.0379 1.332683,-0.0562 0.525695,-0.0202 1.051713,-0.036 1.577869,-0.0274 0.548468,0.009 1.09669,0.0295 1.643819,0.07 0.525412,0.0393 1.050356,0.0845 1.574954,0.13341 0.544718,0.0514 1.089255,0.10499 1.632775,0.168 0.492874,0.0568 0.985525,0.11585 1.479397,0.16354 0.476011,0.0468 0.952396,0.0902 1.429588,0.1232 0.427017,0.027 0.854755,0.0462 1.282711,0.0304 0.53082,-0.0174 1.061156,-0.0461 1.591487,-0.0744 0.557162,-0.0308 1.11425,-0.063 1.671013,-0.10039 0.570984,-0.0385 1.141807,-0.0794 1.712328,-0.12433 0.564271,-0.043 1.128667,-0.0841 1.693516,-0.11898 0.486624,-0.0338 0.972997,-0.0711 1.458883,-0.11431 0.524052,-0.046 1.048062,-0.093 1.573123,-0.12615 0.488516,-0.0332 0.977053,-0.0663 1.465035,-0.10679 0.486296,-0.0404 0.972306,-0.084 1.457923,-0.13195 0.501552,-0.0468 1.003487,-0.0887 1.505592,-0.12906 0.460529,-0.0406 0.920692,-0.085 1.380453,-0.13355 0.437764,-0.0429 0.875776,-0.0832 1.314244,-0.1183 0.247542,-0.0205 0.495199,-0.0414 0.741434,-0.0745 0.01778,-0.002 0.07065,-0.011 0.05357,-0.005 -0.379513,0.12252 -0.731668,0.27284 -1.04629,0.53244 -0.203642,0.20992 -0.448836,0.38631 -0.610931,0.62975 -0.824021,1.23754 -0.864981,2.79045 0.06789,3.96539 0.350539,0.38025 -0.04251,-0.0441 -0.159324,-0.13383 -0.20674,-0.19515 -0.412374,-0.39145 -0.618035,-0.58773 -0.266081,-0.25387 -0.532535,-0.50737 -0.795552,-0.76441 -0.333732,-0.33038 -0.662172,-0.66606 -0.978603,-1.01315 -0.34031,-0.36831 -0.678776,-0.73834 -1.013942,-1.11134 -0.364876,-0.4057 -0.728697,-0.81238 -1.085437,-1.22527 -0.39515,-0.45485 -0.789038,-0.91079 -1.180576,-1.36875 -0.419566,-0.48871 -0.83715,-0.97909 -1.250874,-1.47276 -0.408426,-0.48478 -0.816983,-0.96947 -1.232201,-1.44847 -0.444786,-0.51495 -0.886614,-1.03244 -1.320282,-1.55681 -0.45094,-0.54266 -0.899398,-1.0874 -1.338209,-1.63995 -0.439931,-0.55209 -0.878012,-1.10566 -1.309635,-1.66429 -0.412604,-0.53477 -0.822933,-1.0713 -1.233109,-1.60794 -0.376274,-0.49405 -0.74727,-0.99209 -1.125347,-1.48476 -0.339923,-0.43548 -0.684255,-0.86751 -1.033822,-1.2953 -0.298159,-0.36601 -0.598046,-0.73066 -0.902116,-1.09177 -0.197141,-0.22836 -0.399743,-0.45214 -0.622715,-0.65588 -0.126016,-0.11494 -0.251783,-0.23129 -0.391816,-0.32927 -0.08729,-0.059 -0.178215,-0.1115 -0.270727,-0.16175 0.07944,0.004 0.278463,0.0572 0.38453,0.0484 0.483237,5e-5 0.962472,-0.085 1.378632,-0.34491 0.09505,-0.0636 0.367662,-0.27143 0.270253,-0.21147 -0.117633,0.1206 -0.219196,0.25575 -0.322902,0.38816 -0.191926,0.25446 -0.377185,0.51393 -0.557303,0.77688 -0.253016,0.37183 -0.50039,0.74748 -0.752086,1.1202 -0.321384,0.47973 -0.639545,0.96166 -0.969769,1.43539 -0.391195,0.56358 -0.785159,1.1256 -1.204569,1.66874 -0.434102,0.55953 -0.879938,1.10978 -1.343316,1.64543 -0.467516,0.54241 -0.941112,1.07952 -1.420802,1.61121 -0.516207,0.5729 -1.038677,1.14005 -1.566097,1.70264 -0.528847,0.57058 -1.05215,1.14621 -1.565466,1.73083 -0.550606,0.62275 -1.100778,1.24601 -1.666113,1.8555 -0.515498,0.55241 -1.039516,1.09668 -1.563137,1.64139 -0.504616,0.52739 -1.013947,1.05019 -1.525688,1.57067 -0.483635,0.4935 -0.969579,0.98471 -1.454671,1.47678 -0.490734,0.50048 -0.976591,1.00587 -1.476608,1.49714 -0.430088,0.41532 -0.869426,0.82061 -1.317114,1.21694 -0.334259,0.30513 -0.660205,0.61955 -1.004801,0.91319 -0.416044,0.34503 -0.853291,0.66751 -1.351176,0.88604 -4.435834,1.99621 -7.258897,-4.277 -2.823062,-6.27321 z"
       inkscape:connector-curvature="0" />
    <path
       style="opacity:1;fill:#020900;fill-opacity:1;stroke:none;stroke-width:1;stroke-linecap:butt;stroke-linejoin:round;stroke-miterlimit:4;stroke-dasharray:none;stroke-opacity:1"
       id="path1151"
       d="m 46.042071,257.04908 c 0.01299,-0.15255 0.01926,-0.30556 0.02598,-0.45848 0.01307,-0.31573 0.02178,-0.63161 0.03017,-0.94749 0.01003,-0.3875 0.01786,-0.77504 0.02519,-1.1626 0.0081,-0.41786 0.01442,-0.83575 0.01857,-1.25368 0.004,-0.4419 0.007,-0.8838 0.0099,-1.32571 -5.3e-5,-0.50158 0.008,-1.00298 0.02625,-1.50423 0.02299,-0.52386 0.06208,-1.04683 0.09941,-1.56982 0.03417,-0.46955 0.06762,-0.93914 0.09848,-1.40892 0.02979,-0.45594 0.05581,-0.91212 0.08018,-1.36837 0.02469,-0.46757 0.04477,-0.93536 0.06394,-1.40318 0.02053,-0.46374 0.03331,-0.92775 0.04444,-1.39179 0.0098,-0.4767 0.01643,-0.95346 0.02289,-1.43021 0.0067,-0.50727 0.01217,-1.01454 0.01725,-1.52182 0.0058,-0.52449 0.009,-1.04899 0.01111,-1.5735 0.0026,-0.46011 0.0037,-0.9202 -7.93e-4,-1.3803 -0.0049,-0.42363 -0.01037,-0.84725 -0.0154,-1.27089 -0.0026,-0.39348 -0.01566,-0.78677 -0.02756,-1.18005 -0.0132,-0.43194 -0.02463,-0.86392 -0.03546,-1.29592 -0.01069,-0.43007 -0.01979,-0.86019 -0.02856,-1.29031 -0.0083,-0.40687 -0.01566,-0.81376 -0.02268,-1.22066 -0.0061,-0.39266 -0.0066,-0.78538 -0.0078,-1.17807 -0.0011,-0.35694 -0.0019,-0.71387 -0.0024,-1.07081 -5.29e-4,-0.36841 -0.0065,-0.7368 -0.01117,-1.10518 -0.0048,-0.3751 -0.01648,-0.75007 -0.02676,-1.12505 -0.01035,-0.38854 -0.02159,-0.77707 -0.02839,-1.16569 -0.0071,-0.44669 0.0051,-0.89333 0.02376,-1.33958 0.01775,-0.39576 0.04329,-0.79112 0.06653,-1.18659 0.02011,-0.34078 0.03837,-0.68166 0.05601,-1.02257 0.01577,-0.3061 0.0306,-0.61226 0.04507,-0.91842 0.01315,-0.3281 0.02886,-0.65588 0.05532,-0.98319 0.04302,-0.5792 0.176472,-1.14258 0.347966,-1.69558 0.219523,-0.6746 0.573517,-1.2883 0.964428,-1.87572 0.399634,-0.58919 0.884587,-1.10991 1.394521,-1.60372 0.48605,-0.45893 1.00911,-0.87544 1.544621,-1.27457 0.524428,-0.38601 1.073653,-0.73605 1.633204,-1.06841 0.578713,-0.34045 1.184342,-0.63059 1.796781,-0.90431 0.623051,-0.27664 1.263263,-0.51084 1.908029,-0.731 0.725575,-0.25224 1.470152,-0.43825 2.222595,-0.58899 0.785059,-0.15501 1.581396,-0.22796 2.380192,-0.25245 0.859089,-0.0202 1.706441,0.11966 2.541537,0.30582 0.621768,0.14557 1.231096,0.33748 1.838079,0.53445 0.553514,0.17447 1.098145,0.3736 1.633744,0.59677 0.635852,0.26706 1.226494,0.62275 1.795904,1.00869 0.534623,0.36576 1.013278,0.80213 1.470253,1.25903 0.495874,0.48322 0.89908,1.04166 1.254352,1.63293 0.37623,0.65014 0.601734,1.36443 0.768906,2.09222 0.137663,0.62593 0.175342,1.26542 0.175815,1.90434 0.0059,0.66735 -0.104867,1.32232 -0.26916,1.96654 -0.170916,0.62514 -0.43778,1.21576 -0.733068,1.79043 -0.283411,0.54889 -0.63037,1.05935 -1.003744,1.55007 -0.395,0.51221 -0.853776,0.96754 -1.336903,1.39552 -0.433578,0.37537 -0.904973,0.70266 -1.383022,1.01801 -0.366456,0.23944 -0.742849,0.46308 -1.121055,0.6833 -0.383646,0.22702 -0.782463,0.42594 -1.188107,0.61011 -0.434141,0.19713 -0.88583,0.3475 -1.345321,0.47227 -0.562586,0.1493 -1.141915,0.19333 -1.721546,0.19608 -0.586637,-0.003 -1.164587,-0.10281 -1.73437,-0.23383 -0.552408,-0.13353 -1.084959,-0.333 -1.612181,-0.54241 -0.495487,-0.19766 -0.980146,-0.42063 -1.461047,-0.65111 -0.531511,-0.2532 -1.043168,-0.54436 -1.548186,-0.84618 -0.479726,-0.29144 -0.946068,-0.60402 -1.4186,-0.90681 -0.441082,-0.27781 -0.885577,-0.55018 -1.328949,-0.82433 -0.448247,-0.27643 -0.898983,-0.54881 -1.35018,-0.8204 -0.423338,-0.25762 -0.854437,-0.50196 -1.287965,-0.74191 -0.406307,-0.22456 -0.822574,-0.43013 -1.240917,-0.63109 -0.420047,-0.20411 -0.848077,-0.39081 -1.279684,-0.56891 -0.486431,-0.19592 -0.981196,-0.37017 -1.473181,-0.55145 -0.587031,-0.22025 -1.174263,-0.43985 -1.764879,-0.65033 -0.620546,-0.22125 -1.247932,-0.42249 -1.879087,-0.6111 -0.672939,-0.2003 -1.354315,-0.37006 -2.037845,-0.52977 -0.714888,-0.16553 -1.435557,-0.30387 -2.157701,-0.43339 -0.650689,-0.12038 -1.306644,-0.20468 -1.965891,-0.2592 -0.552434,-0.0456 -1.106606,-0.0417 -1.659773,-0.0163 -0.4645,0.0196 -0.924592,0.0853 -1.381477,0.168 -0.451954,0.0849 -0.897538,0.19943 -1.341631,0.31789 -0.351311,0.0941 -0.699323,0.20016 -1.036095,0.33792 -0.206065,0.0895 -0.398351,0.20658 -0.582827,0.33398 -0.190955,0.13372 -0.36753,0.28646 -0.534342,0.44895 -0.06086,0.0636 -0.137996,0.13076 -0.156003,0.21328 0.03435,0.0148 0.02019,0.06 0.01638,0.11049 -0.0062,0.0834 0.0013,0.16661 0.02915,0.24454 0.03501,-0.01 0.02114,-0.0342 0.01138,-0.0684 0.10464,0.083 0.212981,0.18883 0.318195,0.27893 0.300668,0.2601 0.636972,0.47191 0.979054,0.6722 0.496197,0.28384 1.019035,0.5157 1.546341,0.73454 0.584571,0.2418 1.186337,0.43726 1.792939,0.61509 0.519448,0.15175 1.049824,0.2592 1.584552,0.33948 0.424479,0.0625 0.852318,0.098 1.281277,0.0839 0.35724,-0.0217 0.707488,-0.10127 1.055989,-0.17812 0.475684,-0.10762 0.94466,-0.24155 1.41066,-0.38478 0.509887,-0.16053 1.009724,-0.35033 1.508141,-0.54294 0.526137,-0.20237 1.043488,-0.42618 1.558216,-0.65571 0.492943,-0.22375 0.986049,-0.44716 1.478275,-0.67249 0.36948,-0.17089 0.74005,-0.33971 1.101526,-0.52712 0.265647,-0.14228 0.521044,-0.30236 0.773571,-0.46649 0.279445,-0.18579 0.555934,-0.37597 0.832765,-0.56561 0.237802,-0.16293 0.475686,-0.32573 0.712563,-0.49001 0.195865,-0.13581 0.391051,-0.2726 0.587181,-0.40803 0.733145,-0.47407 1.668862,-0.89668 2.57075,-0.7321 0.572019,0.10437 1.097235,0.38533 1.645852,0.57799 0.386611,0.42866 0.773223,0.85732 1.159835,1.28598 2.298999,4.28673 -3.763357,7.53801 -6.062356,3.25128 v 0 c 0.372491,0.40233 0.744982,0.80465 1.117473,1.20698 0.526413,0.17804 1.031746,0.43892 1.579235,0.53411 0.634733,0.11035 1.361384,-0.1253 1.896554,-0.46247 -0.191995,0.13241 -0.382791,0.26654 -0.574545,0.39929 -0.2476,0.17168 -0.496178,0.34193 -0.744754,0.51219 -0.326163,0.22344 -0.651876,0.4476 -0.982073,0.66506 -0.444743,0.2872 -0.896096,0.5648 -1.365975,0.80944 -0.455803,0.23332 -0.918654,0.45204 -1.384506,0.66456 -0.513191,0.23488 -1.027216,0.46794 -1.541256,0.70094 -0.62112,0.27663 -1.24578,0.54548 -1.880513,0.78964 -0.651433,0.25133 -1.305677,0.49641 -1.972794,0.70351 -0.646465,0.19723 -1.297154,0.38126 -1.957245,0.5278 -0.791781,0.17157 -1.591622,0.31815 -2.4042,0.33525 -0.820568,0.009 -1.64002,-0.035 -2.45155,-0.1638 -0.836379,-0.13166 -1.667068,-0.29907 -2.479653,-0.53987 -0.844767,-0.25046 -1.682613,-0.52564 -2.496492,-0.86494 -0.824344,-0.34566 -1.639319,-0.71665 -2.411339,-1.16955 -0.70902,-0.42495 -1.399787,-0.88218 -2.02013,-1.43158 -0.603614,-0.53988 -1.175796,-1.11806 -1.608585,-1.80831 -0.451405,-0.75995 -0.80988,-1.56506 -0.953152,-2.4445 -0.121164,-0.81374 -0.16521,-1.63572 -0.03159,-2.45229 0.147305,-0.85252 0.377069,-1.68841 0.811862,-2.44424 0.38737,-0.65051 0.831572,-1.26243 1.389912,-1.77903 0.458625,-0.4299 0.938221,-0.83809 1.462514,-1.18685 0.587888,-0.38472 1.197676,-0.73715 1.852543,-0.99678 0.588325,-0.22973 1.186961,-0.43054 1.798654,-0.58928 0.631211,-0.16759 1.265243,-0.32652 1.908148,-0.44328 0.756952,-0.13271 1.51919,-0.23634 2.287921,-0.2675 0.846072,-0.0348 1.693593,-0.0375 2.53813,0.0347 0.871267,0.0754 1.739087,0.18339 2.599348,0.34283 0.840142,0.1511 1.678467,0.31297 2.510078,0.50623 0.819751,0.19232 1.636832,0.39693 2.443806,0.63802 0.743966,0.22339 1.483987,0.46 2.215565,0.72144 0.613206,0.21886 1.223428,0.44577 1.83284,0.67496 0.57625,0.21244 1.15569,0.41687 1.724208,0.6496 0.549947,0.22799 1.095743,0.46598 1.631386,0.7261 0.536861,0.25845 1.070571,0.52375 1.591932,0.81251 0.505844,0.28026 1.00879,0.56578 1.503048,0.86614 0.474633,0.28572 0.948766,0.57229 1.420264,0.86316 0.475189,0.29382 0.951688,0.58559 1.423935,0.88413 0.413427,0.26518 0.822193,0.53767 1.239925,0.79607 0.324091,0.1946 0.651166,0.38469 0.992801,0.54732 0.338344,0.16308 0.679305,0.321 1.027927,0.46108 0.215059,0.086 0.43007,0.17349 0.652394,0.23936 0.06185,0.0167 0.141055,0.0349 0.189691,0.0487 -0.01961,0.009 -0.02305,0.0121 -0.05226,0.0256 0.0596,-0.0136 0.181493,-0.0529 0.257357,-0.0892 0.188894,-0.0824 0.371996,-0.17708 0.54946,-0.28191 0.269547,-0.15664 0.538205,-0.31506 0.799963,-0.48451 0.215908,-0.14134 0.43149,-0.28423 0.632261,-0.44678 0.152451,-0.12816 0.296109,-0.26608 0.421381,-0.42146 0.131837,-0.16203 0.247142,-0.3363 0.346295,-0.52027 0.07119,-0.13269 0.139896,-0.2667 0.194672,-0.40718 0.01802,-0.0325 0.04172,-0.14107 0.03252,-0.20586 0.0026,-0.13263 0.0059,-0.26605 -0.01513,-0.39756 -0.0058,-0.0372 -0.03064,-0.0986 -0.0036,-0.12351 -0.04221,-0.0894 -0.114358,-0.16234 -0.183089,-0.23344 -0.149043,-0.15285 -0.300919,-0.30414 -0.474589,-0.4294 -0.184523,-0.1298 -0.373911,-0.25404 -0.580908,-0.34561 -0.354288,-0.15323 -0.720953,-0.27411 -1.087771,-0.39349 -0.409615,-0.13322 -0.819856,-0.26612 -1.238329,-0.36921 -0.278681,-0.0662 -0.560499,-0.13092 -0.84821,-0.13659 -0.409112,0.003 -0.816006,0.0521 -1.218398,0.12478 -0.453107,0.0864 -0.899731,0.20037 -1.33586,0.35189 -0.447839,0.15171 -0.892884,0.31218 -1.325883,0.50287 -0.372017,0.16477 -0.741053,0.33721 -1.093512,0.54129 -0.354645,0.20822 -0.701648,0.42943 -1.034754,0.67089 -0.305075,0.22492 -0.60312,0.45942 -0.88293,0.71548 -0.164534,0.15405 -0.325834,0.31228 -0.459367,0.49482 -0.02582,0.0353 -0.09322,0.1571 -0.119248,0.14652 -0.02453,0.0435 -0.02901,0.096 -0.03524,0.1455 -0.02267,0.24328 -0.025,0.48784 -0.0388,0.7317 -0.01495,0.31635 -0.0303,0.63269 -0.04659,0.94898 -0.01847,0.35697 -0.03761,0.71391 -0.05867,1.07073 -0.02106,0.35833 -0.04423,0.71656 -0.06089,1.07513 -0.01352,0.30989 -0.0226,0.62006 -0.01855,0.93028 0.006,0.36481 0.01752,0.7295 0.0268,1.09423 0.01122,0.40897 0.02376,0.81794 0.0288,1.22705 0.0049,0.39254 0.0113,0.78509 0.01169,1.17767 7.94e-4,0.35483 0.0016,0.70967 0.0024,1.0645 0.0011,0.35995 0.0016,0.71993 0.0068,1.07985 0.0069,0.39977 0.01413,0.79952 0.02228,1.19926 0.0085,0.41942 0.01744,0.83884 0.02783,1.25823 0.0105,0.42005 0.02164,0.84007 0.03447,1.26006 0.01318,0.43533 0.02721,0.87068 0.03021,1.30623 0.0051,0.42858 0.01066,0.85715 0.01558,1.28574 0.0047,0.49172 0.004,0.98343 0.0011,1.47516 -0.0021,0.53815 -0.0054,1.07629 -0.0114,1.61441 -0.0052,0.51536 -0.01069,1.03071 -0.01754,1.54604 -0.0068,0.50077 -0.01373,1.00155 -0.02424,1.50225 -0.01209,0.50295 -0.02611,1.00585 -0.04823,1.50848 -0.02035,0.49632 -0.04173,0.9926 -0.06798,1.48865 -0.0259,0.4842 -0.05353,0.9683 -0.08517,1.45216 -0.03173,0.48273 -0.066,0.96528 -0.101142,1.44778 -0.03178,0.44506 -0.06525,0.89008 -0.0867,1.33579 -0.01651,0.43105 -0.02119,0.86227 -0.02164,1.29363 -0.003,0.44969 -0.006,0.89939 -0.01011,1.34907 -0.0044,0.43853 -0.01098,0.87702 -0.01947,1.31549 -0.0077,0.40495 -0.01588,0.8099 -0.02638,1.21479 -0.0095,0.35697 -0.01947,0.71395 -0.03454,1.07074 -0.0127,0.28335 -0.02643,0.5668 -0.05454,0.84913 -0.49253,4.83931 -7.336343,4.14276 -6.843813,-0.69654 z"
       inkscape:connector-curvature="0" />
  </g>
</svg>
