<?xml version="1.0" encoding="UTF-8" standalone="no"?>
<!-- Created with Inkscape (http://www.inkscape.org/) -->

<svg
   xmlns:dc="http://purl.org/dc/elements/1.1/"
   xmlns:cc="http://creativecommons.org/ns#"
   xmlns:rdf="http://www.w3.org/1999/02/22-rdf-syntax-ns#"
   xmlns:svg="http://www.w3.org/2000/svg"
   xmlns="http://www.w3.org/2000/svg"
   xmlns:sodipodi="http://sodipodi.sourceforge.net/DTD/sodipodi-0.dtd"
   xmlns:inkscape="http://www.inkscape.org/namespaces/inkscape"
   width="10cm"
   height="10cm"
   viewBox="0 0 100 99.999997"
   version="1.1"
   id="svg8"
   sodipodi:docname="lawa.svg"
   inkscape:version="0.92.3 (2405546, 2018-03-11)">
  <defs
     id="defs2" />
  <sodipodi:namedview
     id="base"
     pagecolor="#ffffff"
     bordercolor="#666666"
     borderopacity="1.0"
     inkscape:pageopacity="0.0"
     inkscape:pageshadow="2"
     inkscape:zoom="1"
     inkscape:cx="175.50186"
     inkscape:cy="160.37856"
     inkscape:document-units="cm"
     inkscape:current-layer="layer1"
     showgrid="true"
     units="cm"
     inkscape:window-width="1920"
     inkscape:window-height="1017"
     inkscape:window-x="-8"
     inkscape:window-y="-8"
     inkscape:window-maximized="1"
     inkscape:snap-nodes="false">
    <inkscape:grid
       type="xygrid"
       id="grid815"
       units="cm"
       spacingx="9.9999998"
       spacingy="9.9999998" />
  </sodipodi:namedview>
  <metadata
     id="metadata5">
    <rdf:RDF>
      <cc:Work
         rdf:about="">
        <dc:format>image/svg+xml</dc:format>
        <dc:type
           rdf:resource="http://purl.org/dc/dcmitype/StillImage" />
        <dc:title></dc:title>
      </cc:Work>
    </rdf:RDF>
  </metadata>
  <g
     inkscape:label="Layer 1"
     inkscape:groupmode="layer"
     id="layer1"
     transform="translate(0,-197.00002)">
    <path
       style="opacity:1;fill:#020900;fill-opacity:1;stroke:none;stroke-width:1;stroke-linecap:butt;stroke-linejoin:round;stroke-miterlimit:4;stroke-dasharray:none;stroke-opacity:1"
       id="path146"
       d="m 40.659658,220.174 c -0.152106,0.0231 -0.30271,0.055 -0.453551,0.085 -0.269153,0.0578 -0.539597,0.10933 -0.808797,0.16684 -0.236765,0.052 -0.468707,0.12298 -0.700855,0.19215 -0.403781,0.12245 -0.810577,0.23447 -1.217851,0.3446 -0.453847,0.12313 -0.909193,0.24055 -1.365141,0.35562 -0.49707,0.12614 -0.997008,0.24046 -1.495967,0.35876 -0.456002,0.10484 -0.904013,0.23958 -1.34892,0.38358 -0.536213,0.17468 -1.062829,0.37647 -1.585826,0.58696 -0.601106,0.24349 -1.196464,0.50051 -1.783709,0.77571 -0.584293,0.27546 -1.144154,0.59782 -1.694426,0.93513 -0.587939,0.35748 -1.144469,0.76197 -1.692413,1.17716 -0.55025,0.41294 -1.07386,0.85853 -1.580432,1.32352 -0.510993,0.47471 -0.988163,0.9835 -1.452691,1.50322 -0.466698,0.5259 -0.89243,1.08549 -1.300817,1.65723 -0.426904,0.60075 -0.803294,1.23451 -1.165787,1.87546 -0.406881,0.72963 -0.792495,1.47081 -1.164936,2.21852 -0.370545,0.75244 -0.717086,1.51633 -1.052473,2.28498 -0.322437,0.74223 -0.615582,1.49655 -0.897429,2.25496 -0.276382,0.74298 -0.51186,1.49998 -0.732514,2.26107 -0.230252,0.80264 -0.417783,1.61646 -0.595494,2.43205 -0.184304,0.85494 -0.341762,1.71526 -0.489649,2.57713 -0.140418,0.8293 -0.254309,1.66268 -0.35655,2.49744 -0.0942,0.77472 -0.166378,1.5518 -0.226078,2.32986 -0.05736,0.75021 -0.09396,1.50163 -0.111561,2.25376 -0.01289,0.76075 0.01325,1.52131 0.05553,2.28076 0.04395,0.79391 0.140083,1.58312 0.253403,2.36968 0.125946,0.85181 0.290096,1.69714 0.471963,2.53857 0.184611,0.84717 0.405662,1.68559 0.641977,2.51961 0.236465,0.8255 0.497854,1.64347 0.769271,2.45804 0.240511,0.73636 0.529749,1.45482 0.838524,2.16477 0.277251,0.64075 0.607779,1.25568 0.959921,1.8578 0.328435,0.55539 0.709288,1.07637 1.108102,1.58264 0.403063,0.50386 0.846549,0.97296 1.297562,1.43364 0.490424,0.4928 1.001474,0.96442 1.510869,1.43738 0.506478,0.46871 1.019002,0.93078 1.533653,1.39047 0.450606,0.40317 0.914198,0.79123 1.385886,1.16939 0.42638,0.34435 0.873521,0.66113 1.327715,0.96735 0.47688,0.32407 0.970733,0.62149 1.469237,0.91072 0.52551,0.30365 1.060235,0.59028 1.603825,0.86006 0.570235,0.27903 1.157221,0.52091 1.747668,0.75323 0.680781,0.26451 1.367938,0.51212 2.056519,0.75544 0.678558,0.241 1.363408,0.46349 2.049835,0.68084 0.642864,0.20704 1.292447,0.39168 1.945315,0.56419 0.648163,0.16995 1.302596,0.31414 1.958184,0.45208 0.621434,0.13154 1.246007,0.24675 1.875393,0.33267 0.592084,0.0797 1.18831,0.1142 1.784985,0.13267 0.659802,0.0197 1.319667,-5.2e-4 1.978673,-0.0328 0.718142,-0.0375 1.433827,-0.10954 2.147631,-0.19523 0.675806,-0.082 1.345599,-0.20336 2.009788,-0.35143 0.677783,-0.15136 1.340308,-0.35985 1.999059,-0.57768 0.757463,-0.25411 1.513155,-0.51346 2.269398,-0.77117 0.709337,-0.23855 1.411729,-0.49665 2.110877,-0.76338 0.664999,-0.25317 1.322332,-0.52545 1.973503,-0.81215 0.616223,-0.27096 1.218036,-0.5724 1.810981,-0.89064 0.581633,-0.31812 1.151128,-0.65778 1.717929,-1.00144 0.512498,-0.31031 1.01097,-0.64258 1.501092,-0.9869 0.471548,-0.33305 0.919848,-0.69695 1.364112,-1.0651 0.459021,-0.38137 0.913564,-0.76804 1.359093,-1.1651 0.381411,-0.33717 0.740442,-0.69797 1.090729,-1.06699 0.313246,-0.32397 0.592172,-0.67709 0.852509,-1.04418 0.294865,-0.42563 0.540901,-0.88189 0.7835,-1.33848 0.284218,-0.54155 0.555472,-1.08975 0.820391,-1.64095 0.247573,-0.52149 0.484214,-1.04809 0.717375,-1.57615 0.227116,-0.51486 0.439613,-1.03595 0.647743,-1.55871 0.196992,-0.49615 0.384011,-0.99613 0.566716,-1.49769 0.159417,-0.44013 0.315904,-0.88133 0.463717,-1.3255 0.127436,-0.37794 0.225996,-0.76439 0.316047,-1.15263 0.10632,-0.47221 0.186455,-0.94975 0.26443,-1.42729 0.0811,-0.49376 0.14092,-0.99056 0.197633,-1.48759 0.05851,-0.52251 0.109456,-1.04585 0.152874,-1.56983 0.04119,-0.52009 0.06059,-1.04157 0.07751,-1.56292 0.01757,-0.5928 0.02318,-1.18587 0.02625,-1.7789 7.94e-4,-0.65562 -2.32e-4,-1.31125 -0.0029,-1.96687 -0.0021,-0.60114 -0.0061,-1.20225 -0.01553,-1.80332 -0.0075,-0.52861 -0.02196,-1.057 -0.04676,-1.58507 -0.02806,-0.58407 -0.06887,-1.16745 -0.113567,-1.75045 -0.04107,-0.55456 -0.09919,-1.1075 -0.169526,-1.65904 -0.07346,-0.54531 -0.162052,-1.0884 -0.255095,-1.63065 -0.109078,-0.62094 -0.230733,-1.23957 -0.347827,-1.85903 -0.117597,-0.63621 -0.240572,-1.27135 -0.371668,-1.90491 -0.110212,-0.54965 -0.250923,-1.09213 -0.402958,-1.63146 -0.164539,-0.57433 -0.338847,-1.14576 -0.523507,-1.71393 -0.181002,-0.54996 -0.387334,-1.09101 -0.603232,-1.62808 -0.192418,-0.47553 -0.403841,-0.94296 -0.628404,-1.40408 -0.196598,-0.39713 -0.412054,-0.78439 -0.645064,-1.1612 -0.261454,-0.40979 -0.545513,-0.80462 -0.830681,-1.19808 -0.311949,-0.42652 -0.635336,-0.84451 -0.962644,-1.25931 -0.28371,-0.35677 -0.572257,-0.70973 -0.870805,-1.0542 -0.272624,-0.31318 -0.555548,-0.61717 -0.84202,-0.91766 -0.245753,-0.25993 -0.511241,-0.4997 -0.778941,-0.73653 -0.254622,-0.2299 -0.522722,-0.44328 -0.796571,-0.64954 -0.300868,-0.22523 -0.602459,-0.44944 -0.910362,-0.66499 -0.306692,-0.21018 -0.615461,-0.41735 -0.926314,-0.62132 -0.277035,-0.18333 -0.557036,-0.36182 -0.844122,-0.52898 -0.284472,-0.1656 -0.576133,-0.31806 -0.868592,-0.46889 -0.336151,-0.17667 -0.674185,-0.34965 -1.013066,-0.52101 -0.346427,-0.17361 -0.688245,-0.35611 -1.031007,-0.53678 -0.273508,-0.1438 -0.550408,-0.28096 -0.828218,-0.41621 -0.269449,-0.13234 -0.543681,-0.25437 -0.818914,-0.37406 -0.316976,-0.13723 -0.634693,-0.27274 -0.952161,-0.40883 -0.26891,-0.11687 -0.540026,-0.22849 -0.811483,-0.33928 -0.253352,-0.10266 -0.506695,-0.20535 -0.760079,-0.30794 -0.236265,-0.098 -0.473255,-0.19427 -0.709726,-0.29178 -0.225666,-0.095 -0.450157,-0.19275 -0.675923,-0.28752 -0.182145,-0.0776 -0.367702,-0.1467 -0.552858,-0.21666 -0.226081,-0.0841 -0.453162,-0.1654 -0.678484,-0.25157 -0.264822,-0.1035 -0.526693,-0.21436 -0.788408,-0.32543 -0.250788,-0.10706 -0.49747,-0.22335 -0.747308,-0.33255 -0.176191,-0.0755 -0.356319,-0.1412 -0.536329,-0.20686 -0.206533,-0.0745 -0.413906,-0.14656 -0.621956,-0.21667 -0.166428,-0.0558 -0.334049,-0.108 -0.50238,-0.15779 -0.141885,-0.0421 -0.285134,-0.0793 -0.428834,-0.1147 -0.135419,-0.0332 -0.271568,-0.0632 -0.408374,-0.0901 -0.04971,-0.006 -0.09961,-0.009 -0.149587,-0.0119 -0.08173,-0.007 -0.163566,-0.008 -0.24546,-0.005 -0.07021,0.001 -0.139734,0.0114 -0.209243,0.0203 -0.144499,0.019 -0.2882,0.0436 -0.431924,0.0676 -0.122653,0.0198 -0.244009,0.0464 -0.365479,0.0722 -0.158822,0.0344 -0.318188,0.0663 -0.477404,0.0988 -0.189045,0.0391 -0.378965,0.0736 -0.569312,0.10575 -0.192905,0.032 -0.38653,0.0594 -0.580369,0.0851 -0.165359,0.0216 -0.330777,0.0428 -0.496348,0.0628 -0.156927,0.0188 -0.314015,0.0363 -0.471162,0.0532 -0.149524,0.0162 -0.299235,0.0305 -0.449013,0.0441 -0.135279,0.0143 -0.270584,0.0282 -0.406064,0.0405 -0.185031,0.016 -0.370335,0.0286 -0.555639,0.041 -0.167981,0.0112 -0.336065,0.0208 -0.504153,0.0302 -0.0363,0.002 -0.121515,0.007 -0.157226,0.009 -0.02492,0.001 0.04997,-10e-4 0.07477,-0.004 0.08644,-0.01 0.173914,-0.0149 0.258763,-0.0342 0.557765,-0.12646 0.488381,-0.1311 1.016489,-0.38702 0.134274,-0.0984 0.268547,-0.19676 0.402821,-0.29515 -3.596648,3.275 -8.228193,-1.81143 -4.631545,-5.08642 v 0 c 0.185918,-0.14541 0.371832,-0.29082 0.55775,-0.43623 0.661643,-0.34318 1.33119,-0.6414 2.092245,-0.63389 0.143629,-0.008 0.287261,-0.0162 0.430803,-0.0257 0.133921,-0.009 0.267853,-0.0179 0.401621,-0.029 0.133205,-0.0116 0.265952,-0.0277 0.399103,-0.0399 0.111718,-0.0101 0.223388,-0.0207 0.334912,-0.0328 0.127712,-0.0137 0.255374,-0.0279 0.382905,-0.0431 0.13992,-0.0168 0.279689,-0.0348 0.419431,-0.0531 0.11435,-0.015 0.228574,-0.031 0.342413,-0.0495 0.110588,-0.0183 0.220816,-0.0386 0.330587,-0.0614 0.141054,-0.0288 0.282247,-0.0569 0.422939,-0.0874 0.219871,-0.0467 0.440044,-0.0923 0.661942,-0.1285 0.242044,-0.0404 0.484267,-0.0803 0.72785,-0.1105 0.302554,-0.0365 0.606195,-0.0654 0.911149,-0.0702 0.291227,-0.005 0.582567,-0.001 0.873117,0.0213 0.335796,0.0251 0.670967,0.0612 1.001588,0.12677 0.240128,0.0481 0.47947,0.1001 0.717214,0.15899 0.24607,0.0611 0.491342,0.12543 0.734369,0.19779 0.249095,0.0741 0.497293,0.15125 0.743585,0.23425 0.261803,0.0884 0.522838,0.17904 0.782662,0.2731 0.315857,0.11544 0.630803,0.23386 0.939077,0.36851 0.224841,0.0988 0.447903,0.20147 0.672693,0.30036 0.187939,0.0798 0.375901,0.15958 0.565489,0.23538 0.213928,0.0826 0.430876,0.15708 0.645133,0.23887 0.262882,0.0993 0.525703,0.19904 0.784397,0.30896 0.212778,0.0893 0.424691,0.18067 0.636926,0.27129 0.222409,0.0918 0.445484,0.18208 0.667629,0.27458 0.259225,0.10497 0.518437,0.20998 0.777615,0.31506 0.308573,0.12594 0.616657,0.25307 0.922433,0.3857 0.329224,0.14113 0.658715,0.28164 0.987391,0.42405 0.365051,0.15902 0.72844,0.32189 1.08603,0.49718 0.34332,0.16734 0.685419,0.33722 1.023389,0.51517 0.308378,0.16257 0.615739,0.32712 0.927439,0.4833 0.355494,0.17977 0.710179,0.3611 1.062826,0.54642 0.401074,0.20699 0.800097,0.41805 1.189948,0.64569 0.388321,0.22806 0.770069,0.46667 1.145235,0.71583 0.369753,0.24305 0.737532,0.48914 1.101728,0.74044 0.372896,0.26218 0.740016,0.53228 1.104336,0.80625 0.416748,0.31535 0.82459,0.64206 1.213806,0.99114 0.412215,0.36591 0.818118,0.73934 1.197128,1.14001 0.362746,0.38116 0.720918,0.76681 1.065792,1.1643 0.364958,0.42322 0.720696,0.85427 1.067538,1.29249 0.385162,0.48875 0.765837,0.98113 1.13247,1.484 0.388554,0.53694 0.773969,1.07691 1.125029,1.63942 0.347171,0.56979 0.675188,1.15107 0.967843,1.75101 0.293825,0.60689 0.572503,1.22107 0.824302,1.84673 0.272941,0.68165 0.533812,1.36829 0.762024,2.0664 0.212193,0.65515 0.413993,1.31359 0.602763,1.9759 0.194524,0.69417 0.374438,1.39242 0.516916,2.09938 0.138809,0.67193 0.269835,1.34538 0.394454,2.02008 0.124357,0.65801 0.253609,1.31513 0.368694,1.97486 0.109638,0.64068 0.213879,1.28238 0.299231,1.92681 0.08397,0.66491 0.154697,1.33136 0.204152,1.99981 0.04975,0.65143 0.09515,1.30325 0.126196,1.95587 0.02758,0.59862 0.04508,1.19756 0.05334,1.79678 0.0098,0.62768 0.01429,1.2554 0.01632,1.88315 0.0027,0.67697 0.0039,1.35394 0.0029,2.03091 -0.0035,0.65586 -0.0099,1.31176 -0.02982,1.96735 -0.02093,0.63702 -0.04602,1.27413 -0.09759,1.90952 -0.04972,0.59406 -0.10681,1.18749 -0.173625,1.77989 -0.06951,0.60712 -0.144097,1.21379 -0.243364,1.81689 -0.10333,0.63069 -0.211862,1.26094 -0.355113,1.88401 -0.139642,0.59333 -0.293409,1.18353 -0.488386,1.76145 -0.168339,0.50403 -0.344787,1.00529 -0.526251,1.50475 -0.206103,0.56537 -0.417137,1.12894 -0.639358,1.6882 -0.23963,0.60121 -0.48446,1.20042 -0.745924,1.79253 -0.263289,0.59578 -0.530428,1.18993 -0.81049,1.77804 -0.306186,0.63626 -0.619464,1.26918 -0.948558,1.89396 -0.38704,0.72498 -0.788659,1.44392 -1.265737,2.11457 -0.448982,0.62166 -0.925013,1.22335 -1.458217,1.77579 -0.482208,0.50578 -0.976624,1.00006 -1.500367,1.4632 -0.507328,0.45111 -1.023369,0.89218 -1.545958,1.32553 -0.586031,0.48477 -1.179359,0.96138 -1.801913,1.39894 -0.615767,0.43102 -1.241197,0.84816 -1.884569,1.23714 -0.671608,0.4069 -1.34684,0.80834 -2.03694,1.18331 -0.750019,0.40067 -1.510432,0.7817 -2.289391,1.1234 -0.756201,0.33193 -1.518849,0.6488 -2.290874,0.94231 -0.776012,0.29572 -1.55556,0.58206 -2.342684,0.84704 -0.777402,0.26491 -1.554208,0.5316 -2.332969,0.79249 -0.880139,0.28985 -1.766724,0.56231 -2.672265,0.76249 -0.885304,0.19391 -1.777061,0.35743 -2.677435,0.46461 -0.874776,0.10374 -1.751738,0.19141 -2.63179,0.23567 -0.843446,0.04 -1.687978,0.0637 -2.532327,0.0371 -0.838636,-0.0282 -1.676617,-0.0802 -2.508506,-0.19452 -0.786972,-0.11066 -1.569466,-0.24861 -2.346685,-0.41496 -0.770358,-0.16247 -1.539185,-0.333 -2.3007,-0.53344 -0.758947,-0.20126 -1.514338,-0.41571 -2.261913,-0.65619 -0.758597,-0.24035 -1.515343,-0.48671 -2.265301,-0.75302 -0.76608,-0.27089 -1.530504,-0.54675 -2.287657,-0.84184 -0.773848,-0.30576 -1.542441,-0.62576 -2.288995,-0.99414 -0.675306,-0.33683 -1.341148,-0.6918 -1.994152,-1.07029 -0.633273,-0.36825 -1.259969,-0.74798 -1.866152,-1.15975 -0.609341,-0.41267 -1.209083,-0.83966 -1.781874,-1.30227 -0.565289,-0.45431 -1.121705,-0.9195 -1.662075,-1.40334 -0.547591,-0.48915 -1.092844,-0.98092 -1.631677,-1.47973 -0.591249,-0.54899 -1.183501,-1.09741 -1.750833,-1.67133 -0.625085,-0.6409 -1.236799,-1.29603 -1.79245,-1.99893 -0.590247,-0.75644 -1.153277,-1.53486 -1.637974,-2.36422 -0.485637,-0.83728 -0.942204,-1.69168 -1.325735,-2.5813 -0.387317,-0.89524 -0.750592,-1.80094 -1.054122,-2.7285 -0.304191,-0.91424 -0.59717,-1.83227 -0.861836,-2.75885 -0.2751345,-0.97418 -0.5326532,-1.95345 -0.7473451,-2.94295 -0.2145763,-0.99847 -0.408972,-2.0014 -0.5567966,-3.01219 -0.1404532,-0.98528 -0.2584751,-1.97398 -0.3125742,-2.96828 -0.050938,-0.94015 -0.082422,-1.88164 -0.063859,-2.82331 0.021558,-0.87316 0.062658,-1.7456 0.1298991,-2.61653 0.068182,-0.88146 0.1498563,-1.76187 0.2570041,-2.63953 0.1161126,-0.94386 0.2451798,-1.88618 0.4045865,-2.82381 0.1655813,-0.963 0.3420417,-1.92422 0.5485633,-2.87939 0.2115059,-0.9677 0.4360139,-1.93295 0.7106029,-2.88502 0.268558,-0.92221 0.55523,-1.83937 0.890864,-2.73972 0.326808,-0.87774 0.666841,-1.75069 1.040714,-2.60963 0.382518,-0.87522 0.777388,-1.74517 1.200461,-2.60166 0.427544,-0.85659 0.869229,-1.70621 1.336965,-2.54166 0.483921,-0.8518 0.988652,-1.6925 1.558775,-2.49014 0.555448,-0.77293 1.134118,-1.52954 1.768501,-2.24005 0.617747,-0.68821 1.252796,-1.36141 1.933135,-1.98865 0.666109,-0.60777 1.352286,-1.19292 2.073939,-1.73433 0.730465,-0.55163 1.474323,-1.08619 2.257249,-1.56178 0.768656,-0.46795 1.550971,-0.91434 2.366727,-1.29602 0.702574,-0.32762 1.413285,-0.63707 2.13229,-0.92703 0.672936,-0.26983 1.350748,-0.5279 2.040729,-0.75134 0.617519,-0.19819 1.239353,-0.38336 1.871569,-0.52942 0.466781,-0.11057 0.934464,-0.21748 1.39953,-0.33518 0.41847,-0.10552 0.836377,-0.21323 1.252884,-0.32629 0.35142,-0.0949 0.702503,-0.19123 1.050801,-0.29717 0.408945,-0.12156 0.819115,-0.24023 1.236818,-0.32845 0.296966,-0.0626 0.594746,-0.12127 0.891717,-0.18388 0.291664,-0.0581 0.583523,-0.11614 0.878385,-0.15588 4.820769,-0.64936 5.739096,6.16824 0.918327,6.81759 z"
       inkscape:connector-curvature="0" />
    <path
       style="opacity:1;fill:#020900;fill-opacity:1;stroke:none;stroke-width:1;stroke-linecap:butt;stroke-linejoin:round;stroke-miterlimit:4;stroke-dasharray:none;stroke-opacity:1"
       id="path148"
       d="m 91.064222,236.81905 c -0.216445,-0.0311 -0.433091,-0.0607 -0.649407,-0.0928 -0.312407,-0.0481 -0.624028,-0.10106 -0.935855,-0.15272 -0.335251,-0.0549 -0.670846,-0.10779 -1.006586,-0.15966 -0.344517,-0.0523 -0.689742,-0.0999 -1.034979,-0.1472 -0.293676,-0.04 -0.587462,-0.0792 -0.882618,-0.10656 -0.238305,-0.023 -0.477771,-0.0277 -0.716986,-0.0315 -0.251944,-0.006 -0.503812,-0.002 -0.755484,0.01 -0.270094,0.0148 -0.539445,0.0403 -0.808278,0.0698 -0.323326,0.0367 -0.645623,0.0819 -0.967113,0.13202 -0.362106,0.057 -0.723029,0.12104 -1.083881,0.18536 -0.389554,0.0704 -0.779873,0.13648 -1.170517,0.20052 -0.359595,0.0593 -0.719108,0.11908 -1.078804,0.17774 -0.408183,0.0684 -0.817139,0.13189 -1.22678,0.19093 -0.49376,0.0707 -0.98942,0.12663 -1.485482,0.1782 -0.567513,0.063 -1.137275,0.0986 -1.707669,0.12085 -0.550767,0.0179 -1.101809,0.0253 -1.652788,0.0334 -0.542626,0.009 -1.085279,0.0141 -1.627966,0.0167 -0.525835,2.2e-4 -1.051665,-0.003 -1.577493,-0.006 -0.499994,-0.003 -0.99999,-0.005 -1.499984,-0.007 -0.514464,-0.002 -1.028925,-0.004 -1.543388,-0.006 -0.532461,-0.002 -1.064924,-0.003 -1.597385,-0.005 -0.564425,-0.001 -1.12885,-0.003 -1.693275,-0.004 -0.57567,-0.001 -1.151337,-0.002 -1.727007,-0.003 -0.578885,-8e-4 -1.157767,-0.001 -1.736648,-0.004 -0.556443,-0.001 -1.112851,-0.006 -1.669257,-0.0125 -0.520559,-0.006 -1.041124,-0.0122 -1.561692,-0.0177 -0.511289,-0.005 -1.022586,-0.01 -1.533882,-0.0144 -0.483688,-0.004 -0.96737,-0.01 -1.451073,-0.006 -0.475967,0.004 -0.951646,0.0213 -1.427282,0.038 -0.526584,0.0189 -1.053248,0.0354 -1.579938,0.051 -0.526526,0.0155 -1.053116,0.0287 -1.579719,0.0413 -0.51259,0.0121 -1.025218,0.0227 -1.537853,0.0328 -0.480526,0.009 -0.96107,0.0179 -1.441619,0.0261 -0.434769,0.007 -0.869511,0.014 -1.304216,0.0239 -0.393579,0.008 -0.787035,0.0201 -1.180486,0.0327 -0.383779,0.013 -0.767549,0.0262 -1.151258,0.0412 -0.384252,0.0145 -0.768324,0.0334 -1.152464,0.0505 -0.393581,0.0168 -0.787191,0.0328 -1.180746,0.0503 -0.397081,0.0179 -0.794017,0.0389 -1.190924,0.0603 -0.416832,0.0233 -0.833932,0.0414 -1.25086,0.0629 -0.373517,0.0194 -0.74659,0.0462 -1.119571,0.0738 -0.393134,0.0294 -0.786209,0.0595 -1.179443,0.0875 -0.371335,0.0246 -0.742445,0.0523 -1.113547,0.0802 -0.369364,0.0281 -0.738942,0.0532 -1.108607,0.0769 -0.363006,0.023 -0.726183,0.0431 -1.089422,0.062 -0.363085,0.0183 -0.72622,0.0354 -1.089265,0.0545 -0.406858,0.0219 -0.813893,0.0401 -1.221,0.0567 -0.454755,0.018 -0.909645,0.0323 -1.364556,0.0456 -0.485625,0.014 -0.97132,0.0253 -1.457029,0.0359 -0.50482,0.0109 -1.009676,0.0199 -1.51454,0.0284 -0.503173,0.008 -1.006364,0.0156 -1.509558,0.0226 -0.458412,0.006 -0.916806,0.0125 -1.37519,0.02 -0.406839,0.007 -0.81368,0.0134 -1.220523,0.02 -0.350477,0.006 -0.700958,0.0109 -1.051442,0.0161 -0.314856,0.005 -0.629717,0.009 -0.944579,0.0129 -0.267843,0.003 -0.535688,0.007 -0.803532,0.0102 -0.216436,0.003 -0.432871,0.005 -0.649307,0.008 -0.175191,0.002 -0.350381,0.004 -0.525572,0.006 -0.141746,0.002 -0.283491,0.003 -0.425237,0.005 -0.120178,0.002 -0.240358,0.003 -0.360537,0.004 -0.102425,0.001 -0.204849,0.002 -0.307274,0.003 -0.08381,7.9e-4 -0.167614,0.002 -0.251421,0.003 -0.06727,8e-4 -0.134541,0.001 -0.201812,0.002 -0.03074,6e-5 -0.212851,0.003 -0.08261,5.3e-4 1.13999,-0.0528 2.174019,-0.65728 2.773848,-1.65224 0.230078,-0.38164 0.290703,-0.84251 0.436054,-1.26377 -0.595731,4.82769 -7.423112,3.9852 -6.827382,-0.84249 v 0 c 0.149189,-0.45235 0.20732,-0.94577 0.447567,-1.35707 0.626828,-1.07311 1.7312,-1.69879 2.942546,-1.75984 0.07969,-0.002 0.159375,-0.004 0.239094,-0.004 0.06724,-7.9e-4 0.134477,-0.001 0.201716,-0.002 0.08309,-8e-4 0.166177,-0.002 0.249265,-0.003 0.101528,-0.001 0.203057,-0.002 0.304586,-0.003 0.117876,-0.001 0.235751,-0.003 0.353625,-0.004 0.14135,-0.002 0.282699,-0.003 0.424048,-0.005 0.174666,-0.002 0.349332,-0.004 0.523997,-0.006 0.216186,-0.003 0.432371,-0.005 0.648557,-0.008 0.266678,-0.003 0.533355,-0.007 0.800032,-0.0102 0.311182,-0.004 0.622364,-0.008 0.933539,-0.0127 0.347403,-0.005 0.694802,-0.0104 1.042198,-0.016 0.405628,-0.006 0.811253,-0.0131 1.216876,-0.0199 0.46435,-0.008 0.92871,-0.0145 1.393087,-0.0203 0.496455,-0.007 0.992908,-0.014 1.489342,-0.0222 0.493382,-0.008 0.986756,-0.0171 1.480093,-0.0278 0.468807,-0.0102 0.937601,-0.0211 1.406329,-0.0346 0.429157,-0.0125 0.858293,-0.0259 1.287301,-0.0429 0.379807,-0.0154 0.759548,-0.0324 1.139119,-0.0529 0.364056,-0.0191 0.728197,-0.0364 1.092295,-0.0546 0.335283,-0.0174 0.670507,-0.036 1.005575,-0.0572 0.345099,-0.0222 0.690118,-0.0456 1.034934,-0.0718 0.379862,-0.0285 0.759733,-0.0569 1.139833,-0.0821 0.386972,-0.0275 0.773777,-0.0573 1.16065,-0.0861 0.42472,-0.0314 0.849559,-0.0616 1.274892,-0.0835 0.410631,-0.021 0.82141,-0.0391 1.231951,-0.0619 0.418798,-0.0226 0.837633,-0.0446 1.25662,-0.0635 0.39294,-0.0175 0.785934,-0.0335 1.178904,-0.0502 0.397446,-0.0178 0.794824,-0.0372 1.192387,-0.0522 0.399838,-0.0155 0.799737,-0.0294 1.199647,-0.0429 0.413975,-0.0132 0.827961,-0.026 1.242068,-0.0343 0.44809,-0.0102 0.89622,-0.0179 1.344374,-0.0247 0.474361,-0.008 0.948717,-0.0165 1.423054,-0.0257 0.503158,-0.01 1.006308,-0.0203 1.509424,-0.0322 0.513374,-0.0122 1.026731,-0.0251 1.540031,-0.0402 0.51408,-0.0152 1.028134,-0.0313 1.542111,-0.0497 0.540705,-0.019 1.081479,-0.0383 1.62256,-0.0421 0.518784,-0.003 1.037539,0.001 1.556303,0.006 0.515752,0.004 1.031501,0.009 1.547246,0.0145 0.523028,0.005 1.046054,0.0114 1.569074,0.0178 0.539343,0.006 1.078691,0.0109 1.618073,0.0121 0.572929,0.002 1.145863,0.003 1.718797,0.004 0.576595,7.9e-4 1.153191,0.002 1.729785,0.003 0.565848,0.001 1.131694,0.002 1.69754,0.004 0.534376,0.001 1.068752,0.003 1.603129,0.005 0.516736,0.002 1.033473,0.004 1.550207,0.006 0.502084,0.002 1.004167,0.005 1.506251,0.007 0.502669,0.003 1.00534,0.006 1.508017,0.006 0.519935,-0.002 1.039839,-0.008 1.559716,-0.016 0.49802,-0.007 0.996093,-0.0139 1.493943,-0.0292 0.420299,-0.0151 0.839984,-0.0422 1.258054,-0.0891 0.405784,-0.0419 0.811266,-0.0873 1.215192,-0.14475 0.36717,-0.0528 0.733631,-0.11005 1.099468,-0.17139 0.357968,-0.0584 0.715738,-0.11793 1.073608,-0.17689 0.358986,-0.0588 0.717655,-0.11955 1.075623,-0.18429 0.411819,-0.0734 0.823786,-0.14616 1.237076,-0.21089 0.425672,-0.0657 0.852268,-0.12573 1.280395,-0.17326 0.410689,-0.0441 0.822124,-0.0824 1.234776,-0.10258 0.395227,-0.0174 0.790739,-0.025 1.186336,-0.016 0.418537,0.007 0.837224,0.0207 1.254056,0.0616 0.388687,0.0377 0.776246,0.0851 1.163006,0.13915 0.384172,0.0527 0.768315,0.1057 1.151649,0.1642 0.360312,0.0557 0.720463,0.11244 1.080246,0.17146 0.273674,0.0453 0.547182,0.0917 0.82124,0.13472 0.228637,0.034 0.45779,0.0643 0.686409,0.0984 4.807661,0.74016 3.760922,7.53922 -1.046742,6.79907 z"
       inkscape:connector-curvature="0" />
  </g>
</svg>
