<svg viewBox="0 0 100 100"><path style="opacity:1;fill:#020900;fill-opacity:1;stroke:none;stroke-width:1;stroke-linecap:butt;stroke-linejoin:round;stroke-miterlimit:4;stroke-dasharray:none;stroke-opacity:1" d="M40.66 220.174c-.152.023-.303.055-.454.085-.269.058-.54.11-.809.167-.236.052-.468.123-.7.192a42 42 0 0 1-1.218.345q-.681.183-1.366.355c-.497.126-.997.24-1.496.359-.456.105-.904.24-1.348.384-.537.174-1.063.376-1.586.587q-.902.364-1.784.775a18 18 0 0 0-1.694.935 20 20 0 0 0-1.693 1.178 21 21 0 0 0-1.58 1.323 23 23 0 0 0-1.453 1.503 20 20 0 0 0-1.3 1.657 21 21 0 0 0-1.167 1.876q-.608 1.096-1.164 2.218a54 54 0 0 0-1.053 2.285 45 45 0 0 0-.897 2.255c-.277.743-.512 1.5-.733 2.261a39 39 0 0 0-.595 2.433 55 55 0 0 0-1.072 7.404q-.087 1.126-.112 2.254c-.013.76.013 1.521.055 2.28.044.794.14 1.584.254 2.37a39 39 0 0 0 1.114 5.058c.236.826.498 1.644.769 2.458.24.737.53 1.455.838 2.165.278.64.608 1.256.96 1.858.329.555.71 1.076 1.108 1.583.404.503.847.973 1.298 1.433.49.493 1.002.965 1.51 1.438q.762.701 1.535 1.39.677.603 1.385 1.17c.427.344.874.66 1.328.967.477.324.97.621 1.47.91q.788.455 1.603.86c.57.28 1.157.522 1.748.754a71 71 0 0 0 4.106 1.436c.643.207 1.293.392 1.946.564.648.17 1.302.314 1.958.452a26 26 0 0 0 1.875.333c.592.08 1.188.114 1.785.133.66.02 1.32 0 1.979-.033a33 33 0 0 0 2.147-.195 21 21 0 0 0 2.01-.352c.678-.151 1.34-.36 2-.577q1.134-.384 2.269-.772a55 55 0 0 0 2.11-.763 42 42 0 0 0 1.974-.812 26 26 0 0 0 1.811-.89 45 45 0 0 0 1.718-1.002c.512-.31 1.01-.643 1.501-.987.472-.333.92-.697 1.364-1.065q.69-.571 1.36-1.165c.38-.337.74-.698 1.09-1.067.313-.324.592-.677.853-1.044.294-.426.54-.882.783-1.339a52 52 0 0 0 .82-1.64q.37-.784.718-1.577c.227-.515.44-1.036.648-1.559a56 56 0 0 0 1.03-2.823c.127-.378.226-.764.316-1.153a30 30 0 0 0 .462-2.914q.089-.784.153-1.57c.041-.52.06-1.042.077-1.563.018-.593.024-1.186.027-1.78q0-.982-.003-1.966a148 148 0 0 0-.016-1.803 48 48 0 0 0-.047-1.585 62 62 0 0 0-.113-1.75q-.063-.832-.17-1.66a46 46 0 0 0-.255-1.63c-.109-.621-.23-1.24-.348-1.86a91 91 0 0 0-.371-1.904 22 22 0 0 0-.403-1.632 51 51 0 0 0-.524-1.714 27 27 0 0 0-.603-1.628 22 22 0 0 0-.628-1.404 14 14 0 0 0-.645-1.161c-.262-.41-.546-.805-.831-1.198a43 43 0 0 0-.963-1.26 32 32 0 0 0-.87-1.054 28 28 0 0 0-.842-.917c-.246-.26-.512-.5-.78-.737-.254-.23-.522-.443-.796-.65q-.449-.34-.91-.665-.46-.315-.927-.62a17 17 0 0 0-.844-.53 19 19 0 0 0-.868-.469q-.506-.264-1.013-.52c-.347-.174-.689-.357-1.031-.537q-.41-.215-.829-.417c-.27-.132-.543-.254-.819-.374l-.952-.409a39 39 0 0 0-.811-.339l-.76-.308-.71-.292-.676-.287c-.182-.078-.368-.147-.553-.217q-.34-.124-.678-.251a30 30 0 0 1-.789-.326c-.25-.107-.497-.223-.747-.332a9 9 0 0 0-.536-.207 31 31 0 0 0-.622-.217 15 15 0 0 0-.503-.158 10 10 0 0 0-.837-.204q-.075-.009-.15-.012a2 2 0 0 0-.245-.005c-.07 0-.14.011-.21.02q-.215.03-.431.068-.184.031-.366.072l-.477.099a16 16 0 0 1-1.15.19 52 52 0 0 1-.967.116q-.225.024-.45.045-.202.021-.405.04a29 29 0 0 1-1.06.071l-.157.01c-.025 0 .05-.002.074-.005.087-.01.174-.015.26-.034.557-.126.488-.131 1.016-.387l.403-.295c-3.597 3.275-8.229-1.812-4.632-5.087l.558-.436c.661-.343 1.33-.641 2.092-.634l.43-.025q.203-.013.402-.03.2-.018.4-.04a19 19 0 0 0 .717-.075l.42-.053q.171-.022.342-.05.166-.027.33-.061.213-.042.424-.088c.22-.046.44-.092.662-.128.242-.04.484-.08.728-.11a8.8 8.8 0 0 1 1.784-.05c.336.026.67.062 1.001.127a16 16 0 0 1 1.452.357q.373.11.744.234.392.133.782.273c.316.116.631.234.94.369l.672.3q.282.121.565.236c.214.082.431.157.646.239q.394.147.784.308l.637.272.668.274.777.315q.464.188.923.386l.987.424c.365.16.728.322 1.086.497q.515.25 1.023.516c.309.162.616.327.928.483q.533.269 1.063.546a26 26 0 0 1 1.19.646q.582.342 1.145.716.555.364 1.102.74.558.394 1.104.806c.417.316.824.642 1.214.992.412.365.818.739 1.197 1.14q.546.569 1.066 1.164.547.635 1.067 1.292c.385.49.766.982 1.133 1.484.388.537.774 1.077 1.125 1.64.347.57.675 1.15.968 1.75.293.608.572 1.222.824 1.848.273.681.534 1.368.762 2.066q.319.983.603 1.976a30 30 0 0 1 .517 2.1q.207 1.007.394 2.02c.124.657.254 1.314.369 1.974.11.64.214 1.283.299 1.927.084.665.155 1.331.204 2 .05.651.095 1.303.126 1.956q.041.897.054 1.796.014.942.016 1.884.005 1.016.003 2.03a81 81 0 0 1-.03 1.968c-.02.637-.046 1.274-.098 1.91q-.074.89-.173 1.78c-.07.606-.144 1.213-.244 1.816-.103.63-.211 1.261-.355 1.884a19 19 0 0 1-.488 1.762 63 63 0 0 1-1.166 3.193c-.24.6-.484 1.2-.746 1.792-.263.596-.53 1.19-.81 1.778q-.457.956-.949 1.894c-.387.725-.788 1.444-1.265 2.115a16 16 0 0 1-1.459 1.775c-.482.506-.976 1-1.5 1.464q-.761.675-1.546 1.325a29 29 0 0 1-1.802 1.4c-.616.43-1.241.847-1.884 1.236-.672.407-1.347.809-2.037 1.184-.75.4-1.51.781-2.29 1.123-.756.332-1.519.649-2.29.942a63 63 0 0 1-2.343.847q-1.166.4-2.333.793c-.88.29-1.767.562-2.673.762-.885.194-1.777.358-2.677.465-.875.104-1.752.191-2.632.236-.843.04-1.688.063-2.532.037a24 24 0 0 1-2.509-.195q-1.181-.165-2.346-.415c-.77-.162-1.54-.333-2.301-.533a45 45 0 0 1-2.262-.656 77 77 0 0 1-4.553-1.595 30 30 0 0 1-2.289-.994 36 36 0 0 1-1.994-1.07 31 31 0 0 1-1.866-1.16c-.61-.413-1.21-.84-1.782-1.303a41 41 0 0 1-1.662-1.403q-.823-.733-1.632-1.48c-.591-.549-1.183-1.097-1.75-1.671a26 26 0 0 1-1.793-2c-.59-.756-1.153-1.534-1.638-2.363a25 25 0 0 1-1.326-2.582c-.387-.895-.75-1.8-1.054-2.728a67 67 0 0 1-.862-2.759 46 46 0 0 1-1.304-5.955 34 34 0 0 1-.312-2.968 38 38 0 0 1-.064-2.824q.03-1.31.13-2.616a60 60 0 0 1 .661-5.464c.166-.963.342-1.924.549-2.879.211-.968.436-1.933.71-2.885.269-.922.556-1.84.891-2.74a54 54 0 0 1 1.04-2.61c.383-.875.778-1.744 1.201-2.601a62 62 0 0 1 1.337-2.542c.484-.851.989-1.692 1.56-2.49a27 27 0 0 1 1.768-2.24 29 29 0 0 1 1.933-1.988 28 28 0 0 1 2.074-1.735 27 27 0 0 1 2.257-1.562 25 25 0 0 1 2.367-1.296 44 44 0 0 1 2.132-.927c.673-.27 1.35-.528 2.04-.751.618-.198 1.24-.383 1.872-.53.467-.11.935-.217 1.4-.335q.627-.157 1.253-.326c.351-.095.702-.191 1.05-.297.41-.122.82-.24 1.237-.328l.892-.184c.292-.058.584-.117.878-.156 4.821-.65 5.74 6.168.919 6.817" transform="translate(0 -197)"/><path style="opacity:1;fill:#020900;fill-opacity:1;stroke:none;stroke-width:1;stroke-linecap:butt;stroke-linejoin:round;stroke-miterlimit:4;stroke-dasharray:none;stroke-opacity:1" d="m91.064 236.82-.65-.094q-.468-.073-.935-.152-.502-.082-1.007-.16-.517-.077-1.035-.147c-.293-.04-.587-.08-.882-.107a9 9 0 0 0-.717-.031 10.6 10.6 0 0 0-1.564.08q-.485.055-.967.131-.543.087-1.084.186-.585.105-1.17.2l-1.08.178q-.61.102-1.226.191-.742.103-1.486.178c-.567.063-1.137.099-1.707.121-.551.018-1.102.025-1.653.033q-.814.014-1.628.017-.79 0-1.577-.006l-1.5-.007-1.544-.006-1.597-.005q-.848-.001-1.693-.004l-1.728-.003q-.867.001-1.736-.004a169 169 0 0 1-1.67-.012q-.78-.01-1.561-.018l-1.534-.014c-.484-.004-.967-.01-1.451-.006-.476.004-.952.02-1.427.038a252 252 0 0 1-3.16.092 394 394 0 0 1-2.98.059q-.651.01-1.304.024-.59.013-1.18.032-.576.02-1.151.042-.577.023-1.153.05l-1.18.05q-.597.028-1.192.06c-.416.024-.833.042-1.25.064q-.56.03-1.12.073-.59.046-1.18.088-.556.037-1.113.08a93 93 0 0 1-2.198.139l-1.09.054a94 94 0 0 1-2.585.103 208 208 0 0 1-2.971.064 760 760 0 0 1-2.885.043l-1.22.02-1.052.016-.945.013-.803.01-.65.008-.525.006-.425.005-.36.004q-.155 0-.308.003l-.252.003-.201.002c-.031 0-.213.003-.083 0a3.4 3.4 0 0 0 2.774-1.652c.23-.382.29-.842.436-1.264-.596 4.828-7.423 3.986-6.827-.842.149-.452.207-.946.447-1.357.627-1.073 1.731-1.699 2.943-1.76q.12-.004.239-.004l.201-.002q.126 0 .25-.003l.304-.003.354-.004.424-.005.524-.006.649-.008.8-.01.933-.013 1.042-.016 1.217-.02q.697-.012 1.393-.02a616 616 0 0 0 2.97-.05q.703-.015 1.406-.035.644-.018 1.287-.043.57-.022 1.14-.053.545-.028 1.092-.054a89 89 0 0 0 2.04-.13q.57-.043 1.14-.081l1.16-.086q.637-.05 1.276-.084.615-.029 1.232-.062.627-.034 1.256-.063l1.18-.05q.595-.029 1.191-.053l1.2-.043q.621-.02 1.242-.034.672-.015 1.345-.025a563 563 0 0 0 2.932-.057 273 273 0 0 0 3.082-.09c.54-.02 1.082-.039 1.623-.042q.778-.004 1.556.006a532 532 0 0 1 3.116.032q.81.009 1.618.012l1.72.004 1.729.003 1.698.004 1.603.005 1.55.006 1.506.007q.754.005 1.508.006.78-.004 1.56-.016a83 83 0 0 0 1.494-.03q.63-.02 1.258-.088a32 32 0 0 0 2.315-.316l1.073-.177q.54-.089 1.076-.185c.412-.073.824-.146 1.237-.21q.639-.1 1.28-.174a18 18 0 0 1 2.421-.119c.419.008.838.021 1.254.062q.585.057 1.163.14a77 77 0 0 1 2.232.335q.411.069.822.135l.686.098c4.808.74 3.76 7.54-1.047 6.8" transform="translate(0 -197)"/></svg>
