<?xml version="1.0" encoding="UTF-8" standalone="no"?>
<!-- Created with Inkscape (http://www.inkscape.org/) -->

<svg
   xmlns:dc="http://purl.org/dc/elements/1.1/"
   xmlns:cc="http://creativecommons.org/ns#"
   xmlns:rdf="http://www.w3.org/1999/02/22-rdf-syntax-ns#"
   xmlns:svg="http://www.w3.org/2000/svg"
   xmlns="http://www.w3.org/2000/svg"
   xmlns:sodipodi="http://sodipodi.sourceforge.net/DTD/sodipodi-0.dtd"
   xmlns:inkscape="http://www.inkscape.org/namespaces/inkscape"
   width="10cm"
   height="10cm"
   viewBox="0 0 100 99.999997"
   version="1.1"
   id="svg8"
   sodipodi:docname="len.svg"
   inkscape:version="0.92.3 (2405546, 2018-03-11)">
  <defs
     id="defs2" />
  <sodipodi:namedview
     id="base"
     pagecolor="#ffffff"
     bordercolor="#666666"
     borderopacity="1.0"
     inkscape:pageopacity="0.0"
     inkscape:pageshadow="2"
     inkscape:zoom="1"
     inkscape:cx="125.50186"
     inkscape:cy="200.50542"
     inkscape:document-units="cm"
     inkscape:current-layer="layer1"
     showgrid="true"
     units="cm"
     inkscape:window-width="1920"
     inkscape:window-height="1017"
     inkscape:window-x="-8"
     inkscape:window-y="-8"
     inkscape:window-maximized="1"
     inkscape:snap-nodes="false">
    <inkscape:grid
       type="xygrid"
       id="grid815"
       units="cm"
       spacingx="9.9999998"
       spacingy="9.9999998" />
  </sodipodi:namedview>
  <metadata
     id="metadata5">
    <rdf:RDF>
      <cc:Work
         rdf:about="">
        <dc:format>image/svg+xml</dc:format>
        <dc:type
           rdf:resource="http://purl.org/dc/dcmitype/StillImage" />
        <dc:title></dc:title>
      </cc:Work>
    </rdf:RDF>
  </metadata>
  <g
     inkscape:label="Layer 1"
     inkscape:groupmode="layer"
     id="layer1"
     transform="translate(0,-197.00002)">
    <path
       style="opacity:1;fill:#020900;fill-opacity:1;stroke:none;stroke-width:1;stroke-linecap:butt;stroke-linejoin:round;stroke-miterlimit:4;stroke-dasharray:none;stroke-opacity:1"
       id="path1161"
       d="m 16.030311,277.94918 c 0.03635,-0.12844 0.07148,-0.25712 0.09903,-0.38776 0.0315,-0.16507 0.05172,-0.33197 0.07115,-0.4988 0.035,-0.31471 0.06058,-0.63038 0.0738,-0.94674 0.01326,-0.42354 0.0077,-0.84739 0.0053,-1.27105 -0.0025,-0.54164 -0.0081,-1.08325 -0.01285,-1.62488 -0.0055,-0.61709 -0.0099,-1.23419 -0.01398,-1.85129 -0.0043,-0.66201 -0.0079,-1.32402 -0.01122,-1.98603 -0.0045,-0.70634 -0.006,-1.41267 -0.0049,-2.11902 0.0017,-0.73644 0.0037,-1.47288 0.0056,-2.20933 0.0032,-0.72369 -3.44e-4,-1.44738 -0.005,-2.17105 -0.0055,-0.75612 -0.0095,-1.51224 -0.01521,-2.26836 -0.0084,-0.78437 -0.02752,-1.56857 -0.04795,-2.3527 -0.02383,-0.85519 -0.0558,-1.71012 -0.08554,-2.56511 -0.03345,-0.89278 -0.06493,-1.78562 -0.09411,-2.67854 -0.02957,-0.91007 -0.05458,-1.82027 -0.07813,-2.7305 -0.02286,-0.89309 -0.04306,-1.78625 -0.06215,-2.67943 -0.01863,-0.87799 -0.03451,-1.75604 -0.04952,-2.6341 -0.01168,-0.88302 -0.01669,-1.76611 -0.02216,-2.64919 -0.0055,-0.85427 -0.01989,-1.70843 -0.03941,-2.56248 -0.02164,-0.83189 -0.04905,-1.66362 -0.07473,-2.4954 -0.02369,-0.77756 -0.04676,-1.55514 -0.06708,-2.33279 -0.02104,-0.73382 -0.0215,-1.46789 -0.0079,-2.20181 0.0146,-0.63363 0.04114,-1.2669 0.06554,-1.90021 0.02123,-0.54631 0.04122,-1.09268 0.06009,-1.63909 0.01925,-0.53249 0.03998,-1.06492 0.05932,-1.59741 0.01677,-0.47417 0.0344,-0.94831 0.04927,-1.42254 0.0117,-0.37779 0.01296,-0.75578 0.0144,-1.13372 0.0011,-0.33716 0.0017,-0.67433 0.0024,-1.0115 6.09e-4,-0.30401 0.0011,-0.60802 0.0016,-0.91203 -4.5e-4,-0.25696 0.003,-0.51395 -0.0011,-0.7709 -0.0066,-0.2665 -0.0147,-0.53296 -0.02258,-0.79943 -0.0059,-0.23036 -0.01488,-0.46063 -0.02402,-0.69088 -0.0077,-0.19209 -0.01549,-0.38418 -0.02329,-0.57627 -0.03064,-0.40479 0.0087,-0.8065 0.06843,-1.20645 0.12838,-0.74222 0.484421,-1.38298 0.941031,-1.96937 0.366684,-0.43977 0.828378,-0.77415 1.312823,-1.07069 0.323592,-0.19203 0.659182,-0.36273 0.996694,-0.52867 0.41727,-0.2052 0.847487,-0.38199 1.280295,-0.55128 0.511163,-0.20102 1.03495,-0.36658 1.56154,-0.52164 0.535408,-0.15314 1.076328,-0.28598 1.615916,-0.42337 0.555005,-0.14108 1.110601,-0.27984 1.667887,-0.41164 0.576681,-0.13421 1.15514,-0.26067 1.733504,-0.38739 0.609336,-0.13582 1.220195,-0.26447 1.832264,-0.38732 0.666498,-0.1338 1.336029,-0.2512 2.00706,-0.35967 0.714941,-0.11714 1.434015,-0.2052 2.154113,-0.28327 0.703998,-0.0742 1.409282,-0.13525 2.114809,-0.19279 0.697458,-0.0562 1.395524,-0.10432 2.093752,-0.14977 0.701804,-0.0454 1.404048,-0.0835 2.106414,-0.11896 0.740531,-0.0383 1.481714,-0.0608 2.222976,-0.0788 0.734015,-0.0166 1.468112,-0.029 2.202214,-0.041 0.734028,-0.0119 1.468086,-0.0219 2.202148,-0.0314 0.72638,-0.007 1.452663,-0.0212 2.178868,-0.0385 0.746077,-0.0189 1.492178,-0.0368 2.238311,-0.0534 0.759265,-0.0168 1.518582,-0.0309 2.277912,-0.0442 0.764585,-0.0133 1.529204,-0.0246 2.293829,-0.0352 0.769453,-0.0106 1.53893,-0.0196 2.30841,-0.028 0.769435,-0.008 1.538886,-0.0155 2.308336,-0.0223 0.77011,-0.007 1.540227,-0.0124 2.310347,-0.0178 0.75669,-0.005 1.513383,-0.01 2.270078,-0.0142 0.754157,-0.004 1.508328,-0.006 2.262497,-0.007 0.743206,-0.002 1.486416,-10e-4 2.229625,-2.9e-4 0.768273,-0.003 1.536417,0.009 2.304333,0.0316 0.763185,0.0252 1.525741,0.0655 2.287881,0.11216 0.730901,0.0476 1.461355,0.10166 2.191372,0.16123 0.629645,0.0526 1.258866,0.11007 1.888151,0.16676 0.508188,0.0457 1.016405,0.0912 1.524643,0.1364 0.411432,0.0362 0.822788,0.0736 1.234802,0.10263 0.341234,0.0249 0.683239,0.0361 1.025097,0.0484 0.294343,0.01 0.588817,0.0153 0.883258,0.0212 0.248772,0.005 0.497547,0.01 0.746318,0.0148 0.285618,0.001 0.57023,0.0135 0.854941,0.0358 0.985221,0.0871 1.71197,0.51478 2.451721,1.1421 0.791549,0.81793 1.100704,1.83925 1.10023,2.9497 -0.01257,0.42293 -0.08821,0.83958 -0.174117,1.25267 -0.0727,0.33982 -0.169153,0.67383 -0.263596,1.00807 -0.09852,0.34513 -0.20256,0.68865 -0.304268,1.03285 -0.115134,0.39316 -0.231325,0.786 -0.343884,1.17991 -0.122487,0.43825 -0.24283,0.87709 -0.359376,1.31696 -0.129103,0.48007 -0.230063,0.96684 -0.323083,1.45496 -0.11326,0.60914 -0.202358,1.22233 -0.28543,1.83619 -0.09489,0.71283 -0.169285,1.42812 -0.239154,2.14376 -0.07581,0.78877 -0.137342,1.57881 -0.1955,2.36905 -0.06027,0.82793 -0.110321,1.65655 -0.157758,2.4853 -0.0483,0.85072 -0.08871,1.70185 -0.126402,2.5531 -0.03924,0.89328 -0.07121,1.78686 -0.101098,2.68049 -0.03178,0.9074 -0.04257,1.81525 -0.0408,2.72315 0.0053,0.97197 0.02352,1.94382 0.04214,2.91562 0.01926,1.00244 0.05166,2.00454 0.08391,3.00662 0.03042,1.00264 0.06387,2.00518 0.102886,3.00751 0.03918,0.99965 0.08598,1.99897 0.1412,2.99785 0.05559,0.97308 0.125736,1.94525 0.201901,2.91691 0.07313,0.94199 0.165193,1.88233 0.261533,2.82218 0.09541,0.91719 0.196331,1.83378 0.297918,2.7503 0.09763,0.85759 0.190452,1.71572 0.292963,2.57274 0.09778,0.78606 0.203485,1.57111 0.304638,2.35673 0.09721,0.74828 0.193403,1.49669 0.287716,2.24534 0.08945,0.69904 0.174114,1.39868 0.262871,2.09781 0.08382,0.654 0.172453,1.30739 0.261549,1.96069 0.07938,0.57944 0.158454,1.15892 0.237284,1.73843 0.06829,0.49943 0.132646,0.99939 0.195106,1.49959 0.05296,0.42378 0.102598,0.84797 0.153874,1.27196 0.04634,0.37408 0.08938,0.74855 0.13099,1.12319 0.03352,0.30869 0.06958,0.6171 0.105105,0.92557 0.02936,0.25543 0.05902,0.51084 0.08796,0.76633 0.02529,0.2249 0.04888,0.44998 0.07255,0.67506 0.01855,0.17657 0.03706,0.35315 0.05558,0.52973 0.01474,0.14053 0.02947,0.28106 0.0442,0.42158 0.0098,0.0936 0.01958,0.18724 0.0295,0.28085 0.512514,4.83723 -6.328362,5.56203 -6.840876,0.7248 v 0 c -0.01019,-0.0961 -0.02021,-0.19224 -0.03029,-0.28836 -0.01474,-0.14051 -0.02946,-0.28102 -0.04419,-0.42153 -0.01844,-0.17581 -0.03686,-0.35162 -0.05533,-0.52742 -0.02175,-0.20687 -0.04341,-0.41377 -0.06659,-0.62049 -0.02845,-0.25125 -0.05765,-0.5024 -0.08651,-0.7536 -0.03659,-0.31774 -0.07369,-0.63542 -0.108252,-0.95338 -0.03912,-0.35244 -0.07963,-0.70472 -0.123269,-1.05663 -0.05018,-0.41515 -0.09883,-0.83049 -0.150617,-1.24545 -0.05931,-0.47519 -0.120446,-0.95014 -0.185325,-1.42459 -0.07872,-0.57875 -0.157694,-1.15747 -0.236968,-1.73614 -0.09197,-0.67445 -0.183449,-1.34898 -0.269907,-2.02417 -0.08895,-0.7012 -0.174014,-1.4029 -0.263657,-2.10402 -0.09353,-0.74246 -0.188955,-1.48468 -0.285351,-2.22678 -0.103801,-0.80636 -0.2125,-1.6121 -0.312364,-2.41896 -0.104617,-0.87647 -0.200094,-1.75398 -0.299673,-2.63102 -0.103674,-0.93536 -0.206629,-1.8708 -0.30395,-2.80684 -0.101891,-0.99448 -0.198983,-1.98951 -0.276363,-2.98625 -0.0802,-1.02431 -0.154061,-2.04916 -0.212452,-3.07497 -0.05713,-1.03616 -0.105926,-2.07276 -0.146463,-3.10971 -0.03955,-1.01771 -0.07369,-2.0356 -0.104526,-3.05361 -0.0332,-1.03195 -0.06642,-2.06392 -0.08621,-3.09624 -0.01934,-1.01166 -0.03828,-2.02339 -0.04338,-3.03524 -0.0016,-0.98858 0.01,-1.97713 0.04463,-2.96517 0.03074,-0.91845 0.06364,-1.83683 0.103989,-2.75491 0.03904,-0.88086 0.08089,-1.7616 0.130911,-2.64192 0.04961,-0.86608 0.102023,-1.73203 0.165086,-2.59726 0.06226,-0.84496 0.128273,-1.68969 0.209556,-2.53306 0.07838,-0.80092 0.162218,-1.60141 0.268941,-2.39912 0.100224,-0.73747 0.20838,-1.47403 0.345818,-2.20563 0.124103,-0.64547 0.259353,-1.28898 0.430043,-1.92399 0.128011,-0.48249 0.259739,-0.96398 0.394542,-1.44461 0.118247,-0.41352 0.23999,-0.82602 0.360986,-1.23875 0.09403,-0.31816 0.190104,-0.63572 0.281647,-0.95461 0.05172,-0.18288 0.105132,-0.3654 0.150892,-0.54988 0.02585,-0.12061 0.04202,-0.22758 0.03001,-0.0286 0.02357,0.81221 0.36081,1.54156 0.931034,2.12258 0.51162,0.41924 1.053002,0.77962 1.734175,0.82216 0.256778,0.0116 -0.277879,-0.008 -0.331555,-0.005 -0.250007,-0.005 -0.500012,-0.01 -0.750017,-0.0149 -0.330533,-0.007 -0.661096,-0.0129 -0.99151,-0.0243 -0.422402,-0.0152 -0.844918,-0.0304 -1.266531,-0.0613 -0.452065,-0.0325 -0.903589,-0.0719 -1.355016,-0.11226 -0.510778,-0.0454 -1.021538,-0.0911 -1.532271,-0.13708 -0.610254,-0.055 -1.220441,-0.11075 -1.831038,-0.16185 -0.683628,-0.0559 -1.367685,-0.10638 -2.05213,-0.15128 -0.689131,-0.0423 -1.37864,-0.0789 -2.068708,-0.10223 -0.703461,-0.0208 -1.407142,-0.0314 -2.110936,-0.0287 -0.736026,-9e-4 -1.472054,-0.002 -2.208077,2.7e-4 -0.745514,0.001 -1.491033,0.002 -2.236537,0.007 -0.753721,0.004 -1.507442,0.009 -2.261158,0.0141 -0.766006,0.005 -1.532009,0.011 -2.298004,0.0177 -0.764479,0.007 -1.528956,0.0139 -2.293419,0.0222 -0.762722,0.008 -1.525439,0.0173 -2.288138,0.0278 -0.756417,0.0105 -1.512826,0.0217 -2.269207,0.0348 -0.748503,0.0131 -1.496996,0.027 -2.245434,0.0435 -0.742786,0.0165 -1.485537,0.0343 -2.228265,0.0532 -0.751004,0.0177 -1.50209,0.0323 -2.253273,0.0398 -0.726136,0.009 -1.452264,0.0192 -2.178363,0.031 -0.716004,0.0117 -1.432007,0.0238 -2.147927,0.0399 -0.681072,0.0164 -1.362077,0.0369 -2.042477,0.0721 -0.669121,0.0338 -1.338128,0.07 -2.006714,0.1132 -0.660847,0.043 -1.321543,0.0885 -1.981666,0.14156 -0.645348,0.0525 -1.290486,0.10818 -1.934466,0.1757 -0.600803,0.0647 -1.200791,0.13742 -1.797235,0.23523 -0.585148,0.0942 -1.168914,0.19664 -1.750079,0.31318 -0.572262,0.11471 -1.143294,0.23529 -1.712965,0.36229 -0.541997,0.11874 -1.084096,0.23716 -1.624592,0.36259 -0.518527,0.12226 -1.035194,0.25218 -1.551592,0.3831 -0.459734,0.11706 -0.920606,0.23016 -1.377475,0.35808 -0.337057,0.0983 -0.672834,0.20186 -0.999866,0.33025 -0.254439,0.0985 -0.507909,0.20043 -0.753293,0.3201 -0.156986,0.0762 -0.312527,0.15544 -0.465679,0.23912 0.06272,-0.0564 0.330271,-0.28222 0.409549,-0.4063 0.274491,-0.36951 0.483664,-0.77089 0.552849,-1.23217 0.0054,-0.043 0.04478,-0.66814 0.03326,-0.2829 0.0079,0.19414 0.01577,0.38828 0.02353,0.58242 0.01005,0.25341 0.01983,0.50684 0.02642,0.76037 0.0089,0.30188 0.01837,0.60375 0.0249,0.90569 0.0038,0.29316 0.0024,0.58631 0.0018,0.87948 -5.03e-4,0.30473 -0.001,0.60945 -0.0016,0.91418 -6.88e-4,0.34134 -0.0013,0.68267 -0.0024,1.02401 -0.0017,0.44123 -0.0038,0.88252 -0.01774,1.32358 -0.01529,0.48544 -0.03317,0.9708 -0.05041,1.45617 -0.0192,0.52842 -0.03973,1.05679 -0.05889,1.58521 -0.0192,0.55548 -0.0395,1.11091 -0.06109,1.6663 -0.02268,0.58867 -0.04744,1.1773 -0.06168,1.76626 -0.0124,0.63043 -0.01111,1.26101 0.0068,1.89135 0.02001,0.76677 0.04282,1.53346 0.06615,2.30013 0.02625,0.8502 0.05429,1.70036 0.07621,2.55069 0.02033,0.89216 0.03541,1.78444 0.04107,2.67683 0.0053,0.85808 0.0102,1.71618 0.02129,2.5742 0.01485,0.86828 0.03054,1.73654 0.04896,2.60475 0.01886,0.88287 0.03883,1.76571 0.06142,2.6485 0.02314,0.89466 0.04771,1.7893 0.07677,2.6838 0.02901,0.88809 0.06037,1.7761 0.09362,2.66404 0.03043,0.875 0.06313,1.74994 0.08737,2.62514 0.02151,0.82657 0.0415,1.65322 0.05009,2.48005 0.0057,0.75875 0.0098,1.51752 0.01526,2.27627 0.0047,0.74405 0.0083,1.48811 0.0051,2.23217 -0.0019,0.73455 -0.0039,1.4691 -0.0056,2.20365 -0.0012,0.69093 3.44e-4,1.38185 0.0048,2.07277 0.0033,0.65833 0.0068,1.31666 0.01115,1.97498 0.0041,0.61202 0.0085,1.22403 0.01386,1.83604 0.0049,0.54923 0.01043,1.09845 0.01301,1.64769 0.003,0.54156 0.009,1.08341 -0.01245,1.62471 -0.02323,0.48246 -0.05856,0.96428 -0.114761,1.44414 -0.0472,0.39187 -0.100692,0.78336 -0.184801,1.16931 -0.05501,0.24567 -0.115087,0.49008 -0.184457,0.73214 -1.292475,4.68945 -7.924364,2.86161 -6.631889,-1.82784 z"
       inkscape:connector-curvature="0" />
    <path
       style="opacity:1;fill:#020900;fill-opacity:1;stroke:none;stroke-width:1;stroke-linecap:butt;stroke-linejoin:round;stroke-miterlimit:4;stroke-dasharray:none;stroke-opacity:1"
       id="path1163"
       d="m 78.15663,262.00581 c -0.28203,-0.0254 -0.562653,-0.0631 -0.842632,-0.10498 -0.436306,-0.07 -0.869691,-0.15706 -1.302438,-0.24615 -0.60775,-0.12556 -1.206087,-0.29072 -1.802582,-0.46075 -0.615712,-0.17643 -1.230773,-0.3551 -1.846996,-0.52975 -0.60975,-0.17483 -1.224224,-0.33201 -1.841497,-0.4778 -0.623512,-0.14561 -1.251857,-0.26895 -1.881272,-0.3859 -0.618964,-0.11692 -1.241621,-0.21093 -1.866712,-0.28781 -0.655519,-0.0778 -1.314371,-0.12035 -1.973324,-0.15542 -0.761748,-0.0394 -1.524627,-0.042 -2.28718,-0.0439 -0.869894,-0.002 -1.739754,0.007 -2.609548,0.0192 -0.896337,0.0141 -1.792234,0.0462 -2.688053,0.0786 -0.941102,0.0344 -1.881648,0.0816 -2.82204,0.13131 -1.020461,0.0552 -2.041128,0.10651 -3.061449,0.1643 -1.042786,0.058 -2.08376,0.14248 -3.123909,0.23561 -1.094401,0.0986 -2.186585,0.2192 -3.278177,0.34458 -1.135258,0.1348 -2.270482,0.26989 -3.405597,0.40591 -1.118053,0.13165 -2.23446,0.2764 -3.349977,0.42789 -1.094621,0.14994 -2.18921,0.30011 -3.283829,0.45008 -1.033711,0.14143 -2.065885,0.29374 -3.098646,0.44187 -0.974709,0.13894 -1.950175,0.27241 -2.926488,0.39957 -0.917651,0.11949 -1.836883,0.22617 -2.756685,0.3276 -0.838849,0.0914 -1.67846,0.1756 -2.518161,0.25876 -0.696277,0.0686 -1.392648,0.13619 -2.089023,0.20375 -0.443858,0.0464 -0.889809,0.0777 -1.330442,0.15028 -0.138615,0.026 -0.07352,0.0128 -0.195425,0.039 -4.766267,0.97168 -6.140431,-5.76884 -1.374164,-6.74051 v 0 c 0.327002,-0.0654 0.160115,-0.0339 0.500739,-0.0941 0.575764,-0.0886 1.154843,-0.14882 1.734921,-0.20167 0.69184,-0.0671 1.383677,-0.13429 2.075421,-0.20241 0.814431,-0.0807 1.628782,-0.16224 2.442395,-0.25084 0.874927,-0.0964 1.74931,-0.19781 2.622192,-0.31144 0.946814,-0.12325 1.892781,-0.25278 2.838042,-0.38746 1.047065,-0.15017 2.093534,-0.30458 3.141573,-0.44789 1.097359,-0.15034 2.194692,-0.3009 3.292057,-0.45121 1.151181,-0.15627 2.303272,-0.30565 3.457053,-0.44157 1.146305,-0.13735 2.292718,-0.27381 3.439179,-0.40984 1.148842,-0.13191 2.298337,-0.25854 3.450137,-0.36215 1.114788,-0.0996 2.230467,-0.18981 3.348062,-0.25197 1.028795,-0.0582 2.057926,-0.11014 3.086867,-0.1657 0.97871,-0.0517 1.957586,-0.10066 2.937036,-0.13642 0.945915,-0.0342 1.891922,-0.0677 2.838384,-0.0824 0.9085,-0.0129 1.817066,-0.0215 2.725669,-0.0198 0.87944,0.002 1.759212,0.007 2.637668,0.0538 0.81852,0.0442 1.636792,0.0993 2.450857,0.19778 0.762976,0.0951 1.523367,0.20878 2.279004,0.35166 0.738611,0.13761 1.475875,0.28316 2.207448,0.4548 0.71484,0.16953 1.426744,0.35109 2.133036,0.55359 0.620271,0.17586 1.239451,0.35551 1.85919,0.53322 0.431755,0.12347 0.864222,0.24594 1.303936,0.33833 0.313923,0.0649 0.62829,0.12817 0.944311,0.1821 0.152694,0.0238 0.305945,0.044 0.459901,0.0579 4.842621,0.45879 4.193789,7.30729 -0.648832,6.8485 z"
       inkscape:connector-curvature="0" />
    <path
       style="opacity:1;fill:#020900;fill-opacity:1;stroke:none;stroke-width:1;stroke-linecap:butt;stroke-linejoin:round;stroke-miterlimit:4;stroke-dasharray:none;stroke-opacity:1"
       id="path1165"
       d="m 53.39794,258.58421 c 0.08624,0.44092 0.124389,0.88907 0.159351,1.33636 0.04426,0.57588 0.06631,1.15296 0.07985,1.73026 0.01593,0.72143 0.0013,1.44296 -0.01942,2.1641 -0.02432,0.77072 -0.06784,1.54066 -0.107466,2.3107 -0.04229,0.79917 -0.07986,1.59857 -0.115361,2.39807 -0.03405,0.7804 -0.06409,1.56096 -0.09586,2.34146 -0.02656,0.68596 -0.05741,1.37174 -0.08909,2.05748 -0.02596,0.56899 -0.05497,1.13784 -0.08364,1.7067 -0.02257,0.47437 -0.04894,0.94854 -0.07605,1.42267 -0.02376,0.39912 -0.04911,0.79813 -0.0742,1.19717 -0.01987,0.31571 -0.03974,0.63141 -0.05961,0.94711 -0.01585,0.25163 -0.03168,0.50325 -0.04753,0.75488 -0.01265,0.20154 -0.02519,0.40309 -0.03773,0.60464 -0.0108,0.17113 -0.02082,0.34231 -0.03271,0.51337 -0.01029,0.13974 -0.02159,0.27939 -0.0328,0.41905 -0.0083,0.10292 -0.01656,0.20584 -0.02485,0.30876 -0.0066,0.0818 -0.01318,0.16364 -0.01976,0.24546 -0.0052,0.0652 -0.0105,0.13042 -0.01574,0.19563 -0.0042,0.052 -0.0084,0.10394 -0.01254,0.15592 -0.0033,0.0414 -0.0067,0.0828 -0.01,0.12427 -0.0027,0.033 -0.0053,0.066 -0.008,0.099 -0.0035,0.0445 5.29e-4,-0.008 -0.0011,0.0153 -0.0013,0.0249 -0.0026,0.0498 -0.0039,0.0747 -0.0013,0.0226 -0.0024,0.0453 -0.0034,0.0679 -7.93e-4,0.0185 -0.0016,0.0371 -0.0024,0.0556 -5.29e-4,0.0121 -0.0011,0.0242 -0.0016,0.0363 -3.7e-5,10e-4 -7.2e-5,0.002 -1.09e-4,0.004 -0.160499,4.86166 -7.035919,4.63468 -6.87542,-0.22698 v 0 c 2.12e-4,-0.006 5.29e-4,-0.0127 5.29e-4,-0.0191 0.0011,-0.0295 0.0024,-0.059 0.0036,-0.0885 0.0013,-0.0305 0.0026,-0.061 0.004,-0.0915 0.0016,-0.0306 0.003,-0.0611 0.0046,-0.0917 0.0021,-0.0392 0.004,-0.0785 0.0062,-0.11775 0.0034,-0.0566 0.0069,-0.11327 0.01169,-0.16981 0.0026,-0.033 0.0053,-0.066 0.008,-0.099 0.0033,-0.0414 0.0067,-0.0829 0.01,-0.12427 0.0042,-0.052 0.0084,-0.10395 0.01254,-0.15592 0.0052,-0.0652 0.0105,-0.13042 0.01574,-0.19562 0.0066,-0.0818 0.01318,-0.16362 0.01976,-0.24543 0.0082,-0.10238 0.01648,-0.20476 0.02471,-0.30715 0.0095,-0.11789 0.019,-0.23577 0.02787,-0.3537 0.01114,-0.15193 0.01868,-0.30412 0.0289,-0.45613 0.01265,-0.20306 0.02529,-0.40612 0.03802,-0.60918 0.01585,-0.25162 0.03168,-0.50324 0.04753,-0.75486 0.01987,-0.31551 0.03973,-0.63102 0.05958,-0.94654 0.02426,-0.38605 0.04879,-0.7721 0.07186,-1.15823 0.02622,-0.45864 0.05179,-0.91731 0.07355,-1.37619 0.02819,-0.55928 0.05675,-1.11854 0.08226,-1.67795 0.0311,-0.67318 0.06142,-1.34639 0.08745,-2.01979 0.03212,-0.78897 0.06247,-1.57802 0.09694,-2.3669 0.03623,-0.81559 0.07455,-1.63109 0.117676,-2.44635 0.037,-0.71892 0.07789,-1.43774 0.101288,-2.15727 0.01765,-0.60171 0.03099,-1.20374 0.01834,-1.80571 -0.01019,-0.4533 -0.02679,-0.90641 -0.06123,-1.35862 -0.0118,-0.15542 -0.03062,-0.36058 -0.04197,-0.49616 -0.96883,-4.76685 5.772509,-6.13699 6.741339,-1.37014 z"
       inkscape:connector-curvature="0" />
  </g>
</svg>
