<svg viewBox="0 0 100 100"><path style="opacity:1;fill:#020900;fill-opacity:1;stroke:none;stroke-width:1;stroke-linecap:butt;stroke-linejoin:round;stroke-miterlimit:4;stroke-dasharray:none;stroke-opacity:1" d="M16.03 277.95q.057-.194.1-.389a7 7 0 0 0 .07-.498q.053-.472.074-.947c.014-.424.008-.848.006-1.271l-.013-1.625a805 805 0 0 1-.03-5.956l.005-2.21q.004-1.085-.005-2.17l-.015-2.27c-.008-.783-.027-1.568-.048-2.352-.024-.855-.056-1.71-.085-2.565q-.05-1.34-.095-2.678-.044-1.365-.078-2.731a635 635 0 0 1-.111-5.314q-.016-1.325-.023-2.649-.009-1.281-.039-2.562-.034-1.248-.075-2.496-.035-1.166-.067-2.332a47 47 0 0 1-.008-2.202c.015-.634.041-1.267.066-1.9l.06-1.64.06-1.597.049-1.422q.014-.567.014-1.134l.002-1.012.002-.912c0-.257.003-.514-.001-.77l-.023-.8q-.01-.345-.024-.69l-.023-.577c-.03-.405.009-.807.068-1.207.129-.742.485-1.383.941-1.969.367-.44.829-.774 1.313-1.07.324-.193.66-.363.997-.53a17 17 0 0 1 1.28-.55 19 19 0 0 1 1.562-.522c.535-.153 1.076-.286 1.616-.424.555-.14 1.11-.28 1.668-.411.576-.134 1.155-.26 1.733-.388q.914-.203 1.832-.387a54 54 0 0 1 2.007-.36 40 40 0 0 1 2.155-.283 94 94 0 0 1 2.114-.193 136 136 0 0 1 4.2-.268 83 83 0 0 1 2.223-.08 674 674 0 0 1 4.404-.072q1.09-.01 2.18-.038l2.238-.054a494 494 0 0 1 4.572-.079 808 808 0 0 1 4.617-.05 1112 1112 0 0 1 6.842-.04h2.23q1.152-.003 2.304.032a83 83 0 0 1 2.288.112q1.097.072 2.192.161.945.08 1.888.167l1.524.137c.412.036.823.073 1.235.102.341.025.683.036 1.025.049q.443.014.884.02l.746.016q.428.001.855.035c.985.088 1.712.515 2.452 1.143.791.817 1.1 1.839 1.1 2.95a7 7 0 0 1-.174 1.252c-.073.34-.17.674-.264 1.008q-.149.517-.304 1.033-.174.59-.344 1.18-.185.657-.36 1.317c-.129.48-.23.967-.323 1.455a38 38 0 0 0-.285 1.836c-.095.713-.17 1.428-.24 2.144a106 106 0 0 0-.195 2.369q-.088 1.242-.157 2.485-.073 1.276-.127 2.553-.058 1.34-.1 2.68a74 74 0 0 0-.042 2.724c.006.972.024 1.944.042 2.915.02 1.003.052 2.005.084 3.007q.045 1.504.103 3.007.06 1.5.141 2.998a121 121 0 0 0 .464 5.739q.144 1.376.298 2.75c.097.858.19 1.716.293 2.573.098.786.203 1.572.304 2.357q.147 1.122.288 2.246c.09.699.174 1.398.263 2.097q.126.981.262 1.961l.237 1.738q.102.75.195 1.5l.154 1.272q.07.561.13 1.123.051.463.106.926l.088.766.072.675.056.53.044.421.03.281c.512 4.838-6.329 5.562-6.841.725l-.03-.288-.045-.422-.055-.527q-.032-.31-.067-.62l-.086-.754q-.056-.477-.108-.954-.059-.528-.124-1.056-.073-.622-.15-1.246-.089-.713-.186-1.424l-.236-1.736q-.14-1.012-.27-2.025c-.09-.7-.174-1.403-.264-2.104l-.285-2.226c-.104-.807-.213-1.613-.313-2.42-.104-.876-.2-1.753-.3-2.63a416 416 0 0 1-.303-2.807c-.102-.995-.2-1.99-.277-2.987a145 145 0 0 1-.212-3.075 195 195 0 0 1-.147-3.11q-.059-1.526-.104-3.053c-.033-1.032-.067-2.064-.086-3.096a216 216 0 0 1-.044-3.035 81 81 0 0 1 .045-2.965q.044-1.378.104-2.755.057-1.322.13-2.642.073-1.299.166-2.598c.062-.845.128-1.69.21-2.533.078-.8.162-1.601.268-2.399.1-.737.209-1.474.346-2.205.124-.646.26-1.29.43-1.924q.192-.724.395-1.445.178-.62.36-1.239.143-.476.282-.954.08-.274.151-.55c.026-.12.042-.228.03-.029.024.812.361 1.542.931 2.123.512.419 1.053.78 1.734.822.257.012-.277-.008-.331-.005l-.75-.015q-.495-.009-.992-.024c-.422-.015-.845-.03-1.266-.062a78 78 0 0 1-1.355-.112q-.766-.067-1.532-.137-.915-.083-1.831-.162-1.026-.084-2.053-.151a75 75 0 0 0-2.068-.102 63 63 0 0 0-2.111-.029q-1.104-.002-2.208 0-1.118 0-2.237.007a1549 1549 0 0 0-4.559.032l-2.293.022a698 698 0 0 0-6.803.106q-1.115.025-2.228.054-1.127.027-2.254.04a565 565 0 0 0-4.326.07 77 77 0 0 0-2.043.072 143 143 0 0 0-3.988.255c-.645.053-1.29.108-1.934.176-.601.065-1.201.137-1.798.235q-.878.14-1.75.313-.858.172-1.713.363-.814.176-1.624.362-.777.185-1.552.383c-.46.117-.92.23-1.377.358a12 12 0 0 0-1.753.65 11 11 0 0 0-.466.24c.063-.057.33-.282.41-.407.274-.369.483-.77.552-1.232.006-.043.045-.668.034-.283l.023.583q.016.38.026.76.016.453.025.906.005.44.002.88l-.001.914-.003 1.024c-.002.44-.004.882-.018 1.323q-.024.729-.05 1.456l-.059 1.586-.061 1.666c-.023.589-.047 1.177-.062 1.766q-.018.946.007 1.891.03 1.15.066 2.3.042 1.275.077 2.551.031 1.338.04 2.677c.006.858.01 1.716.022 2.574a634 634 0 0 0 .11 5.254 406 406 0 0 0 .17 5.347c.031.875.064 1.75.088 2.626.022.826.042 1.653.05 2.48l.015 2.276q.01 1.116.005 2.232l-.005 2.204q-.002 1.036.005 2.072a1238 1238 0 0 0 .025 3.811q.008.825.013 1.648c.003.542.009 1.084-.013 1.625-.023.482-.058.964-.115 1.444-.047.392-.1.783-.184 1.17q-.081.369-.185.731c-1.292 4.69-7.924 2.862-6.632-1.827" transform="translate(0 -197)"/><path style="opacity:1;fill:#020900;fill-opacity:1;stroke:none;stroke-width:1;stroke-linecap:butt;stroke-linejoin:round;stroke-miterlimit:4;stroke-dasharray:none;stroke-opacity:1" d="M78.157 262.006a15 15 0 0 1-.843-.105 25 25 0 0 1-3.105-.707q-.923-.266-1.847-.53a40 40 0 0 0-1.842-.478 42 42 0 0 0-1.88-.386 29 29 0 0 0-1.867-.287 31 31 0 0 0-1.974-.156 47 47 0 0 0-2.287-.044q-1.305-.001-2.61.02c-.896.014-1.792.046-2.688.078-.94.035-1.881.082-2.822.131-1.02.056-2.04.107-3.061.165a93 93 0 0 0-3.124.235c-1.094.099-2.187.22-3.278.345l-3.406.406a190 190 0 0 0-3.35.428l-3.284.45c-1.033.141-2.065.294-3.098.442q-1.462.208-2.927.4c-.917.119-1.837.225-2.756.327q-1.26.135-2.519.259l-2.089.203c-.443.047-.89.078-1.33.15-.139.027-.074.013-.195.04-4.767.971-6.14-5.77-1.375-6.74.327-.066.16-.035.501-.095a28 28 0 0 1 1.735-.202l2.075-.202q1.223-.119 2.443-.25 1.313-.144 2.622-.312 1.42-.186 2.838-.388c1.047-.15 2.094-.304 3.142-.448l3.292-.45q1.725-.238 3.457-.442 1.719-.207 3.439-.41c1.149-.132 2.298-.259 3.45-.362 1.115-.1 2.23-.19 3.348-.252 1.029-.059 2.058-.11 3.087-.166q1.468-.08 2.937-.137c.946-.034 1.892-.067 2.838-.082q1.364-.02 2.726-.02c.88.002 1.76.007 2.638.054.818.044 1.637.1 2.45.198a37 37 0 0 1 2.28.352c.738.137 1.476.283 2.207.454.715.17 1.427.351 2.133.554q.93.265 1.86.533a18 18 0 0 0 2.248.521q.228.036.46.057c4.842.46 4.193 7.308-.65 6.849z" transform="translate(0 -197)"/><path style="opacity:1;fill:#020900;fill-opacity:1;stroke:none;stroke-width:1;stroke-linecap:butt;stroke-linejoin:round;stroke-miterlimit:4;stroke-dasharray:none;stroke-opacity:1" d="M53.398 258.584c.086.441.124.89.16 1.337.044.575.066 1.153.08 1.73.015.721 0 1.443-.02 2.164-.025.77-.068 1.54-.108 2.31q-.063 1.2-.115 2.399-.05 1.17-.096 2.341-.04 1.029-.09 2.058-.039.853-.083 1.706-.034.712-.076 1.423l-.074 1.197-.06.947-.047.755-.038.605q-.014.256-.033.513l-.032.42-.025.308-.02.245-.016.196-.012.156-.01.124-.008.1c-.004.044 0-.009-.001.015l-.004.074-.004.068-.002.056-.002.036v.004c-.16 4.862-7.036 4.635-6.875-.227v-.019l.004-.089.004-.091.005-.092.006-.117a7 7 0 0 1 .02-.27l.01-.124.012-.155.016-.196.02-.246.024-.307.028-.353.029-.456.038-.61.048-.755.06-.946.071-1.158q.04-.689.074-1.376l.082-1.678q.047-1.01.087-2.02.047-1.184.097-2.367.054-1.224.118-2.446c.037-.72.078-1.438.101-2.158.018-.601.031-1.203.018-1.805-.01-.454-.026-.907-.06-1.36l-.043-.495c-.969-4.767 5.773-6.137 6.742-1.37z" transform="translate(0 -197)"/></svg>
