<?xml version="1.0" encoding="UTF-8" standalone="no"?>
<!-- Created with Inkscape (http://www.inkscape.org/) -->

<svg
   xmlns:dc="http://purl.org/dc/elements/1.1/"
   xmlns:cc="http://creativecommons.org/ns#"
   xmlns:rdf="http://www.w3.org/1999/02/22-rdf-syntax-ns#"
   xmlns:svg="http://www.w3.org/2000/svg"
   xmlns="http://www.w3.org/2000/svg"
   xmlns:sodipodi="http://sodipodi.sourceforge.net/DTD/sodipodi-0.dtd"
   xmlns:inkscape="http://www.inkscape.org/namespaces/inkscape"
   width="10cm"
   height="10cm"
   viewBox="0 0 100 99.999997"
   version="1.1"
   id="svg8"
   sodipodi:docname="lete.svg"
   inkscape:version="0.92.3 (2405546, 2018-03-11)">
  <defs
     id="defs2" />
  <sodipodi:namedview
     id="base"
     pagecolor="#ffffff"
     bordercolor="#666666"
     borderopacity="1.0"
     inkscape:pageopacity="0.0"
     inkscape:pageshadow="2"
     inkscape:zoom="1"
     inkscape:cx="125.50186"
     inkscape:cy="200.50542"
     inkscape:document-units="cm"
     inkscape:current-layer="layer1"
     showgrid="true"
     units="cm"
     inkscape:window-width="1920"
     inkscape:window-height="1017"
     inkscape:window-x="-8"
     inkscape:window-y="-8"
     inkscape:window-maximized="1"
     inkscape:snap-nodes="false">
    <inkscape:grid
       type="xygrid"
       id="grid815"
       units="cm"
       spacingx="9.9999998"
       spacingy="9.9999998" />
  </sodipodi:namedview>
  <metadata
     id="metadata5">
    <rdf:RDF>
      <cc:Work
         rdf:about="">
        <dc:format>image/svg+xml</dc:format>
        <dc:type
           rdf:resource="http://purl.org/dc/dcmitype/StillImage" />
        <dc:title></dc:title>
      </cc:Work>
    </rdf:RDF>
  </metadata>
  <g
     inkscape:label="Layer 1"
     inkscape:groupmode="layer"
     id="layer1"
     transform="translate(0,-197.00002)">
    <path
       style="opacity:1;fill:#020900;fill-opacity:1;stroke:none;stroke-width:1;stroke-linecap:butt;stroke-linejoin:round;stroke-miterlimit:4;stroke-dasharray:none;stroke-opacity:1"
       id="path1167"
       d="m 30.14527,212.29742 c 0.523745,0.21595 0.980249,0.54665 1.406734,0.9137 0.349155,0.31541 0.655262,0.67334 0.950008,1.03888 0.266006,0.33496 0.520075,0.67911 0.768823,1.027 0.334566,0.46938 0.64026,0.95822 0.943626,1.44804 0.342397,0.55845 0.6804,1.11956 1.023527,1.67757 0.369801,0.60215 0.74304,1.20211 1.123493,1.79759 0.404442,0.62797 0.81775,1.25015 1.234014,1.87032 0.47743,0.70092 0.960715,1.39781 1.438941,2.09819 0.553398,0.81047 1.096098,1.62814 1.632249,2.45009 0.572617,0.87947 1.12921,1.7692 1.688174,2.65736 0.593887,0.93789 1.179018,1.88126 1.761583,2.82621 0.640503,1.0439 1.279223,2.0889 1.918681,3.13344 0.715198,1.17188 1.429637,2.34421 2.146808,3.51487 0.779071,1.26171 1.560254,2.52209 2.331062,3.78887 0.817932,1.34194 1.617236,2.69507 2.414039,4.04962 0.76862,1.31262 1.545066,2.62063 2.324238,3.927 0.748379,1.2533 1.48967,2.5108 2.234107,3.76643 0.684533,1.15601 1.37454,2.30875 2.071979,3.45701 0.598998,0.98203 1.204907,1.95983 1.817685,2.93331 0.528214,0.83081 1.058592,1.66021 1.582113,2.49399 0.449648,0.72107 0.894937,1.44486 1.342133,2.16745 0.382873,0.61832 0.763532,1.238 1.14286,1.8585 0.306882,0.50339 0.615376,1.00579 0.927462,1.50597 0.262356,0.42059 0.532101,0.83648 0.804654,1.25051 0.231015,0.35223 0.467079,0.70106 0.706559,1.04757 0.197667,0.28577 0.399828,0.56834 0.604062,0.84943 0.172241,0.21728 0.314304,0.45915 0.491241,0.67264 2.964609,3.85649 -2.4893,8.04908 -5.453909,4.19259 v 0 c -0.205502,-0.27066 -0.402598,-0.54744 -0.602863,-0.82198 -0.236136,-0.32508 -0.469726,-0.65198 -0.698291,-0.98243 -0.268735,-0.38908 -0.533811,-0.78065 -0.793195,-1.17604 -0.303046,-0.46058 -0.60298,-0.92323 -0.894733,-1.39107 -0.323057,-0.51789 -0.642612,-1.03794 -0.960298,-1.55913 -0.372774,-0.60979 -0.74686,-1.21878 -1.123124,-1.82642 -0.439388,-0.70998 -0.876951,-1.4211 -1.318591,-2.12969 -0.522118,-0.83164 -1.051449,-1.65868 -1.578036,-2.48749 -0.632187,-1.00451 -1.257487,-2.01334 -1.875414,-3.02668 -0.710046,-1.16916 -1.412719,-2.34276 -2.109652,-3.51979 -0.741355,-1.25045 -1.479593,-2.50275 -2.224863,-3.75088 -0.786291,-1.31833 -1.569836,-2.6383 -2.345507,-3.96291 -0.7795,-1.32517 -1.561323,-2.64901 -2.361513,-3.96183 -0.767093,-1.26086 -1.544947,-2.51509 -2.320141,-3.77098 -0.71754,-1.17127 -1.432372,-2.34419 -2.14792,-3.51669 -0.635719,-1.03843 -1.270717,-2.07731 -1.907431,-3.11513 -0.571407,-0.92688 -1.145328,-1.85221 -1.727906,-2.77214 -0.539205,-0.85677 -1.075955,-1.71516 -1.628143,-2.56366 -0.509471,-0.78136 -1.02543,-1.55847 -1.551355,-2.32888 -0.488532,-0.71552 -0.982597,-1.42725 -1.469753,-2.14371 -0.445177,-0.66339 -0.887182,-1.32893 -1.319469,-2.00082 -0.401463,-0.62868 -0.79583,-1.26179 -1.186101,-1.89749 -0.339431,-0.5521 -0.674198,-1.10702 -1.012549,-1.65977 -0.2241,-0.36219 -0.447919,-0.72497 -0.693995,-1.07284 -0.174143,-0.2447 -0.352652,-0.48628 -0.538379,-0.72235 -0.02923,-0.0371 -0.215956,-0.25263 -0.157983,-0.20408 0.154655,0.12067 0.322731,0.22241 0.506331,0.29316 -4.484776,-1.88368 -1.820847,-8.22611 2.663928,-6.34243 z"
       inkscape:connector-curvature="0" />
    <path
       style="opacity:1;fill:#020900;fill-opacity:1;stroke:none;stroke-width:1;stroke-linecap:butt;stroke-linejoin:round;stroke-miterlimit:4;stroke-dasharray:none;stroke-opacity:1"
       id="path1169"
       d="m 71.207957,211.7611 c 0.04878,0.40804 0.03284,0.81874 -0.0016,1.22694 -0.03291,0.35157 -0.09557,0.6993 -0.166317,1.04493 -0.06787,0.32978 -0.162343,0.65308 -0.262367,0.97428 -0.119245,0.38265 -0.273767,0.75262 -0.434424,1.11934 -0.192678,0.44388 -0.425778,0.86783 -0.670838,1.28446 -0.247666,0.41315 -0.501116,0.82279 -0.759174,1.22952 -0.313447,0.48802 -0.641594,0.96635 -0.964642,1.44801 -0.355872,0.52734 -0.690729,1.06835 -1.020876,1.61202 -0.411382,0.67969 -0.802727,1.3712 -1.192099,2.06365 -0.456676,0.81396 -0.907209,1.63134 -1.354995,2.45022 -0.491823,0.89836 -0.967197,1.80557 -1.448077,2.7098 -0.540108,1.01874 -1.091634,2.03122 -1.661938,3.03336 -0.598273,1.04202 -1.221111,2.06963 -1.85034,3.09316 -0.635098,1.0243 -1.269434,2.04903 -1.894181,3.07968 -0.651563,1.08814 -1.303282,2.17615 -1.961409,3.26033 -0.696003,1.15428 -1.424311,2.28832 -2.16974,3.41115 -0.749689,1.12498 -1.532781,2.22704 -2.314614,3.32974 -0.783032,1.10211 -1.548977,2.21619 -2.311874,3.33229 -0.777862,1.14269 -1.551408,2.28827 -2.335932,3.42641 -0.751052,1.08504 -1.514237,2.16161 -2.282828,3.23428 -0.733152,1.02019 -1.475867,2.03344 -2.213895,3.05009 -0.700207,0.96692 -1.383488,1.94591 -2.067888,2.92403 -0.654551,0.93258 -1.302859,1.86946 -1.945093,2.81055 -0.588034,0.8651 -1.182357,1.72589 -1.773552,2.58883 -0.504195,0.73554 -0.99813,1.47803 -1.49008,2.2218 -0.414235,0.62914 -0.826691,1.25945 -1.236861,1.89125 -0.339389,0.52938 -0.680924,1.05737 -1.024689,1.58392 -0.282229,0.42977 -0.565119,0.85911 -0.845963,1.28979 -0.226544,0.34936 -0.448183,0.70185 -0.670751,1.05375 -0.190711,0.30321 -0.377423,0.60892 -0.564636,0.91431 -0.157277,0.25664 -0.314471,0.51334 -0.471676,0.77004 -0.06736,0.11157 -0.03893,0.0627 -0.0864,0.14593 -2.445292,4.205 -8.392058,0.74684 -5.946766,-3.45816 v 0 c 0.11406,-0.19488 0.05839,-0.10144 0.16671,-0.2805 0.157756,-0.25759 0.315503,-0.51519 0.473333,-0.77274 0.204007,-0.33277 0.407548,-0.66585 0.615585,-0.99612 0.239604,-0.37882 0.478279,-0.75823 0.722395,-1.13417 0.281521,-0.43168 0.56498,-0.8621 0.847956,-1.29283 0.34058,-0.52165 0.678784,-1.04482 1.015111,-1.56922 0.420868,-0.64821 0.844003,-1.29495 1.269074,-1.94041 0.512556,-0.77486 1.027272,-1.54833 1.552581,-2.31463 0.588875,-0.85954 1.180861,-1.71696 1.766593,-2.57865 0.657358,-0.96316 1.320808,-1.92211 1.990725,-2.87658 0.707274,-1.01081 1.413584,-2.02239 2.137357,-3.0215 0.729721,-1.00518 1.464019,-2.00705 2.189044,-3.01563 0.74432,-1.03869 1.48337,-2.08118 2.210787,-3.13179 0.779478,-1.13066 1.547638,-2.26899 2.320607,-3.40409 0.785117,-1.14854 1.573475,-2.29493 2.379276,-3.4291 0.741373,-1.04562 1.484514,-2.09025 2.195854,-3.1567 0.694246,-1.04491 1.372,-2.1006 2.019779,-3.17508 0.657437,-1.08296 1.308182,-2.16993 1.959234,-3.25674 0.632291,-1.04293 1.273845,-2.08012 1.916695,-3.11656 0.588983,-0.95782 1.172167,-1.91934 1.732595,-2.89424 0.538117,-0.94429 1.056679,-1.89935 1.566164,-2.85938 0.49344,-0.92779 0.98127,-1.85862 1.486103,-2.7803 0.460889,-0.84275 0.92455,-1.68399 1.394608,-2.52166 0.427326,-0.75975 0.857325,-1.51818 1.309114,-2.26375 0.383831,-0.63136 0.773559,-1.25933 1.186902,-1.87194 0.291029,-0.43382 0.586431,-0.86478 0.870241,-1.30339 0.219366,-0.34515 0.434181,-0.69317 0.645165,-1.04351 0.107212,-0.1794 0.212043,-0.36047 0.29522,-0.55262 0.0587,-0.1325 0.118552,-0.26488 0.16555,-0.4021 0.03284,-0.10437 0.06682,-0.20868 0.09167,-0.31529 0.01968,-0.0928 0.03856,-0.18595 0.05247,-0.27976 0.0049,0.052 0.01048,0.13098 0.01836,0.19092 -0.558358,-4.83215 6.275337,-5.62179 6.833695,-0.78964 z"
       inkscape:connector-curvature="0" />
    <path
       style="opacity:1;fill:#020900;fill-opacity:1;stroke:none;stroke-width:1;stroke-linecap:butt;stroke-linejoin:round;stroke-miterlimit:4;stroke-dasharray:none;stroke-opacity:1"
       id="path1171"
       d="m 76.553263,248.23193 c -0.116933,0.009 -0.233479,0.0211 -0.349383,0.0392 -0.269729,0.0428 -0.538035,0.094 -0.806558,0.14373 -0.400616,0.074 -0.79992,0.15478 -1.199864,0.23226 -0.541155,0.10627 -1.086149,0.19082 -1.631932,0.26917 -0.602456,0.0854 -1.207378,0.15141 -1.812694,0.21259 -0.631265,0.06 -1.262854,0.1165 -1.894359,0.17388 -0.670803,0.0618 -1.342631,0.11132 -2.014156,0.16436 -0.699942,0.0567 -1.399625,0.11637 -2.099779,0.1704 -0.783399,0.0594 -1.567534,0.10833 -2.351796,0.15466 -0.836806,0.049 -1.674085,0.0891 -2.511473,0.12661 -0.873056,0.0375 -1.74634,0.0692 -2.619409,0.10635 -0.911466,0.0401 -1.822344,0.092 -2.733257,0.14278 -1.013926,0.0564 -2.028169,0.10684 -3.042412,0.15716 -1.087136,0.0529 -2.174502,0.10079 -3.261818,0.14976 -1.119073,0.0516 -2.238049,0.10529 -3.357046,0.15852 -1.109866,0.0494 -2.218534,0.12058 -3.326908,0.19556 -1.104011,0.0773 -2.207339,0.16393 -3.310811,0.24849 -1.072009,0.0838 -2.144,0.16766 -3.216415,0.24606 -1.036161,0.0754 -2.072912,0.14228 -3.109841,0.20615 -0.943078,0.0557 -1.885304,0.12438 -2.826964,0.20012 -0.882746,0.0732 -1.764186,0.1609 -2.645963,0.24471 -0.845888,0.0808 -1.692508,0.15344 -2.539231,0.22481 -0.763215,0.0639 -1.526718,0.12434 -2.290272,0.18406 -0.624451,0.0483 -1.248707,0.099 -1.872984,0.14947 -0.500939,0.0405 -1.001874,0.0811 -1.50281,0.12166 -0.393375,0.0315 -0.786519,0.0658 -1.179685,0.0998 -0.318675,0.0275 -0.637335,0.0553 -0.956013,0.0828 -0.256275,0.0221 -0.512555,0.0441 -0.768835,0.0661 -0.500905,0.0369 -0.467725,0.0658 0.0866,-0.052 -4.669453,1.36296 -6.5969771,-5.24064 -1.927524,-6.60361 v 0 c 0.414058,-0.0979 0.826319,-0.1804 1.252176,-0.19837 0.25535,-0.0219 0.510701,-0.0439 0.766046,-0.0659 0.31842,-0.0275 0.636822,-0.0552 0.955239,-0.0827 0.40552,-0.035 0.811019,-0.0704 1.216755,-0.10286 0.501254,-0.0406 1.002507,-0.0812 1.503764,-0.12174 0.630255,-0.0509 1.260491,-0.10216 1.890922,-0.1509 0.749746,-0.0586 1.499443,-0.11794 2.248857,-0.18069 0.82235,-0.0693 1.644607,-0.13981 2.466146,-0.21826 0.915019,-0.087 1.829702,-0.17792 2.745764,-0.25345 0.984379,-0.079 1.969336,-0.15098 2.955189,-0.20923 1.010703,-0.0622 2.021239,-0.12735 3.031196,-0.20085 1.064361,-0.0778 2.128287,-0.16116 3.192246,-0.24425 1.123947,-0.0861 2.247752,-0.1743 3.372257,-0.25293 1.154139,-0.078 2.308598,-0.15183 3.464274,-0.20347 1.124763,-0.0535 2.249504,-0.10748 3.374343,-0.15932 1.076859,-0.0485 2.153772,-0.096 3.230456,-0.14827 1.000239,-0.0496 2.000478,-0.0993 3.000407,-0.15495 0.941009,-0.0525 1.881989,-0.106 2.823578,-0.14722 0.868172,-0.0369 1.736548,-0.0686 2.604709,-0.10571 0.804672,-0.036 1.609238,-0.0745 2.413349,-0.12153 0.743064,-0.0438 1.486009,-0.0901 2.22826,-0.14624 0.695952,-0.0536 1.391404,-0.11328 2.087155,-0.16941 0.644544,-0.0509 1.289384,-0.0983 1.933244,-0.15749 0.608833,-0.0553 1.217732,-0.10998 1.826372,-0.16737 0.51027,-0.0514 1.020259,-0.10638 1.528167,-0.17788 0.434509,-0.062 0.868471,-0.12853 1.299239,-0.21319 0.418605,-0.081 0.836496,-0.16571 1.255842,-0.24286 0.357013,-0.0661 0.713854,-0.13369 1.072954,-0.18763 0.279961,-0.0395 0.560734,-0.0723 0.842817,-0.0925 4.851855,-0.3478 5.343721,6.51376 0.491866,6.86156 z"
       inkscape:connector-curvature="0" />
  </g>
</svg>
