<svg viewBox="0 0 100 100"><path style="opacity:1;fill:#020900;fill-opacity:1;stroke:none;stroke-width:1;stroke-linecap:butt;stroke-linejoin:round;stroke-miterlimit:4;stroke-dasharray:none;stroke-opacity:1" d="M30.145 212.297c.524.216.98.547 1.407.914.35.316.655.673.95 1.039q.397.505.769 1.027c.334.47.64.958.943 1.448.343.558.68 1.12 1.024 1.678q.554.904 1.123 1.797.609.941 1.234 1.87c.478.701.961 1.398 1.44 2.099q.829 1.216 1.632 2.45c.572.88 1.129 1.769 1.688 2.657q.89 1.408 1.761 2.826l1.92 3.134q1.07 1.758 2.146 3.515c.779 1.261 1.56 2.522 2.331 3.789a301 301 0 0 1 2.414 4.05q1.154 1.968 2.324 3.926c.749 1.253 1.49 2.511 2.234 3.767a245 245 0 0 0 3.89 6.39c.528.83 1.059 1.66 1.582 2.494q.673 1.083 1.342 2.167.574.928 1.143 1.859.46.755.928 1.506a61 61 0 0 0 1.51 2.298q.297.428.605.85c.172.217.314.458.491.672 2.965 3.856-2.49 8.05-5.454 4.193-.205-.271-.402-.548-.603-.822a52 52 0 0 1-1.491-2.159q-.456-.69-.895-1.391-.484-.777-.96-1.56a374 374 0 0 0-1.123-1.825q-.658-1.067-1.319-2.13c-.522-.832-1.051-1.659-1.578-2.488a252 252 0 0 1-3.985-6.546q-1.11-1.877-2.225-3.751a573 573 0 0 1-2.345-3.963 294 294 0 0 0-2.362-3.962c-.767-1.26-1.545-2.515-2.32-3.77l-2.148-3.517-1.907-3.116a270 270 0 0 0-1.728-2.772c-.54-.856-1.076-1.715-1.628-2.563q-.764-1.173-1.552-2.33c-.488-.715-.982-1.426-1.47-2.143q-.67-.994-1.319-2a126 126 0 0 1-1.186-1.898c-.34-.552-.674-1.107-1.013-1.66-.224-.362-.448-.725-.694-1.073a19 19 0 0 0-.538-.722c-.03-.037-.216-.253-.158-.204.155.12.323.222.506.293-4.484-1.884-1.82-8.226 2.664-6.343" transform="translate(0 -197)"/><path style="opacity:1;fill:#020900;fill-opacity:1;stroke:none;stroke-width:1;stroke-linecap:butt;stroke-linejoin:round;stroke-miterlimit:4;stroke-dasharray:none;stroke-opacity:1" d="M71.208 211.761a6 6 0 0 1-.002 1.227 9.8 9.8 0 0 1-.428 2.02 12 12 0 0 1-1.105 2.403q-.373.62-.76 1.23c-.313.488-.641.966-.964 1.448a39 39 0 0 0-1.021 1.612c-.412.68-.803 1.37-1.192 2.063a257 257 0 0 0-1.355 2.45c-.492.899-.968 1.806-1.448 2.71a116 116 0 0 1-1.662 3.034 120 120 0 0 1-1.85 3.093 359 359 0 0 0-1.895 3.08 630 630 0 0 1-1.961 3.26 93 93 0 0 1-2.17 3.411c-.75 1.125-1.533 2.227-2.315 3.33a224 224 0 0 0-2.312 3.332c-.777 1.143-1.551 2.288-2.335 3.426a243 243 0 0 1-2.283 3.235c-.733 1.02-1.476 2.033-2.214 3.05-.7.967-1.384 1.946-2.068 2.924a260 260 0 0 0-1.945 2.81c-.588.865-1.183 1.726-1.774 2.59q-.754 1.104-1.49 2.221a350 350 0 0 0-2.261 3.475l-.846 1.29q-.34.526-.671 1.054-.285.456-.565.914l-.471.77c-.068.112-.04.063-.087.146-2.445 4.205-8.392.747-5.947-3.458.115-.195.059-.102.167-.28l.473-.773q.305-.5.616-.997.358-.568.722-1.134l.848-1.293q.512-.781 1.016-1.569.63-.972 1.269-1.94.766-1.164 1.552-2.315.886-1.288 1.767-2.578.985-1.446 1.99-2.877c.708-1.01 1.414-2.022 2.138-3.022.73-1.005 1.464-2.007 2.189-3.015a237 237 0 0 0 2.21-3.132c.78-1.13 1.548-2.269 2.321-3.404a231 231 0 0 1 2.38-3.43c.74-1.045 1.484-2.09 2.195-3.156a86 86 0 0 0 2.02-3.175c.658-1.083 1.308-2.17 1.96-3.257q.95-1.563 1.916-3.116c.59-.958 1.172-1.92 1.733-2.894.538-.945 1.056-1.9 1.566-2.86.493-.928.981-1.858 1.486-2.78q.69-1.265 1.395-2.522a81 81 0 0 1 1.309-2.264c.384-.63.773-1.259 1.187-1.872.29-.433.586-.864.87-1.303q.33-.518.645-1.043c.107-.18.212-.36.295-.553.059-.133.119-.265.166-.402.033-.105.067-.209.091-.315q.031-.14.053-.28c.005.052.01.13.018.19-.558-4.831 6.276-5.621 6.834-.789" transform="translate(0 -197)"/><path style="opacity:1;fill:#020900;fill-opacity:1;stroke:none;stroke-width:1;stroke-linecap:butt;stroke-linejoin:round;stroke-miterlimit:4;stroke-dasharray:none;stroke-opacity:1" d="M76.553 248.232a5 5 0 0 0-.35.04c-.269.042-.537.093-.806.143-.4.074-.8.155-1.2.232-.54.106-1.086.19-1.631.27-.603.085-1.208.15-1.813.212q-.947.089-1.895.174c-.67.062-1.342.111-2.014.164q-1.05.087-2.1.17-1.175.088-2.351.155-1.255.073-2.512.127c-.873.037-1.746.069-2.62.106-.91.04-1.821.092-2.732.143q-1.521.083-3.043.157c-1.087.053-2.174.1-3.262.15q-1.679.077-3.357.158c-1.11.05-2.218.12-3.327.196-1.104.077-2.207.164-3.31.248q-1.608.128-3.217.246-1.554.113-3.11.207-1.414.084-2.827.2c-.882.073-1.764.16-2.646.244q-1.268.12-2.539.225-1.145.096-2.29.184-.937.074-1.873.15l-1.503.121-1.18.1-.956.083-.768.066c-.501.037-.468.066.086-.052-4.67 1.363-6.597-5.24-1.927-6.603a6.7 6.7 0 0 1 1.252-.199l.766-.066.955-.082q.608-.053 1.217-.103l1.504-.122 1.89-.15q1.125-.089 2.25-.182 1.233-.102 2.466-.218c.915-.087 1.83-.178 2.745-.253q1.477-.12 2.956-.21 1.515-.092 3.03-.2 1.597-.119 3.193-.245c1.124-.086 2.248-.174 3.372-.253a152 152 0 0 1 3.465-.203q1.686-.082 3.374-.16 1.616-.07 3.23-.148c1-.05 2-.099 3-.155.942-.052 1.883-.106 2.824-.147.868-.037 1.737-.068 2.605-.106q1.208-.052 2.413-.121 1.114-.064 2.229-.146c.696-.054 1.391-.114 2.087-.17.644-.05 1.29-.098 1.933-.157q.914-.083 1.826-.168c.51-.051 1.02-.106 1.529-.177.434-.062.868-.129 1.299-.214.418-.08.836-.165 1.256-.242.357-.067.713-.134 1.073-.188q.42-.06.842-.093c4.852-.347 5.344 6.514.492 6.862" transform="translate(0 -197)"/></svg>
