<svg viewBox="0 0 100 100"><path style="opacity:1;fill:#020900;fill-opacity:1;stroke:none;stroke-width:1;stroke-linecap:butt;stroke-linejoin:round;stroke-miterlimit:4;stroke-dasharray:none;stroke-opacity:1" d="M29.95 209.38c.11.088.214.183.324.272q.218.166.432.337c.237.192.464.394.694.595q.394.347.78.707.452.414.894.838c.417.4.813.822 1.213 1.24.433.456.888.891 1.353 1.315.606.544 1.233 1.061 1.859 1.58l2.333 1.94q1.239 1.038 2.499 2.05c.882.702 1.775 1.39 2.665 2.082.931.726 1.855 1.462 2.785 2.19q1.359 1.07 2.733 2.122 1.307.998 2.646 1.954a48 48 0 0 0 2.601 1.71c.895.548 1.81 1.065 2.723 1.58q1.342.762 2.703 1.487c.837.445 1.682.874 2.53 1.3q1.15.575 2.303 1.149.956.469 1.914.936l1.55.757 1.236.603q.502.246 1.002.494l.786.389q.354.172.704.355c.606.296 1.076.755 1.5 1.269.862 1.284.877 2.59.238 3.961-.273.518-.658.958-1.065 1.374-.358.359-.739.694-1.124 1.023-.5.421-1.015.825-1.531 1.225-.6.456-1.2.908-1.796 1.368q-1 .777-1.988 1.568-1.121.897-2.259 1.774-1.17.9-2.331 1.81a74 74 0 0 0-2.33 1.903q-1.27 1.077-2.558 2.128c-.918.75-1.867 1.459-2.816 2.168q-1.435 1.065-2.861 2.14c-.97.73-1.917 1.49-2.86 2.25q-1.489 1.203-2.955 2.43c-1.001.84-1.996 1.69-2.992 2.537q-1.373 1.166-2.741 2.338-1.17.998-2.332 2.004l-1.951 1.688-1.578 1.36-1.258 1.087-1.003.865-.8.69-.636.55c-.028.024-.507.436-.368.318.259-.26.107-.095.431-.52-2.583 4.122-8.412.467-5.828-3.654.442-.607.224-.35.633-.788q.312-.29.638-.565l.637-.55.8-.69 1.002-.865 1.258-1.085 1.578-1.362 1.944-1.681q1.176-1.02 2.361-2.03 1.377-1.179 2.758-2.353c1.01-.858 2.018-1.718 3.033-2.57q1.515-1.267 3.05-2.508c1-.807 2.005-1.61 3.033-2.385q1.44-1.087 2.89-2.162c.87-.65 1.741-1.3 2.583-1.986q1.247-1.017 2.473-2.058c.83-.7 1.665-1.393 2.523-2.059q1.18-.926 2.37-1.84 1.094-.844 2.173-1.707 1.03-.826 2.075-1.637.89-.684 1.787-1.36c.432-.335.862-.673 1.282-1.023.24-.204.478-.41.702-.633.147-.141-.177.248-.145.278-.486 1.106-.402 2.306.307 3.304.215.252.565.627.816.735-.172-.094-.35-.175-.526-.264l-.784-.389q-.484-.24-.969-.477l-1.236-.603-1.55-.757q-.976-.476-1.95-.955-1.17-.58-2.336-1.164c-.9-.452-1.796-.908-2.684-1.38q-1.434-.764-2.847-1.565a95 95 0 0 1-2.958-1.72 55 55 0 0 1-2.976-1.96 110 110 0 0 1-2.831-2.09 263 263 0 0 1-2.796-2.17c-.922-.723-1.84-1.454-2.764-2.174-.918-.714-1.84-1.425-2.75-2.15q-1.305-1.047-2.589-2.123l-2.33-1.938c-.71-.59-1.421-1.177-2.106-1.795a33 33 0 0 1-1.676-1.631c-.337-.35-.669-.706-1.018-1.044a48 48 0 0 0-.795-.745q-.314-.294-.636-.578-.232-.205-.468-.405c-.156-.125-.316-.245-.472-.37q-.18-.148-.356-.298c-3.756-3.092.616-8.403 4.372-5.312" transform="translate(0 -197)"/></svg>