<?xml version="1.0" encoding="UTF-8" standalone="no"?>
<!-- Created with Inkscape (http://www.inkscape.org/) -->

<svg
   xmlns:dc="http://purl.org/dc/elements/1.1/"
   xmlns:cc="http://creativecommons.org/ns#"
   xmlns:rdf="http://www.w3.org/1999/02/22-rdf-syntax-ns#"
   xmlns:svg="http://www.w3.org/2000/svg"
   xmlns="http://www.w3.org/2000/svg"
   xmlns:sodipodi="http://sodipodi.sourceforge.net/DTD/sodipodi-0.dtd"
   xmlns:inkscape="http://www.inkscape.org/namespaces/inkscape"
   width="10cm"
   height="10cm"
   viewBox="0 0 100 99.999997"
   version="1.1"
   id="svg8"
   sodipodi:docname="li.svg"
   inkscape:version="0.92.3 (2405546, 2018-03-11)">
  <defs
     id="defs2" />
  <sodipodi:namedview
     id="base"
     pagecolor="#ffffff"
     bordercolor="#666666"
     borderopacity="1.0"
     inkscape:pageopacity="0.0"
     inkscape:pageshadow="2"
     inkscape:zoom="1"
     inkscape:cx="125.50186"
     inkscape:cy="200.50542"
     inkscape:document-units="cm"
     inkscape:current-layer="layer1"
     showgrid="true"
     units="cm"
     inkscape:window-width="1920"
     inkscape:window-height="1017"
     inkscape:window-x="-8"
     inkscape:window-y="-8"
     inkscape:window-maximized="1"
     inkscape:snap-nodes="false">
    <inkscape:grid
       type="xygrid"
       id="grid815"
       units="cm"
       spacingx="9.9999998"
       spacingy="9.9999998" />
  </sodipodi:namedview>
  <metadata
     id="metadata5">
    <rdf:RDF>
      <cc:Work
         rdf:about="">
        <dc:format>image/svg+xml</dc:format>
        <dc:type
           rdf:resource="http://purl.org/dc/dcmitype/StillImage" />
        <dc:title></dc:title>
      </cc:Work>
    </rdf:RDF>
  </metadata>
  <g
     inkscape:label="Layer 1"
     inkscape:groupmode="layer"
     id="layer1"
     transform="translate(0,-197.00002)">
    <path
       style="opacity:1;fill:#020900;fill-opacity:1;stroke:none;stroke-width:1;stroke-linecap:butt;stroke-linejoin:round;stroke-miterlimit:4;stroke-dasharray:none;stroke-opacity:1"
       id="path1173"
       d="m 29.949803,209.37948 c 0.109961,0.0886 0.214339,0.18401 0.324681,0.27215 0.144899,0.11115 0.288724,0.22363 0.43139,0.33763 0.236794,0.19158 0.4645,0.394 0.69383,0.59436 0.264613,0.23075 0.522671,0.46882 0.780439,0.70714 0.300818,0.27632 0.599152,0.55526 0.893667,0.83829 0.41697,0.40074 0.81307,0.8223 1.213327,1.23952 0.433308,0.45672 0.888206,0.89169 1.353214,1.31581 0.605295,0.54319 1.233051,1.0606 1.858668,1.58003 0.778622,0.64555 1.554925,1.29389 2.332813,1.94033 0.826315,0.69107 1.658837,1.37465 2.498982,2.04883 0.88198,0.70235 1.774954,1.3907 2.665124,2.08259 0.931518,0.72605 1.855335,1.46189 2.785012,2.19029 0.906439,0.71299 1.816671,1.42108 2.732659,2.12175 0.8719,0.66495 1.753515,1.31698 2.646346,1.95352 0.845537,0.6027 1.718649,1.16483 2.601513,1.71084 0.895025,0.5479 1.808909,1.064 2.722364,1.58027 0.894305,0.50746 1.795815,1.00193 2.702814,1.48627 0.837314,0.44449 1.682237,0.87436 2.529462,1.29958 0.767778,0.38341 1.535067,0.76782 2.304034,1.14884 0.637146,0.31378 1.275575,0.62494 1.913766,0.93658 0.516723,0.2523 1.033462,0.50457 1.550199,0.75684 0.411998,0.20114 0.823997,0.40228 1.235995,0.60342 0.334582,0.16297 0.668026,0.32826 1.001583,0.49331 0.261991,0.12967 0.52396,0.25939 0.785932,0.3891 0.236037,0.11601 0.471717,0.23262 0.704249,0.35553 0.60575,0.29534 1.075769,0.75475 1.499299,1.26832 0.862647,1.28462 0.877726,2.59023 0.23877,3.96138 -0.272997,0.51839 -0.65755,0.95844 -1.065247,1.37363 -0.358137,0.35913 -0.738407,0.6947 -1.124045,1.02372 -0.500245,0.42075 -1.014177,0.82481 -1.530906,1.225 -0.599143,0.45516 -1.200068,0.90789 -1.795766,1.36757 -0.667462,0.51664 -1.328386,1.04161 -1.988265,1.56788 -0.746696,0.59921 -1.500685,1.18916 -2.258539,1.77416 -0.780295,0.59944 -1.556713,1.20389 -2.331325,1.81065 -0.792501,0.61495 -1.563857,1.25618 -2.330601,1.90273 -0.844958,0.71817 -1.698223,1.4264 -2.557264,2.12763 -0.917623,0.74966 -1.866971,1.45891 -2.815992,2.16795 -0.95667,0.70955 -1.910654,1.42269 -2.861046,2.14063 -0.96901,0.73033 -1.916445,1.48856 -2.860862,2.25023 -0.991987,0.80093 -1.976239,1.61133 -2.954094,2.42943 -1.00138,0.84071 -1.995715,1.68975 -2.992078,2.53639 -0.916326,0.77662 -1.828472,1.55816 -2.741319,2.33886 -0.780865,0.66375 -1.556692,1.33337 -2.331728,2.0039 -0.650039,0.56299 -1.300207,1.12582 -1.951307,1.68759 -0.525775,0.45364 -1.051536,0.90731 -1.577298,1.36097 -0.419407,0.36188 -0.838814,0.72378 -1.258221,1.08567 -0.334285,0.28844 -0.66857,0.57688 -1.002852,0.86532 -0.266433,0.22989 -0.532866,0.45979 -0.799299,0.68968 -0.212352,0.18324 -0.424706,0.36647 -0.637058,0.5497 -0.0282,0.0243 -0.507106,0.43691 -0.367549,0.31883 0.258287,-0.2609 0.106453,-0.0947 0.431147,-0.5199 -2.58385,4.12131 -8.41226,0.46719 -5.828411,-3.65412 v 0 c 0.441625,-0.60703 0.223574,-0.35029 0.632659,-0.78799 0.207764,-0.19405 0.421282,-0.38123 0.638102,-0.56512 0.212353,-0.18324 0.424706,-0.36647 0.637059,-0.5497 0.266433,-0.22989 0.532865,-0.45979 0.799298,-0.68968 0.334283,-0.28844 0.668568,-0.57689 1.002853,-0.86533 0.419407,-0.36189 0.838817,-0.72378 1.258226,-1.08567 0.525831,-0.45373 1.051661,-0.90745 1.577504,-1.36115 0.648751,-0.55974 1.296567,-1.12055 1.944259,-1.6815 0.784924,-0.67908 1.57066,-1.35722 2.361452,-2.02946 0.918413,-0.78547 1.836131,-1.57176 2.75804,-2.35312 1.009822,-0.85807 2.017591,-1.71858 3.032583,-2.57054 1.009565,-0.84447 2.02556,-1.68119 3.049693,-2.50796 1.001077,-0.80723 2.005674,-1.61039 3.032792,-2.38443 0.960104,-0.72523 1.923724,-1.44576 2.890176,-2.16252 0.870262,-0.65015 1.741723,-1.29933 2.583508,-1.98636 0.830821,-0.67801 1.655781,-1.36311 2.472875,-2.05762 0.829987,-0.69963 1.66529,-1.3931 2.522805,-2.05895 0.78749,-0.61681 1.576776,-1.23133 2.370015,-1.84073 0.729086,-0.56269 1.454357,-1.13027 2.172613,-1.70674 0.688692,-0.54922 1.378551,-1.09701 2.075222,-1.6361 0.592905,-0.45739 1.190374,-0.90871 1.787205,-1.36095 0.432329,-0.33444 0.862351,-0.67206 1.281753,-1.02267 0.240176,-0.20395 0.478081,-0.41071 0.701953,-0.63269 0.147513,-0.14159 -0.176713,0.24802 -0.144886,0.27782 -0.485457,1.10648 -0.401979,2.30559 0.307642,3.304 0.214818,0.252 0.56416,0.62694 0.816078,0.73488 -0.172569,-0.0936 -0.351335,-0.17522 -0.526283,-0.26417 -0.261461,-0.12946 -0.522922,-0.25893 -0.784405,-0.38834 -0.322601,-0.15963 -0.645075,-0.31953 -0.968668,-0.47714 -0.412004,-0.20114 -0.824006,-0.40228 -1.236009,-0.60342 -0.516925,-0.25237 -1.033852,-0.50473 -1.550763,-0.75712 -0.650155,-0.31748 -1.300559,-0.63447 -1.949609,-0.95421 -0.779515,-0.3863 -1.557387,-0.7759 -2.335691,-1.16463 -0.8992,-0.4514 -1.79591,-0.90783 -2.684492,-1.37988 -0.955156,-0.5103 -1.904772,-1.03084 -2.846649,-1.56532 -0.992987,-0.56126 -1.98596,-1.12317 -2.958261,-1.71986 -1.009777,-0.62559 -2.008421,-1.26953 -2.975618,-1.95969 -0.95486,-0.68147 -1.898616,-1.37828 -2.831137,-2.09005 -0.937059,-0.71688 -1.868403,-1.44112 -2.79572,-2.17057 -0.922623,-0.72292 -1.839574,-1.45303 -2.76388,-2.17381 -0.918464,-0.71388 -1.839796,-1.42415 -2.749497,-2.14922 -0.87045,-0.6988 -1.733478,-1.40673 -2.589686,-2.12292 -0.777126,-0.64582 -1.552686,-1.29351 -2.33055,-1.93844 -0.709467,-0.5891 -1.42063,-1.17679 -2.105245,-1.79488 -0.575267,-0.52664 -1.139203,-1.06552 -1.676397,-1.63128 -0.336532,-0.35081 -0.668761,-0.70608 -1.018236,-1.04416 -0.26155,-0.25194 -0.527558,-0.49913 -0.794794,-0.74503 -0.210319,-0.19448 -0.420447,-0.38922 -0.636299,-0.57759 -0.155252,-0.13564 -0.309393,-0.27265 -0.467477,-0.405 -0.15582,-0.12524 -0.315797,-0.24513 -0.471751,-0.3702 -0.120043,-0.0981 -0.238158,-0.19841 -0.356677,-0.29832 -3.755503,-3.09155 0.616604,-8.40263 4.372108,-5.31109 z"
       inkscape:connector-curvature="0" />
  </g>
</svg>
