<?xml version="1.0" encoding="UTF-8" standalone="no"?>
<!-- Created with Inkscape (http://www.inkscape.org/) -->

<svg
   xmlns:dc="http://purl.org/dc/elements/1.1/"
   xmlns:cc="http://creativecommons.org/ns#"
   xmlns:rdf="http://www.w3.org/1999/02/22-rdf-syntax-ns#"
   xmlns:svg="http://www.w3.org/2000/svg"
   xmlns="http://www.w3.org/2000/svg"
   xmlns:sodipodi="http://sodipodi.sourceforge.net/DTD/sodipodi-0.dtd"
   xmlns:inkscape="http://www.inkscape.org/namespaces/inkscape"
   width="10cm"
   height="10cm"
   viewBox="0 0 100 99.999997"
   version="1.1"
   id="svg8"
   sodipodi:docname="lili.svg"
   inkscape:version="0.92.3 (2405546, 2018-03-11)">
  <defs
     id="defs2" />
  <sodipodi:namedview
     id="base"
     pagecolor="#ffffff"
     bordercolor="#666666"
     borderopacity="1.0"
     inkscape:pageopacity="0.0"
     inkscape:pageshadow="2"
     inkscape:zoom="1"
     inkscape:cx="125.50186"
     inkscape:cy="200.50542"
     inkscape:document-units="cm"
     inkscape:current-layer="layer1"
     showgrid="true"
     units="cm"
     inkscape:window-width="1920"
     inkscape:window-height="1017"
     inkscape:window-x="-8"
     inkscape:window-y="-8"
     inkscape:window-maximized="1"
     inkscape:snap-nodes="false">
    <inkscape:grid
       type="xygrid"
       id="grid815"
       units="cm"
       spacingx="9.9999998"
       spacingy="9.9999998" />
  </sodipodi:namedview>
  <metadata
     id="metadata5">
    <rdf:RDF>
      <cc:Work
         rdf:about="">
        <dc:format>image/svg+xml</dc:format>
        <dc:type
           rdf:resource="http://purl.org/dc/dcmitype/StillImage" />
        <dc:title></dc:title>
      </cc:Work>
    </rdf:RDF>
  </metadata>
  <g
     inkscape:label="Layer 1"
     inkscape:groupmode="layer"
     id="layer1"
     transform="translate(0,-197.00002)">
    <path
       style="opacity:1;fill:#020900;fill-opacity:1;stroke:none;stroke-width:1;stroke-linecap:butt;stroke-linejoin:round;stroke-miterlimit:4;stroke-dasharray:none;stroke-opacity:1"
       id="path1175"
       d="m 38.18079,230.35076 c 0.455435,0.32055 0.824989,0.73668 1.173895,1.16597 0.369195,0.46836 0.696527,0.9676 1.023422,1.46581 0.449868,0.69198 0.889323,1.39065 1.323639,2.09247 0.530331,0.86277 1.045829,1.73452 1.555583,2.60956 0.482195,0.82752 0.950608,1.66293 1.412036,2.50217 0.416103,0.75082 0.808324,1.51425 1.184844,2.28557 0.334981,0.69657 0.656963,1.39921 0.970431,2.10569 0.256051,0.5872 0.513948,1.17358 0.774242,1.75891 0.211707,0.47477 0.422675,0.94989 0.637096,1.42344 0.191492,0.41788 0.38686,0.83396 0.581739,1.25026 0.179639,0.3818 0.357341,0.76449 0.53212,1.14855 0.150476,0.32877 0.299138,0.65836 0.447915,0.9879 0.121465,0.26917 0.242851,0.53837 0.364244,0.80756 0.0176,0.052 0.327941,0.68085 0.150188,0.3257 -0.841499,-1.36658 -2.225828,-1.8104 -3.79903,-1.45625 -0.395007,0.0889 -0.735505,0.34534 -1.073729,0.56792 -0.167487,0.11021 -0.28625,0.28081 -0.429377,0.42122 -0.420976,0.70556 0.270505,-0.91233 0.273963,-0.92161 0.367652,-1.00071 0.731978,-2.00263 1.104818,-3.00143 0.379439,-1.01755 0.786029,-2.02459 1.199224,-3.02881 0.395621,-0.9531 0.810178,-1.89817 1.215393,-2.8472 0.358357,-0.84404 0.712459,-1.68987 1.068535,-2.53486 0.289767,-0.68728 0.579768,-1.37447 0.869744,-2.06166 0.232299,-0.54971 0.463423,-1.09992 0.696579,-1.64926 0.186375,-0.43791 0.373592,-0.87547 0.55994,-1.3134 0.148479,-0.34913 0.296826,-0.69831 0.445191,-1.04749 0.121756,-0.28921 0.246504,-0.57713 0.371255,-0.86505 0.09836,-0.22718 0.196623,-0.45439 0.294897,-0.6816 0.07865,-0.18185 0.157305,-0.36371 0.235958,-0.54556 0.06269,-0.14496 0.125389,-0.28992 0.188084,-0.43488 0.120941,-0.2658 0.04073,-0.0977 0.25459,-0.49737 2.470563,-4.1902 8.396402,-0.6963 5.925836,3.4939 v 0 c 0.04171,-0.0816 0.08341,-0.16322 0.125119,-0.24484 0.0028,-0.007 0.0056,-0.0139 0.0084,-0.0209 -0.06269,0.14496 -0.125391,0.28992 -0.188087,0.43488 -0.07867,0.18188 -0.157332,0.36377 -0.235997,0.54566 -0.09886,0.22855 -0.1977,0.45711 -0.296643,0.68562 -0.118296,0.27302 -0.23666,0.54602 -0.352047,0.82029 -0.148844,0.35031 -0.297672,0.70062 -0.446633,1.05088 -0.185539,0.43602 -0.371924,0.87169 -0.557514,1.30769 -0.231293,0.54488 -0.460465,1.09065 -0.690914,1.63588 -0.289539,0.68616 -0.579102,1.3723 -0.868434,2.05855 -0.36032,0.85507 -0.718624,1.71099 -1.081344,2.56505 -0.393417,0.92123 -0.795592,1.83873 -1.180354,2.76363 -0.384432,0.934 -0.763082,1.8705 -1.116097,2.81692 -0.372914,0.99869 -0.73673,2.00073 -1.104744,3.00124 -0.355058,0.94996 -0.694367,1.92173 -1.296646,2.74944 -0.568653,0.60605 -0.90564,1.09228 -1.81959,1.32815 -1.811512,0.4675 -3.287966,-0.14195 -4.260207,-1.65923 -0.166336,-0.3051 -0.320921,-0.61531 -0.461343,-0.9333 -0.120986,-0.26829 -0.241962,-0.53659 -0.363017,-0.80484 -0.145994,-0.32338 -0.291859,-0.64681 -0.439541,-0.96943 -0.164505,-0.36157 -0.331944,-0.72178 -0.50105,-1.08123 -0.20728,-0.44283 -0.415128,-0.8854 -0.618474,-1.33006 -0.220543,-0.48742 -0.437951,-0.97625 -0.655706,-1.46492 -0.261229,-0.58746 -0.520237,-1.17588 -0.777071,-1.76528 -0.279442,-0.6305 -0.566854,-1.2574 -0.865063,-1.87927 -0.326713,-0.67083 -0.668245,-1.33418 -1.030023,-1.98686 -0.433906,-0.78946 -0.874479,-1.57526 -1.327983,-2.35366 -0.478983,-0.82242 -0.963353,-1.64177 -1.461461,-2.4528 -0.402325,-0.65056 -0.80976,-1.29799 -1.226251,-1.93959 -0.205086,-0.31303 -0.408892,-0.62753 -0.632306,-0.92794 -0.16523,-0.21518 0.15218,0.13585 0.215836,0.14075 -3.971568,-2.80858 2.65e-4,-8.42523 3.971933,-5.61665 z"
       inkscape:connector-curvature="0" />
  </g>
</svg>
