<svg viewBox="0 0 100 100"><path style="opacity:1;fill:#020900;fill-opacity:1;stroke:none;stroke-width:1;stroke-linecap:butt;stroke-linejoin:round;stroke-miterlimit:4;stroke-dasharray:none;stroke-opacity:1" d="M38.18 230.35c.456.321.826.737 1.175 1.167.369.468.696.967 1.023 1.466q.674 1.039 1.324 2.092a128 128 0 0 1 2.967 5.112q.622 1.127 1.185 2.285.501 1.046.97 2.106.385.881.775 1.759.317.713.637 1.423.288.626.582 1.25.27.573.532 1.15.225.493.448.987l.364.808c.018.052.328.68.15.325-.841-1.366-2.226-1.81-3.799-1.456-.395.089-.735.345-1.074.568-.167.11-.286.28-.429.421-.42.706.27-.912.274-.921.368-1.001.732-2.003 1.105-3.002.38-1.017.786-2.024 1.2-3.029.395-.953.81-1.898 1.214-2.847q.537-1.267 1.069-2.535l.87-2.061.696-1.65.56-1.313.445-1.048q.184-.433.372-.865l.295-.681.236-.546.188-.435c.12-.265.04-.097.254-.497 2.47-4.19 8.397-.696 5.926 3.494l.125-.245.009-.02-.189.434-.236.546-.296.685q-.178.41-.352.82l-.447 1.052-.557 1.307-.691 1.636-.869 2.059q-.538 1.282-1.081 2.565c-.393.92-.796 1.838-1.18 2.763-.385.934-.763 1.87-1.116 2.817-.373.999-.737 2.001-1.105 3.001-.355.95-.695 1.922-1.297 2.75-.569.606-.906 1.092-1.82 1.328-1.811.468-3.287-.142-4.26-1.66q-.25-.456-.461-.932l-.363-.805q-.219-.486-.44-.97a93 93 0 0 0-.5-1.081q-.313-.663-.62-1.33-.329-.731-.655-1.465-.392-.881-.777-1.765-.419-.946-.865-1.88a42 42 0 0 0-1.03-1.986q-.649-1.186-1.328-2.354a122 122 0 0 0-1.461-2.453q-.603-.976-1.227-1.94c-.205-.312-.409-.627-.632-.927-.165-.216.152.136.216.14-3.972-2.808 0-8.425 3.972-5.616" transform="translate(0 -197)"/></svg>