<svg viewBox="0 0 100 100"><path style="opacity:1;fill:#020900;fill-opacity:1;stroke:none;stroke-width:1;stroke-linecap:butt;stroke-linejoin:round;stroke-miterlimit:4;stroke-dasharray:none;stroke-opacity:1" d="M10.581 250.985c-.066.029-.273.254-.12.07q.279-.336.552-.676c.295-.364.604-.716.916-1.066q.479-.538.964-1.07.549-.603 1.11-1.192c.44-.468.912-.903 1.394-1.327.47-.414.958-.81 1.448-1.2q.752-.59 1.506-1.177.839-.654 1.69-1.292a32 32 0 0 1 1.996-1.384 28 28 0 0 1 2.167-1.237 29 29 0 0 1 2.217-1.01c.74-.307 1.496-.567 2.26-.803a19 19 0 0 1 2.409-.56 23 23 0 0 1 2.349-.268 17 17 0 0 1 2.567.049c.869.078 1.723.252 2.571.45.79.187 1.572.41 2.348.649.784.247 1.558.525 2.326.818.806.307 1.59.666 2.361 1.05.76.385 1.493.82 2.22 1.263a46 46 0 0 1 2.075 1.356c.704.49 1.38 1.018 2.05 1.553.63.507 1.25 1.023 1.872 1.538a92 92 0 0 0 1.829 1.49c.637.5 1.286.984 1.94 1.463.674.492 1.367.957 2.067 1.412q1.065.695 2.178 1.308c.724.402 1.476.75 2.238 1.073.694.296 1.422.495 2.153.674a23 23 0 0 0 2.262.422c.656.093 1.318.12 1.98.114a16 16 0 0 0 1.957-.172 17 17 0 0 0 1.95-.411q.9-.24 1.758-.598a11 11 0 0 0 1.441-.785 19 19 0 0 0 1.397-1.001c.437-.34.865-.69 1.295-1.039q.528-.429 1.048-.868.422-.36.84-.726.338-.292.67-.588.271-.242.541-.487l.445-.4c.038-.03.153-.144.164-.155a1 1 0 0 1 .058-.077q.106-.136.208-.274l.153-.205q.056-.075.11-.153c.215-.286.062-.09.494-.56 3.561-3.314 8.248 1.721 4.687 5.035.377-.416.252-.25.413-.47l-.176.243-.207.277q-.12.16-.242.317a8 8 0 0 1-.507.602 9 9 0 0 1-.545.525l-.445.402q-.287.26-.576.518-.364.323-.73.642-.457.397-.916.79-.57.48-1.149.95c-.48.39-.958.781-1.447 1.16-.633.485-1.274.96-1.95 1.383-.79.49-1.6.949-2.46 1.307a21 21 0 0 1-2.628.89 24 24 0 0 1-2.752.57c-.95.13-1.907.231-2.868.238-.995.002-1.99-.04-2.977-.183a30 30 0 0 1-2.946-.554c-1.088-.271-2.168-.582-3.201-1.024a31 31 0 0 1-2.88-1.388 42 42 0 0 1-2.59-1.556 53 53 0 0 1-2.376-1.626 77 77 0 0 1-2.145-1.619 98 98 0 0 1-1.948-1.586c-.592-.49-1.182-.98-1.78-1.463A33 33 0 0 0 46 248.09a38 38 0 0 0-1.755-1.148c-.56-.343-1.125-.68-1.71-.98a19 19 0 0 0-1.737-.776 36 36 0 0 0-1.905-.673 30 30 0 0 0-1.883-.523c-.528-.125-1.06-.242-1.6-.295a10 10 0 0 0-1.517-.038q-.82.05-1.63.183c-.525.09-1.047.198-1.557.355a19 19 0 0 0-1.654.585 22 22 0 0 0-1.68.761 21 21 0 0 0-1.62.92q-.813.518-1.584 1.097-.798.6-1.585 1.213l-1.45 1.132c-.404.321-.806.646-1.194.987-.33.29-.654.586-.955.906q-.509.535-1.007 1.08-.462.509-.92 1.022c-.237.266-.473.534-.698.81-.22.271-.437.542-.661.809-.297.346-.607.683-.972.959-3.882 2.93-8.027-2.56-4.145-5.49" transform="translate(0 -197)"/></svg>