<?xml version="1.0" encoding="UTF-8" standalone="no"?>
<!-- Created with Inkscape (http://www.inkscape.org/) -->

<svg
   xmlns:dc="http://purl.org/dc/elements/1.1/"
   xmlns:cc="http://creativecommons.org/ns#"
   xmlns:rdf="http://www.w3.org/1999/02/22-rdf-syntax-ns#"
   xmlns:svg="http://www.w3.org/2000/svg"
   xmlns="http://www.w3.org/2000/svg"
   xmlns:sodipodi="http://sodipodi.sourceforge.net/DTD/sodipodi-0.dtd"
   xmlns:inkscape="http://www.inkscape.org/namespaces/inkscape"
   width="10cm"
   height="10cm"
   viewBox="0 0 100 99.999997"
   version="1.1"
   id="svg8"
   sodipodi:docname="linja.svg"
   inkscape:version="0.92.3 (2405546, 2018-03-11)">
  <defs
     id="defs2" />
  <sodipodi:namedview
     id="base"
     pagecolor="#ffffff"
     bordercolor="#666666"
     borderopacity="1.0"
     inkscape:pageopacity="0.0"
     inkscape:pageshadow="2"
     inkscape:zoom="1"
     inkscape:cx="125.50186"
     inkscape:cy="200.50542"
     inkscape:document-units="cm"
     inkscape:current-layer="layer1"
     showgrid="true"
     units="cm"
     inkscape:window-width="1920"
     inkscape:window-height="1017"
     inkscape:window-x="-8"
     inkscape:window-y="-8"
     inkscape:window-maximized="1"
     inkscape:snap-nodes="false">
    <inkscape:grid
       type="xygrid"
       id="grid815"
       units="cm"
       spacingx="9.9999998"
       spacingy="9.9999998" />
  </sodipodi:namedview>
  <metadata
     id="metadata5">
    <rdf:RDF>
      <cc:Work
         rdf:about="">
        <dc:format>image/svg+xml</dc:format>
        <dc:type
           rdf:resource="http://purl.org/dc/dcmitype/StillImage" />
        <dc:title></dc:title>
      </cc:Work>
    </rdf:RDF>
  </metadata>
  <g
     inkscape:label="Layer 1"
     inkscape:groupmode="layer"
     id="layer1"
     transform="translate(0,-197.00002)">
    <path
       style="opacity:1;fill:#020900;fill-opacity:1;stroke:none;stroke-width:1;stroke-linecap:butt;stroke-linejoin:round;stroke-miterlimit:4;stroke-dasharray:none;stroke-opacity:1"
       id="path1177"
       d="m 10.581438,250.98496 c -0.06687,0.0288 -0.273401,0.25366 -0.120025,0.0704 0.186098,-0.22355 0.368419,-0.4502 0.551479,-0.67623 0.294829,-0.36418 0.603903,-0.71637 0.916,-1.06574 0.320538,-0.35791 0.640821,-0.71603 0.964426,-1.07117 0.366114,-0.40088 0.735893,-0.79838 1.110301,-1.19153 0.440209,-0.46733 0.911781,-0.90275 1.393222,-1.32687 0.470987,-0.41423 0.958045,-0.8095 1.448358,-1.20046 0.500909,-0.39338 1.003671,-0.78441 1.50583,-1.1762 0.559881,-0.43495 1.122079,-0.8669 1.68919,-1.29239 0.646557,-0.48846 1.315217,-0.94587 1.996558,-1.3841 0.701731,-0.44784 1.429336,-0.85228 2.16752,-1.23626 0.722153,-0.37308 1.466455,-0.69998 2.216936,-1.01113 0.739069,-0.30643 1.495952,-0.56588 2.259817,-0.80255 0.788593,-0.24458 1.596049,-0.41688 2.408497,-0.55913 0.777758,-0.13311 1.562475,-0.21517 2.349304,-0.26882 0.856242,-0.057 1.713606,-0.0226 2.567517,0.0492 0.86842,0.0776 1.722998,0.25226 2.570855,0.44954 0.790408,0.18776 1.571866,0.40974 2.348011,0.64908 0.783899,0.2476 1.557583,0.52559 2.325621,0.81828 0.805725,0.30749 1.589995,0.66598 2.361493,1.0504 0.759646,0.38508 1.492639,0.81933 2.219222,1.26281 0.705147,0.43146 1.394931,0.88705 2.075474,1.35614 0.704114,0.49005 1.38045,1.01803 2.050579,1.5531 0.628724,0.50653 1.249315,1.02305 1.871387,1.5377 0.604293,0.50308 1.211837,1.00214 1.828837,1.48957 0.63695,0.5007 1.28655,0.98489 1.940523,1.46303 0.673653,0.4928 1.367105,0.95733 2.066695,1.41222 0.708864,0.46448 1.436873,0.8979 2.178039,1.3085 0.724308,0.40147 1.47573,0.74975 2.237544,1.07312 0.694347,0.29528 1.422035,0.49464 2.15319,0.67376 0.746123,0.18182 1.502442,0.31509 2.262585,0.42162 0.655783,0.0935 1.31732,0.12 1.978847,0.11456 0.656175,-0.008 1.308307,-0.0819 1.957327,-0.17282 0.658852,-0.0944 1.308222,-0.24059 1.951175,-0.41067 0.598361,-0.16064 1.185267,-0.35914 1.756855,-0.59768 0.503631,-0.21767 0.977698,-0.49478 1.441812,-0.78558 0.484053,-0.30724 0.942411,-0.65205 1.396831,-1.00091 0.436671,-0.33949 0.865081,-0.68942 1.294278,-1.03826 0.352012,-0.28618 0.701587,-0.57533 1.048099,-0.86815 0.282329,-0.2397 0.561684,-0.48286 0.841169,-0.72586 0.223996,-0.19528 0.44809,-0.39047 0.669933,-0.58819 0.180641,-0.16176 0.360555,-0.32434 0.540549,-0.48682 0.148153,-0.13376 0.296293,-0.26754 0.444433,-0.40132 0.03858,-0.0295 0.153766,-0.14299 0.164659,-0.15384 0.0069,-0.0129 0.03577,-0.0494 0.05754,-0.0776 0.06977,-0.0909 0.13912,-0.18207 0.208512,-0.27324 0.05109,-0.0682 0.10178,-0.13673 0.152509,-0.20521 0.03753,-0.0504 0.07389,-0.10168 0.110471,-0.15278 0.215051,-0.28637 0.06116,-0.0905 0.494009,-0.56081 3.560601,-3.31415 8.247515,1.7213 4.686914,5.03545 v 0 c 0.377148,-0.41645 0.251259,-0.25053 0.412163,-0.4696 -0.05809,0.0811 -0.11611,0.16229 -0.175689,0.24232 -0.06858,0.0926 -0.137065,0.18524 -0.206529,0.27715 -0.08048,0.10574 -0.160903,0.21153 -0.241961,0.31683 -0.160972,0.20761 -0.32661,0.41183 -0.507659,0.60247 -0.174775,0.18173 -0.354975,0.35794 -0.544478,0.52441 -0.148426,0.13403 -0.296852,0.26807 -0.445291,0.40209 -0.191696,0.17305 -0.383302,0.3462 -0.575765,0.51839 -0.242173,0.21544 -0.486174,0.42883 -0.730668,0.64163 -0.304244,0.26452 -0.608428,0.52914 -0.915908,0.78991 -0.379743,0.32062 -0.762468,0.63767 -1.148191,0.95108 -0.479626,0.38982 -0.958583,0.78061 -1.447282,1.15906 -0.63283,0.48475 -1.274061,0.95973 -1.949902,1.38356 -0.790281,0.48909 -1.600523,0.94857 -2.45994,1.30674 -0.857345,0.34915 -1.7317,0.65423 -2.627794,0.88927 -0.907227,0.23616 -1.822937,0.44065 -2.75214,0.57042 -0.951127,0.13036 -1.907177,0.23114 -2.86834,0.23766 -0.995156,0.002 -1.990341,-0.04 -2.976523,-0.18265 -0.989854,-0.14162 -1.975149,-0.31528 -2.946664,-0.55429 -1.088274,-0.27055 -2.167946,-0.58144 -3.200744,-1.02392 -0.980099,-0.41914 -1.947482,-0.86865 -2.879617,-1.3872 -0.880565,-0.48991 -1.747284,-1.00394 -2.590186,-1.5566 -0.80427,-0.52365 -1.601314,-1.05861 -2.375865,-1.62563 -0.723141,-0.52904 -1.441421,-1.06481 -2.145581,-1.61899 -0.656746,-0.51944 -1.304597,-1.04981 -1.947881,-1.58584 -0.59183,-0.48963 -1.182227,-0.98107 -1.780026,-1.46342 -0.544494,-0.43527 -1.093013,-0.86611 -1.66428,-1.26604 -0.574924,-0.3974 -1.15851,-0.78211 -1.754394,-1.1475 -0.56075,-0.34296 -1.125397,-0.68065 -1.710528,-0.98084 -0.566748,-0.28514 -1.144387,-0.54802 -1.736823,-0.77576 -0.62896,-0.2405 -1.262732,-0.46836 -1.904392,-0.67295 -0.622583,-0.19307 -1.249714,-0.37115 -1.883719,-0.52315 -0.528206,-0.1246 -1.059619,-0.24143 -1.600647,-0.29456 -0.503838,-0.0466 -1.010044,-0.0688 -1.515777,-0.0382 -0.546293,0.0345 -1.090708,0.0931 -1.630833,0.18311 -0.524915,0.0891 -1.046615,0.19824 -1.556057,0.35495 -0.559766,0.17099 -1.11346,0.36177 -1.654869,0.58473 -0.56833,0.2346 -1.132466,0.48009 -1.679651,0.76119 -0.551799,0.28514 -1.095084,0.58666 -1.619872,0.9194 -0.541454,0.34638 -1.071159,0.71044 -1.584297,1.09778 -0.532322,0.39908 -1.059566,0.80485 -1.585123,1.21279 -0.483326,0.37709 -0.967108,0.7536 -1.449557,1.13181 -0.403809,0.32176 -0.805577,0.6463 -1.193578,0.98711 -0.330236,0.28966 -0.654892,0.58574 -0.955623,0.90644 -0.339593,0.35615 -0.674347,0.71685 -1.006396,1.08004 -0.308772,0.33865 -0.613992,0.68051 -0.919856,1.02178 -0.237907,0.26591 -0.474071,0.53348 -0.698893,0.81064 -0.219037,0.27045 -0.437134,0.54171 -0.661065,0.80814 -0.296575,0.34597 -0.606699,0.68269 -0.971624,0.95865 -3.882351,2.93066 -8.0269421,-2.55981 -4.144591,-5.49048 z"
       inkscape:connector-curvature="0" />
  </g>
</svg>
