<?xml version="1.0" encoding="UTF-8" standalone="no"?>
<!-- Created with Inkscape (http://www.inkscape.org/) -->

<svg
   xmlns:dc="http://purl.org/dc/elements/1.1/"
   xmlns:cc="http://creativecommons.org/ns#"
   xmlns:rdf="http://www.w3.org/1999/02/22-rdf-syntax-ns#"
   xmlns:svg="http://www.w3.org/2000/svg"
   xmlns="http://www.w3.org/2000/svg"
   xmlns:sodipodi="http://sodipodi.sourceforge.net/DTD/sodipodi-0.dtd"
   xmlns:inkscape="http://www.inkscape.org/namespaces/inkscape"
   width="10cm"
   height="10cm"
   viewBox="0 0 100 99.999997"
   version="1.1"
   id="svg8"
   sodipodi:docname="lipu.svg"
   inkscape:version="0.92.3 (2405546, 2018-03-11)">
  <defs
     id="defs2" />
  <sodipodi:namedview
     id="base"
     pagecolor="#ffffff"
     bordercolor="#666666"
     borderopacity="1.0"
     inkscape:pageopacity="0.0"
     inkscape:pageshadow="2"
     inkscape:zoom="1"
     inkscape:cx="125.50186"
     inkscape:cy="200.50542"
     inkscape:document-units="cm"
     inkscape:current-layer="layer1"
     showgrid="true"
     units="cm"
     inkscape:window-width="1920"
     inkscape:window-height="1017"
     inkscape:window-x="-8"
     inkscape:window-y="-8"
     inkscape:window-maximized="1"
     inkscape:snap-nodes="false">
    <inkscape:grid
       type="xygrid"
       id="grid815"
       units="cm"
       spacingx="9.9999998"
       spacingy="9.9999998" />
  </sodipodi:namedview>
  <metadata
     id="metadata5">
    <rdf:RDF>
      <cc:Work
         rdf:about="">
        <dc:format>image/svg+xml</dc:format>
        <dc:type
           rdf:resource="http://purl.org/dc/dcmitype/StillImage" />
        <dc:title></dc:title>
      </cc:Work>
    </rdf:RDF>
  </metadata>
  <g
     inkscape:label="Layer 1"
     inkscape:groupmode="layer"
     id="layer1"
     transform="translate(0,-197.00002)">
    <path
       style="opacity:1;fill:#020900;fill-opacity:1;stroke:none;stroke-width:1;stroke-linecap:butt;stroke-linejoin:round;stroke-miterlimit:4;stroke-dasharray:none;stroke-opacity:1"
       id="path1179"
       d="m 19.025546,216.90234 c 0.122321,0.33142 0.206705,0.67459 0.281164,1.01937 0.07403,0.3438 0.126773,0.69155 0.175256,1.03971 0.05283,0.39108 0.09565,0.7834 0.137093,1.17582 0.04495,0.43851 0.09925,0.87597 0.152712,1.3135 0.07389,0.60442 0.133757,1.21039 0.18905,1.81675 0.06029,0.67994 0.106486,1.36101 0.158736,2.04159 0.05894,0.7416 0.12153,1.4829 0.180587,2.22449 0.06262,0.81158 0.126424,1.62305 0.197072,2.43397 0.08049,0.91239 0.166584,1.82428 0.252573,2.73616 0.0963,1.01381 0.185199,2.02829 0.269114,3.04319 0.08942,1.08783 0.162226,2.17691 0.230607,3.26623 0.06928,1.12497 0.127891,2.25054 0.185766,3.37613 0.05867,1.14335 0.112185,2.28695 0.174338,3.43011 0.06893,1.16973 0.151141,2.33864 0.233294,3.5075 0.08428,1.18893 0.175531,2.37735 0.261907,3.56613 0.08486,1.17672 0.16583,2.3537 0.244966,3.53081 0.07735,1.14187 0.145929,2.2843 0.210497,3.42695 0.06227,1.11005 0.116525,2.22053 0.168474,3.33111 0.04762,1.03343 0.09121,2.06704 0.136561,3.10058 0.04023,0.93245 0.0814,1.86486 0.123531,2.79723 0.03587,0.80885 0.07212,1.61767 0.111355,2.42635 0.03386,0.68183 0.06597,1.36374 0.09952,2.04559 0.02965,0.57501 0.06184,1.1499 0.09525,1.72471 0.03116,0.50144 0.06132,1.00296 0.09255,1.5044 0.02669,0.42371 0.05498,0.84733 0.08531,1.27079 0.02523,0.34569 0.05134,0.69132 0.07735,1.03695 0.0216,0.25968 0.04587,0.51913 0.06984,0.7786 0.0179,0.18416 0.03214,0.36905 0.05335,0.55266 -0.02989,-0.33925 -0.186589,-0.64561 -0.348871,-0.93797 -0.275138,-0.44821 -0.679045,-0.76679 -1.141056,-1.00427 -0.160911,-0.0777 -0.331905,-0.12708 -0.50603,-0.16375 0.160209,-0.005 0.328181,-0.008 0.490669,-0.0116 0.414628,-0.0111 0.829287,-0.0205 1.244042,-0.0249 0.523444,-0.006 1.046794,0.007 1.569989,0.0217 0.543106,0.0168 1.086152,0.0353 1.629278,0.0515 0.5861,0.0178 1.172295,0.0317 1.758625,0.0388 0.659423,0.007 1.318874,0.002 1.978239,-0.008 0.746908,-0.0121 1.493494,-0.0378 2.2401,-0.0613 0.817078,-0.0258 1.634096,-0.0533 2.451126,-0.0804 0.847662,-0.028 1.695376,-0.0544 2.543085,-0.0809 0.844588,-0.0261 1.688894,-0.0605 2.533166,-0.0951 0.849392,-0.0367 1.698787,-0.0735 2.547993,-0.11426 0.810083,-0.0385 1.618959,-0.0973 2.427452,-0.16016 0.812956,-0.0637 1.625653,-0.13049 2.438196,-0.19921 0.817936,-0.071 1.636019,-0.14 2.454553,-0.20372 0.840208,-0.065 1.681228,-0.11857 2.522196,-0.17256 0.85272,-0.0549 1.705885,-0.1024 2.559185,-0.14721 0.851926,-0.0444 1.704176,-0.0821 2.556497,-0.11798 0.902419,-0.041 1.805683,-0.0476 2.708796,-0.0361 0.886288,0.0134 1.77152,0.0598 2.656025,0.11518 0.853464,0.055 1.704787,0.13717 2.555385,0.22501 0.790882,0.0824 1.580505,0.17629 2.368979,0.27912 0.677087,0.0919 1.352907,0.1927 2.028859,0.29249 0.569812,0.0837 1.139828,0.16595 1.709796,0.24854 0.511045,0.0747 1.021995,0.14994 1.53334,0.22251 0.439388,0.0622 0.879411,0.11977 1.319382,0.17768 0.388961,0.0493 0.776951,0.10568 1.164756,0.16326 0.296733,0.0443 0.593413,0.0889 0.890096,0.13348 0.235693,0.0355 0.471416,0.0708 0.707085,0.10639 0.197419,0.0296 0.394417,0.0619 0.591154,0.0957 0.647477,0.0909 -0.203547,0.003 -0.348607,-0.001 -1.296522,0.0796 -2.402166,0.80176 -2.941344,1.99666 -0.07959,0.17637 -0.119798,0.36798 -0.179697,0.55197 -0.103357,0.033 -0.04789,1.03499 -0.0813,0.74649 -0.0319,-0.28586 -0.05852,-0.57227 -0.08651,-0.85854 -0.04874,-0.45139 -0.106699,-0.90174 -0.164351,-1.35206 -0.09213,-0.69338 -0.203478,-1.38397 -0.315971,-2.07426 -0.165516,-0.99358 -0.320662,-1.98882 -0.47348,-2.98441 -0.178919,-1.17599 -0.364397,-2.35095 -0.547127,-3.52634 -0.197609,-1.26433 -0.388717,-2.52966 -0.570976,-3.79629 -0.189796,-1.32172 -0.350612,-2.6473 -0.502097,-3.97388 -0.152651,-1.34555 -0.280503,-2.6937 -0.400193,-4.04251 -0.120377,-1.37437 -0.221456,-2.7503 -0.317195,-4.12657 -0.09699,-1.40032 -0.178499,-2.80162 -0.250339,-4.20343 -0.07324,-1.46593 -0.129167,-2.93265 -0.182988,-4.3994 -0.05349,-1.47194 -0.09892,-2.94415 -0.141851,-4.41642 -0.04149,-1.44974 -0.07679,-2.89965 -0.117742,-4.34941 -0.04242,-1.40362 -0.08958,-2.8071 -0.133475,-4.21068 -0.0412,-1.38076 -0.08201,-2.76152 -0.123412,-4.14227 -0.03401,-1.18159 -0.07113,-2.36309 -0.110813,-3.5445 -0.03217,-0.97246 -0.06785,-1.94481 -0.09607,-2.91739 -0.02566,-0.84067 -0.03308,-1.68167 -0.03596,-2.52267 -7.94e-4,-0.67826 0.0016,-1.35651 0.0036,-2.03477 0.0016,-0.53634 0.0033,-1.07268 0.0049,-1.60902 0.0021,-0.43375 0.0062,-0.86748 0.0099,-1.30122 0.0021,-0.34429 0.0073,-0.68853 0.01296,-1.03277 0.0044,-0.25971 0.0089,-0.51942 0.01341,-0.77912 -0.01707,-0.68941 0.03581,0.13464 0.07108,0.3375 0.14777,0.65835 0.520959,1.19615 1.020223,1.63485 0.280662,0.22993 0.603369,0.38699 0.950145,0.48578 0.250624,0.0509 0.201869,0.0381 -0.02037,0.0385 -0.38304,0.004 -0.766061,0.009 -1.149096,0.0131 -0.586462,0.011 -1.172892,0.004 -1.759246,-0.009 -0.691531,-0.0174 -1.382768,-0.0443 -2.074003,-0.0706 -0.755398,-0.0293 -1.510977,-0.0535 -2.266606,-0.076 -0.817552,-0.0241 -1.635228,-0.0436 -2.452928,-0.0617 -0.88052,-0.0201 -1.76103,-0.0406 -2.641584,-0.0592 -0.905933,-0.0189 -1.81192,-0.0349 -2.717922,-0.0499 -0.943295,-0.0174 -1.886725,-0.024 -2.830155,-0.0284 -1.051965,-0.003 -2.103924,0.002 -3.155873,0.007 -1.126969,0.007 -2.253904,0.0181 -3.380846,0.0283 -1.145754,0.0112 -2.291559,0.0168 -3.437276,0.0314 -1.12232,0.0168 -2.244352,0.0482 -3.366188,0.0845 -1.077627,0.0293 -2.153124,0.10279 -3.227747,0.18532 -1.115978,0.0884 -2.231319,0.18458 -3.34658,0.28156 -1.12653,0.0966 -2.252062,0.20422 -3.37734,0.31435 -1.107017,0.10908 -2.213909,0.21937 -3.320246,0.33514 -0.977314,0.10381 -1.953832,0.21494 -2.930527,0.32438 -0.804497,0.09 -1.60906,0.17951 -2.413616,0.26903 -0.643564,0.0717 -1.28715,0.14317 -1.930751,0.21452 -0.513666,0.056 -1.026977,0.11525 -1.540417,0.17331 -0.44719,0.0508 -0.894728,0.0984 -1.34237,0.14502 -0.382811,0.0398 -0.765815,0.0777 -1.148859,0.11517 -0.315728,0.0306 -0.631507,0.0607 -0.947279,0.0909 -0.250823,0.0239 -0.501647,0.0479 -0.752471,0.0718 -0.197023,0.0189 -0.394092,0.0374 -0.591087,0.0566 0.20322,-0.004 0.397751,-0.0845 0.594642,-0.13493 -4.5876989,1.61688 -6.8743706,-4.87111 -2.286666,-6.48803 v 0 c 0.340624,-0.0942 0.670571,-0.20298 1.024989,-0.22383 0.201479,-0.0196 0.403024,-0.0386 0.604531,-0.0579 0.250696,-0.0239 0.501393,-0.0479 0.752088,-0.0718 0.310456,-0.0297 0.620916,-0.0592 0.93133,-0.0893 0.368912,-0.0361 0.737787,-0.0726 1.106477,-0.11089 0.427444,-0.0445 0.85479,-0.09 1.2818,-0.13844 0.518429,-0.0586 1.036728,-0.11839 1.555383,-0.17499 0.642648,-0.0712 1.285281,-0.14262 1.927892,-0.2142 0.802806,-0.0893 1.605621,-0.17859 2.408369,-0.26845 0.993403,-0.11131 1.986628,-0.22432 2.98067,-0.32981 1.121614,-0.11734 2.24378,-0.22922 3.366082,-0.33978 1.149966,-0.11254 2.300203,-0.22243 3.45145,-0.3212 1.138534,-0.099 2.277155,-0.19718 3.416435,-0.28727 1.175906,-0.0901 2.35282,-0.16932 3.531965,-0.20189 1.166794,-0.0376 2.333786,-0.0703 3.501083,-0.0875 1.153956,-0.0145 2.307992,-0.0205 3.461985,-0.0316 1.13727,-0.0103 2.274531,-0.0218 3.411829,-0.0285 1.0731,-0.005 2.146207,-0.0101 3.21932,-0.007 0.970722,0.005 1.941441,0.0114 2.912026,0.0293 0.916209,0.0152 1.832401,0.0314 2.748539,0.0505 0.883089,0.0186 1.766133,0.0391 2.649188,0.0593 0.835112,0.0185 1.670196,0.0384 2.505152,0.063 0.774626,0.023 1.549201,0.0478 2.323592,0.0779 0.653999,0.0249 1.307999,0.0504 1.962266,0.0673 0.511585,0.0113 1.023218,0.0177 1.534901,0.008 0.412057,-0.004 0.824098,-0.0105 1.236168,-0.0135 0.509058,0.002 1.020487,0.0178 1.519449,0.12965 0.64322,0.16039 1.259655,0.39602 1.784826,0.81324 0.684689,0.58102 1.209783,1.2852 1.423061,2.17419 0.08925,0.45856 0.147254,0.91837 0.117224,1.38619 -0.0045,0.25699 -0.009,0.51397 -0.01328,0.77096 -0.0053,0.32659 -0.01042,0.65318 -0.0123,0.97982 -0.0037,0.42097 -0.0075,0.84195 -0.0097,1.26294 -0.0016,0.53599 -0.0033,1.07198 -0.0049,1.60796 -0.0019,0.66371 -0.0042,1.32742 -0.0037,1.99113 0.0026,0.78244 0.0092,1.56489 0.03312,2.34702 0.02777,0.96196 0.06341,1.92366 0.09507,2.88549 0.03996,1.18966 0.07734,2.37939 0.111599,3.56923 0.04132,1.37781 0.08205,2.75564 0.123142,4.13346 0.04411,1.41052 0.09154,2.82093 0.134096,4.2315 0.04088,1.44767 0.07619,2.89548 0.11756,4.34313 0.04242,1.45502 0.0873,2.90998 0.14015,4.36467 0.05259,1.43354 0.107145,2.86705 0.178609,4.2998 0.06959,1.35998 0.148749,2.71946 0.242766,4.07799 0.09266,1.33273 0.190423,2.66515 0.306869,3.99604 0.114485,1.29132 0.236715,2.58201 0.38272,3.8702 0.14374,1.26 0.296246,2.51906 0.476374,3.77445 0.17847,1.24089 0.365882,2.48047 0.55943,3.71911 0.183393,1.17975 0.369567,2.35907 0.549145,3.53941 0.149609,0.97478 0.30148,1.94922 0.463608,2.92201 0.125021,0.76775 0.248288,1.53591 0.349835,2.30719 0.06627,0.51815 0.132906,1.03633 0.187349,1.55589 0.02402,0.24584 0.04689,0.49182 0.07358,0.73739 0.05909,0.51134 0.0802,1.02611 -0.03624,1.53307 -0.06568,0.21008 -0.109066,0.42848 -0.197048,0.63024 -0.574045,1.31641 -1.774661,2.10722 -3.191396,2.20807 -0.34498,-0.007 -0.688184,-0.0181 -1.025806,-0.0954 -0.150347,-0.026 -0.300937,-0.0505 -0.451826,-0.0732 -0.233635,-0.0353 -0.467326,-0.0703 -0.700984,-0.10547 -0.29268,-0.044 -0.585354,-0.088 -0.878081,-0.13169 -0.35029,-0.052 -0.70072,-0.10314 -1.052084,-0.14747 -0.463042,-0.0609 -0.926129,-0.12162 -1.388552,-0.18715 -0.517914,-0.0735 -1.035449,-0.14967 -1.553056,-0.22533 -0.575964,-0.0835 -1.151975,-0.16661 -1.727777,-0.25118 -0.638056,-0.0942 -1.275982,-0.1894 -1.915033,-0.27666 -0.727356,-0.0951 -1.455849,-0.18137 -2.185435,-0.25765 -0.758785,-0.0785 -1.518158,-0.1526 -2.279483,-0.20209 -0.771329,-0.0486 -1.543269,-0.0899 -2.316165,-0.10225 -0.776272,-0.0108 -1.55267,-0.005 -2.328349,0.0306 -0.828426,0.0348 -1.656779,0.0715 -2.484821,0.11459 -0.826622,0.0434 -1.653114,0.0894 -2.479175,0.14254 -0.809953,0.052 -1.619965,0.10348 -2.429195,0.16595 -0.803201,0.0625 -1.605942,0.13043 -2.408558,0.19999 -0.82827,0.07 -1.656696,0.13815 -2.485387,0.20304 -0.876049,0.068 -1.752531,0.13124 -2.630292,0.1729 -0.864984,0.0415 -1.730147,0.079 -2.595316,0.11636 -0.866759,0.0356 -1.733558,0.0707 -2.600643,0.0976 -0.843245,0.0264 -1.686494,0.0526 -2.529692,0.0805 -0.820853,0.0272 -1.641692,0.0549 -2.46259,0.0808 -0.78617,0.0248 -1.572324,0.0516 -2.358816,0.064 -0.720223,0.0102 -1.44054,0.0152 -2.160823,0.008 -0.626454,-0.008 -1.252776,-0.0221 -1.878988,-0.0413 -0.538027,-0.016 -1.07598,-0.0343 -1.613983,-0.0511 -0.436678,-0.0121 -0.873475,-0.0238 -1.31037,-0.0195 -0.381266,0.004 -0.762426,0.0133 -1.143576,0.0231 -0.424261,0.0105 -0.849454,0.0218 -1.272978,-0.0135 -0.567453,-0.0571 -1.130168,-0.15998 -1.655226,-0.39269 -0.748193,-0.36088 -1.406135,-0.84566 -1.861695,-1.55453 -0.353327,-0.60141 -0.627282,-1.23565 -0.700292,-1.93706 -0.0311,-0.25999 -0.05498,-0.52064 -0.07835,-0.78143 -0.02756,-0.29831 -0.05551,-0.5966 -0.07962,-0.89521 -0.02665,-0.35415 -0.05341,-0.70829 -0.07923,-1.06249 -0.03175,-0.44456 -0.06159,-0.88926 -0.08954,-1.33406 -0.0318,-0.51093 -0.0626,-1.02192 -0.09426,-1.53285 -0.03456,-0.59513 -0.06793,-1.19034 -0.09852,-1.78569 -0.03361,-0.6834 -0.06582,-1.36687 -0.09975,-2.05025 -0.0396,-0.81629 -0.07623,-1.63271 -0.112424,-2.44916 -0.04227,-0.93537 -0.08357,-1.87078 -0.123931,-2.80623 -0.04506,-1.02692 -0.08838,-2.05391 -0.135662,-3.08074 -0.0509,-1.08836 -0.104033,-2.17663 -0.165034,-3.26448 -0.06316,-1.11818 -0.130258,-2.23613 -0.205956,-3.35354 -0.0783,-1.16476 -0.158419,-2.3294 -0.242375,-3.49377 -0.08675,-1.19417 -0.178477,-2.38798 -0.263063,-3.58232 -0.0847,-1.20518 -0.169428,-2.41041 -0.240088,-3.61651 -0.06245,-1.14985 -0.116501,-2.30012 -0.175397,-3.45015 -0.05654,-1.09972 -0.113734,-2.19944 -0.181337,-3.29854 -0.06548,-1.04402 -0.135115,-2.0878 -0.220731,-3.13039 -0.08168,-0.9885 -0.168329,-1.97659 -0.262111,-2.96402 -0.08754,-0.92831 -0.175155,-1.85662 -0.257042,-2.78545 -0.07199,-0.82776 -0.137495,-1.65604 -0.20128,-2.48447 -0.05957,-0.74818 -0.122832,-1.49606 -0.182133,-2.24426 -0.0497,-0.64808 -0.09385,-1.29661 -0.15056,-1.94413 -0.04872,-0.53605 -0.101395,-1.07176 -0.166597,-1.6061 -0.05803,-0.47494 -0.116641,-0.94985 -0.165503,-1.42585 -0.03354,-0.31807 -0.06779,-0.6361 -0.109918,-0.95318 -0.02532,-0.18378 -0.05058,-0.36775 -0.08908,-0.54935 -0.0056,-0.0271 -0.02188,-0.10743 -0.01056,-0.0822 -1.677384,-4.56594 4.779836,-6.93812 6.45722,-2.37218 z"
       inkscape:connector-curvature="0" />
  </g>
</svg>
