<svg viewBox="0 0 100 100"><path style="opacity:1;fill:#020900;fill-opacity:1;stroke:none;stroke-width:1;stroke-linecap:butt;stroke-linejoin:round;stroke-miterlimit:4;stroke-dasharray:none;stroke-opacity:1" d="M19.026 216.902c.122.332.206.675.28 1.02.075.344.127.691.176 1.04.053.39.096.783.137 1.175.045.439.1.876.153 1.314.074.604.134 1.21.189 1.816.06.68.106 1.362.159 2.042.058.742.121 1.483.18 2.225q.093 1.217.197 2.434c.08.912.167 1.824.253 2.736q.143 1.52.269 3.043c.09 1.088.162 2.177.23 3.266.07 1.125.128 2.25.186 3.376.059 1.144.112 2.287.175 3.43.069 1.17.15 2.339.233 3.508.084 1.189.175 2.377.262 3.566q.127 1.766.245 3.53a307 307 0 0 1 .379 6.759q.07 1.55.136 3.1a1374 1374 0 0 0 .235 5.224l.1 2.046q.045.863.095 1.724l.093 1.505q.039.635.085 1.27l.077 1.037q.033.39.07.78c.018.183.032.368.053.552-.03-.34-.186-.646-.349-.938-.275-.448-.679-.767-1.14-1.005a2.2 2.2 0 0 0-.507-.163c.16-.005.329-.008.491-.012q.623-.017 1.244-.025a40 40 0 0 1 1.57.022l1.63.051q.878.027 1.758.04.99.007 1.978-.009c.747-.012 1.494-.038 2.24-.061l2.451-.08 2.544-.081q1.266-.04 2.533-.095 1.275-.055 2.548-.115a79 79 0 0 0 2.427-.16q1.22-.096 2.438-.2 1.227-.107 2.455-.203c.84-.065 1.681-.118 2.522-.172a217 217 0 0 1 5.116-.266 47 47 0 0 1 5.365.08 66 66 0 0 1 2.555.225q1.185.124 2.369.279c.677.092 1.353.192 2.029.292l1.71.249q.766.112 1.533.222.66.092 1.32.178.582.076 1.164.163l.89.134.707.106q.297.045.591.096c.648.09-.203.003-.348-.001-1.297.08-2.402.801-2.941 1.996-.08.177-.12.368-.18.552-.104.033-.048 1.035-.081.747q-.046-.429-.087-.859c-.049-.451-.107-.901-.164-1.352a71 71 0 0 0-.316-2.074c-.166-.994-.321-1.989-.474-2.984-.179-1.176-.364-2.351-.547-3.527a317 317 0 0 1-.57-3.796 139 139 0 0 1-.503-3.974 166 166 0 0 1-.4-4.042c-.12-1.375-.222-2.75-.317-4.127a235 235 0 0 1-.434-8.603 616 616 0 0 1-.142-4.416c-.041-1.45-.076-2.9-.117-4.35l-.134-4.21-.123-4.143a739 739 0 0 0-.111-3.544c-.032-.973-.068-1.945-.096-2.918a93 93 0 0 1-.036-2.522q0-1.018.004-2.035l.004-1.609.01-1.301q.004-.517.013-1.033l.014-.78c-.017-.689.036.136.07.338.149.659.522 1.197 1.021 1.635.28.23.603.387.95.486.25.05.202.038-.02.039l-1.15.013a43 43 0 0 1-1.759-.01c-.691-.017-1.382-.044-2.074-.07a252 252 0 0 0-4.72-.138l-2.64-.059a632 632 0 0 0-2.719-.05q-1.414-.024-2.83-.028-1.578-.002-3.156.007-1.69.012-3.38.028c-1.146.011-2.292.017-3.438.032-1.122.016-2.244.048-3.366.084-1.078.03-2.153.103-3.228.185q-1.674.135-3.346.282c-1.127.096-2.252.204-3.378.314q-1.66.164-3.32.335-1.466.158-2.93.325l-2.414.269-1.93.214q-.771.086-1.541.174a145 145 0 0 1-2.491.26l-.948.09-.752.073-.591.056c.203-.004.398-.084.594-.135-4.587 1.617-6.874-4.87-2.286-6.488.34-.094.67-.203 1.025-.224l.604-.058.752-.071.932-.09a187 187 0 0 0 2.388-.249q.777-.089 1.555-.175l1.928-.214 2.409-.269c.993-.111 1.986-.224 2.98-.33q1.683-.174 3.366-.34a438 438 0 0 1 6.868-.608 73 73 0 0 1 3.532-.202c1.167-.037 2.334-.07 3.501-.087 1.154-.015 2.308-.02 3.462-.032q1.707-.017 3.412-.028 1.61-.01 3.22-.007c.97.005 1.94.011 2.911.03q1.375.02 2.749.05 1.324.028 2.65.059 1.252.026 2.504.063 1.163.034 2.324.078c.654.025 1.308.05 1.962.067a37 37 0 0 0 1.535.008l1.236-.013c.51.002 1.02.017 1.52.13.643.16 1.26.395 1.785.812.684.582 1.21 1.286 1.423 2.175.089.458.147.918.117 1.386q-.008.386-.013.77-.009.49-.013.98l-.01 1.264-.004 1.608q-.004.995-.004 1.99c.003.783.01 1.566.033 2.348.028.962.063 1.923.095 2.885q.06 1.785.112 3.57l.123 4.133q.068 2.115.134 4.231c.04 1.448.076 2.896.118 4.344q.062 2.183.14 4.364a227 227 0 0 0 .421 8.378c.093 1.333.19 2.665.307 3.996.114 1.291.237 2.582.383 3.87.143 1.26.296 2.52.476 3.775q.269 1.86.56 3.719c.183 1.18.369 2.359.549 3.54.15.974.301 1.948.463 2.921.125.768.249 1.536.35 2.307.066.519.133 1.037.187 1.556q.035.369.074.738c.06.511.08 1.026-.036 1.533-.066.21-.11.428-.197.63-.574 1.316-1.775 2.107-3.192 2.208-.345-.007-.688-.018-1.026-.095q-.225-.038-.451-.074l-.701-.105-.878-.132q-.525-.08-1.052-.147-.696-.09-1.389-.187l-1.553-.226-1.728-.25q-.957-.144-1.915-.278a85 85 0 0 0-2.185-.257 60 60 0 0 0-2.28-.202 49 49 0 0 0-2.316-.102 39 39 0 0 0-2.328.03q-1.243.052-2.485.115-1.24.064-2.48.142c-.81.052-1.62.104-2.429.166q-1.204.095-2.408.2-1.243.105-2.485.203a89 89 0 0 1-2.63.173q-1.298.062-2.596.116-1.3.056-2.6.098l-2.53.08-2.463.081c-.786.025-1.572.052-2.359.064-.72.01-1.44.016-2.16.008q-.94-.012-1.88-.04l-1.614-.052a35 35 0 0 0-2.454.004c-.424.01-.849.021-1.273-.014-.567-.057-1.13-.16-1.655-.393-.748-.36-1.406-.845-1.861-1.554-.354-.602-.628-1.236-.7-1.937q-.046-.39-.08-.782-.042-.447-.079-.895l-.079-1.062q-.048-.668-.09-1.334l-.094-1.533q-.052-.892-.098-1.786l-.1-2.05a1377 1377 0 0 1-.236-5.255q-.066-1.541-.136-3.081-.074-1.633-.165-3.265-.093-1.677-.206-3.353a721 721 0 0 0-.242-3.494c-.087-1.194-.179-2.388-.263-3.582-.085-1.206-.17-2.41-.24-3.617-.063-1.15-.117-2.3-.176-3.45q-.082-1.65-.181-3.299a163 163 0 0 0-.221-3.13 243 243 0 0 0-.262-2.964q-.133-1.393-.257-2.785-.107-1.243-.201-2.485l-.183-2.244c-.05-.648-.093-1.297-.15-1.944a53 53 0 0 0-.167-1.606c-.058-.475-.116-.95-.165-1.426a36 36 0 0 0-.11-.953c-.025-.184-.05-.368-.09-.55-.005-.027-.021-.107-.01-.082-1.677-4.566 4.78-6.938 6.457-2.372z" transform="translate(0 -197)"/></svg>