<?xml version="1.0" encoding="UTF-8" standalone="no"?>
<!-- Created with Inkscape (http://www.inkscape.org/) -->

<svg
   xmlns:dc="http://purl.org/dc/elements/1.1/"
   xmlns:cc="http://creativecommons.org/ns#"
   xmlns:rdf="http://www.w3.org/1999/02/22-rdf-syntax-ns#"
   xmlns:svg="http://www.w3.org/2000/svg"
   xmlns="http://www.w3.org/2000/svg"
   xmlns:sodipodi="http://sodipodi.sourceforge.net/DTD/sodipodi-0.dtd"
   xmlns:inkscape="http://www.inkscape.org/namespaces/inkscape"
   width="10cm"
   height="10cm"
   viewBox="0 0 100 99.999997"
   version="1.1"
   id="svg8"
   sodipodi:docname="loje.svg"
   inkscape:version="0.92.3 (2405546, 2018-03-11)">
  <defs
     id="defs2" />
  <sodipodi:namedview
     id="base"
     pagecolor="#ffffff"
     bordercolor="#666666"
     borderopacity="1.0"
     inkscape:pageopacity="0.0"
     inkscape:pageshadow="2"
     inkscape:zoom="1"
     inkscape:cx="125.50186"
     inkscape:cy="200.50542"
     inkscape:document-units="cm"
     inkscape:current-layer="layer1"
     showgrid="true"
     units="cm"
     inkscape:window-width="1920"
     inkscape:window-height="1017"
     inkscape:window-x="-8"
     inkscape:window-y="-8"
     inkscape:window-maximized="1"
     inkscape:snap-nodes="false">
    <inkscape:grid
       type="xygrid"
       id="grid815"
       units="cm"
       spacingx="9.9999998"
       spacingy="9.9999998" />
  </sodipodi:namedview>
  <metadata
     id="metadata5">
    <rdf:RDF>
      <cc:Work
         rdf:about="">
        <dc:format>image/svg+xml</dc:format>
        <dc:type
           rdf:resource="http://purl.org/dc/dcmitype/StillImage" />
        <dc:title></dc:title>
      </cc:Work>
    </rdf:RDF>
  </metadata>
  <g
     inkscape:label="Layer 1"
     inkscape:groupmode="layer"
     id="layer1"
     transform="translate(0,-197.00002)">
    <path
       style="opacity:1;fill:#020900;fill-opacity:1;stroke:none;stroke-width:1;stroke-linecap:butt;stroke-linejoin:round;stroke-miterlimit:4;stroke-dasharray:none;stroke-opacity:1"
       id="path1181"
       d="m 29.470246,280.20987 c 0.07236,0.0146 -0.01728,-0.006 -0.04135,-0.0104 0.136668,5.3e-4 0.277733,0.003 0.415861,0.003 0.255442,-5.3e-4 0.510834,-0.007 0.765982,-0.0187 0.336357,-0.0168 0.672021,-0.0451 1.007541,-0.0737 0.401328,-0.0318 0.80105,-0.08 1.200756,-0.12738 0.432094,-0.0507 0.863418,-0.1073 1.29399,-0.16951 0.400341,-0.0565 0.79787,-0.12996 1.193117,-0.21465 0.484119,-0.10704 0.968092,-0.21472 1.452597,-0.32002 0.586703,-0.1298 1.177449,-0.23957 1.769634,-0.34095 0.660117,-0.11167 1.324134,-0.19763 1.988672,-0.27794 0.717524,-0.0885 1.437487,-0.153 2.158516,-0.20434 0.741905,-0.0485 1.48504,-0.0722 2.228178,-0.0914 0.716629,-0.0183 1.433438,-0.0283 2.150266,-0.0343 0.744773,-0.007 1.489559,-0.006 2.234279,0.005 0.803672,0.0149 1.606785,0.0501 2.409923,0.0818 0.869593,0.0363 1.739482,0.0644 2.609339,0.0934 1.038146,0.0315 2.074902,0.0928 3.110651,0.16849 1.103683,0.0803 2.204188,0.19604 3.302717,0.3282 1.039294,0.12739 2.075114,0.28079 3.110047,0.43921 0.842606,0.12963 1.684563,0.26342 2.526623,0.39653 0.670197,0.10608 1.340458,0.21176 2.010598,0.31818 0.527359,0.0836 1.054293,0.16978 1.581041,0.2571 0.379802,0.0639 0.759465,0.12862 1.139746,0.18962 0.214923,0.0352 0.430281,0.0682 0.64716,0.0887 0.139946,0.0117 0.280284,0.0183 0.420566,0.0245 0.06907,-0.0315 -0.452332,0.046 -0.490768,0.0528 -0.949989,0.21996 -1.730145,0.8522 -2.175804,1.72284 -0.120358,0.23513 -0.175693,0.49822 -0.26354,0.74732 -0.141915,0.69848 -0.07435,1.38586 0.229862,2.02499 0.1304,0.21956 0.05019,0.10451 -0.04625,-0.0171 -0.163142,-0.20784 -0.340704,-0.40346 -0.523137,-0.59436 -0.399743,-0.40555 -0.800989,-0.80956 -1.197882,-1.21792 -0.610484,-0.6242 -1.201955,-1.26627 -1.781771,-1.91892 -0.722532,-0.82069 -1.411525,-1.66993 -2.086475,-2.52991 -0.751141,-0.95456 -1.430327,-1.96153 -2.081241,-2.98608 -0.600848,-0.95657 -1.159063,-1.93884 -1.702605,-2.92879 -0.465891,-0.85175 -0.904062,-1.71814 -1.338196,-2.58637 -0.395102,-0.78346 -0.768268,-1.57756 -1.13084,-2.37651 -0.332039,-0.74234 -0.665149,-1.48419 -1.004977,-2.223 -0.322149,-0.69719 -0.650089,-1.39169 -0.974455,-2.08785 -0.286729,-0.6179 -0.572156,-1.2364 -0.859552,-1.85399 -0.260284,-0.55409 -0.517507,-1.10957 -0.766794,-1.66869 -0.237112,-0.53442 -0.463243,-1.07362 -0.685726,-1.61426 -0.20687,-0.49936 -0.406329,-1.00171 -0.605192,-1.50428 -0.190447,-0.4778 -0.380926,-0.95559 -0.571908,-1.43318 -0.187425,-0.46566 -0.370517,-0.93303 -0.550965,-1.40143 -0.154562,-0.40304 -0.309137,-0.80607 -0.463709,-1.20911 -0.120825,-0.31454 -0.246486,-0.62718 -0.371129,-0.94021 -0.0955,-0.24481 -0.195357,-0.4878 -0.297677,-0.72982 -0.12401,-0.28984 -0.236709,-0.58428 -0.348935,-0.87883 -0.110501,-0.29168 -0.21435,-0.58582 -0.318267,-0.8799 -0.08809,-0.24997 -0.172998,-0.50105 -0.260329,-0.75129 -0.06885,-0.19666 -0.140851,-0.39218 -0.212823,-0.58772 -0.06686,-0.18188 -0.134697,-0.3634 -0.20039,-0.54571 -0.06861,-0.19129 -0.131191,-0.38462 -0.193143,-0.57814 -0.01564,-0.0466 -0.03688,-0.091 -0.0562,-0.13622 -0.0371,-0.0875 -0.07513,-0.17459 -0.114813,-0.26095 0.318312,0.74536 0.959236,1.09283 1.620242,1.50065 0.397483,0.0877 0.785908,0.24308 1.192456,0.26296 1.084072,0.053 2.059485,-0.46065 2.714067,-1.28347 0.220384,-0.36006 0.02553,0.0155 -0.0406,0.15874 -0.167865,0.37242 -0.33699,0.74415 -0.513588,1.11252 -0.229564,0.46403 -0.464095,0.92562 -0.700628,1.38613 -0.274502,0.53537 -0.563205,1.06328 -0.857535,1.58795 -0.323192,0.57164 -0.663763,1.13316 -1.011254,1.69027 -0.356693,0.56681 -0.72876,1.12374 -1.098867,1.68182 -0.375891,0.56421 -0.750853,1.12903 -1.123614,1.69531 -0.373692,0.56493 -0.744657,1.13165 -1.116754,1.69762 -0.389696,0.59242 -0.78881,1.17853 -1.192659,1.76137 -0.411512,0.59561 -0.832514,1.18454 -1.258766,1.76967 -0.41393,0.56236 -0.828511,1.12424 -1.240999,1.68766 -0.412925,0.56092 -0.818438,1.12716 -1.217192,1.69823 -0.417391,0.59544 -0.825055,1.19758 -1.232307,1.79997 -0.397547,0.58738 -0.787398,1.17988 -1.177534,1.77219 -0.381875,0.5775 -0.768799,1.15165 -1.152871,1.72769 -0.353587,0.52938 -0.697098,1.06534 -1.036564,1.60385 -0.333885,0.53418 -0.670015,1.06696 -1.003808,1.6012 -0.316579,0.51167 -0.636926,1.02097 -0.958992,1.5292 -0.287356,0.44766 -0.564724,0.90158 -0.840595,1.35637 -0.240345,0.39769 -0.474858,0.79886 -0.705937,1.20199 -0.213268,0.37679 -0.426083,0.75384 -0.63668,1.13212 -0.190932,0.34734 -0.378199,0.69667 -0.564701,1.04639 -0.162798,0.30786 -0.323897,0.61661 -0.485193,0.92526 -0.133416,0.25388 -0.266411,0.50798 -0.397541,0.76305 -0.116949,0.22803 -0.233739,0.45615 -0.350547,0.68425 -0.07689,0.14854 -0.151132,0.29842 -0.219869,0.45092 -0.02005,0.0435 -0.03808,0.0896 -0.05603,0.13367 -1.800024,4.51901 -8.190857,1.97339 -6.390833,-2.54561 v 0 c 0.05986,-0.1475 0.119882,-0.29488 0.186496,-0.4395 0.113353,-0.24774 0.231617,-0.49317 0.357196,-0.73497 0.118576,-0.23156 0.237133,-0.46313 0.355862,-0.69461 0.138091,-0.26849 0.277921,-0.53607 0.418409,-0.80331 0.170249,-0.32578 0.340284,-0.65168 0.512273,-0.97655 0.206068,-0.3863 0.41293,-0.7722 0.624261,-1.15566 0.224703,-0.40346 0.451546,-0.80573 0.679275,-1.2075 0.259284,-0.452 0.522235,-0.90192 0.791948,-1.3478 0.299165,-0.49314 0.600192,-0.98519 0.91154,-1.47079 0.314246,-0.49587 0.626782,-0.99281 0.935638,-1.49208 0.338754,-0.54216 0.679831,-1.08286 1.018712,-1.62494 0.370766,-0.58796 0.746014,-1.17311 1.132099,-1.75117 0.376942,-0.56533 0.756603,-1.12884 1.131536,-1.6955 0.405307,-0.61534 0.810461,-1.23078 1.223457,-1.841 0.426852,-0.63139 0.854334,-1.26237 1.291773,-1.8865 0.428127,-0.6127 0.862962,-1.22062 1.306107,-1.82256 0.409454,-0.55927 0.82086,-1.1171 1.2319,-1.6752 0.394518,-0.54126 0.783921,-1.08621 1.164659,-1.63727 0.37202,-0.53653 0.739407,-1.07626 1.098333,-1.62165 0.372817,-0.56706 0.74449,-1.13487 1.118899,-1.70088 0.377084,-0.57283 0.75633,-1.14423 1.136592,-1.71496 0.335246,-0.50551 0.672547,-1.00978 0.996453,-1.52268 0.291396,-0.46629 0.576662,-0.93649 0.848053,-1.41477 0.253264,-0.45079 0.501457,-0.90451 0.737518,-1.3646 0.20856,-0.40568 0.414663,-0.81265 0.618434,-1.22075 0.162722,-0.33779 0.315301,-0.6802 0.470644,-1.02142 0.189648,-0.40959 0.378822,-0.82189 0.634529,-1.19571 0.755835,-0.99921 1.807538,-1.71741 3.131163,-1.66839 0.429411,0.0159 0.841066,0.17662 1.2616,0.26493 0.307575,0.18543 0.635479,0.34072 0.922729,0.5563 0.47077,0.35331 0.792647,0.87563 1.047078,1.39467 0.07044,0.15269 0.138374,0.30649 0.203991,0.46132 0.102746,0.24158 0.199972,0.48562 0.2794,0.73602 0.03749,0.11718 0.07465,0.23448 0.115853,0.35042 0.05886,0.16527 0.121735,0.32909 0.181592,0.494 0.0855,0.23231 0.170796,0.46469 0.252486,0.69838 0.08416,0.24142 0.166357,0.48352 0.251013,0.72477 0.08531,0.24142 0.170244,0.48301 0.26053,0.72263 0.08292,0.21762 0.165044,0.43563 0.256895,0.64971 0.121023,0.28635 0.239209,0.57386 0.352493,0.86338 0.13543,0.34012 0.271833,0.67986 0.402966,1.02167 0.153387,0.39994 0.306782,0.79988 0.460145,1.19984 0.169921,0.44121 0.342432,0.88141 0.519006,1.32001 0.194025,0.48526 0.387607,0.97069 0.58106,1.45618 0.187494,0.47385 0.375367,0.94755 0.570508,1.41832 0.197146,0.47947 0.397536,0.95765 0.607515,1.43167 0.233656,0.52489 0.476017,1.04578 0.720002,1.56594 0.286954,0.61664 0.571982,1.23418 0.858227,1.85115 0.329126,0.70647 0.662024,1.41118 0.988764,2.11876 0.344757,0.74975 0.683217,1.50235 1.019937,2.25575 0.326424,0.72013 0.662725,1.43573 1.018931,2.14169 0.394872,0.78986 0.7927,1.57842 1.216134,2.35348 0.47313,0.86286 0.958685,1.71923 1.480949,2.55353 0.526741,0.83221 1.076074,1.65044 1.685063,2.4254 0.588274,0.75078 1.189198,1.49188 1.818513,2.20883 0.510352,0.57574 1.032293,1.14095 1.570214,1.69113 0.417169,0.4294 0.840507,0.85264 1.258554,1.28116 0.322522,0.34208 0.63763,0.69132 0.92763,1.06175 0.253658,0.322 0.503436,0.64901 0.699688,1.01027 0.430072,0.84848 0.632846,1.73338 0.443952,2.68899 -0.09354,0.27565 -0.151225,0.5662 -0.280633,0.82695 -0.504754,1.01704 -1.417233,1.70948 -2.508036,1.97324 -0.434652,0.0833 -0.873302,0.13539 -1.31676,0.10535 -0.266541,-0.0121 -0.533106,-0.0263 -0.798734,-0.052 -0.351441,-0.0362 -0.701646,-0.0826 -1.050089,-0.14122 -0.391705,-0.063 -0.782865,-0.1292 -1.174062,-0.19522 -0.511435,-0.0848 -1.023046,-0.1685 -1.535076,-0.24963 -0.668477,-0.10617 -1.337077,-0.21158 -2.00561,-0.3174 -0.831072,-0.13136 -1.662041,-0.26342 -2.493645,-0.3914 -0.96247,-0.14738 -1.92569,-0.29056 -2.892176,-0.4094 -0.992042,-0.11982 -1.985897,-0.22452 -2.982632,-0.2972 -0.944351,-0.0695 -1.889647,-0.12525 -2.836215,-0.15387 -0.88406,-0.0294 -1.768152,-0.0581 -2.651942,-0.0949 -0.747644,-0.0295 -1.495256,-0.0625 -2.243378,-0.0772 -0.690637,-0.0107 -1.38135,-0.0106 -2.072042,-0.005 -0.677101,0.006 -1.354178,0.0151 -2.031093,0.0323 -0.640151,0.0164 -1.280311,0.036 -1.919478,0.0765 -0.607973,0.0427 -1.214951,0.0973 -1.819918,0.17196 -0.552862,0.0666 -1.105402,0.13708 -1.654677,0.22931 -0.490916,0.0836 -0.980581,0.17444 -1.466837,0.28222 -0.495218,0.1076 -0.989804,0.21804 -1.484741,0.32693 -0.543618,0.11471 -1.08983,0.2168 -1.640142,0.29423 -0.487794,0.0702 -0.976349,0.13476 -1.465834,0.19208 -0.475154,0.0563 -0.950454,0.11228 -1.427496,0.15045 -0.426267,0.0362 -0.852781,0.0712 -1.280162,0.0914 -0.363313,0.0159 -0.726879,0.026 -1.090578,0.0257 -0.330515,-7.9e-4 -0.661406,-0.003 -0.991137,-0.0282 -0.344483,-0.0326 -0.687687,-0.0793 -1.023268,-0.16608 -4.721596,-1.16962 -3.067508,-7.84696 1.654087,-6.67734 z"
       inkscape:connector-curvature="0" />
    <path
       style="opacity:1;fill:#020900;fill-opacity:1;stroke:none;stroke-width:1;stroke-linecap:butt;stroke-linejoin:round;stroke-miterlimit:4;stroke-dasharray:none;stroke-opacity:1"
       id="path1187"
       d="m 32.216611,215.56508 c 0.01786,0.2183 0.02991,0.43701 0.04126,0.65573 -0.0019,0.006 0.01693,0.32686 0.01418,0.20724 -0.0245,-0.1328 0.03777,0.0683 0.04557,0.0901 0.08154,0.21639 0.167195,0.43121 0.254929,0.64516 0.118644,0.28981 0.241403,0.57791 0.365736,0.86532 0.128124,0.29766 0.26493,0.59148 0.404839,0.88375 0.122489,0.2607 0.264255,0.5114 0.41022,0.75946 0.200398,0.33313 0.398254,0.66783 0.604356,0.99748 0.179644,0.2869 0.377518,0.5617 0.57944,0.83316 0.195808,0.26525 0.413338,0.51285 0.635567,0.75597 0.28394,0.30718 0.585951,0.59681 0.88647,0.88755 0.41637,0.40369 0.832522,0.80761 1.250053,1.21011 0.435179,0.42102 0.878652,0.83328 1.32965,1.23727 0.421939,0.38123 0.866185,0.73609 1.322168,1.07544 0.441857,0.32754 0.908836,0.61827 1.383086,0.89596 0.507497,0.29369 1.029988,0.56018 1.557197,0.81638 0.533601,0.25611 1.078135,0.4884 1.624666,0.71526 0.543325,0.22774 1.096171,0.43119 1.651429,0.6276 0.529545,0.18734 1.065744,0.35469 1.605089,0.51126 0.498388,0.14672 1.004038,0.26504 1.514277,0.36185 0.522449,0.0958 1.05025,0.15673 1.578512,0.2093 0.509175,0.0535 1.020963,0.0574 1.532149,0.0444 0.497038,-0.0125 0.991026,-0.0644 1.480415,-0.15022 0.472956,-0.0892 0.932416,-0.23366 1.388184,-0.38572 0.490424,-0.1691 0.976141,-0.3516 1.454351,-0.55265 0.380281,-0.15604 0.736603,-0.36011 1.084874,-0.57667 0.436155,-0.27771 0.856403,-0.57933 1.272238,-0.88632 0.350957,-0.26043 0.691404,-0.53464 1.006131,-0.83805 0.24174,-0.23912 0.437804,-0.51721 0.630312,-0.79591 0.274664,-0.40346 0.517144,-0.82725 0.753893,-1.25365 0.280199,-0.51484 0.551754,-1.03436 0.824653,-1.55309 0.247735,-0.4704 0.488728,-0.94428 0.721469,-1.42227 0.194106,-0.39838 0.371721,-0.80439 0.543584,-1.21276 0.157993,-0.37799 0.307197,-0.75956 0.454027,-1.142 0.121224,-0.31382 0.239491,-0.62876 0.346216,-0.94783 0.09533,-0.29055 0.175352,-0.58579 0.255672,-0.88075 0.08283,-0.30621 0.164724,-0.61267 0.246721,-0.91911 0.06596,-0.24626 0.131874,-0.49253 0.196937,-0.73904 0.05276,-0.2004 0.105281,-0.40087 0.15783,-0.60133 0.04232,-0.16146 0.08464,-0.32292 0.12696,-0.48438 0.139237,-0.50662 0.05436,-0.23457 -0.0053,0.11439 -0.03247,0.24009 -0.03617,0.48282 -0.01185,0.72358 -0.0024,-0.0195 -0.0049,-0.0389 -0.0074,-0.0584 -0.0019,-0.0155 -0.0039,-0.031 -0.0059,-0.0465 0.0013,0.0103 -0.0026,-0.0178 -0.0031,-0.0212 0.175175,1.3695 1.359257,2.56689 2.689301,2.84295 0.0061,0.0119 0.225783,0.0217 0.104299,0.0222 -0.218551,0.002 -0.437097,0.004 -0.655645,0.007 -0.376476,0.007 -0.752811,0.003 -1.129147,-0.008 -0.466809,-0.0165 -0.932942,-0.0461 -1.398484,-0.0837 -0.498239,-0.0438 -0.995704,-0.096 -1.493276,-0.14683 -0.521399,-0.0539 -1.043403,-0.10143 -1.565363,-0.14944 -0.577744,-0.0557 -1.154964,-0.11644 -1.732899,-0.17016 -0.57939,-0.0549 -1.159936,-0.0954 -1.740741,-0.13171 -0.617982,-0.0379 -1.23638,-0.0685 -1.854843,-0.0973 -0.64253,-0.0291 -1.285192,-0.0553 -1.928035,-0.0764 -0.643107,-0.0189 -1.286409,-0.0305 -1.929709,-0.0404 -0.6507,-0.009 -1.301433,-0.0168 -1.952165,-0.0239 -0.620757,-0.006 -1.241507,-0.0142 -1.862301,-0.0159 -0.592037,-0.003 -1.183918,0.0123 -1.775664,0.0289 -0.633465,0.0154 -1.2665,0.0428 -1.899333,0.0744 -0.706376,0.0392 -1.412419,0.0841 -2.118711,0.12484 -0.755179,0.0419 -1.510144,0.0873 -2.264826,0.13725 -0.774319,0.0516 -1.548352,0.10727 -2.322211,0.16529 -0.770003,0.0597 -1.54007,0.11843 -2.310407,0.17364 -0.708658,0.05 -1.417543,0.0967 -2.126253,0.14589 -0.585385,0.0418 -1.170625,0.0857 -1.755891,0.12909 -0.473869,0.0352 -0.947738,0.0704 -1.421607,0.10552 -0.37783,0.0281 -0.755663,0.0561 -1.133493,0.0841 -0.301144,0.0223 -0.602287,0.0447 -0.90343,0.0671 -0.24002,0.0178 -0.480039,0.0356 -0.720056,0.0534 -0.191302,0.0142 -0.382601,0.0284 -0.573902,0.0426 -0.152469,0.0113 -0.304941,0.0226 -0.457412,0.034 -0.121523,0.009 -0.243044,0.0181 -0.364567,0.0271 -0.09686,0.007 -0.193714,0.0144 -0.290571,0.0216 -0.109034,0.005 -0.439361,0.0405 0.02948,-0.01 0.256707,-0.0699 0.513414,-0.13974 0.77012,-0.20961 -4.499094,1.84922 -7.114291,-4.51346 -2.615197,-6.36268 v 0 c 0.273286,-0.0767 0.546574,-0.15337 0.819862,-0.23006 0.162121,-0.0189 0.323556,-0.0394 0.486503,-0.0484 0.09686,-0.007 0.193712,-0.0144 0.290568,-0.0216 0.121523,-0.009 0.243046,-0.018 0.364569,-0.0271 0.152471,-0.0113 0.30494,-0.0226 0.457412,-0.034 0.191301,-0.0142 0.3826,-0.0284 0.573902,-0.0426 0.240017,-0.0178 0.480036,-0.0356 0.720053,-0.0534 0.301143,-0.0224 0.602287,-0.0447 0.90343,-0.0671 0.377833,-0.0281 0.755666,-0.0561 1.133499,-0.0841 0.473914,-0.0352 0.94783,-0.0704 1.421744,-0.10553 0.59608,-0.0442 1.19213,-0.0889 1.788332,-0.13142 0.703696,-0.0489 1.407559,-0.0953 2.111203,-0.14483 0.762849,-0.0546 1.525418,-0.11294 2.287934,-0.172 0.79379,-0.0595 1.587751,-0.11666 2.382012,-0.16951 0.77421,-0.0512 1.548696,-0.098 2.323415,-0.14087 0.723998,-0.0417 1.447723,-0.088 2.171837,-0.1277 0.682914,-0.034 1.366049,-0.0635 2.04964,-0.0803 0.66231,-0.0185 1.324779,-0.0345 1.987412,-0.0315 0.639488,0.002 1.278933,0.01 1.918383,0.0163 0.661239,0.007 1.322477,0.0147 1.983687,0.0243 0.683122,0.0106 1.36625,0.023 2.049161,0.0433 0.674005,0.0223 1.347838,0.0495 2.021512,0.0802 0.655031,0.0305 1.309986,0.063 1.964499,0.10323 0.650156,0.0407 1.300004,0.0865 1.948588,0.14788 0.575466,0.0536 1.1503,0.11342 1.725525,0.16948 0.544777,0.0501 1.08958,0.0999 1.633773,0.15607 0.45135,0.0461 0.902607,0.0933 1.354473,0.13409 0.349925,0.029 0.700376,0.0506 1.051256,0.0642 0.282953,0.009 0.565817,0.0109 0.848894,0.005 0.262147,-0.003 0.524291,-0.006 0.786451,-0.007 0.313565,0.004 0.627554,0.0167 0.937667,0.0669 1.474856,0.28581 2.763356,1.23832 3.015126,2.96954 0.0039,0.0269 0.0077,0.0538 0.01138,0.0808 0.0042,0.0315 0.0083,0.063 0.01222,0.0945 0.0051,0.0401 0.01024,0.0802 0.01505,0.12039 0.03734,0.32231 0.04488,0.64765 0.0021,0.97031 -0.04405,0.27348 -0.09992,0.53949 -0.162166,0.74359 -0.04234,0.16156 -0.08468,0.32311 -0.127032,0.48466 -0.05355,0.20428 -0.107071,0.40857 -0.16084,0.61279 -0.06705,0.25396 -0.134914,0.50771 -0.20289,0.76143 -0.08471,0.31658 -0.16931,0.63318 -0.254932,0.94951 -0.115969,0.42532 -0.233886,0.85035 -0.373734,1.26858 -0.138504,0.40929 -0.286835,0.81505 -0.443482,1.21776 -0.1734,0.45135 -0.3499,0.90154 -0.53677,1.34751 -0.221015,0.52372 -0.449763,1.04424 -0.699088,1.55522 -0.264022,0.54111 -0.53618,1.07818 -0.816983,1.61079 -0.298063,0.56656 -0.594595,1.13402 -0.901829,1.69568 -0.350938,0.62939 -0.713928,1.25279 -1.124117,1.84594 -0.463349,0.65986 -0.957056,1.30012 -1.544249,1.85625 -0.523629,0.49096 -1.071753,0.95417 -1.651751,1.37778 -0.570844,0.42011 -1.148405,0.83193 -1.74947,1.20811 -0.654391,0.40001 -1.326094,0.77228 -2.036649,1.06445 -0.639733,0.26619 -1.28728,0.51323 -1.94365,0.73559 -0.789818,0.26027 -1.588865,0.49683 -2.409605,0.63921 -0.816174,0.13431 -1.638353,0.22692 -2.4662,0.24381 -0.792583,0.0165 -1.585976,0.006 -2.375218,-0.0771 -0.734112,-0.0743 -1.467278,-0.16243 -2.192768,-0.29915 -0.718873,-0.1399 -1.432656,-0.30417 -2.135336,-0.51174 -0.664654,-0.19392 -1.325713,-0.40017 -1.978393,-0.63159 -0.670742,-0.2377 -1.338267,-0.48469 -1.994812,-0.75962 -0.672481,-0.27964 -1.342091,-0.56687 -1.998107,-0.88362 -0.688227,-0.33595 -1.370288,-0.68523 -2.032066,-1.07122 -0.690772,-0.40761 -1.370346,-0.83497 -2.013588,-1.31517 -0.618474,-0.46359 -1.223052,-0.94559 -1.796664,-1.46422 -0.512133,-0.45969 -1.016876,-0.9275 -1.511329,-1.4062 -0.420555,-0.40545 -0.839798,-0.81226 -1.259181,-1.21893 -0.405178,-0.39211 -0.810069,-0.785 -1.190739,-1.20128 -0.375888,-0.41423 -0.74142,-0.8381 -1.073586,-1.28867 -0.311058,-0.42041 -0.614577,-0.84673 -0.891098,-1.29091 -0.238914,-0.38395 -0.470964,-0.77208 -0.702789,-1.16033 -0.242361,-0.41501 -0.475999,-0.83528 -0.681183,-1.27017 -0.176689,-0.37025 -0.34984,-0.74226 -0.511951,-1.11918 -0.142351,-0.32926 -0.282895,-0.65932 -0.418745,-0.99132 -0.131945,-0.32312 -0.261697,-0.64724 -0.38027,-0.97554 -0.138853,-0.3996 -0.266139,-0.80434 -0.336915,-1.22242 -0.05252,-0.3292 -0.09108,-0.66008 -0.100422,-0.99361 -0.0074,-0.14335 -0.01495,-0.28672 -0.02585,-0.42985 -0.411086,-4.84691 6.443472,-5.42827 6.854557,-0.58137 z"
       inkscape:connector-curvature="0" />
  </g>
</svg>
