<svg viewBox="0 0 100 100"><path style="opacity:1;fill:#020900;fill-opacity:1;stroke:none;stroke-width:1;stroke-linecap:butt;stroke-linejoin:round;stroke-miterlimit:4;stroke-dasharray:none;stroke-opacity:1" d="M29.47 280.21c.073.014-.017-.006-.041-.01l.416.002a18 18 0 0 0 1.773-.092c.402-.032.801-.08 1.201-.127a49 49 0 0 0 1.294-.17q.6-.086 1.193-.214.726-.162 1.453-.32a37 37 0 0 1 1.77-.341 42 42 0 0 1 1.988-.278 42 42 0 0 1 2.159-.205 57 57 0 0 1 2.228-.091 125 125 0 0 1 4.384-.03c.804.015 1.607.05 2.41.082.87.037 1.74.065 2.61.094a71 71 0 0 1 6.413.497c1.04.127 2.075.28 3.11.439q1.264.196 2.527.396l2.01.318q.791.126 1.581.257.57.098 1.14.19c.215.035.43.068.647.089q.21.016.42.024c.07-.031-.452.046-.49.053-.95.22-1.73.852-2.176 1.723-.12.235-.176.498-.263.747a3.16 3.16 0 0 0 .23 2.025c.13.22.05.105-.047-.017a8 8 0 0 0-.523-.594q-.6-.607-1.198-1.218a55 55 0 0 1-1.782-1.919 58 58 0 0 1-2.086-2.53c-.751-.955-1.43-1.961-2.081-2.986a57 57 0 0 1-1.703-2.929 79 79 0 0 1-1.338-2.586 64 64 0 0 1-1.131-2.377q-.497-1.114-1.005-2.223c-.322-.697-.65-1.391-.974-2.088l-.86-1.854q-.391-.831-.767-1.668a65 65 0 0 1-.685-1.614q-.309-.75-.606-1.505-.284-.716-.572-1.433-.28-.699-.55-1.401l-.464-1.21q-.183-.47-.371-.94a28 28 0 0 0-.298-.73c-.124-.29-.237-.584-.349-.878q-.163-.439-.318-.88l-.26-.752q-.105-.294-.213-.587-.102-.273-.2-.546a18 18 0 0 1-.194-.578q-.026-.07-.056-.136a10 10 0 0 0-.115-.261c.318.745.96 1.093 1.62 1.5.398.088.786.243 1.193.263 1.084.053 2.06-.46 2.714-1.283.22-.36.025.015-.04.159q-.252.559-.514 1.112-.345.696-.701 1.386a48 48 0 0 1-.858 1.588 46 46 0 0 1-1.01 1.69c-.357.567-.73 1.124-1.1 1.682q-.564.847-1.123 1.696-.56.848-1.117 1.697-.586.889-1.193 1.762a87 87 0 0 1-1.258 1.77q-.622.842-1.241 1.687-.62.84-1.218 1.698-.624.896-1.232 1.8-.594.882-1.177 1.772c-.382.578-.77 1.152-1.153 1.728q-.529.795-1.037 1.604l-1.004 1.601q-.475.767-.959 1.53a63 63 0 0 0-1.546 2.558q-.32.564-.637 1.132-.285.52-.565 1.046l-.485.925q-.2.38-.397.763l-.35.685a9 9 0 0 0-.22.45q-.03.067-.057.134c-1.8 4.52-8.19 1.974-6.39-2.545q.089-.222.186-.44.169-.372.357-.735l.356-.694q.208-.403.418-.804.254-.489.513-.976.308-.58.624-1.156.337-.605.68-1.207a67 67 0 0 1 1.703-2.819q.471-.744.935-1.492l1.019-1.625q.554-.883 1.132-1.751l1.132-1.696q.606-.924 1.223-1.84c.427-.632.854-1.263 1.292-1.887q.642-.919 1.306-1.823.614-.839 1.232-1.675.592-.811 1.165-1.637.559-.805 1.098-1.622.558-.851 1.119-1.7.566-.86 1.136-1.716c.336-.505.673-1.01.997-1.522q.438-.7.848-1.415.381-.676.737-1.365.313-.608.619-1.22c.163-.338.315-.68.47-1.022.19-.41.38-.822.635-1.196.756-.999 1.808-1.717 3.131-1.668.43.016.841.177 1.262.265.307.185.635.34.922.556.471.353.793.876 1.048 1.395q.105.229.204.461c.102.242.2.486.279.736q.055.177.116.35l.181.495q.13.348.253.698l.25.725q.127.362.261.722c.083.218.165.436.257.65q.183.43.353.863.205.51.403 1.022l.46 1.2q.254.661.519 1.32l.581 1.456q.279.712.57 1.418.295.72.608 1.432.352.787.72 1.566l.858 1.851q.497 1.059.989 2.119.516 1.125 1.02 2.256.487 1.081 1.019 2.141c.395.79.793 1.579 1.216 2.354.473.863.959 1.72 1.48 2.553a29 29 0 0 0 1.686 2.426c.588.75 1.19 1.492 1.819 2.209q.764.864 1.57 1.69c.417.43.84.853 1.258 1.282.323.342.638.691.928 1.062.254.322.503.649.7 1.01.43.848.632 1.733.444 2.689-.094.276-.152.566-.281.827-.505 1.017-1.417 1.71-2.508 1.973a5 5 0 0 1-1.317.106 16 16 0 0 1-.799-.052 17 17 0 0 1-1.05-.142q-.587-.095-1.174-.195-.767-.127-1.535-.25l-2.005-.317q-1.247-.198-2.494-.391a99 99 0 0 0-2.892-.41 66 66 0 0 0-5.819-.451c-.884-.03-1.768-.058-2.652-.095-.748-.03-1.495-.062-2.243-.077q-1.037-.014-2.072-.005-1.017.008-2.032.032c-.64.017-1.28.036-1.92.077a35 35 0 0 0-1.819.172 30 30 0 0 0-3.122.512q-.743.161-1.484.326c-.544.115-1.09.217-1.64.295q-.732.105-1.466.192c-.475.056-.95.112-1.428.15a25 25 0 0 1-2.37.117c-.331 0-.662-.003-.992-.028a6.5 6.5 0 0 1-1.023-.166c-4.721-1.17-3.067-7.847 1.654-6.677m2.747-64.645q.025.327.04.656c-.001.006.018.327.015.207-.024-.133.038.068.046.09q.122.325.255.645.178.435.365.866.194.445.405.883c.123.261.264.512.41.76q.298.502.605.997c.18.287.377.562.58.833.195.266.412.513.635.756.284.308.586.597.886.888q.625.607 1.25 1.21.653.631 1.33 1.237c.422.382.866.736 1.322 1.076.442.327.909.618 1.383.896.508.293 1.03.56 1.557.816a33 33 0 0 0 1.625.715 31 31 0 0 0 3.257 1.14 16 16 0 0 0 1.514.361c.522.096 1.05.157 1.578.21.51.053 1.021.057 1.532.044q.746-.021 1.48-.15c.474-.09.933-.234 1.39-.386q.736-.253 1.453-.553a7.4 7.4 0 0 0 1.085-.576c.436-.278.857-.58 1.273-.887.35-.26.69-.534 1.006-.838.241-.239.437-.517.63-.796.275-.403.517-.827.754-1.253.28-.515.552-1.035.825-1.553q.371-.706.721-1.423c.194-.398.372-.804.544-1.212a42 42 0 0 0 .8-2.09c.095-.29.175-.586.255-.881l.247-.92.197-.738.158-.602.127-.484c.14-.507.054-.234-.005.114q-.05.361-.012.724l-.008-.058-.006-.047-.003-.021c.176 1.37 1.36 2.567 2.69 2.843.006.012.225.022.104.022l-.656.007a24 24 0 0 1-2.527-.092c-.499-.043-.996-.096-1.494-.146q-.782-.08-1.565-.15c-.578-.056-1.155-.116-1.733-.17a55 55 0 0 0-1.74-.132q-.928-.055-1.855-.097-.965-.045-1.928-.076c-.644-.02-1.287-.03-1.93-.04l-1.952-.025c-.621-.006-1.242-.014-1.863-.016a54 54 0 0 0-1.775.03q-.95.024-1.9.074c-.706.039-1.412.084-2.118.125a213 213 0 0 0-4.587.302q-1.155.09-2.31.174l-2.127.146q-.877.062-1.756.129l-1.422.105-1.133.084-1.624.12q-.286.023-.573.043l-.458.034-.364.027-.291.022c-.109.005-.44.04.03-.01l.77-.21c-4.5 1.85-7.115-4.513-2.616-6.362l.82-.23c.162-.02.324-.04.487-.049l.29-.021.365-.027.457-.034.574-.043.72-.053.904-.067 2.555-.19 1.788-.132 2.112-.144q1.144-.083 2.287-.172 1.191-.09 2.382-.17 1.163-.077 2.324-.14c.724-.042 1.448-.089 2.172-.128a82 82 0 0 1 2.05-.08 61 61 0 0 1 1.987-.032q.96.005 1.918.016.992.01 1.984.024 1.024.014 2.049.044a162 162 0 0 1 3.986.183q.975.058 1.949.148.862.083 1.725.17.818.074 1.634.156.676.07 1.354.134.524.043 1.052.064.424.013.849.005.393-.005.786-.007c.314.004.628.017.938.067 1.474.286 2.763 1.238 3.015 2.97l.023.175.015.12c.038.322.045.648.003.97-.045.274-.1.54-.163.744l-.127.485-.16.612-.203.762-.255.95c-.116.425-.234.85-.374 1.268q-.209.614-.444 1.218-.258.676-.536 1.347c-.221.524-.45 1.044-.7 1.555a58 58 0 0 1-.816 1.611c-.298.567-.595 1.134-.902 1.696-.351.63-.714 1.253-1.124 1.846-.464.66-.957 1.3-1.545 1.856-.523.49-1.071.954-1.651 1.378-.571.42-1.149.832-1.75 1.208-.654.4-1.326.772-2.036 1.064-.64.266-1.288.514-1.944.736-.79.26-1.589.497-2.41.64-.816.133-1.638.226-2.466.243-.793.016-1.586.006-2.375-.077a26 26 0 0 1-2.193-.3 23 23 0 0 1-2.135-.511 38 38 0 0 1-3.973-1.391 39 39 0 0 1-1.999-.884 31 31 0 0 1-2.032-1.071 22 22 0 0 1-2.013-1.315 25 25 0 0 1-1.797-1.465 55 55 0 0 1-1.511-1.406l-1.26-1.219c-.405-.392-.81-.785-1.19-1.2a17 17 0 0 1-1.074-1.29 20 20 0 0 1-.89-1.29 74 74 0 0 1-.704-1.16 16 16 0 0 1-.68-1.271q-.267-.554-.513-1.12-.214-.493-.418-.99a26 26 0 0 1-.38-.976 7.6 7.6 0 0 1-.338-1.222 8 8 0 0 1-.1-.994 18 18 0 0 0-.026-.43c-.411-4.847 6.444-5.428 6.855-.581" transform="translate(0 -197)"/></svg>