<?xml version="1.0" encoding="UTF-8" standalone="no"?>
<!-- Created with Inkscape (http://www.inkscape.org/) -->

<svg
   xmlns:dc="http://purl.org/dc/elements/1.1/"
   xmlns:cc="http://creativecommons.org/ns#"
   xmlns:rdf="http://www.w3.org/1999/02/22-rdf-syntax-ns#"
   xmlns:svg="http://www.w3.org/2000/svg"
   xmlns="http://www.w3.org/2000/svg"
   xmlns:sodipodi="http://sodipodi.sourceforge.net/DTD/sodipodi-0.dtd"
   xmlns:inkscape="http://www.inkscape.org/namespaces/inkscape"
   width="10cm"
   height="10cm"
   viewBox="0 0 100 99.999997"
   version="1.1"
   id="svg8"
   sodipodi:docname="lon.svg"
   inkscape:version="0.92.3 (2405546, 2018-03-11)">
  <defs
     id="defs2" />
  <sodipodi:namedview
     id="base"
     pagecolor="#ffffff"
     bordercolor="#666666"
     borderopacity="1.0"
     inkscape:pageopacity="0.0"
     inkscape:pageshadow="2"
     inkscape:zoom="1"
     inkscape:cx="125.50186"
     inkscape:cy="200.50542"
     inkscape:document-units="cm"
     inkscape:current-layer="layer1"
     showgrid="true"
     units="cm"
     inkscape:window-width="1920"
     inkscape:window-height="1017"
     inkscape:window-x="-8"
     inkscape:window-y="-8"
     inkscape:window-maximized="1"
     inkscape:snap-nodes="false">
    <inkscape:grid
       type="xygrid"
       id="grid815"
       units="cm"
       spacingx="9.9999998"
       spacingy="9.9999998" />
  </sodipodi:namedview>
  <metadata
     id="metadata5">
    <rdf:RDF>
      <cc:Work
         rdf:about="">
        <dc:format>image/svg+xml</dc:format>
        <dc:type
           rdf:resource="http://purl.org/dc/dcmitype/StillImage" />
        <dc:title></dc:title>
      </cc:Work>
    </rdf:RDF>
  </metadata>
  <g
     inkscape:label="Layer 1"
     inkscape:groupmode="layer"
     id="layer1"
     transform="translate(0,-197.00002)">
    <path
       style="opacity:1;fill:#020900;fill-opacity:1;stroke:none;stroke-width:1;stroke-linecap:butt;stroke-linejoin:round;stroke-miterlimit:4;stroke-dasharray:none;stroke-opacity:1"
       id="path1191"
       d="m 10.303284,263.70305 c 0.126027,0.008 0.252193,0.0143 0.378376,0.0197 0.184128,0.008 0.368343,0.0127 0.552566,0.0173 0.26624,0.006 0.532521,0.0107 0.798805,0.0148 0.320137,0.002 0.640318,3e-5 0.960399,-0.006 0.399666,-0.009 0.798967,-0.0292 1.198284,-0.0474 0.495172,-0.0229 0.990523,-0.0416 1.485912,-0.059 0.517772,-0.0182 1.035669,-0.0324 1.553532,-0.0476 0.496588,-0.0164 0.992311,-0.0511 1.488115,-0.0824 0.547893,-0.0351 1.095903,-0.0684 1.643595,-0.10653 0.585284,-0.0443 1.170527,-0.089 1.756078,-0.1296 0.594476,-0.0386 1.189003,-0.0758 1.783102,-0.11988 0.601948,-0.0487 1.203161,-0.10591 1.804752,-0.15875 0.647686,-0.0553 1.295863,-0.10466 1.943671,-0.15851 0.690245,-0.0585 1.379448,-0.12838 2.06909,-0.19343 0.790202,-0.0749 1.581271,-0.14004 2.372452,-0.20362 0.826516,-0.0681 1.653601,-0.12892 2.480961,-0.18578 0.825852,-0.0549 1.651945,-0.10604 2.477783,-0.16114 0.821113,-0.0568 1.642497,-0.10948 2.464086,-0.15886 0.812334,-0.0486 1.62505,-0.0904 2.43786,-0.13009 0.797542,-0.0387 1.595332,-0.0719 2.393186,-0.10346 0.787029,-0.0309 1.574225,-0.0573 2.361461,-0.0823 0.761847,-0.024 1.523773,-0.0453 2.285733,-0.0654 0.746781,-0.0195 1.493631,-0.0362 2.240497,-0.0521 0.739029,-0.0156 1.478105,-0.0288 2.217192,-0.0415 0.733576,-0.0125 1.467184,-0.023 2.200797,-0.033 0.736002,-0.01 1.472025,-0.0183 2.208053,-0.0263 0.723231,-0.008 1.446472,-0.0145 2.169716,-0.0209 0.714714,-0.006 1.429435,-0.0116 2.144159,-0.0167 0.720604,-0.005 1.441212,-0.009 2.161824,-0.0133 0.733943,-0.004 1.467889,-0.007 2.201836,-0.0106 0.714068,-0.003 1.428138,-0.006 2.142209,-0.008 0.691401,-0.002 1.382805,-0.005 2.074206,-0.007 0.659062,-0.002 1.318123,-0.004 1.977181,-0.005 0.627872,-0.002 1.255742,-0.003 1.883614,-0.004 0.577062,-0.001 1.154126,-0.002 1.731187,-0.003 0.524238,-10e-4 1.048475,-0.002 1.572713,-0.003 0.472135,-7.9e-4 0.944271,-0.002 1.416407,-0.002 0.415152,-5.3e-4 0.830307,-10e-4 1.245462,-0.002 0.35659,-5.3e-4 0.713179,-10e-4 1.069766,-10e-4 0.316606,-2.7e-4 0.633209,-8e-4 0.949815,-10e-4 0.311369,-2.7e-4 0.622736,-5.3e-4 0.934106,-8e-4 0.305427,-2.5e-4 0.610854,-5.2e-4 0.916281,-7.9e-4 0.306382,-10e-4 0.612693,0.005 0.91898,0.0121 0.247703,0.005 0.495401,0.0107 0.743056,0.018 0.20869,0.006 0.417385,0.0125 0.626089,0.0185 0.18479,0.005 0.369596,0.01 0.554402,0.0148 0.1577,0.004 0.315402,0.008 0.473107,0.0119 0.131278,0.003 0.262557,0.006 0.393835,0.01 0.128844,0.003 0.25759,0.009 0.386326,0.0144 0.08489,0.004 0.169781,0.008 0.254672,0.0116 0.154813,0.0106 0.431956,0.003 -0.265628,0.008 4.852619,-0.33695 5.329142,6.52569 0.476522,6.86264 v 0 c -0.177035,0.002 -0.350665,0.0126 -0.526163,0.002 -0.08269,-0.004 -0.165373,-0.008 -0.248063,-0.0113 -0.08144,-0.004 -0.162886,-0.008 -0.244401,-0.009 -0.131911,-0.003 -0.263821,-0.006 -0.395732,-0.01 -0.160555,-0.004 -0.321109,-0.008 -0.481661,-0.0121 -0.191296,-0.005 -0.38259,-0.01 -0.573873,-0.0153 -0.210394,-0.006 -0.420783,-0.0122 -0.631166,-0.0187 -0.22968,-0.007 -0.459399,-0.0116 -0.689123,-0.0166 -0.255421,-0.005 -0.510855,-0.0114 -0.766358,-0.0105 -0.305086,2.2e-4 -0.610172,5.3e-4 -0.915257,8e-4 -0.310854,2.6e-4 -0.621705,5.3e-4 -0.932559,7.9e-4 -0.316232,2.7e-4 -0.632462,8e-4 -0.948695,0.001 -0.356357,5.3e-4 -0.712713,7.9e-4 -1.069073,10e-4 -0.414901,5.3e-4 -0.829802,10e-4 -1.244703,0.002 -0.471726,7.9e-4 -0.943449,10e-4 -1.415174,0.002 -0.523687,7.9e-4 -1.047377,0.002 -1.571064,0.003 -0.576519,10e-4 -1.153038,0.002 -1.729555,0.003 -0.626965,0.001 -1.253932,0.003 -1.880896,0.004 -0.657911,0.002 -1.315821,0.003 -1.973729,0.005 -0.690022,0.002 -1.380048,0.004 -2.070068,0.007 -0.712266,0.003 -1.42453,0.005 -2.136793,0.008 -0.731362,0.003 -1.46272,0.007 -2.194076,0.0105 -0.717119,0.004 -1.434238,0.008 -2.151351,0.0132 -0.710568,0.005 -1.421135,0.0103 -2.131692,0.0166 -0.718714,0.006 -1.437426,0.0131 -2.156127,0.0208 -0.7297,0.008 -1.459391,0.0162 -2.189067,0.026 -0.725628,0.01 -1.451248,0.0203 -2.176838,0.0326 -0.729531,0.0125 -1.459056,0.0255 -2.188533,0.0409 -0.735311,0.0156 -1.470607,0.0321 -2.205834,0.0513 -0.749398,0.0197 -1.498764,0.0406 -2.248048,0.0643 -0.769538,0.0245 -1.539036,0.0502 -2.308376,0.0804 -0.776565,0.0307 -1.553067,0.063 -2.329328,0.10064 -0.787056,0.0384 -1.574017,0.0788 -2.36061,0.12588 -0.806513,0.0485 -1.612812,0.10024 -2.418855,0.156 -0.821293,0.0548 -1.64283,0.10572 -2.464141,0.16021 -0.800913,0.055 -1.60155,0.1139 -2.401642,0.17988 -0.759491,0.061 -1.518883,0.12343 -2.277435,0.19532 -0.715058,0.0674 -1.429647,0.13993 -2.145361,0.20019 -0.637087,0.0529 -1.274511,0.10165 -1.911498,0.15576 -0.632419,0.0555 -1.264415,0.11597 -1.897284,0.16625 -0.605136,0.0449 -1.210668,0.0832 -1.816205,0.12226 -0.585302,0.0406 -1.170264,0.0856 -1.755321,0.12954 -0.56226,0.039 -1.124811,0.0736 -1.687278,0.10943 -0.572744,0.0361 -1.14544,0.0753 -1.719138,0.0931 -0.504682,0.0148 -1.009399,0.0287 -1.513994,0.0463 -0.47123,0.0166 -0.942424,0.0343 -1.413445,0.0561 -0.461081,0.0211 -0.922162,0.044 -1.38367,0.0534 -0.397853,0.007 -0.79581,0.0105 -1.193722,0.007 -0.289015,-0.004 -0.578028,-0.009 -0.866994,-0.0162 -0.22558,-0.006 -0.45115,-0.012 -0.676607,-0.0215 -0.179826,-0.008 -0.359618,-0.0165 -0.5392189,-0.0286 -4.8535309,-0.32358 -4.3959168,-7.18751 0.4576139,-6.86393 z"
       inkscape:connector-curvature="0" />
    <path
       style="opacity:1;fill:#020900;fill-opacity:1;stroke:none;stroke-width:1;stroke-linecap:butt;stroke-linejoin:round;stroke-miterlimit:4;stroke-dasharray:none;stroke-opacity:1"
       id="path1193"
       d="m 47.563547,237.2742 c 0.01365,-0.007 0.02958,-0.009 0.04438,-0.0135 -0.0061,0.007 0.01802,-0.006 0.02659,-0.0101 -0.03306,0.032 -0.06415,0.0712 -0.09161,0.10559 -0.04229,0.0739 -0.0892,0.14533 -0.133093,0.21839 -0.06672,0.10941 -0.12714,0.22228 -0.182261,0.33791 -0.05805,0.12514 -0.110593,0.25271 -0.161536,0.38087 -0.02432,0.0414 -0.03997,0.11927 -0.04119,0.13211 -0.0042,0.0255 -0.0294,0.17039 -0.01048,0.0878 0.0077,-0.0323 0.0075,-0.0572 0.0084,-0.0935 -0.0037,-0.0572 0.01455,0.006 0.03183,0.0539 0.04122,0.0828 -0.03593,-0.0867 -0.04401,-0.1022 -0.05403,-0.0983 -0.125352,-0.185 -0.198208,-0.26966 0.06054,0.0482 0.125024,0.0909 0.191646,0.13015 0.08297,0.0464 0.169958,0.085 0.256908,0.12322 0.172984,0.0609 -0.04782,-0.0163 -0.08729,-0.0266 -0.08342,-0.0258 -0.232907,-0.0198 -0.05074,-0.0403 0.170323,-0.032 0.0041,-0.004 -0.05821,0.0128 -0.09671,0.0261 -0.183671,0.0743 -0.265724,0.13028 -0.06327,0.0382 -0.133141,0.12987 -0.05845,0.002 0.09357,-0.1649 0.191884,-0.32802 0.266724,-0.50256 0.02159,-0.0618 -0.01931,0.017 -0.0244,0.0292 -0.02564,0.0923 -0.0266,0.18587 -0.02087,0.28056 0.0091,0.12893 0.04475,0.25144 0.09282,0.37055 0.03551,0.0871 0.08895,0.16884 0.134797,0.24887 -0.01796,-0.0184 -0.04156,-0.0359 -0.06121,-0.0489 0.04911,0.0483 0.220273,0.16109 0.228377,0.1675 -0.14329,-0.0441 0.104561,0.0321 0.117803,0.0359 0.378273,0.0969 0.764014,0.0829 1.14141,-0.004 0.09277,-0.0202 0.177419,-0.0569 0.261038,-0.10064 0.129289,-0.0751 0.186169,-0.12817 0.02772,0.0107 -0.112535,0.10042 -0.227346,0.19834 -0.338711,0.30006 0.08367,-0.0696 0.15354,-0.15357 0.225559,-0.23458 -3.060205,3.78108 -8.407468,-0.5467 -5.347263,-4.32778 v 0 c 0.160464,-0.18808 0.320596,-0.37666 0.50745,-0.53976 0.139697,-0.12589 0.280979,-0.25001 0.422129,-0.37427 0.301003,-0.26327 0.608618,-0.52083 0.952987,-0.72666 0.427088,-0.24874 0.871326,-0.4669 1.347369,-0.60648 0.76081,-0.20326 1.539121,-0.28565 2.316483,-0.10702 0.408525,0.1021 0.810652,0.22522 1.193594,0.40293 0.451199,0.20646 0.889648,0.44333 1.275228,0.75918 0.304461,0.25052 0.597548,0.51507 0.859986,0.81012 0.35669,0.40576 0.684035,0.83797 0.921702,1.32597 0.251547,0.54036 0.454372,1.10152 0.53503,1.69546 0.07283,0.60124 0.09286,1.2071 -0.01024,1.80708 -0.106703,0.58976 -0.260241,1.17031 -0.515889,1.71504 -0.21,0.44662 -0.441106,0.88296 -0.702956,1.30165 -0.365659,0.56672 -0.772642,1.10791 -1.289143,1.5479 -0.527349,0.43291 -1.093303,0.81484 -1.736209,1.05681 -0.558352,0.20236 -1.131001,0.35799 -1.725215,0.40789 -0.587709,0.0554 -1.180338,0.0762 -1.765451,-0.0221 -0.548063,-0.10229 -1.086906,-0.24506 -1.593278,-0.48382 -0.378836,-0.17189 -0.75252,-0.35636 -1.104837,-0.57863 -0.352888,-0.22528 -0.696822,-0.46495 -1.014031,-0.73906 -0.433028,-0.38208 -0.835973,-0.79852 -1.141458,-1.29249 -0.25215,-0.41558 -0.476316,-0.8475 -0.62928,-1.31053 -0.143414,-0.42255 -0.268422,-0.85206 -0.332621,-1.29473 -0.06287,-0.46122 -0.098,-0.92619 -0.06285,-1.39168 0.03322,-0.40667 0.08752,-0.81123 0.184494,-1.20816 0.09043,-0.36511 0.197802,-0.72577 0.341334,-1.07396 0.114932,-0.28649 0.234712,-0.57118 0.369305,-0.84909 0.148979,-0.30225 0.306851,-0.60004 0.482862,-0.88758 0.205658,-0.33686 0.419447,-0.66964 0.667509,-0.97734 0.241015,-0.29261 0.49411,-0.57525 0.773377,-0.83227 0.287494,-0.26162 0.587259,-0.51017 0.916178,-0.71875 0.274487,-0.17456 0.555242,-0.34015 0.852641,-0.4732 4.435835,-1.99621 7.258897,4.27701 2.823065,6.27322 z"
       inkscape:connector-curvature="0" />
  </g>
</svg>
