<svg viewBox="0 0 100 100"><path style="opacity:1;fill:#020900;fill-opacity:1;stroke:none;stroke-width:1;stroke-linecap:butt;stroke-linejoin:round;stroke-miterlimit:4;stroke-dasharray:none;stroke-opacity:1" d="M10.303 263.703q.189.012.379.02.276.01.552.017l.799.015q.48.003.96-.006c.4-.01.8-.03 1.199-.048q.742-.033 1.486-.059.776-.026 1.553-.047c.497-.017.992-.051 1.488-.083q.822-.05 1.644-.106c.585-.044 1.17-.09 1.756-.13.594-.038 1.189-.075 1.783-.12.602-.048 1.203-.105 1.805-.158.647-.056 1.296-.105 1.943-.159.69-.058 1.38-.128 2.07-.193.79-.075 1.58-.14 2.372-.204q1.24-.101 2.481-.186l2.478-.16q1.23-.086 2.464-.16a223 223 0 0 1 4.83-.233q1.182-.046 2.362-.082a447 447 0 0 1 6.744-.16 646 646 0 0 1 4.409-.059 981 981 0 0 1 4.313-.037l2.162-.014 2.202-.01 2.142-.008 2.075-.007 1.977-.005 1.883-.004 1.732-.003 1.572-.003 1.417-.002 1.245-.002 1.07-.001.95-.001.934-.001h.916q.46-.001.92.011.37.007.742.018l.626.019 1.028.026.394.01q.192.006.386.015l.255.011c.154.011.432.003-.266.008 4.853-.337 5.33 6.526.476 6.863-.177.002-.35.013-.526.002l-.248-.011a7 7 0 0 0-.244-.01l-.396-.01-1.687-.045q-.345-.01-.689-.017c-.255-.005-.51-.011-.766-.01h-.915l-.933.001-.949.001-1.069.001-1.244.002-1.416.002-1.57.003-1.73.003-1.881.004-1.974.005-2.07.007-2.137.008-2.194.01-2.151.014a1165 1165 0 0 0-6.477.063 687 687 0 0 0-4.365.074 451 451 0 0 0-4.454.115 312 312 0 0 0-4.638.181 214 214 0 0 0-4.78.282l-2.464.16q-1.2.082-2.401.18-1.14.09-2.278.196c-.715.067-1.43.14-2.145.2-.637.053-1.274.102-1.911.156-.633.055-1.265.116-1.898.166q-.907.066-1.816.122-.878.062-1.755.13c-.563.039-1.125.073-1.688.11-.572.035-1.145.074-1.719.092q-.757.021-1.514.047-.706.024-1.413.056c-.461.02-.922.044-1.384.053a45 45 0 0 1-2.737-.03 24 24 0 0 1-.54-.03c-4.853-.323-4.395-7.187.458-6.863zm37.261-26.429q.021-.009.044-.013c-.006.007.018-.006.027-.01a1 1 0 0 0-.092.105c-.042.074-.09.146-.133.219q-.1.164-.182.337a7 7 0 0 0-.162.381.5.5 0 0 0-.041.132c-.004.026-.03.17-.01.088.007-.032.007-.057.008-.093-.004-.057.014.006.032.054.04.082-.036-.087-.044-.103a1.6 1.6 0 0 0-.199-.27 1.7 1.7 0 0 0 .449.254c.173.061-.048-.016-.087-.026-.084-.026-.233-.02-.051-.04.17-.033.004-.005-.058.012a.9.9 0 0 0-.266.13c-.063.039-.133.13-.059.002.094-.165.192-.328.267-.502.022-.062-.02.017-.024.029a.9.9 0 0 0-.021.28c.01.13.045.252.093.371.035.087.089.169.135.249a.4.4 0 0 0-.062-.049c.05.048.22.161.229.168-.144-.045.104.032.118.035.378.097.764.083 1.14-.004.094-.02.178-.056.262-.1.13-.075.186-.128.028.01l-.339.3c.084-.069.154-.153.226-.234-3.06 3.781-8.408-.547-5.348-4.328.16-.188.32-.376.508-.54q.21-.188.422-.374c.3-.263.608-.52.953-.726a6 6 0 0 1 1.347-.607c.761-.203 1.54-.286 2.317-.107.408.102.81.225 1.193.403.452.206.89.443 1.276.76.304.25.597.514.86.81.356.405.684.837.921 1.325.252.54.455 1.102.535 1.696.073.601.093 1.207-.01 1.807-.107.59-.26 1.17-.516 1.715-.21.446-.441.883-.703 1.301-.365.567-.772 1.108-1.289 1.548-.527.433-1.093.815-1.736 1.057-.559.203-1.131.358-1.725.408-.588.055-1.18.076-1.766-.022-.548-.102-1.087-.245-1.593-.484a9 9 0 0 1-1.105-.578 9 9 0 0 1-1.014-.74c-.433-.382-.836-.798-1.141-1.292a6.4 6.4 0 0 1-.63-1.31 7.3 7.3 0 0 1-.332-1.295 6.6 6.6 0 0 1-.063-1.392 7.5 7.5 0 0 1 .526-2.282c.115-.287.234-.571.369-.85.149-.301.307-.6.483-.887.205-.337.42-.67.667-.977a8 8 0 0 1 .774-.832A6.7 6.7 0 0 1 44.74 231c4.436-1.997 7.26 4.277 2.824 6.273z" transform="translate(0 -197)"/></svg>