<?xml version="1.0" encoding="UTF-8" standalone="no"?>
<!-- Created with Inkscape (http://www.inkscape.org/) -->

<svg
   xmlns:dc="http://purl.org/dc/elements/1.1/"
   xmlns:cc="http://creativecommons.org/ns#"
   xmlns:rdf="http://www.w3.org/1999/02/22-rdf-syntax-ns#"
   xmlns:svg="http://www.w3.org/2000/svg"
   xmlns="http://www.w3.org/2000/svg"
   xmlns:sodipodi="http://sodipodi.sourceforge.net/DTD/sodipodi-0.dtd"
   xmlns:inkscape="http://www.inkscape.org/namespaces/inkscape"
   width="10cm"
   height="10cm"
   viewBox="0 0 100 99.999997"
   version="1.1"
   id="svg8"
   sodipodi:docname="luka.svg"
   inkscape:version="0.92.3 (2405546, 2018-03-11)">
  <defs
     id="defs2" />
  <sodipodi:namedview
     id="base"
     pagecolor="#ffffff"
     bordercolor="#666666"
     borderopacity="1.0"
     inkscape:pageopacity="0.0"
     inkscape:pageshadow="2"
     inkscape:zoom="1"
     inkscape:cx="125.50186"
     inkscape:cy="200.50542"
     inkscape:document-units="cm"
     inkscape:current-layer="layer1"
     showgrid="true"
     units="cm"
     inkscape:window-width="1920"
     inkscape:window-height="1017"
     inkscape:window-x="-8"
     inkscape:window-y="-8"
     inkscape:window-maximized="1"
     inkscape:snap-nodes="false">
    <inkscape:grid
       type="xygrid"
       id="grid815"
       units="cm"
       spacingx="9.9999998"
       spacingy="9.9999998" />
  </sodipodi:namedview>
  <metadata
     id="metadata5">
    <rdf:RDF>
      <cc:Work
         rdf:about="">
        <dc:format>image/svg+xml</dc:format>
        <dc:type
           rdf:resource="http://purl.org/dc/dcmitype/StillImage" />
        <dc:title></dc:title>
      </cc:Work>
    </rdf:RDF>
  </metadata>
  <g
     inkscape:label="Layer 1"
     inkscape:groupmode="layer"
     id="layer1"
     transform="translate(0,-197.00002)">
    <path
       style="opacity:1;fill:#020900;fill-opacity:1;stroke:none;stroke-width:1;stroke-linecap:butt;stroke-linejoin:round;stroke-miterlimit:4;stroke-dasharray:none;stroke-opacity:1"
       id="path1199"
       d="m 9.545474,249.24571 c 0.490457,-0.0294 0.975623,0.0323 1.456805,0.12066 0.690113,0.14231 1.33159,0.43297 1.954628,0.75286 0.62252,0.33016 1.214916,0.71248 1.801115,1.10239 0.687182,0.45411 1.34585,0.94852 1.992463,1.45813 0.709423,0.56559 1.390713,1.16512 2.067319,1.76921 0.684029,0.61378 1.360376,1.23605 2.036577,1.85842 0.706566,0.64395 1.39654,1.30557 2.079433,1.97445 0.68894,0.66931 1.345475,1.37022 1.985993,2.08563 0.575562,0.64874 1.135334,1.31121 1.690742,1.9772 0.479607,0.57841 0.958209,1.15764 1.428673,1.74352 0.463354,0.57539 0.899573,1.17162 1.329502,1.77215 0.37978,0.53396 0.764336,1.06448 1.140711,1.60086 0.369419,0.53031 0.731676,1.06556 1.090639,1.60299 0.323493,0.48532 0.642035,0.97393 0.957297,1.46463 0.293013,0.45771 0.573125,0.92346 0.85054,1.39073 0.253995,0.42468 0.496917,0.85579 0.735508,1.28927 0.187465,0.34436 0.37707,0.68756 0.568653,1.02966 0.166915,0.29575 0.330385,0.59342 0.493426,0.89132 0.128363,0.23422 0.255204,0.46926 0.384085,0.70319 0.103632,0.18772 0.207574,0.37526 0.311481,0.56283 0.07724,0.1401 0.156787,0.27892 0.236011,0.4179 -0.680371,-1.20177 -2.12113,-1.73848 -3.466931,-1.52332 -0.485947,0.0777 -0.901559,0.39486 -1.352338,0.59229 -0.613368,0.60719 -0.608171,0.50005 -0.953505,1.11726 -0.06313,0.11282 -0.178427,0.48082 -0.161494,0.35264 0.05621,-0.39847 0.09126,-0.79953 0.125831,-1.20033 0.05302,-0.63476 0.08999,-1.27069 0.125013,-1.90665 0.04438,-0.77231 0.0707,-1.5454 0.0907,-2.31867 0.02019,-0.91945 0.02527,-1.83915 0.0316,-2.75877 0.0072,-1.09982 0.01222,-2.19966 0.01696,-3.29949 0.0016,-1.2278 0.02106,-2.4554 0.04988,-3.68282 0.02627,-1.17867 0.08102,-2.35632 0.146253,-3.53338 0.06415,-1.16921 0.148696,-2.33712 0.245264,-3.50406 0.09952,-1.22045 0.235638,-2.43732 0.39751,-3.65095 0.171577,-1.25028 0.398102,-2.49195 0.646001,-3.72906 0.259226,-1.28213 0.58044,-2.55019 0.932421,-3.80963 0.365101,-1.29837 0.812768,-2.5706 1.295474,-3.82924 0.503055,-1.30217 1.092028,-2.56789 1.720003,-3.81376 0.649264,-1.28413 1.425229,-2.49572 2.249824,-3.67268 0.818803,-1.16044 1.752171,-2.23079 2.732246,-3.25611 0.959988,-0.99342 2.027878,-1.87029 3.128857,-2.701 1.038195,-0.77569 2.152726,-1.4375 3.289188,-2.05663 1.069531,-0.57819 2.189986,-1.05064 3.32444,-1.48398 1.074719,-0.40404 2.175229,-0.73239 3.282876,-1.0321 1.142915,-0.31298 2.311426,-0.50666 3.486472,-0.64712 1.209818,-0.14378 2.427142,-0.12419 3.64008,-0.0445 1.186015,0.0867 2.357953,0.28989 3.520397,0.53371 1.193001,0.25123 2.352879,0.62563 3.493595,1.05113 1.112028,0.41989 2.177431,0.94698 3.21803,1.51854 1.045699,0.57493 2.010058,1.27657 2.937957,2.0231 0.84301,0.69214 1.633098,1.44468 2.399667,2.21963 0.762866,0.77049 1.448779,1.60931 2.091762,2.48083 0.670745,0.91798 1.218184,1.91441 1.725255,2.92935 0.496499,1.0093 0.907333,2.05661 1.28823,3.11392 0.38903,1.09811 0.701461,2.22074 0.993891,3.34772 0.286274,1.12334 0.528841,2.25707 0.759529,3.39291 0.22828,1.12999 0.418997,2.26697 0.599088,3.40546 0.176699,1.12769 0.328184,2.25907 0.471379,3.39143 0.144918,1.12246 0.258223,2.24844 0.359095,3.37559 0.0943,1.07747 0.166436,2.15665 0.229846,3.23631 0.05516,0.98161 0.106331,1.96344 0.152636,2.9455 0.04157,0.88419 0.06845,1.7689 0.08147,2.65395 0.008,0.84606 -0.0077,1.69208 -0.03098,2.53778 -0.02455,0.76285 -0.05675,1.52545 -0.09219,2.28786 -0.03456,0.69018 -0.07015,1.38033 -0.109583,2.07025 -0.03554,0.63836 -0.08223,1.27604 -0.132553,1.91338 -0.04163,0.54726 -0.09744,1.09328 -0.153067,1.63924 -0.04594,0.4523 -0.09097,0.90469 -0.136112,1.35706 -0.03654,0.36662 -0.07319,0.73322 -0.10963,1.09984 -0.03158,0.32213 -0.07108,0.64339 -0.110437,0.96464 -0.0294,0.23705 -0.05814,0.47419 -0.08651,0.71137 -0.02331,0.19538 -0.04655,0.39077 -0.06979,0.58616 -0.0186,0.15647 -0.03722,0.31294 -0.05583,0.46941 -0.01484,0.12472 -0.02967,0.24945 -0.0445,0.37418 -0.01183,0.0994 -0.02365,0.19882 -0.03547,0.29823 -0.0094,0.0792 -0.01884,0.15847 -0.02827,0.2377 -0.01175,0.0436 -0.0062,0.17244 0.0024,-0.0298 0.02156,-0.51701 0.01461,-0.34163 -0.06144,-0.95468 1.046771,4.75034 -5.671225,6.2307 -6.717996,1.48036 v 0 c -0.05832,-0.43714 -0.131619,-0.86826 -0.05387,-1.30829 0.0094,-0.0792 0.01884,-0.15847 0.02827,-0.2377 0.01183,-0.0994 0.02365,-0.19882 0.03547,-0.29823 0.01484,-0.12473 0.02967,-0.24946 0.0445,-0.37419 0.01863,-0.1565 0.03723,-0.31301 0.05584,-0.46951 0.02342,-0.19685 0.04682,-0.3937 0.07032,-0.59054 0.02915,-0.24377 0.0587,-0.4875 0.0889,-0.73115 0.03299,-0.26918 0.06654,-0.53834 0.09309,-0.80825 0.03653,-0.36753 0.07327,-0.73504 0.1099,-1.10255 0.04561,-0.45714 0.09112,-0.91429 0.137554,-1.37134 0.05036,-0.49426 0.101412,-0.98852 0.13902,-1.48396 0.04651,-0.5877 0.08964,-1.17572 0.122402,-1.76436 0.03813,-0.66553 0.07228,-1.33127 0.105783,-1.99704 0.03352,-0.71932 0.06382,-1.43882 0.08738,-2.15853 0.02088,-0.7491 0.03509,-1.49847 0.02906,-2.2479 -0.01148,-0.81025 -0.0368,-1.62017 -0.07457,-2.42964 -0.04498,-0.95568 -0.09491,-1.91113 -0.14845,-2.86637 -0.05916,-1.00969 -0.126415,-2.01892 -0.214323,-3.02657 -0.09321,-1.04368 -0.19772,-2.08628 -0.332128,-3.12558 -0.13412,-1.06175 -0.275895,-2.1226 -0.441312,-3.17999 -0.164283,-1.04014 -0.337852,-2.07897 -0.546031,-3.11137 -0.206066,-1.01634 -0.42223,-2.0309 -0.67722,-3.03627 -0.2389,-0.92443 -0.49231,-1.84588 -0.808752,-2.74732 -0.288401,-0.80623 -0.598403,-1.60537 -0.973479,-2.37594 -0.328255,-0.66446 -0.677817,-1.31994 -1.111869,-1.92273 -0.440467,-0.60534 -0.915757,-1.18388 -1.441381,-1.71797 -0.584412,-0.59368 -1.187161,-1.16987 -1.828429,-1.70238 -0.61114,-0.4975 -1.245352,-0.96691 -1.936274,-1.34956 -0.747062,-0.41465 -1.512882,-0.7958 -2.311879,-1.10127 -0.815478,-0.30856 -1.645245,-0.57908 -2.499135,-0.76128 -0.847164,-0.18081 -1.701247,-0.33271 -2.565805,-0.401 -0.789366,-0.0566 -1.581663,-0.0774 -2.369891,0.0134 -0.84201,0.0964 -1.678977,0.23352 -2.497754,0.4568 -0.886301,0.23803 -1.766927,0.49909 -2.627405,0.81958 -0.848667,0.32137 -1.687624,0.67057 -2.488325,1.09995 -0.841332,0.45494 -1.667816,0.93952 -2.437616,1.50946 -0.807876,0.60472 -1.592903,1.24203 -2.299092,1.9652 -0.74255,0.77022 -1.447715,1.57657 -2.068414,2.44958 -0.63713,0.90261 -1.235956,1.8326 -1.737601,2.81856 -0.525926,1.03836 -1.017416,2.09423 -1.438937,3.17983 -0.407302,1.05718 -0.784354,2.12608 -1.092544,3.21689 -0.30707,1.09343 -0.585713,2.1948 -0.812016,3.30807 -0.219345,1.09061 -0.419627,2.18529 -0.572223,3.28748 -0.147587,1.09911 -0.269682,2.20141 -0.360248,3.30677 -0.09167,1.10464 -0.171503,2.21025 -0.232331,3.31706 -0.06133,1.10396 -0.112998,2.20846 -0.137589,3.31395 -0.02786,1.18337 -0.0467,2.3669 -0.04804,3.55064 -0.0047,1.10581 -0.0098,2.21162 -0.01704,3.31742 -0.0066,0.96337 -0.01209,1.92681 -0.03375,2.88999 -0.02191,0.83999 -0.05073,1.67979 -0.09882,2.51875 -0.03906,0.7077 -0.0807,1.41534 -0.140251,2.12166 -0.05272,0.60631 -0.107688,1.21323 -0.206957,1.81405 -0.208515,1.11964 -0.607618,2.08074 -1.530564,2.8265 -0.476573,0.21677 -0.914011,0.56 -1.429716,0.65031 -1.59232,0.27887 -3.074911,-0.45616 -3.85428,-1.81653 -0.09305,-0.16325 -0.186315,-0.32638 -0.277043,-0.49093 -0.106579,-0.19239 -0.213196,-0.38475 -0.319484,-0.5773 -0.131858,-0.23942 -0.261832,-0.47985 -0.393086,-0.71959 -0.152453,-0.27856 -0.305226,-0.55694 -0.461389,-0.83344 -0.199856,-0.35706 -0.397941,-0.71511 -0.59354,-1.07451 -0.202244,-0.36788 -0.408191,-0.73372 -0.623853,-1.09394 -0.235929,-0.39765 -0.473821,-0.7942 -0.722773,-1.18387 -0.293107,-0.45639 -0.589398,-0.91074 -0.890155,-1.36213 -0.329846,-0.49401 -0.662788,-0.98597 -1.002058,-1.47357 -0.36346,-0.51861 -0.735999,-1.03074 -1.102634,-1.54711 -0.356085,-0.49775 -0.716204,-0.99283 -1.10014,-1.46967 -0.443371,-0.55265 -0.895305,-1.09833 -1.347242,-1.64398 -0.504418,-0.60498 -1.01254,-1.20699 -1.534829,-1.79668 -0.539056,-0.60339 -1.092036,-1.19414 -1.67279,-1.75787 -0.631672,-0.61902 -1.270001,-1.2312 -1.923928,-1.82678 -0.650936,-0.59913 -1.301958,-1.19823 -1.960286,-1.78925 -0.572792,-0.51178 -1.148717,-1.02067 -1.748252,-1.50116 -0.500294,-0.39612 -1.010456,-0.77979 -1.543063,-1.13181 -0.378826,-0.25287 -0.759907,-0.50342 -1.159173,-0.72329 -0.028584,-0.0153 -0.3603715,-0.16487 -0.156259,-0.11643 0.092487,0.0105 0.446407,0.0171 0.1058164,0.0153 -4.8624695,0.13363 -5.0514516,-6.74294 -0.1889823,-6.87657 z"
       inkscape:connector-curvature="0" />
  </g>
</svg>
