<svg viewBox="0 0 100 100"><path style="opacity:1;fill:#020900;fill-opacity:1;stroke:none;stroke-width:1;stroke-linecap:butt;stroke-linejoin:round;stroke-miterlimit:4;stroke-dasharray:none;stroke-opacity:1" d="M9.545 249.246c.49-.03.976.032 1.457.12.69.143 1.332.433 1.955.753.622.33 1.215.713 1.801 1.103a29 29 0 0 1 1.992 1.458c.71.565 1.391 1.165 2.068 1.769q1.024.923 2.036 1.858a80 80 0 0 1 2.08 1.975 42 42 0 0 1 1.986 2.085 85 85 0 0 1 1.69 1.978q.722.865 1.43 1.743c.463.576.899 1.172 1.329 1.772.38.534.764 1.065 1.14 1.601a99 99 0 0 1 2.048 3.068c.293.458.573.923.85 1.39q.38.638.736 1.29.281.516.57 1.03.249.444.492.89l.385.704.311.563q.116.21.236.418c-.68-1.202-2.121-1.739-3.467-1.524-.486.078-.901.395-1.352.593-.614.607-.608.5-.954 1.117-.063.113-.178.48-.161.353.056-.399.091-.8.126-1.2.053-.636.09-1.271.125-1.907.044-.773.07-1.546.09-2.32.02-.919.026-1.838.032-2.758q.01-1.65.017-3.3.005-1.841.05-3.682c.026-1.179.08-2.356.146-3.534.064-1.169.149-2.337.245-3.504.1-1.22.236-2.437.398-3.65a62 62 0 0 1 .646-3.73c.259-1.282.58-2.55.932-3.81a44 44 0 0 1 1.296-3.828 43 43 0 0 1 1.72-3.814c.649-1.284 1.425-2.496 2.25-3.673.818-1.16 1.752-2.23 2.732-3.256.96-.993 2.028-1.87 3.129-2.701 1.038-.776 2.152-1.438 3.289-2.057 1.07-.578 2.19-1.05 3.324-1.484a36 36 0 0 1 3.283-1.032c1.143-.313 2.312-.506 3.487-.647 1.21-.144 2.427-.124 3.64-.044 1.186.086 2.358.29 3.52.533 1.193.252 2.353.626 3.494 1.051 1.112.42 2.177.947 3.218 1.519 1.045.575 2.01 1.277 2.938 2.023a32 32 0 0 1 2.4 2.22c.762.77 1.448 1.61 2.091 2.48.67.919 1.218 1.915 1.725 2.93.497 1.01.908 2.057 1.289 3.114.389 1.098.701 2.22.993 3.348.287 1.123.53 2.257.76 3.392.228 1.13.419 2.267.6 3.406.176 1.128.327 2.259.47 3.391.145 1.123.259 2.249.36 3.376.094 1.077.166 2.157.23 3.236q.083 1.473.152 2.946.063 1.326.082 2.654c.008.846-.008 1.692-.031 2.538a160 160 0 0 1-.202 4.358 83 83 0 0 1-.133 1.913c-.041.547-.097 1.093-.153 1.64l-.136 1.356-.11 1.1q-.048.483-.11.965l-.087.711-.07.586-.055.47-.045.374-.035.298-.028.238c-.012.043-.007.172.002-.03.022-.517.015-.342-.061-.955 1.046 4.75-5.672 6.231-6.718 1.48-.059-.436-.132-.868-.054-1.308l.028-.237.035-.299.045-.374.056-.47.07-.59.089-.73c.033-.27.067-.54.093-.81l.11-1.102.138-1.371c.05-.494.101-.989.139-1.484.046-.588.09-1.176.122-1.764q.056-1 .106-1.997.051-1.08.087-2.159c.021-.749.035-1.498.03-2.248a75 75 0 0 0-.075-2.43q-.068-1.432-.149-2.866c-.059-1.01-.126-2.019-.214-3.026a80 80 0 0 0-.332-3.126 109 109 0 0 0-.442-3.18 75 75 0 0 0-.546-3.111 64 64 0 0 0-.677-3.037 34 34 0 0 0-.809-2.747 24 24 0 0 0-.973-2.376c-.328-.664-.678-1.32-1.112-1.923a15 15 0 0 0-1.441-1.718 25 25 0 0 0-1.829-1.702c-.61-.497-1.245-.967-1.936-1.35a18 18 0 0 0-2.312-1.1 17 17 0 0 0-2.499-.762c-.847-.18-1.701-.333-2.566-.401-.79-.057-1.582-.077-2.37.013a17 17 0 0 0-2.497.457c-.887.238-1.767.5-2.628.82-.849.321-1.688.67-2.488 1.1-.842.455-1.668.94-2.438 1.51-.808.604-1.593 1.241-2.299 1.964-.742.77-1.448 1.577-2.068 2.45-.637.903-1.236 1.832-1.738 2.818a36 36 0 0 0-1.439 3.18 37 37 0 0 0-1.092 3.217 47 47 0 0 0-.812 3.308 55 55 0 0 0-.573 3.288 64 64 0 0 0-.36 3.306 119 119 0 0 0-.37 6.632 159 159 0 0 0-.048 3.55q-.007 1.659-.017 3.318c-.007.963-.012 1.926-.034 2.89-.022.84-.05 1.68-.098 2.518a79 79 0 0 1-.14 2.122 24 24 0 0 1-.208 1.814c-.208 1.12-.607 2.08-1.53 2.827-.477.216-.914.56-1.43.65-1.592.279-3.075-.456-3.854-1.817q-.14-.244-.277-.49l-.32-.578-.393-.72a71 71 0 0 0-.461-.833 103 103 0 0 1-.594-1.074 42 42 0 0 0-1.347-2.278 97 97 0 0 0-1.892-2.836c-.363-.519-.736-1.03-1.102-1.547a32 32 0 0 0-1.1-1.47q-.668-.827-1.348-1.644a79 79 0 0 0-1.534-1.796 34 34 0 0 0-1.673-1.758 73 73 0 0 0-1.924-1.827q-.975-.901-1.96-1.79a43 43 0 0 0-1.749-1.5c-.5-.397-1.01-.78-1.543-1.132a16 16 0 0 0-1.159-.724c-.029-.015-.36-.164-.156-.116.092.01.446.017.106.015-4.863.134-5.052-6.743-.19-6.876" transform="translate(0 -197)"/></svg>