<?xml version="1.0" encoding="UTF-8" standalone="no"?>
<!-- Created with Inkscape (http://www.inkscape.org/) -->

<svg
   xmlns:dc="http://purl.org/dc/elements/1.1/"
   xmlns:cc="http://creativecommons.org/ns#"
   xmlns:rdf="http://www.w3.org/1999/02/22-rdf-syntax-ns#"
   xmlns:svg="http://www.w3.org/2000/svg"
   xmlns="http://www.w3.org/2000/svg"
   xmlns:sodipodi="http://sodipodi.sourceforge.net/DTD/sodipodi-0.dtd"
   xmlns:inkscape="http://www.inkscape.org/namespaces/inkscape"
   width="10cm"
   height="10cm"
   viewBox="0 0 100 99.999997"
   version="1.1"
   id="svg8"
   sodipodi:docname="lukin.svg"
   inkscape:version="0.92.3 (2405546, 2018-03-11)">
  <defs
     id="defs2" />
  <sodipodi:namedview
     id="base"
     pagecolor="#ffffff"
     bordercolor="#666666"
     borderopacity="1.0"
     inkscape:pageopacity="0.0"
     inkscape:pageshadow="2"
     inkscape:zoom="1"
     inkscape:cx="175.50186"
     inkscape:cy="160.37856"
     inkscape:document-units="cm"
     inkscape:current-layer="layer1"
     showgrid="true"
     units="cm"
     inkscape:window-width="1920"
     inkscape:window-height="1017"
     inkscape:window-x="-8"
     inkscape:window-y="-8"
     inkscape:window-maximized="1"
     inkscape:snap-nodes="false">
    <inkscape:grid
       type="xygrid"
       id="grid815"
       units="cm"
       spacingx="9.9999998"
       spacingy="9.9999998" />
  </sodipodi:namedview>
  <metadata
     id="metadata5">
    <rdf:RDF>
      <cc:Work
         rdf:about="">
        <dc:format>image/svg+xml</dc:format>
        <dc:type
           rdf:resource="http://purl.org/dc/dcmitype/StillImage" />
        <dc:title></dc:title>
      </cc:Work>
    </rdf:RDF>
  </metadata>
  <g
     inkscape:label="Layer 1"
     inkscape:groupmode="layer"
     id="layer1"
     transform="translate(0,-197.00002)">
    <path
       style="opacity:1;fill:#020900;fill-opacity:1;stroke:none;stroke-width:1;stroke-linecap:butt;stroke-linejoin:round;stroke-miterlimit:4;stroke-dasharray:none;stroke-opacity:1"
       id="path92"
       d="m 24.787899,234.58883 c 0.05489,0.014 0.129174,0.0296 0.174866,0.0407 -0.247022,0.0394 -0.495471,0.0725 -0.743439,0.10626 -0.44488,0.06 -0.891557,0.10499 -1.336881,0.16132 -0.425547,0.0527 -0.845656,0.13921 -1.264388,0.23002 -0.460179,0.0972 -0.909958,0.23357 -1.355329,0.38327 -0.518972,0.17897 -1.030556,0.37836 -1.534862,0.59506 -0.427947,0.17938 -0.829368,0.41071 -1.21465,0.66764 -0.370363,0.25121 -0.698374,0.55605 -1.015484,0.87 -0.37604,0.38346 -0.724983,0.79217 -1.068577,1.20457 -0.319658,0.38545 -0.616825,0.78856 -0.895822,1.20418 -0.298803,0.44991 -0.561135,0.92254 -0.811583,1.40062 -0.266434,0.51204 -0.484803,1.04664 -0.692571,1.58451 -0.226445,0.59191 -0.413041,1.19768 -0.574441,1.8102 -0.159169,0.61795 -0.248187,1.25007 -0.315359,1.88364 -0.07231,0.68611 -0.05578,1.37552 -0.0073,2.06227 0.05818,0.77517 0.213799,1.5369 0.401474,2.28967 0.214566,0.84461 0.534398,1.6554 0.884911,2.45134 0.377066,0.85409 0.848447,1.65953 1.357017,2.44067 0.529821,0.80527 1.149302,1.54331 1.802639,2.24983 0.677082,0.72791 1.441739,1.3629 2.230027,1.96521 0.895315,0.67209 1.838617,1.27625 2.789486,1.86576 0.996715,0.61815 2.033911,1.1658 3.082791,1.68899 1.097271,0.53908 2.223392,1.01571 3.354571,1.47821 1.131141,0.46217 2.282986,0.87003 3.441813,1.25647 1.131189,0.37534 2.277266,0.70251 3.429373,1.00663 1.115373,0.29726 2.248583,0.51676 3.385953,0.70956 1.195419,0.19709 2.39863,0.34025 3.602754,0.47145 1.220055,0.13338 2.444258,0.22001 3.669782,0.28216 1.192278,0.0595 2.386001,0.0664 3.579354,0.0498 1.183979,-0.0196 2.36668,-0.0803 3.548928,-0.14408 1.125987,-0.061 2.250736,-0.14204 3.37484,-0.23069 0.995955,-0.0767 1.988518,-0.18905 2.978642,-0.31999 0.958191,-0.12695 1.911347,-0.28755 2.863096,-0.45525 0.91332,-0.16034 1.821574,-0.3472 2.727237,-0.54582 0.866971,-0.19077 1.726592,-0.41216 2.582162,-0.64833 0.844134,-0.23611 1.681247,-0.49614 2.51442,-0.76814 0.802833,-0.26319 1.595866,-0.55465 2.383358,-0.86034 0.729853,-0.28337 1.446501,-0.59873 2.1579,-0.92521 0.628377,-0.28604 1.243293,-0.59962 1.845029,-0.93784 0.577443,-0.32843 1.134989,-0.68995 1.687341,-1.05853 0.536731,-0.35756 1.055523,-0.74087 1.567849,-1.13229 0.491559,-0.37312 0.963414,-0.77093 1.430861,-1.17353 0.432512,-0.37138 0.848506,-0.76127 1.260936,-1.15463 0.332406,-0.31547 0.65314,-0.64273 0.95187,-0.99031 0.241866,-0.28019 0.447805,-0.58719 0.640461,-0.90239 0.220985,-0.36835 0.414091,-0.75226 0.599575,-1.13939 0.164804,-0.3413 0.288142,-0.69928 0.396367,-1.06178 0.129553,-0.4537 0.228775,-0.91525 0.328798,-1.37613 0.09692,-0.44894 0.190267,-0.89862 0.272819,-1.35044 0.06484,-0.34985 0.106262,-0.70305 0.13276,-1.05767 0.02463,-0.34719 0.01913,-0.69502 -0.0039,-1.042 -0.03079,-0.44118 -0.100418,-0.87797 -0.179571,-1.31264 -0.125423,-0.66715 -0.268623,-1.33079 -0.418568,-1.9928 -0.154429,-0.67688 -0.339193,-1.34612 -0.542798,-2.0097 -0.17994,-0.58142 -0.384008,-1.1548 -0.602689,-1.72265 -0.184226,-0.472 -0.39235,-0.93412 -0.618482,-1.38741 -0.214968,-0.42499 -0.466857,-0.82953 -0.724828,-1.22935 -0.274818,-0.42612 -0.584465,-0.82773 -0.902754,-1.22186 -0.343034,-0.42605 -0.715666,-0.82624 -1.102725,-1.21223 -0.416372,-0.41275 -0.869203,-0.78556 -1.325485,-1.15274 -0.49048,-0.3928 -1.001139,-0.75902 -1.517621,-1.11654 -0.462114,-0.3215 -0.944981,-0.61026 -1.438085,-0.88112 -0.497837,-0.26924 -1.016476,-0.4966 -1.536308,-0.71928 -0.583957,-0.24735 -1.177274,-0.47156 -1.773219,-0.68809 -0.596434,-0.21451 -1.200925,-0.40534 -1.807911,-0.58744 -0.644811,-0.19057 -1.295472,-0.36024 -1.947625,-0.52358 -0.697785,-0.17696 -1.40332,-0.3199 -2.110822,-0.45162 -0.803722,-0.14731 -1.612698,-0.26291 -2.422339,-0.37197 -0.895726,-0.11834 -1.793873,-0.21697 -2.692416,-0.31102 -0.936054,-0.0996 -1.874139,-0.17679 -2.813452,-0.23754 -0.962359,-0.0574 -1.92563,-0.0974 -2.888853,-0.13688 -0.945335,-0.0383 -1.890856,-0.0718 -2.836432,-0.10358 -0.916088,-0.0295 -1.832136,-0.0612 -2.748634,-0.0741 -0.898649,-0.008 -1.797293,0.01 -2.695752,0.0261 -0.909794,0.0178 -1.81959,0.0352 -2.729405,0.0517 -0.839626,0.0115 -1.678789,0.0405 -2.517682,0.0763 -0.791155,0.0328 -1.580941,0.0898 -2.37059,0.14722 -0.74412,0.0552 -1.488419,0.10818 -2.231858,0.17203 -0.649441,0.0563 -1.295689,0.14193 -1.940486,0.23655 -0.652714,0.0998 -1.303089,0.21411 -1.95361,0.32715 -0.644458,0.11187 -1.289055,0.22293 -1.933633,0.3341 -0.60276,0.10252 -1.204798,0.20916 -1.805805,0.32149 -0.560091,0.10585 -1.119568,0.21494 -1.678927,0.32458 -0.518631,0.10216 -1.037542,0.20284 -1.557136,0.29998 -0.455165,0.0834 -0.909972,0.16882 -1.364629,0.25498 -0.398816,0.0767 -0.797334,0.15497 -1.195012,0.23738 -0.315116,0.0647 -0.628107,0.13919 -0.939693,0.21904 -0.233341,0.0607 -0.462527,0.13587 -0.688846,0.21867 -0.225862,0.085 -0.443985,0.18855 -0.660021,0.29567 -0.212549,0.11426 -0.429356,0.22237 -0.632812,0.35258 -0.0482,0.0357 -0.05068,0.039 -0.0068,0.0211 -3.445584,3.43358 -8.301389,-1.43922 -4.855806,-4.87279 v 0 c 0.389546,-0.37727 0.799552,-0.73292 1.266645,-1.01279 0.388522,-0.2355 0.785416,-0.45679 1.191619,-0.66051 0.445161,-0.2181 0.896293,-0.42486 1.362632,-0.59418 0.434576,-0.15568 0.87374,-0.29899 1.321315,-0.41301 0.413823,-0.1054 0.829312,-0.20441 1.24769,-0.29021 0.435396,-0.09 0.871582,-0.1761 1.308229,-0.25981 0.46034,-0.0872 0.920823,-0.17371 1.381677,-0.25819 0.499826,-0.0934 0.99895,-0.19041 1.497846,-0.28863 0.579371,-0.11354 1.158856,-0.22655 1.739,-0.33607 0.63228,-0.11802 1.26555,-0.23057 1.899655,-0.33836 0.641747,-0.11067 1.283513,-0.22125 1.925135,-0.33263 0.710967,-0.12353 1.421831,-0.24818 2.13536,-0.35623 0.780714,-0.11394 1.563251,-0.21641 2.349539,-0.28394 0.772711,-0.066 1.546204,-0.12198 2.319624,-0.17897 0.85853,-0.0624 1.717262,-0.1236 2.577425,-0.15914 0.894725,-0.038 1.789742,-0.0688 2.685237,-0.0814 0.909164,-0.0165 1.818307,-0.034 2.727447,-0.0517 0.973833,-0.0179 1.947871,-0.0363 2.921902,-0.0265 0.960356,0.0142 1.920283,0.0457 2.880204,0.0773 0.962419,0.0323 1.924783,0.0664 2.886956,0.10546 1.01812,0.0417 2.036281,0.0843 3.053445,0.1456 1.029539,0.0672 2.057842,0.15112 3.083838,0.26048 0.966288,0.10126 1.932123,0.20764 2.895333,0.33533 0.924412,0.12483 1.847934,0.25796 2.765457,0.42709 0.84502,0.15815 1.687623,0.32992 2.52118,0.5413 0.754951,0.18946 1.508119,0.38648 2.254382,0.60807 0.731972,0.22027 1.460894,0.45115 2.179966,0.7109 0.71746,0.26127 1.431626,0.53211 2.134348,0.83114 0.728459,0.31308 1.452954,0.63747 2.148787,1.0189 0.695799,0.3856 1.378543,0.79428 2.031609,1.24937 0.652256,0.4526 1.296609,0.91692 1.915713,1.41434 0.649049,0.52382 1.288849,1.06052 1.879203,1.65083 0.557649,0.56112 1.096788,1.14055 1.592027,1.75814 0.469191,0.58479 0.923861,1.18178 1.329007,1.81336 0.394999,0.61585 0.776706,1.2411 1.103056,1.89667 0.318484,0.646 0.616561,1.30203 0.875848,1.9743 0.275296,0.71837 0.533407,1.44326 0.759724,2.17872 0.251727,0.82649 0.482478,1.65931 0.673531,2.50213 0.172175,0.76202 0.336841,1.52586 0.479661,2.29399 0.125209,0.70313 0.231854,1.41012 0.276029,2.12363 0.03682,0.6625 0.04681,1.32647 -0.0055,1.98866 -0.04785,0.58932 -0.115832,1.17685 -0.224459,1.7584 -0.09662,0.52467 -0.20334,1.04735 -0.31654,1.5687 -0.140287,0.64546 -0.283358,1.29098 -0.471781,1.92448 -0.214513,0.69479 -0.458483,1.38065 -0.776745,2.03571 -0.292629,0.60654 -0.599718,1.20672 -0.951706,1.78143 -0.390763,0.62589 -0.809877,1.23421 -1.295675,1.79119 -0.443077,0.50665 -0.906664,0.99444 -1.396762,1.45612 -0.49702,0.47366 -0.999146,0.94223 -1.520219,1.38952 -0.570074,0.49038 -1.146408,0.97381 -1.74552,1.42862 -0.629232,0.4796 -1.26642,0.94911 -1.925341,1.38743 -0.701006,0.46682 -1.409552,0.92313 -2.143215,1.33744 -0.763672,0.42605 -1.541145,0.82643 -2.337615,1.18808 -0.836748,0.3833 -1.679803,0.75317 -2.53814,1.08592 -0.904446,0.35027 -1.814994,0.68487 -2.73698,0.98645 -0.934291,0.30447 -1.872855,0.59596 -2.819503,0.85988 -0.973521,0.268 -1.951514,0.51972 -2.937923,0.73627 -0.998397,0.21854 -1.999599,0.42436 -3.006373,0.60096 -1.04939,0.18471 -2.100458,0.36081 -3.156952,0.50047 -1.10948,0.1459 -2.221569,0.27202 -3.337494,0.35777 -1.180759,0.093 -2.36219,0.178 -3.544922,0.24196 -1.274561,0.0687 -2.549649,0.13307 -3.826084,0.15343 -1.3414,0.0177 -2.683211,0.009 -4.023357,-0.0582 -1.35754,-0.0698 -2.713683,-0.16562 -4.06517,-0.31379 -1.340471,-0.14647 -2.679782,-0.30738 -4.01035,-0.52832 -1.340419,-0.22878 -2.675723,-0.48986 -3.99034,-0.84059 -1.293252,-0.34235 -2.579896,-0.70999 -3.849645,-1.13219 -1.302435,-0.43528 -2.597005,-0.89464 -3.868365,-1.41475 -1.289951,-0.52815 -2.573457,-1.07394 -3.823879,-1.69109 -1.237307,-0.61894 -2.460328,-1.26758 -3.636183,-1.99809 -1.144121,-0.71082 -2.277532,-1.44157 -3.352212,-2.25508 -1.098842,-0.84728 -2.161809,-1.74303 -3.104121,-2.76531 -0.911543,-0.99586 -1.7763593,-2.03507 -2.5139174,-3.16862 -0.7061676,-1.09647 -1.3614717,-2.22603 -1.8848331,-3.42291 -0.5031462,-1.15787 -0.958015,-2.33822 -1.2621411,-3.56605 -0.2775003,-1.1427 -0.5045604,-2.29881 -0.5846834,-3.47433 -0.069082,-1.08727 -0.08677,-2.17836 0.032785,-3.26342 0.1088197,-0.97894 0.2543267,-1.95481 0.5066342,-2.90846 0.229449,-0.85497 0.4890291,-1.7019 0.8085608,-2.52803 0.3044079,-0.78178 0.6278907,-1.55702 1.0186138,-2.30036 0.3701077,-0.70063 0.7582879,-1.39261 1.2009115,-2.05059 0.4111493,-0.6049 0.842873,-1.19569 1.3120477,-1.75729 0.491742,-0.58847 0.993503,-1.16966 1.536816,-1.71161 0.641176,-0.62415 1.312568,-1.21915 2.06236,-1.71171 0.726603,-0.47101 1.478507,-0.90231 2.278789,-1.23736 0.677919,-0.28843 1.363771,-0.55818 2.061611,-0.79498 0.683677,-0.22669 1.374351,-0.43236 2.079637,-0.58153 0.614911,-0.13224 1.232458,-0.25423 1.857138,-0.33106 0.422728,-0.0529 0.846421,-0.0976 1.268912,-0.15243 0.458358,-0.0622 0.91563,-0.13853 1.378166,-0.16274 0.558049,-0.0178 1.117697,7.9e-4 1.663813,0.12932 4.739727,1.09382 3.19282,7.79681 -1.546905,6.70298 z"
       inkscape:connector-curvature="0" />
    <path
       style="opacity:1;fill:#020900;fill-opacity:1;stroke:none;stroke-width:1;stroke-linecap:butt;stroke-linejoin:round;stroke-miterlimit:4;stroke-dasharray:none;stroke-opacity:1"
       id="path94"
       d="m 50.530177,248.61541 c 0.0011,-0.11733 -0.02942,-0.23188 -0.05835,-0.34465 -0.08373,-0.30389 -0.242813,-0.57289 -0.433533,-0.82055 -0.25138,-0.31894 -0.591248,-0.52793 -0.948629,-0.70803 -0.467918,-0.20408 -0.975661,-0.27907 -1.481624,-0.2177 0.09308,-0.0215 0.190286,-0.0419 0.284956,-0.0626 0.198943,-0.0478 -0.0034,0.003 -0.08091,0.0286 -0.241921,0.0816 -0.45567,0.22262 -0.661958,0.36953 -0.455501,0.34071 -0.747019,0.81306 -0.957786,1.33211 -0.105664,0.29385 -0.15085,0.60102 -0.147522,0.91184 0.0047,0.26556 0.07278,0.52098 0.158658,0.7703 0.158128,0.43021 0.432488,0.78939 0.76414,1.09951 0.173305,0.1591 0.378225,0.26815 0.590399,0.36541 0.216451,0.0915 0.445202,0.14789 0.678688,0.1711 0.254456,0.0252 0.504392,-0.0203 0.751555,-0.0753 0.207415,-0.0534 0.404765,-0.13827 0.592023,-0.2412 -0.06728,0.0436 -0.134334,0.0876 -0.201387,0.13151 -0.04924,0.0296 -0.231966,0.15735 -0.0091,0.002 -3.904054,2.90169 -8.007668,-2.61948 -4.103614,-5.52117 v 0 c 0.112395,-0.0803 0.224663,-0.16042 0.341387,-0.23431 0.106241,-0.0696 0.212389,-0.13943 0.31973,-0.20737 0.383411,-0.23769 0.788596,-0.44114 1.226066,-0.55961 0.491374,-0.11903 0.989846,-0.19904 1.4976,-0.16144 0.503529,0.0357 1.002419,0.12185 1.472681,0.31277 0.462794,0.19999 0.906426,0.43807 1.290884,0.76881 0.511794,0.46008 0.944539,0.98905 1.193797,1.63902 0.166286,0.45742 0.290841,0.92802 0.308073,1.41742 0.01635,0.54538 -0.0283,1.08941 -0.205951,1.60978 -0.282351,0.73084 -0.680456,1.39199 -1.310294,1.87786 -0.381394,0.28125 -0.783918,0.53108 -1.235048,0.68544 -0.262187,0.0924 -0.528265,0.17298 -0.801222,0.22728 -0.20121,0.044 -0.40236,0.0887 -0.605187,0.12479 -0.805315,0.12151 -1.6143,0.0847 -2.373627,-0.23934 -0.605904,-0.29013 -1.166331,-0.64787 -1.597853,-1.17314 -0.385699,-0.47773 -0.708957,-0.99858 -0.88758,-1.59132 -0.128254,-0.4453 -0.224176,-0.8988 -0.24103,-1.36362 -0.229028,-4.85891 6.642508,-5.1828 6.871539,-0.32389 z"
       inkscape:connector-curvature="0" />
  </g>
</svg>
