<svg viewBox="0 0 100 100"><path style="opacity:1;fill:#020900;fill-opacity:1;stroke:none;stroke-width:1;stroke-linecap:butt;stroke-linejoin:round;stroke-miterlimit:4;stroke-dasharray:none;stroke-opacity:1" d="M24.788 234.589c.055.014.13.03.175.04q-.371.058-.744.107c-.445.06-.891.105-1.337.161-.425.053-.845.14-1.264.23-.46.097-.91.234-1.355.383q-.779.27-1.535.595c-.428.18-.83.411-1.215.668-.37.251-.698.556-1.015.87-.376.384-.725.792-1.069 1.205q-.479.579-.896 1.204c-.298.45-.56.922-.811 1.4a16 16 0 0 0-.693 1.585 18 18 0 0 0-.574 1.81c-.16.618-.248 1.25-.316 1.884-.072.686-.055 1.375-.007 2.062.058.775.214 1.537.402 2.29.214.844.534 1.655.884 2.451.378.854.849 1.66 1.357 2.44.53.806 1.15 1.544 1.803 2.25.677.729 1.442 1.364 2.23 1.966.895.672 1.839 1.276 2.79 1.866.996.618 2.034 1.165 3.082 1.689 1.098.539 2.224 1.015 3.355 1.478a55.5 55.5 0 0 0 6.871 2.263c1.116.297 2.249.517 3.386.71 1.196.197 2.399.34 3.603.47a63 63 0 0 0 3.67.283c1.192.06 2.386.066 3.579.05a95 95 0 0 0 3.549-.144c1.126-.061 2.25-.142 3.375-.23a55 55 0 0 0 2.978-.32 68 68 0 0 0 2.864-.456 66 66 0 0 0 2.727-.546c.867-.19 1.726-.412 2.582-.648a61 61 0 0 0 2.514-.768 47 47 0 0 0 2.384-.86c.73-.284 1.446-.6 2.158-.926q.942-.43 1.845-.938a28 28 0 0 0 1.687-1.058 30 30 0 0 0 1.568-1.133 33 33 0 0 0 2.692-2.328c.332-.315.653-.643.951-.99a7 7 0 0 0 .641-.903c.22-.368.414-.752.6-1.139.164-.341.288-.7.396-1.062.13-.453.229-.915.329-1.376q.147-.673.273-1.35a10 10 0 0 0 .132-1.058c.025-.347.02-.695-.004-1.042-.03-.441-.1-.878-.18-1.313a55 55 0 0 0-.418-1.992 27 27 0 0 0-1.145-3.732 17 17 0 0 0-.619-1.388 14.3 14.3 0 0 0-1.628-2.451 15 15 0 0 0-1.102-1.213c-.416-.412-.87-.785-1.326-1.152a27 27 0 0 0-1.517-1.117c-.462-.321-.945-.61-1.438-.881a19 19 0 0 0-1.537-.72 37 37 0 0 0-1.773-.687 34 34 0 0 0-1.808-.588 48 48 0 0 0-1.947-.523 34 34 0 0 0-2.111-.452 52 52 0 0 0-2.422-.372 100 100 0 0 0-2.693-.311q-1.404-.148-2.813-.238c-.963-.057-1.926-.097-2.89-.136q-1.417-.057-2.836-.104c-.916-.03-1.832-.061-2.748-.074-.899-.008-1.798.01-2.696.026l-2.73.052a76 76 0 0 0-4.888.224c-.744.054-1.488.107-2.232.171-.649.057-1.295.142-1.94.237-.653.1-1.303.214-1.954.327l-1.933.334a113 113 0 0 0-3.485.646q-.779.154-1.557.3l-1.365.255q-.598.115-1.195.237-.472.099-.94.22-.35.092-.688.218a7 7 0 0 0-.66.296c-.213.114-.43.222-.633.352-.048.036-.05.04-.007.022-3.446 3.433-8.301-1.44-4.856-4.873.39-.378.8-.733 1.267-1.013a17 17 0 0 1 1.192-.66c.445-.219.896-.425 1.362-.595.435-.155.874-.299 1.321-.413q.621-.16 1.248-.29.654-.134 1.308-.26.69-.13 1.382-.258.75-.14 1.498-.289.87-.17 1.739-.336.948-.177 1.9-.338l1.925-.333c.71-.123 1.422-.248 2.135-.356a40 40 0 0 1 2.35-.284c.772-.066 1.546-.122 2.32-.179a83 83 0 0 1 5.262-.24l2.727-.052c.974-.018 1.948-.036 2.922-.027.96.015 1.92.046 2.88.078q1.444.047 2.887.105c1.019.042 2.037.085 3.054.146 1.03.067 2.058.151 3.084.26.966.102 1.932.208 2.895.336.924.124 1.848.258 2.765.427.845.158 1.688.33 2.522.541.755.19 1.508.387 2.254.608.732.22 1.46.451 2.18.711a43 43 0 0 1 2.134.831c.729.313 1.453.638 2.15 1.02.695.385 1.378.793 2.03 1.248.653.453 1.297.917 1.916 1.415.65.524 1.29 1.06 1.88 1.65a22.7 22.7 0 0 1 2.921 3.572 20 20 0 0 1 1.103 1.897c.318.646.616 1.302.876 1.974.275.718.533 1.443.76 2.179.251.826.482 1.66.673 2.502.172.762.337 1.526.48 2.294.125.703.231 1.41.276 2.124.036.662.046 1.326-.006 1.988-.048.59-.116 1.177-.224 1.759a51 51 0 0 1-.317 1.568c-.14.646-.283 1.291-.472 1.925a14 14 0 0 1-.776 2.035 20 20 0 0 1-.952 1.782 14 14 0 0 1-1.296 1.791 21 21 0 0 1-1.397 1.456 40 40 0 0 1-3.265 2.818c-.63.48-1.267.95-1.926 1.388-.7.467-1.41.923-2.143 1.337-.764.426-1.541.827-2.338 1.188-.836.384-1.68.753-2.538 1.086-.904.35-1.815.685-2.737.987-.934.304-1.873.596-2.82.86-.973.268-1.95.52-2.937.736-.998.218-2 .424-3.006.6-1.05.185-2.1.362-3.157.501-1.11.146-2.222.272-3.338.358-1.18.093-2.362.178-3.545.242-1.274.069-2.55.133-3.826.153a64 64 0 0 1-4.023-.058 71 71 0 0 1-4.065-.314 73 73 0 0 1-4.01-.528c-1.341-.229-2.677-.49-3.991-.84a63 63 0 0 1-7.718-2.547c-1.29-.529-2.574-1.074-3.824-1.692-1.237-.618-2.46-1.267-3.636-1.998-1.144-.71-2.278-1.441-3.352-2.255-1.1-.847-2.162-1.743-3.105-2.765-.911-.996-1.776-2.035-2.513-3.169-.707-1.096-1.362-2.226-1.885-3.423-.503-1.157-.958-2.338-1.262-3.566-.278-1.142-.505-2.298-.585-3.474-.07-1.087-.087-2.178.033-3.263.108-.98.254-1.955.506-2.909.23-.855.49-1.702.809-2.528a22 22 0 0 1 1.018-2.3c.37-.7.759-1.393 1.201-2.05.412-.606.843-1.196 1.312-1.758.492-.589.994-1.17 1.537-1.712.641-.624 1.313-1.219 2.063-1.711.726-.471 1.478-.903 2.278-1.238a29 29 0 0 1 2.062-.795 19 19 0 0 1 2.08-.581 21 21 0 0 1 1.857-.331c.423-.053.846-.098 1.269-.153.458-.062.915-.138 1.378-.162.558-.018 1.118 0 1.664.129 4.74 1.094 3.193 7.797-1.547 6.703" transform="translate(0 -197)"/><path style="opacity:1;fill:#020900;fill-opacity:1;stroke:none;stroke-width:1;stroke-linecap:butt;stroke-linejoin:round;stroke-miterlimit:4;stroke-dasharray:none;stroke-opacity:1" d="M50.53 248.615c.001-.117-.03-.231-.058-.344a2.4 2.4 0 0 0-.434-.82c-.251-.32-.591-.529-.948-.709a2.84 2.84 0 0 0-1.482-.218l.285-.062c.199-.048-.003.003-.08.028-.243.082-.457.223-.663.37-.455.34-.747.813-.958 1.332a2.6 2.6 0 0 0-.147.912c.005.266.073.52.158.77.159.43.433.79.765 1.1.173.159.378.268.59.365q.326.137.679.171c.254.025.504-.02.751-.075.208-.053.405-.138.592-.241l-.201.131c-.05.03-.232.158-.01.002-3.903 2.902-8.007-2.62-4.103-5.52q.168-.123.342-.235.159-.105.32-.208a4.7 4.7 0 0 1 1.225-.56c.492-.118.99-.198 1.498-.16.503.035 1.002.121 1.473.312.462.2.906.438 1.29.769.512.46.945.989 1.194 1.639.167.457.291.928.308 1.417.017.546-.028 1.09-.206 1.61-.282.731-.68 1.392-1.31 1.878-.381.281-.784.531-1.235.685a6 6 0 0 1-.801.228q-.301.068-.605.125c-.806.121-1.615.084-2.374-.24-.606-.29-1.166-.648-1.598-1.173-.385-.478-.709-.999-.887-1.591a5.7 5.7 0 0 1-.241-1.364c-.23-4.859 6.642-5.183 6.871-.324" transform="translate(0 -197)"/></svg>