<svg viewBox="0 0 100 100"><path style="opacity:1;fill:#020900;fill-opacity:1;stroke:none;stroke-width:1;stroke-linecap:butt;stroke-linejoin:round;stroke-miterlimit:4;stroke-dasharray:none;stroke-opacity:1" d="M25.455 217.57c.025.311.031.624.031.936-.002.36-.014.72-.027 1.08q-.026.656-.062 1.311c-.028.61-.081 1.22-.135 1.828a128 128 0 0 0-.421 7.076q-.058 1.41-.06 2.824c0 1.002.032 2.004.074 3.005.047 1.068.136 2.133.234 3.197a89 89 0 0 0 .375 3.3c.144 1.11.33 2.214.532 3.315.205 1.118.457 2.227.727 3.332a46 46 0 0 0 .944 3.249 47 47 0 0 0 1.178 3.167 42 42 0 0 0 1.355 2.93 40 40 0 0 0 1.49 2.673 31 31 0 0 0 1.61 2.392 28 28 0 0 0 1.798 2.172c.67.732 1.374 1.43 2.088 2.118.708.686 1.45 1.336 2.209 1.965.74.609 1.515 1.175 2.303 1.722a30 30 0 0 0 2.374 1.46c.752.421 1.533.788 2.33 1.116.7.285 1.427.49 2.162.654.676.152 1.366.205 2.056.222.68.016 1.357-.052 2.027-.164.643-.107 1.262-.31 1.868-.548.635-.258 1.23-.597 1.812-.958.578-.357 1.11-.78 1.613-1.237.541-.502 1.02-1.064 1.478-1.641.507-.644.934-1.344 1.332-2.059.473-.874.86-1.791 1.235-2.71a53 53 0 0 0 1.123-3.113c.36-1.08.656-2.179.933-3.283.291-1.159.52-2.332.731-3.508.222-1.248.39-2.504.54-3.761.154-1.323.265-2.65.364-3.977.094-1.294.167-2.589.235-3.884q.094-1.854.172-3.709c.048-1.15.087-2.3.126-3.45a161 161 0 0 0 .093-5.766q.003-1.16 0-2.32c-.001-.612-.002-1.224-.013-1.836-.011-.494-.034-.988-.056-1.482l-.06-1.312q-.023-.528-.05-1.056l-.045-.882-.037-.774-.03-.725-.033-.586-.03-.505-.021-.345-.024-.311-.02-.256-.017-.204-.013-.178-.03-.41-.007-.171c-.023-.245.044.336.059.443-.965-4.768 5.777-6.132 6.742-1.365.03.217.07.43.073.649l.003.07.001.025.009.108.01.134.012.157.016.204.02.257.026.332.03.462.029.507q.02.339.037.678.016.36.03.722l.035.733.045.882q.028.546.052 1.093l.06 1.313c.025.556.05 1.112.062 1.668q.015.972.014 1.945.003 1.173 0 2.347a168 168 0 0 1-.098 5.984 402 402 0 0 1-.127 3.513q-.078 1.889-.175 3.777c-.07 1.345-.147 2.69-.245 4.034a101 101 0 0 1-.394 4.284 74 74 0 0 1-.599 4.159c-.239 1.33-.5 2.658-.83 3.97a53 53 0 0 1-1.077 3.776 60 60 0 0 1-1.284 3.547c-.483 1.179-.986 2.35-1.6 3.468-.585 1.038-1.213 2.052-1.956 2.986-.7.873-1.434 1.722-2.265 2.475-.814.725-1.669 1.404-2.6 1.974-.94.575-1.907 1.11-2.934 1.513-1.058.405-2.14.746-3.262.926-1.1.172-2.21.28-3.326.247-1.135-.038-2.268-.137-3.377-.392-1.11-.256-2.206-.568-3.26-1.004a29 29 0 0 1-3.067-1.473 37 37 0 0 1-2.932-1.81 42 42 0 0 1-2.77-2.077 45 45 0 0 1-2.593-2.308 53 53 0 0 1-2.424-2.465 36 36 0 0 1-2.24-2.715 38 38 0 0 1-1.956-2.915 48 48 0 0 1-1.738-3.127 49 49 0 0 1-1.578-3.417 54 54 0 0 1-1.352-3.646 54 54 0 0 1-1.083-3.738 66 66 0 0 1-.81-3.724 72 72 0 0 1-.587-3.663 96 96 0 0 1-.403-3.558 74 74 0 0 1-.257-3.538 77 77 0 0 1-.08-3.31c.003-1.023.02-2.045.064-3.066.034-.909.07-1.817.119-2.725q.063-1.233.149-2.465.078-1.118.176-2.234c.046-.526.093-1.052.118-1.58.02-.4.042-.802.056-1.203q.017-.42.023-.842a5 5 0 0 0-.012-.418c-.36-4.85 6.5-5.359 6.86-.508" transform="translate(0 -197)"/></svg>