<?xml version="1.0" encoding="UTF-8" standalone="no"?>
<!-- Created with Inkscape (http://www.inkscape.org/) -->

<svg
   xmlns:dc="http://purl.org/dc/elements/1.1/"
   xmlns:cc="http://creativecommons.org/ns#"
   xmlns:rdf="http://www.w3.org/1999/02/22-rdf-syntax-ns#"
   xmlns:svg="http://www.w3.org/2000/svg"
   xmlns="http://www.w3.org/2000/svg"
   xmlns:sodipodi="http://sodipodi.sourceforge.net/DTD/sodipodi-0.dtd"
   xmlns:inkscape="http://www.inkscape.org/namespaces/inkscape"
   width="10cm"
   height="10cm"
   viewBox="0 0 100 99.999997"
   version="1.1"
   id="svg8"
   sodipodi:docname="lupa.svg"
   inkscape:version="0.92.3 (2405546, 2018-03-11)">
  <defs
     id="defs2" />
  <sodipodi:namedview
     id="base"
     pagecolor="#ffffff"
     bordercolor="#666666"
     borderopacity="1.0"
     inkscape:pageopacity="0.0"
     inkscape:pageshadow="2"
     inkscape:zoom="1"
     inkscape:cx="125.50186"
     inkscape:cy="200.50542"
     inkscape:document-units="cm"
     inkscape:current-layer="layer1"
     showgrid="true"
     units="cm"
     inkscape:window-width="1920"
     inkscape:window-height="1017"
     inkscape:window-x="-8"
     inkscape:window-y="-8"
     inkscape:window-maximized="1"
     inkscape:snap-nodes="false">
    <inkscape:grid
       type="xygrid"
       id="grid815"
       units="cm"
       spacingx="9.9999998"
       spacingy="9.9999998" />
  </sodipodi:namedview>
  <metadata
     id="metadata5">
    <rdf:RDF>
      <cc:Work
         rdf:about="">
        <dc:format>image/svg+xml</dc:format>
        <dc:type
           rdf:resource="http://purl.org/dc/dcmitype/StillImage" />
        <dc:title></dc:title>
      </cc:Work>
    </rdf:RDF>
  </metadata>
  <g
     inkscape:label="Layer 1"
     inkscape:groupmode="layer"
     id="layer1"
     transform="translate(0,-197.00002)">
    <path
       style="opacity:1;fill:#020900;fill-opacity:1;stroke:none;stroke-width:1;stroke-linecap:butt;stroke-linejoin:round;stroke-miterlimit:4;stroke-dasharray:none;stroke-opacity:1"
       id="path1213"
       d="m 25.454928,217.56919 c 0.02464,0.31178 0.03112,0.6244 0.03138,0.93701 -0.0028,0.36016 -0.0145,0.72018 -0.02744,1.0801 -0.01574,0.43718 -0.03879,0.87405 -0.06146,1.31091 -0.02878,0.61033 -0.08145,1.21907 -0.135153,1.8276 -0.06212,0.70583 -0.116644,1.41228 -0.167019,2.11904 -0.05502,0.77938 -0.0998,1.55942 -0.141207,2.33962 -0.04576,0.8721 -0.08074,1.74471 -0.113379,2.61738 -0.04039,0.94101 -0.05758,1.88259 -0.05945,2.82439 -4.23e-4,1.00209 0.03159,2.00373 0.07399,3.0048 0.04727,1.0677 0.135569,2.13287 0.233708,3.1969 0.102118,1.10273 0.231914,2.20254 0.375123,3.3006 0.143952,1.10981 0.329941,2.21341 0.531503,3.31402 0.205224,1.11873 0.457638,2.22782 0.727157,3.33256 0.268928,1.09585 0.596109,2.17583 0.943949,3.24882 0.350223,1.07111 0.752221,2.12404 1.178054,3.16705 0.407591,0.99645 0.872609,1.96754 1.355598,2.92919 0.457782,0.91244 0.963898,1.79887 1.489247,2.6737 0.494596,0.82536 1.041961,1.61666 1.610323,2.39243 0.558025,0.75735 1.167977,1.47357 1.797897,2.17147 0.66948,0.73182 1.374449,1.42983 2.088274,2.11805 0.708454,0.68587 1.449628,1.33603 2.208744,1.96491 0.740958,0.60918 1.51524,1.17551 2.303095,1.72203 0.765688,0.52739 1.562849,1.00589 2.373775,1.45974 0.752785,0.42152 1.533293,0.78836 2.330845,1.11608 0.699119,0.28583 1.426112,0.48954 2.161886,0.65458 0.67582,0.15162 1.365472,0.20441 2.055987,0.22231 0.680151,0.0151 1.356474,-0.0526 2.026317,-0.16426 0.643448,-0.1076 1.262724,-0.3099 1.867876,-0.54855 0.635114,-0.25764 1.230768,-0.59698 1.812071,-0.95725 0.578635,-0.35781 1.110543,-0.78067 1.613582,-1.23696 0.541031,-0.50197 1.01972,-1.06442 1.477391,-1.64184 0.507368,-0.64381 0.934281,-1.34339 1.332048,-2.05842 0.472882,-0.8746 0.860075,-1.79131 1.23558,-2.71075 0.411951,-1.02342 0.775414,-2.06524 1.12291,-3.11199 0.35904,-1.08031 0.656125,-2.17929 0.932924,-3.28305 0.291351,-1.15925 0.520641,-2.33239 0.731289,-3.50854 0.221295,-1.24752 0.388885,-2.50345 0.539126,-3.7612 0.154776,-1.32245 0.26588,-2.64934 0.364556,-3.97697 0.09363,-1.29357 0.167272,-2.58845 0.235056,-3.88359 0.063,-1.23595 0.119459,-2.47222 0.171847,-3.70867 0.04834,-1.14984 0.08731,-2.30005 0.125624,-3.45026 0.03555,-1.02492 0.06059,-2.05019 0.07654,-3.07559 0.01394,-0.89682 0.01582,-1.79375 0.01728,-2.69066 0.0016,-0.77355 0.0013,-1.5471 -5.3e-4,-2.32066 -7.93e-4,-0.61165 -0.0021,-1.22328 -0.01333,-1.83484 -0.01053,-0.49447 -0.03313,-0.98854 -0.0555,-1.48258 -0.02008,-0.43736 -0.04029,-0.87471 -0.06017,-1.31208 -0.01524,-0.35208 -0.03214,-0.70407 -0.05003,-1.05603 -0.015,-0.294 -0.02992,-0.58801 -0.04486,-0.88202 -0.01318,-0.25792 -0.02532,-0.5159 -0.03689,-0.7739 -0.01072,-0.24159 -0.01947,-0.48325 -0.03021,-0.72483 -0.0099,-0.19555 -0.02141,-0.39101 -0.0327,-0.58648 -0.0097,-0.1683 -0.01953,-0.33659 -0.02931,-0.50489 -0.006,-0.11503 -0.01344,-0.22996 -0.02212,-0.34482 -0.0079,-0.10363 -0.01609,-0.20725 -0.02418,-0.31087 -0.0067,-0.0853 -0.01339,-0.17063 -0.02008,-0.25595 -0.0053,-0.0681 -0.01066,-0.13613 -0.01601,-0.2042 -0.0047,-0.0591 -0.0091,-0.11822 -0.01355,-0.17734 -0.0034,-0.0452 -0.0068,-0.0904 -0.01021,-0.13558 -0.0027,-0.0359 -0.0054,-0.0718 -0.0081,-0.10774 -0.0044,-0.0559 -0.008,-0.11181 -0.01111,-0.16778 -0.003,-0.0569 -0.0052,-0.11388 -0.0075,-0.17083 -0.02275,-0.24437 0.04415,0.33645 0.05879,0.44351 -0.964951,-4.76763 5.7775,-6.13228 6.742452,-1.36465 v 0 c 0.03046,0.21614 0.07031,0.43001 0.07252,0.64842 7.94e-4,0.0193 0.0026,0.0631 0.0028,0.0706 5.29e-4,0.008 0.0013,0.0163 0.0019,0.0245 0.0027,0.0359 0.0054,0.0718 0.0081,0.10772 0.0034,0.0449 0.0067,0.0898 0.01013,0.13466 0.0039,0.0522 0.0079,0.10451 0.01196,0.15674 0.0053,0.0681 0.01069,0.13615 0.01601,0.20422 0.0067,0.0855 0.01342,0.17098 0.02011,0.25647 0.0087,0.11068 0.01736,0.22135 0.02582,0.33205 0.01154,0.15384 0.02167,0.30777 0.02991,0.46183 0.0098,0.16903 0.01966,0.33806 0.02944,0.50709 0.01307,0.22598 0.02635,0.45194 0.03737,0.67803 0.01069,0.24065 0.01958,0.48136 0.03009,0.72202 0.01095,0.24439 0.02246,0.48876 0.03493,0.73308 0.01492,0.29398 0.02986,0.58795 0.04485,0.88192 0.0185,0.36423 0.03601,0.7285 0.0518,1.09286 0.0199,0.43779 0.04012,0.87556 0.06022,1.31334 0.02516,0.55594 0.05006,1.11196 0.06139,1.6684 0.01167,0.64818 0.01392,1.29643 0.01445,1.94472 0.0019,0.78241 0.0021,1.56482 5.29e-4,2.34724 -0.0016,0.92903 -0.0036,1.85808 -0.01812,2.78702 -0.01677,1.06586 -0.04248,2.13159 -0.07951,3.19695 -0.03901,1.17097 -0.07874,2.34194 -0.127981,3.51254 -0.05339,1.25925 -0.110858,2.51834 -0.175091,3.77709 -0.07049,1.34546 -0.147135,2.69063 -0.244618,4.03444 -0.106571,1.43013 -0.226967,2.85942 -0.394327,4.2839 -0.166743,1.39069 -0.353015,2.7793 -0.598508,4.1586 -0.239178,1.33083 -0.500259,2.65807 -0.830483,3.96977 -0.319489,1.26976 -0.662985,2.53379 -1.076716,3.77659 -0.397031,1.19334 -0.812559,2.38095 -1.284073,3.54725 -0.482833,1.17833 -0.986475,2.35045 -1.60069,3.46759 -0.58416,1.03792 -1.212344,2.05201 -1.95531,2.98553 -0.699728,0.87388 -1.434254,1.72199 -2.264643,2.47577 -0.814546,0.7249 -1.669463,1.40339 -2.601098,1.97384 -0.9398,0.57506 -1.905965,1.1097 -2.933692,1.51332 -1.057886,0.40475 -2.14,0.74587 -3.261452,0.92528 -1.100384,0.17223 -2.210255,0.28078 -3.325786,0.2477 -1.135023,-0.0382 -2.268141,-0.13738 -3.377705,-0.39198 -1.109181,-0.25652 -2.205723,-0.56817 -3.259376,-1.00432 -1.04811,-0.43582 -2.076905,-0.91635 -3.066904,-1.47329 -1.001771,-0.56322 -1.987249,-1.15567 -2.932922,-1.80974 -0.947746,-0.65943 -1.879529,-1.34216 -2.770463,-2.07727 -0.89022,-0.73962 -1.760778,-1.50262 -2.592292,-2.30818 -0.829186,-0.80041 -1.64741,-1.61285 -2.423674,-2.46515 -0.78464,-0.87273 -1.544589,-1.76807 -2.23933,-2.71484 -0.690163,-0.94542 -1.355379,-1.90927 -1.956598,-2.91432 -0.613205,-1.02339 -1.203925,-2.06033 -1.738615,-3.12732 -0.562278,-1.12182 -1.102743,-2.25501 -1.57712,-3.4173 -0.488759,-1.20064 -0.950973,-2.41234 -1.352644,-3.64526 -0.399183,-1.23484 -0.774336,-2.47776 -1.082743,-3.73882 -0.300422,-1.23439 -0.58172,-2.47362 -0.810471,-3.72356 -0.222186,-1.21654 -0.427284,-2.43635 -0.586103,-3.66299 -0.154014,-1.18381 -0.29393,-2.36946 -0.40376,-3.55828 -0.108287,-1.1775 -0.204934,-2.35629 -0.256583,-3.53785 -0.04634,-1.10282 -0.08107,-2.20626 -0.08008,-3.3102 0.0025,-1.02237 0.02057,-2.04454 0.06424,-3.06607 0.03401,-0.90858 0.07054,-1.81708 0.118253,-2.72506 0.04367,-0.82175 0.09093,-1.64332 0.148957,-2.4642 0.05319,-0.74526 0.110677,-1.49022 0.176233,-2.23451 0.04643,-0.52588 0.09321,-1.05186 0.117757,-1.57934 0.02083,-0.40109 0.04218,-0.8022 0.05673,-1.20358 0.01028,-0.28048 0.0193,-0.56104 0.02293,-0.8417 0.001,-0.13945 -0.0013,-0.27886 -0.01259,-0.41793 -0.35932,-4.85102 6.501052,-5.35917 6.860372,-0.50816 z"
       inkscape:connector-curvature="0" />
  </g>
</svg>
