<svg viewBox="0 0 100 100"><path style="opacity:1;fill:#020900;fill-opacity:1;stroke:none;stroke-width:1;stroke-linecap:butt;stroke-linejoin:round;stroke-miterlimit:4;stroke-dasharray:none;stroke-opacity:1" d="M47.485 221.675a10 10 0 0 1-.864.245q-.459.104-.915.212-.612.146-1.222.298c-.431.106-.857.234-1.281.363a44 44 0 0 0-2.815.967c-.48.187-.947.407-1.409.636a32 32 0 0 0-1.61.885q-.865.507-1.7 1.063c-.564.372-1.096.787-1.615 1.218a29 29 0 0 0-1.68 1.54 33 33 0 0 0-1.692 1.817 39 39 0 0 0-1.7 2.139 54 54 0 0 0-1.702 2.448c-.54.816-1.034 1.66-1.507 2.517a28 28 0 0 0-1.236 2.578 30 30 0 0 0-.98 2.673 26 26 0 0 0-.667 2.69 25 25 0 0 0-.357 2.68 26 26 0 0 0-.069 2.66c.018.89.089 1.78.174 2.668.084.873.218 1.74.37 2.604.145.823.347 1.634.566 2.44.206.775.483 1.528.784 2.271.331.806.715 1.588 1.12 2.359.42.801.906 1.565 1.422 2.307.535.761 1.149 1.46 1.79 2.133.72.747 1.52 1.409 2.337 2.044.945.722 1.938 1.378 2.942 2.014a31 31 0 0 0 3.192 1.74c1.144.542 2.327.99 3.519 1.41 1.188.414 2.403.74 3.627 1.026 1.22.279 2.457.468 3.697.63 1.225.158 2.457.237 3.69.285 1.192.045 2.384.002 3.573-.07a36 36 0 0 0 3.489-.412c1.076-.173 2.126-.46 3.166-.783 1-.313 1.974-.699 2.932-1.12.897-.398 1.754-.874 2.595-1.376.817-.484 1.575-1.056 2.306-1.66.781-.653 1.497-1.376 2.192-2.118a35 35 0 0 0 2.061-2.46 31 31 0 0 0 1.775-2.609c.542-.885 1.005-1.815 1.445-2.755.446-.96.822-1.95 1.17-2.95.343-.995.607-2.014.844-3.039.225-.975.37-1.965.495-2.957.12-.94.168-1.888.188-2.835a25 25 0 0 0-.106-2.655 22.4 22.4 0 0 0-1.901-7.083 22 22 0 0 0-1.09-2.08 29 29 0 0 0-1.291-1.97 31 31 0 0 0-1.448-1.851 31 31 0 0 0-1.564-1.722 76 76 0 0 0-1.732-1.69 46 46 0 0 0-1.74-1.568 28 28 0 0 0-3.249-2.434 20 20 0 0 0-1.489-.862q-.723-.38-1.468-.712c-.471-.21-.95-.403-1.429-.594q-.667-.266-1.341-.518a22 22 0 0 0-2.141-.677q-.528-.131-1.06-.242a22 22 0 0 0-1.077-.195 37 37 0 0 0-1.189-.164q-.593-.074-1.187-.137a150 150 0 0 0-2.853-.271 57 57 0 0 0-.714-.055c-.207-.014-.412-.03-.619-.038a10 10 0 0 0-.948.017c.526-.001 1.061-.321 1.526-.582-3.893 2.917-8.018-2.588-4.126-5.505.79-.463 1.326-.759 2.247-.784q.36-.019.722-.027a16 16 0 0 1 1.69.058q.398.028.795.06a119 119 0 0 1 1.854.17q.579.057 1.158.118.66.07 1.315.151c.477.06.953.122 1.426.198.471.076.941.158 1.407.257.461.098.92.2 1.377.317a28 28 0 0 1 2.817.892q.737.276 1.468.567a33 33 0 0 1 3.584 1.625c.679.362 1.349.74 1.995 1.16a35 35 0 0 1 4.008 3.004 53 53 0 0 1 1.99 1.793c.65.62 1.3 1.244 1.93 1.887.656.68 1.299 1.373 1.903 2.1a35 35 0 0 1 3.402 4.77 29 29 0 0 1 1.429 2.744c.421.953.812 1.92 1.134 2.912a30 30 0 0 1 .84 3.124c.217 1.076.4 2.159.494 3.253.095 1.128.154 2.259.129 3.39a34 34 0 0 1-.24 3.541c-.156 1.228-.34 2.453-.62 3.66-.296 1.265-.625 2.524-1.052 3.753-.428 1.219-.888 2.427-1.436 3.598-.553 1.177-1.137 2.34-1.82 3.449a38 38 0 0 1-2.182 3.199 42 42 0 0 1-2.493 2.967c-.9.954-1.827 1.883-2.838 2.72-1.003.821-2.041 1.6-3.16 2.26-1.084.643-2.19 1.253-3.346 1.761a35 35 0 0 1-3.665 1.393c-1.347.415-2.71.78-4.104 1.003a43 43 0 0 1-4.17.487c-1.417.084-2.838.132-4.258.076-1.439-.058-2.877-.152-4.307-.338-1.467-.193-2.931-.42-4.374-.753-1.466-.345-2.922-.737-4.344-1.236-1.428-.504-2.845-1.045-4.213-1.697-1.333-.643-2.642-1.334-3.891-2.129-1.193-.756-2.37-1.538-3.491-2.4-1.086-.848-2.143-1.735-3.097-2.732-.88-.931-1.722-1.899-2.455-2.952-.675-.977-1.312-1.98-1.862-3.032a35 35 0 0 1-1.407-2.98c-.4-.997-.768-2.008-1.045-3.048a35 35 0 0 1-.702-3.053c-.18-1.04-.34-2.083-.441-3.134a42 42 0 0 1-.204-3.202c-.018-1.13-.005-2.261.094-3.388.104-1.152.24-2.3.468-3.435.234-1.152.5-2.3.857-3.42a37 37 0 0 1 1.211-3.295 36 36 0 0 1 1.535-3.186 44 44 0 0 1 1.79-2.986 61 61 0 0 1 1.938-2.783 45 45 0 0 1 2.02-2.534 40 40 0 0 1 2.063-2.209 36 36 0 0 1 2.112-1.93 26 26 0 0 1 2.196-1.647c.67-.444 1.35-.874 2.046-1.278.66-.383 1.324-.756 2.006-1.098.647-.32 1.302-.626 1.976-.887a51 51 0 0 1 3.302-1.135 31 31 0 0 1 1.602-.452q.65-.162 1.3-.318.457-.11.915-.211a3 3 0 0 0 .274-.076c4.61-1.551 6.804 4.969 2.194 6.52" transform="translate(0 -197)"/><path style="opacity:1;fill:#020900;fill-opacity:1;stroke:none;stroke-width:1;stroke-linecap:butt;stroke-linejoin:round;stroke-miterlimit:4;stroke-dasharray:none;stroke-opacity:1" d="M48.215 279.247a3 3 0 0 0 .056-.254q.036-.22.063-.44.036-.302.06-.603.03-.38.054-.76.026-.404.036-.809.007-.525.007-1.05-.004-.603-.01-1.204-.005-.714-.012-1.427a530 530 0 0 1-.026-3.57q-.005-.969-.008-1.939a91 91 0 0 1 .02-2.001c.015-.672.036-1.344.053-2.016q.028-1.04.046-2.083c.012-.67.01-1.34.005-2.011l-.024-2.08q-.009-1.005-.03-2.01a69 69 0 0 0-.065-1.749q-.044-.882-.084-1.766a39 39 0 0 0-.122-1.647 91 91 0 0 0-.162-1.625q-.1-.827-.194-1.656c-.064-.598-.12-1.197-.178-1.796q-.082-.855-.178-1.709c-.064-.57-.13-1.141-.19-1.713q-.093-.895-.177-1.791-.089-.94-.156-1.881a50 50 0 0 1-.107-2.029c-.022-.656-.03-1.312-.04-1.968q-.013-.877-.022-1.753-.008-.827-.008-1.653-.003-.795.01-1.59.015-.699.035-1.398l.03-1.236q.014-.576.032-1.152c.011-.362.033-.724.056-1.085l.11-1.71q.022-.334.042-.67l.034-.539.022-.312c.383-4.85 7.24-4.308 6.858.541l-.015.205-.033.53-.094 1.498-.06.9q-.029.428-.044.856l-.03 1.096-.031 1.261q-.02.662-.033 1.324a67 67 0 0 0-.01 1.467q0 .8.008 1.599.009.861.021 1.722c.009.608.017 1.216.037 1.823.02.589.047 1.178.092 1.766q.064.87.144 1.739.08.854.168 1.706.092.844.188 1.689.1.9.188 1.802c.055.568.108 1.137.169 1.704.06.552.129 1.102.193 1.654q.097.885.177 1.773c.058.644.111 1.289.141 1.935q.04.88.084 1.76c.03.642.057 1.285.071 1.929q.023 1.04.032 2.083l.024 2.099c.006.73.007 1.461-.006 2.192q-.019 1.07-.047 2.14l-.053 1.97q-.02.925-.018 1.85.003.96.009 1.919a1188 1188 0 0 0 .038 4.977q.006.639.009 1.278 0 .593-.008 1.184-.013.55-.049 1.1-.029.45-.065.9a20 20 0 0 1-.213 1.717q-.068.365-.16.724c-1.221 4.708-7.88 2.982-6.66-1.727" transform="translate(0 -197)"/><path style="opacity:1;fill:#020900;fill-opacity:1;stroke:none;stroke-width:1;stroke-linecap:butt;stroke-linejoin:round;stroke-miterlimit:4;stroke-dasharray:none;stroke-opacity:1" d="M82.075 252.368a7 7 0 0 0-.364.024c-.209.016-.416.048-.623.078-.418.064-.838.114-1.258.159q-.802.083-1.606.13c-.65.037-1.3.047-1.95.05-.68.002-1.36-.007-2.039-.018a894 894 0 0 0-5.855-.07l-1.75-.015-1.62-.01q-.783-.002-1.566.007l-1.664.024q-.873.014-1.747.04-.924.033-1.848.086a295 295 0 0 0-4.004.27q-1.076.084-2.154.157-1.167.08-2.337.142-1.22.064-2.44.115-1.201.046-2.404.1-1.207.06-2.416.118c-.8.035-1.6.08-2.4.126q-1.237.077-2.476.15-1.276.072-2.554.13c-.836.036-1.674.057-2.51.073l-2.222.032-1.903.024-1.57.02-1.315.015-1.17.013c-.387.003-.774-.003-1.16-.008l-.974-.015q-.412-.009-.823-.022l-.633-.02-.506-.015-.404-.012-.323-.01-.263-.008-.216-.006c-.047 0-.022 0-.074-.002-4.862-.164-4.63-7.04.232-6.875l.037.001.217.006.273.008.322.01.912.027.631.02.752.02.936.014q.498.01.996.008l2.47-.028 1.566-.019 1.899-.024q1.092-.014 2.184-.032a92 92 0 0 0 2.329-.068q1.234-.055 2.467-.124 1.236-.073 2.474-.15a165 165 0 0 1 2.473-.13l2.427-.118q1.213-.056 2.428-.102a213 213 0 0 0 2.358-.111q1.122-.059 2.243-.137 1.053-.07 2.106-.152 1.036-.078 2.074-.146a295 295 0 0 1 2.052-.132 88 88 0 0 1 3.879-.137l1.713-.025a130 130 0 0 1 3.302.003l1.758.015a1500 1500 0 0 1 3.877.042l2.016.03c.632.008 1.265.018 1.897.017.528-.003 1.057-.01 1.584-.04a28 28 0 0 0 1.279-.102q.504-.052 1.007-.127a15 15 0 0 1 1.755-.17c4.861-.153 5.078 6.722.216 6.876" transform="translate(0 -197)"/></svg>