<?xml version="1.0" encoding="UTF-8" standalone="no"?>
<!-- Created with Inkscape (http://www.inkscape.org/) -->

<svg
   xmlns:dc="http://purl.org/dc/elements/1.1/"
   xmlns:cc="http://creativecommons.org/ns#"
   xmlns:rdf="http://www.w3.org/1999/02/22-rdf-syntax-ns#"
   xmlns:svg="http://www.w3.org/2000/svg"
   xmlns="http://www.w3.org/2000/svg"
   xmlns:sodipodi="http://sodipodi.sourceforge.net/DTD/sodipodi-0.dtd"
   xmlns:inkscape="http://www.inkscape.org/namespaces/inkscape"
   width="10cm"
   height="10cm"
   viewBox="0 0 100 99.999997"
   version="1.1"
   id="svg8"
   sodipodi:docname="ma.svg"
   inkscape:version="0.92.3 (2405546, 2018-03-11)">
  <defs
     id="defs2" />
  <sodipodi:namedview
     id="base"
     pagecolor="#ffffff"
     bordercolor="#666666"
     borderopacity="1.0"
     inkscape:pageopacity="0.0"
     inkscape:pageshadow="2"
     inkscape:zoom="1"
     inkscape:cx="125.50186"
     inkscape:cy="200.50542"
     inkscape:document-units="cm"
     inkscape:current-layer="layer1"
     showgrid="true"
     units="cm"
     inkscape:window-width="1920"
     inkscape:window-height="1017"
     inkscape:window-x="-8"
     inkscape:window-y="-8"
     inkscape:window-maximized="1"
     inkscape:snap-nodes="false">
    <inkscape:grid
       type="xygrid"
       id="grid815"
       units="cm"
       spacingx="9.9999998"
       spacingy="9.9999998" />
  </sodipodi:namedview>
  <metadata
     id="metadata5">
    <rdf:RDF>
      <cc:Work
         rdf:about="">
        <dc:format>image/svg+xml</dc:format>
        <dc:type
           rdf:resource="http://purl.org/dc/dcmitype/StillImage" />
        <dc:title></dc:title>
      </cc:Work>
    </rdf:RDF>
  </metadata>
  <g
     inkscape:label="Layer 1"
     inkscape:groupmode="layer"
     id="layer1"
     transform="translate(0,-197.00002)">
    <path
       style="opacity:1;fill:#020900;fill-opacity:1;stroke:none;stroke-width:1;stroke-linecap:butt;stroke-linejoin:round;stroke-miterlimit:4;stroke-dasharray:none;stroke-opacity:1"
       id="path1215"
       d="m 47.484934,221.67465 c -0.283498,0.0974 -0.573164,0.17443 -0.8642,0.24543 -0.305388,0.0692 -0.610698,0.13852 -0.915207,0.21153 -0.407538,0.0984 -0.815184,0.19624 -1.221685,0.29883 -0.431088,0.10592 -0.856406,0.23307 -1.280916,0.36238 -0.46567,0.14117 -0.927722,0.29371 -1.388428,0.4502 -0.479287,0.16198 -0.955259,0.33327 -1.42667,0.51689 -0.480661,0.18693 -0.947322,0.40661 -1.408684,0.6364 -0.546677,0.27657 -1.080797,0.57686 -1.610368,0.88464 -0.577152,0.33708 -1.142529,0.69361 -1.699334,1.06318 -0.56396,0.37171 -1.096135,0.78735 -1.615922,1.21778 -0.582726,0.48801 -1.136766,1.00844 -1.679249,1.54039 -0.589307,0.58177 -1.148064,1.19285 -1.691881,1.81699 -0.596839,0.68852 -1.154065,1.40953 -1.700324,2.13837 -0.593045,0.79793 -1.1543,1.61854 -1.702149,2.44792 -0.53975,0.81622 -1.034411,1.66052 -1.506428,2.51729 -0.461941,0.83481 -0.861296,1.70129 -1.236829,2.57766 -0.372805,0.87382 -0.691237,1.76874 -0.979369,2.67355 -0.27891,0.88181 -0.484784,1.78357 -0.667023,2.68951 -0.176681,0.88513 -0.278724,1.78185 -0.357701,2.68016 -0.07617,0.88458 -0.08466,1.77238 -0.06828,2.65943 0.01811,0.89171 0.08868,1.78095 0.173747,2.66839 0.0844,0.87341 0.218449,1.7406 0.36966,2.60458 0.14481,0.82295 0.347543,1.63362 0.566159,2.43955 0.206223,0.77561 0.48307,1.52847 0.784126,2.27143 0.331086,0.80577 0.714562,1.58811 1.11971,2.35877 0.420233,0.80141 0.906092,1.56464 1.422671,2.30664 0.534903,0.76173 1.148628,1.46132 1.790314,2.13368 0.720087,0.7465 1.518904,1.40842 2.336808,2.04362 0.944817,0.72235 1.937155,1.3785 2.941825,2.0137 1.024602,0.6511 2.098199,1.21692 3.192069,1.74106 1.143187,0.54148 2.326206,0.98996 3.518598,1.40914 1.18773,0.41474 2.402774,0.7406 3.627107,1.02617 1.21988,0.27876 2.457156,0.46828 3.697224,0.6296 1.224544,0.15828 2.456952,0.23708 3.690085,0.28567 1.19153,0.0451 2.383235,0.002 3.572619,-0.0699 1.169831,-0.0737 2.332201,-0.22498 3.488687,-0.412 1.075891,-0.17282 2.126758,-0.4608 3.165906,-0.78336 0.999958,-0.31303 1.974197,-0.69892 2.932618,-1.12069 0.896501,-0.39687 1.753391,-0.8736 2.594761,-1.37492 0.817142,-0.48459 1.574789,-1.05677 2.306177,-1.6607 0.78109,-0.65219 1.497015,-1.37584 2.192316,-2.11726 0.729247,-0.78393 1.407385,-1.61263 2.060739,-2.46018 0.640276,-0.83577 1.223023,-1.71275 1.774873,-2.6087 0.541787,-0.88586 1.004758,-1.81569 1.444492,-2.75532 0.446786,-0.96011 0.822021,-1.95053 1.170726,-2.9497 0.343067,-0.99517 0.606396,-2.0146 0.843891,-3.03926 0.225065,-0.97517 0.370547,-1.96529 0.494504,-2.95753 0.119832,-0.94055 0.168799,-1.88718 0.188582,-2.83443 0.0181,-0.88676 -0.02932,-1.77247 -0.105831,-2.65551 -0.07316,-0.82941 -0.213982,-1.65009 -0.381146,-2.46505 -0.166764,-0.80709 -0.391003,-1.60006 -0.645369,-2.38342 -0.248824,-0.76099 -0.549148,-1.50319 -0.8749,-2.23406 -0.320675,-0.71511 -0.695738,-1.40332 -1.089972,-2.07999 -0.398851,-0.67676 -0.838041,-1.32821 -1.291167,-1.96947 -0.455022,-0.63843 -0.945359,-1.25033 -1.447405,-1.85208 -0.496274,-0.59639 -1.024742,-1.16441 -1.564114,-1.72169 -0.565899,-0.57527 -1.148337,-1.13395 -1.732256,-1.6908 -0.564036,-0.53961 -1.148919,-1.05658 -1.739448,-1.56682 -0.537308,-0.46562 -1.093591,-0.90831 -1.6614,-1.33596 -0.515192,-0.38603 -1.047015,-0.74876 -1.587598,-1.09806 -0.482116,-0.31175 -0.982597,-0.59298 -1.489369,-0.8622 -0.48133,-0.25421 -0.972357,-0.48915 -1.468612,-0.71257 -0.470882,-0.21022 -0.949275,-0.40283 -1.428242,-0.59367 -0.445249,-0.1777 -0.892866,-0.34935 -1.341625,-0.51795 -0.364805,-0.13771 -0.73469,-0.26113 -1.106112,-0.37959 -0.342188,-0.10841 -0.687538,-0.20629 -1.034828,-0.2969 -0.35134,-0.0892 -0.705445,-0.16694 -1.060021,-0.24203 -0.357069,-0.076 -0.716889,-0.13774 -1.07723,-0.1958 -0.395049,-0.0628 -0.791848,-0.1137 -1.188683,-0.16369 -0.395137,-0.0501 -0.790975,-0.0942 -1.186998,-0.13661 -0.366358,-0.0388 -0.732911,-0.0757 -1.09955,-0.1118 -0.313756,-0.031 -0.627647,-0.0606 -0.941623,-0.0892 -0.27038,-0.0245 -0.540845,-0.048 -0.811389,-0.0706 -0.238162,-0.0201 -0.476502,-0.0379 -0.714891,-0.055 -0.20605,-0.0138 -0.411999,-0.0302 -0.618379,-0.0382 -0.16078,-0.005 -0.321686,-0.005 -0.48251,-0.002 -0.155218,0.004 -0.310396,0.0108 -0.465458,0.019 0.525563,-10e-4 1.060826,-0.3206 1.52568,-0.58153 -3.892502,2.91717 -8.01801,-2.58765 -4.12551,-5.50483 v 0 c 0.789506,-0.46333 1.325938,-0.7588 2.246355,-0.78372 0.240726,-0.0122 0.481586,-0.0228 0.722593,-0.0274 0.291809,-0.004 0.583755,-0.004 0.875408,0.008 0.27178,0.0122 0.54325,0.0297 0.814581,0.0495 0.264948,0.019 0.529836,0.0389 0.794528,0.0612 0.288239,0.0241 0.576397,0.0491 0.864457,0.0753 0.329996,0.0301 0.659905,0.0612 0.989671,0.0938 0.386292,0.038 0.772493,0.0769 1.158486,0.11786 0.438722,0.047 0.877231,0.0961 1.314977,0.15152 0.476144,0.0601 0.952145,0.12189 1.426067,0.19783 0.470693,0.0763 0.940593,0.15795 1.407027,0.25741 0.460494,0.0978 0.920277,0.19956 1.376239,0.31696 0.464674,0.12215 0.9271,0.25278 1.384956,0.39864 0.48092,0.15391 0.959757,0.31448 1.432234,0.49289 0.491146,0.18464 0.981075,0.37251 1.468403,0.56703 0.574223,0.22892 1.147316,0.46104 1.711484,0.71397 0.632621,0.2861 1.259123,0.58572 1.872636,0.91109 0.678532,0.36216 1.348412,0.74078 1.994122,1.15933 0.678292,0.43989 1.34633,0.89556 1.992686,1.38151 0.68838,0.52034 1.364229,1.05706 2.016186,1.62266 0.675219,0.58393 1.343599,1.17596 1.98873,1.7932 0.65115,0.62119 1.300437,1.24464 1.930302,1.88753 0.656421,0.67976 1.299236,1.37289 1.903547,2.09983 0.618916,0.74389 1.223172,1.50042 1.783353,2.28996 0.568494,0.80713 1.119103,1.6273 1.6183,2.47957 0.517364,0.89287 1.008933,1.80117 1.429152,2.74451 0.421648,0.95316 0.812239,1.92017 1.133954,2.9122 0.329914,1.02732 0.62353,2.06625 0.839578,3.12414 0.217491,1.07542 0.40045,2.15825 0.494414,3.25233 0.09494,1.12775 0.153961,2.25875 0.129037,3.39099 -0.02702,1.18328 -0.09036,2.36579 -0.240554,3.54064 -0.15494,1.22795 -0.339751,2.45275 -0.619884,3.65932 -0.295465,1.26562 -0.624491,2.52425 -1.051174,3.75292 -0.427796,1.21912 -0.88819,2.4274 -1.435705,3.59862 -0.553189,1.17683 -1.137894,2.34002 -1.819691,3.44871 -0.67982,1.09814 -1.39528,2.17442 -2.183275,3.19868 -0.790729,1.02211 -1.610368,2.02222 -2.492986,2.96704 -0.89893,0.9543 -1.826454,1.88342 -2.837292,2.72055 -1.003043,0.82112 -2.04167,1.59909 -3.159384,2.25951 -1.085064,0.64326 -2.191001,1.25293 -3.34681,1.76131 -1.198184,0.52363 -2.415024,1.00496 -3.664637,1.39316 -1.347153,0.41433 -2.710125,0.78059 -4.103958,1.00245 -1.382429,0.2211 -2.771656,0.40104 -4.169809,0.48692 -1.417746,0.084 -2.838233,0.13217 -4.258331,0.0766 -1.439318,-0.0584 -2.877709,-0.15214 -4.306888,-0.33824 -1.467509,-0.19272 -2.931438,-0.42 -4.374607,-0.75291 -1.466218,-0.3448 -2.921572,-0.73671 -4.343829,-1.23573 -1.42844,-0.50424 -2.844824,-1.04556 -4.213471,-1.69759 -1.332651,-0.64249 -2.641767,-1.3335 -3.890888,-2.12854 -1.192954,-0.75611 -2.370511,-1.53818 -3.490635,-2.39988 -1.085688,-0.84832 -2.143124,-1.73519 -3.096605,-2.73268 -0.880586,-0.93065 -1.722724,-1.89851 -2.455666,-2.95167 -0.674754,-0.97653 -1.311956,-1.97905 -1.861956,-3.03211 -0.509089,-0.97355 -0.991845,-1.96128 -1.406596,-2.97928 -0.40083,-0.99734 -0.768212,-2.0083 -1.044774,-3.04811 -0.272298,-1.00882 -0.522635,-2.02402 -0.70255,-3.05398 -0.180751,-1.03933 -0.340283,-2.0826 -0.440864,-3.13315 -0.101226,-1.06515 -0.183508,-2.13255 -0.203818,-3.20275 -0.01852,-1.13008 -0.0049,-2.26105 0.09428,-3.38774 0.103297,-1.15139 0.238695,-2.30041 0.467193,-3.43462 0.234115,-1.15255 0.500033,-2.2993 0.85728,-3.42083 0.357524,-1.11461 0.750138,-2.21783 1.211362,-3.29432 0.466455,-1.08317 0.962506,-2.15397 1.534599,-3.18615 0.561702,-1.01605 1.149002,-2.01803 1.790285,-2.98635 0.623575,-0.94281 1.262408,-1.87564 1.937788,-2.78234 0.648595,-0.86412 1.311409,-1.71799 2.020448,-2.53381 0.663139,-0.75888 1.343906,-1.50242 2.06253,-2.20948 0.682173,-0.66695 1.379016,-1.31928 2.112486,-1.92999 0.706692,-0.58193 1.430428,-1.14344 2.195637,-1.64723 0.670645,-0.44368 1.350505,-0.87337 2.045515,-1.27806 0.659551,-0.38239 1.324869,-0.75528 2.006346,-1.09749 0.647393,-0.32026 1.30229,-0.62597 1.976289,-0.88676 0.563774,-0.21833 1.131874,-0.42499 1.704835,-0.61806 0.529897,-0.17981 1.061402,-0.35493 1.596948,-0.5173 0.530998,-0.16149 1.063419,-0.31873 1.602402,-0.45176 0.432694,-0.10897 0.866423,-0.21367 1.30022,-0.31814 0.304089,-0.0728 0.608695,-0.14328 0.913908,-0.21122 0.0928,-0.0207 0.184793,-0.0448 0.274696,-0.0759 4.610338,-1.5512 6.804075,4.9688 2.193734,6.52001 z"
       inkscape:connector-curvature="0" />
    <path
       style="opacity:1;fill:#020900;fill-opacity:1;stroke:none;stroke-width:1;stroke-linecap:butt;stroke-linejoin:round;stroke-miterlimit:4;stroke-dasharray:none;stroke-opacity:1"
       id="path1221"
       d="m 48.215108,279.24744 c 0.02222,-0.0841 0.04113,-0.16886 0.05609,-0.25453 0.02484,-0.14631 0.0442,-0.29347 0.06265,-0.4407 0.02471,-0.20024 0.04291,-0.40119 0.05992,-0.6022 0.02053,-0.25286 0.03795,-0.50596 0.05424,-0.75913 0.01738,-0.26971 0.0304,-0.53962 0.03593,-0.80984 0.0058,-0.35009 0.0058,-0.70024 0.0068,-1.05037 -0.0019,-0.40117 -0.006,-0.80232 -0.0092,-1.20348 -0.0031,-0.47582 -0.0075,-0.95162 -0.0123,-1.42741 -0.0058,-0.55609 -0.01021,-1.11218 -0.01426,-1.66828 -0.0045,-0.63357 -0.0081,-1.26715 -0.01151,-1.90074 -0.0032,-0.64645 -0.007,-1.2929 -0.0085,-1.93936 -0.0016,-0.66732 0.0062,-1.33461 0.01926,-2.00179 0.01596,-0.67204 0.03643,-1.34396 0.05414,-2.01596 0.01826,-0.69402 0.0333,-1.38813 0.04572,-2.08228 0.01146,-0.67042 0.01064,-1.34095 0.005,-2.01141 -0.0074,-0.69321 -0.01601,-1.3864 -0.02376,-2.0796 -0.0061,-0.67025 -0.01598,-1.34044 -0.03049,-2.01055 -0.01336,-0.5832 -0.03688,-1.16608 -0.06493,-1.74874 -0.03068,-0.58855 -0.05662,-1.17733 -0.08432,-1.76603 -0.02593,-0.55004 -0.07221,-1.09881 -0.12124,-1.64719 -0.05062,-0.5418 -0.101592,-1.0836 -0.161981,-1.62442 -0.06544,-0.55204 -0.132717,-1.10383 -0.193955,-1.65636 -0.06412,-0.59809 -0.11988,-1.19703 -0.178044,-1.79572 -0.05476,-0.5701 -0.115157,-1.13963 -0.178358,-1.70885 -0.06394,-0.57096 -0.129407,-1.14175 -0.190759,-1.71301 -0.06227,-0.59694 -0.119663,-1.19439 -0.176284,-1.79189 -0.05974,-0.62628 -0.109826,-1.25341 -0.15621,-1.88081 -0.05173,-0.67527 -0.08273,-1.35185 -0.106934,-2.02859 -0.02185,-0.65583 -0.03064,-1.31198 -0.04005,-1.96808 -0.0079,-0.58448 -0.01619,-1.16896 -0.02199,-1.75346 -0.0057,-0.55099 -0.0068,-1.10201 -0.0079,-1.65302 -0.0031,-0.52974 0.0024,-1.05944 0.01064,-1.5891 0.0085,-0.4663 0.02207,-0.9325 0.03451,-1.39871 0.01109,-0.41189 0.02101,-0.82382 0.0305,-1.23575 0.01,-0.38408 0.01992,-0.76817 0.03185,-1.1522 0.0108,-0.36201 0.03223,-0.72354 0.05557,-1.08492 0.01955,-0.30346 0.0394,-0.6069 0.05945,-0.91033 0.01759,-0.26648 0.03458,-0.53301 0.05125,-0.79956 0.01389,-0.22312 0.02769,-0.44624 0.0415,-0.66937 0.01116,-0.17974 0.02212,-0.3595 0.03346,-0.53923 0.0065,-0.10429 0.01402,-0.2085 0.02212,-0.31267 0.382879,-4.84921 7.240702,-4.30774 6.857823,0.54147 v 0 c -0.0056,0.0682 -0.01,0.13649 -0.01447,0.20476 -0.01116,0.17682 -0.02191,0.35367 -0.03292,0.53051 -0.01389,0.22465 -0.02779,0.4493 -0.04178,0.67394 -0.01717,0.27459 -0.03467,0.54916 -0.0528,0.82368 -0.01984,0.3002 -0.03948,0.60041 -0.05881,0.90064 -0.01844,0.28498 -0.0361,0.57005 -0.04458,0.85554 -0.01146,0.36534 -0.02066,0.73076 -0.03033,1.09616 -0.0097,0.42025 -0.01982,0.84049 -0.03112,1.2607 -0.01177,0.44125 -0.02466,0.88247 -0.03292,1.3238 -0.0077,0.48896 -0.01278,0.97794 -0.0098,1.46697 0.0011,0.53293 0.0021,1.06587 0.0076,1.59878 0.0056,0.57427 0.01389,1.14851 0.02162,1.72275 0.0087,0.60749 0.01659,1.21506 0.03642,1.82231 0.0208,0.58924 0.04744,1.17834 0.09259,1.76629 0.04279,0.57999 0.08902,1.15973 0.14423,1.73868 0.05389,0.56902 0.108559,1.13797 0.167653,1.70648 0.06041,0.56305 0.125154,1.12561 0.188071,1.68838 0.06662,0.60045 0.130329,1.20123 0.188117,1.80261 0.05517,0.56804 0.108108,1.13631 0.168494,1.70383 0.061,0.55161 0.129006,1.10237 0.193641,1.65355 0.06535,0.59034 0.122232,1.18157 0.176863,1.77299 0.05736,0.64429 0.110742,1.28909 0.140854,1.93533 0.02756,0.58648 0.05346,1.17304 0.08401,1.75939 0.03076,0.64295 0.05671,1.28616 0.07123,1.92971 0.015,0.69413 0.0254,1.38833 0.03167,2.08259 0.0078,0.69972 0.01651,1.39942 0.02394,2.09914 0.006,0.7306 0.0068,1.46126 -0.0058,2.1918 -0.01278,0.71351 -0.02824,1.42697 -0.04701,2.14035 -0.0173,0.65682 -0.03721,1.31357 -0.05309,1.97041 -0.01225,0.61645 -0.01918,1.233 -0.01794,1.84958 0.0016,0.63959 0.0053,1.27917 0.0085,1.91875 0.0034,0.62927 0.007,1.25855 0.0114,1.88782 0.004,0.54953 0.0084,1.09906 0.01408,1.64857 0.0049,0.48036 0.0093,0.96071 0.01243,1.44108 0.0035,0.42602 0.008,0.85204 0.0094,1.27807 -0.0011,0.39456 -0.0013,0.78915 -0.0084,1.18365 -0.0085,0.36727 -0.02437,0.73425 -0.04852,1.10085 -0.01939,0.30008 -0.04007,0.60009 -0.06477,0.89979 -0.02513,0.29413 -0.05263,0.5881 -0.08939,0.88104 -0.03549,0.27942 -0.07378,0.55859 -0.124278,0.83576 -0.04588,0.24281 -0.09726,0.48449 -0.160337,0.72348 -1.220711,4.70865 -7.879739,2.9823 -6.659028,-1.72634 z"
       inkscape:connector-curvature="0" />
    <path
       style="opacity:1;fill:#020900;fill-opacity:1;stroke:none;stroke-width:1;stroke-linecap:butt;stroke-linejoin:round;stroke-miterlimit:4;stroke-dasharray:none;stroke-opacity:1"
       id="path1223"
       d="m 82.07545,252.36765 c -0.121549,0.005 -0.243025,0.0129 -0.364201,0.024 -0.208915,0.0168 -0.416182,0.0487 -0.623486,0.0787 -0.417766,0.0632 -0.83729,0.11327 -1.257329,0.15853 -0.534241,0.0563 -1.069856,0.0977 -1.606042,0.12992 -0.649771,0.0372 -1.300601,0.0472 -1.951283,0.0511 -0.679413,0.001 -1.358781,-0.008 -2.038104,-0.0186 -0.66856,-0.0104 -1.337136,-0.0199 -2.005719,-0.0288 -0.654545,-0.009 -1.309103,-0.0163 -1.963664,-0.0234 -0.628554,-0.007 -1.257114,-0.0129 -1.885677,-0.0187 -0.583012,-0.005 -1.166032,-0.0102 -1.749049,-0.0149 -0.540557,-0.004 -1.081117,-0.008 -1.62169,-0.0104 -0.521657,-0.002 -1.043299,0.003 -1.564931,0.008 -0.554696,0.007 -1.109384,0.0155 -1.66406,0.0243 -0.582345,0.01 -1.164627,0.0219 -1.746752,0.0405 -0.616514,0.0212 -1.232689,0.0502 -1.848538,0.0855 -0.662228,0.0398 -1.324195,0.0839 -1.986137,0.12817 -0.672666,0.0441 -1.345113,0.0913 -2.017326,0.1418 -0.7179,0.056 -1.436135,0.10731 -2.154545,0.15619 -0.778414,0.0542 -1.557374,0.0999 -2.336511,0.14222 -0.812914,0.0436 -1.626182,0.0801 -2.439522,0.11472 -0.801767,0.0318 -1.60351,0.064 -2.405068,0.1008 -0.805206,0.0384 -1.610254,0.0799 -2.415468,0.11809 -0.800275,0.0345 -1.600039,0.0793 -2.399684,0.12584 -0.825696,0.0494 -1.65119,0.10206 -2.476989,0.1498 -0.85085,0.0486 -1.702049,0.0908 -2.553409,0.12923 -0.836613,0.0368 -1.673792,0.0578 -2.511031,0.0734 -0.74031,0.0127 -1.480661,0.0226 -2.221013,0.0324 -0.634572,0.008 -1.269146,0.0164 -1.90372,0.0244 -0.523004,0.007 -1.046009,0.0131 -1.569016,0.0194 -0.438362,0.005 -0.876728,0.0105 -1.315096,0.0155 -0.390316,0.004 -0.780636,0.009 -1.170959,0.0124 -0.386667,0.003 -0.773318,-0.003 -1.159935,-0.008 -0.324585,-0.005 -0.64917,-0.009 -0.973726,-0.0152 -0.274401,-0.005 -0.548724,-0.0137 -0.823047,-0.0219 -0.210741,-0.006 -0.421484,-0.0127 -0.632227,-0.019 -0.16895,-0.005 -0.337899,-0.0101 -0.506849,-0.0152 -0.134702,-0.004 -0.269405,-0.008 -0.404107,-0.0121 -0.107362,-0.003 -0.214723,-0.006 -0.322085,-0.01 -0.08766,-0.003 -0.175317,-0.005 -0.262977,-0.008 -0.07202,-0.002 -0.144048,-0.004 -0.216072,-0.006 -0.04765,-0.001 -0.02282,-5.3e-4 -0.07447,-0.002 -4.861531,-0.16427 -4.62922,-7.03951 0.232311,-6.87524 v 0 c 0.01232,2.6e-4 0.02463,0.001 0.03696,0.001 0.07211,0.002 0.144216,0.004 0.216324,0.006 0.09127,0.003 0.182537,0.005 0.273802,0.008 0.107362,0.003 0.214724,0.006 0.322086,0.01 0.134703,0.004 0.269406,0.008 0.40411,0.0121 0.168995,0.005 0.337991,0.0101 0.506986,0.0152 0.210533,0.006 0.421065,0.0126 0.631596,0.019 0.250536,0.007 0.501069,0.0154 0.751676,0.0201 0.312209,0.006 0.624449,0.0102 0.936686,0.0146 0.331765,0.005 0.663558,0.0104 0.995368,0.008 0.386618,-0.004 0.773234,-0.008 1.159846,-0.0123 0.436717,-0.005 0.873432,-0.0101 1.310146,-0.0154 0.521954,-0.006 1.043905,-0.0128 1.565857,-0.0194 0.632994,-0.008 1.265989,-0.016 1.898978,-0.0243 0.728138,-0.01 1.45628,-0.0194 2.184381,-0.0318 0.776542,-0.0144 1.553033,-0.0336 2.329,-0.0676 0.822442,-0.0371 1.644719,-0.0779 2.466666,-0.12476 0.824769,-0.0477 1.649222,-0.10037 2.473896,-0.14963 0.82428,-0.048 1.648688,-0.0941 2.473613,-0.12975 0.80889,-0.0384 1.617607,-0.0802 2.426494,-0.1186 0.809231,-0.0371 1.618644,-0.0698 2.428092,-0.10181 0.786326,-0.0334 1.57258,-0.0687 2.358498,-0.1108 0.747845,-0.0406 1.495518,-0.0844 2.242667,-0.13648 0.702291,-0.0478 1.404408,-0.098 2.106197,-0.15273 0.691026,-0.0519 1.382281,-0.10045 2.073767,-0.14581 0.683832,-0.0457 1.367684,-0.0913 2.05182,-0.13224 0.67378,-0.0385 1.347907,-0.0704 2.022411,-0.0933 0.618673,-0.0197 1.237496,-0.0332 1.856402,-0.0432 0.57118,-0.009 1.142375,-0.0175 1.713579,-0.0249 0.550095,-0.005 1.100206,-0.01 1.650331,-0.008 0.550576,0.002 1.10114,0.006 1.651701,0.0106 0.585864,0.005 1.171723,0.01 1.757582,0.015 0.632375,0.006 1.26475,0.012 1.897118,0.0188 0.660051,0.007 1.320099,0.0148 1.980131,0.0236 0.67211,0.009 1.344213,0.0185 2.0163,0.0289 0.632129,0.009 1.264292,0.0183 1.896506,0.0179 0.528352,-0.003 1.056847,-0.01 1.584508,-0.0392 0.426815,-0.0247 0.853046,-0.0587 1.278332,-0.10268 0.336454,-0.0359 0.672443,-0.076 1.006985,-0.12702 0.340985,-0.0492 0.682329,-0.0974 1.025917,-0.1248 0.242578,-0.02 0.485441,-0.0369 0.728747,-0.0452 4.86188,-0.15354 5.079018,6.7222 0.217138,6.87574 z"
       inkscape:connector-curvature="0" />
  </g>
</svg>
