<?xml version="1.0" encoding="UTF-8" standalone="no"?>
<!-- Created with Inkscape (http://www.inkscape.org/) -->

<svg
   xmlns:dc="http://purl.org/dc/elements/1.1/"
   xmlns:cc="http://creativecommons.org/ns#"
   xmlns:rdf="http://www.w3.org/1999/02/22-rdf-syntax-ns#"
   xmlns:svg="http://www.w3.org/2000/svg"
   xmlns="http://www.w3.org/2000/svg"
   xmlns:sodipodi="http://sodipodi.sourceforge.net/DTD/sodipodi-0.dtd"
   xmlns:inkscape="http://www.inkscape.org/namespaces/inkscape"
   width="10cm"
   height="10cm"
   viewBox="0 0 100 99.999997"
   version="1.1"
   id="svg8"
   sodipodi:docname="mama.svg"
   inkscape:version="0.92.3 (2405546, 2018-03-11)">
  <defs
     id="defs2" />
  <sodipodi:namedview
     id="base"
     pagecolor="#ffffff"
     bordercolor="#666666"
     borderopacity="1.0"
     inkscape:pageopacity="0.0"
     inkscape:pageshadow="2"
     inkscape:zoom="1"
     inkscape:cx="175.50186"
     inkscape:cy="160.37856"
     inkscape:document-units="cm"
     inkscape:current-layer="layer1"
     showgrid="true"
     units="cm"
     inkscape:window-width="882"
     inkscape:window-height="707"
     inkscape:window-x="784"
     inkscape:window-y="204"
     inkscape:window-maximized="0"
     inkscape:snap-nodes="false">
    <inkscape:grid
       type="xygrid"
       id="grid815"
       units="cm"
       spacingx="9.9999998"
       spacingy="9.9999998" />
  </sodipodi:namedview>
  <metadata
     id="metadata5">
    <rdf:RDF>
      <cc:Work
         rdf:about="">
        <dc:format>image/svg+xml</dc:format>
        <dc:type
           rdf:resource="http://purl.org/dc/dcmitype/StillImage" />
        <dc:title></dc:title>
      </cc:Work>
    </rdf:RDF>
  </metadata>
  <g
     inkscape:label="Layer 1"
     inkscape:groupmode="layer"
     id="layer1"
     transform="translate(0,-197.00002)">
    <path
       style="opacity:1;fill:#020900;fill-opacity:1;stroke:none;stroke-width:1;stroke-linecap:butt;stroke-linejoin:round;stroke-miterlimit:4;stroke-dasharray:none;stroke-opacity:1"
       id="path1715"
       d="m 45.016247,209.98826 c -0.130212,0 -0.260424,0 -0.390633,0 -0.244292,-6.4e-4 -0.48849,-0.008 -0.732705,-0.0137 -0.276471,-0.007 -0.552903,-0.0115 -0.829339,-0.002 -0.377434,0.0142 -0.752804,0.0588 -1.127787,0.10173 -0.562144,0.0652 -1.124548,0.12747 -1.685393,0.20323 -0.57495,0.0738 -1.140452,0.19727 -1.701358,0.34105 -0.710724,0.18791 -1.407742,0.4224 -2.101855,0.6634 -0.810435,0.27795 -1.606228,0.59505 -2.395617,0.92741 -0.852985,0.3573 -1.684788,0.76086 -2.503157,1.19082 -0.894263,0.47407 -1.755222,1.00656 -2.603542,1.55763 -0.90981,0.59318 -1.782644,1.23962 -2.633621,1.91375 -0.881571,0.69612 -1.685841,1.48015 -2.46264,2.28937 -0.821074,0.85734 -1.550673,1.7933 -2.235998,2.76071 -0.713376,1.02015 -1.317552,2.10913 -1.890007,3.21267 -0.577508,1.11005 -1.054119,2.2662 -1.466917,3.44617 -0.403687,1.17743 -0.65449,2.39694 -0.855072,3.62285 -0.207976,1.30271 -0.258277,2.62105 -0.258716,3.93787 0.0036,1.37363 0.153438,2.73849 0.372275,4.09261 0.226331,1.37601 0.628955,2.71086 1.08833,4.0244 0.483979,1.35586 1.103352,2.65577 1.773992,3.92761 0.655817,1.24244 1.459873,2.39298 2.32436,3.49692 0.911588,1.14566 1.934623,2.19377 2.982068,3.21403 1.081377,1.04677 2.226091,2.02382 3.39683,2.96841 1.161365,0.93366 2.388756,1.77888 3.634264,2.59504 1.230614,0.80524 2.511769,1.52758 3.813667,2.20992 1.24373,0.65906 2.541389,1.19996 3.868502,1.66448 1.331349,0.45605 2.709534,0.7427 4.093977,0.97955 1.455944,0.24128 2.928866,0.33563 4.402423,0.37054 1.453047,0.0356 2.898805,-0.10709 4.334894,-0.31233 1.497523,-0.22904 2.974507,-0.56888 4.439274,-0.95161 1.389865,-0.36697 2.746547,-0.84239 4.079481,-1.37779 1.204738,-0.49085 2.35272,-1.10277 3.46824,-1.7688 1.034489,-0.62675 1.999303,-1.35746 2.942794,-2.11179 0.845521,-0.67278 1.626775,-1.41882 2.372479,-2.19929 0.690391,-0.72283 1.291225,-1.52116 1.856825,-2.34318 0.563898,-0.82295 1.037346,-1.70053 1.469702,-2.59801 0.427104,-0.8898 0.746686,-1.82348 1.030928,-2.76684 0.306657,-1.03086 0.512662,-2.08666 0.685152,-3.14698 0.179972,-1.13244 0.261228,-2.27646 0.309983,-3.42101 0.04586,-1.1861 0.01027,-2.37277 -0.05948,-3.55702 -0.07762,-1.20895 -0.23269,-2.4108 -0.41299,-3.60814 -0.185823,-1.20867 -0.445207,-2.40381 -0.73651,-3.5909 -0.2705,-1.09026 -0.625235,-2.1562 -1.009333,-3.21089 -0.342249,-0.94832 -0.756732,-1.86689 -1.21194,-2.76562 -0.41816,-0.8236 -0.924435,-1.59593 -1.455795,-2.34969 -0.557025,-0.77296 -1.156912,-1.51357 -1.773947,-2.23907 -0.543581,-0.64318 -1.140309,-1.2371 -1.760921,-1.80516 -0.577892,-0.52483 -1.195306,-1.00261 -1.822995,-1.46569 -0.597638,-0.43907 -1.220441,-0.84182 -1.851554,-1.23062 -0.605412,-0.36727 -1.224286,-0.71143 -1.852242,-1.03843 -0.597792,-0.30705 -1.21258,-0.57885 -1.831893,-0.83907 -0.606097,-0.251 -1.221478,-0.47856 -1.838563,-0.70084 -0.562126,-0.20171 -1.129999,-0.38675 -1.699657,-0.56587 -0.512083,-0.16097 -1.028073,-0.30893 -1.545781,-0.45059 -0.473694,-0.12836 -0.950161,-0.24608 -1.427514,-0.35996 -0.43294,-0.10277 -0.867201,-0.19986 -1.301853,-0.2951 -0.370465,-0.0816 -0.741852,-0.15889 -1.113938,-0.23274 -0.327057,-0.0651 -0.655365,-0.12363 -0.984078,-0.17972 -0.3057,-0.0519 -0.611886,-0.10094 -0.918242,-0.14885 -0.264898,-0.0416 -0.530408,-0.079 -0.796057,-0.11539 -0.242142,-0.0331 -0.484503,-0.0645 -0.726901,-0.0957 -0.203303,-0.0263 -0.406929,-0.05 -0.610629,-0.073 -0.182978,-0.0207 -0.366141,-0.0396 -0.549447,-0.0572 -0.209473,-0.0184 -0.418573,-0.0405 -0.627674,-0.0627 -0.192121,-0.0195 -0.38419,-0.0395 -0.576273,-0.0594 -0.08511,-0.008 -0.169952,-0.0188 -0.255111,-0.0261 -0.09182,-0.008 0.1842,0.0175 0.276204,0.0122 0.177631,-0.0102 0.353899,-0.0372 0.530847,-0.0558 -4.75901,1.00661 -6.182582,-5.72364 -1.423572,-6.73026 v 0 c 0.530106,-0.069 1.050692,-0.13005 1.581285,-0.0425 0.197016,0.0204 0.394025,0.0409 0.591079,0.061 0.186904,0.0198 0.37379,0.0397 0.561049,0.0559 0.22157,0.0213 0.442994,0.0442 0.664178,0.0692 0.23844,0.027 0.476784,0.0548 0.714766,0.0856 0.261607,0.0336 0.523166,0.0676 0.784493,0.10333 0.308631,0.0423 0.617082,0.086 0.924848,0.13429 0.338119,0.0529 0.67605,0.10703 1.013444,0.16442 0.389499,0.0666 0.778505,0.13611 1.166059,0.21333 0.416308,0.0828 0.831895,0.16907 1.246412,0.26041 0.47629,0.10442 0.95214,0.21091 1.426538,0.32365 0.550979,0.13162 1.100913,0.26778 1.6476,0.41636 0.600602,0.16468 1.199261,0.33647 1.793362,0.52342 0.659408,0.20768 1.316699,0.42231 1.967346,0.6562 0.730406,0.26345 1.458513,0.53389 2.175463,0.83239 0.793601,0.33475 1.581001,0.68517 2.346295,1.08117 0.772973,0.40447 1.536145,0.82755 2.280918,1.2822 0.793588,0.49043 1.576371,0.9989 2.327645,1.55266 0.823854,0.60982 1.632291,1.24136 2.3896,1.93324 0.826823,0.76237 1.623735,1.55715 2.349619,2.41755 0.751589,0.88657 1.483003,1.79097 2.158963,2.73707 0.72031,1.02822 1.402673,2.08399 1.969011,3.20643 0.574641,1.14338 1.101802,2.31003 1.535583,3.51498 0.466995,1.28904 0.897329,2.59198 1.225415,3.92423 0.339241,1.3903 0.641888,2.78982 0.857473,4.20527 0.209825,1.40381 0.389488,2.81293 0.477549,4.23033 0.08107,1.41684 0.122192,2.83647 0.06446,4.25531 -0.06312,1.41709 -0.167833,2.83331 -0.394245,4.23496 -0.224518,1.35862 -0.493684,2.71092 -0.890937,4.03107 -0.392501,1.28587 -0.836485,2.5571 -1.423225,3.76924 -0.590307,1.21236 -1.234895,2.39842 -2.001743,3.50989 -0.777605,1.12051 -1.604555,2.20748 -2.550744,3.19293 -0.959485,0.99721 -1.961523,1.95325 -3.046521,2.8145 -1.191022,0.94861 -2.411632,1.8633 -3.718706,2.64811 -1.42512,0.84385 -2.889723,1.62174 -4.427744,2.24222 -1.602089,0.63868 -3.230784,1.21027 -4.900519,1.64773 -1.719504,0.44659 -3.453215,0.84319 -5.211464,1.10614 -1.812253,0.25333 -3.636655,0.42576 -5.469257,0.37771 -1.807663,-0.0475 -3.614405,-0.16723 -5.399726,-0.46861 -1.763236,-0.30649 -3.516891,-0.682 -5.210648,-1.2705 -1.637887,-0.58035 -3.243239,-1.24611 -4.779772,-2.06183 -1.49797,-0.78776 -2.972837,-1.62006 -4.388988,-2.54858 -1.434298,-0.94181 -2.846706,-1.91846 -4.183765,-2.99572 -1.336435,-1.08072 -2.643594,-2.19799 -3.877679,-3.39548 -1.268829,-1.23937 -2.504159,-2.51607 -3.60466,-3.90991 -1.11038,-1.43035 -2.144816,-2.91923 -2.98792,-4.52569 -0.825986,-1.57671 -1.588804,-3.18781 -2.181978,-4.8685 -0.587215,-1.69742 -1.097583,-3.42301 -1.383893,-5.19989 -0.270991,-1.71755 -0.458589,-3.44813 -0.458077,-5.18947 0.0056,-1.68891 0.0787,-3.37926 0.351291,-5.04905 0.271157,-1.61995 0.612156,-3.23021 1.153551,-4.78437 0.525338,-1.48261 1.122912,-2.93846 1.851991,-4.33407 0.721725,-1.38463 1.487012,-2.74859 2.387836,-4.02647 0.885956,-1.24109 1.826549,-2.44335 2.885258,-3.54355 0.994718,-1.03096 2.025976,-2.02795 3.152943,-2.91543 1.02062,-0.80518 2.065488,-1.57969 3.156043,-2.28838 1.027548,-0.66553 2.070716,-1.30796 3.154134,-1.87948 0.991143,-0.51817 1.9972,-1.00718 3.029466,-1.4388 0.925603,-0.38873 1.858696,-0.75966 2.808542,-1.08561 0.8792,-0.30444 1.762956,-0.5979 2.664013,-0.83181 0.816453,-0.20558 1.639657,-0.38277 2.475412,-0.49076 0.606695,-0.0813 1.214774,-0.15052 1.822884,-0.22032 0.566611,-0.0645 1.134224,-0.12578 1.704642,-0.14306 0.39525,-0.0107 0.790474,-0.011 1.185735,8.2e-4 0.193035,0.004 0.386056,0.0102 0.579136,0.012 0.130209,0 0.260421,0 0.390633,0 4.864304,0 4.864304,6.87917 0,6.87917 z"
       inkscape:connector-curvature="0" />
    <path
       style="opacity:1;fill:#020900;fill-opacity:1;stroke:none;stroke-width:1;stroke-linecap:butt;stroke-linejoin:round;stroke-miterlimit:4;stroke-dasharray:none;stroke-opacity:1"
       id="path1717"
       d="m 50.534188,275.85257 c -0.169878,0.055 -0.341563,0.10418 -0.513458,0.15243 -0.195117,0.0513 -0.386339,0.11538 -0.576225,0.18321 -0.272855,0.10025 -0.532697,0.23144 -0.791406,0.36302 -0.403098,0.20411 -0.794613,0.42974 -1.176531,0.67091 -0.398769,0.25001 -0.768297,0.5413 -1.121868,0.85094 -0.350112,0.30892 -0.652327,0.66437 -0.93754,1.0325 -0.283356,0.37016 -0.529622,0.76545 -0.735648,1.18323 -0.149656,0.30355 -0.222601,0.63156 -0.276021,0.96317 -0.06446,0.44753 -0.06782,0.89978 -0.05159,1.35061 0.02125,0.46762 0.09122,0.93008 0.203634,1.38398 0.104566,0.38539 0.244083,0.76081 0.435036,1.11175 0.116022,0.2168 0.28812,0.38157 0.486436,0.52166 0.381942,0.24517 0.807834,0.40708 1.233376,0.55827 0.567151,0.19988 1.160868,0.27814 1.757858,0.31374 0.677685,0.03 1.352886,-0.0392 2.020379,-0.15013 0.611913,-0.10363 1.186209,-0.33211 1.746173,-0.5913 0.604166,-0.28198 1.155041,-0.65624 1.686793,-1.05479 0.55132,-0.42132 1.064644,-0.8886 1.557708,-1.37596 0.382328,-0.37736 0.719796,-0.79444 1.017127,-1.241 0.188325,-0.2834 0.321109,-0.59469 0.423468,-0.91765 0.08191,-0.2765 0.115322,-0.56289 0.131086,-0.84981 0.01021,-0.30324 -0.02535,-0.60472 -0.07622,-0.903 -0.04428,-0.25847 -0.138192,-0.50218 -0.247656,-0.73899 -0.144753,-0.30211 -0.329813,-0.58175 -0.522139,-0.85511 -0.22058,-0.30662 -0.469582,-0.59098 -0.735274,-0.85895 -0.256961,-0.255 -0.545479,-0.47406 -0.840219,-0.68291 -0.317598,-0.22409 -0.655196,-0.41613 -1.000273,-0.59396 -0.268796,-0.1382 -0.550331,-0.2475 -0.840182,-0.33197 -0.225978,-0.0636 -0.459094,-0.0919 -0.692142,-0.11357 -0.196895,-0.0139 -0.394851,-0.0203 -0.590701,0.008 -0.234106,0.0374 -0.464703,0.0937 -0.694417,0.15167 -0.26634,0.0658 -0.52918,0.14433 -0.788361,0.23408 -0.250317,0.0876 -0.49553,0.18871 -0.740071,0.29108 -0.09571,0.0386 -0.189434,0.0816 -0.282202,0.12672 -4.397819,2.07862 -7.337425,-4.14084 -2.939605,-6.21945 v 0 c 0.188129,-0.0881 0.376451,-0.17578 0.568846,-0.2543 0.386651,-0.16143 0.775335,-0.31846 1.171718,-0.45471 0.4431,-0.15007 0.890667,-0.28665 1.345184,-0.39818 0.56207,-0.13921 1.128665,-0.2657 1.705644,-0.32499 0.649433,-0.0564 1.301414,-0.0705 1.951014,-0.002 0.68182,0.0733 1.360514,0.18178 2.017461,0.38421 0.682747,0.21536 1.352497,0.47023 1.987396,0.8038 0.63222,0.33158 1.25067,0.68953 1.831856,1.10553 0.620647,0.44841 1.222388,0.92457 1.758548,1.47337 0.52623,0.54518 1.025993,1.11628 1.459923,1.73882 0.444506,0.64626 0.860999,1.31344 1.177806,2.03317 0.331084,0.77772 0.605745,1.57873 0.734571,2.41748 0.123179,0.81761 0.197805,1.6433 0.140033,2.47074 -0.07009,0.87288 -0.201626,1.74087 -0.483769,2.57342 -0.31596,0.89999 -0.70579,1.77168 -1.246593,2.56198 -0.559019,0.81156 -1.172845,1.58337 -1.879459,2.27299 -0.722355,0.70742 -1.472729,1.38702 -2.281727,1.99515 -0.928415,0.68432 -1.895428,1.31744 -2.948202,1.79669 -1.124066,0.50268 -2.283309,0.92488 -3.505097,1.11852 -1.187352,0.1834 -2.387007,0.29415 -3.58957,0.21758 -1.236909,-0.0958 -2.464821,-0.28725 -3.635095,-0.71674 -1.167275,-0.43488 -2.308849,-0.95138 -3.282981,-1.74391 -0.885373,-0.76519 -1.672728,-1.62454 -2.20227,-2.68029 -0.422627,-0.85095 -0.779807,-1.73237 -0.999628,-2.65952 -0.20625,-0.90482 -0.352888,-1.82203 -0.381502,-2.75148 -0.02344,-0.92985 2.64e-4,-1.86225 0.159824,-2.78111 0.187264,-0.98813 0.455072,-1.9591 0.91659,-2.85855 0.418516,-0.80855 0.889659,-1.58817 1.453079,-2.30546 0.561964,-0.71034 1.160716,-1.3922 1.847212,-1.9863 0.623274,-0.53552 1.270916,-1.04288 1.969712,-1.47751 0.56206,-0.35051 1.134819,-0.68377 1.726885,-0.98149 0.522838,-0.26308 1.052005,-0.51567 1.604865,-0.71031 0.335116,-0.11748 0.672147,-0.22976 1.015296,-0.32178 0.102042,-0.0281 0.203755,-0.0575 0.304353,-0.0905 4.64136,-1.45576 6.700115,5.10812 2.058754,6.56387 z"
       inkscape:connector-curvature="0" />
  </g>
</svg>
