<svg viewBox="0 0 100 100"><path style="opacity:1;fill:#020900;fill-opacity:1;stroke:none;stroke-width:1;stroke-linecap:butt;stroke-linejoin:round;stroke-miterlimit:4;stroke-dasharray:none;stroke-opacity:1" d="M45.016 209.988h-.39c-.245 0-.489-.008-.733-.013a14 14 0 0 0-.83-.002c-.377.014-.752.058-1.127.101-.562.065-1.125.128-1.686.204-.575.073-1.14.197-1.701.34a29 29 0 0 0-2.102.664c-.81.278-1.606.595-2.395.927-.853.358-1.685.761-2.504 1.191a35.3 35.3 0 0 0-5.237 3.471c-.881.697-1.686 1.48-2.462 2.29-.821.857-1.551 1.793-2.236 2.76-.714 1.02-1.318 2.11-1.89 3.213a26 26 0 0 0-1.467 3.446c-.404 1.178-.655 2.397-.855 3.623-.208 1.303-.259 2.621-.26 3.938.004 1.374.154 2.739.373 4.093.226 1.376.63 2.71 1.088 4.024.484 1.356 1.104 2.656 1.774 3.928.656 1.242 1.46 2.393 2.325 3.497.911 1.145 1.934 2.194 2.982 3.214a50 50 0 0 0 3.397 2.968c1.161.934 2.389 1.78 3.634 2.595a46 46 0 0 0 3.814 2.21 28 28 0 0 0 3.868 1.665c1.332.456 2.71.742 4.094.98 1.456.24 2.929.335 4.403.37 1.453.035 2.898-.107 4.334-.313 1.498-.229 2.975-.568 4.44-.951a35 35 0 0 0 4.08-1.378c1.204-.49 2.352-1.103 3.467-1.769 1.035-.627 2-1.357 2.943-2.112a24 24 0 0 0 2.373-2.199c.69-.723 1.291-1.521 1.857-2.343.563-.823 1.037-1.7 1.47-2.598.426-.89.746-1.824 1.03-2.767.307-1.03.513-2.087.685-3.147.18-1.132.262-2.276.31-3.42.046-1.187.01-2.374-.06-3.558a43 43 0 0 0-.412-3.608 42 42 0 0 0-.737-3.591c-.27-1.09-.625-2.156-1.009-3.21a25 25 0 0 0-1.212-2.766c-.418-.824-.924-1.596-1.456-2.35a36 36 0 0 0-1.774-2.24 20 20 0 0 0-1.76-1.804 23 23 0 0 0-1.824-1.466 27 27 0 0 0-1.851-1.23 33 33 0 0 0-1.852-1.04 26 26 0 0 0-1.832-.838 45 45 0 0 0-5.084-1.717q-.711-.192-1.428-.36a77 77 0 0 0-2.416-.528 36 36 0 0 0-.984-.18q-.458-.078-.918-.149-.397-.061-.796-.115l-.727-.096a38 38 0 0 0-1.16-.13q-.315-.029-.628-.063l-.576-.06-.255-.025c-.092-.008.184.017.276.012.178-.01.354-.037.531-.056-4.759 1.007-6.183-5.724-1.424-6.73.53-.07 1.051-.13 1.582-.043l.59.061q.282.031.562.056a40 40 0 0 1 1.379.155l.784.103q.463.063.925.135.507.079 1.014.164.584.099 1.166.213.624.125 1.246.26.714.157 1.427.324a50 50 0 0 1 3.441.94 52 52 0 0 1 4.142 1.489c.794.335 1.581.685 2.347 1.081a40 40 0 0 1 2.28 1.282c.794.49 1.577 1 2.328 1.553.824.61 1.633 1.241 2.39 1.933a27 27 0 0 1 2.35 2.418 42 42 0 0 1 2.158 2.737c.72 1.028 1.403 2.084 1.97 3.206a32 32 0 0 1 1.535 3.515c.467 1.29.897 2.592 1.225 3.924.34 1.39.642 2.79.858 4.206.21 1.403.39 2.813.477 4.23.082 1.417.123 2.836.065 4.255-.063 1.417-.168 2.834-.394 4.235-.225 1.359-.494 2.711-.891 4.031-.393 1.286-.837 2.557-1.423 3.77-.59 1.212-1.235 2.398-2.002 3.51-.778 1.12-1.605 2.207-2.55 3.192-.96.998-1.962 1.954-3.047 2.815-1.191.948-2.412 1.863-3.72 2.648-1.424.844-2.889 1.622-4.427 2.242-1.602.639-3.23 1.21-4.9 1.648-1.72.446-3.454.843-5.212 1.106-1.812.253-3.637.426-5.47.378-1.807-.048-3.614-.168-5.399-.469-1.763-.306-3.517-.682-5.21-1.27-1.638-.58-3.244-1.247-4.78-2.062-1.498-.788-2.973-1.62-4.39-2.549-1.434-.942-2.846-1.918-4.183-2.996-1.336-1.08-2.644-2.198-3.878-3.395-1.269-1.24-2.504-2.516-3.604-3.91-1.11-1.43-2.145-2.92-2.988-4.526-.826-1.576-1.59-3.187-2.182-4.868-.588-1.698-1.098-3.423-1.384-5.2-.271-1.718-.459-3.448-.458-5.19.005-1.688.078-3.379.351-5.049.271-1.62.612-3.23 1.154-4.784.525-1.482 1.122-2.938 1.852-4.334.721-1.385 1.487-2.749 2.387-4.026.886-1.242 1.827-2.444 2.886-3.544.994-1.03 2.026-2.028 3.153-2.915a43 43 0 0 1 3.156-2.289c1.027-.665 2.07-1.308 3.154-1.88a39 39 0 0 1 3.03-1.438 45 45 0 0 1 2.808-1.086 35 35 0 0 1 2.664-.831c.816-.206 1.64-.383 2.475-.491.607-.082 1.215-.15 1.823-.22a21 21 0 0 1 1.705-.144q.593-.015 1.185.001l.58.012h.39c4.865 0 4.865 6.88 0 6.88z" transform="translate(0 -197)"/><path style="opacity:1;fill:#020900;fill-opacity:1;stroke:none;stroke-width:1;stroke-linecap:butt;stroke-linejoin:round;stroke-miterlimit:4;stroke-dasharray:none;stroke-opacity:1" d="M50.534 275.853q-.255.081-.513.152a7 7 0 0 0-.576.183c-.273.1-.533.232-.792.363q-.605.308-1.176.671c-.4.25-.769.541-1.122.851-.35.309-.653.664-.938 1.033q-.426.555-.735 1.183c-.15.303-.223.631-.277.963-.064.448-.067.9-.051 1.35q.033.702.204 1.385c.104.385.244.76.435 1.111.116.217.288.382.486.522.382.245.808.407 1.233.558.568.2 1.161.278 1.758.314.678.03 1.353-.04 2.02-.15.613-.104 1.187-.332 1.747-.591.604-.282 1.155-.657 1.687-1.055a16 16 0 0 0 1.557-1.376 8 8 0 0 0 1.017-1.241c.189-.284.322-.595.424-.918.082-.276.115-.563.131-.85a4.5 4.5 0 0 0-.076-.903 3 3 0 0 0-.248-.739 6 6 0 0 0-.522-.855 7 7 0 0 0-.735-.859 6.6 6.6 0 0 0-.84-.683 8 8 0 0 0-1-.594 4.7 4.7 0 0 0-.841-.332 4 4 0 0 0-.692-.113 2.8 2.8 0 0 0-.59.008 8 8 0 0 0-.695.152q-.4.098-.789.234a13 13 0 0 0-1.022.417c-4.398 2.08-7.337-4.14-2.94-6.219.189-.088.377-.176.57-.254a20 20 0 0 1 1.171-.455c.443-.15.89-.287 1.345-.398a12 12 0 0 1 1.706-.325c.65-.057 1.301-.07 1.95-.002.683.073 1.361.182 2.018.384.683.215 1.353.47 1.988.804.632.331 1.25.69 1.832 1.105.62.449 1.222.925 1.758 1.474a14 14 0 0 1 1.46 1.739c.445.646.861 1.313 1.178 2.033.331.777.606 1.578.734 2.417.124.818.198 1.643.14 2.47-.07.874-.201 1.742-.483 2.574-.316.9-.706 1.772-1.247 2.562-.559.812-1.173 1.584-1.88 2.273a23 23 0 0 1-2.281 1.995c-.928.685-1.895 1.318-2.948 1.797-1.124.503-2.284.925-3.505 1.119-1.188.183-2.387.294-3.59.217-1.237-.096-2.465-.287-3.635-.716-1.167-.435-2.309-.952-3.283-1.744-.885-.766-1.673-1.625-2.202-2.68-.423-.852-.78-1.733-1-2.66-.206-.905-.353-1.822-.381-2.752-.024-.93 0-1.862.16-2.78.187-.989.455-1.96.916-2.86a14.6 14.6 0 0 1 1.453-2.305c.562-.71 1.16-1.392 1.847-1.986a16 16 0 0 1 1.97-1.478 22 22 0 0 1 1.727-.981 14 14 0 0 1 1.605-.71 14 14 0 0 1 1.015-.322 7 7 0 0 0 .304-.09c4.642-1.456 6.7 5.107 2.06 6.563z" transform="translate(0 -197)"/></svg>