<?xml version="1.0" encoding="UTF-8" standalone="no"?>
<!-- Created with Inkscape (http://www.inkscape.org/) -->

<svg
   xmlns:dc="http://purl.org/dc/elements/1.1/"
   xmlns:cc="http://creativecommons.org/ns#"
   xmlns:rdf="http://www.w3.org/1999/02/22-rdf-syntax-ns#"
   xmlns:svg="http://www.w3.org/2000/svg"
   xmlns="http://www.w3.org/2000/svg"
   xmlns:sodipodi="http://sodipodi.sourceforge.net/DTD/sodipodi-0.dtd"
   xmlns:inkscape="http://www.inkscape.org/namespaces/inkscape"
   width="10cm"
   height="10cm"
   viewBox="0 0 100 99.999997"
   version="1.1"
   id="svg8"
   sodipodi:docname="mani.svg"
   inkscape:version="0.92.3 (2405546, 2018-03-11)">
  <defs
     id="defs2" />
  <sodipodi:namedview
     id="base"
     pagecolor="#ffffff"
     bordercolor="#666666"
     borderopacity="1.0"
     inkscape:pageopacity="0.0"
     inkscape:pageshadow="2"
     inkscape:zoom="1"
     inkscape:cx="125.50186"
     inkscape:cy="200.50542"
     inkscape:document-units="cm"
     inkscape:current-layer="layer1"
     showgrid="true"
     units="cm"
     inkscape:window-width="1920"
     inkscape:window-height="1017"
     inkscape:window-x="-8"
     inkscape:window-y="-8"
     inkscape:window-maximized="1"
     inkscape:snap-nodes="false">
    <inkscape:grid
       type="xygrid"
       id="grid815"
       units="cm"
       spacingx="9.9999998"
       spacingy="9.9999998" />
  </sodipodi:namedview>
  <metadata
     id="metadata5">
    <rdf:RDF>
      <cc:Work
         rdf:about="">
        <dc:format>image/svg+xml</dc:format>
        <dc:type
           rdf:resource="http://purl.org/dc/dcmitype/StillImage" />
        <dc:title></dc:title>
      </cc:Work>
    </rdf:RDF>
  </metadata>
  <g
     inkscape:label="Layer 1"
     inkscape:groupmode="layer"
     id="layer1"
     transform="translate(0,-197.00002)">
    <path
       style="opacity:1;fill:#020900;fill-opacity:1;stroke:none;stroke-width:1;stroke-linecap:butt;stroke-linejoin:round;stroke-miterlimit:4;stroke-dasharray:none;stroke-opacity:1"
       id="path1229"
       d="m 53.766091,233.4204 c 0.201899,0.0699 0.157697,0.0567 -0.02183,0.0316 -0.330472,-0.0437 -0.662911,-0.0697 -0.995214,-0.0947 -0.497263,-0.0414 -0.996167,-0.0469 -1.49478,-0.0407 -0.639175,0.01 -1.275841,0.067 -1.910365,0.14072 -0.756373,0.0905 -1.504201,0.23607 -2.247929,0.39848 -0.809845,0.18109 -1.608431,0.40651 -2.396247,0.66641 -0.75811,0.25134 -1.477166,0.59843 -2.178693,0.97667 -0.743101,0.40536 -1.438325,0.88842 -2.109356,1.40243 -0.672055,0.51886 -1.27462,1.11682 -1.852914,1.73619 -0.624753,0.6803 -1.182746,1.41699 -1.721337,2.16612 -0.57232,0.79958 -1.083477,1.63957 -1.567315,2.49481 -0.468834,0.82612 -0.857289,1.69235 -1.204989,2.57514 -0.341834,0.87614 -0.576354,1.78673 -0.768656,2.7056 -0.198097,0.94982 -0.275045,1.91652 -0.308866,2.88421 -0.02621,1.07497 0.06231,2.1474 0.179386,3.21481 0.12601,1.12302 0.347691,2.23122 0.611969,3.3289 0.263154,1.07866 0.629123,2.12692 1.03384,3.15944 0.385895,0.98502 0.885534,1.91703 1.42073,2.82734 0.53493,0.90616 1.162288,1.75079 1.819873,2.57038 0.641887,0.80296 1.362694,1.53478 2.123469,2.22412 0.747311,0.66681 1.565148,1.24541 2.403213,1.79095 0.816957,0.528 1.691812,0.95221 2.584276,1.33449 0.921549,0.38927 1.88161,0.67141 2.849385,0.91836 0.980342,0.24757 1.979938,0.40004 2.983293,0.5153 0.972603,0.10646 1.95103,0.12048 2.928181,0.10301 0.956503,-0.0187 1.907125,-0.12784 2.851417,-0.27467 0.933366,-0.14984 1.846776,-0.39531 2.750598,-0.66807 0.874488,-0.26586 1.719598,-0.61357 2.546477,-1.00063 0.802195,-0.37619 1.550326,-0.84971 2.276329,-1.35443 0.775441,-0.54567 1.494983,-1.16338 2.190449,-1.80629 0.715756,-0.66737 1.366432,-1.39854 1.985618,-2.15504 0.623941,-0.76599 1.155039,-1.59923 1.652873,-2.45065 0.51343,-0.89673 0.959091,-1.82928 1.362091,-2.78007 0.366096,-0.8755 0.638842,-1.78437 0.871577,-2.70302 0.215856,-0.87079 0.334066,-1.76027 0.415735,-2.65232 0.07463,-0.86693 0.05735,-1.73709 0.0095,-2.6047 -0.05321,-0.87178 -0.181689,-1.736 -0.337476,-2.59459 -0.153006,-0.83281 -0.372951,-1.6504 -0.623414,-2.45854 -0.237088,-0.76148 -0.535149,-1.50105 -0.856035,-2.23043 -0.316281,-0.70959 -0.665301,-1.40373 -1.027724,-2.09066 -0.306398,-0.5822 -0.644687,-1.14636 -1.00375,-1.69736 -0.292785,-0.45025 -0.620252,-0.87586 -0.957794,-1.29303 -0.321514,-0.39169 -0.657781,-0.77086 -1.000988,-1.14356 -0.296595,-0.32064 -0.614825,-0.61985 -0.936694,-0.91469 -0.334838,-0.30588 -0.678751,-0.60147 -1.026347,-0.89268 -0.301091,-0.25346 -0.60987,-0.49741 -0.927251,-0.7301 -0.273524,-0.20013 -0.555847,-0.38769 -0.842897,-0.56774 -0.27392,-0.1718 -0.55513,-0.33147 -0.838647,-0.48676 -0.303739,-0.16725 -0.610034,-0.32963 -0.919604,-0.48581 -0.258072,-0.13321 -0.523558,-0.25056 -0.791819,-0.36143 -0.304466,-0.12414 -0.610811,-0.24365 -0.919024,-0.35817 -0.280999,-0.10445 -0.568402,-0.19017 -0.855282,-0.27665 -0.353534,-0.10589 -0.707353,-0.21089 -1.063302,-0.3084 -0.319638,-0.088 -0.644007,-0.15638 -0.970703,-0.21199 -0.351269,-0.0526 -0.703289,-0.10234 -1.057328,-0.132 -0.07514,-0.006 -0.150392,-0.002 -0.225547,2.6e-4 -4.863999,0.0546 -4.941155,-6.82418 -0.07715,-6.87873 v 0 c 0.306316,-0.002 0.612859,-0.001 0.918271,0.0268 0.543898,0.0504 1.086069,0.11847 1.625163,0.20696 0.541848,0.0959 1.080765,0.20821 1.611233,0.35563 0.410366,0.11315 0.818901,0.23271 1.2265,0.35545 0.426336,0.12873 0.852249,0.25983 1.269479,0.41613 0.388218,0.14488 0.774544,0.29483 1.157867,0.45225 0.42478,0.17715 0.845346,0.36429 1.25503,0.57441 0.379269,0.19199 0.755253,0.39022 1.127556,0.59543 0.403934,0.22223 0.804542,0.45072 1.194742,0.69647 0.427222,0.26998 0.848386,0.54961 1.255559,0.84922 0.43235,0.31944 0.855964,0.65037 1.266851,0.99712 0.425741,0.35716 0.846923,0.71977 1.256964,1.09495 0.465172,0.42719 0.922586,0.86325 1.350595,1.32814 0.442637,0.48206 0.876747,0.9721 1.290378,1.47944 0.485032,0.60228 0.953445,1.21826 1.374391,1.86761 0.47053,0.72695 0.917126,1.46912 1.319692,2.2362 0.438401,0.83308 0.86061,1.67489 1.242187,2.53578 0.424172,0.97062 0.817179,1.9551 1.130149,2.96797 0.32884,1.07366 0.619199,2.15925 0.819306,3.26512 0.203695,1.14092 0.370554,2.28922 0.436372,3.4474 0.06204,1.2038 0.07933,2.41091 -0.03005,3.613 -0.119666,1.24952 -0.29183,2.49495 -0.600229,3.71368 -0.323709,1.25618 -0.701566,2.49895 -1.207799,3.69527 -0.522128,1.21979 -1.093951,2.41849 -1.75927,3.56764 -0.683678,1.1593 -1.41478,2.29203 -2.269908,3.33416 -0.824079,0.99921 -1.688015,1.96625 -2.639689,2.84692 -0.933276,0.85695 -1.898762,1.67996 -2.939511,2.4052 -1.04867,0.72163 -2.130695,1.39568 -3.287281,1.93317 -1.127673,0.52165 -2.278409,0.99356 -3.469706,1.35163 -1.210675,0.36156 -2.434645,0.6835 -3.68464,0.87871 -1.252456,0.19006 -2.512828,0.33193 -3.780867,0.35322 -1.28107,0.0197 -2.563664,-0.004 -3.83817,-0.14837 -1.312148,-0.15474 -2.619171,-0.35843 -3.900723,-0.686 -1.312646,-0.33985 -2.613573,-0.73045 -3.862062,-1.26491 -1.251548,-0.54342 -2.477926,-1.14613 -3.622823,-1.89297 -1.142781,-0.75006 -2.256335,-1.54701 -3.27251,-2.46455 -1.022926,-0.93669 -1.997048,-1.92551 -2.862038,-3.01221 -0.862009,-1.08133 -1.682905,-2.19638 -2.383535,-3.39082 -0.714195,-1.22429 -1.37753,-2.47914 -1.892553,-3.8022 -0.515772,-1.32702 -0.981664,-2.67413 -1.315651,-4.05983 -0.328522,-1.38143 -0.605501,-2.77552 -0.760611,-4.18831 -0.149916,-1.39953 -0.257998,-2.80568 -0.21445,-4.21455 0.05406,-1.36052 0.170673,-2.71922 0.454006,-4.0537 0.27789,-1.29546 0.61541,-2.57887 1.103333,-3.81322 0.468953,-1.17616 0.988582,-2.33184 1.616168,-3.43324 0.608769,-1.07059 1.251087,-2.12243 1.970394,-3.12318 0.713577,-0.98766 1.455311,-1.95671 2.285297,-2.85062 0.842856,-0.89489 1.724135,-1.755 2.702784,-2.50268 0.965454,-0.7316 1.96429,-1.42017 3.032519,-1.99515 1.056965,-0.56181 2.140707,-1.07489 3.28077,-1.44746 1.012412,-0.32983 2.036619,-0.62227 3.076977,-0.8513 0.967883,-0.20941 1.941293,-0.39566 2.925537,-0.51061 0.870331,-0.0986 1.743591,-0.17459 2.620053,-0.18501 0.696021,-0.006 1.392383,0.003 2.086506,0.0599 0.492824,0.0375 0.985685,0.0787 1.475243,0.14798 0.487495,0.0729 0.97508,0.16045 1.438693,0.33358 4.554567,1.70803 2.139045,8.14916 -2.415524,6.44113 z"
       inkscape:connector-curvature="0" />
    <path
       style="opacity:1;fill:#020900;fill-opacity:1;stroke:none;stroke-width:1;stroke-linecap:butt;stroke-linejoin:round;stroke-miterlimit:4;stroke-dasharray:none;stroke-opacity:1"
       id="path1231"
       d="m 70.146289,233.82855 c 0.02916,-0.022 0.222181,-0.11114 0.290719,-0.14463 0.338878,-0.16835 0.684379,-0.32271 1.030298,-0.47588 0.322829,-0.13955 0.639551,-0.29184 0.949611,-0.45772 0.300802,-0.15556 0.575291,-0.35165 0.836181,-0.56609 0.357603,-0.29997 0.645777,-0.66865 0.929688,-1.03614 0.432302,-0.57042 0.840081,-1.1588 1.244986,-1.7488 0.371094,-0.54242 0.73334,-1.09081 1.092205,-1.64138 0.184777,-0.28061 0.355322,-0.57051 0.469413,-0.88724 0.101963,-0.31999 0.179975,-0.64695 0.257927,-0.97341 0.09266,-0.39417 0.182687,-0.78895 0.273007,-1.18366 0.04699,-0.23691 0.119706,-0.47044 0.147678,-0.71095 -2.15e-4,-0.003 -5.29e-4,-0.006 -5.29e-4,-0.01 0.577204,-4.82993 7.407769,-4.01364 6.830565,0.81629 v 0 c -0.0097,0.076 -0.01934,0.15197 -0.02902,0.22796 -0.06438,0.40682 -0.146431,0.81019 -0.242742,1.21071 -0.09549,0.41731 -0.190656,0.83469 -0.288861,1.25137 -0.155311,0.64702 -0.318016,1.29415 -0.556911,1.91642 -0.299273,0.73334 -0.654021,1.4407 -1.097627,2.0988 -0.388802,0.59634 -0.781322,1.19028 -1.183446,1.77775 -0.484315,0.70541 -0.973191,1.40814 -1.493296,2.08786 -0.618931,0.78835 -1.274357,1.55194 -2.061027,2.18006 -0.599911,0.47332 -1.224587,0.91448 -1.904534,1.26712 -0.454856,0.2401 -0.916398,0.4668 -1.388629,0.671 -0.267266,0.11827 -0.534704,0.23641 -0.796271,0.36698 -0.321046,0.15668 -0.642821,0.31359 -0.97908,0.43559 -4.576742,1.6477 -6.906935,-4.82479 -2.330191,-6.47249 z"
       inkscape:connector-curvature="0" />
    <path
       style="opacity:1;fill:#020900;fill-opacity:1;stroke:none;stroke-width:1;stroke-linecap:butt;stroke-linejoin:round;stroke-miterlimit:4;stroke-dasharray:none;stroke-opacity:1"
       id="path1233"
       d="m 33.87706,240.99961 c -0.403611,0.31734 -0.863307,0.54353 -1.335985,0.73676 -0.505526,0.20208 -1.035428,0.32063 -1.571393,0.4058 -0.685379,0.10038 -1.376574,0.0636 -2.061859,-0.0109 -0.7636,-0.0843 -1.503246,-0.28708 -2.227661,-0.53562 -0.789159,-0.28402 -1.525216,-0.6866 -2.240966,-1.11899 -0.698986,-0.42703 -1.355473,-0.91674 -1.991918,-1.43097 -0.737279,-0.59366 -1.379815,-1.28673 -1.977603,-2.01744 -0.563398,-0.70979 -1.046409,-1.47733 -1.507924,-2.25569 -0.422074,-0.71802 -0.797422,-1.46162 -1.154656,-2.21354 -0.330187,-0.70047 -0.625207,-1.41657 -0.910042,-2.13642 -0.256609,-0.65231 -0.46906,-1.32058 -0.680546,-1.98849 -0.153917,-0.48868 -0.306499,-0.97778 -0.459226,-1.46683 -0.121748,-0.39272 -0.2419,-0.78593 -0.362223,-1.17909 -0.09438,-0.30843 -0.188722,-0.61687 -0.283071,-0.92531 -0.07516,-0.24572 -0.150321,-0.49143 -0.225481,-0.73714 -0.05691,-0.17771 -0.105781,-0.35805 -0.164659,-0.53512 0.01962,0.0638 -0.01358,-0.0377 0.01347,0.0438 -1.743392,-4.54115 4.678765,-7.00668 6.422157,-2.46553 v 0 c 0.07572,0.20193 0.03804,0.0975 0.112565,0.31361 0.06691,0.20973 0.130189,0.42058 0.194764,0.63103 0.07516,0.24571 0.150316,0.49141 0.225474,0.73712 0.09426,0.30813 0.188506,0.61627 0.282788,0.92439 0.116496,0.38065 0.23283,0.76135 0.350634,1.1416 0.15007,0.48055 0.3,0.96113 0.451205,1.44132 0.16307,0.51526 0.32399,1.03182 0.519677,1.53588 0.22853,0.57888 0.464301,1.15517 0.728746,1.71876 0.266171,0.5633 0.545717,1.12051 0.859988,1.65882 0.288322,0.48958 0.58607,0.97492 0.931749,1.42674 0.29056,0.36619 0.604951,0.71201 0.968971,1.00755 0.392527,0.32152 0.798818,0.62615 1.230424,0.89384 0.305863,0.18847 0.616578,0.37134 0.950106,0.50732 0.234763,0.0901 0.476891,0.15812 0.726968,0.19003 0.09498,0.0128 0.191782,0.0199 0.285595,0.0381 -0.06718,0.0326 0.03045,-0.004 0.03744,0.003 -0.127495,0.064 -0.248792,0.13963 -0.359297,0.23032 3.840531,-2.98526 8.062329,2.44607 4.221798,5.43133 z"
       inkscape:connector-curvature="0" />
  </g>
</svg>
