<svg viewBox="0 0 100 100"><path style="opacity:1;fill:#020900;fill-opacity:1;stroke:none;stroke-width:1;stroke-linecap:butt;stroke-linejoin:round;stroke-miterlimit:4;stroke-dasharray:none;stroke-opacity:1" d="M53.766 233.42c.202.07.158.057-.022.032-.33-.044-.663-.07-.995-.095a16 16 0 0 0-1.495-.04c-.639.01-1.276.067-1.91.14a25 25 0 0 0-4.644 1.065c-.758.252-1.477.599-2.179.977a16.5 16.5 0 0 0-2.11 1.402c-.671.52-1.274 1.117-1.852 1.737-.625.68-1.183 1.416-1.722 2.166a28 28 0 0 0-1.567 2.494 20 20 0 0 0-1.205 2.576c-.342.876-.576 1.786-.769 2.705-.198.95-.275 1.917-.308 2.884-.027 1.075.062 2.148.179 3.215.126 1.123.348 2.231.612 3.33.263 1.078.63 2.126 1.034 3.159.386.985.885 1.917 1.42 2.827.535.906 1.163 1.75 1.82 2.57a19 19 0 0 0 2.124 2.224c.747.667 1.565 1.246 2.403 1.791.817.528 1.692.953 2.584 1.335.922.39 1.882.671 2.85.918.98.248 1.98.4 2.983.515.973.107 1.951.121 2.928.103a21 21 0 0 0 2.852-.274c.933-.15 1.846-.395 2.75-.668.875-.266 1.72-.614 2.547-1 .802-.377 1.55-.85 2.276-1.355.775-.546 1.495-1.164 2.19-1.807a22 22 0 0 0 1.986-2.155c.624-.766 1.155-1.599 1.653-2.45.513-.897.96-1.83 1.362-2.78.366-.876.639-1.785.872-2.703.216-.871.334-1.76.415-2.653.075-.867.058-1.737.01-2.604a22 22 0 0 0-.338-2.595 21 21 0 0 0-.623-2.459 21 21 0 0 0-.856-2.23 35 35 0 0 0-1.028-2.09 21 21 0 0 0-1.004-1.698c-.292-.45-.62-.876-.957-1.293a27 27 0 0 0-1.001-1.144c-.297-.32-.615-.62-.937-.914a32 32 0 0 0-1.026-.893q-.451-.38-.928-.73-.41-.299-.842-.568a16 16 0 0 0-.84-.487 29 29 0 0 0-.919-.485 10 10 0 0 0-.792-.362q-.456-.186-.919-.358c-.28-.104-.568-.19-.855-.277a47 47 0 0 0-1.063-.308 10 10 0 0 0-.97-.212 16 16 0 0 0-1.058-.132c-.075-.006-.15-.002-.226 0-4.864.055-4.94-6.824-.077-6.878.306-.002.613-.001.918.026q.816.075 1.626.207c.541.096 1.08.209 1.61.356q.617.17 1.227.355c.427.13.853.26 1.27.417q.582.216 1.158.452c.424.177.845.364 1.255.574q.569.287 1.127.596a21.4 21.4 0 0 1 3.717 2.543q.64.534 1.257 1.094c.465.428.923.864 1.35 1.328.444.483.878.973 1.291 1.48.485.602.954 1.218 1.375 1.868.47.726.917 1.469 1.32 2.236.438.833.86 1.675 1.242 2.536.424.97.817 1.955 1.13 2.967a29 29 0 0 1 .819 3.266c.204 1.14.37 2.289.436 3.447.062 1.204.08 2.41-.03 3.613-.12 1.25-.291 2.495-.6 3.714-.324 1.256-.701 2.499-1.208 3.695a33 33 0 0 1-1.759 3.568c-.684 1.159-1.415 2.292-2.27 3.334-.824.999-1.688 1.966-2.64 2.847-.933.857-1.898 1.68-2.94 2.405-1.048.722-2.13 1.396-3.286 1.933-1.128.522-2.279.994-3.47 1.352-1.21.361-2.435.683-3.685.878-1.252.19-2.513.332-3.78.354-1.282.02-2.564-.004-3.839-.149-1.312-.154-2.619-.358-3.9-.686-1.313-.34-2.614-.73-3.863-1.265-1.251-.543-2.477-1.146-3.622-1.893-1.143-.75-2.257-1.547-3.273-2.464-1.023-.937-1.997-1.926-2.862-3.012-.862-1.082-1.683-2.197-2.383-3.391-.715-1.225-1.378-2.48-1.893-3.802-.516-1.327-.982-2.675-1.316-4.06-.328-1.382-.605-2.776-.76-4.189-.15-1.4-.258-2.805-.215-4.214.054-1.36.171-2.72.454-4.054.278-1.295.616-2.579 1.104-3.813.469-1.176.988-2.332 1.616-3.433.609-1.07 1.25-2.123 1.97-3.123.714-.988 1.456-1.957 2.286-2.851.842-.895 1.724-1.755 2.702-2.503.966-.731 1.965-1.42 3.033-1.995 1.057-.562 2.14-1.075 3.28-1.447a33 33 0 0 1 3.078-.852c.967-.21 1.94-.395 2.925-.51.87-.099 1.744-.175 2.62-.185.696-.006 1.393.003 2.087.06.492.037.985.078 1.475.148.487.073.975.16 1.439.333 4.554 1.708 2.139 8.15-2.416 6.441" transform="translate(0 -197)"/><path style="opacity:1;fill:#020900;fill-opacity:1;stroke:none;stroke-width:1;stroke-linecap:butt;stroke-linejoin:round;stroke-miterlimit:4;stroke-dasharray:none;stroke-opacity:1" d="M70.146 233.829c.03-.022.222-.112.291-.145a26 26 0 0 1 1.03-.476q.485-.21.95-.458c.3-.155.575-.351.836-.566.358-.3.646-.668.93-1.036.432-.57.84-1.159 1.245-1.749q.554-.814 1.092-1.641c.185-.28.355-.57.47-.887.101-.32.18-.647.257-.974q.139-.592.273-1.183c.047-.237.12-.47.148-.711v-.01c.577-4.83 7.407-4.014 6.83.816l-.029.228q-.097.61-.243 1.21-.141.627-.289 1.252c-.155.647-.318 1.294-.556 1.916-.3.734-.655 1.441-1.098 2.1q-.582.895-1.184 1.777a50 50 0 0 1-1.493 2.088c-.619.788-1.274 1.552-2.06 2.18-.6.473-1.225.914-1.905 1.267-.455.24-.917.467-1.39.671-.266.118-.534.236-.795.367a10 10 0 0 1-.98.436c-4.576 1.647-6.906-4.825-2.33-6.473zM33.877 241c-.404.317-.863.543-1.336.736a7.3 7.3 0 0 1-1.571.406c-.686.1-1.377.064-2.062-.01-.764-.085-1.503-.288-2.228-.536-.789-.284-1.525-.687-2.24-1.12a19 19 0 0 1-1.993-1.43c-.737-.594-1.38-1.287-1.977-2.018-.564-.71-1.047-1.477-1.508-2.255a28 28 0 0 1-1.155-2.214c-.33-.7-.625-1.417-.91-2.136a31 31 0 0 1-.68-1.989l-.46-1.467-.362-1.179-.283-.925-.225-.737c-.057-.178-.106-.358-.165-.535.02.063-.014-.038.013.043-1.743-4.54 4.68-7.006 6.422-2.465.076.202.039.097.113.314q.099.315.195.63l.225.738.283.924.35 1.142q.224.72.452 1.441c.163.515.324 1.032.52 1.536.228.579.464 1.155.728 1.719.266.563.546 1.12.86 1.658.289.49.586.975.932 1.427.29.366.605.712.969 1.008.393.321.799.626 1.23.894.306.188.617.37.95.507.235.09.477.158.728.19.095.013.191.02.285.038-.067.033.03-.004.038.003q-.194.095-.36.23c3.84-2.985 8.063 2.446 4.222 5.432" transform="translate(0 -197)"/></svg>