<?xml version="1.0" encoding="UTF-8" standalone="no"?>
<!-- Created with Inkscape (http://www.inkscape.org/) -->

<svg
   xmlns:dc="http://purl.org/dc/elements/1.1/"
   xmlns:cc="http://creativecommons.org/ns#"
   xmlns:rdf="http://www.w3.org/1999/02/22-rdf-syntax-ns#"
   xmlns:svg="http://www.w3.org/2000/svg"
   xmlns="http://www.w3.org/2000/svg"
   xmlns:sodipodi="http://sodipodi.sourceforge.net/DTD/sodipodi-0.dtd"
   xmlns:inkscape="http://www.inkscape.org/namespaces/inkscape"
   width="10cm"
   height="10cm"
   viewBox="0 0 100 99.999997"
   version="1.1"
   id="svg8"
   sodipodi:docname="meli.svg"
   inkscape:version="0.92.3 (2405546, 2018-03-11)">
  <defs
     id="defs2" />
  <sodipodi:namedview
     id="base"
     pagecolor="#ffffff"
     bordercolor="#666666"
     borderopacity="1.0"
     inkscape:pageopacity="0.0"
     inkscape:pageshadow="2"
     inkscape:zoom="1"
     inkscape:cx="175.50186"
     inkscape:cy="186.50542"
     inkscape:document-units="cm"
     inkscape:current-layer="layer1"
     showgrid="true"
     units="cm"
     inkscape:window-width="881"
     inkscape:window-height="706"
     inkscape:window-x="971"
     inkscape:window-y="214"
     inkscape:window-maximized="0"
     inkscape:snap-nodes="false">
    <inkscape:grid
       type="xygrid"
       id="grid815"
       units="cm"
       spacingx="9.9999998"
       spacingy="9.9999998" />
  </sodipodi:namedview>
  <metadata
     id="metadata5">
    <rdf:RDF>
      <cc:Work
         rdf:about="">
        <dc:format>image/svg+xml</dc:format>
        <dc:type
           rdf:resource="http://purl.org/dc/dcmitype/StillImage" />
        <dc:title></dc:title>
      </cc:Work>
    </rdf:RDF>
  </metadata>
  <g
     inkscape:label="Layer 1"
     inkscape:groupmode="layer"
     id="layer1"
     transform="translate(0,-197.00002)">
    <path
       style="opacity:1;fill:#020900;fill-opacity:1;stroke:none;stroke-width:1;stroke-linecap:butt;stroke-linejoin:round;stroke-miterlimit:4;stroke-dasharray:none;stroke-opacity:1"
       id="path1239"
       d="m 44.356958,235.58872 c 0.153911,0.11064 0.323403,0.19521 0.498652,0.26591 0.03803,0.0302 0.327377,0.0827 0.131106,0.0584 -0.205552,-0.0281 -0.412832,-0.0346 -0.620003,-0.0364 -0.397018,-0.004 -0.793041,0.0252 -1.187455,0.0677 -0.514075,0.0583 -1.020652,0.16499 -1.52367,0.2836 -0.527687,0.12596 -1.037584,0.31069 -1.536975,0.52044 -0.491667,0.20704 -0.941025,0.49216 -1.371134,0.80452 -0.521896,0.38876 -0.977755,0.85342 -1.413132,1.33451 -0.554752,0.62287 -1.029078,1.30954 -1.482746,2.00761 -0.535964,0.83797 -0.98421,1.72651 -1.417651,2.6204 -0.46424,0.96045 -0.865113,1.94906 -1.24094,2.94682 -0.377989,1.01542 -0.69306,2.05226 -0.976903,3.09741 -0.26526,0.98173 -0.45616,1.98061 -0.609624,2.9852 -0.140964,0.92568 -0.186735,1.86077 -0.197696,2.79582 -0.0093,0.8708 0.0731,1.73722 0.20488,2.59684 0.129304,0.81183 0.364744,1.59965 0.631253,2.37543 0.264766,0.7674 0.615778,1.49847 1.018503,2.20188 0.38449,0.66277 0.87679,1.24904 1.39709,1.8076 0.602663,0.62926 1.275252,1.18455 1.961293,1.71937 0.740278,0.57078 1.527664,1.07483 2.332479,1.54859 0.834676,0.48632 1.710037,0.89557 2.59424,1.28221 0.843547,0.36904 1.720389,0.6494 2.610337,0.88093 0.808841,0.20819 1.638307,0.30297 2.470038,0.35273 0.843762,0.0433 1.686833,-0.015 2.525335,-0.10533 0.886518,-0.10323 1.759688,-0.28935 2.624645,-0.50545 0.813734,-0.20083 1.600036,-0.48849 2.366063,-0.82562 0.750279,-0.33755 1.448681,-0.77372 2.133383,-1.22649 0.69079,-0.46005 1.342316,-0.97385 1.964211,-1.52254 0.565015,-0.49486 1.042442,-1.07136 1.474552,-1.68269 0.515048,-0.75675 0.929132,-1.57444 1.323896,-2.39833 0.440266,-0.92582 0.804005,-1.88422 1.127953,-2.85599 0.31678,-0.97659 0.548042,-1.97725 0.755811,-2.98172 0.191484,-0.93743 0.318791,-1.8857 0.420225,-2.83653 0.08901,-0.84038 0.128635,-1.68456 0.144872,-2.52912 0.0149,-0.75079 -0.0217,-1.50075 -0.08261,-2.24877 -0.05691,-0.70483 -0.165081,-1.40362 -0.290465,-2.09905 -0.102198,-0.5789 -0.249801,-1.14758 -0.426326,-1.70782 -0.156813,-0.48793 -0.34966,-0.96278 -0.567576,-1.42631 -0.199988,-0.41112 -0.440642,-0.80022 -0.694624,-1.17971 -0.263795,-0.38469 -0.556458,-0.74839 -0.853217,-1.10787 -0.263319,-0.3203 -0.553506,-0.61654 -0.847831,-0.90803 -0.254619,-0.25061 -0.52546,-0.48362 -0.805638,-0.70499 -0.266832,-0.20536 -0.547227,-0.39217 -0.829895,-0.57479 -0.272624,-0.17477 -0.553196,-0.33661 -0.837742,-0.49105 -0.247092,-0.13326 -0.503531,-0.24768 -0.761415,-0.35813 -0.261268,-0.112 -0.528823,-0.20795 -0.798068,-0.29869 -0.250476,-0.0853 -0.505809,-0.15466 -0.763323,-0.21495 -0.261602,-0.0592 -0.527508,-0.0968 -0.79315,-0.13253 -0.341159,-0.0429 -0.683855,-0.0722 -1.026342,-0.10209 -0.336685,-0.0308 -0.673971,-0.0533 -1.011523,-0.0719 -0.28475,-0.0158 -0.569833,-0.0202 -0.854956,-0.0202 -0.280154,0.002 -0.560343,0.006 -0.840351,0.016 -0.253302,0.009 -0.50655,0.0201 -0.759717,0.0326 -0.206155,0.0113 -0.41221,0.0244 -0.618292,0.0369 -0.186393,0.0112 -0.372779,0.0226 -0.559202,0.0333 0.0055,4e-5 0.0109,7e-5 0.01635,1.1e-4 0.03765,-0.004 0.0753,-0.007 0.112943,-0.0107 -4.81299,0.7047 -5.809583,-6.1019 -0.996593,-6.8066 v 0 c 0.346986,-0.0436 0.189212,-0.0282 0.472869,-0.0507 0.178025,-0.0102 0.35601,-0.0211 0.534006,-0.0318 0.233005,-0.0142 0.465984,-0.029 0.699098,-0.0414 0.290975,-0.0143 0.582043,-0.0267 0.873183,-0.0373 0.357338,-0.0114 0.714841,-0.018 1.072362,-0.0197 0.40927,5.3e-4 0.818507,0.008 1.227219,0.0307 0.410853,0.0228 0.821396,0.0503 1.231223,0.0875 0.452622,0.0396 0.905401,0.0796 1.355958,0.13892 0.490235,0.0673 0.979908,0.14302 1.461709,0.2575 0.463573,0.11168 0.923925,0.23681 1.375304,0.3913 0.441894,0.15039 0.880671,0.31023 1.309489,0.49511 0.453154,0.19573 0.902335,0.40133 1.335966,0.6378 0.436356,0.23884 0.867397,0.48757 1.285287,0.7577 0.470125,0.30551 0.934892,0.6202 1.375413,0.96761 0.473506,0.37922 0.933881,0.77485 1.364602,1.2026 0.456298,0.45384 0.90257,0.91832 1.311015,1.41632 0.446641,0.54319 0.883992,1.09505 1.276287,1.67933 0.441709,0.66964 0.858586,1.35666 1.20047,2.08357 0.342437,0.74231 0.652007,1.4996 0.897104,2.28022 0.257464,0.83373 0.478314,1.67831 0.62919,2.53849 0.163407,0.916 0.302691,1.83662 0.376502,2.76475 0.0769,0.97654 0.123764,1.9555 0.103058,2.93544 -0.02186,1.04394 -0.07165,2.08742 -0.182933,3.1261 -0.127077,1.17335 -0.286359,2.34347 -0.524592,3.50009 -0.26493,1.27055 -0.56289,2.53541 -0.968899,3.76942 -0.418396,1.24218 -0.884679,2.46832 -1.45125,3.65155 -0.571712,1.18443 -1.181015,2.35444 -1.938539,3.43299 -0.746757,1.02786 -1.562676,2.00315 -2.524863,2.83899 -0.862221,0.7522 -1.759365,1.46352 -2.715143,2.09452 -1.016225,0.66699 -2.058144,1.29913 -3.173241,1.78949 -1.1206,0.48349 -2.267233,0.90416 -3.454664,1.19429 -1.173367,0.28897 -2.357827,0.53675 -3.5603,0.66973 -1.223769,0.12631 -2.454142,0.20154 -3.684479,0.12891 -1.274961,-0.0853 -2.545797,-0.24009 -3.784364,-0.56615 -1.232974,-0.32827 -2.449595,-0.71744 -3.618783,-1.23267 -1.136592,-0.49967 -2.260359,-1.03113 -3.332094,-1.66037 -1.059997,-0.62867 -2.097632,-1.29608 -3.071606,-2.05317 -0.976849,-0.76684 -1.929974,-1.56768 -2.78066,-2.4754 -0.872228,-0.9532 -1.688592,-1.95881 -2.328106,-3.08661 -0.604574,-1.07992 -1.143079,-2.1955 -1.541245,-3.36978 -0.393802,-1.16673 -0.736111,-2.35231 -0.9217,-3.57227 -0.180544,-1.22803 -0.297394,-2.46494 -0.279893,-3.70786 0.01885,-1.2547 0.08553,-2.50924 0.277467,-3.75092 0.195887,-1.26047 0.436286,-2.51417 0.771447,-3.7459 0.343052,-1.25437 0.721807,-2.49926 1.178047,-3.7177 0.451206,-1.19288 0.932358,-2.37479 1.489039,-3.523 0.561155,-1.15336 1.147762,-2.29632 1.844892,-3.37484 0.660037,-1.0078 1.356053,-1.99432 2.166072,-2.88901 0.767813,-0.83458 1.57793,-1.63268 2.501035,-2.29716 0.85911,-0.6053 1.756254,-1.15599 2.731283,-1.55709 0.846706,-0.34707 1.709724,-0.65496 2.602468,-0.86261 0.785617,-0.18209 1.577256,-0.34205 2.380073,-0.4272 0.666943,-0.0673 1.336291,-0.11431 2.007158,-0.10325 0.485463,0.01 0.970965,0.0322 1.452221,0.10069 0.42558,0.0607 0.850644,0.13637 1.256155,0.28377 0.373321,0.14114 0.737658,0.30656 1.065823,0.53669 4.008766,2.75522 0.112287,8.42447 -3.896479,5.66925 z"
       inkscape:connector-curvature="0" />
    <path
       style="opacity:1;fill:#020900;fill-opacity:1;stroke:none;stroke-width:1;stroke-linecap:butt;stroke-linejoin:round;stroke-miterlimit:4;stroke-dasharray:none;stroke-opacity:1"
       id="path1243"
       d="m 8.9867333,260.57853 c 0.024495,-0.30965 0.078449,-0.61569 0.1390184,-0.91999 0.07246,-0.34842 0.1665938,-0.69179 0.2583617,-1.03547 0.1051277,-0.40872 0.2266592,-0.81284 0.3543154,-1.215 0.1430348,-0.44667 0.3072012,-0.88609 0.4693932,-1.32604 0.178023,-0.48667 0.356866,-0.97298 0.54281,-1.45669 0.214413,-0.55173 0.439022,-1.09941 0.659453,-1.64875 0.22225,-0.55041 0.434025,-1.10497 0.644174,-1.66009 0.222491,-0.58981 0.425248,-1.18677 0.625091,-1.78455 0.213971,-0.64757 0.415374,-1.29921 0.616802,-1.95076 0.227342,-0.74802 0.46448,-1.49294 0.708471,-2.23567 0.268286,-0.81825 0.552774,-1.63099 0.847934,-2.4399 0.301656,-0.81706 0.623767,-1.62636 0.948368,-2.43451 0.3482,-0.8669 0.715811,-1.72576 1.091919,-2.58086 0.398027,-0.9008 0.815329,-1.7929 1.242965,-2.67998 0.421928,-0.87008 0.878961,-1.72235 1.339616,-2.57234 0.451743,-0.83281 0.927747,-1.65203 1.408592,-2.46826 0.475198,-0.80795 0.966903,-1.60592 1.47023,-2.3966 0.501287,-0.79012 1.035462,-1.55831 1.583884,-2.31621 0.529242,-0.73454 1.098824,-1.43804 1.690433,-2.12288 0.612665,-0.70714 1.277346,-1.3653 1.969331,-1.99404 0.723453,-0.65355 1.517049,-1.21963 2.333731,-1.74915 0.794099,-0.50741 1.63123,-0.94046 2.481606,-1.34429 0.821931,-0.38332 1.66768,-0.71139 2.519524,-1.02118 0.837264,-0.30419 1.690614,-0.55936 2.551094,-0.78836 0.835861,-0.21895 1.684033,-0.38484 2.534309,-0.53617 0.852223,-0.15243 1.711351,-0.25919 2.572644,-0.34383 0.912477,-0.0872 1.829173,-0.10334 2.745108,-0.0998 0.90152,0.005 1.80096,0.0672 2.698731,0.14431 0.864386,0.0769 1.725914,0.18142 2.586255,0.29408 0.829011,0.11238 1.657159,0.23116 2.484331,0.35634 0.855078,0.12928 1.703917,0.2946 2.550594,0.46971 0.779733,0.16416 1.556965,0.33989 2.332538,0.52261 0.754218,0.17754 1.506188,0.36439 2.254686,0.56467 0.759532,0.20791 1.511986,0.4404 2.262976,0.67699 0.688716,0.22062 1.374032,0.45165 2.059461,0.68223 0.615765,0.20703 1.229868,0.41895 1.843956,0.63089 0.566009,0.19136 1.130218,0.38782 1.690965,0.59411 0.591709,0.21871 1.170953,0.46893 1.748885,0.72127 0.589542,0.25707 1.171435,0.53086 1.747277,0.81717 0.58807,0.29554 1.163918,0.61439 1.736785,0.93816 0.547291,0.30852 1.086015,0.6316 1.616999,0.96732 0.562927,0.35357 1.102865,0.7414 1.631421,1.14403 0.506298,0.3915 0.992923,0.8075 1.470959,1.23279 0.506801,0.44919 0.980847,0.93263 1.436674,1.43292 0.431366,0.47959 0.838655,0.97986 1.232953,1.49012 0.391036,0.50886 0.749088,1.0416 1.097256,1.58031 0.380558,0.58559 0.704387,1.20425 1.006544,1.83302 0.279059,0.60255 0.532622,1.21646 0.784074,1.8309 0.28384,0.68929 0.552384,1.3846 0.811041,2.08368 0.299439,0.82264 0.587073,1.64949 0.881422,2.47395 0.323609,0.88916 0.645565,1.77888 0.960427,2.67118 0.315881,0.8999 0.619837,1.80391 0.930944,2.70546 0.272434,0.7795 0.545002,1.55895 0.819097,2.33786 0.229032,0.6448 0.460113,1.28886 0.688695,1.93381 0.19677,0.55477 0.390136,1.11073 0.582498,1.66704 0.151898,0.43941 0.303814,0.87882 0.460598,1.31651 0.142645,0.39227 0.289663,0.78292 0.435173,1.17413 0.137996,0.37164 0.276228,0.7432 0.414158,1.11487 0.113638,0.31004 0.230375,0.61892 0.348183,0.9274 0.09626,0.25302 0.195827,0.50477 0.294326,0.75693 0.08375,0.20617 0.167216,0.41245 0.25056,0.61878 0.07938,0.19587 0.161653,0.39054 0.242681,0.58573 0.06715,0.16358 0.135485,0.32664 0.204946,0.48925 0.05855,0.1368 0.117298,0.27353 0.176017,0.41026 0.04751,0.11063 0.09503,0.22126 0.142544,0.33188 0.03789,0.0882 0.07578,0.17643 0.113665,0.26464 0.01159,0.0244 0.02297,0.0489 0.03436,0.0734 -0.02798,-0.0556 -0.01521,-0.0317 0.007,0.009 0.02347,0.0427 0.047,0.0854 0.07051,0.12804 0.01958,0.0356 0.03919,0.0711 0.05878,0.10665 0.01564,0.0284 0.03127,0.0567 0.04691,0.0851 0.01246,0.0226 0.02492,0.0452 0.03739,0.0678 0.0099,0.018 0.01987,0.036 0.0298,0.0541 0.0079,0.0144 0.01582,0.0287 0.02376,0.0431 0.0063,0.0115 0.01262,0.0229 0.01895,0.0344 0.005,0.009 0.01005,0.0183 0.01508,0.0274 2.348092,4.26003 -3.67651,7.58074 -6.024605,3.3207 v 0 c -0.005,-0.009 -0.01005,-0.0183 -0.01508,-0.0274 -0.0063,-0.0115 -0.01262,-0.0229 -0.01894,-0.0343 -0.0079,-0.0144 -0.01582,-0.0287 -0.02376,-0.0431 -0.0099,-0.018 -0.01987,-0.036 -0.0298,-0.0541 -0.01246,-0.0226 -0.02492,-0.0452 -0.03739,-0.0678 -0.01564,-0.0284 -0.03128,-0.0567 -0.04692,-0.0851 -0.01966,-0.0356 -0.0393,-0.0713 -0.05894,-0.10694 -0.02569,-0.0466 -0.05141,-0.0933 -0.07705,-0.13994 -0.05921,-0.10797 -0.117883,-0.2163 -0.171093,-0.32739 -0.05496,-0.11536 -0.108802,-0.23127 -0.15974,-0.34847 -0.03789,-0.0882 -0.07578,-0.17643 -0.11367,-0.26465 -0.04756,-0.11072 -0.09512,-0.22145 -0.142677,-0.33219 -0.06053,-0.14094 -0.121076,-0.28187 -0.181424,-0.42288 -0.0786,-0.18407 -0.156052,-0.36861 -0.232104,-0.55375 -0.08957,-0.21578 -0.180472,-0.431 -0.26802,-0.64761 -0.09304,-0.23052 -0.186838,-0.46073 -0.279418,-0.69144 -0.104818,-0.26836 -0.210728,-0.53631 -0.313124,-0.80561 -0.125532,-0.32872 -0.249918,-0.65788 -0.371086,-0.98823 -0.137324,-0.37007 -0.274974,-0.74001 -0.412367,-1.11005 -0.15535,-0.41767 -0.312385,-0.83472 -0.464208,-1.25368 -0.165034,-0.46122 -0.325538,-0.92403 -0.485421,-1.38706 -0.1866,-0.53966 -0.374144,-1.07898 -0.565033,-1.61714 -0.230291,-0.64981 -0.463198,-1.29867 -0.693828,-1.94835 -0.278715,-0.79207 -0.555929,-1.58468 -0.832863,-2.37737 -0.305919,-0.88658 -0.604975,-1.77552 -0.915284,-2.66058 -0.311952,-0.88431 -0.63147,-1.76588 -0.951899,-2.64714 -0.285676,-0.8003 -0.565187,-1.60279 -0.855115,-2.40156 -0.231055,-0.62566 -0.471742,-1.24764 -0.725694,-1.86441 -0.201477,-0.49277 -0.404437,-0.98514 -0.62425,-1.47008 -0.173307,-0.36651 -0.358862,-0.72743 -0.579382,-1.06825 -0.243501,-0.37806 -0.492538,-0.75294 -0.765524,-1.1106 -0.281646,-0.36668 -0.573932,-0.72513 -0.881798,-1.07023 -0.289213,-0.32218 -0.594178,-0.62969 -0.917451,-0.91792 -0.347747,-0.31101 -0.702648,-0.61426 -1.070168,-0.90177 -0.366998,-0.28191 -0.743315,-0.55175 -1.1352,-0.79826 -0.433596,-0.2753 -0.874876,-0.53802 -1.322067,-0.79068 -0.468249,-0.26493 -0.938559,-0.52653 -1.418839,-0.7692 -0.47162,-0.23572 -0.94937,-0.45874 -1.432428,-0.67009 -0.454353,-0.19849 -0.90897,-0.39723 -1.373751,-0.5704 -0.516117,-0.19048 -1.036211,-0.36968 -1.557184,-0.54639 -0.597127,-0.20609 -1.194249,-0.4122 -1.793002,-0.61353 -0.643617,-0.21651 -1.287094,-0.43353 -1.933622,-0.64124 -0.656117,-0.20682 -1.313331,-0.41064 -1.976599,-0.59352 -0.681043,-0.18296 -1.365803,-0.35155 -2.052098,-0.51365 -0.714417,-0.16856 -1.430459,-0.33025 -2.148668,-0.48191 -0.725633,-0.15041 -1.452951,-0.2933 -2.185823,-0.40439 -0.782008,-0.11848 -1.564989,-0.23056 -2.348704,-0.33718 -0.75978,-0.0998 -1.520571,-0.19266 -2.283894,-0.26121 -0.711411,-0.0619 -1.424053,-0.11362 -2.138518,-0.11888 -0.682871,-0.004 -1.366438,0.005 -2.046962,0.0676 -0.682104,0.0656 -1.362324,0.15029 -2.037197,0.27038 -0.662231,0.11707 -1.323176,0.24392 -1.97453,0.41258 -0.663538,0.1747 -1.320927,0.37174 -1.966401,0.60523 -0.650465,0.23533 -1.296625,0.48374 -1.925143,0.77346 -0.580374,0.27274 -1.151954,0.56508 -1.695053,0.90726 -0.506061,0.32317 -0.99808,0.66898 -1.446837,1.06944 -0.487884,0.43797 -0.952019,0.90136 -1.383464,1.39546 -0.462809,0.5325 -0.905677,1.08183 -1.3188,1.65404 -0.468744,0.64673 -0.925258,1.3023 -1.353283,1.9769 -0.460967,0.72338 -0.910564,1.4539 -1.345591,2.1932 -0.439373,0.74562 -0.874801,1.49368 -1.287679,2.2544 -0.409053,0.75452 -0.815929,1.51055 -1.191305,2.28257 -0.393229,0.81489 -0.776473,1.63463 -1.142536,2.46212 -0.34631,0.78672 -0.684605,1.57699 -1.005146,2.37461 -0.297413,0.74023 -0.592822,1.4814 -0.86981,2.22957 -0.269876,0.73862 -0.529375,1.48095 -0.774513,2.22817 -0.231511,0.70424 -0.456053,1.41069 -0.671587,2.11999 -0.217002,0.70182 -0.434168,1.40368 -0.66516,2.10105 -0.228515,0.6828 -0.460825,1.36451 -0.71546,2.03811 -0.226209,0.59739 -0.454326,1.19409 -0.693449,1.78646 -0.208195,0.51869 -0.42013,1.03589 -0.623243,1.5566 -0.174652,0.45355 -0.341466,0.90997 -0.508748,1.36627 -0.126466,0.34302 -0.255689,0.6852 -0.368777,1.03295 -0.09549,0.29879 -0.185642,0.59926 -0.263144,0.90329 -0.05591,0.20936 -0.113766,0.41833 -0.163009,0.62938 -0.0045,0.0205 -0.03535,0.19418 -0.02158,0.0769 -0.371639,4.85009 -7.2306997,4.32451 -6.8590607,-0.52558 z"
       inkscape:connector-curvature="0" />
  </g>
</svg>
