<svg viewBox="0 0 100 100"><path style="opacity:1;fill:#020900;fill-opacity:1;stroke:none;stroke-width:1;stroke-linecap:butt;stroke-linejoin:round;stroke-miterlimit:4;stroke-dasharray:none;stroke-opacity:1" d="M44.357 235.589c.154.11.323.195.499.266.038.03.327.082.13.058a5 5 0 0 0-.62-.036c-.396-.004-.792.025-1.187.067a13 13 0 0 0-1.523.284 10 10 0 0 0-1.537.52c-.492.207-.941.493-1.372.805-.521.389-.977.853-1.413 1.334-.554.623-1.029 1.31-1.482 2.008-.536.838-.985 1.727-1.418 2.62a36 36 0 0 0-1.241 2.947 36 36 0 0 0-.977 3.098c-.265.981-.456 1.98-.61 2.985-.14.926-.186 1.86-.197 2.796-.01.87.073 1.737.205 2.596.129.812.364 1.6.63 2.376a13 13 0 0 0 1.02 2.202c.384.663.876 1.249 1.397 1.807.602.63 1.275 1.185 1.96 1.72.741.57 1.528 1.075 2.333 1.548.835.487 1.71.896 2.595 1.283.843.369 1.72.649 2.61.88.809.209 1.638.303 2.47.353.844.044 1.687-.015 2.525-.105.887-.103 1.76-.29 2.625-.506.814-.2 1.6-.488 2.366-.825.75-.338 1.449-.774 2.133-1.227a18 18 0 0 0 1.965-1.522c.565-.495 1.042-1.072 1.474-1.683.515-.757.93-1.574 1.324-2.398a25 25 0 0 0 1.128-2.856c.317-.977.548-1.977.756-2.982a30 30 0 0 0 .565-5.366 21.7 21.7 0 0 0-.373-4.348 13.5 13.5 0 0 0-.427-1.707c-.156-.488-.35-.963-.567-1.427-.2-.41-.44-.8-.695-1.18a16 16 0 0 0-.853-1.107c-.263-.32-.553-.617-.848-.908a10 10 0 0 0-.805-.705 13 13 0 0 0-1.668-1.066 11 11 0 0 0-1.56-.657 8 8 0 0 0-.763-.215 9 9 0 0 0-.793-.132c-.341-.043-.684-.072-1.026-.102q-.505-.046-1.012-.072-.427-.022-.855-.02-.42.002-.84.016-.38.014-.76.032l-.618.037-.56.033h.017l.113-.01c-4.813.704-5.81-6.102-.997-6.807.347-.043.19-.028.473-.05l.534-.032q.35-.023.7-.042.435-.02.872-.037.537-.017 1.073-.02.614-.002 1.227.031.615.033 1.231.087c.453.04.906.08 1.356.14.49.067.98.142 1.462.257.463.112.924.237 1.375.391.442.15.88.31 1.31.495.453.196.902.402 1.336.638.436.239.867.488 1.285.758.47.305.935.62 1.375.967.474.38.934.775 1.365 1.203.456.454.903.918 1.311 1.416a22 22 0 0 1 1.276 1.68c.442.67.859 1.356 1.2 2.083.343.743.653 1.5.898 2.28.257.834.478 1.679.629 2.539.163.916.303 1.837.377 2.765.076.976.123 1.955.103 2.935a37 37 0 0 1-.708 6.626c-.265 1.27-.563 2.536-.969 3.77-.418 1.242-.885 2.468-1.451 3.651-.572 1.185-1.181 2.355-1.939 3.433-.746 1.028-1.562 2.003-2.524 2.84a26 26 0 0 1-2.716 2.094c-1.016.667-2.058 1.299-3.173 1.79-1.12.483-2.267.903-3.455 1.194-1.173.289-2.357.536-3.56.67-1.224.126-2.454.2-3.684.128-1.275-.085-2.546-.24-3.785-.566-1.233-.328-2.45-.717-3.618-1.233-1.137-.5-2.26-1.03-3.333-1.66-1.06-.629-2.097-1.296-3.071-2.053-.977-.767-1.93-1.568-2.78-2.476-.873-.953-1.69-1.958-2.329-3.086-.604-1.08-1.143-2.196-1.541-3.37-.394-1.167-.736-2.352-.922-3.572-.18-1.228-.297-2.465-.28-3.708.02-1.255.086-2.51.278-3.751.196-1.26.436-2.514.771-3.746.343-1.254.722-2.5 1.178-3.718a43 43 0 0 1 1.49-3.523c.56-1.153 1.147-2.296 1.844-3.374.66-1.008 1.356-1.995 2.166-2.89.768-.834 1.578-1.632 2.501-2.297.86-.605 1.756-1.156 2.732-1.557.846-.347 1.71-.655 2.602-.862a20 20 0 0 1 2.38-.428 17 17 0 0 1 2.007-.103c.486.01.971.032 1.452.1.426.062.851.137 1.257.285.373.14.737.306 1.065.536 4.01 2.756.113 8.425-3.896 5.67" transform="translate(0 -197)"/><path style="opacity:1;fill:#020900;fill-opacity:1;stroke:none;stroke-width:1;stroke-linecap:butt;stroke-linejoin:round;stroke-miterlimit:4;stroke-dasharray:none;stroke-opacity:1" d="M8.987 260.579a8 8 0 0 1 .139-.92c.072-.349.166-.692.258-1.036.105-.409.227-.813.354-1.215.143-.447.308-.886.47-1.326q.265-.73.543-1.457c.214-.551.439-1.1.66-1.648q.33-.826.643-1.66c.223-.59.426-1.187.625-1.785.214-.648.416-1.3.617-1.95q.342-1.123.709-2.236.403-1.228.848-2.44a93 93 0 0 1 2.04-5.016c.398-.9.815-1.793 1.243-2.68.422-.87.879-1.722 1.34-2.572.451-.833.927-1.652 1.408-2.468a80 80 0 0 1 1.47-2.397 46 46 0 0 1 1.584-2.316 31 31 0 0 1 1.69-2.123 24 24 0 0 1 1.97-1.994c.723-.654 1.517-1.22 2.334-1.75.794-.507 1.63-.94 2.481-1.343a31 31 0 0 1 2.52-1.022c.837-.304 1.69-.559 2.55-.788a32 32 0 0 1 2.535-.536c.852-.153 1.712-.26 2.573-.344a28 28 0 0 1 2.745-.1c.901.005 1.8.067 2.699.144a63 63 0 0 1 2.586.295q1.243.168 2.484.356c.855.13 1.704.294 2.55.47q1.17.248 2.333.522 1.133.266 2.255.565c.76.208 1.512.44 2.263.677.689.22 1.374.452 2.06.682q.923.313 1.843.631.85.286 1.691.594c.592.219 1.171.469 1.75.721q.883.387 1.747.818c.588.295 1.163.614 1.736.938q.821.463 1.617.967c.563.354 1.103.741 1.632 1.144.506.392.993.808 1.47 1.233.508.449.982.932 1.437 1.433.432.48.84.98 1.233 1.49.391.509.75 1.041 1.098 1.58.38.586.704 1.204 1.006 1.833.28.603.533 1.217.784 1.831q.425 1.035.811 2.084c.3.822.587 1.65.882 2.474q.486 1.334.96 2.67c.316.9.62 1.805.931 2.706q.408 1.17.82 2.338c.228.645.46 1.29.688 1.934q.295.832.582 1.667.227.66.461 1.317.216.588.435 1.174l.414 1.115q.171.465.348.927.146.38.295.757l.25.619q.12.293.243.585.101.246.205.49l.176.41.143.332.113.264.035.074c-.028-.056-.016-.032.007.009l.07.128.059.107.047.085.037.067.03.055.024.043.019.034.015.027c2.348 4.26-3.677 7.581-6.025 3.321l-.015-.027-.019-.035-.024-.043-.03-.054-.037-.068-.047-.085-.059-.107-.077-.14a7 7 0 0 1-.33-.675l-.114-.265-.143-.332-.181-.423a44 44 0 0 1-.232-.554q-.136-.323-.268-.647l-.28-.692q-.158-.401-.313-.806-.19-.492-.371-.988l-.412-1.11q-.236-.626-.465-1.253-.246-.692-.485-1.388-.28-.81-.565-1.617l-.694-1.948q-.418-1.189-.833-2.377c-.306-.887-.605-1.776-.915-2.661a293 293 0 0 0-.952-2.647c-.286-.8-.565-1.603-.855-2.402a54 54 0 0 0-.726-1.864 43 43 0 0 0-.624-1.47 9 9 0 0 0-.58-1.068 17 17 0 0 0-.765-1.111 19 19 0 0 0-.882-1.07q-.433-.484-.917-.918a21 21 0 0 0-1.07-.902 15 15 0 0 0-1.136-.798 30 30 0 0 0-1.322-.79 34 34 0 0 0-1.418-.77q-.708-.354-1.433-.67a26 26 0 0 0-1.374-.57 61 61 0 0 0-1.557-.547q-.895-.31-1.793-.613a146 146 0 0 0-1.933-.642 57 57 0 0 0-1.977-.593 69 69 0 0 0-2.052-.514q-1.072-.253-2.149-.482a41 41 0 0 0-2.186-.404q-1.173-.177-2.348-.337c-.76-.1-1.52-.193-2.284-.262a27 27 0 0 0-2.139-.118 21 21 0 0 0-2.047.067c-.682.066-1.362.15-2.037.27-.662.118-1.323.244-1.974.413a24.5 24.5 0 0 0-3.892 1.379c-.58.273-1.152.565-1.695.907-.506.323-.998.669-1.447 1.07-.488.437-.952.9-1.383 1.395a24 24 0 0 0-1.32 1.654 39 39 0 0 0-1.352 1.977q-.693 1.084-1.346 2.193c-.44.746-.875 1.494-1.288 2.254a58 58 0 0 0-1.191 2.283 79 79 0 0 0-2.148 4.837c-.297.74-.593 1.481-.87 2.23q-.406 1.106-.774 2.228-.348 1.055-.672 2.12a110 110 0 0 1-.665 2.1c-.228.683-.46 1.365-.715 2.039a88 88 0 0 1-.694 1.786c-.208.519-.42 1.036-.623 1.557-.175.453-.341.91-.509 1.366-.126.343-.255.685-.368 1.033q-.145.448-.264.903c-.056.21-.113.419-.163.63-.004.02-.035.194-.021.077-.372 4.85-7.23 4.324-6.86-.526z" transform="translate(0 -197)"/></svg>