<?xml version="1.0" encoding="UTF-8" standalone="no"?>
<!-- Created with Inkscape (http://www.inkscape.org/) -->

<svg
   xmlns:dc="http://purl.org/dc/elements/1.1/"
   xmlns:cc="http://creativecommons.org/ns#"
   xmlns:rdf="http://www.w3.org/1999/02/22-rdf-syntax-ns#"
   xmlns:svg="http://www.w3.org/2000/svg"
   xmlns="http://www.w3.org/2000/svg"
   xmlns:sodipodi="http://sodipodi.sourceforge.net/DTD/sodipodi-0.dtd"
   xmlns:inkscape="http://www.inkscape.org/namespaces/inkscape"
   width="10cm"
   height="10cm"
   viewBox="0 0 100 99.999997"
   version="1.1"
   id="svg8"
   sodipodi:docname="mi.svg"
   inkscape:version="0.92.3 (2405546, 2018-03-11)">
  <defs
     id="defs2" />
  <sodipodi:namedview
     id="base"
     pagecolor="#ffffff"
     bordercolor="#666666"
     borderopacity="1.0"
     inkscape:pageopacity="0.0"
     inkscape:pageshadow="2"
     inkscape:zoom="1"
     inkscape:cx="175.50186"
     inkscape:cy="186.50542"
     inkscape:document-units="cm"
     inkscape:current-layer="layer1"
     showgrid="true"
     units="cm"
     inkscape:window-width="881"
     inkscape:window-height="706"
     inkscape:window-x="971"
     inkscape:window-y="214"
     inkscape:window-maximized="0"
     inkscape:snap-nodes="false">
    <inkscape:grid
       type="xygrid"
       id="grid815"
       units="cm"
       spacingx="9.9999998"
       spacingy="9.9999998" />
  </sodipodi:namedview>
  <metadata
     id="metadata5">
    <rdf:RDF>
      <cc:Work
         rdf:about="">
        <dc:format>image/svg+xml</dc:format>
        <dc:type
           rdf:resource="http://purl.org/dc/dcmitype/StillImage" />
        <dc:title></dc:title>
      </cc:Work>
    </rdf:RDF>
  </metadata>
  <g
     inkscape:label="Layer 1"
     inkscape:groupmode="layer"
     id="layer1"
     transform="translate(0,-197.00002)">
    <path
       style="opacity:1;fill:#020900;fill-opacity:1;stroke:none;stroke-width:1;stroke-linecap:butt;stroke-linejoin:round;stroke-miterlimit:4;stroke-dasharray:none;stroke-opacity:1"
       id="path1245"
       d="m 32.837344,275.54992 c -0.03004,0.0695 -0.0509,0.14246 -0.07264,0.21472 0.01868,-0.14846 0.03272,-0.29742 0.04464,-0.44657 0.02737,-0.35601 0.04135,-0.71285 0.05272,-1.06967 0.01431,-0.4956 0.02135,-0.99138 0.02906,-1.48712 0.0029,-0.57346 0.01942,-1.1463 0.05677,-1.71854 0.04383,-0.62539 0.138777,-1.24528 0.246999,-1.86225 0.09721,-0.50606 0.189238,-1.01294 0.27001,-1.5219 0.08457,-0.53615 0.150281,-1.07495 0.20314,-1.61508 0.05768,-0.60549 0.077,-1.21361 0.08777,-1.82145 0.0062,-0.71855 -0.01712,-1.43689 -0.04099,-2.15493 -0.02899,-0.82072 -0.06031,-1.64136 -0.09127,-2.462 -0.03139,-0.82527 -0.05916,-1.65068 -0.08546,-2.47613 -0.03092,-0.81914 -0.04246,-1.63869 -0.03871,-2.45835 0.0053,-0.73911 0.02373,-1.47805 0.04364,-2.2169 0.02019,-0.71016 0.03873,-1.42036 0.05553,-2.13061 0.02167,-0.73161 0.01894,-1.46357 0.0071,-2.19531 -0.01347,-0.77797 -0.06021,-1.55477 -0.107334,-2.33126 -0.04577,-0.80122 -0.122684,-1.59995 -0.210304,-2.39751 -0.09674,-0.84724 -0.189285,-1.69492 -0.275648,-2.54328 -0.08611,-0.85087 -0.162875,-1.70263 -0.227698,-2.55538 -0.06544,-0.87408 -0.104875,-1.74977 -0.142258,-2.6254 -0.03751,-0.90417 -0.06811,-1.8086 -0.09767,-2.71306 -0.02715,-0.85384 -0.0543,-1.70769 -0.07604,-2.56169 -0.02331,-0.85159 -0.01627,-1.70339 0.01087,-2.55473 0.0276,-0.86967 0.118589,-1.73516 0.226603,-2.59794 0.108428,-0.91216 0.303011,-1.80925 0.537792,-2.69623 0.240649,-0.89128 0.571611,-1.75327 0.93287,-2.60153 0.351285,-0.82008 0.779304,-1.60264 1.240758,-2.36498 0.48599,-0.79645 1.065766,-1.52737 1.67657,-2.23034 0.619209,-0.70477 1.315939,-1.33307 2.040072,-1.92707 0.685218,-0.5536 1.420556,-1.03931 2.169954,-1.50045 0.726141,-0.44407 1.484802,-0.83001 2.257737,-1.18493 0.816287,-0.37135 1.672228,-0.63864 2.537889,-0.86616 0.769892,-0.19585 1.555289,-0.31843 2.341417,-0.42676 0.705649,-0.0988 1.416232,-0.14976 2.127734,-0.17945 0.655381,-0.0255 1.310963,-0.0145 1.965431,0.0248 0.720346,0.042 1.426535,0.1855 2.120934,0.37488 0.715663,0.19989 1.384236,0.52242 2.029301,0.88538 0.682739,0.38588 1.281745,0.88888 1.840526,1.43448 0.544111,0.54542 0.994035,1.17039 1.406168,1.81839 0.409586,0.65826 0.712129,1.37176 0.971333,2.09996 0.283446,0.80035 0.402397,1.63871 0.461211,2.48154 0.04887,0.82953 -0.02991,1.65644 -0.151651,2.47597 -0.118999,0.78483 -0.333486,1.54868 -0.586727,2.29941 -0.25124,0.73388 -0.585869,1.43327 -0.956185,2.11337 -0.367202,0.66342 -0.807519,1.28073 -1.273191,1.87759 -0.503478,0.64618 -1.090824,1.21633 -1.70615,1.7541 -0.626853,0.54116 -1.316865,0.99913 -2.023263,1.42818 -0.652166,0.38872 -1.330688,0.73003 -2.01925,1.04879 -0.748152,0.34283 -1.533633,0.58825 -2.328725,0.79418 -0.756113,0.18849 -1.530284,0.28102 -2.305658,0.34177 -0.696799,0.0516 -1.395564,0.0382 -2.092436,-8e-4 -0.704006,-0.0412 -1.398027,-0.16685 -2.085335,-0.31888 -0.626264,-0.13929 -1.23711,-0.33464 -1.839047,-0.55469 -0.562102,-0.20885 -1.106197,-0.46118 -1.642653,-0.72809 -0.486838,-0.24257 -0.95504,-0.51965 -1.416341,-0.80718 -0.325861,-0.20624 -0.650192,-0.41489 -0.97423,-0.62398 -0.251426,-0.16235 -0.502764,-0.32484 -0.75411,-0.48732 -0.222139,-0.1432 -0.444479,-0.28604 -0.663525,-0.43395 -0.23127,-0.15638 -0.450773,-0.329 -0.670996,-0.5003 -0.203457,-0.15568 -0.398667,-0.32151 -0.590058,-0.49167 -0.125064,-0.11361 -0.249532,-0.22787 -0.374111,-0.34201 -0.08233,-0.0744 -0.165147,-0.14827 -0.247914,-0.22219 0.0984,0.11759 0.244131,0.18569 0.369644,0.27376 -4.14701,-2.5424 -0.551519,-8.40716 3.595492,-5.86476 v 0 c 0.21283,0.14496 0.429741,0.2822 0.617206,0.46021 0.104458,0.0933 0.209008,0.18648 0.312616,0.28071 0.102696,0.0941 0.205497,0.18806 0.308065,0.28228 0.07504,0.0678 0.151884,0.13334 0.232921,0.19394 0.102351,0.0796 0.203493,0.16103 0.308657,0.23692 0.176065,0.12078 0.358154,0.23251 0.536512,0.34983 0.249812,0.16149 0.499615,0.32298 0.749506,0.48434 0.295958,0.19098 0.592204,0.38152 0.889606,0.57025 0.275513,0.17281 0.55422,0.34114 0.845164,0.48703 0.310806,0.15627 0.625568,0.30523 0.951063,0.42876 0.312661,0.11778 0.63073,0.22015 0.956786,0.29453 0.32538,0.074 0.653016,0.1421 0.986698,0.16503 0.390697,0.0247 0.782674,0.0343 1.173676,0.008 0.377086,-0.0263 0.754313,-0.0649 1.12369,-0.14809 0.392523,-0.0968 0.78059,-0.21326 1.151075,-0.37692 0.457293,-0.20861 0.906421,-0.43548 1.340554,-0.68913 0.373057,-0.22288 0.740257,-0.45723 1.073446,-0.73767 0.289034,-0.24609 0.566585,-0.50592 0.801921,-0.80523 0.23853,-0.29956 0.464288,-0.60958 0.654722,-0.94245 0.18452,-0.32855 0.348861,-0.66791 0.474734,-1.02371 0.127484,-0.36287 0.235064,-0.73253 0.295841,-1.1131 0.0541,-0.33471 0.097,-0.67207 0.08596,-1.01203 -0.0077,-0.216 -0.02196,-0.43269 -0.09001,-0.63961 -0.08063,-0.24522 -0.176525,-0.48579 -0.303649,-0.71104 -0.126215,-0.20943 -0.264076,-0.41214 -0.427636,-0.59459 -0.120364,-0.12921 -0.248849,-0.24994 -0.40213,-0.34005 -0.153289,-0.0916 -0.309239,-0.18172 -0.479964,-0.23708 -0.225584,-0.071 -0.458153,-0.11518 -0.694262,-0.13213 -0.417023,-0.0292 -0.835141,-0.0295 -1.252902,-0.0167 -0.492247,0.019 -0.983824,0.053 -1.472004,0.12137 -0.518483,0.0705 -1.037392,0.14581 -1.546352,0.26961 -0.481505,0.1224 -0.958504,0.26496 -1.413399,0.46722 -0.519809,0.23409 -1.027073,0.49534 -1.515375,0.79001 -0.489183,0.29842 -0.970425,0.61124 -1.419529,0.96814 -0.428054,0.34511 -0.839232,0.71166 -1.206683,1.12181 -0.356348,0.40376 -0.696036,0.82303 -0.980842,1.28131 -0.295637,0.48069 -0.567076,0.97597 -0.792112,1.4941 -0.235183,0.54532 -0.452779,1.0989 -0.611478,1.67201 -0.158856,0.58405 -0.286669,1.17571 -0.358003,1.77748 -0.08254,0.65208 -0.154718,1.30603 -0.176453,1.96344 -0.02408,0.71839 -0.0287,1.43721 -0.0094,2.15582 0.02122,0.83736 0.04807,1.67456 0.07459,2.51177 0.0288,0.88161 0.05859,1.76321 0.09509,2.64454 0.03409,0.79997 0.06944,1.60003 0.12883,2.39861 0.05998,0.79389 0.132162,1.58677 0.212032,2.37892 0.08449,0.83064 0.175408,1.66058 0.270034,2.49012 0.09938,0.9084 0.186198,1.81815 0.238646,2.73063 0.05327,0.87894 0.104598,1.7583 0.119089,2.63892 0.01278,0.82225 0.0158,1.64473 -0.0082,2.46684 -0.01699,0.7178 -0.03568,1.43555 -0.05611,2.15325 -0.01857,0.68844 -0.03592,1.37697 -0.04122,2.06565 -0.004,0.73527 0.0075,1.4704 0.03531,2.20519 0.02588,0.81201 0.05318,1.62396 0.08406,2.4358 0.03136,0.83105 0.06309,1.6621 0.09238,2.49324 0.02771,0.83632 0.05354,1.67304 0.0436,2.50994 -0.01508,0.79183 -0.04306,1.58387 -0.120084,2.37246 -0.06744,0.67511 -0.148608,1.34882 -0.255246,2.01897 -0.08726,0.54653 -0.18343,1.09145 -0.288944,1.63476 -0.06654,0.37452 -0.128439,0.75037 -0.158027,1.12996 -0.03223,0.45375 -0.03732,0.90838 -0.04205,1.36314 -0.0083,0.53421 -0.01601,1.06846 -0.03182,1.60251 -0.01548,0.47264 -0.035,0.94528 -0.07274,1.41675 -0.03287,0.38784 -0.07123,0.77574 -0.141502,1.1589 -0.06952,0.35197 -0.154654,0.70133 -0.289518,1.03477 -1.789866,4.52303 -8.186404,1.99178 -6.39654,-2.53126 z"
       inkscape:connector-curvature="0" />
  </g>
</svg>
