<svg viewBox="0 0 100 100"><path style="opacity:1;fill:#020900;fill-opacity:1;stroke:none;stroke-width:1;stroke-linecap:butt;stroke-linejoin:round;stroke-miterlimit:4;stroke-dasharray:none;stroke-opacity:1" d="M32.837 275.55c-.03.07-.05.142-.072.215q.026-.224.044-.447c.028-.356.042-.713.053-1.07.014-.495.021-.991.03-1.487q.002-.86.056-1.718c.044-.626.139-1.246.247-1.863.097-.506.19-1.012.27-1.521q.125-.805.203-1.615c.058-.606.077-1.214.088-1.822a52 52 0 0 0-.041-2.155l-.091-2.462q-.047-1.237-.086-2.476a58 58 0 0 1-.039-2.458c.006-.74.024-1.478.044-2.217q.03-1.065.056-2.13a50 50 0 0 0 .007-2.196 54 54 0 0 0-.108-2.331c-.045-.802-.122-1.6-.21-2.398q-.146-1.27-.276-2.543a103 103 0 0 1-.227-2.556 82 82 0 0 1-.143-2.625 405 405 0 0 1-.174-5.275 43 43 0 0 1 .012-2.554c.027-.87.118-1.736.226-2.598.109-.913.303-1.81.538-2.697.24-.89.572-1.753.933-2.601.351-.82.78-1.603 1.24-2.365.487-.797 1.066-1.528 1.677-2.23.62-.705 1.316-1.334 2.04-1.928.685-.553 1.42-1.039 2.17-1.5.726-.444 1.485-.83 2.258-1.185.816-.371 1.672-.639 2.538-.866.77-.196 1.555-.319 2.341-.427.706-.099 1.416-.15 2.128-.18a20 20 0 0 1 1.965.025c.72.042 1.427.186 2.121.375.716.2 1.385.523 2.03.886.682.386 1.281.889 1.84 1.434.544.546.994 1.17 1.406 1.819.41.658.712 1.371.972 2.1.283.8.402 1.638.46 2.481.05.83-.029 1.657-.15 2.476-.12.785-.334 1.549-.588 2.3a14 14 0 0 1-.956 2.113c-.367.663-.807 1.28-1.273 1.877-.503.647-1.09 1.217-1.706 1.755-.627.54-1.317.999-2.023 1.428-.652.388-1.331.73-2.02 1.049-.748.342-1.533.588-2.328.794-.756.188-1.53.28-2.306.341-.697.052-1.395.039-2.092 0-.704-.042-1.398-.167-2.086-.32a15 15 0 0 1-1.839-.554 17 17 0 0 1-3.059-1.535q-.488-.31-.974-.624l-.754-.487q-.334-.215-.664-.434c-.23-.157-.45-.33-.67-.5a10 10 0 0 1-.59-.492l-.375-.342-.248-.223c.099.118.244.186.37.274-4.147-2.542-.552-8.407 3.595-5.865.213.145.43.283.618.46l.312.281.308.283q.112.102.233.194.153.121.309.236c.176.121.358.233.536.35l.75.485q.443.286.89.57a10.2 10.2 0 0 0 1.796.916c.312.117.63.22.957.294.325.074.653.142.986.165.39.025.783.035 1.174.008a7.5 7.5 0 0 0 1.124-.148 7 7 0 0 0 1.15-.377q.689-.31 1.341-.689a8 8 0 0 0 1.074-.738c.289-.246.566-.505.802-.805.238-.3.464-.61.654-.942a6.6 6.6 0 0 0 .77-2.137c.055-.335.098-.672.087-1.012a2.3 2.3 0 0 0-.09-.64 4 4 0 0 0-.304-.71 4 4 0 0 0-.427-.595c-.12-.13-.25-.25-.403-.34a2.4 2.4 0 0 0-.48-.237 3 3 0 0 0-.694-.133c-.417-.029-.835-.03-1.253-.016a15 15 0 0 0-1.472.121c-.518.07-1.037.146-1.546.27a9 9 0 0 0-1.413.467 14 14 0 0 0-1.516.79c-.489.298-.97.611-1.42.968a9.7 9.7 0 0 0-2.188 2.403c-.295.48-.566.976-.791 1.494a13 13 0 0 0-.611 1.672 12 12 0 0 0-.358 1.778 21 21 0 0 0-.177 1.963 36 36 0 0 0-.01 2.156q.034 1.256.075 2.512c.03.881.059 1.763.095 2.644.034.8.07 1.6.13 2.399q.09 1.191.211 2.379.128 1.245.27 2.49c.1.908.186 1.818.239 2.73.053.88.105 1.759.119 2.64.013.822.016 1.644-.008 2.466a449 449 0 0 1-.056 2.154 107 107 0 0 0-.042 2.065q-.006 1.103.036 2.205.038 1.218.084 2.436.048 1.246.092 2.494c.028.836.054 1.673.044 2.51a30 30 0 0 1-.12 2.372 35 35 0 0 1-.256 2.019 50 50 0 0 1-.288 1.635c-.067.374-.129.75-.158 1.13-.033.453-.038.908-.043 1.363q-.01.801-.031 1.602c-.016.473-.035.946-.073 1.417-.033.388-.071.776-.142 1.159-.07.352-.154.701-.29 1.035-1.789 4.523-8.186 1.991-6.396-2.532z" transform="translate(0 -197)"/></svg>