<svg viewBox="0 0 100 100"><path style="opacity:1;fill:#020900;fill-opacity:1;stroke:none;stroke-width:1;stroke-linecap:butt;stroke-linejoin:round;stroke-miterlimit:4;stroke-dasharray:none;stroke-opacity:1" d="M46.64 221.287c-.212.026-.425.04-.637.05q-.407.02-.815.029-.564.01-1.128.025c-.495.018-.99.047-1.485.076-.54.024-1.075.09-1.609.17-.646.102-1.288.226-1.928.361s-1.269.317-1.893.512a17 17 0 0 0-1.826.704c-.591.262-1.16.568-1.712.906-.53.33-1.02.718-1.488 1.13-.521.466-.978.997-1.421 1.536-.5.61-.946 1.262-1.365 1.93a18 18 0 0 0-1.115 2.153c-.334.745-.564 1.528-.749 2.322-.203.91-.299 1.84-.355 2.77-.055.967.006 1.935.116 2.896.113.938.34 1.855.619 2.756.273.864.663 1.683 1.092 2.48.416.761.937 1.455 1.5 2.113.597.679 1.286 1.266 1.993 1.826.808.632 1.668 1.191 2.541 1.728a34 34 0 0 0 2.82 1.523c.966.469 1.962.87 2.967 1.246a18.3 18.3 0 0 0 2.932.825c.98.19 1.976.241 2.97.248 1.034.001 2.06-.117 3.079-.272a21 21 0 0 0 3.027-.728c.996-.314 1.94-.762 2.862-1.249.982-.526 1.907-1.15 2.814-1.797a34 34 0 0 0 2.594-2.075 25 25 0 0 0 2.117-2.146 26 26 0 0 0 1.725-2.222q.722-1.017 1.315-2.114a9 9 0 0 0 .707-1.772 8 8 0 0 0 .246-1.703c.024-.614-.046-1.226-.14-1.832-.113-.692-.306-1.367-.512-2.035-.22-.71-.497-1.4-.794-2.081a18 18 0 0 0-.969-1.871 22 22 0 0 0-1.125-1.692 20 20 0 0 0-1.167-1.429 27 27 0 0 0-1.225-1.26 21 21 0 0 0-1.226-1.094c-.363-.304-.75-.575-1.143-.837a20 20 0 0 0-1.235-.743q-.624-.354-1.267-.674a16 16 0 0 0-2.244-.905q-.56-.178-1.127-.338a21 21 0 0 0-.96-.249 11 11 0 0 0-.792-.163 8 8 0 0 0-.708-.072c-.228-.015-.456-.033-.684-.022q-.165.008-.325.052-.156.065-.308.136-.374.177-.745.365c-.163.102-.361.154-.52.266-.01.008.025-.012.038-.018l.19-.121c-3.898 2.91-8.013-2.602-4.116-5.513l.373-.257q.47-.274.96-.51c.334-.168.669-.336 1.01-.49.526-.235 1.062-.448 1.626-.573a8.7 8.7 0 0 1 1.65-.214q.675-.015 1.35.038c.457.034.914.075 1.366.152a19 19 0 0 1 1.237.254c.417.1.834.205 1.246.324.462.132.922.267 1.38.415a23 23 0 0 1 3.189 1.295q.792.396 1.564.832c.57.322 1.135.653 1.679 1.017.591.397 1.172.81 1.719 1.267.556.465 1.101.943 1.62 1.449a34 34 0 0 1 1.578 1.63 27 27 0 0 1 1.591 1.959c.53.733 1.037 1.482 1.496 2.262.487.84.943 1.697 1.332 2.587.398.92.768 1.852 1.063 2.81.304.998.58 2.005.74 3.037.156 1.075.262 2.16.203 3.247-.07 1.099-.21 2.194-.517 3.255-.324 1.073-.722 2.121-1.261 3.107a28 28 0 0 1-1.747 2.806c-.69.971-1.407 1.924-2.197 2.816-.859.962-1.753 1.894-2.722 2.745a41 41 0 0 1-3.14 2.508c-1.162.825-2.35 1.616-3.61 2.285-1.296.676-2.625 1.294-4.024 1.728-1.323.406-2.664.75-4.034.957-1.38.206-2.77.357-4.169.349-1.434-.017-2.868-.104-4.278-.387-1.35-.279-2.685-.631-3.975-1.124-1.212-.456-2.414-.943-3.579-1.511-1.157-.57-2.3-1.168-3.4-1.843-1.106-.684-2.196-1.397-3.218-2.204-1.054-.843-2.073-1.734-2.955-2.76-.87-1.035-1.677-2.123-2.318-3.318-.633-1.193-1.205-2.419-1.605-3.712-.395-1.309-.72-2.64-.875-4-.149-1.36-.23-2.726-.145-4.093.085-1.32.229-2.639.528-3.93.293-1.215.652-2.414 1.168-3.555.465-1.028.969-2.038 1.568-2.995.579-.915 1.192-1.808 1.881-2.644.685-.827 1.398-1.633 2.206-2.342.77-.666 1.57-1.295 2.44-1.826.809-.487 1.64-.937 2.504-1.318a24 24 0 0 1 2.556-.977 28 28 0 0 1 2.522-.676c.773-.162 1.55-.312 2.33-.433.739-.109 1.48-.198 2.226-.234a72 72 0 0 1 1.672-.084q.582-.016 1.165-.026a27 27 0 0 0 .794-.031c4.829-.587 5.66 6.241.83 6.829z" transform="translate(0 -197)"/><path style="opacity:1;fill:#020900;fill-opacity:1;stroke:none;stroke-width:1;stroke-linecap:butt;stroke-linejoin:round;stroke-miterlimit:4;stroke-dasharray:none;stroke-opacity:1" d="M10.866 274.95c-.046.03-.193.5-.181.406q.057-.408.078-.818a9 9 0 0 0-.029-1.156 26 26 0 0 0-.197-1.703c-.098-.663-.218-1.321-.331-1.98q-.168-.978-.326-1.956l-.26-1.595-.206-1.275q-.093-.573-.175-1.148a48 48 0 0 1-.14-1.09q-.056-.47-.108-.94l-.084-.744a9 9 0 0 1-.072-.937c-.019-.824.245-1.574.63-2.29.435-.717 1.076-1.22 1.801-1.614.46-.235.953-.384 1.451-.508.422-.102.852-.168 1.281-.228.466-.062.933-.106 1.4-.147a60 60 0 0 1 1.572-.108q.863-.048 1.727-.083a61 61 0 0 1 1.93-.057c.714-.006 1.429.012 2.143.039.734.032 1.468.084 2.202.135q1.152.086 2.304.169 1.249.09 2.498.176 1.29.089 2.581.163 1.32.076 2.642.135c.924.043 1.85.075 2.774.11q1.428.057 2.857.104c.95.032 1.9.06 2.849.072.932.012 1.864.002 2.797-.009q1.346-.013 2.693-.055a55 55 0 0 0 2.499-.153c.811-.065 1.62-.151 2.429-.243q1.17-.136 2.34-.302l2.368-.345q1.167-.167 2.334-.33 1.15-.156 2.301-.302 1.127-.145 2.253-.283 1.11-.135 2.22-.254 1.032-.108 2.062-.225.937-.11 1.873-.229.83-.103 1.663-.204.707-.089 1.415-.17.612-.072 1.223-.146.634-.08 1.269-.152.635-.073 1.272-.136a371 371 0 0 0 2.004-.204l.73-.076.582-.06.464-.047.37-.038c.6-.063 1.223-.018 1.79.209.29.115.55.293.824.44 1.043.799 1.494 1.886 1.568 3.153.01.455-.026.91-.056 1.364a29 29 0 0 1-.162 1.629q-.102.854-.197 1.709-.105.985-.193 1.972-.1 1.113-.191 2.226-.086 1.074-.161 2.15c-.045.634-.072 1.27-.091 1.905-.015.613-.018 1.225-.022 1.838l-.008 1.66q-.001.667.004 1.336.002.535.009 1.072l.012.868.009.696.008.554q.003.194.01.386l.01.351.01.28c-.059-1.353-.62-1.697-1.528-2.63 4.104 2.611.411 8.415-3.693 5.804-.372-.374-.807-.695-1.116-1.122-.38-.525-.51-1.212-.54-1.844l-.008-.28-.011-.354q-.008-.25-.013-.497l-.008-.555-.009-.695-.012-.877a134 134 0 0 1-.01-1.118q-.004-.705-.003-1.408l.008-1.669c.004-.667.007-1.335.025-2.002.022-.73.053-1.46.105-2.187a230 230 0 0 1 .364-4.514q.094-1.052.205-2.102.099-.887.205-1.772c.05-.421.1-.843.128-1.267.011-.17.03-.566.046-.644.099.913.624 1.655 1.346 2.208.764.395 1.239.63 2.103.565l-.054.006-.37.038-.463.047-.583.06-.73.075-.912.094-1.111.113q-.583.057-1.164.124-.609.07-1.216.146-.636.078-1.27.15-.687.082-1.372.166-.825.1-1.651.203-.974.124-1.948.238-1.051.12-2.104.23-1.064.113-2.126.243a310 310 0 0 0-6.737.895l-2.392.348q-1.259.178-2.52.324c-.887.101-1.774.195-2.663.266-.94.075-1.88.14-2.823.17q-1.416.045-2.83.06c-.992.011-1.984.02-2.975.008q-1.491-.022-2.982-.075-1.446-.049-2.892-.105c-.942-.036-1.883-.069-2.824-.112a217 217 0 0 1-5.384-.307q-1.256-.087-2.51-.178-1.15-.082-2.3-.168c-.66-.046-1.323-.093-1.985-.123a40 40 0 0 0-1.796-.034c-.574.006-1.148.026-1.722.05q-.808.033-1.614.078c-.461.027-.922.056-1.382.095-.351.03-.702.062-1.051.107a8 8 0 0 0-.594.097c-.166.037.01-.014.062-.055.394-.233.717-.556.949-.954.214-.423.382-.863.358-1.346-.017-.253.017.213.03.255l.083.739.101.891a41 41 0 0 0 .277 1.96l.206 1.269.258 1.587q.155.95.316 1.899c.125.725.256 1.45.362 2.178.103.73.196 1.46.25 2.195.046.678.074 1.358.033 2.038a16 16 0 0 1-.163 1.568c-.098.551-.229 1.098-.49 1.598-2.233 4.322-8.345 1.164-6.111-3.158" transform="translate(0 -197)"/></svg>