<?xml version="1.0" encoding="UTF-8" standalone="no"?>
<!-- Created with Inkscape (http://www.inkscape.org/) -->

<svg
   xmlns:dc="http://purl.org/dc/elements/1.1/"
   xmlns:cc="http://creativecommons.org/ns#"
   xmlns:rdf="http://www.w3.org/1999/02/22-rdf-syntax-ns#"
   xmlns:svg="http://www.w3.org/2000/svg"
   xmlns="http://www.w3.org/2000/svg"
   xmlns:sodipodi="http://sodipodi.sourceforge.net/DTD/sodipodi-0.dtd"
   xmlns:inkscape="http://www.inkscape.org/namespaces/inkscape"
   width="10cm"
   height="10cm"
   viewBox="0 0 100 99.999997"
   version="1.1"
   id="svg8"
   sodipodi:docname="mije.svg"
   inkscape:version="0.92.3 (2405546, 2018-03-11)">
  <defs
     id="defs2" />
  <sodipodi:namedview
     id="base"
     pagecolor="#ffffff"
     bordercolor="#666666"
     borderopacity="1.0"
     inkscape:pageopacity="0.0"
     inkscape:pageshadow="2"
     inkscape:zoom="1"
     inkscape:cx="175.50186"
     inkscape:cy="186.50542"
     inkscape:document-units="cm"
     inkscape:current-layer="layer1"
     showgrid="true"
     units="cm"
     inkscape:window-width="881"
     inkscape:window-height="706"
     inkscape:window-x="971"
     inkscape:window-y="214"
     inkscape:window-maximized="0"
     inkscape:snap-nodes="false">
    <inkscape:grid
       type="xygrid"
       id="grid815"
       units="cm"
       spacingx="9.9999998"
       spacingy="9.9999998" />
  </sodipodi:namedview>
  <metadata
     id="metadata5">
    <rdf:RDF>
      <cc:Work
         rdf:about="">
        <dc:format>image/svg+xml</dc:format>
        <dc:type
           rdf:resource="http://purl.org/dc/dcmitype/StillImage" />
        <dc:title></dc:title>
      </cc:Work>
    </rdf:RDF>
  </metadata>
  <g
     inkscape:label="Layer 1"
     inkscape:groupmode="layer"
     id="layer1"
     transform="translate(0,-197.00002)">
    <path
       style="opacity:1;fill:#020900;fill-opacity:1;stroke:none;stroke-width:1;stroke-linecap:butt;stroke-linejoin:round;stroke-miterlimit:4;stroke-dasharray:none;stroke-opacity:1"
       id="path1247"
       d="m 46.63976,221.28702 c -0.211632,0.0257 -0.424447,0.0391 -0.637236,0.0505 -0.271304,0.0136 -0.542861,0.0211 -0.814403,0.028 -0.37606,0.008 -0.75211,0.0143 -1.128078,0.0258 -0.495255,0.018 -0.990023,0.0469 -1.484749,0.0755 -0.539668,0.0243 -1.075441,0.0902 -1.609177,0.17068 -0.645917,0.10151 -1.288045,0.22555 -1.927704,0.36061 -0.640469,0.13487 -1.269169,0.31707 -1.89343,0.51221 -0.623943,0.1934 -1.228934,0.43917 -1.825596,0.70353 -0.591341,0.26262 -1.161258,0.56813 -1.712748,0.90577 -0.530352,0.32972 -1.019291,0.71827 -1.487305,1.13022 -0.521687,0.46621 -0.978204,0.99726 -1.421791,1.53642 -0.500047,0.61056 -0.945402,1.26203 -1.364232,1.93005 -0.426783,0.68812 -0.785381,1.41424 -1.115721,2.1525 -0.33405,0.74543 -0.563592,1.52847 -0.748475,2.32217 -0.203139,0.91092 -0.298878,1.83943 -0.354692,2.76949 -0.05509,0.96793 0.0054,1.93516 0.116065,2.8966 0.112516,0.93808 0.339225,1.85484 0.618175,2.75569 0.273703,0.8644 0.663276,1.68316 1.092578,2.47939 0.416079,0.76202 0.937075,1.45566 1.500352,2.11343 0.596749,0.6793 1.284986,1.26638 1.991926,1.82642 0.808201,0.63189 1.668857,1.19096 2.541905,1.72788 0.912222,0.55795 1.860209,1.05314 2.820069,1.52309 0.965639,0.469 1.961616,0.86997 2.966339,1.24622 0.951638,0.36267 1.93488,0.62474 2.932179,0.82439 0.979395,0.1901 1.975644,0.24162 2.970853,0.24839 1.032637,0.001 2.058662,-0.11692 3.077802,-0.27232 1.027912,-0.1595 2.035331,-0.41797 3.027249,-0.72729 0.996254,-0.31442 1.939684,-0.76285 2.861598,-1.24889 0.9828,-0.52687 1.907548,-1.15077 2.814447,-1.79717 0.901084,-0.64571 1.761604,-1.34436 2.594068,-2.07569 0.754279,-0.66596 1.449927,-1.39312 2.117137,-2.14512 0.621189,-0.70401 1.18291,-1.45652 1.724917,-2.22218 0.481161,-0.67799 0.920583,-1.38339 1.3154,-2.11474 0.303088,-0.5627 0.531902,-1.15822 0.706982,-1.77167 0.148757,-0.55667 0.217927,-1.12874 0.245708,-1.70296 0.0241,-0.61441 -0.04664,-1.22589 -0.139935,-1.83188 -0.113348,-0.69185 -0.306187,-1.36659 -0.512448,-2.03546 -0.220287,-0.71005 -0.49667,-1.40017 -0.794104,-2.08085 -0.283382,-0.64372 -0.613704,-1.26441 -0.968666,-1.87104 -0.346763,-0.58253 -0.72756,-1.14351 -1.125429,-1.69205 -0.363845,-0.49633 -0.758429,-0.96886 -1.167022,-1.42868 -0.393319,-0.43439 -0.804087,-0.85262 -1.224539,-1.26068 -0.392599,-0.38246 -0.805048,-0.74338 -1.226413,-1.09358 -0.362783,-0.30339 -0.750109,-0.57451 -1.143106,-0.83676 -0.400065,-0.26632 -0.816197,-0.50681 -1.234564,-0.74284 -0.41615,-0.23594 -0.83875,-0.46008 -1.26647,-0.67423 -0.371303,-0.18444 -0.751761,-0.34931 -1.135229,-0.50653 -0.363646,-0.14885 -0.735095,-0.27686 -1.108488,-0.39868 -0.373753,-0.11965 -0.750253,-0.23039 -1.12762,-0.338 -0.317757,-0.0919 -0.638781,-0.17174 -0.960437,-0.24863 -0.262094,-0.0637 -0.526146,-0.11844 -0.792152,-0.16289 -0.234344,-0.0373 -0.471144,-0.0554 -0.70766,-0.0722 -0.227706,-0.015 -0.455893,-0.0325 -0.68417,-0.0222 -0.109924,0.005 -0.218636,0.0236 -0.324634,0.0526 -0.103859,0.042 -0.2058,0.0899 -0.307985,0.13609 -0.250759,0.11611 -0.497467,0.24075 -0.744617,0.36429 -0.163581,0.10244 -0.361778,0.15441 -0.519946,0.26585 -0.01127,0.008 0.0249,-0.0119 0.03732,-0.0179 0.06339,-0.0404 0.12677,-0.0807 0.190156,-0.12112 -3.897622,2.91032 -8.013449,-2.60175 -4.115827,-5.51208 v 0 c 0.124198,-0.0858 0.248394,-0.17156 0.372592,-0.25735 0.313272,-0.18314 0.633632,-0.35208 0.960035,-0.51074 0.334598,-0.16724 0.668973,-0.33523 1.009685,-0.48979 0.526039,-0.23422 1.062913,-0.44786 1.626933,-0.57278 0.543047,-0.11632 1.092563,-0.20298 1.649103,-0.21422 0.450527,-0.009 0.900843,0.002 1.350145,0.0383 0.457007,0.0337 0.91385,0.0754 1.365967,0.15214 0.41493,0.0716 0.827826,0.15413 1.236967,0.25399 0.417494,0.1001 0.833998,0.20461 1.246555,0.32367 0.461708,0.13188 0.922319,0.26775 1.379365,0.4151 0.534496,0.17535 1.065761,0.36087 1.586222,0.57486 0.541677,0.22343 1.079024,0.45774 1.603275,0.7199 0.527799,0.26533 1.050211,0.54119 1.564026,0.83281 0.569529,0.32197 1.134473,0.6526 1.678625,1.01636 0.591405,0.39689 1.172263,0.80992 1.71885,1.26745 0.556532,0.46438 1.101706,0.94242 1.620755,1.44872 0.541729,0.52808 1.072518,1.0677 1.577825,1.63098 0.556884,0.63061 1.09597,1.27732 1.591066,1.95807 0.529072,0.73341 1.036683,1.48251 1.49606,2.26198 0.486966,0.83959 0.942713,1.69714 1.331397,2.58729 0.398713,0.91932 0.768699,1.85145 1.063469,2.81002 0.304151,0.99727 0.580199,2.00504 0.7392,3.03718 0.156845,1.07467 0.262446,2.15885 0.203343,3.24638 -0.06967,1.09913 -0.210013,2.19397 -0.517041,3.25502 -0.323503,1.07296 -0.721481,2.1215 -1.260697,3.10693 -0.52936,0.96762 -1.10581,1.90801 -1.74676,2.80639 -0.689912,0.97116 -1.40675,1.92407 -2.197622,2.81623 -0.85852,0.96207 -1.752253,1.89327 -2.721797,2.7451 -1.008978,0.88235 -2.049156,1.72848 -3.140565,2.50767 -1.161592,0.82478 -2.348841,1.61624 -3.608903,2.28473 -1.29639,0.6762 -2.625011,1.29396 -4.024575,1.72841 -1.322575,0.40554 -2.663989,0.74941 -4.033432,0.95699 -1.380623,0.20565 -2.77068,0.35698 -4.168794,0.34857 -1.434131,-0.0171 -2.868882,-0.10388 -4.278384,-0.38687 -1.35051,-0.27902 -2.684761,-0.63123 -3.974719,-1.12435 -1.212556,-0.45603 -2.414259,-0.94247 -3.579241,-1.51088 -1.157078,-0.56881 -2.299919,-1.16772 -3.399292,-1.84274 -1.106887,-0.68352 -2.196402,-1.39745 -3.21895,-2.20368 -1.053986,-0.84316 -2.072837,-1.73404 -2.954513,-2.76053 -0.870503,-1.03484 -1.677493,-2.12298 -2.318505,-3.31772 -0.633331,-1.19262 -1.205271,-2.41907 -1.604494,-3.71235 -0.395833,-1.30877 -0.720154,-2.63921 -0.875462,-4.00037 -0.148799,-1.35879 -0.229045,-2.72534 -0.145117,-4.09212 0.08562,-1.32082 0.229103,-2.63907 0.528055,-3.93084 0.29299,-1.21465 0.651675,-2.41344 1.16827,-3.55426 0.464902,-1.02765 0.968561,-2.03848 1.56824,-2.99536 0.578602,-0.91483 1.191718,-1.80811 1.880964,-2.64412 0.68488,-0.82641 1.397644,-1.63242 2.206163,-2.34158 0.768771,-0.66566 1.569424,-1.2953 2.43922,-1.82559 0.808831,-0.48758 1.639398,-0.93773 2.504657,-1.31822 0.835398,-0.36697 1.682639,-0.7074 2.55519,-0.97695 0.831474,-0.2582 1.669283,-0.49735 2.522008,-0.67585 0.773433,-0.16237 1.549665,-0.31233 2.330821,-0.433 0.738216,-0.10906 1.479285,-0.19852 2.225166,-0.23427 0.557165,-0.0323 1.114402,-0.0644 1.672196,-0.0838 0.388223,-0.0118 0.77651,-0.0193 1.164834,-0.0269 0.208124,-0.005 0.416266,-0.0107 0.624231,-0.0206 0.05682,-0.003 0.113625,-0.006 0.170386,-0.01 4.82872,-0.5873 5.65929,6.24155 0.83057,6.82885 z"
       inkscape:connector-curvature="0" />
    <path
       style="opacity:1;fill:#020900;fill-opacity:1;stroke:none;stroke-width:1;stroke-linecap:butt;stroke-linejoin:round;stroke-miterlimit:4;stroke-dasharray:none;stroke-opacity:1"
       id="path1249"
       d="m 10.865584,274.94967 c -0.04519,0.0295 -0.192127,0.49991 -0.180908,0.40617 0.03915,-0.27146 0.06354,-0.5445 0.07834,-0.81826 0.02123,-0.3854 -0.0012,-0.77093 -0.02898,-1.15529 -0.04311,-0.57038 -0.11652,-1.13772 -0.197518,-1.70375 -0.09753,-0.66215 -0.217384,-1.32073 -0.33101,-1.98023 -0.111386,-0.65135 -0.2186645,-1.30338 -0.3254458,-1.95549 -0.086812,-0.53169 -0.1731814,-1.06345 -0.2596002,-1.5952 -0.068954,-0.42493 -0.138299,-0.8498 -0.20696,-1.27478 -0.062339,-0.38209 -0.1193392,-0.76501 -0.1740717,-1.14825 -0.051906,-0.36268 -0.097521,-0.7262 -0.141173,-1.08994 -0.036979,-0.31328 -0.072073,-0.62679 -0.1073814,-0.94026 -0.027873,-0.24795 -0.055853,-0.49588 -0.083595,-0.74385 -0.04133,-0.31111 -0.063116,-0.62327 -0.07209,-0.93687 -0.019177,-0.82386 0.2451917,-1.57392 0.6295297,-2.2892 0.4349234,-0.71708 1.0762594,-1.22035 1.8017134,-1.61441 0.458886,-0.23519 0.952541,-0.38431 1.450929,-0.50825 0.422132,-0.10156 0.851415,-0.16801 1.281091,-0.2278 0.465057,-0.0625 0.932336,-0.10607 1.399732,-0.14653 0.523192,-0.0444 1.047256,-0.0773 1.5714,-0.10802 0.575499,-0.0333 1.151378,-0.0592 1.727317,-0.0835 0.643124,-0.0284 1.286468,-0.0487 1.930166,-0.0566 0.714404,-0.006 1.42869,0.0113 2.142512,0.0386 0.73486,0.032 1.46869,0.0837 2.202385,0.13524 0.768022,0.0568 1.535993,0.11411 2.304174,0.16872 0.832443,0.0606 1.665062,0.11865 2.497714,0.17628 0.860086,0.0597 1.720615,0.1127 2.581288,0.16312 0.880229,0.0514 1.760908,0.0945 2.641709,0.1348 0.924443,0.0425 1.84931,0.0745 2.774034,0.11003 0.952387,0.0377 1.90491,0.0718 2.857511,0.10355 0.949317,0.0324 1.898761,0.0595 2.848549,0.0726 0.932196,0.0113 1.864445,0.002 2.796588,-0.009 0.897935,-0.009 1.795732,-0.0269 2.693251,-0.0556 0.834258,-0.0282 1.667042,-0.0863 2.499024,-0.15246 0.811168,-0.065 1.620296,-0.15164 2.428772,-0.24361 0.781299,-0.0893 1.560962,-0.19178 2.339647,-0.30139 0.789678,-0.11514 1.579245,-0.23098 2.369122,-0.34476 0.777636,-0.11188 1.555427,-0.22263 2.333749,-0.32965 0.766582,-0.10484 1.533803,-0.20497 2.301272,-0.30308 0.750652,-0.0967 1.501568,-0.19121 2.252892,-0.28249 0.739262,-0.09 1.479164,-0.1746 2.219603,-0.25434 0.68775,-0.0717 1.375143,-0.14663 2.062184,-0.22482 0.62466,-0.072 1.248529,-0.15061 1.872456,-0.22863 0.554331,-0.0694 1.108961,-0.13638 1.663433,-0.20465 0.471453,-0.0585 0.943094,-0.11545 1.41496,-0.17052 0.407775,-0.0472 0.81548,-0.095 1.222872,-0.14543 0.422643,-0.0534 0.84578,-0.10275 1.268947,-0.1518 0.423651,-0.0494 0.847915,-0.0933 1.272315,-0.1357 0.362932,-0.0364 0.725808,-0.0732 1.088628,-0.11067 0.304975,-0.0314 0.60996,-0.0628 0.914943,-0.0941 0.243451,-0.025 0.486902,-0.0501 0.730353,-0.0751 0.194042,-0.0199 0.388083,-0.0399 0.582125,-0.0598 0.154657,-0.0159 0.309314,-0.0318 0.463968,-0.0477 0.123267,-0.0127 0.246531,-0.0254 0.369795,-0.038 0.600126,-0.0633 1.223455,-0.0181 1.790105,0.20862 0.289123,0.11567 0.549423,0.29329 0.824135,0.43993 1.042765,0.79901 1.493461,1.8861 1.568137,3.15381 0.0095,0.45511 -0.0265,0.90955 -0.05661,1.36332 -0.03457,0.54476 -0.09658,1.08713 -0.161435,1.62894 -0.06788,0.56939 -0.134525,1.13894 -0.197472,1.7089 -0.07101,0.65678 -0.132397,1.31454 -0.192508,1.97239 -0.06719,0.74187 -0.130757,1.48407 -0.191267,2.22652 -0.05778,0.71591 -0.110294,1.43224 -0.161176,2.14867 -0.04523,0.63468 -0.07201,1.27045 -0.09095,1.90639 -0.01524,0.61223 -0.01775,1.22468 -0.02146,1.83706 -0.0031,0.5535 -0.0058,1.10699 -0.0084,1.66049 -0.0016,0.44527 0.0016,0.89054 0.0041,1.3358 0.0013,0.3573 0.0045,0.71458 0.009,1.07186 0.0037,0.28956 0.0077,0.57911 0.01159,0.86867 0.0031,0.2318 0.0063,0.46361 0.0094,0.69541 0.0024,0.18478 0.005,0.36955 0.0075,0.55433 0.0029,0.1288 0.0068,0.25758 0.01064,0.38636 0.0035,0.11692 0.007,0.23385 0.01053,0.35077 0.0028,0.0935 0.0056,0.18709 0.0084,0.28063 -0.05767,-1.35435 -0.618636,-1.6976 -1.527165,-2.63109 4.104013,2.61123 0.411173,8.41518 -3.69284,5.80395 v 0 c -0.372123,-0.37401 -0.807415,-0.69435 -1.116364,-1.12203 -0.37924,-0.52497 -0.509773,-1.21205 -0.539676,-1.84365 -0.0028,-0.0936 -0.0056,-0.18714 -0.0085,-0.2807 -0.0035,-0.11784 -0.0071,-0.23567 -0.01061,-0.35351 -0.0049,-0.16574 -0.01005,-0.33149 -0.01304,-0.49728 -0.0024,-0.18478 -0.005,-0.36956 -0.0075,-0.55434 -0.0031,-0.23187 -0.0063,-0.46374 -0.0094,-0.6956 -0.004,-0.2922 -0.0079,-0.5844 -0.01169,-0.8766 -0.0046,-0.37259 -0.0079,-0.74519 -0.0094,-1.1178 -0.0027,-0.46937 -0.0059,-0.93875 -0.0041,-1.40813 0.0027,-0.5563 0.0053,-1.11261 0.0085,-1.66891 0.004,-0.66759 0.007,-1.33525 0.02445,-2.00265 0.02217,-0.72949 0.053,-1.4588 0.105119,-2.18683 0.05259,-0.7403 0.106889,-1.48047 0.166635,-2.22023 0.06236,-0.76481 0.127812,-1.52936 0.197064,-2.29358 0.06408,-0.70116 0.129709,-1.40219 0.205611,-2.10219 0.06537,-0.59093 0.134252,-1.18147 0.204721,-1.77182 0.05058,-0.42128 0.100769,-0.84284 0.127688,-1.26646 0.01135,-0.17028 0.02951,-0.56686 0.04648,-0.6443 0.09851,0.91326 0.623861,1.65468 1.34551,2.20814 0.764495,0.39501 1.238993,0.63004 2.10363,0.56431 0.01799,-10e-4 -0.03592,0.004 -0.05388,0.006 -0.123266,0.0127 -0.24653,0.0253 -0.369794,0.038 -0.154657,0.0159 -0.309312,0.0318 -0.463968,0.0477 -0.194043,0.0199 -0.388083,0.0399 -0.582126,0.0598 -0.24343,0.025 -0.48686,0.0501 -0.73029,0.0751 -0.304093,0.0313 -0.60819,0.0625 -0.912278,0.0939 -0.37026,0.0382 -0.740579,0.0758 -1.110951,0.11294 -0.388337,0.0388 -0.77656,0.0788 -1.164206,0.12403 -0.405535,0.047 -0.811049,0.0942 -1.216073,0.14547 -0.423286,0.0524 -0.846878,0.10211 -1.270563,0.15116 -0.457378,0.0534 -0.91453,0.10861 -1.371502,0.16531 -0.550186,0.0677 -1.100527,0.13421 -1.650574,0.20306 -0.649156,0.0812 -1.298255,0.1629 -1.948183,0.23766 -0.700887,0.0798 -1.402122,0.15629 -2.103731,0.22943 -0.709335,0.0763 -1.418132,0.15742 -2.126335,0.24365 -0.737068,0.0895 -1.473724,0.18237 -2.210133,0.27716 -0.745913,0.0953 -1.491581,0.19264 -2.236634,0.29451 -0.763701,0.10498 -1.526868,0.21373 -2.289897,0.32348 -0.797375,0.11485 -1.594422,0.23192 -2.391625,0.34796 -0.838993,0.11795 -1.679032,0.22831 -2.520836,0.32443 -0.886211,0.10069 -1.77319,0.19513 -2.662354,0.26614 -0.940099,0.0743 -1.881118,0.13922 -2.823781,0.17048 -0.943205,0.0299 -1.886683,0.0489 -2.830322,0.0585 -0.991373,0.0118 -1.982856,0.021 -2.974282,0.009 -0.994243,-0.014 -1.988153,-0.0416 -2.981904,-0.0758 -0.964102,-0.0322 -1.928125,-0.0666 -2.89201,-0.10479 -0.941541,-0.0362 -1.883225,-0.0688 -2.824475,-0.11216 -0.910179,-0.0417 -1.820232,-0.0862 -2.729822,-0.13939 -0.884844,-0.0519 -1.769539,-0.10641 -2.653782,-0.16776 -0.836959,-0.0579 -1.673883,-0.11629 -2.510633,-0.17718 -0.766341,-0.0545 -1.532483,-0.11159 -2.29866,-0.16833 -0.661553,-0.0465 -1.323205,-0.0935 -1.985756,-0.12345 -0.598224,-0.0234 -1.196858,-0.0375 -1.795589,-0.0339 -0.574463,0.006 -1.148551,0.0261 -1.7225,0.051 -0.538245,0.0226 -1.076438,0.0468 -1.614276,0.0778 -0.460913,0.0269 -0.921774,0.0555 -1.38187,0.0943 -0.350817,0.0302 -0.701622,0.0619 -1.050843,0.10743 -0.198689,0.0271 -0.397614,0.0547 -0.593731,0.097 -0.165596,0.0365 0.0091,-0.0144 0.06191,-0.0551 0.394453,-0.23348 0.717026,-0.55613 0.948906,-0.95396 0.214432,-0.42339 0.381909,-0.86333 0.357986,-1.3465 -0.01639,-0.25269 0.01746,0.21359 0.02995,0.25562 0.02755,0.24626 0.05534,0.4925 0.08302,0.73874 0.03346,0.2971 0.06672,0.59421 0.101669,0.89113 0.03748,0.31276 0.0765,0.62534 0.121115,0.93718 0.04868,0.34143 0.09944,0.68257 0.155013,1.02296 0.06831,0.42286 0.137326,0.84561 0.205929,1.26842 0.08598,0.52904 0.171909,1.05809 0.258276,1.58707 0.103704,0.63334 0.207857,1.2666 0.315986,1.89919 0.124937,0.72526 0.256356,1.44956 0.362119,2.17795 0.10351,0.72925 0.196088,1.46032 0.249598,2.19519 0.0462,0.67821 0.07492,1.3584 0.0338,2.03783 -0.03215,0.52466 -0.07933,1.0486 -0.163832,1.56775 -0.0977,0.55128 -0.228359,1.09875 -0.489542,1.59877 -2.233182,4.32139 -8.3445425,1.16319 -6.11136,-3.1582 z"
       inkscape:connector-curvature="0" />
  </g>
</svg>
