<?xml version="1.0" encoding="UTF-8" standalone="no"?>
<!-- Created with Inkscape (http://www.inkscape.org/) -->

<svg
   xmlns:dc="http://purl.org/dc/elements/1.1/"
   xmlns:cc="http://creativecommons.org/ns#"
   xmlns:rdf="http://www.w3.org/1999/02/22-rdf-syntax-ns#"
   xmlns:svg="http://www.w3.org/2000/svg"
   xmlns="http://www.w3.org/2000/svg"
   xmlns:sodipodi="http://sodipodi.sourceforge.net/DTD/sodipodi-0.dtd"
   xmlns:inkscape="http://www.inkscape.org/namespaces/inkscape"
   width="10cm"
   height="10cm"
   viewBox="0 0 100 99.999997"
   version="1.1"
   id="svg8"
   sodipodi:docname="moku.svg"
   inkscape:version="0.92.3 (2405546, 2018-03-11)">
  <defs
     id="defs2" />
  <sodipodi:namedview
     id="base"
     pagecolor="#ffffff"
     bordercolor="#666666"
     borderopacity="1.0"
     inkscape:pageopacity="0.0"
     inkscape:pageshadow="2"
     inkscape:zoom="1"
     inkscape:cx="175.50186"
     inkscape:cy="186.50542"
     inkscape:document-units="cm"
     inkscape:current-layer="layer1"
     showgrid="true"
     units="cm"
     inkscape:window-width="881"
     inkscape:window-height="706"
     inkscape:window-x="971"
     inkscape:window-y="214"
     inkscape:window-maximized="0"
     inkscape:snap-nodes="false">
    <inkscape:grid
       type="xygrid"
       id="grid815"
       units="cm"
       spacingx="9.9999998"
       spacingy="9.9999998" />
  </sodipodi:namedview>
  <metadata
     id="metadata5">
    <rdf:RDF>
      <cc:Work
         rdf:about="">
        <dc:format>image/svg+xml</dc:format>
        <dc:type
           rdf:resource="http://purl.org/dc/dcmitype/StillImage" />
        <dc:title></dc:title>
      </cc:Work>
    </rdf:RDF>
  </metadata>
  <g
     inkscape:label="Layer 1"
     inkscape:groupmode="layer"
     id="layer1"
     transform="translate(0,-197.00002)">
    <path
       style="opacity:1;fill:#020900;fill-opacity:1;stroke:none;stroke-width:1;stroke-linecap:butt;stroke-linejoin:round;stroke-miterlimit:4;stroke-dasharray:none;stroke-opacity:1"
       id="path1251"
       d="m 15.953364,271.44567 c -0.02468,-0.0299 -0.05373,-0.0593 -0.07868,-0.0863 0.117524,0.0895 0.233893,0.18074 0.350774,0.27114 0.147015,0.11335 0.300621,0.21753 0.456784,0.31775 0.234118,0.1466 0.474719,0.28238 0.716068,0.41661 0.400222,0.21696 0.798156,0.43793 1.192455,0.66548 0.509689,0.2949 1.005279,0.61298 1.499336,0.93309 0.531478,0.34687 1.063321,0.69316 1.591656,1.0448 0.57489,0.38696 1.149406,0.77446 1.725181,1.1601 0.593805,0.39662 1.189641,0.79017 1.784461,1.18526 0.595205,0.39577 1.190223,0.79178 1.781131,1.19394 0.538276,0.36899 1.073488,0.74244 1.606176,1.11945 0.448789,0.31766 0.890564,0.64504 1.33282,0.97168 0.346766,0.2559 0.692008,0.51385 1.037411,0.77158 0.270057,0.20085 0.540652,0.40098 0.811188,0.60119 0.212291,0.15614 0.422894,0.3146 0.636019,0.46961 0.01016,0.007 0.02468,0.0307 0.03051,0.02 0.02963,-0.0544 -0.624231,-0.28974 -0.672589,-0.30569 -0.960139,-0.25935 -1.854774,0.0198 -2.649178,0.56726 -0.289502,0.22651 -0.507428,0.51379 -0.687125,0.82966 0.06527,-0.20833 0.112702,-0.42152 0.159768,-0.63452 0.104114,-0.48408 0.192543,-0.97131 0.275035,-1.45949 0.10605,-0.62815 0.191643,-1.25941 0.272902,-1.89117 0.09419,-0.76248 0.194434,-1.52416 0.299696,-2.28518 0.117861,-0.86197 0.249589,-1.72184 0.399044,-2.57887 0.167368,-0.93881 0.37487,-1.86971 0.593191,-2.79777 0.230235,-0.98081 0.506558,-1.94955 0.803079,-2.9121 0.320807,-1.02396 0.685361,-2.03337 1.062635,-3.03765 0.405273,-1.07737 0.861762,-2.13405 1.339795,-3.1808 0.494863,-1.07834 1.042355,-2.13078 1.626756,-3.16296 0.607999,-1.07262 1.321604,-2.0777 2.081557,-3.0466 0.755316,-0.94816 1.61096,-1.8074 2.499719,-2.62911 0.835978,-0.76303 1.738472,-1.4466 2.662786,-2.09781 0.858239,-0.60113 1.760585,-1.13377 2.682443,-1.63025 0.886794,-0.47706 1.817346,-0.86134 2.762443,-1.20504 0.951548,-0.34249 1.935816,-0.57394 2.928578,-0.75789 1.018958,-0.18669 2.052709,-0.23635 3.086288,-0.22748 1.01827,0.016 2.027856,0.15085 3.029537,0.32469 0.987872,0.17666 1.955747,0.44236 2.91265,0.7413 0.978604,0.30728 1.917411,0.72031 2.836746,1.17166 0.928042,0.4543 1.795274,1.01392 2.625825,1.62563 0.831903,0.62233 1.565722,1.35763 2.261727,2.12534 0.62964,0.70654 1.195674,1.46529 1.737477,2.24016 0.539239,0.77377 1.003562,1.59481 1.44123,2.42906 0.42187,0.81275 0.781997,1.6548 1.118328,2.50583 0.321839,0.82375 0.590224,1.66645 0.83648,2.51538 0.246174,0.857 0.430869,1.72952 0.600062,2.60441 0.174564,0.89678 0.292301,1.80281 0.39575,2.71008 0.0931,0.85444 0.169199,1.7106 0.240316,2.56711 0.06096,0.74645 0.116528,1.49332 0.161716,2.24089 0.04233,0.68831 0.06736,1.37744 0.0806,2.06687 0.0094,0.60501 0.0016,1.21011 -0.005,1.81511 -0.0047,0.47781 -0.01135,0.95559 -0.01926,1.43336 -0.0065,0.38564 -0.01318,0.77129 -0.01968,1.15693 -0.0046,0.3282 -0.0123,0.65635 -0.01995,0.98449 -0.0066,0.27879 -0.01265,0.55758 -0.01868,0.83638 -0.0038,0.26856 -0.01611,0.53685 -0.02964,0.80507 -0.01011,0.19623 -0.02053,0.39245 -0.03095,0.58866 -0.0083,0.15479 -0.01638,0.30958 -0.02447,0.46438 -0.0068,0.14697 -0.01685,0.29376 -0.02734,0.4405 -0.0073,0.10161 -0.01479,0.2032 -0.02223,0.3048 -0.0058,0.0795 -0.01164,0.15891 -0.01749,0.23836 -0.0046,0.0633 -0.0093,0.12658 -0.01392,0.18987 -0.01405,0.29521 -0.08439,0.52807 -0.152188,0.82466 -1.416674,4.65344 -7.997632,2.64996 -6.580957,-2.00348 v 0 c -0.12936,0.58321 -0.08439,0.29696 -0.129633,0.70345 -0.0011,0.009 0.0013,-0.0184 0.0021,-0.0277 0.0046,-0.0633 0.0093,-0.12658 0.01392,-0.18986 0.0058,-0.0794 0.01164,-0.15872 0.01746,-0.23808 0.0072,-0.0977 0.01431,-0.19531 0.02138,-0.29297 0.0074,-0.10304 0.01482,-0.20608 0.01921,-0.30931 0.0082,-0.15633 0.01638,-0.31266 0.02471,-0.46898 0.01011,-0.1905 0.02024,-0.38099 0.03006,-0.5715 0.01024,-0.20223 0.02019,-0.40449 0.02249,-0.607 0.0061,-0.28251 0.01228,-0.56502 0.01892,-0.84751 0.0073,-0.31342 0.01469,-0.62684 0.01905,-0.94032 0.0065,-0.3849 0.01312,-0.76979 0.01966,-1.15469 0.0077,-0.4647 0.01418,-0.92941 0.01873,-1.39415 0.0058,-0.53684 0.01323,-1.07376 0.0058,-1.61062 -0.01101,-0.59485 -0.03295,-1.1894 -0.06939,-1.78328 -0.04171,-0.69573 -0.09419,-1.39074 -0.150582,-2.08543 -0.06529,-0.78719 -0.134967,-1.57406 -0.219903,-2.35941 -0.08273,-0.73118 -0.174956,-1.46167 -0.315339,-2.18443 -0.128746,-0.67034 -0.267115,-1.33942 -0.453903,-1.99642 -0.184862,-0.64253 -0.386593,-1.28029 -0.628213,-1.90405 -0.245078,-0.62467 -0.507056,-1.24302 -0.81421,-1.84013 -0.30021,-0.57697 -0.617152,-1.14593 -0.987632,-1.68144 -0.376491,-0.54187 -0.768673,-1.07342 -1.204722,-1.56944 -0.387368,-0.43396 -0.792353,-0.85398 -1.254866,-1.20938 -0.492482,-0.37211 -1.01306,-0.70382 -1.566862,-0.97823 -0.600856,-0.29874 -1.21399,-0.5739 -1.854459,-0.77774 -0.670465,-0.2123 -1.348706,-0.40135 -2.041046,-0.5288 -0.635694,-0.11367 -1.2762,-0.20576 -1.922915,-0.22146 -0.592074,-0.0109 -1.18423,0.0128 -1.768713,0.1164 -0.618445,0.10978 -1.231392,0.25092 -1.824715,0.46002 -0.632505,0.22637 -1.255231,0.48027 -1.848512,0.79739 -0.681064,0.36325 -1.346044,0.75623 -1.980073,1.19733 -0.678574,0.47476 -1.341453,0.97305 -1.95663,1.52871 -0.623393,0.57102 -1.224092,1.16817 -1.756524,1.82636 -0.550093,0.69368 -1.063495,1.41597 -1.502884,2.18577 -0.48787,0.85621 -0.939837,1.73207 -1.352756,2.62702 -0.412964,0.90193 -0.806913,1.81262 -1.15688,2.74111 -0.329166,0.87478 -0.647647,1.75389 -0.928553,2.64554 -0.251505,0.81308 -0.485335,1.63157 -0.680307,2.46027 -0.188209,0.79823 -0.367734,1.59877 -0.512889,2.40611 -0.136274,0.77631 -0.253749,1.55563 -0.361085,2.33646 -0.102362,0.73958 -0.199541,1.47983 -0.291105,2.22083 -0.0931,0.72241 -0.191818,1.44417 -0.313341,2.16244 -0.102899,0.60543 -0.212939,1.20975 -0.343823,1.80984 -0.115856,0.515 -0.241835,1.02873 -0.423074,1.52534 -0.300411,0.78145 -0.701268,1.50827 -1.351818,2.05795 -1.132683,0.8222 -2.090435,1.11476 -3.483144,0.81464 -0.605279,-0.18288 -1.183613,-0.42589 -1.688422,-0.81521 -0.226494,-0.16527 -0.451165,-0.33302 -0.676746,-0.49952 -0.277826,-0.2056 -0.555713,-0.41112 -0.833023,-0.61741 -0.336407,-0.25102 -0.672643,-0.50228 -1.010373,-0.75152 -0.405133,-0.29922 -0.809621,-0.5994 -1.220631,-0.89055 -0.498234,-0.35283 -0.99907,-0.70199 -1.502454,-1.04744 -0.569273,-0.38761 -1.142829,-0.76882 -1.716232,-1.15029 -0.602174,-0.39998 -1.205387,-0.79839 -1.806498,-1.19996 -0.570534,-0.38214 -1.139911,-0.76599 -1.709457,-1.1496 -0.504512,-0.33605 -1.012781,-0.66638 -1.520267,-0.99791 -0.395711,-0.25649 -0.791774,-0.51275 -1.199696,-0.74961 -0.363004,-0.21004 -0.730606,-0.41176 -1.098885,-0.61238 -0.375827,-0.20964 -0.749817,-0.42296 -1.112304,-0.65516 -0.314526,-0.20507 -0.624705,-0.41692 -0.92142,-0.6473 -0.200994,-0.15547 -0.403083,-0.3097 -0.598538,-0.47213 -0.220398,-0.18955 -0.434535,-0.38682 -0.626041,-0.60608 -3.2159434,-3.64954 1.945293,-8.19757 5.161236,-4.54803 z"
       inkscape:connector-curvature="0" />
    <path
       style="opacity:1;fill:#020900;fill-opacity:1;stroke:none;stroke-width:1;stroke-linecap:butt;stroke-linejoin:round;stroke-miterlimit:4;stroke-dasharray:none;stroke-opacity:1"
       id="path1255"
       d="m 32.165866,220.7471 c 0,-0.0777 0,-0.15547 0,-0.2332 0,-0.0635 0,-0.12692 0,-0.19038 0,-0.0506 0,-0.10122 0,-0.15182 -0.04568,-2.34792 6.879167,-2.27913 6.879167,0.0742 2.65e-4,0.21818 -1.11e-4,0.43636 -0.0016,0.65455 -0.0024,0.3069 -0.0045,0.6138 -0.0063,0.9207 -0.0016,0.3493 -0.0057,0.69858 -0.0013,1.04787 0.0035,0.30533 0.02437,0.60996 0.05367,0.91378 0.03309,0.32284 0.08289,0.64362 0.14034,0.96293 0.05978,0.33143 0.142142,0.65799 0.234453,0.98166 0.09039,0.32506 0.21609,0.63809 0.3474,0.94829 0.145833,0.34186 0.319908,0.67028 0.505542,0.99188 0.175583,0.30012 0.388845,0.57523 0.604898,0.84676 0.314556,0.38874 0.645287,0.76397 0.974672,1.1401 0.330055,0.38204 0.679059,0.7466 1.036445,1.10295 0.376629,0.3737 0.774639,0.72486 1.172281,1.0758 0.435896,0.3878 0.875472,0.77133 1.322142,1.14666 0.429791,0.35671 0.869897,0.70069 1.315955,1.03674 0.412195,0.31008 0.841134,0.59631 1.28247,0.86294 0.476388,0.2846 0.973865,0.53097 1.476211,0.76576 0.566999,0.26353 1.154615,0.47709 1.746538,0.67661 0.620038,0.21064 1.251884,0.38056 1.893359,0.5108 0.58394,0.11205 1.177517,0.1562 1.770425,0.18592 0.558485,0.0281 1.116795,0.001 1.672751,-0.052 0.538176,-0.0572 1.070597,-0.15552 1.597631,-0.27699 0.480666,-0.11267 0.945491,-0.27828 1.400294,-0.46836 0.442343,-0.18902 0.856004,-0.43424 1.258361,-0.69596 0.412938,-0.27011 0.798883,-0.57775 1.170852,-0.90118 0.351566,-0.3073 0.675746,-0.64345 0.993146,-0.98534 0.273888,-0.29349 0.524057,-0.60698 0.761283,-0.93042 0.217876,-0.301 0.410678,-0.61871 0.596378,-0.9402 0.163613,-0.28387 0.306634,-0.57861 0.431441,-0.88137 0.12963,-0.31839 0.232711,-0.64656 0.329176,-0.97623 0.107376,-0.36709 0.186036,-0.74153 0.262059,-1.11609 0.07848,-0.38574 0.136774,-0.77504 0.188645,-1.16512 0.04755,-0.3591 0.07664,-0.72013 0.103071,-1.08127 0.02387,-0.32903 0.04644,-0.65815 0.05824,-0.98786 0.01154,-0.28374 0.01296,-0.56765 0.01183,-0.85157 -0.0019,-0.26046 -0.0031,-0.52094 -0.0067,-0.78139 -0.0013,-0.15971 -0.01079,-0.3191 -0.02299,-0.4783 -0.01331,-0.16753 -0.0271,-0.33503 -0.04291,-0.50235 -0.01447,-0.13786 -0.02983,-0.27563 -0.04509,-0.4134 -0.01394,-0.12579 -0.02791,-0.25158 -0.04188,-0.37736 -0.0123,-0.10995 -0.02439,-0.21991 -0.03592,-0.32993 -0.0089,-0.10105 -0.01971,-0.19137 -0.03113,-0.29298 -0.0048,-0.0557 -0.01479,-0.12884 -0.02058,-0.16697 -0.01125,-0.0708 -0.02281,-0.14152 -0.03436,-0.21226 -0.01058,-0.0648 -0.02117,-0.12965 -0.03177,-0.19448 -0.03322,-0.14404 0.05915,0.24314 0.06892,0.28047 0.270354,0.91901 0.928701,1.59954 1.763276,2.03213 0.177234,0.0823 0.363252,0.14056 0.554558,0.17794 0.10953,0.0146 -0.152818,0.0124 -0.172455,0.013 -0.25073,0.007 -0.500965,0.0254 -0.751216,0.0419 -0.379243,0.0255 -0.758774,0.0462 -1.13839,0.0652 -0.426075,0.0208 -0.85234,0.0373 -1.278642,0.0525 -0.446032,0.0153 -0.891865,0.0357 -1.337757,0.0546 -0.510262,0.0222 -1.020731,0.0388 -1.53126,0.0533 -0.557154,0.0153 -1.114383,0.0278 -1.671656,0.0379 -0.608007,0.0101 -1.216094,0.014 -1.824175,0.0122 -0.613212,-0.002 -1.226339,-0.011 -1.839407,-0.0238 -0.569299,-0.0135 -1.138574,-0.0281 -1.70787,-0.0418 -0.53154,-0.0129 -1.063119,-0.0241 -1.594712,-0.0346 -0.511903,-0.0104 -1.023877,-0.0168 -1.53584,-0.0232 -0.516083,-0.007 -1.032209,-0.009 -1.548323,-0.0123 -0.552117,-0.003 -1.104236,-0.006 -1.656358,-0.008 -0.578628,-0.002 -1.157259,-0.004 -1.735889,-0.006 -0.605925,-0.001 -1.211839,-0.005 -1.817756,-0.008 -0.613363,-0.004 -1.22673,-0.007 -1.840098,-0.01 -0.597326,-0.003 -1.194655,-0.005 -1.791981,-0.008 -0.54374,-0.002 -1.087482,-0.004 -1.631222,-0.006 -0.459687,-0.002 -0.919377,-0.003 -1.379067,-0.005 -0.375028,-0.001 -0.750054,-0.003 -1.125082,-0.004 -0.300911,-0.001 -0.601821,-0.002 -0.902732,-0.003 -0.240784,-8e-4 -0.481565,-0.002 -0.722347,-0.002 -0.195746,-8e-4 -0.39149,-0.001 -0.587237,-0.002 -0.156647,-5.2e-4 -0.313296,-0.001 -0.469942,-0.002 -0.124865,-5.3e-4 -0.24973,-8e-4 -0.374595,-0.001 -0.09952,-2.6e-4 -0.199041,-7.9e-4 -0.298561,-10e-4 -0.07932,-2.7e-4 -0.158642,-5.3e-4 -0.237961,-8e-4 -0.06322,-2.1e-4 -0.126439,-5.3e-4 -0.189659,-5.3e-4 -0.05039,-1.7e-4 -0.100777,-2.6e-4 -0.151164,-5.3e-4 -0.04016,-1.3e-4 -0.08032,-2.6e-4 -0.120481,-5.3e-4 -0.164139,0.002 -0.326249,-0.0157 -0.490881,-0.0261 -4.829403,-0.58168 -4.006784,-7.41149 0.822616,-6.82981 v 0 c -0.696566,-0.042 -0.461738,-0.0213 -0.308681,-0.0232 0.04016,1.4e-4 0.08032,2.7e-4 0.12048,4e-4 0.05039,1.7e-4 0.100775,3.4e-4 0.151165,5e-4 0.06322,2.1e-4 0.126439,4.3e-4 0.189658,6.4e-4 0.07932,2.6e-4 0.158642,5.3e-4 0.237961,7.9e-4 0.09952,3.5e-4 0.199041,6.6e-4 0.298561,0.001 0.124865,4.2e-4 0.24973,8.4e-4 0.374595,0.001 0.156652,5.3e-4 0.313303,0.001 0.469953,0.002 0.195889,6.6e-4 0.391779,0.001 0.587668,0.002 0.240829,8.2e-4 0.481658,0.002 0.722487,0.002 0.300977,0.001 0.601951,0.002 0.902928,0.003 0.375084,0.001 0.750168,0.003 1.125254,0.004 0.460058,0.002 0.920118,0.003 1.380178,0.005 0.544502,0.002 1.089004,0.004 1.633506,0.006 0.599077,0.002 1.198155,0.005 1.79723,0.008 0.615616,0.003 1.231233,0.006 1.846844,0.01 0.600184,0.003 1.200367,0.007 1.800559,0.008 0.580988,0.002 1.161976,0.004 1.742958,0.006 0.555747,0.002 1.111491,0.005 1.667232,0.008 0.531464,0.003 1.062935,0.006 1.594366,0.0128 0.528704,0.007 1.057413,0.0133 1.58605,0.024 0.541322,0.0107 1.082628,0.0221 1.623897,0.0353 0.562006,0.0135 1.123997,0.0279 1.686007,0.0413 0.572817,0.012 1.145685,0.0204 1.718638,0.0223 0.559107,0.002 1.118216,-0.002 1.677257,-0.0111 0.533492,-0.01 1.066943,-0.0216 1.600322,-0.0362 0.478856,-0.0136 0.957654,-0.029 1.436256,-0.0499 0.460541,-0.0194 0.921022,-0.0405 1.381712,-0.0563 0.39416,-0.0141 0.788292,-0.0293 1.182246,-0.0484 0.34322,-0.0171 0.686363,-0.0358 1.029242,-0.0588 0.341736,-0.0225 0.683527,-0.0455 1.025951,-0.0545 0.396576,-0.01 0.794295,-0.0115 1.188887,0.0361 0.473943,0.0629 0.943202,0.16067 1.382638,0.35586 0.962009,0.48201 1.73464,1.22229 2.047833,2.28023 0.05261,0.19545 0.104902,0.39087 0.132633,0.59175 0.01069,0.0654 0.02135,0.13072 0.03203,0.19608 0.01511,0.0925 0.03026,0.18501 0.0447,0.27762 0.02225,0.14678 0.04185,0.29392 0.05706,0.4416 0.01297,0.11546 0.02638,0.23087 0.03693,0.34657 0.0099,0.095 0.02053,0.18999 0.03108,0.28495 0.01405,0.12645 0.02808,0.2529 0.04211,0.37935 0.01939,0.17514 0.03909,0.35026 0.05659,0.5256 0.01998,0.21261 0.03779,0.42541 0.05436,0.63831 0.0217,0.29735 0.03809,0.59508 0.0412,0.89328 0.0038,0.28331 0.0055,0.56664 0.0073,0.84997 0.0013,0.37857 -0.0016,0.75715 -0.01664,1.13548 -0.01593,0.41163 -0.04106,0.82273 -0.07188,1.23352 -0.0367,0.49787 -0.07934,0.99541 -0.14546,1.49038 -0.07328,0.54427 -0.15626,1.08732 -0.266295,1.62554 -0.116129,0.56816 -0.240705,1.13502 -0.405379,1.69143 -0.170828,0.5749 -0.355957,1.14612 -0.58769,1.69983 -0.242385,0.56919 -0.508876,1.12788 -0.82096,1.66265 -0.314311,0.53967 -0.643186,1.07128 -1.013322,1.57492 -0.393687,0.53038 -0.806715,1.04615 -1.258274,1.5289 -0.489743,0.52515 -0.99328,1.03808 -1.536602,1.50849 -0.618254,0.53037 -1.25807,1.03615 -1.943475,1.47805 -0.755836,0.48249 -1.535092,0.92954 -2.365489,1.27285 -0.810736,0.32951 -1.637504,0.61982 -2.492415,0.81356 -0.821229,0.18408 -1.649854,0.33662 -2.48825,0.41816 -0.885259,0.0791 -1.774002,0.11908 -2.662592,0.0714 -0.941385,-0.0509 -1.882672,-0.13229 -2.808084,-0.32005 -0.914172,-0.19229 -1.818084,-0.42791 -2.702438,-0.73092 -0.835237,-0.28398 -1.663337,-0.59044 -2.462906,-0.96506 -0.72554,-0.34173 -1.443228,-0.70156 -2.130001,-1.11693 -0.6344,-0.38807 -1.254916,-0.79828 -1.848279,-1.24722 -0.542316,-0.40961 -1.078084,-0.82797 -1.600173,-1.2632 -0.488649,-0.41114 -0.970555,-0.83006 -1.447533,-1.2547 -0.503682,-0.44477 -1.005906,-0.89186 -1.481836,-1.36657 -0.464667,-0.46502 -0.919049,-0.94018 -1.349499,-1.43731 -0.405302,-0.46287 -0.811268,-0.9255 -1.195872,-1.40589 -0.426725,-0.54192 -0.837322,-1.09788 -1.179978,-1.69788 -0.321858,-0.56578 -0.624197,-1.14294 -0.876578,-1.74357 -0.238808,-0.57151 -0.460949,-1.15043 -0.626642,-1.74801 -0.151506,-0.54245 -0.288036,-1.08921 -0.38603,-1.64418 -0.08871,-0.50478 -0.166822,-1.0116 -0.215979,-1.52196 -0.04524,-0.49085 -0.07836,-0.98287 -0.08323,-1.47597 -0.0043,-0.38966 -0.0016,-0.77931 0.0011,-1.16898 0.0019,-0.30901 0.0039,-0.61802 0.0064,-0.92704 0.0013,-0.20232 0.0019,-0.40465 0.0013,-0.60698 0,-2.35328 6.924849,-2.42207 6.879166,-0.0742 0,0.0506 0,0.10121 0,0.15182 0,0.0635 0,0.12692 0,0.19038 0,0.0777 0,0.15546 0,0.2332 0,4.8643 -6.879166,4.8643 -6.879166,0 z"
       inkscape:connector-curvature="0" />
  </g>
</svg>
