<svg viewBox="0 0 100 100"><path style="opacity:1;fill:#020900;fill-opacity:1;stroke:none;stroke-width:1;stroke-linecap:butt;stroke-linejoin:round;stroke-miterlimit:4;stroke-dasharray:none;stroke-opacity:1" d="M15.953 271.446c-.024-.03-.053-.06-.078-.087l.35.272q.222.168.457.317c.234.147.475.283.716.417q.6.325 1.193.665c.51.295 1.005.613 1.5.933q.797.52 1.59 1.045.863.582 1.726 1.16l1.784 1.186q.894.591 1.782 1.194.807.554 1.606 1.119c.448.318.89.645 1.333.972q.52.385 1.037.771l.811.601q.317.236.636.47c.01.007.025.03.03.02.03-.054-.624-.29-.672-.306-.96-.259-1.855.02-2.65.568a2.7 2.7 0 0 0-.686.83c.065-.21.112-.422.16-.635.104-.484.192-.972.275-1.46.106-.628.191-1.26.272-1.89q.142-1.144.3-2.286.176-1.293.4-2.579c.167-.939.374-1.87.592-2.798.23-.98.507-1.95.803-2.912a58 58 0 0 1 1.063-3.037 50 50 0 0 1 1.34-3.181 42 42 0 0 1 1.627-3.163c.608-1.073 1.321-2.078 2.081-3.047.756-.948 1.611-1.807 2.5-2.629.836-.763 1.738-1.447 2.663-2.098a27 27 0 0 1 2.682-1.63c.887-.477 1.818-.861 2.763-1.205.951-.343 1.935-.574 2.928-.758 1.02-.187 2.053-.236 3.086-.227 1.019.016 2.028.15 3.03.324.988.177 1.956.443 2.913.742.978.307 1.917.72 2.836 1.171.928.455 1.796 1.014 2.626 1.626.832.622 1.566 1.357 2.262 2.125.63.707 1.196 1.465 1.737 2.24.54.774 1.004 1.595 1.442 2.43a27 27 0 0 1 1.118 2.505c.322.824.59 1.667.836 2.516.247.857.431 1.73.6 2.604.175.897.293 1.803.396 2.71.093.855.17 1.71.24 2.567q.094 1.12.162 2.241.063 1.033.08 2.067c.01.605.003 1.21-.004 1.815q-.007.717-.02 1.433l-.019 1.157q-.008.493-.02.985l-.019.836c-.003.269-.016.537-.03.805l-.03.589-.025.464q-.011.22-.027.44l-.022.306-.018.238-.014.19c-.014.295-.084.528-.152.825-1.417 4.653-7.998 2.65-6.58-2.004-.13.583-.085.297-.13.704-.002.009 0-.019.002-.028l.014-.19.017-.238.021-.293q.012-.154.02-.31l.024-.468.03-.572q.017-.303.023-.607l.019-.847q.011-.47.019-.94l.02-1.155q.011-.697.018-1.395c.006-.536.013-1.073.006-1.61a42 42 0 0 0-.07-1.783 99 99 0 0 0-.15-2.086 95 95 0 0 0-.22-2.36 28 28 0 0 0-.315-2.184c-.129-.67-.267-1.34-.454-1.996a22 22 0 0 0-.628-1.904 20 20 0 0 0-.815-1.84c-.3-.577-.617-1.146-.987-1.682a17 17 0 0 0-1.205-1.57c-.387-.433-.792-.853-1.255-1.209a10 10 0 0 0-1.567-.978c-.6-.299-1.214-.574-1.854-.778a17 17 0 0 0-2.041-.528c-.636-.114-1.276-.206-1.923-.222a9 9 0 0 0-1.769.117c-.618.11-1.231.25-1.824.46-.633.226-1.256.48-1.849.797a20 20 0 0 0-3.937 2.726c-.623.571-1.224 1.168-1.756 1.826a17.5 17.5 0 0 0-1.503 2.186q-.733 1.284-1.353 2.627a43 43 0 0 0-1.157 2.741 52 52 0 0 0-.928 2.646 37 37 0 0 0-.68 2.46 46 46 0 0 0-.513 2.406 64 64 0 0 0-.362 2.337q-.154 1.11-.29 2.22a55 55 0 0 1-.314 2.163c-.103.605-.213 1.21-.344 1.81a12 12 0 0 1-.423 1.525c-.3.782-.701 1.508-1.352 2.058-1.132.822-2.09 1.115-3.483.815-.605-.183-1.183-.426-1.688-.815l-.677-.5-.833-.617q-.504-.377-1.01-.752c-.406-.3-.81-.6-1.221-.89q-.748-.53-1.502-1.048-.856-.58-1.717-1.15l-1.806-1.2-1.71-1.15c-.504-.336-1.012-.666-1.52-.998a29 29 0 0 0-1.2-.75 49 49 0 0 0-1.099-.612 21 21 0 0 1-1.112-.655 14 14 0 0 1-.921-.647c-.201-.156-.403-.31-.599-.472a6 6 0 0 1-.626-.606c-3.216-3.65 1.945-8.198 5.161-4.548m16.213-50.699v-.575c-.046-2.348 6.879-2.28 6.879.074l-.002.654-.006.921c-.001.35-.006.699-.001 1.048a11 11 0 0 0 .194 1.877c.06.331.142.658.234.981.09.325.216.638.348.949.146.342.32.67.505.992.176.3.39.575.605.846.315.39.645.764.975 1.14.33.382.679.747 1.036 1.103.377.374.775.725 1.173 1.076q.652.582 1.322 1.147.646.534 1.316 1.037.618.464 1.282.863c.476.284.974.53 1.476.765.567.264 1.155.477 1.747.677q.93.315 1.893.51c.584.113 1.178.157 1.77.187.56.028 1.117 0 1.673-.052a14 14 0 0 0 1.598-.277 9 9 0 0 0 1.4-.469 8.3 8.3 0 0 0 1.259-.696c.413-.27.799-.577 1.17-.9.352-.308.676-.644.994-.986.274-.294.524-.607.761-.93.218-.302.41-.62.596-.94q.245-.428.432-.882c.13-.319.232-.647.329-.976a14 14 0 0 0 .262-1.117 17 17 0 0 0 .292-2.246q.038-.493.058-.988c.012-.284.013-.567.012-.851q-.002-.39-.007-.782-.002-.24-.023-.478l-.043-.502-.045-.414-.078-.707c-.009-.101-.02-.191-.03-.293a3 3 0 0 0-.021-.167l-.035-.212q-.015-.098-.032-.195c-.033-.144.06.243.07.28.27.92.928 1.6 1.763 2.033q.267.122.554.178c.11.014-.153.012-.172.013-.251.007-.501.025-.751.042q-.57.037-1.139.065-.639.03-1.278.052-.67.025-1.338.055-.765.032-1.532.053-.836.023-1.671.038a93 93 0 0 1-3.664-.011q-.853-.022-1.708-.042l-1.594-.035q-.768-.014-1.536-.023-.774-.009-1.548-.012l-1.657-.008-1.736-.006q-.91-.002-1.817-.008l-1.84-.01-1.793-.008-1.63-.006-1.38-.005-1.125-.004-.903-.003-.722-.002-.587-.002-.47-.002-.375-.001-.298-.001-.238-.001h-.19l-.151-.001h-.12c-.165.001-.327-.016-.492-.027-4.829-.582-4.006-7.411.823-6.83-.696-.042-.462-.02-.309-.023H33l.152.001h.19l.238.001.298.001.375.001.47.002.587.002.723.002.903.003 1.125.004 1.38.005 1.634.006 1.797.008 1.847.01 1.8.008 3.41.014q.798.004 1.595.013.793.01 1.586.024.812.016 1.624.036l1.686.04q.86.02 1.719.023.838.002 1.677-.01.8-.015 1.6-.037.719-.02 1.436-.05.691-.031 1.382-.056.591-.02 1.182-.049.516-.025 1.03-.059c.341-.022.683-.045 1.026-.054.396-.01.794-.012 1.188.036.474.063.944.16 1.383.356.962.482 1.735 1.222 2.048 2.28.053.196.105.391.133.592q.014.097.032.196l.044.278q.034.22.057.441.02.174.037.347l.031.285.042.38q.03.262.057.525.03.318.054.638c.022.297.039.595.042.893l.007.85a26 26 0 0 1-.089 2.37 24 24 0 0 1-.412 3.116 20 20 0 0 1-.405 1.69c-.17.576-.356 1.147-.587 1.7-.243.57-.51 1.128-.821 1.663-.315.54-.644 1.071-1.014 1.575a17 17 0 0 1-1.258 1.529c-.49.525-.993 1.038-1.537 1.508a18 18 0 0 1-1.943 1.478c-.756.483-1.535.93-2.366 1.273-.81.33-1.637.62-2.492.814a20 20 0 0 1-2.488.418c-.885.08-1.774.12-2.663.071-.941-.05-1.882-.132-2.808-.32a23 23 0 0 1-2.702-.73 24 24 0 0 1-2.463-.966 23 23 0 0 1-2.13-1.117 23 23 0 0 1-1.848-1.247 43 43 0 0 1-1.6-1.263q-.734-.617-1.448-1.255a33 33 0 0 1-1.482-1.366 28 28 0 0 1-1.35-1.438c-.405-.462-.81-.925-1.195-1.405-.427-.542-.838-1.098-1.18-1.698a16 16 0 0 1-.877-1.744c-.239-.571-.46-1.15-.627-1.748a17 17 0 0 1-.386-1.644 20 20 0 0 1-.216-1.522c-.045-.49-.078-.983-.083-1.476q-.004-.585.001-1.169l.007-.927q.002-.304.001-.607c0-2.353 6.925-2.422 6.88-.074v.575c0 4.864-6.88 4.864-6.88 0" transform="translate(0 -197)"/></svg>