<svg viewBox="0 0 100 100"><path style="opacity:1;fill:#020900;fill-opacity:1;stroke:none;stroke-width:1;stroke-linecap:butt;stroke-linejoin:round;stroke-miterlimit:4;stroke-dasharray:none;stroke-opacity:1" d="M53.767 211.101a4 4 0 0 0-.217-.036 67 67 0 0 0-.878-.11 14 14 0 0 0-1.24-.097 28 28 0 0 0-1.805.031c-.767.034-1.53.11-2.291.2a56 56 0 0 0-2.793.44 47 47 0 0 0-3.157.675c-1.123.28-2.227.63-3.323 1.003-1.17.397-2.308.878-3.43 1.394-1.208.557-2.363 1.22-3.498 1.913-1.188.727-2.307 1.557-3.398 2.422-1.105.88-2.123 1.862-3.11 2.87-.982 1.004-1.884 2.08-2.744 3.187-.818 1.058-1.521 2.195-2.179 3.358-.672 1.184-1.2 2.438-1.674 3.712-.518 1.43-.893 2.903-1.237 4.382a63 63 0 0 0-.896 4.95c-.243 1.681-.365 3.375-.435 5.07-.063 1.642.003 3.285.12 4.923.113 1.58.365 3.143.681 4.692.317 1.523.77 3.01 1.28 4.477.497 1.412 1.141 2.762 1.843 4.081.695 1.294 1.536 2.498 2.426 3.663.943 1.213 2.004 2.324 3.096 3.402 1.15 1.128 2.406 2.135 3.685 3.11 1.357 1.03 2.777 1.97 4.219 2.876 1.474.925 3.01 1.744 4.565 2.522 1.578.778 3.197 1.466 4.828 2.125a53 53 0 0 0 4.778 1.663c1.41.42 2.86.655 4.321.788 1.365.116 2.732.038 4.09-.11 1.38-.163 2.732-.49 4.064-.88 1.384-.409 2.697-1.008 3.97-1.68 1.444-.785 2.782-1.742 4.093-2.729 1.395-1.063 2.718-2.215 4.01-3.4 1.229-1.13 2.374-2.344 3.471-3.601 1.07-1.223 1.986-2.564 2.84-3.942.886-1.463 1.648-2.994 2.39-4.532a72 72 0 0 0 1.923-4.4c.535-1.32.96-2.678 1.334-4.05.354-1.319.599-2.662.805-4.01.19-1.22.273-2.452.3-3.686.02-1.156-.075-2.308-.205-3.455-.139-1.206-.38-2.396-.656-3.577a30 30 0 0 0-1-3.293 34 34 0 0 0-1.261-2.939 43 43 0 0 0-1.431-2.68 61 61 0 0 0-1.586-2.574 33 33 0 0 0-1.585-2.229 34 34 0 0 0-1.632-1.932 43 43 0 0 0-1.7-1.761 77 77 0 0 0-1.678-1.613 64 64 0 0 0-1.557-1.39c-.473-.413-.96-.81-1.448-1.204a77 77 0 0 0-1.35-1.081c-.366-.283-.743-.55-1.123-.812a19 19 0 0 0-1.023-.652 19 19 0 0 0-1.92-.97c-.32-.14-.642-.272-.963-.405l-.913-.38q-.359-.144-.724-.275a23 23 0 0 1-1.991-.792c-.266-.119-.53-.238-.8-.347a4 4 0 0 0-.546-.176 13 13 0 0 0-.98-.18c-.323-.029-.652-.128-.974-.113l.078.008c-4.845.432-5.455-6.42-.61-6.852l.564-.035q1.01.023 2.006.196c.562.089 1.125.184 1.677.326.47.127.937.27 1.388.458q.484.2.963.416c.257.113.514.226.775.33.261.102.523.202.789.291q.497.18.987.378.467.192.933.388.556.226 1.106.464a25 25 0 0 1 2.68 1.363q.715.424 1.4.894c.49.337.973.68 1.442 1.045q.735.575 1.457 1.166a58 58 0 0 1 1.64 1.363c.584.51 1.165 1.023 1.733 1.551a85 85 0 0 1 1.827 1.756c.674.669 1.34 1.345 1.975 2.05.68.759 1.345 1.53 1.967 2.336.668.871 1.312 1.76 1.906 2.684a68 68 0 0 1 1.782 2.894 50 50 0 0 1 1.673 3.144c.554 1.17 1.082 2.353 1.524 3.57.474 1.33.9 2.676 1.222 4.051.336 1.445.627 2.9.794 4.376.16 1.454.276 2.914.245 4.38-.038 1.53-.142 3.057-.378 4.57-.248 1.61-.544 3.212-.97 4.785-.447 1.625-.951 3.234-1.586 4.797a79 79 0 0 1-2.11 4.823c-.85 1.758-1.725 3.507-2.743 5.175-1.055 1.691-2.186 3.335-3.502 4.836-1.267 1.446-2.586 2.846-4.004 4.145-1.457 1.334-2.949 2.631-4.523 3.827-1.608 1.208-3.256 2.37-5.032 3.323-1.685.879-3.42 1.662-5.248 2.194-1.72.497-3.466.913-5.25 1.114-1.817.19-3.645.283-5.47.119-1.902-.185-3.791-.491-5.627-1.041a60 60 0 0 1-5.4-1.881c-1.8-.728-3.588-1.49-5.329-2.351-1.754-.879-3.484-1.805-5.146-2.85-1.618-1.016-3.211-2.073-4.733-3.23-1.51-1.155-2.992-2.352-4.348-3.688-1.319-1.305-2.598-2.654-3.732-4.126-1.114-1.466-2.165-2.982-3.033-4.61-.862-1.631-1.653-3.3-2.262-5.046-.608-1.758-1.148-3.54-1.523-5.364-.372-1.843-.67-3.7-.803-5.577-.132-1.895-.205-3.794-.13-5.694.081-1.93.223-3.859.5-5.773.27-1.852.585-3.698 1.004-5.523.413-1.766.869-3.524 1.494-5.228.605-1.613 1.281-3.201 2.135-4.701.826-1.449 1.708-2.866 2.732-4.185 1.025-1.314 2.096-2.59 3.263-3.781 1.191-1.211 2.419-2.388 3.75-3.445 1.313-1.036 2.66-2.03 4.088-2.903 1.366-.831 2.758-1.624 4.213-2.292 1.337-.612 2.693-1.183 4.086-1.655 1.283-.434 2.575-.843 3.89-1.169a54 54 0 0 1 3.603-.769 62 62 0 0 1 3.185-.497c.93-.109 1.862-.2 2.798-.24.781-.034 1.563-.056 2.344-.034.605.023 1.209.067 1.81.141q.555.065 1.11.141c.243.038.486.079.727.135 4.738 1.098 3.185 7.8-1.554 6.701" transform="translate(0 -197)"/><path style="opacity:1;fill:#020900;fill-opacity:1;stroke:none;stroke-width:1;stroke-linecap:butt;stroke-linejoin:round;stroke-miterlimit:4;stroke-dasharray:none;stroke-opacity:1" d="M28.516 229.59c.46.24.856.577 1.235.927.359.337.7.693 1.04 1.048q.638.664 1.257 1.345c.505.558.99 1.133 1.476 1.707a96 96 0 0 0 2.906 3.26q.66.712 1.317 1.425.551.595 1.113 1.179c.349.358.7.712 1.05 1.07q.522.53 1.035 1.072.467.493.94.98.401.413.805.824l.667.677q.376.37.721.769l.229.306c2.794 3.982-2.837 7.933-5.631 3.951l.114.142c.19.201-.299-.311-.332-.338l-.675-.686q-.425-.431-.846-.866-.495-.51-.983-1.025a77 77 0 0 0-.959-.994c-.362-.37-.726-.736-1.087-1.107a93 93 0 0 1-1.206-1.278l-1.313-1.42a103 103 0 0 1-3.115-3.496c-.432-.51-.862-1.021-1.31-1.518a65 65 0 0 0-1.145-1.224c-.248-.26-.495-.52-.755-.768-.196-.187.198.135.258.13-4.308-2.257-1.115-8.35 3.194-6.092" transform="translate(0 -197)"/><path style="opacity:1;fill:#020900;fill-opacity:1;stroke:none;stroke-width:1;stroke-linecap:butt;stroke-linejoin:round;stroke-miterlimit:4;stroke-dasharray:none;stroke-opacity:1" d="M39.92 225.943q.175.063.347.133c.617.261 1.179.667 1.577 1.213.146.201.256.427.384.64.456 1.003.413 2.036.082 3.058-.152.419-.337.824-.527 1.226-.238.498-.515.977-.796 1.452a34 34 0 0 0-.822 1.429q-.468.854-.92 1.719-.511.992-1.033 1.98c-.367.692-.738 1.381-1.103 2.074-.344.66-.674 1.326-1.002 1.994a69 69 0 0 0-.86 1.83 86 86 0 0 0-.708 1.612q-.302.704-.6 1.409-.243.58-.48 1.163l-.4.979c-.13.317-.273.63-.417.94q-.166.35-.334.698l-.257.53q-.119.25-.245.497l-.203.389-.035.065c-2.164 4.356-8.325 1.296-6.16-3.06q.052-.106.108-.21.083-.155.163-.311.094-.187.185-.376l.25-.515.289-.604c.1-.217.201-.435.293-.656l.395-.968q.252-.618.509-1.235.307-.726.619-1.451.376-.88.77-1.751a72 72 0 0 1 .943-2.006c.355-.725.714-1.448 1.088-2.164.367-.697.74-1.391 1.11-2.087q.515-.978 1.022-1.96.486-.93.99-1.848c.3-.546.606-1.09.931-1.622.175-.293.35-.587.5-.895.072-.151.185-.408.235-.51-.2.722-.1 1.464.21 2.144.42.68.865 1.256 1.633 1.55.068.027-.048-.018-.078-.028-4.572-1.66-2.226-8.126 2.347-6.467m16.39.204c.169.225.324.46.477.697q.295.474.596.947.317.494.668.964c.285.388.584.765.884 1.14.354.44.715.876 1.075 1.312q.565.691 1.161 1.355.677.748 1.364 1.487c.46.491.929.973 1.395 1.458q.649.678 1.31 1.345.588.6 1.173 1.201.542.566 1.063 1.152.435.493.864.99c.232.269.46.54.692.808l.546.633q.212.248.426.492.192.217.382.437l.3.352.227.27.142.163c-.264-.286-.066-.082-.644-.56 4.071 2.662.307 8.42-3.764 5.759-.652-.529-.418-.295-.753-.65a14 14 0 0 1-.228-.265l-.228-.268-.271-.32q-.166-.192-.335-.383l-.461-.531-.56-.65-.678-.791q-.394-.456-.793-.91-.426-.48-.869-.942-.563-.58-1.13-1.158-.692-.697-1.37-1.407c-.494-.514-.992-1.024-1.478-1.545q-.73-.785-1.45-1.581a46 46 0 0 1-1.338-1.562c-.381-.461-.764-.922-1.138-1.39a42 42 0 0 1-1.052-1.357c-.322-.437-.635-.88-.925-1.339q-.301-.47-.595-.945c-.036-.056-.15-.225-.152-.232-2.953-3.866 2.514-8.041 5.466-4.176" transform="translate(0 -197)"/><path style="opacity:1;fill:#020900;fill-opacity:1;stroke:none;stroke-width:1;stroke-linecap:butt;stroke-linejoin:round;stroke-miterlimit:4;stroke-dasharray:none;stroke-opacity:1" d="M70.161 228.037c-.143.435-.36.84-.583 1.237a92 92 0 0 1-.746 1.265c-.353.59-.739 1.16-1.118 1.734a58 58 0 0 0-1.15 1.809q-.623 1.025-1.239 2.052a65 65 0 0 0-1.255 2.198c-.44.816-.874 1.637-1.315 2.454-.43.8-.867 1.596-1.301 2.393q-.588 1.08-1.179 2.157a1047 1047 0 0 0-1.807 3.32q-.325.607-.643 1.219l-.532 1.021-.428.822-.34.656-.272.522q-.093.176-.183.354l.084-.182c-1.802 4.518-8.192 1.97-6.39-2.549l.136-.311q.122-.244.25-.486l.271-.522.341-.656.428-.823.54-1.038q.339-.646.682-1.291.407-.754.818-1.506.503-.926 1.01-1.85l1.173-2.15q.647-1.18 1.287-2.366c.45-.833.891-1.67 1.342-2.502.447-.813.903-1.622 1.381-2.417q.635-1.058 1.275-2.115.62-1.015 1.277-2.007c.325-.49.655-.976.958-1.48q.328-.545.648-1.095c.094-.165.15-.288.037.01 1.502-4.627 8.045-2.503 6.543 2.123" transform="translate(0 -197)"/></svg>