<?xml version="1.0" encoding="UTF-8" standalone="no"?>
<!-- Created with Inkscape (http://www.inkscape.org/) -->

<svg
   xmlns:dc="http://purl.org/dc/elements/1.1/"
   xmlns:cc="http://creativecommons.org/ns#"
   xmlns:rdf="http://www.w3.org/1999/02/22-rdf-syntax-ns#"
   xmlns:svg="http://www.w3.org/2000/svg"
   xmlns="http://www.w3.org/2000/svg"
   xmlns:sodipodi="http://sodipodi.sourceforge.net/DTD/sodipodi-0.dtd"
   xmlns:inkscape="http://www.inkscape.org/namespaces/inkscape"
   width="10cm"
   height="10cm"
   viewBox="0 0 100 99.999997"
   version="1.1"
   id="svg8"
   sodipodi:docname="moli.svg"
   inkscape:version="0.92.3 (2405546, 2018-03-11)">
  <defs
     id="defs2" />
  <sodipodi:namedview
     id="base"
     pagecolor="#ffffff"
     bordercolor="#666666"
     borderopacity="1.0"
     inkscape:pageopacity="0.0"
     inkscape:pageshadow="2"
     inkscape:zoom="1"
     inkscape:cx="175.50186"
     inkscape:cy="160.37856"
     inkscape:document-units="cm"
     inkscape:current-layer="layer1"
     showgrid="true"
     units="cm"
     inkscape:window-width="882"
     inkscape:window-height="707"
     inkscape:window-x="784"
     inkscape:window-y="204"
     inkscape:window-maximized="0"
     inkscape:snap-nodes="false">
    <inkscape:grid
       type="xygrid"
       id="grid815"
       units="cm"
       spacingx="9.9999998"
       spacingy="9.9999998" />
  </sodipodi:namedview>
  <metadata
     id="metadata5">
    <rdf:RDF>
      <cc:Work
         rdf:about="">
        <dc:format>image/svg+xml</dc:format>
        <dc:type
           rdf:resource="http://purl.org/dc/dcmitype/StillImage" />
        <dc:title></dc:title>
      </cc:Work>
    </rdf:RDF>
  </metadata>
  <g
     inkscape:label="Layer 1"
     inkscape:groupmode="layer"
     id="layer1"
     transform="translate(0,-197.00002)">
    <path
       style="opacity:1;fill:#020900;fill-opacity:1;stroke:none;stroke-width:1;stroke-linecap:butt;stroke-linejoin:round;stroke-miterlimit:4;stroke-dasharray:none;stroke-opacity:1"
       id="path1697"
       d="m 53.76695,211.10144 c -0.01421,-0.005 -0.123651,-0.0222 -0.217414,-0.0364 -0.292253,-0.0386 -0.584819,-0.0747 -0.877549,-0.10946 -0.412154,-0.0491 -0.8255,-0.0854 -1.240403,-0.0978 -0.601864,-0.0131 -1.203767,0.005 -1.805004,0.0313 -0.76618,0.0337 -1.529315,0.11002 -2.290619,0.20015 -0.935459,0.11706 -1.864929,0.27584 -2.793093,0.43978 -1.060455,0.18523 -2.111557,0.41692 -3.156511,0.67458 -1.123741,0.28015 -2.227537,0.63126 -3.323637,1.00339 -1.169705,0.39749 -2.307558,0.87838 -3.429429,1.39376 -1.208683,0.5575 -2.363396,1.21994 -3.498297,1.91291 -1.188106,0.72754 -2.307166,1.55755 -3.397546,2.42252 -1.105906,0.88026 -2.123047,1.8619 -3.111306,2.87018 -0.980892,1.00375 -1.882726,2.07898 -2.742811,3.18674 -0.818189,1.05788 -1.521447,2.1952 -2.179335,3.35742 -0.671629,1.18443 -1.200122,2.43853 -1.673895,3.7125 -0.517889,1.42919 -0.893529,2.90312 -1.237516,4.38199 -0.373766,1.63607 -0.655123,3.29068 -0.895903,4.95088 -0.242286,1.68039 -0.365168,3.37366 -0.43462,5.06894 -0.06284,1.64255 0.0026,3.28517 0.119393,4.92352 0.113907,1.57925 0.365356,3.14225 0.681957,4.69209 0.316407,1.52223 0.768983,3.00978 1.280212,4.47644 0.496124,1.41189 1.140348,2.76224 1.842036,4.0816 0.694911,1.29394 1.536254,2.49759 2.426632,3.6625 0.942262,1.21319 2.003705,2.32438 3.095804,3.40184 1.149337,1.12805 2.405979,2.13568 3.685287,3.1105 1.356352,1.03003 2.776392,1.97048 4.218297,2.87519 1.47411,0.92531 3.009495,1.7448 4.565467,2.52219 1.577729,0.77798 3.196857,1.46655 4.827429,2.12484 1.565674,0.63127 3.15981,1.18587 4.778576,1.6636 1.409536,0.42011 2.85954,0.65456 4.321193,0.78837 1.364668,0.11556 2.731315,0.0378 4.089316,-0.11089 1.380799,-0.16301 2.732137,-0.49023 4.064248,-0.87984 1.384568,-0.40875 2.696631,-1.00736 3.969997,-1.67986 1.443931,-0.78515 2.782485,-1.7416 4.092776,-2.72892 1.394968,-1.06316 2.71795,-2.21531 4.009776,-3.40033 1.229482,-1.12927 2.375021,-2.34344 3.471799,-3.60061 1.069602,-1.22309 1.985941,-2.56365 2.840468,-3.94214 0.884968,-1.46248 1.646897,-2.99377 2.388863,-4.53219 0.695049,-1.44287 1.326099,-2.91491 1.923227,-4.40058 0.535286,-1.31907 0.95954,-2.67751 1.334481,-4.0495 0.35328,-1.31838 0.59848,-2.66135 0.804648,-4.00945 0.189252,-1.22063 0.273249,-2.45257 0.299937,-3.68637 0.02053,-1.15562 -0.07505,-2.3077 -0.204724,-3.45472 -0.138787,-1.20596 -0.379219,-2.39584 -0.655986,-3.57666 -0.264375,-1.118 -0.610775,-2.2131 -0.999427,-3.29336 -0.366879,-1.00199 -0.803423,-1.97598 -1.26171,-2.93887 -0.439852,-0.91303 -0.927738,-1.80158 -1.431066,-2.68082 -0.504899,-0.87218 -1.038232,-1.72739 -1.58578,-2.5733 -0.494532,-0.76694 -1.029282,-1.50621 -1.585648,-2.22913 -0.515905,-0.66725 -1.068347,-1.30462 -1.63173,-1.93184 -0.545954,-0.60665 -1.120219,-1.18665 -1.699562,-1.76116 -0.550931,-0.54644 -1.111437,-1.08302 -1.678527,-1.61263 -0.509564,-0.47395 -1.031743,-0.93397 -1.556424,-1.39102 -0.473041,-0.41268 -0.960139,-0.8087 -1.448023,-1.20357 -0.447384,-0.3638 -0.894911,-0.72735 -1.350383,-1.081 -0.365405,-0.28289 -0.742632,-0.54986 -1.123206,-0.81179 -0.333732,-0.2282 -0.674981,-0.44514 -1.022525,-0.65162 -0.318794,-0.18577 -0.644472,-0.35939 -0.973595,-0.52605 -0.310515,-0.15924 -0.627528,-0.30512 -0.947116,-0.44506 -0.318857,-0.13946 -0.641001,-0.2712 -0.962713,-0.40387 -0.304384,-0.12596 -0.607499,-0.25495 -0.912503,-0.37941 -0.239548,-0.0968 -0.481033,-0.18873 -0.724103,-0.27626 -0.320641,-0.10881 -0.636932,-0.22944 -0.952291,-0.35255 -0.349817,-0.138 -0.694579,-0.28826 -1.038879,-0.43938 -0.265528,-0.11853 -0.53072,-0.23788 -0.800195,-0.34723 -0.176922,-0.0731 -0.360042,-0.12858 -0.545476,-0.17521 -0.32367,-0.0766 -0.652518,-0.12835 -0.98095,-0.17951 -0.322615,-0.0294 -0.651788,-0.12898 -0.973675,-0.11348 0.02609,0.003 0.05215,0.005 0.07823,0.008 -4.845148,0.43127 -5.45506,-6.4208 -0.609909,-6.85207 v 0 c 0.188002,-0.0117 0.376007,-0.0234 0.564012,-0.0351 0.673999,0.0142 1.341321,0.0821 2.005999,0.19629 0.562444,0.0885 1.124731,0.18328 1.676519,0.32564 0.470953,0.12683 0.937506,0.27039 1.388428,0.45775 0.323442,0.13278 0.644048,0.27215 0.962676,0.41611 0.257143,0.11296 0.514384,0.22586 0.775229,0.33008 0.261241,0.10202 0.52324,0.20175 0.789127,0.29121 0.331092,0.12 0.660512,0.24469 0.986764,0.37734 0.312002,0.12757 0.622472,0.2588 0.933746,0.38813 0.369517,0.15239 0.739363,0.30411 1.105456,0.46463 0.437716,0.19254 0.872032,0.3929 1.297734,0.61095 0.467561,0.23811 0.930743,0.48512 1.382781,0.75175 0.475165,0.28438 0.943544,0.58006 1.399929,0.89388 0.488704,0.33693 0.972621,0.681 1.441712,1.04496 0.491077,0.38191 0.974926,0.77281 1.457216,1.16574 0.552389,0.44716 1.103241,0.89638 1.638766,1.36376 0.584615,0.50937 1.166053,1.02248 1.733621,1.55088 0.617334,0.57682 1.227709,1.16101 1.827525,1.75607 0.673605,0.66856 1.340321,1.34444 1.974815,2.05057 0.679514,0.75801 1.345116,1.52887 1.966934,2.33538 0.668057,0.87102 1.311751,1.76052 1.906439,2.68367 0.615027,0.95151 1.214671,1.91308 1.781226,2.8944 0.588991,1.03089 1.159377,2.07294 1.673,3.14384 0.554794,1.16958 1.081982,2.35311 1.524172,3.57059 0.474615,1.32913 0.899998,2.67563 1.222618,4.05063 0.335733,1.44454 0.626245,2.90025 0.793287,4.37519 0.161158,1.45423 0.275929,2.91491 0.245459,4.37953 -0.0377,1.53001 -0.14175,3.05794 -0.377983,4.57152 -0.248539,1.60885 -0.544677,3.21129 -0.969899,4.78409 -0.447302,1.62492 -0.951722,3.23416 -1.586468,4.79698 -0.655596,1.62805 -1.347293,3.2416 -2.109822,4.82286 -0.849241,1.75865 -1.725475,3.50695 -2.743012,5.17579 -1.054823,1.69097 -2.186086,3.33484 -3.50234,4.83595 -1.266161,1.44616 -2.58563,2.84537 -4.003522,4.14496 -1.456952,1.33394 -2.948844,2.63097 -4.522679,3.82652 -1.608725,1.20789 -3.256475,2.371 -5.032697,3.32332 -1.684547,0.87869 -3.418944,1.66168 -5.247654,2.19419 -1.721037,0.49639 -3.466594,0.91221 -5.249762,1.11338 -1.81702,0.19085 -3.645347,0.28357 -5.46949,0.11927 -1.903029,-0.18462 -3.792178,-0.49092 -5.627441,-1.0413 -1.828459,-0.54381 -3.632108,-1.16529 -5.400985,-1.88102 -1.799971,-0.72784 -3.587041,-1.48968 -5.328049,-2.35077 -1.753976,-0.87847 -3.484663,-1.80447 -5.146546,-2.849 -1.617755,-1.017 -3.210872,-2.07418 -4.732482,-3.23174 -1.510926,-1.15431 -2.991936,-2.35096 -4.348193,-3.68689 -1.318771,-1.30559 -2.597694,-2.65436 -3.732246,-4.1259 -1.113912,-1.46638 -2.164893,-2.98204 -3.032664,-4.6098 -0.862166,-1.63169 -1.653422,-3.30146 -2.262228,-5.04642 -0.608381,-1.75796 -1.1482062,-3.54028 -1.5232825,-5.36429 -0.3720176,-1.84244 -0.6696863,-3.69992 -0.802405,-5.57668 -0.1323647,-1.89475 -0.2057934,-3.79432 -0.1304734,-5.69365 0.081558,-1.93082 0.2227294,-3.85939 0.5003321,-5.77311 0.2702343,-1.8522 0.5850085,-3.69827 1.0041178,-5.52333 0.412949,-1.76558 0.868458,-3.5238 1.493271,-5.22825 0.605725,-1.61327 1.281693,-3.2008 2.135764,-4.70082 0.825189,-1.44891 1.707618,-2.86614 2.731932,-4.18469 1.024284,-1.31383 2.09612,-2.59064 3.262997,-3.78135 1.19076,-1.2112 2.418421,-2.38789 3.75054,-3.44465 1.311971,-1.03669 2.658438,-2.03109 4.087183,-2.90295 1.36651,-0.83147 2.757784,-1.62432 4.212773,-2.29261 1.337283,-0.61142 2.693019,-1.18303 4.086698,-1.65493 1.282475,-0.43407 2.574251,-0.84246 3.889068,-1.16841 1.193234,-0.29279 2.393075,-0.55781 3.603744,-0.76894 1.058051,-0.1866 2.11781,-0.36601 3.184401,-0.49729 0.930148,-0.109 1.862555,-0.20062 2.798556,-0.24094 0.780777,-0.0332 1.562489,-0.055 2.343962,-0.0335 0.605094,0.0231 1.208813,0.0674 1.809975,0.14159 0.37025,0.0441 0.740458,0.089 1.109681,0.14108 0.243456,0.0377 0.486648,0.0783 0.726681,0.13437 4.738634,1.09854 3.185057,7.79999 -1.55358,6.70144 z"
       inkscape:connector-curvature="0" />
    <path
       style="opacity:1;fill:#020900;fill-opacity:1;stroke:none;stroke-width:1;stroke-linecap:butt;stroke-linejoin:round;stroke-miterlimit:4;stroke-dasharray:none;stroke-opacity:1"
       id="path1707"
       d="m 28.515516,229.58959 c 0.461013,0.24 0.856398,0.57697 1.235768,0.92736 0.358418,0.33739 0.69923,0.69274 1.039384,1.04833 0.425058,0.44271 0.844203,0.89101 1.257779,1.34445 0.504439,0.55829 0.989798,1.13336 1.475888,1.70758 0.476364,0.56697 0.966534,1.12207 1.458791,1.67522 0.474977,0.53508 0.960003,1.06106 1.446855,1.58531 0.44041,0.47336 0.877602,0.94969 1.317149,1.42385 0.367863,0.39606 0.737822,0.79016 1.113171,1.17915 0.348324,0.35801 0.700336,0.7124 1.04984,1.06925 0.348316,0.3545 0.693187,0.71231 1.035196,1.07289 0.31053,0.32961 0.625985,0.6545 0.940519,0.98027 0.266473,0.27597 0.53534,0.54961 0.804188,0.82326 0.221475,0.22666 0.444,0.45229 0.666493,0.67796 0.251021,0.24672 0.491686,0.50221 0.721723,0.76853 0.07625,0.10195 0.152503,0.20391 0.228756,0.30586 2.794156,3.98173 -2.836857,7.93327 -5.631013,3.95154 v 0 c 0.03793,0.0473 0.07587,0.0947 0.113802,0.14205 0.190482,0.20087 -0.29877,-0.31154 -0.331882,-0.33823 -0.225341,-0.22855 -0.450718,-0.45707 -0.675032,-0.68664 -0.28281,-0.28786 -0.565594,-0.57576 -0.845891,-0.86607 -0.328795,-0.34053 -0.658453,-0.68025 -0.983097,-1.02476 -0.316619,-0.3339 -0.635997,-0.66514 -0.95853,-0.99334 -0.361881,-0.36953 -0.726551,-0.73632 -1.086873,-1.10736 -0.406512,-0.42177 -0.807951,-0.84835 -1.206392,-1.27775 -0.438158,-0.4727 -0.87404,-0.9475 -1.313034,-1.41941 -0.519946,-0.55995 -1.03776,-1.12191 -1.545077,-1.69337 -0.529865,-0.59551 -1.057214,-1.19333 -1.57017,-1.80354 -0.431728,-0.51001 -0.862261,-1.02123 -1.309312,-1.51797 -0.376356,-0.41315 -0.758529,-0.82094 -1.145488,-1.22419 -0.247942,-0.25935 -0.495503,-0.51934 -0.754754,-0.7675 -0.196421,-0.18737 0.197702,0.1348 0.258008,0.1304 -4.308491,-2.25796 -1.115254,-8.35109 3.193235,-6.09313 z"
       inkscape:connector-curvature="0" />
    <path
       style="opacity:1;fill:#020900;fill-opacity:1;stroke:none;stroke-width:1;stroke-linecap:butt;stroke-linejoin:round;stroke-miterlimit:4;stroke-dasharray:none;stroke-opacity:1"
       id="path1709"
       d="m 39.919867,225.94326 c 0.116684,0.042 0.232344,0.0865 0.3473,0.13303 0.616485,0.26104 1.178351,0.66683 1.576345,1.21231 0.146931,0.20138 0.256638,0.42744 0.384958,0.64116 0.455375,1.00273 0.412041,2.03563 0.08199,3.05765 -0.152339,0.41822 -0.337309,0.82361 -0.527897,1.2255 -0.237945,0.49849 -0.514112,0.97705 -0.795864,1.45167 -0.287594,0.46843 -0.556363,0.94781 -0.821714,1.42906 -0.31325,0.56937 -0.618027,1.1433 -0.919689,1.71888 -0.341783,0.66162 -0.685355,1.32229 -1.033327,1.98068 -0.36711,0.69157 -0.738333,1.38095 -1.10259,2.07404 -0.3443,0.65922 -0.674548,1.32565 -1.002134,1.99329 -0.297645,0.6047 -0.579908,1.21673 -0.859543,1.8299 -0.242832,0.53457 -0.476703,1.07315 -0.708459,1.61259 -0.200938,0.46943 -0.402641,0.93853 -0.601094,1.40902 -0.161901,0.38672 -0.320175,0.77496 -0.478737,1.16306 -0.13339,0.32617 -0.265951,0.65267 -0.399796,0.97865 -0.130384,0.31732 -0.273172,0.62935 -0.41752,0.9405 -0.109721,0.23334 -0.222116,0.46542 -0.334233,0.69761 -0.08539,0.17675 -0.17069,0.35355 -0.256455,0.53012 -0.08061,0.1663 -0.161332,0.33252 -0.245031,0.49729 -0.06688,0.12984 -0.135056,0.25902 -0.203104,0.38826 -0.01685,0.0325 -0.121447,0.22836 -0.03504,0.0655 -2.16412,4.35638 -8.324972,1.29586 -6.160853,-3.06053 v 0 c 0.03598,-0.0703 0.07151,-0.14055 0.108949,-0.21001 0.05448,-0.10347 0.109033,-0.20689 0.162881,-0.31068 0.06417,-0.12385 0.1224,-0.25069 0.184427,-0.3756 0.08342,-0.17173 0.166351,-0.34369 0.249415,-0.51558 0.09702,-0.20093 0.194249,-0.40177 0.289653,-0.60347 0.101056,-0.21739 0.201677,-0.43512 0.293408,-0.65664 0.132313,-0.32215 0.263237,-0.64487 0.395108,-0.9672 0.168412,-0.41222 0.336563,-0.82455 0.508698,-1.23523 0.204433,-0.48451 0.411999,-0.96769 0.619012,-1.4511 0.251809,-0.58585 0.50592,-1.17076 0.769871,-1.75126 0.306636,-0.67223 0.61658,-1.34301 0.942882,-2.00598 0.355717,-0.72469 0.714434,-1.448 1.088568,-2.1634 0.366778,-0.69761 0.740044,-1.39176 1.109823,-2.08777 0.344319,-0.65141 0.683967,-1.30522 1.022311,-1.95975 0.324342,-0.61872 0.652129,-1.23563 0.988951,-1.84767 0.301231,-0.54597 0.606603,-1.08971 0.932069,-1.62172 0.174805,-0.29355 0.349327,-0.58785 0.498811,-0.89538 0.07269,-0.15129 0.185658,-0.40813 0.235382,-0.51073 -0.199951,0.72286 -0.09962,1.46468 0.210372,2.14489 0.420521,0.67986 0.864608,1.25549 1.633363,1.55045 0.06803,0.0263 -0.04863,-0.019 -0.07828,-0.029 -4.572497,-1.65944 -2.225693,-8.12593 2.346804,-6.46649 z"
       inkscape:connector-curvature="0" />
    <path
       style="opacity:1;fill:#020900;fill-opacity:1;stroke:none;stroke-width:1;stroke-linecap:butt;stroke-linejoin:round;stroke-miterlimit:4;stroke-dasharray:none;stroke-opacity:1"
       id="path1711"
       d="m 56.309444,226.14725 c 0.169548,0.22489 0.324784,0.46005 0.477322,0.69666 0.197358,0.31651 0.395362,0.63256 0.59654,0.94666 0.208944,0.33096 0.434981,0.6503 0.667615,0.96487 0.285139,0.38741 0.583671,0.76455 0.884436,1.13986 0.353769,0.44059 0.714441,0.87555 1.074185,1.31125 0.375989,0.46153 0.764463,0.91236 1.161423,1.3559 0.451524,0.49839 0.906444,0.9937 1.363996,1.48656 0.459287,0.49133 0.928994,0.97277 1.395068,1.45763 0.431729,0.45317 0.870863,0.89915 1.310259,1.34487 0.391726,0.3997 0.782963,0.79989 1.172329,1.2019 0.362699,0.37635 0.715862,0.76172 1.063763,1.15174 0.290343,0.32791 0.577244,0.65885 0.863459,0.99036 0.231895,0.26815 0.461063,0.53864 0.691926,0.80768 0.181755,0.21133 0.363955,0.42227 0.546105,0.63326 0.141282,0.16444 0.283493,0.32807 0.426439,0.49107 0.127953,0.14522 0.255577,0.29073 0.381736,0.43751 0.100161,0.11715 0.199779,0.23476 0.299455,0.35232 0.076,0.0896 0.151982,0.17929 0.227968,0.26894 0.0461,0.0556 0.09395,0.10967 0.141698,0.16384 -0.263703,-0.28661 -0.0659,-0.0822 -0.644324,-0.55957 4.071509,2.66163 0.307393,8.41961 -3.764116,5.75798 v 0 c -0.652076,-0.52814 -0.417256,-0.29423 -0.752451,-0.64999 -0.07699,-0.0874 -0.153697,-0.17498 -0.228487,-0.26425 -0.07576,-0.0894 -0.151524,-0.17877 -0.227295,-0.26814 -0.09047,-0.10671 -0.180896,-0.21345 -0.271741,-0.31984 -0.110339,-0.12872 -0.222649,-0.25573 -0.334523,-0.38311 -0.154673,-0.17638 -0.308578,-0.35342 -0.461483,-0.53134 -0.18677,-0.21634 -0.373592,-0.43264 -0.559941,-0.64934 -0.226221,-0.26371 -0.450924,-0.52873 -0.678108,-0.79162 -0.262713,-0.30433 -0.526032,-0.60814 -0.792369,-0.90931 -0.284118,-0.31931 -0.573238,-0.63421 -0.869344,-0.94247 -0.375137,-0.3874 -0.752219,-0.77293 -1.129589,-1.15815 -0.459732,-0.46634 -0.919054,-0.9331 -1.37088,-1.40714 -0.493739,-0.51367 -0.991327,-1.02372 -1.477348,-1.54474 -0.486556,-0.52421 -0.970452,-1.0509 -1.450288,-1.58128 -0.456763,-0.51122 -0.904718,-1.03005 -1.338021,-1.5614 -0.38127,-0.46177 -0.763387,-0.92288 -1.13819,-1.38995 -0.357984,-0.44694 -0.71261,-0.89664 -1.052084,-1.3579 -0.321482,-0.43674 -0.634214,-0.87986 -0.924407,-1.3382 -0.200779,-0.31359 -0.399346,-0.62854 -0.595497,-0.94504 -0.03551,-0.0563 -0.149336,-0.22547 -0.151993,-0.23226 -2.952752,-3.86558 2.514002,-8.0414 5.466757,-4.17582 z"
       inkscape:connector-curvature="0" />
    <path
       style="opacity:1;fill:#020900;fill-opacity:1;stroke:none;stroke-width:1;stroke-linecap:butt;stroke-linejoin:round;stroke-miterlimit:4;stroke-dasharray:none;stroke-opacity:1"
       id="path1713"
       d="m 70.161146,228.03731 c -0.143613,0.43486 -0.36051,0.83888 -0.583109,1.23718 -0.244991,0.42367 -0.494401,0.8448 -0.746144,1.26448 -0.353232,0.59011 -0.73841,1.16005 -1.117484,1.73362 -0.395737,0.59527 -0.777708,1.19944 -1.151088,1.80893 -0.413866,0.68346 -0.827466,1.36709 -1.237829,2.05265 -0.434676,0.72315 -0.848873,1.45815 -1.255173,2.19751 -0.44101,0.81659 -0.874556,1.63715 -1.315064,2.45401 -0.430876,0.79941 -0.867074,1.59594 -1.301721,2.3933 -0.391771,0.71955 -0.785016,1.43829 -1.178099,2.15712 -0.335931,0.61345 -0.670706,1.22753 -1.005406,1.84165 -0.268748,0.49167 -0.535935,0.98418 -0.801749,1.47744 -0.217564,0.4048 -0.430093,0.81227 -0.64327,1.21938 -0.177732,0.34029 -0.354838,0.68091 -0.532017,1.0215 -0.142573,0.27408 -0.285133,0.54817 -0.427696,0.82225 -0.11366,0.21852 -0.227317,0.43704 -0.340974,0.65555 -0.09059,0.17417 -0.181176,0.34833 -0.271764,0.5225 -0.06096,0.11793 -0.123441,0.2351 -0.182642,0.35391 0.02808,-0.0608 0.05617,-0.12168 0.08425,-0.18253 -1.80218,4.51814 -8.191799,1.96948 -6.389616,-2.54867 v 0 c 0.04523,-0.10383 0.09046,-0.20766 0.135691,-0.3115 0.08097,-0.16296 0.165053,-0.3243 0.249336,-0.48557 0.09059,-0.17416 0.181176,-0.34833 0.271764,-0.52249 0.11366,-0.21852 0.227319,-0.43704 0.340979,-0.65556 0.142632,-0.27422 0.285261,-0.54844 0.427905,-0.82266 0.180015,-0.34604 0.359961,-0.69212 0.540557,-1.03786 0.225846,-0.43131 0.451107,-0.86294 0.681707,-1.29173 0.270952,-0.50278 0.543274,-1.0048 0.817208,-1.50596 0.336249,-0.61697 0.672576,-1.23389 1.01006,-1.85019 0.391618,-0.71614 0.7834,-1.4322 1.173708,-2.14906 0.429723,-0.78833 0.860988,-1.57582 1.287002,-2.36616 0.449305,-0.83308 0.891013,-1.67021 1.341538,-2.50263 0.447159,-0.81313 0.903028,-1.62145 1.381096,-2.41691 0.422809,-0.70623 0.848749,-1.4106 1.275326,-2.11455 0.414591,-0.67593 0.838031,-1.34638 1.277051,-2.00677 0.324038,-0.49024 0.654569,-0.97657 0.957786,-1.48017 0.218419,-0.36381 0.434118,-0.72927 0.6481,-1.09571 0.0938,-0.16473 0.150365,-0.28796 0.03665,0.01 1.501736,-4.62669 8.044863,-2.50291 6.543127,2.12378 z"
       inkscape:connector-curvature="0" />
  </g>
</svg>
