<svg viewBox="0 0 100 100"><path style="opacity:1;fill:#020900;fill-opacity:1;stroke:none;stroke-width:1;stroke-linecap:butt;stroke-linejoin:round;stroke-miterlimit:4;stroke-dasharray:none;stroke-opacity:1" d="M66.97 287.376q.292.204.625.327l-.134-.025a4 4 0 0 0-.325-.04q-.315-.029-.631-.045a33 33 0 0 0-.92-.038c-.328-.007-.655.002-.983.01q-.467.014-.932.056-.485.046-.969.109a8 8 0 0 0-.842.163c-.372.098-.738.216-1.104.333q-.658.217-1.318.43-.618.2-1.24.394l-.995.31-.792.247a9 9 0 0 1-.96.264c-.41.086-.827.114-1.244.115-.82.005-1.56-.286-2.253-.697-.59-.389-1.028-.928-1.404-1.515-.281-.456-.5-.946-.703-1.441a25 25 0 0 1-.6-1.705 44 44 0 0 1-.569-2.006 47 47 0 0 1-.492-2.154 85 85 0 0 1-.381-1.973 27 27 0 0 1-.283-2.012 44 44 0 0 1-.15-2.084c-.04-.734-.066-1.47-.101-2.204a111 111 0 0 0-.143-2.252q-.093-1.282-.164-2.563-.072-1.36-.148-2.719a327 327 0 0 1-.136-2.738 139 139 0 0 1-.127-5.497 1545 1545 0 0 1-.023-5.659 3886 3886 0 0 1-.02-8.925l-.004-2.82-.004-2.743q-.003-1.317-.032-2.633c-.018-.842-.056-1.684-.094-2.525a294 294 0 0 0-.122-2.592l-.13-2.417a157 157 0 0 0-.12-2.055q-.068-.878-.143-1.756l-.13-1.58c-.039-.465-.074-.93-.115-1.395q-.061-.674-.115-1.348-.044-.567-.092-1.135l-.078-.912-.063-.732-.051-.583-.042-.494-.033-.432-.03-.342-.025-.294c-.024-.207-.025-.414-.029-.621.114-1.553.898-2.573 2.26-3.24.436-.186.902-.27 1.37-.33q.456-.055.918-.08.46-.028.922-.044.468-.013.936-.037c.29-.015.579-.047.867-.083q.53-.065 1.054-.157c.403-.07.802-.158 1.202-.245.506-.11 1.013-.214 1.52-.321q.834-.181 1.669-.36a72 72 0 0 1 1.883-.368c.676-.125 1.355-.23 2.035-.33a80 80 0 0 1 2.02-.262 108 108 0 0 1 3.71-.368q.84-.07 1.681-.13.836-.059 1.67-.077.687-.013 1.374-.017l1.096-.008q.462-.005.924 0l.707.007q.352 0 .706.014c.467.043.202.009.794.122 4.722 1.168 3.07 7.846-1.651 6.678.404.068.236.052.5.07.122-.001-.382-.004-.416-.005l-.693-.006q-.413-.004-.824 0l-1.091.008q-.63.003-1.261.015-.68.014-1.356.063a109 109 0 0 0-3.268.275c-.598.06-1.195.121-1.791.192-.613.072-1.226.148-1.836.236-.597.088-1.193.18-1.787.29a62 62 0 0 0-1.7.332c-.555.117-1.11.24-1.666.359q-.746.156-1.491.315c-.501.109-1.002.218-1.507.304q-.686.118-1.377.204c-.445.054-.89.101-1.338.124q-.516.026-1.032.041-.38.014-.76.035-.244.013-.489.04c-.184.02.45-.112.459-.16 1.149-.584 1.873-1.612 1.934-2.925-.013-.474-.015-.33.004-.153l.026.296q.019.198.034.396l.033.42q.018.23.039.46l.113 1.316.08.926q.049.58.094 1.16.052.651.11 1.301.062.714.118 1.428l.13 1.575q.081.93.15 1.864.072 1.077.127 2.155l.13 2.426q.069 1.319.126 2.638a112 112 0 0 1 .132 5.451l.004 2.751.016 8.88a3873 3873 0 0 0 .031 8.489c.006.872.01 1.744.034 2.616.023.87.046 1.74.086 2.608q.061 1.34.133 2.68.076 1.353.147 2.705.069 1.233.157 2.465c.057.803.112 1.606.153 2.41.034.72.061 1.439.099 2.158.031.576.064 1.153.12 1.727.054.504.118 1.008.21 1.506q.163.903.348 1.802c.128.612.26 1.223.416 1.828q.214.83.466 1.65c.128.401.26.801.414 1.193q.083.21.178.415a2.5 2.5 0 0 0-.646-.595c-.448-.252-.927-.451-1.45-.443-.079.002-.16.003-.236.026-.192.053.26-.073.302-.093l.792-.247.99-.31q.595-.184 1.186-.375c.443-.143.885-.29 1.328-.433a25 25 0 0 1 1.586-.469 15 15 0 0 1 1.579-.3 34 34 0 0 1 1.254-.139c.448-.038.897-.068 1.347-.078.447-.012.895-.022 1.342-.011q.566.015 1.132.047c.31.017.619.037.927.068.297.03.594.066.889.12.274.052.547.11.815.188.465.14.918.317 1.32.594 4.017 2.742.138 8.424-3.879 5.68m-46.398-42.51c.005-.082.005-.217.004-.037-.01.57.227 1.077.47 1.58.759 1.152 1.947 1.68 3.297 1.551a2.8 2.8 0 0 0 .904-.307c.038-.01.225-.167.108-.06l-.007.008q.04-.04.072-.09c.038-.077.012.019.007.046a1 1 0 0 0-.023.23q.011.166.04.328.03.191.099.371c.029.033-.003-.024.042.035.005-.007-.034-.067-.044-.085-.03-.053-.105-.083-.161-.109a.9.9 0 0 0-.397-.068c-.089-.002-.176.022-.26.042.057-.048.117-.093.17-.146q.1-.119.193-.244c.06-.093.022-.054-.012.008-.074.139-.088.297-.101.45-.02.259.048.5.137.74.162.403.463.69.806.942.21.166.595.27.79.327l-.546-.017-.557-.015c-.02 0-.04-.004-.059-.001s.037.002.055.002l.191-.008c-4.842.465-5.5-6.383-.658-6.848.218-.014.435-.033.653-.021l.564.015c.284.008.567.015.85.032.808.064 1.595.24 2.299.661.79.532 1.46 1.178 1.863 2.059.296.703.502 1.431.49 2.202-.025.707-.128 1.405-.401 2.063-.238.562-.52 1.102-.897 1.585a9 9 0 0 1-1.115 1.232c-.455.394-.935.76-1.466 1.046-.689.358-1.412.638-2.19.727-.834.079-1.668.053-2.475-.204-.737-.25-1.442-.576-2.052-1.07-.531-.434-1.024-.913-1.4-1.49-.336-.514-.634-1.052-.829-1.636a9 9 0 0 1-.385-1.553 9 9 0 0 1-.109-1.667c.03-.54.091-1.08.227-1.606.136-.516.3-1.025.544-1.501.213-.404.45-.795.744-1.147.224-.265.46-.52.72-.75a6 6 0 0 1 .848-.656c.493-.299 1.016-.54 1.59-.635 1.566-.173 2.78.312 3.703 1.633.3.608.561 1.219.546 1.909q.002.186-.006.373c-.159 4.862-7.034 4.637-6.875-.225z" transform="translate(0 -197)"/></svg>