<?xml version="1.0" encoding="UTF-8" standalone="no"?>
<!-- Created with Inkscape (http://www.inkscape.org/) -->

<svg
   xmlns:dc="http://purl.org/dc/elements/1.1/"
   xmlns:cc="http://creativecommons.org/ns#"
   xmlns:rdf="http://www.w3.org/1999/02/22-rdf-syntax-ns#"
   xmlns:svg="http://www.w3.org/2000/svg"
   xmlns="http://www.w3.org/2000/svg"
   xmlns:sodipodi="http://sodipodi.sourceforge.net/DTD/sodipodi-0.dtd"
   xmlns:inkscape="http://www.inkscape.org/namespaces/inkscape"
   width="10cm"
   height="10cm"
   viewBox="0 0 100 99.999997"
   version="1.1"
   id="svg8"
   sodipodi:docname="monsi.svg"
   inkscape:version="0.92.3 (2405546, 2018-03-11)">
  <defs
     id="defs2" />
  <sodipodi:namedview
     id="base"
     pagecolor="#ffffff"
     bordercolor="#666666"
     borderopacity="1.0"
     inkscape:pageopacity="0.0"
     inkscape:pageshadow="2"
     inkscape:zoom="1"
     inkscape:cx="175.50186"
     inkscape:cy="186.50542"
     inkscape:document-units="cm"
     inkscape:current-layer="layer1"
     showgrid="true"
     units="cm"
     inkscape:window-width="881"
     inkscape:window-height="706"
     inkscape:window-x="971"
     inkscape:window-y="214"
     inkscape:window-maximized="0"
     inkscape:snap-nodes="false">
    <inkscape:grid
       type="xygrid"
       id="grid815"
       units="cm"
       spacingx="9.9999998"
       spacingy="9.9999998" />
  </sodipodi:namedview>
  <metadata
     id="metadata5">
    <rdf:RDF>
      <cc:Work
         rdf:about="">
        <dc:format>image/svg+xml</dc:format>
        <dc:type
           rdf:resource="http://purl.org/dc/dcmitype/StillImage" />
        <dc:title></dc:title>
      </cc:Work>
    </rdf:RDF>
  </metadata>
  <g
     inkscape:label="Layer 1"
     inkscape:groupmode="layer"
     id="layer1"
     transform="translate(0,-197.00002)">
    <path
       style="opacity:1;fill:#020900;fill-opacity:1;stroke:none;stroke-width:1;stroke-linecap:butt;stroke-linejoin:round;stroke-miterlimit:4;stroke-dasharray:none;stroke-opacity:1"
       id="path1267"
       d="m 66.969986,287.37587 c 0.193606,0.13577 0.403854,0.24476 0.624983,0.32733 -0.04456,-0.009 -0.08936,-0.0176 -0.134213,-0.0255 -0.107508,-0.0189 -0.216059,-0.0296 -0.324617,-0.0403 -0.210135,-0.02 -0.420862,-0.0328 -0.631579,-0.0448 -0.306332,-0.0163 -0.612815,-0.0301 -0.919491,-0.0378 -0.32766,-0.007 -0.655341,0.002 -0.982874,0.0108 -0.311227,0.007 -0.621734,0.0279 -0.931746,0.0551 -0.323794,0.0303 -0.646914,0.0671 -0.969415,0.10886 -0.283977,0.037 -0.564449,0.0949 -0.842248,0.16373 -0.371631,0.0977 -0.737486,0.21587 -1.103315,0.33306 -0.439319,0.14349 -0.87811,0.28855 -1.318048,0.43014 -0.412335,0.13418 -0.826146,0.26375 -1.240007,0.39313 -0.33183,0.10363 -0.663713,0.20708 -0.99559,0.31055 -0.264073,0.0823 -0.528143,0.16465 -0.792216,0.24697 -0.315518,0.10525 -0.635627,0.1922 -0.960429,0.26347 -0.409176,0.0864 -0.825701,0.11438 -1.242862,0.11498 -0.819443,0.005 -1.559565,-0.2857 -2.2538,-0.69674 -0.588616,-0.38845 -1.027388,-0.92795 -1.404006,-1.51449 -0.280948,-0.45652 -0.498679,-0.94684 -0.702363,-1.44141 -0.225279,-0.55924 -0.416555,-1.13114 -0.600035,-1.70517 -0.207611,-0.66339 -0.393364,-1.33327 -0.56895,-2.00575 -0.184893,-0.71313 -0.341442,-1.43309 -0.492418,-2.15401 -0.136155,-0.65585 -0.260673,-1.31403 -0.381217,-1.9729 -0.12396,-0.66627 -0.210281,-1.33837 -0.28284,-2.0119 -0.07117,-0.69317 -0.111921,-1.3889 -0.149921,-2.08452 -0.03884,-0.73419 -0.06602,-1.46891 -0.101253,-2.20327 -0.03804,-0.75149 -0.08967,-1.50218 -0.14297,-2.25271 -0.06259,-0.85378 -0.115155,-1.70824 -0.163553,-2.56294 -0.04705,-0.90626 -0.09821,-1.8123 -0.147716,-2.71843 -0.04972,-0.91257 -0.09415,-1.8254 -0.136208,-2.73835 -0.04211,-0.91316 -0.06678,-1.82699 -0.09129,-2.74075 -0.02424,-0.91859 -0.02993,-1.8375 -0.03578,-2.75634 -0.0055,-0.92748 -0.0094,-1.85496 -0.01323,-2.78245 -0.0038,-0.95875 -0.0071,-1.9175 -0.01013,-2.87625 -0.0031,-0.95218 -0.0057,-1.90437 -0.0081,-2.85655 -0.0026,-1.01367 -0.0046,-2.02734 -0.0064,-3.04101 -0.0019,-1.00918 -0.0035,-2.01836 -0.0051,-3.02754 -0.0016,-0.9399 -0.0028,-1.8798 -0.0041,-2.81971 -0.0016,-0.91434 -0.0016,-1.82869 -0.0039,-2.74304 -0.0016,-0.87801 -0.01286,-1.75596 -0.03195,-2.63376 -0.01791,-0.84207 -0.05581,-1.6835 -0.09374,-2.52485 -0.0371,-0.86418 -0.07807,-1.72817 -0.122793,-2.59198 -0.04358,-0.80558 -0.08759,-1.61114 -0.130429,-2.41676 -0.03641,-0.68534 -0.07356,-1.37063 -0.120028,-2.05537 -0.04338,-0.58536 -0.09265,-1.17028 -0.141603,-1.75519 -0.04384,-0.52695 -0.08765,-1.05389 -0.131302,-1.58085 -0.03801,-0.46499 -0.07366,-0.93017 -0.114453,-1.39493 -0.04071,-0.44894 -0.07825,-0.89814 -0.114546,-1.34745 -0.03028,-0.37842 -0.05978,-0.7569 -0.09174,-1.13518 -0.0259,-0.30393 -0.05225,-0.60781 -0.07854,-0.9117 -0.02111,-0.24404 -0.04225,-0.48808 -0.06337,-0.73212 -0.01685,-0.19455 -0.03368,-0.38909 -0.05053,-0.58364 -0.01439,-0.1646 -0.02825,-0.32924 -0.04169,-0.49392 -0.01233,-0.14386 -0.02141,-0.28798 -0.0332,-0.43188 -0.0095,-0.11385 -0.01958,-0.22765 -0.02957,-0.34145 -0.0086,-0.0982 -0.01728,-0.19646 -0.02593,-0.29469 -0.02371,-0.20646 -0.02442,-0.41326 -0.02831,-0.62107 0.113313,-1.55227 0.898001,-2.57287 2.259687,-3.23937 0.436362,-0.18651 0.901965,-0.27094 1.369436,-0.33094 0.305009,-0.0377 0.611484,-0.0609 0.91812,-0.0802 0.307324,-0.0182 0.614929,-0.0311 0.922557,-0.0429 0.312018,-0.0111 0.624121,-0.02 0.935905,-0.0368 0.290129,-0.0149 0.57879,-0.0478 0.867008,-0.0831 0.352579,-0.0427 0.703512,-0.097 1.053553,-0.15679 0.403008,-0.0699 0.80238,-0.1587 1.202012,-0.24538 0.50632,-0.10961 1.013786,-0.21383 1.520529,-0.32146 0.556278,-0.11919 1.111869,-0.24155 1.668394,-0.35959 0.625834,-0.13235 1.254133,-0.25257 1.883227,-0.36829 0.675817,-0.12491 1.354929,-0.23055 2.034879,-0.33007 0.671925,-0.0972 1.345665,-0.18112 2.019816,-0.26122 0.639378,-0.0753 1.279755,-0.14167 1.920359,-0.20555 0.596095,-0.0592 1.192773,-0.11224 1.789647,-0.16289 0.560337,-0.0473 1.12101,-0.0904 1.681969,-0.12955 0.556112,-0.04 1.113102,-0.064 1.670431,-0.0776 0.457539,-0.01 0.915178,-0.0133 1.372801,-0.0168 0.365339,-0.003 0.730684,-0.005 1.096026,-0.008 0.308041,-0.004 0.616082,-0.003 0.924123,-3.2e-4 0.235588,0.002 0.47117,0.004 0.706753,0.007 0.23572,7.1e-4 0.471225,0.004 0.706742,0.014 0.467135,0.0435 0.20158,0.009 0.793967,0.12204 4.722042,1.16781 3.07051,7.84579 -1.651532,6.67798 v 0 c 0.404315,0.0683 0.236479,0.0523 0.500943,0.0699 0.121613,-6.9e-4 -0.382436,-0.004 -0.416168,-0.005 -0.231317,-0.002 -0.462635,-0.004 -0.693957,-0.006 -0.274662,-0.002 -0.549318,-0.003 -0.823976,3.5e-4 -0.363564,0.002 -0.727125,0.005 -1.090687,0.008 -0.420449,0.003 -0.840917,0.006 -1.261292,0.015 -0.452403,0.0104 -0.904478,0.0305 -1.355879,0.0629 -0.526552,0.0366 -1.052811,0.0773 -1.578779,0.12157 -0.563229,0.0478 -1.126276,0.0978 -1.688772,0.15359 -0.597659,0.0596 -1.195112,0.12135 -1.791637,0.1915 -0.612724,0.0727 -1.225094,0.1487 -1.835816,0.23685 -0.596892,0.0871 -1.193083,0.17947 -1.786329,0.28907 -0.56787,0.1043 -1.135015,0.21272 -1.699954,0.33202 -0.55582,0.11781 -1.11063,0.2403 -1.666234,0.35913 -0.497097,0.10556 -0.994873,0.20789 -1.491586,0.31525 -0.500825,0.10861 -1.00167,0.21815 -1.506966,0.30434 -0.457497,0.0775 -0.916128,0.14825 -1.376868,0.20389 -0.444669,0.0538 -0.890252,0.10137 -1.337773,0.12392 -0.343755,0.0177 -0.687713,0.0298 -1.031732,0.0411 -0.253434,0.01 -0.506855,0.0201 -0.760058,0.0348 -0.163346,0.01 -0.326644,0.0213 -0.489239,0.0401 -0.183528,0.0207 0.450253,-0.11238 0.458785,-0.16045 1.14921,-0.58401 1.872816,-1.61163 1.934623,-2.92474 -0.01365,-0.47346 -0.01492,-0.33078 0.0039,-0.15246 0.0087,0.0987 0.01738,0.19733 0.02604,0.29599 0.01159,0.13196 0.02326,0.26391 0.03414,0.39593 0.01103,0.1399 0.02074,0.27989 0.03222,0.41975 0.01252,0.1534 0.02543,0.30677 0.03885,0.4601 0.01683,0.19456 0.03368,0.38911 0.05053,0.58366 0.02114,0.24415 0.04227,0.4883 0.0634,0.73246 0.0267,0.30854 0.05344,0.61708 0.07974,0.92566 0.03265,0.38668 0.06294,0.77354 0.09382,1.16036 0.03504,0.43386 0.07131,0.86763 0.110649,1.30113 0.04157,0.47552 0.07858,0.95141 0.117203,1.42717 0.04349,0.52504 0.08714,1.05007 0.13082,1.5751 0.05198,0.62124 0.104365,1.24248 0.149855,1.86423 0.04848,0.71787 0.0881,1.43625 0.126034,2.15474 0.043,0.80882 0.08723,1.61758 0.130932,2.42636 0.0455,0.87912 0.08726,1.75841 0.125016,2.6379 0.04033,0.89492 0.08017,1.78995 0.0991,2.68564 0.01987,0.92185 0.03186,1.84385 0.03355,2.76592 0.0021,0.91687 0.0024,1.83375 0.0039,2.75062 0.0013,0.93931 0.0026,1.87862 0.0041,2.81793 0.0016,1.00854 0.0033,2.01708 0.0051,3.02562 0.0019,1.01217 0.0039,2.02434 0.0064,3.0365 0.0024,0.9506 0.005,1.90119 0.0081,2.85179 0.0031,0.9568 0.0063,1.9136 0.01013,2.8704 0.0038,0.92222 0.0077,1.84443 0.01315,2.76664 0.0056,0.87196 0.01064,1.744 0.03345,2.61572 0.02331,0.86972 0.04653,1.73951 0.08648,2.60866 0.04114,0.89336 0.08461,1.78661 0.133253,2.67959 0.04926,0.90166 0.100203,1.80323 0.146968,2.70502 0.04649,0.82189 0.09704,1.64356 0.157279,2.46457 0.05699,0.80309 0.111979,1.60637 0.152347,2.41049 0.03443,0.71928 0.06142,1.4389 0.09894,2.15803 0.03136,0.57625 0.06378,1.15267 0.121068,1.72705 0.05349,0.50429 0.116702,1.0076 0.209666,1.50637 0.109964,0.60158 0.223502,1.20253 0.347591,1.80138 0.127932,0.61184 0.259681,1.22308 0.415984,1.82843 0.143764,0.5531 0.296574,1.10387 0.465867,1.64976 0.127588,0.40101 0.25917,0.80099 0.413822,1.19256 0.05633,0.13986 0.11453,0.27883 0.178636,0.41527 -0.177379,-0.23671 -0.397417,-0.43561 -0.646872,-0.59515 -0.447408,-0.25158 -0.926126,-0.45093 -1.449181,-0.44282 -0.07926,0.002 -0.159755,0.003 -0.236416,0.0262 -0.192016,0.0526 0.260178,-0.0736 0.302321,-0.0935 0.26403,-0.0823 0.528061,-0.16462 0.792091,-0.24693 0.330211,-0.10295 0.660427,-0.20588 0.99059,-0.30899 0.395565,-0.12365 0.791104,-0.24742 1.18519,-0.37574 0.443222,-0.14261 0.885148,-0.28915 1.32787,-0.4333 0.525065,-0.16801 1.050964,-0.335 1.586124,-0.46844 0.521279,-0.1243 1.046525,-0.23244 1.578602,-0.29961 0.417367,-0.0535 0.835446,-0.10148 1.25453,-0.13954 0.448228,-0.0384 0.897167,-0.0684 1.347041,-0.0784 0.447019,-0.0115 0.894257,-0.0219 1.341411,-0.0108 0.377682,0.0102 0.755187,0.0258 1.132435,0.0467 0.309258,0.0178 0.618474,0.0376 0.926785,0.0681 0.297469,0.0303 0.594448,0.0662 0.888598,0.12072 0.274392,0.0516 0.54773,0.10964 0.815888,0.18805 0.464317,0.13939 0.917461,0.31627 1.319652,0.59307 4.017211,2.7429 0.13817,8.42409 -3.879041,5.6812 z"
       inkscape:connector-curvature="0" />
    <path
       style="opacity:1;fill:#020900;fill-opacity:1;stroke:none;stroke-width:1;stroke-linecap:butt;stroke-linejoin:round;stroke-miterlimit:4;stroke-dasharray:none;stroke-opacity:1"
       id="path1269"
       d="m 20.572492,244.86623 c 0.0043,-0.0822 0.0041,-0.21703 0.0032,-0.0375 -0.01049,0.57085 0.227763,1.07746 0.469996,1.57973 0.758978,1.15226 1.947765,1.68099 3.297545,1.55161 0.317068,-0.0517 0.624255,-0.14931 0.903937,-0.30733 0.03756,-0.009 0.22503,-0.16639 0.108328,-0.0603 -0.04622,0.0432 -0.06556,0.0693 -0.0075,0.009 0.0285,-0.0262 0.04972,-0.0579 0.07169,-0.0896 0.03825,-0.0775 0.01183,0.0181 0.0071,0.0454 -0.01817,0.0758 -0.02431,0.15243 -0.02272,0.22992 0.0067,0.11008 0.02122,0.21941 0.04,0.32803 0.02106,0.12654 0.05187,0.25135 0.09847,0.37094 0.02915,0.033 -0.0022,-0.0238 0.04256,0.035 0.0054,-0.007 -0.03363,-0.0667 -0.04404,-0.0847 -0.02981,-0.0538 -0.10534,-0.0831 -0.161472,-0.1091 -0.125063,-0.0581 -0.261102,-0.0692 -0.396947,-0.0684 -0.08846,-0.002 -0.175745,0.0222 -0.259879,0.042 0.05687,-0.0483 0.117198,-0.0927 0.169801,-0.14631 0.06647,-0.0796 0.13168,-0.16002 0.192955,-0.24367 0.06034,-0.0933 0.02269,-0.054 -0.01183,0.008 -0.07368,0.1386 -0.08759,0.29677 -0.10095,0.45027 -0.01966,0.25878 0.04845,0.49993 0.137426,0.73958 0.161381,0.40365 0.462664,0.68947 0.80583,0.94203 0.209114,0.16665 0.594795,0.27048 0.79055,0.32712 -0.182208,-0.007 -0.364485,-0.0121 -0.546759,-0.0171 -0.185717,-0.005 -0.371437,-0.01 -0.557158,-0.0149 -0.01946,-2.7e-4 -0.0391,-0.004 -0.05837,-10e-4 -0.01816,0.003 0.03666,0.002 0.055,0.002 0.06361,-0.002 0.127143,-0.005 0.190715,-0.008 -4.842036,0.46492 -5.499545,-6.38275 -0.657509,-6.84768 v 0 c 0.217351,-0.0143 0.43428,-0.033 0.652293,-0.0214 0.188121,0.005 0.376243,0.01 0.564361,0.0151 0.283456,0.008 0.567021,0.0147 0.850088,0.0322 0.807329,0.0642 1.594961,0.23928 2.298481,0.66118 0.791112,0.5321 1.460865,1.17734 1.863015,2.05823 0.296569,0.70327 0.501904,1.43167 0.490861,2.20272 -0.0259,0.70706 -0.128522,1.40454 -0.401865,2.06292 -0.237252,0.56155 -0.520494,1.1015 -0.896464,1.5844 -0.33895,0.43925 -0.698897,0.86361 -1.115145,1.23254 -0.455091,0.39385 -0.935077,0.75927 -1.46612,1.04633 -0.688657,0.35741 -1.412404,0.63747 -2.189152,0.72696 -0.834728,0.0782 -1.669213,0.053 -2.47544,-0.20442 -0.737163,-0.25019 -1.442255,-0.57647 -2.052099,-1.06955 -0.531348,-0.434 -1.023913,-0.91319 -1.401107,-1.49115 -0.335112,-0.51343 -0.633113,-1.05097 -0.827792,-1.63506 -0.167687,-0.50744 -0.307673,-1.02384 -0.385058,-1.5536 -0.0798,-0.55171 -0.133649,-1.10799 -0.109147,-1.66628 0.02975,-0.54124 0.09104,-1.08048 0.226924,-1.6066 0.135577,-0.51578 0.299305,-1.02502 0.543988,-1.50088 0.213391,-0.40377 0.450075,-0.79527 0.743856,-1.14667 0.22398,-0.26534 0.459543,-0.52057 0.720473,-0.75038 0.266942,-0.23785 0.54278,-0.46685 0.847232,-0.65593 0.493588,-0.29849 1.016503,-0.53944 1.590892,-0.63523 1.565356,-0.17221 2.779277,0.31199 3.702554,1.63342 0.299315,0.60762 0.560948,1.21844 0.545912,1.90866 5.29e-4,0.12446 -5.29e-4,0.24883 -0.006,0.37319 -0.158872,4.86172 -7.034369,4.63703 -6.875496,-0.22468 z"
       inkscape:connector-curvature="0" />
  </g>
</svg>
