<?xml version="1.0" encoding="UTF-8" standalone="no"?>
<!-- Created with Inkscape (http://www.inkscape.org/) -->

<svg
   xmlns:dc="http://purl.org/dc/elements/1.1/"
   xmlns:cc="http://creativecommons.org/ns#"
   xmlns:rdf="http://www.w3.org/1999/02/22-rdf-syntax-ns#"
   xmlns:svg="http://www.w3.org/2000/svg"
   xmlns="http://www.w3.org/2000/svg"
   xmlns:sodipodi="http://sodipodi.sourceforge.net/DTD/sodipodi-0.dtd"
   xmlns:inkscape="http://www.inkscape.org/namespaces/inkscape"
   width="10cm"
   height="10cm"
   viewBox="0 0 100 99.999997"
   version="1.1"
   id="svg8"
   sodipodi:docname="mu.svg"
   inkscape:version="0.92.3 (2405546, 2018-03-11)">
  <defs
     id="defs2" />
  <sodipodi:namedview
     id="base"
     pagecolor="#ffffff"
     bordercolor="#666666"
     borderopacity="1.0"
     inkscape:pageopacity="0.0"
     inkscape:pageshadow="2"
     inkscape:zoom="1"
     inkscape:cx="175.50186"
     inkscape:cy="160.37856"
     inkscape:document-units="cm"
     inkscape:current-layer="layer1"
     showgrid="true"
     units="cm"
     inkscape:window-width="882"
     inkscape:window-height="707"
     inkscape:window-x="784"
     inkscape:window-y="204"
     inkscape:window-maximized="1"
     inkscape:snap-nodes="false">
    <inkscape:grid
       type="xygrid"
       id="grid815"
       units="cm"
       spacingx="9.9999998"
       spacingy="9.9999998" />
  </sodipodi:namedview>
  <metadata
     id="metadata5">
    <rdf:RDF>
      <cc:Work
         rdf:about="">
        <dc:format>image/svg+xml</dc:format>
        <dc:type
           rdf:resource="http://purl.org/dc/dcmitype/StillImage" />
        <dc:title></dc:title>
      </cc:Work>
    </rdf:RDF>
  </metadata>
  <g
     inkscape:label="Layer 1"
     inkscape:groupmode="layer"
     id="layer1"
     transform="translate(0,-197.00002)">
    <path
       style="opacity:1;fill:#020900;fill-opacity:1;stroke:none;stroke-width:1;stroke-linecap:butt;stroke-linejoin:round;stroke-miterlimit:4;stroke-dasharray:none;stroke-opacity:1"
       id="path20"
       d="m 48.968644,223.45909 c -0.212075,0.23046 -0.456409,0.42569 -0.709494,0.6086 -0.210283,0.14724 -0.434541,0.27217 -0.663165,0.38816 -0.234415,0.118 -0.479941,0.21074 -0.728443,0.29401 -0.215175,0.0709 -0.435075,0.12555 -0.656016,0.17492 -0.192248,0.0418 -0.386259,0.0746 -0.580543,0.1052 -0.163642,0.0267 -0.328732,0.0429 -0.492752,0.0668 -0.183801,0.0298 -0.367694,0.0589 -0.551892,0.0861 -0.244694,0.0359 -0.490169,0.0661 -0.735859,0.0942 -0.238374,0.0262 -0.477023,0.0498 -0.715584,0.0741 -0.297619,0.0318 -0.595855,0.0571 -0.894239,0.0805 -0.276177,0.019 -0.551688,0.0454 -0.826915,0.0749 -0.3883,0.0434 -0.777531,0.0772 -1.167056,0.10732 -0.443098,0.0274 -0.885333,0.0642 -1.326917,0.1097 -0.557401,0.0629 -1.112467,0.14452 -1.668214,0.22027 -0.629113,0.0845 -1.258478,0.16717 -1.887339,0.25357 -0.6066,0.0792 -1.209241,0.18359 -1.809806,0.29927 -0.653584,0.12939 -1.304438,0.2721 -1.955038,0.41561 -0.609909,0.13253 -1.216411,0.27954 -1.820018,0.43814 -0.581218,0.15252 -1.15324,0.33654 -1.721329,0.53167 -0.610097,0.21377 -1.209993,0.45504 -1.806605,0.70357 -0.597881,0.24706 -1.18358,0.52156 -1.759139,0.81657 -0.542394,0.2792 -1.066412,0.59173 -1.583708,0.91451 -0.489653,0.30677 -0.957864,0.64537 -1.417531,0.99494 -0.484382,0.37018 -0.948266,0.76568 -1.40084,1.17381 -0.47476,0.42789 -0.919937,0.88673 -1.361607,1.3482 -0.450747,0.46336 -0.870234,0.955 -1.276866,1.45705 -0.418838,0.5153 -0.801177,1.05831 -1.175203,1.60652 -0.391822,0.57759 -0.756994,1.1724 -1.106885,1.77612 -0.346746,0.59969 -0.649358,1.22286 -0.937071,1.85249 -0.298438,0.66309 -0.557621,1.34267 -0.807439,2.02524 -0.25017,0.68939 -0.471258,1.38871 -0.679705,2.09168 -0.207704,0.70285 -0.38053,1.41517 -0.543158,2.12957 -0.173914,0.76803 -0.317849,1.5423 -0.45297,2.31795 -0.141231,0.80762 -0.253755,1.61968 -0.34864,2.43393 -0.09291,0.78401 -0.130527,1.57242 -0.139021,2.36138 -0.0039,0.75995 0.0504,1.51804 0.130451,2.27322 0.09373,0.80578 0.240793,1.6038 0.402978,2.39819 0.177518,0.87165 0.411371,1.72978 0.668526,2.58084 0.268331,0.88774 0.593302,1.75633 0.94599,2.61355 0.365958,0.87624 0.787909,1.72726 1.231037,2.56659 0.426358,0.81051 0.924893,1.57825 1.456059,2.32309 0.552453,0.76272 1.172694,1.47201 1.806047,2.1677 0.703234,0.76265 1.441137,1.49214 2.179611,2.22036 0.790501,0.77807 1.585013,1.55205 2.384343,2.32104 0.754183,0.72921 1.531173,1.43396 2.320457,2.12482 0.72813,0.63739 1.484692,1.24077 2.256839,1.82366 0.716375,0.5366 1.460603,1.03411 2.217817,1.51078 0.729072,0.45582 1.485966,0.86395 2.253025,1.25149 0.784876,0.39172 1.589778,0.74089 2.399114,1.0784 0.806686,0.3356 1.625677,0.64005 2.44946,0.93069 0.786865,0.27773 1.58297,0.52781 2.383568,0.76261 0.812453,0.23341 1.633894,0.43364 2.455026,0.63373 0.851117,0.20944 1.7072,0.39731 2.56608,0.57184 0.883044,0.17897 1.77252,0.32275 2.664018,0.452 0.988978,0.13938 1.981901,0.24775 2.975647,0.34643 1.08462,0.10337 2.171219,0.18381 3.258415,0.25422 1.114341,0.0691 2.23002,0.11328 3.346143,0.13923 1.048221,0.0293 2.095524,-0.0149 3.139856,-0.10238 0.979847,-0.0834 1.948542,-0.25241 2.908487,-0.4615 0.903571,-0.19654 1.780202,-0.48902 2.639537,-0.82685 0.919427,-0.37422 1.79788,-0.83807 2.667309,-1.31467 0.940623,-0.52047 1.861331,-1.07539 2.767936,-1.65277 0.889625,-0.56888 1.746615,-1.18595 2.587604,-1.82388 0.807545,-0.61841 1.593006,-1.26479 2.361454,-1.93096 0.684718,-0.59224 1.325594,-1.23163 1.952151,-1.88427 0.569034,-0.59045 1.098211,-1.2166 1.602229,-1.8629 0.458915,-0.59118 0.864021,-1.22039 1.243614,-1.86453 0.381351,-0.65779 0.709157,-1.34424 1.021849,-2.03667 0.323866,-0.72269 0.603253,-1.46386 0.870093,-2.20911 0.284472,-0.79217 0.521388,-1.59991 0.74616,-2.41066 0.233952,-0.85692 0.438832,-1.72134 0.635555,-2.58745 0.189873,-0.83834 0.355283,-1.68186 0.509834,-2.52734 0.152469,-0.82152 0.274397,-1.64787 0.363003,-2.4786 0.07594,-0.74554 0.08746,-1.49499 0.07786,-2.24363 -0.01109,-0.72119 -0.07708,-1.43958 -0.159322,-2.15563 -0.09313,-0.78368 -0.220853,-1.56267 -0.364085,-2.33858 -0.143402,-0.76095 -0.330991,-1.51241 -0.527347,-2.26111 -0.186253,-0.70969 -0.410323,-1.4084 -0.641267,-2.10454 -0.222642,-0.66978 -0.464733,-1.33275 -0.715426,-1.99246 -0.23218,-0.61016 -0.481737,-1.21344 -0.746866,-1.80997 -0.24883,-0.55769 -0.520141,-1.10483 -0.801142,-1.64688 -0.278805,-0.53862 -0.581504,-1.06418 -0.89295,-1.58443 -0.333283,-0.54908 -0.682371,-1.08831 -1.038937,-1.6225 -0.375753,-0.55537 -0.769072,-1.09855 -1.169122,-1.63659 -0.403014,-0.53717 -0.820111,-1.06358 -1.236427,-1.59045 -0.398775,-0.50649 -0.80408,-1.00776 -1.214671,-1.50471 -0.354615,-0.43217 -0.724215,-0.85154 -1.099939,-1.26536 -0.341847,-0.3742 -0.699783,-0.73313 -1.06308,-1.08638 -0.36064,-0.34881 -0.741875,-0.67512 -1.125384,-0.99826 -0.425553,-0.35649 -0.861327,-0.70045 -1.305541,-1.03333 -0.449964,-0.33516 -0.924034,-0.63562 -1.400628,-0.93095 -0.522171,-0.32263 -1.053398,-0.6301 -1.587264,-0.93285 -0.515199,-0.2907 -1.034902,-0.57325 -1.554948,-0.85514 -0.462325,-0.25317 -0.928728,-0.49871 -1.395251,-0.74402 -0.395047,-0.20758 -0.793597,-0.40841 -1.193189,-0.60708 -0.330642,-0.16681 -0.667131,-0.3214 -1.006436,-0.46964 -0.299413,-0.13174 -0.604226,-0.24999 -0.912217,-0.35992 -0.339066,-0.11911 -0.681461,-0.2284 -1.025858,-0.33097 -0.358802,-0.10566 -0.721887,-0.19565 -1.086239,-0.27983 -0.390647,-0.0887 -0.783971,-0.16479 -1.178274,-0.23516 -0.393504,-0.07 -0.788673,-0.12987 -1.184233,-0.18684 -0.352684,-0.05 -0.705456,-0.0994 -1.059341,-0.14017 -0.274466,-0.0308 -0.550273,-0.0461 -0.826082,-0.0582 -0.254339,-0.0113 -0.508921,-0.014 -0.763432,-0.009 -0.258815,0.007 -0.517437,0.0211 -0.775962,0.0353 -0.282932,0.0165 -0.565697,0.0356 -0.848265,0.0574 -0.280752,0.0219 -0.560956,0.0501 -0.841255,0.077 -0.288658,0.0275 -0.57744,0.0538 -0.866297,0.0791 -0.274902,0.0242 -0.550068,0.0452 -0.825293,0.0654 -0.268433,0.0197 -0.53707,0.0365 -0.805765,0.0522 -0.251391,0.0145 -0.502854,0.0277 -0.754338,0.0404 -0.224382,0.0113 -0.448804,0.0218 -0.673242,0.032 -0.186204,0.009 -0.372507,0.0156 -0.558692,0.0248 -0.154167,0.008 -0.308316,0.0164 -0.462476,0.0246 -0.140472,0.007 -0.280961,0.0146 -0.421465,0.0215 -0.1275,0.006 -0.255027,0.012 -0.382564,0.0175 -0.128603,0.006 -0.257246,0.0102 -0.385897,0.0145 -0.119198,0.004 -0.238403,0.007 -0.357614,0.011 -0.101483,0.003 -0.20297,0.006 -0.304461,0.009 -0.08539,0.002 -0.170781,0.005 -0.25617,0.007 -0.06987,0.002 -0.139747,0.004 -0.209618,0.005 -0.05547,0.001 -0.110945,0.003 -0.166418,0.004 -0.08505,0.002 -0.08529,0.002 0.0067,-0.001 -4.855078,0.29947 -5.278586,-6.56665 -0.423508,-6.86612 v 0 c 0.08038,-0.005 0.160814,-0.008 0.241321,-0.01 0.05545,-0.001 0.110892,-0.003 0.166338,-0.004 0.06878,-0.002 0.137563,-0.004 0.206344,-0.005 0.0829,-0.002 0.165793,-0.004 0.248689,-0.007 0.0965,-0.003 0.192988,-0.005 0.289476,-0.008 0.109614,-0.003 0.219226,-0.006 0.328827,-0.0101 0.106672,-0.004 0.213338,-0.007 0.319971,-0.0119 0.114194,-0.005 0.22838,-0.0101 0.342545,-0.0157 0.130977,-0.006 0.261943,-0.0131 0.392893,-0.02 0.164322,-0.009 0.328631,-0.0177 0.492972,-0.0262 0.193834,-0.009 0.387742,-0.017 0.581596,-0.0259 0.21199,-0.01 0.423963,-0.0195 0.6359,-0.0302 0.23395,-0.0119 0.467884,-0.0241 0.701749,-0.0376 0.235029,-0.0137 0.470003,-0.0283 0.7048,-0.0456 0.24189,-0.0177 0.483735,-0.0361 0.725339,-0.0574 0.270497,-0.0237 0.54092,-0.0483 0.811228,-0.0741 0.323403,-0.031 0.646724,-0.0632 0.970672,-0.0882 0.333195,-0.0256 0.666599,-0.0483 1.000234,-0.0674 0.344799,-0.0188 0.689747,-0.0366 1.034997,-0.0445 0.396877,-0.006 0.793853,-0.003 1.190429,0.015 0.4372,0.02 0.874233,0.0469 1.309163,0.0971 0.416769,0.0487 0.832533,0.10513 1.247879,0.16471 0.472998,0.0683 0.945475,0.14038 1.415989,0.22431 0.5085,0.0914 1.015828,0.1898 1.519489,0.30527 0.504086,0.11733 1.006377,0.24282 1.502611,0.3903 0.46251,0.13874 0.922752,0.28517 1.377883,0.44668 0.454875,0.16377 0.90564,0.33853 1.348238,0.53336 0.441547,0.19366 0.879753,0.39489 1.310484,0.61172 0.445881,0.22181 0.890611,0.44602 1.331425,0.67778 0.492165,0.25879 0.984113,0.51801 1.471922,0.78496 0.558967,0.303 1.117447,0.60691 1.671101,0.91955 0.612343,0.3475 1.221464,0.70075 1.820291,1.07119 0.649168,0.40336 1.292693,0.8169 1.904616,1.27562 0.546809,0.41143 1.084892,0.83435 1.608772,1.27474 0.508702,0.42924 1.012511,0.8648 1.490089,1.32884 0.46446,0.45283 0.922083,0.91288 1.358805,1.39274 0.446836,0.49292 0.886539,0.9923 1.308774,1.50659 0.442074,0.53537 0.87883,1.07509 1.30832,1.62063 0.458565,0.58036 0.917604,1.16052 1.360807,1.75277 0.469175,0.63191 0.930627,1.26972 1.370476,1.92251 0.418774,0.62847 0.829257,1.26257 1.219946,1.90898 0.382897,0.64106 0.754864,1.28875 1.097857,1.95223 0.343948,0.66525 0.676256,1.33659 0.980694,2.02099 0.314693,0.71112 0.613381,1.42917 0.889278,2.15631 0.285218,0.7517 0.560776,1.50706 0.81412,2.27018 0.276667,0.83546 0.543346,1.67454 0.766223,2.52624 0.238873,0.91354 0.465137,1.83087 0.638262,2.75951 0.170643,0.93098 0.323564,1.86545 0.433504,2.80577 0.106923,0.94831 0.190759,1.89978 0.20289,2.8547 0.0104,1.02158 -0.0099,2.04411 -0.11729,3.06102 -0.108989,0.99762 -0.251449,1.99088 -0.435546,2.9776 -0.172477,0.94122 -0.356822,1.8803 -0.568537,2.81358 -0.221112,0.97208 -0.451815,1.94216 -0.715383,2.90375 -0.270669,0.9729 -0.557207,1.94176 -0.899236,2.89237 -0.330312,0.91937 -0.677392,1.83316 -1.078754,2.72429 -0.417907,0.92071 -0.858243,1.83223 -1.369963,2.70522 -0.533704,0.89739 -1.101531,1.77475 -1.745064,2.59827 -0.64979,0.82782 -1.328407,1.63265 -2.05989,2.39008 -0.772938,0.80314 -1.56478,1.5886 -2.40879,2.31772 -0.88255,0.76319 -1.782982,1.50563 -2.71053,2.21376 -0.991272,0.74989 -2.000784,1.476 -3.049135,2.14466 -1.034608,0.65738 -2.084287,1.29082 -3.157762,1.88306 -1.130321,0.61758 -2.275332,1.21254 -3.473225,1.69017 -1.200753,0.46451 -2.42393,0.87041 -3.684619,1.14094 -1.253249,0.26858 -2.517344,0.48737 -3.795938,0.59317 -1.285822,0.10418 -2.575065,0.16001 -3.865414,0.12361 -1.210691,-0.0288 -2.420937,-0.0761 -3.629678,-0.15176 -1.165773,-0.0758 -2.330916,-0.16209 -3.493881,-0.27356 -1.096876,-0.10925 -2.192822,-0.22941 -3.284339,-0.3842 -1.019395,-0.14851 -2.036496,-0.31341 -3.046217,-0.5186 -0.944914,-0.1925 -1.886926,-0.3989 -2.82339,-0.62935 -0.925092,-0.22553 -1.850226,-0.45237 -2.765084,-0.71703 -0.918773,-0.27032 -1.832686,-0.55721 -2.735783,-0.87646 -0.944542,-0.33401 -1.883691,-0.68353 -2.808632,-1.06899 -0.964165,-0.40297 -1.922589,-0.82082 -2.85696,-1.28958 -0.958384,-0.48639 -1.904217,-0.99815 -2.814843,-1.57004 -0.920418,-0.58154 -1.825861,-1.18713 -2.696355,-1.84171 -0.902878,-0.68347 -1.788712,-1.38936 -2.64048,-2.13602 -0.869637,-0.76202 -1.726279,-1.53874 -2.557644,-2.34255 -0.819698,-0.7887 -1.634592,-1.58236 -2.445233,-2.38036 -0.827769,-0.81641 -1.65369,-1.63545 -2.440336,-2.49196 -0.817621,-0.9011 -1.614778,-1.82262 -2.324647,-2.81237 -0.7036901,-0.99482 -1.3664693,-2.01843 -1.9327855,-3.09885 -0.5438638,-1.03444 -1.0619865,-2.08304 -1.5096988,-3.16325 -0.4345418,-1.06305 -0.8370064,-2.13927 -1.1679777,-3.23962 -0.3161964,-1.05324 -0.6041189,-2.11507 -0.8226729,-3.19342 -0.2051105,-1.01219 -0.3895489,-2.02927 -0.5039071,-3.05628 -0.1049071,-1.02067 -0.1763144,-2.04511 -0.1669151,-3.0719 0.014198,-1.02755 0.063217,-2.05449 0.1851893,-3.07554 0.1108035,-0.94199 0.2404711,-1.88168 0.404313,-2.81607 0.1558517,-0.89199 0.3222622,-1.7823 0.5228777,-2.66548 0.1961849,-0.85852 0.4053274,-1.71433 0.6557804,-2.55888 0.2500614,-0.84023 0.5149199,-1.67616 0.8150638,-2.50004 0.3124041,-0.85113 0.6381191,-1.69788 1.0127628,-2.52393 0.3813783,-0.83012 0.783336,-1.65119 1.2423436,-2.44171 0.435301,-0.74795 0.8879895,-1.4858 1.3751595,-2.20135 0.481516,-0.70396 0.975676,-1.39976 1.514442,-2.06154 0.526021,-0.64681 1.068245,-1.28049 1.649146,-1.87909 0.560176,-0.5847 1.127261,-1.16351 1.729794,-1.70507 0.596217,-0.53521 1.206365,-1.05493 1.844227,-1.54026 0.628359,-0.47559 1.268619,-0.93582 1.937672,-1.35303 0.683504,-0.42508 1.376537,-0.83544 2.093269,-1.20255 0.735164,-0.37406 1.481186,-0.72626 2.244014,-1.04075 0.732783,-0.30451 1.469807,-0.59955 2.219592,-0.86003 0.727951,-0.24885 1.461016,-0.48316 2.205564,-0.67789 0.691153,-0.18097 1.38529,-0.35003 2.083512,-0.50172 0.712012,-0.15702 1.424358,-0.31293 2.139794,-0.45372 0.720431,-0.13792 1.443239,-0.26312 2.170668,-0.35865 0.631238,-0.0867 1.262946,-0.1698 1.894446,-0.25453 0.631706,-0.0861 1.26266,-0.17883 1.896586,-0.24751 0.499242,-0.0509 0.999091,-0.0944 1.500016,-0.12521 0.321794,-0.0246 0.643318,-0.0526 0.964059,-0.0887 0.340503,-0.0363 0.68136,-0.0689 1.022972,-0.093 0.243583,-0.0189 0.487045,-0.0395 0.729975,-0.0657 0.211365,-0.0216 0.422791,-0.0426 0.634037,-0.0653 0.17127,-0.0195 0.342397,-0.0403 0.51299,-0.0651 0.197318,-0.0289 0.393917,-0.0623 0.591153,-0.0918 0.130916,-0.0183 0.262072,-0.0345 0.393097,-0.052 0.05707,-0.009 0.114062,-0.018 0.170886,-0.0283 -0.0042,0.002 -0.008,0.006 -0.0127,0.007 -0.06572,0.0248 -0.131011,0.0509 -0.19318,0.0838 -0.07012,0.0372 -0.138412,0.0777 -0.202573,0.12462 -0.106654,0.0793 -0.269854,0.21041 -0.334984,0.28559 3.360471,-3.51692 8.33414,1.23551 4.97367,4.75242 z"
       inkscape:connector-curvature="0" />
    <path
       style="opacity:1;fill:#020900;fill-opacity:1;stroke:none;stroke-width:1;stroke-linecap:butt;stroke-linejoin:round;stroke-miterlimit:4;stroke-dasharray:none;stroke-opacity:1"
       id="path22"
       d="m 76.955707,228.86009 c 0.04461,-0.0446 0.410033,-0.2947 0.317106,-0.23174 -0.06513,0.0475 0.08252,-0.0667 0.103389,-0.0833 0.184546,-0.14788 0.380362,-0.2805 0.579188,-0.40818 0.131316,-0.0833 0.26248,-0.16691 0.394581,-0.24901 0.192816,-0.12207 0.390898,-0.23534 0.590574,-0.34572 0.16849,-0.0878 0.330782,-0.18655 0.493485,-0.28446 0.2021,-0.11981 0.402521,-0.24236 0.594937,-0.37727 0.180742,-0.12885 0.346374,-0.2769 0.509193,-0.42729 0.219059,-0.20634 0.420238,-0.43036 0.620768,-0.65441 0.193286,-0.2151 0.378532,-0.43715 0.54778,-0.67167 0.166259,-0.23283 0.313923,-0.47807 0.456258,-0.72601 0.177893,-0.32024 0.34603,-0.64577 0.51488,-0.97083 0.163277,-0.30851 0.31728,-0.62152 0.457446,-0.94117 0.136424,-0.3135 0.24652,-0.63714 0.347702,-0.96341 0.12659,-0.41711 0.228198,-0.8411 0.324998,-1.26592 0.106672,-0.47504 0.197864,-0.95332 0.284258,-1.4324 0.06785,-0.36443 0.09148,-0.73419 0.102798,-1.10401 0.0082,-0.39722 -0.01476,-0.79399 -0.04806,-1.1896 -0.03863,-0.4295 -0.110993,-0.85479 -0.18991,-1.27841 -0.0926,-0.48689 -0.212079,-0.96805 -0.339966,-1.4467 -0.117512,-0.44228 -0.274616,-0.87214 -0.43956,-1.29849 -0.153403,-0.40194 -0.344596,-0.78718 -0.547372,-1.16602 -0.191551,-0.35811 -0.416846,-0.69602 -0.659792,-1.02092 -0.255079,-0.3337 -0.539705,-0.64299 -0.833175,-0.94291 -0.282086,-0.28587 -0.592823,-0.54058 -0.916491,-0.77747 -0.333787,-0.23798 -0.690882,-0.43976 -1.057285,-0.62243 -0.370216,-0.18143 -0.757896,-0.32175 -1.151327,-0.44302 -0.420134,-0.12072 -0.850304,-0.2016 -1.280649,-0.27586 -0.403005,-0.0719 -0.810853,-0.10499 -1.219502,-0.1191 -0.34163,-0.009 -0.682556,0.0162 -1.02054,0.0642 -0.285049,0.0419 -0.562782,0.11896 -0.833914,0.21492 -0.284752,0.10116 -0.555826,0.23541 -0.821788,0.37783 -0.24639,0.12648 -0.468992,0.28922 -0.684601,0.46142 -0.314412,0.26268 -0.619522,0.5363 -0.926576,0.80749 -0.255934,0.22626 -0.509312,0.45551 -0.746159,0.70185 -0.222851,0.2386 -0.430655,0.49059 -0.636588,0.74374 -0.20732,0.25297 -0.406667,0.51212 -0.596344,0.77853 -0.167484,0.23873 -0.325332,0.48407 -0.473131,0.73543 -0.146359,0.25272 -0.269504,0.51802 -0.389702,0.78391 -0.134321,0.30146 -0.25087,0.61036 -0.364154,0.9202 -0.106021,0.29029 -0.203697,0.58355 -0.287255,0.8811 -0.06075,0.23307 -0.103463,0.4702 -0.138288,0.70836 -0.03991,0.27999 -0.06332,0.5619 -0.08426,0.84381 -0.0191,0.27474 -0.03463,0.54973 -0.0416,0.82505 5.3e-4,0.13553 0.0026,0.14186 0.0059,0.0214 0.07128,0.23284 0.141544,0.46604 0.211148,0.6994 0.07943,0.27316 0.158189,0.54649 0.243856,0.81777 0.05749,0.17689 0.110717,0.35538 0.177699,0.529 0.04531,0.11039 0.09495,0.21892 0.144788,0.32731 0.06573,0.14224 0.132001,0.28422 0.198215,0.42623 0.09624,0.20863 0.102116,0.20218 -0.07289,-0.10939 2.635949,4.08819 -3.145615,7.81598 -5.781564,3.7278 v 0 c -0.136776,-0.23246 -0.274611,-0.4628 -0.38028,-0.71135 -0.07203,-0.15448 -0.144132,-0.30893 -0.215553,-0.4637 -0.119214,-0.26003 -0.235514,-0.52158 -0.336789,-0.78923 -0.106484,-0.28776 -0.20443,-0.57845 -0.295478,-0.87148 -0.09567,-0.30465 -0.186235,-0.61082 -0.274482,-0.91771 -0.113236,-0.38011 -0.235013,-0.75801 -0.327636,-1.14389 -0.12237,-0.56998 -0.200602,-1.14803 -0.173474,-1.73269 0.01114,-0.38327 0.03024,-0.76624 0.0582,-1.14867 0.03449,-0.45711 0.07602,-0.91391 0.143751,-1.36747 0.08163,-0.52489 0.179917,-1.04758 0.323953,-1.55942 0.132064,-0.45859 0.278093,-0.91296 0.44345,-1.36073 0.17345,-0.47196 0.353766,-0.9417 0.560964,-1.40008 0.225354,-0.49353 0.460772,-0.98328 0.737952,-1.45026 0.249581,-0.41767 0.510527,-0.82858 0.792996,-1.22495 0.274304,-0.38196 0.558691,-0.75639 0.857186,-1.11986 0.335833,-0.41161 0.677183,-0.81932 1.04571,-1.20235 0.358707,-0.36522 0.730155,-0.71719 1.115994,-1.05377 0.408673,-0.36093 0.814385,-0.72575 1.239322,-1.06765 0.543002,-0.4216 1.108088,-0.81433 1.719614,-1.13153 0.593836,-0.31036 1.200579,-0.59771 1.83655,-0.81226 0.696161,-0.2296 1.405234,-0.42064 2.133798,-0.51527 0.724369,-0.0912 1.45342,-0.14577 2.184125,-0.11686 0.714261,0.0302 1.427266,0.0901 2.131716,0.21643 0.729594,0.12859 1.457558,0.27392 2.16652,0.49205 0.751139,0.23986 1.491721,0.51404 2.196676,0.87008 0.71029,0.36416 1.4042,0.76151 2.04759,1.23615 0.615103,0.4612 1.208966,0.95124 1.745109,1.50387 0.508654,0.52595 1.00066,1.06906 1.437886,1.65677 0.437444,0.59851 0.848927,1.21612 1.195557,1.87251 0.330475,0.62487 0.640408,1.26089 0.892257,1.92215 0.252005,0.65684 0.487873,1.32035 0.667573,2.00118 0.172498,0.65034 0.333076,1.30416 0.45679,1.96578 0.119896,0.65285 0.226359,1.30872 0.281755,1.97067 0.05265,0.66183 0.08684,1.32561 0.0664,1.98978 -0.02646,0.69836 -0.08014,1.39603 -0.208066,2.08411 -0.105452,0.58299 -0.217146,1.16491 -0.347758,1.74286 -0.137937,0.60173 -0.284858,1.20176 -0.46736,1.79179 -0.180509,0.57153 -0.377729,1.13805 -0.62013,1.68675 -0.200155,0.45034 -0.413327,0.89452 -0.644213,1.33001 -0.216326,0.41636 -0.432064,0.83319 -0.663315,1.24154 -0.269934,0.46529 -0.552159,0.92397 -0.869797,1.35863 -0.304355,0.41089 -0.624234,0.80977 -0.96792,1.1887 -0.353499,0.39391 -0.713205,0.78296 -1.103196,1.14143 -0.39597,0.35985 -0.803338,0.70808 -1.24447,1.01215 -0.311187,0.2131 -0.628021,0.4175 -0.953416,0.60837 -0.235971,0.14194 -0.472387,0.28337 -0.715679,0.41256 -0.09832,0.0541 -0.196271,0.10892 -0.290494,0.17006 -0.107696,0.0663 -0.213776,0.13529 -0.320839,0.20265 -0.05769,0.0355 0.02458,-0.0196 -0.0056,-1.8e-4 -0.123579,0.0978 -0.247367,0.1955 -0.37516,0.2878 -0.142439,0.1 -0.143055,0.10168 -0.0606,0.0393 -3.821515,3.00956 -8.077684,-2.39488 -4.25617,-5.40444 z"
       inkscape:connector-curvature="0" />
    <path
       style="opacity:1;fill:#020900;fill-opacity:1;stroke:none;stroke-width:1;stroke-linecap:butt;stroke-linejoin:round;stroke-miterlimit:4;stroke-dasharray:none;stroke-opacity:1"
       id="path24"
       d="m 14.945117,231.80485 c -0.274961,0.0772 -0.556889,0.12407 -0.839099,0.16505 -0.261171,0.0361 -0.523662,0.0613 -0.786204,0.085 -0.39145,0.0399 -0.784657,0.0392 -1.177257,0.0225 -0.464614,-0.0197 -0.922462,-0.0998 -1.374788,-0.20343 -0.413251,-0.0977 -0.8131429,-0.24084 -1.2064349,-0.39921 -0.3682805,-0.15021 -0.7203716,-0.33563 -1.0683145,-0.52735 -0.3664601,-0.2001 -0.7141837,-0.43084 -1.0518936,-0.6757 -0.382292,-0.2801 -0.7232076,-0.60965 -1.0512552,-0.95019 -0.2492978,-0.26232 -0.48855,-0.53389 -0.7220625,-0.81027 -0.311159,-0.36863 -0.5839343,-0.76671 -0.8435205,-1.17258 -0.2830774,-0.44722 -0.5183399,-0.92152 -0.7394815,-1.40159 -0.2190168,-0.48204 -0.4132311,-0.97457 -0.5934925,-1.47222 -0.1903748,-0.53834 -0.3454558,-1.08812 -0.496198,-1.63857 -0.1247185,-0.45943 -0.2423324,-0.92074 -0.3554006,-1.38316 -0.1123278,-0.46026 -0.2096538,-0.92394 -0.2997579,-1.389 -0.088168,-0.46228 -0.1614961,-0.92717 -0.2301509,-1.39268 -0.066725,-0.45761 -0.1230888,-0.91663 -0.1762662,-1.37598 -0.062049,-0.51494 -0.093205,-1.03269 -0.1129516,-1.55075 -0.017017,-0.4856 -0.014882,-0.97155 -0.00264,-1.45721 0.014187,-0.50305 0.06654,-1.0037 0.1321078,-1.5023 0.062941,-0.45588 0.1508274,-0.90774 0.2461413,-1.35779 0.1003262,-0.47566 0.2318618,-0.94343 0.3827459,-1.40527 0.1641383,-0.48742 0.3836517,-0.95293 0.614175,-1.41174 0.1926024,-0.38017 0.3967064,-0.75423 0.6103884,-1.12292 0.2595542,-0.44697 0.5614432,-0.86658 0.8801278,-1.27273 0.3060305,-0.38701 0.6457595,-0.74462 0.9972537,-1.09012 0.355958,-0.34791 0.7359745,-0.66935 1.124313,-0.98019 0.3979651,-0.31787 0.8200482,-0.60295 1.2500229,-0.87521 0.4203041,-0.26436 0.857428,-0.50003 1.2998854,-0.72474 0.4431036,-0.2219 0.8977102,-0.41944 1.3537292,-0.61296 0.479848,-0.20368 0.968394,-0.38557 1.460092,-0.55831 0.498556,-0.17449 1.005097,-0.32433 1.514014,-0.46518 0.5273,-0.14345 1.059705,-0.2669 1.593175,-0.38492 0.571631,-0.12336 1.146523,-0.23102 1.722823,-0.33004 0.614264,-0.10696 1.234426,-0.16998 1.856419,-0.20747 0.656026,-0.0386 1.311709,-0.002 1.963758,0.071 0.723461,0.0841 1.423162,0.28464 2.108451,0.52412 0.54126,0.19771 1.070333,0.42664 1.595724,0.66277 0.484769,0.21811 0.961732,0.45277 1.432747,0.69902 0.462247,0.24508 0.912084,0.51245 1.35755,0.78656 0.435649,0.26992 0.858618,0.55941 1.277831,0.85398 0.385633,0.27124 0.760812,0.55687 1.132311,0.84704 0.397775,0.30512 0.77307,0.63651 1.131991,0.98608 0.430874,0.42548 0.794488,0.90989 1.136197,1.40781 0.288973,0.42595 0.542484,0.87414 0.78753,1.32631 0.229576,0.42479 0.437891,0.86039 0.634934,1.30105 0.199652,0.45107 0.372846,0.91302 0.535599,1.37846 0.154122,0.44504 0.285136,0.8975 0.410543,1.35131 0.105212,0.38726 0.204589,0.77606 0.299675,1.16592 0.09926,0.40535 0.181203,0.81457 0.257725,1.22472 0.07212,0.39002 0.129908,0.78242 0.185606,1.17505 0.04713,0.33544 0.08763,0.67175 0.124219,1.00848 0.04268,0.37078 0.06385,0.74331 0.07365,1.11626 0.0059,0.30845 0.0048,0.61698 -7.94e-4,0.92542 -0.0055,0.2338 -0.01148,0.4676 -0.01934,0.70134 -0.0072,0.24973 -0.02365,0.49899 -0.04627,0.74776 -0.02445,0.27067 -0.06995,0.53871 -0.120827,0.80547 -0.05244,0.28501 -0.13167,0.56378 -0.219679,0.83956 -0.06324,0.19408 -0.133056,0.3859 -0.205795,0.57659 -0.07794,0.20652 -0.174006,0.40524 -0.270423,0.60355 -0.03911,0.0817 -0.07776,0.16366 -0.116456,0.24558 -0.03541,0.075 -0.0708,0.14994 -0.106193,0.22492 0.424873,-0.9647 0.424259,-1.95292 -0.04617,-2.94817 -0.221575,-0.46878 -0.667385,-0.79372 -1.001077,-1.19058 3.921537,2.87803 -0.148598,8.42392 -4.070136,5.5459 v 0 c -0.352788,-0.41088 -0.821703,-0.74552 -1.058363,-1.23262 -0.511794,-1.05339 -0.488042,-2.08929 -0.04509,-3.11123 0.03566,-0.0755 0.07132,-0.15107 0.106987,-0.2266 0.04986,-0.10554 0.09962,-0.21113 0.150336,-0.31626 0.01212,-0.0249 0.07948,-0.16964 0.03459,-0.0605 0.02754,-0.0726 0.05471,-0.14523 0.0796,-0.21874 0.03226,-0.0966 -0.01622,0.0818 0.01347,-0.0357 0.0122,-0.0605 0.01974,-0.0934 0.02614,-0.14396 0.01198,-0.1126 0.01593,-0.22588 0.02016,-0.339 0.0069,-0.19892 0.01151,-0.39791 0.01656,-0.59688 0.0043,-0.21225 0.0045,-0.42457 0.0013,-0.63684 -0.0026,-0.17933 -0.01529,-0.35822 -0.03569,-0.53642 -0.02798,-0.26112 -0.05979,-0.52182 -0.09593,-0.78194 -0.04177,-0.29494 -0.08408,-0.58986 -0.137763,-0.88293 -0.05296,-0.28616 -0.109262,-0.57179 -0.178303,-0.85458 -0.07839,-0.32254 -0.160888,-0.64407 -0.247393,-0.96452 -0.08485,-0.30838 -0.172217,-0.61624 -0.275818,-0.91894 -0.09841,-0.28486 -0.203504,-0.56749 -0.324053,-0.84382 -0.123368,-0.27992 -0.256456,-0.55544 -0.400849,-0.82517 -0.132573,-0.24599 -0.266891,-0.49155 -0.421274,-0.72475 -0.08867,-0.13236 -0.177028,-0.26612 -0.283438,-0.38515 -0.163618,-0.17139 -0.353271,-0.31482 -0.537295,-0.4632 -0.279858,-0.21916 -0.562478,-0.43495 -0.853027,-0.63982 -0.304739,-0.21473 -0.611908,-0.42621 -0.928247,-0.62362 -0.310125,-0.19141 -0.622922,-0.37875 -0.944119,-0.55115 -0.348664,-0.18377 -0.703166,-0.35614 -1.062255,-0.51864 -0.354916,-0.16027 -0.712097,-0.31614 -1.076454,-0.4539 -0.197106,-0.0737 -0.397129,-0.14257 -0.606179,-0.17336 -0.255127,-0.0355 -0.512834,-0.0459 -0.770247,-0.035 -0.364302,0.018 -0.726871,0.0593 -1.086571,0.12001 -0.468235,0.0797 -0.935069,0.16786 -1.399643,0.26674 -0.417476,0.092 -0.834186,0.18795 -1.247062,0.29902 -0.359254,0.0987 -0.71689,0.20355 -1.068877,0.32598 -0.353652,0.12344 -0.704943,0.25375 -1.050005,0.39974 -0.313536,0.1327 -0.626669,0.26689 -0.932256,0.41725 -0.250389,0.12596 -0.498173,0.25737 -0.736373,0.4054 -0.216651,0.13566 -0.430375,0.27626 -0.630931,0.43518 -0.208372,0.16501 -0.412616,0.3353 -0.603769,0.52025 -0.144745,0.13991 -0.286074,0.28329 -0.412305,0.44048 -0.1195931,0.14728 -0.2314539,0.30089 -0.3288291,0.4639 -0.146177,0.24928 -0.2823956,0.50415 -0.4141824,0.76132 -0.081077,0.15952 -0.1622621,0.31946 -0.2288852,0.4857 -0.077348,0.21666 -0.1296332,0.44126 -0.1814568,0.6651 -0.059572,0.27761 -0.1148382,0.5563 -0.1560727,0.8373 -0.035422,0.25645 -0.063905,0.51408 -0.073825,0.77292 -0.00976,0.34028 -0.010316,0.68083 3.704e-4,1.02111 0.011853,0.33883 0.031198,0.67753 0.072105,1.01427 0.044885,0.38879 0.092302,0.77731 0.1485082,1.16465 0.053484,0.36453 0.1104162,0.72861 0.1788218,1.09069 0.06811,0.35498 0.1426549,0.70873 0.2278822,1.06003 0.097927,0.40137 0.2001538,0.80168 0.3081131,1.20048 0.1031187,0.37748 0.2069724,0.75515 0.3340126,1.12544 0.1126789,0.31744 0.2382149,0.63009 0.3755119,0.93771 0.08928,0.1977 0.181432,0.39464 0.293924,0.58046 0.0917,0.14821 0.188521,0.2938 0.298858,0.42893 0.13608,0.16354 0.278338,0.32186 0.423287,0.47756 0.05292,0.0559 0.106099,0.11178 0.15903,0.16734 0.09359,0.0762 0.199232,0.13584 0.303064,0.19661 0.111728,0.0619 0.223007,0.12525 0.339004,0.1789 0.06434,0.0275 0.129002,0.0546 0.195722,0.0758 0.04024,0.0134 0.07902,0.0266 0.122371,0.0264 0.07715,0.007 0.153432,0.008 0.230774,-0.003 0.144241,-0.0128 0.288496,-0.026 0.432205,-0.044 0.11552,-0.0148 0.02878,-0.003 -0.0354,0.0178 4.686634,-1.30266 6.528876,5.32524 1.842242,6.6279 z"
       inkscape:connector-curvature="0" />
    <path
       style="opacity:1;fill:#020900;fill-opacity:1;stroke:none;stroke-width:1;stroke-linecap:butt;stroke-linejoin:round;stroke-miterlimit:4;stroke-dasharray:none;stroke-opacity:1"
       id="path26"
       d="m 50.768837,274.98439 c 0.255431,0.0588 0.517546,0.0639 0.777954,0.0494 0.06209,0.0101 0.46622,-0.0834 0.237993,-0.0264 -0.08193,0.0173 -0.100801,0.0265 -0.105765,0.028 -0.170767,0.0581 -0.01802,0.005 0.07536,-0.0315 0.379947,-0.15166 0.70103,-0.4044 0.987264,-0.69171 0.08061,-0.0892 0.09342,-0.10988 0.0364,-0.0327 -0.06957,0.1095 0.136231,-0.22064 0.146094,-0.23791 0.07118,-0.12996 0.128625,-0.26692 0.172287,-0.40843 0.01122,-0.0405 0.02072,-0.0816 0.0301,-0.12257 -0.0072,0.0577 -0.01132,0.1158 -0.01566,0.17381 0.0047,-0.0564 0.0044,-0.0526 0.0067,-0.008 7.94e-4,-0.002 -0.0078,-0.0967 -0.01323,-0.13135 -0.06154,-0.34518 -0.216873,-0.66084 -0.40314,-0.95428 -0.10468,-0.15587 -0.230714,-0.29517 -0.372002,-0.41826 -0.118747,-0.1 -0.251023,-0.18202 -0.389958,-0.25058 -0.055,-0.0257 -0.08739,-0.0395 -0.135658,-0.0548 -0.150823,-0.0369 -0.307337,-0.037 -0.461576,-0.031 -0.138107,0.007 -0.273245,0.0373 -0.404315,0.0802 0.02761,-0.0209 -0.09158,0.0424 -0.117901,0.0568 -0.207211,0.12123 -0.382722,0.28659 -0.538697,0.46742 -0.110217,0.15011 -0.08646,0.11241 -0.02085,-0.01 0.02958,-0.0531 0.169021,-0.32005 0.14088,-0.26721 -0.190963,0.37876 -0.234402,0.80147 -0.247266,1.21879 0.0045,0.19887 0.02738,0.39725 0.08026,0.58897 0.01881,0.0679 0.04495,0.13329 0.07268,0.19789 0.136441,0.32446 0.489265,0.70068 0.788604,0.97094 0.160396,0.14446 0.471202,0.31005 0.617239,0.3793 -0.05223,-0.0201 -0.104794,-0.0394 -0.157285,-0.0588 -0.275542,-0.0911 -0.523623,-0.23519 -0.782833,-0.36751 -4.136403,-2.55961 -0.516564,-8.40937 3.619841,-5.84976 v 0 c -0.649901,-0.32719 -0.311128,-0.17821 -0.575117,-0.28075 -0.04219,-0.0164 0.169469,0.0637 0.127363,0.0471 0.09711,0.036 0.194254,0.0719 0.290613,0.10979 0.400251,0.15861 0.78708,0.35269 1.125138,0.62316 0.461118,0.40448 0.879681,0.84979 1.132716,1.41777 0.12002,0.2495 0.228806,0.50468 0.310374,0.76963 0.120084,0.40337 0.214046,0.81475 0.226224,1.23776 -0.0094,0.66955 -0.104163,1.32715 -0.40782,1.93267 -0.09681,0.20028 -0.199173,0.3976 -0.305427,0.59306 -0.17883,0.33131 -0.366044,0.65919 -0.595961,0.95847 -0.363527,0.45276 -0.773798,0.86481 -1.274374,1.16691 -0.326308,0.19779 -0.664003,0.37594 -1.021477,0.51135 -0.467161,0.17412 -0.947652,0.31162 -1.446519,0.35559 -0.523722,0.0391 -1.049245,0.0322 -1.564653,-0.0814 -0.406779,-0.0878 -0.809186,-0.1976 -1.192184,-0.36302 -0.424735,-0.18912 -0.836279,-0.40856 -1.198065,-0.70405 -0.354017,-0.29125 -0.685006,-0.61038 -0.94829,-0.98831 -0.336963,-0.50718 -0.606872,-1.05294 -0.716643,-1.65728 -0.05727,-0.30135 -0.1021,-0.60521 -0.11318,-0.91223 -0.01074,-0.26286 -0.01429,-0.52623 0.0043,-0.78889 0.0146,-0.19535 0.03179,-0.39058 0.05768,-0.5848 0.0365,-0.26873 0.083,-0.53626 0.156604,-0.79762 0.0967,-0.33892 0.213275,-0.67256 0.380061,-0.98422 0.127037,-0.22996 0.262255,-0.45523 0.423979,-0.66285 0.122621,-0.16379 0.247946,-0.3258 0.384982,-0.47793 0.409699,-0.42364 0.870291,-0.79124 1.421246,-1.01497 0.192082,-0.077 0.38549,-0.14982 0.584031,-0.20865 0.15291,-0.0468 0.306739,-0.0906 0.462462,-0.12719 0.26524,-0.066 0.532215,-0.1277 0.805466,-0.14988 0.420701,-0.0292 0.843166,-0.0231 1.25676,0.0694 4.76046,0.99974 3.34662,7.73205 -1.413843,6.73231 z"
       inkscape:connector-curvature="0" />
  </g>
</svg>
