<svg viewBox="0 0 100 100"><path style="opacity:1;fill:#020900;fill-opacity:1;stroke:none;stroke-width:1;stroke-linecap:butt;stroke-linejoin:round;stroke-miterlimit:4;stroke-dasharray:none;stroke-opacity:1" d="M48.969 223.46a4.7 4.7 0 0 1-.71.608c-.21.147-.434.272-.663.388-.234.118-.48.21-.728.294a7.6 7.6 0 0 1-1.237.28c-.164.027-.329.043-.493.067q-.275.045-.552.086-.367.053-.736.094l-.715.074a32 32 0 0 1-.894.08q-.415.03-.827.076-.584.063-1.167.107-.665.04-1.327.11c-.558.062-1.113.144-1.668.22q-.945.125-1.888.253c-.606.08-1.209.184-1.81.3-.653.13-1.304.272-1.955.415q-.915.2-1.82.438c-.58.153-1.153.337-1.721.532-.61.214-1.21.455-1.807.704q-.895.372-1.759.816c-.542.28-1.066.592-1.583.915-.49.307-.958.645-1.418.995-.484.37-.948.765-1.4 1.174-.476.427-.92.886-1.362 1.348-.451.463-.87.955-1.277 1.457a24 24 0 0 0-1.175 1.606 30 30 0 0 0-1.107 1.776c-.347.6-.65 1.223-.937 1.853a30 30 0 0 0-.808 2.025 35 35 0 0 0-1.223 4.221 47 47 0 0 0-.801 4.752 23 23 0 0 0-.14 2.362c-.003.76.051 1.518.131 2.273.094.806.24 1.604.403 2.398a29 29 0 0 0 1.615 5.194 32 32 0 0 0 1.23 2.567c.427.81.926 1.578 1.457 2.323.552.763 1.172 1.472 1.806 2.168a66 66 0 0 0 2.18 2.22q1.184 1.167 2.384 2.321c.754.73 1.53 1.434 2.32 2.125.728.637 1.485 1.24 2.257 1.824.716.536 1.46 1.034 2.218 1.51.729.456 1.486.864 2.253 1.252.785.392 1.59.74 2.399 1.078a48 48 0 0 0 4.833 1.694c.812.233 1.634.433 2.455.633.851.21 1.707.398 2.566.572.883.18 1.773.323 2.664.452.99.14 1.982.248 2.976.347 1.084.103 2.17.184 3.258.254q1.671.101 3.346.14a29 29 0 0 0 3.14-.103 23 23 0 0 0 2.909-.462c.903-.196 1.78-.489 2.64-.827.919-.374 1.797-.838 2.666-1.314a52 52 0 0 0 2.768-1.653 40 40 0 0 0 2.588-1.824 50 50 0 0 0 2.361-1.93 29 29 0 0 0 1.953-1.885 24 24 0 0 0 1.602-1.863c.459-.591.864-1.22 1.243-1.865a23 23 0 0 0 1.022-2.036c.324-.723.604-1.464.87-2.21.285-.792.522-1.6.747-2.41a62 62 0 0 0 1.145-5.115 32 32 0 0 0 .363-2.478c.076-.746.087-1.495.078-2.244a22 22 0 0 0-.16-2.156 37 37 0 0 0-.364-2.338 33 33 0 0 0-.527-2.261c-.186-.71-.41-1.409-.641-2.105a50 50 0 0 0-.716-1.992 36 36 0 0 0-.746-1.81 31 31 0 0 0-.802-1.647 30 30 0 0 0-.893-1.585 45 45 0 0 0-1.039-1.622 45 45 0 0 0-1.169-1.637c-.403-.537-.82-1.063-1.236-1.59a82 82 0 0 0-1.215-1.505 34 34 0 0 0-1.1-1.265 26 26 0 0 0-1.063-1.087c-.36-.348-.742-.675-1.125-.998q-.639-.534-1.306-1.033a20 20 0 0 0-1.4-.931 49 49 0 0 0-1.588-.933q-.773-.434-1.555-.855a94 94 0 0 0-1.395-.744 60 60 0 0 0-1.193-.607q-.496-.25-1.006-.47-.45-.196-.913-.36a19 19 0 0 0-2.112-.61c-.39-.09-.784-.165-1.178-.236q-.59-.103-1.184-.187-.53-.077-1.06-.14c-.274-.03-.55-.046-.826-.058a12 12 0 0 0-.763-.009q-.389.012-.776.035-.425.025-.848.058-.421.035-.842.077-.432.041-.866.079a57 57 0 0 1-2.385.158l-.673.032-.56.025-.462.024-.421.022-.383.017-.386.015-.357.01-.305.01-.256.007-.21.005-.166.004q-.13.003.007-.001c-4.855.3-5.279-6.567-.424-6.866q.12-.007.242-.01l.166-.004.206-.005.249-.007.29-.008.328-.01.32-.012.343-.016.393-.02q.246-.014.493-.026.29-.014.581-.026l.636-.03.702-.038a46 46 0 0 0 1.43-.103q.406-.035.811-.074.486-.049.971-.088.5-.04 1-.068c.345-.018.69-.036 1.035-.044q.596-.01 1.19.015c.438.02.875.047 1.31.097q.625.074 1.248.165.71.1 1.416.224.762.135 1.52.305a26 26 0 0 1 2.88.837c.455.164.905.339 1.348.534.441.193.88.394 1.31.611q.67.332 1.332.678.739.386 1.472.785.84.452 1.67.92c.613.347 1.222.7 1.821 1.07.65.404 1.293.818 1.905 1.276q.822.616 1.609 1.275c.508.43 1.012.865 1.49 1.329.464.453.922.913 1.358 1.393.447.493.887.992 1.31 1.506q.663.803 1.307 1.62c.46.581.918 1.161 1.361 1.754.47.632.93 1.27 1.37 1.922.42.629.83 1.263 1.22 1.91a37 37 0 0 1 2.08 3.972c.314.711.613 1.43.889 2.157.285.751.56 1.507.814 2.27.276.835.543 1.674.766 2.526.239.914.465 1.831.638 2.76.17.93.324 1.865.434 2.805.107.949.19 1.9.203 2.855.01 1.022-.01 2.044-.118 3.061a40 40 0 0 1-.435 2.978 69 69 0 0 1-1.284 5.717 41 41 0 0 1-.9 2.892c-.33.92-.677 1.834-1.078 2.725-.418.92-.858 1.832-1.37 2.705-.534.897-1.102 1.775-1.745 2.598a31 31 0 0 1-2.06 2.39 36 36 0 0 1-2.409 2.318 57 57 0 0 1-2.71 2.214 46 46 0 0 1-3.05 2.144 59 59 0 0 1-3.157 1.883c-1.13.618-2.276 1.213-3.474 1.69-1.2.465-2.423.871-3.684 1.142-1.253.268-2.518.487-3.796.593-1.286.104-2.575.16-3.866.123a94 94 0 0 1-3.63-.151c-1.165-.076-2.33-.162-3.493-.274a80 80 0 0 1-3.284-.384 55 55 0 0 1-3.047-.519 72 72 0 0 1-2.823-.63 67 67 0 0 1-2.765-.716 55 55 0 0 1-5.544-1.945 45 45 0 0 1-2.857-1.29 35 35 0 0 1-2.815-1.57 40 40 0 0 1-2.697-1.842 47 47 0 0 1-2.64-2.136 71 71 0 0 1-2.558-2.342q-1.23-1.185-2.445-2.38a71 71 0 0 1-2.44-2.493c-.818-.9-1.615-1.822-2.325-2.812-.704-.995-1.366-2.019-1.933-3.099a39 39 0 0 1-1.51-3.163 36 36 0 0 1-1.99-6.433 35 35 0 0 1-.504-3.057 28 28 0 0 1-.167-3.072c.014-1.027.063-2.054.185-3.075.111-.942.24-1.882.405-2.816a54 54 0 0 1 .522-2.666 42 42 0 0 1 1.471-5.059c.313-.85.638-1.697 1.013-2.523.381-.83.783-1.652 1.242-2.442a37 37 0 0 1 1.376-2.202c.481-.703.975-1.4 1.514-2.061a29 29 0 0 1 1.65-1.88 33 33 0 0 1 1.729-1.704 30 30 0 0 1 1.844-1.54 26 26 0 0 1 1.938-1.353 29 29 0 0 1 2.093-1.203 31 31 0 0 1 2.244-1.04c.733-.305 1.47-.6 2.22-.86a31 31 0 0 1 2.205-.679 51 51 0 0 1 2.084-.501 96 96 0 0 1 2.14-.454 38 38 0 0 1 2.17-.359q.947-.13 1.895-.254c.631-.086 1.262-.18 1.896-.248q.75-.077 1.5-.125.483-.036.964-.089.51-.055 1.023-.093.366-.028.73-.065.318-.032.634-.066.258-.029.513-.065.296-.045.591-.092l.394-.052.17-.028-.012.007a1.7 1.7 0 0 0-.396.208c-.107.08-.27.21-.335.286 3.36-3.517 8.334 1.236 4.974 4.752z" transform="translate(0 -197)"/><path style="opacity:1;fill:#020900;fill-opacity:1;stroke:none;stroke-width:1;stroke-linecap:butt;stroke-linejoin:round;stroke-miterlimit:4;stroke-dasharray:none;stroke-opacity:1" d="M76.956 228.86c.044-.045.41-.295.317-.232-.065.048.082-.066.103-.083.185-.148.38-.28.58-.408l.394-.25q.29-.18.59-.345c.169-.088.331-.186.494-.284.202-.12.403-.243.595-.378a5 5 0 0 0 .51-.427c.218-.206.42-.43.62-.654q.291-.321.548-.672c.166-.233.314-.478.456-.726.178-.32.346-.646.515-.97q.246-.464.457-.942c.137-.313.247-.637.348-.963.127-.417.228-.841.325-1.266.107-.475.198-.954.284-1.433.068-.364.092-.734.103-1.104.008-.397-.015-.794-.048-1.19a14 14 0 0 0-.19-1.278 20 20 0 0 0-.34-1.446 13 13 0 0 0-.44-1.299 10 10 0 0 0-.547-1.166 8 8 0 0 0-.66-1.02 10 10 0 0 0-.833-.944 7.5 7.5 0 0 0-.916-.777 8 8 0 0 0-1.058-.623 8 8 0 0 0-1.15-.443c-.421-.12-.851-.201-1.282-.276a9 9 0 0 0-1.219-.119 6 6 0 0 0-1.02.065 4.4 4.4 0 0 0-.834.214 6 6 0 0 0-.822.378c-.247.127-.47.29-.685.462-.314.262-.62.536-.926.807-.256.226-.51.456-.747.702-.222.239-.43.49-.636.744q-.312.38-.597.778-.25.359-.473.736c-.146.252-.27.518-.39.784-.134.301-.25.61-.364.92q-.16.434-.287.881c-.06.233-.103.47-.138.708-.04.28-.063.562-.084.844q-.03.413-.042.825 0 .203.006.022.107.349.211.699c.08.273.158.546.244.818.057.177.11.355.178.529q.069.165.144.327l.199.426c.096.209.102.202-.073-.11 2.636 4.09-3.146 7.817-5.782 3.729-.137-.233-.274-.463-.38-.712l-.216-.463c-.119-.26-.235-.522-.336-.79a17 17 0 0 1-.296-.871q-.143-.457-.274-.918c-.114-.38-.235-.758-.328-1.144-.122-.57-.2-1.148-.173-1.732q.016-.576.058-1.149c.034-.457.076-.914.143-1.367.082-.525.18-1.048.324-1.56q.197-.688.444-1.36c.173-.473.354-.942.56-1.4.226-.494.462-.984.739-1.451a18 18 0 0 1 1.65-2.345c.336-.411.677-.82 1.046-1.202q.537-.548 1.116-1.054c.408-.36.814-.726 1.239-1.068a11.3 11.3 0 0 1 1.72-1.131c.593-.31 1.2-.598 1.836-.812.696-.23 1.405-.421 2.134-.516a13 13 0 0 1 2.184-.116c.714.03 1.427.09 2.132.216.73.129 1.457.274 2.166.492.751.24 1.492.514 2.197.87.71.364 1.404.762 2.048 1.236a14.6 14.6 0 0 1 1.745 1.504c.508.526 1 1.07 1.438 1.657.437.598.849 1.216 1.195 1.872.33.625.64 1.261.892 1.923.252.656.488 1.32.668 2 .172.651.333 1.305.457 1.967.12.652.226 1.308.282 1.97.052.662.086 1.326.066 1.99-.027.698-.08 1.396-.208 2.084a41 41 0 0 1-.348 1.743 25 25 0 0 1-.467 1.792c-.18.571-.378 1.138-.62 1.686q-.3.676-.645 1.33c-.216.417-.432.834-.663 1.242-.27.465-.552.924-.87 1.359-.304.41-.624.81-.968 1.188-.353.394-.713.783-1.103 1.142-.396.36-.803.708-1.244 1.012q-.466.32-.954.608c-.236.142-.472.284-.715.413a5 5 0 0 0-.29.17q-.162.1-.322.203c-.057.035.025-.02-.005 0q-.185.147-.375.287c-.143.1-.144.102-.061.04-3.822 3.01-8.078-2.395-4.256-5.405m-62.011 2.945a7 7 0 0 1-.839.165 17 17 0 0 1-.786.085 7.7 7.7 0 0 1-2.552-.181 8.4 8.4 0 0 1-1.207-.4c-.368-.15-.72-.335-1.068-.527-.366-.2-.714-.43-1.052-.675a8 8 0 0 1-1.051-.95q-.374-.395-.722-.81a11 11 0 0 1-.844-1.173 12 12 0 0 1-.74-1.402 20 20 0 0 1-.593-1.472 24 24 0 0 1-.496-1.639q-.187-.69-.355-1.383a30 30 0 0 1-.53-2.782 47 47 0 0 1-.176-1.376 19 19 0 0 1-.113-1.55 24 24 0 0 1-.003-1.457 15 15 0 0 1 .132-1.503c.063-.456.15-.908.246-1.358.1-.475.232-.943.383-1.405.164-.487.384-.953.614-1.412q.29-.57.61-1.123a11 11 0 0 1 1.878-2.362c.356-.348.736-.67 1.124-.98.398-.318.82-.604 1.25-.876.42-.264.858-.5 1.3-.725.443-.221.898-.419 1.354-.612a24 24 0 0 1 2.974-1.023 34 34 0 0 1 1.593-.386 41 41 0 0 1 1.723-.33c.614-.107 1.234-.17 1.856-.207a11.6 11.6 0 0 1 1.964.07c.724.085 1.423.285 2.109.525.54.197 1.07.426 1.595.663q.727.328 1.433.699a25 25 0 0 1 2.635 1.64c.386.271.761.557 1.133.847.398.305.773.637 1.132.986.43.426.794.91 1.136 1.408.289.426.542.874.787 1.326.23.425.438.86.635 1.301.2.451.373.913.536 1.379.154.445.285.897.41 1.351q.158.58.3 1.166c.1.405.181.815.258 1.225a32 32 0 0 1 .31 2.184q.061.556.073 1.116.008.462 0 .925-.008.351-.02.701-.011.376-.046.748c-.024.27-.07.539-.12.806a7 7 0 0 1-.22.84 12 12 0 0 1-.206.576 7 7 0 0 1-.27.603l-.117.246-.106.225c.424-.965.424-1.953-.047-2.948-.221-.47-.667-.794-1-1.191 3.92 2.878-.15 8.424-4.07 5.546-.354-.411-.822-.746-1.06-1.233-.51-1.053-.487-2.089-.044-3.11l.107-.228.15-.316c.012-.025.08-.17.035-.06l.08-.219c.032-.097-.017.082.013-.036.012-.06.02-.093.026-.144q.016-.169.02-.339.01-.298.017-.597.006-.318 0-.636a5 5 0 0 0-.035-.537 25 25 0 0 0-.233-1.665c-.053-.286-.11-.572-.179-.854q-.117-.484-.247-.965a16 16 0 0 0-.276-.919 12 12 0 0 0-.324-.844 12 12 0 0 0-.822-1.55c-.089-.132-.177-.266-.284-.385-.163-.171-.353-.314-.537-.463a21 21 0 0 0-1.781-1.263c-.31-.192-.623-.379-.944-.551a20 20 0 0 0-1.063-.52c-.354-.16-.712-.315-1.076-.453a3 3 0 0 0-.606-.173 4.3 4.3 0 0 0-.77-.035q-.547.028-1.087.12-.702.12-1.4.266c-.417.092-.834.188-1.247.3a17 17 0 0 0-2.119.725c-.313.133-.626.267-.932.417-.25.126-.498.258-.736.406-.217.135-.43.276-.631.435a8 8 0 0 0-.604.52c-.145.14-.286.284-.412.44q-.182.221-.329.465-.218.375-.414.76a7 7 0 0 0-.23.487 6 6 0 0 0-.18.665q-.092.415-.157.837a8 8 0 0 0-.073.773q-.015.51 0 1.021c.012.339.031.678.072 1.014q.066.585.149 1.165.078.548.178 1.09.101.534.228 1.06.146.603.308 1.201c.103.378.207.755.334 1.126q.17.476.376.937c.09.198.181.395.294.58.092.149.188.295.299.43a12 12 0 0 0 .582.645c.094.076.2.135.303.196.112.062.223.125.339.18q.096.042.196.075c.04.013.079.027.122.026a1 1 0 0 0 .23-.003q.218-.017.433-.044c.116-.014.029-.003-.035.018 4.686-1.303 6.529 5.325 1.842 6.628m35.824 43.179c.255.06.517.064.778.05.062.01.466-.084.238-.027-.082.018-.101.027-.106.028-.17.058-.018.005.075-.031.38-.152.701-.405.988-.692.08-.089.093-.11.036-.033-.07.11.136-.22.146-.237a2.2 2.2 0 0 0 .172-.409q.017-.06.03-.122-.009.086-.015.173c.005-.056.004-.052.007-.008a2 2 0 0 0-.014-.131c-.061-.345-.217-.66-.403-.954a2 2 0 0 0-.372-.419 2 2 0 0 0-.39-.25 1 1 0 0 0-.135-.055 1.67 1.67 0 0 0-.866.05c.027-.022-.092.042-.118.056a2.2 2.2 0 0 0-.539.468c-.11.15-.086.112-.02-.01l.14-.268c-.19.38-.234.802-.247 1.22.004.198.027.396.08.588q.03.101.073.198c.136.324.49.7.788.97.16.145.472.311.618.38l-.158-.059c-.275-.09-.523-.235-.782-.367-4.137-2.56-.517-8.41 3.62-5.85-.65-.327-.312-.178-.576-.28-.042-.017.17.063.128.046q.146.054.29.11c.4.159.787.353 1.125.623.461.405.88.85 1.133 1.418.12.25.229.505.31.77.12.403.214.815.227 1.238-.01.67-.104 1.327-.408 1.932q-.146.3-.306.593c-.178.332-.366.66-.596.959-.363.453-.773.865-1.274 1.167a6.3 6.3 0 0 1-1.021.511c-.468.174-.948.312-1.447.356-.524.039-1.05.032-1.565-.082a6.4 6.4 0 0 1-1.192-.363c-.424-.189-.836-.408-1.198-.704-.354-.291-.685-.61-.948-.988-.337-.507-.607-1.053-.717-1.657a6 6 0 0 1-.113-.913 7 7 0 0 1 .004-.789q.02-.293.058-.584a6 6 0 0 1 .157-.798c.096-.339.213-.673.38-.984a5 5 0 0 1 .424-.663 7 7 0 0 1 .385-.478c.41-.424.87-.791 1.42-1.015a7 7 0 0 1 1.046-.336c.267-.066.534-.127.807-.15.42-.029.843-.023 1.257.07 4.76 1 3.346 7.732-1.414 6.732" transform="translate(0 -197)"/></svg>