<?xml version="1.0" encoding="UTF-8" standalone="no"?>
<!-- Created with Inkscape (http://www.inkscape.org/) -->

<svg
   xmlns:dc="http://purl.org/dc/elements/1.1/"
   xmlns:cc="http://creativecommons.org/ns#"
   xmlns:rdf="http://www.w3.org/1999/02/22-rdf-syntax-ns#"
   xmlns:svg="http://www.w3.org/2000/svg"
   xmlns="http://www.w3.org/2000/svg"
   xmlns:sodipodi="http://sodipodi.sourceforge.net/DTD/sodipodi-0.dtd"
   xmlns:inkscape="http://www.inkscape.org/namespaces/inkscape"
   width="10cm"
   height="10cm"
   viewBox="0 0 100 99.999997"
   version="1.1"
   id="svg8"
   sodipodi:docname="mun.svg"
   inkscape:version="0.92.3 (2405546, 2018-03-11)">
  <defs
     id="defs2" />
  <sodipodi:namedview
     id="base"
     pagecolor="#ffffff"
     bordercolor="#666666"
     borderopacity="1.0"
     inkscape:pageopacity="0.0"
     inkscape:pageshadow="2"
     inkscape:zoom="1"
     inkscape:cx="175.50186"
     inkscape:cy="186.50542"
     inkscape:document-units="cm"
     inkscape:current-layer="layer1"
     showgrid="true"
     units="cm"
     inkscape:window-width="881"
     inkscape:window-height="706"
     inkscape:window-x="971"
     inkscape:window-y="214"
     inkscape:window-maximized="0"
     inkscape:snap-nodes="false">
    <inkscape:grid
       type="xygrid"
       id="grid815"
       units="cm"
       spacingx="9.9999998"
       spacingy="9.9999998" />
  </sodipodi:namedview>
  <metadata
     id="metadata5">
    <rdf:RDF>
      <cc:Work
         rdf:about="">
        <dc:format>image/svg+xml</dc:format>
        <dc:type
           rdf:resource="http://purl.org/dc/dcmitype/StillImage" />
        <dc:title></dc:title>
      </cc:Work>
    </rdf:RDF>
  </metadata>
  <g
     inkscape:label="Layer 1"
     inkscape:groupmode="layer"
     id="layer1"
     transform="translate(0,-197.00002)">
    <path
       style="opacity:1;fill:#020900;fill-opacity:1;stroke:none;stroke-width:1;stroke-linecap:butt;stroke-linejoin:round;stroke-miterlimit:4;stroke-dasharray:none;stroke-opacity:1"
       id="path1299"
       d="m 23.059725,212.43047 c -0.04824,-0.008 0.03394,-4.5e-4 0.03752,-1.9e-4 0.231797,0.0136 0.46286,0.0361 0.693674,0.061 0.279836,0.0311 0.558709,0.07 0.838195,0.10397 0.267333,0.0319 0.535359,0.0574 0.803462,0.0818 0.294428,0.027 0.589321,0.0484 0.884188,0.0699 0.386841,0.0278 0.772865,0.0646 1.158265,0.10773 0.455848,0.0526 0.907796,0.1326 1.359083,0.21459 0.490477,0.0863 0.976514,0.19434 1.460487,0.31116 0.478255,0.11929 0.954386,0.24681 1.432152,0.36803 0.514832,0.12616 1.028759,0.25583 1.540942,0.39235 0.638979,0.16576 1.265232,0.37355 1.883955,0.6026 0.72114,0.26867 1.412607,0.60644 2.093126,0.96378 0.684136,0.35943 1.344565,0.76035 1.990241,1.18434 0.662162,0.4374 1.286854,0.92699 1.898946,1.43105 0.579679,0.4808 1.141585,0.98214 1.693889,1.49397 0.521629,0.48909 1.027502,0.99452 1.532401,1.50074 0.490802,0.485 0.967899,0.98313 1.429308,1.4961 0.497568,0.55681 0.9584,1.14439 1.403998,1.7431 0.485992,0.65879 0.925507,1.34966 1.35105,2.04845 0.452472,0.74662 0.866743,1.51526 1.266785,2.29094 0.421545,0.82269 0.802452,1.66511 1.168752,2.51355 0.3981,0.92348 0.7444,1.86765 1.070864,2.8184 0.329711,0.96727 0.612463,1.94939 0.880893,2.93511 0.263166,0.96479 0.487334,1.93935 0.691738,2.91807 0.208346,0.99714 0.359608,2.00452 0.491585,3.01419 0.132276,1.03154 0.21146,2.06849 0.2658,3.10672 0.05025,0.99902 0.05053,1.99927 0.02519,2.99891 -0.02167,0.97902 -0.110744,1.95391 -0.227703,2.92555 -0.111488,0.93584 -0.281821,1.86274 -0.470326,2.78566 -0.176052,0.84513 -0.378299,1.68446 -0.590627,2.52111 -0.204094,0.80922 -0.440976,1.60947 -0.691216,2.40544 -0.238885,0.74763 -0.495335,1.48942 -0.764302,2.22671 -0.260377,0.70457 -0.539324,1.40208 -0.826958,2.09591 -0.286575,0.6928 -0.61215,1.36828 -0.950071,2.0372 -0.34145,0.67667 -0.722868,1.33164 -1.119494,1.97712 -0.379445,0.61045 -0.782934,1.20538 -1.193872,1.79492 -0.383394,0.55169 -0.789162,1.08709 -1.20428,1.61514 -0.376999,0.47448 -0.764185,0.94072 -1.155427,1.40348 -0.387766,0.45958 -0.78839,0.90797 -1.194091,1.35172 -0.424979,0.4631 -0.865312,0.91161 -1.31567,1.34996 -0.475168,0.45897 -0.976019,0.89003 -1.479034,1.31789 -0.467858,0.39844 -0.942801,0.78839 -1.42003,1.17551 -0.475919,0.38895 -0.964313,0.76207 -1.458539,1.12734 -0.477581,0.35223 -0.968788,0.68535 -1.461196,1.01634 -0.487992,0.32923 -0.990317,0.63622 -1.494877,0.93915 -0.455808,0.27378 -0.914106,0.54332 -1.376095,0.80653 -0.459738,0.26389 -0.926881,0.51422 -1.399792,0.75358 -0.464642,0.23423 -0.939212,0.4476 -1.418259,0.65042 -0.411239,0.16954 -0.82659,0.32888 -1.240951,0.49058 -0.37134,0.14558 -0.745406,0.28406 -1.120164,0.42054 -0.325649,0.11686 -0.651629,0.23283 -0.978395,0.34654 -0.314547,0.10945 -0.63182,0.21077 -0.949621,0.31028 -0.285274,0.09 -0.572485,0.1736 -0.860746,0.25347 -0.322796,0.09 -0.650376,0.16078 -0.979443,0.22332 -0.248503,0.0445 -0.497594,0.0858 -0.747308,0.12287 -0.222919,0.0315 -0.446329,0.0593 -0.670227,0.0829 -0.152459,0.0155 -0.305016,0.03 -0.457561,0.0446 -0.114123,0.0109 -0.228247,0.0218 -0.342371,0.0327 -0.09078,0.009 -0.181553,0.0173 -0.272329,0.026 -0.105768,0.01 -0.211765,0.0166 -0.31774,0.0236 -0.05849,0.004 -0.116979,0.008 -0.175469,0.0115 -1.26137,0.11349 -1.722492,-0.34937 -2.797741,-1.03045 -3.42885,-3.45028 1.450587,-8.29941 4.879437,-4.84913 v 0 c -1.024825,-0.63901 -1.408961,-1.04381 -2.578812,-0.98178 -0.01649,7.9e-4 0.06717,-0.004 0.04943,-0.003 0.05683,-0.004 0.113668,-0.007 0.1705,-0.0111 0.02857,-0.002 0.115023,-0.008 0.116337,-0.007 0.09076,-0.009 0.181529,-0.0173 0.272293,-0.026 0.113648,-0.0109 0.227297,-0.0217 0.340943,-0.0326 0.133173,-0.0128 0.266354,-0.0254 0.399467,-0.0388 0.130123,-0.0134 0.259825,-0.0302 0.389445,-0.0478 0.15984,-0.0221 0.318568,-0.0518 0.477756,-0.078 0.137878,-0.0244 0.274673,-0.0549 0.409811,-0.0916 0.214253,-0.0591 0.4276,-0.12135 0.639545,-0.18829 0.249357,-0.078 0.498423,-0.15704 0.745245,-0.24279 0.295385,-0.10261 0.58989,-0.20774 0.884316,-0.31306 0.325396,-0.1184 0.650203,-0.23849 0.97259,-0.36489 0.355751,-0.13883 0.712243,-0.27586 1.066059,-0.41956 0.33559,-0.1411 0.667695,-0.29036 0.993167,-0.45362 0.371189,-0.1868 0.736602,-0.3845 1.097137,-0.59115 0.416309,-0.2368 0.828738,-0.48026 1.23944,-0.72664 0.404027,-0.24239 0.807041,-0.48682 1.19779,-0.75034 0.408221,-0.27429 0.816087,-0.54944 1.212311,-0.84096 0.410757,-0.3029 0.816244,-0.6129 1.211384,-0.93602 0.435885,-0.35345 0.869712,-0.70946 1.296979,-1.07332 0.387649,-0.32951 0.775118,-0.65984 1.142551,-1.01204 0.354158,-0.3429 0.698423,-0.69582 1.032578,-1.05828 0.345782,-0.37778 0.687203,-0.75955 1.017522,-1.15099 0.339087,-0.40074 0.674547,-0.80457 1.001733,-1.21511 0.333897,-0.42383 0.66026,-0.85358 0.968254,-1.29674 0.33633,-0.48176 0.666869,-0.96773 0.978228,-1.46613 0.29745,-0.48176 0.583475,-0.97067 0.83916,-1.47614 0.260988,-0.51471 0.513025,-1.03425 0.734195,-1.56755 0.250164,-0.60241 0.4924,-1.20818 0.719307,-1.81978 0.233989,-0.63974 0.456062,-1.28376 0.664276,-1.93238 0.212209,-0.67295 0.412933,-1.34959 0.585621,-2.03391 0.186343,-0.73222 0.363453,-1.46689 0.518483,-2.20646 0.1519,-0.74011 0.291052,-1.48309 0.38055,-2.23376 0.09244,-0.75622 0.163563,-1.5149 0.180065,-2.27711 0.02212,-0.82152 0.02188,-1.64352 -0.01834,-2.46459 -0.04376,-0.85998 -0.109032,-1.71881 -0.21735,-2.57333 -0.108588,-0.83725 -0.232368,-1.67275 -0.404609,-2.49964 -0.175281,-0.84384 -0.368742,-1.68385 -0.595169,-2.51559 -0.228923,-0.84279 -0.469379,-1.68272 -0.750332,-2.50989 -0.268327,-0.78435 -0.552688,-1.5634 -0.88033,-2.32524 -0.303379,-0.70457 -0.618646,-1.40427 -0.96756,-2.0877 -0.325043,-0.63218 -0.661725,-1.25865 -1.029335,-1.86733 -0.314177,-0.51801 -0.637556,-1.03093 -0.995452,-1.52021 -0.317971,-0.42937 -0.646629,-0.85094 -1.001633,-1.25062 -0.379217,-0.42419 -0.775822,-0.83189 -1.179881,-1.23245 -0.441954,-0.4432 -0.884335,-0.88612 -1.340072,-1.31524 -0.454083,-0.42179 -0.916546,-0.83439 -1.393103,-1.23077 -0.422298,-0.34923 -0.85155,-0.69082 -1.308274,-0.99457 -0.456327,-0.30292 -0.925685,-0.58529 -1.410081,-0.84132 -0.419394,-0.22214 -0.843894,-0.43574 -1.288518,-0.60364 -0.411422,-0.15505 -0.829226,-0.2917 -1.255054,-0.40202 -0.485177,-0.1296 -0.972362,-0.25131 -1.460005,-0.37128 -0.453197,-0.11509 -0.905084,-0.23519 -1.358413,-0.34974 -0.355513,-0.0864 -0.712523,-0.16638 -1.073095,-0.2291 -0.298206,-0.0543 -0.596511,-0.10941 -0.897451,-0.14669 -0.295898,-0.0335 -0.592331,-0.0614 -0.889375,-0.0828 -0.336147,-0.0245 -0.672296,-0.0492 -1.007937,-0.0801 -0.337604,-0.0308 -0.675076,-0.0635 -1.011671,-0.10402 -0.248411,-0.0304 -0.496406,-0.064 -0.744953,-0.0932 -0.159939,-0.0173 -0.319984,-0.0325 -0.480673,-0.0413 -0.213622,-0.0168 -0.427136,-0.0371 -0.638581,-0.0727 -4.798515,-0.79733 -3.670928,-7.58345 1.127586,-6.78613 z"
       inkscape:connector-curvature="0" />
    <path
       style="opacity:1;fill:#020900;fill-opacity:1;stroke:none;stroke-width:1;stroke-linecap:butt;stroke-linejoin:round;stroke-miterlimit:4;stroke-dasharray:none;stroke-opacity:1"
       id="path1301"
       d="m 17.79039,213.66469 c 0.130245,-0.20982 0.279648,-0.40664 0.431348,-0.60118 0.16552,-0.21043 0.342862,-0.411 0.524783,-0.60727 0.260986,-0.27965 0.554542,-0.52501 0.856522,-0.75859 0.311933,-0.23887 0.649721,-0.43967 0.993957,-0.62765 0.396975,-0.21873 0.818394,-0.3853 1.245502,-0.53421 0.434952,-0.14893 0.882495,-0.25498 1.329813,-0.35881 0.426614,-0.0984 0.853804,-0.19433 1.280617,-0.29189 0.480362,-0.11099 0.957639,-0.23472 1.436245,-0.35294 0.607552,-0.15122 1.218907,-0.28614 1.831822,-0.4136 0.66494,-0.13637 1.332939,-0.25711 2.001274,-0.37549 0.746572,-0.13284 1.496134,-0.24747 2.246955,-0.35329 0.806561,-0.11254 1.615768,-0.20425 2.425623,-0.28924 0.870535,-0.091 1.742768,-0.1635 2.615941,-0.22344 0.950047,-0.062 1.901547,-0.097 2.85314,-0.12408 1.000791,-0.0281 2.002033,-0.0267 3.003081,-0.0188 1.041683,0.006 2.082705,0.0409 3.122893,0.0951 1.108856,0.0552 2.211864,0.18001 3.310993,0.33257 1.090573,0.15522 2.172872,0.36067 3.250015,0.58996 1.117357,0.23886 2.21669,0.55042 3.307797,0.88746 1.093205,0.343 2.169536,0.73601 3.237931,1.14902 1.025829,0.40175 2.035799,0.84227 3.040316,1.29423 0.965505,0.43401 1.909152,0.9139 2.842046,1.41354 0.930463,0.49557 1.82082,1.0597 2.691051,1.65338 0.888859,0.61099 1.725779,1.29181 2.541651,1.99599 0.822425,0.71381 1.584722,1.49169 2.325261,2.28892 0.727043,0.78778 1.412788,1.61181 2.076323,2.45334 0.711057,0.90289 1.351145,1.85732 1.962103,2.82973 0.659553,1.05659 1.230839,2.16363 1.77651,3.28213 0.591259,1.21919 1.100667,2.47495 1.581076,3.74114 0.493556,1.31208 0.90933,2.65105 1.30189,3.99618 0.384995,1.3336 0.715931,2.68179 1.026446,4.03439 0.312187,1.35693 0.533831,2.7317 0.71882,4.11096 0.170664,1.30164 0.273476,2.61048 0.339592,3.92117 0.05751,1.23498 0.04025,2.47124 -0.01712,3.70568 -0.05784,1.18319 -0.20596,2.3586 -0.393912,3.52733 -0.190704,1.17615 -0.485343,2.33073 -0.821124,3.47272 -0.340153,1.15174 -0.803066,2.25985 -1.3106,3.3463 -0.51114,1.08558 -1.129609,2.11377 -1.784845,3.11711 -0.646612,0.97775 -1.362887,1.90618 -2.097069,2.81903 -0.730279,0.90448 -1.512091,1.76506 -2.309688,2.6101 -0.792683,0.8376 -1.631913,1.62875 -2.484596,2.40448 -0.831474,0.75574 -1.691418,1.47889 -2.563167,2.18746 -0.855406,0.69319 -1.733505,1.35747 -2.61639,2.01504 -0.881677,0.65498 -1.775246,1.29361 -2.676107,1.92187 -0.882513,0.61367 -1.786313,1.19578 -2.695046,1.76961 -0.859967,0.53958 -1.72688,1.06803 -2.599745,1.58646 -0.832602,0.49071 -1.676109,0.96258 -2.523054,1.42799 -0.812689,0.44969 -1.641777,0.86823 -2.480135,1.26764 -0.834814,0.39588 -1.687163,0.75247 -2.547456,1.08874 -0.860769,0.33361 -1.739085,0.61827 -2.621447,0.88842 -0.821849,0.24835 -1.651333,0.47015 -2.482863,0.68342 -0.773515,0.19713 -1.552075,0.37343 -2.332352,0.54148 -0.739585,0.15836 -1.482932,0.29807 -2.227488,0.43078 -0.7444,0.13443 -1.492612,0.24482 -2.243142,0.33841 -0.748692,0.0899 -1.500556,0.1486 -2.252951,0.19637 -0.740926,0.046 -1.483011,0.0633 -2.225228,0.0592 -0.738749,-0.008 -1.47583,-0.0595 -2.211266,-0.12631 -0.698458,-0.0626 -1.392089,-0.16643 -2.083903,-0.27924 -0.619689,-0.10218 -1.237007,-0.21793 -1.853735,-0.33647 -0.535921,-0.10371 -1.071528,-0.20899 -1.605817,-0.32084 -0.465089,-0.0988 -0.928779,-0.20391 -1.392738,-0.30781 -0.390955,-0.0867 -0.782137,-0.1723 -1.173041,-0.2592 -0.325155,-0.0726 -0.650663,-0.1437 -0.975791,-0.21646 -0.263214,-0.0592 -0.526191,-0.1195 -0.789311,-0.17915 -0.205196,-0.0467 -0.410727,-0.0919 -0.61624,-0.13722 -0.170698,-0.0376 -0.341404,-0.0752 -0.51211,-0.11271 -0.136403,-0.03 -0.272807,-0.06 -0.40921,-0.09 -0.129297,-0.0278 -0.258206,-0.0573 -0.386838,-0.088 -0.09674,-0.0229 -0.193535,-0.0456 -0.290108,-0.0692 -4.721996,-1.168 -3.070196,-7.84591 1.6518,-6.67791 v 0 c 0.07919,0.0191 0.158566,0.0376 0.237817,0.0565 0.08826,0.0211 0.17675,0.0412 0.265514,0.0602 0.136422,0.03 0.272845,0.06 0.409267,0.0901 0.171489,0.0377 0.34298,0.0755 0.514461,0.11323 0.218968,0.0483 0.437946,0.0965 0.656578,0.14623 0.257184,0.0583 0.514236,0.1172 0.771502,0.17514 0.321692,0.0721 0.643818,0.1422 0.965535,0.21417 0.394374,0.0877 0.789039,0.17401 1.183448,0.26153 0.433216,0.097 0.866164,0.19526 1.300369,0.28779 0.496954,0.10426 0.995299,0.2016 1.493766,0.29832 0.553805,0.10651 1.108083,0.21082 1.664515,0.30282 0.531641,0.0871 1.064443,0.16936 1.601266,0.21779 0.542595,0.0502 1.086356,0.0902 1.63145,0.0978 0.581986,0.005 1.16381,-0.011 1.744822,-0.0457 0.61414,-0.0385 1.22787,-0.0856 1.839105,-0.15766 0.630502,-0.0777 1.258768,-0.17146 1.884032,-0.28419 0.66398,-0.11815 1.326898,-0.24245 1.986468,-0.38341 0.693057,-0.14899 1.384588,-0.30533 2.071674,-0.48005 0.72989,-0.18691 1.458052,-0.38107 2.179608,-0.59825 0.717677,-0.219 1.432444,-0.44872 2.132854,-0.71873 0.706758,-0.27491 1.406425,-0.56791 2.092232,-0.89199 0.718011,-0.34087 1.42715,-0.69999 2.122795,-1.0847 0.779891,-0.42833 1.556602,-0.86265 2.323478,-1.31396 0.819206,-0.48615 1.632384,-0.98244 2.43954,-1.48836 0.820156,-0.51754 1.636086,-1.04223 2.432741,-1.59551 0.842282,-0.58709 1.677511,-1.18421 2.501858,-1.7963 0.805508,-0.59971 1.607026,-1.20506 2.387631,-1.83708 0.773216,-0.62767 1.535782,-1.2685 2.273163,-1.93818 0.724283,-0.65786 1.437872,-1.32808 2.111406,-2.03838 0.673836,-0.71251 1.334852,-1.43773 1.952125,-2.2003 0.594381,-0.73719 1.17583,-1.48588 1.700999,-2.2746 0.480785,-0.7307 0.935915,-1.47897 1.311724,-2.27012 0.363927,-0.77024 0.696632,-1.55591 0.940914,-2.37336 0.256723,-0.86246 0.481349,-1.73484 0.627629,-2.62361 0.149397,-0.91193 0.265549,-1.82943 0.313007,-2.7529 0.04938,-1.01168 0.06262,-2.02495 0.01789,-3.03722 -0.05491,-1.12075 -0.143229,-2.2398 -0.287605,-3.3529 -0.155191,-1.16881 -0.341603,-2.33385 -0.605287,-3.48374 -0.280006,-1.2226 -0.578615,-2.4412 -0.925594,-3.64676 -0.341405,-1.17268 -0.701861,-2.34039 -1.130718,-3.48457 -0.404985,-1.07123 -0.833999,-2.13389 -1.332535,-3.16562 -0.437112,-0.89918 -0.892553,-1.79041 -1.42046,-2.6405 -0.478793,-0.7659 -0.980657,-1.51758 -1.538851,-2.22855 -0.547645,-0.69708 -1.115153,-1.37845 -1.715392,-2.03112 -0.567753,-0.61368 -1.151128,-1.21365 -1.781646,-1.76372 -0.61795,-0.53622 -1.251921,-1.05484 -1.925158,-1.52088 -0.664742,-0.4565 -1.346002,-0.88871 -2.057961,-1.2686 -0.792417,-0.42561 -1.594382,-0.8337 -2.41477,-1.20312 -0.89203,-0.40182 -1.788824,-0.7937 -2.699507,-1.15168 -0.920332,-0.35671 -1.847601,-0.69592 -2.789166,-0.99292 -0.893651,-0.27735 -1.793867,-0.53453 -2.709196,-0.73127 -0.916167,-0.19609 -1.836875,-0.37109 -2.764491,-0.50442 -0.903187,-0.12669 -1.809554,-0.23058 -2.720948,-0.27606 -0.938316,-0.0496 -1.877436,-0.0806 -2.817127,-0.0859 -0.918113,-0.007 -1.83641,-0.009 -2.754297,0.0163 -0.859877,0.0242 -1.719678,0.0555 -2.578193,0.1108 -0.790506,0.0538 -1.580091,0.11991 -2.368203,0.20199 -0.7292,0.0763 -1.457836,0.15856 -2.18409,0.25959 -0.670386,0.0942 -1.339599,0.19652 -2.006166,0.31504 -0.601687,0.1065 -1.203124,0.21484 -1.801839,0.33714 -0.529228,0.10974 -1.057058,0.22616 -1.58159,0.35673 -0.517292,0.12769 -1.033102,0.26153 -1.552494,0.38058 -0.419731,0.0959 -0.839821,0.19028 -1.259373,0.287 -0.219792,0.0509 -0.440963,0.0982 -0.656355,0.16601 -0.06826,0.0212 -0.137454,0.041 -0.200076,0.0763 -0.03549,0.0184 -0.07096,0.0383 -0.09645,0.0478 -0.06011,0.0438 -0.02138,0.0146 -0.0091,-0.006 -0.04389,0.0462 -0.08578,0.0946 -0.126989,0.14342 -0.07464,0.0938 -0.05903,0.079 0.0068,-0.0274 -2.554994,4.13926 -8.408791,0.52595 -5.853797,-3.61331 z"
       inkscape:connector-curvature="0" />
  </g>
</svg>
