<svg viewBox="0 0 100 100"><path style="opacity:1;fill:#020900;fill-opacity:1;stroke:none;stroke-width:1;stroke-linecap:butt;stroke-linejoin:round;stroke-miterlimit:4;stroke-dasharray:none;stroke-opacity:1" d="M23.06 212.43c-.049-.008.034 0 .037 0q.348.022.694.061c.28.031.559.07.838.104q.4.047.804.082.441.039.884.07.58.043 1.158.108c.456.052.908.132 1.36.214.49.087.976.195 1.46.311.478.12.954.247 1.432.368q.773.189 1.54.393c.64.166 1.266.373 1.885.602.72.27 1.412.607 2.093.964.684.36 1.344.76 1.99 1.185.662.437 1.287.927 1.899 1.43a41 41 0 0 1 1.694 1.495c.521.489 1.027.994 1.532 1.5q.737.727 1.43 1.496a26 26 0 0 1 1.404 1.743c.486.66.925 1.35 1.35 2.049a38 38 0 0 1 2.436 4.804c.398.924.745 1.868 1.071 2.819.33.967.612 1.95.88 2.935.264.965.488 1.94.693 2.918a40 40 0 0 1 .757 6.12c.05 1 .05 2 .025 3a30 30 0 0 1-.227 2.925 34 34 0 0 1-.47 2.786 60 60 0 0 1-.591 2.521c-.205.81-.441 1.61-.692 2.406q-.36 1.12-.764 2.226c-.26.705-.54 1.402-.827 2.096a30 30 0 0 1-.95 2.037 27 27 0 0 1-1.12 1.978c-.379.61-.782 1.205-1.193 1.794-.384.552-.79 1.088-1.205 1.616q-.567.71-1.155 1.403-.583.688-1.194 1.352a33 33 0 0 1-1.316 1.35c-.475.459-.976.89-1.479 1.318q-.703.596-1.42 1.175a38 38 0 0 1-1.458 1.127c-.478.353-.97.686-1.462 1.017-.488.33-.99.636-1.494.939q-.684.411-1.377.807-.69.394-1.4.753c-.464.234-.939.448-1.418.65-.41.17-.826.33-1.24.491q-.558.218-1.12.42-.488.176-.98.347a32 32 0 0 1-1.81.564c-.322.09-.65.16-.979.223q-.373.067-.747.123a19 19 0 0 1-.67.083l-.458.045-.342.032-.273.026q-.159.014-.318.024l-.175.011c-1.261.114-1.722-.349-2.798-1.03-3.429-3.45 1.45-8.3 4.88-4.85-1.025-.638-1.41-1.043-2.58-.98-.016 0 .068-.005.05-.004l.17-.011c.03-.002.116-.008.117-.007l.272-.026.341-.033.4-.038q.195-.021.39-.048c.16-.022.318-.052.477-.078q.207-.037.41-.092.32-.088.64-.188.374-.115.745-.243.443-.155.884-.313.488-.176.973-.365c.355-.139.712-.276 1.066-.42q.503-.21.993-.453.556-.281 1.097-.591.624-.356 1.24-.727c.403-.242.806-.487 1.197-.75.408-.274.816-.55 1.212-.841q.618-.453 1.212-.936.655-.53 1.297-1.073c.388-.33.775-.66 1.142-1.013q.532-.513 1.033-1.058.52-.566 1.018-1.15.51-.601 1.001-1.216c.334-.424.66-.853.968-1.297.337-.481.667-.967.979-1.466.297-.482.583-.97.839-1.476.26-.515.513-1.034.734-1.567q.376-.904.72-1.82.35-.96.664-1.933c.212-.673.413-1.35.585-2.034.187-.732.364-1.466.519-2.206.152-.74.29-1.483.38-2.234.093-.756.164-1.515.18-2.277a32.5 32.5 0 0 0-.235-5.038 33 33 0 0 0-.405-2.5 42 42 0 0 0-.595-2.515 42 42 0 0 0-.75-2.51 33 33 0 0 0-.88-2.325 35 35 0 0 0-.968-2.088 31 31 0 0 0-1.03-1.867 21 21 0 0 0-.995-1.52c-.318-.43-.647-.851-1.002-1.251a28 28 0 0 0-1.18-1.232 60 60 0 0 0-1.34-1.316 34 34 0 0 0-1.393-1.23c-.422-.35-.851-.691-1.308-.995a17 17 0 0 0-1.41-.841c-.42-.223-.844-.436-1.289-.604a12 12 0 0 0-1.255-.402q-.728-.193-1.46-.371c-.453-.115-.905-.235-1.358-.35a17 17 0 0 0-1.073-.23c-.298-.053-.597-.109-.898-.146a22 22 0 0 0-.889-.083q-.504-.035-1.008-.08-.507-.044-1.012-.104c-.248-.03-.496-.064-.745-.093a9 9 0 0 0-.48-.041 7 7 0 0 1-.639-.073c-4.798-.797-3.67-7.583 1.128-6.786z" transform="translate(0 -197)"/><path style="opacity:1;fill:#020900;fill-opacity:1;stroke:none;stroke-width:1;stroke-linecap:butt;stroke-linejoin:round;stroke-miterlimit:4;stroke-dasharray:none;stroke-opacity:1" d="M17.79 213.665c.13-.21.28-.407.432-.601.165-.21.343-.411.525-.608.26-.28.554-.525.856-.758a8 8 0 0 1 2.24-1.162c.434-.15.882-.255 1.33-.359l1.28-.292c.48-.11.958-.235 1.436-.353a48 48 0 0 1 1.832-.413 76 76 0 0 1 4.248-.73 72 72 0 0 1 2.426-.288q1.306-.135 2.616-.224a78 78 0 0 1 5.856-.143c1.042.006 2.083.041 3.123.095a38 38 0 0 1 3.31.333c1.091.155 2.174.36 3.25.59a39 39 0 0 1 3.309.887 53 53 0 0 1 3.238 1.15 67 67 0 0 1 3.04 1.294c.965.434 1.91.913 2.842 1.413.93.496 1.82 1.06 2.691 1.653.889.611 1.726 1.292 2.542 1.996.822.714 1.584 1.492 2.325 2.29a41 41 0 0 1 2.076 2.453 32 32 0 0 1 1.962 2.83c.66 1.056 1.231 2.163 1.777 3.282.591 1.219 1.1 2.475 1.581 3.74.494 1.313.91 2.652 1.302 3.997a75 75 0 0 1 1.026 4.034c.313 1.357.534 2.732.72 4.111.17 1.302.273 2.61.339 3.921a40 40 0 0 1-.017 3.706 32 32 0 0 1-.394 3.527c-.191 1.177-.486 2.331-.821 3.473-.34 1.152-.803 2.26-1.311 3.346-.511 1.086-1.13 2.114-1.785 3.118-.646.977-1.363 1.906-2.097 2.819a45 45 0 0 1-2.31 2.61 46 46 0 0 1-2.484 2.404 61 61 0 0 1-2.563 2.188 81 81 0 0 1-2.617 2.015q-1.323.98-2.676 1.922a73 73 0 0 1-2.695 1.77q-1.29.808-2.6 1.586c-.832.49-1.676.962-2.523 1.428-.812.45-1.642.868-2.48 1.267-.835.396-1.687.753-2.547 1.089-.861.334-1.74.618-2.622.888a61 61 0 0 1-4.815 1.225c-.74.159-1.483.298-2.227.431a41 41 0 0 1-2.244.338c-.748.09-1.5.15-2.253.197-.74.046-1.483.063-2.225.06a28 28 0 0 1-2.211-.127 29 29 0 0 1-2.084-.28 108 108 0 0 1-3.46-.657q-.697-.15-1.392-.308l-1.173-.259-.976-.216-.79-.18-.616-.137-.512-.112-.409-.09q-.194-.043-.387-.088l-.29-.07c-4.722-1.168-3.07-7.845 1.652-6.677l.238.056q.132.031.265.06l.41.09.514.114q.329.072.657.146l.771.175.966.214 1.183.262q.65.147 1.3.287a101 101 0 0 0 3.159.602 22 22 0 0 0 3.232.315 26 26 0 0 0 1.745-.046 34 34 0 0 0 1.84-.157q.945-.117 1.883-.284a57 57 0 0 0 4.058-.863c.73-.188 1.459-.382 2.18-.6a31 31 0 0 0 2.133-.718 32 32 0 0 0 2.092-.892q1.078-.509 2.123-1.085c.78-.428 1.557-.862 2.323-1.313q1.23-.73 2.44-1.489a66 66 0 0 0 2.433-1.595q1.264-.88 2.502-1.797a75 75 0 0 0 2.387-1.837 54 54 0 0 0 2.273-1.938 39 39 0 0 0 2.112-2.038 38 38 0 0 0 1.952-2.2 31 31 0 0 0 1.7-2.275c.482-.73.937-1.48 1.313-2.27.364-.77.696-1.556.94-2.374.257-.862.482-1.735.628-2.623.15-.912.266-1.83.313-2.753.05-1.012.063-2.025.018-3.037a42 42 0 0 0-.288-3.353 38 38 0 0 0-.605-3.484 68 68 0 0 0-.925-3.647 49 49 0 0 0-1.131-3.484 39 39 0 0 0-1.333-3.166c-.437-.9-.892-1.79-1.42-2.64a25 25 0 0 0-1.539-2.229 34 34 0 0 0-1.715-2.031 24 24 0 0 0-1.782-1.764 23 23 0 0 0-1.925-1.52 22 22 0 0 0-2.058-1.27 39 39 0 0 0-2.415-1.202 60 60 0 0 0-2.7-1.152 46 46 0 0 0-2.789-.993 32 32 0 0 0-2.709-.731 41 41 0 0 0-2.764-.505c-.903-.126-1.81-.23-2.721-.276a60 60 0 0 0-2.817-.086 71 71 0 0 0-5.332.127q-1.186.08-2.369.202a56 56 0 0 0-4.19.575 69 69 0 0 0-1.802.337c-.53.11-1.057.226-1.582.357-.517.128-1.033.261-1.552.38l-1.26.287c-.22.051-.44.099-.656.166-.068.022-.137.041-.2.077-.036.018-.071.038-.096.048-.06.043-.022.014-.01-.006a3 3 0 0 0-.127.143c-.074.094-.059.079.007-.027-2.555 4.139-8.409.526-5.854-3.614" transform="translate(0 -197)"/></svg>