<svg viewBox="0 0 100 100"><path style="opacity:1;fill:#020900;fill-opacity:1;stroke:none;stroke-width:1;stroke-linecap:butt;stroke-linejoin:round;stroke-miterlimit:4;stroke-dasharray:none;stroke-opacity:1" d="M18.568 217.422c.424.015.842-.072 1.228-.247.195-.111.118-.06.02.033a1.3 1.3 0 0 0-.189.259c-.107.19-.186.392-.251.6-.1.33-.15.672-.192 1.013-.05.444-.048.891-.031 1.337.02.501.085.999.18 1.49.099.497.249.981.414 1.459.17.485.38.954.611 1.413q.265.524.638.975c.146.18.318.326.528.424.286.127.593.19.9.249.47.082.948.107 1.426.095.454-.025.904-.1 1.349-.193a6.7 6.7 0 0 0 1.114-.343q.274-.112.495-.307c.191-.172.358-.368.52-.569a2.44 2.44 0 0 0 .485-1.115c.039-.232.038-.467.036-.702a6.5 6.5 0 0 0-.08-.917 5 5 0 0 0-.19-.772 5 5 0 0 0-.322-.744 6.5 6.5 0 0 0-.448-.734 7 7 0 0 0-.498-.644 6 6 0 0 0-.467-.473q-.36-.33-.722-.657c-.195-.173-.383-.354-.586-.519-.1-.078-.213-.14-.322-.204a24 24 0 0 0-.645-.358c-.173-.093-.345-.186-.522-.268-.135-.058-.069-.023.019.006.1.03.203.039.306.047.02.01.057 0 .085-.004 0 .01-.135.085-.18.116q-.041.031-.081.065c-3.854 2.968-8.051-2.483-4.197-5.45.203-.155.407-.31.625-.445a8.5 8.5 0 0 1 1.386-.715c.556-.204 1.126-.364 1.717-.416.619-.051 1.24-.05 1.849.09.487.117.966.267 1.417.489q.426.202.84.429.453.242.896.5c.414.247.82.508 1.192.817q.42.353.824.725.396.359.79.72c.357.334.704.678 1.02 1.052.338.4.663.811.955 1.246.328.488.641.986.903 1.513.285.575.545 1.163.736 1.777.182.595.336 1.199.426 1.816.089.624.15 1.252.153 1.883 0 .716-.035 1.433-.18 2.136-.16.735-.37 1.458-.697 2.138-.335.685-.717 1.346-1.205 1.935-.492.595-1.017 1.165-1.626 1.644-.682.517-1.407.97-2.21 1.279-.73.28-1.476.52-2.245.674-.864.173-1.738.308-2.62.33-.974.008-1.949-.046-2.906-.235-1.065-.226-2.114-.534-3.059-1.091-.891-.554-1.712-1.202-2.364-2.033-.539-.686-1.027-1.408-1.414-2.192a19 19 0 0 1-.961-2.251c-.273-.8-.517-1.611-.674-2.443a17.4 17.4 0 0 1-.29-2.508c-.025-.815-.018-1.632.084-2.442.106-.805.25-1.606.51-2.377.267-.757.584-1.498 1.028-2.171.385-.568.808-1.11 1.322-1.568.417-.37.852-.722 1.344-.988.675-.339 1.389-.581 2.156-.557 4.863.108 4.71 6.985-.153 6.877zm47.653-2.703a7 7 0 0 1-.828.578q-.386.226-.77.457c-.315.183-.625.371-.926.576q-.454.313-.855.692a6.4 6.4 0 0 0-.737.895c-.26.381-.473.79-.667 1.208-.157.333-.26.683-.318 1.045-.05.38-.036.764 0 1.145.06.517.17 1.027.295 1.532.115.464.278.915.466 1.355q.179.419.47.767c.212.242.471.434.732.62.404.283.84.514 1.28.735.398.201.812.367 1.242.488.345.09.7.109 1.054.109.5-.01.993-.086 1.485-.168a15 15 0 0 0 1.526-.34c.379-.111.759-.222 1.12-.383.169-.08.317-.193.46-.313.173-.144.326-.31.464-.488.155-.203.285-.422.403-.646.115-.22.182-.46.246-.699.089-.317.138-.642.173-.969a9 9 0 0 0 .03-1.059 7 7 0 0 0-.116-.937 9 9 0 0 0-.278-1.024 9 9 0 0 0-.364-.973 6.5 6.5 0 0 0-.88-1.386 8 8 0 0 0-.576-.605 12 12 0 0 0-.632-.551c-.146-.108-.28-.241-.444-.323-.091-.038-.182-.078-.275-.109a1.6 1.6 0 0 0-.314-.06 2 2 0 0 0-.401-.004c-.239.025-.476.067-.712.106q-.45.073-.898.157l-.077.017c-4.76.998-6.173-5.734-1.413-6.733l.219-.045q.516-.097 1.034-.18c.494-.083.988-.163 1.488-.192a9 9 0 0 1 1.77.07 8.5 8.5 0 0 1 1.667.404 9 9 0 0 1 1.518.71c.424.267.834.554 1.217.876.358.296.71.598 1.044.92.39.38.769.772 1.114 1.192a13.3 13.3 0 0 1 1.862 2.999c.234.544.447 1.097.62 1.663.196.628.379 1.26.491 1.908.11.651.2 1.307.215 1.969.01.654-.003 1.31-.073 1.96a13 13 0 0 1-.387 2.062c-.209.729-.456 1.448-.822 2.116-.33.602-.69 1.188-1.125 1.722-.461.556-.957 1.083-1.526 1.531-.633.492-1.302.938-2.044 1.25a17 17 0 0 1-1.999.687 22 22 0 0 1-2.212.489c-.896.145-1.799.263-2.71.257-.976-.022-1.951-.113-2.893-.39a14.3 14.3 0 0 1-2.406-.951c-.77-.393-1.53-.811-2.23-1.32-.768-.568-1.501-1.186-2.093-1.942-.552-.722-1.04-1.489-1.388-2.333a16 16 0 0 1-.807-2.392c-.207-.86-.387-1.728-.468-2.61-.073-.987-.08-1.98.097-2.958.184-.939.446-1.86.863-2.724.375-.785.786-1.555 1.29-2.267.5-.692 1.036-1.359 1.662-1.943a14.4 14.4 0 0 1 1.668-1.336q.608-.41 1.244-.779.36-.218.725-.43c.098-.059-.002.008.04-.017 3.755-3.091 8.126 2.22 4.37 5.312" transform="translate(0 -197)"/><path style="opacity:1;fill:#020900;fill-opacity:1;stroke:none;stroke-width:1;stroke-linecap:butt;stroke-linejoin:round;stroke-miterlimit:4;stroke-dasharray:none;stroke-opacity:1" d="M30.043 234q-.027.082-.05.164c-.014.063-.021.127-.03.192q-.046.327-.084.654l-.104.876a41 41 0 0 1-.151 1.134 136 136 0 0 0-.384 2.758 55 55 0 0 0-.189 1.71 79 79 0 0 0-.294 4.237c-.033.843-.052 1.686-.068 2.53a96 96 0 0 0-.008 2.523c.008.828.039 1.655.082 2.482.042.807.128 1.612.238 2.413.126.88.32 1.747.532 2.61.234.949.547 1.875.893 2.79.363.953.818 1.867 1.309 2.76.527.95 1.129 1.855 1.745 2.748.624.902 1.293 1.77 1.984 2.621a36 36 0 0 0 2.051 2.297 29 29 0 0 0 2.08 1.908 42 42 0 0 0 2.251 1.73c.717.523 1.471.99 2.242 1.428.74.419 1.515.767 2.298 1.096.77.323 1.563.577 2.365.8.782.212 1.578.36 2.38.478q1.054.153 2.12.12c.621-.025 1.23-.156 1.83-.307.67-.174 1.323-.404 1.966-.66a19 19 0 0 0 1.935-.94c.63-.345 1.23-.742 1.814-1.161a18 18 0 0 0 1.633-1.368c.496-.463.932-.983 1.35-1.517.444-.576.831-1.192 1.205-1.816.397-.66.738-1.35 1.061-2.05.329-.713.608-1.448.868-2.189.28-.798.5-1.615.703-2.436.223-.922.414-1.852.588-2.784q.237-1.268.392-2.548c.099-.828.148-1.66.178-2.493.029-.941.002-1.883-.022-2.823q-.035-1.382-.08-2.765a95 95 0 0 0-.1-2.388 40 40 0 0 0-.198-2.134 79 79 0 0 0-.278-2.16 42 42 0 0 0-.3-1.898q-.161-.88-.32-1.762a95 95 0 0 0-.278-1.46q-.136-.66-.276-1.318l-.245-1.12-.21-.952q-.08-.376-.163-.753l-.137-.585q-.066-.277-.128-.556l-.099-.435-.078-.344-.112-.494c.02.079-.01-.031-.013-.046.076.4.343.74.534 1.1-2.888-3.915 2.648-8 5.536-4.085.296.554.45.716.576 1.21q.041.15.077.303l.05.219.062.275.078.344.097.43q.057.255.117.508l.158.672.168.779q.1.463.204.926l.255 1.167q.15.698.293 1.397.158.796.304 1.594.159.885.32 1.769.196 1.078.343 2.163c.109.78.213 1.56.3 2.344.095.836.184 1.673.232 2.513.048.85.079 1.702.107 2.554q.044 1.407.08 2.814c.028 1.083.056 2.166.02 3.249a37 37 0 0 1-.224 3.079 48 48 0 0 1-.459 2.978 62 62 0 0 1-.673 3.176 34 34 0 0 1-.89 3.058 32 32 0 0 1-1.116 2.802c-.427.919-.88 1.826-1.404 2.695-.523.87-1.07 1.725-1.694 2.526-.646.818-1.324 1.611-2.09 2.32-.733.674-1.488 1.325-2.297 1.908a25 25 0 0 1-2.535 1.613c-.877.474-1.767.925-2.694 1.295-.928.364-1.87.693-2.838.937-1.09.267-2.196.477-3.322.507a19.4 19.4 0 0 1-3.294-.193 27 27 0 0 1-3.216-.657c-1.08-.303-2.15-.648-3.185-1.085-1.037-.438-2.063-.906-3.043-1.463a31 31 0 0 1-2.863-1.829 48 48 0 0 1-2.652-2.044 36 36 0 0 1-2.595-2.39 44 44 0 0 1-2.445-2.743 50 50 0 0 1-2.303-3.047c-.75-1.089-1.479-2.194-2.118-3.353-.64-1.177-1.236-2.38-1.71-3.635-.44-1.174-.84-2.364-1.138-3.583-.266-1.095-.51-2.197-.665-3.314a36 36 0 0 1-.292-2.985 65 65 0 0 1-.09-2.775 103 103 0 0 1 .008-2.71c.017-.901.038-1.802.074-2.703q.051-1.224.14-2.447c.052-.72.109-1.442.18-2.161.062-.64.129-1.278.211-1.914q.103-.792.214-1.582.09-.65.187-1.298.07-.474.127-.95l.104-.877q.052-.455.118-.907a8.3 8.3 0 0 1 .37-1.522c1.578-4.602 8.085-2.37 6.507 2.231" transform="translate(0 -197)"/></svg>