<?xml version="1.0" encoding="UTF-8" standalone="no"?>
<!-- Created with Inkscape (http://www.inkscape.org/) -->

<svg
   xmlns:dc="http://purl.org/dc/elements/1.1/"
   xmlns:cc="http://creativecommons.org/ns#"
   xmlns:rdf="http://www.w3.org/1999/02/22-rdf-syntax-ns#"
   xmlns:svg="http://www.w3.org/2000/svg"
   xmlns="http://www.w3.org/2000/svg"
   xmlns:sodipodi="http://sodipodi.sourceforge.net/DTD/sodipodi-0.dtd"
   xmlns:inkscape="http://www.inkscape.org/namespaces/inkscape"
   width="10cm"
   height="10cm"
   viewBox="0 0 100 99.999997"
   version="1.1"
   id="svg8"
   sodipodi:docname="musi.svg"
   inkscape:version="0.92.3 (2405546, 2018-03-11)">
  <defs
     id="defs2" />
  <sodipodi:namedview
     id="base"
     pagecolor="#ffffff"
     bordercolor="#666666"
     borderopacity="1.0"
     inkscape:pageopacity="0.0"
     inkscape:pageshadow="2"
     inkscape:zoom="1"
     inkscape:cx="175.50186"
     inkscape:cy="186.50542"
     inkscape:document-units="cm"
     inkscape:current-layer="layer1"
     showgrid="true"
     units="cm"
     inkscape:window-width="881"
     inkscape:window-height="706"
     inkscape:window-x="971"
     inkscape:window-y="214"
     inkscape:window-maximized="0"
     inkscape:snap-nodes="false">
    <inkscape:grid
       type="xygrid"
       id="grid815"
       units="cm"
       spacingx="9.9999998"
       spacingy="9.9999998" />
  </sodipodi:namedview>
  <metadata
     id="metadata5">
    <rdf:RDF>
      <cc:Work
         rdf:about="">
        <dc:format>image/svg+xml</dc:format>
        <dc:type
           rdf:resource="http://purl.org/dc/dcmitype/StillImage" />
        <dc:title></dc:title>
      </cc:Work>
    </rdf:RDF>
  </metadata>
  <g
     inkscape:label="Layer 1"
     inkscape:groupmode="layer"
     id="layer1"
     transform="translate(0,-197.00002)">
    <path
       style="opacity:1;fill:#020900;fill-opacity:1;stroke:none;stroke-width:1;stroke-linecap:butt;stroke-linejoin:round;stroke-miterlimit:4;stroke-dasharray:none;stroke-opacity:1"
       id="path1303"
       d="m 18.567688,217.42179 c 0.424784,0.0148 0.842586,-0.0718 1.228251,-0.2467 0.195545,-0.11118 0.118149,-0.0608 0.02032,0.0333 -0.07613,0.0763 -0.135087,0.16566 -0.18919,0.25819 -0.107148,0.18993 -0.186143,0.39284 -0.25133,0.60038 -0.09931,0.33047 -0.150455,0.67174 -0.191837,1.01343 -0.0503,0.44405 -0.04824,0.89097 -0.03126,1.33676 0.02061,0.50106 0.08549,0.99843 0.179525,1.49058 0.09972,0.4963 0.249368,0.98026 0.415205,1.45788 0.169869,0.48545 0.379777,0.95485 0.610923,1.4138 0.175792,0.34863 0.388986,0.67429 0.637802,0.97456 0.146304,0.17943 0.318163,0.32565 0.527404,0.42372 0.286008,0.12697 0.593802,0.19107 0.899692,0.24892 0.471354,0.0822 0.949194,0.10729 1.426767,0.0955 0.454255,-0.0256 0.903774,-0.1004 1.348554,-0.19336 0.381323,-0.0809 0.753454,-0.19701 1.11474,-0.34257 0.182489,-0.0739 0.347213,-0.17753 0.494499,-0.30706 0.191449,-0.1723 0.358711,-0.3685 0.51984,-0.56874 0.134043,-0.1664 0.235439,-0.35322 0.321662,-0.54771 0.08009,-0.1814 0.129839,-0.37305 0.164187,-0.56771 0.03855,-0.23195 0.03799,-0.46732 0.0351,-0.70164 -0.0041,-0.30756 -0.0332,-0.6136 -0.08045,-0.91731 -0.0408,-0.26254 -0.108463,-0.5191 -0.189587,-0.77171 -0.08421,-0.25774 -0.198532,-0.50353 -0.321201,-0.74479 -0.128688,-0.25687 -0.286925,-0.49672 -0.448069,-0.73394 -0.152176,-0.22517 -0.321337,-0.43769 -0.49802,-0.64389 -0.144016,-0.16895 -0.30493,-0.32175 -0.467456,-0.47249 -0.239262,-0.22047 -0.480986,-0.43823 -0.721942,-0.65684 -0.195109,-0.17309 -0.382989,-0.35451 -0.585687,-0.51886 -0.10083,-0.078 -0.212786,-0.14007 -0.32236,-0.20464 -0.212807,-0.12341 -0.428633,-0.24148 -0.645192,-0.35814 -0.172326,-0.0925 -0.344371,-0.18577 -0.521827,-0.26815 -0.135242,-0.0578 -0.06844,-0.0221 0.019,0.006 0.0995,0.0297 0.202859,0.0394 0.305843,0.0473 0.02106,0.0101 0.05759,0.001 0.08544,-0.004 1.48e-4,0.0106 -0.135125,0.0849 -0.180853,0.11566 -0.02745,0.0208 -0.05368,0.043 -0.08017,0.065 -3.853917,2.96798 -8.051267,-2.48227 -4.19736,-5.45024 v 0 c 0.203479,-0.15474 0.407745,-0.30872 0.624935,-0.44412 0.443026,-0.27393 0.900051,-0.52665 1.38669,-0.71563 0.555341,-0.20321 1.125445,-0.36356 1.717016,-0.41588 0.618232,-0.051 1.240156,-0.0488 1.84851,0.0902 0.487482,0.11688 0.965793,0.26693 1.416952,0.48875 0.283949,0.13554 0.564224,0.27838 0.840325,0.42933 0.301122,0.16243 0.601083,0.32712 0.896181,0.50033 0.413803,0.2471 0.820213,0.5081 1.19145,0.8169 0.281242,0.23425 0.5539,0.47806 0.823841,0.72522 0.263811,0.23943 0.528606,0.47779 0.790223,0.71964 0.356955,0.33377 0.704192,0.67827 1.020284,1.05159 0.338087,0.4 0.662532,0.81152 0.955077,1.24639 0.328155,0.4876 0.641247,0.98594 0.902867,1.51307 0.284567,0.57537 0.544727,1.16329 0.735713,1.77722 0.182028,0.59515 0.336418,1.19867 0.426247,1.81541 0.08876,0.62433 0.150071,1.25241 0.152699,1.8837 2.64e-4,0.7159 -0.0348,1.4329 -0.180266,2.13606 -0.159353,0.73464 -0.369213,1.45797 -0.696053,2.13777 -0.335095,0.68475 -0.717785,1.34541 -1.205365,1.93485 -0.492215,0.59496 -1.016828,1.16524 -1.625735,1.64407 -0.682008,0.51645 -1.407318,0.97043 -2.209659,1.27836 -0.730732,0.28067 -1.476968,0.51957 -2.245411,0.67476 -0.864399,0.17231 -1.737809,0.30803 -2.620737,0.32983 -0.97374,0.008 -1.947969,-0.0457 -2.905452,-0.23553 -1.064965,-0.22598 -2.114069,-0.53353 -3.0588,-1.09095 -0.891146,-0.55398 -1.712652,-1.20124 -2.364059,-2.0331 -0.53865,-0.68557 -1.027495,-1.40765 -1.413897,-2.19149 -0.362767,-0.73173 -0.695533,-1.47832 -0.961641,-2.2513 -0.272539,-0.80015 -0.516179,-1.61111 -0.673485,-2.44281 -0.149942,-0.82895 -0.261212,-1.66487 -0.289758,-2.5078 -0.02516,-0.8151 -0.01838,-1.63197 0.0833,-2.44248 0.106107,-0.80452 0.249783,-1.60539 0.510198,-2.37631 0.267319,-0.75763 0.583798,-1.49853 1.028155,-2.17172 0.3854,-0.56756 0.807834,-1.10986 1.32216,-1.56809 0.416872,-0.3693 0.851889,-0.72123 1.343918,-0.98717 0.674605,-0.33937 1.388663,-0.58164 2.155457,-0.55751 4.863105,0.10807 4.710266,6.98554 -0.152839,6.87747 z"
       inkscape:connector-curvature="0" />
    <path
       style="opacity:1;fill:#020900;fill-opacity:1;stroke:none;stroke-width:1;stroke-linecap:butt;stroke-linejoin:round;stroke-miterlimit:4;stroke-dasharray:none;stroke-opacity:1"
       id="path1305"
       d="m 66.221313,214.71859 c -0.258916,0.21638 -0.541187,0.40147 -0.828143,0.57792 -0.257249,0.15172 -0.514163,0.30397 -0.770314,0.45755 -0.314425,0.18278 -0.625221,0.37098 -0.925613,0.57605 -0.303379,0.20792 -0.588385,0.43998 -0.855633,0.69228 -0.276132,0.27195 -0.514474,0.57765 -0.736648,0.89423 -0.259167,0.38151 -0.472516,0.79128 -0.667049,1.20869 -0.156612,0.33231 -0.260508,0.68232 -0.317648,1.04426 -0.05118,0.38045 -0.03614,0.76413 -5.29e-4,1.14496 0.06043,0.51732 0.170508,1.02711 0.294891,1.53231 0.115708,0.4646 0.278173,0.91504 0.465961,1.35483 0.119512,0.27836 0.275587,0.53607 0.470826,0.76709 0.211323,0.24272 0.471059,0.43434 0.731343,0.62055 0.404256,0.2822 0.840467,0.51324 1.279906,0.73481 0.398785,0.20113 0.81254,0.36726 1.242441,0.48762 0.34459,0.0903 0.699682,0.10914 1.054089,0.10902 0.49906,-0.0103 0.993137,-0.0856 1.484529,-0.16743 0.51525,-0.0838 1.023255,-0.20259 1.526509,-0.34001 0.378296,-0.11143 0.75852,-0.22267 1.119301,-0.38356 0.169196,-0.0792 0.317595,-0.19314 0.459848,-0.31265 0.173689,-0.14435 0.326269,-0.31055 0.464699,-0.48839 0.15445,-0.20231 0.284429,-0.42131 0.402748,-0.64621 0.114872,-0.22024 0.181875,-0.45971 0.246121,-0.69833 0.08869,-0.31719 0.138504,-0.64221 0.172773,-0.96912 0.03282,-0.35186 0.04005,-0.70549 0.03107,-1.05858 -0.01368,-0.31505 -0.0622,-0.62719 -0.116854,-0.93733 -0.06608,-0.34789 -0.172032,-0.68651 -0.277751,-1.02395 -0.10301,-0.33106 -0.22424,-0.65571 -0.364149,-0.97284 -0.116763,-0.25734 -0.258969,-0.50199 -0.407993,-0.74171 -0.140046,-0.22736 -0.302416,-0.43938 -0.472421,-0.64485 -0.179433,-0.21303 -0.374854,-0.41162 -0.575323,-0.6047 -0.202647,-0.1928 -0.416126,-0.3737 -0.632013,-0.55139 -0.146505,-0.10741 -0.280678,-0.24075 -0.444352,-0.32312 -0.09123,-0.0379 -0.181446,-0.0773 -0.275426,-0.10814 -0.101597,-0.0339 -0.208187,-0.0473 -0.314005,-0.0604 -0.133244,-0.016 -0.267049,-0.0159 -0.400468,-0.004 -0.238911,0.0245 -0.47557,0.0667 -0.712303,0.10636 -0.299583,0.0497 -0.598998,0.1 -0.897414,0.15622 -0.0258,0.006 -0.05161,0.0113 -0.07741,0.017 -4.760664,0.99877 -6.173137,-5.73383 -1.412473,-6.7326 v 0 c 0.07273,-0.015 0.145465,-0.03 0.218199,-0.045 0.344139,-0.0646 0.689229,-0.12362 1.034712,-0.1806 0.493302,-0.0824 0.987917,-0.16253 1.487884,-0.19117 0.590783,-0.0266 1.182973,-0.0188 1.769147,0.0691 0.566245,0.0874 1.128281,0.20538 1.667179,0.40447 0.524529,0.19575 1.03958,0.41887 1.518904,0.71074 0.423799,0.26615 0.833337,0.55348 1.216861,0.87572 0.357521,0.29566 0.709896,0.59793 1.043909,0.92018 0.389704,0.37975 0.768471,0.77122 1.114179,1.19199 0.361365,0.44566 0.706252,0.90502 1.005398,1.3954 0.315812,0.51769 0.613989,1.04696 0.856541,1.6036 0.233912,0.54395 0.446259,1.09675 0.620482,1.663 0.194754,0.62726 0.37806,1.25946 0.490244,1.9076 0.11008,0.6513 0.199861,1.30716 0.214619,1.96858 0.01053,0.65444 -0.0028,1.30967 -0.07312,1.96101 -0.08094,0.69522 -0.194828,1.38655 -0.386384,2.06093 -0.208764,0.7294 -0.456615,1.4487 -0.821955,2.11671 -0.33035,0.60183 -0.691052,1.18769 -1.125011,1.72156 -0.461295,0.55596 -0.957413,1.08277 -1.526092,1.53146 -0.633098,0.49191 -1.302171,0.93737 -2.044388,1.24981 -0.651455,0.27045 -1.317485,0.50226 -1.998649,0.68696 -0.729428,0.19656 -1.465467,0.3677 -2.211621,0.48861 -0.896353,0.14557 -1.79946,0.26366 -2.709637,0.25729 -0.976744,-0.0222 -1.951869,-0.11343 -2.89347,-0.39051 -0.827567,-0.25003 -1.636369,-0.55486 -2.406463,-0.95079 -0.770117,-0.39288 -1.529172,-0.81116 -2.230712,-1.31917 -0.767546,-0.56831 -1.500275,-1.18638 -2.092468,-1.94202 -0.551569,-0.72264 -1.039551,-1.48943 -1.387467,-2.33306 -0.323551,-0.77827 -0.608521,-1.57264 -0.807424,-2.39288 -0.206996,-0.85965 -0.38644,-1.72779 -0.467532,-2.6096 -0.07291,-0.98711 -0.07979,-1.98001 0.0965,-2.95825 0.184486,-0.93868 0.445818,-1.85884 0.86286,-2.72371 0.375525,-0.78529 0.786108,-1.55535 1.29005,-2.26716 0.500126,-0.692 1.03674,-1.35876 1.662395,-1.94289 0.526145,-0.48137 1.075172,-0.93707 1.667428,-1.3359 0.406022,-0.27347 0.819902,-0.53429 1.243976,-0.77901 0.241168,-0.14459 0.482536,-0.28884 0.725477,-0.43043 0.09846,-0.0582 -0.0016,0.008 0.03926,-0.017 3.756083,-3.09084 8.127196,2.22106 4.371115,5.31191 z"
       inkscape:connector-curvature="0" />
    <path
       style="opacity:1;fill:#020900;fill-opacity:1;stroke:none;stroke-width:1;stroke-linecap:butt;stroke-linejoin:round;stroke-miterlimit:4;stroke-dasharray:none;stroke-opacity:1"
       id="path1307"
       d="m 30.042784,234.00011 c -0.01836,0.0541 -0.03399,0.10917 -0.04939,0.16418 -0.01392,0.0624 -0.02138,0.12677 -0.03128,0.19182 -0.0309,0.21764 -0.05716,0.43592 -0.08306,0.6542 -0.03455,0.29201 -0.06897,0.58404 -0.103648,0.87604 -0.04448,0.37876 -0.09664,0.75652 -0.151715,1.13386 -0.06252,0.41835 -0.122367,0.8371 -0.180983,1.25602 -0.07092,0.50022 -0.138792,1.00086 -0.202885,1.50201 -0.07369,0.56887 -0.132874,1.13945 -0.188648,1.71032 -0.06521,0.66322 -0.117295,1.32762 -0.165724,1.99225 -0.05427,0.74748 -0.09582,1.49575 -0.128138,2.24447 -0.03338,0.84266 -0.05265,1.68579 -0.06786,2.52895 -0.01442,0.8411 -0.01574,1.68231 -0.008,2.52348 0.0072,0.82788 0.03849,1.65523 0.08153,2.48195 0.04232,0.80771 0.127918,1.61195 0.237958,2.41297 0.126328,0.87957 0.320495,1.74716 0.53195,2.60957 0.233767,0.94964 0.546632,1.87612 0.89267,2.78991 0.363111,0.95406 0.818639,1.86744 1.309248,2.76121 0.526878,0.94997 1.128787,1.85459 1.745181,2.748 0.623679,0.90161 1.293434,1.76959 1.983835,2.62073 0.648592,0.79659 1.337916,1.55822 2.05154,2.29667 0.657254,0.67461 1.3599,1.30196 2.079971,1.90819 0.72747,0.60604 1.483927,1.17581 2.250853,1.73062 0.716886,0.52262 1.471205,0.98927 2.241569,1.42796 0.74015,0.41813 1.515586,0.76695 2.298663,1.09546 0.768744,0.3227 1.562351,0.577 2.365057,0.79926 0.781481,0.21304 1.577867,0.36107 2.378615,0.47857 0.702873,0.10289 1.411502,0.14128 2.120961,0.11956 0.621424,-0.0247 1.229487,-0.15492 1.830265,-0.3066 0.669928,-0.17351 1.322806,-0.40327 1.96527,-0.65883 0.665649,-0.27 1.305475,-0.59751 1.935527,-0.94113 0.630571,-0.34522 1.230577,-0.74129 1.813526,-1.16094 0.575162,-0.41814 1.112483,-0.88433 1.633268,-1.36759 0.496062,-0.46322 0.932283,-0.98306 1.349171,-1.51705 0.445246,-0.57573 0.832244,-1.19236 1.205505,-1.81615 0.396978,-0.6604 0.738796,-1.35087 1.061828,-2.04969 0.328608,-0.71361 0.60769,-1.44791 0.867297,-2.18892 0.280048,-0.79841 0.500163,-1.61538 0.703506,-2.43607 0.222292,-0.92242 0.413321,-1.85199 0.587803,-2.78453 0.157726,-0.84497 0.288102,-1.69457 0.391999,-2.54775 0.09868,-0.82804 0.148227,-1.6605 0.178054,-2.4935 0.02851,-0.94087 0.0016,-1.88214 -0.02215,-2.82277 -0.02405,-0.92166 -0.04956,-1.84327 -0.07952,-2.76476 -0.02686,-0.79642 -0.05406,-1.59283 -0.09949,-2.38844 -0.04124,-0.71339 -0.119393,-1.42374 -0.199213,-2.1336 -0.08059,-0.72185 -0.177549,-1.44165 -0.277947,-2.16095 -0.08483,-0.6346 -0.186423,-1.26664 -0.29998,-1.89667 -0.108622,-0.58695 -0.212799,-1.1747 -0.319008,-1.76208 -0.09041,-0.48741 -0.180938,-0.97483 -0.27895,-1.46078 -0.0906,-0.43936 -0.182494,-0.87845 -0.276259,-1.31714 -0.08115,-0.37377 -0.162158,-0.74757 -0.244674,-1.12104 -0.07087,-0.31688 -0.140623,-0.63401 -0.209449,-0.95133 -0.05476,-0.25087 -0.107585,-0.50217 -0.163089,-0.75287 -0.04489,-0.19537 -0.09194,-0.39022 -0.137719,-0.58537 -0.0436,-0.1851 -0.08599,-0.37047 -0.128092,-0.55592 -0.03284,-0.14484 -0.06561,-0.2897 -0.09839,-0.43455 -0.02601,-0.1149 -0.052,-0.22981 -0.07799,-0.34471 -0.02072,-0.0916 -0.04143,-0.18314 -0.06215,-0.27471 -0.01651,-0.073 -0.03302,-0.14596 -0.04954,-0.21894 0.01887,0.079 -0.0097,-0.0312 -0.0136,-0.0459 0.07606,0.40013 0.343085,0.73923 0.533974,1.09903 -2.887729,-3.9144 2.648063,-7.99826 5.535792,-4.08387 v 0 c 0.29609,0.55333 0.450157,0.71601 0.576387,1.20958 0.0269,0.10072 0.05379,0.20146 0.07703,0.3031 0.01651,0.073 0.03303,0.14596 0.04954,0.21894 0.02072,0.0916 0.04143,0.18314 0.06215,0.27471 0.02598,0.11486 0.05198,0.22972 0.07797,0.34459 0.03241,0.14323 0.06481,0.28647 0.09729,0.42969 0.0385,0.16957 0.07722,0.3391 0.117115,0.50835 0.05251,0.22394 0.106815,0.44747 0.157414,0.67186 0.05724,0.25944 0.112369,0.51934 0.168804,0.77896 0.06696,0.30879 0.134882,0.61737 0.203843,0.92572 0.08584,0.38876 0.170281,0.77784 0.254643,1.16693 0.09947,0.46546 0.197011,0.93133 0.292941,1.39754 0.106575,0.53042 0.20627,1.06217 0.304438,1.59421 0.106569,0.58946 0.211164,1.17929 0.320135,1.76831 0.129043,0.71881 0.245539,1.43974 0.342591,2.16363 0.108817,0.77999 0.213495,1.56056 0.300916,2.34329 0.09394,0.83606 0.183446,1.67292 0.231261,2.51314 0.04782,0.85076 0.0789,1.70225 0.106855,2.55387 0.03047,0.93815 0.05652,1.87644 0.08096,2.81477 0.02726,1.0825 0.05541,2.16573 0.01971,3.24843 -0.03848,1.02868 -0.10098,2.0567 -0.224644,3.07912 -0.123095,0.99704 -0.273304,1.99044 -0.458668,2.97795 -0.19992,1.06379 -0.417764,2.12439 -0.673193,3.17639 -0.256921,1.03032 -0.536702,2.05542 -0.889598,3.05768 -0.334362,0.94851 -0.69392,1.88833 -1.116412,2.80165 -0.427284,0.919 -0.880549,1.8263 -1.403914,2.69511 -0.522814,0.86931 -1.069308,1.72554 -1.694394,2.52593 -0.645358,0.81818 -1.323837,1.61132 -2.090261,2.32 -0.732383,0.67472 -1.487638,1.32555 -2.296491,1.908 -0.815842,0.58218 -1.653759,1.13379 -2.5351,1.61289 -0.876522,0.47479 -1.76734,0.9253 -2.69404,1.29523 -0.928127,0.3643 -1.870395,0.69358 -2.838119,0.93769 -1.090282,0.26645 -2.196023,0.47646 -3.321653,0.50614 -1.101882,0.0214 -2.203162,-0.0272 -3.294309,-0.19257 -1.082598,-0.16266 -2.159521,-0.36493 -3.215616,-0.6569 -1.080757,-0.30337 -2.149801,-0.64824 -3.185044,-1.08501 -1.037479,-0.43799 -2.063382,-0.90568 -3.04311,-1.46325 -0.983094,-0.5635 -1.94696,-1.16053 -2.86298,-1.82894 -0.903806,-0.65522 -1.795364,-1.32792 -2.651908,-2.04435 -0.898681,-0.75959 -1.775801,-1.54526 -2.595448,-2.39053 -0.849652,-0.88248 -1.672712,-1.7904 -2.445153,-2.74177 -0.801071,-0.98992 -1.578954,-1.99877 -2.302705,-3.04708 -0.750044,-1.0892 -1.478899,-2.1943 -2.117826,-3.35338 -0.640821,-1.17689 -1.236027,-2.37916 -1.709904,-3.63438 -0.440664,-1.17421 -0.840446,-2.36406 -1.138088,-3.58357 -0.266431,-1.09495 -0.509173,-2.19671 -0.665421,-3.31356 -0.133912,-0.99111 -0.240466,-1.98588 -0.291601,-2.98508 -0.04762,-0.92455 -0.08266,-1.84978 -0.09045,-2.77562 -0.008,-0.90327 -0.0068,-1.80658 0.0089,-2.70978 0.01634,-0.90111 0.03709,-1.80218 0.0732,-2.70275 0.03557,-0.81618 0.08053,-1.63191 0.1399,-2.44673 0.05265,-0.72118 0.109393,-1.4421 0.180195,-2.16176 0.06259,-0.63874 0.129142,-1.27716 0.211607,-1.91369 0.06761,-0.52788 0.138901,-1.05526 0.213626,-1.58218 0.06061,-0.43294 0.122415,-0.86571 0.187003,-1.29808 0.04633,-0.31598 0.09003,-0.63233 0.127292,-0.94951 0.03471,-0.29233 0.06917,-0.58468 0.103763,-0.87702 0.03606,-0.30288 0.07264,-0.60578 0.117957,-0.90744 0.05123,-0.32259 0.107939,-0.64483 0.197003,-0.95951 0.05305,-0.18886 0.108742,-0.37701 0.17263,-0.56253 1.57788,-4.60128 8.085069,-2.36982 6.507192,2.23146 z"
       inkscape:connector-curvature="0" />
  </g>
</svg>
