<svg viewBox="0 0 100 100"><path style="opacity:1;fill:#020900;fill-opacity:1;stroke:none;stroke-width:1;stroke-linecap:butt;stroke-linejoin:round;stroke-miterlimit:4;stroke-dasharray:none;stroke-opacity:1" d="M29.336 222.4c.037.206.06.413.079.62q.026.306.041.612.017.328.029.658a77 77 0 0 1 .039 1.537 177 177 0 0 1 .023 1.992l.009 1.107q0 .615-.01 1.228-.012.597-.018 1.194c-.002.407.011.814.028 1.22.02.46.055.917.086 1.375q.053.777.099 1.554.045.795.082 1.59.038.823.066 1.647l.063 1.716.055 1.636q.028.802.06 1.605.034.853.073 1.706.04.916.085 1.833l.1 2.017q.049 1.08.089 2.16a335 335 0 0 1 .127 4.2c.015.682.044 1.364.074 2.046q.043 1.065.1 2.13a324 324 0 0 1 .205 4.293 256 256 0 0 1 .165 4.947 467 467 0 0 1 .095 4.784l.005.342c.067 4.864-6.812 4.958-6.878.094l-.005-.338a391 391 0 0 0-.185-7.74q-.032-.9-.07-1.799a392 392 0 0 0-.201-4.216q-.06-1.099-.104-2.198a98 98 0 0 1-.078-2.18 297 297 0 0 0-.211-6.202q-.048-1.003-.1-2.007-.045-.932-.085-1.865-.04-.868-.076-1.736l-.06-1.632q-.029-.82-.055-1.641-.03-.851-.063-1.702c-.02-.527-.038-1.054-.063-1.582a121 121 0 0 0-.172-2.99c-.036-.523-.075-1.046-.097-1.57a33 33 0 0 1-.033-1.551q.005-.627.018-1.253.01-.534.01-1.068l-.019-2.126a171 171 0 0 0-.028-1.643l-.02-.663a31 31 0 0 0-.046-.898c0-.003-.007-.061-.001-.038-.852-4.79 5.921-5.993 6.773-1.204m18.786-2.628v1.43c.003.224-.006.449.004.672q.021.394.045.788.027.51.047 1.022l.042 1.016q.025.59.043 1.18.016.623.037 1.247c.016.417.05.834.083 1.25q.06.713.139 1.423.101.877.189 1.753c.063.643.114 1.286.163 1.93.054.683.087 1.367.114 2.052.027.694.036 1.389.039 2.084.002.699-.009 1.398-.018 2.097q-.015 1.066-.027 2.134-.016 1.115-.011 2.23c.005.74.035 1.479.062 2.217q.043 1.166.08 2.332.036 1.156.063 2.313.028 1.209.043 2.419c.01.805.005 1.61-.002 2.416l-.025 2.387c-.013.745-.002 1.491.015 2.237a140 140 0 0 0 .17 4.087 301 301 0 0 1 .246 5.408l.051 1.333.042 1.136q.017.454.04.91l.05.793q.016.3.043.598l.094 1.08q.01.147.028.292c.005.051.045.361.02.166.776 4.801-6.015 5.9-6.792 1.098a13 13 0 0 1-.11-.976l-.042-.48-.05-.584q-.035-.382-.057-.766l-.051-.834c-.02-.342-.033-.684-.047-1.026q-.022-.573-.042-1.147l-.05-1.328-.064-1.594a336 336 0 0 0-.177-3.71q-.059-1.046-.104-2.09a146 146 0 0 1-.075-2.21 64 64 0 0 1-.017-2.465l.025-2.37a117 117 0 0 0-.04-4.62 267 267 0 0 0-.062-2.254q-.036-1.15-.078-2.299c-.03-.81-.061-1.62-.066-2.43q-.007-1.173.011-2.346l.027-2.151c.009-.66.02-1.318.018-1.977a52 52 0 0 0-.034-1.842 45 45 0 0 0-.1-1.805 78 78 0 0 0-.33-3.448 63 63 0 0 1-.157-1.612 34 34 0 0 1-.101-1.559q-.022-.64-.04-1.281-.016-.555-.039-1.106-.023-.513-.042-1.024a70 70 0 0 0-.043-.924c-.018-.319-.04-.637-.052-.956q-.01-.442-.007-.886v-1.43c0-4.864 6.879-4.864 6.879 0m18.718-2.66c.053.269.08.542.102.814.025.324.037.65.045.974q.013.62.019 1.24.003.71.026 1.42c.015.501.046 1 .083 1.5q.072.89.148 1.78a178 178 0 0 1 .421 6.193 249 249 0 0 1 .167 4.252c.023.747.04 1.494.062 2.24.02.738.058 1.475.103 2.212q.08 1.193.151 2.384.073 1.32.129 2.64.059 1.395.102 2.788.044 1.408.083 2.817l.082 2.815q.044 1.37.095 2.74l.106 2.64q.049 1.27.09 2.54.038 1.106.072 2.211a552 552 0 0 1 .14 5.592l.052 2.517.019.944.015.793.011.65.01.517.011.353.012.328.01.262v.038c.174 4.861-6.7 5.107-6.874.246l-.002-.039-.01-.262-.01-.33q-.01-.237-.016-.472l-.009-.518-.012-.649a586 586 0 0 0-.056-2.858l-.028-1.373a1048 1048 0 0 0-.082-3.49 545 545 0 0 0-.217-6.731l-.106-2.649q-.052-1.395-.097-2.79l-.083-2.825c-.027-.93-.051-1.861-.082-2.791-.03-.907-.06-1.813-.099-2.719q-.052-1.266-.124-2.532-.07-1.184-.15-2.367c-.049-.81-.09-1.62-.112-2.43l-.062-2.228a229 229 0 0 0-.162-4.127 145 145 0 0 0-.25-4.035q-.074-.96-.155-1.917-.08-.927-.153-1.855a42 42 0 0 1-.098-1.777 54 54 0 0 1-.03-1.571q-.005-.57-.017-1.14a14 14 0 0 0-.026-.61c-.006-.087-.009-.103.009-.01-.951-4.77 5.795-6.115 6.746-1.345z" transform="translate(0 -197)"/></svg>