<?xml version="1.0" encoding="UTF-8" standalone="no"?>
<!-- Created with Inkscape (http://www.inkscape.org/) -->

<svg
   xmlns:dc="http://purl.org/dc/elements/1.1/"
   xmlns:cc="http://creativecommons.org/ns#"
   xmlns:rdf="http://www.w3.org/1999/02/22-rdf-syntax-ns#"
   xmlns:svg="http://www.w3.org/2000/svg"
   xmlns="http://www.w3.org/2000/svg"
   xmlns:sodipodi="http://sodipodi.sourceforge.net/DTD/sodipodi-0.dtd"
   xmlns:inkscape="http://www.inkscape.org/namespaces/inkscape"
   width="10cm"
   height="10cm"
   viewBox="0 0 100 99.999997"
   version="1.1"
   id="svg8"
   sodipodi:docname="mute.svg"
   inkscape:version="0.92.3 (2405546, 2018-03-11)">
  <defs
     id="defs2" />
  <sodipodi:namedview
     id="base"
     pagecolor="#ffffff"
     bordercolor="#666666"
     borderopacity="1.0"
     inkscape:pageopacity="0.0"
     inkscape:pageshadow="2"
     inkscape:zoom="1"
     inkscape:cx="175.50186"
     inkscape:cy="186.50542"
     inkscape:document-units="cm"
     inkscape:current-layer="layer1"
     showgrid="true"
     units="cm"
     inkscape:window-width="881"
     inkscape:window-height="706"
     inkscape:window-x="971"
     inkscape:window-y="214"
     inkscape:window-maximized="0"
     inkscape:snap-nodes="false">
    <inkscape:grid
       type="xygrid"
       id="grid815"
       units="cm"
       spacingx="9.9999998"
       spacingy="9.9999998" />
  </sodipodi:namedview>
  <metadata
     id="metadata5">
    <rdf:RDF>
      <cc:Work
         rdf:about="">
        <dc:format>image/svg+xml</dc:format>
        <dc:type
           rdf:resource="http://purl.org/dc/dcmitype/StillImage" />
        <dc:title></dc:title>
      </cc:Work>
    </rdf:RDF>
  </metadata>
  <g
     inkscape:label="Layer 1"
     inkscape:groupmode="layer"
     id="layer1"
     transform="translate(0,-197.00002)">
    <path
       style="opacity:1;fill:#020900;fill-opacity:1;stroke:none;stroke-width:1;stroke-linecap:butt;stroke-linejoin:round;stroke-miterlimit:4;stroke-dasharray:none;stroke-opacity:1"
       id="path1309"
       d="m 29.335625,222.40095 c 0.03695,0.20499 0.05987,0.41206 0.07922,0.61933 0.01798,0.2035 0.03012,0.40744 0.04134,0.6114 0.01193,0.21923 0.02063,0.43862 0.02865,0.65802 0.0087,0.24554 0.01537,0.49116 0.02171,0.73678 0.007,0.26688 0.01225,0.53381 0.01699,0.80074 0.0054,0.31228 0.0096,0.62457 0.01335,0.93686 0.0042,0.35156 0.0074,0.70312 0.01053,1.05468 0.0032,0.3691 0.0059,0.7382 0.0084,1.1073 0.0015,0.40935 -0.0039,0.81867 -0.01064,1.22795 -0.0064,0.39805 -0.0143,0.79609 -0.0173,1.19419 -0.002,0.40708 0.0116,0.81397 0.02808,1.22065 0.0196,0.45872 0.05463,0.91658 0.08608,1.37459 0.0353,0.51765 0.06827,1.03544 0.09891,1.55338 0.0312,0.52967 0.05755,1.05961 0.08216,1.58962 0.02555,0.54892 0.04545,1.09807 0.06569,1.6472 0.0223,0.57193 0.04323,1.14391 0.06315,1.71592 0.01854,0.54564 0.03563,1.09131 0.05498,1.63691 0.01902,0.53475 0.03817,1.06949 0.05926,1.60415 0.02287,0.56902 0.04918,1.13788 0.07406,1.7068 0.02643,0.61101 0.05518,1.2219 0.0848,1.83276 0.03311,0.67226 0.0679,1.34443 0.09954,2.01675 0.0337,0.72006 0.06213,1.44034 0.08917,2.16067 0.02613,0.6984 0.04917,1.39691 0.07093,2.09546 0.02178,0.701 0.03968,1.4021 0.0566,2.10323 0.01437,0.68267 0.04417,1.36481 0.07383,2.04694 0.02779,0.71043 0.06216,1.42053 0.100002,2.13049 0.04064,0.74446 0.07748,1.48912 0.112974,2.23384 0.03257,0.68594 0.06263,1.372 0.09166,2.05809 0.02604,0.61611 0.05027,1.23229 0.07186,1.84856 0.01875,0.54033 0.03572,1.08072 0.05191,1.62113 0.01467,0.49256 0.02813,0.98516 0.04099,1.47777 0.01165,0.45134 0.02229,0.9027 0.03263,1.35408 0.0093,0.40623 0.01792,0.81249 0.02602,1.21875 0.0076,0.38276 0.01427,0.76554 0.02075,1.14831 0.006,0.35425 0.01146,0.7085 0.01653,1.06277 0.0032,0.22937 0.0016,0.11544 0.0047,0.3418 0.06659,4.86385 -6.811934,4.95802 -6.878522,0.0942 v 0 c -0.0031,-0.224 -0.0015,-0.11147 -0.0047,-0.3376 -0.005,-0.34826 -0.01032,-0.69652 -0.01625,-1.04477 -0.0064,-0.3759 -0.01294,-0.75179 -0.02037,-1.12767 -0.008,-0.39939 -0.0164,-0.79878 -0.02557,-1.19815 -0.01018,-0.44411 -0.02064,-0.88821 -0.0321,-1.33228 -0.01262,-0.48376 -0.02584,-0.9675 -0.04024,-1.45121 -0.01584,-0.52881 -0.03244,-1.05759 -0.05078,-1.58631 -0.02099,-0.59964 -0.0446,-1.19917 -0.06993,-1.79864 -0.0285,-0.67384 -0.05802,-1.34764 -0.09,-2.02133 -0.03488,-0.73187 -0.07107,-1.46368 -0.111028,-2.1953 -0.03901,-0.73236 -0.07451,-1.46487 -0.103254,-2.19772 -0.03158,-0.72637 -0.06287,-1.45278 -0.07832,-2.17973 -0.01653,-0.68508 -0.034,-1.37014 -0.05527,-2.05509 -0.0213,-0.68394 -0.04385,-1.36785 -0.06942,-2.05164 -0.02621,-0.69857 -0.05374,-1.39709 -0.08641,-2.09538 -0.03146,-0.66903 -0.06617,-1.3379 -0.09907,-2.00685 -0.03014,-0.62172 -0.05939,-1.24349 -0.0863,-1.86536 -0.02531,-0.57877 -0.05207,-1.15747 -0.07529,-1.73634 -0.02143,-0.5438 -0.04096,-1.08767 -0.06029,-1.63154 -0.01937,-0.54704 -0.0366,-1.09416 -0.05513,-1.64123 -0.01974,-0.56731 -0.04053,-1.13458 -0.06264,-1.7018 -0.01944,-0.52728 -0.03845,-1.05457 -0.06296,-1.58164 -0.02324,-0.50097 -0.04811,-1.00187 -0.07757,-1.50251 -0.02933,-0.4962 -0.06095,-0.99224 -0.09474,-1.48815 -0.0359,-0.52286 -0.07525,-1.04558 -0.09668,-1.56929 -0.02069,-0.517 -0.03674,-1.03427 -0.03342,-1.55176 0.0034,-0.41751 0.01097,-0.83497 0.01801,-1.25244 0.0059,-0.35623 0.01086,-0.71248 0.0099,-1.06877 -0.0025,-0.36443 -0.0051,-0.72886 -0.0082,-1.09329 -0.003,-0.34397 -0.0062,-0.68793 -0.01029,-1.03188 -0.0036,-0.29943 -0.0076,-0.59885 -0.01277,-0.89826 -0.0044,-0.24845 -0.0093,-0.4969 -0.01578,-0.74531 -0.0057,-0.22104 -0.01163,-0.44209 -0.01941,-0.66307 -0.0065,-0.17763 -0.01336,-0.35525 -0.02293,-0.53274 -0.0066,-0.12161 -0.01347,-0.24322 -0.02337,-0.3646 -2.15e-4,-0.003 -0.0075,-0.0617 -0.0013,-0.0384 -0.851392,-4.78922 5.921586,-5.99326 6.772967,-1.20404 z"
       inkscape:connector-curvature="0" />
    <path
       style="opacity:1;fill:#020900;fill-opacity:1;stroke:none;stroke-width:1;stroke-linecap:butt;stroke-linejoin:round;stroke-miterlimit:4;stroke-dasharray:none;stroke-opacity:1"
       id="path1311"
       d="m 48.122007,219.77295 c 0,0.10931 0,0.21863 0,0.32794 0,0.15602 0,0.31204 0,0.46806 0,0.2115 0,0.42301 0,0.63452 0.0032,0.22393 -0.006,0.44819 0.0039,0.67199 0.01349,0.26243 0.03016,0.52468 0.04479,0.78705 0.01871,0.34061 0.03327,0.68141 0.04735,1.02223 0.01244,0.33872 0.02763,0.67732 0.04202,1.01596 0.01656,0.39313 0.03004,0.78637 0.04253,1.17964 0.0127,0.41577 0.02241,0.83162 0.03779,1.2473 0.01519,0.41752 0.04879,0.83398 0.08286,1.25027 0.03974,0.47515 0.08657,0.94958 0.138641,1.42352 0.06796,0.58376 0.130816,1.16808 0.188754,1.75292 0.06308,0.64245 0.114694,1.28594 0.163095,1.92963 0.05392,0.68301 0.08706,1.36731 0.113882,2.05184 0.0275,0.69429 0.03647,1.38906 0.03922,2.08382 0.0019,0.69914 -0.0087,1.39822 -0.01823,2.09728 -0.01008,0.71124 -0.01865,1.4225 -0.02656,2.13377 -0.0099,0.74355 -0.01537,1.48708 -0.01109,2.23067 0.0051,0.73941 0.03472,1.4783 0.06177,2.21713 0.02881,0.77696 0.05479,1.55402 0.07956,2.33111 0.02445,0.7711 0.04598,1.54229 0.06393,2.31357 0.01775,0.80606 0.03262,1.61217 0.04303,2.41835 0.0094,0.80534 0.0046,1.61072 -0.0019,2.41606 -0.0081,0.79567 -0.0173,1.59134 -0.02556,2.38701 -0.01252,0.74579 -0.0019,1.49165 0.01513,2.23726 0.01815,0.69488 0.04291,1.38959 0.07143,2.08411 0.02832,0.66799 0.06377,1.33565 0.09952,2.00328 0.03576,0.65609 0.06879,1.31232 0.100258,1.96862 0.02886,0.60629 0.0553,1.21269 0.08094,1.81913 0.02273,0.54009 0.04355,1.08026 0.06435,1.62043 0.01704,0.44431 0.03417,0.88861 0.05097,1.33293 0.01418,0.37853 0.0269,0.75712 0.04186,1.13562 0.01199,0.30325 0.02336,0.60652 0.04064,0.90952 0.01574,0.26461 0.03246,0.52916 0.04894,0.79373 0.01053,0.19963 0.02627,0.39889 0.04361,0.59803 0.01736,0.19598 0.03466,0.39196 0.0516,0.58798 0.01413,0.16411 0.02817,0.32823 0.04203,0.49236 0.0074,0.0974 0.01617,0.1947 0.02761,0.29173 0.0054,0.0508 0.0451,0.36102 0.01947,0.16526 0.776973,4.80185 -6.01387,5.90066 -6.790843,1.0988 v 0 c -0.0232,-0.15703 -0.04459,-0.31423 -0.06205,-0.47203 -0.01931,-0.16788 -0.03597,-0.33603 -0.04892,-0.50453 -0.01349,-0.15981 -0.02717,-0.31961 -0.04093,-0.47939 -0.01683,-0.19487 -0.03408,-0.38969 -0.0513,-0.58453 -0.02212,-0.2551 -0.04209,-0.51037 -0.05615,-0.76606 -0.0173,-0.27796 -0.03489,-0.55591 -0.05132,-0.83392 -0.01913,-0.34168 -0.03312,-0.68358 -0.0462,-1.02554 -0.01508,-0.38232 -0.02805,-0.76472 -0.0423,-1.14707 -0.01675,-0.44272 -0.0338,-0.88542 -0.05078,-1.32812 -0.02048,-0.53158 -0.04096,-1.06316 -0.06331,-1.59467 -0.02508,-0.59348 -0.05096,-1.18693 -0.07919,-1.78028 -0.03084,-0.64349 -0.06324,-1.2869 -0.09831,-1.93018 -0.03728,-0.69632 -0.07417,-1.39267 -0.103589,-2.08938 -0.03014,-0.73659 -0.05651,-1.47337 -0.07545,-2.21035 -0.01844,-0.82126 -0.02988,-1.64277 -0.01651,-2.46422 0.0082,-0.79011 0.01733,-1.5802 0.02543,-2.3703 0.006,-0.75756 0.01079,-1.51517 0.0021,-2.27273 -0.01005,-0.78244 -0.02455,-1.56482 -0.04174,-2.34713 -0.01744,-0.7515 -0.0385,-1.50291 -0.06229,-2.25424 -0.02442,-0.76622 -0.05003,-1.5324 -0.07844,-2.29848 -0.02965,-0.8098 -0.0613,-1.61966 -0.06627,-2.43009 -0.0043,-0.78198 7.94e-4,-1.5639 0.0114,-2.34582 0.008,-0.71727 0.01662,-1.43453 0.02678,-2.15177 0.009,-0.65884 0.0191,-1.31771 0.01765,-1.97663 -0.0024,-0.61401 -0.0098,-1.22801 -0.03403,-1.8416 -0.02344,-0.60216 -0.05204,-1.20415 -0.09979,-1.80496 -0.04426,-0.58963 -0.09135,-1.17907 -0.148989,-1.76756 -0.05542,-0.56073 -0.116181,-1.12089 -0.181208,-1.68059 -0.05876,-0.53683 -0.111868,-1.0742 -0.156718,-1.61238 -0.04243,-0.51892 -0.08249,-1.03816 -0.101132,-1.55859 -0.01558,-0.42715 -0.02633,-0.85443 -0.03897,-1.28167 -0.0117,-0.36863 -0.02429,-0.73724 -0.03979,-1.10574 -0.0145,-0.34137 -0.02982,-0.68271 -0.04237,-1.02416 -0.01273,-0.30793 -0.02577,-0.61585 -0.04257,-0.92359 -0.01773,-0.31881 -0.03925,-0.63743 -0.05214,-0.95649 -0.008,-0.29501 -0.0082,-0.59001 -0.0072,-0.88512 0,-0.21151 0,-0.42302 0,-0.63452 0,-0.15602 0,-0.31204 0,-0.46806 0,-0.10931 0,-0.21863 0,-0.32794 0,-4.8643 6.879167,-4.8643 6.879167,0 z"
       inkscape:connector-curvature="0" />
    <path
       style="opacity:1;fill:#020900;fill-opacity:1;stroke:none;stroke-width:1;stroke-linecap:butt;stroke-linejoin:round;stroke-miterlimit:4;stroke-dasharray:none;stroke-opacity:1"
       id="path1313"
       d="m 66.839394,217.11334 c 0.05378,0.26858 0.08069,0.54132 0.102777,0.81401 0.02439,0.32407 0.03643,0.64887 0.04508,0.97368 0.0091,0.41321 0.01376,0.82651 0.01836,1.23979 0.0019,0.47368 0.01058,0.94717 0.02638,1.42057 0.015,0.50063 0.04644,1.00046 0.08334,1.49988 0.0467,0.59328 0.09757,1.18623 0.14783,1.77922 0.05718,0.65952 0.108945,1.31948 0.158745,1.97959 0.05336,0.69208 0.100415,1.38462 0.144587,2.07733 0.0452,0.71191 0.08249,1.42427 0.117673,2.13673 0.03455,0.70887 0.06453,1.41794 0.09302,2.12707 0.0284,0.70823 0.05212,1.41663 0.07413,2.12509 0.02273,0.74655 0.04011,1.49325 0.06204,2.23982 0.02021,0.73789 0.05731,1.47506 0.102534,2.21178 0.05241,0.79466 0.104436,1.58934 0.151077,2.38437 0.05094,0.8796 0.09115,1.75977 0.128969,2.64001 0.03944,0.92905 0.07157,1.85838 0.102057,2.78776 0.03069,0.93899 0.05553,1.87815 0.08283,2.81724 0.02715,0.93822 0.05351,1.87646 0.0823,2.81463 0.02894,0.91352 0.06078,1.82695 0.09531,2.74027 0.03428,0.87985 0.07106,1.7596 0.105518,2.63945 0.03304,0.84679 0.06189,1.69372 0.09047,2.54067 0.02498,0.73692 0.04935,1.47387 0.07202,2.21087 0.0208,0.68884 0.03935,1.37776 0.05757,2.06668 0.01648,0.62298 0.03141,1.24601 0.04582,1.86905 0.01267,0.55187 0.02463,1.10376 0.03643,1.65565 0.0098,0.45875 0.01939,0.9175 0.02897,1.37625 0.008,0.38045 0.01561,0.76091 0.02313,1.14137 0.0062,0.31452 0.0123,0.62904 0.01841,0.94356 0.0052,0.26446 0.0099,0.52894 0.01474,0.79341 0.0039,0.21641 0.0078,0.43283 0.01169,0.64925 0.0031,0.17259 0.0062,0.34518 0.0093,0.51777 0.0033,0.11779 0.0075,0.23556 0.01167,0.35332 0.0039,0.10915 0.0078,0.2183 0.01164,0.32746 0.0031,0.0874 0.0062,0.17474 0.0093,0.26212 5.3e-4,0.0127 7.94e-4,0.0255 0.0013,0.0382 0.173467,4.86121 -6.701324,5.10653 -6.87479,0.24532 v 0 c -5.29e-4,-0.0127 -7.94e-4,-0.0255 -0.0013,-0.0382 -0.0031,-0.0874 -0.0062,-0.17479 -0.0094,-0.26219 -0.0039,-0.11012 -0.0079,-0.22025 -0.01175,-0.33037 -0.0055,-0.15733 -0.0113,-0.31465 -0.01484,-0.47204 -0.0031,-0.17259 -0.0062,-0.34517 -0.0093,-0.51776 -0.0039,-0.21619 -0.0078,-0.43238 -0.01167,-0.64857 -0.0047,-0.26146 -0.0095,-0.52292 -0.01455,-0.78438 -0.0061,-0.31363 -0.0122,-0.62726 -0.01836,-0.94088 -0.0075,-0.37789 -0.01505,-0.75577 -0.02299,-1.13365 -0.0096,-0.45765 -0.01916,-0.91531 -0.0289,-1.37296 -0.01172,-0.54786 -0.02358,-1.09573 -0.03616,-1.64358 -0.01423,-0.61546 -0.02898,-1.23091 -0.04526,-1.84632 -0.01794,-0.67903 -0.03624,-1.35805 -0.05672,-2.037 -0.02246,-0.73017 -0.04663,-1.46029 -0.07136,-2.19039 -0.02816,-0.83455 -0.05656,-1.66909 -0.08911,-2.50348 -0.03457,-0.88296 -0.07152,-1.76582 -0.105875,-2.64879 -0.03513,-0.92962 -0.06756,-1.85933 -0.09698,-2.78915 -0.02889,-0.94186 -0.05539,-1.88379 -0.08263,-2.8257 -0.02705,-0.93055 -0.05166,-1.86118 -0.08204,-2.79163 -0.02971,-0.90614 -0.061,-1.81224 -0.09942,-2.71806 -0.03625,-0.84442 -0.07473,-1.68876 -0.123513,-2.53256 -0.04624,-0.78909 -0.09819,-1.5778 -0.150005,-2.36653 -0.04947,-0.80954 -0.09014,-1.61958 -0.112435,-2.43038 -0.0218,-0.74268 -0.03921,-1.48549 -0.06169,-2.22815 -0.02135,-0.68761 -0.04435,-1.37518 -0.0719,-2.06258 -0.02763,-0.6881 -0.05669,-1.37615 -0.09019,-2.064 -0.03353,-0.67963 -0.06903,-1.35918 -0.112106,-2.03829 -0.04243,-0.66609 -0.08769,-1.33199 -0.139028,-1.99746 -0.04819,-0.63892 -0.09827,-1.27769 -0.153657,-1.91603 -0.05241,-0.6183 -0.105489,-1.23655 -0.153845,-1.85517 -0.04342,-0.59174 -0.08013,-1.18397 -0.09813,-1.7771 -0.01725,-0.52377 -0.02762,-1.04763 -0.02972,-1.5717 -0.0042,-0.37968 -0.0085,-0.75937 -0.01651,-1.139 -0.005,-0.20382 -0.01217,-0.40763 -0.02614,-0.61107 -0.0062,-0.0865 -0.0089,-0.10232 0.0088,-0.009 -0.95132,-4.77037 5.795008,-6.11574 6.746325,-1.34536 z"
       inkscape:connector-curvature="0" />
  </g>
</svg>
