<svg viewBox="0 0 100 100"><path style="opacity:1;fill:#020900;fill-opacity:1;stroke:none;stroke-width:1;stroke-linecap:butt;stroke-linejoin:round;stroke-miterlimit:4;stroke-dasharray:none;stroke-opacity:1" d="M24.022 219.016c.08-.23.18-.452.288-.67l.138-.274.1-.2q.093-.185.197-.365c1.029-1.599 2.851-2.154 4.62-1.343.342.157.607.445.91.668.578.586.874 1.311 1.07 2.09.102.424.178.852.251 1.28.098.565.18 1.131.257 1.699q.13 1.062.277 2.121l.361 2.58q.216 1.5.415 3.003c.144 1.102.265 2.208.379 3.314q.17 1.708.319 3.417.15 1.737.282 3.474.13 1.73.236 3.459a290 290 0 0 1 .335 6.783c.04 1.096.069 2.192.097 3.288a537 537 0 0 1 .066 3.088q.027 1.43.036 2.859c.008.902.008 1.805.008 2.708v2.483l-.002 2.156a90 90 0 0 1-.029 1.94 163 163 0 0 1-.172 4.546l-.064 1.186q-.027.518-.058 1.036a183 183 0 0 0-.11 2.073c-.229 4.858-7.1 4.534-6.871-.324a132 132 0 0 1 .065-1.292l.048-.855q.031-.5.056-.999l.064-1.176q.032-.635.061-1.27.034-.72.056-1.438.028-.825.048-1.65.022-.898.027-1.797.002-1.068.002-2.137v-2.48q.002-1.328-.008-2.654a246 246 0 0 0-.034-2.78q-.029-1.524-.066-3.048a272 272 0 0 0-.094-3.203q-.063-1.643-.144-3.283a283 283 0 0 0-.183-3.333c-.07-1.12-.143-2.24-.229-3.36a337 337 0 0 0-.276-3.398 256 256 0 0 0-.31-3.317 113 113 0 0 0-.356-3.119q-.195-1.47-.405-2.94l-.363-2.592q-.15-1.077-.282-2.155a38 38 0 0 0-.219-1.448c-.045-.265-.09-.53-.148-.793-.021-.096.076.182.122.269.233.441.237.392.61.843.286.205.535.472.856.614 1.674.743 3.432.25 4.402-1.278.097-.173.097-.18.031-.049l-.1.198-.111.223c-.037.072.034-.079.036-.1-1.61 4.59-8.102 2.312-6.492-2.278m41.181-3.212c.032.215.057.43.084.646q.047.4.097.8a40 40 0 0 1 .254 2.772c.033.593.045 1.187.055 1.78q.017.978.007 1.955c-.008.716-.03 1.433-.05 2.149-.02.766-.04 1.531-.051 2.297-.01.81.005 1.618.016 2.427l.038 2.644c.013.913.027 1.826.03 2.739.001.941-.02 1.883-.043 2.824-.028.942-.063 1.885-.095 2.827l-.098 2.878a421 421 0 0 0-.15 6.152q-.031 1.602-.049 3.204-.014 1.555-.01 3.11c0 .982.015 1.965.029 2.947a3124 3124 0 0 1 .089 7.3q.01.992.018 1.986l.015 1.854.012 1.536.01 1.25.007 1.05.006.856.005.69.007 1.002.002.354.002.283.002.228v.194c-.001.165.014.318-.018-.177.583 4.83-6.247 5.654-6.83.824-.015-.202-.034-.403-.03-.605l-.002-.19-.001-.228-.002-.282-.002-.354-.003-.445-.004-.556-.005-.69-.006-.856-.017-2.296-.012-1.535-.033-3.822a1855 1855 0 0 0-.089-7.278c-.014-1.01-.029-2.022-.03-3.033q-.003-1.594.012-3.188.016-1.632.049-3.263.029-1.603.067-3.205.038-1.52.085-3.04l.099-2.883c.03-.925.065-1.85.093-2.775.022-.874.041-1.748.042-2.623-.004-.888-.018-1.775-.03-2.663l-.038-2.647c-.013-.875-.028-1.75-.017-2.625q.02-1.192.053-2.385c.019-.677.04-1.354.048-2.03q.01-.888-.007-1.775a39 39 0 0 0-.043-1.48 33 33 0 0 0-.212-2.325q-.052-.413-.101-.825c-.015-.118-.047-.236-.042-.355-.794-4.8 5.993-5.923 6.787-1.124" transform="translate(0 -197)"/><path style="opacity:1;fill:#020900;fill-opacity:1;stroke:none;stroke-width:1;stroke-linecap:butt;stroke-linejoin:round;stroke-miterlimit:4;stroke-dasharray:none;stroke-opacity:1" d="M84.636 230.921c-.378.328-.82.56-1.277.756a9 9 0 0 1-.937.309c-.264.074-.53.14-.796.206-.318.076-.639.143-.96.21q-.597.123-1.198.23-.747.13-1.494.257c-.621.106-1.245.195-1.87.284q-1.033.152-2.07.275-1.071.124-2.142.242-1.143.123-2.289.225c-.8.072-1.602.13-2.403.186-.826.057-1.651.103-2.477.148q-1.262.068-2.522.147c-.883.055-1.765.122-2.647.188q-1.403.104-2.804.22c-.985.085-1.97.178-2.955.265-1.082.096-2.164.195-3.246.285-1.158.095-2.317.177-3.476.26q-1.748.121-3.494.259a395 395 0 0 1-3.537.27c-1.154.08-2.307.176-3.46.274-1.101.092-2.2.206-3.299.331q-1.61.19-3.219.39l-3.096.378-2.88.352q-1.306.153-2.614.31-1.187.143-2.376.282l-2.04.237q-.868.1-1.737.195a149 149 0 0 1-2.89.28q-.551.05-1.104.098l-.881.078-.667.059-.029.004c-4.834.537-5.593-6.3-.759-6.837l.134-.015.719-.064.88-.077 1.094-.097q.649-.057 1.298-.12a142 142 0 0 0 3.152-.337l2.029-.236q1.178-.138 2.355-.28l2.611-.31c.958-.115 1.915-.235 2.873-.35l3.085-.377a594 594 0 0 1 3.286-.398c1.163-.132 2.326-.253 3.493-.35 1.18-.1 2.36-.198 3.542-.281a390 390 0 0 0 3.498-.267q1.77-.139 3.543-.263c1.131-.08 2.262-.16 3.393-.253 1.07-.09 2.138-.187 3.208-.281.996-.089 1.99-.183 2.987-.267q1.431-.12 2.863-.226a202 202 0 0 1 5.317-.345c.792-.043 1.583-.087 2.374-.141a112 112 0 0 0 4.415-.386 387 387 0 0 0 2.075-.235 70 70 0 0 0 1.912-.254 65 65 0 0 0 1.703-.258q.71-.12 1.418-.244.503-.09 1.003-.19.365-.076.729-.16.277-.065.552-.14c.01-.003.258-.09.196-.051q-.301.144-.553.364c3.703-3.155 8.164 2.082 4.46 5.236zm-1.704 28.039q-.35.05-.703.082a33 33 0 0 1-1.146.089c-.534.033-1.068.054-1.602.074q-.978.033-1.957.062-1.08.029-2.157.064c-.754.028-1.507.068-2.26.105q-1.195.056-2.39.124a312 312 0 0 1-5.064.228q-1.36.053-2.719.098c-.97.03-1.939.058-2.908.093q-1.527.054-3.052.13c-1.08.057-2.158.134-3.236.209l-3.496.251q-1.77.13-3.538.265-1.736.133-3.471.247c-1.111.075-2.223.143-3.334.212q-1.53.094-3.057.196a96 96 0 0 0-5.131.478c-.72.086-1.438.179-2.156.268l-1.861.233a500 500 0 0 1-2.862.344l-1.068.122a84 84 0 0 1-1.8.18q-.42.037-.841.066-.46.03-.921.042l-.718.012-.56.008-.457.006q-.242.005-.485-.001l-.312-.008-.237-.006a8 8 0 0 1-.307-.014l-.161-.01-.12-.008c.016-.002-.068-.002-.051-.003 1.25-.075.555.056 1.986-.49-4.145 2.547-7.746-3.314-3.602-5.86.887-.345 1.188-.585 2.098-.512l.12.008.14.009c.064.004-.03 0 .07.003l.237.006.282.007q.123.004.247 0l.455-.006.557-.008.646-.01q.304-.007.609-.027a41 41 0 0 0 1.493-.128q.432-.044.863-.092a354 354 0 0 0 3.85-.457q.93-.117 1.861-.232c.736-.092 1.47-.187 2.207-.275a103 103 0 0 1 5.468-.508q1.546-.104 3.093-.2 1.65-.1 3.297-.208 1.708-.114 3.415-.244 1.78-.136 3.562-.266l3.511-.253c1.122-.078 2.244-.158 3.367-.216q1.575-.078 3.152-.134 1.464-.05 2.928-.094a565 565 0 0 0 5.203-.199q1.218-.056 2.435-.121c.81-.044 1.62-.09 2.43-.126.787-.038 1.574-.08 2.361-.109q1.092-.035 2.184-.065l1.906-.06c.474-.018.948-.036 1.421-.065.307-.02.615-.04.92-.071a8 8 0 0 0 .417-.048c4.817-.67 5.767 6.143.949 6.814" transform="translate(0 -197)"/></svg>