<?xml version="1.0" encoding="UTF-8" standalone="no"?>
<!-- Created with Inkscape (http://www.inkscape.org/) -->

<svg
   xmlns:dc="http://purl.org/dc/elements/1.1/"
   xmlns:cc="http://creativecommons.org/ns#"
   xmlns:rdf="http://www.w3.org/1999/02/22-rdf-syntax-ns#"
   xmlns:svg="http://www.w3.org/2000/svg"
   xmlns="http://www.w3.org/2000/svg"
   xmlns:sodipodi="http://sodipodi.sourceforge.net/DTD/sodipodi-0.dtd"
   xmlns:inkscape="http://www.inkscape.org/namespaces/inkscape"
   width="10cm"
   height="10cm"
   viewBox="0 0 100 99.999997"
   version="1.1"
   id="svg8"
   sodipodi:docname="nanpa.svg"
   inkscape:version="0.92.3 (2405546, 2018-03-11)">
  <defs
     id="defs2" />
  <sodipodi:namedview
     id="base"
     pagecolor="#ffffff"
     bordercolor="#666666"
     borderopacity="1.0"
     inkscape:pageopacity="0.0"
     inkscape:pageshadow="2"
     inkscape:zoom="1"
     inkscape:cx="175.50186"
     inkscape:cy="186.50542"
     inkscape:document-units="cm"
     inkscape:current-layer="layer1"
     showgrid="true"
     units="cm"
     inkscape:window-width="881"
     inkscape:window-height="706"
     inkscape:window-x="971"
     inkscape:window-y="214"
     inkscape:window-maximized="0"
     inkscape:snap-nodes="false">
    <inkscape:grid
       type="xygrid"
       id="grid815"
       units="cm"
       spacingx="9.9999998"
       spacingy="9.9999998" />
  </sodipodi:namedview>
  <metadata
     id="metadata5">
    <rdf:RDF>
      <cc:Work
         rdf:about="">
        <dc:format>image/svg+xml</dc:format>
        <dc:type
           rdf:resource="http://purl.org/dc/dcmitype/StillImage" />
        <dc:title></dc:title>
      </cc:Work>
    </rdf:RDF>
  </metadata>
  <g
     inkscape:label="Layer 1"
     inkscape:groupmode="layer"
     id="layer1"
     transform="translate(0,-197.00002)">
    <path
       style="opacity:1;fill:#020900;fill-opacity:1;stroke:none;stroke-width:1;stroke-linecap:butt;stroke-linejoin:round;stroke-miterlimit:4;stroke-dasharray:none;stroke-opacity:1"
       id="path1315"
       d="m 24.022422,219.01592 c 0.07965,-0.22995 0.18036,-0.45153 0.28776,-0.66961 0.04558,-0.0917 0.09177,-0.18306 0.137904,-0.27447 0.0335,-0.0664 0.06701,-0.13274 0.100523,-0.1991 0.06035,-0.12463 0.128225,-0.24507 0.196435,-0.36554 1.028671,-1.5992 2.851085,-2.15399 4.620496,-1.34332 0.341884,0.15664 0.606163,0.44525 0.909246,0.66788 0.5778,0.58639 0.874504,1.31164 1.071142,2.09087 0.101134,0.423 0.176585,0.8515 0.250317,1.27994 0.09761,0.56427 0.180652,1.13081 0.256887,1.69831 0.08598,0.70798 0.179107,1.41499 0.277338,2.12137 0.120576,0.85974 0.239731,1.71969 0.360987,2.57934 0.142714,1.0004 0.282173,2.00125 0.4141,3.00313 0.144277,1.10277 0.265895,2.20826 0.379455,3.31454 0.114942,1.13819 0.218998,2.27743 0.319013,3.41701 0.100544,1.15754 0.193529,2.31571 0.282347,3.4742 0.08803,1.15209 0.16386,2.30504 0.235567,3.45824 0.07044,1.1383 0.130633,2.2772 0.187629,3.41624 0.05577,1.12202 0.104839,2.24435 0.147384,3.36695 0.04087,1.09584 0.06899,2.19211 0.09689,3.28834 0.02609,1.02919 0.04637,2.05851 0.06654,3.08782 0.01852,0.95275 0.02826,1.90565 0.03603,2.85854 0.0078,0.90288 0.0074,1.80579 0.0075,2.7087 3.2e-5,0.8276 -1.4e-4,1.6552 -2.64e-4,2.4828 10e-6,0.71868 1.77e-4,1.43736 -0.0019,2.15603 -0.0013,0.6465 -0.01355,1.29289 -0.02874,1.93919 -0.01267,0.57092 -0.03079,1.14169 -0.04945,1.71243 -0.01535,0.50656 -0.03621,1.01292 -0.0588,1.5192 -0.01969,0.43828 -0.04147,0.87646 -0.06382,1.31462 -0.02146,0.39562 -0.04314,0.79124 -0.06396,1.1869 -0.01767,0.34515 -0.03803,0.69015 -0.05802,1.03518 -0.01617,0.27623 -0.032,0.55249 -0.04692,0.8288 -0.01286,0.24219 -0.02516,0.4844 -0.03744,0.72661 -0.0088,0.17248 -0.01701,0.34499 -0.02513,0.5175 -0.229111,4.85891 -7.100641,4.5349 -6.871533,-0.32401 v 0 c 0.0085,-0.18058 0.01709,-0.36117 0.02633,-0.54172 0.01267,-0.2498 0.02537,-0.49961 0.03864,-0.74939 0.01543,-0.28525 0.03171,-0.57046 0.04842,-0.85564 0.01929,-0.33291 0.03897,-0.6658 0.05601,-0.99884 0.02064,-0.39197 0.04205,-0.78391 0.06339,-1.17584 0.02162,-0.42361 0.0427,-0.84724 0.06173,-1.27098 0.02138,-0.47895 0.04118,-0.95798 0.05563,-1.4372 0.01799,-0.54987 0.03551,-1.09974 0.04769,-1.64978 0.01415,-0.5989 0.02561,-1.19789 0.02686,-1.79699 0.0021,-0.71241 0.0019,-1.42482 0.0019,-2.13724 1.4e-4,-0.82677 2.64e-4,-1.65354 2.64e-4,-2.48032 -1.66e-4,-0.88468 2.65e-4,-1.76938 -0.0073,-2.65404 -0.0075,-0.92662 -0.01696,-1.85325 -0.03494,-2.77974 -0.0199,-1.01591 -0.0399,-2.03184 -0.06563,-3.04763 -0.02717,-1.06777 -0.05446,-2.13559 -0.09419,-3.20299 -0.04143,-1.09478 -0.08938,-2.18931 -0.143717,-3.28353 -0.05559,-1.11134 -0.114271,-2.22253 -0.182967,-3.33314 -0.06962,-1.12021 -0.143232,-2.24018 -0.228701,-3.3593 -0.08685,-1.13329 -0.177829,-2.26627 -0.276135,-3.39862 -0.09704,-1.10601 -0.197979,-2.21168 -0.309433,-3.31635 -0.106715,-1.04095 -0.220952,-2.08117 -0.356541,-3.11882 -0.12905,-0.98087 -0.26587,-1.96067 -0.405503,-2.94008 -0.121883,-0.86415 -0.241683,-1.7286 -0.362878,-2.59285 -0.09973,-0.71756 -0.19503,-1.43568 -0.28192,-2.15492 -0.06463,-0.48372 -0.135404,-0.96655 -0.218551,-1.44747 -0.04543,-0.26511 -0.09092,-0.53033 -0.148459,-0.79314 -0.02135,-0.0959 0.07593,0.1816 0.121806,0.26853 0.233237,0.44198 0.237588,0.39204 0.610325,0.84308 0.285444,0.20491 0.535154,0.47221 0.856332,0.61473 1.674089,0.74285 3.431203,0.24885 4.401864,-1.27786 0.09637,-0.17356 0.09682,-0.18021 0.03115,-0.0491 -0.0333,0.0659 -0.0666,0.1319 -0.09989,0.19785 -0.03738,0.0741 -0.07479,0.1481 -0.11186,0.22231 -0.03706,0.072 0.0343,-0.0783 0.03599,-0.10006 -1.610455,4.58998 -8.101665,2.31246 -6.491211,-2.27752 z"
       inkscape:connector-curvature="0" />
    <path
       style="opacity:1;fill:#020900;fill-opacity:1;stroke:none;stroke-width:1;stroke-linecap:butt;stroke-linejoin:round;stroke-miterlimit:4;stroke-dasharray:none;stroke-opacity:1"
       id="path1317"
       d="m 65.203032,215.80444 c 0.03229,0.21463 0.05725,0.43033 0.08353,0.64576 0.03195,0.26637 0.06384,0.53274 0.09735,0.79891 0.05298,0.41243 0.09738,0.82586 0.137604,1.2397 0.04831,0.51013 0.08538,1.02124 0.116319,1.53269 0.03364,0.59315 0.04539,1.1872 0.05496,1.78113 0.01254,0.65145 0.01349,1.30296 0.007,1.95447 -0.008,0.71639 -0.03011,1.43249 -0.0497,2.14861 -0.02003,0.76584 -0.04053,1.53168 -0.05154,2.2977 -0.0096,0.80876 0.0052,1.61753 0.01677,2.42618 0.0123,0.88164 0.02511,1.76328 0.03795,2.64491 0.01307,0.91273 0.02702,1.82545 0.03051,2.73827 5.29e-4,0.94148 -0.02032,1.88279 -0.04426,2.8239 -0.0275,0.94269 -0.06284,1.88512 -0.09412,2.82769 -0.0333,0.95923 -0.06731,1.91844 -0.09836,2.87774 -0.03189,0.99587 -0.05863,1.99188 -0.08344,2.98794 -0.0259,1.05454 -0.0469,2.10919 -0.06676,3.16385 -0.0205,1.06807 -0.0374,2.1362 -0.04844,3.20441 -0.0098,1.03632 -0.01217,2.07268 -0.01098,3.10905 0.0013,0.98272 0.01598,1.96537 0.02927,2.94798 0.01254,0.91826 0.02463,1.83651 0.03636,2.75477 0.01027,0.80851 0.0199,1.61703 0.02933,2.42554 0.0082,0.70618 0.01601,1.41236 0.02339,2.11855 0.0069,0.66217 0.01294,1.32434 0.01865,1.98652 0.0053,0.61811 0.01005,1.23623 0.01487,1.85434 0.004,0.51187 0.0079,1.02374 0.01183,1.53561 0.0032,0.41658 0.0063,0.83316 0.0094,1.24974 0.0026,0.35012 0.0051,0.70024 0.0075,1.05036 0.0021,0.28529 0.004,0.57059 0.006,0.85588 0.0016,0.2303 0.0032,0.4606 0.0048,0.6909 0.0013,0.18557 0.0026,0.37114 0.0038,0.55671 0.0011,0.14818 0.0021,0.29636 0.003,0.44453 7.94e-4,0.11811 0.0016,0.23622 0.0024,0.35433 5.29e-4,0.0941 0.0013,0.18827 0.0019,0.2824 5.29e-4,0.0763 0.0011,0.15261 0.0016,0.22891 5.29e-4,0.0644 7.93e-4,0.1288 0.0013,0.1932 -0.0021,0.16568 0.01286,0.31874 -0.01852,-0.17641 0.582721,4.82928 -6.246905,5.65337 -6.829626,0.8241 v 0 c -0.01519,-0.20213 -0.035,-0.40282 -0.0309,-0.60538 -2.64e-4,-0.0636 -7.93e-4,-0.12719 -0.0013,-0.19078 -5.3e-4,-0.0756 -0.0011,-0.15117 -0.0016,-0.22675 -5.29e-4,-0.0941 -0.0013,-0.18827 -0.0019,-0.2824 -7.94e-4,-0.11811 -0.0016,-0.23622 -0.0024,-0.35433 -0.0011,-0.14817 -0.0021,-0.29635 -0.003,-0.44452 -0.0013,-0.18539 -0.0026,-0.37077 -0.0038,-0.55616 -0.0016,-0.23021 -0.0032,-0.46041 -0.0048,-0.69062 -0.0019,-0.28502 -0.004,-0.57003 -0.006,-0.85504 -0.0024,-0.34944 -0.0049,-0.69888 -0.0075,-1.04832 -0.0031,-0.41587 -0.0062,-0.83173 -0.0094,-1.2476 -0.0039,-0.51167 -0.0079,-1.02333 -0.01183,-1.535 -0.0048,-0.61603 -0.0096,-1.23206 -0.01479,-1.84809 -0.0057,-0.6581 -0.01172,-1.31619 -0.01855,-1.97427 -0.0074,-0.7034 -0.01511,-1.40679 -0.02331,-2.11017 -0.0094,-0.80599 -0.019,-1.61197 -0.02924,-2.41794 -0.01169,-0.91654 -0.02379,-1.83307 -0.0363,-2.7496 -0.01368,-1.01101 -0.02867,-2.02204 -0.02989,-3.03316 -0.0013,-1.06272 0.0013,-2.12543 0.01135,-3.18811 0.01127,-1.08764 0.02839,-2.1752 0.04929,-3.2627 0.02014,-1.06862 0.04141,-2.13722 0.06768,-3.2057 0.02524,-1.01313 0.05246,-2.02621 0.08491,-3.03914 0.03112,-0.96117 0.06514,-1.92223 0.09854,-2.88332 0.0307,-0.92496 0.06527,-1.84979 0.09257,-2.77486 0.02233,-0.87421 0.04188,-1.7486 0.04207,-2.62314 -0.0031,-0.88791 -0.01738,-1.7757 -0.02983,-2.66351 -0.01286,-0.88211 -0.02566,-1.76423 -0.03797,-2.64635 -0.01257,-0.87505 -0.02789,-1.75024 -0.01675,-2.6254 0.01177,-0.79525 0.03227,-1.59032 0.05338,-2.38536 0.01852,-0.67674 0.03961,-1.35346 0.04748,-2.03044 0.0061,-0.59143 0.005,-1.18285 -0.0065,-1.77423 -0.0079,-0.49334 -0.01662,-0.98679 -0.0435,-1.47954 -0.02537,-0.42757 -0.05682,-0.85479 -0.09661,-1.28128 -0.03362,-0.34861 -0.07118,-0.69683 -0.11584,-1.04421 -0.03456,-0.2748 -0.06765,-0.54977 -0.100555,-0.82477 -0.01445,-0.11847 -0.04657,-0.23634 -0.04184,-0.3556 -0.794137,-4.79904 5.992735,-5.92212 6.786869,-1.12308 z"
       inkscape:connector-curvature="0" />
    <path
       style="opacity:1;fill:#020900;fill-opacity:1;stroke:none;stroke-width:1;stroke-linecap:butt;stroke-linejoin:round;stroke-miterlimit:4;stroke-dasharray:none;stroke-opacity:1"
       id="path1319"
       d="m 84.63581,230.92098 c -0.377534,0.32805 -0.81965,0.5605 -1.276649,0.75558 -0.304594,0.12531 -0.620657,0.21874 -0.936906,0.30922 -0.26394,0.0739 -0.529896,0.14045 -0.796004,0.20608 -0.318555,0.0763 -0.639172,0.14362 -0.959694,0.21106 -0.398441,0.0818 -0.798213,0.15685 -1.198493,0.22906 -0.497737,0.0871 -0.995646,0.17329 -1.493904,0.25736 -0.62143,0.10561 -1.245526,0.19433 -1.869416,0.28388 -0.68893,0.10164 -1.379458,0.19151 -2.07086,0.2745 -0.713925,0.0825 -1.427977,0.16402 -2.142355,0.24255 -0.76191,0.0829 -1.524809,0.15616 -2.288111,0.22489 -0.800515,0.0717 -1.602065,0.1307 -2.40384,0.18613 -0.825164,0.0568 -1.650987,0.1031 -2.476878,0.14776 -0.840828,0.0443 -1.681308,0.0949 -2.521657,0.14736 -0.88274,0.0549 -1.764707,0.1212 -2.6466,0.18807 -0.935064,0.0693 -1.869906,0.14146 -2.804205,0.22046 -0.985618,0.0838 -1.970429,0.17664 -2.95569,0.26447 -1.081762,0.0956 -2.163241,0.19421 -3.245442,0.28476 -1.158063,0.0948 -2.317152,0.17637 -3.476123,0.25912 -1.164912,0.082 -2.329534,0.16805 -3.493733,0.2597 -1.178456,0.0966 -2.357694,0.18309 -3.53696,0.26911 -1.154017,0.0818 -2.306989,0.17714 -3.459718,0.27518 -1.101699,0.0915 -2.20118,0.20612 -3.299542,0.3309 -1.073304,0.12666 -2.146141,0.25725 -3.218744,0.38971 -1.03202,0.12699 -2.064247,0.2523 -3.096416,0.37807 -0.960007,0.11597 -1.91953,0.23587 -2.879532,0.35188 -0.871424,0.10243 -1.742762,0.20551 -2.613893,0.31041 -0.791858,0.0955 -1.584002,0.18868 -2.376165,0.28163 -0.680027,0.0789 -1.359967,0.15848 -2.040015,0.23716 -0.578843,0.0673 -1.157987,0.13195 -1.73735,0.19461 -0.512546,0.0553 -1.025495,0.1067 -1.538583,0.15666 -0.44995,0.0436 -0.900192,0.084 -1.350439,0.12435 -0.368193,0.0329 -0.736434,0.0653 -1.104675,0.0976 -0.293862,0.0258 -0.587725,0.0516 -0.881588,0.0774 -0.222126,0.0202 -0.444482,0.0379 -0.6664896,0.0593 -0.00959,0.001 -0.019172,0.002 -0.028756,0.004 -4.8346153,0.53662 -5.5935125,-6.30056 -0.7588975,-6.83718 v 0 c 0.044417,-0.005 0.088835,-0.01 0.1332526,-0.0144 0.2395342,-0.0227 0.4793086,-0.0428 0.718974,-0.0641 0.2936865,-0.0258 0.5873725,-0.0516 0.8810585,-0.0774 0.364444,-0.032 0.72889,-0.0641 1.093288,-0.0966 0.43264,-0.0388 0.865277,-0.0776 1.297634,-0.11941 0.488771,-0.0476 0.977411,-0.0965 1.465666,-0.14917 0.562343,-0.0608 1.124468,-0.12359 1.686305,-0.1889 0.676337,-0.0782 1.352565,-0.15743 2.028881,-0.23586 0.785274,-0.0922 1.570529,-0.18448 2.355499,-0.27918 0.870188,-0.10478 1.740579,-0.2078 2.611066,-0.31006 0.957717,-0.11572 1.914949,-0.23539 2.872671,-0.35105 1.028502,-0.12533 2.057059,-0.25019 3.085412,-0.37673 1.094952,-0.1352 2.190139,-0.26855 3.285829,-0.39765 1.162629,-0.13191 2.326439,-0.25309 3.492569,-0.35006 1.180229,-0.10038 2.360715,-0.19791 3.542257,-0.28171 1.16617,-0.0851 2.33231,-0.17053 3.497675,-0.26613 1.180799,-0.0929 2.362015,-0.18025 3.543538,-0.26343 1.131147,-0.0808 2.262415,-0.1603 3.392689,-0.25266 1.069739,-0.0894 2.138741,-0.18713 3.208049,-0.28153 0.995762,-0.0888 1.991066,-0.18266 2.987201,-0.2672 0.954027,-0.0806 1.908577,-0.15448 2.863379,-0.22521 0.912416,-0.0692 1.824914,-0.13762 2.7382,-0.1944 0.85938,-0.0536 1.718892,-0.10539 2.578756,-0.15068 0.791607,-0.0428 1.583155,-0.087 2.374066,-0.14143 0.754298,-0.0521 1.50839,-0.10749 2.261508,-0.17481 0.718296,-0.0646 1.436208,-0.13353 2.1532,-0.21141 0.691878,-0.076 1.383416,-0.15507 2.07487,-0.2348 0.638525,-0.0764 1.276186,-0.15966 1.91239,-0.25363 0.568344,-0.0816 1.13696,-0.16185 1.703081,-0.25792 0.47294,-0.0797 0.94548,-0.16173 1.417955,-0.24412 0.334796,-0.0602 0.669123,-0.12299 1.002474,-0.1908 0.243388,-0.0511 0.486834,-0.10215 0.729102,-0.15841 0.184385,-0.0454 0.368713,-0.0912 0.551929,-0.14115 0.0095,-0.003 0.257969,-0.0906 0.19594,-0.0509 -0.199427,0.096 -0.385768,0.21832 -0.552853,0.36364 3.702976,-3.15427 8.163791,2.08253 4.460812,5.23681 z"
       inkscape:connector-curvature="0" />
    <path
       style="opacity:1;fill:#020900;fill-opacity:1;stroke:none;stroke-width:1;stroke-linecap:butt;stroke-linejoin:round;stroke-miterlimit:4;stroke-dasharray:none;stroke-opacity:1"
       id="path1321"
       d="m 82.931716,258.96056 c -0.233273,0.0338 -0.467688,0.0586 -0.702233,0.0816 -0.381593,0.0377 -0.764159,0.0643 -1.146792,0.0887 -0.533336,0.0329 -1.067273,0.0545 -1.601224,0.0745 -0.652446,0.0226 -1.305004,0.042 -1.957554,0.0615 -0.71914,0.0209 -1.43832,0.0402 -2.157357,0.0644 -0.753631,0.0273 -1.506693,0.0678 -2.259912,0.10433 -0.796533,0.0366 -1.592672,0.0809 -2.388859,0.12424 -0.829173,0.0454 -1.658644,0.0851 -2.48815,0.12387 -0.858663,0.0401 -1.717609,0.0737 -2.576642,0.10478 -0.906282,0.0344 -1.812602,0.0677 -2.719038,0.0978 -0.969463,0.0297 -1.938949,0.0582 -2.908239,0.0931 -1.017519,0.0366 -2.034837,0.0781 -3.051704,0.12971 -1.079471,0.0566 -2.157733,0.13343 -3.236021,0.20867 -1.165421,0.0835 -2.33081,0.16746 -3.496204,0.25134 -1.179605,0.0852 -2.358792,0.1759 -3.538106,0.26494 -1.156566,0.0892 -2.313758,0.16964 -3.471133,0.24742 -1.110972,0.0741 -2.222312,0.14251 -3.333625,0.21129 -1.019181,0.0636 -2.038297,0.12817 -3.057163,0.1967 -0.905168,0.0587 -1.809189,0.1325 -2.712291,0.21691 -0.807538,0.0751 -1.613437,0.16626 -2.418943,0.26035 -0.718984,0.086 -1.437105,0.17902 -2.155676,0.26839 -0.62053,0.0764 -1.240711,0.15554 -1.861143,0.23268 -0.520859,0.0646 -1.041855,0.12803 -1.56291,0.19099 -0.43263,0.0526 -0.865508,0.10312 -1.298434,0.15321 -0.356027,0.0411 -0.712112,0.0817 -1.068256,0.12172 -0.311279,0.0353 -0.622834,0.0681 -0.934493,0.0999 -0.288388,0.0295 -0.577084,0.0558 -0.865866,0.0811 -0.280069,0.0247 -0.560431,0.0458 -0.840882,0.0656 -0.306814,0.0201 -0.613996,0.0333 -0.921347,0.0413 -0.23909,0.005 -0.478215,0.008 -0.717334,0.0119 -0.186702,0.003 -0.373406,0.005 -0.56011,0.008 -0.152246,0.002 -0.304493,0.004 -0.45674,0.006 -0.161623,0.004 -0.323256,0.002 -0.484867,-10e-4 -0.104122,-0.002 -0.208236,-0.005 -0.31235,-0.008 -0.07914,-0.002 -0.158284,-0.004 -0.237426,-0.006 -0.102387,-0.002 -0.204655,-0.007 -0.306864,-0.0131 -0.05373,-0.003 -0.107461,-0.007 -0.161189,-0.01 -0.04009,-0.003 -0.08019,-0.005 -0.120285,-0.008 0.01681,-0.002 -0.0674,-0.002 -0.05055,-0.003 1.249543,-0.0756 0.555602,0.0558 1.985709,-0.49014 -4.144413,2.54663 -7.745887,-3.31446 -3.601474,-5.86108 v 0 c 0.886921,-0.3438 1.187893,-0.58432 2.097535,-0.51124 0.03992,0.002 0.07984,0.005 0.119764,0.008 0.04666,0.003 0.09333,0.006 0.139995,0.009 0.06425,0.004 -0.02916,1.7e-4 0.07102,0.003 0.07889,0.002 0.157785,0.004 0.236678,0.006 0.0939,0.002 0.187808,0.005 0.281718,0.007 0.08251,0.002 0.164947,0.003 0.247472,1.7e-4 0.151655,-0.002 0.30331,-0.004 0.454964,-0.006 0.185529,-0.003 0.371058,-0.005 0.556586,-0.008 0.215264,-0.003 0.430531,-0.006 0.645774,-0.0105 0.203288,-0.005 0.406404,-0.0141 0.609378,-0.0264 0.241686,-0.017 0.483297,-0.0351 0.724651,-0.0564 0.256443,-0.0224 0.512815,-0.0457 0.768907,-0.0719 0.287727,-0.0293 0.575354,-0.0596 0.862726,-0.0922 0.348898,-0.0392 0.697738,-0.079 1.046522,-0.11924 0.421378,-0.0487 0.842711,-0.0979 1.263799,-0.14911 0.513228,-0.062 1.026398,-0.12452 1.539431,-0.18812 0.620384,-0.0771 1.240509,-0.15631 1.860992,-0.23266 0.735552,-0.0915 1.470633,-0.18676 2.206638,-0.27453 0.858345,-0.10021 1.717138,-0.19703 2.577645,-0.27702 0.962265,-0.0897 1.925468,-0.16862 2.889911,-0.23117 1.0311,-0.0693 2.062454,-0.13469 3.093873,-0.19907 1.099209,-0.068 2.198447,-0.13564 3.29732,-0.20895 1.138468,-0.0765 2.276761,-0.15563 3.414427,-0.24337 1.187325,-0.0896 2.374524,-0.18101 3.562143,-0.26671 1.170408,-0.0842 2.340814,-0.16857 3.511251,-0.25241 1.121704,-0.0783 2.243397,-0.15794 3.366347,-0.21652 1.050488,-0.0532 2.101419,-0.0963 3.152576,-0.13408 0.975842,-0.0351 1.951866,-0.064 2.927882,-0.0938 0.89962,-0.0298 1.799122,-0.0629 2.698591,-0.097 0.834893,-0.0302 1.669696,-0.0628 2.504229,-0.10179 0.811908,-0.0379 1.623782,-0.0767 2.435362,-0.1212 0.809742,-0.044 1.619441,-0.0891 2.429534,-0.12633 0.787075,-0.0381 1.573985,-0.0804 2.361507,-0.10851 0.727757,-0.0245 1.455647,-0.0442 2.183511,-0.0653 0.635534,-0.019 1.271077,-0.0378 1.906516,-0.0598 0.473884,-0.0176 0.947764,-0.0365 1.421119,-0.0654 0.307115,-0.0194 0.614201,-0.0403 0.92047,-0.0706 0.138924,-0.0131 0.27778,-0.0274 0.415864,-0.0478 4.817792,-0.67108 5.76684,6.14231 0.949047,6.81339 z"
       inkscape:connector-curvature="0" />
  </g>
</svg>
