<svg viewBox="0 0 100 100"><path style="opacity:1;fill:#020900;fill-opacity:1;stroke:none;stroke-width:1;stroke-linecap:butt;stroke-linejoin:round;stroke-miterlimit:4;stroke-dasharray:none;stroke-opacity:1" d="M55.433 255.033c-.055 1.001-.51 1.84-1.189 2.549-.39.384-.857.663-1.346.9-.458.212-.945.345-1.435.454-.63.135-1.273.14-1.913.1-.607-.05-1.202-.185-1.792-.331a23 23 0 0 1-1.684-.5c-.72-.237-1.4-.573-2.055-.952-.7-.41-1.317-.936-1.895-1.503-.552-.55-1.011-1.18-1.437-1.83a12 12 0 0 1-1.034-2.02c-.337-.832-.482-1.712-.54-2.603-.044-.909.119-1.8.356-2.672.233-.807.595-1.564.986-2.304.38-.713.828-1.386 1.302-2.04.498-.687 1.066-1.316 1.66-1.92.629-.639 1.336-1.19 2.066-1.708.695-.488 1.433-.91 2.185-1.303.817-.428 1.681-.742 2.565-.996.941-.26 1.914-.336 2.886-.34.932.003 1.849.167 2.751.385.942.233 1.826.63 2.68 1.081.865.465 1.645 1.06 2.384 1.7.734.65 1.367 1.398 1.964 2.174.588.775 1.075 1.619 1.527 2.478.45.862.817 1.763 1.145 2.677.334.948.57 1.925.772 2.908a32 32 0 0 1 .569 6.139c.008 1.105-.095 2.206-.236 3.3-.148 1.126-.406 2.232-.697 3.328a29 29 0 0 1-1.106 3.252c-.46 1.15-1.063 2.23-1.72 3.276-.71 1.117-1.557 2.134-2.446 3.11-.921.998-1.944 1.891-2.992 2.752-1.063.87-2.201 1.638-3.369 2.359-1.226.762-2.538 1.363-3.877 1.895-1.376.534-2.807.902-4.246 1.218-1.46.314-2.943.49-4.43.61-1.469.115-2.942.087-4.412-.001-1.4-.09-2.783-.316-4.153-.606-1.319-.28-2.596-.71-3.845-1.212-1.257-.517-2.432-1.202-3.578-1.926-1.196-.756-2.3-1.64-3.35-2.584-1.14-1.025-2.102-2.214-2.989-3.459-.89-1.284-1.617-2.669-2.305-4.068-.66-1.362-1.228-2.765-1.769-4.177-.552-1.421-.973-2.886-1.331-4.366-.354-1.488-.547-3.005-.674-4.527-.115-1.433-.093-2.87-.002-4.304.098-1.406.351-2.795.639-4.173.283-1.318.633-2.62 1.015-3.912.371-1.25.822-2.475 1.307-3.685a35 35 0 0 1 1.618-3.412c.6-1.121 1.306-2.18 2.046-3.212.773-1.068 1.633-2.068 2.52-3.043.906-.995 1.892-1.91 2.91-2.789 1.01-.863 2.083-1.645 3.178-2.396 1.06-.72 2.169-1.362 3.289-1.984a41 41 0 0 1 3.37-1.654 36 36 0 0 1 3.484-1.312c1.163-.37 2.351-.653 3.545-.906a35 35 0 0 1 3.608-.54c1.23-.122 2.467-.144 3.703-.137 1.19.01 2.378.094 3.563.207a43 43 0 0 1 3.25.461 78 78 0 0 1 2.701.552q1.056.23 2.11.467l1.68.379 2.398.542.848.192.707.161c.257.065.115.027.424.117 4.65 1.428 2.63 8.004-2.02 6.576q.089.022.019.003l-.647-.147-.848-.192-1.064-.24-1.335-.302-1.67-.377q-1.032-.232-2.066-.457a72 72 0 0 0-2.433-.499c-.9-.16-1.802-.297-2.711-.388a35 35 0 0 0-2.95-.176c-.987-.007-1.976.007-2.96.101-.967.098-1.931.23-2.884.428-.959.201-1.914.426-2.85.72-.956.308-1.9.651-2.82 1.058a34 34 0 0 0-2.817 1.38c-.933.516-1.858 1.048-2.741 1.646a30 30 0 0 0-2.57 1.929 27 27 0 0 0-2.316 2.21c-.71.777-1.4 1.573-2.019 2.425-.566.785-1.107 1.589-1.566 2.442a28 28 0 0 0-1.3 2.73 35 35 0 0 0-1.095 3.075 46 46 0 0 0-.878 3.37c-.223 1.06-.426 2.126-.507 3.208a23 23 0 0 0-.007 3.293c.094 1.17.238 2.338.506 3.484.285 1.192.624 2.371 1.068 3.515.465 1.219.953 2.43 1.52 3.605.524 1.072 1.072 2.137 1.745 3.126.586.837 1.223 1.638 1.983 2.326.758.69 1.559 1.33 2.425 1.881.795.507 1.606.992 2.476 1.36.874.358 1.77.658 2.695.86 1.037.223 2.086.396 3.146.467 1.145.073 2.293.097 3.439.01 1.178-.093 2.353-.228 3.51-.473 1.08-.234 2.156-.503 3.19-.898.965-.376 1.91-.806 2.792-1.352.907-.556 1.792-1.15 2.618-1.823.793-.649 1.57-1.32 2.272-2.069.618-.673 1.21-1.373 1.708-2.142.44-.693.847-1.409 1.154-2.173.325-.802.615-1.617.841-2.453.216-.807.412-1.62.523-2.449.105-.791.184-1.586.178-2.386a25.5 25.5 0 0 0-.43-4.788 15 15 0 0 0-.511-1.975 14 14 0 0 0-.758-1.793c-.269-.516-.553-1.026-.9-1.494a9 9 0 0 0-1.028-1.174 6.3 6.3 0 0 0-1.104-.814c-.346-.19-.702-.364-1.085-.466a5 5 0 0 0-1.11-.184 4 4 0 0 0-1.022.088q-.646.169-1.243.473c-.479.247-.947.514-1.39.82a8 8 0 0 0-1.143.926 10 10 0 0 0-.987 1.127c-.288.393-.56.797-.792 1.226a6.4 6.4 0 0 0-.436.934c-.048.15-.096.3-.109.458a1 1 0 0 0 .056.398c.11.294.256.571.422.837.154.242.315.482.512.692.16.167.33.326.528.449.24.149.494.274.764.363q.572.195 1.157.346.315.08.63.146c.043.014.032.011 0 .028.008-.001.082-.01-.047.038a2.3 2.3 0 0 0-.556.408c-.53.575-.85 1.27-.887 2.06.228-4.858 7.1-4.535 6.871.324z" transform="translate(0 -197)"/></svg>