<?xml version="1.0" encoding="UTF-8" standalone="no"?>
<!-- Created with Inkscape (http://www.inkscape.org/) -->

<svg
   xmlns:dc="http://purl.org/dc/elements/1.1/"
   xmlns:cc="http://creativecommons.org/ns#"
   xmlns:rdf="http://www.w3.org/1999/02/22-rdf-syntax-ns#"
   xmlns:svg="http://www.w3.org/2000/svg"
   xmlns="http://www.w3.org/2000/svg"
   xmlns:sodipodi="http://sodipodi.sourceforge.net/DTD/sodipodi-0.dtd"
   xmlns:inkscape="http://www.inkscape.org/namespaces/inkscape"
   width="10cm"
   height="10cm"
   viewBox="0 0 100 99.999997"
   version="1.1"
   id="svg8"
   sodipodi:docname="nasa.svg"
   inkscape:version="0.92.3 (2405546, 2018-03-11)">
  <defs
     id="defs2" />
  <sodipodi:namedview
     id="base"
     pagecolor="#ffffff"
     bordercolor="#666666"
     borderopacity="1.0"
     inkscape:pageopacity="0.0"
     inkscape:pageshadow="2"
     inkscape:zoom="1"
     inkscape:cx="175.50186"
     inkscape:cy="186.50542"
     inkscape:document-units="cm"
     inkscape:current-layer="layer1"
     showgrid="true"
     units="cm"
     inkscape:window-width="881"
     inkscape:window-height="706"
     inkscape:window-x="971"
     inkscape:window-y="214"
     inkscape:window-maximized="0"
     inkscape:snap-nodes="false">
    <inkscape:grid
       type="xygrid"
       id="grid815"
       units="cm"
       spacingx="9.9999998"
       spacingy="9.9999998" />
  </sodipodi:namedview>
  <metadata
     id="metadata5">
    <rdf:RDF>
      <cc:Work
         rdf:about="">
        <dc:format>image/svg+xml</dc:format>
        <dc:type
           rdf:resource="http://purl.org/dc/dcmitype/StillImage" />
        <dc:title></dc:title>
      </cc:Work>
    </rdf:RDF>
  </metadata>
  <g
     inkscape:label="Layer 1"
     inkscape:groupmode="layer"
     id="layer1"
     transform="translate(0,-197.00002)">
    <path
       style="opacity:1;fill:#020900;fill-opacity:1;stroke:none;stroke-width:1;stroke-linecap:butt;stroke-linejoin:round;stroke-miterlimit:4;stroke-dasharray:none;stroke-opacity:1"
       id="path1323"
       d="m 55.433179,255.03285 c -0.05515,1.00164 -0.509484,1.8392 -1.188924,2.549 -0.389686,0.38458 -0.857538,0.66325 -1.346443,0.90078 -0.458105,0.21122 -0.944425,0.34484 -1.435225,0.45368 -0.630134,0.13508 -1.273045,0.14007 -1.91295,0.1 -0.606994,-0.0496 -1.201518,-0.18551 -1.791219,-0.33159 -0.568177,-0.14318 -1.12844,-0.31502 -1.684017,-0.5006 -0.721029,-0.2361 -1.39986,-0.57219 -2.055135,-0.95074 -0.70086,-0.41046 -1.317604,-0.93682 -1.895465,-1.5031 -0.551537,-0.55081 -1.011176,-1.18004 -1.436386,-1.83055 -0.414051,-0.6367 -0.747424,-1.31807 -1.034309,-2.01981 -0.337187,-0.83197 -0.482531,-1.71213 -0.539832,-2.60265 -0.04472,-0.90895 0.118653,-1.80015 0.356016,-2.67256 0.232407,-0.80651 0.594831,-1.56386 0.985795,-2.30334 0.380158,-0.71367 0.828334,-1.38656 1.301715,-2.04092 0.498277,-0.68599 1.066351,-1.31524 1.66007,-1.91885 0.629108,-0.63928 1.33613,-1.19069 2.065862,-1.70885 0.695735,-0.48779 1.433332,-0.90993 2.185601,-1.30311 0.816237,-0.4275 1.68062,-0.74205 2.564471,-0.9952 0.941631,-0.26032 1.913872,-0.33664 2.886403,-0.34116 0.931876,0.004 1.848768,0.16732 2.751167,0.38602 0.941821,0.23318 1.825958,0.62893 2.680234,1.08083 0.864135,0.46529 1.644034,1.05918 2.3836,1.69979 0.73357,0.65026 1.367178,1.39855 1.963293,2.17365 0.588899,0.77543 1.075253,1.61908 1.527966,2.47893 0.45045,0.86187 0.817028,1.76224 1.144981,2.67659 0.33373,0.94775 0.569431,1.92462 0.771629,2.90752 0.196852,0.99495 0.324106,2.00138 0.42623,3.00985 0.102923,1.04007 0.137348,2.08476 0.1422,3.12935 0.0082,1.10535 -0.09445,2.20577 -0.235717,3.30067 -0.147973,1.12573 -0.406024,2.23161 -0.696399,3.32783 -0.296233,1.10782 -0.680966,2.18804 -1.106853,3.25177 -0.45911,1.14967 -1.062831,2.22944 -1.71922,3.27595 -0.710099,1.11671 -1.5572,2.13355 -2.44584,3.11052 -0.921499,0.99704 -1.944357,1.89069 -2.992141,2.75106 -1.062876,0.87023 -2.201762,1.63794 -3.369077,2.35927 -1.226378,0.76179 -2.537854,1.36326 -3.877059,1.89487 -1.376529,0.5341 -2.806742,0.90233 -4.246403,1.21838 -1.459778,0.3135 -2.942421,0.48894 -4.428964,0.6094 -1.469668,0.1156 -2.943312,0.0879 -4.413065,-10e-4 -1.399188,-0.0888 -2.782504,-0.31579 -4.152585,-0.60512 -1.318712,-0.28128 -2.596099,-0.71051 -3.845263,-1.21241 -1.257147,-0.51694 -2.432101,-1.20161 -3.578316,-1.92633 -1.196094,-0.7556 -2.298835,-1.64022 -3.34986,-2.58395 -1.139578,-1.02481 -2.102196,-2.21421 -2.988522,-3.45864 -0.889786,-1.2845 -1.616751,-2.66894 -2.305112,-4.06853 -0.65973,-1.36165 -1.227928,-2.76441 -1.76897,-4.17654 -0.552076,-1.42111 -0.973219,-2.88578 -1.331311,-4.36609 -0.353943,-1.48782 -0.546349,-3.00495 -0.674072,-4.52675 -0.115049,-1.43316 -0.09243,-2.87041 -0.002,-4.3037 0.09858,-1.40695 0.35123,-2.79503 0.638896,-4.17359 0.283027,-1.31782 0.633103,-2.61954 1.014919,-3.91176 0.371753,-1.2505 0.82214,-2.47486 1.307148,-3.68523 0.470634,-1.16898 1.025844,-2.30033 1.618569,-3.41144 0.599719,-1.1216 1.305477,-2.17956 2.045642,-3.21199 0.772737,-1.06877 1.63327,-2.06863 2.519741,-3.04355 0.906408,-0.99457 1.892703,-1.90979 2.9102,-2.78857 1.00935,-0.86352 2.083152,-1.64579 3.178217,-2.39586 1.059686,-0.72054 2.168843,-1.36293 3.288599,-1.98431 1.093997,-0.60965 2.225001,-1.14714 3.369413,-1.65421 1.135743,-0.50452 2.303847,-0.92813 3.485074,-1.31185 1.163238,-0.37045 2.351288,-0.65288 3.54467,-0.90614 1.191533,-0.25064 2.397898,-0.41555 3.608295,-0.54058 1.230442,-0.12163 2.467033,-0.14372 3.702455,-0.13688 1.190582,0.0114 2.378419,0.0949 3.563146,0.2078 1.08994,0.10682 2.172692,0.27133 3.250882,0.46116 0.904132,0.16362 1.802689,0.35579 2.700349,0.55129 0.70395,0.15358 1.407466,0.3091 2.110435,0.4671 0.559639,0.12607 1.119169,0.25262 1.67871,0.37913 0.445058,0.10062 0.890114,0.20125 1.33517,0.30189 0.354695,0.0802 0.70939,0.1604 1.064088,0.2406 0.282699,0.0639 0.565401,0.12785 0.8481,0.19177 0.235535,0.0535 0.471374,0.10573 0.706538,0.16087 0.256797,0.0651 0.115348,0.027 0.42354,0.11712 4.64997,1.42802 2.630442,8.00407 -2.019528,6.57605 v 0 c 0.05944,0.0138 0.0654,0.016 0.01889,0.003 -0.215059,-0.0511 -0.431226,-0.0974 -0.64661,-0.14704 -0.2827,-0.0639 -0.565402,-0.12785 -0.848101,-0.19177 -0.354695,-0.0802 -0.70939,-0.1604 -1.064085,-0.2406 -0.444987,-0.10062 -0.889974,-0.20124 -1.334961,-0.30185 -0.556755,-0.12587 -1.113499,-0.25179 -1.670349,-0.37724 -0.688123,-0.15467 -1.376786,-0.30689 -2.065866,-0.45724 -0.808861,-0.1762 -1.618359,-0.35016 -2.432884,-0.49855 -0.899234,-0.15945 -1.80232,-0.29746 -2.711423,-0.38776 -0.980387,-0.0949 -1.963381,-0.16508 -2.94871,-0.17647 -0.9877,-0.007 -1.976475,0.007 -2.960494,0.10137 -0.967587,0.0975 -1.931713,0.22895 -2.884329,0.42738 -0.95899,0.20192 -1.91402,0.4262 -2.849443,0.72066 -0.956451,0.30818 -1.901508,0.65084 -2.820771,1.05819 -0.95686,0.42238 -1.902465,0.87028 -2.816759,1.37948 -0.932755,0.51652 -1.857971,1.04846 -2.741454,1.64662 -0.885214,0.60385 -1.753468,1.23351 -2.570216,1.92839 -0.80968,0.69568 -1.593926,1.42108 -2.314993,2.20951 -0.709564,0.77742 -1.399582,1.5739 -2.01927,2.42586 -0.56591,0.78502 -1.107322,1.58846 -1.565965,2.44203 -0.476994,0.88871 -0.922005,1.79469 -1.300758,2.73018 -0.406424,1.00962 -0.783078,2.03127 -1.094702,3.07463 -0.33022,1.11298 -0.632116,2.23441 -0.878066,3.36934 -0.223064,1.0601 -0.425555,2.12657 -0.507202,3.2085 -0.0737,1.09652 -0.09129,2.19623 -0.0069,3.29313 0.09432,1.17087 0.238294,2.33832 0.50666,3.48366 0.284609,1.19253 0.6234,2.37157 1.067544,3.51568 0.465643,1.21819 0.953284,2.42892 1.519704,3.60442 0.524979,1.07231 1.072834,2.13678 1.745173,3.12598 0.586447,0.83691 1.223257,1.63777 1.983129,2.32631 0.75796,0.68997 1.559184,1.33023 2.425176,1.88115 0.794591,0.5065 1.605769,0.99208 2.476045,1.35923 0.873969,0.35858 1.770679,0.65831 2.694908,0.85986 1.037474,0.22344 2.085573,0.39686 3.145719,0.46746 1.14527,0.073 2.29363,0.0973 3.439276,0.01 1.177988,-0.0924 2.352942,-0.22822 3.51023,-0.4731 1.08055,-0.23397 2.155367,-0.50268 3.190247,-0.89726 0.964994,-0.37657 1.909131,-0.80599 2.791841,-1.35207 0.907167,-0.55651 1.791486,-1.15034 2.617333,-1.82345 0.793726,-0.64845 1.571196,-1.31941 2.272361,-2.06894 0.618505,-0.67334 1.210664,-1.37272 1.707578,-2.14244 0.44128,-0.69295 0.847071,-1.4085 1.154816,-2.1722 0.324689,-0.8019 0.614932,-1.61754 0.841119,-2.45323 0.215902,-0.80677 0.411215,-1.62009 0.522901,-2.44884 0.104749,-0.7913 0.183425,-1.58653 0.177972,-2.38587 -0.0019,-0.82363 -0.02847,-1.64736 -0.107879,-2.46757 -0.07708,-0.77745 -0.173474,-1.55335 -0.321627,-2.32088 -0.13466,-0.66713 -0.289587,-1.33083 -0.5118,-1.97508 -0.215873,-0.61267 -0.459626,-1.21513 -0.758369,-1.79275 -0.268388,-0.51641 -0.552271,-1.02609 -0.900221,-1.49416 -0.313804,-0.41529 -0.644308,-0.81955 -1.027536,-1.17361 -0.341765,-0.30562 -0.702675,-0.58946 -1.104059,-0.81397 -0.345556,-0.19104 -0.701627,-0.36422 -1.084916,-0.46647 -0.363521,-0.0948 -0.732935,-0.17174 -1.109771,-0.18389 -0.34286,-0.007 -0.687229,0.007 -1.022191,0.0877 -0.430546,0.1123 -0.845971,0.27154 -1.242732,0.47375 -0.478761,0.24641 -0.947232,0.51324 -1.390854,0.81922 -0.402397,0.28104 -0.795173,0.57714 -1.141918,0.92634 -0.353449,0.3538 -0.690911,0.72374 -0.987414,1.12734 -0.288015,0.39242 -0.560028,0.79662 -0.791707,1.22537 -0.162857,0.3029 -0.324414,0.60832 -0.436682,0.93441 -0.04724,0.14987 -0.09532,0.30065 -0.108307,0.4582 -0.0081,0.13603 0.0079,0.26889 0.0558,0.39768 0.109492,0.29362 0.25563,0.57109 0.421555,0.83679 0.154064,0.24252 0.314828,0.4819 0.51239,0.69184 0.160583,0.16719 0.330398,0.32589 0.527899,0.44935 0.240943,0.1486 0.494445,0.27377 0.76395,0.36265 0.381508,0.12932 0.767167,0.24639 1.157364,0.34676 0.209214,0.0527 0.419119,0.10228 0.630439,0.14575 0.04262,0.0138 0.03085,0.0108 -7.94e-4,0.0278 0.008,-0.001 0.08226,-0.01 -0.04682,0.0379 -0.204359,0.1088 -0.393851,0.24238 -0.556326,0.40846 -0.530693,0.57448 -0.850363,1.26971 -0.887209,2.06059 0.228111,-4.85896 7.09971,-4.53636 6.8716,0.32259 z"
       inkscape:connector-curvature="0" />
  </g>
</svg>
