<svg viewBox="0 0 100 100"><path style="opacity:1;fill:#020900;fill-opacity:1;stroke:none;stroke-width:1;stroke-linecap:butt;stroke-linejoin:round;stroke-miterlimit:4;stroke-dasharray:none;stroke-opacity:1" d="M46.765 282.962c.02-.03.002-.003-.017.023l-.072.115a4 4 0 0 0 .173-.603c.055-.28.118-.558.181-.837q.097-.43.18-.862c.063-.337.11-.676.152-1.017.055-.436.093-.874.124-1.313a45 45 0 0 0 .084-3.527q-.012-1.11-.036-2.222-.025-1.205-.076-2.41c-.04-.892-.092-1.783-.139-2.675q-.079-1.527-.144-3.054a164 164 0 0 0-.168-3.221q-.1-1.659-.208-3.317a301 301 0 0 1-.208-3.433 515 515 0 0 1-.181-3.514 235 235 0 0 0-.189-3.553q-.112-1.77-.256-3.539c-.094-1.117-.2-2.233-.305-3.349q-.15-1.612-.303-3.223a676 676 0 0 1-.285-3.017q-.13-1.433-.239-2.865a116 116 0 0 1-.179-2.885 449 449 0 0 1-.132-2.763l-.105-2.374q-.045-1.05-.095-2.1-.046-.99-.098-1.98-.046-.89-.086-1.779a254 254 0 0 1-.125-3.223l-.044-1.378-.035-1.164-.027-.938-.014-.443c-.186-4.861 6.688-5.124 6.874-.263l.016.503.028.937.077 2.514a311 311 0 0 0 .122 3.141q.039.87.084 1.741.051 1.003.1 2.007.05 1.065.096 2.13.05 1.177.104 2.355.06 1.358.13 2.713c.048.908.098 1.816.168 2.722q.106 1.383.231 2.765.137 1.497.282 2.992.154 1.616.304 3.233c.108 1.143.216 2.286.313 3.43q.15 1.837.265 3.676.11 1.822.194 3.645.084 1.733.179 3.465.092 1.683.204 3.365.108 1.674.21 3.348c.067 1.113.128 2.225.173 3.338q.065 1.5.142 2.998c.048.913.101 1.826.142 2.74q.054 1.273.08 2.547.026 1.154.038 2.307c.008.726.01 1.453-.012 2.179a45 45 0 0 1-.09 1.905c-.04.563-.089 1.125-.16 1.685a23 23 0 0 1-.45 2.548q-.091.398-.172.798a10.5 10.5 0 0 1-.532 1.744 6 6 0 0 1-.858 1.481c-3.004 3.826-8.414-.423-5.41-4.249" transform="translate(0 -197)"/><path style="opacity:1;fill:#020900;fill-opacity:1;stroke:none;stroke-width:1;stroke-linecap:butt;stroke-linejoin:round;stroke-miterlimit:4;stroke-dasharray:none;stroke-opacity:1" d="M31.49 243.912c.127-.133.269-.25.403-.375.043-.042.078-.09.115-.138.199-.266.386-.542.576-.814q.535-.771 1.089-1.527c.464-.635.954-1.25 1.455-1.857.515-.617 1.049-1.218 1.582-1.82a55 55 0 0 0 1.49-1.72c.477-.572.92-1.172 1.349-1.782.425-.608.807-1.245 1.181-1.885.362-.622.7-1.258 1.034-1.896q.441-.852.878-1.707l.71-1.388.57-1.109.451-.877q.19-.371.387-.739a6.3 6.3 0 0 1 .667-1.023c.747-.855 1.8-1.386 2.955-1.35.293.008.58.086.87.13.944.268 1.645.867 2.235 1.62.24.324.468.658.697.99q.435.638.86 1.282.563.857 1.124 1.716.73 1.116 1.431 2.251.838 1.366 1.664 2.74a338 338 0 0 1 1.74 2.893c.532.901 1.054 1.809 1.58 2.714q.648 1.123 1.298 2.242.519.893 1.045 1.782.428.717.86 1.432l.707 1.167.576.954.46.763q.212.344.413.695l.097.179c2.287 4.293-3.784 7.528-6.071 3.235l-.01-.02c-.1-.184-.216-.358-.32-.538l-.46-.763-.576-.953-.71-1.173q-.443-.734-.883-1.47-.541-.914-1.075-1.832-.654-1.125-1.304-2.25c-.513-.886-1.023-1.773-1.544-2.654a332 332 0 0 0-1.711-2.847c-.54-.892-1.077-1.785-1.623-2.672a92 92 0 0 0-1.341-2.11q-.55-.841-1.102-1.681-.395-.6-.8-1.194a53 53 0 0 0-.48-.69c.405.4.884.69 1.446.837.255.034.507.098.764.102a3.2 3.2 0 0 0 2.49-1.144c.063-.084.293-.439.093-.108q-.169.315-.332.635l-.451.877-.563 1.094-.71 1.39q-.451.881-.906 1.761a54 54 0 0 1-1.192 2.181 34 34 0 0 1-1.494 2.37 34 34 0 0 1-1.682 2.218 62 62 0 0 1-1.634 1.89c-.481.542-.964 1.084-1.43 1.64-.415.501-.82 1.01-1.205 1.536q-.51.695-1 1.403c-.288.412-.57.83-.884 1.223a8 8 0 0 1-.806.868c-.005.004-.263.241-.137.118-3.41 3.47-8.316-1.353-4.906-4.822" transform="translate(0 -197)"/></svg>