<?xml version="1.0" encoding="UTF-8" standalone="no"?>
<!-- Created with Inkscape (http://www.inkscape.org/) -->

<svg
   xmlns:dc="http://purl.org/dc/elements/1.1/"
   xmlns:cc="http://creativecommons.org/ns#"
   xmlns:rdf="http://www.w3.org/1999/02/22-rdf-syntax-ns#"
   xmlns:svg="http://www.w3.org/2000/svg"
   xmlns="http://www.w3.org/2000/svg"
   xmlns:sodipodi="http://sodipodi.sourceforge.net/DTD/sodipodi-0.dtd"
   xmlns:inkscape="http://www.inkscape.org/namespaces/inkscape"
   width="10cm"
   height="10cm"
   viewBox="0 0 100 99.999997"
   version="1.1"
   id="svg8"
   sodipodi:docname="nasin.svg"
   inkscape:version="0.92.3 (2405546, 2018-03-11)">
  <defs
     id="defs2" />
  <sodipodi:namedview
     id="base"
     pagecolor="#ffffff"
     bordercolor="#666666"
     borderopacity="1.0"
     inkscape:pageopacity="0.0"
     inkscape:pageshadow="2"
     inkscape:zoom="1"
     inkscape:cx="175.50186"
     inkscape:cy="186.50542"
     inkscape:document-units="cm"
     inkscape:current-layer="layer1"
     showgrid="true"
     units="cm"
     inkscape:window-width="881"
     inkscape:window-height="706"
     inkscape:window-x="971"
     inkscape:window-y="214"
     inkscape:window-maximized="0"
     inkscape:snap-nodes="false">
    <inkscape:grid
       type="xygrid"
       id="grid815"
       units="cm"
       spacingx="9.9999998"
       spacingy="9.9999998" />
  </sodipodi:namedview>
  <metadata
     id="metadata5">
    <rdf:RDF>
      <cc:Work
         rdf:about="">
        <dc:format>image/svg+xml</dc:format>
        <dc:type
           rdf:resource="http://purl.org/dc/dcmitype/StillImage" />
        <dc:title></dc:title>
      </cc:Work>
    </rdf:RDF>
  </metadata>
  <g
     inkscape:label="Layer 1"
     inkscape:groupmode="layer"
     id="layer1"
     transform="translate(0,-197.00002)">
    <path
       style="opacity:1;fill:#020900;fill-opacity:1;stroke:none;stroke-width:1;stroke-linecap:butt;stroke-linejoin:round;stroke-miterlimit:4;stroke-dasharray:none;stroke-opacity:1"
       id="path1331"
       d="m 46.765479,282.96212 c 0.01982,-0.0293 0.0011,-0.003 -0.01781,0.0228 -0.02344,0.0386 -0.04727,0.077 -0.0712,0.11531 0.03082,-0.0816 0.05873,-0.16423 0.08403,-0.24772 0.03367,-0.11739 0.06256,-0.23607 0.08818,-0.35545 0.05522,-0.28004 0.118012,-0.55845 0.181406,-0.83673 0.06517,-0.28628 0.124434,-0.57386 0.179766,-0.86219 0.06362,-0.33686 0.10949,-0.67664 0.152006,-1.01669 0.05527,-0.43637 0.09309,-0.87447 0.123991,-1.31313 0.03845,-0.53891 0.05878,-1.07876 0.07443,-1.61873 0.01942,-0.636 0.01683,-1.27231 0.01024,-1.90849 -0.0081,-0.74061 -0.02005,-1.48116 -0.03681,-2.22162 -0.01617,-0.80375 -0.04149,-1.6072 -0.07571,-2.41036 -0.04039,-0.89197 -0.09235,-1.78335 -0.138774,-2.675 -0.05306,-1.0177 -0.09986,-2.0357 -0.144449,-3.05379 -0.04415,-1.07439 -0.102581,-2.14807 -0.167894,-3.22134 -0.06771,-1.10564 -0.135297,-2.21128 -0.207732,-3.31662 -0.07657,-1.14386 -0.144672,-2.28826 -0.208182,-3.43291 -0.06461,-1.17143 -0.124571,-2.34311 -0.181171,-3.51494 -0.05526,-1.18452 -0.115342,-2.36877 -0.188561,-3.55232 -0.0751,-1.18034 -0.159295,-2.36006 -0.255823,-3.53884 -0.09424,-1.11703 -0.200469,-2.23301 -0.305204,-3.3491 -0.09972,-1.07453 -0.201036,-2.14891 -0.303335,-3.2232 -0.09651,-1.00566 -0.192455,-2.01139 -0.284458,-3.01748 -0.08727,-0.95415 -0.165495,-1.90909 -0.238924,-2.8644 -0.07505,-0.96056 -0.128416,-1.92261 -0.179446,-2.88469 -0.04777,-0.92092 -0.09031,-1.84211 -0.1324,-2.76331 -0.03602,-0.79126 -0.07079,-1.58257 -0.104783,-2.37392 -0.02928,-0.70035 -0.06218,-1.40054 -0.09523,-2.10072 -0.03039,-0.66026 -0.06383,-1.32037 -0.09756,-1.98046 -0.03067,-0.5926 -0.05939,-1.1853 -0.08649,-1.77807 -0.02545,-0.56156 -0.04773,-1.12326 -0.06945,-1.68498 -0.01984,-0.51249 -0.0378,-1.02504 -0.05515,-1.53762 -0.01548,-0.45945 -0.0298,-0.91895 -0.04384,-1.37845 -0.0118,-0.38814 -0.02328,-0.77629 -0.03476,-1.16444 -0.0092,-0.31251 -0.01841,-0.62502 -0.02763,-0.93753 -0.0043,-0.14781 -0.0084,-0.29563 -0.01421,-0.4434 -0.185713,-4.86076 6.688437,-5.1234 6.87415,-0.26264 v 0 c 0.0063,0.16781 0.01154,0.33565 0.01625,0.50352 0.0092,0.31232 0.01839,0.62464 0.02761,0.93696 0.0114,0.38579 0.02281,0.77158 0.03455,1.15736 0.01381,0.45197 0.02788,0.90394 0.04311,1.35587 0.01699,0.50157 0.03453,1.00311 0.05395,1.50459 0.02109,0.54564 0.04271,1.09127 0.06742,1.63676 0.02651,0.58042 0.05466,1.16076 0.08469,1.74102 0.03418,0.66898 0.06806,1.33798 0.09887,2.00713 0.03351,0.7099 0.06686,1.41982 0.09655,2.12989 0.03372,0.7851 0.06822,1.57016 0.103952,2.35517 0.04132,0.90445 0.08307,1.80889 0.129921,2.71307 0.0481,0.90777 0.09807,1.81554 0.168876,2.72187 0.07083,0.92218 0.146352,1.84399 0.230566,2.76505 0.09119,0.99752 0.186396,1.99466 0.282059,2.99176 0.102592,1.07741 0.204208,2.15492 0.30422,3.23258 0.107286,1.14332 0.216062,2.28654 0.312383,3.43085 0.100087,1.22432 0.187833,2.44959 0.265637,3.67553 0.07496,1.21436 0.137083,2.42941 0.193651,3.64476 0.05579,1.15545 0.114927,2.31073 0.17862,3.46577 0.0622,1.12172 0.128974,2.24319 0.20402,3.36414 0.07312,1.11606 0.14142,2.23242 0.209765,3.34878 0.0676,1.11217 0.128172,2.22474 0.173998,3.33804 0.04374,0.9992 0.08967,1.9983 0.141732,2.9971 0.04754,0.91346 0.100875,1.82663 0.141867,2.74043 0.036,0.8488 0.06307,1.6979 0.08017,2.54731 0.0173,0.76881 0.02989,1.53772 0.03821,2.30668 0.0073,0.72637 0.0094,1.45289 -0.01281,2.17906 -0.01863,0.63559 -0.04343,1.27103 -0.08877,1.90537 -0.0402,0.56291 -0.08958,1.12511 -0.16057,1.68508 -0.06174,0.48813 -0.129681,0.97565 -0.222372,1.45902 -0.07034,0.36408 -0.144862,0.72735 -0.227407,1.08887 -0.06043,0.26524 -0.119216,0.53077 -0.172598,0.79754 -0.06954,0.31004 -0.145288,0.61883 -0.239504,0.92243 -0.08762,0.27712 -0.181549,0.55235 -0.29201,0.82133 -0.13164,0.31412 -0.275873,0.62356 -0.4587,0.91177 -0.124732,0.19564 -0.254884,0.38784 -0.399103,0.56981 -3.00455,3.82546 -8.414567,-0.42362 -5.41002,-4.24908 z"
       inkscape:connector-curvature="0" />
    <path
       style="opacity:1;fill:#020900;fill-opacity:1;stroke:none;stroke-width:1;stroke-linecap:butt;stroke-linejoin:round;stroke-miterlimit:4;stroke-dasharray:none;stroke-opacity:1"
       id="path1333"
       d="m 31.489544,243.91211 c 0.126976,-0.13324 0.269023,-0.25051 0.403791,-0.37544 0.04267,-0.0418 0.07814,-0.0903 0.114909,-0.13732 0.198617,-0.26679 0.38564,-0.54207 0.57614,-0.81468 0.356026,-0.51384 0.718982,-1.02275 1.088232,-1.52716 0.464481,-0.63483 0.954304,-1.25028 1.455293,-1.85651 0.514762,-0.61729 1.049099,-1.21783 1.58224,-1.81919 0.508195,-0.56345 1.004937,-1.13681 1.489426,-1.72073 0.477859,-0.57238 0.920608,-1.1722 1.349031,-1.78205 0.42589,-0.60799 0.807167,-1.24501 1.181598,-1.88541 0.362265,-0.62204 0.700648,-1.25747 1.034182,-1.89523 0.29455,-0.568 0.585708,-1.13774 0.877245,-1.70729 0.236754,-0.46261 0.47344,-0.92526 0.710131,-1.38791 0.1896,-0.3698 0.379814,-0.73928 0.569962,-1.1088 0.150464,-0.29238 0.30094,-0.58476 0.451414,-0.87714 0.12655,-0.2476 0.255595,-0.4939 0.386966,-0.73897 0.184478,-0.36578 0.415394,-0.70132 0.666954,-1.02347 0.746482,-0.85503 1.800826,-1.3861 2.955417,-1.35039 0.292764,0.009 0.579363,0.0867 0.869048,0.12997 0.944803,0.26907 1.645769,0.86711 2.235324,1.62112 0.240657,0.32394 0.46862,0.65707 0.69669,0.98993 0.290444,0.42467 0.576078,0.8526 0.86028,1.28146 0.376296,0.57085 0.749681,1.14361 1.123942,1.7158 0.488643,0.74321 0.963078,1.49551 1.431607,2.25152 0.560171,0.90974 1.111163,1.82508 1.663531,2.73957 0.583814,0.96196 1.165019,1.92549 1.73918,2.89324 0.532892,0.90118 1.055227,1.80854 1.580182,2.71436 0.432705,0.7473 0.864343,1.49521 1.298363,2.24175 0.346655,0.59489 0.694338,1.18918 1.045546,1.7814 0.285324,0.47812 0.57263,0.95506 0.859676,1.43214 0.23522,0.3895 0.47257,0.77771 0.707517,1.16737 0.192233,0.31765 0.383861,0.63566 0.575556,0.95363 0.153369,0.25441 0.306727,0.50883 0.460084,0.76325 0.139478,0.23043 0.279078,0.46073 0.412774,0.69458 0.03233,0.0598 0.06466,0.11966 0.09699,0.17948 2.287537,4.29286 -3.783483,7.52793 -6.07102,3.23507 v 0 c -0.0033,-0.007 -0.0066,-0.014 -0.0098,-0.021 -0.100404,-0.18259 -0.215908,-0.35659 -0.320484,-0.53677 -0.153279,-0.25428 -0.306557,-0.50857 -0.459849,-0.76285 -0.191683,-0.31795 -0.383299,-0.63593 -0.575516,-0.95356 -0.235977,-0.39144 -0.474544,-0.78132 -0.710695,-1.17265 -0.294613,-0.48966 -0.589502,-0.97916 -0.882253,-1.46994 -0.361267,-0.60929 -0.719066,-1.22062 -1.075642,-1.83266 -0.435581,-0.74925 -0.868831,-1.49986 -1.303084,-2.24988 -0.513241,-0.8856 -1.023884,-1.77274 -1.544733,-2.6539 -0.564782,-0.95215 -1.136837,-1.89994 -1.711123,-2.84637 -0.538891,-0.89218 -1.076418,-1.7852 -1.622719,-2.67287 -0.438814,-0.7083 -0.883185,-1.4131 -1.341046,-2.10929 -0.366784,-0.56075 -0.732719,-1.12206 -1.101408,-1.68157 -0.264615,-0.39936 -0.530526,-0.79788 -0.80092,-1.19337 -0.158482,-0.23138 -0.31774,-0.46221 -0.479906,-0.69103 0.40505,0.40071 0.88397,0.69097 1.446247,0.8378 0.254754,0.034 0.507283,0.098 0.764264,0.10195 0.965476,0.0147 1.870771,-0.41504 2.489653,-1.14371 0.06336,-0.0848 0.293412,-0.43921 0.09355,-0.10842 -0.113049,0.21058 -0.223663,0.42245 -0.332465,0.63526 -0.150416,0.29226 -0.300829,0.58452 -0.451234,0.87678 -0.187674,0.36472 -0.375414,0.72939 -0.562559,1.09438 -0.236919,0.46308 -0.473827,0.92617 -0.710806,1.38922 -0.300831,0.5877 -0.601258,1.17562 -0.905365,1.76163 -0.384159,0.73409 -0.77475,1.46503 -1.192328,2.18081 -0.472073,0.8061 -0.956004,1.6059 -1.493534,2.37059 -0.534733,0.75851 -1.087016,1.50473 -1.682149,2.21736 -0.532299,0.64051 -1.076312,1.27095 -1.634162,1.8894 -0.481092,0.54263 -0.963716,1.08412 -1.429099,1.64038 -0.415348,0.50151 -0.821124,1.0109 -1.205974,1.53634 -0.339428,0.46324 -0.672401,0.93111 -0.9995,1.40314 -0.28806,0.41216 -0.569974,0.82941 -0.884219,1.22238 -0.251378,0.30507 -0.512128,0.60304 -0.806127,0.86831 -0.0048,0.004 -0.262462,0.24101 -0.13702,0.11826 -3.409736,3.46918 -8.315889,-1.35292 -4.906156,-4.82209 z"
       inkscape:connector-curvature="0" />
  </g>
</svg>
