<svg viewBox="0 0 100 100"><path style="opacity:1;fill:#020900;fill-opacity:1;stroke:none;stroke-width:1;stroke-linecap:butt;stroke-linejoin:round;stroke-miterlimit:4;stroke-dasharray:none;stroke-opacity:1" d="m81.137 280.856.047.2.02.083c-.783-2.713-2.277-.659-6.67.11-.043.009-.064.44-.068.522l-.067-.607a21 21 0 0 0-.231-1.476 90 90 0 0 1-.409-2.318 72 72 0 0 1-.379-2.674 94 94 0 0 1-.302-2.875 133 133 0 0 1-.237-3.04c-.076-1.13-.134-2.26-.196-3.391q-.103-1.895-.21-3.79c-.074-1.29-.165-2.58-.255-3.869a612 612 0 0 0-.284-3.97 79 79 0 0 0-.37-3.78 58 58 0 0 0-.551-3.601 55 55 0 0 0-.773-3.466 37 37 0 0 0-.978-3.15 48 48 0 0 0-1.175-2.945 46 46 0 0 0-1.32-2.763 45 45 0 0 0-1.485-2.595 47 47 0 0 0-1.667-2.549 25 25 0 0 0-1.762-2.193c-.603-.676-1.26-1.3-1.944-1.892-.689-.589-1.434-1.104-2.197-1.591-.784-.497-1.612-.919-2.45-1.316-.788-.377-1.622-.634-2.468-.84-.97-.222-1.958-.331-2.947-.416-1.085-.09-2.174-.075-3.26-.013-1.16.074-2.309.26-3.449.482-1.163.226-2.292.583-3.405.983-1.157.424-2.277.938-3.38 1.484-1.103.544-2.153 1.183-3.178 1.857-1.01.665-1.955 1.417-2.865 2.21-.89.78-1.688 1.653-2.446 2.559-.756.908-1.41 1.892-2.023 2.9-.634 1.057-1.162 2.172-1.656 3.3-.521 1.21-.96 2.452-1.374 3.703-.42 1.288-.754 2.6-1.064 3.918-.317 1.37-.562 2.754-.79 4.14a93 93 0 0 0-.574 4.373 138 138 0 0 0-.402 4.442 114 114 0 0 0-.24 4.34 284 284 0 0 0-.127 4.183c-.03 1.297-.051 2.595-.073 3.893l-.055 3.408-.043 2.762-.035 2.293-.027 1.869q-.009.746-.012 1.493 0 .602.005 1.202.003.48.01.96l.013.782.01.626c-.007.104.023.598-.006.151.542 4.834-6.294 5.6-6.836.767a9 9 0 0 1-.037-.811l-.021-1.414a98 98 0 0 1-.012-1.012q-.005-.635-.005-1.269.002-.78.013-1.561l.027-1.885.034-2.299.044-2.763.055-3.415q.031-1.971.074-3.942.05-2.147.13-4.293c.062-1.534.135-3.067.255-4.597.121-1.561.253-3.121.425-4.677.177-1.577.37-3.152.622-4.719.254-1.542.528-3.082.882-4.605.358-1.514.745-3.022 1.23-4.501.482-1.456.996-2.903 1.607-4.311.62-1.407 1.284-2.795 2.08-4.112.797-1.302 1.648-2.572 2.629-3.745.993-1.178 2.039-2.314 3.203-3.328 1.145-.991 2.332-1.934 3.6-2.766 1.262-.826 2.553-1.608 3.908-2.274 1.341-.661 2.703-1.283 4.11-1.794 1.443-.513 2.908-.97 4.415-1.259 1.448-.278 2.907-.51 4.38-.597 1.41-.075 2.824-.093 4.232.029 1.347.119 2.693.279 4.01.593 1.289.325 2.557.725 3.757 1.302 1.102.525 2.19 1.085 3.22 1.742 1.038.67 2.053 1.379 2.99 2.187.909.793 1.784 1.623 2.584 2.526.795.901 1.562 1.828 2.251 2.815a54 54 0 0 1 1.907 2.918c.6.991 1.19 1.99 1.723 3.02.535 1.044 1.05 2.1 1.515 3.178a55 55 0 0 1 1.348 3.387 44 44 0 0 1 1.158 3.744 61 61 0 0 1 .872 3.923 65 65 0 0 1 .615 4.018c.163 1.358.302 2.72.4 4.084q.15 2.004.286 4.008c.091 1.317.185 2.633.26 3.95l.21 3.806c.061 1.1.118 2.2.19 3.299.066.96.138 1.919.225 2.877.082.885.17 1.77.278 2.652.101.809.21 1.617.342 2.42q.178 1.094.385 2.181c.118.644.228 1.29.3 1.94.051.445.105.89.112 1.338 0 .116.008.96-.086.98-4.604.969-5.903 2.929-6.714.167a13 13 0 0 1-.104-.432c-1.116-4.734 5.58-6.312 6.696-1.578" transform="translate(0 -197)"/></svg>