<?xml version="1.0" encoding="UTF-8" standalone="no"?>
<!-- Created with Inkscape (http://www.inkscape.org/) -->

<svg
   xmlns:dc="http://purl.org/dc/elements/1.1/"
   xmlns:cc="http://creativecommons.org/ns#"
   xmlns:rdf="http://www.w3.org/1999/02/22-rdf-syntax-ns#"
   xmlns:svg="http://www.w3.org/2000/svg"
   xmlns="http://www.w3.org/2000/svg"
   xmlns:sodipodi="http://sodipodi.sourceforge.net/DTD/sodipodi-0.dtd"
   xmlns:inkscape="http://www.inkscape.org/namespaces/inkscape"
   width="10cm"
   height="10cm"
   viewBox="0 0 100 99.999997"
   version="1.1"
   id="svg8"
   sodipodi:docname="nena.svg"
   inkscape:version="0.92.3 (2405546, 2018-03-11)">
  <defs
     id="defs2" />
  <sodipodi:namedview
     id="base"
     pagecolor="#ffffff"
     bordercolor="#666666"
     borderopacity="1.0"
     inkscape:pageopacity="0.0"
     inkscape:pageshadow="2"
     inkscape:zoom="1"
     inkscape:cx="175.50186"
     inkscape:cy="186.50542"
     inkscape:document-units="cm"
     inkscape:current-layer="layer1"
     showgrid="true"
     units="cm"
     inkscape:window-width="881"
     inkscape:window-height="706"
     inkscape:window-x="971"
     inkscape:window-y="214"
     inkscape:window-maximized="0"
     inkscape:snap-nodes="false">
    <inkscape:grid
       type="xygrid"
       id="grid815"
       units="cm"
       spacingx="9.9999998"
       spacingy="9.9999998" />
  </sodipodi:namedview>
  <metadata
     id="metadata5">
    <rdf:RDF>
      <cc:Work
         rdf:about="">
        <dc:format>image/svg+xml</dc:format>
        <dc:type
           rdf:resource="http://purl.org/dc/dcmitype/StillImage" />
        <dc:title></dc:title>
      </cc:Work>
    </rdf:RDF>
  </metadata>
  <g
     inkscape:label="Layer 1"
     inkscape:groupmode="layer"
     id="layer1"
     transform="translate(0,-197.00002)">
    <path
       style="opacity:1;fill:#020900;fill-opacity:1;stroke:none;stroke-width:1;stroke-linecap:butt;stroke-linejoin:round;stroke-miterlimit:4;stroke-dasharray:none;stroke-opacity:1"
       id="path1329"
       d="m 81.137076,280.8562 c 0.01566,0.0664 0.03132,0.13287 0.04697,0.19931 0.0069,0.0303 0.05015,0.21062 0.01929,0.0833 -0.782566,-2.71314 -2.276219,-0.65836 -6.669217,0.11103 -0.0429,0.008 -0.06393,0.43921 -0.06766,0.52068 -0.02045,-0.17832 -0.04532,-0.41265 -0.06756,-0.60669 -0.05527,-0.49508 -0.140822,-0.98576 -0.231383,-1.47536 -0.146878,-0.77085 -0.281784,-1.54382 -0.408453,-2.31822 -0.145489,-0.88867 -0.2666,-1.78101 -0.378701,-2.67443 -0.118229,-0.95628 -0.213154,-1.9152 -0.30198,-2.87459 -0.09283,-1.01244 -0.168203,-2.02635 -0.237709,-3.04062 -0.07548,-1.12963 -0.133387,-2.26032 -0.195575,-3.39073 -0.07079,-1.26325 -0.138488,-2.52667 -0.210849,-3.78982 -0.07282,-1.29044 -0.16464,-2.57967 -0.253862,-3.86904 -0.0903,-1.32387 -0.185129,-2.64742 -0.284033,-3.97067 -0.09017,-1.26291 -0.218797,-2.52234 -0.369409,-3.77932 -0.143415,-1.20647 -0.333965,-2.40628 -0.552349,-3.60122 -0.216866,-1.16394 -0.480677,-2.31822 -0.772343,-3.46547 -0.271481,-1.06643 -0.612571,-2.11286 -0.978657,-3.14998 -0.35474,-0.99619 -0.755232,-1.975 -1.174834,-2.94535 -0.40553,-0.93739 -0.853342,-1.85535 -1.320086,-2.76351 -0.458867,-0.88489 -0.967803,-1.74231 -1.484762,-2.5941 -0.526703,-0.86834 -1.08494,-1.71673 -1.666587,-2.54908 -0.538911,-0.76932 -1.139462,-1.49157 -1.762172,-2.1937 -0.602782,-0.67595 -1.259451,-1.29945 -1.94387,-1.89145 -0.688928,-0.58871 -1.434677,-1.10376 -2.197002,-1.59152 -0.784683,-0.49668 -1.612329,-0.91864 -2.45092,-1.31534 -0.787824,-0.37755 -1.621311,-0.63433 -2.467706,-0.84062 -0.96906,-0.22135 -1.957895,-0.33115 -2.946733,-0.41594 -1.085117,-0.0903 -2.173753,-0.0743 -3.2596,-0.013 -1.160577,0.0738 -2.308866,0.26079 -3.449024,0.48269 -1.163066,0.2255 -2.292279,0.58275 -3.405333,0.9827 -1.157055,0.42398 -2.277113,0.93824 -3.380769,1.48424 -1.101868,0.54407 -2.151848,1.18217 -3.177392,1.85705 -1.009335,0.66461 -1.954802,1.41674 -2.86513,2.20973 -0.889924,0.77953 -1.688,1.65273 -2.446049,2.55866 -0.755344,0.90859 -1.409804,1.89228 -2.02213,2.90085 -0.634663,1.05661 -1.161998,2.17095 -1.656181,3.29846 -0.521745,1.21023 -0.960695,2.45324 -1.373871,3.70392 -0.420212,1.28751 -0.754474,2.60021 -1.064364,3.91787 -0.317428,1.36941 -0.562039,2.75388 -0.789238,4.14061 -0.232737,1.45195 -0.411147,2.91169 -0.575051,4.37275 -0.162672,1.47797 -0.287117,2.95975 -0.402139,4.44208 -0.113248,1.44464 -0.181229,2.8922 -0.239175,4.33993 -0.05381,1.39371 -0.09429,2.78789 -0.127587,4.18223 -0.02958,1.29761 -0.05119,2.59539 -0.07296,3.89315 -0.01881,1.13601 -0.03667,2.27202 -0.05462,3.40804 -0.01452,0.92066 -0.02911,1.84131 -0.04349,2.76198 -0.01195,0.76437 -0.02331,1.52876 -0.03462,2.29314 -0.0088,0.6229 -0.01915,1.24577 -0.02691,1.86868 -0.0061,0.49792 -0.01103,0.99585 -0.0123,1.49381 -8.47e-4,0.40068 0.0025,0.80136 0.0053,1.20202 0.0014,0.31966 0.0059,0.63929 0.01064,0.95891 0.0039,0.26102 0.008,0.52205 0.01199,0.78307 0.0032,0.20863 0.0064,0.41727 0.0097,0.6259 -0.0067,0.10342 0.02311,0.59822 -0.0056,0.15114 0.542007,4.83401 -6.294322,5.60052 -6.836328,0.76651 v 0 c -0.02268,-0.27029 -0.03815,-0.54004 -0.03638,-0.81136 -0.0032,-0.20868 -0.0064,-0.41735 -0.0097,-0.62602 -0.0041,-0.26255 -0.0081,-0.52511 -0.01206,-0.78766 -0.005,-0.33726 -0.0097,-0.67452 -0.01122,-1.01182 -0.003,-0.42298 -0.0064,-0.84597 -0.0055,-1.26896 0.0014,-0.52048 0.0064,-1.04094 0.01281,-1.56139 0.0079,-0.62823 0.01819,-1.25643 0.02712,-1.88465 0.01134,-0.76627 0.02273,-1.53253 0.03471,-2.29879 0.01439,-0.92106 0.02898,-1.84213 0.04351,-2.76319 0.01798,-1.13823 0.03588,-2.27647 0.05473,-3.41468 0.02203,-1.31413 0.04395,-2.62826 0.07395,-3.94223 0.03426,-1.43139 0.07578,-2.86263 0.131143,-4.29338 0.06157,-1.53349 0.134237,-3.06677 0.254303,-4.59699 0.121295,-1.56079 0.252722,-3.12099 0.424462,-4.67718 0.177234,-1.57667 0.370677,-3.15185 0.622802,-4.71857 0.25328,-1.54237 0.527395,-3.08192 0.881876,-4.60477 0.357371,-1.51419 0.744274,-3.02222 1.229302,-4.50136 0.482578,-1.45616 0.996464,-2.90289 1.607182,-4.31108 0.61973,-1.40638 1.283769,-2.79475 2.08023,-4.1113 0.796715,-1.30242 1.647684,-2.57256 2.628911,-3.74511 0.993509,-1.17863 2.03882,-2.31457 3.203322,-3.32819 1.14525,-0.9914 2.332251,-1.93433 3.600147,-2.76598 1.261671,-0.8262 2.552922,-1.60777 3.907221,-2.27457 1.341612,-0.66086 2.703375,-1.28257 4.110247,-1.7934 1.443281,-0.51364 2.90804,-0.96953 4.414885,-1.25894 1.448247,-0.2784 2.907011,-0.51005 4.380936,-0.59756 1.409756,-0.0746 2.822948,-0.0923 4.231174,0.0289 1.347174,0.11911 2.693295,0.279 4.010901,0.59371 1.287814,0.32501 2.556499,0.7243 3.756403,1.30181 1.102207,0.52491 2.188959,1.08467 3.219077,1.74224 1.038932,0.66978 2.054024,1.37824 2.991075,2.1869 0.908373,0.7924 1.783403,1.6228 2.583664,2.52575 0.795539,0.90134 1.562545,1.82844 2.251149,2.81513 0.664327,0.95345 1.304521,1.92347 1.90659,2.91766 0.600906,0.99121 1.190763,1.98992 1.722949,3.02018 0.535548,1.04439 1.049948,2.09973 1.515467,3.17749 0.481494,1.11606 0.941329,2.2417 1.347949,3.38751 0.433406,1.23275 0.836779,2.47658 1.158171,3.74387 0.328861,1.29889 0.62792,2.60533 0.871977,3.92307 0.242596,1.33342 0.455607,2.67203 0.61523,4.01817 0.162168,1.35821 0.301408,2.719 0.398954,4.08353 0.09983,1.33587 0.195591,2.67202 0.286756,4.0085 0.0911,1.31655 0.184703,2.63296 0.259019,3.95059 0.07262,1.26832 0.140679,2.53689 0.211717,3.8053 0.06049,1.09969 0.116747,2.19966 0.189886,3.29861 0.06567,0.95966 0.136843,1.91897 0.224533,2.87691 0.08184,0.88539 0.169085,1.77036 0.277845,2.65291 0.101174,0.80851 0.210518,1.61605 0.342019,2.42026 0.118946,0.72852 0.246319,1.45557 0.384545,2.18071 0.118359,0.64387 0.228047,1.2895 0.300765,1.94038 0.05076,0.44423 0.104481,0.88918 0.111956,1.33676 -0.0011,0.11593 0.0077,0.96002 -0.08638,0.97983 -4.604491,0.96939 -5.902965,2.92913 -6.714492,0.1677 -0.01937,-0.0774 -0.03834,-0.15483 -0.05622,-0.23257 -0.01566,-0.0664 -0.03132,-0.13287 -0.04697,-0.19931 -1.115851,-4.73459 5.579869,-6.31264 6.69572,-1.57805 z"
       inkscape:connector-curvature="0" />
  </g>
</svg>
