<svg viewBox="0 0 100 100"><path style="opacity:1;fill:#020900;fill-opacity:1;stroke:none;stroke-width:1;stroke-linecap:butt;stroke-linejoin:round;stroke-miterlimit:4;stroke-dasharray:none;stroke-opacity:1" d="m44.667 276.466.01-.287.01-.622c.003-.271-.011-.542-.022-.812q-.025-.626-.056-1.252l-.063-1.535q-.037-.828-.07-1.656l-.07-1.677q-.029-.823-.071-1.645-.052-.908-.097-1.815c-.032-.701-.06-1.402-.094-2.102q-.059-1.16-.113-2.32-.053-1.181-.097-2.363-.04-1.19-.072-2.383-.03-1.17-.055-2.34-.022-1.117-.05-2.235-.035-1.185-.072-2.368-.039-1.306-.068-2.613-.034-1.356-.072-2.713-.037-1.349-.08-2.697a413 413 0 0 1-.072-2.743c-.023-.972-.04-1.943-.062-2.915a306 306 0 0 0-.093-3.01l-.095-2.744a376 376 0 0 1-.077-2.47 57 57 0 0 1-.008-2.5 119 119 0 0 1 .135-4.064l.086-1.633.072-1.48q.033-.705.063-1.412a63 63 0 0 1 .142-2.368q.031-.434.07-.867c.453-4.843 7.302-4.202 6.849.642-.024.247-.039.496-.06.744l-.07.993q-.036.582-.059 1.164-.03.716-.064 1.43-.035.756-.073 1.51l-.085 1.617q-.046.893-.075 1.786a112 112 0 0 0-.052 2.037 50 50 0 0 0 .005 2.212q.034 1.213.076 2.425.046 1.37.095 2.74.056 1.548.096 3.095c.021.968.038 1.937.061 2.905q.03 1.35.072 2.7.041 1.357.08 2.716.038 1.37.072 2.74.029 1.283.067 2.564.037 1.191.072 2.384c.021.759.035 1.518.051 2.277q.025 1.155.055 2.31.029 1.152.07 2.305a291 291 0 0 0 .206 4.614l.094 2.095q.046.9.096 1.797.045.86.075 1.721l.069 1.678q.034.825.07 1.649.03.75.062 1.498.031.651.058 1.302c.015.389.033.778.026 1.167l-.011.702a16 16 0 0 1-.018.503c-.27 4.857-7.138 4.475-6.869-.381" transform="translate(0 -197)"/><path style="opacity:1;fill:#020900;fill-opacity:1;stroke:none;stroke-width:1;stroke-linecap:butt;stroke-linejoin:round;stroke-miterlimit:4;stroke-dasharray:none;stroke-opacity:1" d="M46.3 276.97c-.036.03-.164.256-.078.097l.276-.54q.229-.445.465-.885.258-.493.509-.99.321-.622.63-1.25.357-.728.706-1.459a59 59 0 0 1 .802-1.624c.298-.582.626-1.147.961-1.707.325-.533.658-1.06.977-1.597.3-.509.582-1.029.865-1.548.154-.281.308-.563.45-.85 2.18-4.35 8.33-1.268 6.151 3.08a30 30 0 0 1-.56 1.061c-.325.597-.65 1.193-.996 1.777-.322.54-.655 1.074-.984 1.61a23 23 0 0 0-.744 1.315 52 52 0 0 0-.719 1.458q-.367.767-.742 1.53-.329.673-.673 1.338c-.19.37-.377.743-.572 1.111q-.211.39-.413.784c-.115.222-.225.447-.343.667-.14.255-.283.507-.457.74-2.912 3.897-8.423-.22-5.511-4.117" transform="translate(0 -197)"/><path style="opacity:1;fill:#020900;fill-opacity:1;stroke:none;stroke-width:1;stroke-linecap:butt;stroke-linejoin:round;stroke-miterlimit:4;stroke-dasharray:none;stroke-opacity:1" d="M43.14 278.518c-.12.368-.159.754-.123 1.139.007.042.018.107.016.143a6 6 0 0 0-.167-.305 3.4 3.4 0 0 0-.3-.432c-.215-.265-.439-.524-.658-.787-.32-.384-.62-.784-.927-1.178a29 29 0 0 0-.862-1.044 33 33 0 0 0-.902-1.017q-.48-.516-.962-1.026a42 42 0 0 0-.935-.953 33 33 0 0 0-1.845-1.663q-.43-.36-.861-.717l-.738-.604q-.302-.25-.606-.494l-.532-.44-.437-.372-.094-.083c-3.647-3.22.907-8.376 4.553-5.156l.024.022.375.318.47.389.62.505q.373.307.747.612.448.371.894.744a37 37 0 0 1 2.262 2.043q.555.548 1.093 1.114.52.55 1.037 1.106c.362.394.72.793 1.066 1.202.363.424.722.852 1.065 1.293.259.334.513.671.782.997.274.33.557.654.822.992.298.39.582.791.824 1.22.22.387.43.78.594 1.195.175.458.326.926.394 1.413.078.632.072 1.268-.125 1.881-1.455 4.642-8.02 2.585-6.565-2.057" transform="translate(0 -197)"/></svg>