<?xml version="1.0" encoding="UTF-8" standalone="no"?>
<!-- Created with Inkscape (http://www.inkscape.org/) -->

<svg
   xmlns:dc="http://purl.org/dc/elements/1.1/"
   xmlns:cc="http://creativecommons.org/ns#"
   xmlns:rdf="http://www.w3.org/1999/02/22-rdf-syntax-ns#"
   xmlns:svg="http://www.w3.org/2000/svg"
   xmlns="http://www.w3.org/2000/svg"
   xmlns:sodipodi="http://sodipodi.sourceforge.net/DTD/sodipodi-0.dtd"
   xmlns:inkscape="http://www.inkscape.org/namespaces/inkscape"
   width="10cm"
   height="10cm"
   viewBox="0 0 100 99.999997"
   version="1.1"
   id="svg8"
   sodipodi:docname="ni.svg"
   inkscape:version="0.92.3 (2405546, 2018-03-11)">
  <defs
     id="defs2" />
  <sodipodi:namedview
     id="base"
     pagecolor="#ffffff"
     bordercolor="#666666"
     borderopacity="1.0"
     inkscape:pageopacity="0.0"
     inkscape:pageshadow="2"
     inkscape:zoom="1"
     inkscape:cx="175.50186"
     inkscape:cy="186.50542"
     inkscape:document-units="cm"
     inkscape:current-layer="layer1"
     showgrid="true"
     units="cm"
     inkscape:window-width="881"
     inkscape:window-height="706"
     inkscape:window-x="971"
     inkscape:window-y="214"
     inkscape:window-maximized="0"
     inkscape:snap-nodes="false">
    <inkscape:grid
       type="xygrid"
       id="grid815"
       units="cm"
       spacingx="9.9999998"
       spacingy="9.9999998" />
  </sodipodi:namedview>
  <metadata
     id="metadata5">
    <rdf:RDF>
      <cc:Work
         rdf:about="">
        <dc:format>image/svg+xml</dc:format>
        <dc:type
           rdf:resource="http://purl.org/dc/dcmitype/StillImage" />
        <dc:title></dc:title>
      </cc:Work>
    </rdf:RDF>
  </metadata>
  <g
     inkscape:label="Layer 1"
     inkscape:groupmode="layer"
     id="layer1"
     transform="translate(0,-197.00002)">
    <path
       style="opacity:1;fill:#020900;fill-opacity:1;stroke:none;stroke-width:1;stroke-linecap:butt;stroke-linejoin:round;stroke-miterlimit:4;stroke-dasharray:none;stroke-opacity:1"
       id="path1335"
       d="m 44.667408,276.46556 c 0.0047,-0.0955 0.0069,-0.1912 0.0091,-0.28682 0.0047,-0.20737 0.0075,-0.41477 0.01005,-0.62216 0.0036,-0.27063 -0.01101,-0.54108 -0.02162,-0.8114 -0.01569,-0.4175 -0.0361,-0.83478 -0.05551,-1.25211 -0.02281,-0.51158 -0.04247,-1.02329 -0.06356,-1.53494 -0.02418,-0.55195 -0.04843,-1.10391 -0.07064,-1.65595 -0.02275,-0.5591 -0.04592,-1.11819 -0.06842,-1.67731 -0.01931,-0.54866 -0.04383,-1.09709 -0.07199,-1.64536 -0.03376,-0.60489 -0.06714,-1.20978 -0.09661,-1.8149 -0.03221,-0.70059 -0.06103,-1.40133 -0.09449,-2.10187 -0.03857,-0.77343 -0.07692,-1.54687 -0.112533,-2.32045 -0.03594,-0.78718 -0.06725,-1.57456 -0.09693,-2.362 -0.02869,-0.79425 -0.05081,-1.58872 -0.07184,-2.38321 -0.02027,-0.77972 -0.03826,-1.5595 -0.0555,-2.3393 -0.01588,-0.74516 -0.02919,-1.49036 -0.05025,-2.2354 -0.02302,-0.78955 -0.04762,-1.57905 -0.07161,-2.36857 -0.0265,-0.87071 -0.04806,-1.74156 -0.06829,-2.61243 -0.02154,-0.90441 -0.04727,-1.80871 -0.0719,-2.71303 -0.024,-0.89904 -0.0521,-1.79796 -0.0792,-2.69691 -0.02778,-0.91434 -0.05119,-1.82881 -0.0729,-2.74332 -0.02267,-0.97162 -0.04007,-1.94335 -0.06169,-2.91499 -0.02477,-1.00365 -0.05847,-2.00706 -0.09313,-3.01041 -0.0321,-0.91455 -0.06424,-1.8291 -0.09538,-2.74368 -0.02802,-0.82351 -0.05443,-1.64708 -0.07703,-2.47075 -0.02453,-0.83297 -0.0191,-1.66625 -0.0072,-2.49935 0.01072,-0.72186 0.03128,-1.4435 0.05513,-2.16503 0.02053,-0.63326 0.0485,-1.26621 0.07984,-1.899 0.02723,-0.54443 0.0574,-1.0887 0.08565,-1.63307 0.02553,-0.49336 0.04825,-0.98686 0.07176,-1.48032 0.02281,-0.47038 0.04211,-0.94092 0.06316,-1.41138 0.01884,-0.43313 0.03899,-0.86617 0.06673,-1.29884 0.02379,-0.35657 0.04847,-0.71308 0.0754,-1.06944 0.02249,-0.28887 0.0432,-0.57788 0.06971,-0.86642 0.453334,-4.84313 7.30256,-4.20202 6.849226,0.64112 v 0 c -0.02416,0.2476 -0.03849,0.49609 -0.05935,0.74397 -0.02506,0.3311 -0.04792,0.66236 -0.07009,0.99366 -0.02521,0.38759 -0.04203,0.7756 -0.05934,1.1636 -0.02138,0.47701 -0.0409,0.9541 -0.06406,1.43103 -0.02397,0.50319 -0.04715,1.00642 -0.07321,1.50951 -0.02797,0.53906 -0.05781,1.07801 -0.08483,1.61711 -0.02951,0.59511 -0.0559,1.19037 -0.07517,1.78591 -0.02246,0.67861 -0.04196,1.35732 -0.05208,2.03625 -0.01064,0.73738 -0.01654,1.47492 0.0053,2.2122 0.02215,0.80845 0.04816,1.6168 0.07563,2.42509 0.03111,0.91349 0.06321,1.82694 0.09527,2.7404 0.03562,1.03151 0.07024,2.06307 0.09553,3.09489 0.02154,0.96821 0.03893,1.93651 0.06145,2.9047 0.02135,0.89985 0.04438,1.79966 0.07171,2.69935 0.02729,0.90559 0.05559,1.81115 0.07977,2.71683 0.02487,0.91351 0.05085,1.82698 0.0726,2.74057 0.01984,0.85449 0.04098,1.70896 0.06697,2.56329 0.02413,0.79454 0.0489,1.58906 0.07205,2.38362 0.02132,0.75898 0.03532,1.51812 0.0513,2.27723 0.01701,0.7698 0.03477,1.5396 0.05477,2.30933 0.02035,0.76881 0.0417,1.5376 0.06937,2.30619 0.02894,0.76835 0.05949,1.53665 0.09453,2.30475 0.03542,0.76969 0.07366,1.53924 0.111985,2.30878 0.03331,0.69838 0.06228,1.39695 0.09418,2.09539 0.02914,0.59915 0.06247,1.19806 0.09572,1.79699 0.02937,0.57353 0.05524,1.14723 0.07546,1.72116 0.02249,0.55916 0.04566,1.11829 0.06842,1.67743 0.02209,0.54973 0.04633,1.09938 0.07036,1.64903 0.02058,0.49956 0.03981,0.99918 0.06197,1.49867 0.02016,0.43385 0.04129,0.86766 0.05764,1.30168 0.01527,0.3888 0.03295,0.77777 0.02638,1.16698 -0.0029,0.23411 -0.0061,0.46822 -0.01151,0.70229 -0.0041,0.16762 -0.0085,0.33526 -0.01773,0.50269 -0.269812,4.85682 -7.138387,4.47525 -6.868576,-0.38157 z"
       inkscape:connector-curvature="0" />
    <path
       style="opacity:1;fill:#020900;fill-opacity:1;stroke:none;stroke-width:1;stroke-linecap:butt;stroke-linejoin:round;stroke-miterlimit:4;stroke-dasharray:none;stroke-opacity:1"
       id="path1337"
       d="m 46.299596,276.97071 c -0.03511,0.0296 -0.163449,0.25522 -0.07752,0.0965 0.09235,-0.1802 0.183246,-0.36114 0.276043,-0.54112 0.151617,-0.2964 0.307824,-0.59038 0.465328,-0.88368 0.172077,-0.32843 0.33923,-0.65942 0.508074,-0.98952 0.215016,-0.4145 0.423357,-0.8324 0.630161,-1.25104 0.23791,-0.4851 0.473183,-0.9715 0.706773,-1.4587 0.258911,-0.5455 0.525804,-1.0871 0.801304,-1.6244 0.298233,-0.58137 0.626327,-1.14645 0.961623,-1.707 0.324757,-0.53266 0.657312,-1.06047 0.976273,-1.59665 0.300423,-0.509 0.582205,-1.02865 0.864901,-1.54761 0.154461,-0.28156 0.308364,-0.56329 0.451075,-0.85101 2.17873,-4.3491 8.329277,-1.2679 6.150547,3.08119 v 0 c -0.17997,0.35725 -0.366599,0.71087 -0.560674,1.06069 -0.324826,0.59625 -0.649515,1.19278 -0.995645,1.77703 -0.322032,0.54011 -0.654661,1.07365 -0.983874,1.60938 -0.25894,0.43228 -0.513821,0.86721 -0.744294,1.31554 -0.247611,0.48167 -0.485855,0.96803 -0.718323,1.45719 -0.24529,0.5115 -0.492252,1.0222 -0.742175,1.53144 -0.221012,0.44729 -0.443648,0.89379 -0.673251,1.33674 -0.189748,0.37093 -0.377274,0.74302 -0.571955,1.11138 -0.139776,0.26027 -0.278582,0.52103 -0.412919,0.78415 -0.114824,0.22215 -0.224965,0.4467 -0.342818,0.66727 -0.139311,0.25436 -0.283602,0.50683 -0.457647,0.7395 -2.911335,3.89687 -8.422341,-0.22038 -5.511006,-4.11725 z"
       inkscape:connector-curvature="0" />
    <path
       style="opacity:1;fill:#020900;fill-opacity:1;stroke:none;stroke-width:1;stroke-linecap:butt;stroke-linejoin:round;stroke-miterlimit:4;stroke-dasharray:none;stroke-opacity:1"
       id="path1339"
       d="m 43.139436,278.51777 c -0.120189,0.36836 -0.158324,0.75436 -0.121986,1.13892 0.0062,0.0419 0.01728,0.10693 0.01572,0.14307 -0.05243,-0.10323 -0.109513,-0.20408 -0.167439,-0.30434 -0.08572,-0.15352 -0.191121,-0.2941 -0.299376,-0.43211 -0.215733,-0.26537 -0.439115,-0.5244 -0.658034,-0.78714 -0.320027,-0.38424 -0.62098,-0.78372 -0.92777,-1.17846 -0.276836,-0.35625 -0.567883,-0.70108 -0.861131,-1.04383 -0.293058,-0.34599 -0.595601,-0.68365 -0.902491,-1.01736 -0.319326,-0.34304 -0.639525,-0.68527 -0.962176,-1.02518 -0.307078,-0.32243 -0.617932,-0.64123 -0.935053,-0.95378 -0.308653,-0.30275 -0.62642,-0.59603 -0.946711,-0.88638 -0.293294,-0.26564 -0.594265,-0.52254 -0.897769,-0.77639 -0.286885,-0.23925 -0.573333,-0.47901 -0.861303,-0.71696 -0.245761,-0.20166 -0.492392,-0.40225 -0.73782,-0.60432 -0.200927,-0.16602 -0.404463,-0.32885 -0.606189,-0.49389 -0.177718,-0.14651 -0.355793,-0.29259 -0.532315,-0.44055 -0.14596,-0.12326 -0.29182,-0.24664 -0.436777,-0.37108 -0.03138,-0.0276 -0.06276,-0.0551 -0.09415,-0.0827 -3.646183,-3.21976 0.90724,-8.37624 4.553421,-5.15648 v 0 c 0.0081,0.007 0.01611,0.0145 0.02418,0.0218 0.124285,0.10698 0.249782,0.21253 0.374891,0.31854 0.155527,0.13068 0.312991,0.25904 0.469535,0.38851 0.206142,0.16909 0.414808,0.3351 0.620066,0.50528 0.248545,0.20466 0.498441,0.40766 0.7472,0.61206 0.298947,0.24706 0.596397,0.4959 0.894207,0.74432 0.373702,0.3129 0.744095,0.62978 1.105222,0.95719 0.391462,0.35542 0.779855,0.71438 1.156825,1.08522 0.370006,0.36563 0.734047,0.73719 1.092409,1.11426 0.347829,0.36659 0.693261,0.73545 1.037296,1.10561 0.362434,0.39457 0.719905,0.79366 1.066448,1.20232 0.362673,0.42454 0.72213,0.85201 1.064451,1.29326 0.259085,0.33356 0.513045,0.67128 0.781891,0.99712 0.274638,0.33009 0.557226,0.65368 0.821997,0.99186 0.298302,0.39015 0.582753,0.79125 0.823865,1.21989 0.219713,0.38716 0.429993,0.7806 0.594122,1.19516 0.175233,0.45766 0.325808,0.92566 0.394213,1.41273 0.07808,0.63194 0.07169,1.26819 -0.125087,1.88101 -1.454613,4.64172 -8.018997,2.58459 -6.564386,-2.05713 z"
       inkscape:connector-curvature="0" />
  </g>
</svg>
