<svg viewBox="0 0 100 100"><path style="opacity:1;fill:#020900;fill-opacity:1;stroke:none;stroke-width:1;stroke-linecap:butt;stroke-linejoin:round;stroke-miterlimit:4;stroke-dasharray:none;stroke-opacity:1" d="M65.627 230.468q.084-.004.166-.014-.292.063-.586.112c-.293.048-.588.08-.883.109q-.505.045-1.012.072-.57.032-1.14.053-.587.022-1.176.04c-.365.013-.73.019-1.095.036a7 7 0 0 0-.799.095q-.611.102-1.223.207-.748.126-1.497.241-.864.129-1.73.248c-.658.09-1.318.162-1.978.23-.705.071-1.411.128-2.117.182-.755.056-1.51.1-2.266.142l-2.358.123a246 246 0 0 1-4.931.201c-.853.028-1.706.04-2.56.048q-1.277.011-2.554.006c-.83-.008-1.66-.023-2.49-.036a1065 1065 0 0 0-4.553-.06q-1.098-.011-2.194-.029l-2.146-.034a31 31 0 0 0-1.863.024q-.781.029-1.556.133a11 11 0 0 0-1.282.278q-.585.152-1.144.383c-.275.115-.529.27-.775.436a4 4 0 0 0-.622.524 3.6 3.6 0 0 0-.435.603c-.18.297-.324.61-.45.932-.126.318-.184.654-.23.99a11 11 0 0 0-.06 1.572c.013.63.079 1.26.163 1.884a22.4 22.4 0 0 0 .939 3.969c.195.577.435 1.138.689 1.693.222.486.489.95.772 1.403.255.405.547.783.854 1.148.27.322.577.608.896.88.32.275.67.514 1.03.733.403.24.83.438 1.259.625.49.211.995.383 1.503.543.549.171 1.106.31 1.667.43.6.124 1.209.207 1.817.28.68.081 1.364.128 2.047.165.735.038 1.47.048 2.207.053.778.004 1.556-.009 2.335-.023q1.217-.028 2.434-.064 1.255-.034 2.508-.095 1.303-.063 2.605-.15a211 211 0 0 0 5.307-.43q1.26-.123 2.516-.265a106 106 0 0 0 2.386-.294q1.136-.155 2.27-.32c.697-.104 1.393-.214 2.09-.321q.962-.15 1.925-.295a76 76 0 0 1 5.46-.631 43 43 0 0 1 1.825-.09 92 92 0 0 1 1.672-.032 49 49 0 0 1 1.581.005l1.398.02q.615.014 1.23.002.472-.006.94-.073a10.6 10.6 0 0 0 1.95-.489c.292-.103.575-.23.853-.367q.405-.199.788-.441a4.3 4.3 0 0 0 .556-.423 4 4 0 0 0 .447-.5 6.6 6.6 0 0 0 .894-1.624c.13-.33.216-.674.29-1.02.09-.421.14-.85.177-1.279.035-.471.037-.943.023-1.415a13 13 0 0 0-.13-1.44 29 29 0 0 0-.283-1.586 16 16 0 0 0-.8-2.727 13 13 0 0 0-.535-1.191 9 9 0 0 0-1.341-1.906c-.277-.3-.58-.572-.892-.833a7 7 0 0 0-.97-.66c-.402-.232-.82-.432-1.24-.628q-.616-.286-1.25-.53a12 12 0 0 0-1.093-.352 14 14 0 0 0-1.089-.232 21 21 0 0 0-1.192-.185c-.387-.05-.775-.083-1.164-.108a24 24 0 0 0-1.163-.039q-.56 0-1.12.015-.479.012-.954.055c-.281.024-.562.05-.841.09q-.399.061-.796.125l-.706.113-.562.09-.448.07-.357.058-.284.045c-.069.01-.207.037-.032.003l.03-.007c-4.731 1.131-6.33-5.56-1.6-6.69l.096-.023c.14-.028.28-.056.422-.076l.284-.046.357-.057.448-.071.562-.09.704-.112q.472-.077.946-.148.603-.08 1.208-.13c.452-.037.905-.067 1.358-.077.458-.01.916-.019 1.374-.016.505.007 1.01.022 1.514.053.535.035 1.07.08 1.601.15.526.068 1.051.147 1.573.245.564.105 1.127.216 1.68.37.579.162 1.153.342 1.715.557q.86.332 1.695.72c.626.292 1.247.596 1.843.947.657.393 1.297.814 1.883 1.309a16 16 0 0 1 1.57 1.49c.465.518.909 1.056 1.302 1.63.393.578.763 1.171 1.078 1.795.298.597.576 1.204.813 1.828a23.3 23.3 0 0 1 1.116 3.814c.136.674.263 1.35.358 2.03.097.723.171 1.45.189 2.179.018.736.013 1.474-.048 2.208-.067.726-.157 1.45-.314 2.163-.16.707-.349 1.409-.62 2.083a14 14 0 0 1-.844 1.772 14 14 0 0 1-1.06 1.583c-.407.506-.839.993-1.331 1.419-.444.379-.906.738-1.403 1.046a15.4 15.4 0 0 1-3.028 1.471c-.544.188-1.094.358-1.654.493a17 17 0 0 1-1.653.318c-.564.073-1.13.124-1.7.131q-.732.014-1.466-.002l-1.398-.02a42 42 0 0 0-1.398-.004q-.768.007-1.534.029c-.507.016-1.015.035-1.52.073a69 69 0 0 0-4.959.574q-.956.145-1.91.293-1.071.167-2.142.329-1.18.172-2.36.332c-.843.112-1.686.22-2.53.311q-1.312.148-2.625.278-1.367.13-2.738.239c-.923.073-1.846.145-2.77.207q-1.365.09-2.731.156-1.319.064-2.637.1-1.248.037-2.494.065c-.84.017-1.68.03-2.52.025a56 56 0 0 1-2.535-.063 39 39 0 0 1-2.497-.205 28 28 0 0 1-2.443-.386 26 26 0 0 1-2.288-.595 22 22 0 0 1-2.185-.8c-.723-.317-1.436-.657-2.11-1.07a15 15 0 0 1-1.916-1.381c-.601-.522-1.18-1.072-1.689-1.686a18 18 0 0 1-1.408-1.916 19 19 0 0 1-1.19-2.184 25 25 0 0 1-.961-2.386 29 29 0 0 1-.728-2.564 29 29 0 0 1-.499-2.657 24 24 0 0 1-.222-2.694c-.011-.898.008-1.797.134-2.688.135-.868.321-1.728.654-2.544.286-.7.607-1.386 1.01-2.028.416-.652.868-1.283 1.42-1.829a11.3 11.3 0 0 1 1.672-1.374c.63-.412 1.284-.789 1.984-1.07.65-.26 1.311-.49 1.99-.664.7-.181 1.405-.346 2.123-.44a24 24 0 0 1 2.173-.186 38 38 0 0 1 2.238-.029l2.152.034q1.08.018 2.162.028a760 760 0 0 1 4.583.061c.806.013 1.612.028 2.418.035q1.225.005 2.45-.006c.801-.008 1.604-.018 2.406-.044a278 278 0 0 0 4.801-.196l2.33-.121c.71-.04 1.421-.081 2.131-.134a75 75 0 0 0 1.931-.165c.583-.06 1.165-.123 1.745-.202q.812-.112 1.621-.232.69-.106 1.38-.222.653-.112 1.305-.22a14 14 0 0 1 1.561-.173c.398-.018.797-.028 1.196-.04q.559-.017 1.117-.038.508-.02 1.017-.047.375-.02.75-.053a9 9 0 0 0 .42-.048c.114-.017.227-.043.34-.066.28-.056.564-.102.85-.115 4.858-.25 5.211 6.62.353 6.87z" transform="translate(0 -197)"/></svg>