<?xml version="1.0" encoding="UTF-8" standalone="no"?>
<!-- Created with Inkscape (http://www.inkscape.org/) -->

<svg
   xmlns:dc="http://purl.org/dc/elements/1.1/"
   xmlns:cc="http://creativecommons.org/ns#"
   xmlns:rdf="http://www.w3.org/1999/02/22-rdf-syntax-ns#"
   xmlns:svg="http://www.w3.org/2000/svg"
   xmlns="http://www.w3.org/2000/svg"
   xmlns:sodipodi="http://sodipodi.sourceforge.net/DTD/sodipodi-0.dtd"
   xmlns:inkscape="http://www.inkscape.org/namespaces/inkscape"
   width="10cm"
   height="10cm"
   viewBox="0 0 100 99.999997"
   version="1.1"
   id="svg8"
   sodipodi:docname="nimi.svg"
   inkscape:version="0.92.3 (2405546, 2018-03-11)">
  <defs
     id="defs2" />
  <sodipodi:namedview
     id="base"
     pagecolor="#ffffff"
     bordercolor="#666666"
     borderopacity="1.0"
     inkscape:pageopacity="0.0"
     inkscape:pageshadow="2"
     inkscape:zoom="1"
     inkscape:cx="175.50186"
     inkscape:cy="186.50542"
     inkscape:document-units="cm"
     inkscape:current-layer="layer1"
     showgrid="true"
     units="cm"
     inkscape:window-width="881"
     inkscape:window-height="706"
     inkscape:window-x="971"
     inkscape:window-y="214"
     inkscape:window-maximized="0"
     inkscape:snap-nodes="false">
    <inkscape:grid
       type="xygrid"
       id="grid815"
       units="cm"
       spacingx="9.9999998"
       spacingy="9.9999998" />
  </sodipodi:namedview>
  <metadata
     id="metadata5">
    <rdf:RDF>
      <cc:Work
         rdf:about="">
        <dc:format>image/svg+xml</dc:format>
        <dc:type
           rdf:resource="http://purl.org/dc/dcmitype/StillImage" />
        <dc:title></dc:title>
      </cc:Work>
    </rdf:RDF>
  </metadata>
  <g
     inkscape:label="Layer 1"
     inkscape:groupmode="layer"
     id="layer1"
     transform="translate(0,-197.00002)">
    <path
       style="opacity:1;fill:#020900;fill-opacity:1;stroke:none;stroke-width:1;stroke-linecap:butt;stroke-linejoin:round;stroke-miterlimit:4;stroke-dasharray:none;stroke-opacity:1"
       id="path1343"
       d="m 65.627463,230.46795 c 0.05512,-0.002 0.111107,-0.008 0.165526,-0.0138 -0.194511,0.0423 -0.390069,0.0789 -0.58634,0.11198 -0.292716,0.0474 -0.587547,0.0797 -0.882584,0.10838 -0.336661,0.0315 -0.674137,0.053 -1.011661,0.0726 -0.379698,0.0215 -0.759671,0.0376 -1.139661,0.0528 -0.392059,0.0155 -0.784211,0.0284 -1.176379,0.0408 -0.365226,0.0124 -0.730655,0.0181 -1.095693,0.0355 -0.268433,0.0109 -0.533821,0.0522 -0.798618,0.0948 -0.407916,0.0678 -0.815528,0.13745 -1.223113,0.20721 -0.498555,0.0838 -0.997681,0.16416 -1.497367,0.24092 -0.576046,0.086 -1.152631,0.16836 -1.72965,0.24753 -0.657755,0.0897 -1.317628,0.16249 -1.977951,0.23029 -0.704837,0.0715 -1.411013,0.1285 -2.117434,0.18161 -0.754764,0.056 -1.51029,0.1007 -2.265947,0.14257 -0.785871,0.0411 -1.57171,0.0827 -2.357618,0.12311 -0.818581,0.042 -1.637461,0.0778 -2.456415,0.11163 -0.824807,0.034 -1.64982,0.0625 -2.474889,0.0893 -0.852879,0.0277 -1.706152,0.0389 -2.559399,0.0476 -0.851408,0.007 -1.702835,0.0107 -2.554266,0.006 -0.830337,-0.008 -1.660584,-0.0226 -2.490849,-0.0357 -0.776613,-0.0122 -1.553242,-0.0233 -2.329878,-0.0338 -0.740752,-0.0101 -1.481519,-0.0188 -2.222294,-0.0271 -0.731517,-0.007 -1.463003,-0.0164 -2.194459,-0.0281 -0.715062,-0.0121 -1.430135,-0.0234 -2.14522,-0.0341 -0.621301,-0.0128 -1.242631,-0.001 -1.863444,0.0238 -0.520511,0.0191 -1.039387,0.0644 -1.555551,0.13329 -0.433621,0.0611 -0.858888,0.16685 -1.282,0.27746 -0.390383,0.10092 -0.772054,0.23017 -1.144648,0.3837 -0.274682,0.11482 -0.528586,0.26995 -0.774581,0.43608 -0.225452,0.15263 -0.433072,0.32842 -0.622338,0.52372 -0.170974,0.18135 -0.305156,0.39197 -0.435101,0.60342 -0.178825,0.29616 -0.323789,0.61008 -0.449528,0.93184 -0.126184,0.31777 -0.183739,0.65344 -0.230368,0.99018 -0.06458,0.52126 -0.06868,1.04681 -0.05952,1.57111 0.01327,0.63135 0.07841,1.25953 0.162978,1.88479 0.09148,0.68096 0.229378,1.35397 0.384068,2.02298 0.152673,0.65736 0.341568,1.30518 0.554633,1.94526 0.195245,0.57785 0.435283,1.13874 0.688908,1.69293 0.222178,0.4869 0.488801,0.95073 0.772516,1.40382 0.254481,0.40427 0.546332,0.78266 0.85325,1.14804 0.269647,0.32175 0.577186,0.6073 0.895991,0.87913 0.320826,0.27585 0.669646,0.51417 1.030784,0.7333 0.402669,0.24098 0.828732,0.43801 1.258556,0.62468 0.489669,0.2119 0.995083,0.38308 1.503589,0.54313 0.54815,0.17137 1.105445,0.31034 1.666806,0.43052 0.600499,0.1242 1.208342,0.20703 1.816821,0.28023 0.680024,0.081 1.363382,0.12742 2.046978,0.16478 0.734919,0.0378 1.470802,0.0482 2.20655,0.0533 0.77841,0.004 1.556735,-0.009 2.334956,-0.0239 0.811588,-0.0178 1.62306,-0.0404 2.434514,-0.0634 0.836377,-0.0218 1.672351,-0.0556 2.508064,-0.095 0.868654,-0.0413 1.736791,-0.0927 2.604543,-0.1497 0.892138,-0.0596 1.783569,-0.12915 2.674863,-0.20011 0.878105,-0.0698 1.755627,-0.14642 2.632546,-0.22977 0.839499,-0.0817 1.678048,-0.1728 2.516349,-0.26591 0.796512,-0.087 1.591357,-0.18828 2.385639,-0.29351 0.757309,-0.10333 1.514203,-0.20973 2.270517,-0.32012 0.696754,-0.10445 1.392706,-0.21417 2.089052,-0.3213 0.641517,-0.0995 1.283269,-0.19745 1.925127,-0.29472 0.617061,-0.0942 1.235556,-0.17849 1.854552,-0.25885 0.602297,-0.078 1.205915,-0.14519 1.809892,-0.2087 0.597543,-0.0627 1.195854,-0.11743 1.79487,-0.16389 0.607661,-0.0461 1.216652,-0.0701 1.825633,-0.0901 0.557112,-0.0172 1.114454,-0.0248 1.671767,-0.0319 0.527283,-0.009 1.054582,-0.003 1.581828,0.005 0.465717,0.007 0.931436,0.0139 1.397161,0.0203 0.410263,0.008 0.820491,0.0114 1.230744,0.002 0.314611,-0.003 0.627607,-0.0302 0.939011,-0.0732 0.321509,-0.0443 0.638493,-0.11307 0.95372,-0.18915 0.336812,-0.0829 0.668599,-0.18423 0.995595,-0.29961 0.292971,-0.1027 0.575929,-0.23046 0.854417,-0.367 0.270891,-0.13189 0.533117,-0.28025 0.787556,-0.44139 0.198241,-0.12396 0.381878,-0.26835 0.556889,-0.42287 0.164968,-0.15163 0.309018,-0.32308 0.446464,-0.49943 0.181641,-0.23865 0.341786,-0.49234 0.490725,-0.75235 0.158742,-0.27891 0.286126,-0.57347 0.403773,-0.87152 0.128794,-0.33014 0.215164,-0.67408 0.290084,-1.01974 0.08975,-0.42186 0.139676,-0.85036 0.176746,-1.27959 0.03442,-0.47106 0.03644,-0.94347 0.02281,-1.41533 -0.01209,-0.48239 -0.06401,-0.96202 -0.129305,-1.43969 -0.07672,-0.53166 -0.177348,-1.05939 -0.283898,-1.58575 -0.09407,-0.48255 -0.217178,-0.95839 -0.35496,-1.43007 -0.129532,-0.43862 -0.282331,-0.86982 -0.44578,-1.29679 -0.15684,-0.40643 -0.337018,-0.80321 -0.533903,-1.19166 -0.178247,-0.34658 -0.385826,-0.67654 -0.607383,-0.99676 -0.222567,-0.32064 -0.471574,-0.62103 -0.734152,-0.90933 -0.276455,-0.2994 -0.579208,-0.57209 -0.891694,-0.83299 -0.301421,-0.25155 -0.633111,-0.4615 -0.970682,-0.66025 -0.401645,-0.23104 -0.819594,-0.43163 -1.239149,-0.62756 -0.410943,-0.19039 -0.827855,-0.36744 -1.250847,-0.52922 -0.358042,-0.13571 -0.723464,-0.25048 -1.092444,-0.35224 -0.358558,-0.0961 -0.723802,-0.16468 -1.088583,-0.2323 -0.395636,-0.0733 -0.793403,-0.13432 -1.192548,-0.18494 -0.386459,-0.0497 -0.774642,-0.0835 -1.163445,-0.10787 -0.387506,-0.0233 -0.775559,-0.0343 -1.163687,-0.0391 -0.373494,-0.001 -0.74693,0.006 -1.120296,0.0146 -0.318292,0.007 -0.635979,0.0286 -0.953159,0.0553 -0.281115,0.0236 -0.561988,0.0505 -0.841359,0.0899 -0.265679,0.0395 -0.53081,0.0827 -0.796044,0.12508 -0.235085,0.0376 -0.470181,0.0751 -0.705274,0.1126 -0.187354,0.0299 -0.374705,0.0598 -0.562059,0.0897 -0.149323,0.0238 -0.298646,0.0477 -0.447969,0.0715 -0.119015,0.019 -0.238027,0.038 -0.357042,0.057 -0.09486,0.0151 -0.189714,0.0303 -0.28457,0.0454 -0.0684,0.009 -0.206348,0.0365 -0.03216,0.003 0.01,-0.002 0.01992,-0.004 0.0299,-0.007 -4.731022,1.13089 -6.330333,-5.55979 -1.599311,-6.69067 v 0 c 0.032,-0.007 0.06399,-0.0149 0.09599,-0.0223 0.139933,-0.0287 0.280053,-0.056 0.42146,-0.0765 0.09486,-0.0151 0.189714,-0.0303 0.28457,-0.0454 0.119015,-0.019 0.238027,-0.038 0.357042,-0.057 0.149323,-0.0238 0.298646,-0.0477 0.447969,-0.0715 0.187338,-0.0299 0.374673,-0.0598 0.562012,-0.0897 0.23446,-0.0374 0.468921,-0.0748 0.703376,-0.1123 0.315349,-0.0504 0.63056,-0.10184 0.946652,-0.14745 0.401479,-0.0543 0.804236,-0.0979 1.208109,-0.13027 0.451742,-0.0371 0.904166,-0.0667 1.357418,-0.0769 0.457978,-0.0109 0.916065,-0.0188 1.374193,-0.016 0.505095,0.007 1.010111,0.0214 1.514354,0.0526 0.534855,0.0348 1.068974,0.081 1.600631,0.14995 0.526425,0.0683 1.051449,0.14718 1.573318,0.24479 0.56361,0.10513 1.126773,0.21645 1.679692,0.36948 0.578863,0.16269 1.152985,0.34267 1.714595,0.55828 0.572799,0.22141 1.139206,0.45894 1.695783,0.71871 0.62561,0.29334 1.246934,0.59739 1.843064,0.94773 0.656204,0.39332 1.296625,0.81423 1.882039,1.30892 0.551193,0.46655 1.085178,0.95392 1.570649,1.48962 0.464701,0.51866 0.90842,1.05615 1.302202,1.63137 0.392499,0.57758 0.763106,1.17035 1.077495,1.79473 0.297717,0.59684 0.576016,1.20341 0.813512,1.82705 0.228705,0.60211 0.443214,1.2098 0.623869,1.82827 0.189526,0.65554 0.360275,1.31645 0.49164,1.98639 0.135798,0.67372 0.263049,1.34939 0.358593,2.03018 0.09624,0.72295 0.170984,1.44894 0.188431,2.17864 0.01773,0.73634 0.0131,1.47356 -0.04797,2.2081 -0.06657,0.72605 -0.156887,1.45046 -0.314327,2.16316 -0.160068,0.70701 -0.34852,1.40844 -0.619287,2.08227 -0.245538,0.60733 -0.514051,1.20588 -0.84402,1.77285 -0.321636,0.54811 -0.664848,1.08408 -1.059728,1.58302 -0.407577,0.5057 -0.839428,0.99259 -1.331727,1.41842 -0.444008,0.37918 -0.905505,0.73784 -1.402594,1.04572 -0.464216,0.28813 -0.938614,0.55969 -1.431091,0.79707 -0.520925,0.25108 -1.050084,0.4856 -1.59706,0.67485 -0.544218,0.18765 -1.094398,0.35802 -1.654476,0.49236 -0.546053,0.12976 -1.09583,0.24421 -1.652535,0.31848 -0.563925,0.0728 -1.130331,0.12418 -1.699344,0.131 -0.488852,0.01 -0.977681,0.008 -1.466538,-0.002 -0.46617,-0.006 -0.932334,-0.0134 -1.398495,-0.0204 -0.465992,-0.007 -0.932029,-0.0124 -1.398056,-0.004 -0.511349,0.006 -1.022728,0.0132 -1.5339,0.0288 -0.507188,0.0165 -1.014423,0.0355 -1.520553,0.0733 -0.536014,0.0413 -1.071322,0.0908 -1.606013,0.14667 -0.548515,0.0576 -1.096713,0.11838 -1.643705,0.18919 -0.570389,0.074 -1.140315,0.15153 -1.708904,0.23836 -0.63677,0.0965 -1.27344,0.19368 -1.909871,0.29239 -0.713904,0.10983 -1.42739,0.2224 -2.141755,0.32921 -0.78636,0.11472 -1.573299,0.22543 -2.360715,0.33267 -0.842174,0.11149 -1.684952,0.21868 -2.529472,0.31102 -0.874491,0.0971 -1.749251,0.19199 -2.625006,0.27709 -0.911815,0.0866 -1.824244,0.16637 -2.737292,0.23893 -0.923083,0.0735 -1.846318,0.14538 -2.770282,0.20703 -0.910032,0.0597 -1.820453,0.11367 -2.731432,0.15685 -0.878633,0.0413 -1.757539,0.0769 -2.636866,0.0999 -0.831408,0.0236 -1.662835,0.0467 -2.494383,0.0648 -0.839566,0.0165 -1.679245,0.0301 -2.519011,0.0251 -0.845553,-0.006 -1.691243,-0.0192 -2.535801,-0.0636 -0.83389,-0.0462 -1.667385,-0.10458 -2.49683,-0.20441 -0.818522,-0.0999 -1.63584,-0.21466 -2.442998,-0.3857 -0.7702,-0.16778 -1.535551,-0.35808 -2.287607,-0.5955 -0.739434,-0.23485 -1.473392,-0.48845 -2.184976,-0.79911 -0.722826,-0.3176 -1.436438,-0.65829 -2.110831,-1.07087 -0.66965,-0.4159 -1.318978,-0.86401 -1.915529,-1.38115 -0.601341,-0.52206 -1.179291,-1.07168 -1.688582,-1.68567 -0.506074,-0.61079 -0.988435,-1.24174 -1.4079,-1.91603 -0.437166,-0.70553 -0.847585,-1.42781 -1.191017,-2.18436 -0.354958,-0.78082 -0.689021,-1.5717 -0.960589,-2.38596 -0.277982,-0.84405 -0.52816,-1.69706 -0.7275862,-2.56344 -0.2014265,-0.87892 -0.3800991,-1.76322 -0.4990467,-2.65757 -0.117646,-0.89379 -0.207432,-1.79166 -0.2224284,-2.6938 -0.011078,-0.89777 0.00803,-1.7974 0.1345502,-2.68789 0.1342268,-0.86789 0.3209091,-1.72779 0.6535176,-2.54414 0.2859925,-0.70012 0.6074735,-1.3859 1.0100615,-2.02778 0.415594,-0.65263 0.867776,-1.28333 1.42005,-1.82915 0.51763,-0.50466 1.065966,-0.97691 1.671817,-1.37415 0.630662,-0.41143 1.283921,-0.78896 1.984214,-1.07079 0.649948,-0.25983 1.311352,-0.48965 1.990156,-0.66296 0.699941,-0.18112 1.405088,-0.34585 2.122685,-0.44084 0.721397,-0.0927 1.445799,-0.15987 2.172957,-0.18566 0.74566,-0.029 1.491884,-0.0435 2.238103,-0.0285 0.717464,0.0107 1.434917,0.0221 2.152359,0.0342 0.720508,0.0115 1.441045,0.0208 2.161617,0.0276 0.746355,0.008 1.492705,0.0171 2.239036,0.0273 0.781413,0.0106 1.562817,0.0218 2.344206,0.0341 0.806087,0.0127 1.612156,0.0272 2.418307,0.0349 0.816227,0.004 1.632448,5.3e-4 2.448656,-0.006 0.802298,-0.008 1.604626,-0.0184 2.406583,-0.0444 0.804781,-0.0261 1.609506,-0.0539 2.41403,-0.087 0.79594,-0.0329 1.59181,-0.0676 2.387385,-0.10843 0.776759,-0.0399 1.553446,-0.0811 2.33017,-0.12165 0.710676,-0.0393 1.421236,-0.0812 2.131078,-0.13377 0.644208,-0.0483 1.288201,-0.10009 1.930974,-0.16506 0.582586,-0.0596 1.164802,-0.12345 1.745139,-0.20239 0.540766,-0.0741 1.08109,-0.15147 1.620975,-0.23175 0.460492,-0.0705 0.92039,-0.1449 1.379858,-0.22184 0.434676,-0.0744 0.869365,-0.14874 1.304464,-0.22064 0.517517,-0.0816 1.037313,-0.15099 1.561336,-0.17269 0.398423,-0.018 0.797097,-0.0273 1.195734,-0.0394 0.372417,-0.0117 0.744818,-0.024 1.117131,-0.0386 0.339072,-0.0136 0.678136,-0.0278 1.016956,-0.0468 0.250057,-0.0144 0.500107,-0.0298 0.749588,-0.0524 0.140666,-0.0133 0.281281,-0.0277 0.421137,-0.048 0.113845,-0.0173 0.225981,-0.0437 0.338834,-0.0664 0.280908,-0.0556 0.564136,-0.10192 0.850699,-0.11485 4.857884,-0.24985 5.211217,6.62024 0.353332,6.87008 z"
       inkscape:connector-curvature="0" />
  </g>
</svg>
