<?xml version="1.0" encoding="UTF-8" standalone="no"?>
<!-- Created with Inkscape (http://www.inkscape.org/) -->

<svg
   xmlns:dc="http://purl.org/dc/elements/1.1/"
   xmlns:cc="http://creativecommons.org/ns#"
   xmlns:rdf="http://www.w3.org/1999/02/22-rdf-syntax-ns#"
   xmlns:svg="http://www.w3.org/2000/svg"
   xmlns="http://www.w3.org/2000/svg"
   xmlns:sodipodi="http://sodipodi.sourceforge.net/DTD/sodipodi-0.dtd"
   xmlns:inkscape="http://www.inkscape.org/namespaces/inkscape"
   width="10cm"
   height="10cm"
   viewBox="0 0 100 99.999997"
   version="1.1"
   id="svg8"
   sodipodi:docname="noka.svg"
   inkscape:version="0.92.3 (2405546, 2018-03-11)">
  <defs
     id="defs2" />
  <sodipodi:namedview
     id="base"
     pagecolor="#ffffff"
     bordercolor="#666666"
     borderopacity="1.0"
     inkscape:pageopacity="0.0"
     inkscape:pageshadow="2"
     inkscape:zoom="1"
     inkscape:cx="175.50186"
     inkscape:cy="186.50542"
     inkscape:document-units="cm"
     inkscape:current-layer="layer1"
     showgrid="true"
     units="cm"
     inkscape:window-width="881"
     inkscape:window-height="706"
     inkscape:window-x="971"
     inkscape:window-y="214"
     inkscape:window-maximized="0"
     inkscape:snap-nodes="false">
    <inkscape:grid
       type="xygrid"
       id="grid815"
       units="cm"
       spacingx="9.9999998"
       spacingy="9.9999998" />
  </sodipodi:namedview>
  <metadata
     id="metadata5">
    <rdf:RDF>
      <cc:Work
         rdf:about="">
        <dc:format>image/svg+xml</dc:format>
        <dc:type
           rdf:resource="http://purl.org/dc/dcmitype/StillImage" />
        <dc:title></dc:title>
      </cc:Work>
    </rdf:RDF>
  </metadata>
  <g
     inkscape:label="Layer 1"
     inkscape:groupmode="layer"
     id="layer1"
     transform="translate(0,-197.00002)">
    <path
       style="opacity:1;fill:#020900;fill-opacity:1;stroke:none;stroke-width:1;stroke-linecap:butt;stroke-linejoin:round;stroke-miterlimit:4;stroke-dasharray:none;stroke-opacity:1"
       id="path1345"
       d="m 20.902194,209.74909 c 0.112842,0.16386 0.218056,0.33269 0.320755,0.50304 0.165062,0.2704 0.307411,0.55347 0.444294,0.83888 0.164314,0.34128 0.30569,0.69264 0.4387,1.04706 0.15782,0.42251 0.289168,0.85398 0.411087,1.28798 0.131957,0.48121 0.246272,0.96698 0.358512,1.45308 0.111856,0.49541 0.223401,0.99089 0.33385,1.48662 0.133722,0.60032 0.25861,1.20256 0.381278,1.80522 0.141609,0.69436 0.272394,1.39084 0.397422,2.08835 0.132594,0.73674 0.248194,1.47635 0.357377,2.21687 0.116153,0.79069 0.209455,1.58442 0.295536,2.37886 0.08941,0.84814 0.16994,1.69718 0.250423,2.5462 0.08542,0.91249 0.178285,1.82426 0.269011,2.73623 0.09804,1.01593 0.205534,2.03089 0.314028,3.04573 0.122843,1.12353 0.235813,2.24808 0.342309,3.37326 0.111718,1.17634 0.207441,2.35411 0.296821,3.53233 0.09201,1.22374 0.167579,2.4486 0.238083,3.67374 0.07304,1.2822 0.132617,2.56511 0.188848,3.84814 0.05591,1.28954 0.104103,2.57938 0.149765,3.86931 0.04852,1.27706 0.08279,2.55449 0.09826,3.83237 0.01381,1.2538 -0.0021,2.50759 -0.02849,3.7611 -0.02614,1.19717 -0.07584,2.3936 -0.138242,3.58937 -0.06157,1.14379 -0.146823,2.2861 -0.237402,3.42791 -0.08144,1.0149 -0.170232,2.0292 -0.263081,3.04311 -0.0818,0.882 -0.170471,1.76336 -0.261919,2.64441 -0.08383,0.79765 -0.173892,1.59461 -0.269374,2.39094 -0.09166,0.73026 -0.181426,1.46076 -0.276116,2.19064 -0.08255,0.62229 -0.167544,1.24426 -0.251003,1.86643 -0.0692,0.52645 -0.141678,1.05245 -0.213528,1.57854 -0.05971,0.43784 -0.119283,0.8757 -0.178868,1.31355 -0.04768,0.35035 -0.09535,0.70071 -0.143022,1.05106 -0.038,0.27927 -0.076,0.55853 -0.114002,0.8378 -0.03029,0.22258 -0.06058,0.44517 -0.09086,0.66775 -0.03691,0.37588 -0.0065,-0.064 -0.0097,-0.19132 -0.0222,-0.48649 -0.212933,-0.92463 -0.462867,-1.33418 -0.249101,-0.37747 -0.591212,-0.659 -0.982505,-0.87652 -0.01271,-0.0338 -0.431863,-0.15354 -0.263384,-0.12509 0.179418,0.0249 0.359616,0.0432 0.539865,0.0607 0.274964,0.029 0.551247,0.0399 0.82741,0.0497 0.345114,0.0104 0.690425,0.0135 1.035683,0.014 0.353156,1.4e-4 0.706158,-0.0111 1.058846,-0.0284 0.387723,-0.0225 0.774113,-0.0628 1.160397,-0.10225 0.477914,-0.0454 0.954214,-0.10499 1.429673,-0.1709 0.583726,-0.0815 1.16631,-0.17093 1.748954,-0.25977 0.664279,-0.10103 1.329685,-0.19444 1.994858,-0.28934 0.654902,-0.0942 1.308163,-0.19914 1.961126,-0.30581 0.668599,-0.10824 1.33623,-0.22219 2.003626,-0.33759 0.684109,-0.11915 1.368954,-0.23402 2.054101,-0.34703 0.684268,-0.11307 1.36998,-0.21709 2.055714,-0.3208 0.699072,-0.10905 1.398781,-0.21362 2.099662,-0.31036 0.729925,-0.10014 1.461757,-0.18533 2.1941,-0.26553 0.718206,-0.0777 1.437502,-0.14467 2.156994,-0.20913 0.699929,-0.0653 1.401215,-0.11352 2.10284,-0.15603 0.6815,-0.0398 1.363519,-0.0695 2.045718,-0.0941 0.685954,-0.0244 1.372246,-0.0356 2.058583,-0.0408 0.697039,-0.005 1.393976,0.0107 2.090732,0.0287 0.715174,0.0162 1.429038,0.062 2.142249,0.11527 0.670764,0.0487 1.340591,0.10852 2.00959,0.17715 0.63123,0.0681 1.261298,0.14652 1.891337,0.22475 0.591402,0.0748 1.182089,0.15493 1.772195,0.23928 0.556686,0.0813 1.113369,0.16254 1.669894,0.24491 0.518689,0.0781 1.038772,0.1462 1.559367,0.21018 0.514852,0.0628 1.030613,0.1176 1.546643,0.16967 0.461848,0.0492 0.924568,0.0873 1.388324,0.11239 0.406305,0.022 0.813049,0.0313 1.219867,0.0244 0.280463,-0.002 0.557897,-0.0383 0.833122,-0.0892 0.226611,-0.0435 0.446299,-0.11199 0.656495,-0.2066 0.251426,-0.1121 0.483722,-0.25946 0.704673,-0.42248 0.339669,-0.26421 0.641826,-0.57192 0.939644,-0.88134 0.367583,-0.38667 0.697545,-0.80596 1.008578,-1.23873 0.307343,-0.42933 0.559028,-0.89313 0.786667,-1.36841 0.270587,-0.57532 0.475991,-1.17705 0.655376,-1.78599 0.196474,-0.67605 0.327623,-1.36805 0.440735,-2.06212 0.11385,-0.69096 0.156638,-1.38987 0.179604,-2.08883 0.02405,-0.73602 -0.01397,-1.47151 -0.07187,-2.20497 -0.06558,-0.76967 -0.164753,-1.5359 -0.281781,-2.29927 -0.100803,-0.66011 -0.240218,-1.31309 -0.406511,-1.95954 -0.134837,-0.52296 -0.309592,-1.0338 -0.517403,-1.53193 -0.155054,-0.36543 -0.349105,-0.71128 -0.580829,-1.03317 -0.212612,-0.28702 -0.483127,-0.52031 -0.758069,-0.74498 -0.44714,-0.35391 -0.931947,-0.65532 -1.422511,-0.94437 -0.59726,-0.3488 -1.222211,-0.64557 -1.855647,-0.92177 -0.709819,-0.30369 -1.441143,-0.55228 -2.176201,-0.78663 -0.735076,-0.23049 -1.484894,-0.40815 -2.23779,-0.569 -0.661249,-0.14958 -1.335069,-0.21024 -2.010939,-0.2359 -0.763429,-0.0197 -1.526781,0.0155 -2.289,0.0548 -0.748078,0.0411 -1.495531,0.0927 -2.242733,0.1473 -0.65854,0.0514 -1.31599,0.11564 -1.973559,0.17799 -0.567798,0.0539 -1.135584,0.10797 -1.703371,0.16201 -0.466075,0.0443 -0.93222,0.0879 -1.398442,0.13068 -0.396981,0.0363 -0.794116,0.071 -1.191297,0.10506 -0.323221,0.0276 -0.64646,0.0551 -0.969698,0.0826 -0.257392,0.0219 -0.514784,0.0437 -0.772176,0.0656 -0.200771,0.0167 -0.401418,0.0348 -0.602155,0.0518 -0.472924,0.0545 -0.941149,0.005 -1.407864,-0.0724 -1.19295,-0.26349 -1.96116,-0.95616 -2.581679,-1.97639 -0.317942,-0.60942 -0.422553,-1.27604 -0.451779,-1.95272 -0.01259,-0.34703 -5.29e-4,-0.69425 0.0093,-1.04117 0.01222,-0.42835 0.02484,-0.85667 0.03511,-1.28506 0.01453,-0.61003 0.02524,-1.22011 0.0259,-1.83032 -0.0019,-0.67327 -0.03256,-1.346 -0.07623,-2.01772 -0.05417,-0.74074 -0.129005,-1.47979 -0.198601,-2.2192 -0.07354,-0.78306 -0.15299,-1.56556 -0.231196,-2.34817 -0.07859,-0.8125 -0.163142,-1.6244 -0.24099,-2.43697 -0.08689,-0.89719 -0.158951,-1.79567 -0.225042,-2.69459 -0.06817,-0.9639 -0.131834,-1.9281 -0.192545,-2.89248 -0.06047,-0.9568 -0.115628,-1.91393 -0.171712,-2.87099 -0.05909,-0.99841 -0.11303,-1.99712 -0.168997,-2.99571 -0.0564,-0.99504 -0.116679,-1.98986 -0.175019,-2.98478 -0.05005,-0.85495 -0.09882,-1.70997 -0.147315,-2.56501 -0.03931,-0.69443 -0.07843,-1.38887 -0.117372,-2.08331 -0.03234,-0.5734 -0.06336,-1.14686 -0.09396,-1.72035 -0.02492,-0.46835 -0.04973,-0.93671 -0.07455,-1.40507 -0.02003,-0.39355 -0.04137,-0.78702 -0.0638,-1.18044 -0.02066,-0.3602 -0.04062,-0.72043 -0.06032,-1.08068 -0.01611,-0.29584 -0.03216,-0.59168 -0.0482,-0.88752 -0.01315,-0.24075 -0.0259,-0.48152 -0.03862,-0.7223 -0.01037,-0.19599 -0.02061,-0.39198 -0.03076,-0.58798 -0.0093,-0.17672 -0.0176,-0.35348 -0.02551,-0.53027 -0.007,-0.15846 -0.01347,-0.31695 -0.01998,-0.47544 -0.0056,-0.13603 -0.01088,-0.27208 -0.01596,-0.40814 -0.0043,-0.11519 -0.0084,-0.23038 -0.01252,-0.34558 -0.0019,-0.0611 -0.0063,-0.12202 -0.01013,-0.183 -0.0045,-0.0713 -0.009,-0.1426 -0.01357,-0.2139 -0.0037,-0.0579 -0.0074,-0.11582 -0.01106,-0.17373 -0.0038,-0.0702 -0.0164,-0.18773 0.01442,0.1434 -0.604462,-4.8266 6.221386,-5.68143 6.825845,-0.85483 v 0 c 0.009,0.0915 0.02011,0.18259 0.02498,0.27434 0.0037,0.058 0.0074,0.11596 0.01109,0.17394 0.0047,0.0741 0.0094,0.14822 0.0141,0.22233 0.0076,0.12134 0.01519,0.2427 0.01905,0.36422 0.004,0.11189 0.008,0.22378 0.01214,0.33567 0.0048,0.12788 0.0097,0.25575 0.015,0.38361 0.0061,0.14985 0.01222,0.29971 0.01886,0.44955 0.0072,0.16085 0.01476,0.32168 0.0232,0.48247 0.01,0.1936 0.02013,0.38719 0.03038,0.58078 0.01254,0.23747 0.02511,0.47494 0.03809,0.7124 0.01598,0.29479 0.03196,0.58959 0.04802,0.88438 0.01939,0.35492 0.03907,0.70983 0.05943,1.0647 0.02294,0.4026 0.04481,0.80525 0.06532,1.20798 0.02477,0.46752 0.04954,0.93504 0.07442,1.40255 0.03027,0.56727 0.06095,1.13452 0.09294,1.7017 0.03887,0.693 0.0779,1.38598 0.117129,2.07896 0.04825,0.85067 0.09676,1.70132 0.146558,2.5519 0.05868,1.00083 0.11933,2.00155 0.176032,3.0025 0.05564,0.99276 0.109263,1.98564 0.167998,2.97822 0.0555,0.94717 0.110074,1.8944 0.169907,2.8413 0.05918,0.94042 0.12128,1.88066 0.187645,2.82061 0.06227,0.8483 0.130194,1.69618 0.212201,2.54284 0.07687,0.80315 0.160661,1.60561 0.238223,2.4087 0.07952,0.79573 0.160266,1.59136 0.235019,2.38756 0.07597,0.80721 0.157588,1.61406 0.214725,2.42288 0.05228,0.82193 0.08964,1.645 0.09037,2.46878 -0.0011,0.66179 -0.0118,1.32347 -0.02788,1.98506 -0.01053,0.43878 -0.02339,0.87749 -0.03593,1.31621 -0.0055,0.19249 -0.0132,0.3851 -0.01167,0.5777 0.0016,0.0956 -0.01164,-0.0525 -0.01804,-0.0876 -0.05537,-0.30269 -0.155763,-0.59195 -0.300109,-0.86454 -0.497414,-0.78814 -1.174496,-1.40077 -2.115651,-1.58506 -0.206687,-0.0306 -0.40305,-0.0592 -0.611484,-0.0474 -2.64e-4,3e-5 5.29e-4,5.3e-4 7.94e-4,8e-4 0.0104,-5.3e-4 0.02082,-0.001 0.03122,-0.002 0.200125,-0.0169 0.400132,-0.0352 0.600295,-0.0517 0.257344,-0.0219 0.514691,-0.0437 0.772035,-0.0656 0.321318,-0.0273 0.642639,-0.0546 0.963943,-0.0821 0.383863,-0.0329 0.767686,-0.0664 1.151359,-0.10152 0.458398,-0.042 0.91672,-0.0849 1.374973,-0.12849 0.568603,-0.0541 1.137206,-0.10824 1.705819,-0.16223 0.707014,-0.067 1.41392,-0.13599 2.122043,-0.19045 0.79652,-0.0581 1.593315,-0.11299 2.390788,-0.1565 0.976948,-0.0499 1.955504,-0.0904 2.933827,-0.0577 1.062887,0.0482 2.122932,0.14997 3.163226,0.38302 0.972497,0.20968 1.940676,0.44211 2.889639,0.74282 0.961062,0.30832 1.916419,0.63731 2.84322,1.03883 0.888199,0.39121 1.764496,0.81088 2.601161,1.30451 0.808144,0.48127 1.602836,0.98877 2.330495,1.58739 0.74371,0.62965 1.447562,1.30777 2.004312,2.1134 0.499012,0.7347 0.946049,1.50278 1.282062,2.32725 0.324038,0.79691 0.607915,1.60945 0.819216,2.4442 0.219266,0.86558 0.407702,1.73872 0.541115,2.62205 0.141341,0.93126 0.262316,1.86579 0.33981,2.80476 0.07558,0.9898 0.122859,1.98229 0.08826,2.97522 -0.03588,0.99304 -0.103285,1.98558 -0.266755,2.96694 -0.162719,0.98166 -0.354838,1.95942 -0.637419,2.91464 -0.290827,0.96451 -0.623041,1.91733 -1.060862,2.8264 -0.408417,0.83198 -0.85702,1.64453 -1.40267,2.39592 -0.505648,0.69392 -1.039575,1.36764 -1.636194,1.98649 -0.596932,0.61413 -1.214142,1.21236 -1.911234,1.71374 -0.650203,0.45288 -1.327899,0.86657 -2.063081,1.16876 -0.67493,0.27057 -1.366784,0.49616 -2.085374,0.61929 -0.634579,0.10816 -1.274207,0.18548 -1.918925,0.19099 -0.565012,0.007 -1.129988,-0.002 -1.694254,-0.0341 -0.568552,-0.0316 -1.136084,-0.0765 -1.702358,-0.13685 -0.565722,-0.0572 -1.131142,-0.11742 -1.695564,-0.18635 -0.576395,-0.071 -1.152234,-0.14645 -1.726549,-0.23283 -0.545449,-0.0807 -1.091052,-0.16037 -1.636652,-0.24007 -0.548087,-0.0784 -1.096737,-0.1528 -1.64602,-0.22243 -0.581964,-0.0723 -1.163947,-0.14478 -1.746938,-0.20836 -0.605835,-0.0624 -1.212477,-0.11616 -1.819934,-0.16031 -0.601472,-0.0452 -1.203444,-0.085 -1.806617,-0.0984 -0.620546,-0.0161 -1.241248,-0.0303 -1.862056,-0.0266 -0.62077,0.005 -1.241499,0.0146 -1.861928,0.0365 -0.626232,0.0225 -1.252297,0.0498 -1.877896,0.0861 -0.635397,0.0383 -1.270492,0.0818 -1.904325,0.14114 -0.674577,0.0604 -1.348981,0.12305 -2.022362,0.19574 -0.668403,0.0731 -1.336352,0.15062 -2.002554,0.24184 -0.671272,0.0925 -1.341303,0.19324 -2.010839,0.29753 -0.655423,0.0991 -1.310843,0.19841 -1.96487,0.30643 -0.667631,0.1101 -1.334957,0.22205 -2.001573,0.33816 -0.688432,0.11903 -1.377121,0.23651 -2.066787,0.34821 -0.698667,0.11409 -1.39768,0.22616 -2.098431,0.32681 -0.643388,0.0918 -1.287005,0.18209 -1.929541,0.27971 -0.614304,0.0937 -1.228563,0.18778 -1.844029,0.27358 -0.556755,0.0768 -1.114428,0.14668 -1.673955,0.20022 -0.507871,0.0517 -1.01604,0.10291 -1.525971,0.12969 -0.467272,0.0223 -0.934926,0.0371 -1.40279,0.0364 -0.424039,-7.9e-4 -0.848138,-0.005 -1.271978,-0.0185 -0.417839,-0.0153 -0.835665,-0.0351 -1.251725,-0.0782 -0.380839,-0.0376 -0.76179,-0.0784 -1.138641,-0.1463 -0.502517,-0.0967 -1.001798,-0.22018 -1.464792,-0.4448 -0.654877,-0.34182 -1.245015,-0.7738 -1.668779,-1.39113 -0.403784,-0.63401 -0.696641,-1.31556 -0.746256,-2.07546 -0.02144,-0.41799 -0.01733,-0.83581 0.05337,-1.24967 0.03029,-0.22258 0.06058,-0.44516 0.09086,-0.66775 0.038,-0.27926 0.076,-0.55853 0.114002,-0.8378 0.04768,-0.35038 0.09535,-0.70076 0.143033,-1.05114 0.05973,-0.43894 0.119451,-0.87789 0.179315,-1.31682 0.07111,-0.52067 0.14285,-1.04125 0.211326,-1.56227 0.08216,-0.61247 0.165776,-1.22475 0.24716,-1.83732 0.09192,-0.70777 0.178715,-1.41619 0.267834,-2.12431 0.09118,-0.7601 0.17712,-1.52081 0.257206,-2.28216 0.08863,-0.85344 0.1745,-1.70719 0.253822,-2.56155 0.09036,-0.98618 0.176684,-1.97273 0.255965,-2.95986 0.08577,-1.0802 0.166715,-2.16086 0.225227,-3.24294 0.05893,-1.12419 0.105563,-2.24901 0.13037,-3.37452 0.02482,-1.17792 0.04022,-2.35611 0.02746,-3.53431 -0.01447,-1.2242 -0.04814,-2.44796 -0.09445,-3.67138 -0.04497,-1.27066 -0.09242,-2.54123 -0.147475,-3.8115 -0.05483,-1.25171 -0.112882,-2.5033 -0.184088,-3.75421 -0.06805,-1.18342 -0.140951,-2.36659 -0.229746,-3.54867 -0.08607,-1.13558 -0.178277,-2.27071 -0.285925,-3.40448 -0.1038,-1.09742 -0.214089,-2.1942 -0.33392,-3.29 -0.110281,-1.03159 -0.219505,-2.0633 -0.319213,-3.09598 -0.09178,-0.92257 -0.185692,-1.84493 -0.2721,-2.76803 -0.07761,-0.81874 -0.155205,-1.6375 -0.24121,-2.45541 -0.07635,-0.7068 -0.158946,-1.413 -0.26203,-2.11647 -0.09855,-0.67015 -0.203052,-1.33949 -0.32297,-2.00623 -0.115379,-0.64453 -0.236271,-1.28807 -0.367069,-1.92967 -0.114162,-0.56124 -0.230378,-1.12208 -0.354835,-1.68113 -0.106596,-0.47862 -0.214405,-0.95696 -0.322211,-1.4353 -0.0888,-0.38492 -0.178426,-0.76975 -0.281577,-1.15113 -0.06847,-0.24828 -0.142504,-0.49506 -0.231904,-0.73673 -0.05954,-0.16296 -0.123613,-0.32425 -0.198547,-0.48084 -0.04181,-0.0881 -0.08174,-0.1774 -0.133096,-0.26049 -0.03341,-0.0559 -0.06641,-0.11197 -0.103968,-0.16523 -2.745488,-4.01544 2.933202,-7.89814 5.67869,-3.8827 z"
       inkscape:connector-curvature="0" />
  </g>
</svg>
