<svg viewBox="0 0 100 100"><path style="opacity:1;fill:#020900;fill-opacity:1;stroke:none;stroke-width:1;stroke-linecap:butt;stroke-linejoin:round;stroke-miterlimit:4;stroke-dasharray:none;stroke-opacity:1" d="M20.902 209.75a10 10 0 0 1 .765 1.341c.165.341.306.693.439 1.047.158.423.29.854.411 1.288.132.481.246.967.359 1.453l.333 1.487a100 100 0 0 1 .78 3.893 63 63 0 0 1 .653 4.596q.13 1.272.25 2.546c.085.913.178 1.825.268 2.736.098 1.016.206 2.031.314 3.046q.184 1.686.343 3.373a187 187 0 0 1 .535 7.207c.073 1.282.132 2.565.189 3.848q.082 1.935.15 3.869.073 1.915.098 3.832a117 117 0 0 1-.405 10.779q-.122 1.522-.263 3.043-.123 1.323-.262 2.644-.125 1.197-.269 2.391c-.092.73-.181 1.461-.276 2.19l-.251 1.867q-.106.79-.214 1.579l-.178 1.313-.143 1.051-.205 1.506c-.037.376-.007-.064-.01-.191-.022-.487-.213-.925-.463-1.335-.249-.377-.591-.659-.982-.876-.013-.034-.432-.154-.264-.125a13 13 0 0 0 1.367.11q.518.014 1.036.014.53 0 1.059-.028c.388-.023.774-.063 1.16-.102q.717-.07 1.43-.171.875-.125 1.749-.26c.664-.101 1.33-.195 1.995-.29.655-.094 1.308-.199 1.961-.305q1.003-.163 2.004-.338 1.026-.178 2.054-.347c.684-.113 1.37-.217 2.055-.32q1.05-.165 2.1-.311c.73-.1 1.462-.185 2.194-.266.718-.077 1.438-.144 2.157-.209.7-.065 1.401-.113 2.103-.156q1.023-.059 2.046-.094a63 63 0 0 1 4.15-.012c.714.016 1.428.062 2.141.115q1.006.075 2.01.178a111 111 0 0 1 3.664.464q.834.12 1.67.244.777.117 1.559.21.772.093 1.546.17.693.075 1.389.113.61.034 1.22.024c.28-.002.557-.038.833-.09q.34-.064.656-.206c.252-.112.484-.26.705-.422.34-.264.642-.572.94-.882.367-.386.697-.805 1.008-1.238.307-.43.56-.893.787-1.369.27-.575.476-1.177.655-1.786.197-.676.328-1.368.44-2.062.115-.69.157-1.39.18-2.089a20 20 0 0 0-.071-2.205 35 35 0 0 0-.282-2.299 20 20 0 0 0-.407-1.96 11 11 0 0 0-.517-1.531 5.3 5.3 0 0 0-.581-1.033c-.213-.287-.483-.52-.758-.745a12.5 12.5 0 0 0-1.423-.945 18 18 0 0 0-1.855-.922 24 24 0 0 0-2.176-.786 25 25 0 0 0-2.238-.57 11 11 0 0 0-2.011-.235c-.764-.02-1.527.015-2.29.055-.747.04-1.495.092-2.242.147-.658.051-1.316.116-1.973.178l-1.704.162q-.699.067-1.398.13-.595.055-1.192.106l-.97.082-.771.066-.603.052c-.472.054-.94.005-1.407-.073-1.193-.263-1.962-.956-2.582-1.976-.318-.61-.423-1.276-.452-1.953-.012-.347 0-.694.01-1.041l.035-1.285q.023-.915.025-1.83a33 33 0 0 0-.076-2.018c-.054-.74-.129-1.48-.198-2.22q-.112-1.173-.232-2.347c-.078-.813-.163-1.625-.24-2.437q-.129-1.347-.226-2.695a375 375 0 0 1-.192-2.892q-.089-1.435-.172-2.871-.087-1.499-.169-2.996-.086-1.492-.175-2.985a1413 1413 0 0 1-.359-6.369l-.074-1.405q-.03-.59-.064-1.18a406 406 0 0 1-.147-2.69l-.056-1.119-.02-.475-.016-.408-.013-.346q-.004-.092-.01-.183l-.013-.214-.012-.174c-.003-.07-.016-.187.015.144-.605-4.827 6.221-5.682 6.826-.855q.016.136.025.274l.01.174.015.223q.012.18.019.364l.046 1.169a63 63 0 0 0 .054 1.063l.038.712.048.885q.029.533.06 1.064l.064 1.208.168 3.105.263 4.63q.091 1.502.176 3.003.082 1.49.168 2.978.082 1.421.17 2.841.09 1.41.188 2.821.091 1.272.212 2.543c.077.803.16 1.605.238 2.409q.121 1.192.235 2.387c.076.807.158 1.614.215 2.423.052.822.09 1.645.09 2.469a88 88 0 0 1-.027 1.985q-.016.658-.036 1.316c-.006.193-.013.385-.012.578.002.095-.012-.053-.018-.088a3 3 0 0 0-.3-.864c-.497-.789-1.175-1.401-2.116-1.585a3 3 0 0 0-.611-.048l.032-.001.6-.052.772-.065.964-.082a200 200 0 0 0 2.526-.23l1.706-.163c.707-.067 1.414-.136 2.122-.19a137 137 0 0 1 2.391-.157c.977-.05 1.956-.09 2.934-.057 1.063.048 2.123.15 3.163.383.973.21 1.94.442 2.89.742.96.309 1.916.638 2.843 1.04.888.39 1.764.81 2.601 1.304.808.481 1.603.989 2.33 1.587.744.63 1.448 1.308 2.005 2.114.499.734.946 1.502 1.282 2.327.324.797.608 1.61.82 2.444.219.866.407 1.739.54 2.622.142.931.263 1.866.34 2.805.076.99.123 1.982.088 2.975s-.103 1.986-.266 2.967-.355 1.96-.638 2.915c-.29.964-.623 1.917-1.06 2.826-.409.832-.858 1.645-1.403 2.396a19 19 0 0 1-1.636 1.986c-.597.615-1.215 1.213-1.912 1.714-.65.453-1.328.867-2.063 1.169-.675.27-1.367.496-2.085.62-.635.107-1.274.185-1.92.19q-.847.012-1.693-.034a34 34 0 0 1-1.703-.137 82 82 0 0 1-1.695-.186 65 65 0 0 1-1.727-.233l-1.636-.24a104 104 0 0 0-1.646-.222q-.873-.111-1.747-.209a61 61 0 0 0-1.82-.16 34 34 0 0 0-1.807-.098c-.62-.017-1.241-.03-1.862-.027a68 68 0 0 0-3.74.123c-.635.038-1.27.081-1.904.14q-1.013.09-2.023.196a74 74 0 0 0-4.013.54 146 146 0 0 0-3.966.644q-1.033.18-2.067.349c-.699.114-1.398.226-2.099.326q-.965.136-1.93.28c-.613.094-1.228.188-1.843.274a41 41 0 0 1-1.674.2 31 31 0 0 1-1.526.13c-.467.022-.935.037-1.403.036q-.636 0-1.272-.018a19 19 0 0 1-2.39-.225c-.503-.097-1.002-.22-1.465-.445-.655-.342-1.245-.774-1.669-1.39-.404-.635-.696-1.316-.746-2.076a5.7 5.7 0 0 1 .053-1.25l.091-.668.114-.838.143-1.05.18-1.318q.107-.78.21-1.562l.248-1.837q.136-1.062.268-2.124.137-1.14.257-2.283a236 236 0 0 0 .51-5.521c.086-1.08.167-2.16.225-3.243a111 111 0 0 0 .158-6.909 141 141 0 0 0-.095-3.671q-.066-1.905-.147-3.812a287 287 0 0 0-.184-3.754 180 180 0 0 0-.516-6.953 226 226 0 0 0-.334-3.29c-.11-1.032-.22-2.063-.319-3.096-.092-.923-.186-1.845-.272-2.768-.078-.819-.155-1.638-.241-2.455a56 56 0 0 0-.585-4.123 94 94 0 0 0-.722-3.61l-.322-1.436c-.09-.385-.179-.77-.282-1.151a9 9 0 0 0-.232-.737 5 5 0 0 0-.198-.48c-.042-.089-.082-.178-.133-.261q-.05-.085-.104-.166c-2.746-4.015 2.933-7.898 5.678-3.882z" transform="translate(0 -197)"/></svg>