<?xml version="1.0" encoding="UTF-8" standalone="no"?>
<!-- Created with Inkscape (http://www.inkscape.org/) -->

<svg
   xmlns:dc="http://purl.org/dc/elements/1.1/"
   xmlns:cc="http://creativecommons.org/ns#"
   xmlns:rdf="http://www.w3.org/1999/02/22-rdf-syntax-ns#"
   xmlns:svg="http://www.w3.org/2000/svg"
   xmlns="http://www.w3.org/2000/svg"
   xmlns:sodipodi="http://sodipodi.sourceforge.net/DTD/sodipodi-0.dtd"
   xmlns:inkscape="http://www.inkscape.org/namespaces/inkscape"
   width="10cm"
   height="10cm"
   viewBox="0 0 100 99.999997"
   version="1.1"
   id="svg8"
   sodipodi:docname="o.svg"
   inkscape:version="0.92.3 (2405546, 2018-03-11)">
  <defs
     id="defs2" />
  <sodipodi:namedview
     id="base"
     pagecolor="#ffffff"
     bordercolor="#666666"
     borderopacity="1.0"
     inkscape:pageopacity="0.0"
     inkscape:pageshadow="2"
     inkscape:zoom="1"
     inkscape:cx="175.50186"
     inkscape:cy="186.50542"
     inkscape:document-units="cm"
     inkscape:current-layer="layer1"
     showgrid="true"
     units="cm"
     inkscape:window-width="881"
     inkscape:window-height="706"
     inkscape:window-x="971"
     inkscape:window-y="214"
     inkscape:window-maximized="0"
     inkscape:snap-nodes="false">
    <inkscape:grid
       type="xygrid"
       id="grid815"
       units="cm"
       spacingx="9.9999998"
       spacingy="9.9999998" />
  </sodipodi:namedview>
  <metadata
     id="metadata5">
    <rdf:RDF>
      <cc:Work
         rdf:about="">
        <dc:format>image/svg+xml</dc:format>
        <dc:type
           rdf:resource="http://purl.org/dc/dcmitype/StillImage" />
        <dc:title></dc:title>
      </cc:Work>
    </rdf:RDF>
  </metadata>
  <g
     inkscape:label="Layer 1"
     inkscape:groupmode="layer"
     id="layer1"
     transform="translate(0,-197.00002)">
    <path
       style="opacity:1;fill:#020900;fill-opacity:1;stroke:none;stroke-width:1;stroke-linecap:butt;stroke-linejoin:round;stroke-miterlimit:4;stroke-dasharray:none;stroke-opacity:1"
       id="path1347"
       d="m 48.345227,272.82884 c 0.124531,0.0926 0.26166,0.16583 0.403222,0.22856 0.08629,0.0336 -0.07152,-0.002 -0.07701,-0.003 -0.131694,-0.0291 -0.264099,-0.0394 -0.398375,-0.0383 -0.157298,0.005 -0.312174,0.034 -0.465376,0.0681 -0.263626,0.0595 -0.514789,0.15962 -0.76341,0.26344 -0.348213,0.14692 -0.687737,0.31294 -1.016701,0.49883 -0.27036,0.15004 -0.510273,0.34317 -0.740834,0.54734 -0.293285,0.26505 -0.551828,0.56419 -0.796771,0.87353 -0.2594,0.33115 -0.469964,0.69542 -0.669438,1.06459 -0.210807,0.39705 -0.374087,0.81642 -0.527543,1.23819 -0.101584,0.28224 -0.186343,0.57018 -0.219519,0.86877 -0.02262,0.25707 -0.01783,0.51518 -7.94e-4,0.77232 0.02188,0.25738 0.0636,0.51218 0.127402,0.76237 0.04382,0.17374 0.117473,0.3367 0.200533,0.49465 0.05632,0.11043 0.129813,0.20761 0.219753,0.29207 0.127394,0.11064 0.265872,0.20672 0.406056,0.30018 0.188396,0.12588 0.394097,0.22024 0.604136,0.30326 0.284017,0.107 0.576871,0.18658 0.873405,0.24975 0.312214,0.0649 0.629788,0.0923 0.948108,0.098 0.338895,0.004 0.674595,-0.0452 1.007351,-0.10392 0.386027,-0.0727 0.76577,-0.17472 1.141029,-0.29003 0.251031,-0.0788 0.496655,-0.1755 0.726093,-0.30474 0.134324,-0.0822 0.247862,-0.19161 0.359143,-0.30176 0.168616,-0.16929 0.303906,-0.36603 0.435925,-0.56397 0.197464,-0.30569 0.370597,-0.62603 0.536911,-0.94943 0.156091,-0.297 0.278651,-0.60906 0.38953,-0.92516 0.116361,-0.33904 0.203563,-0.68688 0.286488,-1.03529 0.08313,-0.36001 0.153131,-0.72286 0.217356,-1.08666 0.03986,-0.24315 0.08203,-0.48685 0.09151,-0.73346 0.0024,-0.11931 -0.01717,-0.23745 -0.03444,-0.35508 -0.03313,-0.21314 -0.07146,-0.42552 -0.119454,-0.63582 -0.01886,-0.0924 -0.05953,-0.21741 -0.08723,-0.28821 0.01566,0.0687 0.05276,0.1285 0.08838,0.18831 0.02482,0.0525 -0.09347,-0.07 -0.104468,-0.0797 -0.103656,-0.0909 -0.212828,-0.17496 -0.322794,-0.25795 -0.02678,-0.0219 -0.154872,-0.11081 -0.06377,-0.0424 -0.0059,-0.002 -0.01175,-0.005 -0.01762,-0.008 -4.351346,-2.17423 -1.276525,-8.32796 3.074821,-6.15374 v 0 c 0.05824,0.0295 0.116475,0.0591 0.174712,0.0886 0.343934,0.18742 0.678328,0.39149 0.987525,0.63298 0.254112,0.19309 0.504431,0.39131 0.743011,0.60349 0.34566,0.30954 0.679088,0.63404 0.964938,1.0009 0.357275,0.47319 0.672685,0.97605 0.886064,1.5321 0.159604,0.42282 0.296584,0.85342 0.392821,1.29551 0.08743,0.39971 0.164068,0.8018 0.220922,1.2071 0.07313,0.5614 0.118594,1.12705 0.08278,1.69351 -0.03414,0.50737 -0.09246,1.01235 -0.184277,1.51278 -0.08869,0.49829 -0.185201,0.99527 -0.300961,1.48807 -0.141526,0.58803 -0.295529,1.17363 -0.497277,1.74436 -0.21804,0.60575 -0.459258,1.20332 -0.758626,1.77418 -0.294947,0.568 -0.604584,1.12917 -0.96135,1.66122 -0.420979,0.61252 -0.875986,1.20257 -1.419662,1.71283 -0.570894,0.52669 -1.178981,1.01319 -1.870477,1.37477 -0.618091,0.31759 -1.255313,0.59614 -1.92282,0.79408 -0.654357,0.19651 -1.315775,0.37164 -1.989415,0.48926 -0.783812,0.12942 -1.575078,0.22112 -2.37123,0.19646 -0.750316,-0.0279 -1.499169,-0.0962 -2.233348,-0.26087 -0.685417,-0.15673 -1.363978,-0.3456 -2.015697,-0.61265 -0.643972,-0.27288 -1.272669,-0.58228 -1.849823,-0.98067 -0.595702,-0.41296 -1.16908,-0.86053 -1.655337,-1.40183 -0.487836,-0.56088 -0.928695,-1.16007 -1.254101,-1.83184 -0.300702,-0.62366 -0.56206,-1.26623 -0.719667,-1.94262 -0.149296,-0.64765 -0.262607,-1.30327 -0.301662,-1.96779 -0.03606,-0.71527 -0.03585,-1.43336 0.06261,-2.14442 0.118404,-0.76543 0.295116,-1.51911 0.568793,-2.24539 0.273291,-0.7401 0.571217,-1.47235 0.948833,-2.16645 0.397558,-0.72265 0.826087,-1.42944 1.343298,-2.07419 0.510249,-0.63034 1.050223,-1.23765 1.663176,-1.77117 0.590515,-0.50468 1.209058,-0.9764 1.891609,-1.35177 0.570534,-0.31513 1.15393,-0.60642 1.757016,-0.85471 0.659582,-0.26723 1.332087,-0.50539 2.03186,-0.64466 0.651153,-0.1245 1.30983,-0.21387 1.974686,-0.19705 0.520668,0.0166 1.039947,0.0597 1.551077,0.16503 0.418148,0.0839 0.834263,0.18249 1.232734,0.33732 0.386701,0.15605 0.764365,0.33555 1.103,0.5819 3.963799,2.81953 -0.0236,8.42519 -3.987416,5.60566 z"
       inkscape:connector-curvature="0" />
    <path
       style="opacity:1;fill:#020900;fill-opacity:1;stroke:none;stroke-width:1;stroke-linecap:butt;stroke-linejoin:round;stroke-miterlimit:4;stroke-dasharray:none;stroke-opacity:1"
       id="path1349"
       d="m 42.142812,256.5859 c -0.01021,0.0677 0.01071,0.26219 -0.01156,0.076 -0.02784,-0.22336 -0.05823,-0.4464 -0.0868,-0.66967 -0.04601,-0.36618 -0.0997,-0.73132 -0.150222,-1.09689 -0.07706,-0.54596 -0.143989,-1.09321 -0.204372,-1.64124 -0.07227,-0.67068 -0.125262,-1.34321 -0.174739,-2.01589 -0.0542,-0.74719 -0.09617,-1.49517 -0.135056,-2.24328 -0.0389,-0.82864 -0.08194,-1.65708 -0.123124,-2.48561 -0.05202,-1.0467 -0.08853,-2.09407 -0.122656,-3.14149 -0.03722,-1.19135 -0.06928,-2.38286 -0.09992,-3.57439 -0.02961,-1.27723 -0.07465,-2.55397 -0.128704,-3.83037 -0.05937,-1.31272 -0.12374,-2.62521 -0.184213,-3.93788 -0.05802,-1.26779 -0.109575,-2.53587 -0.160219,-3.80397 -0.04316,-1.08908 -0.08526,-2.17821 -0.12745,-3.26734 -0.03384,-0.8739 -0.06765,-1.7478 -0.101462,-2.6217 -0.02696,-0.69663 -0.05391,-1.39326 -0.08086,-2.08989 -0.02148,-0.55523 -0.04297,-1.11046 -0.06445,-1.6657 -0.01712,-0.44253 -0.03425,-0.88506 -0.05137,-1.3276 -0.01365,-0.35271 -0.02729,-0.70542 -0.04094,-1.05812 -0.01087,-0.28112 -0.02175,-0.56224 -0.03263,-0.84336 -0.0087,-0.22405 -0.01733,-0.44811 -0.02601,-0.67217 -0.0069,-0.17858 -0.01381,-0.35716 -0.02074,-0.53573 -0.0055,-0.14234 -0.01101,-0.28467 -0.01651,-0.427 -0.0044,-0.11344 -0.0088,-0.22688 -0.01318,-0.34032 -0.0035,-0.0904 -0.007,-0.18083 -0.0105,-0.27125 -0.0028,-0.0721 -0.0056,-0.14413 -0.0084,-0.21619 -0.0021,-0.0574 -0.0044,-0.11487 -0.0067,-0.17231 -0.0013,-0.0519 -0.0071,-0.13268 0.0047,0.0613 -0.388045,-4.84881 6.469198,-5.39759 6.857241,-0.54878 v 0 c 0.0047,0.0738 0.01,0.14754 0.01206,0.22147 0.0021,0.0574 0.0044,0.11487 0.0067,0.17231 0.0028,0.0721 0.0056,0.14412 0.0084,0.21619 0.0035,0.0904 0.007,0.18083 0.0105,0.27124 0.0044,0.11344 0.0088,0.22688 0.01318,0.34033 0.0055,0.14233 0.01101,0.28466 0.01651,0.42699 0.0069,0.17858 0.01381,0.35716 0.02072,0.53574 0.0087,0.22405 0.01733,0.44811 0.02601,0.67217 0.01087,0.28112 0.02175,0.56223 0.03263,0.84335 0.01365,0.35271 0.02729,0.70542 0.04094,1.05813 0.01712,0.44253 0.03424,0.88506 0.05137,1.3276 0.02148,0.55523 0.04297,1.11046 0.06445,1.6657 0.02695,0.69662 0.05391,1.39325 0.08087,2.08988 0.03381,0.87381 0.06762,1.74762 0.101451,2.62142 0.04208,1.08638 0.08408,2.17276 0.127125,3.2591 0.05008,1.25408 0.101042,2.50813 0.158409,3.7619 0.06086,1.32124 0.125722,2.64231 0.185351,3.96361 0.05558,1.31439 0.102031,2.62911 0.13258,3.94434 0.03024,1.17587 0.06187,2.3517 0.09856,3.52738 0.03281,1.0082 0.0678,2.01638 0.117819,3.0239 0.04092,0.82343 0.08375,1.64676 0.122346,2.4703 0.03627,0.69904 0.07532,1.39796 0.125833,2.09613 0.04328,0.59005 0.0892,1.18001 0.152054,1.76835 0.0531,0.48471 0.11268,0.96864 0.180842,1.45147 0.05362,0.38839 0.110652,0.77632 0.159332,1.16537 0.03283,0.2568 0.06838,0.51326 0.09892,0.77034 0.03281,0.29616 0.06062,0.59361 0.05224,0.89202 -0.138522,4.86233 -7.014898,4.66643 -6.876375,-0.1959 z"
       inkscape:connector-curvature="0" />
  </g>
</svg>
