<svg viewBox="0 0 100 100"><path style="opacity:1;fill:#020900;fill-opacity:1;stroke:none;stroke-width:1;stroke-linecap:butt;stroke-linejoin:round;stroke-miterlimit:4;stroke-dasharray:none;stroke-opacity:1" d="M48.345 272.829q.19.136.403.228c.087.034-.071-.002-.077-.003a1.8 1.8 0 0 0-.398-.038 2.5 2.5 0 0 0-.465.068c-.264.06-.515.16-.764.264a10 10 0 0 0-1.016.498c-.27.15-.51.344-.741.548a7 7 0 0 0-.797.873c-.26.331-.47.696-.67 1.065a10 10 0 0 0-.527 1.238c-.102.282-.186.57-.22.869a4.7 4.7 0 0 0 .127 1.535c.044.173.118.336.2.494q.085.166.22.292c.128.11.266.207.406.3.189.126.395.22.605.304.284.107.576.186.873.25a5 5 0 0 0 .948.097c.339.004.675-.045 1.007-.103a11 11 0 0 0 1.141-.29c.251-.08.497-.176.727-.305.134-.082.247-.192.359-.302.168-.17.304-.366.436-.564.197-.306.37-.626.537-.95.156-.296.278-.608.39-.925.115-.339.203-.686.286-1.035q.123-.54.217-1.086c.04-.244.082-.487.091-.734.003-.12-.017-.237-.034-.355a9 9 0 0 0-.12-.636 2 2 0 0 0-.087-.288c.016.069.053.128.089.188.024.053-.094-.07-.105-.08a6 6 0 0 0-.323-.257c-.026-.022-.154-.111-.063-.043l-.018-.008c-4.351-2.174-1.277-8.328 3.075-6.154l.175.09c.343.187.678.39.987.632.254.193.505.391.743.604.346.31.68.634.965 1 .357.474.673.977.886 1.533.16.422.297.853.393 1.295.087.4.164.802.22 1.207.074.562.12 1.127.084 1.694a13 13 0 0 1-.185 1.512c-.088.499-.185.996-.3 1.489a18 18 0 0 1-.498 1.744 14 14 0 0 1-.759 1.774c-.294.568-.604 1.13-.96 1.661-.422.613-.877 1.203-1.42 1.713-.571.527-1.18 1.013-1.871 1.375-.618.317-1.255.596-1.923.794-.654.196-1.316.372-1.99.49-.783.129-1.574.22-2.37.196-.75-.028-1.5-.097-2.234-.261a13 13 0 0 1-2.016-.613c-.644-.273-1.272-.582-1.85-.98-.595-.413-1.168-.861-1.655-1.402-.488-.561-.928-1.16-1.254-1.832-.3-.624-.562-1.266-.72-1.943a12 12 0 0 1-.301-1.968c-.036-.715-.036-1.433.062-2.144.119-.765.296-1.52.57-2.245.273-.74.57-1.473.948-2.167.398-.722.826-1.43 1.343-2.074.51-.63 1.05-1.238 1.664-1.771.59-.505 1.209-.977 1.891-1.352a17 17 0 0 1 1.757-.855c.66-.267 1.332-.505 2.032-.644.651-.125 1.31-.214 1.975-.197.52.016 1.04.06 1.55.165a7.4 7.4 0 0 1 1.234.337c.386.156.764.336 1.103.582 3.963 2.82-.024 8.425-3.988 5.606m-6.202-16.243c-.01.068.01.262-.012.076l-.087-.67c-.046-.366-.1-.731-.15-1.097a54 54 0 0 1-.204-1.64 60 60 0 0 1-.175-2.017c-.054-.747-.096-1.495-.135-2.243q-.06-1.243-.123-2.486a184 184 0 0 1-.123-3.141q-.054-1.788-.1-3.575-.046-1.916-.128-3.83l-.185-3.938q-.086-1.902-.16-3.804l-.127-3.267-.102-2.622-.08-2.09-.065-1.665-.051-1.328-.041-1.058-.033-.843-.026-.673-.02-.535-.017-.427-.013-.34-.01-.272-.01-.216-.006-.172c-.001-.052-.007-.133.005.06-.388-4.848 6.469-5.397 6.857-.548q.008.111.012.222l.007.172.008.216.01.271.014.34.016.428.021.535.026.673.033.843.04 1.058.052 1.328.064 1.665.183 4.712.127 3.259q.073 1.881.158 3.762c.061 1.32.126 2.642.186 3.963.055 1.315.102 2.63.132 3.945q.044 1.763.099 3.527c.033 1.008.068 2.016.118 3.024l.122 2.47c.036.7.075 1.398.126 2.096.043.59.089 1.18.152 1.769q.08.726.18 1.451c.054.388.111.776.16 1.165q.051.386.099.77c.033.297.06.594.052.893-.138 4.862-7.015 4.666-6.876-.196" transform="translate(0 -197)"/></svg>