<svg viewBox="0 0 100 100"><path style="opacity:1;fill:#020900;fill-opacity:1;stroke:none;stroke-width:1;stroke-linecap:butt;stroke-linejoin:round;stroke-miterlimit:4;stroke-dasharray:none;stroke-opacity:1" d="M41.116 217.9a6.3 6.3 0 0 1-.085-1.062c0-.546.092-1.083.208-1.614a12 12 0 0 1 .505-1.598c.219-.587.494-1.15.793-1.7.349-.634.782-1.212 1.248-1.765.474-.549 1.012-1.036 1.565-1.503.54-.453 1.123-.851 1.72-1.226a16 16 0 0 1 1.771-.947c.664-.304 1.366-.507 2.074-.678.729-.179 1.475-.248 2.223-.262.943-.011 1.85.208 2.727.532.893.358 1.658.932 2.366 1.572.657.604 1.181 1.324 1.65 2.079.482.795.8 1.667 1.051 2.557.232.854.332 1.732.383 2.612.044.86-.02 1.718-.123 2.57a19 19 0 0 1-.504 2.51c-.22.824-.507 1.627-.81 2.423a29 29 0 0 1-1 2.312c-.395.835-.875 1.624-1.39 2.39a28 28 0 0 1-1.606 2.082c-.52.62-1.06 1.225-1.6 1.827-.507.561-1.006 1.13-1.506 1.697a169 169 0 0 1-2.578 2.853l-.975 1.06q-.414.46-.838.908c-.266.28-.542.547-.817.817q-.343.343-.696.676c-.235.222-.478.434-.723.645q-.286.243-.575.484l-.158.127c-3.817 3.015-8.081-2.383-4.264-5.399h.003l.515-.433q.252-.214.494-.44c.197-.183.387-.374.579-.563.218-.214.438-.427.65-.647q.384-.408.76-.824l.983-1.07q.575-.622 1.146-1.251.67-.74 1.332-1.49.771-.879 1.551-1.749c.487-.54.971-1.083 1.44-1.64.413-.494.818-.995 1.185-1.524.332-.486.639-.988.89-1.52.281-.58.54-1.171.769-1.775.217-.568.426-1.14.586-1.727.14-.525.259-1.055.329-1.593.058-.455.1-.912.081-1.37a6 6 0 0 0-.144-1.148 3.3 3.3 0 0 0-.297-.81 2.8 2.8 0 0 0-.431-.595c-.06-.059-.21-.17-.212-.225-.018-.038-.1-.058-.168-.06a2.6 2.6 0 0 0-.686.074 5 5 0 0 0-.8.24q-.514.23-.993.527a8 8 0 0 0-.939.658c-.264.22-.523.447-.756.7a4 4 0 0 0-.457.624c-.149.262-.28.534-.385.816a6 6 0 0 0-.228.675c-.01.032-.037.204-.039.097-.007-.08-.006-.046-.021-.14.851 4.789-5.922 5.993-6.773 1.203" transform="translate(0 -197)"/><path style="opacity:1;fill:#020900;fill-opacity:1;stroke:none;stroke-width:1;stroke-linecap:butt;stroke-linejoin:round;stroke-miterlimit:4;stroke-dasharray:none;stroke-opacity:1" d="M40.13 217.337c-.014.018-.05.184-.032.075q.044-.277.075-.555c.016-.231.061-.462.058-.694-.014-.01-.012-.024-.025.01-.01.033-.001.06.01.094-.067-.032-.14-.09-.207-.134-.057-.045-.115-.034-.18-.04a2 2 0 0 0-.497-.004c-.264.045-.518.13-.769.22-.41.152-.8.348-1.184.557a5.3 5.3 0 0 0-.95.667c-.23.198-.42.43-.586.682a1.8 1.8 0 0 0-.237.56 4.6 4.6 0 0 0-.076.785 9 9 0 0 0 .057 1.222c.032.33.123.647.236.957.18.469.392.924.612 1.375.228.474.488.93.764 1.378.284.45.594.883.9 1.317q.518.73 1.023 1.467l.92 1.342q.39.578.798 1.144c.233.324.475.642.717.959q.366.477.72.963.305.417.605.838.289.412.562.832c.155.243.301.492.453.738l.34.546q.153.25.305.503.108.179.218.356l.2.328c2.514 4.164-3.376 7.719-5.89 3.554l-.174-.285q-.123-.198-.245-.4l-.256-.421-.353-.57-.37-.605q-.2-.307-.409-.607c-.178-.252-.362-.501-.543-.752a45 45 0 0 0-.634-.848 53 53 0 0 1-.835-1.117q-.45-.63-.886-1.271l-.917-1.337a99 99 0 0 0-.963-1.383 34 34 0 0 1-1.149-1.693 23 23 0 0 1-1.091-1.974 22 22 0 0 1-.923-2.128c-.274-.81-.494-1.637-.577-2.491a16 16 0 0 1-.087-2.25c.042-.85.13-1.698.379-2.515.281-.87.642-1.712 1.172-2.465.523-.733 1.103-1.424 1.797-2.003.66-.547 1.354-1.052 2.112-1.455.714-.382 1.443-.737 2.209-1.005.84-.285 1.7-.521 2.59-.581.882-.044 1.764-.01 2.624.207.865.235 1.7.558 2.435 1.083.623.448 1.213.943 1.686 1.552.49.658.907 1.364 1.14 2.157.197.705.331 1.425.304 2.16q-.025.633-.099 1.263a17 17 0 0 1-.133.955 6 6 0 0 1-.233.956c-1.569 4.605-8.08 2.386-6.512-2.218zm2.584 30.68q.088-.307.193-.61c.148-.44.351-.858.572-1.265.26-.464.567-.896.881-1.323a15 15 0 0 1 1.162-1.387c.479-.515 1.02-.962 1.584-1.381.58-.426 1.211-.775 1.856-1.093.679-.33 1.389-.583 2.11-.801.73-.216 1.48-.339 2.234-.43.79-.099 1.584-.083 2.374-.005.95.099 1.842.419 2.694.836.88.452 1.622 1.097 2.3 1.808.716.782 1.233 1.706 1.695 2.653.442.924.776 1.892 1.053 2.875.295 1.065.403 2.162.436 3.262.016 1.065-.122 2.122-.308 3.168-.18.985-.472 1.944-.803 2.887-.339.957-.785 1.869-1.272 2.758-.504.9-1.097 1.745-1.71 2.574-.586.778-1.2 1.535-1.812 2.293a71 71 0 0 1-1.836 2.192 85 85 0 0 1-1.865 2.037q-.845.896-1.686 1.793-.696.743-1.386 1.49c-.365.39-.72.791-1.071 1.194q-.454.524-.905 1.052-.388.458-.777.913-.355.423-.726.832a19 19 0 0 1-.756.767q-.298.286-.604.568a47 47 0 0 0-.916.852q-.17.156-.338.315-.225.213-.46.413c-1.274.818-.395.38-2.856.73-4.785-.874-3.55-7.641 1.236-6.767-2.376.357-1.546-.076-2.722.7-.297.265.044-.042.11-.106q.18-.17.362-.338l.406-.381q.255-.24.515-.475.243-.224.481-.452.235-.225.459-.46c.198-.216.385-.44.575-.661q.39-.456.777-.913.474-.556.953-1.108.59-.683 1.205-1.344.708-.767 1.42-1.527l1.683-1.79a80 80 0 0 0 1.699-1.853q.857-.982 1.673-1.998c.552-.683 1.105-1.364 1.635-2.064.431-.58.851-1.169 1.21-1.796.311-.558.596-1.13.814-1.733.212-.593.4-1.196.518-1.816.109-.588.197-1.181.2-1.78-.007-.534-.05-1.068-.186-1.586a10.7 10.7 0 0 0-.619-1.725c-.156-.33-.316-.663-.536-.957a2 2 0 0 0-.386-.365.65.65 0 0 0-.315-.128 3.3 3.3 0 0 0-.826-.003c-.36.04-.72.092-1.07.189-.361.105-.716.23-1.058.39a5.5 5.5 0 0 0-.8.454 4.4 4.4 0 0 0-.64.541c-.23.243-.448.497-.646.767-.137.186-.276.372-.398.57a.8.8 0 0 0-.091.184c-.041.113-.073.229-.107.344-1.4 4.658-7.988 2.678-6.588-1.98" transform="translate(0 -197)"/><path style="opacity:1;fill:#020900;fill-opacity:1;stroke:none;stroke-width:1;stroke-linecap:butt;stroke-linejoin:round;stroke-miterlimit:4;stroke-dasharray:none;stroke-opacity:1" d="M41.42 250.773q-.011.08-.018.16c-.01.074.023.17.046.246.084.186-.118-.096-.143-.126-.18-.214-.37-.42-.583-.603a1.15 1.15 0 0 0-.426-.229 2.3 2.3 0 0 0-.68-.12q-.276 0-.533.099a3 3 0 0 0-.582.366c-.348.27-.648.59-.932.923-.357.427-.647.901-.921 1.383a9 9 0 0 0-.679 1.592 7.6 7.6 0 0 0-.317 1.54 8.5 8.5 0 0 0 .026 1.454c.05.53.16 1.05.285 1.567.153.592.347 1.174.54 1.754q.287.855.629 1.688c.206.509.44 1.006.69 1.495.264.505.553.997.842 1.488.282.484.579.96.881 1.432.29.448.588.892.886 1.335.276.406.546.816.82 1.222q.318.468.653.924c.186.249.383.49.578.73q.27.331.546.66l.48.582.367.44.308.369.245.293c.05.064.297.35.064.082-.677-.61-.26-.296-1.309-.86 4.587 1.62 2.297 8.106-2.29 6.487-1.123-.592-.668-.259-1.419-.921a10 10 0 0 1-.326-.379l-.245-.293-.307-.368-.397-.475q-.224-.275-.452-.549-.307-.365-.61-.737c-.264-.326-.529-.653-.779-.991a37 37 0 0 1-.805-1.141c-.278-.412-.552-.827-.831-1.238a96 96 0 0 1-.97-1.463 48 48 0 0 1-1.019-1.654 40 40 0 0 1-1.041-1.853 26 26 0 0 1-.934-2.03 34 34 0 0 1-.78-2.1 31 31 0 0 1-.702-2.317c-.206-.862-.38-1.734-.454-2.619-.074-.94-.105-1.884-.001-2.823.123-1 .311-1.993.636-2.95.333-.965.717-1.913 1.226-2.8.501-.866 1.04-1.713 1.697-2.473.642-.73 1.325-1.425 2.114-1.998.839-.59 1.726-1.109 2.718-1.394.97-.26 1.96-.416 2.967-.334.952.088 1.894.263 2.782.633.857.373 1.674.828 2.369 1.463.467.428.913.878 1.312 1.37.434.54.842 1.103 1.121 1.74.259.633.458 1.286.5 1.973.028.425.036.852-.027 1.275-.656 4.82-7.472 3.893-6.816-.927" transform="translate(0 -197)"/></svg>