<?xml version="1.0" encoding="UTF-8" standalone="no"?>
<!-- Created with Inkscape (http://www.inkscape.org/) -->

<svg
   xmlns:dc="http://purl.org/dc/elements/1.1/"
   xmlns:cc="http://creativecommons.org/ns#"
   xmlns:rdf="http://www.w3.org/1999/02/22-rdf-syntax-ns#"
   xmlns:svg="http://www.w3.org/2000/svg"
   xmlns="http://www.w3.org/2000/svg"
   xmlns:sodipodi="http://sodipodi.sourceforge.net/DTD/sodipodi-0.dtd"
   xmlns:inkscape="http://www.inkscape.org/namespaces/inkscape"
   width="10cm"
   height="10cm"
   viewBox="0 0 100 99.999997"
   version="1.1"
   id="svg8"
   sodipodi:docname="olin.svg"
   inkscape:version="0.92.3 (2405546, 2018-03-11)">
  <defs
     id="defs2" />
  <sodipodi:namedview
     id="base"
     pagecolor="#ffffff"
     bordercolor="#666666"
     borderopacity="1.0"
     inkscape:pageopacity="0.0"
     inkscape:pageshadow="2"
     inkscape:zoom="1"
     inkscape:cx="175.50186"
     inkscape:cy="186.50542"
     inkscape:document-units="cm"
     inkscape:current-layer="layer1"
     showgrid="true"
     units="cm"
     inkscape:window-width="881"
     inkscape:window-height="706"
     inkscape:window-x="971"
     inkscape:window-y="214"
     inkscape:window-maximized="0"
     inkscape:snap-nodes="false">
    <inkscape:grid
       type="xygrid"
       id="grid815"
       units="cm"
       spacingx="9.9999998"
       spacingy="9.9999998" />
  </sodipodi:namedview>
  <metadata
     id="metadata5">
    <rdf:RDF>
      <cc:Work
         rdf:about="">
        <dc:format>image/svg+xml</dc:format>
        <dc:type
           rdf:resource="http://purl.org/dc/dcmitype/StillImage" />
        <dc:title></dc:title>
      </cc:Work>
    </rdf:RDF>
  </metadata>
  <g
     inkscape:label="Layer 1"
     inkscape:groupmode="layer"
     id="layer1"
     transform="translate(0,-197.00002)">
    <path
       style="opacity:1;fill:#020900;fill-opacity:1;stroke:none;stroke-width:1;stroke-linecap:butt;stroke-linejoin:round;stroke-miterlimit:4;stroke-dasharray:none;stroke-opacity:1"
       id="path1351"
       d="m 41.115982,217.89944 c -0.06389,-0.35052 -0.08063,-0.70624 -0.08478,-1.06171 -2.64e-4,-0.54543 0.09188,-1.08315 0.207434,-1.61419 0.124809,-0.54569 0.308594,-1.07483 0.505721,-1.59788 0.218485,-0.58708 0.493327,-1.14966 0.792951,-1.69891 0.348525,-0.63439 0.782177,-1.21324 1.247241,-1.76555 0.474239,-0.5487 1.011994,-1.03598 1.565053,-1.50308 0.540657,-0.45356 1.123558,-0.85128 1.720463,-1.22613 0.568108,-0.35664 1.162955,-0.66577 1.771248,-0.94716 0.664104,-0.30383 1.365613,-0.50695 2.073606,-0.67787 0.729128,-0.17898 1.474615,-0.24844 2.223233,-0.26188 0.942795,-0.0114 1.848924,0.20829 2.726843,0.5323 0.892927,0.35786 1.658255,0.93194 2.366256,1.57115 0.65641,0.60484 1.180772,1.32453 1.648905,2.0795 0.482684,0.79479 0.799962,1.66654 1.052094,2.55697 0.231442,0.85356 0.331838,1.73178 0.38267,2.6122 0.04395,0.8595 -0.02082,1.71753 -0.122651,2.57037 -0.105235,0.84843 -0.288787,1.68335 -0.504346,2.5097 -0.219884,0.82352 -0.507076,1.62625 -0.809421,2.42241 -0.297228,0.78614 -0.636564,1.55475 -1.000043,2.31219 -0.395155,0.83543 -0.874972,1.62449 -1.390184,2.39017 -0.496083,0.72365 -1.044274,1.40896 -1.606103,2.08207 -0.520623,0.62035 -1.059545,1.22493 -1.600891,1.82716 -0.506566,0.56104 -1.005284,1.12908 -1.504809,1.69638 -0.462272,0.52327 -0.927291,1.04412 -1.396008,1.56163 -0.392208,0.43232 -0.787146,0.86216 -1.182407,1.29169 -0.325205,0.35337 -0.650865,0.70631 -0.975421,1.06028 -0.276646,0.30516 -0.554352,0.60926 -0.837681,0.90823 -0.265605,0.27869 -0.542253,0.54647 -0.816555,0.81649 -0.230137,0.2276 -0.460663,0.45471 -0.696415,0.67651 -0.235053,0.22116 -0.477697,0.43398 -0.72254,0.64417 -0.19086,0.16239 -0.383045,0.32321 -0.57508,0.48421 -0.05271,0.0423 -0.105423,0.0845 -0.158133,0.12677 -3.817081,3.01519 -8.081203,-2.38297 -4.264123,-5.39816 v 0 c 7.94e-4,-8e-5 0.0019,-1.5e-4 0.0026,-2.2e-4 0.172,-0.1442 0.344114,-0.28827 0.515268,-0.43348 0.167304,-0.14344 0.333594,-0.28813 0.494128,-0.43918 0.196757,-0.18391 0.386511,-0.37501 0.578847,-0.56351 0.218006,-0.21452 0.438142,-0.42697 0.650412,-0.64723 0.257048,-0.27082 0.507672,-0.5475 0.758878,-0.82373 0.327329,-0.35698 0.655743,-0.71296 0.983734,-1.06933 0.383066,-0.41628 0.76585,-0.83283 1.145985,-1.25179 0.447135,-0.49357 0.890579,-0.99046 1.331589,-1.48951 0.515141,-0.58502 1.029547,-1.17072 1.551919,-1.74932 0.486238,-0.54079 0.970746,-1.0833 1.438704,-1.64009 0.413509,-0.49371 0.818552,-0.99515 1.18614,-1.52446 0.331393,-0.48573 0.638736,-0.98715 0.889897,-1.51988 0.280807,-0.5806 0.539993,-1.1711 0.768736,-1.77432 0.216794,-0.56845 0.426411,-1.14034 0.586542,-1.72785 0.140131,-0.52425 0.258379,-1.05436 0.328448,-1.59302 0.05785,-0.45436 0.09967,-0.91133 0.08149,-1.36999 -0.01675,-0.38594 -0.05262,-0.7714 -0.144537,-1.14769 -0.07158,-0.27935 -0.155181,-0.55655 -0.296767,-0.80975 -0.121841,-0.21329 -0.257408,-0.41935 -0.431178,-0.59463 -0.05935,-0.0594 -0.209156,-0.17126 -0.212167,-0.22593 -0.01802,-0.0378 -0.09946,-0.0575 -0.167582,-0.0605 -0.231275,-0.0107 -0.460253,0.0257 -0.685771,0.0752 -0.271565,0.0627 -0.543549,0.12953 -0.800602,0.2395 -0.342292,0.15362 -0.673426,0.3298 -0.992347,0.52771 -0.325313,0.20129 -0.643802,0.41391 -0.939024,0.65802 -0.264015,0.21993 -0.523661,0.44629 -0.756209,0.69997 -0.171225,0.1934 -0.328739,0.39866 -0.457488,0.62323 -0.148407,0.26241 -0.279125,0.53423 -0.385069,0.81676 -0.08488,0.2215 -0.168241,0.44424 -0.227825,0.67414 -0.0091,0.0322 -0.03716,0.20399 -0.03853,0.0976 -0.0073,-0.0802 -0.006,-0.0462 -0.02141,-0.14074 0.851384,4.78922 -5.921594,5.99326 -6.772976,1.20404 z"
       inkscape:connector-curvature="0" />
    <path
       style="opacity:1;fill:#020900;fill-opacity:1;stroke:none;stroke-width:1;stroke-linecap:butt;stroke-linejoin:round;stroke-miterlimit:4;stroke-dasharray:none;stroke-opacity:1"
       id="path1353"
       d="m 40.129301,217.33743 c -0.01291,0.0177 -0.04917,0.18347 -0.03133,0.0746 0.03072,-0.1842 0.05434,-0.36944 0.0754,-0.55496 0.01561,-0.23108 0.06094,-0.46232 0.05717,-0.69444 -0.01373,-0.009 -0.01138,-0.0236 -0.02484,0.0104 -0.01061,0.0332 -0.0011,0.0598 0.01069,0.094 -0.06746,-0.0316 -0.140203,-0.0908 -0.206989,-0.13391 -0.05769,-0.0447 -0.115374,-0.0338 -0.180099,-0.0407 -0.165743,-0.0235 -0.331142,-0.0227 -0.496932,-0.003 -0.26392,0.0447 -0.517933,0.1299 -0.769306,0.2196 -0.409694,0.15183 -0.800428,0.34807 -1.183629,0.55663 -0.343244,0.1846 -0.657021,0.41374 -0.951349,0.66777 -0.228817,0.19732 -0.419677,0.43024 -0.585552,0.68152 -0.112768,0.17173 -0.187341,0.36088 -0.236694,0.55921 -0.05513,0.25809 -0.06621,0.52298 -0.07584,0.7859 -0.01156,0.40839 0.01167,0.81666 0.05711,1.22238 0.03232,0.32974 0.123225,0.6464 0.236289,0.95622 0.179639,0.46892 0.391708,0.92432 0.611304,1.37558 0.228446,0.47359 0.488632,0.93029 0.764524,1.37752 0.284049,0.44989 0.593296,0.88304 0.900581,1.31715 0.345323,0.48578 0.684691,0.97574 1.021773,1.46727 0.306639,0.44725 0.613899,0.89408 0.920168,1.34158 0.260993,0.385 0.526441,0.76691 0.797838,1.14464 0.233357,0.32375 0.475374,0.64112 0.717306,0.95848 0.243695,0.31816 0.483674,0.6391 0.720016,0.96275 0.202404,0.2791 0.405979,0.55733 0.605071,0.83881 0.19246,0.27374 0.379274,0.5514 0.561699,0.83191 0.155745,0.24282 0.30143,0.49182 0.452927,0.73727 0.112959,0.18246 0.226375,0.36463 0.339739,0.54684 0.10324,0.16656 0.204041,0.33463 0.305278,0.50242 0.07181,0.11938 0.145767,0.23744 0.218612,0.35618 0.06671,0.10909 0.133636,0.21805 0.199785,0.32748 2.513634,4.16451 -3.375869,7.71932 -5.889501,3.55482 v 0 c -0.05747,-0.0955 -0.116223,-0.1902 -0.174173,-0.2854 -0.08163,-0.13309 -0.16456,-0.26539 -0.244848,-0.3993 -0.08501,-0.1409 -0.169597,-0.28207 -0.256055,-0.42209 -0.117915,-0.18951 -0.235884,-0.379 -0.353346,-0.5688 -0.124299,-0.20152 -0.245338,-0.40501 -0.370049,-0.60626 -0.132188,-0.20483 -0.269454,-0.40635 -0.408929,-0.60628 -0.178097,-0.25264 -0.361723,-0.5013 -0.542669,-0.7519 -0.208089,-0.28525 -0.419814,-0.56779 -0.634502,-0.84811 -0.281726,-0.36962 -0.563087,-0.73959 -0.834507,-1.11689 -0.301209,-0.41982 -0.596799,-0.84359 -0.886656,-1.27133 -0.30513,-0.44586 -0.611269,-0.89102 -0.916765,-1.33662 -0.317688,-0.46341 -0.637638,-0.92528 -0.9632,-1.3832 -0.393964,-0.55664 -0.788151,-1.11366 -1.148529,-1.69296 -0.392658,-0.64193 -0.764863,-1.29626 -1.091502,-1.97466 -0.336582,-0.696 -0.65968,-1.39962 -0.922374,-2.12743 -0.274585,-0.80992 -0.494067,-1.63759 -0.577303,-2.49155 -0.07522,-0.74745 -0.118811,-1.49849 -0.08713,-2.24998 0.04223,-0.84872 0.129119,-1.69773 0.378687,-2.51421 0.281284,-0.87118 0.642689,-1.71273 1.172319,-2.46536 0.522766,-0.73319 1.102696,-1.4237 1.796714,-2.00288 0.659775,-0.54745 1.353952,-1.05187 2.112634,-1.45556 0.713759,-0.38189 1.443096,-0.73699 2.208353,-1.00506 0.841102,-0.28442 1.700866,-0.52074 2.591178,-0.58077 0.880962,-0.0437 1.763408,-0.01 2.623249,0.2072 0.865086,0.23498 1.700365,0.55838 2.435322,1.08341 0.62293,0.44764 1.212546,0.94219 1.68597,1.55118 0.490146,0.65818 0.906209,1.36424 1.139815,2.15722 0.197199,0.70476 0.33112,1.42483 0.303995,2.16056 -0.01667,0.42202 -0.05019,0.84276 -0.09887,1.26236 -0.03713,0.31946 -0.07873,0.63847 -0.13352,0.95545 -0.05767,0.32325 -0.125261,0.64537 -0.232955,0.95624 -1.568831,4.60437 -8.080396,2.38571 -6.511562,-2.21866 z"
       inkscape:connector-curvature="0" />
    <path
       style="opacity:1;fill:#020900;fill-opacity:1;stroke:none;stroke-width:1;stroke-linecap:butt;stroke-linejoin:round;stroke-miterlimit:4;stroke-dasharray:none;stroke-opacity:1"
       id="path1355"
       d="m 42.714145,248.01707 c 0.05743,-0.2055 0.123764,-0.40826 0.192675,-0.61015 0.148251,-0.44027 0.351404,-0.85768 0.572627,-1.26508 0.258604,-0.46356 0.567026,-0.89616 0.88098,-1.3232 0.355664,-0.48814 0.750615,-0.94506 1.161489,-1.38702 0.479042,-0.51455 1.020946,-0.96208 1.583974,-1.38058 0.581022,-0.4259 1.211347,-0.77461 1.85589,-1.09312 0.678723,-0.32932 1.389089,-0.58264 2.109976,-0.80118 0.729784,-0.21552 1.480745,-0.33872 2.234734,-0.42982 0.789808,-0.0985 1.583089,-0.0825 2.373143,-0.005 0.950807,0.0986 1.841876,0.41881 2.694252,0.83651 0.880089,0.45162 1.621676,1.09692 2.299433,1.80767 0.716335,0.78196 1.233673,1.7063 1.696058,2.65292 0.441791,0.92375 0.775245,1.89153 1.053018,2.87541 0.294749,1.06413 0.402741,2.16146 0.4352,3.26113 0.01678,1.06537 -0.121952,2.12229 -0.307848,3.1686 -0.179342,0.98529 -0.471294,1.94335 -0.802325,2.88677 -0.339085,0.95712 -0.785699,1.86874 -1.272387,2.75799 -0.50438,0.90009 -1.097063,1.74522 -1.70979,2.57374 -0.586102,0.77836 -1.199906,1.53526 -1.812322,2.29291 -0.596373,0.7438 -1.210066,1.47326 -1.836015,2.19226 -0.607282,0.69214 -1.235694,1.36528 -1.865093,2.03723 -0.562525,0.59737 -1.12481,1.19496 -1.686216,1.79338 -0.463552,0.4949 -0.925692,0.99113 -1.385916,1.48912 -0.364945,0.391 -0.719384,0.79151 -1.070711,1.19472 -0.302948,0.34937 -0.60447,0.69998 -0.904496,1.05186 -0.25807,0.30536 -0.518168,0.60898 -0.777584,0.91319 -0.237332,0.28132 -0.478232,0.55953 -0.725678,0.832 -0.242819,0.26426 -0.498237,0.51652 -0.755746,0.76634 -0.199114,0.19176 -0.400928,0.38072 -0.604027,0.56825 -0.159137,0.1452 -0.318135,0.29055 -0.475266,0.43792 -0.146479,0.13851 -0.292971,0.277 -0.440963,0.4139 -0.113911,0.10368 -0.225438,0.20993 -0.338047,0.31501 -0.148828,0.14336 -0.304231,0.27881 -0.461005,0.41337 -1.273635,0.8181 -0.3942,0.38051 -2.855058,0.72989 -4.785175,-0.87383 -3.549404,-7.64109 1.235771,-6.76727 v 0 c -2.376022,0.3575 -1.545389,-0.0759 -2.721832,0.70094 -0.297228,0.26413 0.04419,-0.0426 0.109111,-0.10669 0.120716,-0.11262 0.240268,-0.22648 0.362371,-0.3376 0.136663,-0.12607 0.271124,-0.25448 0.406543,-0.38188 0.170481,-0.15958 0.342312,-0.31771 0.515027,-0.47487 0.161907,-0.14898 0.322178,-0.29978 0.481031,-0.45201 0.155779,-0.15055 0.3106,-0.30229 0.458833,-0.46032 0.197564,-0.21489 0.38508,-0.4387 0.574577,-0.66066 0.25936,-0.30414 0.51939,-0.6077 0.777406,-0.91298 0.31613,-0.37071 0.633775,-0.74014 0.953035,-1.10816 0.395356,-0.45353 0.794372,-0.90389 1.204693,-1.344 0.471868,-0.51055 0.945639,-1.01934 1.420923,-1.52671 0.560205,-0.59715 1.121262,-1.19349 1.682615,-1.78956 0.5728,-0.61148 1.145218,-1.22356 1.698538,-1.85285 0.570937,-0.65501 1.129713,-1.32038 1.673281,-1.99834 0.551854,-0.68268 1.105381,-1.36431 1.635315,-2.06427 0.430742,-0.57968 0.851125,-1.16848 1.210606,-1.79586 0.310333,-0.55829 0.595525,-1.13076 0.812597,-1.73265 0.212198,-0.59348 0.401304,-1.196 0.51849,-1.81638 0.108876,-0.5877 0.196821,-1.18107 0.200401,-1.78018 -0.007,-0.53375 -0.05057,-1.06722 -0.186089,-1.58558 -0.159282,-0.59079 -0.361379,-1.16906 -0.61917,-1.72466 -0.156311,-0.33058 -0.315855,-0.66322 -0.536078,-0.95714 -0.113546,-0.13706 -0.23827,-0.26412 -0.385741,-0.36522 -0.09391,-0.0709 -0.196863,-0.11277 -0.315682,-0.12815 -0.273966,-0.0424 -0.550813,-0.0307 -0.825982,-0.003 -0.360005,0.0404 -0.719368,0.0922 -1.069261,0.18879 -0.361513,0.10497 -0.716743,0.23002 -1.058068,0.38989 -0.277292,0.13253 -0.549302,0.27697 -0.801143,0.45416 -0.227393,0.16311 -0.44659,0.33813 -0.639625,0.54165 -0.230319,0.2422 -0.447579,0.4967 -0.645295,0.76639 -0.137747,0.18624 -0.276378,0.37252 -0.398094,0.56982 -0.03677,0.0582 -0.07006,0.11823 -0.09144,0.18412 -0.04109,0.11291 -0.07285,0.22883 -0.106736,0.34404 -1.400487,4.65833 -7.988368,2.67775 -6.587881,-1.98059 z"
       inkscape:connector-curvature="0" />
    <path
       style="opacity:1;fill:#020900;fill-opacity:1;stroke:none;stroke-width:1;stroke-linecap:butt;stroke-linejoin:round;stroke-miterlimit:4;stroke-dasharray:none;stroke-opacity:1"
       id="path1357"
       d="m 41.419679,250.77303 c -0.0081,0.0532 -0.0123,0.10693 -0.0172,0.16052 -0.0096,0.073 0.02297,0.17003 0.04554,0.24589 0.08361,0.18589 -0.118292,-0.0969 -0.143097,-0.12666 -0.180761,-0.21357 -0.370332,-0.42012 -0.582718,-0.60263 -0.12418,-0.11349 -0.270174,-0.17629 -0.426324,-0.22912 -0.21989,-0.075 -0.448757,-0.11145 -0.680267,-0.11918 -0.182592,-2.7e-4 -0.362299,0.0319 -0.532244,0.098 -0.211942,0.0915 -0.399619,0.22759 -0.582647,0.36613 -0.34748,0.26908 -0.647276,0.59051 -0.932024,0.92342 -0.356624,0.42622 -0.646988,0.90096 -0.920882,1.38285 -0.283729,0.50476 -0.495747,1.04337 -0.678773,1.5913 -0.163954,0.50039 -0.260006,1.01757 -0.316544,1.53998 -0.04197,0.48455 -0.01638,0.97103 0.02572,1.45447 0.04895,0.52984 0.158898,1.05074 0.285139,1.56674 0.152995,0.59273 0.346694,1.17385 0.540319,1.75425 0.188772,0.57013 0.401558,1.13161 0.627909,1.68774 0.206465,0.50923 0.439822,1.00652 0.690036,1.49552 0.264747,0.50485 0.55304,0.99683 0.841938,1.4881 0.282716,0.48397 0.57948,0.95943 0.881804,1.43132 0.290253,0.44846 0.588026,0.89197 0.88597,1.33533 0.275836,0.40577 0.545635,0.81561 0.820579,1.22198 0.211397,0.3122 0.42917,0.62002 0.652537,0.92376 0.186015,0.24878 0.382426,0.48951 0.577961,0.73081 0.17934,0.22183 0.362683,0.44038 0.545486,0.65936 0.161531,0.19281 0.319947,0.3882 0.479954,0.58227 0.122087,0.14721 0.245012,0.29373 0.367607,0.44051 0.102502,0.12275 0.204996,0.2455 0.307493,0.36824 0.08166,0.0978 0.16332,0.19559 0.244978,0.29339 0.05022,0.0634 0.297217,0.34946 0.06398,0.0816 -0.677278,-0.61037 -0.260249,-0.2964 -1.308753,-0.85997 4.586906,1.61918 2.297041,8.10605 -2.289869,6.48687 v 0 c -1.123619,-0.59204 -0.668707,-0.25869 -1.419203,-0.92112 -0.111125,-0.12425 -0.221634,-0.24868 -0.326523,-0.37826 -0.08166,-0.0978 -0.163311,-0.19558 -0.244969,-0.29337 -0.10236,-0.12259 -0.204719,-0.24518 -0.307086,-0.36776 -0.132258,-0.15836 -0.264883,-0.31641 -0.396476,-0.47532 -0.150643,-0.18287 -0.299982,-0.36682 -0.452001,-0.54856 -0.204298,-0.24472 -0.409017,-0.48913 -0.609404,-0.73707 -0.264636,-0.32662 -0.529209,-0.65348 -0.779134,-0.99161 -0.275196,-0.37554 -0.544881,-0.7551 -0.80554,-1.14091 -0.278273,-0.41186 -0.552178,-0.82667 -0.831334,-1.23794 -0.326335,-0.48564 -0.65233,-0.97154 -0.969767,-1.46306 -0.349054,-0.54551 -0.691827,-1.09506 -1.018627,-1.65427 -0.358886,-0.61067 -0.715637,-1.22306 -1.041464,-1.85222 -0.337351,-0.66448 -0.654785,-1.33886 -0.934119,-2.03005 -0.280432,-0.69215 -0.545322,-1.39045 -0.779994,-2.09961 -0.25517,-0.76581 -0.506593,-1.5338 -0.70181,-2.31755 -0.206045,-0.8626 -0.379736,-1.73399 -0.453946,-2.61916 -0.07383,-0.93925 -0.105381,-1.88372 -0.0011,-2.82249 0.123301,-1.00113 0.31134,-1.99365 0.636667,-2.95103 0.332462,-0.96465 0.716623,-1.91198 1.225354,-2.79912 0.501229,-0.8668 1.041119,-1.71359 1.697492,-2.47317 0.64148,-0.73024 1.324735,-1.42564 2.114093,-1.9985 0.838139,-0.58982 1.72557,-1.1082 2.717993,-1.39374 0.969152,-0.25955 1.959697,-0.41589 2.966616,-0.33413 0.952315,0.0886 1.893856,0.26357 2.781613,0.6332 0.857866,0.37297 1.67391,0.8282 2.369095,1.46308 0.467272,0.42749 0.912809,0.87783 1.31215,1.37039 0.43433,0.5388 0.841785,1.10255 1.1215,1.73982 0.258287,0.63268 0.457391,1.28576 0.499277,1.9724 0.02856,0.42532 0.03596,0.85267 -0.02675,1.2757 -0.655743,4.8199 -7.472116,3.89255 -6.816373,-0.92736 z"
       inkscape:connector-curvature="0" />
  </g>
</svg>
