<?xml version="1.0" encoding="UTF-8" standalone="no"?>
<!-- Created with Inkscape (http://www.inkscape.org/) -->

<svg
   xmlns:dc="http://purl.org/dc/elements/1.1/"
   xmlns:cc="http://creativecommons.org/ns#"
   xmlns:rdf="http://www.w3.org/1999/02/22-rdf-syntax-ns#"
   xmlns:svg="http://www.w3.org/2000/svg"
   xmlns="http://www.w3.org/2000/svg"
   xmlns:sodipodi="http://sodipodi.sourceforge.net/DTD/sodipodi-0.dtd"
   xmlns:inkscape="http://www.inkscape.org/namespaces/inkscape"
   width="10cm"
   height="10cm"
   viewBox="0 0 100 99.999997"
   version="1.1"
   id="svg8"
   sodipodi:docname="ona.svg"
   inkscape:version="0.92.3 (2405546, 2018-03-11)">
  <defs
     id="defs2" />
  <sodipodi:namedview
     id="base"
     pagecolor="#ffffff"
     bordercolor="#666666"
     borderopacity="1.0"
     inkscape:pageopacity="0.0"
     inkscape:pageshadow="2"
     inkscape:zoom="1"
     inkscape:cx="175.50186"
     inkscape:cy="160.37856"
     inkscape:document-units="cm"
     inkscape:current-layer="layer1"
     showgrid="true"
     units="cm"
     inkscape:window-width="882"
     inkscape:window-height="707"
     inkscape:window-x="784"
     inkscape:window-y="204"
     inkscape:window-maximized="1"
     inkscape:snap-nodes="false">
    <inkscape:grid
       type="xygrid"
       id="grid815"
       units="cm"
       spacingx="9.9999998"
       spacingy="9.9999998" />
  </sodipodi:namedview>
  <metadata
     id="metadata5">
    <rdf:RDF>
      <cc:Work
         rdf:about="">
        <dc:format>image/svg+xml</dc:format>
        <dc:type
           rdf:resource="http://purl.org/dc/dcmitype/StillImage" />
        <dc:title></dc:title>
      </cc:Work>
    </rdf:RDF>
  </metadata>
  <g
     inkscape:label="Layer 1"
     inkscape:groupmode="layer"
     id="layer1"
     transform="translate(0,-197.00002)">
    <path
       style="opacity:1;fill:#020900;fill-opacity:1;stroke:none;stroke-width:1;stroke-linecap:butt;stroke-linejoin:round;stroke-miterlimit:4;stroke-dasharray:none;stroke-opacity:1"
       id="path30"
       d="m 11.497651,252.81369 c 0.381599,-0.0824 0.771599,-0.0958 1.160121,-0.0763 0.226384,0.0136 0.451095,0.045 0.674822,0.081 0.209656,0.0349 0.417897,0.0777 0.625677,0.12221 0.273838,0.0581 0.542331,0.13738 0.810276,0.21768 0.192173,0.0571 0.382963,0.1189 0.575787,0.17381 0.181367,0.0493 0.36528,0.0885 0.548394,0.13072 0.30731,0.0707 0.611786,0.15286 0.917722,0.2291 0.247472,0.0635 0.49824,0.11229 0.749679,0.15696 0.331944,0.0567 0.665628,0.10242 0.999119,0.14887 0.475947,0.0636 0.949057,0.14502 1.420269,0.23693 0.420194,0.0876 0.83913,0.1809 1.259826,0.26612 0.405369,0.081 0.811783,0.15669 1.218056,0.23302 0.393565,0.0748 0.789084,0.13839 1.18532,0.19711 0.43368,0.064 0.869448,0.11203 1.305469,0.15672 0.525564,0.0525 1.052107,0.0944 1.578635,0.13582 0.623091,0.0471 1.245293,0.1049 1.867315,0.16428 0.610431,0.06 1.2216,0.11176 1.832931,0.16152 0.656746,0.051 1.313566,0.10078 1.969971,0.15606 0.688096,0.061 1.375613,0.12818 2.063718,0.18907 0.694907,0.061 1.39066,0.11162 2.08661,0.15903 0.723222,0.0486 1.446919,0.0896 2.170716,0.12844 0.719759,0.0375 1.439965,0.0654 2.160166,0.0927 0.720003,0.0271 1.440141,0.0502 2.160321,0.072 0.715446,0.0207 1.431104,0.0318 2.146805,0.0386 0.728519,0.007 1.457068,0.008 2.185614,0.008 0.705088,-2.7e-4 1.410179,-0.001 2.115267,-0.002 0.652267,10e-4 1.304497,-0.002 1.956658,-0.0141 0.652811,-0.0144 1.305573,-0.0308 1.958369,-0.046 0.60974,-0.0143 1.219464,-0.0294 1.82895,-0.0523 0.565852,-0.0234 1.131052,-0.0596 1.696056,-0.0979 0.547899,-0.0372 1.094984,-0.0846 1.641724,-0.13577 0.524274,-0.0486 1.047739,-0.10514 1.570807,-0.1652 0.470213,-0.0545 0.938911,-0.12044 1.406266,-0.19535 0.481592,-0.0819 0.961028,-0.17583 1.441048,-0.26633 0.505275,-0.096 1.011391,-0.1874 1.517041,-0.28134 0.496292,-0.093 0.991606,-0.19112 1.486384,-0.29183 0.448519,-0.0892 0.892384,-0.199 1.333553,-0.31895 0.420598,-0.11406 0.831192,-0.26005 1.238917,-0.41295 0.454959,-0.17145 0.903774,-0.35849 1.348595,-0.5546 0.437462,-0.19197 0.865333,-0.40437 1.288536,-0.62571 0.399188,-0.20891 0.790787,-0.43168 1.175647,-0.66583 0.37284,-0.23025 0.735455,-0.47645 1.095687,-0.7258 0.321284,-0.22196 0.633818,-0.45608 0.938152,-0.70069 0.255759,-0.20652 0.498195,-0.42871 0.734893,-0.6566 0.236252,-0.22978 0.460309,-0.4715 0.679853,-0.71714 0.198077,-0.22251 0.379402,-0.45892 0.555527,-0.69893 0.195802,-0.27226 0.379092,-0.55329 0.563732,-0.83318 0.19744,-0.29783 0.390535,-0.59849 0.58466,-0.89848 0.181578,-0.28227 0.371025,-0.55934 0.553879,-0.84077 0.126113,-0.19311 0.233389,-0.39725 0.340418,-0.60125 0.122526,-0.23392 0.240279,-0.47027 0.352726,-0.70918 0.06808,-0.15383 0.145167,-0.30462 0.198856,-0.46418 -0.02429,0.0569 -0.01434,-0.0136 -0.01275,-0.0344 0.0093,-0.12235 0.0096,-0.24499 0.0065,-0.36758 -0.01116,-0.22275 -0.03387,-0.44467 -0.05684,-0.66645 -0.02098,-0.21711 -0.05483,-0.43247 -0.100745,-0.64562 -0.05707,-0.25429 -0.135006,-0.50327 -0.210815,-0.75242 -0.09223,-0.31357 -0.200718,-0.62166 -0.322172,-0.92498 -0.121327,-0.29594 -0.260858,-0.58387 -0.401976,-0.87074 -0.115758,-0.23988 -0.248161,-0.47052 -0.396706,-0.69142 -0.148275,-0.21931 -0.320498,-0.42021 -0.494657,-0.61898 -0.265949,-0.29726 -0.540015,-0.58712 -0.815073,-0.87593 -0.244583,-0.25897 -0.499187,-0.5077 -0.770088,-0.73901 -0.289743,-0.24021 -0.592572,-0.46396 -0.898425,-0.68307 -0.286173,-0.20938 -0.58611,-0.39808 -0.895275,-0.57131 -0.144471,-0.0942 -0.295487,-0.1483 -0.462746,-0.17495 -0.26983,-0.0354 -0.542018,-0.0398 -0.813721,-0.0414 -0.498141,0.002 -0.995682,0.0285 -1.491988,0.0695 -0.548256,0.0462 -1.092388,0.12834 -1.633238,0.22776 -0.512665,0.0968 -1.015852,0.23488 -1.512316,0.39391 -0.515332,0.16731 -1.013971,0.3796 -1.50527,0.6068 -0.53216,0.24936 -1.054386,0.519 -1.568546,0.80344 -0.470551,0.26356 -0.920639,0.56087 -1.362707,0.86921 -0.45334,0.31641 -0.889767,0.65584 -1.316329,1.00724 -0.368863,0.30545 -0.708712,0.6432 -1.040675,0.98773 -0.297285,0.30943 -0.569322,0.64105 -0.829183,0.98208 -0.239056,0.31654 -0.459941,0.64609 -0.665794,0.98501 -0.166291,0.26992 -0.29903,0.55745 -0.417854,0.85071 -0.121828,0.31194 -0.210154,0.63519 -0.294259,0.95887 -0.08049,0.32075 -0.151358,0.64413 -0.197948,0.97163 -0.03374,0.24681 -0.04525,0.49587 -0.04682,0.74474 -0.0034,0.16784 0.01543,0.3336 0.05181,0.49705 0.04253,0.17763 0.114017,0.34611 0.185182,0.51368 0.130974,0.29844 0.275383,0.59085 0.426802,0.87938 0.124505,0.23691 0.265078,0.46491 0.415702,0.68599 0.07174,0.10752 0.16255,0.19841 0.259834,0.28252 0.135017,0.11246 0.282713,0.20794 0.430901,0.3018 0.241215,0.15085 0.490262,0.28848 0.740508,0.4236 0.289991,0.15323 0.580358,0.30573 0.870561,0.45855 0.255363,0.13351 0.508648,0.271 0.765368,0.4019 0.190572,0.0976 0.386993,0.18284 0.584242,0.26586 0.205793,0.0866 0.414325,0.16637 0.624512,0.2416 0.205219,0.0727 0.41192,0.14102 0.619337,0.20711 0.179877,0.0584 0.362495,0.10772 0.544899,0.1575 0.184978,0.0503 0.372308,0.0913 0.559255,0.13348 0.212455,0.0474 0.425368,0.0927 0.638969,0.13471 0.207996,0.0404 0.416806,0.0765 0.62571,0.11193 0.193238,0.0328 0.386749,0.064 0.580514,0.0936 0.172114,0.0261 0.344358,0.0514 0.516769,0.0755 0.148807,0.0205 0.297815,0.0395 0.446899,0.0579 0.134681,0.0166 0.269576,0.0314 0.404487,0.046 0.102593,0.0111 0.205346,0.0213 0.308145,0.0297 0.08727,0.005 0.174641,0.007 0.261977,0.01 0.115144,0.004 0.230296,0.007 0.345448,0.0105 0.07051,8e-4 0.141031,0.001 0.211548,0.002 0.07706,5.2e-4 0.154114,0.001 0.231169,0.002 0.06918,5.3e-4 0.138361,8e-4 0.207544,10e-4 0.06897,2.6e-4 0.137938,7.9e-4 0.206907,0.001 0.05987,2.7e-4 0.119742,5.3e-4 0.179612,8e-4 0.04841,2.1e-4 0.09682,5.3e-4 0.145227,5.3e-4 0.04208,1.7e-4 0.08416,2.6e-4 0.126236,5.3e-4 0.03429,1.3e-4 0.06857,2.6e-4 0.102859,5.3e-4 0.03291,1.3e-4 0.06582,2.2e-4 0.09873,2.6e-4 0.03813,9e-5 0.07625,1.7e-4 0.11438,2.5e-4 0.0418,1e-4 0.08361,1.5e-4 0.125407,2e-4 0.04649,7e-5 0.09297,1.2e-4 0.139464,1.7e-4 0.0877,-5.3e-4 0.175382,10e-4 0.26303,0.004 0.197025,0.006 0.392176,0.0331 0.585968,0.0672 0.1529,0.0268 0.303453,0.0643 0.453239,0.10457 0.206706,0.0573 0.405445,0.13739 0.600948,0.22458 0.704845,0.28373 1.200452,0.83068 1.634964,1.43107 0.251425,0.46988 0.146126,0.24418 0.324839,0.67284 1.718228,4.55073 -4.717478,6.98067 -6.435706,2.42994 v 0 c 0.135686,0.31268 0.05375,0.14169 0.255616,0.50817 0.37355,0.50525 0.813671,0.99099 1.395876,1.23059 0.02035,0.008 0.284255,0.11502 0.355171,0.12341 0.09545,0.0251 0.117893,0.0317 0.208518,0.0474 0.112737,0.016 0.226272,0.0268 0.339929,0.0337 0.107664,0.002 0.102362,0.002 0.01003,10e-4 -0.04692,-5e-5 -0.09384,-1.1e-4 -0.140764,-1.7e-4 -0.04361,-6e-5 -0.08722,-1.1e-4 -0.130828,-2.1e-4 -0.03919,-8e-5 -0.07839,-1.6e-4 -0.117576,-2.6e-4 -0.03615,-10e-5 -0.07229,-1.9e-4 -0.108439,-2.6e-4 -0.0343,-1.4e-4 -0.06861,-2.7e-4 -0.102907,-5.3e-4 -0.04277,-1.7e-4 -0.08553,-2.7e-4 -0.128294,-5.3e-4 -0.04883,-2.1e-4 -0.09765,-5.3e-4 -0.146473,-5.3e-4 -0.06017,-2.7e-4 -0.120333,-5.3e-4 -0.180497,-8e-4 -0.07064,-2.6e-4 -0.141274,-7.9e-4 -0.211912,-10e-4 -0.07216,-2.7e-4 -0.14432,-8e-4 -0.21648,-0.001 -0.07905,-5.3e-4 -0.158112,-10e-4 -0.237167,-0.002 -0.121703,-8e-4 -0.243417,-0.002 -0.36509,-0.005 -0.122159,-0.004 -0.244322,-0.007 -0.366472,-0.0112 -0.180896,-0.006 -0.361852,-0.0118 -0.542407,-0.0249 -0.180763,-0.0141 -0.361267,-0.0311 -0.541509,-0.0509 -0.169169,-0.0183 -0.338299,-0.037 -0.507175,-0.0579 -0.186078,-0.023 -0.372067,-0.0467 -0.557789,-0.0725 -0.201065,-0.0282 -0.401968,-0.0575 -0.602689,-0.0881 -0.230979,-0.0353 -0.46169,-0.0724 -0.692052,-0.11158 -0.269412,-0.0457 -0.538641,-0.0926 -0.806831,-0.14516 -0.274788,-0.0544 -0.548889,-0.1121 -0.822206,-0.17347 -0.2863,-0.0647 -0.572643,-0.12954 -0.855721,-0.20737 -0.276545,-0.0755 -0.552796,-0.15233 -0.825605,-0.24059 -0.286772,-0.0917 -0.572622,-0.18633 -0.856211,-0.28751 -0.326834,-0.11798 -0.65151,-0.24193 -0.971621,-0.37723 -0.352264,-0.14909 -0.701876,-0.30467 -1.042289,-0.47946 -0.280165,-0.14374 -0.557924,-0.29207 -0.836512,-0.43884 -0.313079,-0.16489 -0.626499,-0.32913 -0.939014,-0.49509 -0.404583,-0.21927 -0.80617,-0.44453 -1.194279,-0.69213 -0.504481,-0.32768 -0.996236,-0.67684 -1.435169,-1.09029 -0.458049,-0.44114 -0.888455,-0.91083 -1.240372,-1.44288 -0.288684,-0.43316 -0.563221,-0.87596 -0.803045,-1.3384 -0.244207,-0.4702 -0.479025,-0.94567 -0.68526,-1.43395 -0.249542,-0.61121 -0.47009,-1.23544 -0.590965,-1.88651 -0.108337,-0.6103 -0.179531,-1.22656 -0.166182,-1.8477 0.0099,-0.5617 0.04015,-1.12345 0.124057,-1.67959 0.08821,-0.56639 0.199631,-1.12882 0.344882,-1.68358 0.164857,-0.6253 0.347329,-1.24685 0.592688,-1.84608 0.261411,-0.62511 0.55231,-1.23793 0.909299,-1.81504 0.333348,-0.54078 0.685292,-1.07003 1.071279,-1.57501 0.421606,-0.54769 0.862092,-1.08086 1.342935,-1.5781 0.515623,-0.53189 1.046078,-1.05027 1.618941,-1.52103 0.570063,-0.46741 1.152339,-0.92001 1.757751,-1.34108 0.63759,-0.44188 1.287039,-0.86728 1.96591,-1.24374 0.662456,-0.36455 1.334047,-0.71243 2.0199,-1.03116 0.751377,-0.34348 1.514078,-0.66348 2.302074,-0.91438 0.774052,-0.24284 1.557353,-0.45686 2.356059,-0.60312 0.765471,-0.13809 1.535263,-0.25328 2.310953,-0.31645 0.70622,-0.0559 1.41407,-0.0944 2.122789,-0.0913 0.789776,0.0112 1.581801,0.0543 2.353987,0.23407 0.781838,0.19884 1.542632,0.46524 2.240039,0.87837 0.520139,0.29715 1.029055,0.61347 1.51316,0.96701 0.474866,0.3418 0.944396,0.69179 1.390039,1.07135 0.434097,0.37877 0.8529,0.77411 1.247304,1.19441 0.344736,0.36225 0.688094,0.72597 1.019567,1.10046 0.377007,0.43421 0.740973,0.88036 1.057658,1.36126 0.30112,0.46264 0.581843,0.93801 0.821682,1.43574 0.220811,0.45028 0.436216,0.90356 0.622739,1.36935 0.188733,0.47926 0.362495,0.96416 0.508506,1.45834 0.136837,0.45073 0.270676,0.90299 0.366535,1.36459 0.08901,0.43968 0.16305,0.88226 0.206055,1.32907 0.04349,0.42427 0.08336,0.84935 0.09236,1.27601 0.0044,0.44049 -0.0054,0.88155 -0.05943,1.3193 -0.06734,0.51026 -0.16415,1.01723 -0.338645,1.50308 -0.134377,0.36565 -0.284724,0.72471 -0.452652,1.07634 -0.155107,0.32773 -0.315928,0.65271 -0.484651,0.97367 -0.20657,0.39211 -0.420441,0.78065 -0.663384,1.15174 -0.179983,0.27619 -0.364911,0.54908 -0.544145,0.82576 -0.205184,0.31701 -0.409297,0.63472 -0.617969,0.94946 -0.250962,0.38031 -0.501351,0.76132 -0.770403,1.1292 -0.306646,0.4142 -0.623239,0.8213 -0.967573,1.20517 -0.336619,0.37499 -0.680691,0.74348 -1.043646,1.0933 -0.385712,0.36852 -0.780487,0.72786 -1.197089,1.06148 -0.430244,0.34317 -0.869521,0.67484 -1.322885,0.98705 -0.473842,0.32737 -0.95132,0.64985 -1.442646,0.95061 -0.511,0.30891 -1.029269,0.60559 -1.558864,0.88164 -0.559242,0.2913 -1.124474,0.57114 -1.702176,0.82429 -0.56421,0.24755 -1.132877,0.48501 -1.709877,0.70137 -0.60846,0.22668 -1.222166,0.44009 -1.849525,0.60914 -0.582083,0.15696 -1.167403,0.30178 -1.75881,0.41964 -0.533141,0.10843 -1.066832,0.21418 -1.60161,0.31425 -0.499568,0.0928 -0.999577,0.18318 -1.498777,0.27792 -0.543378,0.10245 -1.086096,0.20887 -1.631612,0.2995 -0.567071,0.0902 -1.135589,0.17083 -1.706073,0.23645 -0.570806,0.0655 -1.142047,0.12709 -1.714161,0.18012 -0.60543,0.0566 -1.211257,0.10887 -1.817965,0.14998 -0.634336,0.0429 -1.268905,0.0832 -1.904212,0.10884 -0.641876,0.0238 -1.283975,0.0405 -1.926121,0.0553 -0.665054,0.0154 -1.330077,0.0323 -1.995152,0.0467 -0.690692,0.0122 -1.38145,0.0168 -2.072254,0.0152 -0.707437,7.9e-4 -1.414875,0.002 -2.122315,0.002 -0.750263,-2e-5 -1.500532,-0.002 -2.250768,-0.009 -0.763188,-0.007 -1.526328,-0.0192 -2.289244,-0.0414 -0.737838,-0.0223 -1.475637,-0.046 -2.213292,-0.0738 -0.756349,-0.0287 -1.512697,-0.0582 -2.268572,-0.0977 -0.756716,-0.0407 -1.513327,-0.0836 -2.269437,-0.13445 -0.742294,-0.0506 -1.484374,-0.10472 -2.225551,-0.16991 -0.678349,-0.0601 -1.356164,-0.1259 -2.034461,-0.18654 -0.64997,-0.0548 -1.300382,-0.10371 -1.950672,-0.15446 -0.643284,-0.0524 -1.286385,-0.10701 -1.928733,-0.17 -0.583988,-0.0558 -1.168135,-0.11017 -1.753143,-0.15434 -0.581093,-0.0457 -1.162176,-0.0923 -1.742167,-0.15066 -0.539008,-0.0555 -1.077614,-0.11587 -1.61369,-0.19544 -0.48265,-0.0719 -0.96447,-0.14955 -1.443928,-0.24062 -0.438659,-0.0824 -0.877452,-0.16421 -1.315082,-0.25197 -0.406068,-0.0824 -0.810912,-0.17041 -1.216018,-0.25738 -0.346947,-0.0685 -0.69554,-0.12765 -1.046169,-0.17425 -0.422331,-0.0589 -0.844793,-0.11762 -1.264868,-0.19122 -0.403399,-0.0728 -0.805582,-0.15282 -1.202938,-0.25416 -0.264632,-0.0663 -0.528272,-0.1366 -0.793789,-0.19933 -0.304544,-0.0702 -0.609895,-0.13771 -0.910285,-0.22452 -0.215467,-0.0625 -0.42984,-0.12859 -0.644441,-0.194 -0.09501,-0.0285 -0.189462,-0.0593 -0.285874,-0.0828 -0.09929,-0.0217 -0.19884,-0.0425 -0.298947,-0.06 -0.09774,-0.0155 0.01569,10e-4 0.03746,-7.9e-4 0.223251,0.008 0.446932,-0.01 0.665257,-0.0582 -4.7604614,0.99974 -6.174304,-5.73257 -1.413843,-6.73231 z"
       inkscape:connector-curvature="0" />
  </g>
</svg>
