<svg viewBox="0 0 100 100"><path style="opacity:1;fill:#020900;fill-opacity:1;stroke:none;stroke-width:1;stroke-linecap:butt;stroke-linejoin:round;stroke-miterlimit:4;stroke-dasharray:none;stroke-opacity:1" d="M11.498 252.814a4.4 4.4 0 0 1 1.16-.077c.226.014.45.045.675.081q.314.054.625.123c.274.058.543.137.81.217.193.057.384.12.576.174.182.05.366.089.549.13.307.072.612.154.917.23.248.063.499.112.75.157.332.057.666.102 1 .149.475.063.948.145 1.42.237.42.087.839.18 1.26.266q.608.119 1.217.233.591.11 1.186.197c.433.064.87.112 1.305.157.526.052 1.052.094 1.579.135q.934.074 1.867.165c.61.06 1.222.111 1.833.161q.986.075 1.97.156c.688.061 1.376.128 2.064.19q1.042.089 2.086.158 1.085.072 2.171.129c.72.037 1.44.065 2.16.093q1.08.04 2.16.072 1.074.029 2.147.038 1.093.01 2.186.008 1.058 0 2.115-.002.98.003 1.957-.014.979-.021 1.958-.046.915-.02 1.83-.052a65 65 0 0 0 3.337-.234 72 72 0 0 0 1.57-.165q.706-.083 1.407-.195c.482-.082.961-.176 1.441-.267q.759-.142 1.517-.281.744-.14 1.487-.292c.448-.09.892-.199 1.333-.319.42-.114.831-.26 1.239-.413q.682-.258 1.349-.554c.437-.192.865-.405 1.288-.626q.599-.315 1.176-.666c.373-.23.735-.476 1.095-.726q.482-.333.939-.7a12 12 0 0 0 1.415-1.374 10 10 0 0 0 .555-.7c.196-.271.379-.552.564-.832q.294-.448.584-.899c.182-.282.371-.56.554-.84.126-.194.234-.398.34-.602q.184-.35.353-.709c.068-.154.146-.305.2-.464-.025.057-.015-.014-.014-.035q.013-.184.007-.367a13 13 0 0 0-.057-.667 6 6 0 0 0-.1-.645c-.058-.255-.136-.504-.211-.753q-.14-.47-.323-.925c-.121-.296-.26-.584-.402-.87a6 6 0 0 0-.396-.692 6 6 0 0 0-.495-.619 38 38 0 0 0-.815-.876 10 10 0 0 0-.77-.739 16 16 0 0 0-.899-.683 9 9 0 0 0-.895-.571 1.2 1.2 0 0 0-.463-.175 7 7 0 0 0-.813-.041 17 17 0 0 0-3.125.297c-.513.097-1.016.235-1.513.394-.515.167-1.014.38-1.505.607q-.797.375-1.569.803c-.47.264-.92.56-1.362.87-.454.316-.89.655-1.317 1.006-.369.306-.708.644-1.04.988-.298.31-.57.641-.83.982q-.358.476-.665.985a6 6 0 0 0-.418.85c-.122.313-.21.636-.294.96-.08.32-.152.644-.198.971a6 6 0 0 0-.047.745q-.005.252.052.497c.042.178.114.346.185.514q.197.446.427.88.188.354.415.685c.072.108.163.199.26.283.135.112.283.208.431.302.241.15.49.288.74.423l.871.459c.255.133.509.27.765.402a12 12 0 0 0 1.209.507q.308.109.62.207c.18.059.362.108.544.158.185.05.373.091.56.133q.318.072.639.135.312.059.625.112a36 36 0 0 0 1.949.273l.308.03.262.01.346.01.211.002.231.002.208.001.207.001h.18l.145.001h.126l.316.002h.265q.13 0 .263.004c.197.006.392.033.586.067a4.3 4.3 0 0 1 1.054.33c.705.283 1.2.83 1.635 1.43.251.47.146.245.325.674 1.718 4.55-4.718 6.98-6.436 2.43.136.312.054.141.256.508.373.505.813.99 1.395 1.23.02.008.285.115.356.124.095.025.118.031.208.047a4 4 0 0 0 .35.035h-.389l-.108-.001h-.103l-.129-.001h-.146l-.18-.002h-.213l-.216-.002q-.12 0-.237-.002-.183 0-.365-.005l-.367-.01c-.18-.007-.362-.013-.542-.026q-.271-.02-.542-.05a33 33 0 0 1-1.667-.219 42 42 0 0 1-1.5-.257 33 33 0 0 1-.821-.173 19 19 0 0 1-1.682-.448 27 27 0 0 1-.856-.288 20 20 0 0 1-.972-.377 16 16 0 0 1-1.042-.48q-.42-.216-.836-.438l-.94-.495c-.404-.22-.806-.445-1.194-.692-.504-.328-.996-.677-1.435-1.09-.458-.442-.888-.912-1.24-1.444a14 14 0 0 1-.803-1.338 20 20 0 0 1-.686-1.434c-.25-.611-.47-1.235-.59-1.886a9.4 9.4 0 0 1-.167-1.848c.01-.562.04-1.124.124-1.68.089-.566.2-1.129.345-1.683.165-.626.348-1.247.593-1.846.261-.626.552-1.238.91-1.815a18.4 18.4 0 0 1 2.414-3.153 20 20 0 0 1 1.618-1.522c.57-.467 1.153-.92 1.758-1.34a23 23 0 0 1 1.966-1.244 33 33 0 0 1 2.02-1.032 21 21 0 0 1 2.302-.914 20 20 0 0 1 2.356-.603 24 24 0 0 1 4.434-.408c.79.011 1.582.054 2.354.234.782.2 1.542.465 2.24.879.52.297 1.029.613 1.513.967.475.341.944.691 1.39 1.071.434.379.853.774 1.247 1.194.345.363.688.726 1.02 1.1a13 13 0 0 1 1.058 1.362c.3.463.581.938.821 1.436.221.45.436.903.623 1.37.189.478.362.963.509 1.458.136.45.27.903.366 1.364.09.44.163.882.206 1.33.044.423.083.849.092 1.275a10 10 0 0 1-.059 1.32 7.2 7.2 0 0 1-.339 1.503q-.2.548-.452 1.076-.232.492-.485.974c-.206.392-.42.78-.663 1.151-.18.277-.365.55-.544.826q-.308.476-.618.95c-.251.38-.502.76-.77 1.129-.307.414-.624.821-.968 1.205a21 21 0 0 1-1.044 1.093c-.386.369-.78.728-1.197 1.062-.43.343-.87.675-1.323.987-.474.327-.951.65-1.443.95q-.764.466-1.559.882a28 28 0 0 1-1.702.824 34 34 0 0 1-1.71.702c-.608.226-1.222.44-1.85.609a27 27 0 0 1-1.758.42q-.8.163-1.602.314-.75.137-1.498.278c-.544.102-1.086.208-1.632.3q-.85.136-1.706.236a79 79 0 0 1-3.532.33 67 67 0 0 1-1.904.108q-.963.035-1.926.056-.997.024-1.996.046-1.035.018-2.072.016l-2.122.002q-1.125.001-2.25-.01-1.146-.009-2.29-.04-1.107-.034-2.213-.075-1.135-.04-2.269-.097-1.135-.06-2.27-.135c-.742-.05-1.484-.104-2.225-.17-.678-.06-1.356-.125-2.034-.186-.65-.055-1.3-.104-1.951-.155q-.965-.077-1.929-.17a88 88 0 0 0-1.753-.154 80 80 0 0 1-1.742-.15 36 36 0 0 1-1.614-.196q-.724-.106-1.444-.24-.657-.123-1.315-.253-.608-.125-1.216-.257a17 17 0 0 0-1.046-.174c-.422-.06-.845-.118-1.265-.191a17 17 0 0 1-1.203-.255c-.265-.066-.528-.136-.794-.199-.304-.07-.61-.138-.91-.224q-.323-.096-.644-.194c-.095-.029-.19-.06-.286-.083a7 7 0 0 0-.3-.06c-.097-.016.016 0 .038-.001q.336.013.665-.058c-4.76 1-6.174-5.733-1.413-6.733z" transform="translate(0 -197)"/></svg>