<svg viewBox="0 0 100 100"><path style="opacity:1;fill:#020900;fill-opacity:1;stroke:none;stroke-width:1;stroke-linecap:butt;stroke-linejoin:round;stroke-miterlimit:4;stroke-dasharray:none;stroke-opacity:1" d="M23.249 215.115q.11.438.202.882c.127.637.208 1.282.29 1.926q.164 1.38.33 2.759l.425 3.445c.152 1.23.284 2.462.409 3.695.123 1.23.229 2.461.33 3.693a333 333 0 0 1 .468 6.736q.088 1.58.193 3.156.114 1.67.215 3.34a353 353 0 0 1 .347 6.929l.124 3.06q.057 1.35.088 2.7c.016.798.02 1.597.022 2.395a190 190 0 0 1-.045 4.356q-.019 1.004-.045 2.007-.028.91-.063 1.821c-.023.584-.055 1.166-.085 1.75l-.079 1.568q-.033.674-.062 1.347l-.05 1.151-.04.922-.033.734-.025.586-.02.467-.016.375-.012.371c.033-.66-.225-1.249-.553-1.803a2.8 2.8 0 0 0-1.083-.924c-.113-.037.236.03.354.048.432.066.867.105 1.303.138q.922.067 1.848.082c.704.008 1.407-.023 2.11-.057q1.134-.058 2.265-.157a39 39 0 0 0 2.16-.266c.778-.117 1.557-.24 2.336-.356q1.202-.176 2.406-.347c.84-.121 1.678-.247 2.518-.366a98 98 0 0 1 2.693-.335q1.338-.147 2.677-.277a157 157 0 0 1 5.563-.441 80 80 0 0 1 5.787-.165q1.437.007 2.875.049 1.346.046 2.692.105l2.4.102a742 742 0 0 1 3.897.18l1.513.074 1.223.059.976.047.779.038.62.03c.483-.021-.406.055-.424.058-.986.208-1.686.866-2.15 1.73q-.12.267-.179.554c-.005.026-.007.102-.016.077-.004-.012-.002-.026-.003-.039-.027-.366-.071-.731-.113-1.096l-.255-2.231a100 100 0 0 1-.291-3.13 244 244 0 0 1-.264-3.725q-.13-1.98-.266-3.958-.137-2.019-.261-4.037a391 391 0 0 1-.223-4.164q-.094-1.98-.205-3.957c-.076-1.27-.156-2.539-.228-3.808q-.104-1.923-.22-3.844a626 626 0 0 0-.236-3.593q-.11-1.65-.223-3.302a467 467 0 0 1-.21-3.16c-.066-1.057-.121-2.114-.179-3.171l-.16-3.044q-.072-1.363-.139-2.728a2639 2639 0 0 1-.27-5.65l-.056-1.186-.045-.955-.035-.762-.029-.626-.023-.504-.018-.404-.014-.322-.012-.256c.004.036-.008-.144-.005-.108.072.788.236 1 .625 1.784-2.854-3.94 2.716-7.976 5.57-4.037.344.683.7 1.275.683 2.053l.011.257.014.322.019.403.022.5.028.617.036.761.045.953.056 1.183.07 1.484.2 4.156q.065 1.35.137 2.702c.054 1.01.104 2.022.16 3.033.056 1.038.11 2.076.174 3.114q.1 1.56.208 3.12.114 1.653.223 3.306.125 1.82.24 3.643.117 1.935.22 3.87c.073 1.272.153 2.543.229 3.814q.113 2 .207 4c.068 1.362.137 2.724.219 4.086q.123 1.998.258 3.995.136 1.986.267 3.973c.079 1.205.159 2.41.256 3.613.08.972.16 1.944.27 2.913l.255 2.228c.067.589.14 1.178.156 1.771.005.76-.06 1.516-.36 2.225-.592 1.17-1.388 1.963-2.697 2.276-.457.081-.916.136-1.38.094l-.621-.03-.778-.038-.977-.047-1.224-.06q-.75-.035-1.498-.072l-1.794-.084q-1.042-.05-2.086-.095-1.197-.053-2.392-.102-1.3-.057-2.601-.102-1.35-.04-2.699-.046c-.89-.003-1.78 0-2.67.028-.886.027-1.77.063-2.654.123a150 150 0 0 0-5.326.422q-1.29.125-2.577.266a95 95 0 0 0-2.505.311c-.835.118-1.668.244-2.502.364q-1.183.168-2.364.34c-.793.12-1.584.245-2.376.363-.848.122-1.698.237-2.552.31q-1.258.11-2.52.175a42 42 0 0 1-2.57.064c-.75-.015-1.5-.044-2.249-.1a24 24 0 0 1-1.892-.21c-.588-.099-1.177-.214-1.737-.427-.793-.33-1.506-.78-2.017-1.49-.456-.74-.783-1.533-.722-2.422l.03-.816.02-.467.026-.585.032-.735.04-.922.05-1.155q.03-.69.065-1.381l.079-1.585c.028-.551.059-1.102.08-1.654q.035-.876.061-1.751.026-.975.044-1.952.021-1.04.033-2.081.011-1.062.01-2.124.001-1.13-.02-2.257c-.018-.862-.049-1.724-.084-2.585q-.06-1.52-.123-3.038a346 346 0 0 0-.553-10.107q-.107-1.602-.196-3.206a326 326 0 0 0-.458-6.58 194 194 0 0 0-.318-3.561c-.12-1.186-.246-2.371-.393-3.554q-.211-1.725-.425-3.449l-.328-2.733c-.058-.467-.114-.935-.202-1.398q-.057-.285-.13-.568c-1.2-4.714 5.466-6.411 6.667-1.698" transform="translate(0 -197)"/><path style="opacity:1;fill:#020900;fill-opacity:1;stroke:none;stroke-width:1;stroke-linecap:butt;stroke-linejoin:round;stroke-miterlimit:4;stroke-dasharray:none;stroke-opacity:1" d="M71.586 248.642c.022.006-.189-.01-.242-.013a45 45 0 0 0-.864-.026q-.629-.014-1.258-.024-.766-.011-1.534-.018l-1.748-.015-1.88-.012-1.991-.01q-1.05-.005-2.098-.005-1.107 0-2.212.009-1.125.012-2.25.048c-.775.024-1.55.062-2.323.105-.823.048-1.646.1-2.469.147q-1.304.069-2.606.16c-.922.066-1.842.15-2.762.24a268 268 0 0 0-5.76.644q-1.389.164-2.776.348-1.282.17-2.56.37a216 216 0 0 0-4.562.77q-.98.178-1.959.365l-1.655.316-1.332.256-1.061.204-.847.162-.674.13-.537.103q-.163.029-.325.064c-.433.08-.142.035-.879.082-4.863-.123-4.688-7 .174-6.876-.66.047-.412.005-.752.07q.242-.051.485-.096l.537-.103.675-.13.846-.162 1.061-.204 1.333-.256 1.675-.32q1.002-.19 2.005-.374 1.136-.207 2.274-.398 1.232-.208 2.467-.401 1.352-.211 2.708-.391 1.43-.19 2.86-.36 1.473-.177 2.948-.344 1.478-.165 2.958-.314c.983-.097 1.967-.187 2.952-.258q1.346-.094 2.692-.165l2.492-.149c.828-.045 1.657-.085 2.486-.111q1.2-.039 2.402-.051a342 342 0 0 1 4.398-.005l2 .01q.948.005 1.894.012a496 496 0 0 1 3.336.034q.66.01 1.319.024.518.01 1.034.033c.249.013.498.027.746.056 4.828.596 3.986 7.423-.841 6.828z" transform="translate(0 -197)"/></svg>