<?xml version="1.0" encoding="UTF-8" standalone="no"?>
<!-- Created with Inkscape (http://www.inkscape.org/) -->

<svg
   xmlns:dc="http://purl.org/dc/elements/1.1/"
   xmlns:cc="http://creativecommons.org/ns#"
   xmlns:rdf="http://www.w3.org/1999/02/22-rdf-syntax-ns#"
   xmlns:svg="http://www.w3.org/2000/svg"
   xmlns="http://www.w3.org/2000/svg"
   xmlns:sodipodi="http://sodipodi.sourceforge.net/DTD/sodipodi-0.dtd"
   xmlns:inkscape="http://www.inkscape.org/namespaces/inkscape"
   width="10cm"
   height="10cm"
   viewBox="0 0 100 99.999997"
   version="1.1"
   id="svg8"
   sodipodi:docname="open.svg"
   inkscape:version="0.92.3 (2405546, 2018-03-11)">
  <defs
     id="defs2" />
  <sodipodi:namedview
     id="base"
     pagecolor="#ffffff"
     bordercolor="#666666"
     borderopacity="1.0"
     inkscape:pageopacity="0.0"
     inkscape:pageshadow="2"
     inkscape:zoom="1"
     inkscape:cx="175.50186"
     inkscape:cy="186.50542"
     inkscape:document-units="cm"
     inkscape:current-layer="layer1"
     showgrid="true"
     units="cm"
     inkscape:window-width="881"
     inkscape:window-height="706"
     inkscape:window-x="971"
     inkscape:window-y="214"
     inkscape:window-maximized="0"
     inkscape:snap-nodes="false">
    <inkscape:grid
       type="xygrid"
       id="grid815"
       units="cm"
       spacingx="9.9999998"
       spacingy="9.9999998" />
  </sodipodi:namedview>
  <metadata
     id="metadata5">
    <rdf:RDF>
      <cc:Work
         rdf:about="">
        <dc:format>image/svg+xml</dc:format>
        <dc:type
           rdf:resource="http://purl.org/dc/dcmitype/StillImage" />
        <dc:title></dc:title>
      </cc:Work>
    </rdf:RDF>
  </metadata>
  <g
     inkscape:label="Layer 1"
     inkscape:groupmode="layer"
     id="layer1"
     transform="translate(0,-197.00002)">
    <path
       style="opacity:1;fill:#020900;fill-opacity:1;stroke:none;stroke-width:1;stroke-linecap:butt;stroke-linejoin:round;stroke-miterlimit:4;stroke-dasharray:none;stroke-opacity:1"
       id="path1361"
       d="m 23.248713,215.11456 c 0.07573,0.29212 0.140857,0.58671 0.202075,0.88215 0.127351,0.63709 0.208669,1.28202 0.289501,1.92627 0.111324,0.91945 0.219267,1.83929 0.33098,2.75869 0.141398,1.14851 0.284174,2.29684 0.424333,3.4455 0.152407,1.22992 0.284494,2.46219 0.409091,3.69519 0.123431,1.22968 0.228856,2.46103 0.329574,3.69274 0.09398,1.16026 0.179114,2.32121 0.260923,3.48238 0.07646,1.08416 0.144458,2.16888 0.208208,3.25385 0.0584,1.05239 0.122737,2.10441 0.192256,3.15612 0.07716,1.11297 0.147268,2.22639 0.215043,3.33996 0.06999,1.15951 0.132455,2.31946 0.190993,3.47961 0.05707,1.14936 0.107205,2.29905 0.15602,3.44878 0.04289,1.01987 0.08371,2.03982 0.123869,3.05979 0.03734,0.89995 0.06843,1.80009 0.08874,2.70059 0.01521,0.7981 0.01974,1.59636 0.02172,2.3946 7.94e-4,0.73812 -0.0037,1.47622 -0.01151,2.21429 -0.0078,0.71415 -0.01974,1.42823 -0.03365,2.14228 -0.01304,0.66877 -0.02675,1.33752 -0.04509,2.00618 -0.01786,0.6074 -0.03982,1.21468 -0.06273,1.82191 -0.02315,0.58321 -0.0551,1.166 -0.08513,1.74888 -0.0267,0.52301 -0.05273,1.04606 -0.07852,1.56912 -0.02232,0.44876 -0.04256,0.89762 -0.06242,1.3465 -0.01687,0.38368 -0.03358,0.76736 -0.05031,1.15104 -0.01339,0.30725 -0.02678,0.61449 -0.04017,0.92174 -0.01067,0.24491 -0.02134,0.48982 -0.03202,0.73473 -0.0085,0.1952 -0.01701,0.3904 -0.02552,0.5856 -0.0068,0.15558 -0.01356,0.31116 -0.02034,0.46674 -0.0057,0.12513 -0.01068,0.25028 -0.01518,0.37546 -0.0044,0.12364 -0.0085,0.24728 -0.01262,0.37093 0.03344,-0.65996 -0.224837,-1.24917 -0.552556,-1.80315 -0.280648,-0.39882 -0.644022,-0.71495 -1.083277,-0.92393 -0.113108,-0.0374 0.236501,0.0293 0.354168,0.0479 0.431938,0.0662 0.867305,0.10535 1.302838,0.13833 0.614991,0.0455 1.231195,0.0707 1.847706,0.0814 0.704009,0.008 1.407605,-0.0224 2.110576,-0.0566 0.755899,-0.0382 1.510797,-0.0924 2.264831,-0.15726 0.722529,-0.0637 1.441259,-0.1621 2.158944,-0.26567 0.779188,-0.11686 1.557473,-0.23955 2.336668,-0.35637 0.801669,-0.11815 1.60396,-0.23204 2.406055,-0.34724 0.839403,-0.12099 1.678066,-0.24698 2.517806,-0.36562 0.895951,-0.12581 1.794275,-0.23353 2.69322,-0.33536 0.891821,-0.0985 1.784501,-0.18897 2.677422,-0.27687 0.918573,-0.0903 1.838145,-0.16979 2.758155,-0.24391 0.934164,-0.0745 1.869172,-0.13766 2.804395,-0.19719 0.958072,-0.0647 1.917475,-0.10384 2.877169,-0.13377 0.969603,-0.0303 1.93969,-0.0342 2.909665,-0.0307 0.958543,0.004 1.91692,0.0208 2.875039,0.0488 0.897626,0.0301 1.795011,0.067 2.692321,0.10531 0.800296,0.0343 1.600671,0.0667 2.40093,0.10187 0.702921,0.0312 1.405808,0.0632 2.108642,0.0964 0.595717,0.0285 1.191461,0.0565 1.787226,0.084 0.504309,0.0241 1.008586,0.0488 1.512879,0.0733 0.407768,0.0197 0.815539,0.0394 1.223309,0.0591 0.325498,0.0157 0.650997,0.0314 0.976495,0.0472 0.259443,0.0126 0.518882,0.0251 0.778322,0.0376 0.20678,0.01 0.413563,0.02 0.620342,0.03 0.482524,-0.0207 -0.406368,0.0553 -0.424487,0.0581 -0.985654,0.20823 -1.685374,0.86632 -2.150411,1.73 -0.08001,0.17796 -0.139375,0.36322 -0.178059,0.55414 -0.0052,0.0258 -0.0067,0.10206 -0.01595,0.0774 -0.0046,-0.0123 -0.0021,-0.0262 -0.0034,-0.0393 -0.02678,-0.36634 -0.07112,-0.73109 -0.112744,-1.09596 -0.08402,-0.74393 -0.171061,-1.48751 -0.2555,-2.23139 -0.118063,-1.04148 -0.205682,-2.08601 -0.290756,-3.1306 -0.100407,-1.24038 -0.18329,-2.48208 -0.264221,-3.72386 -0.08602,-1.31964 -0.176988,-2.63894 -0.265827,-3.95838 -0.09055,-1.34548 -0.178787,-2.69112 -0.26116,-4.03713 -0.08393,-1.38734 -0.153913,-2.77547 -0.223038,-4.1636 -0.06297,-1.31926 -0.131048,-2.63824 -0.205028,-3.95692 -0.07601,-1.26956 -0.1558,-2.53887 -0.227955,-3.80865 -0.06922,-1.28156 -0.141467,-2.56292 -0.219223,-3.84399 -0.07455,-1.19789 -0.155046,-2.3954 -0.236487,-3.59284 -0.07366,-1.10049 -0.147222,-2.20098 -0.222846,-3.30133 -0.07333,-1.05325 -0.144287,-2.10665 -0.210476,-3.16037 -0.06525,-1.0568 -0.120912,-2.11417 -0.178477,-3.17142 -0.05504,-1.01429 -0.10587,-2.0288 -0.159589,-3.04316 -0.04867,-0.90926 -0.09439,-1.81867 -0.139041,-2.72814 -0.03749,-0.77005 -0.07432,-1.54013 -0.111135,-2.31021 -0.02959,-0.61887 -0.05905,-1.23775 -0.08846,-1.85663 -0.0235,-0.49457 -0.04699,-0.98914 -0.07047,-1.48371 -0.01876,-0.39526 -0.0376,-0.79052 -0.05623,-1.18579 -0.01497,-0.31828 -0.02988,-0.63655 -0.04481,-0.95483 -0.01191,-0.25417 -0.02387,-0.50833 -0.03572,-0.76249 -0.0097,-0.20867 -0.01916,-0.41735 -0.02863,-0.62602 -0.0076,-0.16785 -0.01524,-0.33569 -0.02275,-0.50355 -0.006,-0.13465 -0.01207,-0.2693 -0.01807,-0.40396 -0.0048,-0.10728 -0.0096,-0.21456 -0.01439,-0.32184 -0.0038,-0.0855 -0.0076,-0.17101 -0.01148,-0.25651 0.0037,0.0358 -0.0081,-0.14391 -0.0048,-0.10802 0.07158,0.78782 0.235876,1.0003 0.624197,1.78374 -2.854095,-3.93899 2.716477,-7.97529 5.570569,-4.0363 v 0 c 0.343963,0.68284 0.700066,1.27489 0.682358,2.05313 0.0038,0.0855 0.0076,0.17101 0.01148,0.25651 0.0048,0.10728 0.0096,0.21455 0.01439,0.32183 0.006,0.13442 0.01204,0.26885 0.01804,0.40327 0.0075,0.16648 0.01498,0.33297 0.02257,0.49945 0.0094,0.2059 0.01868,0.4118 0.02824,0.6177 0.01183,0.25364 0.02376,0.50727 0.03564,0.76091 0.0149,0.3177 0.02978,0.63541 0.04472,0.95311 0.0186,0.39444 0.03739,0.78888 0.05611,1.18331 0.02349,0.4945 0.04697,0.989 0.07047,1.48349 0.02938,0.61825 0.05882,1.2365 0.08837,1.85473 0.03667,0.76713 0.07336,1.53425 0.110702,2.30134 0.04422,0.90065 0.08949,1.80125 0.137694,2.70169 0.05354,1.01096 0.104214,2.02206 0.159038,3.03295 0.05653,1.03819 0.111147,2.0765 0.175131,3.11427 0.06531,1.04021 0.13544,2.08011 0.207812,3.11986 0.07573,1.10198 0.149418,2.20409 0.223176,3.3062 0.08258,1.21413 0.164174,2.42833 0.239709,3.64292 0.07827,1.28991 0.151122,2.58012 0.220785,3.87052 0.07221,1.27142 0.152333,2.54235 0.228229,3.81356 0.07477,1.33306 0.143656,2.66643 0.207314,4.00007 0.06782,1.36213 0.136422,2.72425 0.21871,4.0856 0.08148,1.33201 0.168879,2.66363 0.258459,3.99512 0.08917,1.32437 0.180474,2.64861 0.266808,3.97317 0.07851,1.20483 0.158763,2.40958 0.256101,3.61305 0.07908,0.97194 0.159962,1.94388 0.269549,2.91296 0.08429,0.7427 0.171223,1.48509 0.255098,2.22784 0.06713,0.58894 0.139158,1.17842 0.15625,1.77149 0.0048,0.75947 -0.05976,1.51592 -0.359293,2.22427 -0.59336,1.17129 -1.388507,1.96301 -2.697959,2.27679 -0.457095,0.0811 -0.915911,0.13599 -1.380752,0.0935 -0.20678,-0.01 -0.41356,-0.02 -0.620342,-0.03 -0.25944,-0.0125 -0.51888,-0.0251 -0.778322,-0.0376 -0.325507,-0.0157 -0.651016,-0.0315 -0.976522,-0.0472 -0.408136,-0.0197 -0.816271,-0.0394 -1.224404,-0.0592 -0.499179,-0.0242 -0.998345,-0.0487 -1.497542,-0.0726 -0.597905,-0.0276 -1.19579,-0.0557 -1.79365,-0.0843 -0.695579,-0.0328 -1.391216,-0.0645 -2.086883,-0.0954 -0.797149,-0.0351 -1.594418,-0.0673 -2.391608,-0.10147 -0.866868,-0.037 -1.733804,-0.0727 -2.600968,-0.10202 -0.89934,-0.0265 -1.798931,-0.0422 -2.69867,-0.0459 -0.890273,-0.003 -1.780652,-1.6e-4 -2.670588,0.0275 -0.885301,0.0274 -1.770333,0.0633 -2.654118,0.12322 -0.896776,0.057 -1.793351,0.1175 -2.689113,0.18888 -0.879399,0.0708 -1.758374,0.14671 -2.636396,0.23301 -0.859576,0.0846 -1.718919,0.17163 -2.577449,0.2663 -0.836158,0.0946 -1.671751,0.19458 -2.505133,0.31143 -0.834396,0.11777 -1.667653,0.24332 -2.501726,0.36333 -0.788159,0.1132 -1.576506,0.22513 -2.364261,0.34111 -0.792093,0.11872 -1.583198,0.24382 -2.37536,0.36206 -0.848252,0.12205 -1.697908,0.23653 -2.551906,0.31079 -0.839002,0.0718 -1.678919,0.13235 -2.519985,0.17439 -0.856091,0.0413 -1.713002,0.0759 -2.57031,0.0635 -0.750316,-0.0144 -1.500329,-0.044 -2.248767,-0.10053 -0.632662,-0.0493 -1.264922,-0.10893 -1.891839,-0.20931 -0.588687,-0.0986 -1.177353,-0.21369 -1.737135,-0.4269 -0.793613,-0.32973 -1.506197,-0.78009 -2.017054,-1.48976 -0.455734,-0.74054 -0.783301,-1.53365 -0.722646,-2.42237 0.0043,-0.1295 0.0086,-0.25899 0.01323,-0.38848 0.0051,-0.14239 0.01081,-0.28476 0.01724,-0.42709 0.0068,-0.15558 0.01356,-0.31116 0.02034,-0.46674 0.0085,-0.1952 0.01701,-0.3904 0.02552,-0.5856 0.01067,-0.24491 0.02134,-0.48983 0.03202,-0.73474 0.01339,-0.30728 0.02678,-0.61456 0.04017,-0.92183 0.01679,-0.38513 0.03356,-0.77026 0.0505,-1.15538 0.02037,-0.46049 0.04115,-0.92096 0.06404,-1.38132 0.02604,-0.5281 0.05232,-1.05619 0.07928,-1.58424 0.0284,-0.55144 0.05871,-1.1028 0.08091,-1.65453 0.02205,-0.58372 0.04315,-1.16747 0.06043,-1.75134 0.0179,-0.6504 0.03106,-1.30091 0.0438,-1.95142 0.01355,-0.69365 0.02516,-1.38735 0.03273,-2.08109 0.0075,-0.70806 0.01171,-1.41616 0.01113,-2.12427 -0.0018,-0.75239 -0.006,-1.50481 -0.02001,-2.25709 -0.01928,-0.86178 -0.04951,-1.7232 -0.08515,-2.58445 -0.03988,-1.01294 -0.08041,-2.02584 -0.123004,-3.03867 -0.04803,-1.13147 -0.09734,-2.26289 -0.153475,-3.39399 -0.05731,-1.13637 -0.1185,-2.27255 -0.187024,-3.40831 -0.06704,-1.10164 -0.136425,-2.20315 -0.212774,-3.3042 -0.0706,-1.06845 -0.136057,-2.13721 -0.195392,-3.20636 -0.06215,-1.0583 -0.128472,-2.11635 -0.203041,-3.17385 -0.07997,-1.13546 -0.163204,-2.27069 -0.255054,-3.40526 -0.0971,-1.18806 -0.19865,-2.37579 -0.317617,-3.56188 -0.119724,-1.18569 -0.246663,-2.37067 -0.393276,-3.55337 -0.140297,-1.14981 -0.283252,-2.2993 -0.424757,-3.44897 -0.110675,-0.91094 -0.217775,-1.82231 -0.327849,-2.73332 -0.05842,-0.46713 -0.114583,-0.93512 -0.2023,-1.39788 -0.03844,-0.19051 -0.08127,-0.38004 -0.129926,-0.56823 -1.20025,-4.7139 5.466214,-6.41131 6.666464,-1.69741 z"
       inkscape:connector-curvature="0" />
    <path
       style="opacity:1;fill:#020900;fill-opacity:1;stroke:none;stroke-width:1;stroke-linecap:butt;stroke-linejoin:round;stroke-miterlimit:4;stroke-dasharray:none;stroke-opacity:1"
       id="path1363"
       d="m 71.585573,248.64189 c 0.0227,0.006 -0.188357,-0.0102 -0.241321,-0.0127 -0.28793,-0.0125 -0.576064,-0.0196 -0.864171,-0.0266 -0.419172,-0.01 -0.838402,-0.0167 -1.257636,-0.0231 -0.511437,-0.008 -1.022901,-0.0133 -1.534367,-0.0187 -0.582602,-0.006 -1.165217,-0.0106 -1.747832,-0.0149 -0.626843,-0.005 -1.253691,-0.008 -1.880539,-0.012 -0.663723,-0.004 -1.327452,-0.007 -1.99118,-0.01 -0.699291,-0.003 -1.398588,-0.005 -2.09789,-0.005 -0.737197,7.9e-4 -1.474382,0.003 -2.211554,0.009 -0.750046,0.007 -1.499888,0.0249 -2.249585,0.048 -0.775049,0.0244 -1.549556,0.0625 -2.323814,0.10468 -0.822778,0.0482 -1.645365,0.0996 -2.468184,0.14721 -0.869207,0.0471 -1.738117,0.0985 -2.606443,0.15971 -0.921808,0.0666 -1.842193,0.15075 -2.761913,0.24128 -0.958668,0.0957 -1.916452,0.19996 -2.874024,0.30598 -0.962636,0.10757 -1.924478,0.22208 -2.886212,0.33738 -0.926148,0.10873 -1.851266,0.22578 -2.775694,0.34818 -0.854866,0.11297 -1.708012,0.23814 -2.56015,0.36998 -0.794137,0.12416 -1.587297,0.25441 -2.379996,0.38741 -0.728393,0.12125 -1.455619,0.24938 -2.18213,0.38141 -0.653436,0.11885 -1.30601,0.24237 -1.958626,0.36562 -0.551976,0.1049 -1.103743,0.2109 -1.655534,0.31677 -0.443878,0.0852 -0.887752,0.17038 -1.331627,0.25558 -0.35387,0.0679 -0.70774,0.13585 -1.06161,0.20377 -0.282045,0.0541 -0.56409,0.10827 -0.846134,0.16241 -0.224796,0.0432 -0.449592,0.0863 -0.674389,0.12945 -0.179167,0.0344 -0.358335,0.0688 -0.537503,0.10317 -0.108364,0.0206 -0.2168,0.0409 -0.32457,0.0642 -0.432558,0.0799 -0.141739,0.0349 -0.878987,0.0824 -4.86274,-0.1234 -4.688224,-7.00035 0.174516,-6.87695 v 0 c -0.66077,0.0475 -0.412667,0.005 -0.752033,0.0713 0.160936,-0.0348 0.322486,-0.0665 0.484323,-0.0969 0.179167,-0.0344 0.358335,-0.0688 0.537503,-0.10317 0.224796,-0.0431 0.449592,-0.0863 0.674389,-0.12945 0.282045,-0.0541 0.564089,-0.10827 0.846134,-0.16241 0.353874,-0.0679 0.707748,-0.13585 1.061622,-0.20377 0.444033,-0.0852 0.888065,-0.17046 1.332101,-0.25567 0.558337,-0.10713 1.11665,-0.21439 1.675178,-0.32051 0.668246,-0.1262 1.336457,-0.25265 2.005548,-0.37431 0.756992,-0.1375 1.514703,-0.27107 2.273644,-0.3974 0.821611,-0.13783 1.6437,-0.27281 2.466811,-0.4014 0.901592,-0.13937 1.804231,-0.27182 2.708699,-0.3913 0.952404,-0.12606 1.905505,-0.24673 2.859672,-0.35878 0.982337,-0.11776 1.964785,-0.23469 2.948048,-0.34451 0.985459,-0.10909 1.971143,-0.21631 2.957735,-0.31473 0.983075,-0.0966 1.966857,-0.18646 2.952165,-0.25733 0.896996,-0.063 1.79455,-0.11674 2.692448,-0.16522 0.83067,-0.048 1.661093,-0.10007 2.491734,-0.14853 0.828207,-0.045 1.656686,-0.0856 2.485739,-0.11157 0.800667,-0.0246 1.601489,-0.0439 2.402523,-0.051 0.754552,-0.006 1.50912,-0.009 2.263698,-0.01 0.711224,-5.3e-4 1.422443,0.001 2.133656,0.005 0.666916,0.003 1.333833,0.006 2.000747,0.01 0.631092,0.004 1.262182,0.007 1.893266,0.012 0.589322,0.004 1.178644,0.009 1.767954,0.0151 0.522665,0.005 1.045329,0.0113 1.567965,0.0191 0.439754,0.007 0.879502,0.014 1.319189,0.0243 0.344622,0.008 0.689277,0.0171 1.033661,0.0328 0.249333,0.0124 0.498742,0.0268 0.746757,0.0562 4.827749,0.59523 3.985972,7.4227 -0.841777,6.82747 z"
       inkscape:connector-curvature="0" />
  </g>
</svg>
