<?xml version="1.0" encoding="UTF-8" standalone="no"?>
<!-- Created with Inkscape (http://www.inkscape.org/) -->

<svg
   xmlns:dc="http://purl.org/dc/elements/1.1/"
   xmlns:cc="http://creativecommons.org/ns#"
   xmlns:rdf="http://www.w3.org/1999/02/22-rdf-syntax-ns#"
   xmlns:svg="http://www.w3.org/2000/svg"
   xmlns="http://www.w3.org/2000/svg"
   xmlns:sodipodi="http://sodipodi.sourceforge.net/DTD/sodipodi-0.dtd"
   xmlns:inkscape="http://www.inkscape.org/namespaces/inkscape"
   width="10cm"
   height="10cm"
   viewBox="0 0 100 99.999997"
   version="1.1"
   id="svg8"
   sodipodi:docname="pakala.svg"
   inkscape:version="0.92.3 (2405546, 2018-03-11)">
  <defs
     id="defs2" />
  <sodipodi:namedview
     id="base"
     pagecolor="#ffffff"
     bordercolor="#666666"
     borderopacity="1.0"
     inkscape:pageopacity="0.0"
     inkscape:pageshadow="2"
     inkscape:zoom="1"
     inkscape:cx="175.50186"
     inkscape:cy="186.50542"
     inkscape:document-units="cm"
     inkscape:current-layer="layer1"
     showgrid="true"
     units="cm"
     inkscape:window-width="881"
     inkscape:window-height="706"
     inkscape:window-x="971"
     inkscape:window-y="214"
     inkscape:window-maximized="0"
     inkscape:snap-nodes="false">
    <inkscape:grid
       type="xygrid"
       id="grid815"
       units="cm"
       spacingx="9.9999998"
       spacingy="9.9999998" />
  </sodipodi:namedview>
  <metadata
     id="metadata5">
    <rdf:RDF>
      <cc:Work
         rdf:about="">
        <dc:format>image/svg+xml</dc:format>
        <dc:type
           rdf:resource="http://purl.org/dc/dcmitype/StillImage" />
        <dc:title></dc:title>
      </cc:Work>
    </rdf:RDF>
  </metadata>
  <g
     inkscape:label="Layer 1"
     inkscape:groupmode="layer"
     id="layer1"
     transform="translate(0,-197.00002)">
    <path
       style="opacity:1;fill:#020900;fill-opacity:1;stroke:none;stroke-width:1;stroke-linecap:butt;stroke-linejoin:round;stroke-miterlimit:4;stroke-dasharray:none;stroke-opacity:1"
       id="path1365"
       d="m 22.366663,212.21662 c 0.0099,0.0594 0.02676,0.21776 0.03576,0.30115 0.03091,0.28378 0.04937,0.56866 0.06576,0.85358 0.02377,0.42166 0.03612,0.84379 0.04284,1.26603 0.0073,0.56746 -0.01067,1.13478 -0.02933,1.70185 -0.02156,0.60047 -0.04734,1.20078 -0.07127,1.80115 -0.02726,0.68662 -0.05483,1.37322 -0.07888,2.05997 -0.03006,0.79981 -0.05601,1.59977 -0.0796,2.39981 -0.02559,0.89205 -0.04694,1.78422 -0.06491,2.67646 -0.02077,0.9741 -0.02817,1.9484 -0.03345,2.92269 -0.0056,1.0793 -0.0085,2.15862 -0.0085,3.23794 7.67e-4,1.14011 0.0025,2.28022 0.0039,3.42033 0.0015,1.20181 0.0027,2.40361 0.0039,3.60541 0.0012,1.25093 0.0022,2.50186 0.0031,3.75279 9e-4,1.22799 0.0017,2.45598 0.0025,3.68397 7.14e-4,1.18577 0.0013,2.37154 0.002,3.55732 5.83e-4,1.13736 0.0011,2.27473 0.0016,3.4121 4.49e-4,1.08848 8.73e-4,2.17695 0.0012,3.26542 3.7e-4,1.03786 6.88e-4,2.07572 0.001,3.11358 -0.0017,0.96878 0.003,1.93755 0.0096,2.9063 0.0065,0.89585 0.01314,1.7917 0.01936,2.68756 0.007,0.86745 0.01097,1.73492 0.01189,2.6024 0.0025,0.85185 -0.0039,1.70367 -0.01272,2.55546 -0.0085,0.7487 -0.01624,1.49742 -0.02608,2.2461 -0.0085,0.66337 -0.02708,1.32656 -0.04687,1.98967 -0.01659,0.57523 -0.03857,1.15028 -0.06306,1.72522 -0.02156,0.47792 -0.04501,0.95576 -0.06825,1.4336 -0.01842,0.37849 -0.03688,0.75698 -0.05534,1.13547 -0.0147,0.3016 -0.02941,0.60321 -0.04412,0.90481 -0.02186,0.0747 -4.23e-4,0.51293 -0.01367,0.19211 -0.0221,-0.35586 -0.160221,-0.67801 -0.331395,-0.98501 -0.167135,-0.27054 -0.384998,-0.50458 -0.645135,-0.68684 -0.124097,-0.0716 0.109991,0.0213 0.135893,0.03 0.196845,0.0646 0.397945,0.11478 0.599627,0.16162 0.27301,0.0607 0.548993,0.10741 0.826272,0.14352 0.374694,0.0457 0.752164,0.0615 1.12899,0.0786 0.529372,0.0231 1.059085,0.0368 1.588773,0.0501 0.60624,0.0149 1.212553,0.0265 1.818878,0.0373 0.678979,0.012 1.358003,0.0213 2.037035,0.0298 0.767432,0.009 1.534877,0.0174 2.302343,0.0232 0.806109,0.006 1.612202,-0.003 2.41821,-0.0152 0.892617,-0.0155 1.785249,-0.0301 2.677877,-0.045 0.930815,-0.0155 1.861521,-0.0368 2.792203,-0.0588 0.926132,-0.0221 1.852316,-0.0419 2.778369,-0.0673 0.866394,-0.0228 1.732415,-0.0567 2.59816,-0.0968 0.809168,-0.0375 1.617523,-0.0898 2.425388,-0.14857 0.776899,-0.0572 1.552157,-0.13402 2.327087,-0.213 0.774901,-0.0798 1.548792,-0.16906 2.322645,-0.25838 0.766458,-0.0871 1.531527,-0.18563 2.296208,-0.28696 0.751168,-0.0992 1.501079,-0.20758 2.250815,-0.31702 0.72567,-0.10673 1.451457,-0.21265 2.177275,-0.31838 0.697272,-0.10051 1.394341,-0.20245 2.091629,-0.30285 0.661427,-0.0962 1.323414,-0.18839 1.986129,-0.27527 0.649071,-0.086 1.299419,-0.16168 1.950292,-0.23256 0.671459,-0.0741 1.344242,-0.13418 2.018022,-0.18234 0.716118,-0.0515 1.433851,-0.0695 2.151589,-0.0761 0.679995,-0.003 1.359961,0.007 2.03977,0.0223 0.631624,0.0149 1.262772,0.0446 1.893793,0.0753 0.501975,0.0249 1.003895,0.0509 1.505825,0.0767 0.412727,0.0211 0.825209,0.0466 1.237679,0.0722 0.320053,0.0199 0.640098,0.04 0.960144,0.06 0.02897,0.003 0.636598,0.0387 0.49589,0.0292 -0.789107,-0.0175 -1.451552,0.38626 -2.027807,0.88263 -0.281466,0.29379 -0.508804,0.63592 -0.633854,1.02405 0.0072,-0.15121 0.02925,-0.40519 0.04043,-0.5861 0.03209,-0.49776 0.03728,-0.99655 0.04228,-1.49513 0.0051,-0.6714 0.0094,-1.34282 0.01,-2.01424 -7.94e-4,-0.77466 -0.0028,-1.54932 -0.0045,-2.32397 -0.0019,-0.83645 -0.0034,-1.67289 -0.0048,-2.50933 -0.0024,-0.92146 -0.0086,-1.8429 -0.01807,-2.76432 -0.0104,-1.0013 -0.03766,-2.0023 -0.07008,-3.0031 -0.03416,-1.06731 -0.07921,-2.13421 -0.127251,-3.20097 -0.05178,-1.1264 -0.100418,-2.25294 -0.145238,-3.37964 -0.04599,-1.16481 -0.08437,-2.3299 -0.120248,-3.49506 -0.03611,-1.21473 -0.06866,-2.42956 -0.09926,-3.64443 -0.02614,-1.2102 -0.07063,-2.41985 -0.121459,-3.62922 -0.05282,-1.1858 -0.106826,-2.37154 -0.156393,-3.55748 -0.04876,-1.17873 -0.09072,-2.35774 -0.131183,-3.53678 -0.03887,-1.1331 -0.07397,-2.26632 -0.102666,-3.39972 -0.02532,-1.14153 -0.04211,-2.28323 -0.05918,-3.42491 -0.01542,-1.04197 -0.02978,-2.08396 -0.0435,-3.12596 -0.01572,-1.00224 -0.01315,-2.00462 -7.94e-4,-3.00687 0.01429,-0.97934 0.03936,-1.95848 0.06676,-2.93753 0.02697,-0.92492 0.06137,-1.8496 0.09607,-2.77426 0.02944,-0.77766 0.05818,-1.55535 0.08668,-2.33304 0.02334,-0.63653 0.04637,-1.27306 0.06943,-1.9096 0.01847,-0.50988 0.03693,-1.01975 0.05539,-1.52963 0.01471,-0.40645 0.02943,-0.8129 0.04415,-1.21936 0.0118,-0.32523 0.02363,-0.65046 0.03505,-0.9757 0.0095,-0.2741 0.01868,-0.54822 0.02785,-0.82233 0.0077,-0.24625 0.01855,-0.49238 0.0315,-0.73841 0.01,-0.18492 0.02043,-0.36981 0.03082,-0.55471 0.0081,-0.14475 0.01627,-0.28951 0.02442,-0.43426 2.64e-4,0.049 0.0087,-0.19577 0.0078,-0.14678 -0.004,0.22521 -0.01553,0.3725 0.03353,0.61861 0.04471,0.2243 0.119721,0.44147 0.179583,0.6622 0.401963,0.93899 1.121746,1.61637 2.096868,1.90551 0.327189,0.0572 -0.0051,0.0293 -0.136782,0.0253 -0.431802,-0.0106 -0.863692,-0.0166 -1.295516,-0.0264 -0.560475,-0.0147 -1.120974,-0.0283 -1.681512,-0.0404 -0.627719,-0.0146 -1.255551,-0.0224 -1.88341,-0.0275 -0.681913,-0.004 -1.363845,-0.003 -2.045766,-0.002 -0.715957,-1.2e-4 -1.43184,0.009 -2.147665,0.022 -0.766824,0.0144 -1.533536,0.0338 -2.300208,0.0546 -0.822667,0.0215 -1.645074,0.0512 -2.467359,0.0839 -0.89154,0.0336 -1.782448,0.0809 -2.673189,0.13097 -0.944088,0.0546 -1.888064,0.11118 -2.831946,0.16928 -0.901229,0.056 -1.801672,0.12367 -2.701909,0.1936 -0.864164,0.0681 -1.727893,0.14151 -2.591213,0.21954 -0.840301,0.076 -1.680197,0.15633 -2.51963,0.24135 -0.83898,0.0867 -1.67758,0.17695 -2.516407,0.26508 -0.836554,0.0857 -1.672312,0.17859 -2.507366,0.27777 -0.84087,0.10223 -1.681509,0.2063 -2.522405,0.30832 -0.804529,0.099 -1.609212,0.19677 -2.414066,0.29312 -0.733761,0.0868 -1.467819,0.17096 -2.200598,0.26575 -0.651185,0.084 -1.299668,0.18704 -1.94723,0.29511 -0.579869,0.0968 -1.158007,0.20339 -1.735976,0.31081 -0.533427,0.099 -1.066446,0.20008 -1.599608,0.30045 -0.489193,0.0928 -0.977953,0.1878 -1.466815,0.28228 -0.438275,0.0845 -0.87662,0.16868 -1.315204,0.2516 -0.374587,0.0712 -0.749628,0.13997 -1.124948,0.20722 -0.333772,0.0598 -0.668131,0.11628 -1.002875,0.17038 -0.352072,0.0582 -0.705718,0.1057 -1.060318,0.14542 -0.407017,0.0458 -0.816214,0.0637 -1.225502,0.0707 -0.422284,0.006 -0.843761,-0.0224 -1.263904,-0.0616 -0.392816,-0.0368 -0.782405,-0.0992 -1.169609,-0.17404 -0.362371,-0.0712 -0.71877,-0.1684 -1.073231,-0.27122 -0.268952,-0.0784 -0.535579,-0.16444 -0.801657,-0.25204 -0.195119,-0.0646 -0.390066,-0.12967 -0.585031,-0.1947 -0.246699,-0.0764 -0.487176,-0.16771 -0.726908,-0.26356 -0.300625,-0.19149 -0.60125,-0.38298 -0.901876,-0.57447 -3.683551,-3.17693 0.809313,-8.38626 4.492865,-5.20933 v 0 c -0.280202,-0.17387 -0.560405,-0.34775 -0.840607,-0.52162 -0.444302,-0.16836 0.05297,0.0167 0.153205,0.0433 0.186887,0.0623 0.373756,0.12473 0.560778,0.18666 0.190348,0.0627 0.380898,0.12492 0.573288,0.18119 0.159475,0.0468 0.319302,0.0934 0.482179,0.12705 0.161625,0.0343 0.325401,0.0574 0.489676,0.0747 0.169155,0.0168 0.338796,0.0317 0.508944,0.0313 0.191775,-0.002 0.383545,-0.009 0.574302,-0.0301 0.239926,-0.0255 0.478744,-0.0601 0.716877,-0.0988 0.295886,-0.0477 0.591402,-0.0977 0.886422,-0.15054 0.353699,-0.0633 0.707128,-0.12818 1.060136,-0.1953 0.429387,-0.0812 0.858535,-0.16358 1.287623,-0.24632 0.499743,-0.0966 0.999379,-0.19373 1.499471,-0.28851 0.538448,-0.10137 1.076756,-0.20349 1.615472,-0.30342 0.619752,-0.11517 1.239726,-0.22925 1.861523,-0.33294 0.730745,-0.12173 1.462575,-0.23743 2.197391,-0.33211 0.753981,-0.0973 1.509133,-0.18476 2.264135,-0.27365 0.801254,-0.0959 1.602333,-0.19324 2.403261,-0.29182 0.846727,-0.10272 1.693193,-0.20758 2.539904,-0.31042 0.865778,-0.10273 1.732259,-0.19926 2.599582,-0.28809 0.847392,-0.089 1.69455,-0.18026 2.542106,-0.26772 0.864087,-0.0875 1.728637,-0.17024 2.593615,-0.24845 0.892106,-0.0806 1.784623,-0.15649 2.677599,-0.22679 0.936885,-0.0727 1.873991,-0.14302 2.81191,-0.20126 0.956143,-0.0589 1.912382,-0.11613 2.868737,-0.17145 0.92828,-0.0521 1.856742,-0.10125 2.785851,-0.13637 0.851183,-0.0338 1.70249,-0.0645 2.554065,-0.0868 0.788143,-0.0214 1.576326,-0.0413 2.364626,-0.0561 0.753348,-0.0134 1.506754,-0.0232 2.260237,-0.0231 0.70375,-9.8e-4 1.407507,-0.003 2.111248,0.002 0.658572,0.005 1.31712,0.0136 1.975549,0.0289 0.562927,0.0121 1.12582,0.0257 1.688684,0.0405 0.452327,0.0102 0.904738,0.016 1.357025,0.028 0.493865,0.0161 0.990044,0.0391 1.473726,0.14901 1.23729,0.33122 2.212406,1.04315 2.739774,2.24911 0.170233,0.59443 0.33483,1.1758 0.256984,1.79926 -0.0081,0.14457 -0.01627,0.28913 -0.02439,0.43369 -0.0099,0.17719 -0.01995,0.35438 -0.02956,0.53158 -0.01072,0.2019 -0.01947,0.4039 -0.02577,0.60598 -0.0093,0.27782 -0.01857,0.55565 -0.02823,0.83346 -0.01151,0.32771 -0.02344,0.65541 -0.03532,0.98311 -0.01471,0.40645 -0.02943,0.8129 -0.04415,1.21935 -0.01847,0.50993 -0.03692,1.01986 -0.05539,1.52978 -0.0231,0.63751 -0.04618,1.27501 -0.06954,1.91251 -0.02858,0.77968 -0.05739,1.55936 -0.0869,2.33901 -0.03387,0.90286 -0.06753,1.80573 -0.09392,2.70885 -0.02643,0.94358 -0.05067,1.88725 -0.0646,2.8311 -0.01193,0.94337 -0.01413,1.88686 7.94e-4,2.83022 0.01365,1.0379 0.02796,2.07579 0.04332,3.11367 0.01672,1.11799 0.03313,2.236 0.05775,3.35385 0.02811,1.11274 0.0627,2.22529 0.100819,3.33772 0.03987,1.16194 0.0812,2.32383 0.129231,3.48546 0.04953,1.18545 0.103613,2.37068 0.156329,3.55599 0.05239,1.24788 0.09823,2.49605 0.125341,3.74478 0.03026,1.20202 0.06247,2.40399 0.09818,3.60587 0.03524,1.1446 0.07292,2.28913 0.11807,3.4334 0.04433,1.11469 0.09249,2.22921 0.143714,3.3436 0.04933,1.09575 0.09552,2.19163 0.130614,3.28794 0.03398,1.05138 0.06245,2.10296 0.07331,3.15487 0.0097,0.94112 0.01611,1.88227 0.01844,2.82344 0.0013,0.83526 0.0029,1.67051 0.0048,2.50576 0.0016,0.7817 0.0039,1.56339 0.0045,2.34509 -5.29e-4,0.69267 -0.005,1.38533 -0.01032,2.07798 -0.0063,0.62026 -0.0154,1.24071 -0.05567,1.85989 -0.03513,0.54638 -0.07507,1.0944 -0.187735,1.63137 -0.196617,0.82936 -0.50981,1.61008 -1.104651,2.24238 -0.910257,0.82327 -1.67123,1.22548 -2.912462,1.25024 -0.322305,-0.002 -0.643581,-0.0188 -0.965007,-0.0425 -0.31864,-0.02 -0.637283,-0.0399 -0.955932,-0.0597 -0.388162,-0.0241 -0.776329,-0.0481 -1.164733,-0.0681 -0.495606,-0.0254 -0.9912,-0.0511 -1.486849,-0.0757 -0.570368,-0.0277 -1.140839,-0.0549 -1.711743,-0.0688 -0.609055,-0.0135 -1.218245,-0.0228 -1.827469,-0.0209 -0.575329,0.005 -1.150671,0.0181 -1.724729,0.0591 -0.588182,0.0415 -1.175361,0.0948 -1.761493,0.15928 -0.600943,0.0653 -1.201388,0.1352 -1.800653,0.21461 -0.633844,0.083 -1.26695,0.17138 -1.899553,0.26337 -0.693533,0.0999 -1.386837,0.20126 -2.080352,0.30121 -0.725162,0.10564 -1.450293,0.21146 -2.175304,0.3181 -0.779714,0.11381 -1.559629,0.22636 -2.340835,0.32955 -0.80292,0.10636 -1.606259,0.20973 -2.411034,0.3012 -0.804386,0.0928 -1.608823,0.18547 -2.414307,0.26833 -0.841079,0.0856 -1.682538,0.16855 -2.525765,0.23034 -0.868069,0.063 -1.736651,0.11914 -2.606109,0.15931 -0.908939,0.042 -1.818161,0.0777 -2.727772,0.10158 -0.934731,0.0255 -1.869591,0.0457 -2.804406,0.0679 -0.946351,0.0223 -1.892726,0.0439 -2.839212,0.0597 -0.897626,0.015 -1.795254,0.0297 -2.692866,0.0453 -0.856945,0.0124 -1.713976,0.0221 -2.571022,0.0157 -0.778817,-0.006 -1.557613,-0.0142 -2.336395,-0.0236 -0.691026,-0.009 -1.382041,-0.0182 -2.073016,-0.0304 -0.623149,-0.0111 -1.246286,-0.0231 -1.869348,-0.0384 -0.57687,-0.0145 -1.153759,-0.0297 -1.730273,-0.0552 -0.582155,-0.0269 -1.164857,-0.0573 -1.742971,-0.13437 -0.495271,-0.0689 -0.98904,-0.15033 -1.476238,-0.26414 -0.427221,-0.10154 -0.852466,-0.21272 -1.268082,-0.35541 -0.483509,-0.16909 -0.961872,-0.35756 -1.404336,-0.61876 -0.635823,-0.39301 -1.21438,-0.86421 -1.622694,-1.50129 -0.374934,-0.62816 -0.658711,-1.29513 -0.72778,-2.03188 -0.03516,-0.41137 -0.04613,-0.82292 -0.01469,-1.2351 0.01471,-0.3016 0.02941,-0.60319 0.04412,-0.90479 0.01844,-0.37819 0.03688,-0.75637 0.05529,-1.13456 0.02257,-0.46408 0.04533,-0.92815 0.06636,-1.39231 0.02326,-0.5458 0.04418,-1.09169 0.05989,-1.63776 0.01868,-0.62483 0.03636,-1.24972 0.04439,-1.87479 0.0098,-0.74227 0.01738,-1.48456 0.02585,-2.22685 0.0086,-0.82564 0.01486,-1.6513 0.01236,-2.47699 -8.99e-4,-0.85398 -0.0049,-1.70794 -0.01173,-2.56189 -0.0062,-0.89618 -0.01288,-1.79235 -0.01937,-2.68853 -0.0067,-0.98367 -0.01139,-1.96735 -0.0097,-2.95104 -3.17e-4,-1.03773 -6.35e-4,-2.07547 -0.001,-3.1132 -3.71e-4,-1.0883 -7.94e-4,-2.1766 -0.0012,-3.26491 -4.76e-4,-1.13718 -9.79e-4,-2.27436 -0.0016,-3.41154 -6.08e-4,-1.18553 -0.0012,-2.37105 -0.002,-3.55658 -7.67e-4,-1.22769 -0.0016,-2.45539 -0.0025,-3.68308 -9.26e-4,-1.25045 -0.0019,-2.50091 -0.0031,-3.75137 -0.0011,-1.20115 -0.0024,-2.4023 -0.0039,-3.60346 -0.0014,-1.14297 -0.0031,-2.28593 -0.0039,-3.4289 2.1e-5,-1.09176 0.0029,-2.1835 0.0086,-3.27524 0.0055,-1.00806 0.01329,-2.01612 0.03475,-3.02399 0.01844,-0.91361 0.04025,-1.82715 0.0665,-2.74057 0.02398,-0.81275 0.0503,-1.62542 0.08083,-2.43796 0.02447,-0.69776 0.05239,-1.39538 0.08012,-2.09303 0.0233,-0.58466 0.04836,-1.16925 0.06955,-1.754 0.01511,-0.4566 0.0309,-0.9134 0.02639,-1.37033 -0.0047,-0.32666 -0.01455,-0.65321 -0.0325,-0.97943 -0.0097,-0.17302 -0.01978,-0.34612 -0.03844,-0.51846 -0.01513,-0.14986 -0.03799,-0.29888 -0.04986,-0.4491 -0.40902,-4.84708 6.445784,-5.42552 6.854804,-0.57844 z"
       inkscape:connector-curvature="0" />
    <path
       style="opacity:1;fill:#020900;fill-opacity:1;stroke:none;stroke-width:1;stroke-linecap:butt;stroke-linejoin:round;stroke-miterlimit:4;stroke-dasharray:none;stroke-opacity:1"
       id="path1367"
       d="m 45.192772,209.96947 c 0.0838,-0.0652 0.168788,-0.12881 0.254431,-0.19155 0.07349,-0.0543 0.148331,-0.10676 0.223436,-0.1588 2.289019,-1.58704 2.621579,0.69984 5.501962,2.99872 -0.04934,0.82901 -0.399311,1.53734 -0.793871,2.24305 -0.34453,0.61535 -0.752994,1.19073 -1.170287,1.75803 -0.525015,0.7065 -1.095589,1.37703 -1.670412,2.04302 -0.578361,0.66008 -1.147292,1.32822 -1.709724,2.0019 -0.578083,0.68745 -1.124681,1.40017 -1.665087,2.11732 -0.565891,0.74528 -1.106699,1.50884 -1.637083,2.27962 -0.532937,0.77556 -1.050067,1.56175 -1.55634,2.35493 -0.502671,0.78873 -0.974465,1.59634 -1.432872,2.41139 -0.468,0.84406 -0.906275,1.70406 -1.338916,2.56662 -0.406871,0.81185 -0.80301,1.62899 -1.196178,2.44754 -0.332322,0.69317 -0.663732,1.38677 -0.995239,2.08033 -0.265501,0.55548 -0.530984,1.11097 -0.79647,1.66646 -0.211624,0.4428 -0.423251,0.8856 -0.634878,1.3284 -0.169383,0.35411 -0.338278,0.70846 -0.508016,1.0624 -0.111024,0.21303 -0.120753,0.33186 -0.03601,0.0379 0.213993,-0.98864 -0.109349,-1.69881 -0.665742,-2.50078 -0.362624,-0.3501 -0.353509,-0.3844 -0.756592,-0.62779 -0.09953,-0.0601 -0.546063,-0.21445 -0.351684,-0.18367 0.403215,0.0664 0.810358,0.1046 1.216983,0.14289 0.689594,0.06 1.379789,0.113 2.069944,0.16612 0.819952,0.0639 1.640623,0.11774 2.461543,0.16739 0.912625,0.0544 1.825839,0.098 2.739149,0.13906 0.966044,0.0426 1.932353,0.0788 2.898794,0.1111 0.984692,0.0318 1.969889,0.0408 2.955022,0.0446 1.02134,0.002 2.042684,0.001 3.064026,7.9e-4 0.962718,0.001 1.925415,-0.001 2.888081,-0.0114 0.834252,-0.01 1.668311,-0.0306 2.502312,-0.0525 0.663814,-0.0128 1.326484,-0.0517 1.988537,-0.0997 0.588243,-0.045 1.176158,-0.0941 1.764107,-0.14279 0.479705,-0.0397 0.959406,-0.0796 1.439106,-0.1194 0.43928,-0.0382 0.87821,-0.0764 1.318874,-0.0932 0.963059,-0.008 1.942647,0.22031 2.715577,0.8276 0.248526,0.19526 0.451665,0.44224 0.677495,0.66336 0.92783,1.29754 0.987875,2.54808 0.559818,4.01886 -0.229264,0.69478 -0.531619,1.36217 -0.83767,2.02568 -0.369107,0.78717 -0.761484,1.56306 -1.159399,2.33596 -0.474239,0.92105 -0.974797,1.82804 -1.483506,2.73039 -0.542859,0.95126 -1.087419,1.90151 -1.624544,2.85602 -0.564981,1.00479 -1.122376,2.0138 -1.677866,3.02385 -0.579263,1.05055 -1.140105,2.11103 -1.696328,3.17391 -0.596953,1.13973 -1.17896,2.28712 -1.745544,3.44222 -0.590952,1.22068 -1.165198,2.44936 -1.737034,3.67908 -0.577358,1.24784 -1.14962,2.49802 -1.718559,3.74971 -0.536313,1.18251 -1.07079,2.36585 -1.607503,3.54818 -0.475919,1.04643 -0.952433,2.09259 -1.432763,3.137 -0.394023,0.85579 -0.786998,1.71206 -1.181957,2.56742 -0.316368,0.68411 -0.633445,1.36789 -0.950445,2.05171 -0.252155,0.54392 -0.504327,1.08783 -0.756496,1.63175 -0.20097,0.43348 -0.401942,0.86697 -0.602914,1.30045 -0.160179,0.3455 -0.320358,0.691 -0.480537,1.03649 -0.289382,0.63759 -0.130638,0.33845 -0.0078,-0.20842 -0.610401,4.82585 -7.435191,3.96261 -6.824789,-0.86324 v 0 c 0.120205,-0.63613 0.28389,-1.24816 0.591478,-1.82181 0.160179,-0.34549 0.320358,-0.69099 0.480537,-1.03649 0.200972,-0.43348 0.401941,-0.86696 0.602914,-1.30045 0.252132,-0.54384 0.504266,-1.08767 0.756388,-1.63152 0.315558,-0.68071 0.631195,-1.36138 0.946126,-2.04238 0.393512,-0.85218 0.785006,-1.7053 1.177581,-2.55791 0.475623,-1.03412 0.947394,-2.07 1.418651,-3.10612 0.537183,-1.18336 1.072113,-2.36774 1.608907,-3.55127 0.577168,-1.26975 1.157669,-2.53798 1.743422,-3.80379 0.592037,-1.2731 1.18663,-2.54511 1.798926,-3.80862 0.593137,-1.20849 1.20165,-2.40931 1.826426,-3.60179 0.578255,-1.10483 1.161431,-2.2071 1.763546,-3.29917 0.566285,-1.02966 1.134539,-2.05824 1.710508,-3.08252 0.538173,-0.95628 1.083421,-1.9085 1.627563,-2.86138 0.466246,-0.82651 0.925168,-1.6572 1.35976,-2.5009 0.353155,-0.68552 0.701635,-1.37356 1.030187,-2.07128 0.179998,-0.38891 0.358087,-0.77897 0.512394,-1.17897 -0.0039,0.19211 -0.04684,0.31535 -0.03424,0.52543 0.04146,0.69115 0.277249,1.29408 0.711028,1.83843 0.186459,0.17279 0.355552,0.36645 0.559379,0.51835 0.441899,0.32934 1.02603,0.54612 1.58179,0.52243 -0.31492,-0.0215 -0.635243,0.0759 -0.950351,0.0725 -0.480277,0.0399 -0.960554,0.0797 -1.440839,0.11954 -0.611944,0.0506 -1.223854,0.10178 -1.836121,0.14837 -0.766874,0.0552 -1.534493,0.0995 -2.303341,0.11515 -0.869709,0.0228 -1.739484,0.0446 -2.609458,0.0545 -0.98625,0.0105 -1.972535,0.0132 -2.958838,0.0118 -1.031298,2.7e-4 -2.062597,0.001 -3.093892,-7.9e-4 -1.052674,-0.004 -2.105411,-0.0142 -3.157606,-0.0484 -0.992812,-0.0332 -1.985492,-0.0704 -2.977896,-0.11419 -0.948891,-0.0427 -1.897679,-0.0881 -2.845859,-0.14469 -0.858374,-0.052 -1.716492,-0.10834 -2.573861,-0.17511 -0.73043,-0.0562 -1.46091,-0.11219 -2.190684,-0.17648 -0.643779,-0.0613 -1.288296,-0.1263 -1.924164,-0.24719 -1.017598,-0.21278 -1.962512,-0.57808 -2.683057,-1.36885 -0.158385,-0.21607 -0.339582,-0.41714 -0.475149,-0.64821 -0.511797,-0.87231 -0.626531,-1.89259 -0.435087,-2.87156 0.13066,-0.53792 0.304036,-1.06147 0.556462,-1.55597 0.168415,-0.35114 0.335946,-0.70271 0.50401,-1.05403 0.211627,-0.4428 0.423254,-0.8856 0.634881,-1.3284 0.26553,-0.55559 0.531061,-1.11118 0.796607,-1.66676 0.333402,-0.69751 0.6667,-1.39507 1.000924,-2.09219 0.410282,-0.85413 0.82378,-1.70673 1.248381,-2.55386 0.481851,-0.96019 0.970616,-1.91721 1.492941,-2.85619 0.521546,-0.92585 1.058029,-1.84341 1.629722,-2.73941 0.549304,-0.85981 1.109752,-1.71248 1.687872,-2.55325 0.5866,-0.85177 1.184653,-1.69561 1.809967,-2.51955 0.609378,-0.80825 1.226741,-1.61071 1.878153,-2.38581 0.586827,-0.70266 1.180015,-1.39993 1.783299,-2.08855 0.459632,-0.53208 0.918102,-1.06593 1.339863,-1.62897 0.250201,-0.33845 0.500592,-0.67828 0.709438,-1.04446 0.07304,-0.12906 0.05554,-0.0973 0.115068,-0.20497 0.0076,-0.0138 0.02553,-0.057 0.02281,-0.0415 -0.06117,0.34581 -0.320792,0.62501 -0.215845,1.01716 2.44071,1.88229 3.151595,4.46857 5.285425,3.01055 -0.04503,0.0312 -0.03178,0.0213 -0.07735,0.0547 -0.03358,0.0246 -0.06468,0.0475 -0.09879,0.0742 -3.842023,2.98334 -8.061103,-2.4501 -4.219081,-5.43344 z"
       inkscape:connector-curvature="0" />
  </g>
</svg>
