<svg viewBox="0 0 100 100"><path style="opacity:1;fill:#020900;fill-opacity:1;stroke:none;stroke-width:1;stroke-linecap:butt;stroke-linejoin:round;stroke-miterlimit:4;stroke-dasharray:none;stroke-opacity:1" d="M22.367 212.217c.01.059.026.217.035.3.031.285.05.57.066.854q.034.633.043 1.266c.007.568-.01 1.135-.03 1.702-.02.6-.047 1.201-.07 1.801q-.042 1.03-.08 2.06a297 297 0 0 0-.144 5.077c-.02.974-.028 1.948-.033 2.922q-.009 1.62-.009 3.238l.004 3.42a14444 14444 0 0 1 .01 11.043l.001 3.557.004 9.791q-.001 1.454.01 2.906l.02 2.688q.01 1.301.011 2.602a192 192 0 0 1-.013 2.556q-.011 1.123-.026 2.246c-.008.663-.027 1.327-.047 1.99q-.025.863-.063 1.725-.033.717-.068 1.433l-.055 1.136-.044.905c-.022.074 0 .513-.014.192-.022-.356-.16-.678-.331-.985a2.3 2.3 0 0 0-.646-.687c-.124-.072.11.021.136.03.197.065.398.115.6.162q.41.09.826.143c.375.046.752.062 1.13.079a86 86 0 0 0 1.588.05q.91.021 1.819.037a395 395 0 0 0 4.34.053c.805.006 1.612-.003 2.418-.015l2.677-.045q1.396-.025 2.793-.059 1.389-.031 2.778-.067 1.299-.036 2.598-.097c.81-.037 1.618-.09 2.426-.149a83 83 0 0 0 2.327-.213c.774-.08 1.548-.169 2.322-.258a125 125 0 0 0 2.296-.287q1.128-.151 2.251-.317l2.178-.318 2.091-.303q.993-.144 1.986-.275.975-.128 1.95-.233a53 53 0 0 1 2.019-.182c.716-.052 1.433-.07 2.151-.076q1.02-.002 2.04.022c.632.015 1.263.045 1.894.075l1.506.077q.619.033 1.237.072l.96.06c.03.003.637.039.496.03-.789-.018-1.451.386-2.028.882a2.7 2.7 0 0 0-.633 1.024c.007-.151.029-.405.04-.586.032-.498.037-.997.042-1.495q.009-1.008.01-2.014 0-1.163-.004-2.324l-.005-2.51q-.004-1.382-.018-2.764c-.01-1.001-.038-2.002-.07-3.003-.034-1.067-.08-2.134-.127-3.201q-.078-1.69-.146-3.38-.067-1.748-.12-3.495a804 804 0 0 1-.1-3.644c-.025-1.21-.07-2.42-.12-3.63q-.08-1.778-.157-3.557a503 503 0 0 1-.234-6.936c-.025-1.142-.042-2.284-.059-3.425q-.023-1.563-.043-3.126a107 107 0 0 1-.001-3.007c.014-.98.04-1.959.066-2.938.027-.925.062-1.85.097-2.774l.086-2.333.07-1.91.055-1.53.044-1.219.035-.975.028-.823q.012-.369.032-.738l.03-.555.025-.434c0 .049.009-.196.008-.147-.004.225-.016.373.033.619.045.224.12.441.18.662.402.939 1.122 1.616 2.097 1.905.327.058-.005.03-.137.026l-1.296-.027q-.84-.021-1.681-.04a125 125 0 0 0-1.884-.028q-1.022-.005-2.045-.002-1.074.002-2.148.022-1.15.023-2.3.055a181 181 0 0 0-5.14.215q-1.417.082-2.833.17c-.901.055-1.801.123-2.702.193a226 226 0 0 0-5.11.46q-1.26.132-2.517.266-1.254.129-2.507.278l-2.523.308q-1.206.149-2.414.293c-.733.087-1.468.171-2.2.266-.652.084-1.3.187-1.948.295q-.87.147-1.736.31l-1.6.301-1.466.282q-.657.128-1.315.252-.563.106-1.125.207-.5.09-1.003.17-.528.087-1.06.146a11.8 11.8 0 0 1-2.49.01c-.393-.038-.782-.1-1.17-.175a13 13 0 0 1-1.073-.271 24 24 0 0 1-.801-.252l-.585-.195a10 10 0 0 1-.727-.263l-.902-.575c-3.684-3.177.81-8.386 4.493-5.21l-.84-.52c-.445-.17.052.016.152.042l.561.187q.285.096.574.181a4.8 4.8 0 0 0 .972.202 4.8 4.8 0 0 0 1.083.001q.36-.039.716-.099.444-.07.887-.15a100 100 0 0 0 1.06-.195l1.288-.247 1.5-.288q.807-.154 1.615-.304c.62-.115 1.24-.229 1.861-.333.73-.121 1.463-.237 2.198-.332.754-.097 1.509-.184 2.264-.273q1.2-.144 2.403-.292l2.54-.31q1.298-.155 2.6-.289 1.27-.135 2.542-.267a243 243 0 0 1 5.27-.476 183 183 0 0 1 2.813-.2q1.434-.09 2.868-.172c.929-.052 1.857-.102 2.786-.137a189 189 0 0 1 2.554-.086q1.183-.034 2.365-.057a126 126 0 0 1 2.26-.023c.704 0 1.408-.003 2.111.002q.989.007 1.976.03.845.017 1.689.04c.452.01.904.016 1.357.028.494.016.99.039 1.473.149 1.238.33 2.213 1.043 2.74 2.249.17.594.335 1.176.257 1.8l-.024.433-.03.531q-.016.303-.026.606l-.028.834-.035.983-.044 1.22-.056 1.529-.07 1.913-.086 2.339q-.053 1.353-.094 2.708a214 214 0 0 0-.065 2.832 99 99 0 0 0 .001 2.83l.043 3.113q.024 1.677.058 3.354.043 1.67.101 3.338.058 1.743.13 3.485.075 1.779.156 3.556c.052 1.248.098 2.496.125 3.745q.044 1.803.098 3.606a397 397 0 0 0 .262 6.777q.076 1.644.13 3.288c.035 1.051.063 2.103.074 3.155q.015 1.411.018 2.823l.005 2.506.005 2.345q-.001 1.039-.01 2.078a35 35 0 0 1-.056 1.86c-.036.546-.075 1.094-.188 1.631-.197.83-.51 1.61-1.105 2.243-.91.823-1.671 1.225-2.912 1.25a14 14 0 0 1-.965-.042l-.956-.06q-.582-.037-1.165-.068l-1.487-.076c-.57-.028-1.14-.055-1.712-.069a72 72 0 0 0-1.827-.02 27 27 0 0 0-1.725.058q-.882.063-1.761.16-.902.097-1.8.214-.952.125-1.9.264l-2.08.3-2.176.319q-1.17.173-2.34.33a197 197 0 0 1-4.825.57c-.842.085-1.684.168-2.527.23-.868.062-1.737.119-2.606.159q-1.363.064-2.728.101c-.935.026-1.87.046-2.804.068q-1.42.035-2.84.06l-2.692.045c-.857.013-1.714.022-2.571.016a535 535 0 0 1-4.41-.054q-.934-.016-1.87-.038a91 91 0 0 1-1.73-.056 20 20 0 0 1-1.742-.134c-.496-.069-.99-.15-1.477-.264a14 14 0 0 1-1.268-.356c-.483-.169-.962-.357-1.404-.618-.636-.393-1.214-.865-1.623-1.502-.375-.628-.658-1.295-.728-2.032a8 8 0 0 1-.014-1.235l.044-.904.055-1.135q.035-.696.067-1.392.035-.819.06-1.638c.018-.625.036-1.25.044-1.875q.014-1.113.026-2.227c.008-.825.015-1.651.012-2.477q0-1.281-.012-2.562l-.019-2.688q-.011-1.476-.01-2.951v-3.113l-.002-3.265-.002-3.412-.002-3.556-.009-11.038-.004-3.43q0-1.637.009-3.274c.005-1.008.013-2.017.034-3.024a321 321 0 0 1 .148-5.179q.037-1.046.08-2.093l.07-1.754c.015-.457.03-.913.026-1.37a24 24 0 0 0-.033-.98q-.013-.26-.038-.518c-.015-.15-.038-.3-.05-.45-.409-4.846 6.446-5.425 6.855-.578z" transform="translate(0 -197)"/><path style="opacity:1;fill:#020900;fill-opacity:1;stroke:none;stroke-width:1;stroke-linecap:butt;stroke-linejoin:round;stroke-miterlimit:4;stroke-dasharray:none;stroke-opacity:1" d="M45.193 209.97a11 11 0 0 1 .478-.35c2.289-1.588 2.621.699 5.502 2.998-.05.829-.4 1.537-.794 2.243-.345.615-.753 1.19-1.17 1.758a36 36 0 0 1-1.671 2.043q-.866.99-1.71 2.002a50 50 0 0 0-1.665 2.117 60 60 0 0 0-1.637 2.28 83 83 0 0 0-1.556 2.355 51 51 0 0 0-1.433 2.411 70 70 0 0 0-1.339 2.567q-.608 1.219-1.196 2.447l-.995 2.08-.797 1.667-.635 1.328-.508 1.063c-.11.213-.12.332-.036.038.214-.989-.11-1.7-.666-2.501-.362-.35-.353-.384-.756-.628-.1-.06-.546-.214-.352-.183.403.066.81.104 1.217.142q1.035.088 2.07.167 1.23.093 2.462.167 1.369.08 2.739.139 1.449.064 2.899.111c.984.032 1.97.04 2.955.045h3.064q1.443.003 2.888-.01c.834-.01 1.668-.032 2.502-.053a38 38 0 0 0 1.989-.1q.882-.068 1.764-.143l1.439-.12c.44-.038.878-.076 1.319-.093.963-.008 1.942.22 2.715.828.249.195.452.442.678.663.928 1.298.988 2.549.56 4.02-.23.694-.532 1.361-.838 2.025-.37.787-.762 1.563-1.16 2.336a82 82 0 0 1-1.483 2.73q-.816 1.427-1.625 2.856a367 367 0 0 0-1.677 3.024 164 164 0 0 0-1.697 3.174 146 146 0 0 0-1.745 3.442 263 263 0 0 0-1.737 3.68 613 613 0 0 0-1.719 3.75l-1.607 3.547a817 817 0 0 1-1.433 3.137l-1.182 2.568-.95 2.051-.757 1.632-.603 1.3-.48 1.037c-.29.638-.131.339-.008-.208-.61 4.826-7.435 3.962-6.825-.864.12-.636.284-1.248.591-1.821l.48-1.037.604-1.3.756-1.632.946-2.042 1.178-2.558q.713-1.551 1.419-3.106l1.608-3.552q.866-1.904 1.744-3.803a264 264 0 0 1 1.799-3.809q.889-1.813 1.826-3.602a172 172 0 0 1 1.764-3.299q.848-1.545 1.71-3.082c.538-.957 1.084-1.909 1.628-2.862a76 76 0 0 0 1.36-2.5c.353-.686.701-1.374 1.03-2.072.18-.389.358-.779.512-1.179-.004.192-.047.315-.034.526a3.17 3.17 0 0 0 .711 1.838c.186.173.356.366.56.518.441.33 1.025.546 1.581.523-.315-.022-.635.076-.95.072l-1.441.12q-.918.077-1.836.148c-.767.055-1.535.1-2.303.115-.87.023-1.74.045-2.61.055q-1.479.014-2.959.012l-3.094-.001a110 110 0 0 1-3.157-.049q-1.49-.049-2.978-.114a150 150 0 0 1-5.42-.32q-1.095-.082-2.19-.176a21 21 0 0 1-1.925-.247c-1.017-.213-1.962-.578-2.683-1.37-.158-.215-.34-.416-.475-.647-.512-.873-.626-1.893-.435-2.872a7 7 0 0 1 .556-1.556l.504-1.054.635-1.328.797-1.667 1-2.092a169 169 0 0 1 1.25-2.554c.481-.96.97-1.917 1.492-2.856a58 58 0 0 1 1.63-2.74q.823-1.29 1.688-2.553a67 67 0 0 1 1.81-2.52c.61-.808 1.226-1.61 1.878-2.385q.88-1.055 1.783-2.089c.46-.532.918-1.066 1.34-1.629.25-.338.5-.678.71-1.044l.115-.205c.007-.014.025-.057.022-.042-.06.346-.32.625-.215 1.017 2.44 1.883 3.151 4.469 5.285 3.01-.045.032-.032.022-.077.056l-.1.074c-3.841 2.983-8.06-2.45-4.218-5.434" transform="translate(0 -197)"/></svg>