<?xml version="1.0" encoding="UTF-8" standalone="no"?>
<!-- Created with Inkscape (http://www.inkscape.org/) -->

<svg
   xmlns:dc="http://purl.org/dc/elements/1.1/"
   xmlns:cc="http://creativecommons.org/ns#"
   xmlns:rdf="http://www.w3.org/1999/02/22-rdf-syntax-ns#"
   xmlns:svg="http://www.w3.org/2000/svg"
   xmlns="http://www.w3.org/2000/svg"
   xmlns:sodipodi="http://sodipodi.sourceforge.net/DTD/sodipodi-0.dtd"
   xmlns:inkscape="http://www.inkscape.org/namespaces/inkscape"
   width="10cm"
   height="10cm"
   viewBox="0 0 100 99.999997"
   version="1.1"
   id="svg8"
   sodipodi:docname="pali.svg"
   inkscape:version="0.92.3 (2405546, 2018-03-11)">
  <defs
     id="defs2" />
  <sodipodi:namedview
     id="base"
     pagecolor="#ffffff"
     bordercolor="#666666"
     borderopacity="1.0"
     inkscape:pageopacity="0.0"
     inkscape:pageshadow="2"
     inkscape:zoom="1"
     inkscape:cx="175.50186"
     inkscape:cy="186.50542"
     inkscape:document-units="cm"
     inkscape:current-layer="layer1"
     showgrid="true"
     units="cm"
     inkscape:window-width="881"
     inkscape:window-height="707"
     inkscape:window-x="971"
     inkscape:window-y="213"
     inkscape:window-maximized="0"
     inkscape:snap-nodes="false">
    <inkscape:grid
       type="xygrid"
       id="grid815"
       units="cm"
       spacingx="9.9999998"
       spacingy="9.9999998" />
  </sodipodi:namedview>
  <metadata
     id="metadata5">
    <rdf:RDF>
      <cc:Work
         rdf:about="">
        <dc:format>image/svg+xml</dc:format>
        <dc:type
           rdf:resource="http://purl.org/dc/dcmitype/StillImage" />
        <dc:title></dc:title>
      </cc:Work>
    </rdf:RDF>
  </metadata>
  <g
     inkscape:label="Layer 1"
     inkscape:groupmode="layer"
     id="layer1"
     transform="translate(0,-197.00002)">
    <path
       style="opacity:1;fill:#020900;fill-opacity:1;stroke:none;stroke-width:1;stroke-linecap:butt;stroke-linejoin:round;stroke-miterlimit:4;stroke-dasharray:none;stroke-opacity:1"
       id="path1369"
       d="m 12.698404,265.0576 c 0.560499,0.14458 1.061456,0.42867 1.54421,0.73859 0.411466,0.27256 0.797128,0.58128 1.181838,0.88974 0.351893,0.28592 0.702443,0.57349 1.05411,0.8597 0.408531,0.33166 0.819635,0.66012 1.226776,0.99349 0.520119,0.42595 1.021064,0.87438 1.520445,1.32422 0.500622,0.45621 1.011356,0.90094 1.529857,1.33666 0.591155,0.48933 1.192127,0.9666 1.787879,1.45029 0.666587,0.5407 1.312643,1.10588 1.957303,1.67232 0.557736,0.49259 1.115669,0.98495 1.671543,1.47965 0.46475,0.41471 0.931043,0.82769 1.39413,1.24426 0.368591,0.33597 0.734611,0.67468 1.108149,1.00516 0.331473,0.28987 0.661176,0.58173 0.988322,0.87647 0.301009,0.27095 0.597967,0.54637 0.890665,0.82627 0.255103,0.2454 0.503973,0.49715 0.752519,0.74916 0.185119,0.18799 0.369967,0.37625 0.554845,0.56447 0.146206,0.14886 0.292407,0.29773 0.438608,0.44659 0.0068,0.007 0.09067,0.0928 0.108145,0.10979 0.0073,0.007 -0.01363,-0.0151 -0.02111,-0.022 -0.04775,-0.044 -0.09274,-0.0915 -0.14454,-0.13068 -0.136842,-0.10354 -0.262207,-0.23079 -0.420565,-0.29689 -0.442921,-0.18488 -0.911913,-0.29974 -1.367872,-0.44961 -2.662965,0.87728 -2.545699,0.20888 -3.629597,2.45919 -0.101333,0.21038 -0.08752,0.45909 -0.116281,0.69082 -0.02474,0.19918 0.0154,0.43989 -0.0042,0.31921 -0.05449,-0.33781 -0.105526,-0.6761 -0.152212,-1.01507 -0.0756,-0.56602 -0.128726,-1.13467 -0.181842,-1.70313 -0.06049,-0.62653 -0.114865,-1.25359 -0.163524,-1.88114 -0.0568,-0.74959 -0.09881,-1.50018 -0.138551,-2.25083 -0.04813,-0.84836 -0.06293,-1.69788 -0.05819,-2.54743 0.0046,-0.95469 0.08552,-1.90594 0.189322,-2.85419 0.116529,-1.01012 0.286182,-2.01293 0.469406,-3.01275 0.192244,-1.06157 0.456319,-2.10755 0.746472,-3.14597 0.314888,-1.1081 0.694126,-2.19598 1.101185,-3.27312 0.433872,-1.13657 0.941229,-2.24243 1.474906,-3.33497 0.552974,-1.13178 1.189485,-2.2187 1.860968,-3.28339 0.699183,-1.0985 1.488776,-2.1342 2.31108,-3.14235 0.862759,-1.05401 1.829485,-2.01322 2.834516,-2.92988 1.029181,-0.93091 2.158426,-1.73729 3.318079,-2.49532 1.16043,-0.75518 2.391478,-1.38748 3.649934,-1.96033 1.291551,-0.57995 2.639555,-1.01205 4.004715,-1.3789 1.370198,-0.36667 2.775093,-0.54917 4.187431,-0.64121 1.389269,-0.0812 2.774148,0.0466 4.146105,0.25526 1.295779,0.20408 2.552216,0.57866 3.784852,1.01871 1.10895,0.40622 2.17434,0.91656 3.217942,1.46662 1.02335,0.53688 1.978215,1.18615 2.893922,1.88805 0.893575,0.69831 1.701197,1.495 2.473674,2.32276 0.767385,0.82718 1.433788,1.73758 2.063515,2.67152 0.611357,0.91712 1.143608,1.8823 1.643779,2.86338 0.508461,1.00446 0.930569,2.04838 1.325695,3.10151 0.377537,1.02215 0.700352,2.0631 1.010433,3.10731 0.312272,1.03797 0.546542,2.09611 0.749491,3.16009 0.179419,0.9831 0.312621,1.97371 0.435602,2.96519 0.108233,0.86907 0.187637,1.74128 0.261154,2.61385 0.06021,0.73303 0.117565,1.4663 0.172209,2.19977 0.0445,0.61327 0.08958,1.22651 0.129511,1.8401 0.03312,0.54639 0.05674,1.0933 0.07794,1.64027 0.0181,0.47723 0.02572,0.95476 0.0337,1.43224 0.0072,0.39587 0.01206,0.79176 0.01561,1.18767 0.0027,0.3505 0.0016,0.701 -5.29e-4,1.0515 -0.0019,0.27959 -0.0041,0.55918 -0.0061,0.83877 -0.0019,0.25146 -0.0034,0.50292 -0.005,0.75438 -0.0013,0.2067 -0.0027,0.41339 -0.004,0.62008 -0.0011,0.17011 -0.0021,0.34022 -0.0032,0.51033 -7.94e-4,0.14102 -0.0016,0.28204 -0.0026,0.42306 -7.94e-4,0.12709 -0.0013,0.25419 -0.0031,0.38128 -0.01056,0.13669 -0.02111,0.27338 -0.03167,0.41007 -0.604996,4.82654 -7.430748,3.97094 -6.825752,-0.85559 v 0 c -0.0069,0.10733 -0.01376,0.21467 -0.02064,0.32201 0.0011,-0.0997 0.0016,-0.19939 0.0021,-0.29908 7.94e-4,-0.14136 0.0016,-0.28272 0.0026,-0.42408 0.0011,-0.1707 0.0021,-0.3414 0.0032,-0.51209 0.0013,-0.207 0.0027,-0.41399 0.004,-0.62098 0.0016,-0.25287 0.0033,-0.50573 0.0051,-0.75859 0.0019,-0.27775 0.0042,-0.5555 0.0061,-0.83325 0.0021,-0.31535 0.0031,-0.63071 7.94e-4,-0.94606 -0.0034,-0.37822 -0.008,-0.75641 -0.01495,-1.13458 -0.0071,-0.42719 -0.0136,-0.85444 -0.02953,-1.28142 -0.01876,-0.48691 -0.03972,-0.97377 -0.06861,-1.4602 -0.03833,-0.59188 -0.08225,-1.18339 -0.124973,-1.77497 -0.05295,-0.7114 -0.108651,-1.42259 -0.166958,-2.13357 -0.06586,-0.78298 -0.136236,-1.56571 -0.233259,-2.34556 -0.104447,-0.84514 -0.216649,-1.68965 -0.367133,-2.52803 -0.157792,-0.83707 -0.340342,-1.66954 -0.585936,-2.48586 -0.264154,-0.89115 -0.5378,-1.77998 -0.858176,-2.65284 -0.303289,-0.81292 -0.625239,-1.61971 -1.015373,-2.39562 -0.37184,-0.73444 -0.767365,-1.45715 -1.221703,-2.14448 -0.425503,-0.63676 -0.873103,-1.25982 -1.392372,-1.82465 -0.512011,-0.55441 -1.046869,-1.08906 -1.637943,-1.56011 -0.600943,-0.4693 -1.233083,-0.89639 -1.908048,-1.25328 -0.755192,-0.40185 -1.526675,-0.77419 -2.328862,-1.07382 -0.817571,-0.2974 -1.65055,-0.55325 -2.511153,-0.69399 -0.881745,-0.14097 -1.772078,-0.23174 -2.666463,-0.18704 -0.958061,0.0544 -1.910257,0.17755 -2.840175,0.42217 -1.001606,0.26408 -1.99019,0.57792 -2.938579,0.99828 -0.942977,0.42416 -1.863952,0.89582 -2.73332,1.45799 -0.853765,0.55361 -1.686637,1.14099 -2.445512,1.82149 -0.757616,0.6857 -1.485905,1.40411 -2.13628,2.19404 -0.648126,0.79024 -1.269939,1.60272 -1.821995,2.46385 -0.540568,0.85256 -1.051785,1.72378 -1.496481,2.63082 -0.441401,0.90041 -0.861361,1.81169 -1.220954,2.74836 -0.336579,0.88612 -0.649205,1.78149 -0.910455,2.69306 -0.23509,0.83547 -0.449096,1.67709 -0.604282,2.53156 -0.154225,0.83822 -0.298032,1.67879 -0.397867,2.52549 -0.07946,0.71183 -0.143558,1.42584 -0.147907,2.14272 -0.0052,0.71387 0.0084,1.42768 0.04872,2.14054 0.03673,0.69477 0.07534,1.3895 0.127638,2.0833 0.04569,0.59128 0.09727,1.18205 0.154233,1.77235 0.04389,0.47021 0.08683,0.94067 0.147976,1.40903 0.04881,0.35882 0.108162,0.71597 0.160071,1.07433 0.140472,1.14216 -0.0054,2.60478 -1.069896,3.3454 -0.775189,0.53934 -1.789681,0.60354 -2.684521,0.90531 -1.190043,-0.38134 -1.611423,-0.39971 -2.380966,-1.23574 -0.146122,-0.14879 -0.292241,-0.29757 -0.438367,-0.44635 -0.181597,-0.18489 -0.363165,-0.3698 -0.54499,-0.55447 -0.202621,-0.20546 -0.405213,-0.41101 -0.612812,-0.61148 -0.241945,-0.23224 -0.488719,-0.45942 -0.737673,-0.68413 -0.312178,-0.2814 -0.62721,-0.5596 -0.943474,-0.8364 -0.386858,-0.34278 -0.76753,-0.69231 -1.148717,-1.04137 -0.453871,-0.40837 -0.911071,-0.813 -1.366546,-1.21958 -0.545041,-0.48509 -1.092164,-0.96783 -1.639007,-1.45088 -0.577555,-0.50754 -1.155663,-1.01478 -1.7527,-1.49947 -0.626453,-0.5087 -1.258784,-1.01018 -1.879457,-1.52597 -0.577919,-0.48638 -1.148128,-0.98173 -1.706538,-1.49046 -0.419254,-0.37776 -0.838847,-0.75546 -1.275225,-1.11353 -0.401349,-0.32892 -0.807226,-0.65225 -1.209822,-0.97965 -0.338989,-0.27589 -0.677051,-0.55291 -1.015973,-0.82888 -0.208099,-0.16698 -0.415454,-0.33535 -0.631839,-0.49156 -0.153338,-0.10926 0.452182,0.21265 0.485704,0.15651 -4.7090264,-1.21923 -2.9847662,-7.87881 1.72426,-6.65957 z"
       inkscape:connector-curvature="0" />
    <path
       style="opacity:1;fill:#020900;fill-opacity:1;stroke:none;stroke-width:1;stroke-linecap:butt;stroke-linejoin:round;stroke-miterlimit:4;stroke-dasharray:none;stroke-opacity:1"
       id="path1371"
       d="m 47.66651,215.8646 c 0.08931,0.36857 0.289668,0.68882 0.51263,0.98966 0.159142,0.19422 0.34617,0.36351 0.559874,0.49529 0.04169,0.0285 -0.05751,0.009 -0.07628,0.008 -0.127625,-0.006 -0.254789,0.0108 -0.380313,0.0321 -0.28739,0.0624 -0.560771,0.17452 -0.831352,0.28714 -0.469464,0.19961 -0.91018,0.45658 -1.339138,0.73083 -0.475496,0.30956 -0.903312,0.68205 -1.313344,1.07222 -0.457841,0.4426 -0.865257,0.93207 -1.256372,1.43341 -0.358701,0.46209 -0.68304,0.94879 -0.960842,1.46346 -0.187449,0.3504 -0.307909,0.72725 -0.382625,1.11605 -0.06692,0.36818 -0.04572,0.73975 5.3e-4,1.10837 0.07218,0.50945 0.232177,0.99913 0.403825,1.48216 0.214821,0.59113 0.476174,1.16336 0.773906,1.71695 0.253694,0.46432 0.573977,0.88528 0.919401,1.28417 0.347144,0.39273 0.753854,0.72329 1.177324,1.02925 0.432621,0.30892 0.916483,0.52761 1.407502,0.72451 0.596894,0.23129 1.217218,0.3913 1.838809,0.53974 0.615095,0.15022 1.243796,0.22115 1.874205,0.26383 0.503664,0.0393 1.002083,-0.015 1.494729,-0.11568 0.47166,-0.10227 0.919366,-0.28276 1.356045,-0.48425 0.411949,-0.19005 0.79665,-0.42935 1.161955,-0.69694 0.261707,-0.1879 0.482902,-0.41587 0.67051,-0.67614 0.21124,-0.30561 0.363185,-0.64496 0.502936,-0.98753 0.171765,-0.4376 0.292502,-0.89228 0.397057,-1.34984 0.109876,-0.49213 0.180017,-0.99153 0.226576,-1.49324 0.0418,-0.5063 0.02463,-1.01454 -7.94e-4,-1.52111 -0.02638,-0.53165 -0.08717,-1.06032 -0.174828,-1.58511 -0.07087,-0.4163 -0.183653,-0.82326 -0.316982,-1.2234 -0.125031,-0.36473 -0.280659,-0.71772 -0.451927,-1.06282 -0.11744,-0.23705 -0.268949,-0.45363 -0.432929,-0.66027 -0.191762,-0.23419 -0.408062,-0.44655 -0.622449,-0.65966 -0.229679,-0.23191 -0.471834,-0.45061 -0.719806,-0.66263 -0.198917,-0.17285 -0.410337,-0.33008 -0.626743,-0.48011 -0.188238,-0.13184 -0.386122,-0.24857 -0.588036,-0.35794 -0.196234,-0.107 -0.400008,-0.1986 -0.606094,-0.28464 -0.185923,-0.0777 -0.377193,-0.1412 -0.569857,-0.19977 -0.103254,-0.0344 -0.210254,-0.0501 -0.317699,-0.0634 -0.08983,-0.0109 -0.180205,-0.0171 -0.270518,-0.0117 0.03497,0.0113 0.07723,9.3e-4 0.112829,-0.003 -4.760029,1.0018 -6.176785,-5.7299 -1.416756,-6.7317 v 0 c 0.397946,-0.0768 0.79815,-0.14186 1.204857,-0.1438 0.450175,-0.003 0.900374,0.0154 1.346422,0.0807 0.463015,0.0686 0.922845,0.15883 1.369938,0.2998 0.411068,0.12781 0.818716,0.26709 1.215414,0.43496 0.422526,0.17928 0.839785,0.37116 1.242229,0.59248 0.418479,0.23118 0.829453,0.47604 1.220732,0.75135 0.401148,0.28194 0.793838,0.57603 1.164522,0.89745 0.375581,0.3233 0.743251,0.65574 1.092641,1.00744 0.429295,0.42804 0.85244,0.86388 1.224127,1.34399 0.436729,0.57516 0.840422,1.17553 1.156279,1.82695 0.308502,0.63514 0.591786,1.28292 0.813232,1.95419 0.237228,0.73599 0.441309,1.48285 0.565853,2.24711 0.126072,0.78315 0.21975,1.57113 0.256818,2.364 0.03901,0.8385 0.05494,1.67948 -0.02368,2.51652 -0.08016,0.80275 -0.192426,1.60241 -0.373928,2.38925 -0.19644,0.8329 -0.426926,1.65894 -0.753925,2.45138 -0.383344,0.90085 -0.824354,1.77887 -1.423942,2.55835 -0.608894,0.76344 -1.283758,1.46798 -2.085218,2.03363 -0.739392,0.5245 -1.511028,1.00231 -2.339309,1.37549 -0.93691,0.418 -1.900544,0.77857 -2.911276,0.97407 -1.076979,0.19574 -2.166758,0.30373 -3.262241,0.21705 -1.005737,-0.0749 -2.008357,-0.19604 -2.989607,-0.43684 -0.962125,-0.2326 -1.919295,-0.49316 -2.839251,-0.86299 -1.010018,-0.41885 -1.99472,-0.90093 -2.879008,-1.55146 -0.844727,-0.62856 -1.652029,-1.30867 -2.338123,-2.112 -0.660289,-0.78403 -1.273104,-1.60839 -1.755278,-2.51623 -0.454292,-0.86337 -0.864833,-1.74935 -1.190455,-2.67011 -0.342675,-0.98976 -0.636884,-1.99896 -0.75266,-3.04389 -0.105241,-1.10285 -0.112848,-2.2123 0.124814,-3.30123 0.236702,-1.02728 0.562613,-2.03058 1.077214,-2.95621 0.464548,-0.83239 0.979495,-1.63474 1.570313,-2.38419 0.606848,-0.77103 1.242295,-1.52066 1.954601,-2.19753 0.734304,-0.68673 1.502894,-1.3381 2.353548,-1.87841 0.777097,-0.4877 1.576732,-0.9412 2.427386,-1.28977 0.839237,-0.3363 1.698799,-0.63076 2.600674,-0.74318 0.798827,-0.0875 1.60424,-0.1172 2.399771,0.0251 0.640114,0.12071 1.272844,0.28338 1.861849,0.56908 0.63346,0.3171 1.229783,0.69979 1.693481,1.24558 0.393176,0.50265 0.73328,1.04087 0.886315,1.66869 1.270777,4.69537 -5.369492,6.49253 -6.640269,1.79715 z"
       inkscape:connector-curvature="0" />
  </g>
</svg>
