<svg viewBox="0 0 100 100"><path style="opacity:1;fill:#020900;fill-opacity:1;stroke:none;stroke-width:1;stroke-linecap:butt;stroke-linejoin:round;stroke-miterlimit:4;stroke-dasharray:none;stroke-opacity:1" d="M12.698 265.058c.56.144 1.062.428 1.545.738a16 16 0 0 1 1.181.89l1.055.86c.408.331.82.66 1.226.993.52.426 1.021.874 1.52 1.324q.752.684 1.53 1.337c.592.49 1.193.967 1.789 1.45a66 66 0 0 1 1.957 1.673q.837.738 1.671 1.48.699.62 1.394 1.244c.37.335.735.674 1.109 1.005q.496.434.988.876.452.407.89.826.383.37.753.75l.555.564.439.447.087.087c-.048-.044-.093-.091-.145-.13-.137-.104-.262-.231-.42-.297-.443-.185-.912-.3-1.368-.45-2.663.878-2.546.21-3.63 2.46-.101.21-.087.459-.116.69-.025.2.015.44-.004.32a45 45 0 0 1-.153-1.016 44 44 0 0 1-.181-1.703q-.091-.94-.164-1.88a100 100 0 0 1-.139-2.252 41 41 0 0 1-.058-2.547c.005-.955.086-1.906.19-2.854.116-1.01.286-2.013.469-3.013.192-1.062.456-2.108.746-3.146a41 41 0 0 1 1.102-3.273 41 41 0 0 1 1.475-3.335 35 35 0 0 1 1.86-3.284c.7-1.098 1.49-2.134 2.312-3.142.862-1.054 1.83-2.013 2.834-2.93 1.03-.93 2.159-1.737 3.318-2.495 1.16-.755 2.392-1.388 3.65-1.96 1.292-.58 2.64-1.012 4.005-1.38 1.37-.366 2.775-.548 4.187-.64 1.39-.082 2.774.046 4.146.255 1.296.204 2.553.578 3.785 1.018 1.11.407 2.175.917 3.218 1.467 1.024.537 1.978 1.186 2.894 1.888.894.698 1.701 1.495 2.474 2.323.767.827 1.434 1.737 2.063 2.671.612.918 1.144 1.883 1.644 2.864.509 1.004.93 2.048 1.326 3.101.377 1.022.7 2.063 1.01 3.108.312 1.038.547 2.096.75 3.16.18.983.312 1.973.435 2.965.109.869.188 1.741.261 2.614q.09 1.1.173 2.2c.044.613.09 1.226.13 1.84q.047.82.077 1.64c.018.477.026.955.034 1.432q.01.594.015 1.188.004.525 0 1.051l-.006.84-.005.753-.004.62-.003.51-.003.424-.003.381-.032.41c-.605 4.827-7.43 3.971-6.826-.855l-.02.322.002-.3.003-.423.003-.513.004-.62.005-.76.006-.832a68 68 0 0 0-.014-2.081c-.007-.427-.014-.854-.03-1.281q-.027-.73-.068-1.46-.06-.889-.125-1.776-.08-1.067-.167-2.133a59 59 0 0 0-.234-2.346 47 47 0 0 0-.367-2.528c-.157-.837-.34-1.67-.586-2.486a44 44 0 0 0-.858-2.652c-.303-.813-.625-1.62-1.015-2.396a21 21 0 0 0-1.222-2.145c-.425-.636-.873-1.26-1.392-1.824-.512-.555-1.047-1.09-1.638-1.56a13 13 0 0 0-1.908-1.254 19.5 19.5 0 0 0-2.33-1.073c-.817-.298-1.65-.554-2.51-.694-.882-.141-1.772-.232-2.667-.187-.958.054-1.91.177-2.84.422-1.002.264-1.99.578-2.938.998-.943.424-1.864.896-2.734 1.458-.854.554-1.686 1.141-2.445 1.821-.758.686-1.486 1.405-2.137 2.194-.648.79-1.27 1.603-1.822 2.464a28 28 0 0 0-1.496 2.631c-.441.9-.861 1.812-1.221 2.749-.337.886-.65 1.781-.91 2.693-.236.835-.45 1.677-.605 2.531a40 40 0 0 0-.398 2.526 20 20 0 0 0-.148 2.142 34 34 0 0 0 .05 2.14 93 93 0 0 0 .127 2.084q.069.887.154 1.773c.044.47.087.94.148 1.409.049.358.108.716.16 1.074.14 1.142-.005 2.605-1.07 3.345-.775.54-1.79.604-2.684.906-1.19-.382-1.612-.4-2.381-1.236l-.439-.446-.545-.555q-.302-.31-.612-.611a33 33 0 0 0-.738-.685q-.468-.422-.944-.836-.578-.516-1.148-1.041c-.454-.409-.911-.813-1.367-1.22q-.818-.727-1.639-1.45a59 59 0 0 0-1.753-1.5c-.626-.509-1.258-1.01-1.879-1.526a58 58 0 0 1-1.707-1.49 36 36 0 0 0-1.275-1.114c-.401-.33-.807-.652-1.21-.98l-1.016-.829c-.208-.167-.415-.335-.631-.491-.154-.11.452.212.485.156-4.709-1.219-2.984-7.879 1.725-6.66zm34.969-49.193c.089.368.29.688.512.99a2.3 2.3 0 0 0 .56.495c.042.028-.057.009-.076.008a1.8 1.8 0 0 0-.38.032 5 5 0 0 0-.832.287c-.47.2-.91.456-1.34.73-.475.31-.902.683-1.312 1.073a14 14 0 0 0-1.257 1.433c-.358.462-.683.949-.96 1.464-.188.35-.309.727-.383 1.116-.067.368-.046.74 0 1.108.072.51.232 1 .404 1.482.215.591.476 1.164.774 1.717a7.4 7.4 0 0 0 .92 1.284c.347.393.753.724 1.177 1.03.432.309.916.527 1.407.724.597.231 1.217.391 1.839.54.615.15 1.244.221 1.874.264a5.4 5.4 0 0 0 1.495-.116c.472-.102.92-.283 1.356-.484a7 7 0 0 0 1.162-.697q.391-.284.67-.676c.212-.306.364-.645.503-.988.172-.437.293-.892.397-1.35.11-.492.18-.991.227-1.493.042-.506.025-1.014 0-1.521a14 14 0 0 0-.176-1.585 8 8 0 0 0-.317-1.223 9 9 0 0 0-.451-1.063 3.8 3.8 0 0 0-.433-.66c-.192-.235-.408-.447-.623-.66-.23-.232-.472-.45-.72-.663a7 7 0 0 0-.626-.48 6.5 6.5 0 0 0-1.764-.842 1.6 1.6 0 0 0-.318-.064c-.09-.01-.18-.017-.27-.011.034.01.077 0 .112-.003-4.76 1.001-6.177-5.73-1.417-6.732a6.5 6.5 0 0 1 1.205-.144 8.9 8.9 0 0 1 2.717.38 13 13 0 0 1 2.457 1.028c.419.231.83.476 1.221.751.401.282.794.576 1.165.898.375.323.743.656 1.092 1.007.43.428.853.864 1.224 1.344.437.575.84 1.176 1.157 1.827.308.635.591 1.283.813 1.954.237.736.441 1.483.566 2.247.126.784.22 1.572.257 2.364.039.839.054 1.68-.024 2.517-.08.803-.193 1.602-.374 2.39-.197.832-.427 1.658-.754 2.45-.383.901-.824 1.78-1.424 2.559-.609.763-1.284 1.468-2.085 2.034-.74.524-1.511 1.002-2.34 1.375-.936.418-1.9.779-2.91.974-1.078.196-2.168.304-3.263.217-1.006-.075-2.008-.196-2.99-.437-.962-.232-1.919-.493-2.839-.863-1.01-.418-1.995-.9-2.879-1.551-.845-.629-1.652-1.309-2.338-2.112-.66-.784-1.273-1.608-1.755-2.516a20 20 0 0 1-1.19-2.67c-.343-.99-.638-2-.753-3.044-.106-1.103-.113-2.213.124-3.302.237-1.027.563-2.03 1.078-2.956.464-.832.98-1.634 1.57-2.384.607-.771 1.242-1.52 1.955-2.197.734-.687 1.502-1.339 2.353-1.879.777-.488 1.577-.941 2.428-1.29.839-.336 1.698-.63 2.6-.743.799-.087 1.604-.117 2.4.025.64.121 1.273.284 1.862.57.633.316 1.23.7 1.693 1.245.393.503.734 1.04.887 1.669 1.27 4.695-5.37 6.492-6.64 1.797" transform="translate(0 -197)"/></svg>