<svg viewBox="0 0 100 100"><path style="opacity:1;fill:#020900;fill-opacity:1;stroke:none;stroke-width:1;stroke-linecap:butt;stroke-linejoin:round;stroke-miterlimit:4;stroke-dasharray:none;stroke-opacity:1" d="M37.218 212.745c.314.384.531.828.714 1.286.166.442.26.905.34 1.37.07.432.119.867.163 1.303.048.48.083.962.116 1.443q.051.773.089 1.547.039.825.069 1.648a32 32 0 0 1-.068 3.868c-.05.68-.121 1.358-.202 2.035-.083.67-.187 1.338-.29 2.006a67 67 0 0 0-.277 1.968 86 86 0 0 0-.233 2.143 128 128 0 0 0-.542 8.407q-.038 1.058-.066 2.114-.03 1.095-.054 2.188a273 273 0 0 0-.06 4.415c-.004.747.014 1.495.04 2.242.027.777.075 1.552.13 2.328.054.739.13 1.476.215 2.212.086.692.195 1.382.304 2.07q.16 1.03.355 2.054c.124.661.277 1.317.436 1.97.157.653.335 1.3.526 1.943.187.617.4 1.225.61 1.834q.327.952.662 1.9c.214.6.451 1.193.693 1.783.222.551.482 1.086.753 1.615.255.5.546.98.853 1.45.279.423.592.823.921 1.208.293.34.614.653.947.952.196.168.4.332.638.436q.251.108.52.152c.156.023.312.01.467-.008q.332-.04.65-.147c.189-.061.36-.162.527-.266q.403-.262.776-.565c.192-.153.353-.337.507-.527.2-.247.37-.517.53-.792a8 8 0 0 0 .458-.982q.24-.615.41-1.253c.12-.46.191-.932.258-1.403.09-.658.142-1.321.176-1.984.042-.825.021-1.65-.009-2.474-.043-.999-.099-1.996-.149-2.995q-.079-1.628-.15-3.255a385 385 0 0 1-.25-6.452 556 556 0 0 0-.109-3.185q-.058-1.515-.129-3.031a244 244 0 0 0-.308-5.86 339 339 0 0 1-.159-2.649q-.063-1.215-.153-2.43a273 273 0 0 0-.193-2.389c-.07-.81-.135-1.621-.205-2.432q-.104-1.183-.227-2.363l-.25-2.393q-.123-1.12-.25-2.24-.114-.993-.232-1.985-.108-.9-.236-1.797a33 33 0 0 0-.301-1.746 23 23 0 0 0-.847-3.122 15 15 0 0 0-1.085-2.345q-.299-.512-.635-1.001a5 5 0 0 0-.507-.625 1 1 0 0 0-.286-.216 4 4 0 0 0-.494-.246 1.4 1.4 0 0 0-.3-.073c-.092-.01-.184 0-.276.006-.227.02-.453.052-.68.085-.188.031-.38.052-.563.112q-.316.107-.625.231a7 7 0 0 0-.634.291 2 2 0 0 0-.341.227 3 3 0 0 0-.355.332c-.236.27-.509.79.333-.6-1.529 4.618-8.06 2.456-6.53-2.162.385-.781.618-1.4 1.216-1.981a10.4 10.4 0 0 1 1.187-1.076c.432-.323.88-.624 1.362-.867.4-.202.806-.392 1.223-.557.43-.17.865-.333 1.31-.462.47-.128.946-.232 1.429-.296a14 14 0 0 1 1.395-.15c.614-.022 1.23-.007 1.835.11.596.118 1.185.274 1.744.517.506.221 1 .468 1.468.763.582.379 1.135.8 1.607 1.314.418.452.811.925 1.157 1.435q.49.714.923 1.46a22 22 0 0 1 1.625 3.529q.332.96.602 1.942c.187.694.356 1.393.492 2.1.137.697.262 1.398.362 2.102q.138.972.255 1.948.121 1.014.237 2.028.132 1.149.256 2.297l.252 2.406q.129 1.238.238 2.48l.206 2.444q.105 1.232.2 2.465.092 1.27.16 2.543.073 1.302.156 2.602a251 251 0 0 1 .315 5.986q.07 1.545.131 3.088.06 1.61.11 3.22a378 378 0 0 0 .246 6.361q.07 1.608.149 3.217c.051 1.03.11 2.059.153 3.09.037 1.028.058 2.06.004 3.088a30 30 0 0 1-.236 2.595c-.11.758-.234 1.515-.436 2.255a19 19 0 0 1-.667 2.013 14.5 14.5 0 0 1-.91 1.894c-.352.592-.729 1.17-1.17 1.7-.458.544-.947 1.062-1.507 1.504-.492.39-.998.762-1.535 1.09-.648.38-1.321.719-2.043.937-.7.208-1.411.371-2.14.427-.809.055-1.621.047-2.417-.124-.79-.175-1.564-.413-2.285-.788-.738-.398-1.438-.859-2.058-1.428a18 18 0 0 1-1.577-1.603 19 19 0 0 1-1.44-1.904 23 23 0 0 1-1.212-2.07 27 27 0 0 1-.994-2.14 48 48 0 0 1-.81-2.088q-.345-.979-.683-1.962c-.241-.7-.485-1.401-.699-2.112a44 44 0 0 1-.617-2.28 44 44 0 0 1-.51-2.313 70 70 0 0 1-.392-2.262 66 66 0 0 1-.341-2.345 58 58 0 0 1-.245-2.525 71 71 0 0 1-.143-2.576 62 62 0 0 1-.043-2.509q.004-1.155.022-2.31a279 279 0 0 1 .093-4.457 257 257 0 0 1 .156-4.372q.052-1.11.125-2.219.072-1.088.159-2.177.09-1.12.2-2.239a92 92 0 0 1 .254-2.333q.135-1.073.302-2.143c.09-.594.184-1.19.259-1.786a37 37 0 0 0 .17-1.695c.038-.54.068-1.081.076-1.623q.012-.753-.02-1.504-.028-.783-.066-1.563a81 81 0 0 0-.08-1.421 41 41 0 0 0-.097-1.216 16 16 0 0 0-.102-.846c-.011-.067-.061-.301.006-.095.089.204.198.4.34.57-3.03-3.805 2.352-8.09 5.382-4.284" transform="translate(0 -197)"/></svg>