<?xml version="1.0" encoding="UTF-8" standalone="no"?>
<!-- Created with Inkscape (http://www.inkscape.org/) -->

<svg
   xmlns:dc="http://purl.org/dc/elements/1.1/"
   xmlns:cc="http://creativecommons.org/ns#"
   xmlns:rdf="http://www.w3.org/1999/02/22-rdf-syntax-ns#"
   xmlns:svg="http://www.w3.org/2000/svg"
   xmlns="http://www.w3.org/2000/svg"
   xmlns:sodipodi="http://sodipodi.sourceforge.net/DTD/sodipodi-0.dtd"
   xmlns:inkscape="http://www.inkscape.org/namespaces/inkscape"
   width="10cm"
   height="10cm"
   viewBox="0 0 100 99.999997"
   version="1.1"
   id="svg8"
   sodipodi:docname="palisa.svg"
   inkscape:version="0.92.3 (2405546, 2018-03-11)">
  <defs
     id="defs2" />
  <sodipodi:namedview
     id="base"
     pagecolor="#ffffff"
     bordercolor="#666666"
     borderopacity="1.0"
     inkscape:pageopacity="0.0"
     inkscape:pageshadow="2"
     inkscape:zoom="1"
     inkscape:cx="175.50186"
     inkscape:cy="186.50542"
     inkscape:document-units="cm"
     inkscape:current-layer="layer1"
     showgrid="true"
     units="cm"
     inkscape:window-width="881"
     inkscape:window-height="707"
     inkscape:window-x="971"
     inkscape:window-y="213"
     inkscape:window-maximized="0"
     inkscape:snap-nodes="false">
    <inkscape:grid
       type="xygrid"
       id="grid815"
       units="cm"
       spacingx="9.9999998"
       spacingy="9.9999998" />
  </sodipodi:namedview>
  <metadata
     id="metadata5">
    <rdf:RDF>
      <cc:Work
         rdf:about="">
        <dc:format>image/svg+xml</dc:format>
        <dc:type
           rdf:resource="http://purl.org/dc/dcmitype/StillImage" />
        <dc:title></dc:title>
      </cc:Work>
    </rdf:RDF>
  </metadata>
  <g
     inkscape:label="Layer 1"
     inkscape:groupmode="layer"
     id="layer1"
     transform="translate(0,-197.00002)">
    <path
       style="opacity:1;fill:#020900;fill-opacity:1;stroke:none;stroke-width:1;stroke-linecap:butt;stroke-linejoin:round;stroke-miterlimit:4;stroke-dasharray:none;stroke-opacity:1"
       id="path1373"
       d="m 37.21826,212.74462 c 0.313838,0.38441 0.530944,0.82854 0.713726,1.28643 0.165518,0.44212 0.25907,0.90529 0.33921,1.36903 0.07143,0.43253 0.119779,0.86834 0.164269,1.30431 0.04774,0.4801 0.08281,0.96133 0.11575,1.44263 0.03483,0.51528 0.06257,1.031 0.08833,1.5468 0.02702,0.54928 0.04871,1.0988 0.06929,1.64835 0.02781,0.61825 0.03281,1.23699 0.02482,1.85571 -0.0097,0.67165 -0.04611,1.34239 -0.09295,2.01234 -0.04939,0.67987 -0.120882,1.35779 -0.202133,2.03451 -0.08288,0.6705 -0.186831,1.33814 -0.289177,2.00588 -0.10314,0.65477 -0.194135,1.31134 -0.277675,1.96887 -0.08872,0.713 -0.161903,1.4278 -0.232677,2.14277 -0.06983,0.70706 -0.131119,1.41492 -0.189124,2.12305 -0.05624,0.69062 -0.104936,1.38182 -0.151074,2.07319 -0.04609,0.69426 -0.08485,1.38898 -0.117507,2.084 -0.03197,0.70873 -0.0585,1.41768 -0.08421,2.12666 -0.02567,0.70444 -0.04684,1.40902 -0.06654,2.11365 -0.02006,0.72935 -0.03706,1.45878 -0.05325,2.18822 -0.01632,0.72524 -0.02706,1.45058 -0.03759,2.17593 -0.01196,0.74628 -0.01908,1.4926 -0.02204,2.23897 -0.0046,0.74746 0.0131,1.49472 0.03929,2.24165 0.02692,0.77697 0.07482,1.5529 0.129984,2.3283 0.05415,0.73903 0.129141,1.47628 0.215493,2.21218 0.0857,0.69233 0.194839,1.38148 0.303765,2.07045 0.107016,0.68632 0.225198,1.37081 0.355047,2.05317 0.123384,0.66173 0.276659,1.3172 0.43579,1.97107 0.156568,0.65243 0.334577,1.29921 0.526376,1.94207 0.186354,0.61697 0.399819,1.2252 0.60975,1.8344 0.218766,0.63379 0.437111,1.26773 0.661692,1.89948 0.213995,0.60087 0.451093,1.19306 0.692927,1.78315 0.222407,0.55153 0.482212,1.08621 0.753269,1.61508 0.255003,0.50012 0.545656,0.98028 0.852787,1.44974 0.279148,0.42377 0.592328,0.82317 0.921551,1.20877 0.292989,0.33901 0.613222,0.65272 0.946444,0.95175 0.196067,0.16768 0.400108,0.33174 0.637871,0.43604 0.166682,0.073 0.341868,0.12196 0.520983,0.152 0.155017,0.0231 0.311536,0.01 0.466325,-0.008 0.221316,-0.026 0.438881,-0.076 0.649817,-0.14732 0.188735,-0.0614 0.359704,-0.16156 0.526986,-0.2662 0.268875,-0.17351 0.526767,-0.36347 0.775801,-0.56424 0.192127,-0.1531 0.353433,-0.33762 0.507564,-0.52757 0.200318,-0.24721 0.368993,-0.51713 0.528835,-0.79155 0.181163,-0.31391 0.324679,-0.64681 0.459352,-0.98263 0.16103,-0.40917 0.294558,-0.82818 0.409418,-1.25241 0.120582,-0.46085 0.191217,-0.93245 0.257969,-1.40346 0.09054,-0.65832 0.142322,-1.32082 0.176485,-1.98418 0.04208,-0.82431 0.02119,-1.64956 -0.0093,-2.47378 -0.04273,-0.99846 -0.09863,-1.99631 -0.148921,-2.99441 -0.05322,-1.08506 -0.101669,-2.17034 -0.150193,-3.25561 -0.04946,-1.07808 -0.09489,-2.15635 -0.137666,-3.23472 -0.04252,-1.07236 -0.07826,-2.14497 -0.11182,-3.21764 -0.03266,-1.0617 -0.07017,-2.12325 -0.108911,-3.18474 -0.03839,-1.01049 -0.08366,-2.0207 -0.129021,-3.0309 -0.04482,-1.00394 -0.09088,-2.00782 -0.141454,-3.01149 -0.04888,-0.95014 -0.10662,-1.89978 -0.166601,-2.84928 -0.0567,-0.88244 -0.109254,-1.76513 -0.159046,-2.64799 -0.0425,-0.8104 -0.09373,-1.62024 -0.152863,-2.42958 -0.06004,-0.79674 -0.12668,-1.59296 -0.193725,-2.38913 -0.06888,-0.81082 -0.134888,-1.62187 -0.204555,-2.43263 -0.0691,-0.78834 -0.145965,-1.57595 -0.227057,-2.36314 -0.08414,-0.79759 -0.167122,-1.5953 -0.250884,-2.39293 -0.0803,-0.747 -0.1652,-1.49352 -0.249814,-2.24005 -0.07537,-0.66176 -0.152437,-1.32331 -0.231698,-1.98462 -0.0724,-0.59996 -0.15003,-1.19922 -0.235284,-1.79749 -0.08324,-0.58477 -0.187388,-1.16607 -0.3015,-1.7455 -0.10609,-0.54973 -0.237167,-1.09394 -0.383635,-1.63417 -0.138745,-0.50059 -0.292378,-0.99699 -0.462995,-1.48762 -0.149804,-0.42407 -0.328488,-0.83695 -0.515361,-1.24576 -0.17055,-0.3765 -0.363217,-0.74183 -0.570145,-1.09939 -0.19957,-0.3414 -0.410424,-0.67601 -0.634913,-1.00154 -0.153558,-0.22038 -0.319285,-0.43251 -0.506819,-0.62502 -0.08021,-0.0933 -0.181462,-0.1554 -0.286343,-0.21571 -0.15957,-0.0914 -0.323001,-0.17585 -0.493297,-0.24534 -0.09688,-0.0376 -0.198618,-0.058 -0.30104,-0.073 -0.09127,-0.0111 -0.183785,4.5e-4 -0.275194,0.006 -0.227515,0.0186 -0.453562,0.0514 -0.679331,0.0844 -0.188904,0.0311 -0.380955,0.0524 -0.563506,0.1125 -0.211223,0.0694 -0.419114,0.14824 -0.625475,0.2308 -0.216004,0.0868 -0.427678,0.18383 -0.634231,0.29114 -0.122634,0.0618 -0.23396,0.14176 -0.341161,0.22685 -0.124714,0.10326 -0.246441,0.21101 -0.354079,0.33221 -0.236492,0.269 -0.509373,0.78873 0.332775,-0.59982 -1.529162,4.61769 -8.059574,2.45513 -6.530409,-2.16257 v 0 c 0.385424,-0.78135 0.618273,-1.39972 1.215781,-1.98146 0.371502,-0.38473 0.760804,-0.75241 1.187606,-1.07601 0.431663,-0.32246 0.879555,-0.62351 1.361784,-0.86622 0.3999,-0.20264 0.806083,-0.39274 1.223174,-0.55768 0.430795,-0.17032 0.865238,-0.33279 1.310447,-0.46193 0.469768,-0.1277 0.945007,-0.2313 1.427986,-0.29546 0.463219,-0.067 0.927838,-0.1288 1.395788,-0.15051 0.613791,-0.0214 1.229516,-0.007 1.834536,0.11043 0.596268,0.11813 1.18522,0.27345 1.744303,0.51644 0.505528,0.22186 1.000424,0.46821 1.467934,0.76313 0.582213,0.37881 1.135018,0.8012 1.607053,1.31429 0.417523,0.45201 0.811146,0.92546 1.156978,1.43531 0.324675,0.47582 0.634809,0.96139 0.923232,1.46017 0.313121,0.54671 0.607684,1.1037 0.867394,1.67804 0.275532,0.6069 0.537493,1.22035 0.756719,1.8502 0.22044,0.64105 0.423836,1.2879 0.602551,1.94193 0.186664,0.69452 0.355828,1.39361 0.492072,2.09996 0.136779,0.69784 0.261851,1.39791 0.361855,2.10208 0.09219,0.64847 0.176729,1.29795 0.255043,1.94824 0.081,0.67592 0.159789,1.35208 0.236807,2.02846 0.08674,0.7653 0.17377,1.53057 0.255963,2.29637 0.08423,0.80221 0.16772,1.6045 0.252312,2.40667 0.08501,0.82577 0.165635,1.65199 0.237995,2.47897 0.06997,0.81462 0.136375,1.62954 0.205542,2.44423 0.06919,0.82166 0.137911,1.64338 0.199739,2.46564 0.06177,0.84714 0.115681,1.69478 0.160203,2.54302 0.0489,0.86739 0.100557,1.73462 0.156271,2.6016 0.06181,0.97866 0.12125,1.95749 0.171571,2.93681 0.05119,1.01619 0.09788,2.03259 0.143243,3.04906 0.04622,1.02942 0.09232,2.05887 0.131371,3.08859 0.03917,1.07342 0.07709,2.1469 0.11012,3.22053 0.03295,1.0535 0.06803,2.10694 0.109783,3.16013 0.0423,1.06682 0.08726,2.13353 0.136202,3.20006 0.04794,1.07233 0.09581,2.14466 0.148347,3.21677 0.05187,1.0297 0.109736,2.05911 0.153043,3.08923 0.03721,1.02938 0.05851,2.06006 0.0043,3.08939 -0.04699,0.86732 -0.115158,1.73366 -0.236181,2.5942 -0.109233,0.75816 -0.233701,1.51538 -0.435459,2.25537 -0.189502,0.68165 -0.403386,1.35659 -0.667655,2.01342 -0.265173,0.64886 -0.553492,1.28901 -0.910187,1.89365 -0.35187,0.59165 -0.728094,1.16961 -1.169311,1.69953 -0.458356,0.54392 -0.946848,1.06274 -1.507013,1.50424 -0.492448,0.38938 -0.998519,0.76253 -1.535221,1.08935 -0.648015,0.38085 -1.320837,0.7198 -2.043113,0.93781 -0.698955,0.2075 -1.410927,0.37115 -2.139889,0.42733 -0.808479,0.0543 -1.620779,0.0463 -2.417133,-0.1239 -0.789442,-0.17568 -1.564118,-0.41355 -2.284314,-0.78878 -0.738164,-0.39817 -1.438807,-0.85852 -2.058382,-1.4278 -0.554805,-0.50481 -1.090189,-1.03142 -1.576906,-1.6031 -0.513575,-0.60847 -1.004165,-1.23663 -1.439447,-1.90421 -0.435478,-0.67126 -0.84927,-1.35661 -1.212157,-2.07033 -0.357812,-0.70081 -0.699275,-1.41004 -0.994449,-2.13991 -0.282755,-0.69065 -0.559147,-1.38407 -0.809199,-2.08736 -0.231741,-0.65245 -0.457663,-1.30696 -0.683401,-1.96151 -0.241638,-0.70121 -0.48591,-1.40177 -0.698981,-2.11236 -0.224422,-0.75485 -0.433822,-1.51402 -0.617683,-2.27987 -0.186465,-0.76733 -0.364784,-1.5368 -0.509823,-2.31322 -0.142544,-0.75204 -0.273733,-1.50617 -0.391462,-2.26252 -0.12329,-0.78021 -0.24602,-1.56074 -0.341503,-2.34495 -0.09802,-0.83978 -0.183605,-1.68104 -0.244829,-2.52439 -0.06082,-0.85792 -0.113401,-1.71645 -0.143092,-2.57609 -0.02895,-0.83594 -0.04849,-1.67222 -0.0434,-2.50874 0.0031,-0.77045 0.01037,-1.54086 0.02273,-2.31122 0.01079,-0.74295 0.02183,-1.48591 0.03856,-2.22875 0.01648,-0.74264 0.0338,-1.48526 0.05424,-2.2278 0.02024,-0.72368 0.04201,-1.44733 0.06837,-2.17082 0.02662,-0.73372 0.05411,-1.46743 0.08731,-2.20089 0.03492,-0.7399 0.076,-1.47949 0.125169,-2.21859 0.04848,-0.72592 0.09967,-1.45167 0.158779,-2.17681 0.06123,-0.74685 0.125931,-1.49342 0.199628,-2.23915 0.07714,-0.77855 0.157202,-1.55688 0.254225,-2.33324 0.09119,-0.71554 0.189891,-1.43011 0.302054,-2.1427 0.09117,-0.59481 0.184353,-1.18945 0.259167,-1.78659 0.06821,-0.56361 0.127828,-1.12828 0.169704,-1.69453 0.03835,-0.54045 0.0683,-1.08154 0.07662,-1.6234 0.0074,-0.50157 0.0021,-1.00312 -0.02066,-1.5043 -0.0195,-0.52108 -0.03999,-1.04214 -0.06556,-1.56296 -0.0236,-0.47371 -0.04898,-0.94734 -0.08087,-1.42057 -0.02768,-0.40581 -0.05678,-0.81157 -0.09654,-1.21641 -0.02852,-0.28255 -0.05839,-0.56512 -0.102055,-0.84581 -0.01093,-0.0667 -0.06065,-0.30109 0.0062,-0.0945 0.08922,0.20395 0.1979,0.3988 0.34109,0.57042 -3.03003,-3.80531 2.351492,-8.09042 5.381522,-4.28511 z"
       inkscape:connector-curvature="0" />
  </g>
</svg>
