<svg viewBox="0 0 100 100"><path style="opacity:1;fill:#020900;fill-opacity:1;stroke:none;stroke-width:1;stroke-linecap:butt;stroke-linejoin:round;stroke-miterlimit:4;stroke-dasharray:none;stroke-opacity:1" d="M31.058 264.766c.552.152 1.043.44 1.508.765.427.316.817.678 1.208 1.036.445.41.902.807 1.356 1.208a30 30 0 0 1 1.864 1.782c.675.709 1.297 1.466 1.916 2.224q.855 1.06 1.705 2.126.801 1.005 1.577 2.031a73 73 0 0 1 1.391 1.926q.606.87 1.194 1.754.472.713.946 1.422.373.56.752 1.114l.621.9.504.727.384.553a3 3 0 0 0-1.614-1.096c-.268-.071-.548-.08-.823-.119-.942.025-1.804.367-2.416 1.09.169-.324.322-.656.472-.99.348-.793.656-1.603.976-2.407.39-.98.819-1.945 1.267-2.9a60 60 0 0 1 1.428-2.779c.469-.861.96-1.71 1.45-2.56q.687-1.187 1.399-2.36.65-1.068 1.314-2.128c.396-.637.811-1.262 1.23-1.884q.519-.771 1.047-1.536.442-.649.895-1.288.373-.52.748-1.034.323-.448.656-.888.287-.374.582-.742l.441-.547c.024-.028.342-.432.227-.286l-.121.178c2.494-4.177 8.4-.65 5.906 3.527l-.198.307q-.221.301-.458.59l-.424.527q-.238.295-.467.594-.29.383-.57.771-.355.488-.708.979-.423.597-.835 1.201-.51.74-1.012 1.484c-.377.56-.75 1.123-1.108 1.696q-.636 1.017-1.26 2.04-.676 1.114-1.327 2.24c-.458.793-.916 1.584-1.354 2.387a55 55 0 0 0-1.254 2.433c-.39.83-.763 1.669-1.102 2.522-.358.9-.704 1.804-1.096 2.69-.31.683-.625 1.368-1.034 2-.838 1.192-1.812 1.868-3.321 1.952-.315-.04-.637-.043-.945-.12-.911-.226-1.672-.824-2.21-1.575l-.42-.604-.504-.728-.64-.927q-.402-.586-.794-1.177-.48-.717-.955-1.435a91 91 0 0 0-1.1-1.617 66 66 0 0 0-1.254-1.737 90 90 0 0 0-1.462-1.882q-.824-1.036-1.656-2.065c-.497-.61-.994-1.221-1.534-1.795-.47-.488-.957-.959-1.468-1.403-.486-.43-.975-.855-1.452-1.294l-.58-.526c.202.12.418.214.645.274-4.682-1.32-2.814-7.941 1.867-6.62" transform="translate(0 -197)"/><path style="opacity:1;fill:#020900;fill-opacity:1;stroke:none;stroke-width:1;stroke-linecap:butt;stroke-linejoin:round;stroke-miterlimit:4;stroke-dasharray:none;stroke-opacity:1" d="M33.628 244.413c.23.106.449.232.667.361.414.251.8.546 1.174.853.44.372.852.776 1.264 1.178.482.47.945.96 1.403 1.454q.682.746 1.356 1.503c.444.506.87 1.027 1.298 1.547q.599.72 1.186 1.451a32 32 0 0 1 1.16 1.553c.337.486.65.989.965 1.49q.332.538.68 1.065.295.445.592.887l.482.72.384.576c-.069-.1.122.18.091.135-.147-.22-.33-.384-.528-.56-1.167-.859-2.674-.887-3.884-.081-.152.1-.278.237-.417.355-.145.071-.408.62-.214.179.218-.526.41-1.062.608-1.595q.495-1.342 1.006-2.678l1.184-3.097a69 69 0 0 1 1.372-3.33c.464-1.032.947-2.054 1.435-3.075q.653-1.364 1.33-2.717c.37-.748.744-1.495 1.11-2.246.308-.631.605-1.267.902-1.904l.739-1.583.59-1.271c.112-.262.256-.51.367-.771 1.909-4.474 8.236-1.774 6.327 2.7-.143.327-.302.645-.455.968l-.592 1.274-.744 1.597c-.314.672-.628 1.344-.953 2.01-.373.764-.753 1.525-1.131 2.287a183 183 0 0 0-1.283 2.622c-.458.957-.911 1.917-1.347 2.885a60 60 0 0 0-1.243 3.015l-1.182 3.093q-.498 1.304-.982 2.611c-.263.712-.518 1.428-.827 2.121-.282.59-.587 1.173-1.04 1.654-.17.153-.326.327-.514.459-1.354.947-3.038.912-4.37-.04-.41-.352-.793-.726-1.073-1.193l-.384-.574-.483-.722-.615-.922a52 52 0 0 1-.765-1.198c-.252-.402-.502-.805-.77-1.196q-.434-.618-.903-1.21-.554-.688-1.118-1.368c-.376-.456-.75-.914-1.138-1.36q-.623-.698-1.255-1.39c-.38-.41-.763-.817-1.163-1.208-.275-.268-.549-.538-.835-.794a4 4 0 0 0-.345-.265c-.061-.042-.13-.068-.196-.102-4.35-2.175-1.274-8.328 3.077-6.153" transform="translate(0 -197)"/><path style="opacity:1;fill:#020900;fill-opacity:1;stroke:none;stroke-width:1;stroke-linecap:butt;stroke-linejoin:round;stroke-miterlimit:4;stroke-dasharray:none;stroke-opacity:1" d="M31.402 220.455c.25.203.48.43.705.659.294.307.572.627.856.942q.533.58 1.074 1.152.683.718 1.337 1.463a32 32 0 0 1 1.366 1.696q.652.86 1.288 1.735.58.803 1.155 1.611.494.697.982 1.395.384.55.773 1.094.326.458.648.917l.507.722q.16.233.329.46c.005.001.091.093.122.125-.7-.725-1.463-.862-2.434-.875-.736.087-1.403.378-1.9.93-.01.01-.016.036-.03.031-.002-.001.064-.144.124-.292.093-.226.118-.302.209-.544a115 115 0 0 1 1.06-2.921c.432-1.11.925-2.195 1.425-3.276q.679-1.446 1.331-2.903.58-1.296 1.151-2.595.472-1.079.949-2.156l.776-1.731.616-1.373.491-1.094.391-.871c.076-.184.168-.359.259-.535 2.303-4.285 8.362-1.027 6.059 3.258l.046-.1c.03-.065-.188.402-.088.194l-.391.872-.491 1.094-.616 1.372-.767 1.71q-.472 1.066-.938 2.133-.581 1.32-1.17 2.637-.669 1.495-1.365 2.978c-.436.94-.867 1.884-1.246 2.85-.366.954-.7 1.92-1.045 2.882-.325.857-.667 1.717-1.206 2.466-.756.967-1.677 1.662-2.933 1.827-.263.002-.528.031-.79.006-.931-.09-1.777-.534-2.426-1.196a9 9 0 0 1-.638-.724q-.254-.338-.494-.686l-.506-.72q-.31-.442-.622-.881-.406-.569-.806-1.14a205 205 0 0 0-2.065-2.906q-.589-.81-1.193-1.608a26 26 0 0 0-1.067-1.33 44 44 0 0 0-1.177-1.287q-.59-.624-1.172-1.258c-.225-.25-.447-.503-.676-.75q-.064-.067-.13-.132c-3.766-3.077.586-8.405 4.353-5.327" transform="translate(0 -197)"/></svg>