<?xml version="1.0" encoding="UTF-8" standalone="no"?>
<!-- Created with Inkscape (http://www.inkscape.org/) -->

<svg
   xmlns:dc="http://purl.org/dc/elements/1.1/"
   xmlns:cc="http://creativecommons.org/ns#"
   xmlns:rdf="http://www.w3.org/1999/02/22-rdf-syntax-ns#"
   xmlns:svg="http://www.w3.org/2000/svg"
   xmlns="http://www.w3.org/2000/svg"
   xmlns:sodipodi="http://sodipodi.sourceforge.net/DTD/sodipodi-0.dtd"
   xmlns:inkscape="http://www.inkscape.org/namespaces/inkscape"
   width="10cm"
   height="10cm"
   viewBox="0 0 100 99.999997"
   version="1.1"
   id="svg8"
   sodipodi:docname="pan.svg"
   inkscape:version="0.92.3 (2405546, 2018-03-11)">
  <defs
     id="defs2" />
  <sodipodi:namedview
     id="base"
     pagecolor="#ffffff"
     bordercolor="#666666"
     borderopacity="1.0"
     inkscape:pageopacity="0.0"
     inkscape:pageshadow="2"
     inkscape:zoom="1"
     inkscape:cx="175.50186"
     inkscape:cy="186.50542"
     inkscape:document-units="cm"
     inkscape:current-layer="layer1"
     showgrid="true"
     units="cm"
     inkscape:window-width="881"
     inkscape:window-height="707"
     inkscape:window-x="971"
     inkscape:window-y="213"
     inkscape:window-maximized="0"
     inkscape:snap-nodes="false">
    <inkscape:grid
       type="xygrid"
       id="grid815"
       units="cm"
       spacingx="9.9999998"
       spacingy="9.9999998" />
  </sodipodi:namedview>
  <metadata
     id="metadata5">
    <rdf:RDF>
      <cc:Work
         rdf:about="">
        <dc:format>image/svg+xml</dc:format>
        <dc:type
           rdf:resource="http://purl.org/dc/dcmitype/StillImage" />
        <dc:title></dc:title>
      </cc:Work>
    </rdf:RDF>
  </metadata>
  <g
     inkscape:label="Layer 1"
     inkscape:groupmode="layer"
     id="layer1"
     transform="translate(0,-197.00002)">
    <path
       style="opacity:1;fill:#020900;fill-opacity:1;stroke:none;stroke-width:1;stroke-linecap:butt;stroke-linejoin:round;stroke-miterlimit:4;stroke-dasharray:none;stroke-opacity:1"
       id="path1375"
       d="m 31.058445,264.76637 c 0.552032,0.15127 1.042569,0.43979 1.508035,0.76439 0.426924,0.3158 0.816049,0.67829 1.207056,1.03652 0.445608,0.40959 0.902215,0.80692 1.356005,1.20735 0.649335,0.56458 1.265621,1.16466 1.86396,1.78253 0.675921,0.70862 1.297432,1.466 1.916298,2.22412 0.571243,0.7063 1.138616,1.41573 1.704896,2.12601 0.533916,0.67056 1.061106,1.34638 1.577086,2.03083 0.475734,0.63314 0.936447,1.2773 1.391338,1.9255 0.404799,0.57992 0.801378,1.16551 1.193532,1.75405 0.313971,0.47512 0.629523,0.94917 0.94633,1.4224 0.249129,0.37239 0.498168,0.74483 0.751539,1.11435 0.206607,0.30016 0.414215,0.59963 0.621712,0.89917 0.167997,0.2425 0.336013,0.48498 0.504029,0.72747 0.128646,0.18396 0.254376,0.36997 0.38422,0.55309 -0.396611,-0.53012 -0.96982,-0.9246 -1.614358,-1.09627 -0.267729,-0.0713 -0.548426,-0.0793 -0.82264,-0.1189 -0.942496,0.0252 -1.80413,0.36694 -2.416262,1.09006 0.168389,-0.32451 0.321852,-0.65638 0.471577,-0.98994 0.347761,-0.79314 0.656024,-1.60275 0.976173,-2.40723 0.38967,-0.98058 0.819015,-1.9445 1.266724,-2.89973 0.446098,-0.94151 0.933545,-1.86253 1.428197,-2.77918 0.468725,-0.86125 0.959654,-1.71015 1.450083,-2.55915 0.456878,-0.79253 0.925058,-1.57843 1.398694,-2.36104 0.434091,-0.71168 0.871789,-1.42117 1.313923,-2.12789 0.396796,-0.6366 0.811686,-1.26158 1.230072,-1.88412 0.345686,-0.5143 0.696703,-1.02498 1.047059,-1.5361 0.295193,-0.43169 0.593445,-0.86128 0.895652,-1.28809 0.247224,-0.34618 0.49865,-0.68931 0.74794,-1.034 0.214786,-0.2986 0.433861,-0.59408 0.655532,-0.8876 0.189965,-0.25037 0.385677,-0.49629 0.581924,-0.74174 0.147217,-0.18241 0.294315,-0.36491 0.441415,-0.54741 0.02365,-0.0276 0.342061,-0.4318 0.22637,-0.28631 -0.04027,0.0595 -0.08054,0.11891 -0.120806,0.17837 2.493824,-4.1764 8.400145,-0.6496 5.90632,3.5268 v 0 c -0.06598,0.10251 -0.131953,0.20502 -0.197927,0.30753 -0.148048,0.20047 -0.300585,0.39735 -0.457981,0.5906 -0.141456,0.1755 -0.282871,0.35104 -0.424529,0.52638 -0.157284,0.1967 -0.31446,0.39351 -0.467003,0.59393 -0.192759,0.25471 -0.382614,0.51162 -0.569224,0.77088 -0.236054,0.32638 -0.473999,0.6514 -0.708499,0.9789 -0.281974,0.39787 -0.559723,0.79872 -0.835096,1.20119 -0.338556,0.4939 -0.677807,0.98734 -1.011889,1.48429 -0.376666,0.56027 -0.750599,1.12247 -1.10771,1.69549 -0.424214,0.67783 -0.843872,1.35851 -1.260469,2.04104 -0.449451,0.74244 -0.89363,1.48806 -1.327092,2.23997 -0.457353,0.79167 -0.915487,1.58307 -1.353256,2.3858 -0.433605,0.80298 -0.861878,1.60928 -1.25399,2.43354 -0.390147,0.83043 -0.763567,1.66879 -1.102876,2.52145 -0.357998,0.89942 -0.703146,1.80443 -1.095886,2.68953 -0.309142,0.68413 -0.625102,1.3689 -1.033685,2.00074 -0.838247,1.1916 -1.812102,1.86769 -3.320965,1.95216 -0.314979,-0.0398 -0.636812,-0.0429 -0.944938,-0.11939 -0.911344,-0.22629 -1.671995,-0.82506 -2.209612,-1.57601 -0.141185,-0.20033 -0.279816,-0.40245 -0.419643,-0.60373 -0.168172,-0.24272 -0.336346,-0.48543 -0.504502,-0.72815 -0.213942,-0.30885 -0.428003,-0.61762 -0.64098,-0.92714 -0.267451,-0.39031 -0.530844,-0.78336 -0.793792,-1.17672 -0.319646,-0.47748 -0.638082,-0.95576 -0.954849,-1.43516 -0.361413,-0.54256 -0.726927,-1.08238 -1.099884,-1.61709 -0.410141,-0.58469 -0.825402,-1.16584 -1.254265,-1.737 -0.477851,-0.63463 -0.967245,-1.26036 -1.46177,-1.88207 -0.549878,-0.68973 -1.100857,-1.3786 -1.655371,-2.06461 -0.497628,-0.60982 -0.994574,-1.22143 -1.534737,-1.79457 -0.469759,-0.48802 -0.956233,-0.95936 -1.467762,-1.40379 -0.48608,-0.42895 -0.974932,-0.85485 -1.452105,-1.29377 -0.191834,-0.17585 -0.386853,-0.35227 -0.579208,-0.52573 0.201057,0.12078 0.417161,0.21355 0.644147,0.27397 -4.681589,-1.32068 -2.813865,-7.94145 1.867723,-6.62077 z"
       inkscape:connector-curvature="0" />
    <path
       style="opacity:1;fill:#020900;fill-opacity:1;stroke:none;stroke-width:1;stroke-linecap:butt;stroke-linejoin:round;stroke-miterlimit:4;stroke-dasharray:none;stroke-opacity:1"
       id="path1377"
       d="m 33.627652,244.41321 c 0.229947,0.10589 0.449355,0.23209 0.666941,0.36094 0.414708,0.25131 0.799891,0.54616 1.174821,0.85255 0.439743,0.37239 0.85148,0.77624 1.263589,1.17855 0.481955,0.47049 0.944968,0.95967 1.40284,1.45345 0.454543,0.49866 0.907997,0.99834 1.355801,1.50307 0.444291,0.50594 0.870313,1.02749 1.298634,1.54691 0.398052,0.4816 0.795586,0.96362 1.185653,1.45173 0.403061,0.5049 0.787826,1.02383 1.159412,1.55221 0.337577,0.48651 0.651214,0.98892 0.965798,1.49041 0.222308,0.3579 0.447762,0.71374 0.679905,1.06534 0.196485,0.29617 0.394187,0.59153 0.591751,0.88698 0.160634,0.24019 0.321292,0.48036 0.481947,0.72054 0.128122,0.19154 0.256246,0.38307 0.384371,0.57461 -0.06896,-0.0997 0.121525,0.18033 0.09131,0.13514 -0.147138,-0.2201 -0.331068,-0.38397 -0.52858,-0.56032 -1.16731,-0.85801 -2.673625,-0.88622 -3.884242,-0.0808 -0.151963,0.10109 -0.277487,0.23717 -0.416232,0.35577 -0.145081,0.0707 -0.408503,0.61882 -0.214098,0.17824 0.217903,-0.52551 0.41003,-1.06137 0.607695,-1.59472 0.330399,-0.8944 0.665935,-1.78688 1.006398,-2.6775 0.395497,-1.03217 0.788361,-2.06535 1.183873,-3.09751 0.425641,-1.12283 0.887857,-2.23091 1.371971,-3.32962 0.463833,-1.0318 0.9472,-2.05468 1.434872,-3.07539 0.434245,-0.91 0.880642,-1.8141 1.329293,-2.71707 0.371213,-0.74806 0.744411,-1.49515 1.110954,-2.24553 0.307485,-0.63129 0.60443,-1.26764 0.90184,-1.90372 0.246541,-0.52765 0.492871,-1.0554 0.73841,-1.58352 0.196868,-0.42366 0.393578,-0.8474 0.590304,-1.27113 0.111733,-0.26166 0.256317,-0.50907 0.366688,-0.77094 1.909337,-4.47392 8.236405,-1.77371 6.327069,2.70021 v 0 c -0.142288,0.32694 -0.302056,0.64524 -0.454271,0.96759 -0.197247,0.42485 -0.394478,0.8497 -0.59187,1.27449 -0.247635,0.53262 -0.496057,1.06487 -0.744702,1.59702 -0.314026,0.67161 -0.627753,1.3434 -0.952585,2.00987 -0.373382,0.76407 -0.753094,1.52502 -1.131255,2.28673 -0.432961,0.87134 -0.863859,1.74372 -1.282898,2.62187 -0.457676,0.95773 -0.911323,1.91748 -1.347528,2.88522 -0.439087,0.99477 -0.8572,1.99851 -1.242603,3.01545 -0.394898,1.03052 -0.787106,2.06206 -1.181986,3.09259 -0.332134,0.86865 -0.659294,1.73918 -0.981567,2.61154 -0.263689,0.71147 -0.5183,1.42751 -0.827852,2.12073 -0.281041,0.59075 -0.586552,1.17293 -1.039075,1.65395 -0.171384,0.1528 -0.32599,0.32681 -0.514154,0.4584 -1.354775,0.94742 -3.038091,0.9128 -4.369853,-0.0397 -0.409622,-0.35203 -0.793033,-0.72537 -1.0732,-1.19253 -0.12813,-0.19155 -0.256257,-0.3831 -0.384384,-0.57464 -0.160848,-0.24046 -0.321696,-0.48092 -0.482521,-0.7214 -0.205369,-0.30712 -0.410884,-0.61414 -0.615053,-0.92206 -0.261064,-0.39582 -0.515596,-0.7958 -0.765685,-1.19865 -0.251799,-0.40142 -0.501717,-0.80427 -0.769803,-1.19513 -0.288488,-0.41267 -0.589862,-0.81608 -0.903264,-1.2102 -0.367284,-0.46029 -0.742913,-0.91379 -1.11769,-1.36798 -0.376002,-0.45599 -0.749591,-0.91417 -1.138314,-1.35945 -0.41402,-0.46723 -0.834191,-0.92896 -1.254112,-1.39089 -0.379899,-0.41014 -0.763576,-0.81693 -1.163468,-1.20776 -0.274677,-0.26829 -0.548698,-0.53772 -0.834959,-0.79372 -0.110889,-0.0941 -0.225313,-0.18361 -0.345453,-0.26567 -0.06065,-0.0418 -0.129878,-0.0679 -0.195442,-0.10166 -4.350732,-2.17546 -1.274175,-8.32832 3.076556,-6.15286 z"
       inkscape:connector-curvature="0" />
    <path
       style="opacity:1;fill:#020900;fill-opacity:1;stroke:none;stroke-width:1;stroke-linecap:butt;stroke-linejoin:round;stroke-miterlimit:4;stroke-dasharray:none;stroke-opacity:1"
       id="path1379"
       d="m 31.402125,220.45467 c 0.250127,0.20316 0.479658,0.42959 0.705096,0.65932 0.293357,0.30653 0.571665,0.62692 0.855851,0.94186 0.354769,0.38711 0.714417,0.76974 1.07425,1.15214 0.454981,0.47903 0.900864,0.96641 1.336924,1.4627 0.478547,0.54632 0.925584,1.11887 1.366121,1.69592 0.435128,0.57397 0.863983,1.15269 1.287586,1.73522 0.38716,0.53546 0.771203,1.07317 1.154571,1.61134 0.329925,0.46341 0.656404,0.92924 0.982583,1.39528 0.255042,0.36646 0.514149,0.73005 0.773131,1.09372 0.217474,0.30451 0.43234,0.61086 0.647478,0.91701 0.168981,0.24053 0.33791,0.48109 0.506846,0.72165 0.108606,0.15426 0.215469,0.3099 0.329046,0.46049 0.0056,0.001 0.09155,0.0928 0.122233,0.1251 -0.700405,-0.72565 -1.46271,-0.86212 -2.433924,-0.87592 -0.735737,0.0876 -1.402693,0.37822 -1.89974,0.9305 -0.0098,0.0104 -0.01627,0.0364 -0.02952,0.031 -0.0029,-0.001 0.06318,-0.14431 0.123455,-0.29158 0.09249,-0.22599 0.118374,-0.302 0.20864,-0.54404 0.344196,-0.97723 0.689046,-1.95384 1.059632,-2.92144 0.432485,-1.1103 0.925417,-2.19539 1.425787,-3.27632 0.453133,-0.96314 0.895387,-1.93129 1.33083,-2.90254 0.385844,-0.86403 0.770096,-1.72877 1.151451,-2.59479 0.3156,-0.71895 0.629282,-1.43874 0.948396,-2.15613 0.257813,-0.57758 0.516969,-1.15455 0.775981,-1.73158 0.205369,-0.4575 0.410768,-0.91499 0.616164,-1.37247 0.163676,-0.36457 0.327356,-0.72914 0.491032,-1.09371 0.130456,-0.29057 0.260908,-0.58114 0.391364,-0.8717 0.0761,-0.18325 0.168087,-0.35858 0.258373,-0.53508 2.303688,-4.28421 8.362479,-1.0263 6.058792,3.25791 v 0 c 0.01556,-0.0333 0.03119,-0.0666 0.04666,-0.1 0.02997,-0.0646 -0.188503,0.40262 -0.08813,0.19468 -0.130456,0.29056 -0.260911,0.58113 -0.391364,0.8717 -0.163677,0.36456 -0.327353,0.72913 -0.49103,1.09369 -0.205316,0.45732 -0.410638,0.91464 -0.615934,1.37196 -0.255884,0.57008 -0.511916,1.14009 -0.766641,1.71069 -0.315666,0.70948 -0.625663,1.42145 -0.937911,2.13244 -0.387559,0.88004 -0.777991,1.75882 -1.170133,2.63683 -0.446931,0.9967 -0.900578,1.99033 -1.365559,2.97875 -0.435655,0.94039 -0.866532,1.88367 -1.245092,2.84886 -0.366623,0.95451 -0.701305,1.92024 -1.045067,2.88312 -0.324882,0.85688 -0.667544,1.71633 -1.206013,2.46573 -0.756386,0.96715 -1.677133,1.662 -2.93333,1.82677 -0.263319,0.002 -0.52787,0.0314 -0.789953,0.006 -0.931217,-0.0907 -1.777339,-0.534 -2.426277,-1.19526 -0.222525,-0.23263 -0.440931,-0.46993 -0.638019,-0.72483 -0.169913,-0.22462 -0.333227,-0.45396 -0.493845,-0.68533 -0.168537,-0.23999 -0.337068,-0.47999 -0.50565,-0.71995 -0.206859,-0.29437 -0.413417,-0.58896 -0.62253,-0.88174 -0.269854,-0.37894 -0.539769,-0.75785 -0.805561,-1.13965 -0.315246,-0.45043 -0.630743,-0.90069 -0.949603,-1.34858 -0.370594,-0.52025 -0.741836,-1.04006 -1.116005,-1.55775 -0.392189,-0.53976 -0.789747,-1.07564 -1.192511,-1.60756 -0.344797,-0.45235 -0.693349,-0.90227 -1.06743,-1.33103 -0.382878,-0.43703 -0.776417,-0.86438 -1.176274,-1.28592 -0.392774,-0.41744 -0.785384,-0.83509 -1.172011,-1.25824 -0.225515,-0.25002 -0.44748,-0.50324 -0.676257,-0.75028 -0.0423,-0.0446 -0.08586,-0.0881 -0.129188,-0.13156 -3.767027,-3.07749 0.585211,-8.40487 4.352234,-5.32738 z"
       inkscape:connector-curvature="0" />
  </g>
</svg>
