<?xml version="1.0" encoding="UTF-8" standalone="no"?>
<!-- Created with Inkscape (http://www.inkscape.org/) -->

<svg
   xmlns:dc="http://purl.org/dc/elements/1.1/"
   xmlns:cc="http://creativecommons.org/ns#"
   xmlns:rdf="http://www.w3.org/1999/02/22-rdf-syntax-ns#"
   xmlns:svg="http://www.w3.org/2000/svg"
   xmlns="http://www.w3.org/2000/svg"
   xmlns:sodipodi="http://sodipodi.sourceforge.net/DTD/sodipodi-0.dtd"
   xmlns:inkscape="http://www.inkscape.org/namespaces/inkscape"
   width="10cm"
   height="10cm"
   viewBox="0 0 100 99.999997"
   version="1.1"
   id="svg8"
   sodipodi:docname="pana.svg"
   inkscape:version="0.92.3 (2405546, 2018-03-11)">
  <defs
     id="defs2" />
  <sodipodi:namedview
     id="base"
     pagecolor="#ffffff"
     bordercolor="#666666"
     borderopacity="1.0"
     inkscape:pageopacity="0.0"
     inkscape:pageshadow="2"
     inkscape:zoom="1"
     inkscape:cx="175.50186"
     inkscape:cy="186.50542"
     inkscape:document-units="cm"
     inkscape:current-layer="layer1"
     showgrid="true"
     units="cm"
     inkscape:window-width="881"
     inkscape:window-height="707"
     inkscape:window-x="971"
     inkscape:window-y="213"
     inkscape:window-maximized="0"
     inkscape:snap-nodes="false">
    <inkscape:grid
       type="xygrid"
       id="grid815"
       units="cm"
       spacingx="9.9999998"
       spacingy="9.9999998" />
  </sodipodi:namedview>
  <metadata
     id="metadata5">
    <rdf:RDF>
      <cc:Work
         rdf:about="">
        <dc:format>image/svg+xml</dc:format>
        <dc:type
           rdf:resource="http://purl.org/dc/dcmitype/StillImage" />
        <dc:title></dc:title>
      </cc:Work>
    </rdf:RDF>
  </metadata>
  <g
     inkscape:label="Layer 1"
     inkscape:groupmode="layer"
     id="layer1"
     transform="translate(0,-197.00002)">
    <path
       style="opacity:1;fill:#020900;fill-opacity:1;stroke:none;stroke-width:1;stroke-linecap:butt;stroke-linejoin:round;stroke-miterlimit:4;stroke-dasharray:none;stroke-opacity:1"
       id="path1381"
       d="m 10.477587,262.80876 c 0.349611,0.0804 0.682402,0.21308 1.009671,0.35737 0.47703,0.21865 0.900686,0.52906 1.319793,0.84039 0.348693,0.26376 0.700469,0.52338 1.052968,0.78202 0.508899,0.36941 1.009814,0.74939 1.503377,1.139 0.623101,0.49464 1.216787,1.02448 1.805409,1.5592 0.598018,0.54575 1.190447,1.09755 1.776096,1.65655 0.606625,0.57532 1.190727,1.17347 1.764937,1.78093 0.551786,0.58528 1.079353,1.19245 1.595081,1.80952 0.497449,0.60143 0.974332,1.21937 1.44316,1.84324 0.452325,0.60495 0.888701,1.22153 1.315763,1.84451 0.395049,0.58213 0.773512,1.17528 1.15116,1.76877 0.311779,0.48933 0.621177,0.98017 0.93302,1.46945 0.259906,0.40534 0.51834,0.81162 0.778952,1.2165 0.210802,0.3276 0.424233,0.6535 0.637355,0.97959 0.185909,0.28479 0.370885,0.57018 0.553987,0.85679 0.151969,0.24044 0.303755,0.48099 0.456684,0.72082 0.11366,0.17625 0.227529,0.35238 0.34335,0.52722 0.0086,0.0123 0.01508,0.0264 0.02577,0.037 0.0091,0.009 -0.01323,-0.0218 -0.0208,-0.0321 -0.09429,-0.1279 -0.197122,-0.25638 -0.316248,-0.36095 -0.577821,-0.50721 -0.554551,-0.40824 -1.383181,-0.77311 -0.469815,-0.0236 -0.947642,-0.16054 -1.409446,-0.071 -1.302475,0.25261 -2.348341,1.15512 -2.667257,2.42831 0.0034,-0.16374 0.02866,-0.55689 0.03927,-0.78605 0.02656,-0.617 0.0452,-1.23431 0.063,-1.85161 0.01466,-0.78467 0.04929,-1.56851 0.099,-2.35168 0.05959,-0.90718 0.153612,-1.8115 0.257197,-2.71454 0.10768,-0.94558 0.252164,-1.88614 0.416669,-2.82332 0.168713,-0.96714 0.402724,-1.92057 0.661109,-2.8671 0.278065,-1.01972 0.642119,-2.01198 1.039633,-2.99029 0.417959,-1.01225 0.927132,-1.9822 1.463685,-2.9356 0.562293,-0.99158 1.207061,-1.93189 1.871721,-2.8567 0.686419,-0.94446 1.412132,-1.85929 2.148956,-2.76465 0.787273,-0.96808 1.622312,-1.89531 2.473884,-2.80679 0.901827,-0.96408 1.854335,-1.87805 2.829991,-2.76663 1.013576,-0.92335 2.095521,-1.76529 3.205877,-2.56791 1.138909,-0.8201 2.353259,-1.52377 3.592838,-2.17825 1.282461,-0.67306 2.638112,-1.1815 4.015155,-1.62125 1.336392,-0.41724 2.712331,-0.67644 4.09593,-0.87422 1.324276,-0.18361 2.660512,-0.22173 3.995224,-0.19527 1.258176,0.0317 2.505429,0.20246 3.744198,0.41361 1.16029,0.19925 2.300486,0.49074 3.42591,0.8331 1.095147,0.33981 2.152205,0.78472 3.188295,1.27286 1.052581,0.49699 2.025441,1.13529 2.963629,1.81949 0.916401,0.67565 1.74516,1.45549 2.529147,2.27832 0.799608,0.84735 1.468885,1.80068 2.094955,2.77962 0.593815,0.94642 1.103336,1.94116 1.586394,2.94746 0.459968,0.96786 0.85842,1.96284 1.236573,2.96494 0.352438,0.9438 0.66372,1.90206 0.963345,2.86368 0.275476,0.88665 0.523663,1.78132 0.760132,2.67905 0.216538,0.82805 0.413576,1.66098 0.601599,2.49591 0.175956,0.78572 0.327454,1.57657 0.472033,2.36856 0.13069,0.71727 0.247755,1.43689 0.360119,2.15721 0.09713,0.63997 0.184359,1.28136 0.27084,1.92284 0.06886,0.51163 0.1367,1.0234 0.203277,1.53534 0.0615,0.47086 0.118682,0.94227 0.168701,1.41449 0.0486,0.4724 0.0813,0.94624 0.109045,1.42026 0.03119,0.48056 0.03758,0.962 0.03071,1.44336 -0.0083,0.38922 -0.0249,0.77821 -0.04065,1.16718 -0.01193,0.29292 -0.02402,0.58584 -0.03608,0.87875 -0.0099,0.23465 -0.0186,0.46935 -0.03007,0.70393 -0.240252,4.85837 -7.111024,4.5186 -6.870771,-0.33977 v 0 c 0.01087,-0.21567 0.01802,-0.43152 0.02751,-0.64725 0.01199,-0.29135 0.02402,-0.58269 0.03589,-0.87403 0.01352,-0.33358 0.02788,-0.66715 0.03593,-1.00092 0.0062,-0.31122 1.51e-4,-0.62245 -0.02011,-0.93314 -0.02096,-0.36647 -0.04612,-0.73279 -0.08276,-1.09806 -0.04351,-0.41662 -0.09533,-0.83231 -0.149079,-1.24772 -0.06518,-0.50126 -0.131622,-1.00236 -0.199035,-1.50333 -0.08015,-0.59451 -0.160825,-1.18896 -0.250394,-1.78214 -0.103164,-0.66197 -0.210545,-1.3233 -0.33056,-1.98245 -0.127553,-0.69976 -0.260781,-1.39859 -0.415883,-2.09284 -0.169635,-0.75444 -0.347562,-1.50702 -0.542877,-2.25527 -0.21014,-0.79919 -0.430771,-1.59563 -0.675693,-2.38495 -0.259363,-0.83372 -0.528071,-1.66477 -0.832596,-2.4833 -0.307311,-0.81721 -0.630187,-1.62903 -1.003414,-2.41879 -0.362259,-0.75854 -0.742259,-1.50953 -1.185243,-2.22484 -0.386694,-0.6116 -0.793562,-1.21249 -1.287373,-1.74434 -0.4948,-0.52814 -1.021389,-1.02565 -1.601523,-1.46023 -0.582451,-0.43073 -1.184613,-0.83648 -1.839989,-1.14977 -0.733599,-0.35 -1.48323,-0.66715 -2.258962,-0.91265 -0.844846,-0.2614 -1.702493,-0.47818 -2.574213,-0.63046 -0.903777,-0.15636 -1.81324,-0.28861 -2.731535,-0.31619 -0.963075,-0.0239 -1.927376,0.001 -2.883545,0.12944 -1.005528,0.13933 -2.005865,0.32268 -2.978201,0.62008 -0.99133,0.31105 -1.967431,0.67176 -2.891173,1.1518 -0.956373,0.50073 -1.892874,1.04051 -2.771709,1.66965 -0.901425,0.64823 -1.778598,1.33002 -2.600933,2.07726 -0.839539,0.76252 -1.658102,1.54802 -2.43386,2.37588 -0.74503,0.79623 -1.475751,1.60613 -2.164334,2.45211 -0.651097,0.79928 -1.292754,1.60663 -1.900185,2.43985 -0.518517,0.71913 -1.024223,1.44863 -1.464209,2.2193 -0.396433,0.69974 -0.774142,1.41104 -1.085289,2.15354 -0.296474,0.72222 -0.567119,1.45527 -0.774187,2.20875 -0.203689,0.74011 -0.388159,1.4857 -0.520832,2.24225 -0.141666,0.80181 -0.264978,1.6067 -0.357439,2.41581 -0.0907,0.78786 -0.173596,1.57677 -0.22625,2.36823 -0.04535,0.70304 -0.0747,1.40673 -0.08784,2.11115 -0.019,0.65803 -0.03897,1.31606 -0.06761,1.97375 -0.02619,0.55812 -0.04964,1.11818 -0.138192,1.67068 -0.324328,1.59739 -1.229013,2.79153 -2.950831,3.14806 -0.487381,0.10092 -0.994717,-0.0379 -1.492073,-0.0569 -0.331573,-0.14061 -0.678575,-0.24931 -0.994717,-0.42183 -0.546598,-0.29829 -0.955164,-0.80254 -1.30057,-1.30605 -0.137214,-0.20747 -0.272598,-0.41614 -0.407109,-0.62536 -0.151921,-0.23827 -0.302861,-0.47714 -0.453674,-0.71611 -0.170203,-0.26648 -0.342267,-0.53177 -0.515079,-0.79657 -0.221878,-0.33949 -0.444043,-0.6788 -0.663488,-1.01988 -0.266149,-0.41353 -0.530153,-0.82842 -0.795556,-1.24243 -0.312759,-0.49075 -0.623133,-0.983 -0.935801,-1.47381 -0.335873,-0.52792 -0.672081,-1.05578 -1.022623,-1.57413 -0.370108,-0.54084 -0.749013,-1.07564 -1.140984,-1.60091 -0.397498,-0.52965 -0.801853,-1.05424 -1.223048,-1.56536 -0.42512,-0.50977 -0.860341,-1.0111 -1.315326,-1.49459 -0.492611,-0.52187 -0.99383,-1.03565 -1.514788,-1.52944 -0.544637,-0.52023 -1.0961,-1.03322 -1.652224,-1.54115 -0.471708,-0.42893 -0.94608,-0.85557 -1.444686,-1.25334 -0.428438,-0.33929 -0.864872,-0.6681 -1.3069796,-0.98939 -0.3639981,-0.26709 -0.7273504,-0.53508 -1.0874131,-0.80747 -0.090141,-0.0671 -0.4468373,-0.30476 -0.088234,-0.11048 0.072765,0.0285 0.1463331,0.0563 0.222917,0.0727 -4.7240676,-1.15959 -3.0841582,-7.84043 1.6399087,-6.68084 z"
       inkscape:connector-curvature="0" />
    <path
       style="opacity:1;fill:#020900;fill-opacity:1;stroke:none;stroke-width:1;stroke-linecap:butt;stroke-linejoin:round;stroke-miterlimit:4;stroke-dasharray:none;stroke-opacity:1"
       id="path1383"
       d="m 46.075965,236.94251 c -0.110803,0.23764 -0.134758,0.61992 -0.09743,0.11227 0.0486,-0.67495 0.04309,-1.35199 0.0364,-2.02815 -0.0209,-1.20836 -0.05161,-2.41653 -0.07776,-3.62478 -0.02786,-1.31387 -0.05234,-2.62781 -0.0769,-3.94175 -0.0195,-1.10742 -0.04165,-2.2148 -0.06779,-3.32209 -0.02291,-0.9289 -0.05483,-1.85754 -0.08827,-2.78611 -0.02405,-0.74321 -0.0599,-1.48603 -0.08097,-2.22932 -0.133718,-4.86247 6.742848,-5.05157 6.876565,-0.18911 v 0 c 0.01908,0.72383 0.0572,1.44711 0.07912,2.17086 0.03446,0.95697 0.06727,1.91401 0.09081,2.87132 0.02641,1.11856 0.04881,2.23719 0.06851,3.35588 0.02442,1.30718 0.04878,2.61436 0.07649,3.92147 0.02675,1.23619 0.05844,2.47229 0.07906,3.70861 0.0079,0.87637 0.0097,1.75376 -0.05693,2.62829 -0.04857,0.60404 -0.109945,1.21189 -0.325591,1.78362 -1.718987,4.55045 -8.154286,2.11943 -6.435298,-2.43101 z"
       inkscape:connector-curvature="0" />
    <path
       style="opacity:1;fill:#020900;fill-opacity:1;stroke:none;stroke-width:1;stroke-linecap:butt;stroke-linejoin:round;stroke-miterlimit:4;stroke-dasharray:none;stroke-opacity:1"
       id="path1385"
       d="m 62.321368,239.3736 c 0.07737,-0.46515 0.228378,-0.91172 0.393853,-1.35168 0.2871,-0.73156 0.649592,-1.42918 1.026808,-2.11739 0.530247,-0.94241 1.113589,-1.85335 1.705158,-2.75803 0.582901,-0.87774 1.173837,-1.7501 1.760887,-2.62506 0.496329,-0.73256 0.971888,-1.47863 1.427972,-2.23681 0.402317,-0.67901 0.777981,-1.37328 1.152766,-2.0677 0.184568,-0.33757 0.36745,-0.6758 0.517493,-1.03027 1.963618,-4.45036 8.257373,-1.67338 6.293752,2.77698 v 0 c -0.231987,0.51723 -0.479441,1.02646 -0.757621,1.52078 -0.42627,0.78967 -0.85457,1.57858 -1.313728,2.34978 -0.514707,0.85349 -1.048917,1.69489 -1.608137,2.52003 -0.572212,0.85283 -1.147998,1.70327 -1.716736,2.55842 -0.496485,0.75847 -0.987295,1.52135 -1.435574,2.30963 -0.227946,0.41133 -0.449228,0.82686 -0.629578,1.26177 -0.0081,0.0196 -0.04467,0.11148 -0.04087,0.0739 -0.837462,4.79168 -7.613909,3.60733 -6.776447,-1.18434 z"
       inkscape:connector-curvature="0" />
    <path
       style="opacity:1;fill:#020900;fill-opacity:1;stroke:none;stroke-width:1;stroke-linecap:butt;stroke-linejoin:round;stroke-miterlimit:4;stroke-dasharray:none;stroke-opacity:1"
       id="path1387"
       d="m 32.295988,242.49596 c 0.0021,-0.008 0.02439,-0.0783 -0.0094,0.0286 -0.189175,0.63724 -0.154305,1.31756 0.07438,1.9378 -0.06191,-0.0846 -0.289873,-0.4251 -0.400175,-0.57806 -0.435967,-0.59911 -0.935371,-1.14713 -1.439836,-1.68833 -0.707821,-0.75826 -1.485646,-1.44427 -2.279097,-2.11043 -0.943544,-0.77657 -1.920518,-1.51102 -2.899406,-2.24208 -0.956254,-0.71166 -1.916534,-1.41786 -2.879091,-2.12096 -0.798017,-0.58212 -1.59672,-1.16329 -2.395347,-1.74457 -0.638494,-0.46471 -1.277001,-0.9294 -1.915507,-1.3941 -0.508948,-0.3704 -1.017897,-0.7408 -1.526846,-1.11121 -0.254961,-0.18264 -0.5006,-0.37737 -0.745146,-0.57353 -3.783621,-3.05708 0.53973,-8.40792 4.323351,-5.35085 v 0 c 0.152918,0.12551 0.309095,0.24679 0.469779,0.3623 0.508951,0.37041 1.017901,0.74081 1.526851,1.11122 0.638584,0.46475 1.277168,0.92949 1.915739,1.39426 0.801793,0.58359 1.603662,1.16706 2.404837,1.75149 0.982257,0.71751 1.962195,1.43819 2.937994,2.16447 1.085165,0.81062 2.167411,1.62611 3.211467,2.48955 1.006478,0.8482 1.990286,1.72465 2.887718,2.6895 0.704885,0.75925 1.396273,1.53337 2.001285,2.37615 0.394525,0.55579 0.780304,1.12192 1.06976,1.74128 0.379003,0.89786 0.557668,1.8608 0.262763,2.81721 -0.0478,0.15873 -0.09835,0.3166 -0.157085,0.47169 -1.712175,4.55301 -8.151106,2.13163 -6.438932,-2.42138 z"
       inkscape:connector-curvature="0" />
  </g>
</svg>
