<svg viewBox="0 0 100 100"><path style="opacity:1;fill:#020900;fill-opacity:1;stroke:none;stroke-width:1;stroke-linecap:butt;stroke-linejoin:round;stroke-miterlimit:4;stroke-dasharray:none;stroke-opacity:1" d="M10.478 262.809c.35.08.682.213 1.01.357.476.219.9.53 1.32.84q.523.395 1.052.783.764.554 1.503 1.139a36 36 0 0 1 1.806 1.559q.897.817 1.776 1.656a47 47 0 0 1 1.765 1.781 40 40 0 0 1 3.038 3.653q.677.91 1.316 1.844c.395.583.773 1.176 1.151 1.77l.933 1.469.779 1.216q.316.491.637.98.28.427.554.857l.457.72q.17.266.343.528.011.02.026.037c.01.009-.013-.022-.02-.032a2.3 2.3 0 0 0-.317-.361c-.578-.508-.554-.409-1.383-.774-.47-.023-.948-.16-1.41-.07-1.302.252-2.348 1.155-2.667 2.428.004-.164.029-.557.04-.786q.038-.926.062-1.852.024-1.177.1-2.352c.059-.907.153-1.811.257-2.714.107-.946.252-1.886.416-2.823.169-.968.403-1.921.661-2.868.278-1.02.643-2.012 1.04-2.99.418-1.012.927-1.982 1.464-2.935.562-.992 1.207-1.932 1.871-2.857a64 64 0 0 1 2.15-2.765 55 55 0 0 1 2.473-2.807 50 50 0 0 1 2.83-2.766c1.014-.924 2.096-1.765 3.206-2.568 1.14-.82 2.353-1.524 3.593-2.178 1.282-.673 2.638-1.182 4.015-1.622 1.337-.417 2.713-.676 4.096-.874 1.324-.183 2.66-.222 3.995-.195 1.259.032 2.506.202 3.745.414 1.16.199 2.3.49 3.425.833 1.096.34 2.153.784 3.189 1.272 1.052.497 2.025 1.136 2.963 1.82.917.676 1.746 1.455 2.53 2.278.8.848 1.468 1.801 2.094 2.78.594.946 1.104 1.941 1.587 2.947.46.968.858 1.963 1.236 2.965.353.944.664 1.902.964 2.864.275.887.523 1.781.76 2.679a79 79 0 0 1 .602 2.496c.175.786.327 1.577.472 2.369.13.717.247 1.436.36 2.157.097.64.184 1.281.27 1.923q.104.767.204 1.535.092.706.168 1.414c.05.473.082.947.11 1.42.03.481.037.963.03 1.444-.008.39-.025.778-.04 1.167l-.037.879q-.013.353-.03.704c-.24 4.858-7.11 4.518-6.87-.34l.027-.647.036-.874q.023-.5.036-1.001.01-.467-.02-.933a26 26 0 0 0-.083-1.098 51 51 0 0 0-.149-1.248l-.199-1.503c-.08-.595-.16-1.19-.25-1.782a79 79 0 0 0-.331-1.983c-.128-.7-.26-1.399-.416-2.093a68 68 0 0 0-.543-2.255c-.21-.8-.43-1.596-.675-2.385a48 48 0 0 0-.833-2.483 32 32 0 0 0-1.003-2.42 23 23 0 0 0-1.186-2.224c-.386-.612-.793-1.212-1.287-1.744a12.4 12.4 0 0 0-1.602-1.46c-.582-.431-1.184-.837-1.84-1.15a18 18 0 0 0-2.259-.913 21 21 0 0 0-2.574-.63c-.903-.157-1.813-.289-2.731-.317-.963-.023-1.928.001-2.884.13-1.005.14-2.006.323-2.978.62-.991.311-1.967.672-2.891 1.152-.957.5-1.893 1.04-2.772 1.67a29 29 0 0 0-2.6 2.077 42 42 0 0 0-2.435 2.376 47 47 0 0 0-2.164 2.452 57 57 0 0 0-1.9 2.44c-.519.719-1.024 1.448-1.464 2.219-.397.7-.775 1.41-1.086 2.153a19 19 0 0 0-.774 2.21c-.204.74-.388 1.485-.52 2.241a40 40 0 0 0-.358 2.416c-.09.788-.174 1.577-.226 2.368a46 46 0 0 0-.088 2.112c-.02.658-.04 1.316-.068 1.973-.026.558-.05 1.118-.138 1.671-.324 1.597-1.23 2.792-2.95 3.148-.488.101-.996-.038-1.493-.057-.332-.14-.679-.25-.995-.422-.546-.298-.955-.802-1.3-1.306a58 58 0 0 1-.861-1.341 97 97 0 0 0-.515-.797q-.334-.51-.664-1.02l-.795-1.242-.936-1.474a67 67 0 0 0-1.023-1.574q-.554-.812-1.14-1.601a44 44 0 0 0-1.224-1.565c-.425-.51-.86-1.011-1.315-1.495a39 39 0 0 0-1.515-1.53q-.817-.78-1.652-1.54a30 30 0 0 0-1.445-1.254q-.642-.508-1.307-.99a93 93 0 0 1-1.087-.807c-.09-.067-.447-.304-.088-.11.073.028.146.056.223.073-4.724-1.16-3.084-7.84 1.64-6.681m35.598-25.866c-.11.237-.135.62-.097.112a25 25 0 0 0 .036-2.028c-.021-1.209-.052-2.417-.078-3.625q-.04-1.971-.077-3.942-.029-1.661-.068-3.322-.035-1.394-.088-2.786c-.024-.743-.06-1.486-.08-2.23-.134-4.862 6.742-5.051 6.876-.189.019.724.057 1.448.079 2.171.034.957.067 1.914.09 2.872q.04 1.677.07 3.356.035 1.96.076 3.921c.026 1.236.058 2.472.079 3.709.008.876.01 1.753-.057 2.628-.049.604-.11 1.212-.326 1.784-1.719 4.55-8.154 2.119-6.435-2.431m16.245 2.431c.078-.466.229-.912.394-1.352.287-.732.65-1.43 1.027-2.117a49 49 0 0 1 1.705-2.758c.583-.878 1.174-1.75 1.761-2.626q.744-1.099 1.428-2.236c.402-.68.778-1.374 1.153-2.068.184-.338.367-.676.517-1.03 1.964-4.45 8.258-1.674 6.294 2.777-.232.517-.48 1.026-.758 1.52-.426.79-.854 1.579-1.313 2.35a57 57 0 0 1-1.608 2.52q-.861 1.278-1.717 2.559a44 44 0 0 0-1.436 2.31c-.228.41-.449.826-.63 1.261-.007.02-.044.112-.04.074-.838 4.792-7.614 3.607-6.777-1.184m-30.025 3.122c.002-.008.024-.078-.01.029a3.08 3.08 0 0 0 .075 1.937c-.062-.084-.29-.425-.4-.578-.436-.599-.936-1.147-1.44-1.688-.708-.758-1.486-1.444-2.28-2.11a78 78 0 0 0-2.899-2.243 401 401 0 0 0-2.879-2.12q-1.197-.874-2.395-1.745l-1.915-1.394-1.527-1.111a18 18 0 0 1-.745-.574c-3.784-3.057.54-8.408 4.323-5.35q.229.188.47.362l1.526 1.11 1.916 1.395q1.203.875 2.405 1.752a408 408 0 0 1 2.938 2.164c1.085.81 2.167 1.626 3.212 2.49 1.006.848 1.99 1.724 2.887 2.689.705.76 1.397 1.533 2.002 2.376.394.556.78 1.122 1.07 1.741.378.898.557 1.861.262 2.818a7 7 0 0 1-.157.471c-1.712 4.553-8.151 2.132-6.439-2.421" transform="translate(0 -197)"/></svg>