<?xml version="1.0" encoding="UTF-8" standalone="no"?>
<!-- Created with Inkscape (http://www.inkscape.org/) -->

<svg
   xmlns:dc="http://purl.org/dc/elements/1.1/"
   xmlns:cc="http://creativecommons.org/ns#"
   xmlns:rdf="http://www.w3.org/1999/02/22-rdf-syntax-ns#"
   xmlns:svg="http://www.w3.org/2000/svg"
   xmlns="http://www.w3.org/2000/svg"
   xmlns:sodipodi="http://sodipodi.sourceforge.net/DTD/sodipodi-0.dtd"
   xmlns:inkscape="http://www.inkscape.org/namespaces/inkscape"
   width="10cm"
   height="10cm"
   viewBox="0 0 100 99.999997"
   version="1.1"
   id="svg8"
   sodipodi:docname="pi.svg"
   inkscape:version="0.92.3 (2405546, 2018-03-11)">
  <defs
     id="defs2" />
  <sodipodi:namedview
     id="base"
     pagecolor="#ffffff"
     bordercolor="#666666"
     borderopacity="1.0"
     inkscape:pageopacity="0.0"
     inkscape:pageshadow="2"
     inkscape:zoom="1"
     inkscape:cx="175.50186"
     inkscape:cy="186.50542"
     inkscape:document-units="cm"
     inkscape:current-layer="layer1"
     showgrid="true"
     units="cm"
     inkscape:window-width="881"
     inkscape:window-height="707"
     inkscape:window-x="971"
     inkscape:window-y="213"
     inkscape:window-maximized="0"
     inkscape:snap-nodes="false">
    <inkscape:grid
       type="xygrid"
       id="grid815"
       units="cm"
       spacingx="9.9999998"
       spacingy="9.9999998" />
  </sodipodi:namedview>
  <metadata
     id="metadata5">
    <rdf:RDF>
      <cc:Work
         rdf:about="">
        <dc:format>image/svg+xml</dc:format>
        <dc:type
           rdf:resource="http://purl.org/dc/dcmitype/StillImage" />
        <dc:title></dc:title>
      </cc:Work>
    </rdf:RDF>
  </metadata>
  <g
     inkscape:label="Layer 1"
     inkscape:groupmode="layer"
     id="layer1"
     transform="translate(0,-197.00002)">
    <path
       style="opacity:1;fill:#020900;fill-opacity:1;stroke:none;stroke-width:1;stroke-linecap:butt;stroke-linejoin:round;stroke-miterlimit:4;stroke-dasharray:none;stroke-opacity:1"
       id="path1391"
       d="m 17.798985,212.75313 c 0.125539,0.3232 0.218249,0.65764 0.304218,0.99309 0.123658,0.50202 0.195013,1.01466 0.268772,1.52577 0.08277,0.57366 0.146549,1.14976 0.20493,1.72633 0.07672,0.71102 0.11255,1.42503 0.13121,2.13963 0.01633,0.77994 0.01,1.56003 -0.0078,2.33986 -0.01943,0.85078 -0.07398,1.70002 -0.135658,2.54859 -0.06792,0.91558 -0.15256,1.82978 -0.233164,2.7443 -0.08693,0.99712 -0.161492,1.99527 -0.238073,2.99323 -0.08838,1.12685 -0.16794,2.25437 -0.252278,3.38153 -0.09169,1.2355 -0.196608,2.46997 -0.300331,3.7045 -0.106916,1.28689 -0.24083,2.57128 -0.376925,3.85533 -0.130439,1.24404 -0.265536,2.48759 -0.405562,3.73058 -0.138167,1.18876 -0.280582,2.377 -0.412904,3.56643 -0.125915,1.16028 -0.246147,2.32116 -0.362445,3.48244 -0.112529,1.12399 -0.21058,2.24935 -0.304323,3.37504 -0.08832,1.0607 -0.17007,2.12193 -0.251417,3.18319 -0.06802,0.89008 -0.136096,1.78016 -0.202433,2.67037 -0.05678,0.78234 -0.115348,1.56454 -0.172404,2.34685 -0.04938,0.68119 -0.09825,1.36242 -0.147179,2.04365 -0.03927,0.5469 -0.07854,1.09381 -0.117804,1.64071 -0.01593,0.30421 -0.05862,0.60997 -0.03402,0.91489 0.01343,0.0517 0.01571,-0.001 0.01836,-0.0214 -0.02417,-0.11728 -0.103304,-0.21959 -0.173878,-0.31505 -0.0064,-0.0294 -0.161796,-0.14536 -0.05309,-0.10428 0.191164,0.0859 0.390971,0.14866 0.591647,0.20772 0.380054,0.10592 0.766527,0.18671 1.153998,0.26004 0.450102,0.0828 0.905437,0.12988 1.361156,0.16792 0.586675,0.0449 1.174828,0.0654 1.762791,0.0845 0.692198,0.0231 1.384764,0.0279 2.077283,0.0294 0.794431,5.2e-4 1.58886,-0.002 2.383291,-0.002 0.898972,-0.001 1.797865,0.011 2.696641,0.0286 0.970838,0.0223 1.941536,0.0502 2.912293,0.0757 1.012229,0.0266 2.024567,0.0487 3.036932,0.0694 1.044464,0.0213 2.088994,0.039 3.133537,0.0557 1.048584,0.0163 2.09717,0.0323 3.145838,0.0419 1.026924,0.007 2.053875,0.005 3.080811,0.002 0.987755,-0.002 1.975506,-0.006 2.963238,-0.0134 0.936559,-0.007 1.87308,-0.0175 2.809531,-0.0333 0.881975,-0.0167 1.763625,-0.0463 2.645232,-0.0761 0.847098,-0.0271 1.693945,-0.0611 2.540754,-0.0959 0.814758,-0.0337 1.629646,-0.064 2.444277,-0.10066 0.815324,-0.0378 1.630788,-0.0724 2.446155,-0.1092 0.844465,-0.0391 1.689031,-0.076 2.533679,-0.11094 0.870164,-0.0358 1.740283,-0.0727 2.610519,-0.10684 0.885778,-0.0345 1.77174,-0.0639 2.657742,-0.092 0.859253,-0.0263 1.718548,-0.0512 2.577865,-0.0754 0.841198,-0.0235 1.682469,-0.0442 2.523757,-0.064 0.804278,-0.0192 1.608667,-0.0333 2.413053,-0.047 0.782637,-0.0116 1.565362,-0.0159 2.348063,-0.0208 0.75487,-0.005 1.50975,-0.008 2.264635,-0.008 0.707668,-10e-4 1.415322,0.004 2.122969,0.008 0.642012,0.004 1.284023,0.009 1.926034,0.013 0.573485,0.003 1.146929,0.01 1.720364,0.0174 0.481382,0.006 0.962763,0.013 1.444143,0.0195 0.388326,0.005 0.776655,0.0105 1.164982,0.0157 0.310739,0.004 0.621477,0.008 0.932217,0.0125 0.247703,0.003 0.495403,0.007 0.743106,0.01 0.209862,0.004 0.41969,0.009 0.62952,0.0139 0.157657,0.004 0.315315,0.008 0.472972,0.0116 0.171905,5.3e-4 0.342892,0.0145 0.514191,0.0277 4.840449,0.48116 4.159983,7.32659 -0.680466,6.84543 v 0 c 0.301773,0.0175 0.05957,0.002 -0.0024,0.004 -0.157046,-0.004 -0.314095,-0.008 -0.471141,-0.0115 -0.185002,-0.005 -0.370001,-0.009 -0.555027,-0.0125 -0.247703,-0.003 -0.495406,-0.007 -0.743109,-0.01 -0.310755,-0.004 -0.621511,-0.008 -0.932267,-0.0125 -0.388514,-0.005 -0.777031,-0.0104 -1.165545,-0.0157 -0.480661,-0.007 -0.961324,-0.013 -1.441987,-0.0195 -0.558118,-0.007 -1.116246,-0.0143 -1.674411,-0.0169 -0.642463,-0.004 -1.284927,-0.009 -1.927389,-0.013 -0.69043,-0.005 -1.380865,-0.009 -2.071317,-0.008 -0.742381,5.3e-4 -1.484762,0.003 -2.227127,0.008 -0.757746,0.005 -1.515515,0.009 -2.2732,0.0199 -0.789514,0.0135 -1.57903,0.0273 -2.368438,0.0461 -0.831004,0.0196 -1.661991,0.04 -2.492905,0.0632 -0.851198,0.0239 -1.702382,0.0485 -2.55352,0.0747 -0.868759,0.0275 -1.737479,0.0563 -2.606019,0.0901 -0.865174,0.0339 -1.730226,0.0706 -2.595332,0.10623 -0.835938,0.0346 -1.671799,0.0711 -2.507559,0.1098 -0.815848,0.0369 -1.631799,0.0714 -2.447605,0.10928 -0.823561,0.037 -1.647365,0.0679 -2.471055,0.1018 -0.863425,0.0355 -1.726885,0.0702 -2.590604,0.0978 -0.92029,0.0311 -1.840632,0.0619 -2.761313,0.0791 -0.95803,0.0162 -1.916129,0.0271 -2.87427,0.0341 -0.99918,0.007 -1.998379,0.0115 -2.997586,0.0136 -1.053729,0.003 -2.107475,0.005 -3.161191,-0.003 -1.064316,-0.01 -2.128555,-0.0258 -3.192783,-0.0424 -1.054833,-0.0169 -2.10965,-0.0348 -3.164401,-0.0563 -1.025633,-0.021 -2.05124,-0.0434 -3.076736,-0.0704 -0.955662,-0.0251 -1.911265,-0.0526 -2.867002,-0.0747 -0.853366,-0.0169 -1.706844,-0.0282 -2.560398,-0.0273 -0.799631,9e-5 -1.599259,0.002 -2.398889,0.002 -0.762722,-0.002 -1.525489,-0.008 -2.287852,-0.033 -0.707772,-0.0233 -1.415725,-0.0493 -2.121783,-0.10571 -0.693394,-0.06 -1.385849,-0.13608 -2.070187,-0.26573 -0.625571,-0.12064 -1.249375,-0.2541 -1.860837,-0.43457 -0.632032,-0.19471 -1.257023,-0.41674 -1.842859,-0.72738 -0.655246,-0.36063 -1.279004,-0.77678 -1.7875221,-1.3326 -0.4992457,-0.5758 -0.9276646,-1.20241 -1.1866695,-1.92549 -0.2371227,-0.66869 -0.4109635,-1.3573 -0.4387209,-2.07004 -0.019902,-0.56777 -0.00647,-1.13496 0.045414,-1.701 0.03927,-0.54696 0.078538,-1.09393 0.1178171,-1.6409 0.049109,-0.68375 0.098159,-1.36751 0.1477288,-2.05123 0.057323,-0.78592 0.1161452,-1.57174 0.1732023,-2.35768 0.066703,-0.89505 0.1351346,-1.78998 0.2035318,-2.68491 0.082505,-1.07634 0.1654492,-2.15266 0.2550364,-3.22845 0.096968,-1.1639 0.1984454,-2.32746 0.3148319,-3.48961 0.118844,-1.18636 0.2416379,-2.37233 0.3703974,-3.55766 0.1327422,-1.19254 0.275155,-2.38395 0.4139522,-3.5758 0.1383726,-1.22798 0.2717606,-2.45653 0.4006386,-3.68554 0.130867,-1.23437 0.259934,-2.46903 0.36275,-3.70612 0.10197,-1.21368 0.205203,-2.42728 0.295359,-3.64191 0.08468,-1.13149 0.164521,-2.26335 0.253264,-3.39453 0.07857,-1.02386 0.155158,-2.0479 0.244474,-3.07089 0.07754,-0.87972 0.159101,-1.75912 0.224758,-2.63984 0.05363,-0.7353 0.102256,-1.47113 0.119342,-2.20837 0.01575,-0.66878 0.02123,-1.33777 0.0082,-2.00668 -0.0131,-0.54184 -0.03951,-1.08316 -0.09859,-1.62221 -0.04841,-0.47965 -0.100898,-0.95903 -0.16952,-1.43634 -0.03956,-0.27499 -0.076,-0.55087 -0.129939,-0.82349 -0.01257,-0.0524 -0.09956,-0.34581 -0.02391,-0.12806 -1.802054,-4.51819 4.587635,-7.06668 6.38969,-2.54849 z"
       inkscape:connector-curvature="0" />
  </g>
</svg>
