<svg viewBox="0 0 100 100"><path style="opacity:1;fill:#020900;fill-opacity:1;stroke:none;stroke-width:1;stroke-linecap:butt;stroke-linejoin:round;stroke-miterlimit:4;stroke-dasharray:none;stroke-opacity:1" d="M17.799 212.753c.126.323.218.658.304.993.124.502.195 1.015.269 1.526.083.574.147 1.15.205 1.726.077.711.112 1.425.131 2.14.016.78.01 1.56-.008 2.34-.02.85-.074 1.7-.135 2.548-.068.916-.153 1.83-.234 2.745-.086.997-.161 1.995-.238 2.993-.088 1.127-.168 2.254-.252 3.381-.092 1.236-.196 2.47-.3 3.705a171 171 0 0 1-.377 3.855q-.195 1.867-.406 3.73c-.138 1.19-.28 2.378-.413 3.567q-.188 1.74-.362 3.483c-.113 1.124-.21 2.25-.304 3.375-.089 1.06-.17 2.122-.252 3.183l-.202 2.67-.173 2.347-.147 2.044-.118 1.64c-.016.305-.058.61-.034.915.014.052.016 0 .019-.021-.024-.117-.104-.22-.174-.315-.007-.03-.162-.145-.053-.104.191.086.39.148.591.207.38.106.767.187 1.154.26.45.083.906.13 1.362.168a40 40 0 0 0 1.762.085c.693.023 1.385.028 2.078.03l2.383-.003q1.348.001 2.697.029c.97.022 1.941.05 2.912.076q1.518.038 3.037.069a712 712 0 0 0 6.28.098 542 542 0 0 0 6.044-.011q1.404-.011 2.809-.034a280 280 0 0 0 5.186-.172c.815-.034 1.63-.064 2.444-.1q1.222-.056 2.446-.11 1.268-.06 2.534-.11 1.305-.056 2.61-.108 1.329-.05 2.658-.092l2.578-.075q1.261-.035 2.524-.064 1.206-.028 2.413-.047c.782-.012 1.565-.016 2.348-.021q1.132-.008 2.265-.008 1.061 0 2.122.008l1.927.013q.86.005 1.72.017l1.444.02 1.165.016.932.012.743.01.63.014.473.012c.172 0 .343.014.514.027 4.84.482 4.16 7.327-.68 6.846.301.017.06.002-.003.004l-1.026-.024-.743-.01-.932-.013-1.166-.015-1.442-.02q-.837-.012-1.674-.017l-1.928-.013q-1.035-.009-2.071-.008-1.113 0-2.227.008-1.137.006-2.273.02-1.185.02-2.369.046a576 576 0 0 0-7.652.228q-1.297.051-2.596.106-1.254.053-2.507.11l-2.448.11c-.823.036-1.647.067-2.47.101q-1.296.055-2.591.098c-.92.031-1.841.062-2.762.08q-1.437.023-2.874.033a611 611 0 0 1-6.159.01q-1.596-.016-3.193-.042a726 726 0 0 1-6.24-.126c-.956-.025-1.912-.053-2.868-.075q-1.28-.027-2.56-.027l-2.399.002a76 76 0 0 1-2.288-.033 45 45 0 0 1-2.122-.106 21 21 0 0 1-2.07-.266c-.625-.12-1.25-.254-1.86-.434-.633-.195-1.258-.417-1.844-.728-.655-.36-1.279-.776-1.787-1.332-.5-.576-.928-1.203-1.187-1.926-.237-.668-.41-1.357-.438-2.07q-.031-.852.045-1.7l.118-1.642.148-2.05.173-2.359q.1-1.343.203-2.684.123-1.615.255-3.229c.097-1.164.199-2.327.315-3.49q.178-1.78.37-3.557c.133-1.193.276-2.384.414-3.576q.208-1.842.401-3.686c.131-1.234.26-2.469.363-3.706.102-1.213.205-2.427.295-3.642.085-1.131.165-2.263.254-3.394.078-1.024.155-2.048.244-3.071.078-.88.16-1.76.225-2.64.053-.735.102-1.47.12-2.208q.025-1.004.007-2.007a19 19 0 0 0-.098-1.622c-.049-.48-.101-.96-.17-1.436-.04-.275-.076-.551-.13-.824-.012-.052-.1-.346-.024-.128-1.802-4.518 4.588-7.067 6.39-2.548" transform="translate(0 -197)"/></svg>