<svg viewBox="0 0 100 100"><path style="opacity:1;fill:#020900;fill-opacity:1;stroke:none;stroke-width:1;stroke-linecap:butt;stroke-linejoin:round;stroke-miterlimit:4;stroke-dasharray:none;stroke-opacity:1" d="M45.715 223.828c.055-.343.143-.678.242-1.01.103-.335.223-.662.35-.987.146-.384.324-.754.513-1.117.212-.4.46-.778.72-1.148.252-.355.524-.696.801-1.032q.406-.486.825-.961a14 14 0 0 1 2.191-2.04c.45-.344.929-.644 1.417-.929.483-.28.986-.524 1.495-.754a17 17 0 0 1 1.645-.624c.612-.199 1.238-.35 1.867-.485a23 23 0 0 1 2.034-.325c.78-.096 1.566-.108 2.351-.09.872.021 1.734.143 2.589.306.86.174 1.703.427 2.539.693.758.245 1.506.519 2.254.791q1.023.37 2.038.762c.81.304 1.586.685 2.342 1.104.771.437 1.49.957 2.191 1.497a22.5 22.5 0 0 1 3.568 3.548 28 28 0 0 1 2.552 3.795c.374.662.702 1.347 1.01 2.041.307.702.567 1.424.81 2.15a20.4 20.4 0 0 1 .936 4.535c.073.712.098 1.428.11 2.143a29 29 0 0 1-.202 3.858 33 33 0 0 1-.302 1.914 47 47 0 0 1-.36 1.818 24 24 0 0 1-.489 1.842 36 36 0 0 1-.568 1.68c-.207.592-.45 1.17-.717 1.738a17 17 0 0 1-.936 1.694 24 24 0 0 1-1.067 1.548 28 28 0 0 1-1.23 1.498c-.43.486-.883.95-1.34 1.411-.442.446-.897.878-1.351 1.31q-.65.61-1.29 1.23-.636.614-1.26 1.242c-.43.435-.85.878-1.27 1.321q-.677.707-1.332 1.432-.7.771-1.403 1.539c-.47.514-.953 1.017-1.435 1.521q-.716.757-1.436 1.509-.737.764-1.464 1.534-.732.787-1.459 1.579c-.443.481-.889.961-1.327 1.447a49 49 0 0 0-2.194 2.62 104 104 0 0 0-1.804 2.354q-.362.487-.718.979c-.203.284-.399.573-.596.862-.186.272-.376.541-.56.815q-.212.321-.41.651l-.41.702-.359.617q-.151.253-.3.51l-.245.417-.195.336-.157.268-.124.213-.1.17-.078.136-.063.108q-.087.149-.183.293c-1.31 1.677-.347.63-5.446.32-.162-.01-.688-1.045-.782-1.263-.02-.08-.059-.138-.084-.182a4 4 0 0 0-.215-.336c-.134-.174-.276-.342-.416-.512a56 56 0 0 1-.67-.836c-.167-.215-.35-.417-.533-.618q-.39-.423-.786-.84a159 159 0 0 0-.925-.97c-.329-.342-.656-.684-.99-1.02q-.506-.509-1.036-.992-.665-.604-1.333-1.205l-1.548-1.383c-.53-.47-1.068-.935-1.6-1.404a111 111 0 0 1-1.61-1.458q-.763-.704-1.524-1.41c-.492-.454-.989-.902-1.484-1.353a96 96 0 0 1-1.508-1.392c-.48-.46-.95-.928-1.426-1.391q-.724-.7-1.439-1.412a37 37 0 0 1-1.484-1.581q-.655-.74-1.301-1.488a45 45 0 0 1-1.365-1.643 51 51 0 0 1-1.295-1.726 42 42 0 0 1-1.19-1.759c-.353-.553-.693-1.115-1.033-1.676-.324-.536-.655-1.068-.982-1.602a28 28 0 0 1-1.058-1.9c-.329-.644-.623-1.306-.917-1.968-.274-.618-.552-1.234-.825-1.853-.275-.622-.542-1.248-.812-1.873-.261-.599-.531-1.194-.8-1.79a59 59 0 0 1-.827-1.895 35 35 0 0 1-.723-1.923 16 16 0 0 1-.58-2.162c-.14-.736-.212-1.482-.27-2.228a38 38 0 0 1-.089-2.145c-.014-.717.001-1.434.029-2.15.024-.693.088-1.384.176-2.071.085-.655.225-1.3.382-1.94.15-.607.337-1.204.538-1.796.23-.7.555-1.358.93-1.99.378-.617.841-1.172 1.323-1.709.455-.497.954-.952 1.459-1.398a17 17 0 0 1 1.613-1.249c.589-.405 1.217-.75 1.85-1.081a34 34 0 0 1 1.904-.912c.626-.28 1.26-.54 1.899-.79a70 70 0 0 1 1.843-.674q.955-.34 1.927-.631a35 35 0 0 1 2.003-.526 35 35 0 0 1 1.944-.385 22 22 0 0 1 1.989-.248c.664-.056 1.33-.053 1.995-.032a25 25 0 0 1 1.787.137 28 28 0 0 1 1.549.213c.598.097 1.176.275 1.745.479.457.165.901.36 1.34.567.458.216.895.471 1.32.745.439.282.844.61 1.23.96.346.319.659.671.958 1.034.28.34.525.707.76 1.079.198.316.38.643.556.972.153.283.294.573.434.863q.164.342.325.686.15.323.297.648l.246.52q.098.199.205.395.101.192.21.38c.077.13.15.261.23.39l.211.329.209.329.163.257.13.205.104.164.083.13.066.104.052.083.042.066.033.052.027.042.021.033.015.023c2.606 4.107-3.203 7.793-5.809 3.686l-.014-.023-.048-.075-.033-.053-.042-.066-.053-.082-.066-.104-.082-.13-.104-.164-.13-.205-.163-.257-.198-.311q-.14-.217-.278-.437a24 24 0 0 1-.985-1.79q-.15-.31-.294-.622-.134-.296-.271-.591-.146-.315-.296-.626a16 16 0 0 0-.296-.592q-.15-.285-.317-.562a5 5 0 0 0-.261-.387 4 4 0 0 0-.29-.327c-.094-.1-.21-.177-.322-.256a4 4 0 0 0-.52-.298 8 8 0 0 0-.731-.314c-.185-.068-.37-.138-.566-.168-.375-.066-.753-.11-1.131-.155a18 18 0 0 0-1.27-.1 10 10 0 0 0-1.212.012c-.46.037-.918.09-1.372.17a29 29 0 0 0-1.549.304c-.533.125-1.064.258-1.59.415q-.814.243-1.616.53c-.549.194-1.097.39-1.641.599q-.802.31-1.588.659a27 27 0 0 0-1.52.725c-.39.204-.78.409-1.144.656a10 10 0 0 0-.964.742c-.31.272-.618.548-.902.848a7 7 0 0 0-.542.656 2.8 2.8 0 0 0-.31.666c-.138.398-.263.8-.366 1.209-.098.392-.187.787-.24 1.188q-.096.719-.123 1.444a32 32 0 0 0 .045 3.497c.036.476.076.952.16 1.423.08.422.187.838.33 1.244.18.519.37 1.034.579 1.542q.355.858.742 1.7c.284.63.569 1.258.844 1.89.264.61.525 1.22.793 1.828.27.613.545 1.223.817 1.835.241.543.48 1.088.75 1.619.252.493.514.98.805 1.451.332.542.668 1.081.996 1.625.308.507.614 1.015.932 1.515.318.493.644.982.986 1.458.36.499.725.994 1.106 1.477q.568.72 1.171 1.41.616.712 1.239 1.417c.394.442.794.879 1.214 1.297q.687.683 1.382 1.355c.453.441.9.887 1.356 1.324.462.439.933.867 1.404 1.295q.764.691 1.522 1.388l1.512 1.4q.742.685 1.5 1.358c.545.48 1.096.956 1.64 1.439q.781.7 1.565 1.398.695.625 1.387 1.255.645.59 1.261 1.208.534.542 1.06 1.091a165 165 0 0 1 1.847 1.956c.29.32.576.643.842.983q.292.37.588.734c.259.315.522.626.756.96.218.319.427.644.612.984.15.28.292.565.405.863-.948-2.075-4.314-2.48-5.822-.352-.008.012-.174.278-.083.126l.063-.108.08-.135.098-.17.125-.213.156-.268.196-.336.247-.424.31-.525q.178-.304.354-.609l.457-.78q.284-.472.589-.932.293-.43.59-.86c.23-.335.458-.673.696-1.003a102 102 0 0 1 3.88-5.028q.64-.767 1.31-1.512c.454-.504.916-1.001 1.376-1.5.503-.545 1.004-1.093 1.51-1.635q.75-.795 1.51-1.58.714-.749 1.425-1.499c.447-.467.896-.934 1.332-1.411q.695-.758 1.385-1.52.708-.781 1.437-1.545c.455-.479.91-.958 1.375-1.429a95 95 0 0 1 1.36-1.34q.66-.638 1.33-1.268c.406-.386.813-.773 1.208-1.17.357-.36.712-.722 1.05-1.1q.46-.523.887-1.075.39-.518.738-1.064a10 10 0 0 0 .559-.998q.265-.558.47-1.142c.16-.447.317-.894.457-1.348.131-.43.253-.865.349-1.305q.17-.78.31-1.565c.088-.497.179-.995.24-1.496a22 22 0 0 0 .157-2.949c-.008-.52-.024-1.04-.075-1.557a16 16 0 0 0-.22-1.539 14 14 0 0 0-.395-1.51 16 16 0 0 0-1.289-2.995 21 21 0 0 0-.87-1.427 22 22 0 0 0-1.03-1.413 15.8 15.8 0 0 0-2.434-2.442 13 13 0 0 0-1.343-.937 10 10 0 0 0-1.47-.693 96 96 0 0 0-1.906-.713c-.662-.24-1.324-.484-1.994-.702a19 19 0 0 0-1.755-.493 9 9 0 0 0-2.821-.137c-.472.054-.941.123-1.406.22-.393.083-.785.175-1.168.297a9.7 9.7 0 0 0-1.825.79 7 7 0 0 0-.702.452 7 7 0 0 0-.6.495c-.208.199-.41.403-.598.62q-.349.396-.687.8-.246.293-.473.602c-.09.127-.18.256-.257.392a3 3 0 0 0-.196.422 7 7 0 0 0-.174.48 1 1 0 0 0-.04.155c-.81 4.796-7.593 3.651-6.784-1.145" transform="translate(0 -197)"/></svg>