<?xml version="1.0" encoding="UTF-8" standalone="no"?>
<!-- Created with Inkscape (http://www.inkscape.org/) -->

<svg
   xmlns:dc="http://purl.org/dc/elements/1.1/"
   xmlns:cc="http://creativecommons.org/ns#"
   xmlns:rdf="http://www.w3.org/1999/02/22-rdf-syntax-ns#"
   xmlns:svg="http://www.w3.org/2000/svg"
   xmlns="http://www.w3.org/2000/svg"
   xmlns:sodipodi="http://sodipodi.sourceforge.net/DTD/sodipodi-0.dtd"
   xmlns:inkscape="http://www.inkscape.org/namespaces/inkscape"
   width="10cm"
   height="10cm"
   viewBox="0 0 100 99.999997"
   version="1.1"
   id="svg8"
   sodipodi:docname="pilin.svg"
   inkscape:version="0.92.3 (2405546, 2018-03-11)">
  <defs
     id="defs2" />
  <sodipodi:namedview
     id="base"
     pagecolor="#ffffff"
     bordercolor="#666666"
     borderopacity="1.0"
     inkscape:pageopacity="0.0"
     inkscape:pageshadow="2"
     inkscape:zoom="1"
     inkscape:cx="175.50186"
     inkscape:cy="160.37856"
     inkscape:document-units="cm"
     inkscape:current-layer="layer1"
     showgrid="true"
     units="cm"
     inkscape:window-width="1920"
     inkscape:window-height="1017"
     inkscape:window-x="-8"
     inkscape:window-y="-8"
     inkscape:window-maximized="1"
     inkscape:snap-nodes="false">
    <inkscape:grid
       type="xygrid"
       id="grid815"
       units="cm"
       spacingx="9.9999998"
       spacingy="9.9999998" />
  </sodipodi:namedview>
  <metadata
     id="metadata5">
    <rdf:RDF>
      <cc:Work
         rdf:about="">
        <dc:format>image/svg+xml</dc:format>
        <dc:type
           rdf:resource="http://purl.org/dc/dcmitype/StillImage" />
        <dc:title></dc:title>
      </cc:Work>
    </rdf:RDF>
  </metadata>
  <g
     inkscape:label="Layer 1"
     inkscape:groupmode="layer"
     id="layer1"
     transform="translate(0,-197.00002)">
    <path
       style="opacity:1;fill:#020900;fill-opacity:1;stroke:none;stroke-width:1;stroke-linecap:butt;stroke-linejoin:round;stroke-miterlimit:4;stroke-dasharray:none;stroke-opacity:1"
       id="path76"
       d="m 45.715021,223.82779 c 0.0553,-0.34267 0.143404,-0.67827 0.242459,-1.01051 0.102034,-0.33384 0.222763,-0.66143 0.349438,-0.98658 0.145788,-0.3837 0.323651,-0.75346 0.513453,-1.11699 0.211227,-0.39972 0.459862,-0.77743 0.718709,-1.14746 0.252873,-0.35523 0.524475,-0.69648 0.802055,-1.03256 0.270658,-0.32401 0.545904,-0.64418 0.824997,-0.96094 0.312889,-0.35862 0.646253,-0.69819 0.988592,-1.02852 0.37832,-0.36327 0.786294,-0.69293 1.202621,-1.01114 0.449361,-0.34377 0.928537,-0.64451 1.416828,-0.92909 0.483129,-0.2803 0.985941,-0.52362 1.494483,-0.75367 0.535467,-0.24103 1.087665,-0.44087 1.645037,-0.62435 0.612362,-0.19871 1.238289,-0.34985 1.867191,-0.4853 0.672258,-0.14268 1.352251,-0.24252 2.034246,-0.32439 0.780327,-0.0959 1.566312,-0.10801 2.351167,-0.0899 0.871278,0.0206 1.73379,0.14267 2.588511,0.30515 0.861007,0.17409 1.702824,0.42723 2.538952,0.69358 0.757992,0.24509 1.506252,0.51873 2.254703,0.79119 0.681474,0.24741 1.36099,0.50003 2.037088,0.76178 0.809923,0.3044 1.586195,0.68451 2.34202,1.10361 0.771646,0.43697 1.490411,0.95737 2.191882,1.49768 0.671589,0.52163 1.295456,1.09981 1.903235,1.69342 0.594543,0.58165 1.139267,1.21015 1.664087,1.8545 0.489196,0.60633 0.942631,1.23996 1.380966,1.88363 0.418798,0.61931 0.802754,1.26089 1.170977,1.91122 0.37424,0.66137 0.702342,1.34676 1.010073,2.04108 0.307652,0.70203 0.566722,1.42359 0.810863,2.14969 0.250312,0.74732 0.440376,1.51204 0.603668,2.28242 0.153977,0.74402 0.253387,1.49741 0.331783,2.25264 0.07283,0.71216 0.09766,1.42782 0.110101,2.14319 0.01111,0.65572 -0.0078,1.31127 -0.03897,1.96618 -0.03148,0.63243 -0.09023,1.26294 -0.162698,1.89185 -0.07629,0.64145 -0.18904,1.27772 -0.302718,1.91336 -0.107466,0.6087 -0.228169,1.21482 -0.359608,1.81877 -0.13484,0.62116 -0.304729,1.23356 -0.489096,1.84159 -0.172683,0.56525 -0.367398,1.12334 -0.567708,1.67929 -0.207156,0.59265 -0.451213,1.17065 -0.71704,1.73906 -0.274918,0.58454 -0.596855,1.14447 -0.936103,1.69352 -0.333217,0.53123 -0.693476,1.04452 -1.067163,1.54784 -0.389961,0.51554 -0.804934,1.01141 -1.230267,1.49793 -0.430083,0.48618 -0.88333,0.95111 -1.340252,1.41191 -0.441979,0.4451 -0.896234,0.87769 -1.350653,1.31 -0.432668,0.40688 -0.862714,0.81649 -1.289759,1.22926 -0.423868,0.41001 -0.844291,0.82349 -1.259785,1.24198 -0.429527,0.43499 -0.850106,0.87863 -1.271302,1.32164 -0.451133,0.47032 -0.892968,0.94932 -1.331259,1.43159 -0.465883,0.51434 -0.933645,1.02698 -1.402331,1.53877 -0.470495,0.51469 -0.953696,1.01753 -1.435777,1.52132 -0.477716,0.50366 -0.954535,1.00814 -1.435508,1.5087 -0.490355,0.50944 -0.979323,1.02024 -1.464487,1.53464 -0.488754,0.52371 -0.972576,1.052 -1.458235,1.57858 -0.443664,0.48129 -0.889048,0.961 -1.327719,1.44686 -0.388887,0.43228 -0.768342,0.87287 -1.141537,1.31873 -0.356997,0.42856 -0.705001,0.86444 -1.051785,1.30126 -0.321722,0.40526 -0.637936,0.81483 -0.953534,1.22486 -0.287084,0.374 -0.570474,0.75084 -0.851398,1.1295 -0.240696,0.32501 -0.480718,0.65053 -0.717232,0.97861 -0.203412,0.28407 -0.39915,0.57352 -0.596302,0.86195 -0.185793,0.27232 -0.37628,0.54137 -0.559999,0.8151 -0.141872,0.21382 -0.27768,0.43156 -0.410143,0.65131 -0.135806,0.23425 -0.272688,0.46787 -0.409599,0.70147 -0.119603,0.20573 -0.238459,0.41188 -0.35904,0.61704 -0.101465,0.16923 -0.201509,0.33931 -0.301088,0.50966 -0.08131,0.13923 -0.162525,0.27853 -0.243747,0.41782 -0.06526,0.11192 -0.130527,0.22385 -0.195789,0.33578 -0.05203,0.0892 -0.104055,0.17846 -0.156086,0.26769 -0.04147,0.0711 -0.08294,0.14224 -0.124404,0.21336 -0.03305,0.0567 -0.0661,0.11337 -0.09915,0.17005 -0.02635,0.0452 -0.05268,0.0904 -0.07903,0.13554 -0.02101,0.036 -0.04199,0.072 -0.06299,0.10802 -0.05659,0.10071 -0.120354,0.19689 -0.183169,0.29381 -1.309153,1.67688 -0.346734,0.62871 -5.445627,0.31987 -0.162264,-0.01 -0.688399,-1.04549 -0.781923,-1.26281 -0.0199,-0.0802 -0.05909,-0.13877 -0.08407,-0.18289 -0.06706,-0.11482 -0.13716,-0.22784 -0.214717,-0.33588 -0.134515,-0.17375 -0.276657,-0.3415 -0.416166,-0.51123 -0.226828,-0.27605 -0.448596,-0.55618 -0.670121,-0.83648 -0.167577,-0.21452 -0.349554,-0.41697 -0.532802,-0.61803 -0.259824,-0.28232 -0.522364,-0.5621 -0.786487,-0.84039 -0.30739,-0.32412 -0.614873,-0.64814 -0.924981,-0.96966 -0.328398,-0.34141 -0.655423,-0.68407 -0.989319,-1.02012 -0.336945,-0.33948 -0.684083,-0.66853 -1.036265,-0.9921 -0.443113,-0.40271 -0.887809,-0.80369 -1.332862,-1.20426 -0.51662,-0.46029 -1.032116,-0.92183 -1.54795,-1.383 -0.530752,-0.47132 -1.068189,-0.93502 -1.600965,-1.40405 -0.542091,-0.4798 -1.076584,-0.9681 -1.609532,-1.45801 -0.509053,-0.46923 -1.015939,-0.9408 -1.524431,-1.41064 -0.491487,-0.45404 -0.988502,-0.90205 -1.48341,-1.35236 -0.506614,-0.46007 -1.011836,-0.92161 -1.508498,-1.39244 -0.479706,-0.459 -0.9501,-0.9276 -1.425318,-1.39123 -0.482651,-0.46748 -0.963552,-0.93674 -1.439098,-1.41145 -0.512837,-0.50985 -1.002337,-1.04216 -1.48415,-1.58117 -0.436847,-0.49336 -0.869357,-0.99056 -1.301493,-1.48805 -0.469333,-0.53559 -0.921325,-1.08582 -1.364414,-1.6432 -0.445595,-0.5648 -0.87334,-1.14327 -1.29478,-1.72621 -0.413779,-0.57448 -0.806363,-1.16372 -1.190397,-1.75836 -0.353362,-0.55316 -0.693003,-1.1149 -1.033409,-1.67608 -0.323718,-0.53614 -0.654873,-1.06772 -0.981846,-1.60187 -0.380981,-0.61711 -0.725802,-1.25512 -1.057418,-1.89976 -0.329158,-0.6449 -0.623112,-1.30676 -0.917037,-1.96819 -0.274264,-0.61816 -0.55242,-1.23457 -0.825216,-1.85338 -0.27492,-0.62242 -0.541931,-1.24828 -0.811966,-1.87282 -0.261473,-0.59899 -0.531409,-1.19423 -0.800226,-1.78994 -0.286611,-0.62704 -0.562456,-1.25875 -0.826743,-1.89549 -0.262058,-0.63284 -0.49807,-1.27586 -0.722807,-1.92274 -0.25027,-0.70486 -0.432608,-1.42968 -0.580355,-2.16205 -0.140465,-0.7356 -0.211479,-1.48167 -0.269841,-2.2275 -0.05328,-0.71393 -0.07596,-1.42954 -0.08911,-2.14517 -0.01375,-0.7171 0.0011,-1.43414 0.02864,-2.15069 0.02458,-0.69289 0.08821,-1.38314 0.176753,-2.07051 0.08496,-0.6546 0.224165,-1.29991 0.381146,-1.94047 0.150865,-0.60692 0.33699,-1.20406 0.538941,-1.79567 0.22922,-0.70011 0.554878,-1.35821 0.929047,-1.99063 0.378476,-0.61593 0.841696,-1.1716 1.323356,-1.70822 0.455424,-0.49733 0.953871,-0.95219 1.4588,-1.39819 0.509232,-0.45221 1.053423,-0.86132 1.61292,-1.24862 0.589339,-0.40558 1.217056,-0.74941 1.849579,-1.08171 0.623685,-0.32705 1.262277,-0.62407 1.904764,-0.91195 0.626425,-0.27867 1.260495,-0.5395 1.89908,-0.78888 0.610423,-0.2352 1.226178,-0.45623 1.842725,-0.67476 0.636552,-0.22806 1.280062,-0.43552 1.927235,-0.63112 0.661458,-0.19831 1.331061,-0.36742 2.00307,-0.52565 0.643684,-0.14962 1.293167,-0.2721 1.944071,-0.38548 0.658419,-0.11681 1.322835,-0.19223 1.988894,-0.24784 0.663734,-0.0561 1.329958,-0.0527 1.995062,-0.0318 0.597429,0.0212 1.192982,0.0733 1.787168,0.13709 0.518078,0.0572 1.034648,0.12618 1.548667,0.21251 0.597757,0.0974 1.176351,0.2757 1.745223,0.4793 0.456724,0.16457 0.901026,0.36021 1.339758,0.56736 0.457882,0.21605 0.895151,0.47069 1.320583,0.74431 0.43843,0.28261 0.843518,0.61038 1.230016,0.95955 0.345532,0.31979 0.658524,0.67183 0.957982,1.03441 0.278675,0.34124 0.524229,0.70728 0.759516,1.07919 0.197881,0.31664 0.379139,0.64319 0.556177,0.97181 0.152509,0.28372 0.294043,0.57311 0.433936,0.86319 0.109865,0.22785 0.216863,0.45706 0.324456,0.68599 0.10169,0.21484 0.198598,0.43189 0.297799,0.64788 0.08119,0.17363 0.162591,0.34716 0.245456,0.52 0.06401,0.13385 0.134763,0.26429 0.204738,0.39507 0.06893,0.12741 0.137768,0.25488 0.211103,0.37982 0.07653,0.12989 0.149688,0.26174 0.229121,0.3899 0.07049,0.10984 0.141047,0.21964 0.211317,0.32962 0.06979,0.1095 0.139343,0.21915 0.208921,0.32878 0.05446,0.0858 0.10891,0.17162 0.163361,0.25743 0.04338,0.0684 0.08675,0.1367 0.130125,0.20506 0.03457,0.0545 0.06914,0.10895 0.103709,0.16343 0.02755,0.0434 0.0551,0.0868 0.08266,0.13026 0.02196,0.0346 0.04392,0.0692 0.06588,0.10382 0.01752,0.0276 0.03501,0.0552 0.05251,0.0828 0.01394,0.022 0.0279,0.044 0.04185,0.0659 0.01111,0.0175 0.02223,0.0351 0.03335,0.0526 0.0089,0.014 0.01773,0.0279 0.02659,0.0419 0.0071,0.0111 0.01413,0.0223 0.02119,0.0334 0.0048,0.008 0.0096,0.0151 0.01434,0.0226 2.606265,4.10717 -3.202154,7.79299 -5.808416,3.68581 v 0 c -0.0048,-0.008 -0.0096,-0.0151 -0.01434,-0.0226 -0.0071,-0.0111 -0.01413,-0.0222 -0.02119,-0.0334 -0.0089,-0.014 -0.01773,-0.0279 -0.02658,-0.0419 -0.01111,-0.0175 -0.02222,-0.035 -0.03336,-0.0526 -0.01394,-0.022 -0.0279,-0.044 -0.04185,-0.066 -0.01752,-0.0276 -0.03501,-0.0552 -0.05251,-0.0827 -0.02196,-0.0346 -0.04392,-0.0692 -0.06588,-0.10382 -0.02755,-0.0434 -0.05511,-0.0868 -0.08266,-0.13026 -0.03457,-0.0545 -0.06914,-0.10896 -0.103711,-0.16344 -0.04337,-0.0683 -0.08674,-0.1367 -0.130117,-0.20505 -0.05436,-0.0857 -0.108728,-0.17134 -0.163097,-0.25701 -0.06585,-0.10375 -0.131665,-0.20751 -0.197692,-0.31114 -0.09288,-0.14538 -0.186878,-0.29004 -0.27818,-0.43642 -0.106106,-0.17364 -0.208552,-0.3494 -0.310264,-0.52564 -0.114104,-0.19666 -0.224485,-0.3954 -0.33175,-0.59588 -0.118213,-0.22096 -0.235585,-0.44245 -0.343395,-0.66874 -0.09906,-0.20698 -0.19681,-0.4146 -0.293595,-0.62266 -0.09036,-0.19706 -0.1789,-0.39496 -0.271401,-0.59104 -0.09808,-0.20873 -0.195588,-0.41773 -0.295678,-0.62551 -0.09562,-0.19866 -0.191682,-0.39719 -0.295608,-0.59168 -0.101698,-0.18971 -0.205176,-0.3786 -0.317455,-0.56232 -0.08246,-0.13193 -0.165745,-0.26373 -0.260874,-0.38703 -0.0907,-0.1137 -0.186719,-0.22323 -0.289057,-0.32664 -0.09505,-0.0999 -0.210899,-0.17687 -0.32263,-0.25644 -0.16669,-0.11117 -0.340098,-0.21103 -0.520809,-0.29791 -0.239352,-0.11406 -0.481147,-0.2232 -0.730567,-0.31375 -0.185108,-0.0681 -0.370417,-0.13817 -0.566399,-0.16851 -0.374724,-0.066 -0.752896,-0.10949 -1.130628,-0.15429 -0.422534,-0.0461 -0.845963,-0.0844 -1.270834,-0.10087 -0.403555,-0.0137 -0.807939,-0.021 -1.210857,0.0125 -0.459709,0.0365 -0.918073,0.089 -1.372389,0.16921 -0.51843,0.0898 -1.035806,0.18655 -1.548624,0.30476 -0.533215,0.12488 -1.064551,0.25835 -1.589503,0.41481 -0.542981,0.16339 -1.082506,0.33792 -1.616366,0.52921 -0.549077,0.19449 -1.097484,0.39109 -1.641327,0.59985 -0.534026,0.2078 -1.063812,0.42634 -1.587716,0.65859 -0.512755,0.22919 -1.022742,0.46499 -1.520537,0.72545 -0.389391,0.20365 -0.779085,0.40904 -1.143527,0.65568 -0.335382,0.22853 -0.659635,0.47276 -0.96379,0.74194 -0.310051,0.27275 -0.618484,0.54841 -0.902619,0.84851 -0.191295,0.20947 -0.379453,0.42285 -0.541662,0.65611 -0.137248,0.20513 -0.231475,0.43192 -0.309968,0.6656 -0.137772,0.39809 -0.262877,0.80061 -0.36637,1.20909 -0.09753,0.39227 -0.186543,0.78704 -0.239587,1.18818 -0.06464,0.47902 -0.105309,0.96075 -0.123606,1.44383 -0.02311,0.58616 -0.0357,1.17271 -0.02456,1.75935 0.0102,0.57977 0.02758,1.15952 0.06969,1.73798 0.03634,0.47579 0.07661,0.95222 0.159386,1.4226 0.08045,0.42233 0.187757,0.83854 0.331594,1.24411 0.179534,0.51885 0.368416,1.03449 0.578023,1.54205 0.236682,0.5716 0.485373,1.13796 0.742434,1.7007 0.283734,0.62878 0.568567,1.25709 0.844197,1.88948 0.263582,0.60969 0.524243,1.22066 0.792537,1.82831 0.269914,0.61253 0.545525,1.22251 0.816827,1.83442 0.241517,0.54356 0.481185,1.08834 0.750024,1.61914 0.252323,0.49248 0.514356,0.98013 0.805379,1.45109 0.33166,0.54198 0.667783,1.08122 0.996091,1.62525 0.307384,0.50674 0.613792,1.01416 0.932088,1.51416 0.317981,0.49337 0.643246,0.98213 0.985784,1.45888 0.360023,0.49849 0.725297,0.99326 1.105577,1.47656 0.380066,0.47889 0.768284,0.95121 1.171445,1.41093 0.41125,0.47349 0.822913,0.94665 1.238404,1.41642 0.394343,0.44187 0.794562,0.87864 1.214699,1.2963 0.456475,0.45607 0.918887,0.90612 1.382183,1.35526 0.452231,0.44127 0.90016,0.88698 1.355993,1.32454 0.461555,0.43834 0.9326,0.86642 1.403405,1.29479 0.507897,0.46215 1.017974,0.92192 1.52228,1.388 0.504225,0.46593 1.006925,0.9335 1.511668,1.39887 0.496599,0.45659 0.994616,0.91171 1.499566,1.35908 0.545851,0.48064 1.096793,0.95546 1.64021,1.43886 0.521502,0.46627 1.042752,0.93282 1.564981,1.39828 0.463489,0.41718 0.926682,0.83471 1.38793,1.25437 0.428287,0.39433 0.850895,0.79483 1.260851,1.20828 0.357116,0.35992 0.708083,0.72573 1.059175,1.09151 0.322955,0.33491 0.643339,0.67225 0.963448,1.00987 0.296966,0.313 0.592196,0.62763 0.884066,0.9454 0.290322,0.31935 0.576082,0.64306 0.842393,0.98293 0.194395,0.246 0.388816,0.492 0.587793,0.73432 0.258549,0.31473 0.522105,0.6261 0.755473,0.96043 0.218631,0.31848 0.42745,0.64378 0.612304,0.98328 0.150127,0.28057 0.292386,0.56565 0.405186,0.86363 -0.947772,-2.07502 -4.313923,-2.47972 -5.822196,-0.35241 -0.0079,0.0123 -0.174321,0.27786 -0.08276,0.12657 0.02101,-0.036 0.04199,-0.072 0.06299,-0.10802 0.02635,-0.0452 0.05268,-0.0904 0.07903,-0.13554 0.03305,-0.0567 0.0661,-0.11337 0.09915,-0.17005 0.04147,-0.0711 0.08294,-0.14224 0.124405,-0.21336 0.05203,-0.0892 0.104058,-0.17846 0.156085,-0.26769 0.06529,-0.11198 0.130588,-0.22397 0.195882,-0.33595 0.08249,-0.14146 0.164973,-0.28294 0.24756,-0.42435 0.102484,-0.1753 0.205277,-0.35043 0.309803,-0.52452 0.119036,-0.20238 0.235956,-0.40597 0.354206,-0.6088 0.152307,-0.25987 0.303932,-0.52014 0.456311,-0.77997 0.190312,-0.3146 0.385067,-0.62655 0.589325,-0.93233 0.193971,-0.28821 0.393237,-0.57273 0.589851,-0.85913 0.229833,-0.33624 0.458402,-0.67341 0.696148,-1.00415 0.254926,-0.3533 0.513138,-0.70422 0.772568,-1.05423 0.305022,-0.41086 0.612444,-0.81996 0.924163,-1.22577 0.336595,-0.43728 0.673946,-0.87399 1.01709,-1.30616 0.384204,-0.48392 0.770096,-0.96653 1.165841,-1.44112 0.428451,-0.51123 0.863616,-1.01681 1.310061,-1.51246 0.454856,-0.50345 0.915961,-1.00115 1.376042,-1.49981 0.503169,-0.54556 1.004353,-1.09297 1.511081,-1.63523 0.499792,-0.52971 1.003178,-1.05601 1.508289,-1.58065 0.477665,-0.49702 0.95087,-0.99826 1.425458,-1.49822 0.447336,-0.46748 0.896041,-0.93377 1.332751,-1.41126 0.462939,-0.5055 0.924939,-1.01185 1.385097,-1.51988 0.472935,-0.52022 0.949671,-1.03695 1.436224,-1.5445 0.455589,-0.47918 0.910762,-0.95882 1.375656,-1.42903 0.448731,-0.45175 0.902465,-0.89842 1.360202,-1.34105 0.440124,-0.42534 0.88311,-0.84767 1.329042,-1.26692 0.406506,-0.3867 0.813287,-0.77321 1.208855,-1.17117 0.356978,-0.35949 0.711784,-0.72158 1.049141,-1.09971 0.306663,-0.349 0.604957,-0.7055 0.887757,-1.07422 0.258892,-0.34579 0.506378,-0.69996 0.738166,-1.06458 0.201938,-0.32349 0.394568,-0.65288 0.558162,-0.99778 0.177369,-0.37203 0.333666,-0.75312 0.469601,-1.14233 0.161079,-0.44621 0.318313,-0.89393 0.457518,-1.34755 0.131651,-0.43093 0.253389,-0.86483 0.349311,-1.30532 0.113561,-0.51951 0.216672,-1.04112 0.309216,-1.56481 0.08903,-0.49725 0.179387,-0.99467 0.241202,-1.49621 0.05589,-0.47454 0.09967,-0.95047 0.124595,-1.42771 0.02471,-0.50644 0.04018,-1.01338 0.03199,-1.5205 -0.0083,-0.5196 -0.02352,-1.03958 -0.0752,-1.55698 -0.05192,-0.51593 -0.117922,-1.03069 -0.220578,-1.5393 -0.105706,-0.50968 -0.229838,-1.01542 -0.393724,-1.50992 -0.175752,-0.52586 -0.360894,-1.049 -0.581557,-1.558 -0.21482,-0.489 -0.444648,-0.97141 -0.707011,-1.437 -0.273415,-0.48573 -0.559544,-0.96438 -0.870506,-1.4272 -0.327403,-0.48289 -0.666252,-0.95815 -1.031277,-1.41355 -0.358473,-0.44307 -0.729864,-0.87596 -1.136679,-1.27586 -0.415033,-0.40757 -0.839457,-0.80651 -1.297466,-1.16603 -0.430919,-0.33462 -0.870075,-0.66075 -1.341938,-0.93617 -0.472271,-0.26787 -0.961398,-0.5028 -1.470282,-0.69361 -0.632293,-0.24507 -1.268113,-0.48074 -1.905462,-0.71234 -0.662242,-0.24108 -1.323994,-0.48412 -1.994263,-0.70224 -0.578808,-0.18542 -1.160473,-0.36555 -1.755251,-0.49323 -0.47992,-0.0964 -0.964758,-0.16727 -1.454859,-0.1817 -0.455925,-0.0134 -0.912696,-0.011 -1.366263,0.0443 -0.471311,0.0548 -0.941063,0.12345 -1.405777,0.22022 -0.39302,0.083 -0.78441,0.17514 -1.167566,0.29672 -0.324461,0.10481 -0.645798,0.21961 -0.957644,0.35807 -0.294981,0.13189 -0.587086,0.27067 -0.867518,0.43168 -0.241472,0.13893 -0.48005,0.28335 -0.70203,0.45238 -0.206959,0.1564 -0.411085,0.31688 -0.600075,0.49496 -0.207769,0.19888 -0.409641,0.40379 -0.598392,0.62101 -0.232444,0.26329 -0.461042,0.52996 -0.686678,0.79911 -0.16328,0.19618 -0.322633,0.39569 -0.473091,0.60194 -0.09077,0.12748 -0.180007,0.25628 -0.257305,0.39252 -0.07336,0.1367 -0.142571,0.2754 -0.195641,0.42153 -0.06254,0.15842 -0.122526,0.3179 -0.173746,0.4804 -0.01752,0.0506 -0.03384,0.10108 -0.04096,0.1544 -0.809498,4.79648 -7.59274,3.65167 -6.78324,-1.1448 z"
       inkscape:connector-curvature="0" />
  </g>
</svg>
