<?xml version="1.0" encoding="UTF-8" standalone="no"?>
<!-- Created with Inkscape (http://www.inkscape.org/) -->

<svg
   xmlns:dc="http://purl.org/dc/elements/1.1/"
   xmlns:cc="http://creativecommons.org/ns#"
   xmlns:rdf="http://www.w3.org/1999/02/22-rdf-syntax-ns#"
   xmlns:svg="http://www.w3.org/2000/svg"
   xmlns="http://www.w3.org/2000/svg"
   xmlns:sodipodi="http://sodipodi.sourceforge.net/DTD/sodipodi-0.dtd"
   xmlns:inkscape="http://www.inkscape.org/namespaces/inkscape"
   width="10cm"
   height="10cm"
   viewBox="0 0 100 99.999997"
   version="1.1"
   id="svg8"
   sodipodi:docname="pimeja.svg"
   inkscape:version="0.92.3 (2405546, 2018-03-11)">
  <defs
     id="defs2" />
  <sodipodi:namedview
     id="base"
     pagecolor="#ffffff"
     bordercolor="#666666"
     borderopacity="1.0"
     inkscape:pageopacity="0.0"
     inkscape:pageshadow="2"
     inkscape:zoom="1"
     inkscape:cx="175.50186"
     inkscape:cy="186.50542"
     inkscape:document-units="cm"
     inkscape:current-layer="layer1"
     showgrid="true"
     units="cm"
     inkscape:window-width="881"
     inkscape:window-height="707"
     inkscape:window-x="971"
     inkscape:window-y="213"
     inkscape:window-maximized="0"
     inkscape:snap-nodes="false">
    <inkscape:grid
       type="xygrid"
       id="grid815"
       units="cm"
       spacingx="9.9999998"
       spacingy="9.9999998" />
  </sodipodi:namedview>
  <metadata
     id="metadata5">
    <rdf:RDF>
      <cc:Work
         rdf:about="">
        <dc:format>image/svg+xml</dc:format>
        <dc:type
           rdf:resource="http://purl.org/dc/dcmitype/StillImage" />
        <dc:title></dc:title>
      </cc:Work>
    </rdf:RDF>
  </metadata>
  <g
     inkscape:label="Layer 1"
     inkscape:groupmode="layer"
     id="layer1"
     transform="translate(0,-197.00002)">
    <path
       style="opacity:1;fill:#020900;fill-opacity:1;stroke:none;stroke-width:1;stroke-linecap:butt;stroke-linejoin:round;stroke-miterlimit:4;stroke-dasharray:none;stroke-opacity:1"
       id="path1397"
       d="m 19.037656,280.59456 c -0.0073,-0.004 -0.09518,-0.009 -0.128018,-0.0121 -0.01495,-0.002 0.03006,1.2e-4 0.0451,2.6e-4 0.07069,0.002 0.141364,2.7e-4 0.211947,-0.002 0.136838,-0.007 0.273657,-0.0149 0.410444,-0.023 0.143631,-0.008 0.286861,-0.0211 0.430008,-0.0351 0.192586,-0.0195 0.384936,-0.0413 0.577034,-0.0651 0.249366,-0.031 0.498615,-0.0628 0.747605,-0.0966 0.308356,-0.043 0.616103,-0.0903 0.924103,-0.13579 0.414445,-0.0632 0.829724,-0.12071 1.245275,-0.17613 0.520834,-0.0696 1.04349,-0.1241 1.566507,-0.17421 0.583833,-0.0551 1.168735,-0.0975 1.753819,-0.13666 0.647118,-0.0418 1.294757,-0.0748 1.942283,-0.10956 0.702294,-0.0386 1.404284,-0.0825 2.106477,-0.12282 0.757447,-0.0434 1.515261,-0.0799 2.27316,-0.11434 0.75991,-0.0343 1.520039,-0.0635 2.280221,-0.0911 0.757971,-0.0279 1.516145,-0.0494 2.274248,-0.0732 0.763992,-0.0268 1.52732,-0.0693 2.290733,-0.10881 0.827807,-0.0423 1.65577,-0.0813 2.483585,-0.1233 0.855954,-0.0455 1.711738,-0.094 2.567726,-0.13886 0.868249,-0.0452 1.736812,-0.084 2.605442,-0.12101 0.840465,-0.0358 1.681115,-0.0669 2.521823,-0.0964 0.835277,-0.0291 1.670701,-0.0536 2.50616,-0.0768 0.838092,-0.0231 1.676273,-0.0425 2.514473,-0.0611 0.826251,-0.0182 1.652556,-0.0338 2.478873,-0.0486 0.816782,-0.0135 1.633617,-0.0237 2.450452,-0.0335 0.80894,-0.01 1.617898,-0.0178 2.426861,-0.0256 0.807961,-0.008 1.615948,-0.0134 2.423946,-0.0166 0.801854,-0.004 1.603711,-0.002 2.40555,0.004 0.784624,0.004 1.569137,0.0168 2.353569,0.0341 0.73796,0.0188 1.475951,0.0365 2.213869,0.0568 0.709382,0.0197 1.418495,0.0476 2.127515,0.0774 0.653616,0.0285 1.307359,0.0539 1.961052,0.0805 0.591002,0.0244 1.182044,0.0479 1.773131,0.0701 0.546235,0.0204 1.092544,0.0387 1.638885,0.0561 0.524722,0.0165 1.049504,0.0309 1.574305,0.0447 0.50483,0.0132 1.009703,0.0247 1.514584,0.0357 0.474376,0.0103 0.948774,0.0196 1.42318,0.0285 0.418709,0.008 0.837425,0.0154 1.256144,0.0229 0.345069,0.006 0.690142,0.0122 1.035217,0.0183 0.276672,0.005 0.553344,0.01 0.830016,0.0145 0.220549,0.004 0.4411,0.008 0.661649,0.0116 0.175784,0.003 0.351568,0.006 0.527351,0.009 0.13243,0.002 0.264856,0.005 0.397272,0.008 -0.811122,-0.0425 -1.398503,0.33901 -2.071994,0.74427 -0.297371,0.37142 -0.686165,0.68534 -0.892114,1.11426 -0.468826,0.97639 -0.472893,2.06106 -0.0089,3.01098 -0.06831,-0.11982 -0.131484,-0.24375 -0.19491,-0.36664 -0.112768,-0.21226 -0.225592,-0.42446 -0.335905,-0.63802 -0.176427,-0.35072 -0.353118,-0.70129 -0.532751,-1.05037 -0.214821,-0.42713 -0.455788,-0.84 -0.700609,-1.25038 -0.347036,-0.57352 -0.696841,-1.14537 -1.045906,-1.71766 -0.39715,-0.65401 -0.79302,-1.30877 -1.195816,-1.95932 -0.442886,-0.71273 -0.881346,-1.42819 -1.324433,-2.14079 -0.471823,-0.75747 -0.945753,-1.51361 -1.428602,-2.2641 -0.509725,-0.78969 -1.038463,-1.56678 -1.574757,-2.33859 -0.583594,-0.83239 -1.178357,-1.65688 -1.771362,-2.48257 -0.62833,-0.86968 -1.255919,-1.73988 -1.881682,-2.61141 -0.660853,-0.91645 -1.307542,-1.84285 -1.945405,-2.77541 -0.642001,-0.94266 -1.275508,-1.89106 -1.907418,-2.84051 -0.639188,-0.95855 -1.264975,-1.92591 -1.889747,-2.89389 -0.62765,-0.96916 -1.248304,-1.9428 -1.866029,-2.91831 -0.63608,-1.00302 -1.263076,-2.01172 -1.886384,-3.02271 -0.636966,-1.031 -1.255043,-2.07342 -1.867718,-3.11898 -0.603128,-1.02872 -1.190431,-2.06656 -1.773253,-3.10687 -0.571682,-1.0183 -1.116695,-2.0511 -1.65553,-3.08704 -0.50696,-0.97367 -1.005268,-1.95176 -1.492371,-2.93551 -0.454552,-0.92003 -0.89389,-1.8474 -1.324108,-2.77901 -0.404627,-0.8808 -0.793334,-1.76878 -1.181171,-2.65706 -0.382429,-0.876 -0.748422,-1.75902 -1.11397,-2.64215 -0.363638,-0.88832 -0.725818,-1.77722 -1.088895,-2.66577 -0.356743,-0.87838 -0.717675,-1.75504 -1.080902,-2.63076 -0.337461,-0.81325 -0.676286,-1.62593 -1.015945,-2.43826 -0.285858,-0.68283 -0.576416,-1.36367 -0.865513,-2.04513 -0.242922,-0.57044 -0.483745,-1.14176 -0.719262,-1.7153 -0.189605,-0.46573 -0.37674,-0.93246 -0.56706,-1.3979 -0.152284,-0.37173 -0.305009,-0.74328 -0.457684,-1.11485 -0.122325,-0.29769 -0.24466,-0.59537 -0.366993,-0.89306 -0.09582,-0.23203 -0.190103,-0.4647 -0.28675,-0.69639 -0.07191,-0.17316 -0.145846,-0.34544 -0.220697,-0.51734 -0.157004,-0.30113 0.126918,0.19861 0.162637,0.25227 0.397396,0.56725 0.98747,0.88965 1.626684,1.11254 0.553353,0.16004 1.102879,0.12801 1.652321,-0.0129 0.332398,-0.10039 0.641246,-0.26062 0.912619,-0.4761 0.02995,-0.0299 0.06515,-0.0541 0.07825,-0.0643 -2.64e-4,0.0191 -0.0481,0.0857 -0.06825,0.11959 -0.09853,0.16633 -0.189423,0.33705 -0.280622,0.50746 -0.122987,0.22837 -0.238186,0.4608 -0.349848,0.69487 -0.134218,0.28517 -0.262388,0.5731 -0.384633,0.86358 -0.157991,0.3773 -0.306996,0.75825 -0.454173,1.13987 -0.171453,0.44539 -0.333873,0.89416 -0.496443,1.34285 -0.197329,0.55169 -0.417828,1.09451 -0.642091,1.63567 -0.228957,0.55849 -0.473422,1.11028 -0.725567,1.65862 -0.245668,0.52938 -0.496297,1.05644 -0.746075,1.58389 -0.279336,0.59374 -0.577733,1.17819 -0.880004,1.76049 -0.320762,0.62017 -0.655709,1.23277 -0.996722,1.84198 -0.346054,0.6152 -0.700453,1.22566 -1.056307,1.83523 -0.362815,0.62039 -0.727067,1.23994 -1.095139,1.85723 -0.380696,0.63036 -0.760913,1.26099 -1.137164,1.89402 -0.379301,0.6358 -0.756981,1.27254 -1.125667,1.91457 -0.373999,0.65611 -0.732075,1.3211 -1.091689,1.98515 -0.370628,0.6887 -0.743707,1.37608 -1.119119,2.06219 -0.383056,0.69816 -0.765095,1.39687 -1.144368,2.09709 -0.412191,0.76354 -0.82823,1.52499 -1.242808,2.28724 -0.445339,0.82769 -0.891083,1.65511 -1.345317,2.47796 -0.481322,0.86673 -0.96343,1.73302 -1.449607,2.59704 -0.499303,0.88436 -1.00543,1.76484 -1.508045,2.64732 -0.51085,0.90112 -1.019443,1.8035 -1.531861,2.70372 -0.530741,0.93118 -1.064707,1.86051 -1.599055,2.78963 -0.548137,0.95904 -1.100777,1.91549 -1.654243,2.87146 -0.58683,1.0132 -1.172167,2.02727 -1.753885,3.04341 -0.6118,1.06865 -1.22215,2.13812 -1.835981,3.20561 -0.613217,1.05642 -1.221165,2.11588 -1.829071,3.17537 -0.583889,1.00757 -1.158214,2.02058 -1.726303,3.03713 -0.522312,0.93305 -1.039055,1.86918 -1.554402,2.80609 -0.456623,0.82971 -0.914007,1.65899 -1.36909,2.48954 -0.385264,0.70313 -0.76725,1.40806 -1.153082,2.11088 -0.319267,0.5782 -0.63817,1.1566 -0.956323,1.73542 -0.254665,0.46344 -0.509226,0.92695 -0.763798,1.39045 -0.20308,0.36974 -0.406158,0.73949 -0.609236,1.10924 -0.161863,0.29471 -0.323725,0.58942 -0.485587,0.88413 -0.129008,0.23489 -0.258017,0.46978 -0.387025,0.70467 -0.102822,0.18721 -0.205645,0.37442 -0.308467,0.56163 -0.08195,0.14921 -0.163904,0.29843 -0.245856,0.44764 -0.06532,0.11893 -0.130635,0.23785 -0.195953,0.35677 -0.05206,0.0948 -0.104119,0.18958 -0.156178,0.28437 -0.0076,0.0138 -0.0153,0.0276 -0.02276,0.0414 -0.0059,0.0111 0.01255,-0.0218 0.01822,-0.033 0.02221,-0.044 0.04546,-0.0875 0.0654,-0.13254 0.03143,-0.071 0.06339,-0.14199 0.08863,-0.21543 0.135153,-0.39333 0.111397,-0.3895 0.184051,-0.84796 0.06168,-1.34948 -0.568693,-2.46946 -1.689566,-3.17293 -0.325841,-0.18412 -0.681719,-0.29779 -1.0497937,-0.35322 -0.2118812,-0.0271 -0.4265136,-0.0262 -0.6384965,-0.002 -0.042742,-0.008 -0.3691519,0.0894 -0.2222407,0.0374 0.1227309,-0.0458 0.2452,-0.0924 0.3666749,-0.14151 0.1684195,-0.0687 0.3355142,-0.14063 0.5026972,-0.21228 0.2414712,-0.1027 0.4844498,-0.20176 0.7285488,-0.29803 0.284375,-0.11 0.571054,-0.21387 0.858567,-0.31534 0.374999,-0.13222 0.757703,-0.24047 1.141355,-0.34421 0.404913,-0.10888 0.814572,-0.1984 1.22556,-0.28086 0.420033,-0.0826 0.842849,-0.14967 1.266187,-0.21266 0.399261,-0.0587 0.799706,-0.10874 1.200228,-0.15788 0.339325,-0.0415 0.678843,-0.0814 1.018501,-0.12005 0.292574,-0.0332 0.585304,-0.065 0.878131,-0.0959 0.245007,-0.0248 0.489981,-0.0496 0.734383,-0.0798 0.02955,-0.004 0.05909,-0.009 0.08864,-0.0131 4.81644,-0.68072 5.779117,6.13075 0.962677,6.81147 v 0 c -0.07143,0.01 -0.142856,0.0198 -0.214283,0.0297 -0.282814,0.0345 -0.566055,0.0649 -0.849574,0.0929 -0.274154,0.0289 -0.548214,0.0587 -0.822132,0.0898 -0.319762,0.0364 -0.639386,0.074 -0.958834,0.113 -0.34292,0.042 -0.685817,0.0846 -1.027698,0.1345 -0.310745,0.046 -0.621188,0.0945 -0.929654,0.15413 -0.262075,0.0519 -0.523337,0.1082 -0.78161,0.17684 -0.216298,0.0581 -0.43266,0.11678 -0.644468,0.18987 -0.210578,0.0741 -0.420505,0.15012 -0.629059,0.22981 -0.179572,0.0702 -0.357765,0.14383 -0.535432,0.2187 -0.216314,0.0927 -0.43263,0.18548 -0.650816,0.27373 -0.217392,0.0869 -0.435838,0.17127 -0.656269,0.25023 -0.340331,0.11854 -0.68616,0.2242 -1.044076,0.27477 -0.3906428,0.0529 -0.7857168,0.079 -1.1784786,0.0278 -0.5022212,-0.0698 -0.9950661,-0.19237 -1.4418053,-0.44341 -1.259631,-0.77672 -1.8995691,-1.86314 -1.8673977,-3.38094 0.084629,-0.56181 0.1948683,-1.11328 0.496402,-1.60485 0.05206,-0.0948 0.1041194,-0.18957 0.1561788,-0.28436 0.065318,-0.11892 0.1306351,-0.23785 0.1959528,-0.35677 0.081952,-0.14922 0.1639038,-0.29843 0.2458556,-0.44764 0.1028226,-0.18721 0.205645,-0.37442 0.3084674,-0.56164 0.1290082,-0.23488 0.2580163,-0.46977 0.3870245,-0.70466 0.1618626,-0.29471 0.3237251,-0.58942 0.4855877,-0.88413 0.203087,-0.36976 0.406174,-0.73953 0.6092629,-1.10929 0.2549319,-0.46416 0.5098521,-0.92832 0.7648776,-1.39242 0.3175823,-0.57777 0.6358879,-1.15515 0.9546083,-1.73229 0.384955,-0.70118 0.765967,-1.40451 1.150391,-2.10598 0.456878,-0.83382 0.916041,-1.66637 1.374473,-2.49934 0.5228,-0.95046 1.047051,-1.90012 1.5769,-2.84667 0.580754,-1.03912 1.167742,-2.07471 1.764565,-3.1047 0.608986,-1.06137 1.217994,-2.12272 1.832314,-3.18102 0.611651,-1.06366 1.219785,-2.12934 1.829419,-3.19416 0.587275,-1.02581 1.178141,-2.04956 1.770574,-3.0724 0.550152,-0.95024 1.099475,-1.90096 1.644317,-2.85426 0.529274,-0.92029 1.05819,-1.84079 1.583893,-2.76314 0.512715,-0.90072 1.021514,-1.80365 1.53272,-2.70522 0.496746,-0.87216 0.996914,-1.74236 1.490492,-2.61632 0.477099,-0.84782 0.950111,-1.69792 1.422487,-2.54838 0.447337,-0.81012 0.885727,-1.62507 1.324446,-2.43988 0.412689,-0.75877 0.826831,-1.51674 1.237142,-2.27679 0.383936,-0.7088 0.770606,-1.41611 1.158372,-2.12282 0.370652,-0.67737 0.738918,-1.35603 1.104842,-2.03597 0.387048,-0.7147 0.772808,-1.43022 1.175893,-2.13607 0.385855,-0.67138 0.780195,-1.33777 1.177141,-2.00265 0.37796,-0.63585 0.759624,-1.26945 1.14222,-1.90251 0.357217,-0.59894 0.710525,-1.20019 1.062641,-1.80215 0.335142,-0.57403 0.668985,-1.14884 0.995039,-1.7281 0.305962,-0.54611 0.606327,-1.09534 0.893908,-1.6514 0.263681,-0.50743 0.52423,-1.01662 0.767678,-1.53414 0.239022,-0.50473 0.478854,-1.00909 0.714174,-1.51556 0.215821,-0.4685 0.424712,-0.94008 0.620146,-1.41751 0.184555,-0.44485 0.367073,-0.89066 0.528995,-1.34438 0.178692,-0.49314 0.357548,-0.98627 0.54615,-1.47574 0.173027,-0.44823 0.34842,-0.8956 0.534451,-1.33863 0.164856,-0.38974 0.336309,-0.77666 0.517636,-1.15905 0.157117,-0.3274 0.318273,-0.65292 0.490635,-0.97261 0.151046,-0.28176 0.303104,-0.56316 0.468818,-0.83665 0.191207,-0.31179 0.390417,-0.61947 0.623197,-0.90234 0.231352,-0.27763 0.473983,-0.54651 0.747969,-0.78325 0.454314,-0.3803 0.951124,-0.70309 1.522667,-0.87974 0.727149,-0.1981 1.459505,-0.26704 2.198645,-0.0651 0.84102,0.281 1.590257,0.71226 2.117831,1.44592 0.237969,0.34185 0.453009,0.69725 0.608504,1.08508 0.08931,0.20517 0.177459,0.41083 0.263345,0.61746 0.100785,0.24209 0.199689,0.48496 0.299591,0.72742 0.12237,0.29777 0.244739,0.59555 0.367101,0.89333 0.154181,0.37522 0.308409,0.75043 0.462188,1.12583 0.189084,0.46246 0.375208,0.92612 0.563393,1.38896 0.225234,0.54882 0.455993,1.09533 0.688329,1.64118 0.293738,0.6924 0.588955,1.38418 0.879359,2.078 0.342191,0.81838 0.68354,1.63712 1.023514,2.45643 0.367837,0.88686 0.73338,1.77467 1.094674,2.66422 0.359142,0.87892 0.717462,1.75818 1.077036,2.63693 0.348695,0.84244 0.697537,1.68486 1.062252,2.52053 0.368679,0.84444 0.737973,1.68868 1.122373,2.52612 0.40395,0.8752 0.816721,1.74629 1.243563,2.61059 0.466632,0.94289 0.944578,1.88005 1.430314,2.81324 0.505907,0.9728 1.017222,1.94289 1.554046,2.8991 0.561073,1.00159 1.126373,2.00085 1.707017,2.99127 0.58656,1.00115 1.178203,1.99936 1.788099,2.98653 0.608831,0.98755 1.221256,1.97289 1.842596,2.95263 0.607076,0.95873 1.217033,1.91561 1.833906,2.86807 0.607264,0.94087 1.21539,1.88123 1.836682,2.81293 0.615871,0.92537 1.233263,1.84974 1.858875,2.76856 0.608164,0.88936 1.224902,1.77274 1.855155,2.64663 0.625602,0.87131 1.25307,1.74126 1.881206,2.61074 0.614011,0.85495 1.229794,1.70867 1.833687,2.57082 0.582557,0.83888 1.156984,1.68343 1.710611,2.54177 0.501692,0.78015 0.994706,1.56579 1.484942,2.35318 0.445434,0.71644 0.886336,1.43567 1.331542,2.15225 0.410673,0.6635 0.814785,1.33099 1.219618,1.99806 0.361355,0.59244 0.723596,1.18435 1.082471,1.7783 0.317466,0.53324 0.628172,1.0707 0.908214,1.6248 0.178256,0.34654 0.354354,0.69417 0.528781,1.04265 0.110175,0.21376 0.224324,0.42537 0.33605,0.63831 0.05423,0.1051 0.108902,0.20986 0.166907,0.31295 0.520449,1.03466 0.603758,2.16255 0.08337,3.26005 -0.208323,0.43934 -0.604248,0.76195 -0.906373,1.14294 -0.282834,0.17233 -0.552503,0.36841 -0.848505,0.517 -0.486328,0.24412 -1.0584,0.29438 -1.59321,0.29618 -0.121801,-0.003 -0.243612,-0.005 -0.365424,-0.007 -0.175784,-0.003 -0.351568,-0.006 -0.527352,-0.009 -0.220551,-0.004 -0.441102,-0.008 -0.661654,-0.0116 -0.276696,-0.005 -0.553392,-0.01 -0.830087,-0.0145 -0.345819,-0.006 -0.691635,-0.0121 -1.03745,-0.0183 -0.421085,-0.008 -0.842169,-0.0151 -1.263248,-0.023 -0.4811,-0.009 -0.962194,-0.0185 -1.443268,-0.029 -0.515014,-0.0112 -1.03002,-0.0229 -1.544984,-0.0364 -0.537371,-0.0141 -1.074724,-0.0289 -1.612019,-0.0458 -0.559882,-0.0178 -1.119735,-0.0366 -1.679511,-0.0575 -0.597985,-0.0225 -1.195922,-0.0462 -1.793822,-0.071 -0.656625,-0.0267 -1.313297,-0.0523 -1.969842,-0.0809 -0.676124,-0.0284 -1.352333,-0.0551 -2.028801,-0.0739 -0.725302,-0.02 -1.450681,-0.0373 -2.176023,-0.0559 -0.749573,-0.0166 -1.499225,-0.0288 -2.248985,-0.0326 -0.777261,-0.005 -1.554538,-0.007 -2.331812,-0.004 -0.794978,0.003 -1.589948,0.008 -2.384891,0.0163 -0.803217,0.008 -1.606431,0.0158 -2.409629,0.0254 -0.803413,0.01 -1.606825,0.0197 -2.410188,0.0329 -0.816623,0.0146 -1.63323,0.03 -2.449787,0.048 -0.825299,0.0183 -1.65058,0.0374 -2.47577,0.0601 -0.818796,0.0227 -1.637554,0.0467 -2.456172,0.0752 -0.823259,0.0288 -1.646465,0.0593 -2.469486,0.0944 -0.846473,0.0361 -1.692883,0.0738 -2.538987,0.11787 -0.859562,0.045 -1.71891,0.0939 -2.578444,0.1394 -0.825777,0.0419 -1.651703,0.0809 -2.477473,0.123 -0.809776,0.0418 -1.61947,0.0868 -2.429883,0.11458 -0.746916,0.0234 -1.493906,0.0447 -2.240696,0.0721 -0.739216,0.0268 -1.478383,0.0551 -2.217337,0.0885 -0.730441,0.0332 -1.460805,0.0683 -2.190811,0.1101 -0.710975,0.0408 -1.421734,0.0853 -2.132817,0.12428 -0.617509,0.0331 -1.235128,0.0646 -1.852263,0.10414 -0.5196,0.0346 -1.039051,0.0721 -1.557555,0.12073 -0.438044,0.0418 -0.875816,0.0869 -1.312033,0.14509 -0.383582,0.0511 -0.766909,0.10417 -1.149446,0.16268 -0.334178,0.0493 -0.668071,0.10065 -1.002692,0.14693 -0.277449,0.0377 -0.555169,0.0732 -0.833034,0.1077 -0.250936,0.0308 -0.502118,0.0596 -0.753705,0.0846 -0.229728,0.0222 -0.459663,0.0422 -0.690111,0.0553 -0.178079,0.0104 -0.356176,0.0208 -0.534367,0.0291 -0.192311,0.007 -0.384702,0.0104 -0.577145,0.007 -0.236996,-0.003 -0.474228,-0.0118 -0.709362,-0.0438 -4.824589,-0.62033 -3.94731,-7.44333 0.877279,-6.823 z"
       inkscape:connector-curvature="0" />
    <path
       style="opacity:1;fill:#020900;fill-opacity:1;stroke:none;stroke-width:1;stroke-linecap:butt;stroke-linejoin:round;stroke-miterlimit:4;stroke-dasharray:none;stroke-opacity:1"
       id="path1399"
       d="m 38.974649,245.94267 c -0.01863,-0.0837 -0.06687,-0.21505 -0.08614,-0.26782 0.04714,0.0911 0.100614,0.17877 0.155351,0.26547 0.116977,0.17706 0.240786,0.34947 0.366358,0.5205 0.169537,0.23294 0.357481,0.45142 0.546994,0.66811 0.280799,0.31881 0.57418,0.62615 0.868413,0.9325 0.397324,0.40702 0.796377,0.81235 1.194977,1.21813 0.495911,0.50334 0.988737,1.00968 1.479161,1.51836 0.576001,0.59958 1.161026,1.19035 1.745165,1.78197 0.719127,0.72963 1.439656,1.45789 2.156304,2.18996 0.807432,0.8291 1.598226,1.67418 2.391915,2.51638 0.787329,0.83377 1.570583,1.67135 2.351022,2.51157 0.738756,0.7955 1.474811,1.59349 2.208583,2.39358 0.647178,0.7069 1.291119,1.41677 1.942099,2.12018 0.580684,0.6214 1.165442,1.23898 1.749166,1.85752 0.545306,0.5806 1.094703,1.15732 1.643631,1.73449 0.508675,0.53887 1.021454,1.07381 1.535796,1.60726 0.46329,0.47923 0.926724,0.95832 1.391375,1.43623 0.381555,0.39255 0.765005,0.78326 1.148238,1.17417 0.312121,0.3177 0.623517,0.63611 0.934313,0.95511 0.2468,0.25343 0.493495,0.50695 0.740203,0.76047 0.196395,0.20497 0.393605,0.40914 0.591857,0.61232 0.155038,0.1577 0.310949,0.31455 0.466762,0.47149 0.401828,0.38171 0.03482,0.0523 -0.239352,-0.16061 4.089373,2.6341 0.364188,8.41735 -3.725185,5.78324 v 0 c -0.324544,-0.24014 -0.646391,-0.47512 -0.917313,-0.77593 -0.169802,-0.17104 -0.33972,-0.34195 -0.508545,-0.51395 -0.200393,-0.20538 -0.399942,-0.41156 -0.598289,-0.61892 -0.245769,-0.25255 -0.491525,-0.50511 -0.737384,-0.75757 -0.305826,-0.3139 -0.612248,-0.62721 -0.919382,-0.93984 -0.389903,-0.39771 -0.780015,-0.79522 -1.168207,-1.19461 -0.471297,-0.48476 -0.941376,-0.9707 -1.411287,-1.4568 -0.525227,-0.54475 -1.048877,-1.09101 -1.568349,-1.64126 -0.555054,-0.58362 -1.110578,-1.16679 -1.661989,-1.75386 -0.599156,-0.63491 -1.199443,-1.26876 -1.79524,-1.90683 -0.657807,-0.711 -1.308941,-1.42811 -1.962846,-2.1427 -0.723926,-0.78938 -1.450133,-1.57667 -2.178981,-2.36151 -0.769157,-0.82809 -1.541103,-1.65356 -2.31707,-2.47528 -0.763855,-0.81054 -1.524794,-1.62397 -2.301512,-2.42226 -0.709669,-0.72504 -1.423345,-1.44614 -2.135471,-2.16877 -0.603396,-0.61112 -1.207574,-1.22149 -1.802585,-1.84082 -0.475448,-0.49322 -0.953304,-0.98408 -1.434121,-1.47208 -0.416819,-0.42433 -0.834276,-0.84804 -1.249336,-1.27409 -0.37034,-0.38574 -0.738547,-0.77372 -1.091144,-1.17588 -0.317567,-0.36486 -0.629248,-0.73524 -0.91376,-1.12681 -0.228473,-0.31284 -0.453618,-0.62846 -0.660358,-0.95624 -0.171773,-0.27857 -0.337907,-0.56095 -0.482237,-0.85494 -0.154999,-0.32056 -0.297246,-0.6482 -0.387575,-0.99371 -1.255768,-4.69941 5.390208,-6.47534 6.645979,-1.77592 z"
       inkscape:connector-curvature="0" />
    <path
       style="opacity:1;fill:#020900;fill-opacity:1;stroke:none;stroke-width:1;stroke-linecap:butt;stroke-linejoin:round;stroke-miterlimit:4;stroke-dasharray:none;stroke-opacity:1"
       id="path1401"
       d="m 66.827751,244.41985 c -0.05957,0.48182 -0.220922,0.93814 -0.414118,1.38051 -0.163975,0.35612 -0.366733,0.69204 -0.575805,1.02299 -0.215513,0.33713 -0.452464,0.65975 -0.687281,0.9835 -0.270555,0.37052 -0.541319,0.74089 -0.811067,1.112 -0.350372,0.47595 -0.699813,0.95259 -1.048293,1.42993 -0.423836,0.57828 -0.85209,1.15332 -1.288343,1.72229 -0.481878,0.62732 -0.990359,1.23343 -1.502511,1.83605 -0.53585,0.63045 -1.096684,1.23885 -1.661244,1.84349 -0.589759,0.62772 -1.183947,1.25127 -1.779482,1.87352 -0.669343,0.69483 -1.342647,1.38584 -2.01382,2.0789 -0.760558,0.79129 -1.523522,1.58018 -2.297507,2.35835 -0.83893,0.8414 -1.700385,1.65976 -2.565016,2.47456 -0.852033,0.79742 -1.700843,1.59826 -2.548237,2.4006 -0.827918,0.78032 -1.645534,1.57138 -2.458797,2.36693 -0.780719,0.76621 -1.560367,1.53352 -2.342649,2.29814 -0.709433,0.68924 -1.416106,1.38128 -2.117866,2.07833 -0.652502,0.65095 -1.298186,1.30866 -1.948243,1.96204 -0.562488,0.55981 -1.118587,1.12587 -1.669825,1.69674 -0.477203,0.49545 -0.955292,0.99005 -1.43328,1.48475 -0.380368,0.39325 -0.760902,0.78635 -1.138161,1.1826 -0.308869,0.32552 -0.613116,0.6554 -0.917934,0.98471 -0.257977,0.27887 -0.516592,0.55716 -0.774296,0.83629 -0.206864,0.22509 -0.412895,0.45095 -0.619019,0.67672 -0.161335,0.17553 -0.319889,0.35359 -0.478565,0.53153 -0.140536,0.1587 -0.282736,0.3159 -0.42509,0.47297 -0.09449,0.10545 -0.191632,0.20854 -0.28429,0.31561 -0.08155,0.0946 -0.04738,0.0557 0.09711,-0.12125 -2.872925,3.92528 -8.4241,-0.13765 -5.551176,-4.06293 v 0 c 0.229979,-0.29375 0.136557,-0.1834 0.270848,-0.33878 0.121702,-0.13903 0.24595,-0.27576 0.370349,-0.41238 0.129969,-0.1434 0.259848,-0.28688 0.388094,-0.43182 0.176517,-0.19794 0.353021,-0.39589 0.532427,-0.59123 0.21477,-0.23523 0.429437,-0.47056 0.645035,-0.70504 0.259673,-0.28123 0.520205,-0.56167 0.780159,-0.84264 0.326887,-0.35315 0.653256,-0.70681 0.984638,-1.05576 0.388822,-0.40823 0.780717,-0.81351 1.17275,-1.21866 0.477523,-0.49421 0.955146,-0.98833 1.431885,-1.4833 0.575075,-0.59548 1.155076,-1.18609 1.741779,-1.77015 0.659691,-0.66299 1.314783,-1.33055 1.977133,-1.9909 0.714854,-0.70993 1.434463,-1.41502 2.157119,-2.11701 0.781661,-0.76399 1.560624,-1.53072 2.34075,-2.29628 0.83997,-0.82158 1.684409,-1.63857 2.539421,-2.44452 0.851379,-0.80611 1.704152,-1.61074 2.560198,-2.41189 0.810855,-0.76403 1.619089,-1.53102 2.40601,-2.31982 0.752403,-0.75603 1.493136,-1.52341 2.232527,-2.29215 0.66184,-0.68343 1.325727,-1.36487 1.985897,-2.0499 0.576122,-0.60188 1.150861,-1.20512 1.721506,-1.8122 0.49163,-0.52631 0.980847,-1.05516 1.447657,-1.6038 0.43805,-0.51512 0.873842,-1.03252 1.286349,-1.56851 0.403323,-0.525 0.797787,-1.05674 1.189601,-1.59038 0.345694,-0.47352 0.692226,-0.94642 1.039942,-1.41846 0.268388,-0.36923 0.537718,-0.73776 0.806963,-1.10636 0.151858,-0.20935 0.306308,-0.4171 0.449077,-0.63284 0.02635,-0.0409 0.123254,-0.21903 0.122825,-0.18738 -0.07249,0.1851 -0.124997,0.37671 -0.146518,0.57491 0.634545,-4.82274 7.454929,-3.92536 6.820384,0.89738 z"
       inkscape:connector-curvature="0" />
  </g>
</svg>
