<svg viewBox="0 0 100 100"><path style="opacity:1;fill:#020900;fill-opacity:1;stroke:none;stroke-width:1;stroke-linecap:butt;stroke-linejoin:round;stroke-miterlimit:4;stroke-dasharray:none;stroke-opacity:1" d="M19.038 280.595c-.008-.004-.096-.01-.128-.013-.015-.002.03 0 .045 0q.105.003.212-.001l.41-.023q.216-.013.43-.035.29-.03.577-.065.375-.046.748-.097.462-.066.924-.136.622-.093 1.245-.176a41 41 0 0 1 1.567-.174 65 65 0 0 1 1.753-.137c.648-.042 1.295-.075 1.943-.11.702-.038 1.404-.082 2.106-.122q1.137-.064 2.273-.115 1.14-.05 2.28-.09c.759-.029 1.517-.05 2.275-.074.764-.027 1.527-.07 2.29-.109l2.484-.123 2.568-.139q1.303-.067 2.605-.12a337 337 0 0 1 7.543-.235q1.239-.027 2.479-.049 1.224-.019 2.45-.033a892 892 0 0 1 4.85-.042 193 193 0 0 1 4.76.038q1.107.026 2.214.056 1.064.031 2.127.078l1.961.08q.887.037 1.774.07a299 299 0 0 0 6.15.165l1.257.023 1.035.019.83.014 1.189.02.397.009c-.81-.043-1.398.339-2.072.744-.297.371-.686.685-.892 1.114-.469.977-.473 2.061-.009 3.011q-.1-.182-.195-.366l-.336-.638q-.264-.527-.532-1.05c-.215-.428-.456-.84-.701-1.251q-.522-.86-1.046-1.718-.594-.982-1.196-1.96c-.443-.712-.881-1.427-1.324-2.14q-.706-1.137-1.429-2.264a83 83 0 0 0-1.574-2.339c-.584-.832-1.179-1.657-1.772-2.482q-.942-1.304-1.882-2.612-.989-1.375-1.945-2.775a321 321 0 0 1-1.907-2.84c-.64-.96-1.265-1.926-1.89-2.894a340 340 0 0 1-3.752-5.941 156 156 0 0 1-1.868-3.12 183 183 0 0 1-1.773-3.106 110 110 0 0 1-1.656-3.087 162 162 0 0 1-1.492-2.936q-.68-1.38-1.324-2.779a153 153 0 0 1-2.296-5.3l-1.089-2.665q-.535-1.317-1.08-2.63l-1.016-2.439q-.43-1.024-.866-2.045-.365-.855-.72-1.715-.282-.7-.566-1.398l-.458-1.115-.367-.893-.287-.696a33 33 0 0 0-.22-.518c-.157-.3.127.199.162.252.398.568.988.89 1.627 1.113.553.16 1.103.128 1.652-.013.333-.1.642-.26.913-.476.03-.03.065-.054.078-.064 0 .019-.048.085-.068.12q-.147.25-.28.507-.185.342-.35.695-.202.428-.385.863-.235.566-.454 1.14c-.172.445-.334.894-.497 1.343a36 36 0 0 1-.642 1.636q-.345.837-.725 1.658-.37.794-.747 1.584a64 64 0 0 1-1.877 3.602c-.345.616-.7 1.226-1.056 1.836q-.543.93-1.095 1.857-.57.945-1.137 1.894-.571.953-1.126 1.915c-.374.656-.732 1.32-1.091 1.985q-.556 1.032-1.12 2.062a442 442 0 0 0-1.144 2.097q-.62 1.145-1.242 2.287-.667 1.243-1.346 2.478-.72 1.3-1.45 2.597c-.499.885-1.005 1.765-1.507 2.648l-1.532 2.703q-.797 1.396-1.6 2.79-.822 1.438-1.654 2.871a697 697 0 0 0-1.754 3.044q-.916 1.603-1.835 3.205a730 730 0 0 0-1.83 3.176 224 224 0 0 0-1.726 3.037q-.782 1.4-1.554 2.806-.686 1.244-1.37 2.49l-1.152 2.11q-.48.868-.957 1.736l-.764 1.39-.609 1.11-.485.884-.387.704-.309.562-.246.448-.196.356-.156.285-.023.041.019-.033q.034-.065.065-.132.048-.106.089-.216c.135-.393.111-.39.184-.848.061-1.35-.569-2.47-1.69-3.173a3 3 0 0 0-1.05-.353 2.7 2.7 0 0 0-.638-.002c-.043-.008-.37.09-.222.037q.184-.068.366-.141.253-.104.503-.212.361-.154.729-.298.426-.164.858-.316c.375-.132.758-.24 1.141-.344.405-.109.815-.198 1.226-.28.42-.083.843-.15 1.266-.213.4-.06.8-.11 1.2-.158a122 122 0 0 1 1.897-.216q.368-.036.734-.08l.09-.013c4.816-.68 5.778 6.13.962 6.811l-.215.03a37 37 0 0 1-.85.093 103 103 0 0 0-1.78.203q-.515.061-1.028.134-.466.067-.93.154-.393.077-.781.177a10 10 0 0 0-.645.19q-.315.11-.629.23-.269.106-.535.219-.324.14-.65.273-.327.132-.657.25a5.4 5.4 0 0 1-1.044.275c-.39.053-.786.08-1.179.028-.502-.07-.995-.192-1.441-.443-1.26-.777-1.9-1.863-1.868-3.381.085-.562.195-1.114.497-1.605l.156-.284.196-.357.246-.448.308-.561.387-.705.486-.884.609-1.11.765-1.392q.476-.867.954-1.732l1.15-2.106 1.375-2.5q.783-1.426 1.577-2.846.87-1.56 1.765-3.105a730 730 0 0 1 1.832-3.181l1.83-3.194q.881-1.539 1.77-3.073.827-1.424 1.644-2.854.796-1.38 1.584-2.763.768-1.352 1.533-2.705c.497-.872.997-1.743 1.49-2.616q.715-1.272 1.423-2.549.669-1.216 1.324-2.44.62-1.137 1.238-2.277.575-1.062 1.158-2.122.555-1.017 1.105-2.036c.387-.715.773-1.43 1.176-2.136.385-.672.78-1.338 1.177-2.003q.568-.954 1.142-1.903.535-.899 1.063-1.802.504-.86.995-1.728a56 56 0 0 0 1.661-3.185q.361-.757.714-1.516.326-.702.62-1.417c.185-.445.368-.891.53-1.345.178-.493.357-.986.546-1.476.173-.448.348-.895.534-1.338q.246-.585.518-1.16a23 23 0 0 1 .96-1.808c.19-.312.39-.62.622-.903a6.6 6.6 0 0 1 .748-.783c.455-.38.952-.703 1.523-.88.727-.198 1.46-.267 2.199-.065.84.281 1.59.712 2.118 1.446.238.342.453.697.608 1.085q.135.307.263.618l.3.727.367.893.462 1.126c.19.463.375.926.564 1.39q.339.821.688 1.64.442 1.038.88 2.078.513 1.228 1.023 2.457.552 1.33 1.095 2.664l1.077 2.637a143 143 0 0 0 2.184 5.046q.605 1.315 1.244 2.611.7 1.414 1.43 2.813c.506.973 1.017 1.943 1.554 2.9.561 1.001 1.127 2 1.707 2.99.587 1.002 1.178 2 1.788 2.987q.913 1.483 1.843 2.953.91 1.439 1.834 2.868c.607.94 1.215 1.881 1.836 2.813q.922 1.39 1.86 2.768.91 1.335 1.854 2.647.94 1.306 1.882 2.61c.614.856 1.23 1.71 1.833 2.572a90 90 0 0 1 1.711 2.541q.751 1.171 1.485 2.354l1.331 2.152q.614.995 1.22 1.998.543.887 1.083 1.778c.317.533.628 1.07.908 1.625q.267.52.529 1.043l.336.638q.08.158.166.313c.52 1.035.604 2.162.084 3.26-.208.44-.604.762-.907 1.143-.282.172-.552.368-.848.517-.486.244-1.058.294-1.593.296l-.366-.007-.527-.009-.662-.012-1.867-.032-1.263-.023a463 463 0 0 1-2.989-.066 310 310 0 0 1-5.085-.174q-.985-.039-1.97-.081-1.014-.044-2.029-.074-1.087-.029-2.176-.056-1.124-.026-2.249-.032-1.165-.008-2.332-.004-1.192.004-2.384.016l-2.41.025q-1.205.014-2.41.033a589 589 0 0 0-4.926.108 347 347 0 0 0-4.925.17q-1.27.053-2.54.118l-2.578.14q-1.24.06-2.477.122c-.81.042-1.62.087-2.43.115-.747.023-1.494.044-2.24.072q-1.11.04-2.218.088-1.095.05-2.191.11c-.711.041-1.422.086-2.133.125-.617.033-1.235.064-1.852.104-.52.035-1.04.072-1.558.12q-.657.061-1.312.146-.575.075-1.15.162-.5.076-1.002.147-.416.057-.833.108-.375.046-.754.085-.345.034-.69.055l-.534.029q-.289.011-.577.007a6 6 0 0 1-.71-.044c-4.824-.62-3.947-7.443.878-6.823z" transform="translate(0 -197)"/><path style="opacity:1;fill:#020900;fill-opacity:1;stroke:none;stroke-width:1;stroke-linecap:butt;stroke-linejoin:round;stroke-miterlimit:4;stroke-dasharray:none;stroke-opacity:1" d="M38.975 245.943c-.019-.084-.067-.215-.086-.268q.072.136.155.265.176.265.366.52c.17.234.358.452.547.669.281.319.574.626.869.932q.596.61 1.195 1.219.743.755 1.479 1.518c.576.6 1.16 1.19 1.745 1.782q1.081 1.093 2.156 2.19c.808.829 1.598 1.674 2.392 2.516q1.18 1.252 2.351 2.512a522 522 0 0 1 2.209 2.393c.647.707 1.29 1.417 1.942 2.12q.871.932 1.749 1.858.819.869 1.644 1.735.763.806 1.535 1.607.695.72 1.392 1.436.572.589 1.148 1.174.469.477.934.955l.74.76q.295.309.592.613l.467.472c.402.381.035.052-.24-.161 4.09 2.634.365 8.417-3.724 5.783-.325-.24-.647-.475-.918-.776q-.256-.255-.508-.514-.3-.307-.598-.619l-.738-.757-.92-.94q-.586-.596-1.167-1.195-.708-.726-1.412-1.456a216 216 0 0 1-1.568-1.642q-.833-.874-1.662-1.753-.901-.952-1.795-1.907c-.658-.711-1.31-1.428-1.963-2.143q-1.086-1.185-2.18-2.362a411 411 0 0 0-2.316-2.475c-.764-.81-1.525-1.624-2.302-2.422q-1.066-1.086-2.135-2.169c-.604-.611-1.208-1.221-1.803-1.84q-.713-.741-1.434-1.473-.626-.636-1.25-1.274c-.37-.386-.738-.774-1.09-1.176a16.5 16.5 0 0 1-1.575-2.083c-.171-.278-.337-.56-.482-.855a5.5 5.5 0 0 1-.387-.993c-1.256-4.7 5.39-6.476 6.646-1.776" transform="translate(0 -197)"/><path style="opacity:1;fill:#020900;fill-opacity:1;stroke:none;stroke-width:1;stroke-linecap:butt;stroke-linejoin:round;stroke-miterlimit:4;stroke-dasharray:none;stroke-opacity:1" d="M66.828 244.42c-.06.482-.221.938-.414 1.38a9 9 0 0 1-.576 1.023c-.216.337-.453.66-.687.984q-.407.555-.812 1.112-.526.714-1.048 1.43a99 99 0 0 1-1.288 1.722c-.482.627-.99 1.233-1.503 1.836a53 53 0 0 1-1.66 1.844q-.886.94-1.78 1.873-1.006 1.041-2.014 2.079c-.76.791-1.524 1.58-2.298 2.358-.839.842-1.7 1.66-2.565 2.475q-1.277 1.196-2.548 2.4a183 183 0 0 0-2.459 2.367q-1.17 1.151-2.342 2.299-1.066 1.032-2.118 2.078c-.653.65-1.298 1.309-1.949 1.962q-.843.84-1.67 1.697l-1.433 1.484q-.57.59-1.138 1.183-.462.49-.918.985l-.774.836-.619.677q-.241.263-.479.531-.21.238-.425.473-.143.157-.284.316-.121.143.097-.121c-2.873 3.925-8.424-.138-5.551-4.063.23-.294.137-.184.27-.34q.184-.207.371-.411.196-.215.388-.432.264-.298.533-.591.322-.354.645-.706l.78-.842q.489-.531.984-1.056.585-.611 1.173-1.219l1.432-1.483q.862-.893 1.742-1.77c.66-.663 1.315-1.33 1.977-1.99q1.073-1.065 2.157-2.118 1.172-1.146 2.34-2.296 1.259-1.235 2.54-2.445 1.277-1.209 2.56-2.412c.811-.764 1.62-1.53 2.407-2.32.752-.755 1.493-1.523 2.232-2.292q.995-1.023 1.986-2.05.864-.902 1.721-1.812a47 47 0 0 0 1.448-1.604 42 42 0 0 0 1.286-1.568c.404-.525.798-1.057 1.19-1.59q.518-.711 1.04-1.419l.807-1.106c.152-.21.306-.417.45-.633.025-.041.122-.22.122-.187a2.2 2.2 0 0 0-.147.574c.635-4.822 7.455-3.925 6.82.898" transform="translate(0 -197)"/></svg>