<?xml version="1.0" encoding="UTF-8" standalone="no"?>
<!-- Created with Inkscape (http://www.inkscape.org/) -->

<svg
   xmlns:dc="http://purl.org/dc/elements/1.1/"
   xmlns:cc="http://creativecommons.org/ns#"
   xmlns:rdf="http://www.w3.org/1999/02/22-rdf-syntax-ns#"
   xmlns:svg="http://www.w3.org/2000/svg"
   xmlns="http://www.w3.org/2000/svg"
   xmlns:sodipodi="http://sodipodi.sourceforge.net/DTD/sodipodi-0.dtd"
   xmlns:inkscape="http://www.inkscape.org/namespaces/inkscape"
   width="10cm"
   height="10cm"
   viewBox="0 0 100 99.999997"
   version="1.1"
   id="svg8"
   sodipodi:docname="pini.svg"
   inkscape:version="0.92.3 (2405546, 2018-03-11)">
  <defs
     id="defs2" />
  <sodipodi:namedview
     id="base"
     pagecolor="#ffffff"
     bordercolor="#666666"
     borderopacity="1.0"
     inkscape:pageopacity="0.0"
     inkscape:pageshadow="2"
     inkscape:zoom="1"
     inkscape:cx="175.50186"
     inkscape:cy="186.50542"
     inkscape:document-units="cm"
     inkscape:current-layer="layer1"
     showgrid="true"
     units="cm"
     inkscape:window-width="881"
     inkscape:window-height="707"
     inkscape:window-x="971"
     inkscape:window-y="213"
     inkscape:window-maximized="0"
     inkscape:snap-nodes="false">
    <inkscape:grid
       type="xygrid"
       id="grid815"
       units="cm"
       spacingx="9.9999998"
       spacingy="9.9999998" />
  </sodipodi:namedview>
  <metadata
     id="metadata5">
    <rdf:RDF>
      <cc:Work
         rdf:about="">
        <dc:format>image/svg+xml</dc:format>
        <dc:type
           rdf:resource="http://purl.org/dc/dcmitype/StillImage" />
        <dc:title></dc:title>
      </cc:Work>
    </rdf:RDF>
  </metadata>
  <g
     inkscape:label="Layer 1"
     inkscape:groupmode="layer"
     id="layer1"
     transform="translate(0,-197.00002)">
    <path
       style="opacity:1;fill:#020900;fill-opacity:1;stroke:none;stroke-width:1;stroke-linecap:butt;stroke-linejoin:round;stroke-miterlimit:4;stroke-dasharray:none;stroke-opacity:1"
       id="path1403"
       d="m 47.55888,277.073 c 0.08093,-0.1813 0.01651,-0.04 -0.01402,0.0444 0.02098,-0.0786 0.0401,-0.15765 0.05767,-0.23708 0.03093,-0.15222 0.0527,-0.30612 0.07385,-0.45994 0.03525,-0.26216 0.05902,-0.52566 0.08111,-0.7892 0.03093,-0.38279 0.05328,-0.76619 0.07412,-1.14963 0.02524,-0.49096 0.04545,-0.98216 0.06798,-1.47324 0.02788,-0.59933 0.058,-1.19856 0.0931,-1.79751 0.03985,-0.62882 0.08069,-1.25758 0.117306,-1.8866 0.03788,-0.65425 0.06856,-1.30887 0.09669,-1.96359 0.03254,-0.73083 0.04898,-1.46221 0.06147,-2.19361 0.01402,-0.8262 0.01254,-1.65245 2.64e-4,-2.47864 -0.01466,-0.85154 -0.04537,-1.70267 -0.07579,-2.55375 -0.03141,-0.865 -0.06047,-1.73008 -0.08554,-2.59529 -0.025,-0.87495 -0.0447,-1.75004 -0.06029,-2.62521 -0.01513,-0.90414 -0.0263,-1.80833 -0.037,-2.71252 -0.0075,-0.90098 -0.02262,-1.80184 -0.04109,-2.70265 -0.01902,-0.87608 -0.04343,-1.75203 -0.06665,-2.62801 -0.0232,-0.87026 -0.04345,-1.74059 -0.06257,-2.61094 -0.0177,-0.82247 -0.04006,-1.64483 -0.06391,-2.46714 -0.02175,-0.77087 -0.05406,-1.54138 -0.08456,-2.31194 -0.03113,-0.77775 -0.05783,-1.55566 -0.0829,-2.33362 -0.02477,-0.79247 -0.04622,-1.58503 -0.07059,-2.3775 -0.02556,-0.79807 -0.06274,-1.59568 -0.104201,-2.39306 -0.03989,-0.75653 -0.08234,-1.51293 -0.1246,-2.26933 -0.04078,-0.72067 -0.07663,-1.4416 -0.110485,-2.16263 -0.03299,-0.70598 -0.06182,-1.41215 -0.08852,-2.11839 -0.02543,-0.68981 -0.0477,-1.37972 -0.07014,-2.06963 -0.019,-0.58317 -0.03741,-1.16636 -0.05555,-1.74957 -0.01519,-0.488 -0.02979,-0.97602 -0.0443,-1.46405 -0.01177,-0.39703 -0.02352,-0.79407 -0.03521,-1.1911 -0.01005,-0.33923 -0.01929,-0.67849 -0.02832,-1.01774 -0.0076,-0.28536 -0.01497,-0.57072 -0.02241,-0.85607 -0.006,-0.22825 -0.01188,-0.45649 -0.01781,-0.68473 -0.0055,-0.16701 -0.0069,-0.33417 -0.01368,-0.50113 -5.29e-4,0.21986 0.05443,0.43161 0.09971,0.64495 -1.290881,-4.68989 5.341628,-6.51548 6.632511,-1.82559 v 0 c 0.06832,0.30702 0.140097,0.61289 0.142367,0.92956 0.0067,0.19106 0.01079,0.38219 0.01595,0.57329 0.0059,0.2282 0.01188,0.4564 0.01781,0.68459 0.0074,0.28403 0.01476,0.56805 0.0223,0.85206 0.0089,0.33277 0.01791,0.66552 0.02777,0.99826 0.01167,0.39642 0.02342,0.79285 0.03516,1.18928 0.01442,0.48486 0.02892,0.96971 0.04401,1.45455 0.01805,0.57995 0.03634,1.15989 0.05524,1.73981 0.02204,0.67784 0.04391,1.3557 0.06886,2.03344 0.0259,0.68531 0.05387,1.37054 0.08586,2.0556 0.03289,0.70064 0.06771,1.40119 0.107342,2.10148 0.04276,0.76533 0.0857,1.53065 0.126044,2.29611 0.04392,0.8459 0.08324,1.69205 0.110221,2.53868 0.02426,0.78909 0.04567,1.57827 0.07027,2.36735 0.02453,0.76111 0.05062,1.52216 0.08108,2.28306 0.03146,0.79478 0.06467,1.58953 0.08705,2.38463 0.02432,0.83841 0.04709,1.67686 0.06514,2.51543 0.01889,0.85998 0.03888,1.71993 0.06182,2.5798 0.02357,0.88974 0.04836,1.77945 0.06762,2.6693 0.01887,0.92068 0.03435,1.84141 0.04206,2.76226 0.01053,0.89054 0.02154,1.78107 0.0364,2.67155 0.01508,0.84958 0.03426,1.69908 0.05849,2.54845 0.02458,0.84965 0.05322,1.69917 0.08403,2.54861 0.03215,0.89961 0.06433,1.79928 0.07946,2.69937 0.01291,0.89883 0.01479,1.79774 -5.29e-4,2.69657 -0.01357,0.79066 -0.03168,1.58127 -0.06681,2.37131 -0.02967,0.68956 -0.06204,1.37901 -0.101981,2.06806 -0.03672,0.63021 -0.07734,1.26017 -0.117512,1.89017 -0.03357,0.56954 -0.06181,1.13936 -0.08848,1.70925 -0.02344,0.51076 -0.04439,1.02163 -0.07094,1.53224 -0.02466,0.45168 -0.05136,0.9033 -0.08833,1.35417 -0.03292,0.38765 -0.06946,0.77512 -0.122659,1.1606 -0.04867,0.34618 -0.102039,0.692 -0.178742,1.03326 -0.05972,0.26041 -0.123777,0.51997 -0.203054,0.77523 -0.07409,0.22795 -0.152807,0.45469 -0.255543,0.67167 -1.964197,4.4501 -8.25759,1.67231 -6.293395,-2.77779 z"
       inkscape:connector-curvature="0" />
    <path
       style="opacity:1;fill:#020900;fill-opacity:1;stroke:none;stroke-width:1;stroke-linecap:butt;stroke-linejoin:round;stroke-miterlimit:4;stroke-dasharray:none;stroke-opacity:1"
       id="path1405"
       d="m 68.306817,215.87026 c -0.03898,-0.003 -0.07825,-0.005 -0.11724,-0.007 -0.09289,-0.004 -0.185806,-1e-5 -0.278606,0.004 -0.21449,0.0112 -0.428958,0.0227 -0.643374,0.0352 -0.257458,0.0174 -0.51457,0.0395 -0.771898,0.0587 -0.362492,0.0279 -0.725202,0.0524 -1.08811,0.0742 -0.439097,0.0253 -0.878445,0.0462 -1.317968,0.0624 -0.523621,0.0183 -1.047565,0.0112 -1.571205,-0.001 -0.508947,-0.0139 -1.017722,-0.0336 -1.52628,-0.0578 -0.537856,-0.0255 -1.075005,-0.0632 -1.611723,-0.10607 -0.594606,-0.0473 -1.185508,-0.12929 -1.777005,-0.2044 -0.57857,-0.0736 -1.159047,-0.13034 -1.739866,-0.1826 -0.683588,-0.0603 -1.368271,-0.10687 -2.053074,-0.15081 -0.763971,-0.0504 -1.528207,-0.0965 -2.292678,-0.13859 -0.792752,-0.0451 -1.586063,-0.0779 -2.379755,-0.1004 -0.809821,-0.02 -1.619827,-0.0316 -2.429841,-0.0401 -0.770964,-0.009 -1.541917,-9.3e-4 -2.312614,0.0198 -0.755301,0.0218 -1.509419,0.0698 -2.26278,0.12663 -0.767358,0.0581 -1.533488,0.13066 -2.299198,0.20708 -0.718431,0.0714 -1.436071,0.15022 -2.153197,0.2336 -0.619832,0.0732 -1.238282,0.15743 -1.856793,0.24089 -0.518573,0.0705 -1.037381,0.13929 -1.555713,0.21159 -0.438989,0.0619 -0.87811,0.12297 -1.317453,0.18238 -0.389483,0.0527 -0.779344,0.10261 -1.169477,0.15029 -0.330327,0.0398 -0.660786,0.0784 -0.99123,0.11723 -0.264382,0.0309 -0.528788,0.0616 -0.793191,0.0924 -0.09808,7.4e-4 -0.749128,0.10455 -0.237988,0.0185 -4.735272,1.11295 -6.309227,-5.58373 -1.573956,-6.69668 v 0 c 0.337474,-0.0676 0.674743,-0.12455 1.017715,-0.15502 0.261776,-0.0304 0.523555,-0.0608 0.78531,-0.0914 0.31978,-0.0375 0.639574,-0.075 0.959252,-0.11339 0.360881,-0.044 0.721497,-0.0902 1.081775,-0.13901 0.429993,-0.0581 0.859758,-0.11791 1.289407,-0.17853 0.528318,-0.0736 1.057093,-0.14391 1.585661,-0.2157 0.660358,-0.0891 1.320679,-0.17883 1.982481,-0.25667 0.754187,-0.0876 1.508911,-0.17056 2.264466,-0.24561 0.821353,-0.0819 1.643176,-0.15951 2.466294,-0.2217 0.864214,-0.0648 1.729301,-0.1192 2.595724,-0.14356 0.85579,-0.0225 1.711849,-0.0318 2.567927,-0.0219 0.851363,0.009 1.702723,0.0212 2.553877,0.0426 0.854356,0.0245 1.708333,0.0594 2.561686,0.108 0.785286,0.0433 1.570336,0.0905 2.355109,0.14233 0.743812,0.0478 1.487482,0.0987 2.229958,0.16445 0.66402,0.06 1.327619,0.12537 1.989064,0.20965 0.485751,0.0617 0.970838,0.13064 1.458957,0.17149 0.463135,0.0372 0.926656,0.0698 1.390783,0.092 0.454247,0.0218 0.908711,0.0391 1.363302,0.0519 0.384659,0.009 0.769535,0.0163 1.154226,0.004 0.386872,-0.014 0.773552,-0.0329 1.16005,-0.0548 0.329309,-0.0196 0.658413,-0.0421 0.98734,-0.0674 0.294315,-0.0219 0.588328,-0.0478 0.882902,-0.066 0.254405,-0.0148 0.50886,-0.0288 0.763394,-0.0412 0.288415,-0.0112 0.577178,-0.0168 0.865643,-0.003 0.21767,0.0108 0.435276,0.025 0.651687,0.0515 4.827749,0.59523 3.985972,7.4227 -0.841777,6.82747 z"
       inkscape:connector-curvature="0" />
    <path
       style="opacity:1;fill:#020900;fill-opacity:1;stroke:none;stroke-width:1;stroke-linecap:butt;stroke-linejoin:round;stroke-miterlimit:4;stroke-dasharray:none;stroke-opacity:1"
       id="path1407"
       d="m 74.731342,283.2115 c -0.381275,0.17462 -0.788305,0.27555 -1.198443,0.35394 -0.348719,0.0629 -0.701421,0.0989 -1.054061,0.13102 -0.388736,0.0336 -0.778105,0.0589 -1.167582,0.082 -0.54787,0.0378 -1.096952,0.031 -1.645222,0.009 -0.565094,-0.0273 -1.128553,-0.0793 -1.69179,-0.13126 -0.638384,-0.0567 -1.273636,-0.14131 -1.907855,-0.23244 -0.671298,-0.0951 -1.33916,-0.2117 -2.005619,-0.33573 -0.666035,-0.1263 -1.330195,-0.26219 -1.995461,-0.39244 -0.665284,-0.13257 -1.333968,-0.2465 -2.004073,-0.35158 -0.719712,-0.1128 -1.442299,-0.20553 -2.165498,-0.29264 -0.763852,-0.0908 -1.529294,-0.16726 -2.295636,-0.23354 -0.780487,-0.0649 -1.562979,-0.0983 -2.345693,-0.12014 -0.84528,-0.0192 -1.69079,-0.007 -2.535888,0.0141 -0.932662,0.0253 -1.864495,0.0729 -2.796011,0.12451 -0.944647,0.0528 -1.888088,0.12433 -2.831086,0.20061 -0.881203,0.072 -1.760363,0.16564 -2.6385,0.26788 -0.827558,0.0998 -1.65404,0.20822 -2.481016,0.31267 -0.740283,0.0933 -1.481029,0.18283 -2.222021,0.27029 -0.636069,0.0746 -1.27232,0.14765 -1.908723,0.21938 -0.523099,0.0578 -1.04576,0.11937 -1.568497,0.1803 -0.441161,0.0513 -0.882433,0.10169 -1.323727,0.15187 -0.3547,0.0403 -0.709414,0.0804 -1.064127,0.12053 -0.282533,0.032 -0.565068,0.0639 -0.847601,0.0959 -0.225181,0.0255 -0.45036,0.051 -0.675542,0.0764 -0.179472,0.0203 -0.358947,0.0406 -0.538422,0.0609 -0.02867,0.002 -0.296309,0.0342 -0.211367,0.0246 -4.80449,0.7605 -5.87999,-6.03408 -1.0755,-6.79457 v 0 c 0.170675,-0.0255 0.341646,-0.048 0.513334,-0.0656 0.179475,-0.0203 0.35895,-0.0406 0.538422,-0.0609 0.225181,-0.0255 0.45036,-0.051 0.675539,-0.0764 0.282506,-0.032 0.565013,-0.0639 0.847519,-0.0959 0.353568,-0.04 0.707136,-0.08 1.060691,-0.12014 0.434834,-0.0494 0.869645,-0.0991 1.30435,-0.14964 0.531395,-0.0619 1.062718,-0.12454 1.59448,-0.18328 0.624467,-0.0704 1.248789,-0.14202 1.87293,-0.21525 0.722389,-0.0852 1.444535,-0.17254 2.166234,-0.26347 0.849384,-0.10728 1.698249,-0.21873 2.548281,-0.32083 0.95812,-0.11133 1.917359,-0.21324 2.878815,-0.29157 1.001125,-0.0809 2.002737,-0.15651 3.005616,-0.21249 1.002028,-0.0554 2.004412,-0.10616 3.007683,-0.13295 0.9661,-0.0235 1.932678,-0.0368 2.89895,-0.0134 0.916093,0.0263 1.831919,0.0661 2.745337,0.14312 0.842809,0.0733 1.6847,0.15702 2.524763,0.25728 0.804736,0.0971 1.608754,0.2008 2.409597,0.32652 0.755124,0.11883 1.508721,0.24721 2.2585,0.39647 0.644652,0.12628 1.288301,0.25767 1.933604,0.38062 0.573328,0.10701 1.147844,0.2078 1.725414,0.28947 0.518602,0.0748 1.03791,0.1453 1.560004,0.19139 0.449466,0.0415 0.899004,0.084 1.349817,0.10827 0.316251,0.0145 0.633034,0.0201 0.949111,-0.003 0.318921,-0.0188 0.637754,-0.0393 0.956106,-0.0662 0.140335,-0.0124 0.280638,-0.0254 0.420312,-0.0441 -0.09758,0.0301 -0.261864,0.0816 -0.373512,0.13729 4.435834,-1.99621 7.258896,4.27701 2.823064,6.27322 z"
       inkscape:connector-curvature="0" />
  </g>
</svg>
