<svg viewBox="0 0 100 100"><path style="opacity:1;fill:#020900;fill-opacity:1;stroke:none;stroke-width:1;stroke-linecap:butt;stroke-linejoin:round;stroke-miterlimit:4;stroke-dasharray:none;stroke-opacity:1" d="M47.559 277.073c.08-.181.016-.04-.014.044q.03-.117.058-.237a7 7 0 0 0 .073-.46c.036-.262.06-.525.081-.789q.045-.574.075-1.15.036-.736.068-1.473.04-.898.093-1.797.06-.944.117-1.887.056-.982.097-1.963c.032-.731.049-1.463.061-2.194q.02-1.239 0-2.479c-.014-.851-.045-1.702-.075-2.553q-.047-1.297-.086-2.596-.037-1.312-.06-2.625-.022-1.356-.037-2.712-.013-1.351-.041-2.703-.031-1.314-.067-2.628-.034-1.305-.063-2.611-.027-1.233-.063-2.467c-.022-.771-.054-1.542-.085-2.312q-.046-1.167-.083-2.334l-.07-2.377q-.04-1.197-.105-2.393-.06-1.135-.124-2.27a225 225 0 0 1-.2-4.28l-.07-2.07a1187 1187 0 0 1-.163-5.423l-.022-.856-.018-.685c-.006-.167-.007-.334-.014-.5 0 .22.055.431.1.644-1.29-4.69 5.342-6.515 6.633-1.825.068.307.14.613.142.93q.009.285.016.573l.018.684.022.852.028.998.035 1.19a1053 1053 0 0 0 .1 3.194q.031 1.017.068 2.034a232 232 0 0 0 .193 4.157q.065 1.147.126 2.296.068 1.269.11 2.538l.07 2.368q.036 1.14.082 2.283c.031.795.064 1.59.087 2.384q.037 1.258.065 2.516.028 1.29.062 2.58.037 1.335.067 2.669.03 1.38.042 2.762.016 1.335.037 2.672a237 237 0 0 0 .142 5.097c.033.9.065 1.8.08 2.7q.021 1.347 0 2.696c-.014.79-.032 1.581-.067 2.371q-.044 1.036-.102 2.068-.057.945-.118 1.89-.05.855-.088 1.71-.034.765-.071 1.532-.035.678-.089 1.354c-.033.388-.07.775-.122 1.16a12 12 0 0 1-.18 1.034c-.059.26-.123.52-.202.775a6 6 0 0 1-.256.672c-1.964 4.45-8.257 1.672-6.293-2.778" transform="translate(0 -197)"/><path style="opacity:1;fill:#020900;fill-opacity:1;stroke:none;stroke-width:1;stroke-linecap:butt;stroke-linejoin:round;stroke-miterlimit:4;stroke-dasharray:none;stroke-opacity:1" d="m68.307 215.87-.117-.007q-.14-.004-.279.004l-.643.035q-.387.028-.772.06a64 64 0 0 1-2.406.137 28 28 0 0 1-1.572-.002 76 76 0 0 1-1.526-.058 50 50 0 0 1-1.612-.106c-.594-.047-1.185-.13-1.777-.205a48 48 0 0 0-1.74-.182 86 86 0 0 0-2.053-.15q-1.146-.076-2.292-.14a84 84 0 0 0-2.38-.1q-1.215-.029-2.43-.04-1.156-.012-2.312.02c-.756.022-1.51.07-2.263.126a130 130 0 0 0-4.452.44c-.62.074-1.239.159-1.857.242q-.779.105-1.556.212-.659.093-1.318.182-.584.08-1.169.15-.495.06-.991.117l-.793.093c-.099 0-.75.104-.238.018-4.736 1.113-6.31-5.583-1.574-6.696a9 9 0 0 1 1.017-.155l.786-.092.959-.113q.54-.066 1.082-.14.645-.086 1.29-.178.791-.109 1.585-.215c.66-.09 1.32-.18 1.982-.257q1.132-.132 2.265-.246c.821-.082 1.643-.16 2.466-.221.864-.065 1.73-.12 2.596-.144a68 68 0 0 1 2.568-.022c.851.01 1.702.021 2.553.043q1.282.036 2.562.108 1.178.064 2.355.142c.744.048 1.488.099 2.23.165.664.06 1.328.125 1.99.21.485.06.97.13 1.458.17q.695.058 1.391.093.681.033 1.363.052c.385.009.77.016 1.155.004a57 57 0 0 0 2.147-.123c.294-.021.588-.047.883-.066q.382-.022.763-.04a9 9 0 0 1 1.517.049c4.828.594 3.987 7.421-.841 6.826m6.424 67.342c-.38.174-.788.275-1.198.353-.349.063-.702.1-1.054.131q-.583.05-1.168.082a15 15 0 0 1-1.645.01 40 40 0 0 1-1.692-.132 36 36 0 0 1-1.908-.232 47 47 0 0 1-2.005-.336c-.666-.126-1.33-.262-1.996-.392a50 50 0 0 0-2.004-.352 61 61 0 0 0-2.165-.293q-1.147-.134-2.296-.233a43 43 0 0 0-2.346-.12 53 53 0 0 0-2.535.014c-.933.025-1.865.073-2.796.124-.945.053-1.889.125-2.832.2a77 77 0 0 0-2.638.269c-.828.1-1.654.208-2.481.312a284 284 0 0 1-4.13.49q-.786.089-1.57.18-.66.077-1.323.152l-1.064.12-.848.097-.675.076-.539.061-.211.025c-4.805.76-5.88-6.034-1.076-6.795q.256-.038.514-.066l.538-.06.676-.077.847-.096 1.06-.12 1.305-.15q.797-.093 1.595-.183.937-.105 1.873-.215 1.083-.127 2.166-.264c.85-.107 1.698-.218 2.548-.32a84 84 0 0 1 2.879-.292c1.001-.08 2.003-.156 3.006-.212s2.004-.107 3.007-.133a60 60 0 0 1 2.9-.014c.915.027 1.831.066 2.745.143a79 79 0 0 1 2.524.258c.805.097 1.61.2 2.41.326.755.119 1.509.247 2.258.397.645.126 1.289.257 1.934.38a40 40 0 0 0 1.725.29c.519.075 1.038.145 1.56.191.45.042.9.084 1.35.108.317.015.633.02.95-.003q.478-.026.955-.066a9 9 0 0 0 .42-.044c-.097.03-.261.082-.373.137 4.436-1.996 7.26 4.277 2.823 6.274" transform="translate(0 -197)"/></svg>