<?xml version="1.0" encoding="UTF-8" standalone="no"?>
<!-- Created with Inkscape (http://www.inkscape.org/) -->

<svg
   xmlns:dc="http://purl.org/dc/elements/1.1/"
   xmlns:cc="http://creativecommons.org/ns#"
   xmlns:rdf="http://www.w3.org/1999/02/22-rdf-syntax-ns#"
   xmlns:svg="http://www.w3.org/2000/svg"
   xmlns="http://www.w3.org/2000/svg"
   xmlns:sodipodi="http://sodipodi.sourceforge.net/DTD/sodipodi-0.dtd"
   xmlns:inkscape="http://www.inkscape.org/namespaces/inkscape"
   width="10cm"
   height="10cm"
   viewBox="0 0 100 99.999997"
   version="1.1"
   id="svg8"
   sodipodi:docname="pipi.svg"
   inkscape:version="0.92.3 (2405546, 2018-03-11)">
  <defs
     id="defs2" />
  <sodipodi:namedview
     id="base"
     pagecolor="#ffffff"
     bordercolor="#666666"
     borderopacity="1.0"
     inkscape:pageopacity="0.0"
     inkscape:pageshadow="2"
     inkscape:zoom="1"
     inkscape:cx="175.50186"
     inkscape:cy="160.37856"
     inkscape:document-units="cm"
     inkscape:current-layer="layer1"
     showgrid="true"
     units="cm"
     inkscape:window-width="882"
     inkscape:window-height="707"
     inkscape:window-x="784"
     inkscape:window-y="204"
     inkscape:window-maximized="1"
     inkscape:snap-nodes="false">
    <inkscape:grid
       type="xygrid"
       id="grid815"
       units="cm"
       spacingx="9.9999998"
       spacingy="9.9999998" />
  </sodipodi:namedview>
  <metadata
     id="metadata5">
    <rdf:RDF>
      <cc:Work
         rdf:about="">
        <dc:format>image/svg+xml</dc:format>
        <dc:type
           rdf:resource="http://purl.org/dc/dcmitype/StillImage" />
        <dc:title></dc:title>
      </cc:Work>
    </rdf:RDF>
  </metadata>
  <g
     inkscape:label="Layer 1"
     inkscape:groupmode="layer"
     id="layer1"
     transform="translate(0,-197.00002)">
    <path
       style="opacity:1;fill:#020900;fill-opacity:1;stroke:none;stroke-width:1;stroke-linecap:butt;stroke-linejoin:round;stroke-miterlimit:4;stroke-dasharray:none;stroke-opacity:1"
       id="path32"
       d="m 49.933013,224.85691 c 0.135636,0.16611 0.256653,0.34304 0.373081,0.52288 0.167259,0.25994 0.298008,0.54005 0.414004,0.82584 0.07247,0.18204 0.136639,0.36707 0.196175,0.55369 0.04078,0.13359 0.07729,0.2684 0.117081,0.40229 0.05475,0.18124 0.10128,0.36478 0.144928,0.54897 0.04724,0.19299 0.08289,0.38844 0.118081,0.58389 0.02763,0.15104 0.05387,0.30233 0.07922,0.45377 0.02743,0.16313 0.05138,0.32681 0.07375,0.4907 0.0272,0.19938 0.04683,0.39965 0.06444,0.60007 0.01767,0.20872 0.03118,0.41777 0.04368,0.62686 0.01479,0.24646 0.02207,0.49329 0.02922,0.74007 0.0075,0.26553 0.01304,0.5311 0.01818,0.79668 0.0058,0.30832 0.01003,0.61667 0.01413,0.92502 0.004,0.30533 0.0076,0.61067 0.01109,0.91602 0.0033,0.29174 0.0062,0.58349 0.0089,0.87524 0.0028,0.31147 0.005,0.62295 0.0071,0.93442 0.0024,0.33272 0.0013,0.66545 7.94e-4,0.99817 -0.0019,0.33043 -0.0049,0.66086 -0.0075,0.99129 -0.0027,0.34969 -0.0049,0.69938 -0.007,1.04908 -0.0021,0.3474 -0.0039,0.6948 -0.0056,1.04221 -0.0019,0.35063 -0.0031,0.70126 -0.0045,1.05188 1.37e-4,0.37836 -0.0037,0.75667 -0.01392,1.13489 -0.01294,0.40484 -0.04209,0.80891 -0.07191,1.21279 -0.02872,0.38048 -0.05584,0.76107 -0.08031,1.14184 -0.02508,0.39576 -0.04641,0.79175 -0.06676,1.18777 -0.02074,0.39994 -0.03777,0.80006 -0.05341,1.20023 -0.01717,0.44589 -0.03041,0.89192 -0.04279,1.33797 -0.01363,0.49852 -0.02437,0.9971 -0.03453,1.4957 -0.01048,0.52014 -0.01934,1.04032 -0.02774,1.5605 -0.0085,0.52947 -0.01556,1.05896 -0.02215,1.58846 -0.0081,0.56309 -0.01622,1.12618 -0.02365,1.68928 -0.0074,0.56231 -0.01384,1.12464 -0.01987,1.68697 -0.0061,0.57276 -0.01114,1.14553 -0.01588,1.7183 -0.005,0.61432 -0.009,1.22864 -0.01265,1.84296 -0.0038,0.65375 -0.0071,1.3075 -0.01011,1.96124 -0.003,0.65244 -0.0056,1.30487 -0.0081,1.95731 -0.0024,0.64956 -0.0045,1.29913 -0.0064,1.9487 -0.0019,0.65946 -0.0036,1.31891 -0.0051,1.97837 -0.0016,0.67347 -0.0029,1.34694 -0.0041,2.02042 -0.0013,0.67942 -0.0024,1.35885 -0.0033,2.03828 -0.0011,0.70472 -0.0019,1.40943 -0.0026,2.11415 -7.94e-4,0.65967 -0.0013,1.31934 -0.0021,1.97901 -0.0013,0.56106 0.0053,1.12207 0.01664,1.683 0.0091,0.49628 0.02582,0.99237 0.0465,1.48829 0.0204,0.46258 0.04446,0.92498 0.07268,1.38715 0.02564,0.39857 0.0564,0.79679 0.08807,1.19492 0.02537,0.31352 0.05844,0.6263 0.09224,0.93899 0.02966,0.26878 0.05822,0.53768 0.0891,0.80632 0.02434,0.17762 0.03956,0.35715 0.07462,0.53314 0.841155,4.79103 -5.93438,5.9806 -6.775532,1.18958 v 0 c -0.05322,-0.31175 -0.09786,-0.62482 -0.13348,-0.9391 -0.03244,-0.2835 -0.06292,-0.56722 -0.09406,-0.85086 -0.04074,-0.37717 -0.08,-0.75451 -0.110408,-1.13268 -0.03503,-0.4405 -0.06892,-0.88112 -0.097,-1.32213 -0.03077,-0.50636 -0.05735,-1.01296 -0.07947,-1.51978 -0.02259,-0.54508 -0.04096,-1.09033 -0.05104,-1.6358 -0.01217,-0.60923 -0.01947,-1.21855 -0.01802,-1.82791 5.29e-4,-0.65996 0.0013,-1.31992 0.0021,-1.97988 7.93e-4,-0.7054 0.0016,-1.41081 0.0026,-2.11621 0.0011,-0.68036 0.0021,-1.36073 0.0033,-2.0411 0.0013,-0.67459 0.0026,-1.34919 0.0041,-2.02378 0.0016,-0.66098 0.0032,-1.32195 0.0051,-1.98292 0.0019,-0.65137 0.004,-1.30274 0.0065,-1.95411 0.0024,-0.6545 0.0051,-1.30898 0.0081,-1.96347 0.0031,-0.65677 0.0063,-1.31353 0.01016,-1.97029 0.0037,-0.61947 0.0077,-1.23894 0.01275,-1.8584 0.0048,-0.57849 0.0099,-1.15698 0.01603,-1.73546 0.0061,-0.56811 0.01259,-1.13621 0.02008,-1.7043 0.0074,-0.56126 0.0155,-1.12251 0.0236,-1.68377 0.0067,-0.53794 0.01386,-1.07589 0.02252,-1.61381 0.0085,-0.52995 0.01762,-1.05988 0.02828,-1.58979 0.0105,-0.51551 0.02164,-1.03101 0.03575,-1.54644 0.01312,-0.47205 0.02717,-0.9441 0.0454,-1.41599 0.01677,-0.4283 0.03502,-0.85655 0.05723,-1.2846 0.02188,-0.4255 0.04485,-0.85096 0.07188,-1.27616 0.02593,-0.40261 0.05445,-0.80503 0.08483,-1.20732 0.02212,-0.29881 0.04458,-0.59771 0.05585,-0.89717 0.0094,-0.32322 0.01087,-0.64655 0.0113,-0.96989 0.0013,-0.35319 0.0028,-0.70639 0.0045,-1.05957 0.0019,-0.34976 0.0036,-0.69952 0.0057,-1.04927 0.0021,-0.35384 0.0044,-0.70768 0.0071,-1.06151 0.0024,-0.31615 0.0054,-0.6323 0.0073,-0.94845 5.29e-4,-0.31379 0.0016,-0.62758 -7.93e-4,-0.94136 -0.0021,-0.30608 -0.0042,-0.61216 -0.0069,-0.91823 -0.0026,-0.28645 -0.0054,-0.57291 -0.0087,-0.85935 -0.0034,-0.30069 -0.0069,-0.60137 -0.01093,-0.90205 -0.0039,-0.29483 -0.008,-0.58966 -0.01349,-0.88447 -0.0047,-0.24348 -0.0098,-0.48695 -0.01659,-0.73038 -0.0051,-0.17668 -0.0097,-0.35342 -0.01992,-0.52989 -0.0087,-0.14643 -0.01797,-0.29284 -0.02991,-0.43904 -0.0078,-0.0907 -0.0159,-0.18149 -0.0279,-0.27179 -0.01262,-0.094 -0.0264,-0.18791 -0.04207,-0.28149 -0.02056,-0.12327 -0.04205,-0.24638 -0.06456,-0.36932 -0.01386,-0.0771 -0.02548,-0.15472 -0.0449,-0.23071 -0.01265,-0.0542 -0.02524,-0.10838 -0.04198,-0.16148 -0.02948,-0.0992 -0.05978,-0.19844 -0.08542,-0.29871 -0.0093,-0.0262 -0.01752,-0.0579 -0.02985,-0.0846 0.04709,0.10891 0.100809,0.21521 0.165508,0.31481 0.02931,0.0439 0.05824,0.0881 0.09298,0.12802 -3.057239,-3.78348 2.293419,-8.10707 5.350655,-4.32359 z"
       inkscape:connector-curvature="0" />
    <path
       style="opacity:1;fill:#020900;fill-opacity:1;stroke:none;stroke-width:1;stroke-linecap:butt;stroke-linejoin:round;stroke-miterlimit:4;stroke-dasharray:none;stroke-opacity:1"
       id="path34"
       d="m 60.705803,240.75596 c -0.05404,-0.004 -0.108185,-0.007 -0.162337,-0.0101 -0.128336,0.0134 0.363003,-0.018 0.08893,0.009 -0.253354,0.025 -0.507259,0.0439 -0.761044,0.0639 -0.288124,0.0221 -0.576673,0.0371 -0.864227,0.0661 -0.325205,0.0385 -0.649153,0.0869 -0.972495,0.13858 -0.493067,0.0852 -0.986226,0.16951 -1.480672,0.24641 -0.593172,0.0911 -1.188672,0.16569 -1.784681,0.23541 -0.623054,0.0721 -1.247568,0.13033 -1.872305,0.18553 -0.738685,0.071 -1.479489,0.1083 -2.221143,0.12691 -0.761322,0.0147 -1.522827,0.0152 -2.284179,0.004 -0.753282,-0.0143 -1.505818,-0.0527 -2.258219,-0.0902 -0.699688,-0.0353 -1.399466,-0.0688 -2.099138,-0.10438 -0.674664,-0.0353 -1.349518,-0.0666 -2.024433,-0.0966 -0.623303,-0.0276 -1.246682,-0.0533 -1.870088,-0.0784 -0.523386,-0.0224 -1.046962,-0.0394 -1.570773,-0.0468 -0.467172,-0.004 -0.934379,-0.002 -1.401561,-8e-4 -0.397992,0.001 -0.795986,0.001 -1.193925,0.008 -0.355314,0.008 -0.710562,0.0195 -1.065818,0.0302 -0.292285,0.009 -0.584579,0.0165 -0.876697,0.0297 -0.259096,0.0116 -0.517983,0.0272 -0.776862,0.0428 -0.229907,0.0143 -0.45997,0.0262 -0.689681,0.0434 -0.179546,0.0141 -0.358497,0.0347 -0.537398,0.0552 -0.216268,0.0255 -0.432734,0.0492 -0.649264,0.0724 -0.03707,-0.001 -0.40673,0.0497 -0.177617,0.0179 -4.780308,0.90007 -6.053193,-5.86031 -1.272884,-6.76038 v 0 c 0.238546,-0.0412 0.477568,-0.0768 0.718849,-0.0977 0.200128,-0.0214 0.400196,-0.0433 0.600078,-0.0669 0.271042,-0.0309 0.542239,-0.0611 0.814332,-0.0812 0.260194,-0.0189 0.520612,-0.0341 0.781028,-0.0496 0.29399,-0.0177 0.587997,-0.0352 0.882232,-0.0483 0.325856,-0.0145 0.651857,-0.0243 0.9779,-0.0335 0.38389,-0.0115 0.767768,-0.0235 1.151732,-0.0322 0.431411,-0.007 0.862864,-0.008 1.294331,-0.009 0.507322,-0.001 1.014669,-0.004 1.521976,0.002 0.582353,0.009 1.164484,0.0265 1.746366,0.0516 0.633135,0.0255 1.266243,0.0516 1.899269,0.0796 0.689555,0.0307 1.379045,0.0627 2.068341,0.0987 0.697335,0.0355 1.394777,0.0688 2.092123,0.10403 0.673415,0.0336 1.346928,0.0685 2.0211,0.0824 0.670594,0.0106 1.341329,0.009 2.01191,-0.003 0.595585,-0.0138 1.190299,-0.0446 1.783421,-0.10231 0.560189,-0.0494 1.120196,-0.10136 1.678895,-0.1657 0.510135,-0.0595 1.019871,-0.12288 1.52762,-0.20046 0.486301,-0.0753 0.97093,-0.16024 1.456076,-0.24255 0.460047,-0.0728 0.920946,-0.14161 1.384152,-0.19132 0.330118,-0.0316 0.660741,-0.055 0.991592,-0.0773 0.208431,-0.0164 0.41698,-0.0317 0.625096,-0.0518 0.313095,-0.0308 0.627719,-0.0548 0.94243,-0.0335 0.131837,0.007 0.263631,0.0148 0.395171,0.0261 4.846535,0.41544 4.259022,7.26947 -0.58751,6.85403 z"
       inkscape:connector-curvature="0" />
    <path
       style="opacity:1;fill:#020900;fill-opacity:1;stroke:none;stroke-width:1;stroke-linecap:butt;stroke-linejoin:round;stroke-miterlimit:4;stroke-dasharray:none;stroke-opacity:1"
       id="path36"
       d="m 61.144739,258.92119 c -0.390747,0.22446 -0.817179,0.36853 -1.250106,0.48564 -0.389874,0.0999 -0.788495,0.15778 -1.187296,0.20774 -0.465302,0.0546 -0.933919,0.0687 -1.401834,0.0813 -0.45787,0.0111 -0.915821,0.0182 -1.37377,0.0252 -0.472805,0.007 -0.945636,0.012 -1.41842,0.0205 -0.450247,0.009 -0.90025,0.0266 -1.350209,0.0448 -0.488402,0.0215 -0.976849,0.0418 -1.465373,0.0603 -0.481558,0.0143 -0.962229,0.0465 -1.442654,0.0813 -0.548272,0.0413 -1.096793,0.0791 -1.645518,0.11384 -0.519025,0.0299 -1.037026,0.0737 -1.55457,0.1225 -0.552752,0.055 -1.105805,0.10673 -1.658996,0.15706 -0.536313,0.0486 -1.07279,0.0952 -1.609455,0.13972 -0.519747,0.043 -1.039937,0.0804 -1.560248,0.11584 -0.511476,0.0347 -1.023297,0.0639 -1.535162,0.0921 -0.475946,0.0261 -0.952014,0.0499 -1.428137,0.0726 -0.445822,0.021 -0.891759,0.0395 -1.337704,0.0577 -0.385299,0.015 -0.770453,0.0333 -1.155634,0.0511 -0.370006,0.0169 -0.740076,0.0324 -1.110149,0.0478 -0.310663,0.0129 -0.621334,0.0256 -0.932019,0.038 -0.264406,0.0106 -0.528828,0.0208 -0.793265,0.0305 -0.240057,0.009 -0.48014,0.0169 -0.720233,0.0245 -0.253979,0.009 -0.508125,0.0116 -0.762249,0.0119 -0.246703,10e-6 -0.493308,-0.007 -0.73986,-0.0151 -0.221797,-0.008 -0.44333,-0.0218 -0.6648,-0.0361 -0.157329,-0.0103 -0.314676,-0.0204 -0.472022,-0.0305 0.04006,0.002 0.08012,0.004 0.12018,0.006 -4.864122,-0.0422 -4.804395,-6.92114 0.05973,-6.87891 v 0 c 0.08674,0.002 0.173471,0.005 0.260204,0.008 0.15852,0.0102 0.31704,0.0203 0.475546,0.0307 0.146921,0.01 0.293852,0.0189 0.44095,0.0253 0.171145,0.005 0.342315,0.0111 0.513564,0.0116 0.18288,-1.3e-4 0.365781,-0.001 0.54855,-0.008 0.229065,-0.007 0.45812,-0.015 0.687152,-0.0234 0.25732,-0.009 0.514622,-0.0194 0.771911,-0.0297 0.307094,-0.0123 0.614175,-0.0248 0.92125,-0.0375 0.359783,-0.0149 0.719564,-0.03 1.079286,-0.0465 0.396793,-0.0182 0.793559,-0.0371 1.190477,-0.0526 0.431014,-0.0176 0.862023,-0.0355 1.292923,-0.0558 0.458706,-0.0218 0.917353,-0.0447 1.375889,-0.0699 0.482137,-0.0265 0.964232,-0.054 1.446006,-0.0866 0.486754,-0.0332 0.973399,-0.068 1.459627,-0.10824 0.518297,-0.0429 1.03641,-0.0881 1.554369,-0.13494 0.546256,-0.0497 1.092366,-0.10091 1.638194,-0.15513 0.587311,-0.0551 1.175141,-0.10467 1.764091,-0.13898 0.528351,-0.0334 1.056494,-0.0699 1.584407,-0.10969 0.558707,-0.0403 1.117745,-0.0769 1.677723,-0.0942 0.482748,-0.0183 0.965414,-0.0385 1.448046,-0.0596 0.501615,-0.0203 1.003297,-0.0393 1.505241,-0.0494 0.479036,-0.009 0.958119,-0.0137 1.437177,-0.0208 0.431776,-0.007 0.863557,-0.0132 1.295259,-0.0235 0.249069,-0.007 0.498534,-0.0114 0.746887,-0.0325 0.08826,-0.0103 0.223192,-0.0308 0.292024,-0.0371 -0.145476,0.0516 -0.287089,0.11319 -0.419682,0.19301 4.227557,-2.40607 7.630265,3.5726 3.402705,5.97867 z"
       inkscape:connector-curvature="0" />
    <path
       style="opacity:1;fill:#020900;fill-opacity:1;stroke:none;stroke-width:1;stroke-linecap:butt;stroke-linejoin:round;stroke-miterlimit:4;stroke-dasharray:none;stroke-opacity:1"
       id="path38"
       d="m 57.743886,280.42087 c 0.01347,0.005 0.114712,0.003 -0.03049,0.008 -0.182964,0.008 -0.365469,0.0243 -0.548028,0.0387 -0.323557,0.0267 -0.647184,0.0525 -0.970685,0.08 -0.459674,0.0397 -0.919988,0.0711 -1.380488,0.0994 -0.559678,0.0336 -1.119859,0.0576 -1.680077,0.08 -0.627446,0.0241 -1.254795,0.0507 -1.882193,0.076 -0.654664,0.0266 -1.309494,0.0488 -1.964298,0.0716 -0.638982,0.0225 -1.277906,0.0466 -1.916759,0.0726 -0.646721,0.0267 -1.293555,0.0505 -1.940435,0.073 -0.653807,0.022 -1.307984,0.0294 -1.962073,0.0377 -0.62783,0.0101 -1.255657,0.0133 -1.883532,0.007 -0.588161,-0.008 -1.176136,-0.0262 -1.764112,-0.0426 -0.532696,-0.015 -1.065424,-0.0288 -1.598157,-0.0424 -0.459391,-0.0124 -0.91883,-0.0225 -1.3783,-0.0315 -0.376684,-0.008 -0.753395,-0.0144 -1.13017,-0.0129 -0.345654,0.003 -0.691309,0.006 -1.036934,0.0114 -0.268242,0.003 -0.536128,0.0173 -0.803775,0.0344 -0.274383,0.0182 -0.548709,0.0373 -0.823042,0.0563 -0.19187,0.0173 -0.384093,0.0315 -0.575403,0.0544 -0.17096,0.0239 -0.34123,0.0526 -0.511693,0.0798 -0.175324,0.0273 -0.350441,0.0557 -0.525375,0.0854 -0.07322,0.0124 -0.146413,0.0249 -0.219573,0.0377 -4.792412,0.83322 -5.970763,-5.94428 -1.178351,-6.7775 v 0 c 0.08313,-0.0144 0.166272,-0.0287 0.249465,-0.0428 0.196483,-0.0333 0.39315,-0.0653 0.590056,-0.096 0.272049,-0.0434 0.543827,-0.0893 0.817485,-0.12161 0.292373,-0.0326 0.585346,-0.0594 0.87865,-0.0821 0.288102,-0.0199 0.576194,-0.04 0.864357,-0.059 0.378147,-0.0237 0.756639,-0.043 1.135581,-0.0473 0.372282,-0.005 0.744593,-0.009 1.116904,-0.0121 0.428622,-0.001 0.857184,0.005 1.2857,0.0142 0.473313,0.009 0.946592,0.0197 1.419823,0.0324 0.538496,0.0137 1.076986,0.0278 1.615443,0.0429 0.546862,0.0153 1.093716,0.0318 1.640736,0.0403 0.575961,0.006 1.151872,0.002 1.727793,-0.007 0.603152,-0.008 1.206389,-0.014 1.809287,-0.034 0.633481,-0.022 1.266923,-0.0453 1.900251,-0.0715 0.652063,-0.0265 1.304197,-0.0511 1.956395,-0.0741 0.642377,-0.0224 1.28478,-0.0441 1.927019,-0.0702 0.628237,-0.0253 1.256419,-0.0519 1.884701,-0.0761 0.5114,-0.0204 1.02277,-0.0422 1.533689,-0.0726 0.407215,-0.0249 0.814263,-0.0526 1.220742,-0.0877 0.337111,-0.0285 0.674349,-0.0555 1.011524,-0.0833 0.298487,-0.0235 0.597037,-0.048 0.8964,-0.0572 0.282183,-0.007 0.56502,-0.0101 0.846344,0.0176 4.844227,0.44152 4.219829,7.29229 -0.624398,6.85078 z"
       inkscape:connector-curvature="0" />
    <path
       style="opacity:1;fill:#020900;fill-opacity:1;stroke:none;stroke-width:1;stroke-linecap:butt;stroke-linejoin:round;stroke-miterlimit:4;stroke-dasharray:none;stroke-opacity:1"
       id="path40"
       d="m 32.125105,216.28838 c -0.100838,0.14022 0.28022,-0.3617 0.292288,-0.37926 0.103531,-0.15452 0.178781,-0.32403 0.248179,-0.49553 -0.0064,0.0232 -0.04404,0.17372 -0.02551,0.10957 0.02883,-0.13915 0.02951,-0.28236 0.02437,-0.4238 -0.01513,-0.29832 -0.103,-0.58325 -0.219647,-0.85589 -0.273663,-0.62301 -0.794419,-1.01284 -1.360693,-1.35479 -0.516345,-0.24744 -1.07142,-0.34959 -1.637451,-0.28464 -0.360241,0.0453 -0.685157,0.20303 -0.995484,0.38278 -0.09453,0.0639 -0.184674,0.13398 -0.276164,0.20212 -0.147662,0.14366 -0.262901,0.31367 -0.367843,0.48969 -0.109304,0.18814 -0.185271,0.39166 -0.24458,0.6002 -0.03244,0.13542 -0.02789,0.11073 -0.03802,0.1715 -0.118618,0.80837 0.08158,1.64214 0.535699,2.32166 0.134194,0.2008 0.312442,0.36837 0.468665,0.55255 0.276664,0.26266 0.579107,0.45469 0.919935,0.61321 -4.47186,-1.91414 -1.764853,-8.2383 2.707005,-6.32416 v 0 c 0.39729,0.1802 0.760693,0.39067 1.081923,0.69602 0.169204,0.19638 0.361879,0.37476 0.507617,0.58913 0.510312,0.75063 0.715348,1.66754 0.583766,2.56164 -0.02798,0.1775 -0.05862,0.35474 -0.103463,0.52892 -0.09689,0.35535 -0.220554,0.70321 -0.402283,1.02513 -0.20162,0.34852 -0.430361,0.68046 -0.714364,0.96806 -0.266864,0.27192 -0.546063,0.53325 -0.865442,0.74369 -0.533887,0.32399 -1.097796,0.58412 -1.722231,0.67256 -0.824121,0.11284 -1.636249,0.0545 -2.403168,-0.30309 -0.84197,-0.48798 -1.453962,-0.9891 -1.877266,-1.87976 -0.227876,-0.50485 -0.399222,-1.03221 -0.435425,-1.58909 -0.02714,-0.43453 -0.02043,-0.87054 0.0602,-1.29988 0.05024,-0.27353 0.110533,-0.54498 0.187968,-0.81223 0.128393,-0.43701 0.286889,-0.86617 0.531412,-1.25347 0.188193,-0.28303 0.387654,-0.55864 0.633857,-0.79494 3.409733,-3.46917 8.315889,1.35292 4.906156,4.8221 z"
       inkscape:connector-curvature="0" />
    <path
       style="opacity:1;fill:#020900;fill-opacity:1;stroke:none;stroke-width:1;stroke-linecap:butt;stroke-linejoin:round;stroke-miterlimit:4;stroke-dasharray:none;stroke-opacity:1"
       id="path42"
       d="m 65.447983,215.55949 c 0.10087,-0.1041 0.0666,-0.0695 -0.0071,0.0145 0.09377,-0.10349 0.172842,-0.21871 0.244843,-0.33805 0.04717,-0.0772 0.08376,-0.15963 0.118239,-0.24301 0.05566,-0.14924 0.0883,-0.30555 0.112567,-0.46265 0.0131,-0.089 0.0173,-0.17897 0.01831,-0.26858 -0.0046,-0.20058 -0.03714,-0.39902 -0.08871,-0.59258 -0.10138,-0.38012 -0.315518,-0.71061 -0.547796,-1.02288 -0.228775,-0.27456 -0.501073,-0.5102 -0.813562,-0.6843 -0.100968,-0.0549 -0.211489,-0.0901 -0.319606,-0.12756 -0.234527,-0.0805 -0.47907,-0.10305 -0.724871,-0.1125 -0.450088,-0.008 -0.875453,0.11841 -1.279464,0.30604 -0.199096,0.10458 -0.327208,0.2007 -0.08365,0.0312 0.153082,-0.11753 -0.140976,0.11831 -0.174401,0.14832 -0.157763,0.13975 -0.276373,0.31124 -0.391411,0.4859 -0.05456,0.0918 -0.102558,0.18743 -0.148299,0.2839 0.09122,-0.3239 -0.08746,0.35106 -0.08749,0.35116 -0.06961,0.38615 -0.06626,0.78339 0.01545,1.1672 0.05289,0.20222 0.01992,0.0945 0.07728,0.25616 0.179504,0.48727 0.501262,0.88697 0.88187,1.23077 0.535699,0.47688 1.201973,0.58503 1.887154,0.69789 -4.862134,-0.14532 -4.656622,-7.02141 0.205512,-6.87609 v 0 c 0.942179,0.144 1.534586,0.24839 2.270763,0.85998 0.499081,0.43969 0.924409,0.9483 1.160558,1.57987 0.08101,0.2207 0.160282,0.44234 0.212296,0.67216 0.121505,0.53119 0.159626,1.078 0.06186,1.61741 -0.05959,0.28473 -0.12691,0.56729 -0.236193,0.83776 -0.107979,0.28935 -0.229828,0.5741 -0.389041,0.83957 -0.222123,0.34928 -0.462545,0.68603 -0.767331,0.9695 -0.20447,0.18988 -0.417002,0.37087 -0.649854,0.52549 -0.210841,0.14668 -0.421058,0.29524 -0.649687,0.41379 -0.592606,0.28753 -1.216848,0.48506 -1.882878,0.48106 -0.446061,-0.0102 -0.890498,-0.0511 -1.318239,-0.18764 -0.287213,-0.0949 -0.570272,-0.20117 -0.837372,-0.34461 -0.48991,-0.25858 -0.940549,-0.5822 -1.297776,-1.01094 -0.339333,-0.44385 -0.631412,-0.91838 -0.777864,-1.46263 -0.101008,-0.35598 -0.171424,-0.72046 -0.182158,-1.0914 -0.0088,-0.27519 -0.0046,-0.55105 0.03028,-0.82458 0.04802,-0.351 0.121248,-0.69828 0.246399,-1.03068 0.10146,-0.27421 0.216342,-0.5436 0.36082,-0.79831 0.16256,-0.28066 0.341815,-0.55172 0.556974,-0.79542 0.105294,-0.12029 0.211283,-0.24019 0.323625,-0.35399 3.435607,-3.44355 8.305531,1.41513 4.869924,4.85868 z"
       inkscape:connector-curvature="0" />
  </g>
</svg>
