<svg viewBox="0 0 100 100"><path style="opacity:1;fill:#020900;fill-opacity:1;stroke:none;stroke-width:1;stroke-linecap:butt;stroke-linejoin:round;stroke-miterlimit:4;stroke-dasharray:none;stroke-opacity:1" d="M49.933 224.857a5 5 0 0 1 .787 1.349q.108.273.196.553.06.201.117.403a9 9 0 0 1 .263 1.132l.08.454q.04.245.073.49c.028.2.047.4.065.601a25 25 0 0 1 .073 1.367 90 90 0 0 1 .032 1.722 548 548 0 0 1 .027 2.725q.002.5 0 .998-.002.495-.007.992l-.012 2.091-.005 1.052q.001.567-.014 1.135c-.013.405-.042.809-.072 1.213q-.042.57-.08 1.141a100 100 0 0 0-.163 3.726q-.02.749-.034 1.496a390 390 0 0 0-.05 3.15l-.024 1.688a693 693 0 0 0-.058 7.21 2554 2554 0 0 0-.027 9.943l-.003 2.114-.002 1.98a75 75 0 0 0 .063 3.17q.03.694.073 1.388.039.597.088 1.194.04.47.092.94l.09.806c.023.177.039.357.074.533.84 4.79-5.935 5.98-6.776 1.19a17 17 0 0 1-.133-.94l-.094-.85q-.063-.566-.11-1.133-.055-.66-.098-1.322a71 71 0 0 1-.13-3.156 82 82 0 0 1-.018-1.828l.004-4.096.004-2.041.004-2.024.02-5.9a1703 1703 0 0 1 .022-3.829 755 755 0 0 1 .037-3.44l.023-1.683a443 443 0 0 1 .05-3.204q.016-.774.037-1.547.019-.708.045-1.415a101 101 0 0 1 .214-3.769c.022-.298.045-.597.056-.897.01-.323.01-.646.011-.97l.005-1.06.005-1.048.007-1.062.008-.948q.001-.471-.001-.942l-.007-.918a352 352 0 0 0-.033-2.646l-.017-.73q-.006-.266-.02-.53a20 20 0 0 0-.03-.44 6 6 0 0 0-.07-.552q-.03-.186-.064-.37c-.014-.077-.025-.155-.045-.23q-.018-.083-.042-.162-.046-.149-.085-.299c-.01-.026-.018-.058-.03-.084q.069.164.165.315.043.066.093.128c-3.057-3.784 2.294-8.108 5.351-4.324" transform="translate(0 -197)"/><path style="opacity:1;fill:#020900;fill-opacity:1;stroke:none;stroke-width:1;stroke-linecap:butt;stroke-linejoin:round;stroke-miterlimit:4;stroke-dasharray:none;stroke-opacity:1" d="m60.706 240.756-.163-.01c-.128.013.363-.018.09.009q-.381.036-.762.064c-.288.022-.576.037-.864.066a24 24 0 0 0-.972.138q-.74.13-1.481.247-.89.133-1.785.235c-.623.072-1.247.13-1.872.186-.739.07-1.48.108-2.221.127q-1.142.02-2.284.004c-.754-.015-1.506-.053-2.259-.09l-2.099-.105q-1.012-.052-2.024-.096-.935-.042-1.87-.079a55 55 0 0 0-1.571-.047q-.7-.004-1.402 0-.597-.002-1.193.008-.534.013-1.066.03c-.293.009-.585.016-.877.03q-.39.018-.777.042c-.23.015-.46.026-.69.044q-.27.022-.537.055-.324.037-.65.072c-.036 0-.406.05-.177.018-4.78.9-6.053-5.86-1.273-6.76.239-.041.478-.077.72-.098q.3-.031.6-.067c.27-.03.541-.061.814-.081q.39-.027.78-.05.442-.027.883-.048.489-.02.978-.033.576-.019 1.151-.033.648-.009 1.295-.009c.507 0 1.014-.004 1.522.002q.873.015 1.746.052.95.038 1.9.08 1.033.045 2.068.098l2.092.104c.673.034 1.347.069 2.02.083q1.007.015 2.013-.003a24 24 0 0 0 1.783-.103c.56-.049 1.12-.101 1.68-.165.51-.06 1.019-.123 1.527-.2.486-.076.97-.161 1.456-.243.46-.073.92-.142 1.384-.192q.494-.045.992-.077.312-.023.625-.052a6 6 0 0 1 .942-.033q.198.01.395.026c4.847.415 4.26 7.27-.587 6.854m.439 18.165c-.391.225-.817.369-1.25.486-.39.1-.789.158-1.188.208a16 16 0 0 1-1.401.08q-.687.017-1.374.026l-1.419.02q-.675.017-1.35.045-.733.033-1.465.06c-.482.015-.962.047-1.443.082q-.822.062-1.645.114a43 43 0 0 0-1.555.122 197 197 0 0 1-3.268.297 108 108 0 0 1-3.096.208 200 200 0 0 1-2.766.13q-.578.024-1.155.051a274 274 0 0 1-2.043.086 233 233 0 0 1-1.513.055 22 22 0 0 1-1.502-.003 23 23 0 0 1-.665-.036l-.472-.03.12.005c-4.864-.042-4.804-6.92.06-6.878l.26.008.476.03q.22.016.44.026.258.008.514.011c.183 0 .366 0 .549-.008l.687-.023.772-.03 2-.084q.596-.028 1.19-.053a207 207 0 0 0 2.67-.125 115 115 0 0 0 2.905-.195 205 205 0 0 0 3.193-.29 50 50 0 0 1 1.764-.14q.792-.05 1.584-.109c.56-.04 1.118-.077 1.678-.094q.724-.028 1.448-.06.753-.032 1.505-.05l1.438-.02q.647-.01 1.295-.023c.249-.007.498-.012.747-.033.088-.01.223-.03.292-.037a2.3 2.3 0 0 0-.42.193c4.228-2.406 7.63 3.573 3.403 5.979zm-3.401 21.499c.013.006.115.004-.03.009-.184.008-.366.024-.549.039l-.97.08c-.46.04-.92.07-1.38.099q-.84.049-1.68.08-.942.037-1.883.076-.983.039-1.964.072-.96.033-1.917.072-.97.04-1.94.073c-.654.022-1.309.03-1.963.038q-.94.016-1.883.007c-.588-.008-1.176-.026-1.764-.043a608 608 0 0 0-2.977-.074 45 45 0 0 0-1.13-.013q-.518.004-1.037.012a15 15 0 0 0-.804.034l-.823.057c-.192.017-.384.031-.575.054q-.256.038-.512.08a39 39 0 0 0-.745.123c-4.792.833-5.97-5.944-1.178-6.778a70 70 0 0 1 .84-.138c.272-.044.543-.09.817-.122q.438-.05.879-.082l.864-.06a22 22 0 0 1 1.136-.046q.558-.008 1.116-.013.645 0 1.286.015.71.014 1.42.032l1.615.043c.547.015 1.094.032 1.641.04q.864.008 1.728-.007c.603-.008 1.206-.014 1.81-.034a287 287 0 0 0 1.9-.071q.978-.04 1.956-.074.963-.033 1.927-.07l1.885-.077q.766-.028 1.533-.072.611-.036 1.221-.088l1.012-.083c.298-.024.597-.048.896-.057.282-.007.565-.01.846.017 4.845.442 4.22 7.292-.624 6.85m-25.619-64.132c-.1.14.28-.361.292-.379.104-.154.18-.324.249-.495-.007.023-.044.173-.026.11.029-.14.03-.283.024-.425a2.5 2.5 0 0 0-.22-.856c-.273-.623-.794-1.012-1.36-1.354a2.97 2.97 0 0 0-1.637-.285c-.36.045-.686.203-.996.383q-.14.098-.276.202a2.3 2.3 0 0 0-.368.49c-.11.188-.185.391-.244.6-.033.135-.028.11-.038.171a3.33 3.33 0 0 0 .535 2.322c.134.2.313.368.469.553.277.262.579.454.92.613-4.472-1.914-1.765-8.239 2.707-6.324.397.18.76.39 1.082.696.169.196.362.374.507.589.51.75.716 1.667.584 2.561a4.5 4.5 0 0 1-.506 1.554c-.201.349-.43.68-.714.968a5.4 5.4 0 0 1-.865.744c-.534.324-1.098.584-1.723.673-.824.113-1.636.054-2.403-.303-.842-.488-1.454-.99-1.877-1.88-.228-.505-.4-1.032-.435-1.59-.028-.434-.02-.87.06-1.3.05-.273.11-.544.188-.811.128-.437.287-.866.531-1.254a4.6 4.6 0 0 1 .634-.795c3.41-3.469 8.316 1.353 4.906 4.822m33.323-.728c.1-.105.067-.07-.007.014q.139-.158.245-.338c.047-.077.083-.16.118-.243.056-.15.088-.306.113-.463q.018-.134.018-.268a2.5 2.5 0 0 0-.089-.593c-.101-.38-.315-.71-.548-1.023a2.9 2.9 0 0 0-.813-.684c-.101-.055-.212-.09-.32-.128a2.5 2.5 0 0 0-.725-.112c-.45-.008-.875.118-1.28.306-.198.105-.326.2-.083.031.153-.117-.14.118-.174.148a2.4 2.4 0 0 0-.54.77c.091-.324-.087.351-.087.351a3 3 0 0 0 .015 1.168c.053.202.02.094.077.256.18.487.502.887.882 1.23.536.477 1.202.586 1.887.698-4.862-.145-4.656-7.021.206-6.876.942.144 1.534.249 2.27.86.5.44.925.949 1.161 1.58.081.22.16.443.212.672.122.532.16 1.078.062 1.618-.06.284-.127.567-.236.838a5 5 0 0 1-.389.84c-.222.348-.462.685-.767.969a5 5 0 0 1-.65.525c-.21.147-.421.295-.65.414-.592.287-1.217.485-1.883.48-.446-.01-.89-.05-1.318-.187a5 5 0 0 1-.837-.344c-.49-.259-.94-.583-1.298-1.011-.34-.444-.631-.919-.778-1.463a4.5 4.5 0 0 1-.182-1.091 4.7 4.7 0 0 1 .277-1.855 4.9 4.9 0 0 1 .918-1.594q.155-.181.323-.354c3.436-3.444 8.306 1.415 4.87 4.858" transform="translate(0 -197)"/></svg>