<svg viewBox="0 0 100 100"><path style="opacity:1;fill:#020900;fill-opacity:1;stroke:none;stroke-width:1;stroke-linecap:butt;stroke-linejoin:round;stroke-miterlimit:4;stroke-dasharray:none;stroke-opacity:1" d="M17.095 232.573c.001.117.006.275.009.415.005.266.022.532.037.798l.08 1.361.104 1.825c.039.74.072 1.481.11 2.222.041.817.088 1.633.132 2.45a309 309 0 0 1 .218 4.822 807 807 0 0 1 .187 5.295q.018.709.028 1.417l.02 1.25.015 1.069.012.858.01.683c-.01.071.022.367-.003.103-.064-.551-.336-1.02-.684-1.44a2.2 2.2 0 0 0-.622-.475c.143.018.32.052.472.075.467.067.937.111 1.407.153.643.056 1.288.094 1.932.13.75.043 1.499.076 2.249.107a161 161 0 0 0 2.486.072q1.352.029 2.706.052 1.374.024 2.75.042 1.34.02 2.68.025 1.343.002 2.684-.002a182 182 0 0 0 2.777-.036q1.46-.03 2.92-.07a620 620 0 0 1 6.06-.125q1.498-.023 2.998-.044 1.42-.011 2.84-.057 1.394-.052 2.786-.107 1.257-.05 2.512-.108l2.068-.093 1.65-.074 2.258-.103.701-.032c-.831.013-1.492.5-2.056 1.059a2.8 2.8 0 0 0-.485.845c-.01.029-.032.116-.033.085q.001-.03.005-.063c.03-.369.016-.739-.002-1.107-.039-.642-.106-1.28-.172-1.92-.09-.837-.183-1.674-.268-2.512a89 89 0 0 1-.237-2.742 187 187 0 0 1-.153-2.714 466 466 0 0 1-.21-4.584l-.074-1.95-.059-1.752-.046-1.471a69 69 0 0 1-.032-1.31 37 37 0 0 1 0-1.15l.018-.897.026-1.328.01-.495.007-.407.005-.33.005-.265.004-.22q0-.09.003-.178l.002-.14.002-.113.002-.09v-.07l.002-.054v-.098l.001-.052v-.082l.001-.04v-.013c.028-4.864 6.907-4.824 6.88.04l-.001.012v.139l-.001.063v.062l-.002.073-.001.064-.001.071-.002.09-.002.112-.002.141-.003.177-.004.222-.005.27-.005.33-.008.412-.009.497-.012.614-.014.727-.017.855q-.008.474 0 .949.008.6.029 1.199a846 846 0 0 0 .104 3.19 441 441 0 0 0 .279 6.427c.044.861.088 1.722.145 2.583q.09 1.265.218 2.527c.086.837.18 1.673.269 2.51.078.768.158 1.537.2 2.308.033.748.044 1.5-.04 2.245-.124.947-.357 1.855-.96 2.623-.175.183-.334.384-.526.549-.688.59-1.557.901-2.455.949l-.714.032-.948.044-1.309.06-1.65.073-2.07.093q-1.276.058-2.553.11-1.413.055-2.828.108-1.485.048-2.97.06a1020 1020 0 0 0-5.989.1q-1.492.03-2.985.068c-.99.025-1.98.052-2.97.071-.96.018-1.92.034-2.879.037q-1.367.004-2.735.002-1.374-.004-2.75-.026-1.386-.019-2.774-.042a524 524 0 0 1-2.746-.053c-.87-.02-1.74-.042-2.61-.076q-1.179-.046-2.356-.111a71 71 0 0 1-2.156-.147 32 32 0 0 1-1.847-.207c-.619-.098-1.238-.213-1.828-.43-.71-.28-1.384-.637-1.92-1.194-.594-.676-1.048-1.433-1.17-2.342a7 7 0 0 1-.069-.997l-.01-.684-.011-.857-.016-1.065-.019-1.235q-.01-.663-.026-1.326-.022-.74-.048-1.48l-.137-3.754a380 380 0 0 0-.213-4.723q-.07-1.238-.134-2.475c-.037-.729-.07-1.459-.108-2.188a473 473 0 0 0-.183-3.18c-.02-.348-.04-.697-.047-1.046-.004-.183-.01-.367-.01-.55 0-4.865 6.879-4.865 6.879 0m67.15 9.801c.324-.198.608-.453.828-.763.006-.025.045-.065.058-.08q-.05.185-.093.373a1 1 0 0 0-.034.253q.02.104.035.209c.037.224.087.445.14.665.03.107.06.214.114.312-.018-.08-.072-.148-.12-.212-.06-.077-.136-.139-.21-.202-.063-.041-.08-.046.01-.042a.2.2 0 0 0 .114-.017c-.135.008-.263.06-.384.118-.048.011-.08.044-.118.078-.037.029-.077.1-.048.015.02-.047.023-.096.03-.146.01-.057.001-.057-.004-.092-.018-.076.002.067.003.077-.001.04-.057-.11-.07-.14a4 4 0 0 0-.174-.332c-.08-.121.017.028.04.058.134.168.319.283.5.39.034.038.38.152.332.149-.038-.012-.334-.034-.16-.02.137.004.067.004.21-.002-4.838.51-5.559-6.332-.721-6.841.42-.036.21-.025.628-.034.374.011.747.04 1.117.102.575.095 1.145.233 1.67.494.586.314 1.132.689 1.569 1.196.3.346.576.71.797 1.112.162.287.316.578.452.877.179.397.344.8.458 1.22.13.52.223 1.048.227 1.585a7.4 7.4 0 0 1-.127 1.541 7.7 7.7 0 0 1-.488 1.593c-.264.582-.57 1.145-.985 1.636-.438.502-.92.96-1.487 1.315-.658.395-1.357.71-2.12.834-.649.1-1.304.148-1.959.078-.734-.082-1.46-.225-2.138-.53-.718-.337-1.397-.747-1.947-1.327-.478-.522-.902-1.088-1.185-1.741a9 9 0 0 1-.51-1.478c-.104-.43-.198-.861-.264-1.298-.076-.538-.127-1.08-.093-1.623.033-.479.092-.955.207-1.422.094-.393.195-.785.334-1.166.16-.421.34-.835.583-1.216.361-.555.793-1.054 1.363-1.406 4.137-2.56 7.756 3.29 3.62 5.85" transform="translate(0 -197)"/></svg>