<?xml version="1.0" encoding="UTF-8" standalone="no"?>
<!-- Created with Inkscape (http://www.inkscape.org/) -->

<svg
   xmlns:dc="http://purl.org/dc/elements/1.1/"
   xmlns:cc="http://creativecommons.org/ns#"
   xmlns:rdf="http://www.w3.org/1999/02/22-rdf-syntax-ns#"
   xmlns:svg="http://www.w3.org/2000/svg"
   xmlns="http://www.w3.org/2000/svg"
   xmlns:sodipodi="http://sodipodi.sourceforge.net/DTD/sodipodi-0.dtd"
   xmlns:inkscape="http://www.inkscape.org/namespaces/inkscape"
   width="10cm"
   height="10cm"
   viewBox="0 0 100 99.999997"
   version="1.1"
   id="svg8"
   sodipodi:docname="poka.svg"
   inkscape:version="0.92.3 (2405546, 2018-03-11)">
  <defs
     id="defs2" />
  <sodipodi:namedview
     id="base"
     pagecolor="#ffffff"
     bordercolor="#666666"
     borderopacity="1.0"
     inkscape:pageopacity="0.0"
     inkscape:pageshadow="2"
     inkscape:zoom="1"
     inkscape:cx="175.50186"
     inkscape:cy="186.50542"
     inkscape:document-units="cm"
     inkscape:current-layer="layer1"
     showgrid="true"
     units="cm"
     inkscape:window-width="881"
     inkscape:window-height="707"
     inkscape:window-x="971"
     inkscape:window-y="213"
     inkscape:window-maximized="0"
     inkscape:snap-nodes="false">
    <inkscape:grid
       type="xygrid"
       id="grid815"
       units="cm"
       spacingx="9.9999998"
       spacingy="9.9999998" />
  </sodipodi:namedview>
  <metadata
     id="metadata5">
    <rdf:RDF>
      <cc:Work
         rdf:about="">
        <dc:format>image/svg+xml</dc:format>
        <dc:type
           rdf:resource="http://purl.org/dc/dcmitype/StillImage" />
        <dc:title></dc:title>
      </cc:Work>
    </rdf:RDF>
  </metadata>
  <g
     inkscape:label="Layer 1"
     inkscape:groupmode="layer"
     id="layer1"
     transform="translate(0,-197.00002)">
    <path
       style="opacity:1;fill:#020900;fill-opacity:1;stroke:none;stroke-width:1;stroke-linecap:butt;stroke-linejoin:round;stroke-miterlimit:4;stroke-dasharray:none;stroke-opacity:1"
       id="path1419"
       d="m 17.094628,232.57264 c 0.0015,0.11699 0.0061,0.27586 0.0089,0.41495 0.0058,0.26642 0.02293,0.53239 0.03777,0.79841 0.02532,0.45376 0.05281,0.9074 0.0803,1.36104 0.03575,0.60826 0.06988,1.21662 0.103286,1.82502 0.03863,0.74056 0.07235,1.48136 0.10935,2.222 0.04218,0.81659 0.08909,1.63292 0.132879,2.44943 0.04444,0.83229 0.08361,1.66485 0.12132,2.49747 0.03501,0.77486 0.06647,1.54988 0.09681,2.32493 0.02658,0.68578 0.05201,1.37161 0.07684,2.05746 0.02065,0.57538 0.04101,1.15078 0.0611,1.72619 0.01776,0.50374 0.03381,1.00754 0.04909,1.51136 0.01226,0.47228 0.0201,0.94466 0.02812,1.41703 0.007,0.41692 0.01325,0.83384 0.01938,1.25077 0.0052,0.35612 0.01026,0.71223 0.01533,1.06834 0.0041,0.28584 0.0081,0.57168 0.0122,0.85752 0.0032,0.22786 0.0065,0.45572 0.0097,0.68358 -0.01002,0.071 0.02216,0.36735 -0.0029,0.10335 -0.06367,-0.55182 -0.336364,-1.02047 -0.683887,-1.44015 -0.179312,-0.19244 -0.387072,-0.35749 -0.622289,-0.47564 0.142907,0.0183 0.31975,0.0521 0.471763,0.075 0.467299,0.0671 0.937395,0.11159 1.407476,0.15366 0.643117,0.0558 1.287584,0.0939 1.932015,0.13054 0.749165,0.0418 1.49877,0.075 2.24845,0.10598 0.828394,0.032 1.657161,0.0525 2.485932,0.0717 0.901929,0.0203 1.803938,0.0368 2.705958,0.0524 0.916725,0.0157 1.833488,0.0291 2.750259,0.0418 0.893439,0.014 1.786927,0.0223 2.680464,0.0256 0.894747,7.9e-4 1.789499,7.9e-4 2.684241,-0.002 0.92561,-0.003 1.851101,-0.0189 2.77654,-0.036 0.973698,-0.0193 1.947246,-0.0453 2.920812,-0.0702 1.005874,-0.0259 2.011831,-0.0483 3.017816,-0.0693 1.013487,-0.021 2.027034,-0.0388 3.040594,-0.0556 0.999541,-0.0165 1.999113,-0.0307 2.998695,-0.0443 0.94701,-0.008 1.893753,-0.0263 2.840284,-0.0571 0.928772,-0.0347 1.857499,-0.0707 2.786229,-0.10645 0.837176,-0.0334 1.674172,-0.071 2.511179,-0.1084 0.689417,-0.0308 1.378828,-0.0618 2.06824,-0.0927 0.550079,-0.0247 1.100158,-0.0493 1.65024,-0.074 0.432803,-0.0193 0.865603,-0.0387 1.298374,-0.0588 0.319818,-0.0154 0.639638,-0.0307 0.959509,-0.045 0.233696,-0.0104 0.4674,-0.0206 0.701072,-0.0315 -0.831324,0.0126 -1.492255,0.50071 -2.056286,1.05852 -0.213836,0.25503 -0.369515,0.53644 -0.4845,0.84572 -0.01058,0.0285 -0.03189,0.11528 -0.03281,0.0849 -5.29e-4,-0.0211 0.003,-0.0422 0.0045,-0.0633 0.0305,-0.36857 0.0164,-0.7384 -0.0016,-1.10714 -0.03898,-0.64127 -0.106426,-1.28038 -0.171984,-1.91935 -0.08961,-0.83755 -0.183229,-1.67463 -0.268841,-2.51261 -0.09316,-0.91278 -0.17232,-1.82686 -0.23704,-2.74208 -0.05964,-0.9041 -0.106513,-1.80898 -0.153003,-2.71383 -0.04113,-0.80265 -0.07945,-1.60543 -0.116422,-2.40828 -0.03326,-0.72509 -0.0635,-1.45032 -0.09285,-2.17559 -0.02614,-0.64972 -0.05062,-1.2995 -0.07394,-1.94932 -0.02072,-0.58412 -0.03977,-1.16829 -0.05884,-1.75246 -0.01603,-0.4905 -0.0316,-0.98102 -0.04677,-1.47155 -0.01479,-0.43652 -0.025,-0.87317 -0.03155,-1.3099 -0.0067,-0.3833 -0.0046,-0.76666 7.94e-4,-1.14996 0.005,-0.29888 0.01124,-0.59773 0.01733,-0.89658 0.005,-0.2399 0.0097,-0.47979 0.01434,-0.71969 0.0039,-0.20292 0.0077,-0.40584 0.01146,-0.60876 0.003,-0.165 0.0061,-0.33 0.0092,-0.495 0.0024,-0.13552 0.0049,-0.27103 0.0073,-0.40655 0.0019,-0.11012 0.0039,-0.22025 0.0058,-0.33038 0.0016,-0.0882 0.0031,-0.17643 0.0046,-0.26464 0.0013,-0.0736 0.0024,-0.14719 0.0037,-0.22078 0.0011,-0.059 0.0019,-0.11795 0.003,-0.17692 7.94e-4,-0.047 0.0016,-0.094 0.0024,-0.14103 5.29e-4,-0.0375 0.0013,-0.0749 0.0019,-0.1124 5.29e-4,-0.0299 0.0011,-0.0597 0.0016,-0.0896 2.65e-4,-0.0238 7.94e-4,-0.0476 0.0013,-0.0714 2.65e-4,-0.0178 5.29e-4,-0.0355 7.94e-4,-0.0533 2.62e-4,-0.0144 2.65e-4,-0.0288 5.29e-4,-0.0431 1.99e-4,-0.0181 2.65e-4,-0.0363 5.29e-4,-0.0545 1.54e-4,-0.0174 2.65e-4,-0.0348 5.29e-4,-0.0521 1.3e-4,-0.0158 2.57e-4,-0.0316 2.65e-4,-0.0474 1.11e-4,-0.0117 1.75e-4,-0.0234 2.59e-4,-0.0351 8e-5,-0.0135 1.56e-4,-0.0269 2.36e-4,-0.0403 2.4e-5,-0.004 4.5e-5,-0.008 6.9e-5,-0.012 0.02808,-4.86423 6.907138,-4.82451 6.879052,0.0397 v 0 c -2.3e-5,0.004 -4.7e-5,0.008 -7.1e-5,0.0121 -8.2e-5,0.0143 -1.64e-4,0.0286 -2.51e-4,0.043 -1.09e-4,0.016 -2.07e-4,0.0321 -2.65e-4,0.0481 -1.27e-4,0.0159 -2.54e-4,0.0318 -2.65e-4,0.0476 -1.69e-4,0.021 -2.64e-4,0.0421 -5.29e-4,0.0631 -2.11e-4,0.0209 -5.29e-4,0.0418 -5.29e-4,0.0626 -2.64e-4,0.0243 -5.29e-4,0.0487 -0.0011,0.073 -2.65e-4,0.0211 -7.94e-4,0.0422 -0.0011,0.0633 -5.29e-4,0.0238 -7.93e-4,0.0476 -0.0013,0.0714 -5.3e-4,0.0299 -0.0011,0.0597 -0.0016,0.0896 -5.29e-4,0.0375 -0.0013,0.0749 -0.0019,0.1124 -7.94e-4,0.047 -0.0016,0.094 -0.0024,0.14104 -0.0011,0.059 -0.0019,0.11796 -0.003,0.17695 -0.0013,0.074 -0.0024,0.1481 -0.0037,0.22215 -0.0016,0.0899 -0.0031,0.17986 -0.0047,0.26978 -0.0019,0.11021 -0.0039,0.22042 -0.0058,0.33062 -0.0024,0.13718 -0.0048,0.27435 -0.0074,0.41152 -0.003,0.16543 -0.0061,0.33086 -0.0092,0.49629 -0.0038,0.2047 -0.0076,0.4094 -0.01156,0.61409 -0.0047,0.24231 -0.0095,0.48462 -0.0145,0.72692 -0.0058,0.28504 -0.01177,0.57008 -0.01662,0.85514 -0.0047,0.31641 -0.0065,0.63288 -7.93e-4,0.9493 0.0058,0.39973 0.01548,0.79938 0.02901,1.19893 0.01505,0.48666 0.03051,0.9733 0.0464,1.45993 0.01881,0.57673 0.03763,1.15346 0.05807,1.73014 0.02294,0.63932 0.04702,1.27859 0.07274,1.91781 0.02883,0.71251 0.05852,1.425 0.09119,2.13735 0.0364,0.79066 0.07415,1.58127 0.114644,2.37174 0.04424,0.86129 0.08877,1.72261 0.145047,2.58323 0.05919,0.84339 0.132916,1.68562 0.218466,2.52677 0.08543,0.837 0.179438,1.67305 0.268539,2.50965 0.07876,0.7684 0.15866,1.53712 0.200771,2.3086 0.03262,0.74831 0.04406,1.49925 -0.04109,2.24495 -0.122875,0.94659 -0.356135,1.8546 -0.959289,2.62269 -0.175329,0.18308 -0.33364,0.38413 -0.525989,0.54925 -0.688063,0.59064 -1.557404,0.90119 -2.454741,0.94865 -0.238085,0.0111 -0.476202,0.0215 -0.714314,0.0321 -0.316193,0.0141 -0.632339,0.0292 -0.948479,0.0445 -0.436065,0.0202 -0.872156,0.0397 -1.30825,0.0592 -0.550093,0.0247 -1.100185,0.0493 -1.650278,0.074 -0.689912,0.0309 -1.379826,0.0619 -2.069743,0.0927 -0.850995,0.038 -1.701982,0.0762 -2.55315,0.11015 -0.94258,0.0363 -1.885151,0.0728 -2.827776,0.10792 -0.989724,0.032 -1.97966,0.0517 -2.969882,0.0601 -0.992672,0.0135 -1.985338,0.0276 -2.977967,0.044 -1.003734,0.0167 -2.007455,0.0342 -3.011112,0.0551 -0.99531,0.0208 -1.990593,0.043 -2.985794,0.0686 -0.989843,0.0253 -1.979668,0.0517 -2.969649,0.0713 -0.95948,0.0177 -1.919017,0.0337 -2.878677,0.0371 -0.911606,0.003 -1.823225,0.003 -2.734837,0.002 -0.916625,-0.003 -1.8332,-0.0118 -2.749724,-0.0262 -0.924748,-0.0128 -1.849488,-0.0263 -2.774191,-0.0421 -0.915397,-0.0158 -1.830783,-0.0326 -2.746087,-0.0532 -0.870494,-0.0201 -1.740982,-0.0418 -2.611071,-0.0757 -0.785396,-0.0325 -1.570713,-0.0673 -2.355565,-0.11124 -0.719243,-0.041 -1.438487,-0.0841 -2.156214,-0.147 -0.616904,-0.0556 -1.233689,-0.11596 -1.846504,-0.20737 -0.618989,-0.0975 -1.237789,-0.21301 -1.827949,-0.42994 -0.710044,-0.28026 -1.383666,-0.63642 -1.919949,-1.1933 -0.594421,-0.67643 -1.048312,-1.43354 -1.170529,-2.34268 -0.0422,-0.33089 -0.07125,-0.66271 -0.06819,-0.99668 -0.0032,-0.22786 -0.0065,-0.45572 -0.0097,-0.68357 -0.0041,-0.28581 -0.0081,-0.57161 -0.0122,-0.85741 -0.0051,-0.35505 -0.0101,-0.71011 -0.01528,-1.06516 -0.0061,-0.41174 -0.01225,-0.82348 -0.01914,-1.23521 -0.0075,-0.44176 -0.01484,-0.88352 -0.02595,-1.32521 -0.01496,-0.49331 -0.03067,-0.9866 -0.04806,-1.47984 -0.01999,-0.57244 -0.04024,-1.14487 -0.06078,-1.7173 -0.02459,-0.67912 -0.04977,-1.35821 -0.07608,-2.03727 -0.02979,-0.76103 -0.06067,-1.52202 -0.09504,-2.28286 -0.03684,-0.81355 -0.07509,-1.62704 -0.118491,-2.44028 -0.04423,-0.82488 -0.09169,-1.6496 -0.134183,-2.47458 -0.03643,-0.72935 -0.06973,-1.45886 -0.107575,-2.18815 -0.03268,-0.5954 -0.0661,-1.19076 -0.101034,-1.78603 -0.02815,-0.46464 -0.05628,-0.92928 -0.08222,-1.39405 -0.01943,-0.34838 -0.04049,-0.69676 -0.0471,-1.04569 -0.0036,-0.18357 -0.0095,-0.36712 -0.01019,-0.55072 0,-4.86431 6.879167,-4.86431 6.879167,0 z"
       inkscape:connector-curvature="0" />
    <path
       style="opacity:1;fill:#020900;fill-opacity:1;stroke:none;stroke-width:1;stroke-linecap:butt;stroke-linejoin:round;stroke-miterlimit:4;stroke-dasharray:none;stroke-opacity:1"
       id="path1421"
       d="m 84.244856,242.37418 c 0.324636,-0.19833 0.608113,-0.45344 0.828247,-0.76348 0.006,-0.0249 0.04511,-0.0648 0.05828,-0.0805 -0.03317,0.12415 -0.06431,0.24881 -0.09376,0.37391 -0.01929,0.0831 -0.03638,0.16716 -0.03391,0.25269 0.01553,0.0684 0.02402,0.13933 0.03491,0.2088 0.0369,0.22404 0.08737,0.44535 0.141306,0.66579 0.02958,0.10646 0.0597,0.2141 0.112776,0.31164 -0.01738,-0.0798 -0.0716,-0.14764 -0.12003,-0.21165 -0.06028,-0.077 -0.136078,-0.13923 -0.209818,-0.20267 -0.06253,-0.0411 -0.07971,-0.0454 0.01085,-0.0417 0.03815,0.001 0.08018,0.002 0.113255,-0.0169 -0.134792,0.008 -0.26308,0.0606 -0.383688,0.11807 -0.04832,0.0113 -0.0812,0.0439 -0.11802,0.0777 -0.03687,0.0288 -0.07719,0.10066 -0.04875,0.0156 0.02088,-0.0471 0.02394,-0.0965 0.03029,-0.1466 0.01019,-0.0572 0.0013,-0.057 -0.0037,-0.0923 -0.01834,-0.0751 0.0016,0.0677 0.0033,0.0779 -0.0016,0.039 -0.05746,-0.11082 -0.07122,-0.14028 -0.0516,-0.11378 -0.111189,-0.22351 -0.173419,-0.33173 -0.07998,-0.12197 0.01744,0.0279 0.04027,0.058 0.133612,0.16773 0.318706,0.28261 0.500922,0.39021 0.03344,0.0373 0.378936,0.15176 0.331272,0.14826 -0.03851,-0.0124 -0.33401,-0.0341 -0.159922,-0.019 0.136461,0.003 0.06673,0.003 0.209195,-0.003 -4.837533,0.50967 -5.558311,-6.33163 -0.720781,-6.8413 v 0 c 0.420082,-0.0354 0.210773,-0.0243 0.627904,-0.0339 0.374338,0.0114 0.747305,0.0407 1.117092,0.1023 0.575781,0.0946 1.14513,0.23248 1.671167,0.49347 0.585594,0.31433 1.131046,0.68915 1.56814,1.19656 0.299149,0.34587 0.576345,0.71001 0.796991,1.11198 0.161878,0.28655 0.316056,0.57748 0.451872,0.87744 0.179014,0.39633 0.344323,0.79974 0.457914,1.2204 0.130405,0.51938 0.222837,1.04718 0.227621,1.58446 0.0043,0.51672 -0.02408,1.03343 -0.127312,1.54111 -0.112583,0.54511 -0.26017,1.08288 -0.487998,1.59248 -0.264154,0.5821 -0.570674,1.14543 -0.985033,1.63645 -0.43757,0.50145 -0.919387,0.96053 -1.487038,1.31438 -0.657822,0.39562 -1.356669,0.71083 -2.120704,0.83438 -0.64825,0.10078 -1.303017,0.14751 -1.957879,0.0775 -0.733994,-0.0813 -1.461072,-0.22425 -2.138537,-0.53002 -0.717442,-0.33656 -1.396836,-0.74641 -1.94708,-1.32644 -0.477874,-0.52187 -0.901417,-1.08779 -1.185119,-1.74117 -0.207756,-0.47889 -0.388794,-0.96892 -0.509529,-1.47776 -0.103841,-0.42941 -0.197927,-0.86137 -0.263927,-1.29843 -0.07621,-0.53748 -0.127061,-1.07956 -0.09368,-1.62301 0.03355,-0.47846 0.09204,-0.9549 0.207555,-1.42133 0.09408,-0.39335 0.195051,-0.78577 0.333407,-1.1663 0.159766,-0.42127 0.341198,-0.83489 0.583123,-1.21652 0.361722,-0.55461 0.79349,-1.05381 1.363477,-1.40532 4.136453,-2.55954 7.756181,3.29029 3.619728,5.84983 z"
       inkscape:connector-curvature="0" />
  </g>
</svg>
