<?xml version="1.0" encoding="UTF-8" standalone="no"?>
<!-- Created with Inkscape (http://www.inkscape.org/) -->

<svg
   xmlns:dc="http://purl.org/dc/elements/1.1/"
   xmlns:cc="http://creativecommons.org/ns#"
   xmlns:rdf="http://www.w3.org/1999/02/22-rdf-syntax-ns#"
   xmlns:svg="http://www.w3.org/2000/svg"
   xmlns="http://www.w3.org/2000/svg"
   xmlns:sodipodi="http://sodipodi.sourceforge.net/DTD/sodipodi-0.dtd"
   xmlns:inkscape="http://www.inkscape.org/namespaces/inkscape"
   width="10cm"
   height="10cm"
   viewBox="0 0 100 99.999997"
   version="1.1"
   id="svg8"
   sodipodi:docname="poki.svg"
   inkscape:version="0.92.3 (2405546, 2018-03-11)">
  <defs
     id="defs2" />
  <sodipodi:namedview
     id="base"
     pagecolor="#ffffff"
     bordercolor="#666666"
     borderopacity="1.0"
     inkscape:pageopacity="0.0"
     inkscape:pageshadow="2"
     inkscape:zoom="1"
     inkscape:cx="175.50186"
     inkscape:cy="186.50542"
     inkscape:document-units="cm"
     inkscape:current-layer="layer1"
     showgrid="true"
     units="cm"
     inkscape:window-width="881"
     inkscape:window-height="707"
     inkscape:window-x="971"
     inkscape:window-y="213"
     inkscape:window-maximized="0"
     inkscape:snap-nodes="false">
    <inkscape:grid
       type="xygrid"
       id="grid815"
       units="cm"
       spacingx="9.9999998"
       spacingy="9.9999998" />
  </sodipodi:namedview>
  <metadata
     id="metadata5">
    <rdf:RDF>
      <cc:Work
         rdf:about="">
        <dc:format>image/svg+xml</dc:format>
        <dc:type
           rdf:resource="http://purl.org/dc/dcmitype/StillImage" />
        <dc:title></dc:title>
      </cc:Work>
    </rdf:RDF>
  </metadata>
  <g
     inkscape:label="Layer 1"
     inkscape:groupmode="layer"
     id="layer1"
     transform="translate(0,-197.00002)">
    <path
       style="opacity:1;fill:#020900;fill-opacity:1;stroke:none;stroke-width:1;stroke-linecap:butt;stroke-linejoin:round;stroke-miterlimit:4;stroke-dasharray:none;stroke-opacity:1"
       id="path1423"
       d="m 23.858042,216.58337 c 0.05631,0.25432 0.09849,0.51143 0.137962,0.76881 0.05514,0.37109 0.100197,0.74354 0.141723,1.11637 0.05405,0.49457 0.0921,0.99066 0.126571,1.48691 0.03957,0.5935 0.06882,1.18762 0.100877,1.78156 0.04018,0.72491 0.07166,1.45025 0.10018,2.1757 0.03323,0.86441 0.05795,1.7291 0.08099,2.59383 0.02615,0.98961 0.04525,1.97937 0.06461,2.96912 0.02193,1.15902 0.04953,2.31792 0.0796,3.47675 0.0362,1.33624 0.07463,2.67241 0.109541,4.00869 0.03668,1.41305 0.06735,2.82626 0.09627,4.23949 0.02903,1.42983 0.05351,2.85975 0.07682,4.28969 0.0225,1.39245 0.04231,2.78494 0.06116,4.17745 0.01788,1.32976 0.03361,2.65955 0.04873,3.98934 0.01419,1.25139 0.02685,2.5028 0.03883,3.75421 0.01123,1.18541 0.02122,2.37084 0.03094,3.55626 0.0086,1.04968 0.01668,2.09936 0.02464,3.14905 0.0069,0.91416 0.01344,1.82833 0.01965,2.7425 0.0057,0.84504 0.01079,1.69007 0.01566,2.53511 0.0043,0.76151 0.0084,1.52301 0.01247,2.28452 0.0034,0.6427 0.0067,1.2854 0.0099,1.9281 0.0027,0.52294 0.0053,1.04588 0.0079,1.56882 0.0022,0.44117 0.0042,0.88233 0.0063,1.3235 0.0017,0.35911 0.0034,0.71821 0.005,1.07731 0.0018,0.281 0.0018,0.56202 0.0045,0.84302 -0.0074,0.0316 0.01428,0.42588 0.0077,0.29013 -0.03288,-0.39221 -0.223058,-0.73643 -0.425253,-1.06476 -0.261731,-0.3713 -0.609892,-0.65861 -1.021613,-0.84654 -0.196891,-0.058 0.326208,0.0287 0.33645,0.03 0.425291,0.0487 0.852602,0.076 1.279815,0.10096 0.620517,0.0345 1.241583,0.0577 1.862645,0.0796 0.754478,0.026 1.509146,0.0458 2.26383,0.0646 0.791843,0.0219 1.583749,0.0364 2.375898,0.0362 0.812414,-0.005 1.624637,-0.0253 2.436868,-0.0421 0.854665,-0.0178 1.709391,-0.0323 2.564074,-0.0491 0.907241,-0.0184 1.814476,-0.0369 2.721748,-0.0536 0.960784,-0.0176 1.921587,-0.0337 2.882498,-0.042 0.965128,-0.007 1.930286,-0.009 2.89542,-0.0147 0.932844,-0.006 1.865386,-0.0317 2.797699,-0.0624 0.931965,-0.0311 1.86323,-0.0793 2.794402,-0.1281 0.928947,-0.0503 1.857946,-0.0997 2.786861,-0.15056 0.883013,-0.0485 1.765041,-0.11264 2.647149,-0.17505 0.869963,-0.0619 1.739841,-0.12496 2.609831,-0.1865 0.811776,-0.0568 1.623674,-0.11186 2.435577,-0.16682 0.715129,-0.0473 1.430118,-0.0967 2.145128,-0.14582 0.60153,-0.0412 1.203092,-0.082 1.804654,-0.12276 0.481555,-0.0326 0.963112,-0.0652 1.44467,-0.0979 0.389887,-0.0257 0.779589,-0.0543 1.169604,-0.078 0.40259,-0.0258 0.805973,-0.0145 1.208299,0.009 0.228057,0.0138 0.455747,0.0329 0.683442,0.0516 0.16106,0.0133 0.322112,0.0267 0.483167,0.04 0.05438,0.006 0.434043,0.0333 0.204202,0.0181 -1.055052,-0.0389 -1.848556,0.44458 -2.556237,1.18364 -0.231204,0.26904 -0.398359,0.62739 -0.505209,0.94198 0.01744,-0.1728 0.0173,-0.34657 0.01783,-0.52005 7.94e-4,-0.48047 -0.02193,-0.96048 -0.0466,-1.44017 -0.03789,-0.67857 -0.09333,-1.356 -0.145552,-2.03356 -0.074,-0.91188 -0.136488,-1.82456 -0.191958,-2.73773 -0.0603,-1.06687 -0.118806,-2.1338 -0.191249,-3.19993 -0.08162,-1.11664 -0.170053,-2.23275 -0.25011,-3.3495 -0.08527,-1.19563 -0.15434,-2.39231 -0.219229,-3.58919 -0.06814,-1.2632 -0.110678,-2.52756 -0.145597,-3.79205 -0.03321,-1.33321 -0.05551,-2.66665 -0.0771,-4.00008 -0.01886,-1.39286 -0.04004,-2.78561 -0.07786,-4.17809 -0.03858,-1.39257 -0.104571,-2.78413 -0.171791,-4.17555 -0.06834,-1.37784 -0.129778,-2.756 -0.187534,-4.13432 -0.05504,-1.32796 -0.104037,-2.65615 -0.151411,-3.9844 -0.04168,-1.1927 -0.08057,-2.38549 -0.124616,-3.5781 -0.03723,-1.02769 -0.07929,-2.05518 -0.12048,-3.08271 -0.03644,-0.93922 -0.07559,-1.87833 -0.113359,-2.81749 -0.03174,-0.81668 -0.0656,-1.63328 -0.09955,-2.44988 -0.02768,-0.66474 -0.05528,-1.32949 -0.08289,-1.99423 -0.02204,-0.53089 -0.0441,-1.06177 -0.06615,-1.59265 -0.01757,-0.42315 -0.03515,-0.84629 -0.05272,-1.26944 -0.01463,-0.32924 -0.03078,-0.65842 -0.04677,-0.9876 -0.01318,-0.27023 -0.02635,-0.54046 -0.03936,-0.8107 -0.01058,-0.21965 -0.02106,-0.43931 -0.03146,-0.65897 -0.0085,-0.18013 -0.01685,-0.36026 -0.02516,-0.5404 -0.0066,-0.1439 -0.01328,-0.28781 -0.01992,-0.43172 -0.0053,-0.11467 -0.01058,-0.22934 -0.01587,-0.34401 -0.015,-0.21819 0.0091,0.0676 0.0172,0.1336 -0.723418,-4.81021 6.079247,-5.83328 6.802668,-1.02307 v 0 c 0.02537,0.1901 0.04717,0.3806 0.052,0.57253 0.0053,0.11466 0.01058,0.22933 0.01588,0.344 0.0066,0.14376 0.01326,0.28752 0.0199,0.43127 0.0082,0.17735 0.01638,0.35471 0.02479,0.53205 0.01032,0.21793 0.02072,0.43585 0.03121,0.65378 0.01296,0.26928 0.02611,0.53856 0.03922,0.80784 0.01677,0.34529 0.03374,0.69057 0.04895,1.03594 0.01757,0.42314 0.03515,0.84628 0.05272,1.26943 0.02204,0.53087 0.0441,1.06175 0.06615,1.59262 0.02761,0.66466 0.05521,1.32932 0.08288,1.99398 0.03408,0.81971 0.06808,1.63943 0.09994,2.45924 0.03777,0.93945 0.07695,1.87884 0.113389,2.81833 0.04148,1.03477 0.08382,2.0695 0.12132,3.10442 0.04414,1.1955 0.0832,2.39117 0.124928,3.58675 0.04686,1.31399 0.09532,2.62792 0.149752,3.94161 0.05713,1.36368 0.117922,2.72719 0.185549,4.09039 0.06955,1.43991 0.13751,2.87999 0.177279,4.3211 0.03834,1.41748 0.06047,2.83523 0.07948,4.2531 0.02117,1.30737 0.043,2.61475 0.07539,3.9219 0.0331,1.20354 0.07341,2.40696 0.138126,3.60928 0.06269,1.15704 0.129349,2.3139 0.211714,3.46974 0.08063,1.12543 0.170122,2.25018 0.251923,3.37552 0.07336,1.0825 0.133588,2.16574 0.194403,3.24901 0.05309,0.87583 0.113212,1.75118 0.184247,2.62576 0.05676,0.73649 0.116692,1.47284 0.156898,2.21047 0.03134,0.61476 0.0584,1.23001 0.05539,1.84574 -0.0058,0.56354 -0.02736,1.12828 -0.126349,1.68443 -0.143184,0.75545 -0.379672,1.47832 -0.859589,2.09442 -0.149381,0.16135 -0.283265,0.33857 -0.448146,0.48405 -0.727786,0.64214 -1.650537,0.97439 -2.616993,0.95345 -0.186082,-0.009 -0.371753,-0.0207 -0.557229,-0.0383 -0.159197,-0.0132 -0.318397,-0.0264 -0.477602,-0.0396 -0.17468,-0.0143 -0.349337,-0.0293 -0.524261,-0.0404 -0.130061,-0.008 -0.26053,-0.0176 -0.390835,-0.009 -0.372877,0.0221 -0.745355,0.0507 -1.11811,0.0747 -0.481468,0.0326 -0.962938,0.0652 -1.444406,0.0979 -0.599543,0.0406 -1.199086,0.0813 -1.798598,0.12234 -0.717219,0.0493 -1.43442,0.0988 -2.15176,0.14628 -0.804987,0.0545 -1.609969,0.10905 -2.414829,0.16538 -0.86996,0.0615 -1.739807,0.12462 -2.609744,0.18649 -0.918543,0.065 -1.83702,0.13156 -2.756516,0.18192 -0.934342,0.0512 -1.868766,0.10084 -2.803139,0.15143 -0.975953,0.0511 -1.952016,0.10134 -2.928805,0.13382 -0.993767,0.0325 -1.987786,0.0595 -2.982116,0.0659 -0.959046,0.006 -1.918113,0.008 -2.877153,0.0145 -0.938388,0.008 -1.876666,0.0241 -2.814929,0.0411 -0.904372,0.0167 -1.808705,0.0351 -2.713045,0.0534 -0.852448,0.0168 -1.704938,0.0312 -2.557368,0.049 -0.859829,0.0178 -1.719659,0.0392 -2.579695,0.0436 -0.849011,-2.6e-4 -1.697792,-0.0146 -2.546474,-0.0384 -0.778677,-0.0194 -1.557332,-0.0399 -2.335792,-0.0668 -0.675057,-0.0239 -1.350107,-0.0494 -2.024548,-0.0873 -0.584937,-0.0347 -1.169923,-0.0742 -1.751782,-0.14515 -0.607018,-0.0798 -1.214113,-0.17848 -1.794001,-0.38208 -0.861851,-0.33329 -1.639356,-0.80675 -2.196874,-1.56399 -0.431059,-0.65554 -0.763929,-1.35095 -0.847642,-2.14142 -0.04049,-0.35874 -0.06339,-0.71845 -0.06066,-1.07967 -0.0027,-0.29186 -0.0031,-0.58373 -0.0047,-0.87559 -0.0017,-0.35906 -0.0033,-0.71811 -0.005,-1.07717 -0.0021,-0.44055 -0.0041,-0.88109 -0.0063,-1.32164 -0.0026,-0.52262 -0.0053,-1.04524 -0.0079,-1.56786 -0.0033,-0.64226 -0.0066,-1.28452 -0.0099,-1.92678 -0.004,-0.76042 -0.0081,-1.52083 -0.01246,-2.28125 -0.0049,-0.84268 -0.0099,-1.68536 -0.01562,-2.52804 -0.0062,-0.91236 -0.01268,-1.82472 -0.01961,-2.73708 -0.0079,-1.04826 -0.01607,-2.09653 -0.02461,-3.14479 -0.0097,-1.18228 -0.01965,-2.36455 -0.03085,-3.54682 -0.01194,-1.2473 -0.02455,-2.49459 -0.0387,-3.74187 -0.01506,-1.32482 -0.03073,-2.64964 -0.04854,-3.97443 -0.01876,-1.38616 -0.03848,-2.77231 -0.06088,-4.15842 -0.02315,-1.4204 -0.04746,-2.84079 -0.07629,-4.26109 -0.02865,-1.40025 -0.05902,-2.80048 -0.09536,-4.20056 -0.03492,-1.33668 -0.07339,-2.67327 -0.109574,-4.00992 -0.03043,-1.17344 -0.05839,-2.34695 -0.0806,-3.52057 -0.01905,-0.97359 -0.03779,-1.94719 -0.06349,-2.92063 -0.02224,-0.83574 -0.04607,-1.67146 -0.07812,-2.50689 -0.02716,-0.69191 -0.05713,-1.38371 -0.09549,-2.07509 -0.03016,-0.5591 -0.05765,-1.11837 -0.09444,-1.67708 -0.02769,-0.40164 -0.05788,-0.80317 -0.101049,-1.20349 -0.03099,-0.28073 -0.06467,-0.56116 -0.105479,-0.84066 -0.01555,-0.10391 -0.03136,-0.20785 -0.05235,-0.31081 -1.055175,-4.74848 5.660191,-6.24073 6.715366,-1.49225 z"
       inkscape:connector-curvature="0" />
  </g>
</svg>
