<svg viewBox="0 0 100 100"><path style="opacity:1;fill:#020900;fill-opacity:1;stroke:none;stroke-width:1;stroke-linecap:butt;stroke-linejoin:round;stroke-miterlimit:4;stroke-dasharray:none;stroke-opacity:1" d="M23.858 216.583c.056.255.099.512.138.77a31 31 0 0 1 .268 2.602c.04.594.07 1.188.101 1.782q.059 1.087.1 2.176c.034.864.058 1.729.081 2.594q.038 1.485.065 2.969.034 1.739.08 3.476l.11 4.01q.053 2.118.095 4.239.044 2.145.077 4.29a1594 1594 0 0 1 .11 8.166 2126 2126 0 0 1 .07 7.31 5165 5165 0 0 1 .06 8.427l.03 5.782.006 1.323.005 1.077.005.843c-.008.032.014.426.008.29-.033-.392-.223-.736-.426-1.064a2.5 2.5 0 0 0-1.021-.847c-.197-.058.326.029.336.03.425.049.853.076 1.28.101.62.035 1.242.058 1.863.08q1.132.038 2.263.064c.792.022 1.584.037 2.376.037.813-.005 1.625-.026 2.437-.042l2.564-.05 2.722-.053q1.44-.028 2.883-.042 1.448-.009 2.895-.015c.933-.006 1.865-.032 2.798-.062.932-.031 1.863-.08 2.794-.128l2.787-.15c.883-.05 1.765-.114 2.647-.176l2.61-.186q1.218-.085 2.435-.167l2.146-.146 1.804-.123 1.445-.098c.39-.025.78-.054 1.17-.078a10 10 0 0 1 1.208.01q.342.021.683.05.242.022.483.04c.055.007.434.034.205.019-1.055-.039-1.849.445-2.557 1.184-.23.269-.398.627-.505.942.018-.173.017-.347.018-.52 0-.48-.022-.961-.047-1.44-.037-.68-.093-1.357-.145-2.034q-.11-1.368-.192-2.738c-.06-1.067-.119-2.134-.191-3.2-.082-1.117-.17-2.233-.25-3.35a211 211 0 0 1-.22-3.589c-.068-1.263-.11-2.527-.145-3.792a459 459 0 0 1-.077-4c-.02-1.393-.04-2.785-.078-4.178a203 203 0 0 0-.172-4.175 539 539 0 0 1-.339-8.119c-.042-1.193-.08-2.386-.125-3.578q-.057-1.542-.12-3.083l-.113-2.817q-.048-1.226-.1-2.45l-.083-1.994-.066-1.593-.053-1.27q-.021-.494-.047-.987l-.095-2.01-.02-.432-.016-.344c-.015-.218.009.068.017.134-.723-4.81 6.08-5.834 6.803-1.023.025.19.047.38.052.572l.015.344.02.431.025.532.031.654.04.808.049 1.036.052 1.27.066 1.592.083 1.994q.052 1.23.1 2.46.058 1.408.114 2.818.063 1.552.12 3.104c.045 1.196.084 2.391.126 3.587q.069 1.971.15 3.941.085 2.047.185 4.09c.07 1.44.138 2.88.177 4.322.039 1.417.06 2.835.08 4.253.021 1.307.043 2.615.075 3.922.033 1.203.074 2.407.138 3.61.063 1.156.13 2.313.212 3.469.08 1.125.17 2.25.252 3.375.073 1.083.134 2.166.194 3.25q.08 1.312.185 2.625c.056.737.116 1.473.157 2.21.031.615.058 1.23.055 1.846-.006.564-.027 1.129-.126 1.685-.144.755-.38 1.478-.86 2.094-.15.162-.283.339-.448.484a3.8 3.8 0 0 1-2.617.954q-.28-.014-.557-.039l-.478-.04-.524-.04c-.13-.008-.26-.017-.391-.009-.373.023-.745.051-1.118.075l-1.445.098-1.798.122q-1.076.076-2.152.147l-2.415.165-2.61.187c-.918.065-1.836.131-2.756.181l-2.803.152c-.976.051-1.952.101-2.929.134-.994.032-1.988.06-2.982.066-.96.006-1.918.008-2.877.014q-1.408.014-2.815.041l-2.713.054q-1.279.022-2.558.049c-.86.017-1.72.039-2.58.043a92 92 0 0 1-2.546-.038q-1.167-.028-2.335-.067a98 98 0 0 1-2.025-.087 28 28 0 0 1-1.752-.145c-.607-.08-1.214-.179-1.794-.383-.862-.333-1.64-.806-2.197-1.564-.43-.655-.764-1.35-.847-2.14a9 9 0 0 1-.061-1.08l-.005-.876-.005-1.077-.006-1.322-.008-1.568-.01-1.927a4819 4819 0 0 0-.047-7.546 5151 5151 0 0 0-.056-6.692 2112 2112 0 0 0-.148-11.874q-.034-2.13-.076-4.261-.043-2.1-.096-4.201-.053-2.005-.11-4.01-.046-1.76-.08-3.52-.027-1.461-.063-2.921c-.023-.836-.046-1.672-.078-2.507q-.04-1.038-.096-2.075c-.03-.56-.058-1.118-.094-1.677a24 24 0 0 0-.207-2.044 6 6 0 0 0-.052-.311c-1.055-4.749 5.66-6.24 6.715-1.492z" transform="translate(0 -197)"/></svg>