<?xml version="1.0" encoding="UTF-8" standalone="no"?>
<!-- Created with Inkscape (http://www.inkscape.org/) -->

<svg
   xmlns:dc="http://purl.org/dc/elements/1.1/"
   xmlns:cc="http://creativecommons.org/ns#"
   xmlns:rdf="http://www.w3.org/1999/02/22-rdf-syntax-ns#"
   xmlns:svg="http://www.w3.org/2000/svg"
   xmlns="http://www.w3.org/2000/svg"
   xmlns:sodipodi="http://sodipodi.sourceforge.net/DTD/sodipodi-0.dtd"
   xmlns:inkscape="http://www.inkscape.org/namespaces/inkscape"
   width="10cm"
   height="10cm"
   viewBox="0 0 100 99.999997"
   version="1.1"
   id="svg8"
   sodipodi:docname="pona.svg"
   inkscape:version="0.92.3 (2405546, 2018-03-11)">
  <defs
     id="defs2" />
  <sodipodi:namedview
     id="base"
     pagecolor="#ffffff"
     bordercolor="#666666"
     borderopacity="1.0"
     inkscape:pageopacity="0.0"
     inkscape:pageshadow="2"
     inkscape:zoom="1"
     inkscape:cx="175.50186"
     inkscape:cy="186.50542"
     inkscape:document-units="cm"
     inkscape:current-layer="layer1"
     showgrid="true"
     units="cm"
     inkscape:window-width="881"
     inkscape:window-height="707"
     inkscape:window-x="971"
     inkscape:window-y="213"
     inkscape:window-maximized="0"
     inkscape:snap-nodes="false">
    <inkscape:grid
       type="xygrid"
       id="grid815"
       units="cm"
       spacingx="9.9999998"
       spacingy="9.9999998" />
  </sodipodi:namedview>
  <metadata
     id="metadata5">
    <rdf:RDF>
      <cc:Work
         rdf:about="">
        <dc:format>image/svg+xml</dc:format>
        <dc:type
           rdf:resource="http://purl.org/dc/dcmitype/StillImage" />
        <dc:title></dc:title>
      </cc:Work>
    </rdf:RDF>
  </metadata>
  <g
     inkscape:label="Layer 1"
     inkscape:groupmode="layer"
     id="layer1"
     transform="translate(0,-197.00002)">
    <path
       style="opacity:1;fill:#020900;fill-opacity:1;stroke:none;stroke-width:1;stroke-linecap:butt;stroke-linejoin:round;stroke-miterlimit:4;stroke-dasharray:none;stroke-opacity:1"
       id="path1425"
       d="m 15.642241,238.31547 c 0.01009,0.19841 0.01404,0.39706 0.01803,0.59567 0.0056,0.29513 0.0085,0.59031 0.01132,0.88548 0.0037,0.40148 0.0045,0.80296 0.01241,1.20438 0.0044,0.40337 0.03146,0.80575 0.07117,1.20702 0.04407,0.43356 0.122992,0.86209 0.216558,1.28736 0.11584,0.52565 0.276276,1.03963 0.450861,1.54829 0.215152,0.61278 0.474712,1.20845 0.745085,1.79849 0.310227,0.67251 0.658761,1.32615 1.02037,1.97214 0.39759,0.70116 0.818104,1.38883 1.253394,2.06711 0.427598,0.6657 0.890625,1.30732 1.375861,1.93193 0.463875,0.59706 0.986695,1.14345 1.521688,1.67629 0.579042,0.57548 1.199912,1.10551 1.837203,1.6148 0.699953,0.55633 1.437659,1.06181 2.184434,1.55248 0.803682,0.52811 1.632511,1.01566 2.47451,1.47965 0.842579,0.46175 1.716355,0.86152 2.598717,1.24016 0.912098,0.38875 1.845026,0.7245 2.783765,1.0423 0.957649,0.32209 1.930601,0.59479 2.907409,0.85172 0.973172,0.25729 1.958872,0.46068 2.950297,0.63267 0.97359,0.16595 1.957356,0.25459 2.942233,0.3171 0.98547,0.0588 1.97282,0.0486 2.95888,0.0153 1.003586,-0.0357 2.0027,-0.13857 2.99846,-0.26426 1.045135,-0.13498 2.080006,-0.33502 3.111629,-0.54762 1.045035,-0.21496 2.071296,-0.50701 3.092662,-0.81279 1.073928,-0.32362 2.131888,-0.69628 3.180154,-1.09447 1.031787,-0.39184 2.03509,-0.85195 3.026582,-1.33536 0.959077,-0.46955 1.888164,-0.99639 2.807171,-1.53926 0.842925,-0.4975 1.658572,-1.03869 2.455793,-1.60602 0.696307,-0.49555 1.340726,-1.05701 1.96609,-1.63802 0.617646,-0.57975 1.194715,-1.20013 1.761868,-1.82871 0.515837,-0.57694 1.013653,-1.16962 1.501606,-1.77022 0.41252,-0.50475 0.791602,-1.03488 1.154946,-1.57568 0.361503,-0.5504 0.698428,-1.11638 1.034232,-1.68266 0.304337,-0.51628 0.602724,-1.03608 0.886894,-1.56376 0.25205,-0.46513 0.474284,-0.94529 0.690825,-1.42768 0.200302,-0.44626 0.383246,-0.89991 0.550611,-1.35947 0.142406,-0.39934 0.257183,-0.8076 0.363209,-1.21785 0.09576,-0.36651 0.171916,-0.73757 0.235339,-1.11091 0.05421,-0.32167 0.09076,-0.64593 0.121044,-0.97061 0.02643,-0.3071 0.04624,-0.61473 0.06691,-0.92225 0.01802,-0.26958 0.0359,-0.53916 0.05379,-0.80874 0.01431,-0.2156 0.02861,-0.43121 0.04291,-0.64681 0.0114,-0.17185 0.02281,-0.34371 0.03421,-0.51557 0.0091,-0.13697 0.01818,-0.27395 0.02726,-0.41092 0.0059,-0.0838 0.0091,-0.16783 0.01278,-0.25178 -0.0173,-0.246 0.01259,0.33152 0.02569,0.47836 -0.645907,-4.82124 6.172345,-5.73469 6.818251,-0.91345 v 0 c 0.02312,0.2459 0.04758,0.49167 0.0285,0.73899 -0.006,0.13447 -0.01177,0.26897 -0.02114,0.40325 -0.0091,0.13698 -0.01818,0.27395 -0.02726,0.41093 -0.0114,0.17186 -0.02281,0.34372 -0.03421,0.51557 -0.01431,0.21565 -0.02861,0.4313 -0.04292,0.64695 -0.01802,0.27148 -0.03602,0.54296 -0.05417,0.81443 -0.0249,0.37055 -0.04898,0.74121 -0.08221,1.11114 -0.04785,0.49844 -0.105556,0.99612 -0.190363,1.48981 -0.09791,0.56244 -0.212016,1.12201 -0.357047,1.67441 -0.16329,0.62437 -0.341172,1.24529 -0.561528,1.85229 -0.225285,0.61211 -0.467085,1.21799 -0.735274,1.81273 -0.285324,0.63399 -0.580319,1.26395 -0.911932,1.87535 -0.329141,0.60847 -0.671303,1.20972 -1.023562,1.80512 -0.403296,0.67973 -0.809077,1.35844 -1.245983,2.0173 -0.479782,0.71045 -0.979416,1.40746 -1.522386,2.07144 -0.563468,0.69248 -1.137772,1.37626 -1.733773,2.04109 -0.705019,0.77999 -1.424405,1.54783 -2.193432,2.26566 -0.845323,0.78067 -1.717443,1.53339 -2.65733,2.19947 -0.95608,0.67755 -1.932231,1.32665 -2.942338,1.92148 -1.077757,0.63533 -2.167769,1.25096 -3.292539,1.80004 -1.178819,0.57289 -2.371791,1.11768 -3.598143,1.58221 -1.202893,0.4554 -2.416365,0.88299 -3.648554,1.25307 -1.214035,0.36254 -2.434743,0.70538 -3.676774,0.9599 -1.207267,0.24807 -2.418717,0.47913 -3.64186,0.63529 -1.20497,0.15038 -2.413976,0.27268 -3.628265,0.31403 -1.20912,0.039 -2.41976,0.0489 -3.627938,-0.0258 -1.232741,-0.0805 -2.463892,-0.1949 -3.68218,-0.40525 -1.182647,-0.20736 -2.359014,-0.44941 -3.520074,-0.75721 -1.130364,-0.29816 -2.256052,-0.61526 -3.36409,-0.98911 -1.110602,-0.37711 -2.214023,-0.7763 -3.292846,-1.23774 -1.088818,-0.46922 -2.166522,-0.96551 -3.205914,-1.5375 -0.996794,-0.55134 -1.979128,-1.12863 -2.930859,-1.75523 -0.92579,-0.61005 -1.839224,-1.23996 -2.706226,-1.9321 -0.830611,-0.66773 -1.640685,-1.36136 -2.395502,-2.11481 -0.739494,-0.7404 -1.458445,-1.50268 -2.099215,-2.3316 -0.608092,-0.78732 -1.191832,-1.59335 -1.728349,-2.43157 -0.50928,-0.79553 -1.002578,-1.60127 -1.467124,-2.42389 -0.451117,-0.80877 -0.885749,-1.62711 -1.272176,-2.46912 -0.364448,-0.79984 -0.712703,-1.60786 -0.9997701,-2.43925 -0.2572461,-0.75957 -0.4929036,-1.52702 -0.6625833,-2.31155 -0.1471676,-0.68771 -0.2724523,-1.3803 -0.3402097,-2.08091 -0.054768,-0.57711 -0.09474,-1.15555 -0.1016892,-1.73545 -0.00798,-0.42375 -0.010001,-0.84753 -0.013364,-1.27134 -0.00257,-0.27111 -0.0052,-0.54224 -0.010255,-0.81332 -0.00233,-0.11716 -0.00465,-0.23432 -0.00881,-0.35143 -0.269812,-4.85681 6.5987643,-5.23839 6.8685763,-0.38157 z"
       inkscape:connector-curvature="0" />
  </g>
</svg>
