<svg viewBox="0 0 100 100"><path style="opacity:1;fill:#020900;fill-opacity:1;stroke:none;stroke-width:1;stroke-linecap:butt;stroke-linejoin:round;stroke-miterlimit:4;stroke-dasharray:none;stroke-opacity:1" d="M15.642 238.315q.013.299.018.596.008.442.012.886c.003.401.004.803.012 1.204.004.403.031.806.071 1.207.044.434.123.862.217 1.287.116.526.276 1.04.45 1.549.216.612.475 1.208.746 1.798.31.673.658 1.326 1.02 1.972a44 44 0 0 0 1.253 2.067c.428.666.891 1.308 1.376 1.932.464.597.987 1.144 1.522 1.677.579.575 1.2 1.105 1.837 1.614a30 30 0 0 0 2.185 1.553 37 37 0 0 0 2.474 1.48c.843.461 1.716.861 2.599 1.24.912.388 1.845.724 2.784 1.042.957.322 1.93.595 2.907.852.973.257 1.959.46 2.95.632.974.166 1.958.255 2.943.318.985.058 1.972.048 2.958.015a34 34 0 0 0 2.999-.264 42 42 0 0 0 3.112-.548c1.045-.215 2.07-.507 3.092-.813a48 48 0 0 0 3.18-1.094 37 37 0 0 0 3.027-1.336c.959-.47 1.888-.996 2.807-1.539a34 34 0 0 0 2.456-1.606c.696-.496 1.34-1.057 1.966-1.638.618-.58 1.195-1.2 1.762-1.829a49 49 0 0 0 1.501-1.77c.413-.505.792-1.035 1.155-1.576a43 43 0 0 0 1.035-1.682q.458-.774.887-1.564c.252-.465.474-.945.69-1.428q.3-.67.551-1.36c.142-.399.257-.807.363-1.217.096-.367.172-.738.236-1.11.054-.323.09-.647.12-.972q.039-.46.067-.922l.054-.809.043-.646.034-.516.028-.41q.008-.127.012-.253c-.017-.246.013.332.026.479-.646-4.821 6.172-5.735 6.818-.914.023.246.048.492.029.74q-.008.2-.021.403l-.028.41-.034.516-.043.647-.054.814c-.025.371-.049.742-.082 1.112-.048.498-.106.996-.19 1.49a20 20 0 0 1-.357 1.674 21 21 0 0 1-.562 1.852 28 28 0 0 1-.735 1.813c-.286.634-.58 1.264-.912 1.875q-.495.913-1.024 1.805c-.403.68-.809 1.359-1.246 2.018a28 28 0 0 1-1.522 2.071 56 56 0 0 1-1.734 2.041 37 37 0 0 1-2.193 2.266c-.846.78-1.718 1.533-2.658 2.2a42 42 0 0 1-2.942 1.92 48 48 0 0 1-3.293 1.8 43 43 0 0 1-3.598 1.583 55 55 0 0 1-3.648 1.253c-1.214.363-2.435.705-3.677.96-1.207.248-2.419.48-3.642.635-1.205.15-2.414.273-3.628.314-1.21.04-2.42.05-3.628-.026-1.233-.08-2.464-.194-3.682-.405a42 42 0 0 1-3.52-.757 52 52 0 0 1-3.364-.99 46 46 0 0 1-3.293-1.237c-1.09-.47-2.167-.965-3.206-1.537a44 44 0 0 1-2.931-1.756c-.926-.61-1.84-1.24-2.706-1.932a30 30 0 0 1-2.396-2.114c-.74-.74-1.458-1.503-2.099-2.332a34 34 0 0 1-1.728-2.432 51 51 0 0 1-1.467-2.424 35 35 0 0 1-1.273-2.469c-.364-.8-.712-1.608-1-2.439a21 21 0 0 1-.662-2.311 18.4 18.4 0 0 1-.442-3.817q-.01-.636-.013-1.271l-.01-.813q-.004-.177-.01-.352c-.27-4.857 6.6-5.238 6.87-.381" transform="translate(0 -197)"/></svg>