<?xml version="1.0" encoding="UTF-8" standalone="no"?>
<!-- Created with Inkscape (http://www.inkscape.org/) -->

<svg
   xmlns:dc="http://purl.org/dc/elements/1.1/"
   xmlns:cc="http://creativecommons.org/ns#"
   xmlns:rdf="http://www.w3.org/1999/02/22-rdf-syntax-ns#"
   xmlns:svg="http://www.w3.org/2000/svg"
   xmlns="http://www.w3.org/2000/svg"
   xmlns:sodipodi="http://sodipodi.sourceforge.net/DTD/sodipodi-0.dtd"
   xmlns:inkscape="http://www.inkscape.org/namespaces/inkscape"
   width="10cm"
   height="10cm"
   viewBox="0 0 100 99.999997"
   version="1.1"
   id="svg8"
   sodipodi:docname="pu.svg"
   inkscape:version="0.92.3 (2405546, 2018-03-11)">
  <defs
     id="defs2" />
  <sodipodi:namedview
     id="base"
     pagecolor="#ffffff"
     bordercolor="#666666"
     borderopacity="1.0"
     inkscape:pageopacity="0.0"
     inkscape:pageshadow="2"
     inkscape:zoom="1"
     inkscape:cx="175.50186"
     inkscape:cy="160.37856"
     inkscape:document-units="cm"
     inkscape:current-layer="layer1"
     showgrid="true"
     units="cm"
     inkscape:window-width="882"
     inkscape:window-height="707"
     inkscape:window-x="784"
     inkscape:window-y="204"
     inkscape:window-maximized="0"
     inkscape:snap-nodes="false">
    <inkscape:grid
       type="xygrid"
       id="grid815"
       units="cm"
       spacingx="9.9999998"
       spacingy="9.9999998" />
  </sodipodi:namedview>
  <metadata
     id="metadata5">
    <rdf:RDF>
      <cc:Work
         rdf:about="">
        <dc:format>image/svg+xml</dc:format>
        <dc:type
           rdf:resource="http://purl.org/dc/dcmitype/StillImage" />
        <dc:title></dc:title>
      </cc:Work>
    </rdf:RDF>
  </metadata>
  <g
     inkscape:label="Layer 1"
     inkscape:groupmode="layer"
     id="layer1"
     transform="translate(0,-197.00002)">
    <path
       style="opacity:1;fill:#020900;fill-opacity:1;stroke:none;stroke-width:1;stroke-linecap:butt;stroke-linejoin:round;stroke-miterlimit:4;stroke-dasharray:none;stroke-opacity:1"
       d="m 18.747061,208.6022 c 0.902839,6.47464 0.267542,12.98923 0.118203,19.47973 0.07133,9.61272 0.876736,19.27245 -0.444705,28.84014 -0.311091,7.19609 0.526307,14.40264 -0.147509,21.59095 0.04075,2.2304 0.551304,9.10175 -0.891404,4.71507 6.457741,0.29825 13.042284,1.2597 19.371296,-0.59052 7.571847,-1.21898 15.232956,0.17371 22.849318,0.1379 6.30632,0.34112 12.603864,-0.90824 18.881087,0.13466 2.088858,0.81285 7.318122,-1.49769 3.265089,0.99602 -1.784314,3.01217 -0.321079,-3.78873 -0.582666,-5.0532 1.121467,-10.25435 1.311405,-20.58114 0.646576,-30.87534 -0.413903,-9.8355 -0.14627,-19.69365 0.238238,-29.52664 0.585838,-2.69996 -0.06535,-7.88213 0.969368,-9.0779 -0.335685,1.92215 4.266638,3.02695 0.538675,2.51974 -5.948838,-0.88 -11.799111,1.34091 -17.738997,0.5391 -5.737973,-0.54967 -11.502718,0.70142 -17.201727,-0.51804 -6.324478,-0.23654 -12.808678,1.20849 -19.04648,-0.51777 -4.917046,-0.074 -9.942671,-0.33112 -14.772905,0.24873 -5.473493,-0.91506 -3.234471,-8.3647 1.904688,-7.24728 5.198686,0.27116 10.445643,-0.45278 15.592153,0.50626 7.138665,1.41717 14.465443,-1.00893 21.590449,0.70873 5.330566,-0.23489 10.649055,-0.32531 15.966489,0.15347 5.064398,-0.62957 10.18564,-1.32707 15.30788,-0.66062 6.119456,-0.27027 4.004062,6.87295 4.011428,10.63868 -0.735554,10.32499 -0.785757,20.70597 -0.508126,31.04683 0.679051,11.01472 0.532217,22.06968 -0.663282,33.04358 -0.262163,3.76089 0.82279,9.89697 -4.722991,9.9367 -4.920255,0.3453 -9.826266,-0.80647 -14.766009,-0.3291 -9.720198,0.90994 -19.4701,-0.84476 -29.174614,-0.22313 -6.184836,1.44412 -12.604885,1.84055 -18.901385,1.07866 -4.61602,0.86978 -10.299485,-1.67444 -9.009653,-7.13556 -0.02573,-7.48125 0.457231,-14.96142 0.01286,-22.43876 0.227722,-8.63999 1.524839,-17.26787 0.623741,-25.91422 -0.338735,-6.92026 0.294676,-13.8475 0.290142,-20.75366 -1.544048,-3.58645 -0.156835,-11.32479 5.116173,-8.2024 0.814806,0.658 1.314852,1.69722 1.278599,2.74919 z"
       id="path1759"
       inkscape:connector-curvature="0" />
    <path
       style="opacity:1;fill:#020900;fill-opacity:1;stroke:none;stroke-width:1;stroke-linecap:butt;stroke-linejoin:round;stroke-miterlimit:4;stroke-dasharray:none;stroke-opacity:1"
       d="m 54.752051,240.74079 c -5.270621,0.37558 -11.250665,-0.16552 -15.513615,3.56341 -3.798313,2.58671 -5.930969,6.91318 -6.415501,11.40647 -1.333178,6.45268 2.241016,13.3974 7.899704,16.55241 5.0936,1.90147 10.868387,2.17781 16.24961,1.51618 6.246632,-0.77139 8.19389,-7.60113 9.403391,-12.78841 1.360872,-6.35926 1.246815,-14.40902 -4.481763,-18.66332 -3.495542,-2.74913 -7.917985,1.52715 -11.255151,-0.85227 -3.608491,-5.60918 5.225473,-7.9346 9.39278,-6.88599 8.430473,0.93467 13.476846,9.75793 13.848139,17.58991 0.332395,8.09234 -1.398443,16.72165 -6.391077,23.26683 -5.055834,6.05073 -13.819671,6.09601 -20.998965,5.1216 -5.120827,-0.41886 -10.420535,-1.87349 -13.928448,-5.88441 -4.821009,-5.08306 -7.87788,-12.19467 -6.653203,-19.26736 0.789668,-6.11034 3.367576,-12.21365 8.407476,-16.00296 3.679503,-3.13931 8.335669,-5.00235 13.182896,-5.12632 3.667501,-0.24582 11.754857,-2.10985 10.718042,4.03723 -0.395434,1.52022 -1.891269,2.58679 -3.464315,2.417 z"
       id="path1761"
       inkscape:connector-curvature="0" />
    <path
       style="opacity:1;fill:#020900;fill-opacity:1;stroke:none;stroke-width:1;stroke-linecap:butt;stroke-linejoin:round;stroke-miterlimit:4;stroke-dasharray:none;stroke-opacity:1"
       d="m 62.441243,258.88601 c 0.232531,4.92361 -2.045195,10.59381 -7.365287,11.65904 -5.232144,1.78472 -12.45681,-1.0875 -12.984146,-7.1173 -1.020082,-3.54963 -2.765772,-11.26478 3.235685,-10.65291 4.668446,1.97722 1.222463,8.31704 4.601497,10.91221 5.299315,2.54151 5.317806,-3.91537 6.616145,-7.16317 1.818757,-2.60991 6.139212,-0.65283 5.896106,2.36213 z"
       id="path1763"
       inkscape:connector-curvature="0" />
    <path
       style="opacity:1;fill:#020900;fill-opacity:1;stroke:none;stroke-width:1;stroke-linecap:butt;stroke-linejoin:round;stroke-miterlimit:4;stroke-dasharray:none;stroke-opacity:1"
       d="m 47.55788,228.80717 c -0.695176,-3.69317 -2.59766,-12.69763 3.995284,-10.66108 3.164078,3.09282 3.183063,9.02753 2.252082,13.01211 -1.995702,2.59499 -6.714475,1.15011 -6.247366,-2.35103 z"
       id="path1765"
       inkscape:connector-curvature="0" />
    <path
       style="opacity:1;fill:#020900;fill-opacity:1;stroke:none;stroke-width:1;stroke-linecap:butt;stroke-linejoin:round;stroke-miterlimit:4;stroke-dasharray:none;stroke-opacity:1"
       d="m 59.876218,230.53674 c 1.917236,-3.54345 4.416071,-12.39052 9.781101,-8.38256 2.017963,4.37939 -2.734742,8.81391 -4.516039,12.52662 -2.776448,2.0045 -6.803428,-0.85 -5.265062,-4.14406 z"
       id="path1767"
       inkscape:connector-curvature="0" />
    <path
       style="opacity:1;fill:#020900;fill-opacity:1;stroke:none;stroke-width:1;stroke-linecap:butt;stroke-linejoin:round;stroke-miterlimit:4;stroke-dasharray:none;stroke-opacity:1"
       d="m 32.73657,234.89984 c -3.226208,-3.15461 -8.707255,-5.13237 -9.895928,-9.71726 1.067516,-5.43675 7.797664,-2.41617 9.634416,0.93094 3.453707,1.45886 9.502218,7.34721 3.705713,9.79397 -1.220985,0.35025 -2.628848,-0.0205 -3.444201,-1.00765 z"
       id="path1769"
       inkscape:connector-curvature="0" />
  </g>
</svg>
