<svg viewBox="0 0 100 100"><path style="opacity:1;fill:#020900;fill-opacity:1;stroke:none;stroke-width:1;stroke-linecap:butt;stroke-linejoin:round;stroke-miterlimit:4;stroke-dasharray:none;stroke-opacity:1" d="M18.747 208.602c.903 6.475.268 12.99.118 19.48.072 9.613.877 19.272-.444 28.84-.312 7.196.526 14.403-.148 21.591.04 2.23.551 9.102-.891 4.715 6.457.298 13.042 1.26 19.37-.59 7.573-1.22 15.234.173 22.85.137 6.307.342 12.604-.908 18.881.135 2.09.813 7.318-1.498 3.265.996-1.784 3.012-.32-3.789-.582-5.053 1.121-10.254 1.311-20.581.646-30.875-.414-9.836-.146-19.694.239-29.527.585-2.7-.066-7.882.969-9.078-.336 1.922 4.267 3.027.539 2.52-5.95-.88-11.8 1.34-17.74.539-5.737-.55-11.502.701-17.201-.518-6.325-.237-12.809 1.208-19.047-.518-4.917-.074-9.942-.331-14.772.249-5.474-.915-3.235-8.365 1.904-7.247 5.199.27 10.446-.453 15.592.506 7.139 1.417 14.466-1.01 21.59.709 5.331-.235 10.65-.326 15.967.153 5.065-.63 10.186-1.327 15.308-.66 6.12-.27 4.004 6.872 4.012 10.638-.736 10.325-.786 20.706-.509 31.047.68 11.015.533 22.07-.663 33.043-.262 3.761.823 9.897-4.723 9.937-4.92.345-9.826-.806-14.766-.329-9.72.91-19.47-.845-29.174-.223-6.185 1.444-12.605 1.84-18.902 1.079-4.616.87-10.3-1.675-9.01-7.136-.025-7.481.458-14.961.013-22.439.228-8.64 1.525-17.268.624-25.914-.339-6.92.295-13.847.29-20.754-1.544-3.586-.157-11.324 5.116-8.202.815.658 1.315 1.697 1.28 2.75" transform="translate(0 -197)"/><path style="opacity:1;fill:#020900;fill-opacity:1;stroke:none;stroke-width:1;stroke-linecap:butt;stroke-linejoin:round;stroke-miterlimit:4;stroke-dasharray:none;stroke-opacity:1" d="M54.752 240.74c-5.27.376-11.25-.165-15.514 3.564-3.798 2.587-5.93 6.913-6.415 11.407-1.333 6.452 2.241 13.397 7.9 16.552 5.093 1.902 10.868 2.178 16.25 1.516 6.246-.771 8.193-7.6 9.403-12.788 1.36-6.36 1.246-14.41-4.482-18.663-3.496-2.75-7.918 1.527-11.255-.853-3.609-5.609 5.225-7.934 9.393-6.886 8.43.935 13.476 9.758 13.848 17.59.332 8.093-1.399 16.722-6.391 23.267-5.056 6.05-13.82 6.096-21 5.122-5.12-.42-10.42-1.874-13.928-5.885-4.82-5.083-7.878-12.194-6.653-19.267.79-6.11 3.368-12.214 8.407-16.003 3.68-3.14 8.336-5.002 13.183-5.126 3.668-.246 11.755-2.11 10.718 4.037-.395 1.52-1.89 2.587-3.464 2.417" transform="translate(0 -197)"/><path style="opacity:1;fill:#020900;fill-opacity:1;stroke:none;stroke-width:1;stroke-linecap:butt;stroke-linejoin:round;stroke-miterlimit:4;stroke-dasharray:none;stroke-opacity:1" d="M62.441 258.886c.233 4.924-2.045 10.594-7.365 11.659-5.232 1.785-12.457-1.087-12.984-7.117-1.02-3.55-2.766-11.265 3.235-10.653 4.669 1.977 1.223 8.317 4.602 10.912 5.3 2.542 5.318-3.915 6.616-7.163 1.819-2.61 6.14-.653 5.896 2.362m-14.883-30.079c-.695-3.693-2.598-12.697 3.995-10.66 3.164 3.092 3.183 9.027 2.252 13.011-1.995 2.595-6.714 1.15-6.247-2.35m12.318 1.729c1.917-3.544 4.416-12.39 9.781-8.383 2.018 4.38-2.734 8.814-4.516 12.527-2.776 2.004-6.803-.85-5.265-4.144M32.737 234.9c-3.227-3.155-8.708-5.133-9.896-9.717 1.067-5.437 7.797-2.417 9.634.93 3.454 1.46 9.502 7.348 3.706 9.794-1.221.35-2.63-.02-3.444-1.007" transform="translate(0 -197)"/></svg>