<?xml version="1.0" encoding="UTF-8" standalone="no"?>
<!-- Created with Inkscape (http://www.inkscape.org/) -->

<svg
   xmlns:dc="http://purl.org/dc/elements/1.1/"
   xmlns:cc="http://creativecommons.org/ns#"
   xmlns:rdf="http://www.w3.org/1999/02/22-rdf-syntax-ns#"
   xmlns:svg="http://www.w3.org/2000/svg"
   xmlns="http://www.w3.org/2000/svg"
   xmlns:sodipodi="http://sodipodi.sourceforge.net/DTD/sodipodi-0.dtd"
   xmlns:inkscape="http://www.inkscape.org/namespaces/inkscape"
   width="10cm"
   height="10cm"
   viewBox="0 0 100 99.999997"
   version="1.1"
   id="svg8"
   sodipodi:docname="sama.svg"
   inkscape:version="0.92.3 (2405546, 2018-03-11)">
  <defs
     id="defs2" />
  <sodipodi:namedview
     id="base"
     pagecolor="#ffffff"
     bordercolor="#666666"
     borderopacity="1.0"
     inkscape:pageopacity="0.0"
     inkscape:pageshadow="2"
     inkscape:zoom="1"
     inkscape:cx="175.50186"
     inkscape:cy="186.50542"
     inkscape:document-units="cm"
     inkscape:current-layer="layer1"
     showgrid="true"
     units="cm"
     inkscape:window-width="881"
     inkscape:window-height="707"
     inkscape:window-x="971"
     inkscape:window-y="213"
     inkscape:window-maximized="0"
     inkscape:snap-nodes="false">
    <inkscape:grid
       type="xygrid"
       id="grid815"
       units="cm"
       spacingx="9.9999998"
       spacingy="9.9999998" />
  </sodipodi:namedview>
  <metadata
     id="metadata5">
    <rdf:RDF>
      <cc:Work
         rdf:about="">
        <dc:format>image/svg+xml</dc:format>
        <dc:type
           rdf:resource="http://purl.org/dc/dcmitype/StillImage" />
        <dc:title></dc:title>
      </cc:Work>
    </rdf:RDF>
  </metadata>
  <g
     inkscape:label="Layer 1"
     inkscape:groupmode="layer"
     id="layer1"
     transform="translate(0,-197.00002)">
    <path
       style="opacity:1;fill:#020900;fill-opacity:1;stroke:none;stroke-width:1;stroke-linecap:butt;stroke-linejoin:round;stroke-miterlimit:4;stroke-dasharray:none;stroke-opacity:1"
       id="path1441"
       d="m 73.555315,238.54852 c 0.26157,0.1446 0.54401,0.24556 0.838184,0.2971 -0.04613,-0.002 -0.163854,-0.009 -0.234355,-0.0122 -0.09842,-0.004 -0.196903,-0.002 -0.295325,7.9e-4 -0.144748,0.003 -0.289221,0.0127 -0.43362,0.0226 -0.130765,0.0103 -0.260536,0.0292 -0.390089,0.0493 -0.268549,0.0447 -0.537448,0.0871 -0.806648,0.12764 -0.352116,0.0534 -0.705612,0.0967 -1.05949,0.13646 -0.385199,0.0427 -0.771326,0.076 -1.157637,0.1067 -0.407931,0.03 -0.815985,0.0583 -1.223996,0.0872 -0.467747,0.0331 -0.935395,0.0676 -1.403234,0.0995 -0.555852,0.0377 -1.112232,0.0668 -1.668706,0.0934 -0.638257,0.0304 -1.276895,0.0515 -1.915448,0.0744 -0.693976,0.0235 -1.387623,0.0548 -2.081178,0.0883 -0.780328,0.0389 -1.560875,0.0727 -2.341729,0.0989 -0.864085,0.0289 -1.728587,0.0387 -2.593094,0.0419 -0.897552,0.002 -1.795095,-0.004 -2.692601,-0.0123 -0.907569,-0.009 -1.814984,-0.0287 -2.72242,-0.0462 -0.887968,-0.0165 -1.775944,-0.0327 -2.663918,-0.0489 -0.862851,-0.0157 -1.725734,-0.0297 -2.588625,-0.0429 -0.807228,-0.0152 -1.614572,-0.0174 -2.421908,-0.0148 -0.755655,0.003 -1.511147,0.0188 -2.266522,0.0385 -0.730035,0.0211 -1.459928,0.0468 -2.189696,0.0757 -0.682763,0.0274 -1.365261,0.0608 -2.047812,0.0929 -0.625139,0.0288 -1.250246,0.0582 -1.875396,0.0867 -0.552942,0.0243 -1.105794,0.0506 -1.658516,0.0795 -0.504727,0.0253 -1.008941,0.0593 -1.512482,0.10201 -0.468845,0.0405 -0.936954,0.0889 -1.404563,0.14165 -0.420621,0.0479 -0.841161,0.0963 -1.261358,0.14774 -0.36935,0.0457 -0.738697,0.0914 -1.108173,0.13598 -0.306209,0.0372 -0.612656,0.0724 -0.918896,0.10929 -0.263877,0.0324 -0.527866,0.0639 -0.791981,0.0943 -0.227299,0.0259 -0.454681,0.051 -0.682081,0.076 -0.08963,-7.9e-4 -0.526551,0.0721 -0.181764,0.0139 0.557854,-0.15096 0.222886,-0.0397 0.98075,-0.39914 -4.102105,2.61423 -7.799186,-3.18702 -3.697081,-5.80125 v 0 c 0.906507,-0.45013 0.489343,-0.29762 1.228547,-0.51596 0.304073,-0.0607 0.609175,-0.1098 0.91835,-0.13562 0.215569,-0.0237 0.431121,-0.0475 0.646598,-0.072 0.25218,-0.029 0.504227,-0.0592 0.75618,-0.0901 0.305409,-0.0368 0.610997,-0.072 0.916378,-0.10898 0.365831,-0.0442 0.731528,-0.0895 1.097235,-0.13466 0.442074,-0.0541 0.884498,-0.10515 1.327021,-0.15546 0.531749,-0.0598 1.064052,-0.11481 1.597212,-0.16061 0.576383,-0.0483 1.153427,-0.0881 1.73114,-0.11693 0.567902,-0.0297 1.13593,-0.0567 1.704056,-0.0817 0.621792,-0.0284 1.243539,-0.0577 1.865321,-0.0863 0.699727,-0.0329 1.399399,-0.0671 2.099349,-0.0952 0.760622,-0.0301 1.521373,-0.057 2.28228,-0.0788 0.807974,-0.021 1.616075,-0.0379 2.424348,-0.0408 0.849704,-0.003 1.699414,-2.5e-4 2.549001,0.0156 0.869469,0.0133 1.738927,0.0274 2.608355,0.0432 0.89035,0.0162 1.780702,0.0325 2.671046,0.049 0.885383,0.017 1.770748,0.0362 2.65626,0.0452 0.867101,0.008 1.734236,0.0133 2.601378,0.012 0.795936,-0.003 1.591869,-0.0115 2.387418,-0.0381 0.747286,-0.025 1.494258,-0.0577 2.241036,-0.0948 0.721863,-0.0348 1.443829,-0.0673 2.166123,-0.0918 0.611039,-0.0219 1.222163,-0.042 1.832922,-0.0709 0.510498,-0.0244 1.020914,-0.0509 1.530842,-0.0854 0.461434,-0.0314 0.922666,-0.0655 1.384012,-0.0981 0.388969,-0.0275 0.777973,-0.0547 1.166889,-0.0829 0.312251,-0.0247 0.624372,-0.0513 0.935741,-0.0855 0.267357,-0.0298 0.53443,-0.0622 0.800439,-0.10248 0.266107,-0.04 0.531752,-0.0829 0.797333,-0.12623 0.316375,-0.0476 0.633782,-0.0891 0.953111,-0.11124 0.248671,-0.017 0.497551,-0.0317 0.746791,-0.0369 0.250966,-0.005 0.502079,-0.007 0.752941,0.004 0.255061,0.0116 0.51008,0.027 0.763857,0.0559 0.556792,0.0734 1.103781,0.20771 1.600629,0.47886 4.280088,2.31134 1.011357,8.3643 -3.268731,6.05296 z"
       inkscape:connector-curvature="0" />
    <path
       style="opacity:1;fill:#020900;fill-opacity:1;stroke:none;stroke-width:1;stroke-linecap:butt;stroke-linejoin:round;stroke-miterlimit:4;stroke-dasharray:none;stroke-opacity:1"
       id="path1443"
       d="m 76.8829,259.95561 c 0.139065,0.0121 -0.16301,-10e-4 -0.185634,-0.002 -0.21888,-0.006 -0.437806,-0.01 -0.656765,-0.0105 -0.358685,-0.002 -0.717338,2.1e-4 -1.075978,0.006 -0.507259,0.009 -1.014439,0.0215 -1.521661,0.0322 -0.596157,0.0124 -1.192358,0.0223 -1.78857,0.0315 -0.65745,0.01 -1.314927,0.0178 -1.972408,0.0251 -0.703543,0.007 -1.407092,0.0135 -2.110613,0.0226 -0.752266,0.0101 -1.504548,0.019 -2.256835,0.0274 -0.776044,0.009 -1.552102,0.0157 -2.328162,0.0224 -0.773382,0.007 -1.54677,0.0124 -2.320163,0.0179 -0.777777,0.005 -1.555567,0.009 -2.333334,0.0161 -0.79077,0.008 -1.581446,0.023 -2.372058,0.0401 -0.810384,0.0199 -1.620443,0.0508 -2.430544,0.0796 -0.821344,0.029 -1.642425,0.0646 -2.46356,0.0989 -0.802153,0.0325 -1.604364,0.0636 -2.406382,0.0994 -0.795364,0.0361 -1.590636,0.0741 -2.385891,0.11246 -0.793229,0.038 -1.586577,0.0734 -2.379959,0.10797 -0.756108,0.0315 -1.512221,0.0625 -2.268246,0.0959 -0.706263,0.0305 -1.412502,0.0615 -2.118702,0.0935 -0.634407,0.0289 -1.268859,0.0568 -1.90337,0.0833 -0.567711,0.0244 -1.135277,0.0522 -1.702842,0.0797 -0.511755,0.0223 -1.022953,0.0548 -1.534137,0.0872 -0.473702,0.0304 -0.947584,0.0578 -1.421221,0.0892 -0.390449,0.0271 -0.780575,0.0587 -1.170804,0.0888 -0.341585,0.0268 -0.682977,0.056 -1.024423,0.0846 -0.290468,0.0242 -0.580939,0.0483 -0.871425,0.0722 -0.214489,0.0168 -0.428785,0.0357 -0.642874,0.0569 -0.185969,0.0188 -0.37192,0.0378 -0.5579,0.0565 -0.152911,0.0154 -0.305827,0.0306 -0.458742,0.0459 -0.104876,0.0107 -0.209853,0.0203 -0.314568,0.0325 -0.09027,0.0106 -0.1805,0.0216 -0.270734,0.0325 -0.07709,0.009 -0.154179,0.0186 -0.231268,0.028 -0.01125,0.001 -0.04496,0.006 -0.03376,0.004 0.991046,-0.15375 1.496208,-0.52435 2.171146,-1.23324 -2.955879,3.8632 -8.419256,-0.31705 -5.463377,-4.18024 v 0 c 0.167413,-0.17998 0.319335,-0.37573 0.502237,-0.53995 0.550815,-0.49455 1.266098,-0.79463 1.997195,-0.87999 0.07742,-0.009 0.154834,-0.0187 0.232253,-0.0281 0.103594,-0.0125 0.207184,-0.0251 0.310828,-0.0372 0.138219,-0.0158 0.276631,-0.0297 0.415082,-0.0433 0.151916,-0.0152 0.303832,-0.0304 0.455744,-0.0456 0.189454,-0.0191 0.378875,-0.0384 0.568321,-0.0575 0.251625,-0.0249 0.503462,-0.0474 0.755541,-0.0671 0.287876,-0.0237 0.575737,-0.0476 0.863595,-0.0716 0.355951,-0.0297 0.711846,-0.0602 1.067948,-0.0881 0.415256,-0.032 0.830401,-0.0656 1.245915,-0.0942 0.479867,-0.0317 0.95996,-0.0598 1.439896,-0.0904 0.545178,-0.0346 1.09039,-0.069 1.636162,-0.093 0.582935,-0.0283 1.165867,-0.0568 1.748956,-0.0818 0.626578,-0.0262 1.253101,-0.0537 1.879579,-0.0823 0.708755,-0.0321 1.417555,-0.0632 2.126377,-0.0938 0.757274,-0.0334 1.514636,-0.0646 2.271993,-0.0961 0.78282,-0.0341 1.565608,-0.0691 2.348277,-0.10652 0.803609,-0.0387 1.607236,-0.0772 2.41095,-0.11363 0.808461,-0.036 1.617104,-0.0675 2.425702,-0.10023 0.83525,-0.0349 1.670447,-0.0711 2.505909,-0.10057 0.841933,-0.03 1.683827,-0.0619 2.526062,-0.0823 0.819816,-0.0178 1.639697,-0.0334 2.459675,-0.0414 0.782216,-0.007 1.564457,-0.0107 2.346687,-0.0162 0.769477,-0.005 1.538954,-0.0111 2.308424,-0.0178 0.770617,-0.007 1.541232,-0.0138 2.311831,-0.0223 0.748255,-0.008 1.496502,-0.0172 2.244733,-0.0272 0.707413,-0.009 1.414854,-0.0154 2.122286,-0.0227 0.647727,-0.007 1.295448,-0.0149 1.943142,-0.0247 0.583385,-0.009 1.166763,-0.0187 1.750095,-0.0308 0.520858,-0.0109 1.041675,-0.0241 1.562573,-0.0329 0.404091,-0.006 0.808199,-0.008 1.212334,-0.006 0.274101,0.001 0.548172,0.006 0.822175,0.0133 0.237445,0.007 0.475128,0.014 0.711652,0.0374 4.837263,0.5122 4.1129,7.35312 -0.724363,6.84092 z"
       inkscape:connector-curvature="0" />
  </g>
</svg>
