<svg viewBox="0 0 100 100"><path style="opacity:1;fill:#020900;fill-opacity:1;stroke:none;stroke-width:1;stroke-linecap:butt;stroke-linejoin:round;stroke-miterlimit:4;stroke-dasharray:none;stroke-opacity:1" d="M73.555 238.549c.262.144.544.245.838.297l-.234-.013a4 4 0 0 0-.295.001q-.218.006-.434.023-.195.017-.39.05-.402.066-.807.127a28 28 0 0 1-1.059.136c-.385.043-.771.076-1.158.107l-1.224.087-1.403.1q-.834.054-1.669.093-.957.043-1.915.074-1.041.037-2.081.089-1.17.059-2.342.099c-.864.029-1.729.038-2.593.042q-1.347.002-2.693-.013c-.907-.009-1.815-.028-2.722-.046l-2.664-.049q-1.295-.024-2.589-.043c-.807-.015-1.614-.017-2.422-.015-.755.003-1.51.02-2.266.039q-1.095.032-2.19.076-1.024.042-2.048.093l-1.875.086q-.83.036-1.658.08a44 44 0 0 0-2.918.243q-.63.072-1.26.148-.555.07-1.109.136-.46.054-.919.11a105 105 0 0 1-1.474.17c-.09-.001-.527.072-.182.014.558-.151.223-.04.981-.4-4.102 2.615-7.8-3.187-3.697-5.8.906-.45.49-.298 1.228-.517.305-.06.61-.11.919-.135l.646-.072.757-.09.916-.11 1.097-.134q.664-.08 1.327-.156.798-.09 1.597-.16a51 51 0 0 1 1.732-.117q.85-.045 1.704-.082l1.865-.086q1.05-.051 2.1-.095 1.14-.045 2.282-.08a108 108 0 0 1 4.973-.024q1.305.02 2.608.043l2.671.049c.886.017 1.771.036 2.657.045q1.3.013 2.601.012a81 81 0 0 0 2.387-.038q1.122-.038 2.241-.095a152 152 0 0 1 2.167-.092c.61-.022 1.222-.042 1.832-.07a78 78 0 0 0 1.531-.086q.693-.048 1.384-.098l1.167-.083q.469-.036.936-.085.4-.044.8-.103.399-.06.798-.126c.316-.048.633-.09.953-.111.248-.017.497-.032.747-.037s.502-.007.753.004q.383.014.763.056c.557.073 1.104.207 1.601.478 4.28 2.312 1.011 8.365-3.269 6.053m3.328 21.408c.139.012-.163-.001-.186-.002q-.329-.01-.656-.01-.54-.003-1.076.005l-1.522.032a333 333 0 0 1-3.761.057q-1.056.01-2.11.023a999 999 0 0 1-4.586.05l-2.32.017-2.333.016q-1.187.013-2.372.04c-.81.02-1.62.051-2.43.08-.822.029-1.643.065-2.464.099q-1.204.047-2.407.1-1.192.053-2.386.112-1.19.056-2.38.108-1.134.046-2.268.096l-2.119.093q-.95.044-1.903.083-.851.038-1.703.08c-.512.022-1.023.055-1.534.087q-.71.043-1.421.09-.585.042-1.17.088-.514.041-1.025.085l-.872.072q-.321.026-.643.057l-.558.057-.458.045q-.158.015-.315.033l-.27.032-.232.028-.034.004c.991-.153 1.497-.524 2.172-1.233-2.956 3.863-8.42-.317-5.464-4.18.168-.18.32-.376.502-.54a3.64 3.64 0 0 1 1.998-.88l.232-.028.31-.037.416-.044.455-.045.569-.058q.377-.037.755-.067l.864-.071 1.068-.088q.622-.05 1.246-.095l1.44-.09c.545-.035 1.09-.07 1.636-.093q.874-.043 1.749-.082l1.88-.082 2.126-.094q1.135-.05 2.272-.096 1.174-.051 2.348-.107 1.205-.058 2.411-.113 1.212-.053 2.426-.1c.835-.035 1.67-.072 2.506-.101.842-.03 1.683-.062 2.526-.082q1.23-.029 2.46-.042l2.346-.016q1.155-.007 2.308-.018l2.312-.022q1.123-.012 2.245-.027 1.061-.014 2.122-.023a450 450 0 0 0 3.694-.055c.52-.011 1.041-.025 1.562-.033q.606-.009 1.212-.006.412.001.823.013c.237.007.475.014.711.037 4.838.513 4.113 7.353-.724 6.841" transform="translate(0 -197)"/></svg>