<svg viewBox="0 0 100 100"><path style="opacity:1;fill:#020900;fill-opacity:1;stroke:none;stroke-width:1;stroke-linecap:butt;stroke-linejoin:round;stroke-miterlimit:4;stroke-dasharray:none;stroke-opacity:1" d="M50.35 274.71c.062-.04-.087.083-.108.102q-.063.06-.117.126c.03-.03.056-.066.083-.1l-.158.372c-.014.012-.093.258-.046.126.011-.007.004.056.003.074q.007.144.022.288.031.277.091.55a4.5 4.5 0 0 0 .34.902.8.8 0 0 0 .12.18.6.6 0 0 0-.144-.158.6.6 0 0 0-.16-.096c-.06-.02-.047-.019-.064-.035l.433-.046q.209-.022.409-.085a6 6 0 0 0 .475-.18c.105-.044.203-.103.3-.162a.5.5 0 0 0 .116-.086c-.041.025-.101.098-.042.011.035-.054.062-.114.09-.173q.116-.241.221-.488c.014-.06-.035.092-.041.116-.02-.055.006-.117.008-.177.003-.002.003-.226 0-.125.002.086.021.17.038.254.009.032-.01 0-.012 0 .015.032.004.02-.017-.001a.6.6 0 0 0-.09-.085q-.016-.011-.036-.018c.084.058.176.097.272.13.027.02.261.05.129.046q-.186 0-.37.008c-.268.041.355-.078.365-.08.208-.042.567-.255.68-.324q-.19.17-.377.345c-.075.071-.154.14-.225.215a2 2 0 0 0 .376-.548c.18-.379.19-.798.186-1.21-.075-.882-.497-1.621-1.15-2.201-.648-.484.135.094.266.204l.094.085.007.006a2.6 2.6 0 0 0-.463-.342c-.163-.09-.335-.162-.502-.243-.944-.319-1.946-.264-2.802.254-.468.32-.892.778-1.108 1.308-.114.28-.177.578-.266.866.774-4.802 7.566-3.707 6.791 1.095-.09.302-.154.614-.272.906-.266.662-.804 1.193-1.384 1.585-1.024.642-2.182.827-3.348.437-.482-.224-.935-.444-1.318-.817l.036.032c.5.408.413.285-.054-.026-.777-.678-1.283-1.54-1.383-2.583-.02-.714.05-1.413.35-2.071.237-.527.528-1.028.93-1.447q.266-.28.551-.54.274-.256.555-.505c.507-.436 1.06-.815 1.702-1.024.491-.141.989-.249 1.502-.252.294-.01.588-.018.882-.009.478.019.956.064 1.42.19.508.146 1.005.33 1.46.606a7.3 7.3 0 0 1 1.808 1.519c.282.331.547.677.764 1.055.206.365.395.74.535 1.136.158.457.285.925.327 1.409.03.352.043.705.023 1.058-.017.37-.048.74-.112 1.106a6.4 6.4 0 0 1-.413 1.386 18 18 0 0 1-.393.858 8 8 0 0 1-.683 1.139c-.302.407-.627.799-1.012 1.13a7.7 7.7 0 0 1-1.094.79 9 9 0 0 1-1.174.603c-.41.17-.825.327-1.252.45a9.5 9.5 0 0 1-1.487.297c-.484.056-.971.1-1.459.088-.59-.028-1.179-.097-1.746-.273-.576-.19-1.135-.426-1.64-.769-.537-.375-1.038-.798-1.438-1.322a8 8 0 0 1-.86-1.362c-.196-.4-.376-.807-.524-1.226-.153-.434-.29-.873-.383-1.324a13 13 0 0 1-.205-1.312 9 9 0 0 1-.038-1.326c.028-.436.077-.87.18-1.295a7.6 7.6 0 0 1 .386-1.158c.132-.313.263-.626.42-.926.227-.42.48-.826.795-1.185a8.7 8.7 0 0 1 1.517-1.387c4.001-2.766 7.913 2.893 3.911 5.66zm-4.455-19.083.013-.679q.007-.372.011-.745.006-.424.008-.847.002-.54-.007-1.08-.01-.694-.018-1.39l-.02-1.54-.018-1.81a95 95 0 0 0-.04-1.992 408 408 0 0 1-.1-4.583 834 834 0 0 1-.064-4.703l-.025-2.44c-.011-.93-.029-1.861-.044-2.792l-.047-2.966a1140 1140 0 0 1-.097-7.82l-.008-2.183-.006-1.836-.004-1.49-.004-1.19c0-.333-.004-.666 0-1 .072-4.863 6.95-4.76 6.878.103-.006.292.004.584.001.876l.004 1.19.004 1.49.006 1.834.008 2.165q.008 1.18.023 2.36a2125 2125 0 0 0 .073 5.393l.047 2.961c.015.942.033 1.883.045 2.825l.025 2.445a767 767 0 0 0 .108 6.997q.024 1.09.054 2.181c.019.705.037 1.41.042 2.115q.007.891.018 1.782l.02 1.544.018 1.386a72 72 0 0 1-.001 2.103l-.012.78-.012.642c-.061 4.864-6.94 4.778-6.879-.086m13.15 3.043c.09-.151.171-.307.253-.462.138-.264.29-.521.433-.783q.24-.453.478-.907l.596-1.137c.221-.424.426-.856.634-1.287q.397-.829.823-1.644c.303-.57.618-1.135.928-1.702.325-.578.605-1.178.877-1.781.326-.733.64-1.472.962-2.206.335-.758.691-1.506 1.048-2.254.346-.727.707-1.447 1.074-2.164l1.01-1.964q.467-.908.933-1.819.45-.88.894-1.763.416-.827.826-1.658c.253-.512.495-1.03.742-1.544q.345-.712.683-1.427a168 168 0 0 1 1.134-2.349c.15-.302.293-.607.44-.911l.39-.8c.094-.192.19-.383.276-.579q.116-.27.228-.542c1.865-4.493 8.219-1.855 6.353 2.638q-.143.35-.295.697-.178.397-.372.787-.191.395-.384.788c-.153.316-.302.632-.457.946l-.508 1.043q-.294.61-.586 1.223-.346.73-.698 1.458c-.26.543-.515 1.088-.782 1.628q-.423.855-.852 1.709-.451.897-.91 1.793l-.94 1.836-1 1.942c-.338.66-.671 1.323-.99 1.993-.326.684-.653 1.37-.96 2.063-.332.755-.654 1.515-.99 2.268a30 30 0 0 1-1.111 2.252c-.29.53-.584 1.057-.869 1.59q-.374.717-.724 1.447c-.243.503-.482 1.008-.742 1.504l-.599 1.14c-.179.339-.354.679-.536 1.015-.125.226-.255.45-.376.677-.129.244-.258.487-.399.724-2.459 4.197-8.394.719-5.935-3.478m-25.546 5.749c-.032-.065-.072-.126-.11-.186a17 17 0 0 0-.429-.62c-.23-.33-.473-.653-.716-.974-.285-.37-.58-.734-.869-1.101a29 29 0 0 1-1.13-1.554q-.584-.853-1.178-1.7c-.444-.62-.899-1.231-1.343-1.851a54 54 0 0 1-1.517-2.253q-.742-1.165-1.455-2.347c-.482-.799-.956-1.602-1.432-2.405l-1.504-2.524a143 143 0 0 1-1.563-2.713c-.503-.89-1.013-1.776-1.52-2.664q-.701-1.224-1.384-2.46-.627-1.143-1.265-2.281-.579-1.02-1.155-2.042l-.973-1.726q-.405-.716-.806-1.433l-.644-1.152q-.265-.467-.527-.935l-.42-.757-.334-.6-.14-.252c-2.364-4.252 3.649-7.594 6.012-3.343l.14.253.334.6.416.747q.258.462.52.923l.643 1.15q.397.71.798 1.42l.976 1.731q.577 1.023 1.156 2.044.649 1.156 1.285 2.318.663 1.198 1.343 2.385c.51.895 1.025 1.79 1.532 2.686.49.866.98 1.73 1.49 2.585l1.51 2.534c.464.784.926 1.57 1.397 2.35q.666 1.102 1.357 2.188c.427.664.862 1.324 1.322 1.966.455.635.922 1.262 1.376 1.899q.611.87 1.212 1.747c.281.407.562.815.87 1.202.317.402.639.8.95 1.206.289.382.576.765.85 1.157.235.331.47.661.683 1.006.213.35.415.708.574 1.087 1.9 4.477-4.431 7.166-6.332 2.689" transform="translate(0 -197)"/></svg>