<?xml version="1.0" encoding="UTF-8" standalone="no"?>
<!-- Created with Inkscape (http://www.inkscape.org/) -->

<svg
   xmlns:dc="http://purl.org/dc/elements/1.1/"
   xmlns:cc="http://creativecommons.org/ns#"
   xmlns:rdf="http://www.w3.org/1999/02/22-rdf-syntax-ns#"
   xmlns:svg="http://www.w3.org/2000/svg"
   xmlns="http://www.w3.org/2000/svg"
   xmlns:sodipodi="http://sodipodi.sourceforge.net/DTD/sodipodi-0.dtd"
   xmlns:inkscape="http://www.inkscape.org/namespaces/inkscape"
   width="10cm"
   height="10cm"
   viewBox="0 0 100 99.999997"
   version="1.1"
   id="svg8"
   sodipodi:docname="seli.svg"
   inkscape:version="0.92.3 (2405546, 2018-03-11)">
  <defs
     id="defs2" />
  <sodipodi:namedview
     id="base"
     pagecolor="#ffffff"
     bordercolor="#666666"
     borderopacity="1.0"
     inkscape:pageopacity="0.0"
     inkscape:pageshadow="2"
     inkscape:zoom="1"
     inkscape:cx="175.50186"
     inkscape:cy="160.37856"
     inkscape:document-units="cm"
     inkscape:current-layer="layer1"
     showgrid="true"
     units="cm"
     inkscape:window-width="1920"
     inkscape:window-height="1017"
     inkscape:window-x="-8"
     inkscape:window-y="-8"
     inkscape:window-maximized="1"
     inkscape:snap-nodes="false">
    <inkscape:grid
       type="xygrid"
       id="grid815"
       units="cm"
       spacingx="9.9999998"
       spacingy="9.9999998" />
  </sodipodi:namedview>
  <metadata
     id="metadata5">
    <rdf:RDF>
      <cc:Work
         rdf:about="">
        <dc:format>image/svg+xml</dc:format>
        <dc:type
           rdf:resource="http://purl.org/dc/dcmitype/StillImage" />
        <dc:title></dc:title>
      </cc:Work>
    </rdf:RDF>
  </metadata>
  <g
     inkscape:label="Layer 1"
     inkscape:groupmode="layer"
     id="layer1"
     transform="translate(0,-197.00002)">
    <path
       style="opacity:1;fill:#020900;fill-opacity:1;stroke:none;stroke-width:1;stroke-linecap:butt;stroke-linejoin:round;stroke-miterlimit:4;stroke-dasharray:none;stroke-opacity:1"
       id="path96"
       d="m 50.349451,274.71061 c 0.063,-0.0401 -0.08688,0.0823 -0.10741,0.10169 -0.04286,0.0384 -0.08076,0.0818 -0.117478,0.12577 0.03115,-0.0294 0.05691,-0.0656 0.08331,-0.0997 -0.05251,0.12405 -0.105601,0.24785 -0.157689,0.37209 -0.01424,0.0118 -0.0933,0.25715 -0.04605,0.12584 0.01135,-0.007 0.0034,0.0556 0.0031,0.0737 0.0048,0.0963 0.01161,0.19238 0.0217,0.28831 0.02117,0.18445 0.05139,0.36795 0.09106,0.54932 0.02987,0.1402 0.07744,0.27533 0.126495,0.4097 0.06144,0.16817 0.132355,0.33244 0.213328,0.49206 0.03157,0.0661 0.07229,0.12687 0.120518,0.18016 -0.02829,-0.0579 -0.09118,-0.11287 -0.144206,-0.1572 -0.04721,-0.0427 -0.101285,-0.072 -0.159504,-0.0964 -0.06038,-0.0203 -0.04746,-0.0188 -0.06441,-0.0349 0.143524,-0.0161 0.288698,-0.0289 0.432594,-0.0459 0.138896,-0.0158 0.275836,-0.0423 0.408855,-0.0852 0.161708,-0.0512 0.319405,-0.11394 0.475586,-0.17987 0.104974,-0.0439 0.202409,-0.10329 0.299368,-0.16228 0.0296,-0.005 0.107477,-0.0766 0.116613,-0.086 -0.0415,0.025 -0.101648,0.0983 -0.04253,0.0116 0.03557,-0.0547 0.06199,-0.11485 0.09045,-0.17346 0.07769,-0.16084 0.150249,-0.32411 0.220882,-0.48815 0.01363,-0.0599 -0.03466,0.0923 -0.04125,0.11671 -0.01992,-0.0556 0.0065,-0.11799 0.0082,-0.17705 0.0035,-0.002 0.0029,-0.22597 -7.94e-4,-0.12507 0.0027,0.0859 0.02193,0.17016 0.03925,0.25383 0.0082,0.0322 -0.01116,-5.2e-4 -0.01246,-5.2e-4 0.01474,0.0322 0.0038,0.0194 -0.0168,-0.001 -0.02273,-0.0304 -0.06501,-0.0645 -0.08936,-0.0846 -0.01122,-0.008 -0.02423,-0.0126 -0.03677,-0.018 0.08352,0.0578 0.176398,0.0974 0.27183,0.13049 0.02679,0.0192 0.261342,0.0485 0.129104,0.045 -0.123638,-7.9e-4 -0.247232,0.003 -0.370753,0.008 -0.267168,0.0419 0.355851,-0.0775 0.366196,-0.0802 0.207923,-0.041 0.566312,-0.25463 0.678882,-0.32313 -0.127482,0.1125 -0.25154,0.22874 -0.375952,0.34459 -0.075,0.0713 -0.154832,0.14033 -0.224944,0.21546 0.157811,-0.15829 0.277691,-0.34825 0.375815,-0.54784 0.179159,-0.37919 0.189026,-0.7986 0.185369,-1.20956 -0.07441,-0.88288 -0.496501,-1.62233 -1.148963,-2.20235 -0.648537,-0.48316 0.134395,0.0949 0.265242,0.20429 0.03128,0.0284 0.06255,0.0567 0.09382,0.0851 0.0024,0.002 0.0097,0.009 0.0072,0.006 -0.14347,-0.12668 -0.293923,-0.24948 -0.462552,-0.34199 -0.163161,-0.0895 -0.335206,-0.16177 -0.502809,-0.24266 -0.943621,-0.31893 -1.945055,-0.26412 -2.801983,0.25362 -0.467204,0.31944 -0.891709,0.77855 -1.107765,1.30841 -0.113988,0.27954 -0.177215,0.57719 -0.265824,0.86578 0.77435,-4.80227 7.565792,-3.70718 6.791444,1.0951 v 0 c -0.09077,0.302 -0.154514,0.61348 -0.272307,0.906 -0.266406,0.66157 -0.803751,1.19285 -1.384279,1.58455 -1.02363,0.64238 -2.181997,0.82757 -3.348307,0.43755 -0.481409,-0.22452 -0.934387,-0.44407 -1.317855,-0.81697 -0.01151,-0.0112 0.0241,0.0212 0.03614,0.0318 0.499333,0.40809 0.41315,0.28451 -0.05374,-0.0262 -0.777296,-0.67836 -1.282756,-1.53931 -1.383379,-2.58254 -0.01886,-0.71397 0.05018,-1.4135 0.34981,-2.0714 0.237326,-0.52694 0.528614,-1.02753 0.931326,-1.44736 0.177186,-0.18629 0.36018,-0.36663 0.550492,-0.53956 0.183076,-0.17047 0.366339,-0.34078 0.55477,-0.50537 0.507289,-0.43525 1.059469,-0.81504 1.702057,-1.02332 0.491104,-0.14137 0.988412,-0.24896 1.502122,-0.25241 0.293645,-0.0108 0.587589,-0.0182 0.881395,-0.009 0.478108,0.0189 0.95625,0.0643 1.41971,0.18995 0.50864,0.146 1.005736,0.33036 1.460373,0.60577 0.345059,0.21055 0.680103,0.43767 0.986607,0.70228 0.291417,0.25419 0.570807,0.52191 0.822029,0.81654 0.281281,0.33156 0.546459,0.67735 0.763637,1.05512 0.206214,0.36507 0.395481,0.74007 0.535411,1.13623 0.157848,0.45705 0.284414,0.9252 0.32648,1.40876 0.02934,0.35229 0.04277,0.70551 0.0236,1.05888 -0.01736,0.37027 -0.04809,0.74012 -0.112062,1.10561 -0.09207,0.4746 -0.216069,0.94249 -0.413075,1.38563 -0.125082,0.28871 -0.253537,0.5761 -0.393851,0.85779 -0.201274,0.39488 -0.41869,0.78212 -0.682379,1.13943 -0.301802,0.40733 -0.626708,0.79869 -1.01206,1.13077 -0.343794,0.29133 -0.703495,0.56326 -1.09378,0.79017 -0.37897,0.22386 -0.766503,0.4342 -1.174173,0.60179 -0.410059,0.16956 -0.825288,0.32763 -1.252262,0.44985 -0.488233,0.13412 -0.982911,0.24346 -1.487064,0.29793 -0.484196,0.0551 -0.970775,0.10015 -1.458759,0.0871 -0.590521,-0.0274 -1.178978,-0.0967 -1.745843,-0.27303 -0.576117,-0.18967 -1.135647,-0.42592 -1.639935,-0.76826 -0.53716,-0.37552 -1.038527,-0.79871 -1.438733,-1.32257 -0.326088,-0.42802 -0.624668,-0.87622 -0.860173,-1.3614 -0.195178,-0.39979 -0.374886,-0.80697 -0.52383,-1.22651 -0.152781,-0.43342 -0.290158,-0.87254 -0.382289,-1.32337 -0.08811,-0.43423 -0.163163,-0.87138 -0.204745,-1.31281 -0.03875,-0.44078 -0.06382,-0.8835 -0.03849,-1.32596 0.02838,-0.43523 0.07698,-0.86958 0.180308,-1.29422 0.101076,-0.39517 0.222451,-0.78438 0.386125,-1.15866 0.13117,-0.31255 0.262916,-0.62537 0.41974,-0.92617 0.226912,-0.41918 0.478922,-0.82515 0.794584,-1.18446 0.224345,-0.25609 0.457321,-0.50476 0.71107,-0.73225 0.257895,-0.23095 0.522033,-0.45583 0.805905,-0.65463 4.001415,-2.76589 7.912976,2.89296 3.91156,5.65885 z"
       inkscape:connector-curvature="0" />
    <path
       style="opacity:1;fill:#020900;fill-opacity:1;stroke:none;stroke-width:1;stroke-linecap:butt;stroke-linejoin:round;stroke-miterlimit:4;stroke-dasharray:none;stroke-opacity:1"
       id="path98"
       d="m 45.895376,255.62708 c 0.004,-0.22635 0.0088,-0.45269 0.01283,-0.67905 0.0043,-0.24828 0.0078,-0.49658 0.01093,-0.74488 0.0034,-0.28241 0.0069,-0.56481 0.0081,-0.84723 0.0013,-0.35973 -0.0021,-0.71946 -0.0069,-1.07915 -0.0067,-0.46349 -0.01289,-0.92698 -0.01852,-1.39047 -0.0054,-0.51355 -0.01265,-1.02707 -0.01921,-1.5406 -0.0077,-0.60325 -0.01344,-1.20652 -0.01873,-1.80979 -0.0043,-0.66425 -0.02207,-1.3283 -0.0397,-1.9923 -0.02045,-0.7368 -0.03851,-1.47365 -0.05497,-2.21055 -0.01741,-0.7907 -0.03149,-1.58147 -0.04492,-2.37224 -0.01318,-0.78543 -0.02474,-1.57088 -0.0357,-2.35635 -0.01085,-0.78215 -0.01992,-1.56432 -0.02845,-2.3465 -0.0089,-0.81331 -0.01527,-1.62664 -0.02469,-2.43994 -0.01193,-0.93077 -0.0294,-1.86144 -0.04468,-2.79215 -0.01521,-0.98853 -0.03138,-1.97704 -0.047,-2.96556 -0.01498,-0.94078 -0.02832,-1.8816 -0.04097,-2.82242 -0.01151,-0.86557 -0.02228,-1.73115 -0.03271,-2.59674 -0.01016,-0.80065 -0.01834,-1.60132 -0.02302,-2.40202 -0.0035,-0.7275 -0.0058,-1.455 -0.0082,-2.18251 -0.0021,-0.6119 -0.0039,-1.22381 -0.0057,-1.83571 -0.0016,-0.4969 -0.003,-0.99379 -0.0046,-1.49069 -0.0013,-0.39626 -0.0024,-0.79251 -0.0036,-1.18877 -5.29e-4,-0.33326 -0.0041,-0.6665 -6.9e-5,-0.99974 0.07229,-4.86377 6.950697,-4.76154 6.878407,0.10223 v 0 c -0.0065,0.29206 0.0035,0.58438 7.94e-4,0.87649 0.0013,0.39625 0.0024,0.79251 0.0036,1.18877 0.0016,0.49687 0.003,0.99374 0.0046,1.49061 0.0019,0.61142 0.0038,1.22284 0.0057,1.83425 0.0024,0.72165 0.0046,1.4433 0.0081,2.16494 0.0046,0.78647 0.01267,1.5729 0.02265,2.35931 0.0104,0.86236 0.02114,1.72472 0.03259,2.58707 0.01257,0.93543 0.02585,1.87086 0.04073,2.80627 0.01558,0.98709 0.03175,1.97418 0.04693,2.96129 0.01545,0.94179 0.03314,1.88355 0.04515,2.82539 0.0094,0.81485 0.0159,1.62974 0.02474,2.4446 0.0084,0.77525 0.01744,1.55049 0.02819,2.32571 0.01085,0.77848 0.0223,1.55696 0.03537,2.3354 0.0132,0.77852 0.02706,1.55702 0.0442,2.33546 0.01625,0.72725 0.03407,1.45447 0.05426,2.18162 0.01868,0.70473 0.03721,1.40951 0.04186,2.1145 0.0052,0.59415 0.01085,1.1883 0.01844,1.78242 0.0066,0.51479 0.01384,1.02957 0.01924,1.54437 0.0056,0.46193 0.01183,0.92387 0.01847,1.38579 0.0051,0.39982 0.009,0.79966 0.0074,1.19952 -0.0013,0.30122 -0.0049,0.60242 -0.0086,0.90362 -0.0033,0.25966 -0.0069,0.51932 -0.01146,0.77896 -0.0038,0.21438 -0.0081,0.42875 -0.01228,0.64313 -0.06106,4.86392 -6.939687,4.77756 -6.878624,-0.0864 z"
       inkscape:connector-curvature="0" />
    <path
       style="opacity:1;fill:#020900;fill-opacity:1;stroke:none;stroke-width:1;stroke-linecap:butt;stroke-linejoin:round;stroke-miterlimit:4;stroke-dasharray:none;stroke-opacity:1"
       id="path100"
       d="m 59.045075,258.67009 c 0.08971,-0.15113 0.170955,-0.30704 0.2531,-0.46235 0.137909,-0.26423 0.289221,-0.52107 0.432668,-0.78225 0.161335,-0.3015 0.318635,-0.60514 0.478401,-0.90747 0.199014,-0.37872 0.396534,-0.75821 0.596167,-1.13661 0.221065,-0.42405 0.425207,-0.8566 0.633257,-1.2871 0.264763,-0.55296 0.539419,-1.10099 0.82361,-1.64419 0.302887,-0.57093 0.617959,-1.13525 0.928204,-1.70218 0.324051,-0.57779 0.604387,-1.17791 0.876625,-1.78131 0.32566,-0.73299 0.63903,-1.47133 0.96189,-2.20555 0.335127,-0.75791 0.691176,-1.50627 1.047808,-2.25422 0.345996,-0.72723 0.707266,-1.44694 1.073915,-2.16392 0.337759,-0.65406 0.673372,-1.30922 1.010796,-1.96346 0.31192,-0.60579 0.621379,-1.21284 0.932037,-1.81927 0.301217,-0.58609 0.597236,-1.17482 0.894773,-1.76278 0.277892,-0.55153 0.551844,-1.10504 0.826161,-1.65836 0.252823,-0.51198 0.494983,-1.02913 0.741627,-1.5441 0.229024,-0.47504 0.45796,-0.95011 0.683372,-1.42687 0.20207,-0.42693 0.406497,-0.85273 0.612166,-1.27793 0.173487,-0.35713 0.347054,-0.71421 0.52156,-1.07083 0.148913,-0.30266 0.293132,-0.60758 0.439684,-0.91138 0.129884,-0.26692 0.260959,-0.53327 0.390488,-0.80037 0.09399,-0.19186 0.189397,-0.38298 0.275477,-0.57856 0.07782,-0.17998 0.153048,-0.36107 0.22824,-0.54216 1.865328,-4.49244 8.218598,-1.85447 6.353267,2.63797 v 0 c -0.0968,0.23312 -0.193743,0.46619 -0.294957,0.69744 -0.11833,0.26512 -0.243041,0.52718 -0.372354,0.78712 -0.127521,0.26294 -0.256394,0.5252 -0.384444,0.78788 -0.152117,0.31523 -0.301713,0.63167 -0.456354,0.94568 -0.169915,0.34723 -0.338899,0.69491 -0.507838,1.04262 -0.196861,0.40699 -0.392557,0.81453 -0.585973,1.22317 -0.230381,0.48716 -0.464108,0.97272 -0.69823,1.45809 -0.26012,0.54295 -0.515369,1.08826 -0.782439,1.62784 -0.282697,0.57021 -0.565029,1.14061 -0.851496,1.70895 -0.302646,0.59803 -0.603765,1.19685 -0.910156,1.79298 -0.313549,0.61208 -0.625882,1.22478 -0.940731,1.83619 -0.333862,0.6473 -0.665885,1.29555 -1.00012,1.94266 -0.337677,0.66009 -0.670538,1.32261 -0.98907,1.9922 -0.326504,0.68472 -0.653026,1.36956 -0.96029,2.06321 -0.332298,0.75521 -0.653835,1.51509 -0.990004,2.26861 -0.345051,0.76255 -0.702628,1.51981 -1.110883,2.25106 -0.290107,0.53004 -0.584472,1.05778 -0.868687,1.59102 -0.250349,0.47746 -0.490937,0.95982 -0.723869,1.44602 -0.243297,0.50344 -0.482817,1.00888 -0.742841,1.504 -0.200441,0.37987 -0.398595,0.76093 -0.598517,1.14106 -0.178821,0.33824 -0.354129,0.67834 -0.536339,1.01477 -0.124844,0.22583 -0.254551,0.44895 -0.375709,0.6768 -0.128796,0.24349 -0.258376,0.4867 -0.398745,0.72377 -2.459244,4.19686 -8.394491,0.71896 -5.935247,-3.47789 z"
       inkscape:connector-curvature="0" />
    <path
       style="opacity:1;fill:#020900;fill-opacity:1;stroke:none;stroke-width:1;stroke-linecap:butt;stroke-linejoin:round;stroke-miterlimit:4;stroke-dasharray:none;stroke-opacity:1"
       id="path102"
       d="m 33.498684,264.41869 c -0.03172,-0.0644 -0.07154,-0.1252 -0.10998,-0.18599 -0.136242,-0.21112 -0.283106,-0.41521 -0.428312,-0.62021 -0.231209,-0.33005 -0.472919,-0.65246 -0.716569,-0.97336 -0.28516,-0.3707 -0.578964,-0.73462 -0.868844,-1.1016 -0.399116,-0.50104 -0.765384,-1.02669 -1.129535,-1.55329 -0.390218,-0.56838 -0.781516,-1.13599 -1.178409,-1.69973 -0.444077,-0.61977 -0.898552,-1.23194 -1.342782,-1.85161 -0.527703,-0.73607 -1.026919,-1.49179 -1.516771,-2.25337 -0.495923,-0.77559 -0.979044,-1.55927 -1.455691,-2.34681 -0.48229,-0.79849 -0.956041,-1.60208 -1.431422,-2.40468 -0.500306,-0.84203 -1.003298,-1.68247 -1.503936,-2.52431 -0.534839,-0.89644 -1.049477,-1.80461 -1.56344,-2.71311 -0.503268,-0.88959 -1.01298,-1.77551 -1.51967,-2.66315 -0.468194,-0.81605 -0.928118,-1.63679 -1.3843,-2.4596 -0.41893,-0.76233 -0.83886,-1.52408 -1.265156,-2.28231 -0.384532,-0.6807 -0.771479,-1.36002 -1.154939,-2.04133 -0.323421,-0.57583 -0.648434,-1.15076 -0.97289,-1.72601 -0.26984,-0.47698 -0.537774,-0.95504 -0.805919,-1.43297 -0.214842,-0.38419 -0.429068,-0.76871 -0.644308,-1.15268 -0.176351,-0.31107 -0.35216,-0.62244 -0.526418,-0.93469 -0.140501,-0.25213 -0.280719,-0.50441 -0.420969,-0.75668 -0.111164,-0.19996 -0.222323,-0.39992 -0.333482,-0.59988 -0.0468,-0.0842 -0.0936,-0.16838 -0.1404,-0.25257 -2.3634357,-4.25154 3.649157,-7.59395 6.012593,-3.3424 v 0 c 0.0468,0.0842 0.0936,0.16837 0.140398,0.25256 0.111115,0.19988 0.22223,0.39977 0.333351,0.59965 0.13847,0.24906 0.276909,0.49815 0.415622,0.74708 0.172095,0.3084 0.345897,0.61584 0.519957,0.92314 0.214831,0.38324 0.42868,0.76702 0.643087,1.1505 0.265606,0.47341 0.530996,0.94695 0.798288,1.41941 0.325496,0.57709 0.651551,1.15387 0.976011,1.73155 0.383982,0.68229 0.771608,1.36252 1.156585,2.04424 0.432898,0.77013 0.859694,1.54362 1.285043,2.31794 0.442263,0.7978 0.888212,1.59356 1.342198,2.38476 0.51106,0.89531 1.025186,1.78888 1.532756,2.68618 0.489491,0.86525 0.979233,1.73041 1.488635,2.58417 0.502713,0.84533 1.007824,1.68923 1.51016,2.53479 0.464375,0.78403 0.927115,1.56905 1.398153,2.3491 0.444238,0.73437 0.894718,1.46498 1.356797,2.18828 0.426839,0.66444 0.861681,1.32388 1.321633,1.96603 0.455345,0.63562 0.922666,1.2625 1.376558,1.89916 0.407956,0.57968 0.810644,1.16299 1.211707,1.74746 0.281178,0.40687 0.561573,0.81481 0.869792,1.20197 0.316949,0.40153 0.638688,0.79932 0.949446,1.2057 0.289502,0.38151 0.576244,0.76516 0.851379,1.15722 0.23409,0.33072 0.46926,0.66114 0.682424,1.00593 0.212468,0.35059 0.414875,0.70813 0.573566,1.08688 1.901151,4.4774 -4.430844,7.16604 -6.331997,2.68864 z"
       inkscape:connector-curvature="0" />
  </g>
</svg>
