<?xml version="1.0" encoding="UTF-8" standalone="no"?>
<!-- Created with Inkscape (http://www.inkscape.org/) -->

<svg
   xmlns:dc="http://purl.org/dc/elements/1.1/"
   xmlns:cc="http://creativecommons.org/ns#"
   xmlns:rdf="http://www.w3.org/1999/02/22-rdf-syntax-ns#"
   xmlns:svg="http://www.w3.org/2000/svg"
   xmlns="http://www.w3.org/2000/svg"
   xmlns:sodipodi="http://sodipodi.sourceforge.net/DTD/sodipodi-0.dtd"
   xmlns:inkscape="http://www.inkscape.org/namespaces/inkscape"
   width="10cm"
   height="10cm"
   viewBox="0 0 100 99.999997"
   version="1.1"
   id="svg8"
   sodipodi:docname="selo.svg"
   inkscape:version="0.92.3 (2405546, 2018-03-11)">
  <defs
     id="defs2" />
  <sodipodi:namedview
     id="base"
     pagecolor="#ffffff"
     bordercolor="#666666"
     borderopacity="1.0"
     inkscape:pageopacity="0.0"
     inkscape:pageshadow="2"
     inkscape:zoom="1"
     inkscape:cx="175.50186"
     inkscape:cy="186.50542"
     inkscape:document-units="cm"
     inkscape:current-layer="layer1"
     showgrid="true"
     units="cm"
     inkscape:window-width="881"
     inkscape:window-height="707"
     inkscape:window-x="971"
     inkscape:window-y="213"
     inkscape:window-maximized="0"
     inkscape:snap-nodes="false">
    <inkscape:grid
       type="xygrid"
       id="grid815"
       units="cm"
       spacingx="9.9999998"
       spacingy="9.9999998" />
  </sodipodi:namedview>
  <metadata
     id="metadata5">
    <rdf:RDF>
      <cc:Work
         rdf:about="">
        <dc:format>image/svg+xml</dc:format>
        <dc:type
           rdf:resource="http://purl.org/dc/dcmitype/StillImage" />
        <dc:title></dc:title>
      </cc:Work>
    </rdf:RDF>
  </metadata>
  <g
     inkscape:label="Layer 1"
     inkscape:groupmode="layer"
     id="layer1"
     transform="translate(0,-197.00002)">
    <path
       style="opacity:1;fill:#020900;fill-opacity:1;stroke:none;stroke-width:1;stroke-linecap:butt;stroke-linejoin:round;stroke-miterlimit:4;stroke-dasharray:none;stroke-opacity:1"
       id="path1453"
       d="m 9.2662845,278.60005 c -0.029815,-0.24743 -0.034356,-0.49676 -0.03424,-0.74566 -6.57e-5,-0.22035 0.010451,-0.44054 0.020148,-0.66063 0.010763,-0.2752 0.031529,-0.54988 0.050308,-0.82461 0.019071,-0.28196 0.035106,-0.5641 0.050088,-0.84629 0.016618,-0.31279 0.029046,-0.62578 0.040452,-0.9388 0.0137,-0.36082 0.023133,-0.72174 0.027565,-1.08278 0.00686,-0.36366 -0.014417,-0.72676 -0.036543,-1.08952 -0.034121,-0.5052 -0.070275,-1.01028 -0.1100902,-1.51506 -0.041025,-0.55453 -0.1006169,-1.10727 -0.1785102,-1.65777 -0.085114,-0.57693 -0.1850255,-1.15155 -0.2870538,-1.72568 -0.1037098,-0.57044 -0.2060956,-1.1411 -0.3049606,-1.7124 -0.089049,-0.51499 -0.1728976,-1.03086 -0.2536984,-1.54721 -0.077292,-0.49196 -0.1473317,-0.985 -0.2090026,-1.47916 -0.06353,-0.53992 -0.1031319,-1.08221 -0.1400233,-1.62447 -0.039255,-0.58706 -0.068379,-1.17473 -0.092137,-1.7626 -0.02562,-0.66635 -0.030331,-1.33325 -0.02661,-2 0.00601,-0.70435 0.048737,-1.40767 0.096857,-2.11017 0.044676,-0.66704 0.1162588,-1.33172 0.1997829,-1.99487 0.078812,-0.59128 0.1709876,-1.18067 0.260726,-1.77035 0.086389,-0.56202 0.1761628,-1.12351 0.2628178,-1.68548 0.090446,-0.59136 0.1794438,-1.18293 0.2755424,-1.7734 0.1055208,-0.65977 0.2407644,-1.31414 0.3841903,-1.96655 0.1472184,-0.6839 0.3259193,-1.36023 0.5178327,-2.03276 0.2022634,-0.71022 0.4398565,-1.40934 0.6991865,-2.10053 0.275484,-0.72959 0.612457,-1.43303 0.9716,-2.12448 0.372553,-0.72049 0.821989,-1.39556 1.299916,-2.04939 0.474375,-0.64165 1.00957,-1.23366 1.569012,-1.80134 0.586755,-0.59127 1.24464,-1.10198 1.92625,-1.57781 0.72289,-0.50124 1.509882,-0.89282 2.315739,-1.23977 0.800215,-0.33247 1.633231,-0.57275 2.471887,-0.7853 0.86053,-0.21314 1.738005,-0.34171 2.616624,-0.45177 0.884785,-0.10572 1.773077,-0.17732 2.661689,-0.24135 0.936575,-0.0652 1.874877,-0.0991 2.813053,-0.13093 0.901668,-0.0297 1.80349,-0.0545 2.705335,-0.0783 0.874742,-0.0237 1.749621,-0.0415 2.624513,-0.0584 0.848916,-0.0163 1.69789,-0.0293 2.546813,-0.0451 0.859618,-0.0177 1.719244,-0.035 2.578894,-0.051 0.870469,-0.0163 1.741022,-0.0275 2.61157,-0.0385 0.858525,-0.0107 1.717069,-0.0198 2.575615,-0.0286 0.812486,-0.008 1.624979,-0.0156 2.437474,-0.0227 0.756254,-0.007 1.51252,-0.0118 2.268771,-0.0186 0.684432,-0.006 1.368777,-0.0184 2.052957,-0.0378 0.64235,-0.0203 1.284158,-0.0541 1.925812,-0.0897 0.660072,-0.0378 1.320282,-0.0732 1.9806,-0.1064 0.650417,-0.0325 1.301041,-0.0606 1.951723,-0.0872 0.638413,-0.0261 1.276966,-0.0485 1.915564,-0.0694 0.640567,-0.0208 1.281229,-0.0383 1.92191,-0.0551 0.608253,-0.0159 1.216546,-0.0302 1.824852,-0.0437 0.568087,-0.0127 1.136227,-0.0229 1.704295,-0.0364 0.51988,-0.009 1.039101,-0.0363 1.558232,-0.0639 0.554053,-0.0303 1.108329,-0.0562 1.662496,-0.0842 0.54709,-0.0285 1.094187,-0.057 1.641187,-0.0872 0.532513,-0.0286 1.064791,-0.0613 1.596784,-0.0983 0.527394,-0.0383 1.054491,-0.0807 1.581568,-0.12316 0.523452,-0.0429 1.046633,-0.0891 1.570051,-0.13246 0.553,-0.0492 1.107138,-0.0821 1.661734,-0.10632 0.621686,-0.0277 1.243885,-0.027 1.865778,-0.009 0.661344,0.0215 1.320567,0.0779 1.977408,0.15606 0.64316,0.0815 1.279928,0.20398 1.911676,0.34812 0.6683,0.1509 1.314812,0.37592 1.9475,0.63595 0.651335,0.27413 1.259194,0.63466 1.848146,1.02222 0.595053,0.39224 1.134351,0.85685 1.644269,1.35267 0.548883,0.54136 1.007184,1.16059 1.428242,1.80363 0.421259,0.65647 0.751269,1.36349 1.053679,2.08061 0.286705,0.69625 0.51638,1.41367 0.733949,2.13389 0.199454,0.66848 0.372991,1.34422 0.537933,2.02191 0.167034,0.68418 0.304765,1.37486 0.431292,2.06751 0.133164,0.73954 0.238035,1.48369 0.336624,2.22849 0.102893,0.78226 0.185242,1.56697 0.261252,2.35223 0.07916,0.83185 0.143774,1.66498 0.204253,2.49836 0.06185,0.86515 0.11272,1.73103 0.160949,2.59703 0.05134,0.87422 0.08897,1.74906 0.110712,2.62451 0.02154,0.8594 0.0024,1.71891 -0.02347,2.57796 -0.02479,0.74345 -0.05501,1.48672 -0.08326,2.23006 -0.02432,0.67204 -0.05038,1.34402 -0.07827,2.01593 -0.02696,0.65199 -0.06051,1.30368 -0.09675,1.95521 -0.03389,0.61398 -0.06801,1.22793 -0.106767,1.84162 -0.03819,0.57463 -0.07834,1.14913 -0.115313,1.72385 -0.03537,0.54959 -0.06546,1.09948 -0.09385,1.64946 -0.02836,0.55452 -0.05234,1.10924 -0.07525,1.66401 -0.02188,0.53588 -0.0414,1.07185 -0.06056,1.60783 -0.01659,0.46688 -0.03279,0.93376 -0.04864,1.40066 -0.01352,0.39947 -0.02622,0.79897 -0.03861,1.19848 -0.01109,0.35545 -0.02098,0.71093 -0.03065,1.06643 -0.0084,0.31151 -0.01654,0.62303 -0.02463,0.93455 -0.0066,0.25309 -0.01315,0.50617 -0.01971,0.75926 -0.0052,0.20188 -0.01048,0.40376 -0.01572,0.60563 -0.0042,0.16091 -0.0084,0.32181 -0.01251,0.48272 -0.0033,0.12825 -0.0066,0.25649 -0.01,0.38474 -0.0026,0.10221 -0.0053,0.20442 -0.008,0.30664 -0.0021,0.0815 -0.0042,0.16293 -0.0064,0.2444 -0.0013,0.15574 -0.01908,0.30979 -0.03159,0.46535 -0.612881,4.82554 -7.437226,3.9588 -6.824345,-0.86674 v 0 c -0.04296,0.57917 -0.02175,0.3516 -0.0209,0.22299 0.0021,-0.0815 0.0042,-0.16294 0.0063,-0.2444 0.0026,-0.10222 0.0053,-0.20443 0.008,-0.30665 0.0033,-0.12824 0.0066,-0.25649 0.01,-0.38473 0.0042,-0.16091 0.0083,-0.32181 0.01251,-0.48272 0.0052,-0.20188 0.01048,-0.40376 0.01572,-0.60564 0.0066,-0.25324 0.01315,-0.50648 0.01971,-0.75972 0.0082,-0.31424 0.01635,-0.62847 0.02484,-0.9427 0.0099,-0.36424 0.02005,-0.72846 0.03141,-1.09266 0.01259,-0.40621 0.02551,-0.81241 0.03926,-1.21858 0.01598,-0.47102 0.03234,-0.94203 0.04907,-1.41302 0.01961,-0.54872 0.03962,-1.09743 0.06203,-1.64605 0.02389,-0.57839 0.04895,-1.15673 0.07855,-1.73486 0.02991,-0.57899 0.06164,-1.15789 0.09889,-1.73646 0.03683,-0.57211 0.07662,-1.14401 0.114816,-1.71603 0.03773,-0.59646 0.07067,-1.19319 0.103693,-1.78992 0.03448,-0.61925 0.0664,-1.23864 0.09205,-1.85833 0.02757,-0.66387 0.05327,-1.32781 0.07731,-1.99182 0.02758,-0.72572 0.05703,-1.45138 0.08146,-2.17721 0.0223,-0.73339 0.04045,-1.46717 0.02238,-2.2009 -0.01942,-0.80419 -0.05522,-1.60774 -0.102145,-2.4108 -0.04605,-0.82757 -0.09456,-1.65503 -0.153565,-2.48179 -0.05642,-0.77857 -0.116609,-1.55689 -0.190351,-2.33403 -0.06808,-0.70527 -0.141677,-1.41006 -0.233847,-2.11264 -0.08367,-0.63396 -0.171966,-1.26747 -0.284559,-1.89706 -0.101944,-0.56144 -0.212948,-1.12129 -0.348089,-1.67582 -0.135109,-0.55684 -0.276968,-1.11217 -0.439936,-1.66161 -0.148018,-0.49271 -0.301228,-0.98453 -0.492932,-1.46235 -0.141806,-0.34315 -0.290957,-0.6845 -0.485008,-1.00204 -0.14112,-0.22607 -0.294015,-0.44523 -0.479096,-0.63808 -0.188598,-0.19374 -0.394703,-0.36852 -0.618789,-0.5204 -0.222592,-0.15018 -0.449856,-0.29466 -0.694751,-0.40635 -0.273302,-0.11883 -0.555533,-0.21453 -0.846177,-0.28184 -0.392875,-0.0927 -0.790017,-0.16666 -1.18998,-0.22155 -0.450212,-0.0559 -0.902491,-0.0923 -1.35591,-0.10934 -0.454676,-0.0145 -0.90959,-0.0134 -1.36416,0.006 -0.464278,0.0198 -0.928108,0.0477 -1.391002,0.0893 -0.528775,0.0438 -1.057301,0.0905 -1.586124,0.13378 -0.55214,0.0444 -1.104297,0.0889 -1.656784,0.1288 -0.564422,0.0392 -1.129128,0.0741 -1.694095,0.10439 -0.557689,0.0308 -1.115473,0.0598 -1.673254,0.0889 -0.548368,0.0277 -1.096836,0.0534 -1.645089,0.0833 -0.586058,0.0311 -1.172258,0.0614 -1.759138,0.0716 -0.571513,0.0136 -1.143093,0.024 -1.714627,0.0367 -0.599337,0.0134 -1.198661,0.0275 -1.797944,0.0431 -0.625769,0.0164 -1.251519,0.0335 -1.877174,0.0538 -0.62007,0.0203 -1.240094,0.042 -1.859984,0.0673 -0.629042,0.0257 -1.258028,0.0528 -1.886812,0.0842 -0.648875,0.0326 -1.297636,0.0674 -1.946267,0.10459 -0.703662,0.0389 -1.407502,0.0756 -2.111942,0.0974 -0.728196,0.0205 -1.45656,0.0339 -2.185021,0.0403 -0.756897,0.007 -1.513809,0.0118 -2.270707,0.0186 -0.808993,0.007 -1.617986,0.0144 -2.42697,0.0226 -0.853073,0.009 -1.706142,0.0178 -2.559193,0.0284 -0.856853,0.0108 -1.713712,0.0218 -2.570486,0.0379 -0.859562,0.016 -1.719098,0.0333 -2.578626,0.051 -0.847368,0.0158 -1.694781,0.0288 -2.542138,0.045 -0.858811,0.0166 -1.717611,0.034 -2.576272,0.0573 -0.884528,0.0233 -1.769035,0.0476 -2.653395,0.0767 -0.85127,0.0288 -1.702694,0.0587 -2.552557,0.11716 -0.769827,0.0553 -1.539433,0.11625 -2.306088,0.20647 -0.59987,0.0739 -1.199819,0.1556 -1.788279,0.29672 -0.492608,0.12234 -0.982891,0.25749 -1.455817,0.44372 -0.38056,0.15802 -0.75352,0.33501 -1.095475,0.56717 -0.338216,0.22953 -0.664078,0.47785 -0.95602,0.76502 -0.325687,0.32434 -0.634385,0.66578 -0.911524,1.03295 -0.273806,0.36802 -0.53093,0.74871 -0.742948,1.15631 -0.234135,0.4451 -0.453199,0.89847 -0.63326,1.36851 -0.195507,0.51459 -0.37025,1.03673 -0.522232,1.56591 -0.153849,0.53573 -0.29631,1.07474 -0.413394,1.61985 -0.116678,0.52864 -0.227341,1.05879 -0.312773,1.59353 -0.09324,0.57119 -0.178524,1.14362 -0.266384,1.71565 -0.08601,0.55736 -0.174877,1.11427 -0.2607,1.67166 -0.08106,0.53259 -0.164303,1.0649 -0.236817,1.59874 -0.06782,0.53312 -0.125603,1.06752 -0.161623,1.60384 -0.03868,0.55881 -0.07426,1.11826 -0.08074,1.67854 -0.0035,0.56099 2.16e-4,1.12211 0.02117,1.68278 0.021,0.52475 0.04708,1.0493 0.08191,1.57334 0.02808,0.41492 0.05725,0.82992 0.103475,1.2433 0.05193,0.42204 0.113227,0.84284 0.178695,1.26299 0.07501,0.47977 0.152942,0.95907 0.23564,1.43757 0.09707,0.5612 0.197888,1.12174 0.299651,1.68211 0.116657,0.65709 0.230554,1.3148 0.32667,1.97526 0.09553,0.68802 0.172721,1.37833 0.223675,2.0712 0.04294,0.54609 0.08233,1.09247 0.118727,1.63904 0.03196,0.5303 0.05794,1.06122 0.04858,1.5927 -0.0054,0.41565 -0.01572,0.83119 -0.03159,1.24659 -0.01284,0.35113 -0.02689,0.70223 -0.04558,1.05311 -0.01687,0.31686 -0.03492,0.63365 -0.0564,0.95023 -0.01504,0.21989 -0.03234,0.43969 -0.04103,0.65995 -0.0055,0.12215 -0.01223,0.24436 -0.01341,0.36662 -5.29e-4,0.13574 -0.0035,-0.0355 -0.01,-0.0437 0.55075,4.83302 -6.284181,5.6119 -6.8349307,0.77888 z"
       inkscape:connector-curvature="0" />
    <path
       style="opacity:1;fill:#020900;fill-opacity:1;stroke:none;stroke-width:1;stroke-linecap:butt;stroke-linejoin:round;stroke-miterlimit:4;stroke-dasharray:none;stroke-opacity:1"
       id="path1455"
       d="m 32.293284,235.8339 c 0.415431,0.4715 0.674455,1.03765 0.872453,1.62694 0.120415,0.38155 0.210879,0.7716 0.29477,1.16251 0.09455,0.44953 0.163192,0.90383 0.22397,1.35897 0.06816,0.52628 0.108116,1.05555 0.141094,1.58502 0.0322,0.54764 0.05002,1.09596 0.06428,1.64432 0.014,0.58525 0.0232,1.17059 0.03203,1.75593 0.0095,0.64546 0.01707,1.29095 0.02421,1.93643 0.0074,0.67456 0.01349,1.34912 0.01924,2.02369 0.0054,0.68696 0.01633,1.37385 0.02704,2.06074 0.01143,0.72421 0.0213,1.44844 0.03059,2.17268 0.0094,0.73756 0.01725,1.47514 0.02466,2.21273 0.0078,0.77841 0.01394,1.55684 0.01963,2.33527 0.0062,0.85932 0.01106,1.71865 0.01564,2.57798 0.005,0.9065 0.0081,1.81301 0.01304,2.71951 0.0046,0.89647 0.01236,1.79292 0.01976,2.68937 0.0063,0.851 0.01548,1.70198 0.01794,2.553 0.0024,0.80488 -0.0089,1.6097 -0.02891,2.41431 -0.0195,0.6917 -0.04619,1.38316 -0.07189,2.07465 -0.02101,0.56352 -0.0469,1.12684 -0.07252,1.69017 -0.0208,0.46885 -0.04704,0.93744 -0.07234,1.40607 -0.02032,0.37583 -0.04068,0.75165 -0.06105,1.12748 -0.01624,0.29968 -0.03247,0.59936 -0.04872,0.89903 -0.01294,0.23886 -0.02588,0.47771 -0.03883,0.71656 -0.01032,0.19037 -0.02064,0.38074 -0.03095,0.57111 -0.0082,0.15173 -0.01646,0.30346 -0.02466,0.45519 -0.0066,0.12094 -0.0131,0.24187 -0.01966,0.3628 -0.0038,0.0702 -0.0076,0.14047 -0.01162,0.2107 -0.28308,4.85606 -7.150589,4.45572 -6.867509,-0.40034 v 0 c 0.0036,-0.0608 0.0067,-0.12172 0.01005,-0.18258 0.0066,-0.12093 0.0131,-0.24186 0.01966,-0.3628 0.0082,-0.15172 0.01646,-0.30345 0.02466,-0.45518 0.01032,-0.19038 0.02064,-0.38075 0.03095,-0.57112 0.01294,-0.23885 0.02588,-0.4777 0.03883,-0.71655 0.01624,-0.29967 0.03247,-0.59934 0.04871,-0.899 0.02035,-0.37536 0.04068,-0.75072 0.06097,-1.12608 0.02426,-0.44924 0.0495,-0.89845 0.06944,-1.34792 0.02477,-0.54428 0.04984,-1.08856 0.07016,-1.63303 0.02466,-0.66361 0.0503,-1.32719 0.0693,-1.99098 0.01863,-0.74094 0.02873,-1.48206 0.02679,-2.22325 -0.0024,-0.83844 -0.01164,-1.67684 -0.0177,-2.51526 -0.0075,-0.9029 -0.01535,-1.8058 -0.01992,-2.70873 -0.0049,-0.90681 -0.008,-1.81363 -0.01304,-2.72045 -0.0046,-0.8548 -0.0094,-1.7096 -0.01556,-2.5644 -0.0056,-0.77219 -0.01177,-1.54438 -0.01947,-2.31656 -0.0073,-0.73118 -0.01513,-1.46236 -0.02442,-2.19351 -0.0092,-0.7179 -0.019,-1.43579 -0.03032,-2.15366 -0.01095,-0.70308 -0.02209,-1.40617 -0.02763,-2.10933 -0.0057,-0.66869 -0.01172,-1.33739 -0.01905,-2.00607 -0.0071,-0.63634 -0.01447,-1.27268 -0.02387,-1.90899 -0.0084,-0.56065 -0.01722,-1.1213 -0.03051,-1.68186 -0.01196,-0.46638 -0.02673,-0.93273 -0.05352,-1.39853 -0.02249,-0.36955 -0.04878,-0.73907 -0.09476,-1.10658 -0.03617,-0.27775 -0.07695,-0.55504 -0.132805,-0.82961 -0.03319,-0.15872 -0.06957,-0.3167 -0.11044,-0.47364 0.120949,0.2819 0.279741,0.54486 0.48641,0.77329 -3.196431,-3.66664 1.988989,-8.18708 5.185421,-4.52044 z"
       inkscape:connector-curvature="0" />
    <path
       style="opacity:1;fill:#020900;fill-opacity:1;stroke:none;stroke-width:1;stroke-linecap:butt;stroke-linejoin:round;stroke-miterlimit:4;stroke-dasharray:none;stroke-opacity:1"
       id="path1457"
       d="m 68.552985,238.39961 c -0.0016,0.1267 0.0021,0.25334 0.0064,0.37995 0.0091,0.28261 0.02339,0.56503 0.03684,0.84746 0.0199,0.41 0.0346,0.82022 0.0481,1.23048 0.01595,0.49286 0.02757,0.98585 0.03833,1.47884 0.01445,0.59463 0.02048,1.18937 0.02215,1.78415 0.0021,0.69355 -0.0016,1.38708 -0.01074,2.08057 -0.01185,0.7804 -0.03358,1.56062 -0.05604,2.34077 -0.02421,0.81204 -0.05531,1.62384 -0.08391,2.43573 -0.02818,0.81408 -0.0533,1.62826 -0.08018,2.44238 -0.02682,0.79629 -0.05629,1.59249 -0.08601,2.38868 -0.02768,0.76147 -0.06266,1.52263 -0.09817,2.28377 -0.03534,0.75115 -0.07853,1.50191 -0.125823,2.2524 -0.04677,0.71533 -0.09195,1.43075 -0.137472,2.14616 -0.04505,0.70941 -0.08729,1.41899 -0.126508,2.12874 -0.03835,0.70324 -0.07194,1.40672 -0.10496,2.11022 -0.02915,0.62474 -0.05716,1.24952 -0.0844,1.87434 -0.02416,0.55244 -0.04602,1.10499 -0.06687,1.65757 -0.0195,0.51928 -0.0367,1.03864 -0.05325,1.55802 -0.01492,0.47244 -0.02903,0.94491 -0.04269,1.41739 -0.0122,0.42069 -0.02331,0.84141 -0.03392,1.26214 -0.0098,0.3925 -0.01855,0.78503 -0.02702,1.17757 -0.0077,0.35443 -0.01267,0.70893 -0.01572,1.06344 -0.0035,0.30705 -2.23e-4,0.6141 0.0046,0.92111 0.0032,0.28201 0.01151,0.56391 0.02019,0.8458 0.0081,0.26997 0.01876,0.53985 0.02894,0.80975 0.0088,0.23144 0.01757,0.46288 0.02622,0.69433 0.0046,0.14489 0.01492,0.28944 0.0258,0.43396 0.01111,0.14543 0.02257,0.29084 0.034,0.43625 0.0094,0.11913 0.01873,0.23826 0.02811,0.3574 0.02973,0.27957 -0.03934,-0.22907 -0.04414,-0.26067 1.023443,4.75542 -5.701739,6.20278 -6.725181,1.44736 v 0 c -0.03557,-0.21556 -0.07824,-0.42887 -0.08866,-0.64722 -0.0094,-0.11934 -0.01878,-0.23868 -0.02816,-0.35801 -0.01209,-0.15377 -0.02421,-0.30753 -0.03592,-0.46133 -0.01717,-0.22992 -0.03224,-0.46 -0.04019,-0.69046 -0.0086,-0.23069 -0.01738,-0.46137 -0.02614,-0.69205 -0.01079,-0.28607 -0.02207,-0.57212 -0.0306,-0.85826 -0.0097,-0.31651 -0.01879,-0.63304 -0.02257,-0.94968 -0.0056,-0.3628 -0.0092,-0.72564 -0.0052,-1.08848 0.0034,-0.38399 0.0087,-0.76799 0.01707,-1.15191 0.0087,-0.40079 0.0176,-0.80157 0.0276,-1.20232 0.01082,-0.42921 0.02217,-0.85841 0.03462,-1.28758 0.01386,-0.47923 0.02818,-0.95844 0.0433,-1.43763 0.01699,-0.53282 0.03463,-1.06562 0.05465,-1.59834 0.02135,-0.56599 0.04376,-1.13195 0.06851,-1.6978 0.02757,-0.63244 0.05593,-1.26485 0.08544,-1.8972 0.03392,-0.72257 0.06846,-1.44511 0.107884,-2.16741 0.0403,-0.7288 0.08362,-1.45744 0.129905,-2.18589 0.04545,-0.71416 0.09053,-1.42834 0.137234,-2.14242 0.04502,-0.71298 0.08599,-1.42622 0.119647,-2.13984 0.03451,-0.73985 0.0686,-1.47973 0.09549,-2.21991 0.02936,-0.78632 0.05847,-1.57265 0.08497,-2.35907 0.02706,-0.81916 0.05232,-1.63839 0.0807,-2.45751 0.02809,-0.79715 0.05861,-1.59423 0.0825,-2.39152 0.02143,-0.74425 0.04227,-1.48856 0.05378,-2.23304 0.0087,-0.65721 0.01201,-1.31446 0.01019,-1.97173 -0.0013,-0.55101 -0.0071,-1.10198 -0.02053,-1.65284 -0.01019,-0.46764 -0.02117,-0.93527 -0.03625,-1.40279 -0.01236,-0.37644 -0.02577,-0.75286 -0.04401,-1.12907 -0.01516,-0.31821 -0.031,-0.63641 -0.04112,-0.95483 -0.0071,-0.22644 -0.01252,-0.45296 -0.0095,-0.67953 0.05629,-4.86398 6.934999,-4.78437 6.878706,0.0796 z"
       inkscape:connector-curvature="0" />
  </g>
</svg>
