<svg viewBox="0 0 100 100"><path style="opacity:1;fill:#020900;fill-opacity:1;stroke:none;stroke-width:1;stroke-linecap:butt;stroke-linejoin:round;stroke-miterlimit:4;stroke-dasharray:none;stroke-opacity:1" d="M9.266 278.6a6 6 0 0 1-.034-.746c0-.22.01-.44.02-.66.011-.275.032-.55.05-.825a59 59 0 0 0 .119-2.868 14 14 0 0 0-.037-1.09q-.05-.757-.11-1.514-.061-.833-.179-1.658a60 60 0 0 0-.287-1.726q-.155-.854-.305-1.712a98 98 0 0 1-.253-1.547 47 47 0 0 1-.21-1.48 33 33 0 0 1-.14-1.624 67 67 0 0 1-.091-1.763 46 46 0 0 1-.027-2c.006-.704.049-1.407.097-2.11.045-.667.116-1.331.2-1.995.078-.59.17-1.18.26-1.77l.263-1.685q.133-.888.276-1.774c.105-.66.24-1.314.384-1.966.147-.684.326-1.36.518-2.033.202-.71.44-1.41.699-2.1.275-.73.612-1.434.972-2.125.372-.72.822-1.396 1.3-2.05a17 17 0 0 1 1.568-1.8c.587-.592 1.245-1.103 1.927-1.579.723-.501 1.51-.893 2.315-1.24.8-.332 1.634-.572 2.472-.785.86-.213 1.738-.342 2.617-.452a57 57 0 0 1 2.662-.24c.936-.066 1.875-.1 2.813-.132a414 414 0 0 1 5.33-.137l2.546-.045 2.58-.05q1.305-.024 2.61-.04a1164 1164 0 0 1 5.014-.05l2.269-.019q1.026-.008 2.053-.038c.642-.02 1.284-.054 1.925-.09q.99-.056 1.981-.106a215 215 0 0 1 3.867-.157 308 308 0 0 1 3.747-.098l1.704-.037a43 43 0 0 0 1.559-.064l1.662-.084 1.641-.087a101 101 0 0 0 3.179-.222c.523-.042 1.046-.089 1.57-.132.553-.05 1.107-.082 1.661-.106a23 23 0 0 1 3.843.147c.644.081 1.28.204 1.912.348.669.15 1.315.376 1.948.636.651.274 1.259.635 1.848 1.022.595.392 1.134.857 1.644 1.353.55.541 1.007 1.16 1.428 1.803.422.657.752 1.364 1.054 2.081.287.696.517 1.414.734 2.134.2.668.373 1.344.538 2.022.167.684.305 1.375.431 2.067a49 49 0 0 1 .337 2.229c.103.782.185 1.567.261 2.352.08.832.144 1.665.204 2.498q.091 1.298.161 2.597.079 1.313.111 2.625c.022.86.002 1.719-.023 2.578q-.039 1.115-.084 2.23-.036 1.008-.078 2.016-.041.978-.097 1.955-.05.921-.106 1.842-.06.861-.116 1.724a130 130 0 0 0-.169 3.313 885 885 0 0 0-.148 4.207 267 267 0 0 0-.055 2.001l-.02.76-.015.605-.013.483-.01.384-.008.307-.006.244c-.002.156-.02.31-.032.466-.613 4.825-7.437 3.958-6.824-.867-.043.58-.022.352-.021.223l.006-.244.008-.307.01-.385.013-.483.015-.605.02-.76.025-.943a273 273 0 0 1 .07-2.31 888 888 0 0 1 .112-3.06q.035-.867.078-1.735.044-.869.1-1.736.055-.858.114-1.716.055-.895.104-1.79.052-.93.092-1.859.04-.995.077-1.991.043-1.089.082-2.178c.022-.733.04-1.467.022-2.2a71 71 0 0 0-.102-2.411q-.067-1.242-.154-2.482c-.056-.779-.116-1.557-.19-2.334a62 62 0 0 0-.234-2.113 42 42 0 0 0-.285-1.897 29 29 0 0 0-.348-1.676 34 34 0 0 0-.44-1.661 17 17 0 0 0-.493-1.463 7 7 0 0 0-.485-1.002 4 4 0 0 0-.479-.638 4 4 0 0 0-.618-.52 5 5 0 0 0-.695-.406 5 5 0 0 0-.846-.282q-.59-.14-1.19-.222a16 16 0 0 0-2.72-.103q-.698.028-1.391.09l-1.587.133q-.828.067-1.656.129-.848.059-1.694.104l-1.674.089q-.822.04-1.645.083c-.586.031-1.172.062-1.759.072q-.857.02-1.715.037a490 490 0 0 0-3.675.097 231 231 0 0 0-3.746.151q-.974.049-1.947.105a87 87 0 0 1-2.112.097q-1.092.03-2.185.04l-2.27.019q-1.214.01-2.427.023-1.28.012-2.56.028-1.284.014-2.57.038l-2.579.05q-1.27.024-2.542.046-1.288.023-2.576.057-1.328.034-2.653.077c-.852.029-1.703.059-2.553.117-.77.055-1.54.116-2.306.206-.6.074-1.2.156-1.788.297-.493.122-.983.258-1.456.444-.38.158-.754.335-1.096.567-.338.23-.664.478-.956.765a10 10 0 0 0-.911 1.033 8.6 8.6 0 0 0-.743 1.156 13 13 0 0 0-.633 1.369q-.294.772-.523 1.566a25 25 0 0 0-.413 1.62 28 28 0 0 0-.313 1.593c-.093.571-.178 1.144-.266 1.716l-.26 1.671c-.082.533-.165 1.065-.238 1.6a27 27 0 0 0-.161 1.603 29 29 0 0 0-.081 1.679c-.004.56 0 1.122.021 1.682q.03.788.082 1.574c.028.415.057.83.103 1.243q.08.633.18 1.263.11.72.235 1.438.146.84.3 1.682c.116.657.23 1.314.326 1.975q.146 1.032.224 2.071.064.82.119 1.64c.032.53.057 1.06.048 1.592q-.008.623-.031 1.246a63 63 0 0 1-.102 2.004c-.015.22-.033.44-.041.66q-.01.183-.014.366c0 .136-.003-.035-.01-.043.55 4.833-6.284 5.612-6.835.779z" transform="translate(0 -197)"/><path style="opacity:1;fill:#020900;fill-opacity:1;stroke:none;stroke-width:1;stroke-linecap:butt;stroke-linejoin:round;stroke-miterlimit:4;stroke-dasharray:none;stroke-opacity:1" d="M32.293 235.834c.416.471.675 1.038.873 1.627.12.381.21.771.295 1.162.094.45.163.904.223 1.36a24 24 0 0 1 .142 1.584c.032.548.05 1.096.064 1.645q.02.877.032 1.756a530 530 0 0 1 .043 3.96q.01 1.03.027 2.06a735 735 0 0 1 .075 6.721l.016 2.578.013 2.72q.008 1.344.02 2.689c.006.851.015 1.702.018 2.553q.002 1.208-.03 2.414-.03 1.038-.071 2.075-.033.845-.073 1.69c-.02.469-.047.938-.072 1.406l-.061 1.128-.049.899-.07 1.287-.024.456-.02.362-.012.211c-.283 4.856-7.15 4.456-6.867-.4l.01-.183.02-.363.024-.455.031-.571.04-.717q.023-.45.048-.899l.06-1.126q.039-.673.07-1.348.039-.816.07-1.633.039-.995.07-1.99.028-1.112.026-2.224c-.002-.838-.011-1.677-.017-2.515q-.013-1.354-.02-2.709l-.013-2.72a1405 1405 0 0 0-.035-4.881 806 806 0 0 0-.055-4.347q-.017-1.055-.028-2.11a823 823 0 0 0-.042-3.915 193 193 0 0 0-.031-1.682 44 44 0 0 0-.054-1.398c-.022-.37-.048-.74-.094-1.107a12 12 0 0 0-.133-.83q-.05-.237-.11-.473c.12.282.28.545.486.773-3.197-3.666 1.989-8.187 5.185-4.52m36.26 2.566q-.001.19.006.38.016.423.037.847.03.615.048 1.23.023.74.039 1.48.02.892.022 1.783.003 1.041-.01 2.081c-.013.78-.035 1.56-.057 2.34-.024.813-.055 1.625-.084 2.437l-.08 2.442a656 656 0 0 1-.086 2.389 222 222 0 0 1-.098 2.283q-.055 1.127-.126 2.253-.07 1.072-.138 2.146-.067 1.064-.126 2.129-.056 1.054-.105 2.11-.044.938-.084 1.874a277 277 0 0 0-.163 4.633 334 334 0 0 0-.061 2.44q-.012.531-.016 1.063-.004.46.005.921.005.424.02.846.013.405.029.81l.026.694q.008.218.026.434l.034.437.028.357c.03.28-.04-.23-.044-.26 1.023 4.755-5.702 6.202-6.725 1.447-.036-.216-.079-.43-.089-.648l-.028-.358-.036-.46q-.027-.345-.04-.691l-.026-.692q-.017-.43-.031-.859a51 51 0 0 1-.028-2.038q.006-.576.017-1.152a371 371 0 0 1 .16-5.526q.032-.85.069-1.697l.085-1.898q.05-1.083.108-2.167.06-1.093.13-2.186l.137-2.142q.068-1.07.12-2.14.054-1.11.096-2.22.044-1.18.085-2.36l.08-2.457c.028-.797.059-1.594.083-2.391.021-.744.042-1.489.054-2.233q.013-.986.01-1.972a75 75 0 0 0-.02-1.653q-.016-.7-.037-1.403a72 72 0 0 0-.044-1.129q-.024-.477-.041-.954a15 15 0 0 1-.01-.68c.057-4.864 6.935-4.784 6.879.08" transform="translate(0 -197)"/></svg>