<?xml version="1.0" encoding="UTF-8" standalone="no"?>
<!-- Created with Inkscape (http://www.inkscape.org/) -->

<svg
   xmlns:dc="http://purl.org/dc/elements/1.1/"
   xmlns:cc="http://creativecommons.org/ns#"
   xmlns:rdf="http://www.w3.org/1999/02/22-rdf-syntax-ns#"
   xmlns:svg="http://www.w3.org/2000/svg"
   xmlns="http://www.w3.org/2000/svg"
   xmlns:sodipodi="http://sodipodi.sourceforge.net/DTD/sodipodi-0.dtd"
   xmlns:inkscape="http://www.inkscape.org/namespaces/inkscape"
   width="10cm"
   height="10cm"
   viewBox="0 0 100 99.999997"
   version="1.1"
   id="svg8"
   sodipodi:docname="seme.svg"
   inkscape:version="0.92.3 (2405546, 2018-03-11)">
  <defs
     id="defs2" />
  <sodipodi:namedview
     id="base"
     pagecolor="#ffffff"
     bordercolor="#666666"
     borderopacity="1.0"
     inkscape:pageopacity="0.0"
     inkscape:pageshadow="2"
     inkscape:zoom="1"
     inkscape:cx="175.50186"
     inkscape:cy="186.50542"
     inkscape:document-units="cm"
     inkscape:current-layer="layer1"
     showgrid="true"
     units="cm"
     inkscape:window-width="881"
     inkscape:window-height="707"
     inkscape:window-x="971"
     inkscape:window-y="213"
     inkscape:window-maximized="0"
     inkscape:snap-nodes="false">
    <inkscape:grid
       type="xygrid"
       id="grid815"
       units="cm"
       spacingx="9.9999998"
       spacingy="9.9999998" />
  </sodipodi:namedview>
  <metadata
     id="metadata5">
    <rdf:RDF>
      <cc:Work
         rdf:about="">
        <dc:format>image/svg+xml</dc:format>
        <dc:type
           rdf:resource="http://purl.org/dc/dcmitype/StillImage" />
        <dc:title></dc:title>
      </cc:Work>
    </rdf:RDF>
  </metadata>
  <g
     inkscape:label="Layer 1"
     inkscape:groupmode="layer"
     id="layer1"
     transform="translate(0,-197.00002)">
    <path
       style="opacity:1;fill:#020900;fill-opacity:1;stroke:none;stroke-width:1;stroke-linecap:butt;stroke-linejoin:round;stroke-miterlimit:4;stroke-dasharray:none;stroke-opacity:1"
       id="path1463"
       d="m 37.752385,217.59611 c -0.02678,-0.015 -0.05427,-0.0287 -0.08167,-0.0425 -0.02943,-0.0145 -0.07301,-0.0354 -0.09581,-0.0463 -0.03383,-0.0149 -0.06806,-0.0296 -0.102145,-0.0443 -0.04943,-0.0213 -0.09887,-0.0426 -0.148307,-0.0639 -0.169307,-0.0693 -0.327443,-0.15835 -0.491353,-0.24157 -0.248626,-0.19517 -0.539125,-0.34641 -0.745876,-0.58549 -1.062492,-1.2286 -1.217737,-2.52451 -0.660029,-3.97951 0.219551,-0.51914 0.54348,-0.98001 0.889598,-1.42093 0.32172,-0.39881 0.672433,-0.77254 1.031004,-1.13808 0.47144,-0.48859 1.000866,-0.9118 1.552451,-1.30525 0.625424,-0.43773 1.301504,-0.7923 1.990307,-1.11779 0.709067,-0.32735 1.448802,-0.57939 2.192562,-0.81421 0.735986,-0.22947 1.484159,-0.41537 2.23657,-0.58179 0.795081,-0.17594 1.602079,-0.2839 2.411643,-0.36456 0.799634,-0.0801 1.603103,-0.092 2.40583,-0.075 0.810069,0.0185 1.614585,0.11501 2.413868,0.24223 0.838295,0.13391 1.652338,0.37365 2.452925,0.65073 0.848331,0.29338 1.647598,0.69965 2.421454,1.1503 0.797126,0.46977 1.528881,1.03442 2.226304,1.63971 0.69124,0.61279 1.309532,1.29968 1.901,2.00737 0.58226,0.70349 1.094674,1.45955 1.579578,2.23213 0.470046,0.75711 0.878158,1.54966 1.264836,2.35177 0.363029,0.76174 0.680047,1.54393 0.983099,2.33106 0.29796,0.76431 0.54933,1.54489 0.771255,2.33426 0.221699,0.80199 0.371004,1.62097 0.495562,2.44286 0.115845,0.78656 0.16501,1.58038 0.195926,2.37413 0.02432,0.70142 0.02037,1.40329 0.0051,2.10482 -0.014,0.69268 -0.06419,1.38362 -0.132868,2.07279 -0.07087,0.70002 -0.18887,1.39384 -0.322255,2.08428 -0.13094,0.67119 -0.299135,1.33413 -0.483343,1.99243 -0.175856,0.62305 -0.390409,1.23386 -0.622742,1.8378 -0.22025,0.56593 -0.473964,1.1176 -0.74644,1.66003 -0.249177,0.48287 -0.523862,0.95198 -0.804542,1.41705 -0.250844,0.41558 -0.52233,0.81796 -0.801929,1.21458 -0.259413,0.36647 -0.536032,0.72008 -0.821856,1.06619 -0.262433,0.31534 -0.53948,0.6179 -0.825114,0.91223 -0.280273,0.28672 -0.575368,0.55801 -0.879766,0.81874 -0.339378,0.28597 -0.70467,0.53843 -1.076963,0.77907 -0.351514,0.22453 -0.719762,0.42059 -1.092975,0.6061 -0.328282,0.16094 -0.665451,0.30246 -1.004281,0.43939 -0.284168,0.1147 -0.571715,0.22061 -0.860838,0.32207 -0.260908,0.0918 -0.524635,0.17517 -0.789173,0.2558 -0.248243,0.0755 -0.498811,0.14292 -0.74994,0.20804 -0.231513,0.0599 -0.46454,0.1136 -0.698101,0.16483 -0.208401,0.0454 -0.417777,0.0862 -0.627306,0.12601 -0.20389,0.0387 -0.408577,0.0731 -0.613523,0.10573 -0.206037,0.0325 -0.412721,0.0607 -0.619498,0.0881 -0.15947,0.0194 -0.318625,0.0406 -0.477192,0.0663 -0.181576,0.0305 -0.363157,0.061 -0.544526,0.0928 -0.141219,0.0234 -0.282075,0.0487 -0.421529,0.081 -0.141843,0.0386 0.006,-5.2e-4 0.0614,-0.0193 -0.06873,0.0428 -0.140562,0.0824 -0.2101,0.12451 -0.04251,0.0242 -0.082,0.0541 -0.118457,0.0867 0.01273,0.003 0.0092,0.005 0.0348,-0.0186 0.01807,0.007 -0.02424,0.0932 -0.03485,0.12116 -0.08302,0.22693 -0.147476,0.45996 -0.208978,0.69345 -0.07773,0.32152 -0.139518,0.64657 -0.195567,0.97248 -0.05799,0.36644 -0.09284,0.73604 -0.127534,1.10526 -0.04263,0.44957 -0.0643,0.90066 -0.07785,1.35193 -0.01148,0.50386 -0.0021,1.00786 0.0083,1.51164 0.014,0.56608 0.03207,1.13205 0.04807,1.69808 0.01627,0.55953 0.03873,1.11884 0.06033,1.67818 0.02096,0.54745 0.03987,1.09498 0.06057,1.64245 0.01773,0.47419 0.03842,0.94827 0.05794,1.42239 0.01942,0.44317 0.04027,0.88629 0.05938,1.32947 0.01725,0.42217 0.03501,0.8443 0.05344,1.26642 0.01667,0.37895 0.03222,0.75794 0.04748,1.13695 0.01283,0.31857 0.02545,0.63716 0.03781,0.95575 0.01008,0.26132 0.02008,0.52265 0.03006,0.78397 0.008,0.2084 0.01593,0.4168 0.02389,0.6252 0.0064,0.1661 0.0127,0.33219 0.01905,0.49829 0.0051,0.13239 0.01011,0.26477 0.01519,0.39715 0.0044,0.0798 0.0093,0.15958 0.01413,0.23936 0.0051,0.0835 0.01021,0.16693 0.01532,0.25039 0.0041,0.067 0.0082,0.13402 0.01233,0.20103 0.0033,0.0534 0.0066,0.10685 0.0098,0.16027 0.0026,0.0426 0.0052,0.0851 0.0078,0.12773 0.0013,0.0156 -0.0011,-0.0161 -0.0013,-0.0201 0.409228,4.84706 -6.445552,5.4258 -6.85478,0.57874 v 0 c -0.0038,-0.0458 -0.0073,-0.0917 -0.01005,-0.13761 -0.0026,-0.0426 -0.0052,-0.0851 -0.0078,-0.12773 -0.0033,-0.0534 -0.0066,-0.10685 -0.0098,-0.16027 -0.0041,-0.067 -0.0082,-0.13408 -0.01233,-0.20112 -0.0052,-0.0847 -0.0104,-0.16946 -0.01556,-0.25419 -0.008,-0.1312 -0.01614,-0.2624 -0.02175,-0.39372 -0.0051,-0.13239 -0.01013,-0.26477 -0.01519,-0.39716 -0.0063,-0.16609 -0.0127,-0.33219 -0.01905,-0.49829 -0.008,-0.20836 -0.01593,-0.41673 -0.02389,-0.62509 -0.0099,-0.25998 -0.01987,-0.51996 -0.0299,-0.77994 -0.01225,-0.31528 -0.02471,-0.63055 -0.03742,-0.94582 -0.01495,-0.37126 -0.03017,-0.7425 -0.0465,-1.1137 -0.0185,-0.42335 -0.03632,-0.84673 -0.0536,-1.27013 -0.01929,-0.44762 -0.04045,-0.89516 -0.05994,-1.34278 -0.01984,-0.48186 -0.04086,-0.96367 -0.05886,-1.44561 -0.02061,-0.54561 -0.0395,-1.09129 -0.06035,-1.63689 -0.02252,-0.58302 -0.04584,-1.16602 -0.06271,-1.74924 -0.01648,-0.58354 -0.03522,-1.16702 -0.04935,-1.75062 -0.01275,-0.62239 -0.02289,-1.24508 -0.0065,-1.86752 0.01902,-0.59551 0.04815,-1.1908 0.104936,-1.78408 0.05176,-0.54667 0.107069,-1.09352 0.198422,-1.63527 0.09188,-0.52623 0.193453,-1.05112 0.326522,-1.56871 0.140005,-0.52138 0.292497,-1.04026 0.495298,-1.54127 0.229367,-0.54704 0.490172,-1.08203 0.842888,-1.56192 0.317185,-0.42244 0.661323,-0.82413 1.066782,-1.1655 0.328051,-0.27317 0.669779,-0.52938 1.038709,-0.74552 0.318029,-0.18921 0.640977,-0.37129 0.979736,-0.52127 0.384818,-0.16362 0.77855,-0.3052 1.188778,-0.39119 0.247883,-0.0552 0.496853,-0.10521 0.747527,-0.14619 0.21326,-0.0373 0.426728,-0.0733 0.640281,-0.10882 0.221705,-0.0353 0.443895,-0.0672 0.666801,-0.0941 0.147383,-0.0194 0.294706,-0.0393 0.441587,-0.0622 0.135919,-0.0214 0.271634,-0.0442 0.406852,-0.0697 0.147828,-0.0281 0.295614,-0.0565 0.442685,-0.0883 0.148378,-0.0322 0.296368,-0.0663 0.44345,-0.10407 0.157448,-0.0406 0.314647,-0.0823 0.470331,-0.12935 0.174024,-0.0529 0.347654,-0.10708 0.519229,-0.16751 0.188335,-0.0657 0.375533,-0.13455 0.560586,-0.20904 0.178329,-0.0717 0.356407,-0.14436 0.530045,-0.22696 0.144954,-0.0706 0.288464,-0.1445 0.425992,-0.22892 0.117332,-0.0736 0.2324,-0.15106 0.342186,-0.23558 0.142494,-0.11577 0.272261,-0.24626 0.403468,-0.3744 0.158078,-0.16043 0.308851,-0.32778 0.454221,-0.4998 0.174315,-0.20887 0.341265,-0.42369 0.499401,-0.64512 0.186047,-0.26263 0.3669,-0.52896 0.533593,-0.80442 0.191109,-0.31546 0.378352,-0.63351 0.551159,-0.95944 0.172627,-0.33861 0.330131,-0.68457 0.470061,-1.03806 0.155864,-0.40081 0.298982,-0.80652 0.417158,-1.22021 0.134837,-0.47661 0.256879,-0.95694 0.352978,-1.443 0.09491,-0.48458 0.179581,-0.97154 0.230735,-1.46294 0.05241,-0.51006 0.0889,-1.02161 0.09978,-1.53439 0.01278,-0.56397 0.01662,-1.12822 -0.0019,-1.69215 -0.01963,-0.53948 -0.04917,-1.0793 -0.12479,-1.6143 -0.08007,-0.54251 -0.175379,-1.08351 -0.318326,-1.61347 -0.160396,-0.58098 -0.348149,-1.1537 -0.566542,-1.71566 -0.235473,-0.61386 -0.480795,-1.22434 -0.762026,-1.81895 -0.275082,-0.57454 -0.564515,-1.14286 -0.898245,-1.68602 -0.317291,-0.51088 -0.652541,-1.01114 -1.033457,-1.47738 -0.357708,-0.43253 -0.729739,-0.85442 -1.145508,-1.2327 -0.368472,-0.32844 -0.75874,-0.63057 -1.182261,-0.88573 -0.383977,-0.23053 -0.781212,-0.43768 -1.204979,-0.58634 -0.417441,-0.14892 -0.84155,-0.28043 -1.279813,-0.35317 -0.487593,-0.081 -0.978702,-0.14186 -1.473317,-0.1558 -0.526375,-0.0135 -1.053288,-0.008 -1.577808,0.0441 -0.53821,0.0513 -1.074727,0.12079 -1.60338,0.23652 -0.555647,0.12145 -1.107972,0.258 -1.65167,0.42579 -0.451969,0.1413 -0.903211,0.28846 -1.336587,0.48075 -0.3272,0.15098 -0.650317,0.31231 -0.949868,0.51399 -0.218982,0.14808 -0.42463,0.31283 -0.608063,0.50411 -0.188626,0.19092 -0.37397,0.38508 -0.54688,0.59053 -0.125116,0.15079 0.05802,-0.12526 0.05481,-0.16883 0.447572,-1.25629 0.130776,-2.50679 -0.750858,-3.51315 -0.198483,-0.22656 -0.476287,-0.36885 -0.714431,-0.55328 -0.643239,-0.32163 -0.39906,-0.19262 -0.250174,-0.13222 0.05138,0.0221 0.102764,0.0442 0.154133,0.0664 0.09017,0.0389 0.180353,0.0778 0.269454,0.11915 0.109715,0.0512 0.218713,0.104 0.326782,0.15865 0.130939,0.0669 0.261093,0.13533 0.388464,0.20882 4.216109,2.42609 0.7851,8.38856 -3.431006,5.96248 z"
       inkscape:connector-curvature="0" />
    <path
       style="opacity:1;fill:#020900;fill-opacity:1;stroke:none;stroke-width:1;stroke-linecap:butt;stroke-linejoin:round;stroke-miterlimit:4;stroke-dasharray:none;stroke-opacity:1"
       id="path1465"
       d="m 48.950366,281.44915 c 0.164208,-0.12453 0.308732,-0.27155 0.434832,-0.43398 0.06644,-0.0983 -0.04243,0.0946 -0.05503,0.11975 -0.08507,0.16655 -0.163563,0.3363 -0.236369,0.50854 -0.06851,0.16163 -0.124399,0.32804 -0.176186,0.49564 -0.03036,0.11243 -0.07409,0.22377 -0.0794,0.34104 0.01976,0.0879 0.0094,-0.072 0.0092,-0.0749 -0.03062,-0.37653 -0.20043,-0.70731 -0.412448,-1.01185 -0.209728,-0.27241 -0.481288,-0.47931 -0.794443,-0.61662 -0.07012,-0.0213 -0.140322,-0.0456 -0.20414,-0.0817 0.08892,-0.01 0.169648,-0.0461 0.25109,-0.0802 0.134697,-0.0556 0.262083,-0.12629 0.383122,-0.20705 0.101266,-0.0715 0.188455,-0.16106 0.275717,-0.24861 0.0679,-0.0543 0.199422,-0.2294 0.212376,-0.25217 -0.06802,0.0806 -0.11207,0.17694 -0.154239,0.27262 -0.06643,0.20794 -0.04946,0.4291 -0.02569,0.64235 0.0541,0.39697 0.258852,0.73084 0.498289,1.04248 0.281726,0.32923 0.641268,0.56101 1.047399,0.70316 0.03649,0.0342 0.4046,0.0668 0.240458,0.0653 -0.157385,-0.002 -0.314783,-0.002 -0.472178,-0.003 -0.103055,-2.6e-4 -0.05196,-1.4e-4 -0.153302,-2.6e-4 -4.864291,-0.0122 -4.847021,-6.89136 0.01728,-6.87915 v 0 c 0.102653,2.6e-4 0.05078,1.3e-4 0.155607,5.3e-4 0.201229,5.3e-4 0.402468,7.9e-4 0.603673,0.004 0.495729,0.0125 0.991841,0.0543 1.471181,0.19005 0.834734,0.25669 1.600359,0.65485 2.196714,1.30997 0.562346,0.6777 0.999154,1.42405 1.156997,2.30291 0.117043,0.74286 0.137795,1.49016 -0.04702,2.22597 -0.175537,0.69276 -0.423116,1.36428 -0.826068,1.96059 -0.334651,0.48325 -0.702927,0.94075 -1.12803,1.34846 -0.447006,0.43001 -0.918094,0.83641 -1.447596,1.16315 -0.538303,0.32805 -1.096317,0.62394 -1.691365,0.8369 -0.666875,0.23154 -1.35073,0.41226 -2.057953,0.46219 -0.811051,0.0503 -1.624698,0.0194 -2.405986,-0.2292 -0.916347,-0.32056 -1.758606,-0.7787 -2.392193,-1.53578 -0.568561,-0.73692 -0.999458,-1.54518 -1.116941,-2.48286 -0.06805,-0.60001 -0.08751,-1.20348 7.93e-4,-1.80331 0.0738,-0.48439 0.174726,-0.96373 0.327052,-1.43018 0.122113,-0.38496 0.254537,-0.7668 0.414104,-1.13809 0.141878,-0.32952 0.291502,-0.6557 0.456732,-0.97427 0.166709,-0.31766 0.340701,-0.63225 0.547349,-0.92612 0.267576,-0.36512 0.560316,-0.71242 0.920364,-0.99108 3.821514,-3.00956 8.077684,2.39488 4.256169,5.40444 z"
       inkscape:connector-curvature="0" />
  </g>
</svg>
