<svg viewBox="0 0 100 100"><path style="opacity:1;fill:#020900;fill-opacity:1;stroke:none;stroke-width:1;stroke-linecap:butt;stroke-linejoin:round;stroke-miterlimit:4;stroke-dasharray:none;stroke-opacity:1" d="M37.752 217.596q-.04-.022-.081-.042l-.096-.047-.102-.044-.149-.064c-.169-.07-.327-.158-.49-.241-.25-.196-.54-.347-.747-.586-1.062-1.229-1.218-2.524-.66-3.98.22-.519.544-.98.89-1.42.322-.4.672-.773 1.03-1.138.472-.49 1.002-.912 1.553-1.306.626-.437 1.302-.792 1.99-1.118.71-.327 1.45-.579 2.193-.814.736-.23 1.484-.415 2.237-.582a21 21 0 0 1 2.411-.364c.8-.08 1.603-.092 2.406-.075.81.018 1.615.115 2.414.242.838.134 1.652.374 2.453.65.848.294 1.648.7 2.421 1.151.798.47 1.53 1.035 2.227 1.64.691.613 1.31 1.3 1.9 2.007.583.704 1.095 1.46 1.58 2.232.47.758.878 1.55 1.265 2.352.363.762.68 1.544.983 2.331.298.765.55 1.545.771 2.334.222.802.371 1.621.496 2.443.116.787.165 1.58.196 2.374.024.702.02 1.404.005 2.105a26 26 0 0 1-.133 2.073c-.07.7-.189 1.394-.322 2.084-.131.672-.3 1.335-.483 1.993-.176.623-.39 1.234-.623 1.838a19 19 0 0 1-.747 1.66c-.249.483-.523.952-.804 1.417a20 20 0 0 1-.802 1.214q-.392.549-.822 1.066c-.262.316-.54.618-.825.913q-.421.429-.88.818a10.6 10.6 0 0 1-2.17 1.386c-.328.16-.665.302-1.004.439a20 20 0 0 1-1.65.578 19 19 0 0 1-1.448.373 24 24 0 0 1-1.24.231q-.31.048-.62.089-.24.028-.478.066-.272.044-.544.093a7 7 0 0 0-.422.08c-.141.04.006 0 .062-.019l-.21.125a.7.7 0 0 0-.119.087c.013.003.01.005.035-.019.018.007-.024.093-.035.121-.083.227-.147.46-.209.694-.078.321-.14.646-.195.972-.058.367-.093.736-.128 1.105-.043.45-.064.901-.078 1.352-.011.504-.002 1.008.009 1.512l.048 1.698q.026.84.06 1.678l.06 1.643.058 1.422.06 1.33.053 1.266a306 306 0 0 1 .086 2.093l.03.784.024.625.019.498.015.397.014.24.015.25.013.201.01.16.007.128-.001-.02c.409 4.847-6.446 5.426-6.855.579l-.01-.138-.008-.128-.01-.16-.012-.201-.015-.254q-.013-.198-.022-.394l-.015-.397-.02-.498-.023-.626-.068-1.725-.046-1.114q-.029-.635-.054-1.27l-.06-1.343-.059-1.446-.06-1.636c-.022-.583-.046-1.166-.063-1.75q-.026-.875-.049-1.75a40 40 0 0 1-.007-1.868c.02-.595.049-1.19.105-1.784a22 22 0 0 1 .199-1.635c.092-.526.193-1.051.326-1.569.14-.521.293-1.04.496-1.541.229-.547.49-1.082.843-1.562a7 7 0 0 1 1.066-1.166c.328-.273.67-.529 1.039-.745a9 9 0 0 1 .98-.521 6.4 6.4 0 0 1 1.189-.392q.37-.084.747-.146l.64-.109q.333-.053.667-.094.222-.029.442-.062a14 14 0 0 0 .85-.158 12 12 0 0 0 1.993-.61c.178-.072.356-.144.53-.227q.218-.103.426-.229.176-.109.342-.235c.143-.116.272-.247.404-.375q.236-.24.454-.5.261-.312.5-.645c.185-.262.366-.529.533-.804.19-.315.378-.634.551-.96q.26-.507.47-1.038c.156-.4.299-.806.417-1.22.135-.476.257-.957.353-1.443a16.5 16.5 0 0 0 .33-2.997 31 31 0 0 0-.001-1.692c-.02-.54-.05-1.08-.125-1.615a14 14 0 0 0-.318-1.613 18 18 0 0 0-.567-1.716 26 26 0 0 0-.762-1.819 18 18 0 0 0-.898-1.686 14 14 0 0 0-1.034-1.477c-.357-.433-.73-.854-1.145-1.233a8 8 0 0 0-1.182-.885 6.6 6.6 0 0 0-1.205-.587 7.5 7.5 0 0 0-1.28-.353 11 11 0 0 0-1.473-.156 13 13 0 0 0-1.578.044c-.539.052-1.075.121-1.604.237-.555.121-1.108.258-1.651.426a12 12 0 0 0-1.337.48c-.327.151-.65.313-.95.514a3.7 3.7 0 0 0-.608.505c-.188.19-.374.385-.547.59-.125.15.058-.125.055-.169.448-1.256.13-2.507-.75-3.513-.2-.226-.477-.369-.715-.553-.643-.322-.4-.193-.25-.132l.154.066q.135.058.27.12.164.075.326.158.196.1.388.209c4.217 2.426.786 8.388-3.43 5.962M48.95 281.45a2.4 2.4 0 0 0 .435-.435c.067-.098-.042.095-.055.12a8 8 0 0 0-.236.508 5 5 0 0 0-.176.496c-.03.113-.074.224-.08.341.02.088.01-.072.01-.075-.031-.376-.201-.707-.413-1.012a2 2 0 0 0-.794-.616 1 1 0 0 1-.205-.082c.09-.01.17-.046.251-.08q.202-.085.384-.207c.1-.072.188-.161.275-.249.068-.054.2-.23.213-.252-.068.08-.112.177-.155.273-.066.208-.049.429-.025.642.054.397.259.73.498 1.042.282.33.641.562 1.047.704.037.034.405.066.24.065l-.471-.003h-.154c-4.864-.013-4.847-6.892.018-6.88l.155.001q.303-.001.604.004c.496.013.992.054 1.471.19.835.257 1.6.655 2.197 1.31.562.678.999 1.424 1.157 2.303.117.743.138 1.49-.047 2.226-.176.693-.423 1.364-.826 1.96a9 9 0 0 1-1.128 1.349c-.447.43-.918.836-1.448 1.163a9.3 9.3 0 0 1-1.691.837c-.667.232-1.35.412-2.058.462-.811.05-1.625.02-2.406-.229-.916-.32-1.759-.779-2.392-1.536-.569-.737-1-1.545-1.117-2.483-.068-.6-.088-1.203 0-1.803a9 9 0 0 1 .328-1.43c.122-.385.254-.767.414-1.138.142-.33.291-.656.456-.974.167-.318.341-.633.548-.927.267-.365.56-.712.92-.99 3.822-3.01 8.078 2.394 4.256 5.404z" transform="translate(0 -197)"/></svg>