<svg viewBox="0 0 100 100"><path style="opacity:1;fill:#020900;fill-opacity:1;stroke:none;stroke-width:1;stroke-linecap:butt;stroke-linejoin:round;stroke-miterlimit:4;stroke-dasharray:none;stroke-opacity:1" d="M15.733 275.9c.117.097.003.005-.027-.018a2 2 0 0 0-.472-.252c-.031-.006-.019-.02-.02-.021.045-.01-.044-.017-.054-.018.04-.048.105-.076.157-.11a6 6 0 0 0 .624-.506 9 9 0 0 0 .826-.887c.298-.367.566-.756.822-1.153a16 16 0 0 0 .718-1.28c.233-.452.436-.917.632-1.386.196-.476.384-.955.572-1.435q.237-.607.47-1.218l.382-1q.172-.467.368-.924c.172-.409.406-.781.67-1.135.827-1.007 2.1-1.569 3.44-1.307.547.108 1.012.47 1.518.704.873.768 1.29 1.72 1.334 2.851a9 9 0 0 1-.034.89 41 41 0 0 0-.097 1.695c-.013.325-.01.65-.004.974q.007.436.055.87c.03.268.079.533.134.796q.075.353.196.694c.083.223.185.438.293.65q.128.257.299.486.201.269.435.511c.113.114.242.21.377.296.187.112.38.216.585.295.123.05.254.06.385.07a3.8 3.8 0 0 0 1.349-.174c.12-.03.22-.098.32-.168.222-.16.43-.34.636-.52q.315-.273.573-.6a6.4 6.4 0 0 0 .527-.843c.244-.46.44-.944.633-1.427a42 42 0 0 0 1.174-3.45c.152-.518.29-1.04.422-1.564.125-.508.235-1.02.338-1.534.11-.549.204-1.1.298-1.652q.129-.741.233-1.485c.059-.434.104-.87.151-1.304l.217-2.06.077-.751c.016-.156.033-.311.042-.467l.001-.052c0-.048-.003.096 0 .144.007.112-.081.309.027.333 2.127.483 4.296.757 6.444 1.136.115.002.285-.931.244-.58-.027.237-.043.476-.058.715a39 39 0 0 0-.072 2.4q-.001.706.013 1.411c.002.45.033.9.072 1.349q.07.763.178 1.522c.06.435.16.86.285 1.28q.172.558.43 1.08c.186.363.409.704.639 1.04q.444.635.93 1.24c.291.36.609.697.937 1.023.305.3.635.572.972.835a19 19 0 0 0 2.063 1.367c.229.106.436.282.682.35.018-.018-.083-.045-.116-.054-.04-.035.164-.07.217-.089.21-.08.405-.19.595-.308.273-.17.507-.388.729-.618.394-.435.73-.918 1.065-1.398q.652-.943 1.246-1.924c.371-.61.696-1.246.989-1.898.357-.808.62-1.652.865-2.5.313-1.12.562-2.258.801-3.397a70 70 0 0 0 .653-3.627c.203-1.329.355-2.664.488-4 .142-1.485.235-2.973.319-4.462.082-1.496.131-2.994.177-4.492.045-1.41.07-2.82.085-4.23a164 164 0 0 0-.01-4.08 305 305 0 0 0-.087-3.828 307 307 0 0 0-.222-5.96l-.105-2.197-.09-1.74-.073-1.403-.059-1.12-.046-.893-.037-.711-.03-.551-.002-.043c-.305-4.855 6.56-5.287 6.865-.432l.006.094.03.573.038.711.046.893.059 1.12.073 1.402.091 1.769.106 2.205q.065 1.386.119 2.77.063 1.662.108 3.323c.036 1.309.07 2.618.09 3.928.018 1.416.026 2.833.01 4.249a216 216 0 0 1-.089 4.362c-.048 1.557-.1 3.114-.185 4.669a121 121 0 0 1-.342 4.757 83 83 0 0 1-.536 4.378 77 77 0 0 1-.718 3.986c-.276 1.307-.564 2.613-.928 3.899-.339 1.161-.71 2.315-1.206 3.42a25 25 0 0 1-1.374 2.629 46 46 0 0 1-1.486 2.291c-.565.808-1.145 1.608-1.834 2.316-.635.628-1.31 1.215-2.081 1.672-.65.381-1.322.727-2.042.956-.743.228-1.503.403-2.284.409-.83-.015-1.654-.12-2.43-.434a12 12 0 0 1-1.556-.77 25 25 0 0 1-2.9-1.931 18 18 0 0 1-1.58-1.376c-.508-.51-1-1.035-1.45-1.598-.432-.54-.85-1.092-1.243-1.662-.423-.623-.826-1.26-1.157-1.939a14.6 14.6 0 0 1-.831-2.13 16 16 0 0 1-.49-2.24 37 37 0 0 1-.22-1.89 23 23 0 0 1-.097-1.809 72 72 0 0 1-.014-1.568 45 45 0 0 1 .086-2.827c.025-.37.052-.74.096-1.11.074-.586.182-1.165.454-1.698 5.139.813 6.683-.97 6.523 2.003q-.024.365-.064.728l-.078.753a397 397 0 0 1-.22 2.093c-.054.507-.108 1.015-.178 1.52q-.119.848-.265 1.694c-.106.62-.213 1.239-.336 1.855a44 44 0 0 1-.408 1.84 46 46 0 0 1-.497 1.839 45 45 0 0 1-.616 1.958 50 50 0 0 1-.768 2.101c-.302.752-.616 1.5-1.005 2.211-.364.652-.754 1.292-1.228 1.872-.42.506-.867.989-1.367 1.417-.483.421-.979.831-1.521 1.175-.653.398-1.337.743-2.078.947-.633.175-1.276.318-1.93.382-.702.062-1.407.084-2.108.004-.776-.099-1.542-.259-2.264-.57a11 11 0 0 1-1.761-.936c-.538-.37-1.052-.774-1.501-1.25-.373-.397-.728-.81-1.047-1.253-.316-.45-.61-.914-.853-1.407a13 13 0 0 1-.645-1.493 13 13 0 0 1-.425-1.533c-.1-.486-.186-.975-.239-1.47a16 16 0 0 1-.091-1.468 23 23 0 0 1 .009-1.363 52 52 0 0 1 .109-1.912c.001-.019.018-.33.02-.215.06.94.552 1.71 1.248 2.336.496.227.953.578 1.489.68a3.38 3.38 0 0 0 3.24-1.182c.056-.077.237-.333.237-.372-.092.2-.16.41-.242.613l-.383 1.005q-.243.636-.49 1.271c-.208.53-.415 1.059-.633 1.584a26 26 0 0 1-.864 1.882c-.33.638-.672 1.27-1.062 1.873a20 20 0 0 1-1.306 1.81 15.5 15.5 0 0 1-1.548 1.632c-.541.476-1.102.935-1.725 1.302-.65.371-1.328.696-2.062.866-.684.147-1.379.236-2.08.171-.519-.05-1.036-.127-1.533-.292-.464-.158-.917-.351-1.32-.637a6 6 0 0 1-.491-.379c-3.716-3.14.724-8.394 4.44-5.255m66.864-62.55c-.004-.081.021.215.024.252q.018.235.04.47.029.272.068.545.063.51.118 1.021.058.573.124 1.145c.059.473.106.947.155 1.421l.164 1.574q.092.854.191 1.707.119.986.22 1.973c.072.72.131 1.44.187 2.16q.084 1.145.147 2.29.07 1.236.115 2.473.047 1.356.08 2.712.038 1.494.058 2.988a208 208 0 0 1 .012 3.285c-.004 1.153-.021 2.306-.037 3.458q-.023 1.788-.055 3.576-.03 1.882-.054 3.766-.027 1.954-.049 3.909-.018 1.898-.044 3.795c-.016 1.099-.039 2.198-.06 3.296a268 268 0 0 1-.071 2.868l-.073 2.378-.06 1.901q-.022.76-.047 1.521l-.037 1.218-.03.972q-.012.404-.029.807l-.025.621-.02.493-.016.392-.013.313-.01.25-.008.198-.007.158-.005.127-.004.1-.003.08-.003.064-.002.051-.002.04.001-.033v.058l-.001.071v.094l-.001.077v.065l-.001.06v.222l-.001.033v.025c-.022 4.864-6.901 4.833-6.88-.03v-.018l.001-.033v-.094l.001-.204v-.073l.001-.078v-.098l.002-.102.001-.1.004-.122.002-.041q0-.026.002-.05l.002-.065.004-.08q0-.05.004-.1l.005-.127.006-.158.009-.199.01-.25.013-.312.016-.393.02-.492.025-.615q.016-.372.026-.743l.03-.973.038-1.218.047-1.522.059-1.902.073-2.365q.042-1.4.07-2.8.032-1.63.059-3.26.025-1.888.044-3.776.02-1.964.049-3.927.025-1.89.054-3.781.031-1.779.055-3.557c.015-1.128.032-2.256.036-3.385q.006-1.584-.011-3.168a250 250 0 0 0-.057-2.912q-.032-1.314-.077-2.628a125 125 0 0 0-.247-4.495 83 83 0 0 0-.172-1.988q-.097-.943-.21-1.883c-.067-.59-.136-1.181-.198-1.772l-.166-1.592c-.045-.442-.09-.884-.144-1.325q-.069-.596-.13-1.191-.047-.434-.099-.866c-.035-.264-.07-.528-.096-.793a24 24 0 0 1-.045-.531q-.021-.218-.038-.435c-.296-4.856 6.57-5.274 6.866-.418" transform="translate(0 -197)"/><path style="opacity:1;fill:#020900;fill-opacity:1;stroke:none;stroke-width:1;stroke-linecap:butt;stroke-linejoin:round;stroke-miterlimit:4;stroke-dasharray:none;stroke-opacity:1" d="M37.092 259.003c.045-.126-.044.127-.055.164-.008.011.017-.083.021-.105a6 6 0 0 0 .054-.315l.029-.212.053-.415.012-.116.005-.053.003-.029.003-.068.004-.084.003-.093c-.003.01 0 .164-.002.067l-.004-.112.01.16-.007-.064-.007-.06-.009-.092-.008-.095-.008-.117c.012.266.068.522.142.777.09.277-.036-.116-.055-.185a5 5 0 0 1-.056-.234l-.015-.073c.06.449.364.94.609 1.354-2.918-3.891 2.585-8.018 5.504-4.127.272.46.547.881.632 1.417 0 .003.006.032.003.02a2 2 0 0 0-.032-.134c-.043-.15-.134-.418-.026-.097.083.286.145.575.161.874l-.001-.014c-.007-.075-.002-.023 0-.005v.01l.007.06.01.089q.017.174.023.35l.003.103a6 6 0 0 1-.003.494 16 16 0 0 1-.032.516l-.016.172-.014.133a11 11 0 0 1-.047.379l-.027.21-.037.269a12 12 0 0 1-.24 1.226c-.06.217-.128.433-.216.64-1.828 4.508-8.203 1.922-6.375-2.585z" transform="translate(0 -197)"/></svg>