<?xml version="1.0" encoding="UTF-8" standalone="no"?>
<!-- Created with Inkscape (http://www.inkscape.org/) -->

<svg
   xmlns:dc="http://purl.org/dc/elements/1.1/"
   xmlns:cc="http://creativecommons.org/ns#"
   xmlns:rdf="http://www.w3.org/1999/02/22-rdf-syntax-ns#"
   xmlns:svg="http://www.w3.org/2000/svg"
   xmlns="http://www.w3.org/2000/svg"
   xmlns:sodipodi="http://sodipodi.sourceforge.net/DTD/sodipodi-0.dtd"
   xmlns:inkscape="http://www.inkscape.org/namespaces/inkscape"
   width="10cm"
   height="10cm"
   viewBox="0 0 100 99.999997"
   version="1.1"
   id="svg8"
   sodipodi:docname="sewi.svg"
   inkscape:version="0.92.3 (2405546, 2018-03-11)">
  <defs
     id="defs2" />
  <sodipodi:namedview
     id="base"
     pagecolor="#ffffff"
     bordercolor="#666666"
     borderopacity="1.0"
     inkscape:pageopacity="0.0"
     inkscape:pageshadow="2"
     inkscape:zoom="1"
     inkscape:cx="175.50186"
     inkscape:cy="186.50542"
     inkscape:document-units="cm"
     inkscape:current-layer="layer1"
     showgrid="true"
     units="cm"
     inkscape:window-width="881"
     inkscape:window-height="707"
     inkscape:window-x="971"
     inkscape:window-y="213"
     inkscape:window-maximized="0"
     inkscape:snap-nodes="false">
    <inkscape:grid
       type="xygrid"
       id="grid815"
       units="cm"
       spacingx="9.9999998"
       spacingy="9.9999998" />
  </sodipodi:namedview>
  <metadata
     id="metadata5">
    <rdf:RDF>
      <cc:Work
         rdf:about="">
        <dc:format>image/svg+xml</dc:format>
        <dc:type
           rdf:resource="http://purl.org/dc/dcmitype/StillImage" />
        <dc:title></dc:title>
      </cc:Work>
    </rdf:RDF>
  </metadata>
  <g
     inkscape:label="Layer 1"
     inkscape:groupmode="layer"
     id="layer1"
     transform="translate(0,-197.00002)">
    <path
       style="opacity:1;fill:#020900;fill-opacity:1;stroke:none;stroke-width:1;stroke-linecap:butt;stroke-linejoin:round;stroke-miterlimit:4;stroke-dasharray:none;stroke-opacity:1"
       id="path1471"
       d="m 15.732547,275.90051 c 0.117136,0.0969 0.0038,0.004 -0.02666,-0.0183 -0.145146,-0.10534 -0.30563,-0.18662 -0.472154,-0.25207 -0.03107,-0.006 -0.01871,-0.0201 -0.02011,-0.0216 0.04519,-0.0101 -0.0439,-0.0167 -0.05321,-0.0176 0.03876,-0.0476 0.10456,-0.0758 0.156239,-0.1091 0.222336,-0.1505 0.42502,-0.32743 0.62448,-0.50646 0.299001,-0.27322 0.56905,-0.5752 0.826348,-0.88736 0.297231,-0.36728 0.565569,-0.75638 0.821703,-1.15302 0.263447,-0.41279 0.493693,-0.84523 0.717535,-1.28036 0.233458,-0.45122 0.436369,-0.91697 0.632161,-1.38545 0.196523,-0.47597 0.384271,-0.95549 0.57207,-1.43495 0.15886,-0.40522 0.314458,-0.81171 0.469848,-1.21827 0.127391,-0.33354 0.254642,-0.66714 0.381909,-1.00073 0.115965,-0.31072 0.236663,-0.61945 0.368659,-0.92372 0.171931,-0.40807 0.405674,-0.78092 0.669413,-1.13482 0.827379,-1.00692 2.100841,-1.56834 3.439838,-1.30623 0.547311,0.10714 1.012147,0.46869 1.518221,0.70304 0.873267,0.76869 1.290385,1.72091 1.334615,2.85175 0.0065,0.29732 -0.01305,0.59423 -0.03403,0.8906 -0.0204,0.25812 -0.03797,0.51643 -0.0535,0.77489 -0.01827,0.3063 -0.03153,0.61287 -0.0436,0.91948 -0.01368,0.32428 -0.01014,0.64889 -0.0044,0.9733 0.0038,0.29119 0.02336,0.58166 0.05507,0.87106 0.02997,0.26746 0.079,0.53215 0.134119,0.79541 0.04988,0.23547 0.114782,0.46726 0.195706,0.69389 0.0833,0.22321 0.185487,0.43858 0.292786,0.65106 0.08559,0.17029 0.185207,0.33269 0.299312,0.48522 0.135465,0.17823 0.278092,0.35096 0.434864,0.51085 0.113046,0.11436 0.241832,0.20978 0.377193,0.29563 0.187499,0.11223 0.380814,0.21603 0.584791,0.29501 0.123306,0.0495 0.254545,0.0595 0.38546,0.0695 0.217447,0.0129 0.43493,0.003 0.651093,-0.0219 0.236088,-0.0317 0.469629,-0.082 0.69738,-0.15161 0.120926,-0.0301 0.219701,-0.0981 0.319677,-0.16805 0.222947,-0.15985 0.430638,-0.33966 0.636806,-0.52026 0.211056,-0.18056 0.400429,-0.38269 0.573091,-0.5997 0.20294,-0.26298 0.367765,-0.55171 0.527126,-0.84228 0.243652,-0.46058 0.439965,-0.94394 0.632638,-1.42742 0.232044,-0.58929 0.44465,-1.18593 0.650486,-1.78479 0.189587,-0.55016 0.358775,-1.10696 0.523147,-1.66507 0.152501,-0.51802 0.291137,-1.03992 0.422008,-1.56378 0.125357,-0.50857 0.234963,-1.02084 0.338598,-1.53422 0.109201,-0.54881 0.203589,-1.10041 0.297958,-1.65192 0.08577,-0.49387 0.163258,-0.98909 0.232473,-1.48554 0.0593,-0.4336 0.104712,-0.86893 0.15154,-1.30401 0.04051,-0.3788 0.08094,-0.75761 0.120949,-1.13646 0.03236,-0.30773 0.06414,-0.61552 0.09577,-0.92333 0.02572,-0.25041 0.05136,-0.50084 0.07702,-0.75126 0.01643,-0.15527 0.03288,-0.31053 0.04221,-0.46642 -5.29e-4,-0.0174 0.0013,-0.0348 0.0013,-0.0523 -5.29e-4,-0.0482 -0.0039,0.0965 -7.94e-4,0.14453 0.0069,0.11114 -0.0808,0.30828 0.0278,0.33292 2.126726,0.48256 4.295394,0.75689 6.443091,1.13534 0.115289,0.002 0.285125,-0.93064 0.244427,-0.57997 -0.02652,0.2378 -0.04288,0.47655 -0.05844,0.71527 -0.02397,0.37603 -0.03984,0.7525 -0.05276,1.12906 -0.01286,0.42374 -0.01733,0.84771 -0.01873,1.27163 -0.0011,0.47022 0.0037,0.94045 0.01294,1.41058 0.0019,0.45067 0.03318,0.9 0.07241,1.34869 0.04598,0.5089 0.106066,1.0163 0.1779,1.52216 0.05951,0.43446 0.159563,0.86074 0.284351,1.28058 0.114313,0.37124 0.2589,0.73174 0.430231,1.08009 0.185772,0.36236 0.408889,0.70343 0.638733,1.03891 0.294947,0.42445 0.6076,0.83616 0.930722,1.23945 0.290968,0.36025 0.608185,0.69777 0.936652,1.02375 0.305339,0.29952 0.635074,0.57231 0.97164,0.83567 0.346204,0.26819 0.707567,0.51582 1.071303,0.75939 0.321871,0.21666 0.655148,0.41523 0.991981,0.60749 0.228904,0.10549 0.435652,0.28125 0.681604,0.34884 0.01884,-0.0174 -0.08228,-0.0444 -0.115959,-0.0528 -0.03891,-0.0358 0.164293,-0.07 0.217037,-0.0892 0.209691,-0.0795 0.405091,-0.19025 0.595204,-0.30798 0.273479,-0.16934 0.50704,-0.38838 0.729152,-0.61872 0.393989,-0.43487 0.730486,-0.91724 1.065501,-1.39776 0.43475,-0.62839 0.849239,-1.27025 1.2455,-1.92349 0.371509,-0.61041 0.696023,-1.24671 0.98898,-1.89794 0.35664,-0.80843 0.619874,-1.6526 0.865053,-2.50007 0.312743,-1.12115 0.561483,-2.25862 0.801357,-3.39713 0.252973,-1.20267 0.463457,-2.41345 0.65265,-3.6276 0.20343,-1.32804 0.354841,-2.66313 0.487884,-3.99981 0.141989,-1.48449 0.234871,-2.97301 0.31887,-4.46171 0.08206,-1.49648 0.131226,-2.99445 0.177239,-4.49239 0.04465,-1.4095 0.06916,-2.81947 0.0853,-4.22954 0.01625,-1.36023 0.008,-2.72052 -0.0097,-4.08067 -0.01958,-1.27598 -0.05231,-2.55171 -0.08763,-3.82734 -0.0294,-1.08466 -0.06444,-2.16915 -0.105325,-3.25344 -0.03505,-0.90268 -0.07404,-1.80519 -0.116314,-2.70757 -0.03468,-0.732 -0.07008,-1.46396 -0.105394,-2.19593 -0.02892,-0.58019 -0.05947,-1.1603 -0.08983,-1.74041 -0.02453,-0.4677 -0.04892,-0.93541 -0.07334,-1.40312 -0.0195,-0.37331 -0.03897,-0.74663 -0.05846,-1.11994 -0.01553,-0.29754 -0.03106,-0.59509 -0.04659,-0.89263 -0.01238,-0.23715 -0.02477,-0.4743 -0.03713,-0.71145 -0.0098,-0.18367 -0.01878,-0.36738 -0.029,-0.55103 -0.0011,-0.0143 -0.0019,-0.0287 -0.0028,-0.043 -0.305276,-4.85472 6.560328,-5.28645 6.865606,-0.43173 v 0 c 0.0019,0.0314 0.0039,0.0628 0.0058,0.0941 0.01056,0.19101 0.02008,0.38206 0.03019,0.57309 0.01238,0.23715 0.02477,0.4743 0.03714,0.71145 0.01553,0.29754 0.03106,0.59509 0.04659,0.89263 0.01947,0.37329 0.03897,0.74659 0.05845,1.11988 0.02439,0.46738 0.04879,0.93477 0.07329,1.40214 0.03086,0.58948 0.0619,1.17894 0.09125,1.7685 0.03547,0.73519 0.07102,1.47038 0.105855,2.20561 0.04324,0.9233 0.08313,1.84675 0.118967,2.77037 0.04171,1.10719 0.07756,2.21458 0.107572,3.32216 0.03622,1.30922 0.06977,2.61855 0.08968,3.92813 0.01839,1.4163 0.0268,2.83274 0.0099,4.24912 -0.01672,1.45422 -0.04207,2.90833 -0.0881,4.36195 -0.04787,1.55685 -0.09936,3.11372 -0.184941,4.66904 -0.08975,1.58714 -0.189574,3.17403 -0.341897,4.7566 -0.146257,1.4631 -0.312611,2.92444 -0.536231,4.37802 -0.208606,1.33406 -0.439957,2.66453 -0.718373,3.98601 -0.275924,1.30731 -0.564057,2.61297 -0.927174,3.89934 -0.339305,1.16121 -0.709576,2.3155 -1.205894,3.42082 -0.410824,0.90025 -0.858174,1.78336 -1.37482,2.62827 -0.473401,0.77775 -0.966227,1.54339 -1.48553,2.29143 -0.565089,0.80706 -1.145447,1.608 -1.834279,2.31584 -0.634823,0.62788 -1.309881,1.21473 -2.081237,1.67165 -0.649748,0.38128 -1.321501,0.72729 -2.041988,0.9563 -0.742545,0.22739 -1.502473,0.4032 -2.283751,0.40829 -0.830638,-0.0144 -1.653587,-0.11952 -2.429862,-0.43392 -0.536797,-0.22016 -1.056552,-0.4749 -1.556332,-0.77037 -0.477808,-0.27386 -0.950169,-0.55732 -1.407154,-0.86501 -0.507815,-0.34094 -1.011045,-0.68929 -1.493153,-1.06611 -0.548076,-0.43262 -1.083661,-0.88194 -1.579258,-1.37468 -0.508473,-0.50972 -1.00085,-1.03585 -1.450969,-1.59846 -0.431033,-0.54093 -0.849996,-1.09162 -1.242224,-1.66154 -0.422611,-0.62339 -0.826366,-1.26104 -1.156671,-1.93916 -0.326462,-0.69002 -0.616265,-1.39697 -0.831255,-2.13049 -0.211336,-0.73572 -0.38707,-1.48108 -0.490416,-2.24043 -0.08804,-0.6279 -0.163624,-1.25745 -0.21962,-1.88909 -0.05174,-0.60192 -0.09184,-1.20484 -0.09677,-1.80924 -0.01,-0.52272 -0.01551,-1.04554 -0.01418,-1.56837 0.0019,-0.49486 0.0071,-0.98978 0.02281,-1.48442 0.01558,-0.44781 0.03464,-0.89553 0.06347,-1.34271 0.0245,-0.37017 0.05157,-0.74033 0.0957,-1.10877 0.07416,-0.58631 0.182322,-1.16569 0.453755,-1.69918 5.139132,0.81335 6.683502,-0.96966 6.522797,2.00317 -0.01598,0.24312 -0.0373,0.48577 -0.06397,0.72796 -0.02574,0.25111 -0.05146,0.50222 -0.07723,0.75333 -0.03229,0.31421 -0.06473,0.6284 -0.09777,0.94254 -0.0405,0.38343 -0.08141,0.76682 -0.122415,1.15019 -0.05463,0.50745 -0.108365,1.01511 -0.178352,1.52073 -0.07933,0.5657 -0.166884,1.13018 -0.264727,1.693 -0.106053,0.61962 -0.21269,1.23923 -0.336002,1.85571 -0.124807,0.61572 -0.25654,1.23015 -0.407755,1.84 -0.154342,0.61591 -0.31732,1.22964 -0.496895,1.83873 -0.193604,0.65638 -0.393523,1.31099 -0.61667,1.95804 -0.242803,0.70521 -0.493794,1.40773 -0.76817,2.10138 -0.30136,0.75153 -0.6155,1.4996 -1.004795,2.21076 -0.364294,0.6523 -0.754179,1.29192 -1.227579,1.87219 -0.420238,0.5056 -0.866799,0.98859 -1.366938,1.41704 -0.483777,0.42059 -0.978953,0.83069 -1.521328,1.17472 -0.65311,0.39811 -1.337159,0.74247 -2.078162,0.94643 -0.633103,0.17551 -1.275685,0.31852 -1.930733,0.38261 -0.701107,0.0617 -1.406213,0.0836 -2.107344,0.004 -0.7754,-0.099 -1.542052,-0.25901 -2.26377,-0.56922 -0.611013,-0.26519 -1.20759,-0.56427 -1.761389,-0.93678 -0.537162,-0.37085 -1.051566,-0.77434 -1.50086,-1.25034 -0.372772,-0.39695 -0.727915,-0.81032 -1.04621,-1.25277 -0.316255,-0.44924 -0.610298,-0.91383 -0.853364,-1.40742 -0.240909,-0.48585 -0.466815,-0.97977 -0.644987,-1.4926 -0.169698,-0.50278 -0.319136,-1.01223 -0.424943,-1.53271 -0.09955,-0.48636 -0.186443,-0.97552 -0.238705,-1.46951 -0.04996,-0.48838 -0.0854,-0.97813 -0.09145,-1.46924 -0.0076,-0.4542 -0.01042,-0.90866 0.0087,-1.36265 0.014,-0.3542 0.02951,-0.70835 0.05072,-1.06221 0.01712,-0.28327 0.03599,-0.56643 0.05839,-0.84933 0.0014,-0.0194 0.01799,-0.32941 0.01921,-0.21552 0.06119,0.94109 0.552825,1.71006 1.248874,2.33665 0.496365,0.2266 0.953062,0.57785 1.489095,0.67978 1.228551,0.23362 2.47157,-0.23872 3.23975,-1.182 0.056,-0.0773 0.236902,-0.33359 0.236785,-0.372 -0.09164,0.19961 -0.159484,0.40928 -0.24131,0.61292 -0.127763,0.33488 -0.25551,0.66978 -0.3834,1.00462 -0.162154,0.42426 -0.324579,0.84842 -0.490355,1.27128 -0.207328,0.52929 -0.41481,1.05857 -0.632371,1.58375 -0.267171,0.63671 -0.546077,1.26876 -0.863893,1.88216 -0.329804,0.63772 -0.671986,1.26973 -1.061899,1.87322 -0.406719,0.62376 -0.832564,1.23565 -1.306725,1.81061 -0.482055,0.57472 -0.986961,1.13098 -1.547685,1.63082 -0.541359,0.47668 -1.101852,0.93488 -1.724843,1.30249 -0.65046,0.37131 -1.328465,0.69564 -2.062473,0.86556 -0.683685,0.14748 -1.378195,0.2365 -2.078797,0.17168 -0.519477,-0.0495 -1.036611,-0.12785 -1.53383,-0.29227 -0.464405,-0.15849 -0.917295,-0.35153 -1.31962,-0.63724 -0.168846,-0.11962 -0.335668,-0.24229 -0.491378,-0.37888 -3.7155812,-3.13941 0.724222,-8.39404 4.439803,-5.25462 z"
       inkscape:connector-curvature="0" />
    <path
       style="opacity:1;fill:#020900;fill-opacity:1;stroke:none;stroke-width:1;stroke-linecap:butt;stroke-linejoin:round;stroke-miterlimit:4;stroke-dasharray:none;stroke-opacity:1"
       id="path1473"
       d="m 82.596815,213.34964 c -0.0038,-0.0809 0.02135,0.21538 0.02461,0.2523 0.01259,0.15673 0.02392,0.3135 0.0392,0.47 0.01834,0.18216 0.04378,0.36344 0.068,0.54488 0.04366,0.33991 0.08049,0.68066 0.118123,1.02129 0.04064,0.38187 0.07923,0.76393 0.124069,1.14535 0.05904,0.47279 0.106587,0.94689 0.155411,1.42081 0.05518,0.52463 0.108304,1.04947 0.163695,1.57407 0.05972,0.56938 0.126023,1.13804 0.191553,1.70677 0.07818,0.65716 0.152037,1.31478 0.219189,1.97316 0.07257,0.71919 0.131728,1.43963 0.186954,2.16033 0.05783,0.7628 0.104278,1.52639 0.147587,2.29013 0.04638,0.82365 0.08394,1.64775 0.114967,2.47211 0.03245,0.904 0.0567,1.80826 0.07955,2.71253 0.02582,0.9956 0.04382,1.99135 0.05809,2.98716 0.01434,1.09519 0.01474,2.19048 0.01177,3.28573 -0.0035,1.15276 -0.02074,2.30542 -0.03621,3.45806 -0.01423,1.19194 -0.03585,2.38377 -0.05517,3.57563 -0.02003,1.25538 -0.0368,2.51081 -0.05436,3.76622 -0.01833,1.30294 -0.03392,2.60591 -0.04868,3.90888 -0.01355,1.26495 -0.02612,2.52991 -0.04405,3.79481 -0.01651,1.09894 -0.03874,2.19778 -0.06003,3.29664 -0.01783,0.95609 -0.04331,1.91202 -0.07136,2.86786 -0.02387,0.79242 -0.04857,1.58481 -0.07316,2.3772 -0.01968,0.63397 -0.03938,1.26794 -0.05908,1.90191 -0.01572,0.50694 -0.0314,1.01388 -0.04709,1.52082 -0.01257,0.40574 -0.02503,0.81149 -0.03753,1.21723 -0.01,0.3242 -0.01995,0.6484 -0.02992,0.97259 -0.0074,0.26915 -0.01786,0.53818 -0.02865,0.80721 -0.0084,0.20692 -0.01683,0.41384 -0.02529,0.62076 -0.0067,0.16418 -0.01344,0.32836 -0.02016,0.49254 -0.0053,0.13084 -0.01072,0.26168 -0.01606,0.39251 -0.0043,0.10428 -0.0085,0.20856 -0.01281,0.31284 -0.0034,0.0831 -0.0068,0.16623 -0.01021,0.24934 -0.0027,0.0663 -0.0054,0.13249 -0.0081,0.19873 -0.0021,0.0528 -0.0043,0.1056 -0.0065,0.15839 -0.0019,0.0421 -0.0034,0.0842 -0.0052,0.12625 -0.0013,0.0335 -0.0028,0.0671 -0.0041,0.10062 -0.0011,0.0267 -0.0021,0.0535 -0.0033,0.0802 -7.94e-4,0.0213 -0.0019,0.0426 -0.0026,0.0639 -7.94e-4,0.017 -0.0013,0.034 -0.0021,0.0509 -5.29e-4,0.0136 -0.0011,0.0271 -0.0016,0.0406 -0.0011,0.0292 7.94e-4,-0.0243 0.0011,-0.0337 -2.64e-4,0.0194 -5.29e-4,0.0388 -7.94e-4,0.0582 -2.64e-4,0.0237 -5.29e-4,0.0473 -7.93e-4,0.071 -2.28e-4,0.0311 -5.3e-4,0.0622 -5.3e-4,0.0932 -1.79e-4,0.0258 -2.64e-4,0.0516 -5.29e-4,0.0774 -1.58e-4,0.0217 -2.64e-4,0.0435 -5.29e-4,0.0652 -1.19e-4,0.0198 -2.22e-4,0.0396 -2.64e-4,0.0594 -9.3e-5,0.022 -1.72e-4,0.0439 -2.54e-4,0.0659 -7.5e-5,0.0209 -1.41e-4,0.0417 -2.12e-4,0.0626 -5.6e-5,0.0173 -1.14e-4,0.0347 -1.72e-4,0.052 -4.5e-5,0.0138 -9e-5,0.0277 -1.35e-4,0.0415 -3.7e-5,0.011 -7.4e-5,0.022 -1.11e-4,0.0331 -2.1e-5,0.008 -5.8e-5,0.0169 -9e-5,0.0254 -0.02193,4.86426 -6.901029,4.83324 -6.879095,-0.031 v 0 c 2e-6,-7.9e-4 4.2e-5,-0.0126 5.5e-5,-0.0171 3.7e-5,-0.011 7.4e-5,-0.022 1.11e-4,-0.0331 4.5e-5,-0.0138 9e-5,-0.0277 1.38e-4,-0.0415 5.6e-5,-0.0174 1.14e-4,-0.0347 1.72e-4,-0.0521 7.1e-5,-0.0217 1.43e-4,-0.0435 2.2e-4,-0.0652 9.2e-5,-0.0247 1.79e-4,-0.0494 2.64e-4,-0.0741 1.14e-4,-0.0216 2.25e-4,-0.0433 2.65e-4,-0.0649 1.4e-4,-0.0245 2.64e-4,-0.049 5.29e-4,-0.0735 1.77e-4,-0.0258 2.64e-4,-0.0517 5.29e-4,-0.0775 2.25e-4,-0.0326 5.29e-4,-0.0652 7.94e-4,-0.0978 2.64e-4,-0.0341 5.29e-4,-0.0682 0.0011,-0.10233 5.29e-4,-0.0331 7.94e-4,-0.0662 0.0013,-0.0993 7.94e-4,-0.041 0.0019,-0.0821 0.0037,-0.12308 5.29e-4,-0.0136 0.0011,-0.0271 0.0016,-0.0406 7.94e-4,-0.017 0.0013,-0.034 0.0021,-0.0509 7.94e-4,-0.0213 0.0019,-0.0426 0.0026,-0.0639 0.0011,-0.0267 0.0021,-0.0535 0.0033,-0.0802 0.0013,-0.0335 0.0028,-0.0671 0.0041,-0.10062 0.0019,-0.0421 0.0034,-0.0842 0.0052,-0.12624 0.0021,-0.0528 0.0043,-0.1056 0.0065,-0.15839 0.0027,-0.0662 0.0054,-0.13249 0.0081,-0.19874 0.0034,-0.0831 0.0068,-0.16622 0.01021,-0.24933 0.0043,-0.10428 0.0085,-0.20856 0.01281,-0.31284 0.0053,-0.13084 0.01072,-0.26167 0.01606,-0.39251 0.0067,-0.16414 0.01344,-0.32827 0.02016,-0.4924 0.0084,-0.205 0.01677,-0.41 0.02506,-0.61501 0.0099,-0.24772 0.01971,-0.49544 0.02638,-0.74328 0.01,-0.32422 0.01995,-0.64843 0.02992,-0.97265 0.01249,-0.40613 0.02498,-0.81226 0.03756,-1.21839 0.01569,-0.50724 0.03138,-1.01448 0.04712,-1.52172 0.01969,-0.63389 0.03939,-1.26778 0.05907,-1.90167 0.02447,-0.78854 0.04906,-1.57707 0.07281,-2.36564 0.0274,-0.933 0.05228,-1.86608 0.06969,-2.79932 0.02106,-1.08695 0.04306,-2.17389 0.05943,-3.26092 0.01786,-1.25834 0.03029,-2.51675 0.0438,-3.77514 0.01482,-1.30907 0.03048,-2.61812 0.04891,-3.92714 0.01762,-1.26051 0.03446,-2.52104 0.05459,-3.78152 0.01921,-1.18544 0.04073,-2.37086 0.05488,-3.55638 0.01514,-1.12818 0.03209,-2.25637 0.03562,-3.38467 0.0029,-1.05614 0.0026,-2.11233 -0.01109,-3.16841 -0.01389,-0.97075 -0.03141,-1.94142 -0.0566,-2.91195 -0.02212,-0.87612 -0.04557,-1.75223 -0.0769,-2.62808 -0.02924,-0.78066 -0.06497,-1.56106 -0.108791,-2.34104 -0.04068,-0.71841 -0.08424,-1.43667 -0.138533,-2.15419 -0.05074,-0.6633 -0.104987,-1.32637 -0.171609,-1.98829 -0.06392,-0.6283 -0.134885,-1.25581 -0.209394,-1.88294 -0.06804,-0.59048 -0.136776,-1.1809 -0.19876,-1.77206 -0.05596,-0.53033 -0.109739,-1.06089 -0.165486,-1.59125 -0.04554,-0.4421 -0.08959,-0.88439 -0.144913,-1.32541 -0.04633,-0.39662 -0.08759,-0.79375 -0.129246,-1.19087 -0.03185,-0.28874 -0.06312,-0.57757 -0.09917,-0.86582 -0.03523,-0.2639 -0.07062,-0.52781 -0.09653,-0.79283 -0.01701,-0.17705 -0.03179,-0.35425 -0.04488,-0.53162 -0.01262,-0.14501 -0.02798,-0.28978 -0.03817,-0.43499 -0.295595,-4.85532 6.570858,-5.27335 6.866453,-0.41804 z"
       inkscape:connector-curvature="0" />
    <path
       style="opacity:1;fill:#020900;fill-opacity:1;stroke:none;stroke-width:1;stroke-linecap:butt;stroke-linejoin:round;stroke-miterlimit:4;stroke-dasharray:none;stroke-opacity:1"
       id="path1475"
       d="m 37.091543,259.0026 c 0.04536,-0.12533 -0.04375,0.12745 -0.05492,0.16486 -0.0075,0.011 0.01699,-0.0834 0.02162,-0.10549 0.01087,-0.0537 0.02066,-0.10757 0.0301,-0.16151 0.009,-0.0508 0.01638,-0.10189 0.02363,-0.15298 0.01,-0.0707 0.01939,-0.14148 0.02892,-0.21225 0.0083,-0.0611 0.01646,-0.12229 0.02447,-0.18347 0.0063,-0.0476 0.0123,-0.0953 0.01823,-0.14294 0.0039,-0.0297 0.0073,-0.0595 0.01056,-0.0893 0.0041,-0.0384 0.0082,-0.0768 0.01228,-0.11524 0.0019,-0.0178 0.0032,-0.0357 0.0048,-0.0536 7.94e-4,-0.009 0.0016,-0.0189 0.0024,-0.0284 0.0013,-0.0226 0.0024,-0.0453 0.0035,-0.0679 0.0016,-0.0281 0.0026,-0.0562 0.0038,-0.0843 0.0011,-0.0309 0.0021,-0.0619 0.003,-0.0928 -0.0033,0.009 2.64e-4,0.16336 -0.0024,0.0669 -0.0011,-0.0375 -0.0021,-0.075 -0.0032,-0.11255 -0.0067,-0.0825 0.0092,0.16061 0.0092,0.16102 -0.0021,-0.0215 -0.0045,-0.043 -0.0068,-0.0645 -0.0021,-0.0201 -0.0042,-0.0403 -0.0064,-0.0604 -0.0033,-0.0304 -0.0062,-0.0609 -0.0091,-0.0914 -0.0031,-0.0319 -0.0057,-0.0639 -0.0084,-0.0958 -0.0031,-0.0387 -0.0054,-0.0774 -0.0077,-0.11606 0.01233,0.26542 0.06783,0.52169 0.141652,0.7762 0.0898,0.27722 -0.03542,-0.11548 -0.05523,-0.18458 -0.02069,-0.0773 -0.03866,-0.15533 -0.0553,-0.23361 -0.0051,-0.0244 -0.01,-0.0488 -0.0149,-0.0732 0.0596,0.4486 0.363646,0.93969 0.608659,1.35419 -2.91832,-3.89164 2.585291,-8.01877 5.503611,-4.12713 v 0 c 0.272798,0.4593 0.547658,0.8807 0.631922,1.41691 5.3e-4,0.003 0.0064,0.0315 0.0037,0.0188 -0.01021,-0.0456 -0.019,-0.0867 -0.03194,-0.13261 -0.0438,-0.1514 -0.134295,-0.41861 -0.02675,-0.0978 0.08371,0.28614 0.145725,0.57568 0.161552,0.87411 -5.29e-4,-0.005 -7.94e-4,-0.009 -0.0013,-0.014 -0.0065,-0.0752 -0.0019,-0.0227 -2.65e-4,-0.005 2.65e-4,0.003 7.94e-4,0.007 0.0011,0.0101 0.0021,0.0204 0.0043,0.0407 0.0064,0.061 0.0031,0.0293 0.0062,0.0585 0.0092,0.0878 0.01154,0.11665 0.0217,0.23349 0.02371,0.35078 0.0011,0.034 0.0019,0.0681 0.0029,0.10211 0.003,0.10819 0.0057,0.21642 0.0024,0.32465 -0.0016,0.0566 -0.0034,0.11309 -0.0056,0.16962 -0.0021,0.0512 -0.0043,0.10229 -0.0069,0.15341 -0.003,0.0592 -0.006,0.11835 -0.0099,0.17747 -0.0042,0.0619 -0.0088,0.12378 -0.0145,0.18556 -0.0051,0.0572 -0.01019,0.11435 -0.01633,0.17142 -0.0047,0.0445 -0.0094,0.0891 -0.01426,0.13358 -0.0071,0.0647 -0.01452,0.12932 -0.02275,0.19387 -0.0076,0.0615 -0.01545,0.123 -0.02352,0.18446 -0.0091,0.0699 -0.01852,0.13978 -0.02794,0.20965 -0.01206,0.0898 -0.02408,0.17962 -0.03684,0.26933 -0.01794,0.12485 -0.03685,0.24957 -0.05888,0.37378 -0.02278,0.12877 -0.0466,0.25738 -0.07342,0.38538 -0.03309,0.15649 -0.06729,0.31281 -0.108202,0.46747 -0.05998,0.2172 -0.126934,0.43262 -0.215101,0.64029 -1.828403,4.50759 -8.203104,1.92184 -6.374701,-2.58576 z"
       inkscape:connector-curvature="0" />
  </g>
</svg>
