<?xml version="1.0" encoding="UTF-8" standalone="no"?>
<!-- Created with Inkscape (http://www.inkscape.org/) -->

<svg
   xmlns:dc="http://purl.org/dc/elements/1.1/"
   xmlns:cc="http://creativecommons.org/ns#"
   xmlns:rdf="http://www.w3.org/1999/02/22-rdf-syntax-ns#"
   xmlns:svg="http://www.w3.org/2000/svg"
   xmlns="http://www.w3.org/2000/svg"
   xmlns:sodipodi="http://sodipodi.sourceforge.net/DTD/sodipodi-0.dtd"
   xmlns:inkscape="http://www.inkscape.org/namespaces/inkscape"
   width="10cm"
   height="10cm"
   viewBox="0 0 100 99.999997"
   version="1.1"
   id="svg8"
   sodipodi:docname="sijelo.svg"
   inkscape:version="0.92.3 (2405546, 2018-03-11)">
  <defs
     id="defs2" />
  <sodipodi:namedview
     id="base"
     pagecolor="#ffffff"
     bordercolor="#666666"
     borderopacity="1.0"
     inkscape:pageopacity="0.0"
     inkscape:pageshadow="2"
     inkscape:zoom="1"
     inkscape:cx="175.50186"
     inkscape:cy="186.50542"
     inkscape:document-units="cm"
     inkscape:current-layer="layer1"
     showgrid="true"
     units="cm"
     inkscape:window-width="881"
     inkscape:window-height="707"
     inkscape:window-x="971"
     inkscape:window-y="213"
     inkscape:window-maximized="0"
     inkscape:snap-nodes="false">
    <inkscape:grid
       type="xygrid"
       id="grid815"
       units="cm"
       spacingx="9.9999998"
       spacingy="9.9999998" />
  </sodipodi:namedview>
  <metadata
     id="metadata5">
    <rdf:RDF>
      <cc:Work
         rdf:about="">
        <dc:format>image/svg+xml</dc:format>
        <dc:type
           rdf:resource="http://purl.org/dc/dcmitype/StillImage" />
        <dc:title></dc:title>
      </cc:Work>
    </rdf:RDF>
  </metadata>
  <g
     inkscape:label="Layer 1"
     inkscape:groupmode="layer"
     id="layer1"
     transform="translate(0,-197.00002)">
    <path
       style="opacity:1;fill:#020900;fill-opacity:1;stroke:none;stroke-width:1;stroke-linecap:butt;stroke-linejoin:round;stroke-miterlimit:4;stroke-dasharray:none;stroke-opacity:1"
       id="path1477"
       d="m 18.325851,276.01491 c -0.343238,0.15995 -0.637052,0.39792 -0.891319,0.67523 -0.08495,0.0948 -0.155223,0.20049 -0.222997,0.30764 0.01437,-0.0583 0.03699,-0.12199 0.05534,-0.18146 0.05113,-0.16348 0.08798,-0.33085 0.124315,-0.49808 0.05759,-0.27648 0.106063,-0.55475 0.151687,-0.83342 0.06336,-0.39742 0.105434,-0.79776 0.145335,-1.19808 0.05348,-0.5296 0.08908,-1.06064 0.112603,-1.59233 0.02637,-0.59022 0.02106,-1.18098 0.0033,-1.7713 -0.02638,-0.69751 -0.06782,-1.39433 -0.108131,-2.09114 -0.04674,-0.77737 -0.08638,-1.55513 -0.134245,-2.33243 -0.04689,-0.75203 -0.114361,-1.50253 -0.185488,-2.25259 -0.07384,-0.7593 -0.150453,-1.51832 -0.222128,-2.27783 -0.0725,-0.76787 -0.134012,-1.5367 -0.191727,-2.3058 -0.05838,-0.78315 -0.107254,-1.56695 -0.152497,-2.35096 -0.04804,-0.84131 -0.08615,-1.68313 -0.121158,-2.52507 -0.03988,-0.96942 -0.06921,-1.93921 -0.09603,-2.90905 -0.03145,-1.13919 -0.05343,-2.27859 -0.07343,-3.41802 -0.02017,-1.17913 -0.03724,-2.35831 -0.05382,-3.53749 -0.01545,-1.09931 -0.02946,-2.19864 -0.04268,-3.29797 -0.0123,-1.03516 -0.02329,-2.07033 -0.03401,-3.10551 -0.0096,-0.92795 -0.01846,-1.85591 -0.02709,-2.78387 -0.0073,-0.84271 -0.02003,-1.68536 -0.03094,-2.52803 -0.01069,-0.83425 -0.02,-1.66852 -0.02925,-2.50279 -0.0025,-0.68079 -0.02135,-1.36122 -0.05252,-2.04125 -0.02808,-0.58549 -0.0648,-1.17051 -0.100196,-1.75559 -0.02868,-0.48736 -0.06167,-0.97446 -0.09475,-1.46154 -0.02785,-0.41517 -0.05527,-0.83038 -0.08711,-1.24526 -0.02733,-0.3478 -0.05582,-0.69551 -0.08418,-1.04322 -0.01871,-0.23445 -0.04027,-0.46864 -0.06362,-0.70267 -0.07498,-0.51925 -0.02618,-1.03547 0.05858,-1.5494 0.244226,-1.16922 0.995118,-2.01965 1.989751,-2.62587 0.493568,-0.26777 1.034718,-0.40828 1.582136,-0.51211 0.382238,-0.0686 0.768273,-0.11206 1.154409,-0.15142 0.380249,-0.0365 0.760439,-0.0731 1.139967,-0.11654 0.468906,-0.0549 0.936422,-0.12073 1.40404,-0.18548 0.560139,-0.0761 1.119554,-0.15719 1.6786,-0.24088 0.6322,-0.0983 1.264473,-0.19611 1.89741,-0.28959 0.703903,-0.10368 1.409478,-0.19541 2.115503,-0.2833 0.72852,-0.09 1.458023,-0.17182 2.187773,-0.25116 0.759156,-0.0825 1.519701,-0.15107 2.280571,-0.21547 0.789067,-0.0663 1.578846,-0.12343 2.369418,-0.16829 0.831633,-0.0441 1.664338,-0.061 2.496952,-0.0724 0.789779,-0.009 1.579594,-0.0148 2.369405,-0.0205 0.751271,-0.005 1.50255,-0.01 2.253826,-0.0146 0.672256,-0.004 1.344518,-0.008 2.016776,-0.0116 0.569558,-5.5e-4 1.13873,-0.0222 1.707732,-0.045 0.511112,-0.0167 1.021112,-0.053 1.530149,-0.10096 0.514747,-0.0501 1.028144,-0.11268 1.54123,-0.17731 0.507296,-0.0653 1.014457,-0.13157 1.521745,-0.1969 0.42436,-0.0547 0.848784,-0.10893 1.27321,-0.16312 0.338881,-0.0433 0.677764,-0.0865 1.016648,-0.12976 0.270068,-0.0345 0.540139,-0.0689 0.810207,-0.1034 0.215252,-0.0275 0.430501,-0.0549 0.645753,-0.0824 0.171558,-0.0219 0.343119,-0.0438 0.514678,-0.0657 0.136739,-0.0174 0.273476,-0.0349 0.410212,-0.0524 0.12508,-0.0161 0.25014,-0.0322 0.375391,-0.0469 0.373835,-0.046 0.749623,-0.029 1.122646,0.0124 0.285972,0.0356 0.566158,0.10356 0.84283,0.18246 0.346311,0.0957 0.670555,0.24772 0.98725,0.41441 0.401627,0.22032 0.745763,0.52125 1.065687,0.84517 0.198096,0.2039 0.370281,0.43026 0.545779,0.65325 0.05498,0.0782 0.123331,0.14284 0.19412,0.20609 0.200879,0.17819 0.41461,0.34091 0.628904,0.50242 0.371298,0.2751 0.754094,0.53406 1.140971,0.78661 0.480483,0.3075 0.978744,0.58583 1.475959,0.86502 0.636037,0.35872 1.272765,0.71622 1.909397,1.07388 0.690783,0.38795 1.380504,0.77778 2.068857,1.17002 0.762741,0.43014 1.509943,0.88675 2.252162,1.35113 0.773518,0.48265 1.529707,0.99202 2.281987,1.50689 0.770149,0.52455 1.517491,1.08112 2.260983,1.64246 0.661025,0.50175 1.318316,1.00837 1.976242,1.51417 0.556223,0.42707 1.111631,0.8552 1.666478,1.28406 0.443487,0.3429 0.88687,0.68593 1.330264,1.02895 0.343792,0.26508 0.685604,0.53274 1.031431,0.79517 0.155246,0.11453 0.354062,0.26596 0.495374,0.35184 -0.438497,-0.29071 -0.963039,-0.35583 -1.475039,-0.37649 -0.484413,0.0144 -0.957154,0.13725 -1.382543,0.36905 -0.03842,0.0211 -0.05467,0.0325 -0.07434,0.0444 1.435656,-0.94313 3.006344,-0.7827 4.340751,0.28547 0.230267,0.18433 0.384138,0.4477 0.57621,0.67155 0.343337,0.50792 0.509484,1.08274 0.623877,1.67521 0.07302,0.4026 0.116676,0.80969 0.163343,1.21596 0.06123,0.53571 0.1186,1.07181 0.170244,1.60853 0.06135,0.7004 0.125378,1.4005 0.19604,2.10003 0.08213,0.80914 0.185073,1.61586 0.298566,2.42113 0.144278,0.97075 0.287587,1.94158 0.420952,2.91389 0.152131,1.1273 0.287208,2.2568 0.423291,3.38611 0.148199,1.23818 0.298212,2.47613 0.447138,3.71421 0.15212,1.283 0.323845,2.56353 0.495523,3.84402 0.17582,1.28941 0.346109,2.57956 0.512132,3.87028 0.150448,1.17527 0.296286,2.35112 0.438775,3.52738 0.123772,1.0209 0.240649,2.04261 0.35434,3.06467 0.09757,0.88156 0.191199,1.76354 0.282287,2.64578 0.0808,0.78454 0.149029,1.57029 0.214225,2.35625 0.05309,0.64907 0.104937,1.29823 0.153787,1.94763 0.04147,0.56081 0.08179,1.12172 0.116829,1.68298 0.02996,0.49403 0.05308,0.98843 0.07674,1.48279 0.01868,0.39206 0.03718,0.78412 0.05571,1.17618 0.01476,0.31227 0.02951,0.62454 0.04426,0.93681 0.01175,0.24888 0.02352,0.49776 0.03527,0.74664 0.0094,0.19837 0.01873,0.39673 0.02811,0.5951 0.0075,0.1581 0.01495,0.3162 0.02241,0.4743 0.03449,0.37336 -0.0031,0.74248 -0.04546,1.1138 -0.04545,0.18003 -0.09089,0.36007 -0.136337,0.5401 -1.49365,4.62931 -8.040476,2.51697 -6.546826,-2.11234 v 0 c -0.0334,0.14269 -0.06679,0.28538 -0.100187,0.42807 -0.0044,0.0453 -0.04322,0.90636 -0.0427,0.355 -0.0075,-0.1581 -0.01495,-0.31621 -0.02241,-0.4743 -0.0094,-0.19837 -0.01873,-0.39673 -0.02811,-0.59509 -0.01175,-0.24888 -0.02352,-0.49776 -0.03527,-0.74664 -0.01476,-0.31224 -0.0295,-0.62448 -0.04426,-0.93672 -0.01847,-0.39072 -0.03691,-0.78143 -0.05552,-1.17215 -0.02209,-0.46157 -0.04356,-0.92318 -0.07133,-1.38445 -0.03294,-0.53167 -0.07169,-1.06296 -0.110731,-1.5942 -0.04751,-0.6319 -0.09802,-1.26356 -0.149635,-1.89513 -0.06131,-0.73991 -0.125405,-1.47963 -0.201377,-2.2182 -0.08921,-0.86423 -0.180941,-1.72819 -0.276495,-2.59174 -0.111194,-0.9998 -0.225515,-1.99926 -0.346583,-2.99791 -0.140441,-1.15946 -0.284202,-2.31851 -0.432483,-3.477 -0.164446,-1.27854 -0.333168,-2.55652 -0.507338,-3.83378 -0.175808,-1.31132 -0.351478,-2.62269 -0.507294,-3.93657 -0.148867,-1.23761 -0.298823,-2.47508 -0.446963,-3.71277 -0.131604,-1.09214 -0.262075,-2.18446 -0.40894,-3.27467 -0.132162,-0.96437 -0.275053,-1.92713 -0.417631,-2.89001 -0.125595,-0.89423 -0.23994,-1.79002 -0.330862,-2.68851 -0.07171,-0.71072 -0.137406,-1.42197 -0.199345,-2.1336 -0.04731,-0.49423 -0.100605,-0.98783 -0.156813,-1.48114 -0.0275,-0.23961 -0.05345,-0.47947 -0.08765,-0.71824 -0.04838,-0.27281 0.380635,1.20936 0.415761,0.8655 0.180226,0.20614 0.325088,0.44961 0.540681,0.6184 1.264195,0.98979 2.779324,1.18189 4.140763,0.28228 -0.125407,0.0853 -0.252782,0.16771 -0.384431,0.24307 -0.564288,0.31629 -1.179264,0.51677 -1.830713,0.5386 -0.833678,-0.0205 -1.634636,-0.18538 -2.345534,-0.64564 -0.358719,-0.22631 -0.705747,-0.46986 -1.042847,-0.72739 -0.361929,-0.27504 -0.720376,-0.55461 -1.080125,-0.83249 -0.442618,-0.34242 -0.885224,-0.68485 -1.327933,-1.02715 -0.550113,-0.4252 -1.100783,-0.84968 -1.652264,-1.27311 -0.642208,-0.49371 -1.28379,-0.98824 -1.928935,-1.47812 -0.65836,-0.49721 -1.319326,-0.9913 -2.001427,-1.45578 -0.674558,-0.46187 -1.352219,-0.91943 -2.045914,-1.35229 -0.661763,-0.41439 -1.327841,-0.82207 -2.008228,-1.20538 -0.676219,-0.38534 -1.353804,-0.76828 -2.032415,-1.1494 -0.636394,-0.35753 -1.272889,-0.71489 -1.908688,-1.07349 -0.632071,-0.35508 -1.263989,-0.71159 -1.872771,-1.10585 -0.517134,-0.33875 -1.028909,-0.68597 -1.52413,-1.05629 -0.417385,-0.31623 -0.830453,-0.63934 -1.213114,-0.99754 -0.309936,-0.29736 -0.609016,-0.6063 -0.870326,-0.94811 -0.02387,-0.0304 -0.244877,-0.30319 -0.08431,-0.12396 0.158314,0.15159 0.339699,0.27765 0.531432,0.38339 0.14061,0.0712 0.282358,0.14161 0.435866,0.18115 0.07489,0.018 0.150882,0.0312 0.227521,0.0395 0.170019,0.0159 0.341058,0.0206 0.510831,-0.003 -0.09368,0.0113 -0.187322,0.0236 -0.280966,0.0355 -0.13674,0.0174 -0.273476,0.0349 -0.410213,0.0523 -0.171558,0.0219 -0.34312,0.0438 -0.514678,0.0657 -0.215252,0.0275 -0.430504,0.0549 -0.645753,0.0824 -0.270065,0.0345 -0.540131,0.0689 -0.810196,0.1034 -0.338717,0.0432 -0.677434,0.0865 -1.016151,0.1297 -0.421968,0.0539 -0.843933,0.10778 -1.265835,0.16217 -0.513774,0.0662 -1.027415,0.13335 -1.541204,0.19939 -0.58643,0.0738 -1.173271,0.1448 -1.761651,0.20145 -0.630296,0.0584 -1.261684,0.10397 -1.894443,0.12521 -0.648041,0.0258 -1.296292,0.0494 -1.944949,0.0504 -0.670682,0.004 -1.341364,0.007 -2.012043,0.0115 -0.748837,0.005 -1.497674,0.009 -2.246506,0.0145 -0.775049,0.006 -1.550101,0.0111 -2.325118,0.02 -0.734605,0.01 -1.469305,0.0241 -2.203088,0.0621 -0.726474,0.0407 -1.452128,0.0942 -2.177219,0.15474 -0.706284,0.0597 -1.412277,0.12318 -2.116971,0.19966 -0.694396,0.0755 -1.388557,0.15324 -2.081786,0.23882 -0.654151,0.0814 -1.307897,0.16619 -1.960087,0.26215 -0.628404,0.0927 -1.256077,0.19022 -1.883781,0.28757 -0.58398,0.0874 -1.168345,0.17211 -1.753453,0.25166 -0.522519,0.0724 -1.044982,0.14546 -1.569004,0.20629 -0.408307,0.0463 -0.817152,0.0871 -1.226248,0.12582 -0.199823,0.02 -0.399685,0.0408 -0.598118,0.0721 -0.12415,0.0194 0.460624,-0.15532 0.449119,-0.20584 0.738791,-0.47345 1.29458,-1.14912 1.46714,-2.02841 0.0018,-0.0125 0.0634,-0.97577 0.05001,-0.52492 0.02733,0.2748 0.05268,0.54979 0.0747,0.82507 0.02929,0.3591 0.05872,0.71819 0.08688,1.07738 0.03319,0.43454 0.06237,0.86936 0.09136,1.3042 0.03423,0.50399 0.0683,1.008 0.09801,1.51229 0.03746,0.61931 0.07622,1.23857 0.105641,1.85832 0.0343,0.7588 0.05618,1.51802 0.0592,2.27764 0.0092,0.83 0.01846,1.66001 0.0291,2.49 0.01102,0.85103 0.02388,1.70205 0.03122,2.55313 0.0086,0.92556 0.01748,1.85111 0.02702,2.77666 0.01067,1.03134 0.02163,2.06267 0.03388,3.09399 0.01316,1.09465 0.02711,2.18929 0.0425,3.28391 0.01647,1.17118 0.03342,2.34236 0.05345,3.51348 0.01959,1.11633 0.04107,2.23262 0.07187,3.3487 0.02591,0.93801 0.05421,1.87596 0.09273,2.81355 0.03343,0.80509 0.0698,1.61009 0.115676,2.41459 0.04291,0.74451 0.08927,1.48883 0.144643,2.23254 0.05436,0.72519 0.112265,1.45013 0.180583,2.17416 0.07154,0.75859 0.148286,1.51666 0.221865,2.27506 0.07816,0.82554 0.151859,1.65161 0.203196,2.47933 0.04823,0.78561 0.0887,1.57165 0.13573,2.35733 0.04409,0.76231 0.08925,1.52465 0.116686,2.28778 0.02162,0.76083 0.0274,1.5222 -0.0074,2.28281 -0.03021,0.65673 -0.07334,1.31277 -0.139814,1.96693 -0.05475,0.54462 -0.114372,1.08901 -0.202364,1.62944 -0.0658,0.39847 -0.135694,0.79638 -0.220361,1.19134 -0.08098,0.36684 -0.16859,0.73247 -0.282397,1.09075 -0.111755,0.35184 -0.232047,0.70158 -0.388893,1.03635 -0.200418,0.41853 -0.427111,0.82541 -0.726894,1.18237 -0.389674,0.4436 -0.828617,0.8403 -1.368644,1.09434 -4.37128,2.13387 -7.38902,-4.04805 -3.01774,-6.18192 z"
       inkscape:connector-curvature="0" />
    <path
       style="opacity:1;fill:#020900;fill-opacity:1;stroke:none;stroke-width:1;stroke-linecap:butt;stroke-linejoin:round;stroke-miterlimit:4;stroke-dasharray:none;stroke-opacity:1"
       id="path1479"
       d="m 56.915081,218.48732 c 0.178456,0.27801 0.318847,0.57655 0.446445,0.88054 0.163031,0.40809 0.269888,0.83481 0.364355,1.26299 0.09692,0.45944 0.162316,0.92463 0.222774,1.39001 0.07219,0.57225 0.12151,1.147 0.167333,1.72185 0.0539,0.68901 0.09187,1.3791 0.126434,2.0693 0.04121,0.85531 0.07212,1.71108 0.09717,2.56701 0.0283,1.06659 0.03972,2.13354 0.05004,3.20042 0.01106,1.29823 0.0077,2.59653 0.0064,3.89479 -0.0019,1.41685 -0.0026,2.8337 -0.0052,4.25054 1.37e-4,1.47884 -0.02096,2.95753 -0.04757,4.43609 -0.02984,1.52725 -0.07195,3.05422 -0.110797,4.58125 -0.03744,1.52455 -0.08655,3.04875 -0.135602,4.57296 -0.0494,1.48982 -0.09474,2.97978 -0.138186,4.46978 -0.04065,1.36691 -0.0801,2.73386 -0.118137,4.10084 -0.03457,1.20884 -0.06833,2.41771 -0.101224,3.62661 -0.02779,1.0265 -0.05479,2.05301 -0.08181,3.07953 -0.02177,0.82772 -0.04353,1.65545 -0.06529,2.48317 -0.01736,0.65996 -0.03469,1.31992 -0.05204,1.97988 -0.01384,0.526 -0.02765,1.05201 -0.04148,1.57802 -0.01101,0.41923 -0.02204,0.83847 -0.03306,1.25771 -0.0088,0.33415 -0.01757,0.66829 -0.02635,1.00243 -0.007,0.26633 -0.014,0.53264 -0.02101,0.79897 -0.0056,0.21226 -0.01117,0.42452 -0.01675,0.63678 -0.0044,0.16918 -0.0089,0.33836 -0.01333,0.50754 -0.0035,0.13484 -0.0071,0.26968 -0.01064,0.40452 -0.0028,0.10747 -0.0057,0.21494 -0.0085,0.32241 -0.0019,0.0737 -0.0038,0.14741 -0.0059,0.22111 -0.135226,4.86243 -7.011733,4.67119 -6.87651,-0.19123 v 0 c 0.0019,-0.0702 0.0037,-0.14042 0.0056,-0.21063 0.0028,-0.10747 0.0057,-0.21494 0.0085,-0.32241 0.0035,-0.13484 0.0071,-0.26968 0.01064,-0.40452 0.0044,-0.16918 0.0089,-0.33836 0.01333,-0.50753 0.0056,-0.21227 0.01116,-0.42453 0.01675,-0.63679 0.007,-0.26632 0.014,-0.53264 0.02101,-0.79896 0.0088,-0.33415 0.01757,-0.66829 0.02635,-1.00244 0.01101,-0.41924 0.02204,-0.83847 0.03306,-1.25771 0.01381,-0.52601 0.02765,-1.05202 0.04148,-1.57802 0.01736,-0.65996 0.03469,-1.31992 0.05204,-1.97988 0.02175,-0.82782 0.04351,-1.65564 0.06529,-2.48345 0.02708,-1.02854 0.05412,-2.05708 0.08197,-3.08559 0.03293,-1.21033 0.06673,-2.42063 0.101341,-3.6309 0.03813,-1.37002 0.07766,-2.74 0.118396,-4.10994 0.04365,-1.49694 0.0892,-2.99383 0.138826,-4.49058 0.04856,-1.50876 0.09722,-3.01752 0.134266,-4.52662 0.03842,-1.51003 0.08007,-3.02 0.109688,-4.53025 0.02601,-1.44154 0.04666,-2.88322 0.04646,-4.32503 0.0026,-1.4148 0.0034,-2.82959 0.0052,-4.24438 0.0013,-1.27387 0.0046,-2.54776 -0.0061,-3.82159 -0.0099,-1.02221 -0.02066,-2.04447 -0.04744,-3.06639 -0.0235,-0.80826 -0.05283,-1.61637 -0.09151,-2.42405 -0.03108,-0.62289 -0.06502,-1.24569 -0.113366,-1.86751 -0.03668,-0.4627 -0.07536,-0.92539 -0.132331,-1.38612 -0.0348,-0.27182 -0.07097,-0.5437 -0.123103,-0.81284 -0.0061,-0.0294 -0.07501,-0.29621 -0.01852,-0.14107 0.0136,0.0291 0.120076,0.23414 0.08137,0.16015 -2.560272,-4.13599 3.288908,-7.75677 5.849183,-3.62077 z"
       inkscape:connector-curvature="0" />
  </g>
</svg>
