<svg viewBox="0 0 100 100"><path style="opacity:1;fill:#020900;fill-opacity:1;stroke:none;stroke-width:1;stroke-linecap:butt;stroke-linejoin:round;stroke-miterlimit:4;stroke-dasharray:none;stroke-opacity:1" d="M18.326 276.015a2.9 2.9 0 0 0-.891.675c-.085.095-.156.2-.223.308.014-.059.037-.122.055-.182.051-.163.088-.33.124-.498q.085-.415.152-.833a28 28 0 0 0 .258-2.79c.026-.59.02-1.182.003-1.772-.026-.697-.068-1.394-.108-2.091-.047-.777-.086-1.555-.134-2.332a70 70 0 0 0-.186-2.253q-.113-1.139-.222-2.278-.106-1.152-.192-2.306a141 141 0 0 1-.273-4.876q-.058-1.454-.096-2.909a324 324 0 0 1-.074-3.418 1162 1162 0 0 1-.096-6.835 2035 2035 0 0 1-.061-5.89q-.013-1.263-.031-2.528l-.03-2.502a49 49 0 0 0-.052-2.042c-.028-.585-.065-1.17-.1-1.755q-.044-.732-.095-1.462-.04-.623-.087-1.245-.041-.522-.084-1.043-.028-.352-.064-.703c-.075-.52-.026-1.035.059-1.55.244-1.169.995-2.019 1.99-2.625.493-.268 1.034-.409 1.582-.512.382-.069.768-.112 1.154-.152q.57-.053 1.14-.116c.469-.055.936-.121 1.404-.186q.84-.115 1.679-.24.948-.15 1.897-.29c.704-.104 1.41-.196 2.116-.284q1.093-.133 2.187-.25a96 96 0 0 1 4.65-.384 64 64 0 0 1 2.497-.073q1.185-.013 2.37-.02l4.27-.027c.57 0 1.139-.022 1.708-.045a25 25 0 0 0 1.53-.1 55 55 0 0 0 1.541-.178l1.522-.197 1.273-.163 1.017-.13.81-.103.646-.082.515-.066.41-.053q.187-.024.375-.046c.374-.046.75-.03 1.123.012.286.036.566.104.843.182.346.096.67.248.987.415.402.22.746.521 1.066.845.198.204.37.43.545.653.055.078.124.143.194.206.201.179.415.341.63.503.37.275.753.534 1.14.786.48.308.98.586 1.476.865q.954.54 1.91 1.074 1.035.582 2.069 1.17c.762.43 1.51.887 2.252 1.351.773.483 1.53.992 2.282 1.507.77.525 1.517 1.081 2.26 1.643q.992.754 1.977 1.514.834.64 1.666 1.284l1.33 1.029c.344.265.686.533 1.032.795.155.115.354.266.496.352-.439-.29-.964-.356-1.476-.377a3.1 3.1 0 0 0-1.382.37c-.038.02-.055.032-.074.044 1.435-.943 3.006-.783 4.34.285.23.185.384.448.577.672.343.508.509 1.083.623 1.675.073.403.117.81.164 1.216q.092.804.17 1.609.09 1.05.196 2.1c.082.809.185 1.616.299 2.42.144.972.287 1.942.42 2.915.153 1.127.288 2.257.424 3.386l.447 3.714c.152 1.283.324 2.564.496 3.844a514 514 0 0 1 .95 7.398 313 313 0 0 1 .637 5.71q.119 1.177.214 2.356.08.975.154 1.948.064.84.117 1.683c.03.494.053.988.077 1.483l.055 1.176.045.937.035.746.028.596.022.474c.035.373-.003.742-.045 1.114l-.136.54c-1.494 4.629-8.04 2.517-6.547-2.113l-.1.428c-.005.046-.044.907-.043.355l-.023-.474-.028-.595-.035-.747-.044-.936-.056-1.172q-.031-.693-.071-1.385-.051-.798-.11-1.594-.073-.948-.15-1.895c-.062-.74-.126-1.48-.202-2.218q-.133-1.298-.276-2.592-.166-1.5-.347-2.998-.21-1.74-.432-3.477a508 508 0 0 0-.508-3.834 261 261 0 0 1-.507-3.936l-.447-3.713c-.132-1.092-.262-2.185-.409-3.275-.132-.964-.275-1.927-.417-2.89a70 70 0 0 1-.331-2.688 156 156 0 0 1-.2-2.134q-.071-.741-.157-1.481c-.027-.24-.053-.48-.087-.718-.049-.273.38 1.209.416.865.18.206.325.45.54.619 1.264.99 2.78 1.181 4.141.282a6 6 0 0 1-.384.243c-.565.316-1.18.517-1.831.538-.834-.02-1.635-.185-2.346-.645q-.537-.34-1.042-.728-.541-.414-1.08-.832l-1.329-1.027q-.825-.638-1.652-1.273-.962-.743-1.929-1.478a51 51 0 0 0-2.001-1.456 58 58 0 0 0-2.046-1.352 51 51 0 0 0-2.008-1.206q-1.015-.577-2.033-1.15-.955-.535-1.908-1.073a35 35 0 0 1-1.873-1.106 30 30 0 0 1-1.524-1.056c-.418-.316-.83-.64-1.213-.997a8.4 8.4 0 0 1-.87-.949c-.025-.03-.246-.303-.085-.123.158.151.34.277.531.383.141.071.283.141.436.181q.113.027.228.04c.17.015.34.02.51-.003q-.14.016-.28.035l-.41.052-.515.066-.646.082-.81.104-1.016.13-1.266.162-1.541.2a61 61 0 0 1-1.762.2 32 32 0 0 1-1.894.126c-.649.026-1.297.05-1.945.05q-1.007.005-2.012.012l-2.247.014q-1.162.008-2.325.02c-.735.01-1.47.024-2.203.062q-1.09.063-2.177.155a89 89 0 0 0-2.117.2q-1.042.111-2.082.238-.982.121-1.96.263-.943.14-1.884.287-.876.132-1.753.252c-.523.072-1.045.145-1.57.206q-.612.068-1.226.126c-.2.02-.4.04-.598.072-.124.02.46-.155.45-.206.738-.473 1.294-1.149 1.466-2.028.002-.013.064-.976.05-.525q.042.413.075.825l.087 1.077q.049.653.091 1.305.053.756.098 1.512c.038.62.077 1.238.106 1.858q.052 1.138.06 2.278.012 1.245.028 2.49.018 1.276.032 2.553a2734 2734 0 0 0 .06 5.87 1612 1612 0 0 0 .096 6.798c.02 1.116.041 2.233.072 3.349.026.938.054 1.876.093 2.813q.048 1.208.116 2.415.063 1.117.144 2.232.081 1.088.18 2.175c.072.758.15 1.516.223 2.275.078.825.152 1.651.203 2.479.048.786.089 1.572.136 2.357.044.763.089 1.525.116 2.288.022.76.028 1.522-.007 2.283-.03.657-.073 1.313-.14 1.967a27 27 0 0 1-.202 1.63 26 26 0 0 1-.22 1.19 13 13 0 0 1-.283 1.091 8.5 8.5 0 0 1-.389 1.037c-.2.418-.427.825-.727 1.182-.39.444-.828.84-1.368 1.094-4.372 2.134-7.39-4.048-3.018-6.182z" transform="translate(0 -197)"/><path style="opacity:1;fill:#020900;fill-opacity:1;stroke:none;stroke-width:1;stroke-linecap:butt;stroke-linejoin:round;stroke-miterlimit:4;stroke-dasharray:none;stroke-opacity:1" d="M56.915 218.487a5.7 5.7 0 0 1 .447.88c.163.409.27.836.364 1.264.097.46.162.924.223 1.39.072.572.121 1.147.167 1.722.054.689.092 1.379.126 2.069q.062 1.283.098 2.567c.028 1.067.04 2.134.05 3.2.01 1.299.007 2.597.006 3.895l-.005 4.25a243 243 0 0 1-.048 4.437c-.03 1.527-.072 3.054-.11 4.581-.038 1.525-.087 3.049-.136 4.573q-.074 2.235-.138 4.47l-.118 4.1-.102 3.627-.081 3.08-.066 2.483-.052 1.98-.041 1.578-.033 1.258-.027 1.002-.02.799-.017.637-.014.507-.01.405-.009.322-.006.221c-.135 4.863-7.012 4.672-6.876-.19l.005-.211.009-.323.01-.404.014-.508.016-.637.021-.799.027-1.002.033-1.258.041-1.578.052-1.98.066-2.483.082-3.086a2615 2615 0 0 1 .22-7.74q.065-2.246.138-4.491c.049-1.509.097-3.018.134-4.527.039-1.51.08-3.02.11-4.53.026-1.442.047-2.883.047-4.325l.005-4.244c.001-1.274.004-2.548-.006-3.822-.01-1.022-.02-2.045-.048-3.066q-.034-1.213-.091-2.425a68 68 0 0 0-.114-1.867 32 32 0 0 0-.132-1.386 13 13 0 0 0-.123-.813c-.006-.03-.075-.296-.019-.141l.082.16c-2.56-4.136 3.289-7.757 5.849-3.62" transform="translate(0 -197)"/></svg>