<?xml version="1.0" encoding="UTF-8" standalone="no"?>
<!-- Created with Inkscape (http://www.inkscape.org/) -->

<svg
   xmlns:dc="http://purl.org/dc/elements/1.1/"
   xmlns:cc="http://creativecommons.org/ns#"
   xmlns:rdf="http://www.w3.org/1999/02/22-rdf-syntax-ns#"
   xmlns:svg="http://www.w3.org/2000/svg"
   xmlns="http://www.w3.org/2000/svg"
   xmlns:sodipodi="http://sodipodi.sourceforge.net/DTD/sodipodi-0.dtd"
   xmlns:inkscape="http://www.inkscape.org/namespaces/inkscape"
   width="10cm"
   height="10cm"
   viewBox="0 0 100 99.999997"
   version="1.1"
   id="svg8"
   sodipodi:docname="sike.svg"
   inkscape:version="0.92.3 (2405546, 2018-03-11)">
  <defs
     id="defs2" />
  <sodipodi:namedview
     id="base"
     pagecolor="#ffffff"
     bordercolor="#666666"
     borderopacity="1.0"
     inkscape:pageopacity="0.0"
     inkscape:pageshadow="2"
     inkscape:zoom="1"
     inkscape:cx="175.50186"
     inkscape:cy="186.50542"
     inkscape:document-units="cm"
     inkscape:current-layer="layer1"
     showgrid="true"
     units="cm"
     inkscape:window-width="881"
     inkscape:window-height="707"
     inkscape:window-x="971"
     inkscape:window-y="213"
     inkscape:window-maximized="0"
     inkscape:snap-nodes="false">
    <inkscape:grid
       type="xygrid"
       id="grid815"
       units="cm"
       spacingx="9.9999998"
       spacingy="9.9999998" />
  </sodipodi:namedview>
  <metadata
     id="metadata5">
    <rdf:RDF>
      <cc:Work
         rdf:about="">
        <dc:format>image/svg+xml</dc:format>
        <dc:type
           rdf:resource="http://purl.org/dc/dcmitype/StillImage" />
        <dc:title></dc:title>
      </cc:Work>
    </rdf:RDF>
  </metadata>
  <g
     inkscape:label="Layer 1"
     inkscape:groupmode="layer"
     id="layer1"
     transform="translate(0,-197.00002)">
    <path
       style="opacity:1;fill:#020900;fill-opacity:1;stroke:none;stroke-width:1;stroke-linecap:butt;stroke-linejoin:round;stroke-miterlimit:4;stroke-dasharray:none;stroke-opacity:1"
       id="path1481"
       d="m 49.547506,219.57291 c 0.118751,0.0586 0.256125,0.0953 0.377243,0.134 -0.145896,-0.0187 -0.292367,-0.032 -0.438904,-0.0444 -0.294031,-0.024 -0.588534,-0.0406 -0.883499,-0.0454 -0.442185,-0.005 -0.884254,0.009 -1.32601,0.0269 -0.58117,0.0249 -1.161156,0.0703 -1.740606,0.12044 -0.67214,0.0576 -1.341623,0.14074 -2.009767,0.23299 -0.733179,0.10048 -1.462964,0.22329 -2.190173,0.36002 -0.727583,0.13454 -1.445657,0.31234 -2.157434,0.51323 -0.750012,0.2157 -1.480264,0.49201 -2.204752,0.78041 -0.750475,0.29151 -1.469517,0.6518 -2.170435,1.04601 -0.77815,0.44506 -1.510067,0.96322 -2.228535,1.49758 -0.78118,0.58004 -1.508469,1.22592 -2.206673,1.90222 -0.768054,0.75321 -1.461897,1.57577 -2.135188,2.41323 -0.72348,0.90133 -1.364674,1.86259 -1.963993,2.84953 -0.64082,1.06681 -1.174291,2.19161 -1.676129,3.32879 -0.528047,1.21186 -0.972117,2.45722 -1.375124,3.71542 -0.410353,1.28791 -0.691579,2.61014 -0.92935,3.93907 -0.24376,1.40515 -0.351748,2.82756 -0.418865,4.25048 -0.06532,1.47322 0.0088,2.94621 0.124716,4.41465 0.13023,1.53384 0.36636,3.05533 0.640242,4.56921 0.272556,1.48801 0.644024,2.95448 1.064514,4.40677 0.383278,1.32276 0.885215,2.60478 1.449233,3.85962 0.550779,1.20502 1.217515,2.35042 1.918501,3.47285 0.683368,1.09216 1.461471,2.11833 2.285855,3.1067 0.780419,0.93516 1.664087,1.77224 2.588568,2.56202 0.929714,0.78104 1.93657,1.46073 2.95638,2.11673 1.009274,0.64567 2.057844,1.22562 3.123792,1.77139 0.985753,0.50351 2.014392,0.91173 3.056747,1.28045 0.983983,0.34876 1.995017,0.6064 3.019007,0.80428 0.941017,0.17844 1.896573,0.23479 2.852399,0.23549 0.980512,-0.007 1.951046,-0.14561 2.91202,-0.32896 1.071391,-0.21344 2.110542,-0.55243 3.134659,-0.92728 1.143987,-0.42831 2.247765,-0.95324 3.337618,-1.50255 1.160304,-0.58748 2.273607,-1.26008 3.36536,-1.96518 1.130922,-0.7343 2.183506,-1.57768 3.218288,-2.43957 1.063226,-0.887 2.071431,-1.83575 3.055173,-2.80924 0.963237,-0.95112 1.863985,-1.96111 2.725513,-3.00437 0.860636,-1.0484 1.618591,-2.17356 2.337583,-3.32195 0.734158,-1.18303 1.364104,-2.42518 1.965666,-3.67942 0.584841,-1.2125 1.083866,-2.46207 1.525905,-3.73277 0.429268,-1.24444 0.737203,-2.52385 0.990521,-3.81408 0.256471,-1.35059 0.379952,-2.72025 0.464452,-4.09074 0.08028,-1.29447 0.03902,-2.59031 -0.05779,-3.8822 -0.10093,-1.25053 -0.317293,-2.48652 -0.572227,-3.71356 -0.258752,-1.22819 -0.624772,-2.42887 -1.029068,-3.61583 -0.387935,-1.11822 -0.85575,-2.20578 -1.351002,-3.27995 -0.462045,-0.99256 -0.983113,-1.95568 -1.528625,-2.90438 -0.499422,-0.86115 -1.050841,-1.69018 -1.622142,-2.50487 -0.524164,-0.74054 -1.090311,-1.44975 -1.669651,-2.1475 -0.501631,-0.60481 -1.038132,-1.17883 -1.591728,-1.73598 -0.481557,-0.48369 -0.989528,-0.93935 -1.509371,-1.38119 -0.461251,-0.3879 -0.938236,-0.75638 -1.422977,-1.11429 -0.410154,-0.30013 -0.835247,-0.57887 -1.267759,-0.84549 -0.343606,-0.21585 -0.704953,-0.39914 -1.075639,-0.56307 -0.362265,-0.15864 -0.735545,-0.28958 -1.112004,-0.40984 -0.347226,-0.10969 -0.700651,-0.1983 -1.056913,-0.27302 -0.33533,-0.066 -0.67559,-0.10277 -1.015132,-0.13933 -0.330094,-0.0381 -0.661736,-0.056 -0.993756,-0.0638 -0.317014,-0.006 -0.633976,0.001 -0.950675,0.0152 -0.325834,0.0169 -0.651322,0.0399 -0.976659,0.0645 -0.3278,0.0267 -0.655169,0.0585 -0.982591,0.0894 -0.306041,0.0272 -0.611404,0.0608 -0.916265,0.0989 -0.297275,0.0378 -0.594498,0.0761 -0.891723,0.11431 -0.628092,0.10444 -0.06145,-0.009 0.206888,-0.0999 0.106725,-0.0533 0.213448,-0.1067 0.32017,-0.16004 -4.101698,2.61487 -7.799678,-3.18581 -3.697981,-5.80068 v 0 c 0.190056,-0.10647 0.380109,-0.21294 0.570164,-0.31941 0.558496,-0.21819 1.122016,-0.39774 1.723417,-0.44295 0.30699,-0.0395 0.613971,-0.079 0.921022,-0.11801 0.371666,-0.046 0.743839,-0.0875 1.116875,-0.1208 0.37092,-0.0351 0.741789,-0.071 1.1132,-0.10052 0.400683,-0.0301 0.801566,-0.0582 1.202926,-0.0778 0.473061,-0.0197 0.94656,-0.0301 1.420024,-0.019 0.520507,0.0143 1.040542,0.0428 1.558128,0.10175 0.572969,0.0627 1.146075,0.132 1.710547,0.25116 0.582653,0.12593 1.161524,0.27017 1.729293,0.45282 0.61562,0.19961 1.225765,0.41716 1.817304,0.68084 0.645615,0.29191 1.277787,0.61251 1.878722,0.98927 0.593071,0.36786 1.176914,0.75081 1.739071,1.16479 0.610664,0.45226 1.212046,0.91719 1.792584,1.40779 0.666158,0.56819 1.317345,1.15386 1.934554,1.77538 0.695518,0.70285 1.370693,1.42579 2.001539,2.1878 0.697894,0.84243 1.37936,1.69905 2.009865,2.59359 0.687877,0.98398 1.352007,1.98503 1.952685,3.02519 0.646761,1.12821 1.264838,2.2733 1.811954,3.4537 0.593315,1.29162 1.152912,2.59958 1.615819,3.94445 0.492768,1.45601 0.937715,2.929 1.251841,4.43521 0.312608,1.52053 0.57589,3.05229 0.696008,4.60163 0.115676,1.60268 0.164566,3.21011 0.06281,4.8155 -0.106124,1.67459 -0.263308,3.34765 -0.582004,4.99706 -0.32005,1.60587 -0.706329,3.19866 -1.24455,4.74717 -0.52991,1.51121 -1.121894,2.99959 -1.819232,4.44236 -0.715031,1.48648 -1.466591,2.957 -2.340078,4.35801 -0.881092,1.40067 -1.810324,2.77237 -2.864234,4.05046 -1.009592,1.21784 -2.061924,2.39955 -3.18901,3.51073 -1.124553,1.11071 -2.276953,2.19329 -3.491902,3.20545 -1.249775,1.03863 -2.524603,2.05005 -3.890907,2.93331 -1.298289,0.83542 -2.62175,1.63277 -4.001119,2.32859 -1.330753,0.66821 -2.679427,1.30433 -4.077173,1.82175 -1.378196,0.49895 -2.777294,0.94606 -4.219046,1.22398 -1.390399,0.25728 -2.794521,0.44731 -4.211743,0.44661 -1.389605,-0.0103 -2.778644,-0.0978 -4.145449,-0.36433 -1.354977,-0.26909 -2.695123,-0.60759 -3.997561,-1.07271 -1.327761,-0.47378 -2.637999,-0.99777 -3.893666,-1.64207 -1.265315,-0.65066 -2.510978,-1.33998 -3.708945,-2.10899 -1.282716,-0.82776 -2.545075,-1.69092 -3.710972,-2.6796 -1.212955,-1.04502 -2.373447,-2.15076 -3.398099,-3.38452 -1.020783,-1.23148 -1.98737,-2.50737 -2.834245,-3.86628 -0.864127,-1.38975 -1.683396,-2.80916 -2.359405,-4.30167 -0.690228,-1.54902 -1.309238,-3.1293 -1.778971,-4.76069 -0.48338,-1.67903 -0.912294,-3.37384 -1.22517,-5.09384 -0.312982,-1.74091 -0.582234,-3.49057 -0.728539,-5.2544 -0.135884,-1.75663 -0.219111,-3.51869 -0.137647,-5.28062 0.08411,-1.72087 0.220407,-3.44074 0.519864,-5.13943 0.294825,-1.62797 0.644498,-3.24718 1.150331,-4.82448 0.47957,-1.48803 1.005669,-2.96151 1.633587,-4.39429 0.625698,-1.4108 1.293778,-2.80452 2.093577,-4.12656 0.758738,-1.24028 1.566835,-2.45035 2.48013,-3.58354 0.855194,-1.05992 1.739479,-2.09817 2.716601,-3.04899 0.913962,-0.87882 1.863221,-1.72079 2.883531,-2.47563 0.956956,-0.70862 1.934324,-1.39184 2.972189,-1.97835 0.966337,-0.5374 1.955334,-1.03289 2.986992,-1.43417 0.947441,-0.37544 1.903484,-0.73178 2.884699,-1.01011 0.907214,-0.25352 1.821733,-0.48043 2.748526,-0.6513 0.836816,-0.15652 1.67636,-0.29833 2.519953,-0.4136 0.7835,-0.10753 1.568532,-0.20453 2.356654,-0.27179 0.684522,-0.0589 1.369698,-0.11174 2.056254,-0.14036 0.580237,-0.023 1.160926,-0.0396 1.741686,-0.031 0.445474,0.0101 0.890535,0.0312 1.334561,0.0694 0.344445,0.03 0.688912,0.0637 1.030034,0.12134 0.407228,0.0738 0.811638,0.16941 1.19163,0.33778 4.458298,1.94552 1.70692,8.25051 -2.751381,6.30499 z"
       inkscape:connector-curvature="0" />
    <path
       style="opacity:1;fill:#020900;fill-opacity:1;stroke:none;stroke-width:1;stroke-linecap:butt;stroke-linejoin:round;stroke-miterlimit:4;stroke-dasharray:none;stroke-opacity:1"
       id="path1483"
       d="m 41.795268,237.28586 c 0.07159,0.45919 0.435173,0.98597 0.732583,1.38946 0.79524,0.82262 1.850935,1.20583 2.974758,1.01049 0.133755,-0.0212 0.246203,-0.089 0.0824,0.017 -0.229404,0.15583 -0.438817,0.33777 -0.646023,0.52136 -0.364079,0.32518 -0.690753,0.68761 -1.004019,1.06102 -0.387226,0.46392 -0.713584,0.9723 -1.018683,1.49253 -0.373277,0.64537 -0.679918,1.32518 -0.967692,2.01193 -0.308555,0.7343 -0.556543,1.49039 -0.760199,2.25977 -0.192574,0.75532 -0.293968,1.52823 -0.36509,2.30308 -0.06897,0.78641 -0.04734,1.57541 0.01474,2.36111 0.06643,0.7749 0.224848,1.53625 0.415605,2.28879 0.180438,0.71247 0.450503,1.39502 0.770501,2.05505 0.317431,0.63533 0.720955,1.22006 1.153403,1.78131 0.420106,0.54208 0.91017,1.02127 1.425798,1.47102 0.494585,0.43331 1.044662,0.79093 1.618715,1.10813 0.543468,0.29747 1.127059,0.50117 1.725054,0.65515 0.618824,0.15193 1.254342,0.19588 1.889102,0.2082 0.652404,0.0107 1.301075,-0.0541 1.94215,-0.17013 0.5408,-0.10398 1.052779,-0.30404 1.551699,-0.53158 0.491604,-0.22975 0.949568,-0.51996 1.384146,-0.84319 0.41637,-0.31618 0.788324,-0.68378 1.134939,-1.0738 0.355348,-0.40429 0.632272,-0.86563 0.891468,-1.33487 0.320688,-0.59067 0.583197,-1.20914 0.809525,-1.84122 0.220781,-0.62849 0.353359,-1.28122 0.460213,-1.93712 0.118399,-0.7575 0.161748,-1.52321 0.176826,-2.28885 0.01429,-0.73586 -0.04428,-1.46914 -0.138538,-2.19815 -0.07936,-0.6114 -0.226415,-1.20964 -0.405408,-1.79859 -0.147391,-0.47347 -0.351927,-0.92519 -0.584618,-1.36209 -0.196927,-0.36238 -0.437346,-0.69752 -0.698426,-1.01585 -0.235651,-0.28424 -0.513408,-0.52752 -0.799015,-0.75966 -0.333737,-0.26718 -0.695306,-0.49575 -1.060347,-0.717 -0.407093,-0.24497 -0.823674,-0.47348 -1.243769,-0.69521 -0.376674,-0.19834 -0.75892,-0.38567 -1.143945,-0.56717 -0.334957,-0.15738 -0.672748,-0.30852 -1.013346,-0.45325 -0.291174,-0.12174 -0.585581,-0.23552 -0.881451,-0.34527 -0.260049,-0.0963 -0.5232,-0.1838 -0.787614,-0.26724 -0.203912,-0.0641 -0.412081,-0.11273 -0.620271,-0.16044 -0.18932,-0.0433 -0.379129,-0.0853 -0.571452,-0.11306 -0.147929,-0.0178 -0.296265,-0.0327 -0.44504,-0.041 -0.01513,-0.004 -0.167796,-7.9e-4 -0.07891,0.005 -0.114448,0.0247 -0.22896,0.0497 -0.343265,0.0752 -0.187204,0.0419 -0.374357,0.0841 -0.561518,0.12621 -0.142507,0.0327 -0.28553,0.0632 -0.427852,0.0968 -0.05652,0.0145 -0.03444,0.009 0.06631,-0.0168 -4.663863,1.38197 -6.618264,-5.21373 -1.9544,-6.5957 v 0 c 0.254619,-0.0709 0.145679,-0.0431 0.325847,-0.087 0.159652,-0.0371 0.319672,-0.0725 0.479542,-0.10861 0.190949,-0.043 0.381897,-0.086 0.572891,-0.12876 0.336495,-0.0751 0.673934,-0.14797 1.016368,-0.1908 0.446646,-0.0495 0.895689,-0.0735 1.344753,-0.0404 0.357767,0.0239 0.715116,0.0567 1.069861,0.10984 0.352367,0.0565 0.702948,0.12309 1.050258,0.20555 0.387721,0.0895 0.774166,0.18547 1.15361,0.30603 0.371999,0.11807 0.742328,0.24151 1.10821,0.37752 0.395676,0.14736 0.789554,0.29968 1.178663,0.46371 0.421704,0.17978 0.840409,0.36642 1.255162,0.56175 0.478642,0.22615 0.953977,0.45928 1.422249,0.70631 0.543542,0.28762 1.082406,0.58426 1.608696,0.90259 0.644194,0.3939 1.277096,0.80817 1.861759,1.28771 0.641916,0.5344 1.256615,1.10282 1.781353,1.75557 0.535384,0.6729 1.032642,1.37633 1.432938,2.13949 0.428217,0.82826 0.809112,1.68106 1.077717,2.57593 0.282064,0.95304 0.515471,1.92029 0.63954,2.90799 0.132172,1.06554 0.215,2.13704 0.190931,3.2118 -0.02622,1.09368 -0.09301,2.18723 -0.268938,3.26836 -0.181216,1.0697 -0.411128,2.13228 -0.780294,3.15506 -0.359301,0.97947 -0.767439,1.94086 -1.273963,2.85455 -0.517152,0.91505 -1.083839,1.80371 -1.790861,2.5864 -0.669378,0.73333 -1.38157,1.42807 -2.183604,2.01739 -0.830442,0.5995 -1.698643,1.14578 -2.634813,1.56721 -1.023306,0.45104 -2.077001,0.83327 -3.182536,1.0277 -1.088077,0.18317 -2.186836,0.29582 -3.292072,0.26826 -1.179299,-0.0351 -2.357716,-0.14086 -3.502414,-0.44338 -1.146141,-0.31622 -2.267397,-0.71698 -3.3073,-1.30201 -0.989277,-0.56244 -1.941573,-1.18776 -2.79555,-1.94436 -0.848749,-0.75388 -1.655652,-1.55524 -2.346053,-2.45973 -0.714063,-0.94319 -1.377415,-1.92624 -1.893313,-2.99418 -0.507344,-1.07693 -0.945991,-2.18502 -1.232945,-3.34311 -0.280556,-1.13229 -0.51027,-2.27801 -0.601845,-3.44303 -0.08499,-1.1733 -0.112879,-2.35109 -0.0034,-3.52436 0.111971,-1.15779 0.272899,-2.31193 0.569851,-3.43872 0.289973,-1.06959 0.631722,-2.12399 1.064062,-3.14552 0.411355,-0.9732 0.853112,-1.93474 1.38843,-2.84719 0.505267,-0.8481 1.047297,-1.67514 1.685941,-2.43035 0.536707,-0.63121 1.097518,-1.24252 1.720635,-1.79043 0.55017,-0.47965 1.118405,-0.94218 1.750444,-1.31148 0.543343,-0.30662 1.105305,-0.58462 1.714071,-0.73665 1.448105,-0.29805 2.654589,-0.0324 3.742735,1.0365 0.413533,0.54748 0.795293,1.10414 0.908997,1.79605 1.025097,4.75506 -5.69958,6.20477 -6.724676,1.4497 z"
       inkscape:connector-curvature="0" />
  </g>
</svg>
