<svg viewBox="0 0 100 100"><path style="opacity:1;fill:#020900;fill-opacity:1;stroke:none;stroke-width:1;stroke-linecap:butt;stroke-linejoin:round;stroke-miterlimit:4;stroke-dasharray:none;stroke-opacity:1" d="M49.548 219.573c.118.059.256.095.377.134a14 14 0 0 0-1.322-.09c-.443-.005-.885.01-1.327.027a40 40 0 0 0-3.75.353c-.733.1-1.463.224-2.19.36-.728.135-1.446.313-2.158.514-.75.215-1.48.492-2.204.78-.75.292-1.47.652-2.17 1.046-.779.445-1.51.963-2.23 1.498a22 22 0 0 0-2.206 1.902c-.768.753-1.462 1.576-2.135 2.413a26.5 26.5 0 0 0-1.964 2.85c-.641 1.066-1.175 2.191-1.676 3.328a39 39 0 0 0-1.375 3.716c-.41 1.288-.692 2.61-.93 3.939-.244 1.405-.352 2.828-.419 4.25-.065 1.474.01 2.947.125 4.415.13 1.534.366 3.055.64 4.57a45 45 0 0 0 1.065 4.406c.383 1.323.885 2.605 1.449 3.86.55 1.205 1.218 2.35 1.919 3.473.683 1.092 1.461 2.118 2.285 3.106.78.935 1.664 1.772 2.589 2.562.93.781 1.937 1.461 2.956 2.117a38 38 0 0 0 3.124 1.771c.986.504 2.015.912 3.057 1.28.984.35 1.995.607 3.019.805.94.179 1.896.235 2.852.236.98-.007 1.951-.146 2.912-.33 1.072-.213 2.11-.552 3.135-.927 1.144-.428 2.248-.953 3.338-1.502 1.16-.588 2.273-1.26 3.365-1.965 1.13-.735 2.183-1.578 3.218-2.44a49 49 0 0 0 3.055-2.81 40 40 0 0 0 2.726-3.004c.86-1.048 1.618-2.173 2.337-3.322.735-1.183 1.365-2.425 1.966-3.679a35 35 0 0 0 1.526-3.733c.43-1.244.737-2.524.99-3.814.257-1.35.38-2.72.465-4.09.08-1.295.039-2.59-.058-3.883-.1-1.25-.317-2.486-.572-3.713-.259-1.228-.625-2.43-1.03-3.616-.387-1.118-.855-2.206-1.35-3.28a38 38 0 0 0-1.529-2.904 35 35 0 0 0-1.622-2.505 35 35 0 0 0-1.67-2.148 26 26 0 0 0-1.591-1.736 25 25 0 0 0-1.51-1.381 29 29 0 0 0-1.423-1.114c-.41-.3-.835-.58-1.267-.846a8.4 8.4 0 0 0-1.076-.563 11.5 11.5 0 0 0-2.169-.683 12 12 0 0 0-1.015-.139c-.33-.038-.662-.056-.994-.064a15 15 0 0 0-.95.015q-.49.026-.977.065-.492.041-.983.09-.459.04-.916.098l-.892.114c-.628.105-.061-.009.207-.1l.32-.16c-4.101 2.615-7.8-3.185-3.698-5.8l.57-.32c.56-.218 1.123-.397 1.724-.442l.921-.119q.558-.07 1.117-.12c.37-.035.742-.071 1.113-.1q.6-.047 1.203-.079c.473-.02.947-.03 1.42-.019.52.015 1.04.043 1.558.102.573.063 1.146.132 1.71.251a18 18 0 0 1 3.547 1.134 15.5 15.5 0 0 1 1.879.99c.593.367 1.177.75 1.74 1.164a31.8 31.8 0 0 1 5.729 5.371 42 42 0 0 1 2.009 2.594 42 42 0 0 1 1.952 3.025 45 45 0 0 1 1.812 3.453c.594 1.292 1.153 2.6 1.616 3.945.493 1.456.938 2.929 1.252 4.435.313 1.52.576 3.052.696 4.602.116 1.602.165 3.21.063 4.815-.106 1.675-.264 3.348-.582 4.997-.32 1.606-.707 3.199-1.245 4.747-.53 1.512-1.122 3-1.819 4.443-.715 1.486-1.467 2.957-2.34 4.358-.881 1.4-1.81 2.772-2.864 4.05a47 47 0 0 1-3.19 3.511c-1.124 1.11-2.276 2.193-3.491 3.205-1.25 1.04-2.525 2.05-3.891 2.934-1.298.835-2.622 1.633-4.001 2.328-1.331.669-2.68 1.305-4.077 1.822-1.379.5-2.778.946-4.22 1.224-1.39.257-2.794.447-4.211.447-1.39-.01-2.779-.098-4.146-.365-1.355-.269-2.695-.607-3.997-1.072-1.328-.474-2.638-.998-3.894-1.642a45 45 0 0 1-3.709-2.11c-1.283-.827-2.545-1.69-3.71-2.679-1.214-1.045-2.374-2.15-3.399-3.384-1.02-1.232-1.987-2.508-2.834-3.867-.864-1.39-1.684-2.809-2.36-4.301-.69-1.55-1.309-3.13-1.779-4.761-.483-1.68-.912-3.374-1.225-5.094-.313-1.74-.582-3.49-.728-5.254-.136-1.757-.22-3.52-.138-5.281.084-1.72.22-3.44.52-5.14.295-1.627.644-3.247 1.15-4.824.48-1.488 1.006-2.961 1.634-4.394.626-1.411 1.294-2.805 2.093-4.127.76-1.24 1.567-2.45 2.48-3.583.856-1.06 1.74-2.098 2.717-3.05.914-.878 1.863-1.72 2.884-2.475.957-.709 1.934-1.392 2.972-1.978.966-.538 1.955-1.033 2.987-1.434.947-.376 1.903-.732 2.885-1.01a31 31 0 0 1 2.748-.652 52 52 0 0 1 4.877-.685c.684-.06 1.37-.112 2.056-.14.58-.024 1.16-.04 1.742-.032q.668.014 1.334.07c.345.03.69.064 1.03.121.407.074.812.17 1.192.338 4.458 1.945 1.707 8.25-2.751 6.305" transform="translate(0 -197)"/><path style="opacity:1;fill:#020900;fill-opacity:1;stroke:none;stroke-width:1;stroke-linecap:butt;stroke-linejoin:round;stroke-miterlimit:4;stroke-dasharray:none;stroke-opacity:1" d="M41.795 237.286c.072.46.435.986.733 1.39.795.822 1.85 1.205 2.975 1.01.133-.021.246-.09.082.017a7 7 0 0 0-.646.521c-.364.325-.69.688-1.004 1.061a11 11 0 0 0-1.019 1.493c-.373.645-.68 1.325-.967 2.012a17 17 0 0 0-.76 2.26c-.193.755-.295 1.528-.366 2.303-.069.786-.047 1.575.015 2.36.066.776.225 1.537.416 2.29.18.712.45 1.394.77 2.054.318.636.721 1.22 1.154 1.782.42.542.91 1.021 1.425 1.47a9 9 0 0 0 1.62 1.109 7.4 7.4 0 0 0 1.724.655c.619.152 1.254.196 1.89.208a10 10 0 0 0 1.941-.17c.541-.104 1.053-.304 1.552-.531.492-.23.95-.52 1.384-.844a8 8 0 0 0 1.135-1.073c.356-.405.632-.866.892-1.335.32-.591.583-1.21.81-1.842.22-.628.353-1.28.46-1.937a17 17 0 0 0 .176-2.288c.014-.736-.044-1.47-.138-2.199-.08-.611-.227-1.21-.406-1.798a8 8 0 0 0-.584-1.362 6.5 6.5 0 0 0-.699-1.016 5.6 5.6 0 0 0-.799-.76 10 10 0 0 0-1.06-.717 25 25 0 0 0-1.244-.695 29 29 0 0 0-2.157-1.02 23 23 0 0 0-.882-.346q-.39-.143-.787-.267a8 8 0 0 0-.62-.16 7 7 0 0 0-.572-.113 7 7 0 0 0-.445-.041c-.015-.004-.168-.001-.079.005l-.343.075-.562.126-.428.097.067-.017c-4.664 1.382-6.619-5.214-1.955-6.596.255-.07.146-.043.326-.087l.48-.108.573-.13a11 11 0 0 1 1.016-.19c.447-.05.896-.073 1.345-.04.357.024.715.056 1.07.11q.529.083 1.05.205c.388.09.774.186 1.153.306q.559.175 1.109.378.594.22 1.178.463a37 37 0 0 1 2.678 1.268c.543.288 1.082.585 1.608.903.645.394 1.278.808 1.862 1.288.642.534 1.257 1.102 1.782 1.755.535.673 1.032 1.377 1.432 2.14.429.828.81 1.68 1.078 2.576.282.953.516 1.92.64 2.908.132 1.065.215 2.137.19 3.211-.026 1.094-.092 2.188-.268 3.269-.181 1.07-.411 2.132-.78 3.155-.36.98-.768 1.94-1.275 2.854-.517.915-1.083 1.804-1.79 2.587-.67.733-1.382 1.428-2.184 2.017-.83.6-1.699 1.146-2.635 1.567-1.023.451-2.077.834-3.182 1.028-1.088.183-2.187.296-3.292.268-1.18-.035-2.358-.14-3.503-.443-1.146-.316-2.267-.717-3.307-1.302-.99-.562-1.942-1.188-2.796-1.944-.848-.754-1.655-1.556-2.346-2.46-.714-.943-1.377-1.926-1.893-2.994-.507-1.077-.946-2.185-1.233-3.343-.28-1.133-.51-2.278-.602-3.443-.085-1.174-.113-2.352-.003-3.525.112-1.158.273-2.312.57-3.438a24.5 24.5 0 0 1 1.064-3.146c.411-.973.853-1.935 1.388-2.847.505-.848 1.047-1.675 1.686-2.43.537-.632 1.098-1.243 1.72-1.791.55-.48 1.12-.942 1.751-1.311.543-.307 1.105-.585 1.714-.737 1.448-.298 2.655-.033 3.743 1.036.413.548.795 1.105.909 1.796 1.025 4.755-5.7 6.205-6.725 1.45" transform="translate(0 -197)"/></svg>