<?xml version="1.0" encoding="UTF-8" standalone="no"?>
<!-- Created with Inkscape (http://www.inkscape.org/) -->

<svg
   xmlns:dc="http://purl.org/dc/elements/1.1/"
   xmlns:cc="http://creativecommons.org/ns#"
   xmlns:rdf="http://www.w3.org/1999/02/22-rdf-syntax-ns#"
   xmlns:svg="http://www.w3.org/2000/svg"
   xmlns="http://www.w3.org/2000/svg"
   xmlns:sodipodi="http://sodipodi.sourceforge.net/DTD/sodipodi-0.dtd"
   xmlns:inkscape="http://www.inkscape.org/namespaces/inkscape"
   width="10cm"
   height="10cm"
   viewBox="0 0 100 99.999997"
   version="1.1"
   id="svg8"
   sodipodi:docname="sin.svg"
   inkscape:version="0.92.3 (2405546, 2018-03-11)">
  <defs
     id="defs2" />
  <sodipodi:namedview
     id="base"
     pagecolor="#ffffff"
     bordercolor="#666666"
     borderopacity="1.0"
     inkscape:pageopacity="0.0"
     inkscape:pageshadow="2"
     inkscape:zoom="1"
     inkscape:cx="175.50186"
     inkscape:cy="186.50542"
     inkscape:document-units="cm"
     inkscape:current-layer="layer1"
     showgrid="true"
     units="cm"
     inkscape:window-width="881"
     inkscape:window-height="707"
     inkscape:window-x="971"
     inkscape:window-y="213"
     inkscape:window-maximized="0"
     inkscape:snap-nodes="false">
    <inkscape:grid
       type="xygrid"
       id="grid815"
       units="cm"
       spacingx="9.9999998"
       spacingy="9.9999998" />
  </sodipodi:namedview>
  <metadata
     id="metadata5">
    <rdf:RDF>
      <cc:Work
         rdf:about="">
        <dc:format>image/svg+xml</dc:format>
        <dc:type
           rdf:resource="http://purl.org/dc/dcmitype/StillImage" />
        <dc:title></dc:title>
      </cc:Work>
    </rdf:RDF>
  </metadata>
  <g
     inkscape:label="Layer 1"
     inkscape:groupmode="layer"
     id="layer1"
     transform="translate(0,-197.00002)">
    <path
       style="opacity:1;fill:#020900;fill-opacity:1;stroke:none;stroke-width:1;stroke-linecap:butt;stroke-linejoin:round;stroke-miterlimit:4;stroke-dasharray:none;stroke-opacity:1"
       id="path1485"
       d="m 16.385774,262.67193 c 0.04699,0.005 0.0941,0.009 0.141205,0.0125 0.09696,0.007 0.194034,0.0133 0.291111,0.019 0.111721,0.006 0.223489,0.012 0.335273,0.0172 0.119052,0.006 0.238171,0.01 0.357295,0.0134 0.147772,0.005 0.295577,0.008 0.443384,0.0114 0.138173,0.004 0.276375,0.005 0.414588,0.003 0.135026,-10e-4 0.269741,-0.0102 0.404401,-0.0194 0.155234,-0.009 0.309323,-0.0288 0.463426,-0.0485 0.25355,-0.0327 0.507707,-0.0603 0.761425,-0.0916 0.260027,-0.032 0.520109,-0.0636 0.77986,-0.0978 0.253835,-0.0354 0.506955,-0.0756 0.760287,-0.1144 0.323712,-0.05 0.648858,-0.0897 0.973863,-0.13015 0.318952,-0.0406 0.637866,-0.0815 0.956692,-0.12302 0.397311,-0.0532 0.795269,-0.10112 1.193733,-0.14475 0.466295,-0.05 0.933586,-0.09 1.401272,-0.12437 0.52698,-0.0395 1.0553,-0.0533 1.58357,-0.0589 0.502936,-0.005 1.005808,0.006 1.508535,0.0193 0.492294,0.009 0.984004,0.0339 1.475446,0.0631 0.473559,0.0294 0.947031,0.0602 1.42026,0.0945 0.488939,0.0361 0.977516,0.0769 1.465863,0.12024 0.475617,0.0436 0.950947,0.0903 1.426461,0.135 0.462783,0.0416 0.925296,0.0861 1.387713,0.1315 0.42812,0.0433 0.856367,0.0853 1.284719,0.12627 0.366604,0.0348 0.733319,0.0685 1.100053,0.10192 0.302339,0.0275 0.604689,0.0548 0.907039,0.0822 0.277334,0.0241 0.554487,0.0495 0.830953,0.0822 0.20646,0.0244 0.409985,0.0664 0.613082,0.10968 4.750371,1.04663 3.27021,7.76467 -1.480161,6.71803 v 0 c 0.0081,2.4e-4 0.02588,0.002 0.03607,0.001 -0.205795,-0.0279 -0.413676,-0.038 -0.620122,-0.0598 -0.303715,-0.0275 -0.607431,-0.055 -0.911135,-0.0826 -0.376799,-0.0343 -0.753573,-0.0689 -1.130234,-0.10474 -0.434494,-0.0415 -0.868881,-0.0841 -1.303137,-0.12806 -0.452847,-0.0445 -0.90579,-0.088 -1.358997,-0.12873 -0.463759,-0.0436 -0.927349,-0.0891 -1.391195,-0.13177 -0.451634,-0.0402 -0.903484,-0.0779 -1.355665,-0.11135 -0.443452,-0.0323 -0.887161,-0.0609 -1.33092,-0.0886 -0.413729,-0.0247 -0.827656,-0.0461 -1.242134,-0.0532 -0.421132,-0.0108 -0.842383,-0.0218 -1.263695,-0.0174 -0.384302,0.003 -0.768686,0.0125 -1.152067,0.0411 -0.385408,0.0278 -0.770419,0.0612 -1.154696,0.10192 -0.351089,0.0382 -0.701651,0.0809 -1.051702,0.12774 -0.332015,0.0433 -0.664113,0.0859 -0.996264,0.12806 -0.26137,0.0325 -0.522952,0.0637 -0.783319,0.10374 -0.300903,0.046 -0.601548,0.0939 -0.903211,0.13472 -0.279375,0.0367 -0.559055,0.071 -0.838731,0.10529 -0.243468,0.0298 -0.487254,0.0569 -0.730591,0.0878 -0.288654,0.0367 -0.577796,0.0699 -0.868324,0.0879 -0.264815,0.0178 -0.529901,0.0321 -0.79537,0.0346 -0.213518,0.002 -0.427048,0.002 -0.64051,-0.004 -0.169201,-0.004 -0.338397,-0.008 -0.507557,-0.0131 -0.153608,-0.005 -0.307205,-0.0102 -0.460721,-0.0174 -0.139227,-0.007 -0.278434,-0.0134 -0.41758,-0.0215 -0.147758,-0.009 -0.295499,-0.0178 -0.443051,-0.0296 -0.159037,-0.013 -0.318003,-0.0273 -0.476266,-0.0479 -4.823444,-0.62918 -3.933662,-7.45055 0.889781,-6.82138 z"
       inkscape:connector-curvature="0" />
    <path
       style="opacity:1;fill:#020900;fill-opacity:1;stroke:none;stroke-width:1;stroke-linecap:butt;stroke-linejoin:round;stroke-miterlimit:4;stroke-dasharray:none;stroke-opacity:1"
       id="path1487"
       d="m 60.534009,262.35113 c -0.02291,-0.0212 -0.230243,-0.11626 -0.06295,-0.0414 0.06268,0.0276 0.06882,0.0281 0.0068,0.003 0.0098,0.003 0.06372,0.0161 0.09193,0.0209 0.105315,0.0184 0.211236,0.0329 0.317236,0.0467 0.19931,0.025 0.399457,0.0425 0.599644,0.0588 0.249549,0.0205 0.499692,0.0327 0.750043,0.0362 0.317011,0.002 0.633894,-0.01 0.950566,-0.0232 0.395872,-0.0168 0.790951,-0.0473 1.18577,-0.08 0.486402,-0.0416 0.972399,-0.0876 1.45873,-0.13 0.51285,-0.0436 1.025752,-0.0866 1.538425,-0.13227 0.485587,-0.0441 0.970534,-0.095 1.455235,-0.14784 0.472627,-0.0512 0.943684,-0.11549 1.414655,-0.17988 0.518586,-0.0703 1.037363,-0.13908 1.556457,-0.20547 0.554024,-0.07 1.10936,-0.12907 1.664377,-0.19055 0.598199,-0.0679 1.197316,-0.12714 1.796896,-0.18138 0.694955,-0.0685 1.392503,-0.0979 2.090412,-0.11138 0.64764,-0.009 1.295324,-7.9e-4 1.942809,0.0138 0.560605,0.0147 1.121027,0.0354 1.681486,0.0547 0.48143,0.0163 0.962795,0.0346 1.444188,0.0521 0.423148,0.0155 0.846347,0.0295 1.269566,0.0428 0.385091,0.012 0.7702,0.0232 1.155311,0.0344 0.32416,0.009 0.648327,0.0184 0.972495,0.0275 0.263612,0.007 0.527224,0.0147 0.790837,0.022 0.210362,0.006 0.420722,0.0117 0.631084,0.0175 0.167666,0.005 0.335335,0.009 0.503005,0.014 0.0249,7.9e-4 0.04977,0.002 0.07466,0.002 0.01886,5.3e-4 -0.03774,-0.003 -0.05658,-0.002 -0.135916,0.007 -0.271655,0.0171 -0.407484,0.0257 4.818909,-0.66301 5.756547,6.15196 0.937638,6.81497 v 0 c -0.248232,0.0191 -0.491159,0.0506 -0.739275,0.0354 -0.167669,-0.005 -0.335335,-0.009 -0.503005,-0.014 -0.210367,-0.006 -0.420735,-0.0117 -0.6311,-0.0175 -0.263858,-0.007 -0.527714,-0.0147 -0.791569,-0.022 -0.326613,-0.009 -0.653225,-0.0183 -0.979829,-0.0277 -0.391054,-0.0113 -0.782106,-0.0228 -1.173136,-0.0349 -0.433856,-0.0137 -0.867693,-0.0281 -1.301478,-0.0439 -0.47752,-0.0173 -0.955013,-0.0354 -1.432573,-0.0516 -0.533035,-0.0184 -1.066038,-0.0381 -1.599205,-0.0524 -0.553627,-0.0126 -1.107416,-0.0198 -1.661189,-0.0132 -0.533604,0.009 -1.066877,0.0312 -1.598139,0.0847 -0.553387,0.0499 -1.106318,0.10469 -1.658411,0.16745 -0.516678,0.0572 -1.033666,0.11203 -1.549466,0.17684 -0.499301,0.0638 -0.998276,0.13012 -1.497089,0.19762 -0.532884,0.0728 -1.065943,0.14488 -1.600706,0.20274 -0.529672,0.0577 -1.059606,0.11318 -1.590254,0.16121 -0.517287,0.0461 -1.034791,0.0896 -1.552265,0.13349 -0.496517,0.0432 -0.992664,0.0905 -1.489279,0.13259 -0.488135,0.0402 -0.976633,0.077 -1.466062,0.0974 -0.45253,0.0186 -0.905406,0.0336 -1.358397,0.028 -0.39733,-0.008 -0.794462,-0.0245 -1.19054,-0.0581 -0.314156,-0.0259 -0.628163,-0.0546 -0.940798,-0.0954 -0.296619,-0.0396 -0.59292,-0.0834 -0.885618,-0.14644 -0.262343,-0.0587 -0.523058,-0.12469 -0.778494,-0.20898 -0.224018,-0.0759 -0.445826,-0.1582 -0.660885,-0.25711 -0.202205,-0.0907 -0.40405,-0.18309 -0.594682,-0.2968 -4.200038,-2.45381 -0.729832,-8.39356 3.470203,-5.93975 z"
       inkscape:connector-curvature="0" />
    <path
       style="opacity:1;fill:#020900;fill-opacity:1;stroke:none;stroke-width:1;stroke-linecap:butt;stroke-linejoin:round;stroke-miterlimit:4;stroke-dasharray:none;stroke-opacity:1"
       id="path1489"
       d="m 44.107438,252.55078 c 0,-0.16254 0,-0.32509 0,-0.48764 1.3e-5,-0.27668 0.0013,-0.55336 -0.0038,-0.83 -0.01064,-0.3875 -0.02723,-0.77479 -0.04613,-1.16195 -0.02817,-0.51381 -0.0616,-1.02732 -0.09612,-1.54074 -0.03802,-0.58595 -0.08142,-1.17153 -0.121597,-1.75733 -0.04498,-0.6541 -0.08987,-1.30819 -0.130992,-1.96254 -0.04514,-0.72606 -0.08191,-1.45261 -0.116475,-2.17924 -0.03215,-0.7067 -0.06714,-1.41327 -0.108927,-2.11948 -0.04386,-0.71517 -0.08712,-1.43037 -0.126391,-2.14582 -0.04219,-0.78043 -0.07565,-1.56129 -0.107939,-2.34219 -0.03193,-0.77528 -0.05971,-1.55071 -0.08543,-2.32621 -0.03229,-0.86934 -0.04674,-1.73908 -0.05232,-2.60894 -0.0046,-0.94962 7.94e-4,-1.89925 0.0051,-2.84886 0.004,-0.85405 0.0094,-1.70809 0.0081,-2.56215 -0.003,-0.82251 -0.02196,-1.64483 -0.04555,-2.46698 -0.02511,-0.80343 -0.062,-1.60642 -0.106633,-2.40899 -0.04305,-0.74246 -0.08956,-1.48472 -0.134048,-2.2271 -0.03836,-0.65783 -0.07845,-1.31555 -0.120394,-1.97316 -0.03637,-0.56728 -0.07243,-1.13457 -0.10841,-1.70188 -0.02897,-0.45698 -0.05792,-0.91396 -0.08687,-1.37094 -0.02307,-0.3643 -0.04616,-0.7286 -0.06924,-1.09289 -0.01839,-0.29036 -0.03679,-0.58071 -0.05519,-0.87106 -0.01466,-0.23142 -0.02932,-0.46284 -0.04398,-0.69426 -0.01169,-0.18445 -0.02336,-0.36889 -0.03505,-0.55334 -0.006,-0.0943 -0.0118,-0.18859 -0.01826,-0.28286 -0.330245,-4.85308 6.533049,-5.32012 6.863294,-0.46704 v 0 c 0.0071,0.10497 0.01381,0.20996 0.02037,0.31496 0.0117,0.18445 0.02336,0.36889 0.03505,0.55334 0.01466,0.23142 0.02932,0.46284 0.04398,0.69425 0.01839,0.29036 0.03679,0.58071 0.05518,0.87107 0.02307,0.36429 0.04616,0.72858 0.06924,1.09287 0.02894,0.45684 0.05788,0.91367 0.08684,1.3705 0.03592,0.56649 0.07193,1.13296 0.108254,1.69942 0.0425,0.66641 0.08315,1.33294 0.122026,1.99957 0.04509,0.75254 0.09229,1.50496 0.135811,2.2576 0.0478,0.86393 0.08769,1.7283 0.114371,2.59316 0.02524,0.88432 0.04545,1.76883 0.04836,2.65355 0.0013,0.86784 -0.004,1.73565 -0.0082,2.60348 -0.0042,0.92484 -0.0095,1.8497 -0.0052,2.77455 0.0049,0.80826 0.01852,1.6164 0.04867,2.42416 0.02508,0.75679 0.05219,1.5135 0.08333,2.27006 0.03099,0.74997 0.06303,1.4999 0.103478,2.24943 0.03871,0.70595 0.08157,1.41167 0.124772,2.11736 0.04314,0.73243 0.07991,1.46519 0.113115,2.19814 0.03287,0.69175 0.0678,1.38343 0.110707,2.07465 0.04026,0.64126 0.08438,1.28226 0.128413,1.92327 0.04036,0.58894 0.08405,1.17766 0.122235,1.76675 0.03731,0.55573 0.07353,1.11155 0.103468,1.66774 0.02222,0.45833 0.0419,0.91681 0.05319,1.37556 0.0053,0.31682 0.0056,0.63365 0.0048,0.95051 0,0.16255 0,0.3251 0,0.48764 0,4.86431 -6.879167,4.86431 -6.879167,0 z"
       inkscape:connector-curvature="0" />
  </g>
</svg>
