<svg viewBox="0 0 100 100"><path style="opacity:1;fill:#020900;fill-opacity:1;stroke:none;stroke-width:1;stroke-linecap:butt;stroke-linejoin:round;stroke-miterlimit:4;stroke-dasharray:none;stroke-opacity:1" d="m16.386 262.672.141.012a22 22 0 0 0 .984.05q.22.007.443.011.207.006.415.003c.135 0 .27-.01.404-.019.155-.009.31-.029.463-.048.254-.033.508-.06.762-.092l.78-.098q.38-.054.76-.114c.324-.05.649-.09.974-.13l.957-.123q.596-.08 1.193-.145.7-.074 1.402-.125a25 25 0 0 1 1.583-.058c.503-.005 1.006.006 1.509.019.492.009.984.034 1.475.063q.71.044 1.42.094.734.055 1.466.12l1.427.136q.694.063 1.387.131a237 237 0 0 0 2.385.228l.907.083q.417.035.831.082c.207.024.41.066.613.11 4.75 1.046 3.27 7.764-1.48 6.717.008 0 .026.002.036.001-.206-.027-.413-.038-.62-.06l-.911-.082a278 278 0 0 1-2.433-.233q-.68-.067-1.36-.128l-1.39-.132a91 91 0 0 0-2.687-.2 29 29 0 0 0-1.242-.053 36 36 0 0 0-1.264-.018c-.384.003-.769.013-1.152.041a35 35 0 0 0-2.207.23l-.996.128c-.261.033-.523.064-.783.104-.301.046-.602.094-.903.135l-.839.105-.73.088c-.29.036-.578.07-.869.087a14 14 0 0 1-1.436.031l-.507-.013-.461-.017-.418-.022q-.22-.013-.443-.03a10 10 0 0 1-.476-.047c-4.823-.63-3.934-7.451.89-6.822m44.148-.321c-.023-.021-.23-.116-.063-.041.063.027.069.028.007.003.01.003.064.016.092.02q.158.028.317.047a14 14 0 0 0 1.35.095c.317.002.634-.01.95-.023a30 30 0 0 0 1.186-.08c.486-.041.972-.087 1.459-.13q.77-.064 1.538-.132.728-.067 1.455-.148c.473-.051.944-.115 1.415-.18q.778-.106 1.557-.205c.554-.07 1.109-.13 1.664-.19a79 79 0 0 1 1.797-.182 27 27 0 0 1 2.09-.112c.648-.009 1.296 0 1.943.014q.84.024 1.682.055l1.444.052a244 244 0 0 0 2.425.077l.972.028.79.022.632.017.503.014.075.002-.057-.002q-.204.012-.407.026c4.819-.663 5.756 6.152.937 6.815-.248.019-.49.05-.739.035l-.503-.014-.631-.017-.792-.022-2.153-.063q-.65-.02-1.301-.044l-1.433-.051q-.8-.03-1.599-.053a48 48 0 0 0-1.661-.013c-.534.009-1.067.031-1.598.085q-.831.074-1.659.167c-.516.057-1.033.112-1.55.177q-.747.096-1.496.198c-.533.072-1.066.145-1.6.202q-.795.088-1.591.162-.776.069-1.552.133l-1.49.133c-.488.04-.976.077-1.466.097-.452.019-.905.034-1.358.028a20 20 0 0 1-2.131-.154 11 11 0 0 1-.886-.146 6.8 6.8 0 0 1-1.44-.466 6 6 0 0 1-.594-.297c-4.2-2.454-.73-8.393 3.47-5.94zm-16.427-9.801v-.487c0-.277.002-.553-.003-.83q-.018-.581-.046-1.162-.044-.77-.097-1.54c-.038-.587-.081-1.172-.121-1.758q-.069-.981-.131-1.962-.066-1.09-.117-2.18-.047-1.06-.109-2.12-.066-1.072-.126-2.145-.062-1.17-.108-2.342-.048-1.162-.085-2.326c-.033-.87-.047-1.74-.053-2.61-.004-.949.001-1.899.005-2.848.004-.854.01-1.708.009-2.562a99 99 0 0 0-.153-4.876q-.066-1.114-.134-2.227-.057-.987-.12-1.974l-.195-3.072-.07-1.093-.055-.871-.044-.695-.035-.553-.018-.283c-.33-4.853 6.533-5.32 6.863-.467l.02.315.036.553.044.695.055.87.069 1.094.195 3.07q.064 1 .122 2 .069 1.128.136 2.257.074 1.296.114 2.593c.026.884.046 1.769.049 2.653q0 1.302-.009 2.604c-.004.925-.009 1.85-.005 2.775q.006 1.212.049 2.424.037 1.134.083 2.27a179 179 0 0 0 .229 4.367q.064 1.098.113 2.198.047 1.037.11 2.074.061.963.129 1.924c.04.589.084 1.177.122 1.766q.057.834.103 1.668.035.687.054 1.376.007.474.004.95v.488c0 4.864-6.879 4.864-6.879 0z" transform="translate(0 -197)"/></svg>