<svg viewBox="0 0 100 100"><path style="opacity:1;fill:#020900;fill-opacity:1;stroke:none;stroke-width:1;stroke-linecap:butt;stroke-linejoin:round;stroke-miterlimit:4;stroke-dasharray:none;stroke-opacity:1" d="m34.59 207.8.007.42q.006.27.002.54-.006.275-.015.55a79 79 0 0 0-.03 1.584 247 247 0 0 0-.02 2.26l-.003.568-.002.645-.002.717-.001.693-.001.783v.93q-.002.48.002.958l.006 1.008q.005.604-.02 1.21l-.046 1.068a100 100 0 0 0-.065 2.153c-.005.397 0 .794.003 1.19q.005.587.017 1.175a290 290 0 0 1 .036 2.62 700 700 0 0 1 .031 4.078q.003.648.012 1.296l.017 1.365q.006.69.018 1.38l.03 1.332a348 348 0 0 1 .063 3.743c.003.381.008.762.028 1.143q.044.667.098 1.336c.04.51.087 1.02.13 1.53q.065.756.122 1.512.056.745.1 1.492l.079 1.4q.039.675.076 1.352a132 132 0 0 0 .213 2.875q.069.813.143 1.626.072.8.158 1.597.087.804.167 1.608c.054.531.101 1.063.154 1.595.047.497.116.991.198 1.484.092.534.2 1.066.309 1.597q.175.83.345 1.66.171.856.347 1.711.161.81.356 1.61.188.756.403 1.505.21.735.467 1.455c.188.504.407.995.632 1.483q.37.804.778 1.588c.202.395.448.764.703 1.126.24.342.51.66.793.967.263.285.549.546.849.79.324.262.673.49 1.022.714.36.231.739.431 1.122.62.371.181.756.33 1.148.456.43.138.871.225 1.316.293.534.078 1.074.09 1.613.091q.836.001 1.664-.103a9.6 9.6 0 0 0 1.42-.319 15 15 0 0 0 1.515-.568 27 27 0 0 0 1.499-.693c.395-.199.769-.435 1.134-.683a17 17 0 0 0 1.96-1.644 7 7 0 0 0 1.18-1.509c.177-.3.336-.612.486-.927q.2-.418.337-.86c.082-.279.135-.564.18-.85.037-.227.039-.456.035-.684-.01-.26-.04-.52-.08-.777a3 3 0 0 0-.153-.57 4 4 0 0 0-.265-.563 7 7 0 0 0-.431-.668 19 19 0 0 0-.68-.888 5.4 5.4 0 0 0-.588-.62 6 6 0 0 0-.666-.5 7 7 0 0 0-.878-.49 11 11 0 0 0-1.102-.44 12 12 0 0 0-1.237-.35 4.8 4.8 0 0 0-.992-.12 10 10 0 0 0-1.192.058q-.624.065-1.237.197c-.37.077-.728.197-1.083.325-.4.147-.79.323-1.174.51q-.582.29-1.136.628c-.35.216-.685.456-1.019.696-.285.204-.557.426-.822.656a8 8 0 0 0-.609.604c-.202.226-.39.463-.578.7q-.295.37-.583.744-.167.209-.305.436-.135.23-.253.468a3 3 0 0 0-.14.345q-.089.267-.172.536l-.167.534q-.06.198-.118.397-.05.206-.105.411-.064.23-.126.463a9 9 0 0 0-.08.319 4 4 0 0 0-.044.237 7 7 0 0 0-.068.624c-.285 4.856-7.152 4.453-6.867-.403a15 15 0 0 1 .146-1.33 11 11 0 0 1 .269-1.228q.062-.236.127-.47c.047-.17.084-.343.133-.512a38 38 0 0 1 .339-1.11c.086-.274.172-.547.268-.817.137-.375.287-.745.467-1.101.173-.341.354-.678.554-1.003.218-.347.448-.685.702-1.007q.314-.407.636-.81c.293-.37.59-.738.908-1.086.37-.4.753-.786 1.165-1.142.42-.363.85-.714 1.303-1.037.483-.347.969-.69 1.477-1a22 22 0 0 1 1.694-.93 19 19 0 0 1 1.87-.802 15 15 0 0 1 2.002-.583 19 19 0 0 1 1.975-.307c.709-.066 1.42-.109 2.133-.083.768.036 1.533.116 2.282.298.653.155 1.302.33 1.935.554.63.222 1.256.463 1.857.758.585.289 1.159.6 1.7.966.522.355 1.032.73 1.496 1.16.446.418.873.855 1.254 1.334.326.405.645.817.947 1.241.31.442.609.894.867 1.37.278.522.533 1.056.724 1.617.193.578.357 1.167.444 1.773.084.571.147 1.147.154 1.725.004.62-.02 1.24-.123 1.852a13 13 0 0 1-.427 1.87 14 14 0 0 1-.677 1.711c-.25.52-.515 1.032-.812 1.526a14 14 0 0 1-1.06 1.538c-.384.475-.787.935-1.23 1.356a24 24 0 0 1-2.88 2.387c-.612.41-1.238.8-1.898 1.13a35 35 0 0 1-1.91.882c-.748.314-1.504.611-2.282.84-.818.233-1.646.43-2.491.536-.841.1-1.686.16-2.534.154-.888-.006-1.778-.038-2.656-.176-.809-.131-1.612-.297-2.39-.554a16 16 0 0 1-2.04-.821 18 18 0 0 1-1.795-1 18 18 0 0 1-1.69-1.201 15.5 15.5 0 0 1-1.542-1.451 17 17 0 0 1-1.349-1.66 17 17 0 0 1-1.174-1.906 45 45 0 0 1-.927-1.89 28 28 0 0 1-.853-2.029 31 31 0 0 1-.607-1.889 51 51 0 0 1-.472-1.767 47 47 0 0 1-.41-1.851l-.35-1.726a183 183 0 0 0-.34-1.638 53 53 0 0 1-.359-1.864 29 29 0 0 1-.256-1.925c-.053-.529-.1-1.058-.154-1.586q-.078-.785-.162-1.568a94 94 0 0 1-.17-1.704q-.074-.826-.145-1.653a87 87 0 0 1-.128-1.61q-.054-.738-.1-1.474-.036-.67-.075-1.34-.04-.693-.078-1.387-.04-.69-.092-1.381-.055-.725-.117-1.448-.07-.79-.134-1.582c-.04-.505-.08-1.01-.11-1.517q-.034-.706-.037-1.414a334 334 0 0 0-.061-3.674q-.016-.675-.03-1.351-.013-.716-.02-1.432-.007-.68-.017-1.361-.008-.672-.012-1.344a1051 1051 0 0 0-.03-4.04 538 538 0 0 0-.036-2.571c-.007-.415-.016-.83-.018-1.246a60 60 0 0 1-.002-1.346q.01-.625.03-1.252.018-.544.04-1.09l.045-1.039q.019-.455.015-.912l-.006-1.002q-.004-.503-.003-1.005v-.932l.002-.787.001-.696.002-.721.005-1.232.003-.576.016-1.74.02-1.141.014-.549.013-.439q.002-.176-.003-.352l-.005-.325c-.137-4.862 6.74-5.056 6.876-.194z" transform="translate(0 -197)"/></svg>