<?xml version="1.0" encoding="UTF-8" standalone="no"?>
<!-- Created with Inkscape (http://www.inkscape.org/) -->

<svg
   xmlns:dc="http://purl.org/dc/elements/1.1/"
   xmlns:cc="http://creativecommons.org/ns#"
   xmlns:rdf="http://www.w3.org/1999/02/22-rdf-syntax-ns#"
   xmlns:svg="http://www.w3.org/2000/svg"
   xmlns="http://www.w3.org/2000/svg"
   xmlns:sodipodi="http://sodipodi.sourceforge.net/DTD/sodipodi-0.dtd"
   xmlns:inkscape="http://www.inkscape.org/namespaces/inkscape"
   width="10cm"
   height="10cm"
   viewBox="0 0 100 99.999997"
   version="1.1"
   id="svg8"
   sodipodi:docname="sina.svg"
   inkscape:version="0.92.3 (2405546, 2018-03-11)">
  <defs
     id="defs2" />
  <sodipodi:namedview
     id="base"
     pagecolor="#ffffff"
     bordercolor="#666666"
     borderopacity="1.0"
     inkscape:pageopacity="0.0"
     inkscape:pageshadow="2"
     inkscape:zoom="1"
     inkscape:cx="175.50186"
     inkscape:cy="160.37856"
     inkscape:document-units="cm"
     inkscape:current-layer="layer1"
     showgrid="true"
     units="cm"
     inkscape:window-width="882"
     inkscape:window-height="707"
     inkscape:window-x="784"
     inkscape:window-y="204"
     inkscape:window-maximized="1"
     inkscape:snap-nodes="false">
    <inkscape:grid
       type="xygrid"
       id="grid815"
       units="cm"
       spacingx="9.9999998"
       spacingy="9.9999998" />
  </sodipodi:namedview>
  <metadata
     id="metadata5">
    <rdf:RDF>
      <cc:Work
         rdf:about="">
        <dc:format>image/svg+xml</dc:format>
        <dc:type
           rdf:resource="http://purl.org/dc/dcmitype/StillImage" />
        <dc:title></dc:title>
      </cc:Work>
    </rdf:RDF>
  </metadata>
  <g
     inkscape:label="Layer 1"
     inkscape:groupmode="layer"
     id="layer1"
     transform="translate(0,-197.00002)">
    <path
       style="opacity:1;fill:#020900;fill-opacity:1;stroke:none;stroke-width:1;stroke-linecap:butt;stroke-linejoin:round;stroke-miterlimit:4;stroke-dasharray:none;stroke-opacity:1"
       id="path28"
       d="m 34.589357,207.80039 c 0.0038,0.14 0.0057,0.28004 0.0077,0.42007 0.0033,0.17968 0.0045,0.35934 0.0024,0.53904 -0.0038,0.18365 -0.01013,0.36723 -0.01548,0.55084 -0.0048,0.16692 -0.0088,0.33386 -0.01254,0.50081 -0.0039,0.17998 -0.0071,0.35997 -0.01016,0.53996 -0.0031,0.18092 -0.0057,0.36185 -0.0082,0.54278 -0.0024,0.18162 -0.0046,0.36324 -0.0066,0.54487 -0.0021,0.19064 -0.0037,0.38128 -0.0052,0.57193 -0.0016,0.19176 -0.0029,0.38353 -0.0042,0.5753 -0.0013,0.18937 -0.0024,0.37873 -0.0034,0.5681 -0.0011,0.18917 -0.0019,0.37834 -0.0027,0.56751 -7.93e-4,0.21515 -0.0016,0.4303 -0.0021,0.64545 -5.29e-4,0.23887 -0.0013,0.47774 -0.0016,0.71661 -5.29e-4,0.23109 -0.0011,0.46218 -0.0013,0.69328 -5.29e-4,0.2611 -7.93e-4,0.52222 -0.0011,0.78333 -2.65e-4,0.30978 -5.29e-4,0.61956 -7.94e-4,0.92934 -0.0011,0.31954 0.0011,0.63908 0.0029,0.95861 0.0021,0.33599 0.0039,0.67197 0.0056,1.00796 0.0047,0.40311 -0.004,0.80614 -0.01897,1.20894 -0.01527,0.3563 -0.03159,0.71255 -0.04669,1.06886 -0.0145,0.34027 -0.02643,0.68064 -0.03744,1.02103 -0.01196,0.37739 -0.0218,0.75484 -0.02734,1.13238 -0.0047,0.39658 -5.29e-4,0.79321 0.0026,1.18979 0.0021,0.3915 0.01021,0.78293 0.0173,1.17437 0.0078,0.4287 0.0141,0.85742 0.02,1.28615 0.006,0.44478 0.01117,0.88957 0.01601,1.33437 0.0048,0.45038 0.0088,0.90076 0.01273,1.35115 0.0039,0.44739 0.0071,0.89478 0.01016,1.34217 0.003,0.46169 0.0056,0.92339 0.0081,1.38508 0.0024,0.43195 0.0062,0.86389 0.01159,1.29581 0.0062,0.45495 0.01204,0.9099 0.01741,1.36486 0.0053,0.45998 0.0089,0.91998 0.01789,1.37991 0.0098,0.44401 0.02043,0.888 0.03023,1.33201 0.0096,0.4349 0.01791,0.86983 0.02588,1.30476 0.0074,0.40868 0.01418,0.81736 0.02058,1.22606 0.0063,0.40408 0.01156,0.80819 0.01646,1.2123 0.0026,0.38101 0.0076,0.76193 0.02819,1.14244 0.02756,0.44563 0.06271,0.89078 0.09749,1.3359 0.04107,0.51031 0.08691,1.02023 0.130611,1.53032 0.04305,0.50394 0.08342,1.00812 0.121838,1.51244 0.03784,0.49681 0.06925,0.99409 0.09913,1.49144 0.02717,0.46654 0.05237,0.93319 0.07957,1.39973 0.02706,0.45087 0.05031,0.90195 0.07572,1.35291 0.02796,0.45607 0.06067,0.91184 0.09338,1.36759 0.03423,0.50278 0.07585,1.005 0.119555,1.50703 0.04645,0.54215 0.0939,1.0842 0.143166,1.6261 0.04697,0.53286 0.101891,1.06496 0.158663,1.59685 0.05774,0.53586 0.112387,1.07204 0.166414,1.60829 0.05413,0.53119 0.101167,1.06306 0.154112,1.59435 0.04756,0.49723 0.116184,0.99187 0.198266,1.48446 0.09134,0.53434 0.19908,1.06565 0.308615,1.5965 0.117502,0.55306 0.232614,1.1066 0.344948,1.66073 0.114366,0.57067 0.230852,1.1409 0.347745,1.71105 0.107997,0.5388 0.22557,1.07553 0.355523,1.60945 0.12474,0.50436 0.260032,1.00601 0.402619,1.50559 0.141234,0.48944 0.294944,0.9751 0.467857,1.45426 0.187577,0.50403 0.406937,0.99525 0.631055,1.48383 0.247216,0.53508 0.506937,1.06422 0.778714,1.58723 0.202218,0.39485 0.447455,0.76419 0.702538,1.12622 0.239974,0.34201 0.510137,0.66024 0.792871,0.9672 0.263081,0.28461 0.549169,0.54595 0.849265,0.79073 0.323623,0.26153 0.672624,0.48872 1.022517,0.71293 0.359836,0.23161 0.738129,0.43157 1.122016,0.61975 0.370535,0.18182 0.755515,0.32968 1.147963,0.45618 0.428681,0.13839 0.870625,0.22497 1.315096,0.29305 0.534249,0.0787 1.074544,0.0895 1.613498,0.0913 0.556614,5.3e-4 1.112223,-0.0328 1.6642,-0.10337 0.482158,-0.0648 0.954479,-0.18174 1.420651,-0.31836 0.516511,-0.15679 1.017582,-0.3584 1.514229,-0.56857 0.505573,-0.21776 1.007361,-0.4445 1.498872,-0.69248 0.394809,-0.19926 0.76876,-0.43514 1.134192,-0.68327 0.36254,-0.25333 0.705348,-0.53305 1.045597,-0.81515 0.3161,-0.26353 0.61809,-0.54316 0.91436,-0.8286 0.232875,-0.22072 0.442201,-0.46374 0.641998,-0.71425 0.199702,-0.25059 0.372409,-0.52044 0.53757,-0.7945 0.177342,-0.30113 0.33655,-0.61231 0.48678,-0.92768 0.134059,-0.27802 0.24434,-0.56605 0.336937,-0.86023 0.08185,-0.27833 0.134683,-0.56393 0.179644,-0.85018 0.03672,-0.22614 0.03875,-0.4554 0.03447,-0.6838 -0.0087,-0.26038 -0.03967,-0.51914 -0.07949,-0.77636 -0.02874,-0.19576 -0.08733,-0.38438 -0.153466,-0.57016 -0.07056,-0.19546 -0.163322,-0.38143 -0.264219,-0.5627 -0.129058,-0.23222 -0.277637,-0.45247 -0.431723,-0.66859 -0.217419,-0.30301 -0.445283,-0.59833 -0.680119,-0.88799 -0.177697,-0.22365 -0.377053,-0.42779 -0.587807,-0.62005 -0.2081,-0.18409 -0.434482,-0.34521 -0.665305,-0.49916 -0.279884,-0.18596 -0.576805,-0.34346 -0.878861,-0.48976 -0.357084,-0.17183 -0.728141,-0.31108 -1.102011,-0.44121 -0.404968,-0.14156 -0.819393,-0.25234 -1.236877,-0.34971 -0.325347,-0.0793 -0.657502,-0.10992 -0.991224,-0.11983 -0.398582,-0.009 -0.796316,0.0189 -1.19266,0.0578 -0.415692,0.0421 -0.827759,0.11083 -1.23645,0.19671 -0.369846,0.0775 -0.727943,0.19774 -1.08289,0.32534 -0.401156,0.14716 -0.790736,0.32262 -1.174377,0.51016 -0.388479,0.19159 -0.766725,0.40291 -1.136504,0.62828 -0.350139,0.21585 -0.684572,0.45569 -1.018072,0.69605 -0.2858,0.20383 -0.557699,0.42578 -0.822367,0.65609 -0.214871,0.18876 -0.416126,0.39207 -0.608714,0.60331 -0.201967,0.22584 -0.39025,0.46338 -0.578514,0.70062 -0.196678,0.24617 -0.390102,0.49491 -0.58297,0.74407 -0.109788,0.13954 -0.213415,0.28362 -0.305144,0.43566 -0.08957,0.15316 -0.173476,0.30954 -0.252923,0.46816 -0.05398,0.11197 -0.09815,0.22808 -0.139551,0.34516 -0.06004,0.17761 -0.116116,0.35653 -0.17248,0.53534 -0.05605,0.17789 -0.111903,0.35583 -0.166798,0.53408 -0.03913,0.1324 -0.08067,0.26413 -0.117938,0.39707 -0.03373,0.13736 -0.06839,0.27446 -0.105008,0.4111 -0.04331,0.15381 -0.08451,0.3082 -0.12587,0.46254 -0.02792,0.10601 -0.05572,0.21209 -0.07985,0.31904 -0.01773,0.0787 -0.03149,0.15812 -0.04412,0.23773 -0.01733,0.11135 -0.03073,0.22323 -0.04252,0.33527 -0.0098,0.0877 -0.02167,0.23597 -0.02545,0.28838 -0.285091,4.85595 -7.152431,4.45277 -6.86734,-0.40318 v 0 c 0.01373,-0.20682 0.03057,-0.41337 0.05292,-0.61946 0.02577,-0.23778 0.05515,-0.4752 0.09342,-0.71133 0.03737,-0.22609 0.07849,-0.4516 0.130246,-0.6749 0.04301,-0.18485 0.08875,-0.36903 0.138023,-0.55232 0.04202,-0.15678 0.08368,-0.31365 0.12783,-0.46984 0.04621,-0.17015 0.08383,-0.34251 0.132962,-0.5119 0.05127,-0.17838 0.104632,-0.35615 0.158506,-0.53376 0.05934,-0.19253 0.119573,-0.38478 0.180152,-0.57692 0.08615,-0.27325 0.171998,-0.54667 0.267907,-0.81669 0.137371,-0.3745 0.286758,-0.74475 0.46677,-1.10112 0.173132,-0.34057 0.354121,-0.67734 0.554215,-1.00298 0.218066,-0.34639 0.448611,-0.68464 0.702347,-1.00613 0.210253,-0.27158 0.421161,-0.54266 0.635478,-0.81105 0.293468,-0.36936 0.589566,-0.73706 0.907945,-1.08547 0.369887,-0.39907 0.753279,-0.78578 1.164883,-1.14226 0.420542,-0.36274 0.851363,-0.71361 1.303637,-1.03641 0.482481,-0.34729 0.968729,-0.6902 1.476856,-0.99938 0.552207,-0.33273 1.114399,-0.64893 1.694164,-0.93152 0.610942,-0.29522 1.230988,-0.57201 1.869922,-0.80181 0.655592,-0.2322 1.319458,-0.4426 2.001755,-0.5824 0.653349,-0.13327 1.311286,-0.24374 1.975427,-0.30767 0.708692,-0.066 1.420143,-0.10849 2.132245,-0.0825 0.768091,0.0362 1.533671,0.11557 2.282542,0.29776 0.653095,0.15532 1.301525,0.33089 1.935144,0.55406 0.630674,0.22259 1.255385,0.46345 1.856674,0.75773 0.584645,0.28932 1.15906,0.60023 1.700019,0.96617 0.522185,0.35565 1.031703,0.73098 1.496444,1.1604 0.445468,0.41776 0.872299,0.85522 1.25321,1.33357 0.326715,0.40534 0.645451,0.81718 0.947337,1.24146 0.311018,0.44228 0.60882,0.89424 0.866709,1.37003 0.278474,0.52139 0.533371,1.05576 0.72394,1.61636 0.193707,0.57876 0.357629,1.16766 0.444865,1.77298 0.08336,0.57178 0.146259,1.14701 0.154009,1.72543 0.0033,0.61941 -0.02114,1.23955 -0.123553,1.8517 -0.104605,0.63162 -0.231589,1.26042 -0.42708,1.87107 -0.192005,0.58297 -0.408746,1.15754 -0.677224,1.71021 -0.250198,0.51914 -0.51407,1.03194 -0.811271,1.52605 -0.324956,0.53166 -0.668211,1.05256 -1.059992,1.53802 -0.384765,0.47455 -0.787085,0.93509 -1.230527,1.3563 -0.419243,0.40217 -0.846553,0.79611 -1.293807,1.16718 -0.513993,0.42514 -1.034942,0.84283 -1.585963,1.21958 -0.611529,0.4108 -1.238168,0.79954 -1.897623,1.12965 -0.627727,0.31348 -1.264939,0.6073 -1.910554,0.8822 -0.747596,0.31415 -1.503421,0.6111 -2.282206,0.83991 -0.817586,0.23305 -1.64578,0.43097 -2.490679,0.53633 -0.84111,0.10002 -1.68634,0.15929 -2.533954,0.15398 -0.8881,-0.006 -1.777495,-0.0386 -2.656454,-0.17633 -0.80822,-0.13091 -1.611315,-0.29646 -2.390029,-0.55381 -0.696044,-0.23209 -1.381688,-0.49461 -2.039649,-0.8212 -0.613836,-0.30445 -1.218401,-0.6281 -1.794457,-1.00017 -0.581292,-0.37411 -1.155753,-0.76061 -1.689899,-1.20067 -0.542919,-0.45239 -1.065987,-0.92843 -1.542775,-1.45108 -0.480041,-0.52798 -0.939559,-1.07452 -1.348359,-1.66029 -0.427402,-0.61247 -0.833461,-1.24023 -1.174765,-1.90561 -0.322697,-0.6231 -0.632966,-1.25255 -0.926447,-1.88999 -0.305186,-0.6672 -0.60131,-1.33912 -0.852942,-2.02871 -0.222102,-0.62319 -0.425839,-1.25259 -0.607428,-1.88885 -0.166921,-0.58668 -0.326075,-1.17555 -0.471792,-1.76788 -0.148749,-0.61411 -0.285454,-1.23095 -0.40948,-1.85055 -0.117914,-0.57513 -0.235423,-1.15035 -0.350792,-1.726 -0.110765,-0.54645 -0.224489,-1.09229 -0.340244,-1.63771 -0.127823,-0.61989 -0.252785,-1.24048 -0.358399,-1.86462 -0.104955,-0.63895 -0.194855,-1.28024 -0.256514,-1.92497 -0.0525,-0.52847 -0.09971,-1.05744 -0.153254,-1.5858 -0.05268,-0.52281 -0.105926,-1.04557 -0.162237,-1.56801 -0.06055,-0.56757 -0.119023,-1.13538 -0.169249,-1.70397 -0.05007,-0.55073 -0.09832,-1.10162 -0.145521,-1.6526 -0.04668,-0.53674 -0.09112,-1.07369 -0.127823,-1.61122 -0.03517,-0.49082 -0.07047,-0.98165 -0.100116,-1.47283 -0.02514,-0.44649 -0.04819,-0.8931 -0.07495,-1.3395 -0.02695,-0.46252 -0.05203,-0.92514 -0.07886,-1.38767 -0.02765,-0.46065 -0.05662,-0.92123 -0.09163,-1.38139 -0.03675,-0.48273 -0.07541,-0.96532 -0.116599,-1.44769 -0.04515,-0.52718 -0.09258,-1.05417 -0.134811,-1.5816 -0.03949,-0.50556 -0.07943,-1.01117 -0.109262,-1.5174 -0.02357,-0.4709 -0.03505,-0.94211 -0.03682,-1.41361 -0.0048,-0.39595 -0.0099,-0.7919 -0.01611,-1.18783 -0.0063,-0.40264 -0.01299,-0.80527 -0.02027,-1.20789 -0.0078,-0.42627 -0.01598,-0.85254 -0.02535,-1.27878 -0.0099,-0.45043 -0.02077,-0.90085 -0.03063,-1.35128 -0.0091,-0.47705 -0.01347,-0.95415 -0.01868,-1.43125 -0.0053,-0.45385 -0.01119,-0.90769 -0.01736,-1.36153 -0.0055,-0.4478 -0.0097,-0.89562 -0.01199,-1.34344 -0.0024,-0.45852 -0.005,-0.91705 -0.008,-1.37557 -0.003,-0.44302 -0.0062,-0.88605 -0.01005,-1.32907 -0.0038,-0.44533 -0.0079,-0.89065 -0.01259,-1.33596 -0.0048,-0.43819 -0.0099,-0.87637 -0.01577,-1.31454 -0.0058,-0.41883 -0.01191,-0.83766 -0.01953,-1.25646 -0.0075,-0.41512 -0.01606,-0.83023 -0.0182,-1.24542 -0.0035,-0.44864 -0.0079,-0.89733 -0.0021,-1.34597 0.0064,-0.41741 0.0168,-0.83474 0.03018,-1.25199 0.01177,-0.3633 0.02453,-0.72658 0.04001,-1.08974 0.01468,-0.34647 0.03041,-0.69289 0.0455,-1.03933 0.01198,-0.30382 0.01786,-0.60785 0.01408,-0.91191 -0.0016,-0.33408 -0.0036,-0.66815 -0.0056,-1.00222 -0.0021,-0.33506 -0.0042,-0.67011 -0.003,-1.00518 2.54e-4,-0.31057 5.29e-4,-0.62114 7.93e-4,-0.93171 2.65e-4,-0.26249 5.3e-4,-0.52497 0.0011,-0.78746 5.29e-4,-0.23203 7.94e-4,-0.46405 0.0013,-0.69608 5.29e-4,-0.24041 0.0011,-0.48082 0.0016,-0.72122 5.29e-4,-0.218 0.0013,-0.43599 0.0021,-0.65399 7.94e-4,-0.19255 0.0016,-0.3851 0.0027,-0.57765 0.0011,-0.19183 0.0021,-0.38365 0.0034,-0.57547 0.0013,-0.19553 0.0027,-0.39107 0.0043,-0.5866 0.0016,-0.19664 0.0033,-0.39328 0.0054,-0.58992 0.0021,-0.18821 0.0043,-0.37642 0.0068,-0.56463 0.0026,-0.18824 0.0054,-0.37648 0.0085,-0.56471 0.0033,-0.19199 0.0067,-0.38398 0.01088,-0.57595 0.004,-0.18281 0.0084,-0.36562 0.01376,-0.5484 0.0043,-0.14637 0.0089,-0.29272 0.01312,-0.43909 0.0019,-0.11742 -5.29e-4,-0.2348 -0.0024,-0.35222 -0.0016,-0.10837 -0.003,-0.21674 -0.0057,-0.32508 -0.136768,-4.86238 6.739678,-5.0558 6.876449,-0.19342 z"
       inkscape:connector-curvature="0" />
  </g>
</svg>
