<?xml version="1.0" encoding="UTF-8" standalone="no"?>
<!-- Created with Inkscape (http://www.inkscape.org/) -->

<svg
   xmlns:dc="http://purl.org/dc/elements/1.1/"
   xmlns:cc="http://creativecommons.org/ns#"
   xmlns:rdf="http://www.w3.org/1999/02/22-rdf-syntax-ns#"
   xmlns:svg="http://www.w3.org/2000/svg"
   xmlns="http://www.w3.org/2000/svg"
   xmlns:sodipodi="http://sodipodi.sourceforge.net/DTD/sodipodi-0.dtd"
   xmlns:inkscape="http://www.inkscape.org/namespaces/inkscape"
   width="10cm"
   height="10cm"
   viewBox="0 0 100 99.999997"
   version="1.1"
   id="svg8"
   sodipodi:docname="sinpin.svg"
   inkscape:version="0.92.3 (2405546, 2018-03-11)">
  <defs
     id="defs2" />
  <sodipodi:namedview
     id="base"
     pagecolor="#ffffff"
     bordercolor="#666666"
     borderopacity="1.0"
     inkscape:pageopacity="0.0"
     inkscape:pageshadow="2"
     inkscape:zoom="1"
     inkscape:cx="175.50186"
     inkscape:cy="186.50542"
     inkscape:document-units="cm"
     inkscape:current-layer="layer1"
     showgrid="true"
     units="cm"
     inkscape:window-width="881"
     inkscape:window-height="707"
     inkscape:window-x="971"
     inkscape:window-y="213"
     inkscape:window-maximized="0"
     inkscape:snap-nodes="false">
    <inkscape:grid
       type="xygrid"
       id="grid815"
       units="cm"
       spacingx="9.9999998"
       spacingy="9.9999998" />
  </sodipodi:namedview>
  <metadata
     id="metadata5">
    <rdf:RDF>
      <cc:Work
         rdf:about="">
        <dc:format>image/svg+xml</dc:format>
        <dc:type
           rdf:resource="http://purl.org/dc/dcmitype/StillImage" />
        <dc:title></dc:title>
      </cc:Work>
    </rdf:RDF>
  </metadata>
  <g
     inkscape:label="Layer 1"
     inkscape:groupmode="layer"
     id="layer1"
     transform="translate(0,-197.00002)">
    <path
       style="opacity:1;fill:#020900;fill-opacity:1;stroke:none;stroke-width:1;stroke-linecap:butt;stroke-linejoin:round;stroke-miterlimit:4;stroke-dasharray:none;stroke-opacity:1"
       id="path1493"
       d="m 17.738212,213.9636 c 0.194377,-0.01 0.388954,-0.0131 0.58354,-0.0144 0.256344,-2e-5 0.512691,5.8e-4 0.76903,0.002 0.334329,0.004 0.668646,0.009 1.002974,0.0132 0.397351,0.005 0.794716,0.008 1.192082,0.0118 0.426136,0.004 0.852275,0.007 1.278416,0.01 0.337116,0.003 0.673727,-0.0158 1.009869,-0.0391 0.393211,-0.0279 0.785659,-0.0653 1.178007,-0.10319 0.436709,-0.0409 0.872933,-0.0864 1.308744,-0.13597 0.474805,-0.055 0.949435,-0.1114 1.424206,-0.16664 0.476219,-0.0559 0.952553,-0.11086 1.429168,-0.16331 0.427006,-0.045 0.853432,-0.095 1.2793,-0.14965 0.389824,-0.0482 0.777563,-0.11069 1.16385,-0.18154 0.384355,-0.0716 0.765341,-0.15958 1.146204,-0.2475 0.39874,-0.093 0.797774,-0.18463 1.197025,-0.27537 0.324369,-0.0737 0.648864,-0.1468 0.973233,-0.22048 0.426069,-0.11214 0.861208,-0.16872 1.299834,-0.19853 0.955172,-0.056 1.81438,0.26811 2.604167,0.77687 0.669607,0.4811 1.117359,1.14308 1.452909,1.88325 0.247367,0.5919 0.344265,1.22366 0.393721,1.85854 0.03206,0.49156 0.02471,0.98431 0.0071,1.47621 -0.02069,0.45527 -0.04847,0.91019 -0.07348,1.36524 -0.02785,0.49348 -0.05483,0.98701 -0.07916,1.48068 -0.02633,0.54011 -0.04758,1.08045 -0.06713,1.62085 -0.02222,0.62625 -0.03849,1.25268 -0.05395,1.87912 -0.01688,0.69429 -0.03059,1.38866 -0.04351,2.08303 -0.01349,0.73039 -0.0245,1.46082 -0.03478,2.19126 -0.0104,0.81601 -0.02909,1.63188 -0.0486,2.44771 -0.02236,0.91483 -0.04187,1.82974 -0.05809,2.7447 -0.01643,0.94148 -0.01423,1.88312 -0.0083,2.82468 0.0071,0.97508 0.0177,1.95013 0.02691,2.9252 0.0093,0.99006 0.01738,1.98013 0.025,2.97021 0.0088,0.99878 0.01413,1.99757 0.01042,2.99638 -0.0061,1.00254 -0.02233,2.00499 -0.03637,3.00744 -0.01416,1.00167 -0.0263,2.00337 -0.03756,3.00508 -0.01252,1.00515 -0.0075,2.01034 0.01106,3.01536 0.02058,0.99758 0.06827,1.9943 0.117874,2.99078 0.05202,0.99938 0.10962,1.99846 0.164547,2.99769 0.05252,0.97146 0.113618,1.94241 0.173466,2.91344 0.05808,0.94762 0.117544,1.89516 0.178578,2.84259 0.05931,0.9117 0.122595,1.82313 0.182901,2.73476 0.05712,0.87852 0.110004,1.7573 0.166526,2.63585 0.05582,0.85248 0.110207,1.70505 0.171546,2.55715 0.05327,0.73936 0.116938,1.47792 0.185981,2.21597 0.05984,0.62215 0.130116,1.24324 0.198927,1.86444 0.05416,0.50288 0.122962,1.00401 0.192754,1.5049 0.06006,0.43428 0.124682,0.8679 0.188063,1.3017 0.05335,0.36504 0.106225,0.73016 0.159152,1.09527 0.0422,0.29111 0.08438,0.58222 0.126569,0.87333 0.08373,0.45078 0.104158,0.90411 0.09827,1.36177 -0.05663,1.09094 -0.555209,2.00919 -1.260343,2.81273 -0.508809,0.53904 -1.135565,0.92909 -1.786924,1.26994 -0.528074,0.27 -1.081344,0.48445 -1.638578,0.68527 -0.597733,0.21307 -1.207574,0.38906 -1.820002,0.55411 -0.612754,0.16124 -1.232157,0.2952 -1.849398,0.43776 -0.592159,0.13958 -1.183561,0.2823 -1.776087,0.42034 -0.59825,0.13802 -1.19249,0.29251 -1.78839,0.44017 -0.64873,0.16067 -1.301618,0.30357 -1.955618,0.44093 -0.636352,0.13296 -1.275842,0.25003 -1.915234,0.36724 -0.631719,0.11667 -1.264109,0.22959 -1.897396,0.33743 -0.603642,0.10221 -1.208719,0.19562 -1.814262,0.28578 -0.550213,0.0816 -1.101526,0.15538 -1.653039,0.22752 -0.482273,0.063 -0.965071,0.12196 -1.448026,0.17951 -0.398082,0.048 -0.796112,0.0963 -1.194214,0.14409 -0.326638,0.0392 -0.653332,0.0779 -0.98002,0.11667 -0.02218,-2.6e-4 -0.429773,0.0538 -0.259385,0.0327 -4.774023,0.93283 -6.093242,-5.81866 -1.319219,-6.75149 v 0 c 0.254835,-0.0459 0.510029,-0.0874 0.767902,-0.11244 0.323711,-0.0384 0.647429,-0.0768 0.971091,-0.11561 0.400053,-0.048 0.800032,-0.0966 1.200066,-0.14478 0.456871,-0.0544 0.913595,-0.11011 1.36982,-0.16974 0.511235,-0.0668 1.022299,-0.13513 1.532337,-0.21065 0.558345,-0.0831 1.116262,-0.1691 1.672862,-0.26323 0.604593,-0.10283 1.20826,-0.21091 1.811347,-0.32223 0.581628,-0.10658 1.163421,-0.21264 1.742347,-0.33325 0.573326,-0.12024 1.145736,-0.24508 1.714447,-0.38577 0.62715,-0.15532 1.252543,-0.31787 1.882241,-0.46272 0.596728,-0.13893 1.19221,-0.28307 1.788639,-0.42325 0.53794,-0.1242 1.07773,-0.24096 1.612458,-0.37859 0.431162,-0.11533 0.86084,-0.23735 1.282014,-0.38567 0.277384,-0.0988 0.554713,-0.19979 0.81933,-0.32982 0.214871,-0.0992 -0.07359,0.0841 -0.09717,0.1528 -0.356242,0.44937 -0.568528,0.98103 -0.58507,1.55906 0.01341,0.56374 0.03631,0.29907 -0.03485,-0.05 -0.04217,-0.291 -0.08434,-0.58201 -0.126524,-0.87302 -0.05256,-0.36257 -0.105066,-0.72514 -0.158044,-1.08765 -0.06559,-0.44893 -0.132416,-0.89769 -0.194545,-1.34712 -0.07864,-0.56469 -0.155522,-1.12973 -0.216723,-1.69663 -0.07313,-0.66022 -0.147653,-1.32032 -0.210889,-1.98157 -0.07351,-0.78691 -0.141372,-1.57436 -0.198112,-2.36267 -0.06249,-0.86943 -0.118237,-1.7393 -0.175085,-2.60911 -0.05623,-0.8744 -0.108948,-1.74902 -0.165711,-2.62339 -0.06056,-0.91558 -0.124161,-1.83095 -0.183677,-2.7466 -0.06144,-0.95377 -0.121311,-1.90765 -0.179774,-2.86161 -0.06078,-0.98623 -0.122782,-1.97239 -0.176127,-2.95906 -0.05558,-1.01114 -0.113903,-2.02213 -0.166418,-3.03344 -0.05313,-1.06847 -0.103648,-2.13724 -0.125225,-3.20691 -0.01945,-1.0727 -0.02521,-2.14558 -0.01177,-3.21842 0.01135,-1.00805 0.02355,-2.0161 0.03779,-3.02411 0.01373,-0.97905 0.02964,-1.95808 0.03575,-2.93721 0.0038,-0.97243 -0.0019,-1.94484 -0.01027,-2.91723 -0.0076,-0.98611 -0.01566,-1.97221 -0.0249,-2.95829 -0.0093,-0.98239 -0.02,-1.96476 -0.02709,-2.94716 -0.0062,-0.99656 -0.0082,-1.99321 0.0093,-2.98968 0.01651,-0.92911 0.03624,-1.85815 0.05897,-2.78712 0.01897,-0.79327 0.03724,-1.58657 0.04731,-2.38002 0.01042,-0.74083 0.02159,-1.48164 0.03529,-2.22242 0.01318,-0.70831 0.02719,-1.41661 0.04441,-2.12484 0.01611,-0.65284 0.03315,-1.30567 0.05636,-1.9583 0.02066,-0.57039 0.04314,-1.14072 0.07097,-1.71081 0.025,-0.50655 0.05255,-1.01296 0.08117,-1.51931 0.02278,-0.4143 0.04764,-0.8285 0.06785,-1.24294 0.0097,-0.24695 0.01638,-0.49426 0.0049,-0.74131 5.5e-5,-0.0607 0.09594,0.29429 0.125338,0.32349 0.20705,0.41951 0.491694,0.77859 0.881549,1.04537 0.526487,0.32285 1.103479,0.55083 1.733153,0.50413 0.31617,-0.033 0.05851,-0.0211 -0.104425,0.0355 -0.324115,0.0736 -0.648357,0.1467 -0.972474,0.22031 -0.391826,0.089 -0.783431,0.17905 -1.174758,0.27027 -0.484706,0.11183 -0.969915,0.22213 -1.459251,0.31212 -0.505484,0.0918 -1.012653,0.17389 -1.522568,0.2372 -0.466815,0.0598 -0.934181,0.11491 -1.402218,0.16429 -0.462375,0.0508 -0.924462,0.10424 -1.386451,0.15848 -0.480983,0.0559 -0.961819,0.11319 -1.442844,0.16878 -0.474045,0.0538 -0.948516,0.10344 -1.423521,0.14803 -0.456949,0.0441 -0.914058,0.0871 -1.372043,0.11917 -0.507298,0.0342 -1.015357,0.0595 -1.524008,0.0548 -0.430119,-0.003 -0.860237,-0.006 -1.29035,-0.01 -0.406312,-0.003 -0.812622,-0.007 -1.218919,-0.0121 -0.32141,-0.004 -0.64281,-0.009 -0.964217,-0.0129 -0.22941,-0.002 -0.458828,-0.002 -0.688243,-0.002 -0.09139,1e-4 -0.182755,0.002 -0.274065,0.006 -4.858246,0.24291 -5.201789,-6.62767 -0.343554,-6.87059 z"
       inkscape:connector-curvature="0" />
    <path
       style="opacity:1;fill:#020900;fill-opacity:1;stroke:none;stroke-width:1;stroke-linecap:butt;stroke-linejoin:round;stroke-miterlimit:4;stroke-dasharray:none;stroke-opacity:1"
       id="path1495"
       d="m 64.8605,243.41304 c -0.04678,0.10525 0.02773,-0.066 0.03874,-0.0929 -0.04797,0.15246 -0.09185,0.30613 -0.134919,0.46003 -0.0781,0.26924 -0.150823,0.53991 -0.218088,0.81205 -0.07429,0.3064 -0.133895,0.61605 -0.190775,0.92606 -0.05408,0.26357 -0.06968,0.53201 -0.08296,0.80002 -0.01521,0.34707 -0.01757,0.69444 -0.009,1.04169 0.0136,0.2431 0.01394,0.48943 0.06158,0.72908 0.01347,-0.0729 -0.0504,-0.21558 -0.09115,-0.30195 -0.03659,-0.0552 -0.05378,-0.11911 -0.09811,-0.16631 -0.09372,-0.089 -0.211515,-0.14168 -0.329625,-0.18965 -0.107077,-0.0422 -0.223102,-0.029 -0.335116,-0.0216 0.175686,-0.10735 0.368064,-0.21177 0.547769,-0.32095 0.226505,-0.13612 0.445177,-0.2844 0.643697,-0.45904 0.0528,-0.0365 0.07748,-0.0855 0.08913,-0.13363 -0.06296,0.0445 -0.0838,0.13381 -0.105701,0.20452 -0.01881,0.0233 -0.01191,0.18481 -0.04221,0.0963 -0.01685,-0.043 -0.04531,-0.11862 -0.02805,-0.0305 -0.02975,-0.002 -0.07294,-0.0516 -0.100121,-0.077 -0.109924,-0.0799 0.04581,0.0479 0.07104,0.0655 0.03769,0.0275 0.103759,0.0505 0.0172,0.0443 -0.200901,-0.0188 -0.402085,-0.0343 -0.603266,-0.0498 -0.223639,-0.0176 -0.447403,-0.0334 -0.671248,-0.0481 -0.186484,-0.0121 -0.372978,-0.0241 -0.559472,-0.036 -0.07915,-0.0122 -0.280488,-0.007 -0.07628,-0.008 0.238927,-0.007 0.474335,-0.0563 0.700225,-0.13271 0.0916,-0.0328 0.0058,-0.002 0.05184,-0.0188 0.09403,-0.0344 0.442888,-0.27552 0.468378,-0.29242 -3.869563,2.94753 -8.038004,-2.52486 -4.168441,-5.47239 v 0 c 0.228057,-0.15391 0.450371,-0.31449 0.70258,-0.42696 0.17653,-0.0843 0.355039,-0.16474 0.538281,-0.23359 0.450808,-0.16285 0.918043,-0.27766 1.399223,-0.29538 0.275052,-0.009 0.550037,-0.008 0.82451,0.015 0.190241,0.0122 0.380484,0.0244 0.570712,0.0368 0.24888,0.0164 0.49767,0.034 0.746326,0.0535 0.385164,0.0296 0.77089,0.0576 1.15325,0.11434 0.669499,0.112 1.329801,0.27821 1.943031,0.57759 0.64389,0.33108 1.250989,0.72421 1.759431,1.24577 0.461836,0.46873 0.890921,0.97032 1.217002,1.54531 0.337666,0.61682 0.617026,1.26191 0.764032,1.95303 0.158017,0.75876 0.242517,1.53089 0.137974,2.30453 -0.137014,0.87297 -0.384148,1.71755 -0.854278,2.4748 -0.424024,0.66531 -0.910156,1.2862 -1.52141,1.79205 -0.480721,0.39845 -0.983538,0.76852 -1.522071,1.08606 -0.626803,0.37491 -1.268992,0.73037 -1.963002,0.96681 -0.94156,0.2846 -1.906246,0.43351 -2.888107,0.27231 -0.919697,-0.16601 -1.804646,-0.45292 -2.573314,-1.00262 -0.663008,-0.49226 -1.270912,-1.0506 -1.71795,-1.75323 -0.43062,-0.71488 -0.769085,-1.47401 -0.891995,-2.307 -0.08175,-0.54555 -0.133252,-1.09453 -0.143748,-1.64644 -0.01085,-0.52017 -0.0086,-1.04055 0.01696,-1.56033 0.03106,-0.56341 0.07877,-1.12643 0.18706,-1.68106 0.08273,-0.44792 0.170704,-0.89504 0.279636,-1.33745 0.0844,-0.33895 0.173707,-0.67661 0.270965,-1.01212 0.06649,-0.23675 0.134641,-0.47306 0.209322,-0.70738 0.08216,-0.25029 0.171762,-0.49843 0.287957,-0.73529 2.073992,-4.40001 8.296534,-1.46694 6.222545,2.93306 z"
       inkscape:connector-curvature="0" />
  </g>
</svg>
