<svg viewBox="0 0 100 100"><path style="opacity:1;fill:#020900;fill-opacity:1;stroke:none;stroke-width:1;stroke-linecap:butt;stroke-linejoin:round;stroke-miterlimit:4;stroke-dasharray:none;stroke-opacity:1" d="M17.738 213.964q.293-.014.584-.015l.769.002 1.003.013q.595.007 1.192.012l1.278.01c.337.003.674-.016 1.01-.039q.59-.044 1.178-.103.655-.061 1.309-.136l1.424-.167q.714-.084 1.43-.163.64-.068 1.279-.15.584-.073 1.163-.181c.385-.072.766-.16 1.147-.248q.597-.139 1.197-.275l.973-.22a7 7 0 0 1 1.3-.2c.955-.055 1.814.269 2.604.778.67.48 1.117 1.143 1.453 1.883.247.592.344 1.224.393 1.859.033.491.025.984.008 1.476-.021.455-.049.91-.074 1.365q-.042.74-.079 1.48a129 129 0 0 0-.121 3.5 365 365 0 0 0-.078 4.275c-.01.816-.03 1.632-.049 2.448q-.033 1.373-.058 2.744a119 119 0 0 0-.008 2.825q.011 1.462.027 2.925l.025 2.97q.014 1.5.01 2.997c-.006 1.002-.022 2.005-.036 3.007q-.022 1.503-.038 3.005a98 98 0 0 0 .011 3.016c.02.997.068 1.994.118 2.99.052 1 .11 1.999.164 2.998.053.972.114 1.943.174 2.914q.086 1.421.179 2.842.09 1.368.182 2.735c.058.879.11 1.757.167 2.636.056.852.11 1.705.171 2.557q.082 1.11.186 2.216c.06.622.13 1.243.2 1.864.054.503.122 1.004.192 1.505q.092.652.188 1.302l.16 1.095.126.874c.084.45.104.904.098 1.361-.056 1.091-.555 2.01-1.26 2.813-.509.54-1.136.93-1.787 1.27a14 14 0 0 1-1.639.685 23 23 0 0 1-1.82.554c-.612.162-1.232.296-1.849.438q-.888.212-1.776.42c-.598.139-1.193.293-1.789.44a56 56 0 0 1-1.955.442c-.636.133-1.276.25-1.915.367q-.948.176-1.898.337a92 92 0 0 1-3.467.514q-.723.094-1.448.18l-1.194.143-.98.117c-.023 0-.43.054-.26.033-4.774.932-6.093-5.82-1.319-6.752a10 10 0 0 1 .768-.112l.971-.116 1.2-.145a121 121 0 0 0 2.902-.38 86 86 0 0 0 3.484-.586c.582-.106 1.164-.212 1.743-.333.573-.12 1.146-.245 1.714-.386.627-.155 1.253-.318 1.883-.462l1.788-.424c.538-.124 1.078-.24 1.613-.378.43-.116.86-.238 1.282-.386.277-.099.554-.2.819-.33.215-.099-.074.084-.097.153-.356.45-.569.981-.585 1.56.013.563.036.298-.035-.05l-.127-.874-.158-1.087q-.1-.674-.194-1.348a56 56 0 0 1-.217-1.696c-.073-.66-.148-1.32-.21-1.982q-.112-1.18-.199-2.362-.091-1.305-.175-2.61-.082-1.312-.166-2.623c-.06-.916-.124-1.83-.183-2.747q-.093-1.43-.18-2.861c-.061-.986-.123-1.973-.176-2.96q-.086-1.515-.167-3.033a109 109 0 0 1-.125-3.207q-.03-1.608-.012-3.218.017-1.512.038-3.024c.014-.98.03-1.958.036-2.937q.004-1.459-.01-2.918l-.025-2.958q-.016-1.474-.027-2.947c-.007-.997-.009-1.993.009-2.99q.024-1.393.059-2.787.03-1.19.047-2.38a502 502 0 0 1 .08-4.347q.023-.98.056-1.958a136 136 0 0 1 .152-3.23q.036-.622.068-1.243c.01-.247.017-.495.005-.742 0-.06.096.295.125.324.207.42.492.778.882 1.045.526.323 1.103.55 1.733.504.316-.033.059-.02-.104.036l-.973.22q-.588.134-1.175.27c-.484.112-.97.222-1.459.312-.505.092-1.012.174-1.522.238q-.7.09-1.403.164-.693.076-1.386.158l-1.443.17q-.71.08-1.423.147c-.457.044-.914.087-1.372.12-.508.034-1.016.059-1.524.054a555 555 0 0 1-2.51-.022l-.964-.013-.688-.002q-.138 0-.274.006c-4.858.243-5.202-6.628-.344-6.87m47.122 29.449.04-.093q-.073.23-.136.46-.117.405-.218.812c-.074.307-.134.616-.19.926-.055.264-.07.532-.084.8q-.022.521-.009 1.042c.014.243.014.49.062.73.014-.074-.05-.217-.091-.303-.037-.055-.054-.119-.098-.166a1 1 0 0 0-.33-.19c-.107-.042-.223-.029-.335-.021.176-.108.368-.212.548-.321.226-.137.445-.285.644-.46a.22.22 0 0 0 .089-.133c-.063.044-.084.134-.106.204-.019.024-.012.185-.042.097-.017-.043-.046-.119-.028-.03-.03-.003-.073-.052-.1-.078-.11-.08.045.048.07.066.038.027.104.05.018.044q-.301-.027-.603-.05a52 52 0 0 0-.672-.048l-.56-.036c-.078-.012-.28-.007-.075-.008a2.4 2.4 0 0 0 .7-.133l.052-.018c.094-.035.443-.276.468-.293-3.87 2.948-8.038-2.525-4.168-5.472.228-.154.45-.315.702-.427.177-.084.355-.165.538-.234a4.6 4.6 0 0 1 1.4-.295c.275-.01.55-.008.824.015l.57.037q.375.024.747.053c.385.03.771.058 1.153.115.67.112 1.33.278 1.943.577.644.331 1.251.724 1.76 1.246.462.469.89.97 1.217 1.545.338.617.617 1.262.764 1.953.158.759.242 1.531.138 2.305-.137.873-.384 1.717-.854 2.475-.424.665-.91 1.286-1.522 1.792-.48.398-.983.768-1.522 1.086-.627.375-1.269.73-1.963.966-.941.285-1.906.434-2.888.273-.92-.166-1.805-.453-2.573-1.003-.663-.492-1.271-1.05-1.718-1.753-.43-.715-.77-1.474-.892-2.307a13 13 0 0 1-.144-1.646c-.01-.52-.009-1.041.017-1.56a12 12 0 0 1 .187-1.682c.083-.448.17-.895.28-1.337q.125-.51.27-1.012.099-.356.21-.708c.082-.25.172-.498.288-.735 2.074-4.4 8.296-1.467 6.222 2.933" transform="translate(0 -197)"/></svg>