<?xml version="1.0" encoding="UTF-8" standalone="no"?>
<!-- Created with Inkscape (http://www.inkscape.org/) -->

<svg
   xmlns:dc="http://purl.org/dc/elements/1.1/"
   xmlns:cc="http://creativecommons.org/ns#"
   xmlns:rdf="http://www.w3.org/1999/02/22-rdf-syntax-ns#"
   xmlns:svg="http://www.w3.org/2000/svg"
   xmlns="http://www.w3.org/2000/svg"
   xmlns:sodipodi="http://sodipodi.sourceforge.net/DTD/sodipodi-0.dtd"
   xmlns:inkscape="http://www.inkscape.org/namespaces/inkscape"
   width="10cm"
   height="10cm"
   viewBox="0 0 100 99.999997"
   version="1.1"
   id="svg8"
   sodipodi:docname="sitelen.svg"
   inkscape:version="0.92.3 (2405546, 2018-03-11)">
  <defs
     id="defs2" />
  <sodipodi:namedview
     id="base"
     pagecolor="#ffffff"
     bordercolor="#666666"
     borderopacity="1.0"
     inkscape:pageopacity="0.0"
     inkscape:pageshadow="2"
     inkscape:zoom="1"
     inkscape:cx="175.50186"
     inkscape:cy="186.50542"
     inkscape:document-units="cm"
     inkscape:current-layer="layer1"
     showgrid="true"
     units="cm"
     inkscape:window-width="881"
     inkscape:window-height="707"
     inkscape:window-x="971"
     inkscape:window-y="213"
     inkscape:window-maximized="0"
     inkscape:snap-nodes="false">
    <inkscape:grid
       type="xygrid"
       id="grid815"
       units="cm"
       spacingx="9.9999998"
       spacingy="9.9999998" />
  </sodipodi:namedview>
  <metadata
     id="metadata5">
    <rdf:RDF>
      <cc:Work
         rdf:about="">
        <dc:format>image/svg+xml</dc:format>
        <dc:type
           rdf:resource="http://purl.org/dc/dcmitype/StillImage" />
        <dc:title></dc:title>
      </cc:Work>
    </rdf:RDF>
  </metadata>
  <g
     inkscape:label="Layer 1"
     inkscape:groupmode="layer"
     id="layer1"
     transform="translate(0,-197.00002)">
    <path
       style="opacity:1;fill:#020900;fill-opacity:1;stroke:none;stroke-width:1;stroke-linecap:butt;stroke-linejoin:round;stroke-miterlimit:4;stroke-dasharray:none;stroke-opacity:1"
       id="path1497"
       d="m 19.046696,207.12114 c 0.256539,0.37148 0.430242,0.78687 0.571732,1.21309 0.117882,0.37722 0.183507,0.76737 0.240271,1.15757 0.05531,0.39698 0.08946,0.79644 0.121162,1.19586 0.03287,0.42353 0.0572,0.84765 0.0887,1.27128 0.03988,0.49087 0.08253,0.98151 0.124752,1.47219 0.05109,0.58748 0.09839,1.17527 0.149954,1.76271 0.06243,0.67869 0.119743,1.35783 0.17892,2.03681 0.06694,0.76536 0.137191,1.53043 0.204849,2.29573 0.08075,0.89222 0.154505,1.78503 0.226806,2.67797 0.07941,0.97611 0.159785,1.95214 0.243539,2.92789 0.09602,1.07822 0.194526,2.15622 0.288668,3.23462 0.10409,1.20141 0.194757,2.40393 0.284301,3.6065 0.09454,1.29736 0.188535,2.59477 0.284358,3.89204 0.09966,1.36006 0.196964,2.72028 0.289529,4.08084 0.094,1.38674 0.175195,2.7743 0.251853,4.16209 0.07464,1.36431 0.139424,2.72912 0.201006,4.09406 0.05892,1.3162 0.110524,2.63272 0.159912,3.94931 0.04847,1.25988 0.08855,2.52004 0.120613,3.78044 0.03033,1.19104 0.04309,2.38241 0.05345,3.57376 0.0095,1.06932 0.01564,2.13865 0.01839,3.20801 0.0021,1.00722 0.0033,2.01445 0.0045,3.02167 0.0014,0.98438 -3.97e-4,1.96876 -0.0017,2.95314 -3.44e-4,0.91369 -0.0038,1.82737 -0.0072,2.74106 -0.003,0.80248 -0.006,1.60497 -0.0091,2.40745 -0.0028,0.65488 -0.0042,1.30977 -0.008,1.96465 -0.0045,0.54681 -0.01144,1.0936 -0.01814,1.64039 -0.0053,0.4327 -0.0107,0.86541 -0.01604,1.29812 -0.0043,0.3461 -0.0085,0.6922 -0.01281,1.0383 -0.0034,0.2759 -0.0068,0.55181 -0.01021,0.82771 -0.01,0.0626 0.005,0.56958 -0.0051,0.28996 -0.02918,-0.46811 -0.221985,-0.88676 -0.481078,-1.26922 -0.173676,-0.24638 -0.406437,-0.42909 -0.652933,-0.59526 0.208275,0.0633 0.434407,0.13285 0.650674,0.19194 0.437836,0.11687 0.883457,0.20041 1.329462,0.27887 0.620936,0.10715 1.246189,0.18589 1.871891,0.25892 0.770196,0.0874 1.542359,0.15584 2.315101,0.21605 0.855162,0.0681 1.71246,0.0999 2.569829,0.12263 0.92179,0.0222 1.843794,0.0278 2.765771,0.0185 0.969801,-0.0116 1.938595,-0.0595 2.90721,-0.10561 1.045755,-0.0492 2.091653,-0.095 3.137043,-0.15165 1.046874,-0.0548 2.092473,-0.13032 3.137731,-0.2095 1.054788,-0.0817 2.109319,-0.16673 3.163411,-0.25698 1.051531,-0.0902 2.101062,-0.2016 3.15068,-0.31138 1.067173,-0.11256 2.135348,-0.21511 3.203884,-0.31376 1.03991,-0.0957 2.080591,-0.1826 3.12162,-0.26515 0.981078,-0.0772 1.962703,-0.1471 2.944546,-0.21378 0.919069,-0.062 1.838552,-0.11754 2.758188,-0.1704 0.87812,-0.0486 1.756341,-0.0955 2.634642,-0.14077 0.868415,-0.0434 1.737031,-0.0825 2.605487,-0.12506 0.840449,-0.0418 1.681046,-0.0805 2.521704,-0.11784 0.747241,-0.0328 1.494554,-0.0641 2.241883,-0.0949 0.63383,-0.0262 1.267695,-0.0515 1.90165,-0.0746 0.561068,-0.0202 1.122445,-0.0284 1.683793,-0.0358 0.470064,-0.008 0.940183,-0.008 1.41029,-0.005 0.371456,0.003 0.742915,0.006 1.114327,0.0125 0.292555,0.006 0.585084,0.0132 0.877615,0.0203 0.22787,0.006 0.455739,0.0111 0.683606,0.0167 0.181489,0.004 0.362977,0.009 0.544463,0.0133 0.144647,0.004 0.289292,0.007 0.433937,0.0106 0.02109,5.3e-4 0.04215,10e-4 0.06323,0.002 0.133808,0.002 -0.220541,-0.0163 -0.508521,0.0382 -0.514951,0.0974 -0.512993,0.13659 -1.03767,0.36768 -0.79929,0.46938 -1.322022,1.18923 -1.538888,2.07982 -0.04009,0.34468 -0.02032,-0.10415 -0.01963,-0.17041 0.0028,-0.35333 -0.01439,-0.70631 -0.03165,-1.0591 -0.03727,-0.65136 -0.07135,-1.30287 -0.10147,-1.9546 -0.03904,-0.8868 -0.0856,-1.77324 -0.137549,-2.65937 -0.0636,-1.0643 -0.1446,-2.12746 -0.225573,-3.19055 -0.09172,-1.19324 -0.190741,-2.3859 -0.280565,-3.57929 -0.101803,-1.3645 -0.180871,-2.73053 -0.254828,-4.09678 -0.07811,-1.46604 -0.141732,-2.9328 -0.202202,-4.39966 -0.05988,-1.47236 -0.112377,-2.945 -0.160004,-4.4178 -0.04321,-1.46079 -0.07151,-2.92197 -0.09972,-4.38311 -0.02788,-1.43027 -0.04561,-2.86071 -0.0632,-4.29113 -0.0172,-1.42139 -0.03171,-2.84281 -0.04564,-4.26423 -0.01307,-1.34472 -0.02487,-2.68945 -0.03625,-4.03418 -0.01347,-1.27293 -0.0047,-2.54588 0.01458,-3.81868 0.02267,-1.23401 0.061,-2.46766 0.09854,-3.70128 0.03542,-1.17618 0.08231,-2.35195 0.133119,-3.52755 0.04857,-1.10198 0.10141,-2.20375 0.167207,-3.30486 0.06206,-1.00058 0.128748,-2.00087 0.204761,-3.00049 0.07272,-0.92597 0.153736,-1.85126 0.241035,-2.77596 0.07752,-0.81116 0.161877,-1.62164 0.247113,-2.43202 0.06835,-0.64816 0.137028,-1.29628 0.205668,-1.9444 0.05468,-0.51624 0.109358,-1.03248 0.164042,-1.54872 0.04358,-0.41144 0.08716,-0.82288 0.130744,-1.23433 0.03474,-0.32793 0.06947,-0.65586 0.104206,-0.98379 0.01521,-0.12031 0.03632,-0.34582 0.03322,-0.42438 -0.01656,0.44425 0.156736,0.85859 0.356557,1.24442 0.251037,0.42419 0.610611,0.75628 1.039979,0.99189 0.04233,0.0436 0.352431,0.12108 0.129728,0.0819 -0.243826,-0.0396 -0.489728,-0.0639 -0.73552,-0.0873 -0.520938,-0.041 -1.04167,-0.0825 -1.561584,-0.13524 -0.732414,-0.0764 -1.460902,-0.1846 -2.18807,-0.29968 -0.787421,-0.12741 -1.573916,-0.26044 -2.360642,-0.39205 -0.834355,-0.13973 -1.669465,-0.27481 -2.505725,-0.40263 -0.862098,-0.13072 -1.726862,-0.24245 -2.592525,-0.34653 -0.915221,-0.10895 -1.832661,-0.19751 -2.750548,-0.28044 -0.984798,-0.088 -1.970958,-0.15931 -2.957399,-0.22593 -1.034592,-0.0695 -2.070391,-0.11854 -3.106351,-0.16213 -1.063392,-0.0451 -2.127374,-0.0736 -3.191499,-0.0938 -1.080241,-0.019 -2.160622,-0.007 -3.240707,0.0145 -1.110908,0.0234 -2.221156,0.0685 -3.33113,0.11857 -1.100005,0.0493 -2.199368,0.1108 -3.298209,0.18116 -1.078299,0.0692 -2.155991,0.14717 -3.233272,0.23064 -1.029507,0.0822 -2.058122,0.1751 -3.086166,0.2738 -0.993044,0.10009 -1.986544,0.19543 -2.980317,0.28798 -0.921686,0.0846 -1.843299,0.17 -2.764636,0.25834 -0.863468,0.0831 -1.727195,0.16344 -2.591165,0.24114 -0.780124,0.0705 -1.560804,0.13456 -2.341499,0.19833 -0.693687,0.0576 -1.387308,0.11588 -2.081159,0.17146 -0.624177,0.0497 -1.248658,0.0954 -1.873033,0.14246 -0.525746,0.0398 -1.051536,0.0789 -1.577355,0.1177 -0.429593,0.0316 -0.859182,0.0633 -1.288831,0.0942 -0.350919,0.026 -0.701779,0.0527 -1.052667,0.0791 -0.271027,0.0204 -0.541718,0.0448 -0.812408,0.0692 -0.222397,0.0205 -0.444939,0.0395 -0.667245,0.061 0.09609,0.0106 0.494821,-0.11997 0.600012,-0.15304 -4.502229,1.84158 -7.106611,-4.52553 -2.604383,-6.36711 v 0 c 0.439893,-0.1516 0.877154,-0.29944 1.345764,-0.32741 0.236303,-0.0226 0.472783,-0.0434 0.709184,-0.0649 0.304241,-0.0274 0.608503,-0.0546 0.913125,-0.0775 0.358539,-0.027 0.717047,-0.0543 1.075621,-0.0808 0.42533,-0.0306 0.850599,-0.062 1.275875,-0.0933 0.522061,-0.0385 1.044094,-0.0774 1.566083,-0.11685 0.613728,-0.0463 1.22756,-0.0912 1.841097,-0.13998 0.690215,-0.0553 1.380193,-0.11337 2.07025,-0.17058 0.762003,-0.0622 1.523995,-0.1247 2.285439,-0.19352 0.850503,-0.0765 1.700763,-0.15557 2.550771,-0.23738 0.927545,-0.0889 1.855356,-0.17496 2.783253,-0.2601 0.987369,-0.092 1.974458,-0.18677 2.96111,-0.28617 1.069962,-0.10262 2.140503,-0.19937 3.211997,-0.28471 1.10794,-0.0858 2.216304,-0.16602 3.325291,-0.23714 1.142043,-0.073 2.284614,-0.13708 3.42786,-0.18823 1.168167,-0.0526 2.336631,-0.0998 3.505782,-0.12423 1.168715,-0.0228 2.337752,-0.0355 3.506623,-0.0146 1.116997,0.0214 2.233843,0.0513 3.35007,0.0987 1.094078,0.0461 2.18798,0.0981 3.280608,0.17168 1.0384,0.0702 2.076501,0.14545 3.113164,0.23823 0.985462,0.0892 1.970427,0.18456 2.953007,0.30178 0.938456,0.11304 1.875938,0.23435 2.810515,0.37631 0.867947,0.13281 1.734773,0.27272 2.600751,0.41784 0.76749,0.1284 1.534761,0.25815 2.302894,0.38264 0.601437,0.0956 1.203878,0.18618 1.809604,0.2504 0.506762,0.0522 1.014749,0.0883 1.522331,0.13135 0.460184,0.0447 0.920358,0.0948 1.375219,0.1794 0.522682,0.10287 1.042152,0.23153 1.525815,0.46116 0.754732,0.38142 1.418672,0.88929 1.867813,1.62134 0.405167,0.73406 0.678312,1.51342 0.660014,2.36364 -0.0043,0.38111 -0.02487,0.76146 -0.07148,1.13997 -0.03473,0.32793 -0.06947,0.65586 -0.104206,0.98379 -0.04358,0.41144 -0.08716,0.82288 -0.130746,1.23433 -0.05468,0.51619 -0.109355,1.03239 -0.164026,1.54859 -0.06847,0.64649 -0.13697,1.29297 -0.205153,1.93949 -0.0827,0.78623 -0.164613,1.57254 -0.239874,2.35952 -0.0835,0.88302 -0.1607,1.76665 -0.230367,2.65088 -0.07332,0.96263 -0.137287,1.92592 -0.197215,2.88948 -0.06373,1.06314 -0.114234,2.12697 -0.161338,3.19097 -0.04956,1.14632 -0.09535,2.2928 -0.129884,3.43969 -0.03648,1.1987 -0.07378,2.39743 -0.09615,3.5965 -0.01857,1.21858 -0.02698,2.43729 -0.01402,3.65599 0.01135,1.34167 0.02313,2.68333 0.03617,4.02499 0.01386,1.41571 0.02833,2.83142 0.04545,4.24709 0.01738,1.41435 0.03488,2.82871 0.06243,4.2429 0.02763,1.43131 0.0553,2.86265 0.09741,4.29362 0.04694,1.45246 0.09874,2.90476 0.157758,4.35677 0.05924,1.43739 0.121517,2.87468 0.19799,4.31128 0.0713,1.31807 0.147389,2.63595 0.245488,3.95235 0.0896,1.1913 0.188701,2.38183 0.280088,3.57299 0.08401,1.10306 0.167841,2.20621 0.233656,3.31053 0.05357,0.91455 0.101698,1.82939 0.142016,2.74462 0.02979,0.64609 0.06406,1.29193 0.100668,1.93767 0.02373,0.49074 0.04471,0.98182 0.0393,1.47327 -0.0054,0.43569 -0.01431,0.87293 -0.08774,1.30362 -0.245615,1.12524 -0.800454,2.07098 -1.815372,2.67739 -0.673129,0.30647 -1.3482,0.56109 -2.102382,0.49924 -0.144645,-0.004 -0.28929,-0.007 -0.433938,-0.0106 -0.181477,-0.004 -0.362958,-0.009 -0.544436,-0.0133 -0.227533,-0.006 -0.455064,-0.0111 -0.682598,-0.0167 -0.278831,-0.007 -0.55766,-0.0137 -0.836512,-0.0195 -0.345292,-0.006 -0.690645,-0.008 -1.035979,-0.0115 -0.423915,-0.003 -0.847838,-0.004 -1.271717,0.004 -0.508315,0.007 -1.016667,0.0137 -1.524733,0.0319 -0.622776,0.0226 -1.245462,0.0475 -1.868114,0.0733 -0.740098,0.0305 -1.480175,0.0614 -2.220185,0.094 -0.830125,0.0368 -1.660186,0.075 -2.4901,0.11636 -0.862756,0.0423 -1.725668,0.0812 -2.588387,0.1242 -0.864653,0.0445 -1.729221,0.0907 -2.593699,0.13854 -0.895869,0.0515 -1.791587,0.10557 -2.686908,0.16593 -0.955947,0.0649 -1.911683,0.13296 -2.86689,0.20807 -1.011462,0.0802 -2.022588,0.16457 -3.032963,0.25754 -1.040771,0.0961 -2.081186,0.19591 -3.120623,0.30557 -1.092536,0.11426 -2.185014,0.22985 -3.27955,0.32363 -1.076497,0.0921 -2.153433,0.17902 -3.230642,0.2624 -1.094544,0.0829 -2.189461,0.16171 -3.285688,0.21911 -1.060167,0.0573 -2.120821,0.10419 -3.181364,0.1539 -1.055309,0.0502 -2.110851,0.10124 -3.167462,0.11307 -1.005477,0.01 -2.010989,0.004 -3.016247,-0.0207 -0.975003,-0.0262 -1.949873,-0.0636 -2.922354,-0.14109 -0.860769,-0.0675 -1.720921,-0.14373 -2.57881,-0.24178 -0.759461,-0.0891 -1.518223,-0.18624 -2.271712,-0.31768 -0.659491,-0.11736 -1.317663,-0.24556 -1.964196,-0.42253 -0.555161,-0.15471 -1.10902,-0.32022 -1.639113,-0.54869 -0.739552,-0.34566 -1.426765,-0.78205 -1.937779,-1.43342 -0.503766,-0.69415 -0.876818,-1.45316 -0.953402,-2.32082 -0.02709,-0.34289 -0.03752,-0.68559 -0.02564,-1.02947 0.0034,-0.2759 0.0068,-0.55181 0.01021,-0.82771 0.0043,-0.34612 0.0085,-0.69223 0.01281,-1.03835 0.0053,-0.43248 0.0107,-0.86496 0.01603,-1.29745 0.0065,-0.5318 0.01329,-1.0636 0.01774,-1.59542 0.0037,-0.6504 0.0051,-1.3008 0.0079,-1.9512 0.003,-0.80243 0.006,-1.60486 0.0091,-2.40728 0.0034,-0.90816 0.0069,-1.81632 0.0072,-2.72448 0.0013,-0.97864 0.0031,-1.95727 0.0017,-2.9359 -0.0012,-1.00406 -0.0023,-2.00812 -0.0044,-3.01217 -0.0027,-1.05531 -0.0087,-2.11061 -0.01815,-3.16588 -0.01001,-1.153 -0.02218,-2.30604 -0.05149,-3.45875 -0.0313,-1.23271 -0.07061,-2.46518 -0.118,-3.69738 -0.04873,-1.2992 -0.09963,-2.59833 -0.157757,-3.89714 -0.06052,-1.34184 -0.12418,-2.68354 -0.197529,-4.02474 -0.07502,-1.35861 -0.154464,-2.71698 -0.246458,-4.07455 -0.09164,-1.34727 -0.188041,-2.6942 -0.2867,-4.04098 -0.09572,-1.29592 -0.189645,-2.59197 -0.284058,-3.88799 -0.08737,-1.17341 -0.175727,-2.34677 -0.277229,-3.51905 -0.09443,-1.08174 -0.193346,-2.16306 -0.289534,-3.24463 -0.08468,-0.98677 -0.166011,-1.97381 -0.246296,-2.96095 -0.07093,-0.87607 -0.143247,-1.75202 -0.222522,-2.62739 -0.0679,-0.76813 -0.13845,-1.53602 -0.205595,-2.30422 -0.05905,-0.6776 -0.116265,-1.35537 -0.17856,-2.03268 -0.05188,-0.59131 -0.09961,-1.18295 -0.15096,-1.7743 -0.04459,-0.5182 -0.08977,-1.03637 -0.131361,-1.55482 -0.03032,-0.41208 -0.05499,-0.82453 -0.08604,-1.23656 -0.02007,-0.25538 -0.04034,-0.51091 -0.07342,-0.76501 -0.01105,-0.0812 -0.04297,-0.25173 0.007,-0.0679 0.07415,0.20519 0.168328,0.40261 0.294658,0.5813 -2.727139,-4.02795 2.969214,-7.8847 5.696346,-3.85677 z"
       inkscape:connector-curvature="0" />
    <path
       style="opacity:1;fill:#020900;fill-opacity:1;stroke:none;stroke-width:1;stroke-linecap:butt;stroke-linejoin:round;stroke-miterlimit:4;stroke-dasharray:none;stroke-opacity:1"
       id="path1499"
       d="m 33.143272,245.77393 c -5.3e-4,0.15401 -0.0074,0.30789 -0.01244,0.4618 -0.0039,0.13251 -0.0082,0.26503 -0.0097,0.3976 0.0042,-0.0261 0.003,-0.0385 0.01326,0.0129 0.01992,0.10148 0.04444,0.20202 0.0722,0.30163 0.0073,0.041 0.02696,0.0754 0.04478,0.11191 -0.02273,-0.0777 -0.125169,-0.22167 -0.187814,-0.3071 -0.255675,-0.32861 -0.603634,-0.55206 -0.982287,-0.71299 -0.185838,-0.0711 -0.381391,-0.11093 -0.579781,-0.12045 -0.11397,-0.002 -0.226484,0.0194 -0.335894,0.0495 -0.17912,0.0526 -0.333018,0.15955 -0.481058,0.26968 -0.08451,0.0574 -0.229494,0.22131 -0.272655,0.2628 0.03638,-0.0684 0.07318,-0.13735 0.09884,-0.21022 -0.05179,0.10467 -0.07251,0.2215 -0.09074,0.33588 -0.02045,0.0218 0.0039,0.33254 -0.02797,0.17274 -0.02381,-0.11141 -0.0557,-0.22083 -0.08961,-0.32952 -0.09021,-0.23971 0.01061,0.01 0.05528,0.10029 0.138356,0.25766 0.329208,0.47821 0.557178,0.65927 0.372144,0.28208 0.822973,0.38861 1.277498,0.44381 0.41315,0.0345 0.795888,-0.064 1.170707,-0.22684 0.07164,0.0185 0.55049,-0.39127 0.459584,-0.28904 -3.35475,3.52238 -8.336139,-1.22196 -4.98139,-4.74433 v 0 c 0.406289,-0.42263 0.847114,-0.81319 1.373061,-1.08287 0.723535,-0.34188 1.478285,-0.56514 2.28836,-0.52908 0.853345,0.0775 1.668505,0.2916 2.37199,0.80316 0.570777,0.41858 1.083116,0.9059 1.440082,1.52553 0.233021,0.42805 0.437589,0.86897 0.569579,1.33982 0.111799,0.37142 0.212595,0.74647 0.281159,1.1286 0.09385,0.54399 0.154969,1.09515 0.10573,1.64773 -0.06122,0.56163 -0.169428,1.11637 -0.389562,1.63987 -0.16035,0.38509 -0.338566,0.76257 -0.55146,1.12183 -0.324699,0.53795 -0.694828,1.04883 -1.17593,1.45976 -0.495985,0.40223 -1.028584,0.75126 -1.635061,0.96515 -0.548812,0.1912 -1.113243,0.33457 -1.697017,0.35818 -0.672036,0.0227 -1.343943,-0.0267 -1.984666,-0.24828 -0.793176,-0.30125 -1.518295,-0.7259 -2.063406,-1.39169 -0.330943,-0.41584 -0.627023,-0.85676 -0.832085,-1.3498 -0.150286,-0.35138 -0.285726,-0.70926 -0.382035,-1.07967 -0.08509,-0.32297 -0.162802,-0.64808 -0.216683,-0.97791 -0.06192,-0.39842 -0.107364,-0.79991 -0.100698,-1.20389 0.0026,-0.17615 0.007,-0.35226 0.01269,-0.52833 0.0025,-0.0761 0.005,-0.16968 0.0088,-0.23743 0,-4.8643 6.879165,-4.8643 6.879164,0 z"
       inkscape:connector-curvature="0" />
    <path
       style="opacity:1;fill:#020900;fill-opacity:1;stroke:none;stroke-width:1;stroke-linecap:butt;stroke-linejoin:round;stroke-miterlimit:4;stroke-dasharray:none;stroke-opacity:1"
       id="path1501"
       d="m 50.746972,247.70376 c 0.251579,-0.11826 0.467841,-0.29012 0.666432,-0.48184 0.04436,-0.0434 0.167121,-0.18963 0.182274,-0.20735 -0.04513,0.0844 -0.0844,0.17166 -0.118999,0.26086 -0.01069,0.0219 -0.06158,0.17819 -0.02561,0.0905 0.01238,-0.0189 0.01958,-0.12913 0.02548,-0.0466 0.0076,0.118 0.01691,0.23611 0.03258,0.35316 0.0055,-0.0728 -0.09664,-0.3471 -0.14846,-0.47117 -0.07509,-0.16882 -0.176146,-0.32089 -0.298969,-0.45791 -0.196246,-0.20613 -0.435959,-0.36084 -0.69574,-0.47369 -0.188177,-0.0802 -0.3907,-0.10018 -0.592921,-0.10795 -0.263107,-0.005 -0.51427,0.0637 -0.754671,0.16454 -0.213765,0.0976 -0.400052,0.24011 -0.56089,0.41002 -0.04648,0.0354 -0.07224,0.0921 -0.101076,0.14268 -0.02643,0.0456 -0.03833,0.0973 -0.05092,0.1479 -0.01294,0.10264 0.0074,0.2043 0.02035,0.3055 0.0039,0.0294 0.01476,0.0668 0.01765,0.0765 0.305638,0.45998 0.803407,0.7136 1.301961,0.90821 -4.658889,-1.39865 -2.680903,-7.98731 1.977986,-6.58867 v 0 c 0.921734,0.33372 1.730391,0.8392 2.29997,1.6571 0.342696,0.48663 0.649102,0.99864 0.854305,1.56016 0.241345,0.67723 0.411038,1.37704 0.406916,2.1011 -0.01196,0.69029 -0.08636,1.37773 -0.311246,2.03489 -0.231028,0.6529 -0.524467,1.28064 -0.950285,1.83193 -0.494358,0.62259 -1.061701,1.17626 -1.778209,1.54029 -0.684268,0.32843 -1.402223,0.56586 -2.168914,0.584 -0.657444,0.003 -1.30964,-0.0639 -1.931329,-0.29254 -0.671348,-0.25551 -1.304263,-0.59479 -1.817309,-1.10793 -0.409913,-0.41807 -0.77979,-0.87247 -1.040124,-1.40113 -0.241247,-0.52654 -0.430242,-1.07192 -0.496359,-1.6506 -0.04471,-0.3518 -0.07766,-0.70505 -0.09036,-1.0596 -0.01246,-0.5151 0.0065,-1.03149 0.110765,-1.53787 0.09704,-0.45055 0.220975,-0.89446 0.399545,-1.32028 0.139218,-0.33586 0.28974,-0.6671 0.466376,-0.98522 0.234114,-0.41604 0.491871,-0.8202 0.820727,-1.16914 0.370527,-0.37542 0.772231,-0.71843 1.250196,-0.95156 4.342807,-2.19123 7.441676,3.95042 3.098871,6.14165 z"
       inkscape:connector-curvature="0" />
    <path
       style="opacity:1;fill:#020900;fill-opacity:1;stroke:none;stroke-width:1;stroke-linecap:butt;stroke-linejoin:round;stroke-miterlimit:4;stroke-dasharray:none;stroke-opacity:1"
       id="path1503"
       d="m 64.370746,247.08189 c 0.587597,0.0404 1.145008,-0.11196 1.657614,-0.38891 0.208508,-0.12324 0.395028,-0.279 0.550767,-0.4642 0.03918,-0.0365 -0.04638,0.12489 -0.05922,0.15661 -0.05679,0.13276 -0.09794,0.27048 -0.132574,0.41033 -0.03597,0.1425 -0.04779,0.28913 -0.06087,0.43501 -0.01622,0.19822 -0.0095,0.39719 -0.0034,0.59566 -0.0032,0.1214 0.02125,0.36396 0.03397,0.43418 -0.02463,-0.2224 -0.123595,-0.42555 -0.236559,-0.61531 0.0061,-0.0273 -0.210508,-0.23805 -0.112554,-0.17905 0.269127,0.13106 -0.219331,-0.0904 -0.251523,-0.10202 -0.321638,-0.0986 -0.656058,-0.1067 -0.983702,-0.0394 -0.06402,0.0143 -0.137552,0.0403 -0.191151,0.0562 -0.04484,0.0188 -0.102791,0.0781 -0.04293,-0.003 0.155406,-0.21259 0.105013,-0.17706 -0.02058,0.0576 -0.13308,0.26515 -0.175176,0.55193 -0.177157,0.84513 0.02768,0.2585 -0.05815,-0.161 -0.07017,-0.21025 -0.05369,-0.21247 -0.109617,-0.42438 -0.169185,-0.63528 -0.01685,-0.0596 -0.03621,-0.11885 -0.0614,-0.17547 -0.0055,0.006 0.04334,0.0892 0.0631,0.12026 0.09312,0.1193 -0.02659,-0.005 0.07309,0.0968 0.322842,0.31453 0.728012,0.49901 1.152742,0.62921 -4.731316,-1.12966 -3.133748,-7.82075 1.597568,-6.6911 v 0 c 0.697698,0.1953 1.356349,0.48168 1.892022,0.98531 0.306925,0.28942 0.600601,0.59345 0.849373,0.93553 0.258432,0.36616 0.494967,0.74757 0.671899,1.16076 0.149918,0.35055 0.283715,0.70767 0.383786,1.07601 0.0812,0.28944 0.158623,0.57993 0.231169,0.87167 0.109564,0.4512 0.21421,0.90536 0.249307,1.36968 0.03341,0.8143 -0.05092,1.61754 -0.380929,2.3726 -0.260485,0.55507 -0.567132,1.08236 -0.964337,1.55245 -0.395799,0.47573 -0.825331,0.9242 -1.335276,1.28006 -0.54869,0.37293 -1.128024,0.69966 -1.766874,0.89296 -0.903044,0.25047 -1.825929,0.34359 -2.746648,0.10639 -0.706702,-0.21088 -1.37986,-0.49535 -1.976633,-0.93694 -0.563205,-0.40578 -1.092708,-0.85822 -1.501934,-1.42497 -0.451474,-0.66307 -0.808206,-1.37672 -0.944623,-2.17546 -0.08075,-0.48224 -0.132651,-0.96774 -0.140203,-1.45715 -0.01326,-0.48442 -0.01452,-0.96973 0.03229,-1.45267 0.05118,-0.5158 0.123184,-1.03004 0.257204,-1.53174 0.128346,-0.47715 0.278765,-0.94822 0.477125,-1.40148 0.208923,-0.47225 0.439492,-0.9361 0.735272,-1.36109 0.402744,-0.55438 0.861708,-1.06422 1.450681,-1.42758 0.721487,-0.41366 1.495174,-0.68703 2.340547,-0.6363 4.857297,0.261 4.488188,7.13025 -0.36911,6.86925 z"
       inkscape:connector-curvature="0" />
  </g>
</svg>
