<svg viewBox="0 0 100 100"><path style="opacity:1;fill:#020900;fill-opacity:1;stroke:none;stroke-width:1;stroke-linecap:butt;stroke-linejoin:round;stroke-miterlimit:4;stroke-dasharray:none;stroke-opacity:1" d="M19.047 207.121c.256.372.43.787.571 1.213.118.377.184.768.24 1.158.056.397.09.796.122 1.196.033.423.057.847.089 1.27q.06.737.124 1.473l.15 1.763c.063.679.12 1.358.18 2.037q.1 1.148.204 2.295.12 1.339.227 2.678.12 1.464.243 2.928.146 1.617.289 3.235c.104 1.201.195 2.404.284 3.606l.285 3.892q.15 2.04.29 4.081.137 2.081.251 4.162.111 2.048.201 4.094.087 1.975.16 3.95.073 1.89.12 3.78c.031 1.191.044 2.383.054 3.574q.015 1.605.018 3.208.004 1.51.005 3.022.001 1.476-.002 2.953-.001 1.37-.007 2.74l-.009 2.408-.008 1.965q-.007.82-.018 1.64l-.016 1.298-.013 1.039-.01.827c-.01.063.005.57-.005.29-.03-.468-.222-.886-.481-1.269-.174-.246-.407-.429-.653-.595.208.063.434.133.65.192.438.117.884.2 1.33.279.62.107 1.246.186 1.872.259.77.087 1.542.155 2.315.216.855.068 1.712.1 2.57.122q1.382.033 2.765.019c.97-.012 1.939-.06 2.908-.106 1.045-.049 2.091-.095 3.137-.151 1.047-.055 2.092-.13 3.137-.21q1.583-.122 3.164-.257c1.051-.09 2.1-.202 3.15-.311a247 247 0 0 1 12.029-.963q1.317-.073 2.634-.141 1.303-.064 2.606-.125a476 476 0 0 1 4.763-.213 389 389 0 0 1 1.902-.075 74 74 0 0 1 1.684-.035q.705-.01 1.41-.005.558.004 1.114.012l.878.02.684.017.544.013.434.011.063.002c.134.002-.22-.016-.508.038-.515.098-.513.137-1.038.368a3.24 3.24 0 0 0-1.539 2.08c-.04.344-.02-.104-.02-.17.003-.354-.014-.707-.031-1.06q-.055-.977-.102-1.954-.059-1.33-.137-2.66c-.064-1.064-.145-2.127-.226-3.19-.091-1.194-.19-2.386-.28-3.58-.102-1.364-.181-2.73-.255-4.096a366 366 0 0 1-.202-4.4 531 531 0 0 1-.16-4.418 557 557 0 0 1-.163-8.674 1854 1854 0 0 1-.082-8.298c-.014-1.273-.005-2.546.015-3.82.022-1.233.06-2.467.098-3.7a270 270 0 0 1 .3-6.833q.093-1.5.205-3a177 177 0 0 1 .488-5.208l.206-1.945.164-1.548.13-1.235.105-.984c.015-.12.036-.345.033-.424-.016.444.157.859.357 1.244.25.425.61.757 1.04.992.042.044.352.121.13.082a11 11 0 0 0-.736-.087 70 70 0 0 1-1.562-.135 42 42 0 0 1-2.188-.3q-1.18-.192-2.36-.392-1.252-.21-2.506-.403a85 85 0 0 0-5.343-.627 124 124 0 0 0-6.064-.388 136 136 0 0 0-3.191-.093 87 87 0 0 0-3.241.014c-1.111.023-2.221.069-3.331.119q-1.65.074-3.298.18-1.618.106-3.234.231-1.545.125-3.086.274-1.49.15-2.98.288-1.383.126-2.765.259-1.295.125-2.591.24-1.17.105-2.342.199-1.04.088-2.08.171-.938.074-1.874.143l-1.577.118-1.289.094-1.053.079q-.405.031-.812.07l-.667.06c.096.01.495-.12.6-.153-4.502 1.842-7.107-4.525-2.605-6.367.44-.152.878-.3 1.346-.327q.354-.034.71-.065.456-.043.912-.078l1.076-.08 1.276-.094 1.566-.117q.921-.068 1.841-.14l2.07-.17a264 264 0 0 0 4.837-.431q1.39-.134 2.783-.26 1.48-.137 2.961-.287 1.605-.155 3.212-.284a252 252 0 0 1 3.325-.237 180 180 0 0 1 6.934-.313 94 94 0 0 1 3.507-.014 144 144 0 0 1 6.63.27c1.039.07 2.077.145 3.113.238a92 92 0 0 1 5.764.678q1.302.2 2.6.418 1.151.194 2.304.383a35 35 0 0 0 1.81.25c.506.052 1.014.088 1.521.131.46.045.92.095 1.376.18.522.103 1.042.231 1.526.461.754.381 1.418.89 1.867 1.621.406.734.679 1.514.66 2.364q-.004.572-.071 1.14l-.104.984-.131 1.234-.164 1.549-.205 1.94q-.126 1.178-.24 2.359-.126 1.324-.23 2.65-.11 1.445-.198 2.89a263 263 0 0 0-.291 6.63c-.036 1.2-.074 2.398-.096 3.597a141 141 0 0 0-.014 3.656 3196 3196 0 0 0 .082 8.272 590 590 0 0 0 .062 4.243c.028 1.432.055 2.863.097 4.294q.07 2.178.158 4.357c.06 1.437.122 2.874.198 4.31.071 1.319.147 2.637.246 3.953.09 1.192.188 2.382.28 3.573.084 1.103.168 2.206.233 3.31q.082 1.372.142 2.745.045.969.101 1.938c.024.49.045.982.04 1.473-.006.436-.015.873-.088 1.304-.246 1.125-.8 2.07-1.816 2.677-.673.307-1.348.561-2.102.5l-.434-.011-.545-.013-.682-.017-.837-.02q-.517-.008-1.036-.011a49 49 0 0 0-1.271.004c-.509.007-1.017.014-1.525.032q-.935.034-1.868.073l-2.22.094q-1.245.055-2.49.117c-.863.042-1.726.08-2.589.124q-1.298.066-2.594.138a272 272 0 0 0-5.553.374 241 241 0 0 0-6.154.563c-1.092.115-2.185.23-3.28.324q-1.614.138-3.23.262c-1.095.083-2.19.162-3.286.22-1.06.057-2.12.104-3.181.153-1.056.05-2.111.102-3.168.113q-1.507.015-3.016-.02a56 56 0 0 1-2.922-.141 75 75 0 0 1-2.58-.242 41 41 0 0 1-2.27-.318 22 22 0 0 1-1.965-.422c-.555-.155-1.109-.32-1.64-.549-.739-.346-1.426-.782-1.937-1.433-.504-.695-.877-1.454-.953-2.321a9 9 0 0 1-.026-1.03l.01-.827.013-1.039.016-1.297.018-1.596.008-1.95.009-2.408q.006-1.362.007-2.725.003-1.467.002-2.935l-.005-3.013q-.003-1.582-.018-3.166a207 207 0 0 0-.17-7.156q-.071-1.949-.157-3.897-.088-2.013-.198-4.025a327 327 0 0 0-.246-4.074 778 778 0 0 0-.287-4.041l-.284-3.888a293 293 0 0 0-.277-3.52q-.143-1.62-.29-3.244-.126-1.48-.246-2.96-.104-1.315-.222-2.628l-.206-2.304q-.086-1.017-.179-2.033l-.15-1.774q-.068-.777-.132-1.555c-.03-.412-.055-.825-.086-1.237-.02-.255-.04-.51-.073-.765-.011-.08-.043-.251.007-.068.074.206.168.403.294.582-2.727-4.028 2.97-7.885 5.697-3.857" transform="translate(0 -197)"/><path style="opacity:1;fill:#020900;fill-opacity:1;stroke:none;stroke-width:1;stroke-linecap:butt;stroke-linejoin:round;stroke-miterlimit:4;stroke-dasharray:none;stroke-opacity:1" d="M33.143 245.774c0 .154-.007.308-.012.462q-.006.198-.01.397c.004-.026.003-.038.013.013q.03.153.073.302c.007.04.027.075.044.112-.022-.078-.125-.222-.187-.307-.256-.329-.604-.552-.983-.713a1.9 1.9 0 0 0-.58-.12 1.2 1.2 0 0 0-.335.049c-.18.052-.333.16-.481.27-.085.057-.23.22-.273.262.036-.068.073-.137.099-.21a1.2 1.2 0 0 0-.091.336c-.02.022.004.332-.028.173a4 4 0 0 0-.09-.33c-.09-.24.011.01.056.1.138.258.329.479.557.66.372.282.823.388 1.277.443.414.035.796-.064 1.171-.226.072.018.55-.392.46-.29-3.355 3.523-8.336-1.221-4.982-4.744.407-.422.847-.813 1.373-1.083.724-.341 1.479-.565 2.289-.529.853.078 1.668.292 2.372.803.57.419 1.083.906 1.44 1.526.233.428.437.869.57 1.34.111.371.212.746.28 1.128.094.544.155 1.096.106 1.648-.061.562-.17 1.117-.39 1.64-.16.385-.338.763-.55 1.122-.326.538-.696 1.049-1.177 1.46-.496.402-1.028.75-1.635.965-.549.191-1.113.334-1.697.358-.672.023-1.344-.027-1.984-.248-.794-.302-1.519-.726-2.064-1.392-.33-.416-.627-.857-.832-1.35a8 8 0 0 1-.382-1.08 11 11 0 0 1-.217-.977 7 7 0 0 1-.1-1.204q.004-.264.012-.529c.003-.076.005-.17.01-.237 0-4.864 6.878-4.864 6.878 0m17.604 1.93c.252-.119.468-.29.666-.482.045-.043.168-.19.183-.207a2 2 0 0 0-.12.26c-.01.022-.06.179-.025.09.012-.018.02-.128.026-.046q.01.177.032.353c.006-.072-.097-.347-.148-.47a1.8 1.8 0 0 0-.3-.459 2.1 2.1 0 0 0-.695-.473c-.188-.08-.39-.1-.593-.108a1.9 1.9 0 0 0-.755.164c-.213.098-.4.24-.56.41-.047.036-.073.092-.102.143-.026.046-.038.097-.05.148-.013.103.007.204.02.305.004.03.015.067.017.077.306.46.804.714 1.302.908-4.658-1.399-2.68-7.987 1.978-6.589.922.334 1.73.84 2.3 1.658.343.486.65.998.855 1.56.241.677.41 1.377.407 2.1-.012.691-.087 1.379-.312 2.036-.23.653-.524 1.28-.95 1.832-.494.622-1.062 1.176-1.778 1.54-.684.328-1.402.566-2.169.584-.657.003-1.31-.064-1.931-.293-.672-.255-1.305-.594-1.818-1.108-.41-.418-.78-.872-1.04-1.4-.241-.527-.43-1.073-.496-1.651a12 12 0 0 1-.09-1.06c-.013-.515.006-1.031.11-1.538a7.5 7.5 0 0 1 .4-1.32c.139-.336.29-.667.466-.985.234-.416.492-.82.82-1.17.371-.375.773-.718 1.251-.951 4.343-2.191 7.442 3.95 3.099 6.142m13.623-.622c.588.04 1.146-.112 1.658-.389a2.1 2.1 0 0 0 .551-.464c.04-.037-.046.125-.06.156-.056.133-.097.27-.132.41-.036.143-.047.29-.06.436-.017.198-.01.397-.004.595-.003.122.021.364.034.435-.025-.223-.124-.426-.237-.616.007-.027-.21-.238-.112-.179.269.131-.22-.09-.252-.102a2 2 0 0 0-.983-.04c-.064.015-.138.041-.191.057-.045.019-.103.078-.043-.003.155-.213.105-.177-.021.058-.133.265-.175.552-.177.845.028.258-.058-.161-.07-.21a24 24 0 0 0-.17-.636 1 1 0 0 0-.06-.175.6.6 0 0 0 .062.12c.093.12-.026-.005.073.097.323.314.728.499 1.153.629-4.731-1.13-3.134-7.82 1.598-6.691.697.195 1.356.482 1.892.985.307.29.6.594.849.936.258.366.495.747.672 1.16.15.351.284.708.384 1.077q.121.434.23.871c.11.451.215.906.25 1.37.034.814-.05 1.617-.38 2.372-.261.556-.568 1.083-.965 1.553-.396.476-.825.924-1.335 1.28-.55.373-1.128.7-1.767.893-.903.25-1.826.344-2.747.106-.707-.21-1.38-.495-1.977-.937-.563-.405-1.092-.858-1.501-1.425-.452-.663-.809-1.376-.945-2.175a10 10 0 0 1-.14-1.457c-.014-.485-.015-.97.032-1.453.051-.516.123-1.03.257-1.532a10 10 0 0 1 .477-1.401c.21-.472.44-.936.736-1.361.402-.555.861-1.064 1.45-1.428.722-.413 1.495-.687 2.34-.636 4.858.26 4.489 7.13-.368 6.87z" transform="translate(0 -197)"/></svg>