<svg viewBox="0 0 100 100"><path style="opacity:1;fill:#020900;fill-opacity:1;stroke:none;stroke-width:1;stroke-linecap:butt;stroke-linejoin:round;stroke-miterlimit:4;stroke-dasharray:none;stroke-opacity:1" d="M28.857 237.255q.024.303.036.606c.016.408.023.816.03 1.223q.016.941.024 1.883.01 1.2.023 2.398.018 1.448.033 2.896.017 1.584.025 3.167c.005 1.073-.004 2.145-.014 3.218a137 137 0 0 1-.067 3.175 750 750 0 0 0-.092 3.127q-.042 1.575-.074 3.15a82 82 0 0 0 .006 3.124q.028 1.605.076 3.208l.095 3.101a1147 1147 0 0 1 .142 5.101c.02.658.029 1.316.038 1.975q.01.777.023 1.554c-.01.121.024.37.047.442-.05-.284-.205-.529-.383-.75-.015-.07-.375-.28-.159-.202.265.099.54.157.817.213a13 13 0 0 0 1.525.175c.684.05 1.37.054 2.055.054a73 73 0 0 0 2.348-.05 113 113 0 0 0 2.47-.125 64 64 0 0 0 2.47-.2q1.287-.124 2.575-.257c.866-.09 1.733-.17 2.6-.252l2.546-.233q1.29-.12 2.582-.223 1.312-.1 2.626-.196a182 182 0 0 1 5.577-.31c.976-.038 1.953-.06 2.929-.074.94-.013 1.881-.005 2.822.005l2.482.029q1.064.01 2.127.03.862.017 1.726.04c.495.016.99.046 1.484.077l1.115.071.984.062.015-.001a2 2 0 0 0-.561.053c-.146.035-.288.087-.432.13-.902.381-1.557 1.111-1.805 2.058-.02.213-.02-.427-.028-.64a21 21 0 0 0-.192-1.898c-.132-.926-.273-1.851-.406-2.777a212 212 0 0 1-.438-3.31 156 156 0 0 1-.398-3.413 149 149 0 0 1-.322-3.532 271 271 0 0 1-.253-3.49 351 351 0 0 1-.202-3.278q-.092-1.56-.152-3.12a108 108 0 0 1-.053-3.097 85 85 0 0 1 .046-3.026c.037-.957.088-1.913.138-2.87.047-.862.103-1.723.158-2.585q.07-1.07.151-2.14a984 984 0 0 0 .311-4.256l.071-.91c-.01-.434.055.45.059.47.026.118.066.233.1.35.186.539.538.95.982 1.292.263.189.56.306.871.386a12 12 0 0 0-.606-.016c-.426-.002-.852.009-1.278.018q-.918.019-1.834.032l-2.208.026q-1.245.01-2.488.004-1.326-.014-2.65-.032a1043 1043 0 0 0-5.528-.055q-1.362-.014-2.726-.007-1.386.01-2.773.039a973 973 0 0 1-5.859.1q-1.434.016-2.868.041-1.346.025-2.69.07-1.198.036-2.393.116c-.713.05-1.425.113-2.137.175q-.921.078-1.841.167l-1.565.15-1.266.126q-.495.048-.992.1-.171.018-.342.04c-4.824.622-5.704-6.2-.88-6.822q.25-.032.502-.059.517-.054 1.033-.105l1.275-.126 1.577-.151q.951-.092 1.904-.174c.76-.066 1.52-.133 2.282-.185a75 75 0 0 1 2.623-.128q1.39-.045 2.777-.072 1.453-.026 2.906-.042a865 865 0 0 0 5.822-.099q1.432-.029 2.865-.04 1.41-.008 2.82.007a1188 1188 0 0 1 5.56.055q1.3.018 2.602.032 1.19.006 2.38-.004 1.088-.01 2.177-.026a274 274 0 0 0 1.789-.031c.498-.01.996-.023 1.494-.02.461.006.923.015 1.382.069.747.1 1.472.298 2.107.722.724.528 1.315 1.166 1.637 2.018.216.693.35 1.394.256 2.122l-.07.904q-.043.556-.081 1.113a766 766 0 0 1-.228 3.126c-.052.69-.104 1.38-.147 2.072-.053.833-.108 1.667-.153 2.501-.048.91-.096 1.82-.132 2.73q-.046 1.385-.043 2.77c.005.96.016 1.918.049 2.877q.056 1.492.145 2.983.091 1.605.197 3.21.112 1.697.247 3.394c.091 1.122.188 2.243.306 3.363.116 1.092.24 2.184.381 3.274.136 1.067.272 2.135.424 3.2.136.946.28 1.891.414 2.837.115.856.217 1.715.25 2.579.022.693.035 1.391-.075 2.079-.303 1.435-.997 2.48-2.367 3.108-.706.234-1.415.393-2.163.309l-.884-.057-1.102-.07c-.42-.027-.841-.053-1.262-.067q-.829-.023-1.657-.038-1.035-.02-2.071-.03l-2.471-.029c-.887-.009-1.773-.017-2.66-.005q-1.376.018-2.75.07-1.36.052-2.719.13-1.317.074-2.633.167-1.29.094-2.577.192-1.252.1-2.503.217l-2.532.232q-1.27.116-2.537.245-1.31.136-2.623.261c-.906.087-1.813.17-2.722.22-.877.052-1.755.1-2.634.133a80 80 0 0 1-2.586.054c-.856 0-1.713-.01-2.566-.073-.81-.06-1.62-.138-2.416-.3-.724-.154-1.443-.335-2.126-.625-.757-.333-1.482-.733-2.067-1.33-.631-.691-1.136-1.466-1.358-2.389a8.8 8.8 0 0 1-.247-1.966c-.01-.528-.015-1.056-.023-1.584-.01-.63-.018-1.26-.037-1.89l-.063-2.325q-.037-1.377-.078-2.752-.046-1.555-.095-3.11-.05-1.646-.079-3.291a89 89 0 0 1-.005-3.378q.033-1.6.076-3.2.043-1.573.092-3.145c.03-1.012.057-2.023.064-3.035.01-1.041.019-2.083.014-3.125q-.007-1.56-.025-3.122-.014-1.445-.033-2.89-.014-1.205-.023-2.408-.008-.914-.022-1.826c-.007-.35-.013-.7-.026-1.05a9 9 0 0 0-.023-.395c-.36-4.85 6.501-5.359 6.86-.508m16.2-10.575c-.313-.517-.506-1.091-.687-1.664a70 70 0 0 1-.589-2.05 42 42 0 0 1-.552-2.356 50 50 0 0 1-.44-2.494 119 119 0 0 1-.338-2.374q-.133-.992-.261-1.984c-.066-.504-.125-1.009-.197-1.511a8 8 0 0 0-.075-.426c-.916-4.777 5.84-6.073 6.756-1.295.047.249.094.499.129.75.076.534.14 1.069.21 1.604q.125.972.256 1.944c.1.743.2 1.485.315 2.226.113.72.23 1.438.378 2.152.137.657.284 1.313.459 1.962q.243.902.514 1.795c.025.082.185.51.008.16 2.518 4.162-3.368 7.723-5.886 3.56m19.366-3.298c-.436.076-.807.284-1.17.517.178-.213.344-.436.512-.657a68 68 0 0 1 1.25-1.607c.428-.53.863-1.054 1.294-1.581q.66-.795 1.284-1.62.645-.852 1.27-1.72.373-.515.74-1.032c2.81-3.97 8.426.004 5.615 3.974q-.388.548-.781 1.091-.674.934-1.368 1.851a54 54 0 0 1-1.439 1.816q-.623.756-1.24 1.516-.585.726-1.145 1.47c-.396.522-.794 1.046-1.27 1.5-.603.557-1.263 1.021-2.083 1.203-4.752 1.039-6.221-5.682-1.47-6.72m-39.037 4.934c-.338-.201-.637-.457-.938-.707a33 33 0 0 0-.97-.778 39 39 0 0 0-1.61-1.193 254 254 0 0 0-2.268-1.575q-1.2-.834-2.43-1.621c-.766-.488-1.538-.967-2.31-1.446l-1.924-1.193c-.478-.294-.95-.598-1.438-.875-.203-.109-.102-.056-.302-.158-4.325-2.228-1.175-8.343 3.15-6.116.378.196.187.094.573.306.555.319 1.097.658 1.64.996q.966.597 1.931 1.197c.8.497 1.6.993 2.395 1.499a84 84 0 0 1 2.615 1.744q1.183.812 2.355 1.636c.627.446 1.25.898 1.854 1.375.382.299.763.599 1.135.911.154.128.423.332.06.087 4.18 2.489.661 8.4-3.518 5.91" transform="translate(0 -197)"/></svg>