<?xml version="1.0" encoding="UTF-8" standalone="no"?>
<!-- Created with Inkscape (http://www.inkscape.org/) -->

<svg
   xmlns:dc="http://purl.org/dc/elements/1.1/"
   xmlns:cc="http://creativecommons.org/ns#"
   xmlns:rdf="http://www.w3.org/1999/02/22-rdf-syntax-ns#"
   xmlns:svg="http://www.w3.org/2000/svg"
   xmlns="http://www.w3.org/2000/svg"
   xmlns:sodipodi="http://sodipodi.sourceforge.net/DTD/sodipodi-0.dtd"
   xmlns:inkscape="http://www.inkscape.org/namespaces/inkscape"
   width="10cm"
   height="10cm"
   viewBox="0 0 100 99.999997"
   version="1.1"
   id="svg8"
   sodipodi:docname="sona.svg"
   inkscape:version="0.92.3 (2405546, 2018-03-11)">
  <defs
     id="defs2" />
  <sodipodi:namedview
     id="base"
     pagecolor="#ffffff"
     bordercolor="#666666"
     borderopacity="1.0"
     inkscape:pageopacity="0.0"
     inkscape:pageshadow="2"
     inkscape:zoom="1"
     inkscape:cx="175.50186"
     inkscape:cy="186.50542"
     inkscape:document-units="cm"
     inkscape:current-layer="layer1"
     showgrid="true"
     units="cm"
     inkscape:window-width="881"
     inkscape:window-height="707"
     inkscape:window-x="971"
     inkscape:window-y="213"
     inkscape:window-maximized="0"
     inkscape:snap-nodes="false">
    <inkscape:grid
       type="xygrid"
       id="grid815"
       units="cm"
       spacingx="9.9999998"
       spacingy="9.9999998" />
  </sodipodi:namedview>
  <metadata
     id="metadata5">
    <rdf:RDF>
      <cc:Work
         rdf:about="">
        <dc:format>image/svg+xml</dc:format>
        <dc:type
           rdf:resource="http://purl.org/dc/dcmitype/StillImage" />
        <dc:title></dc:title>
      </cc:Work>
    </rdf:RDF>
  </metadata>
  <g
     inkscape:label="Layer 1"
     inkscape:groupmode="layer"
     id="layer1"
     transform="translate(0,-197.00002)">
    <path
       style="opacity:1;fill:#020900;fill-opacity:1;stroke:none;stroke-width:1;stroke-linecap:butt;stroke-linejoin:round;stroke-miterlimit:4;stroke-dasharray:none;stroke-opacity:1"
       id="path1505"
       d="m 28.857315,237.25539 c 0.01656,0.20163 0.02652,0.40369 0.03539,0.60578 0.01617,0.40753 0.02368,0.81534 0.03101,1.22311 0.01056,0.62749 0.01696,1.25504 0.0231,1.88259 0.0061,0.79948 0.01437,1.59893 0.0232,2.39838 0.01201,0.96529 0.02294,1.9306 0.03294,2.89592 0.01061,1.05562 0.02101,2.11126 0.02508,3.16693 0.005,1.07255 -0.0039,2.14507 -0.01426,3.21755 -0.0073,1.05876 -0.03455,2.11717 -0.06641,3.17542 -0.03291,1.04239 -0.06361,2.08485 -0.09217,3.12737 -0.02841,1.04964 -0.05322,2.09937 -0.07437,3.14918 -0.02236,1.04151 -0.01167,2.08326 0.0058,3.12474 0.01797,1.0694 0.0456,2.13859 0.07649,3.20768 0.03179,1.03378 0.06416,2.06754 0.09518,3.10134 0.02758,0.92325 0.05339,1.84655 0.07874,2.76987 0.02111,0.77702 0.042,1.55405 0.06269,2.33109 0.01974,0.65795 0.02922,1.31613 0.03867,1.9743 0.0081,0.51799 0.01259,1.03604 0.02241,1.554 -0.0092,0.12167 0.02394,0.36996 0.04755,0.44282 -0.04945,-0.28406 -0.205709,-0.52931 -0.383286,-0.74997 -0.01535,-0.0696 -0.374605,-0.28094 -0.158753,-0.20204 0.264239,0.0982 0.540634,0.15657 0.816271,0.21211 0.503407,0.0964 1.014677,0.13847 1.525162,0.17586 0.684096,0.0487 1.370049,0.0537 2.055529,0.0536 0.782852,-0.002 1.565521,-0.0223 2.34786,-0.0496 0.82396,-0.0309 1.647248,-0.0772 2.470346,-0.12533 0.824658,-0.0465 1.647176,-0.12198 2.469263,-0.20062 0.858642,-0.0819 1.71682,-0.16845 2.574846,-0.25654 0.86633,-0.0894 1.733478,-0.17054 2.600632,-0.25143 0.848463,-0.0787 1.697053,-0.15603 2.545627,-0.23352 0.860097,-0.08 1.720699,-0.15425 2.581778,-0.22291 0.875374,-0.0667 1.750832,-0.13236 2.626452,-0.19576 0.911784,-0.066 1.824242,-0.12203 2.736903,-0.17429 0.946407,-0.0539 1.893258,-0.0991 2.840453,-0.1365 0.975794,-0.0377 1.952064,-0.0604 2.928469,-0.0738 0.940639,-0.013 1.881365,-0.005 2.821988,0.005 0.827498,0.009 1.654982,0.0192 2.482472,0.0289 0.708988,0.007 1.417925,0.0165 2.126808,0.0305 0.575177,0.0118 1.150358,0.0236 1.725408,0.0406 0.495293,0.0152 0.98992,0.0455 1.484432,0.0763 0.371713,0.0234 0.743394,0.0473 1.115079,0.0711 0.294716,0.0189 0.58943,0.0378 0.884144,0.0568 0.03312,0.002 0.06624,0.004 0.09937,0.005 0.0052,-5.2e-4 0.02098,-10e-4 0.01574,-10e-4 -0.183481,-0.0121 -0.385411,0.0104 -0.561721,0.053 -0.145955,0.0353 -0.287464,0.087 -0.431199,0.13043 -0.902915,0.381 -1.557441,1.11076 -1.805927,2.05742 -0.01879,0.21277 -0.01958,-0.42674 -0.02743,-0.64019 -0.02714,-0.63586 -0.106704,-1.26753 -0.191802,-1.89772 -0.132484,-0.92599 -0.273002,-1.85081 -0.40587,-2.77675 -0.157615,-1.1021 -0.298437,-2.2065 -0.438653,-3.31092 -0.146344,-1.13572 -0.2764,-2.2734 -0.397674,-3.41203 -0.124124,-1.17572 -0.225679,-2.35363 -0.321771,-3.53191 -0.0935,-1.16302 -0.175273,-2.32693 -0.253767,-3.49104 -0.07314,-1.09188 -0.138591,-2.18425 -0.201504,-3.27677 -0.06137,-1.03968 -0.112508,-2.07989 -0.151675,-3.12064 -0.03536,-1.03201 -0.0479,-2.06462 -0.05353,-3.09716 -0.004,-1.00877 0.01471,-2.0174 0.04649,-3.02561 0.03664,-0.9568 0.08778,-1.91296 0.137525,-2.86914 0.04705,-0.86245 0.103098,-1.72437 0.158642,-2.5863 0.04437,-0.71373 0.0979,-1.42684 0.150966,-2.13996 0.0426,-0.56921 0.08444,-1.13849 0.12605,-1.70778 0.03403,-0.4655 0.06728,-0.93106 0.100457,-1.39663 0.02663,-0.38376 0.05494,-0.7674 0.08441,-1.15095 0.02344,-0.30346 0.04706,-0.6069 0.07067,-0.91034 -0.0096,-0.43356 0.05447,0.45078 0.05858,0.46923 0.02648,0.11881 0.06641,0.23422 0.09961,0.35133 0.186304,0.53849 0.538356,0.94892 0.982686,1.29114 0.262967,0.18915 0.560904,0.30605 0.871249,0.38621 -0.201879,-0.0121 -0.404145,-0.0141 -0.606332,-0.016 -0.426119,-0.002 -0.852125,0.009 -1.278109,0.0179 -0.611241,0.0132 -1.222542,0.0231 -1.833857,0.0321 -0.735914,0.0106 -1.471863,0.0185 -2.207815,0.026 -0.829479,0.007 -1.659017,0.008 -2.488512,0.004 -0.883365,-0.008 -1.766671,-0.0209 -2.649995,-0.0321 -0.913596,-0.0115 -1.82721,-0.0212 -2.740832,-0.0303 -0.928757,-0.009 -1.857524,-0.0169 -2.786296,-0.0243 -0.908703,-0.009 -1.81743,-0.012 -2.726163,-0.007 -0.92455,0.006 -1.849014,0.021 -2.773405,0.0388 -0.969706,0.0197 -1.939441,0.0379 -2.909199,0.0547 -0.983086,0.017 -1.966214,0.0314 -2.949353,0.045 -0.956186,0.0127 -1.91239,0.0232 -2.868488,0.0416 -0.896927,0.017 -1.793698,0.0404 -2.690323,0.0691 -0.798111,0.024 -1.595514,0.0646 -2.392222,0.11705 -0.713068,0.0489 -1.425025,0.11229 -2.137051,0.17418 -0.614272,0.0518 -1.228076,0.10886 -1.841706,0.16775 -0.521467,0.0503 -1.043051,0.0994 -1.564444,0.15046 -0.422045,0.0415 -0.844058,0.0834 -1.266074,0.12524 -0.330774,0.0322 -0.661392,0.0658 -0.991899,0.1006 -0.114318,0.0105 -0.228177,0.0251 -0.341982,0.04 -4.824389,0.62188 -5.703858,-6.20083 -0.879467,-6.82271 v 0 c 0.166828,-0.0213 0.333695,-0.0424 0.501113,-0.0587 0.344416,-0.0363 0.688951,-0.0713 1.033645,-0.10487 0.424707,-0.0421 0.849408,-0.0842 1.274146,-0.12603 0.525857,-0.0515 1.051896,-0.10105 1.57783,-0.15176 0.634105,-0.0608 1.268394,-0.11975 1.903158,-0.17336 0.760513,-0.0661 1.520973,-0.13352 2.282632,-0.18529 0.873585,-0.0571 1.747893,-0.102 2.622994,-0.12829 0.925629,-0.0295 1.851406,-0.0538 2.777345,-0.0713 0.968396,-0.0186 1.936893,-0.0295 2.905379,-0.0422 0.97513,-0.0135 1.950249,-0.0278 2.925328,-0.0446 0.965677,-0.0168 1.931326,-0.0349 2.896947,-0.0545 0.95476,-0.0182 1.909596,-0.0337 2.864519,-0.0399 0.940433,-0.005 1.880857,-0.003 2.821258,0.007 0.933466,0.007 1.866929,0.0152 2.800379,0.0244 0.919699,0.009 1.839391,0.0189 2.759064,0.0305 0.867045,0.011 1.734069,0.0238 2.601148,0.0317 0.79362,0.004 1.587286,0.003 2.38089,-0.004 0.725416,-0.007 1.45083,-0.0152 2.176206,-0.0256 0.596466,-0.009 1.192919,-0.0184 1.789311,-0.0313 0.498044,-0.0106 0.99613,-0.0226 1.494332,-0.019 0.461164,0.005 0.923081,0.0142 1.38167,0.0678 0.74744,0.10019 1.472271,0.29868 2.107285,0.72258 0.724177,0.52754 1.315008,1.1656 1.636598,2.01808 0.216123,0.69224 0.350703,1.39419 0.256662,2.12204 -0.02344,0.30128 -0.04691,0.60256 -0.07017,0.90386 -0.0285,0.37082 -0.05586,0.74171 -0.08159,1.11274 -0.03347,0.46973 -0.06702,0.93945 -0.101356,1.40911 -0.04183,0.57232 -0.0839,1.14462 -0.12672,1.71687 -0.05138,0.69042 -0.103322,1.38082 -0.146238,2.07183 -0.05372,0.83363 -0.107989,1.66724 -0.153693,2.50135 -0.04734,0.9098 -0.09598,1.81959 -0.131694,2.72993 -0.02952,0.9232 -0.04634,1.8468 -0.04312,2.77051 0.005,0.95883 0.01654,1.91772 0.04879,2.87607 0.03722,0.99491 0.08657,1.98927 0.145135,2.98316 0.06161,1.07008 0.125695,2.14002 0.197302,3.20948 0.07631,1.13204 0.155758,2.26387 0.246602,3.39484 0.09141,1.12181 0.187852,2.24327 0.305864,3.36265 0.116237,1.09253 0.241107,2.18412 0.38155,3.27384 0.135528,1.06756 0.271468,2.13514 0.42372,3.20048 0.135686,0.94617 0.279924,1.89109 0.414303,2.83745 0.114552,0.85599 0.216583,1.71452 0.249042,2.57823 0.02265,0.69352 0.03628,1.39151 -0.0746,2.07913 -0.303014,1.43489 -0.996736,2.48015 -2.367021,3.10808 -0.705975,0.23416 -1.414515,0.39334 -2.163059,0.30865 -0.294608,-0.0189 -0.589216,-0.0378 -0.883827,-0.0567 -0.367374,-0.0236 -0.734745,-0.0472 -1.102148,-0.0703 -0.420294,-0.0262 -0.840651,-0.0527 -1.261595,-0.0661 -0.55223,-0.0165 -1.104606,-0.0274 -1.656961,-0.0389 -0.690319,-0.0137 -1.380691,-0.0229 -2.071116,-0.0296 -0.823722,-0.01 -1.647441,-0.0197 -2.471171,-0.0288 -0.886288,-0.009 -1.772674,-0.0169 -2.65898,-0.005 -0.917401,0.0124 -1.834669,0.0338 -2.7515,0.0691 -0.906407,0.0356 -1.812475,0.0791 -2.718128,0.13059 -0.878118,0.0502 -1.75604,0.10409 -2.633314,0.16757 -0.859012,0.0622 -1.71786,0.12666 -2.576642,0.19198 -0.834712,0.0665 -1.668952,0.13856 -2.502712,0.21615 -0.844124,0.0771 -1.688264,0.154 -2.532279,0.23228 -0.845942,0.0789 -1.691881,0.15802 -2.537018,0.2452 -0.873959,0.0897 -1.748076,0.17787 -2.622662,0.26128 -0.906332,0.0866 -1.813213,0.16874 -2.722361,0.22011 -0.877541,0.0513 -1.755293,0.1004 -2.633763,0.13295 -0.861946,0.0297 -1.724245,0.0516 -2.586749,0.0537 -0.855813,-2.7e-4 -1.712116,-0.0102 -2.566054,-0.0726 -0.809498,-0.0611 -1.619096,-0.13893 -2.415651,-0.30116 -0.723659,-0.15308 -1.443365,-0.33448 -2.126103,-0.62473 -0.756435,-0.33264 -1.482002,-0.73252 -2.0663,-1.32926 -0.631529,-0.69145 -1.136816,-1.46612 -1.358044,-2.38918 -0.149901,-0.64585 -0.245584,-1.3012 -0.247588,-1.96586 -0.0098,-0.52794 -0.01488,-1.05595 -0.02291,-1.58391 -0.0091,-0.63007 -0.01796,-1.26016 -0.03695,-1.89003 -0.02064,-0.77513 -0.04147,-1.55027 -0.06253,-2.32539 -0.02519,-0.91749 -0.05084,-1.83497 -0.07824,-2.7524 -0.03109,-1.03637 -0.06356,-2.07269 -0.0954,-3.10904 -0.03167,-1.09703 -0.05998,-2.19416 -0.0784,-3.29151 -0.0187,-1.12595 -0.02955,-2.25218 -0.0053,-3.37817 0.02152,-1.06639 0.04667,-2.1327 0.07555,-3.19891 0.02874,-1.04878 0.0596,-2.09749 0.09271,-3.14614 0.0305,-1.01134 0.05683,-2.02284 0.06361,-3.03467 0.01006,-1.04154 0.01886,-2.08313 0.01398,-3.12474 -0.004,-1.04074 -0.01439,-2.08144 -0.02478,-3.12214 -0.01,-0.96371 -0.02089,-1.92741 -0.03289,-2.89109 -0.0089,-0.80236 -0.01718,-1.60471 -0.0233,-2.4071 -0.006,-0.60884 -0.01215,-1.21769 -0.02233,-1.82649 -0.0063,-0.34987 -0.01248,-0.69978 -0.0257,-1.04947 -0.0055,-0.13166 -0.01175,-0.26332 -0.02301,-0.39464 -0.35932,-4.85101 6.501052,-5.35917 6.860372,-0.50815 z"
       inkscape:connector-curvature="0" />
    <path
       style="opacity:1;fill:#020900;fill-opacity:1;stroke:none;stroke-width:1;stroke-linecap:butt;stroke-linejoin:round;stroke-miterlimit:4;stroke-dasharray:none;stroke-opacity:1"
       id="path1507"
       d="m 45.05702,226.67986 c -0.312624,-0.51702 -0.505645,-1.09094 -0.686726,-1.66375 -0.207394,-0.68016 -0.402416,-1.36397 -0.588833,-2.05014 -0.210489,-0.77892 -0.387456,-1.56622 -0.552942,-2.35574 -0.171262,-0.82684 -0.309293,-1.65996 -0.440336,-2.49396 -0.122327,-0.78993 -0.230439,-1.58196 -0.337092,-2.37414 -0.08856,-0.66126 -0.175916,-1.32267 -0.261096,-1.98437 -0.06592,-0.5037 -0.125296,-1.00828 -0.197374,-1.51116 -0.02,-0.14272 -0.04716,-0.28422 -0.07481,-0.4256 -0.916053,-4.77727 5.840026,-6.07277 6.75608,-1.2955 v 0 c 0.04734,0.24947 0.09387,0.49915 0.129103,0.7507 0.07571,0.53367 0.140952,1.06873 0.209871,1.60331 0.08347,0.64852 0.169113,1.29675 0.255889,1.94483 0.09994,0.74245 0.201012,1.48479 0.31538,2.22519 0.112832,0.71962 0.230815,1.43864 0.377815,2.15222 0.137247,0.65774 0.283972,1.31368 0.458581,1.96266 0.162777,0.6007 0.333907,1.19909 0.51421,1.79477 0.02529,0.0821 0.185237,0.51072 0.0083,0.16013 2.517685,4.16206 -3.368355,7.72261 -5.88604,3.56055 z"
       inkscape:connector-curvature="0" />
    <path
       style="opacity:1;fill:#020900;fill-opacity:1;stroke:none;stroke-width:1;stroke-linecap:butt;stroke-linejoin:round;stroke-miterlimit:4;stroke-dasharray:none;stroke-opacity:1"
       id="path1509"
       d="m 64.422858,223.38145 c -0.435433,0.0751 -0.806588,0.2836 -1.170252,0.51616 0.178673,-0.21263 0.34454,-0.4356 0.512276,-0.65684 0.407778,-0.54286 0.827082,-1.07686 1.250899,-1.60724 0.427662,-0.52971 0.861978,-1.054 1.29349,-1.58057 0.440761,-0.52962 0.86682,-1.07086 1.283626,-1.61944 0.429985,-0.56874 0.852943,-1.14271 1.270889,-1.72034 0.247602,-0.34333 0.495123,-0.68672 0.739598,-1.03228 2.810436,-3.97025 8.425222,0.004 5.614789,3.97456 v 0 c -0.258501,0.365 -0.519639,0.7281 -0.781447,1.09074 -0.449776,0.62142 -0.904822,1.239 -1.36765,1.85078 -0.467722,0.61485 -0.945092,1.22211 -1.438995,1.81624 -0.413805,0.50496 -0.83018,1.00784 -1.240766,1.51543 -0.387853,0.48507 -0.771385,0.97361 -1.144264,1.47033 -0.39618,0.52178 -0.793944,1.04627 -1.269201,1.50003 -0.603425,0.55687 -1.264341,1.02147 -2.084023,1.20294 -4.75211,1.03871 -6.221076,-5.68178 -1.468969,-6.7205 z"
       inkscape:connector-curvature="0" />
    <path
       style="opacity:1;fill:#020900;fill-opacity:1;stroke:none;stroke-width:1;stroke-linecap:butt;stroke-linejoin:round;stroke-miterlimit:4;stroke-dasharray:none;stroke-opacity:1"
       id="path1511"
       d="m 25.384544,228.3159 c -0.33733,-0.20122 -0.63673,-0.4564 -0.937852,-0.70657 -0.317092,-0.26698 -0.643036,-0.52313 -0.969884,-0.77798 -0.523959,-0.41452 -1.065232,-0.80607 -1.609628,-1.19308 -0.752532,-0.53008 -1.509758,-1.05346 -2.268006,-1.57531 -0.799172,-0.55678 -1.610394,-1.09562 -2.430215,-1.6214 -0.766364,-0.48731 -1.538132,-0.96606 -2.309587,-1.44525 -0.641426,-0.39806 -1.283144,-0.79565 -1.92483,-1.1933 -0.477963,-0.29363 -0.949701,-0.59763 -1.437262,-0.87527 -0.202927,-0.1087 -0.10206,-0.056 -0.302524,-0.15809 -4.3244318,-2.22727 -1.174588,-8.34294 3.149844,-6.11567 v 0 c 0.378694,0.19626 0.187351,0.0945 0.573816,0.30561 0.554382,0.31909 1.09672,0.65794 1.639697,0.99597 0.643763,0.39893 1.287558,0.79781 1.931057,1.19716 0.799982,0.49692 1.600273,0.99341 2.394787,1.49905 0.881976,0.56616 1.755313,1.14547 2.615399,1.74448 0.787351,0.54193 1.573661,1.0854 2.354899,1.63611 0.626832,0.44601 1.249611,0.89786 1.853478,1.37477 0.382479,0.29843 0.763608,0.59874 1.135025,0.91093 0.153937,0.1279 0.423664,0.33166 0.06111,0.0871 4.179549,2.48854 0.660223,8.39932 -3.519327,5.91078 z"
       inkscape:connector-curvature="0" />
  </g>
</svg>
