<svg viewBox="0 0 100 100"><path style="opacity:1;fill:#020900;fill-opacity:1;stroke:none;stroke-width:1;stroke-linecap:butt;stroke-linejoin:round;stroke-miterlimit:4;stroke-dasharray:none;stroke-opacity:1" d="M67.246 210.378a2.5 2.5 0 0 0-.37-.004q.296-.053.591-.102.57-.093 1.142-.167.834-.11 1.674-.145c.692-.025 1.382.026 2.07.097.643.071 1.28.18 1.915.301.633.12 1.26.27 1.88.44.654.178 1.291.408 1.922.651.578.225 1.147.47 1.713.72.613.27 1.215.565 1.808.876a18 18 0 0 1 2.002 1.24c.687.493 1.314 1.063 1.926 1.645a30 30 0 0 1 1.613 1.703c.498.56.97 1.144 1.426 1.739.47.616.9 1.26 1.323 1.909.424.65.82 1.32 1.214 1.989q.59.996 1.132 2.02c.372.699.709 1.416 1.027 2.14.348.798.642 1.616.92 2.438.303.901.562 1.816.806 2.734.235.904.445 1.813.638 2.727.2.933.323 1.878.4 2.828.073.966.035 1.934-.046 2.897-.086.92-.262 1.827-.466 2.727-.204.903-.493 1.782-.808 2.652a22 22 0 0 1-1.163 2.608c-.448.86-.987 1.666-1.549 2.456a32 32 0 0 1-1.698 2.145 40 40 0 0 1-1.855 1.98c-.65.662-1.35 1.272-2.07 1.854a24 24 0 0 1-2.326 1.62c-.825.513-1.691.95-2.568 1.367-.806.38-1.63.722-2.458 1.05a70 70 0 0 1-4.315 1.502q-.845.265-1.691.522-.68.207-1.36.41-.517.159-1.03.327c-.233.077-.47.144-.697.235-.084.031-.004.011-.005.014.09-.05.168-.12.24-.195.026-.017.073-.105.05-.027a6 6 0 0 0-.134.492c-.094.405-.166.815-.233 1.226a51 51 0 0 0-.248 1.854 73 73 0 0 0-.23 2.328 113 113 0 0 0-.312 5.139 305 305 0 0 0-.089 2.347l-.068 1.962-.055 1.57q-.02.618-.036 1.238l-.049 1.791-.012.639c-.002.128 0 .06-.005.205-.17 4.86-7.046 4.62-6.875-.242v-.014l.002-.077.012-.647q.009-.419.021-.838l.03-1.014q.016-.64.037-1.28l.055-1.57.068-1.966q.041-1.2.091-2.399a120 120 0 0 1 .33-5.433 79 79 0 0 1 .255-2.56 56 56 0 0 1 .29-2.147c.096-.583.2-1.165.338-1.74.138-.564.295-1.125.53-1.657.24-.529.515-1.043.882-1.497.38-.457.796-.881 1.295-1.209a7 7 0 0 1 1.373-.72q.515-.194 1.04-.356.569-.186 1.144-.362l1.349-.407q.81-.246 1.62-.5a64 64 0 0 0 3.866-1.343c.688-.271 1.37-.553 2.04-.868a19 19 0 0 0 1.876-.989 17 17 0 0 0 1.648-1.14 17 17 0 0 0 1.501-1.34 33 33 0 0 0 1.512-1.609c.462-.538.909-1.089 1.323-1.665.375-.524.74-1.058 1.043-1.629.304-.581.58-1.177.806-1.794a15 15 0 0 0 .565-1.825c.136-.594.258-1.193.32-1.8.053-.586.08-1.175.04-1.762a15 15 0 0 0-.273-1.948 53 53 0 0 0-.556-2.38c-.204-.77-.42-1.537-.672-2.293a24 24 0 0 0-.704-1.88 24 24 0 0 0-.804-1.677 42 42 0 0 0-.981-1.752c-.341-.58-.683-1.16-1.05-1.723a26 26 0 0 0-1.023-1.486q-.531-.7-1.112-1.359a23 23 0 0 0-1.213-1.287 13 13 0 0 0-1.153-1.009 11 11 0 0 0-1.228-.765 22 22 0 0 0-1.397-.676 34 34 0 0 0-1.402-.592c-.413-.16-.83-.314-1.257-.433a18 18 0 0 0-1.369-.32 18 18 0 0 0-1.338-.215 8 8 0 0 0-1.069-.064c-.357.011-.712.048-1.066.094q-.453.057-.904.131c-.263.044-.524.093-.788.132a5 5 0 0 1-1.203.035c-4.843-.459-4.194-7.307.649-6.849zm-16.191 51.254c.104.385.156.78.2 1.176.055.529.083 1.06.111 1.59q.05.977.077 1.954c.02.771.024 1.543.021 2.314-.005.85-.026 1.7-.045 2.55q-.026 1.305-.062 2.61-.038 1.288-.086 2.578c-.028.81-.067 1.621-.105 2.432l-.1 2.08q-.04.894-.087 1.789l-.083 1.504-.066 1.206-.053.985-.076 1.445c.004.48-.129.926-.25 1.389-1.687 4.562-8.14 2.176-6.452-2.386-.19.77-.137.415-.18.863-.008.075.02-.299.012-.224l.034-.65.042-.805.054-.992.067-1.213.082-1.487q.045-.874.085-1.75.048-1.04.1-2.083c.037-.781.074-1.563.102-2.345q.046-1.267.084-2.534.034-1.282.06-2.564c.018-.808.039-1.616.044-2.424.003-.699 0-1.398-.018-2.097a76 76 0 0 0-.07-1.782c-.021-.4-.042-.802-.08-1.202 0-.011-.037-.277-.006-.143-1.262-4.697 5.382-6.482 6.644-1.784m-19.359-3.323c.358.533.545 1.142.681 1.763.116.577.163 1.163.207 1.748.056.72.078 1.441.088 2.163.008.82-.016 1.641-.042 2.462a94 94 0 0 1-.113 2.475q-.081 1.302-.155 2.604a265 265 0 0 0-.23 4.935 681 681 0 0 0-.148 4.057l-.052 1.513q-.022.671-.041 1.343l-.034 1.112-.026.887-.021.708-.017.563c-.01.583-.11 1.168-.368 1.698-.125.257-.3.487-.45.73l-.671.659c-3.848 2.976-8.057-2.466-4.209-5.442l-.561.574c-.35.592-.581 1.018-.622 1.71-.002.045.01-.23.005-.134q.007-.282.017-.564l.02-.707.027-.888.033-1.113.043-1.364a755 755 0 0 1 .118-3.384q.04-1.114.083-2.23a330 330 0 0 1 .236-5.052q.074-1.305.155-2.61.068-1.15.105-2.304c.023-.715.045-1.43.04-2.146a27 27 0 0 0-.07-1.74c-.021-.289-.04-.578-.082-.864.09.223.183.456.33.654-2.698-4.048 3.026-7.864 5.724-3.816m-18.09.966c.172.406.26.838.324 1.272.058.43.085.862.11 1.295a57 57 0 0 1 .061 4.117 41 41 0 0 1-.156 2.602c-.072.875-.168 1.748-.262 2.622q-.132 1.274-.285 2.546c-.099.789-.204 1.577-.307 2.365q-.136 1.065-.292 2.128l-.29 1.908c-.08.599-.178 1.195-.282 1.79q-.122.678-.236 1.36l-.185 1.1q-.073.427-.143.855l-.11.69a29 29 0 0 0-.133.903q-.017.144-.041.287c-.791 4.8-7.579 3.681-6.788-1.119l-.006.046.013-.097q.031-.25.07-.5.043-.3.091-.601l.113-.709.15-.9.187-1.104q.117-.7.242-1.401c.094-.534.182-1.069.254-1.606q.143-.952.288-1.902.148-1.009.277-2.02c.1-.767.203-1.534.299-2.3q.148-1.227.274-2.457c.088-.816.179-1.632.247-2.45.06-.729.118-1.457.134-2.188a49 49 0 0 0-.051-3.563 16 16 0 0 0-.054-.73c.026.093.076.272.128.385-1.855-4.497 4.504-7.121 6.36-2.625m43.771-27.056c.029 0 .283-.338.17-.182q.016-.021.034-.041c-.011.033-.087.195-.118.27-.049.13-.102.26-.14.395.085-.232.093-.483.083-.726a1 1 0 0 0-.066-.318c-.157-.377-.469-.651-.791-.885a1.4 1.4 0 0 0-.429-.2 1.7 1.7 0 0 0-.64-.017c-.07.019-.137.025-.186.041a1.2 1.2 0 0 0-.24.142 1.6 1.6 0 0 0-.366.445c-.054.09-.09.19-.125.289-.007-.022-.005-.082-.009.01a1.8 1.8 0 0 0 .048.386c.094.295.286.548.49.78.168.173.363.319.582.42.129.05.069.03.18.066-4.693-1.282-2.88-7.918 1.812-6.637.337.098.162.043.524.169.628.258 1.221.587 1.712 1.064.52.547.965 1.15 1.198 1.879.178.524.31 1.063.329 1.62a7.3 7.3 0 0 1-.094 1.456c-.107.56-.256 1.111-.518 1.62-.304.565-.66 1.098-1.142 1.529-.398.35-.82.674-1.297.911-.465.227-.945.424-1.452.535-.69.134-1.39.185-2.085.051-.645-.135-1.274-.33-1.845-.668-.796-.527-1.47-1.179-1.873-2.06-.267-.59-.479-1.2-.552-1.847-.064-.718-.038-1.437.193-2.128a12 12 0 0 1 .753-1.84c.137-.254.282-.504.453-.738a5 5 0 0 1 .524-.636c3.425-3.453 8.31 1.391 4.883 4.845" transform="translate(0 -197)"/><path style="opacity:1;fill:#020900;fill-opacity:1;stroke:none;stroke-width:1;stroke-linecap:butt;stroke-linejoin:round;stroke-miterlimit:4;stroke-dasharray:none;stroke-opacity:1" d="M74.971 231.108c.2-.166.374-.36.512-.58.049-.053.13-.3.075-.091-.04.161-.084.322-.111.486.017.01.013.11.016.147.049.11-.078-.351-.083-.367-.097-.231-.09-.19.029-.035-.132-.201-.397-.407-.63-.547.036.001.233.086.323.111l.176.032c-.465-.09-.926.02-1.36.184-.039-.03-.448.288-.26.115.21-.184.237-.253.015.009-.19.233-.293.508-.365.797-.085.392-.041.78.075 1.16.08.251.23.46.403.654.08.092.21.173.033.07-.215-.1.114.046.166.065.063.035.336.069.104.048-4.845-.44-4.22-7.291.623-6.85.422.039.843.091 1.25.213.482.157.949.348 1.38.616.441.264.87.55 1.242.909.514.529.955 1.112 1.22 1.808.285.814.43 1.651.277 2.511-.156.744-.405 1.455-.864 2.072a7 7 0 0 1-.951 1.025c-.43.386-.885.747-1.41.998-.847.355-1.729.552-2.649.391a9 9 0 0 1-1.243-.289c-.42-.14-.836-.294-1.237-.484-.73-.384-1.39-.871-1.868-1.554-.322-.444-.627-.904-.841-1.411-.24-.633-.413-1.285-.428-1.966-.02-.537-.013-1.076.079-1.607a13 13 0 0 1 .26-1.154c.14-.494.303-.984.556-1.434.279-.479.6-.932 1.028-1.291 3.705-3.153 8.163 2.086 4.458 5.239" transform="translate(0 -197)"/></svg>