<?xml version="1.0" encoding="UTF-8" standalone="no"?>
<!-- Created with Inkscape (http://www.inkscape.org/) -->

<svg
   xmlns:dc="http://purl.org/dc/elements/1.1/"
   xmlns:cc="http://creativecommons.org/ns#"
   xmlns:rdf="http://www.w3.org/1999/02/22-rdf-syntax-ns#"
   xmlns:svg="http://www.w3.org/2000/svg"
   xmlns="http://www.w3.org/2000/svg"
   xmlns:sodipodi="http://sodipodi.sourceforge.net/DTD/sodipodi-0.dtd"
   xmlns:inkscape="http://www.inkscape.org/namespaces/inkscape"
   width="10cm"
   height="10cm"
   viewBox="0 0 100 99.999997"
   version="1.1"
   id="svg8"
   sodipodi:docname="soweli.svg"
   inkscape:version="0.92.3 (2405546, 2018-03-11)">
  <defs
     id="defs2" />
  <sodipodi:namedview
     id="base"
     pagecolor="#ffffff"
     bordercolor="#666666"
     borderopacity="1.0"
     inkscape:pageopacity="0.0"
     inkscape:pageshadow="2"
     inkscape:zoom="1"
     inkscape:cx="175.50186"
     inkscape:cy="186.50542"
     inkscape:document-units="cm"
     inkscape:current-layer="layer1"
     showgrid="true"
     units="cm"
     inkscape:window-width="881"
     inkscape:window-height="707"
     inkscape:window-x="971"
     inkscape:window-y="213"
     inkscape:window-maximized="0"
     inkscape:snap-nodes="false">
    <inkscape:grid
       type="xygrid"
       id="grid815"
       units="cm"
       spacingx="9.9999998"
       spacingy="9.9999998" />
  </sodipodi:namedview>
  <metadata
     id="metadata5">
    <rdf:RDF>
      <cc:Work
         rdf:about="">
        <dc:format>image/svg+xml</dc:format>
        <dc:type
           rdf:resource="http://purl.org/dc/dcmitype/StillImage" />
        <dc:title></dc:title>
      </cc:Work>
    </rdf:RDF>
  </metadata>
  <g
     inkscape:label="Layer 1"
     inkscape:groupmode="layer"
     id="layer1"
     transform="translate(0,-197.00002)">
    <path
       style="opacity:1;fill:#020900;fill-opacity:1;stroke:none;stroke-width:1;stroke-linecap:butt;stroke-linejoin:round;stroke-miterlimit:4;stroke-dasharray:none;stroke-opacity:1"
       id="path1515"
       d="m 67.245625,210.37797 c -0.07789,-0.0124 -0.252891,-0.009 -0.368906,-0.004 0.196509,-0.0354 0.393309,-0.0692 0.590296,-0.1018 0.379691,-0.0631 0.760759,-0.11725 1.142413,-0.16688 0.555699,-0.0743 1.113983,-0.1207 1.673937,-0.14506 0.691631,-0.0252 1.382098,0.0256 2.069428,0.0972 0.642712,0.0706 1.280281,0.17878 1.915014,0.30055 0.632854,0.12076 1.259385,0.27031 1.880944,0.43926 0.653103,0.17914 1.290257,0.40877 1.921666,0.65217 0.5774,0.22438 1.146501,0.46907 1.712709,0.72012 0.613251,0.26986 1.214855,0.56442 1.808147,0.87543 0.696531,0.36476 1.358966,0.78767 2.001564,1.23949 0.687073,0.49392 1.313935,1.0633 1.925942,1.64571 0.56356,0.54258 1.094243,1.11764 1.613321,1.70248 0.497808,0.56104 0.969552,1.14413 1.426048,1.73902 0.469707,0.61599 0.899658,1.2606 1.322959,1.9089 0.423974,0.65108 0.819727,1.31984 1.214192,1.98901 0.393729,0.6641 0.769329,1.33855 1.13158,2.02026 0.372235,0.69918 0.708896,1.41608 1.027433,2.14103 0.347483,0.79666 0.641638,1.61464 0.920483,2.43734 0.302548,0.90091 0.561104,1.81548 0.804913,2.73373 0.235384,0.90359 0.445243,1.81356 0.637857,2.72714 0.199694,0.93275 0.323326,1.87804 0.400116,2.82806 0.07317,0.96574 0.03557,1.93348 -0.04615,2.89695 -0.0853,0.91972 -0.261784,1.82684 -0.465085,2.7267 -0.204883,0.90279 -0.493152,1.7825 -0.808191,2.65191 -0.324723,0.89664 -0.726234,1.76137 -1.162955,2.6081 -0.448723,0.85996 -0.987748,1.66662 -1.549008,2.45599 -0.53135,0.7422 -1.105509,1.45177 -1.698273,2.14538 -0.591857,0.68429 -1.217965,1.33768 -1.854666,1.98006 -0.650131,0.66222 -1.349552,1.27159 -2.070939,1.85425 -0.738129,0.59166 -1.523452,1.11931 -2.325004,1.62015 -0.824984,0.51209 -1.691715,0.95029 -2.568001,1.36641 -0.806249,0.38028 -1.629654,0.722 -2.458477,1.0495 -0.74989,0.29246 -1.508326,0.56227 -2.267847,0.82847 -0.67837,0.2369 -1.362448,0.45688 -2.047425,0.67375 -0.56252,0.17772 -1.126601,0.35043 -1.690886,0.52244 -0.452972,0.1379 -0.906655,0.27341 -1.359797,0.41074 -0.344956,0.10437 -0.687882,0.21527 -1.030914,0.32576 -0.23227,0.0772 -0.468162,0.14464 -0.695852,0.23499 -0.08421,0.0313 -0.004,0.0114 -0.0051,0.0147 0.09014,-0.0512 0.168087,-0.12091 0.240051,-0.1949 0.02558,-0.0174 0.07274,-0.10552 0.04937,-0.0273 -0.05404,0.16114 -0.09388,0.3265 -0.133152,0.4917 -0.09417,0.40535 -0.166203,0.81525 -0.233219,1.22581 -0.0969,0.61601 -0.173914,1.23491 -0.248142,1.85399 -0.09175,0.77461 -0.162934,1.5514 -0.229648,2.32849 -0.07256,0.8563 -0.132646,1.71356 -0.18565,2.57126 -0.05067,0.85535 -0.08969,1.71134 -0.126334,2.56739 -0.03371,0.78238 -0.06166,1.56499 -0.08934,2.34761 -0.02297,0.65392 -0.0456,1.30785 -0.06827,1.96178 -0.01812,0.52307 -0.03626,1.04615 -0.05439,1.56922 -0.01339,0.41289 -0.02503,0.82584 -0.03686,1.23878 -0.0096,0.33728 -0.01916,0.67456 -0.02872,1.01184 -0.008,0.25967 -0.01447,0.51937 -0.01961,0.77911 -0.0041,0.21282 -0.0079,0.42566 -0.01185,0.63849 -0.0026,0.12844 -7.94e-4,0.0601 -0.0055,0.20494 -0.170553,4.86132 -7.045488,4.62012 -6.874938,-0.2412 v 0 c 2.65e-4,-0.005 5.29e-4,-0.009 7.94e-4,-0.0141 5.29e-4,-0.0257 0.0011,-0.0514 0.0016,-0.0772 0.004,-0.21566 0.0079,-0.43132 0.01201,-0.64698 0.0055,-0.27932 0.01241,-0.5586 0.02104,-0.83784 0.0096,-0.33805 0.01915,-0.67609 0.02879,-1.01413 0.01222,-0.42668 0.02426,-0.85337 0.03816,-1.27999 0.01812,-0.52311 0.03626,-1.04623 0.05439,-1.56934 0.02273,-0.65555 0.04543,-1.3111 0.06845,-1.96664 0.02829,-0.79964 0.0569,-1.59928 0.09134,-2.39868 0.03854,-0.8996 0.07969,-1.79913 0.13317,-2.69799 0.05654,-0.91244 0.120417,-1.82444 0.197779,-2.73539 0.07348,-0.85414 0.152215,-1.70793 0.253415,-2.55931 0.0862,-0.71738 0.17621,-1.4345 0.289912,-2.14813 0.09606,-0.58298 0.200705,-1.16482 0.337823,-1.73976 0.13889,-0.56359 0.29542,-1.12449 0.530325,-1.6569 0.240678,-0.529 0.515332,-1.04322 0.882018,-1.49744 0.379298,-0.45671 0.796512,-0.88054 1.295405,-1.20837 0.433827,-0.28363 0.886187,-0.53872 1.373079,-0.72091 0.342585,-0.12914 0.689229,-0.2463 1.038691,-0.3555 0.380878,-0.12267 0.761725,-0.24553 1.144759,-0.36134 0.449554,-0.13623 0.899634,-0.27072 1.349034,-0.40746 0.540837,-0.16486 1.081497,-0.33033 1.620652,-0.50063 0.618493,-0.19575 1.236295,-0.39392 1.848887,-0.60756 0.675344,-0.23652 1.349836,-0.47594 2.016922,-0.73504 0.687234,-0.27088 1.370176,-0.55311 2.038852,-0.86753 0.639773,-0.30215 1.274046,-0.61778 1.877071,-0.98925 0.567984,-0.3519 1.124214,-0.72336 1.647761,-1.13939 0.524177,-0.41978 1.030444,-0.86117 1.501217,-1.34081 0.518771,-0.52206 1.028843,-1.05319 1.512144,-1.60852 0.461711,-0.53801 0.908325,-1.08894 1.322411,-1.66477 0.37542,-0.5247 0.740558,-1.0581 1.043313,-1.62899 0.303991,-0.5817 0.580554,-1.17734 0.805757,-1.79446 0.219096,-0.59835 0.421783,-1.20323 0.564711,-1.82498 0.136501,-0.59441 0.258045,-1.19324 0.319945,-1.80069 0.05386,-0.58564 0.08067,-1.17409 0.04082,-1.76178 -0.04814,-0.65471 -0.137887,-1.30503 -0.273706,-1.94765 -0.167211,-0.79741 -0.35124,-1.59129 -0.555416,-2.38009 -0.203779,-0.76998 -0.41937,-1.53703 -0.672015,-2.29265 -0.213905,-0.63414 -0.438256,-1.26517 -0.704411,-1.87963 -0.248335,-0.56838 -0.512196,-1.12985 -0.803346,-1.67775 -0.313532,-0.59164 -0.640218,-1.17611 -0.981552,-1.75221 -0.341357,-0.57924 -0.682754,-1.15881 -1.049012,-1.72281 -0.328538,-0.50389 -0.660257,-1.00632 -1.023728,-1.48601 -0.355246,-0.46536 -0.724384,-0.91994 -1.112428,-1.35849 -0.390659,-0.44166 -0.78976,-0.87627 -1.212955,-1.28719 -0.368964,-0.35303 -0.742852,-0.70289 -1.152578,-1.00888 -0.39265,-0.28142 -0.801309,-0.53925 -1.228495,-0.76548 -0.457555,-0.24164 -0.923137,-0.4673 -1.396611,-0.6762 -0.46368,-0.20591 -0.929553,-0.40702 -1.402305,-0.59137 -0.413157,-0.16019 -0.829008,-0.31443 -1.256316,-0.43329 -0.452104,-0.12471 -0.908732,-0.23154 -1.369345,-0.32018 -0.443426,-0.0861 -0.888805,-0.16294 -1.337755,-0.21444 -0.355129,-0.0387 -0.711647,-0.0716 -1.069358,-0.0644 -0.356886,0.0115 -0.711841,0.0486 -1.065972,0.0937 -0.301945,0.0388 -0.603311,0.0821 -0.903679,0.13173 -0.262964,0.0433 -0.524849,0.0931 -0.788591,0.13159 -0.398941,0.0508 -0.801653,0.0791 -1.203015,0.0351 -4.842619,-0.45879 -4.193789,-7.30729 0.648832,-6.8485 z"
       inkscape:connector-curvature="0" />
    <path
       style="opacity:1;fill:#020900;fill-opacity:1;stroke:none;stroke-width:1;stroke-linecap:butt;stroke-linejoin:round;stroke-miterlimit:4;stroke-dasharray:none;stroke-opacity:1"
       id="path1517"
       d="m 51.054964,261.6319 c 0.103646,0.38505 0.155959,0.78074 0.200618,1.17614 0.05396,0.52871 0.08271,1.05956 0.110797,1.59014 0.03344,0.6511 0.05853,1.30259 0.07676,1.95428 0.02045,0.77097 0.0236,1.54221 0.02082,2.31339 -0.0051,0.85049 -0.02606,1.70076 -0.04498,2.55103 -0.01836,0.86957 -0.03699,1.73913 -0.06187,2.60855 -0.02487,0.85955 -0.05537,1.71894 -0.08562,2.57832 -0.02857,0.81106 -0.06715,1.6217 -0.105942,2.43231 -0.03326,0.69309 -0.06674,1.38617 -0.09949,2.07929 -0.02746,0.59647 -0.05513,1.19294 -0.08676,1.78921 -0.02718,0.50153 -0.05515,1.00301 -0.08302,1.5045 -0.02244,0.40188 -0.04466,0.80378 -0.06661,1.20569 -0.01789,0.32854 -0.03545,0.65709 -0.05306,0.98565 -0.01434,0.26556 -0.02832,0.53114 -0.04221,0.79673 -0.01127,0.21594 -0.02254,0.43189 -0.0338,0.64784 0.0045,0.48001 -0.128383,0.92622 -0.249372,1.38902 -1.687377,4.56226 -8.139388,2.17595 -6.45201,-2.38631 v 0 c -0.190418,0.77058 -0.137467,0.41567 -0.180901,0.86335 -0.0072,0.0745 0.02003,-0.29882 0.01246,-0.22432 0.01127,-0.21628 0.02257,-0.43256 0.03385,-0.64885 0.01405,-0.26855 0.02817,-0.5371 0.04268,-0.80564 0.01773,-0.33087 0.03543,-0.66175 0.05344,-0.99262 0.02207,-0.40413 0.0444,-0.80824 0.06697,-1.21234 0.02756,-0.49582 0.05521,-0.99163 0.0821,-1.48749 0.03099,-0.58291 0.05781,-1.16602 0.08475,-1.74914 0.03282,-0.69448 0.06636,-1.38893 0.09968,-2.08339 0.03741,-0.78166 0.07474,-1.56335 0.102336,-2.34543 0.02972,-0.84441 0.05971,-1.68882 0.08418,-2.53339 0.02453,-0.85478 0.04261,-1.7097 0.06075,-2.56463 0.01799,-0.80779 0.03811,-1.61557 0.04332,-2.42357 0.0027,-0.69903 5.1e-5,-1.39811 -0.01823,-2.09694 -0.01632,-0.59436 -0.03963,-1.1885 -0.06983,-1.78232 -0.02111,-0.40091 -0.04191,-0.80202 -0.07924,-1.20182 -0.0011,-0.0115 -0.03769,-0.27737 -0.0062,-0.14269 -1.261869,-4.69778 5.3818,-6.48233 6.643667,-1.78455 z"
       inkscape:connector-curvature="0" />
    <path
       style="opacity:1;fill:#020900;fill-opacity:1;stroke:none;stroke-width:1;stroke-linecap:butt;stroke-linejoin:round;stroke-miterlimit:4;stroke-dasharray:none;stroke-opacity:1"
       id="path1519"
       d="m 31.695992,258.30875 c 0.358167,0.5337 0.545489,1.14229 0.681286,1.76343 0.115263,0.57637 0.162603,1.16291 0.206838,1.74809 0.05564,0.71962 0.07786,1.441 0.08795,2.16251 0.0082,0.82088 -0.0159,1.64155 -0.04252,2.46189 -0.02558,0.82578 -0.06495,1.65098 -0.112337,2.47576 -0.05411,0.86775 -0.10613,1.73562 -0.155257,2.60367 -0.04746,0.84013 -0.08846,1.68061 -0.127918,2.52114 -0.03774,0.80431 -0.0706,1.60883 -0.102317,2.4134 -0.02877,0.73491 -0.05559,1.46991 -0.08198,2.20492 -0.02201,0.61749 -0.04388,1.23499 -0.06562,1.85249 -0.01775,0.5044 -0.03539,1.00879 -0.05213,1.51322 -0.01458,0.4475 -0.02796,0.89504 -0.04139,1.34257 -0.01111,0.37065 -0.02217,0.74129 -0.03325,1.11194 -0.0088,0.2958 -0.01767,0.59161 -0.02652,0.88741 -0.007,0.23578 -0.01408,0.47155 -0.02114,0.70732 -0.0056,0.18791 -0.01122,0.37583 -0.01685,0.56375 -0.01042,0.58268 -0.110699,1.16759 -0.367733,1.69757 -0.12495,0.25763 -0.300662,0.48739 -0.450993,0.73109 -0.223444,0.21929 -0.44689,0.43857 -0.670335,0.65785 -3.847698,2.97602 -8.056423,-2.46544 -4.208725,-5.44146 v 0 c -0.187143,0.1912 -0.374285,0.38241 -0.561428,0.57362 -0.348953,0.59226 -0.581097,1.01847 -0.621414,1.71039 -0.0026,0.0448 0.01061,-0.23016 0.0045,-0.1345 0.0056,-0.18792 0.01123,-0.37584 0.01684,-0.56375 0.007,-0.23578 0.01409,-0.47155 0.02113,-0.70732 0.0088,-0.29581 0.01768,-0.59162 0.02652,-0.88744 0.01108,-0.37095 0.02217,-0.74191 0.03328,-1.11287 0.01365,-0.45483 0.02725,-0.90966 0.04209,-1.36444 0.0169,-0.50901 0.03467,-1.01799 0.0526,-1.52696 0.02179,-0.61913 0.04372,-1.23825 0.06579,-1.85737 0.02668,-0.74304 0.0538,-1.48606 0.08289,-2.22901 0.0324,-0.82179 0.066,-1.64353 0.104547,-2.46506 0.04051,-0.86259 0.08262,-1.72511 0.131342,-2.58727 0.04927,-0.87026 0.101284,-1.74036 0.155636,-2.61031 0.04428,-0.76752 0.08081,-1.53542 0.104596,-2.30387 0.02329,-0.71514 0.04548,-1.43054 0.03951,-2.14616 -0.0074,-0.58059 -0.02459,-1.16107 -0.06929,-1.74015 -0.02141,-0.28842 -0.04103,-0.5774 -0.08238,-0.86382 0.09086,0.22265 0.183228,0.45599 0.330271,0.6535 -2.698135,-4.0474 3.025749,-7.86316 5.723904,-3.81577 z"
       inkscape:connector-curvature="0" />
    <path
       style="opacity:1;fill:#020900;fill-opacity:1;stroke:none;stroke-width:1;stroke-linecap:butt;stroke-linejoin:round;stroke-miterlimit:4;stroke-dasharray:none;stroke-opacity:1"
       id="path1521"
       d="m 13.60629,259.27451 c 0.171211,0.40642 0.258962,0.83841 0.323772,1.27249 0.05751,0.42948 0.08466,0.86219 0.110173,1.2945 0.03486,0.60085 0.05293,1.20241 0.06384,1.80411 0.01485,0.77089 0.01396,1.54183 -0.0025,2.31266 -0.01798,0.86936 -0.08459,1.73646 -0.156114,2.60272 -0.07252,0.87534 -0.168643,1.74844 -0.262758,2.62165 -0.0886,0.84961 -0.182165,1.69864 -0.284917,2.54665 -0.09847,0.78857 -0.20392,1.57625 -0.30701,2.36422 -0.0908,0.71027 -0.187339,1.41973 -0.291287,2.12819 -0.09658,0.63623 -0.195562,1.27207 -0.289724,1.90866 -0.08046,0.59854 -0.178621,1.19426 -0.282973,1.78902 -0.08163,0.45306 -0.158509,0.90694 -0.235385,1.36082 -0.06198,0.36644 -0.123811,0.7329 -0.185658,1.09936 -0.04814,0.28494 -0.09669,0.56981 -0.14285,0.85508 -0.03701,0.23014 -0.07359,0.46035 -0.110227,0.69055 -0.02819,0.17116 -0.05337,0.34278 -0.07845,0.51441 -0.01952,0.12934 -0.03749,0.25888 -0.05425,0.38861 -0.01112,0.0959 -0.02633,0.19123 -0.04116,0.28662 -0.790785,4.7996 -7.5784392,3.68126 -6.7876549,-1.11833 v 0 c -0.00209,0.0152 -0.00429,0.0305 -0.00625,0.0457 -0.00417,0.0323 0.031151,-0.22587 0.012808,-0.097 0.021635,-0.16698 0.044673,-0.33377 0.069641,-0.50029 0.029299,-0.20048 0.058921,-0.40091 0.091642,-0.60086 0.037599,-0.23627 0.075148,-0.47255 0.1131472,-0.70875 0.048656,-0.30044 0.099593,-0.60049 0.1503698,-0.90057 0.062073,-0.3678 0.1241288,-0.7356 0.1863366,-1.10337 0.079169,-0.4674 0.158379,-0.93481 0.2423789,-1.40138 0.093796,-0.53404 0.1819484,-1.0689 0.2534526,-1.60647 0.093832,-0.63406 0.1920774,-1.26745 0.2886112,-1.9011 0.098855,-0.67286 0.1901706,-1.34675 0.2764531,-2.02134 0.1002858,-0.7665 0.2028137,-1.53272 0.2988884,-2.29977 0.09921,-0.81777 0.1889863,-1.63658 0.2745226,-2.45589 0.088001,-0.81643 0.1783829,-1.63273 0.2465245,-2.45112 0.060251,-0.72803 0.1187902,-1.45663 0.1343964,-2.18729 0.015436,-0.67968 0.014589,-1.35946 0.00196,-2.0392 -0.00881,-0.50825 -0.024019,-1.01636 -0.05314,-1.5239 -0.014134,-0.24347 -0.028313,-0.48706 -0.053616,-0.72968 0.025916,0.0925 0.075683,0.27174 0.1280954,0.38449 -1.8556078,-4.49647 4.5033512,-7.12069 6.3589592,-2.62423 z"
       inkscape:connector-curvature="0" />
    <path
       style="opacity:1;fill:#020900;fill-opacity:1;stroke:none;stroke-width:1;stroke-linecap:butt;stroke-linejoin:round;stroke-miterlimit:4;stroke-dasharray:none;stroke-opacity:1"
       id="path1523"
       d="m 57.378453,232.21767 c 0.02856,-5.3e-4 0.282231,-0.33797 0.169323,-0.18154 0.0095,-0.0151 0.02265,-0.0276 0.03376,-0.0416 -0.01095,0.0335 -0.08665,0.19551 -0.117756,0.27094 -0.0486,0.13034 -0.10188,0.25997 -0.139565,0.39403 0.0844,-0.23116 0.09273,-0.48204 0.08242,-0.72517 -0.0042,-0.11036 -0.02856,-0.215 -0.06585,-0.31829 -0.157165,-0.3769 -0.468378,-0.65113 -0.791136,-0.88532 -0.134593,-0.0903 -0.273391,-0.15867 -0.428519,-0.19952 -0.211378,-0.0518 -0.425624,-0.0478 -0.639376,-0.0174 -0.0716,0.019 -0.138237,0.0255 -0.187164,0.0413 -0.08505,0.0386 -0.166814,0.0847 -0.240408,0.14221 -0.151434,0.12333 -0.266573,0.27806 -0.365493,0.44448 -0.0532,0.091 -0.08891,0.18996 -0.124253,0.28872 -0.0076,-0.0213 -0.005,-0.0817 -0.0093,0.01 -0.0028,0.12931 0.02273,0.26633 0.04785,0.38639 0.09408,0.29521 0.286297,0.54784 0.489595,0.77932 0.168712,0.17384 0.363191,0.31954 0.582909,0.42143 0.128342,0.0498 0.06831,0.0286 0.17953,0.065 -4.692533,-1.28125 -2.880571,-7.91749 1.811962,-6.63624 v 0 c 0.336651,0.0977 0.161658,0.0423 0.52418,0.16855 0.627642,0.25793 1.221139,0.58661 1.712031,1.06383 0.519647,0.54692 0.965144,1.15101 1.197385,1.87885 0.177993,0.52417 0.310116,1.06361 0.329065,1.61968 0.01143,0.48769 -0.0072,0.9758 -0.09398,1.45708 -0.106511,0.55946 -0.255754,1.11093 -0.517448,1.62027 -0.303726,0.56461 -0.661043,1.09715 -1.14245,1.52821 -0.397489,0.35078 -0.819785,0.67377 -1.296575,0.91115 -0.464762,0.22702 -0.944803,0.42375 -1.451864,0.53539 -0.689933,0.13365 -1.389586,0.18451 -2.085377,0.051 -0.644882,-0.13532 -1.274186,-0.32995 -1.844955,-0.66886 -0.796227,-0.52702 -1.470689,-1.17846 -1.872951,-2.06013 -0.266899,-0.58873 -0.479058,-1.19984 -0.552093,-1.84601 -0.06414,-0.71857 -0.03769,-1.43745 0.192667,-2.12826 0.108913,-0.33853 0.226369,-0.67453 0.363921,-1.00265 0.120856,-0.28323 0.246123,-0.56495 0.388882,-0.83795 0.137385,-0.25397 0.28299,-0.50389 0.453194,-0.73761 0.161036,-0.22294 0.329345,-0.44102 0.524092,-0.63606 3.425783,-3.45333 8.309528,1.39145 4.883745,4.84478 z"
       inkscape:connector-curvature="0" />
    <path
       style="opacity:1;fill:#020900;fill-opacity:1;stroke:none;stroke-width:1;stroke-linecap:butt;stroke-linejoin:round;stroke-miterlimit:4;stroke-dasharray:none;stroke-opacity:1"
       id="path1525"
       d="m 74.971395,231.10794 c 0.200131,-0.16562 0.373205,-0.36034 0.51209,-0.57948 0.0484,-0.0537 0.129567,-0.30129 0.07438,-0.0917 -0.04066,0.16123 -0.08363,0.32243 -0.111,0.48635 0.01762,0.0102 0.01344,0.10934 0.01588,0.14652 0.04876,0.11122 -0.0782,-0.35072 -0.0832,-0.36621 -0.0969,-0.2314 -0.09016,-0.19028 0.02941,-0.0353 -0.13208,-0.20124 -0.396788,-0.40687 -0.629737,-0.54704 0.03548,0.001 0.232285,0.0855 0.322643,0.11091 0.05529,0.0101 0.136694,0.0253 0.175686,0.0322 -0.464947,-0.0906 -0.925587,0.0197 -1.359186,0.18368 -0.03916,-0.0298 -0.447886,0.28815 -0.260784,0.11509 0.210132,-0.18355 0.237213,-0.25264 0.01585,0.009 -0.190545,0.2333 -0.293267,0.50837 -0.365448,0.79657 -0.08536,0.39293 -0.04102,0.78056 0.07477,1.16056 0.08064,0.25132 0.229936,0.45923 0.403246,0.65418 0.07995,0.0915 0.209656,0.17296 0.03291,0.0699 -0.214574,-0.0996 0.113782,0.0454 0.16572,0.0647 0.06348,0.0356 0.336573,0.069 0.103901,0.0486 -4.844261,-0.44112 -4.220426,-7.29194 0.623835,-6.85083 v 0 c 0.421606,0.0391 0.843031,0.0918 1.250207,0.21354 0.481113,0.15719 0.948224,0.34815 1.379902,0.6157 0.440584,0.26461 0.870321,0.55068 1.241798,0.90888 0.513617,0.52889 0.955077,1.11273 1.220092,1.80833 0.284258,0.81344 0.429371,1.65119 0.276423,2.51139 -0.155961,0.74308 -0.405159,1.45498 -0.863333,2.0711 -0.287244,0.3699 -0.594762,0.72016 -0.95147,1.02538 -0.43053,0.38569 -0.884955,0.74675 -1.409878,0.99785 -0.846791,0.35526 -1.728864,0.55256 -2.649077,0.39135 -0.419922,-0.0699 -0.837125,-0.15848 -1.242917,-0.28899 -0.420076,-0.14019 -0.836427,-0.29393 -1.236715,-0.48432 -0.729504,-0.38408 -1.390222,-0.87095 -1.868771,-1.55405 -0.321773,-0.4442 -0.626729,-0.90365 -0.840819,-1.41126 -0.240369,-0.6328 -0.41283,-1.28423 -0.428289,-1.96547 -0.01953,-0.53683 -0.0122,-1.07572 0.07916,-1.60673 0.0704,-0.38833 0.156311,-0.7734 0.261223,-1.15399 0.139534,-0.49454 0.302022,-0.98465 0.555398,-1.43443 0.27855,-0.47894 0.600112,-0.9322 1.027938,-1.29138 3.704579,-3.15239 8.162729,2.08667 4.458149,5.23906 z"
       inkscape:connector-curvature="0" />
  </g>
</svg>
