<?xml version="1.0" encoding="UTF-8" standalone="no"?>
<!-- Created with Inkscape (http://www.inkscape.org/) -->

<svg
   xmlns:dc="http://purl.org/dc/elements/1.1/"
   xmlns:cc="http://creativecommons.org/ns#"
   xmlns:rdf="http://www.w3.org/1999/02/22-rdf-syntax-ns#"
   xmlns:svg="http://www.w3.org/2000/svg"
   xmlns="http://www.w3.org/2000/svg"
   xmlns:sodipodi="http://sodipodi.sourceforge.net/DTD/sodipodi-0.dtd"
   xmlns:inkscape="http://www.inkscape.org/namespaces/inkscape"
   width="10cm"
   height="10cm"
   viewBox="0 0 100 99.999997"
   version="1.1"
   id="svg8"
   sodipodi:docname="suli.svg"
   inkscape:version="0.92.3 (2405546, 2018-03-11)">
  <defs
     id="defs2" />
  <sodipodi:namedview
     id="base"
     pagecolor="#ffffff"
     bordercolor="#666666"
     borderopacity="1.0"
     inkscape:pageopacity="0.0"
     inkscape:pageshadow="2"
     inkscape:zoom="1"
     inkscape:cx="175.50186"
     inkscape:cy="186.50542"
     inkscape:document-units="cm"
     inkscape:current-layer="layer1"
     showgrid="true"
     units="cm"
     inkscape:window-width="881"
     inkscape:window-height="707"
     inkscape:window-x="971"
     inkscape:window-y="213"
     inkscape:window-maximized="0"
     inkscape:snap-nodes="false">
    <inkscape:grid
       type="xygrid"
       id="grid815"
       units="cm"
       spacingx="9.9999998"
       spacingy="9.9999998" />
  </sodipodi:namedview>
  <metadata
     id="metadata5">
    <rdf:RDF>
      <cc:Work
         rdf:about="">
        <dc:format>image/svg+xml</dc:format>
        <dc:type
           rdf:resource="http://purl.org/dc/dcmitype/StillImage" />
        <dc:title></dc:title>
      </cc:Work>
    </rdf:RDF>
  </metadata>
  <g
     inkscape:label="Layer 1"
     inkscape:groupmode="layer"
     id="layer1"
     transform="translate(0,-197.00002)">
    <path
       style="opacity:1;fill:#020900;fill-opacity:1;stroke:none;stroke-width:1;stroke-linecap:butt;stroke-linejoin:round;stroke-miterlimit:4;stroke-dasharray:none;stroke-opacity:1"
       id="path1527"
       d="m 19.366729,208.04645 c 0.505281,0.37936 0.877402,0.88574 1.20537,1.41804 0.264049,0.44862 0.492093,0.91702 0.718715,1.38526 0.276733,0.57471 0.534994,1.15799 0.79192,1.74173 0.319845,0.72138 0.635028,1.4448 0.948773,2.16884 0.344502,0.82269 0.736593,1.62354 1.142447,2.41729 0.52476,1.01545 1.075618,2.01709 1.631598,3.01568 0.689809,1.23688 1.404055,2.45987 2.115009,3.68464 0.807947,1.40215 1.620713,2.80149 2.434158,4.20044 0.870363,1.49556 1.722126,3.00181 2.576582,4.50648 0.928666,1.60498 1.804582,3.2388 2.64701,4.89039 0.866606,1.72481 1.709042,3.46163 2.556624,5.19583 0.850236,1.74788 1.718829,3.48667 2.593782,5.22228 0.863253,1.71587 1.742114,3.42378 2.627323,5.12841 0.810744,1.55569 1.625158,3.10945 2.427012,4.66976 0.690933,1.34899 1.366713,2.70565 2.037985,4.06449 0.552328,1.12133 1.107022,2.24149 1.649026,3.36785 0.498682,1.03045 0.952733,2.08129 1.392889,3.13777 0.366011,0.88695 0.720703,1.7785 1.073562,2.67075 0.311344,0.77922 0.603581,1.56576 0.882415,2.35714 0.252428,0.71791 0.479446,1.44429 0.700468,2.17236 0.181949,0.60293 0.355926,1.20822 0.529244,1.81368 0.142753,0.49628 0.282141,0.9935 0.419065,1.49141 0.11284,0.41062 0.224184,0.82164 0.333688,1.23316 0.08853,0.33343 0.175855,0.66719 0.26331,1.00091 0.06914,0.26386 0.138245,0.52772 0.20736,0.79158 0.04911,0.18825 0.09836,0.37645 0.150775,0.5638 0.0044,0.0148 0.0177,0.0592 0.0132,0.0444 -0.241472,-0.79211 -0.810639,-1.49235 -1.557237,-1.87715 -0.416005,-0.21441 -0.899316,-0.25953 -1.348976,-0.38929 -0.865267,-0.0101 -1.623237,0.19234 -2.278181,0.73959 0.137467,-0.2118 0.29564,-0.45421 0.435007,-0.67839 0.330951,-0.53657 0.631637,-1.09079 0.929753,-1.646 0.396235,-0.74662 0.779672,-1.49992 1.162265,-2.25359 0.433628,-0.86037 0.873466,-1.71757 1.312333,-2.57527 0.478028,-0.93533 0.959241,-1.86903 1.439243,-2.80334 0.518136,-0.99791 1.013047,-2.00745 1.49701,-3.02228 0.543126,-1.13818 1.070631,-2.28368 1.589175,-3.43324 0.593476,-1.33214 1.177012,-2.6687 1.760857,-4.00508 0.664486,-1.51099 1.299195,-3.03465 1.915018,-4.56603 0.664961,-1.68361 1.320366,-3.37096 1.982848,-5.05555 0.662144,-1.67277 1.312894,-3.34997 1.947331,-5.03345 0.632486,-1.68169 1.233506,-3.37488 1.818962,-5.07343 0.584166,-1.72355 1.158743,-3.45034 1.735058,-5.17653 0.537798,-1.60854 1.068018,-3.21961 1.598433,-4.8306 0.482785,-1.45923 0.954373,-2.92211 1.421762,-4.38634 0.395396,-1.24067 0.78976,-2.48166 1.184238,-3.72261 0.317508,-0.99907 0.634717,-1.99824 0.952879,-2.9971 0.259529,-0.82083 0.523793,-1.64015 0.789339,-2.45906 0.214156,-0.65935 0.42889,-1.31852 0.643557,-1.9777 0.170656,-0.52435 0.341712,-1.04856 0.512114,-1.57299 0.136115,-0.41932 0.272002,-0.83871 0.407916,-1.2581 0.108588,-0.33508 0.21717,-0.67016 0.325755,-1.00523 0.08655,-0.26709 0.173098,-0.53417 0.259649,-0.80126 0.06898,-0.21287 0.137964,-0.42574 0.206946,-0.63862 0.05498,-0.16966 0.109961,-0.33933 0.164942,-0.50899 0.04382,-0.13523 0.08764,-0.27045 0.131463,-0.40568 0.03493,-0.10778 0.06985,-0.21556 0.104778,-0.32334 -0.0127,0.046 0.05726,-0.18201 0.04412,-0.13615 -0.07085,0.24734 -0.161179,0.49393 -0.147384,0.75906 0.02426,0.46634 0.130694,0.92475 0.196041,1.38713 0.676999,0.67792 1.353999,1.35585 2.031002,2.03378 -4.573508,-1.65665 -2.230644,-8.12457 2.342862,-6.46791 v 0 c 0.693147,0.68377 1.386295,1.36755 2.079442,2.05132 0.147852,0.98792 0.345326,1.59205 -0.0019,2.49343 -0.03493,0.10778 -0.06985,0.21556 -0.104778,0.32334 -0.04382,0.13522 -0.08764,0.27045 -0.131461,0.40568 -0.05498,0.16966 -0.109963,0.33933 -0.164944,0.50899 -0.06898,0.21287 -0.137964,0.42575 -0.206946,0.63862 -0.08655,0.26709 -0.173101,0.53417 -0.259651,0.80126 -0.108596,0.33512 -0.217194,0.67024 -0.325795,1.00535 -0.136462,0.42108 -0.272899,0.84217 -0.409562,1.26319 -0.170868,0.52584 -0.342381,1.05148 -0.513503,1.57725 -0.213784,0.65646 -0.427625,1.31291 -0.640903,1.96953 -0.261869,0.80754 -0.522468,1.61549 -0.77837,2.42494 -0.317759,0.99758 -0.634555,1.99547 -0.951661,2.99327 -0.395314,1.24359 -0.790514,2.48721 -1.186752,3.7305 -0.473733,1.48407 -0.95174,2.96677 -1.441037,4.44579 -0.5334,1.62005 -1.066617,3.24018 -1.607441,4.85777 -0.583396,1.74738 -1.16495,3.4954 -1.756596,5.24001 -0.606896,1.7602 -1.229796,3.51488 -1.885405,5.25762 -0.646083,1.71399 -1.308317,3.42176 -1.982541,5.12489 -0.668996,1.70114 -1.330637,3.40516 -2.002576,5.10514 -0.641323,1.59392 -1.301713,3.18004 -1.993386,4.75286 -0.594776,1.3614 -1.189205,2.72298 -1.794084,4.07992 -0.538734,1.19402 -1.086626,2.38388 -1.650828,3.56611 -0.513281,1.07577 -1.037937,2.14606 -1.587048,3.20408 -0.47829,0.93098 -0.957784,1.86135 -1.43411,2.79333 -0.435528,0.85117 -0.872038,1.70185 -1.302348,2.55568 -0.406723,0.80116 -0.814504,1.60185 -1.236253,2.39524 -0.368649,0.68588 -0.742558,1.36937 -1.153138,2.03134 -0.352076,0.56305 -0.711097,1.1253 -1.147919,1.62767 -0.885807,0.959 -1.882907,1.53768 -3.253293,1.53725 -0.485867,-0.13192 -1.006642,-0.1719 -1.457597,-0.39574 -0.966166,-0.47958 -1.590024,-1.39518 -1.867514,-2.3998 -0.06211,-0.22283 -0.121417,-0.4464 -0.179586,-0.67029 -0.06904,-0.26358 -0.138078,-0.52717 -0.207137,-0.79075 -0.08528,-0.32542 -0.170429,-0.65088 -0.256741,-0.97603 -0.104595,-0.39317 -0.211021,-0.78584 -0.31881,-1.17815 -0.130519,-0.47477 -0.263483,-0.94887 -0.399608,-1.42206 -0.163322,-0.57059 -0.327149,-1.14105 -0.498464,-1.70929 -0.191688,-0.632 -0.387853,-1.26278 -0.606685,-1.88603 -0.249224,-0.70902 -0.511709,-1.41326 -0.790548,-2.11121 -0.337646,-0.85386 -0.677,-1.70708 -1.026975,-2.55597 -0.392348,-0.94267 -0.796385,-1.88064 -1.241401,-2.79992 -0.531482,-1.10493 -1.076082,-2.20347 -1.617652,-3.30348 -0.655138,-1.32626 -1.314622,-2.65039 -1.988881,-3.96705 -0.797306,-1.55163 -1.607444,-3.09658 -2.413527,-4.64366 -0.8979,-1.72911 -1.789348,-3.46157 -2.665015,-5.20207 -0.887659,-1.76086 -1.768835,-3.52496 -2.631488,-5.29824 -0.830604,-1.69945 -1.656212,-3.40145 -2.504802,-5.09202 -0.794904,-1.56004 -1.622952,-3.10243 -2.500281,-4.61792 -0.842888,-1.48429 -1.683031,-2.9702 -2.541564,-4.44553 -0.814294,-1.40042 -1.627928,-2.80122 -2.436709,-4.20483 -0.731658,-1.26044 -1.466466,-2.51918 -2.176153,-3.7922 -0.595834,-1.07032 -1.185856,-2.14403 -1.747497,-3.23274 -0.471125,-0.92337 -0.926038,-1.85512 -1.32809,-2.81106 -0.308574,-0.71212 -0.618565,-1.42362 -0.933167,-2.13311 -0.223733,-0.50849 -0.447988,-1.01687 -0.688505,-1.51771 -0.133179,-0.27567 -0.266559,-0.55139 -0.412375,-0.82068 0.09565,0.0959 0.327706,0.3834 0.509345,0.49218 -3.867659,-2.95003 0.304313,-8.41972 4.171973,-5.46969 z"
       inkscape:connector-curvature="0" />
  </g>
</svg>
