<svg viewBox="0 0 100 100"><path style="opacity:1;fill:#020900;fill-opacity:1;stroke:none;stroke-width:1;stroke-linecap:butt;stroke-linejoin:round;stroke-miterlimit:4;stroke-dasharray:none;stroke-opacity:1" d="M19.367 208.046c.505.38.877.886 1.205 1.418.264.45.492.918.719 1.386.277.574.535 1.158.792 1.741q.479 1.083.949 2.17a35 35 0 0 0 1.142 2.417 111 111 0 0 0 1.632 3.015c.69 1.237 1.404 2.46 2.115 3.685q1.212 2.102 2.434 4.2c.87 1.496 1.722 3.002 2.576 4.507a105 105 0 0 1 2.647 4.89c.867 1.725 1.71 3.462 2.557 5.196.85 1.748 1.719 3.487 2.594 5.222a449 449 0 0 0 2.627 5.129c.81 1.555 1.625 3.11 2.427 4.67a308 308 0 0 1 2.038 4.064c.552 1.121 1.107 2.241 1.65 3.368.498 1.03.952 2.081 1.392 3.138.366.887.72 1.778 1.074 2.67q.464 1.17.882 2.358c.252.717.48 1.444.7 2.172q.271.905.53 1.814A132 132 0 0 1 54.8 280l.264 1.001.207.792q.074.282.15.563l.014.045a3.18 3.18 0 0 0-1.557-1.877c-.416-.215-.9-.26-1.35-.39-.864-.01-1.622.193-2.277.74.137-.212.295-.454.435-.678.33-.537.631-1.091.93-1.646.396-.747.78-1.5 1.162-2.254q.651-1.29 1.312-2.575.718-1.403 1.44-2.804a99 99 0 0 0 1.496-3.022 187 187 0 0 0 1.59-3.433c.593-1.332 1.176-2.669 1.76-4.005.665-1.511 1.3-3.035 1.915-4.566.665-1.684 1.32-3.371 1.983-5.056q.995-2.509 1.947-5.033a194 194 0 0 0 1.82-5.074c.584-1.723 1.158-3.45 1.735-5.176q.804-2.414 1.598-4.83c.483-1.46.954-2.923 1.422-4.387l1.184-3.723.953-2.997q.39-1.23.79-2.459.32-.989.643-1.978l.512-1.573.408-1.258.325-1.005.26-.801.207-.639.165-.509.131-.405.105-.324c-.012.046.058-.182.044-.136-.07.247-.16.494-.147.76.024.465.13.924.196 1.386l2.031 2.034c-4.573-1.657-2.23-8.125 2.343-6.468l2.08 2.051c.147.988.345 1.592-.003 2.494l-.104.323-.132.406-.165.509-.207.638-.26.802-.325 1.005-.41 1.263-.513 1.578-.641 1.969a345 345 0 0 0-.778 2.425l-.952 2.993q-.592 1.866-1.187 3.73a445 445 0 0 1-1.44 4.447q-.8 2.43-1.608 4.857c-.584 1.748-1.165 3.496-1.757 5.24-.607 1.76-1.23 3.515-1.885 5.258a334 334 0 0 1-1.983 5.125c-.669 1.701-1.33 3.405-2.002 5.105a162 162 0 0 1-1.994 4.753c-.595 1.361-1.19 2.723-1.794 4.08a183 183 0 0 1-1.65 3.566 107 107 0 0 1-1.588 3.204q-.718 1.395-1.434 2.793c-.435.851-.872 1.702-1.302 2.556a143 143 0 0 1-1.237 2.395c-.368.686-.742 1.37-1.153 2.032-.352.563-.71 1.125-1.148 1.627-.885.96-1.882 1.538-3.253 1.537-.486-.131-1.007-.171-1.457-.395-.967-.48-1.59-1.395-1.868-2.4a39 39 0 0 1-.18-.67l-.207-.791-.256-.976a150 150 0 0 0-1.217-4.31 46 46 0 0 0-.607-1.886 54 54 0 0 0-.79-2.11 189 189 0 0 0-1.028-2.557 54 54 0 0 0-1.24-2.8c-.532-1.105-1.077-2.203-1.619-3.303a307 307 0 0 0-1.988-3.967c-.798-1.552-1.608-3.097-2.414-4.644-.898-1.73-1.79-3.462-2.665-5.202a418 418 0 0 1-2.631-5.298c-.831-1.7-1.657-3.402-2.505-5.092a98 98 0 0 0-2.5-4.618c-.843-1.485-1.684-2.97-2.542-4.446q-1.222-2.1-2.437-4.205c-.732-1.26-1.466-2.519-2.176-3.792a116 116 0 0 1-1.748-3.233 42 42 0 0 1-1.328-2.81q-.461-1.07-.933-2.134a50 50 0 0 0-.688-1.517 20 20 0 0 0-.413-.821c.096.096.328.383.51.492-3.868-2.95.304-8.42 4.172-5.47" transform="translate(0 -197)"/></svg>