<svg viewBox="0 0 100 100"><path style="opacity:1;fill:#020900;fill-opacity:1;stroke:none;stroke-width:1;stroke-linecap:butt;stroke-linejoin:round;stroke-miterlimit:4;stroke-dasharray:none;stroke-opacity:1" d="M44.033 229.348c.01.013.337-.05.232-.018a7.6 7.6 0 0 0-1.356.585 10 10 0 0 0-1.084.707c-.441.32-.84.69-1.223 1.077-.447.46-.826.978-1.19 1.504-.44.644-.826 1.32-1.19 2.008-.377.72-.691 1.47-.984 2.226a17 17 0 0 0-.713 2.415c-.205.93-.33 1.875-.427 2.823a27 27 0 0 0-.098 2.984c.02 1 .114 1.995.23 2.988.107.9.277 1.79.501 2.668.175.691.445 1.35.764 1.985.315.613.715 1.176 1.128 1.726a15 15 0 0 0 1.34 1.51c.416.413.887.758 1.373 1.081.548.358 1.133.653 1.728.924.655.292 1.332.53 2.013.754q.92.306 1.873.477c.524.094 1.056.1 1.586.076.602-.03 1.198-.124 1.786-.252a8.2 8.2 0 0 0 1.632-.555c.572-.265 1.105-.604 1.623-.962a15.5 15.5 0 0 0 1.593-1.312c.497-.464.911-1.002 1.308-1.55a26 26 0 0 0 1.286-2.043c.373-.642.689-1.315.968-2.003.261-.65.443-1.327.595-2.01.16-.745.244-1.502.308-2.26.065-.799.07-1.6.05-2.4a20 20 0 0 0-.231-2.318 18 18 0 0 0-.46-2.112 17 17 0 0 0-.653-1.894 33 33 0 0 0-.832-1.844 21 21 0 0 0-.839-1.554 20 20 0 0 0-.882-1.319 19 19 0 0 0-.883-1.13c-.244-.29-.512-.56-.786-.821a11 11 0 0 0-.783-.657 12 12 0 0 0-.785-.547 8 8 0 0 0-.678-.405 6 6 0 0 0-.589-.272c-.212-.076-.429-.139-.645-.202-.175-.044-.346-.11-.526-.13a5 5 0 0 0-.417-.017 13 13 0 0 0-.736.02c-.265.013-.53.039-.794.063-.209.023-.42.031-.626.07l-.013.008c-4.733 1.123-6.32-5.571-1.588-6.693.336-.077.166-.041.51-.107q.54-.084 1.084-.127c.367-.034.734-.068 1.103-.086.389-.018.779-.032 1.168-.026.494.009.988.033 1.476.116.436.078.867.177 1.29.307.432.127.863.256 1.282.422.441.18.876.377 1.296.605.402.219.797.45 1.18.705.42.276.838.56 1.236.87a17 17 0 0 1 1.321 1.122c.451.435.89.884 1.293 1.366.417.5.822 1.01 1.2 1.539.426.594.839 1.197 1.213 1.824.397.673.771 1.36 1.112 2.064.363.753.713 1.514 1.028 2.29.345.868.662 1.747.905 2.65.257.96.483 1.927.625 2.91.15 1.041.272 2.086.3 3.138a29 29 0 0 1-.072 3.159c-.093 1.071-.22 2.14-.452 3.192-.242 1.054-.53 2.098-.94 3.1a23 23 0 0 1-1.377 2.836c-.525.907-1.072 1.8-1.682 2.652-.664.906-1.368 1.785-2.196 2.548a22.5 22.5 0 0 1-2.373 1.936c-.876.597-1.78 1.155-2.75 1.588-.959.416-1.944.771-2.97.986-.977.204-1.964.357-2.962.397-1.032.034-2.065.004-3.083-.186a21 21 0 0 1-2.78-.708c-.925-.306-1.844-.634-2.732-1.037-.93-.429-1.84-.898-2.694-1.466-.854-.578-1.678-1.2-2.407-1.932a22 22 0 0 1-1.98-2.25c-.661-.89-1.29-1.807-1.786-2.801-.524-1.075-.975-2.183-1.264-3.346a28 28 0 0 1-.664-3.555c-.142-1.225-.254-2.454-.275-3.688-.016-1.262.007-2.526.133-3.784.128-1.23.295-2.457.567-3.665.265-1.14.577-2.267 1.004-3.358.392-1.007.814-2.004 1.32-2.96a28 28 0 0 1 1.625-2.721c.598-.854 1.228-1.687 1.964-2.428.645-.643 1.318-1.258 2.06-1.79a17 17 0 0 1 1.885-1.207 14.7 14.7 0 0 1 2.715-1.131 6 6 0 0 1 1.18-.226c4.854-.323 5.312 6.54.458 6.864M41.561 215.6c-.043.2-.032.127-.015-.043.03-.354.05-.708.07-1.063a127 127 0 0 0 .123-3.077q.02-.7.035-1.4c.004-.346.022-.692.02-1.038l-.001.04c-.201-4.86 6.672-5.144 6.873-.284l.008.267c-.002.39-.015.78-.023 1.17a173 173 0 0 1-.092 3.064q-.032.818-.075 1.637a39 39 0 0 1-.09 1.34 7 7 0 0 1-.154 1.036c-1.166 4.722-7.845 3.073-6.679-1.65zm-20.363 32.048-.496.004q-.438.004-.876.016c-.372.014-.744.037-1.115.06-.41.028-.822.052-1.233.084-.355.03-.71.063-1.064.108-.308.042-.614.102-.919.163q-.286.057-.573.122c-4.744 1.072-6.26-5.638-1.516-6.71q.375-.085.75-.16c.466-.092.932-.18 1.403-.24q.693-.086 1.388-.141.663-.05 1.328-.09a48 48 0 0 1 1.348-.073q.51-.014 1.02-.018.278-.004.555-.004c4.864 0 4.864 6.88 0 6.88m53.232-7.479c-.018-.026-.234-.173-.182-.145-.021-.015.005-.003.014-.008.158.042.32.07.481.099.374.061.75.101 1.126.14.515.05 1.031.091 1.547.131q.748.057 1.496.11.623.046 1.247.088.494.036.992.067.416.027.833.043l.774.027q.45.01.901.045l.687.142c4.668 1.366 2.736 7.969-1.932 6.603l.538.098c.441.02-.377-.013-.427-.012l-.815-.03a41 41 0 0 1-.983-.05q-.525-.033-1.05-.07l-1.256-.09q-.769-.054-1.537-.112a77 77 0 0 1-1.72-.148 24 24 0 0 1-1.623-.21c-.486-.087-.97-.186-1.44-.34a7 7 0 0 1-1.224-.526c-.3-.17-.594-.352-.859-.574-3.732-3.12.68-8.398 4.412-5.279z" transform="translate(0 -197)"/><path style="opacity:1;fill:#020900;fill-opacity:1;stroke:none;stroke-width:1;stroke-linecap:butt;stroke-linejoin:round;stroke-miterlimit:4;stroke-dasharray:none;stroke-opacity:1" d="M51.362 270.244c.02.315.023.63.027.946.003.697-.022 1.394-.049 2.09l-.114 2.608-.097 2.403-.079 1.943-.062 1.55-.05 1.234q-.01.265-.026.532c-.254 4.857-7.124 4.497-6.87-.36q.013-.225.022-.45l.05-1.234q.03-.775.063-1.55l.078-1.943.098-2.414.113-2.584c.023-.58.044-1.16.045-1.74a21 21 0 0 0-.012-.56c-.334-4.852 6.53-5.324 6.863-.471" transform="translate(0 -197)"/></svg>