<?xml version="1.0" encoding="UTF-8" standalone="no"?>
<!-- Created with Inkscape (http://www.inkscape.org/) -->

<svg
   xmlns:dc="http://purl.org/dc/elements/1.1/"
   xmlns:cc="http://creativecommons.org/ns#"
   xmlns:rdf="http://www.w3.org/1999/02/22-rdf-syntax-ns#"
   xmlns:svg="http://www.w3.org/2000/svg"
   xmlns="http://www.w3.org/2000/svg"
   xmlns:sodipodi="http://sodipodi.sourceforge.net/DTD/sodipodi-0.dtd"
   xmlns:inkscape="http://www.inkscape.org/namespaces/inkscape"
   width="10cm"
   height="10cm"
   viewBox="0 0 100 99.999997"
   version="1.1"
   id="svg8"
   sodipodi:docname="suno.svg"
   inkscape:version="0.92.3 (2405546, 2018-03-11)">
  <defs
     id="defs2" />
  <sodipodi:namedview
     id="base"
     pagecolor="#ffffff"
     bordercolor="#666666"
     borderopacity="1.0"
     inkscape:pageopacity="0.0"
     inkscape:pageshadow="2"
     inkscape:zoom="1"
     inkscape:cx="175.50186"
     inkscape:cy="186.50542"
     inkscape:document-units="cm"
     inkscape:current-layer="layer1"
     showgrid="true"
     units="cm"
     inkscape:window-width="881"
     inkscape:window-height="707"
     inkscape:window-x="971"
     inkscape:window-y="213"
     inkscape:window-maximized="0"
     inkscape:snap-nodes="false">
    <inkscape:grid
       type="xygrid"
       id="grid815"
       units="cm"
       spacingx="9.9999998"
       spacingy="9.9999998" />
  </sodipodi:namedview>
  <metadata
     id="metadata5">
    <rdf:RDF>
      <cc:Work
         rdf:about="">
        <dc:format>image/svg+xml</dc:format>
        <dc:type
           rdf:resource="http://purl.org/dc/dcmitype/StillImage" />
        <dc:title></dc:title>
      </cc:Work>
    </rdf:RDF>
  </metadata>
  <g
     inkscape:label="Layer 1"
     inkscape:groupmode="layer"
     id="layer1"
     transform="translate(0,-197.00002)">
    <path
       style="opacity:1;fill:#020900;fill-opacity:1;stroke:none;stroke-width:1;stroke-linecap:butt;stroke-linejoin:round;stroke-miterlimit:4;stroke-dasharray:none;stroke-opacity:1"
       id="path1529"
       d="m 44.033048,229.3477 c 0.01019,0.0134 0.336936,-0.0499 0.232193,-0.0173 -0.172284,0.0559 -0.342524,0.11778 -0.510762,0.1848 -0.290833,0.1131 -0.570371,0.25182 -0.844794,0.39972 -0.379343,0.20718 -0.735451,0.4524 -1.08432,0.70661 -0.441566,0.31964 -0.840717,0.69063 -1.223415,1.07737 -0.446522,0.46039 -0.825569,0.97849 -1.190324,1.50421 -0.438882,0.64345 -0.825246,1.32012 -1.18873,2.00831 -0.378309,0.71911 -0.691938,1.46887 -0.984758,2.22598 -0.304583,0.7841 -0.526368,1.59527 -0.713055,2.41431 -0.205359,0.9306 -0.330761,1.87561 -0.426873,2.82289 -0.09672,0.99182 -0.113242,1.98848 -0.09806,2.98411 0.01982,0.99977 0.113427,1.99575 0.229765,2.98826 0.10701,0.9002 0.276828,1.79065 0.501277,2.66853 0.175207,0.6907 0.444616,1.34894 0.763857,1.98407 0.314854,0.61351 0.714454,1.17609 1.127543,1.72607 0.408146,0.53703 0.862954,1.0355 1.340413,1.51108 0.415537,0.41186 0.887127,0.75766 1.373154,1.08044 0.548259,0.35795 1.132813,0.65312 1.727827,0.92399 0.654984,0.29225 1.33187,0.53053 2.012783,0.75404 0.61292,0.20241 1.237782,0.36348 1.873128,0.47632 0.52442,0.0945 1.055688,0.10041 1.586061,0.0769 0.602266,-0.0302 1.197663,-0.12437 1.786062,-0.25253 0.564277,-0.12196 1.106326,-0.31821 1.631537,-0.55482 0.572608,-0.2651 1.105344,-0.60372 1.623049,-0.96207 0.562872,-0.39771 1.089247,-0.84289 1.592919,-1.31246 0.497139,-0.46333 0.911757,-1.00166 1.308735,-1.5504 0.465529,-0.65664 0.883499,-1.34491 1.285261,-2.04183 0.373954,-0.64255 0.68902,-1.31516 0.968444,-2.00329 0.261517,-0.65029 0.443082,-1.32703 0.595151,-2.00992 0.159152,-0.74482 0.244089,-1.50206 0.307612,-2.26012 0.0649,-0.79861 0.07096,-1.59977 0.04964,-2.40019 -0.02418,-0.7771 -0.11784,-1.54919 -0.230838,-2.31763 -0.104442,-0.71425 -0.271055,-1.41646 -0.459775,-2.11245 -0.174693,-0.64534 -0.403979,-1.27325 -0.652457,-1.89325 -0.256188,-0.62408 -0.538464,-1.23698 -0.832358,-1.84407 -0.257984,-0.52961 -0.537644,-1.04804 -0.83862,-1.55435 -0.273101,-0.45333 -0.574027,-0.88895 -0.882677,-1.31857 -0.278984,-0.38839 -0.575474,-0.76369 -0.883118,-1.12966 -0.243994,-0.29059 -0.511194,-0.56029 -0.785376,-0.82214 -0.247798,-0.23456 -0.514183,-0.44789 -0.783453,-0.65697 -0.251944,-0.19551 -0.51795,-0.37139 -0.784386,-0.5462 -0.219742,-0.1459 -0.445989,-0.28099 -0.678487,-0.40541 -0.191219,-0.10134 -0.387069,-0.19339 -0.588748,-0.27186 -0.212071,-0.0767 -0.429125,-0.1389 -0.645512,-0.20209 -0.174379,-0.0443 -0.345554,-0.11009 -0.525296,-0.1303 -0.13866,-0.0134 -0.278064,-0.0157 -0.417271,-0.0172 -0.245438,-0.002 -0.490715,0.008 -0.735804,0.0199 -0.265258,0.0133 -0.52963,0.0394 -0.794025,0.0638 -0.208703,0.0228 -0.419944,0.0307 -0.6266,0.0699 -0.0039,0.003 -0.0086,0.005 -0.01286,0.008 -4.733052,1.12235 -6.320296,-5.5712 -1.587241,-6.69355 v 0 c 0.335603,-0.0765 0.165798,-0.041 0.509476,-0.10623 0.359929,-0.0558 0.721352,-0.0991 1.084525,-0.12774 0.366921,-0.0339 0.733951,-0.0681 1.10213,-0.0853 0.389321,-0.0182 0.778988,-0.0322 1.168818,-0.0268 0.49359,0.009 0.987742,0.0336 1.475356,0.11594 0.435893,0.0784 0.867119,0.17733 1.290741,0.30753 0.43154,0.12647 0.862801,0.25625 1.281109,0.42235 0.441791,0.17978 0.876414,0.37662 1.295935,0.6042 0.402627,0.21915 0.797838,0.4513 1.179851,0.70499 0.421161,0.27677 0.838584,0.55967 1.236215,0.86977 0.455727,0.35586 0.903558,0.72245 1.321406,1.12275 0.451432,0.43524 0.890696,0.88365 1.292873,1.36541 0.417465,0.49953 0.82187,1.00999 1.200928,1.53948 0.424929,0.59384 0.838166,1.19657 1.212398,1.82401 0.396962,0.67337 0.771025,1.35983 1.111655,2.06361 0.363609,0.7536 0.713398,1.51413 1.028475,2.2895 0.344929,0.86847 0.662117,1.74827 0.90479,2.65153 0.257064,0.95896 0.48242,1.92672 0.624716,2.91021 0.150399,1.04015 0.271745,2.0854 0.300516,3.137 0.02511,1.05361 0.01558,2.1082 -0.07256,3.15915 -0.09315,1.07121 -0.220024,2.14066 -0.452241,3.19188 -0.241086,1.05397 -0.529738,2.09764 -0.939364,3.10029 -0.401172,0.97274 -0.84678,1.9264 -1.377492,2.83624 -0.524629,0.90616 -1.071375,1.80041 -1.682152,2.65173 -0.663607,0.90606 -1.367835,1.78452 -2.195986,2.54785 -0.75156,0.69205 -1.532811,1.35232 -2.373,1.93556 -0.875372,0.59729 -1.779098,1.15554 -2.749008,1.58831 -0.95957,0.41589 -1.944568,0.77107 -2.97071,0.9858 -0.976669,0.2038 -1.963843,0.35727 -2.962338,0.39757 -1.031425,0.0333 -2.064531,0.004 -3.08211,-0.186 -0.941279,-0.17671 -1.871724,-0.40402 -2.780692,-0.70824 -0.925068,-0.30576 -1.84359,-0.63426 -2.73178,-1.03666 -0.929018,-0.4294 -1.840839,-0.89798 -2.694067,-1.46612 -0.853456,-0.57792 -1.677892,-1.20001 -2.406719,-1.93249 -0.704323,-0.70972 -1.378315,-1.44998 -1.979411,-2.25038 -0.662041,-0.88933 -1.290259,-1.80639 -1.78638,-2.80083 -0.524218,-1.07438 -0.975312,-2.18289 -1.264819,-3.34586 -0.292092,-1.17068 -0.525129,-2.35509 -0.663728,-3.55458 -0.141597,-1.22492 -0.254048,-2.45408 -0.27518,-3.6878 -0.01611,-1.2627 0.0073,-2.52657 0.133585,-3.78409 0.128138,-1.23034 0.294569,-2.45759 0.566931,-3.66541 0.265197,-1.13888 0.577215,-2.26715 1.003493,-3.35771 0.392443,-1.00718 0.814263,-2.00369 1.320583,-2.95986 0.4968,-0.93308 1.023668,-1.85093 1.624724,-2.7216 0.598181,-0.8533 1.228376,-1.68667 1.963992,-2.42807 0.645371,-0.64245 1.318524,-1.25774 2.059297,-1.79008 0.606099,-0.43627 1.226394,-0.85412 1.886021,-1.20632 0.510024,-0.26928 1.028253,-0.52358 1.566778,-0.7316 0.377722,-0.14668 0.758616,-0.28622 1.148059,-0.39898 0.386574,-0.10732 0.778534,-0.20047 1.180324,-0.22648 4.85353,-0.32358 5.311146,6.54034 0.457616,6.86393 z"
       inkscape:connector-curvature="0" />
    <path
       style="opacity:1;fill:#020900;fill-opacity:1;stroke:none;stroke-width:1;stroke-linecap:butt;stroke-linejoin:round;stroke-miterlimit:4;stroke-dasharray:none;stroke-opacity:1"
       id="path1531"
       d="m 41.561281,215.59984 c -0.04325,0.20068 -0.03181,0.12698 -0.01561,-0.0428 0.03014,-0.35382 0.05065,-0.70837 0.07014,-1.06291 0.02716,-0.51265 0.04899,-1.02556 0.06991,-1.5385 0.02162,-0.51273 0.03754,-1.02567 0.05279,-1.53862 0.01447,-0.46655 0.02506,-0.93321 0.03558,-1.39986 0.0038,-0.3461 0.02154,-0.69214 0.02069,-1.03828 -5.29e-4,0.0135 -0.0011,0.0269 -0.0019,0.0404 -0.201076,-4.86014 6.672212,-5.14451 6.873287,-0.28436 v 0 c 0.0026,0.0889 0.0051,0.17785 0.0076,0.26678 -0.0021,0.39031 -0.01463,0.78046 -0.02241,1.17069 -0.0109,0.48306 -0.02191,0.96613 -0.03687,1.44909 -0.01601,0.53829 -0.03282,1.07657 -0.05547,1.61463 -0.02228,0.54569 -0.04558,1.09136 -0.07463,1.63674 -0.02471,0.447 -0.05109,0.89402 -0.09104,1.33996 -0.03339,0.34765 -0.06891,0.69625 -0.153609,1.03597 -1.166,4.72249 -7.84461,3.07351 -6.67861,-1.64898 z"
       inkscape:connector-curvature="0" />
    <path
       style="opacity:1;fill:#020900;fill-opacity:1;stroke:none;stroke-width:1;stroke-linecap:butt;stroke-linejoin:round;stroke-miterlimit:4;stroke-dasharray:none;stroke-opacity:1"
       id="path1533"
       d="m 21.198085,247.6482 c -0.165425,5.3e-4 -0.330845,0.003 -0.496267,0.004 -0.292072,0.003 -0.584109,0.007 -0.876068,0.0154 -0.371856,0.0143 -0.743278,0.0374 -1.114634,0.061 -0.410997,0.0272 -0.822146,0.0519 -1.232803,0.0839 -0.355285,0.0296 -0.710298,0.0627 -1.063971,0.10775 -0.3083,0.0422 -0.613884,0.10164 -0.918966,0.16236 -0.191235,0.0394 -0.382565,0.0784 -0.572896,0.12193 -4.744656,1.07225 -6.2610346,-5.63771 -1.516378,-6.70995 v 0 c 0.249423,-0.056 0.499447,-0.10912 0.750059,-0.15953 0.46551,-0.0922 0.932227,-0.17986 1.40306,-0.24062 0.461399,-0.0572 0.923991,-0.10358 1.387464,-0.14054 0.442576,-0.0342 0.885581,-0.0618 1.328529,-0.0907 0.449001,-0.0285 0.898124,-0.056 1.347785,-0.0719 0.340251,-0.01 0.68057,-0.0151 1.02095,-0.0182 0.18471,-0.002 0.369419,-0.004 0.554136,-0.004 4.864305,0 4.864305,6.87917 0,6.87917 z"
       inkscape:connector-curvature="0" />
    <path
       style="opacity:1;fill:#020900;fill-opacity:1;stroke:none;stroke-width:1;stroke-linecap:butt;stroke-linejoin:round;stroke-miterlimit:4;stroke-dasharray:none;stroke-opacity:1"
       id="path1537"
       d="m 74.429659,240.1693 c -0.01722,-0.0256 -0.233336,-0.17205 -0.181184,-0.14393 -0.02191,-0.0156 0.005,-0.003 0.01333,-0.008 0.158546,0.0419 0.320191,0.0702 0.481634,0.0982 0.373152,0.0615 0.749366,0.10157 1.125445,0.14012 0.515115,0.0511 1.0312,0.0916 1.547273,0.13166 0.498572,0.0383 0.997336,0.0739 1.496097,0.10965 0.415435,0.0298 0.83091,0.0591 1.246393,0.0882 0.330587,0.0233 0.661136,0.047 0.991918,0.0673 0.277598,0.018 0.555432,0.0311 0.833377,0.0421 0.25795,0.0101 0.515945,0.0191 0.773946,0.0279 0.301053,0.006 0.600995,0.0214 0.901136,0.0448 0.228986,0.0473 0.457973,0.0947 0.686959,0.14198 4.668512,1.36619 2.736432,7.96846 -1.93208,6.60227 v 0 c 0.179472,0.0328 0.358944,0.0657 0.538416,0.0985 0.441138,0.0205 -0.37719,-0.013 -0.427815,-0.0124 -0.271679,-0.009 -0.543351,-0.0187 -0.814978,-0.0294 -0.327577,-0.0131 -0.655028,-0.0287 -0.98221,-0.0497 -0.350181,-0.0216 -0.700143,-0.0464 -1.050112,-0.0712 -0.418801,-0.0294 -0.837589,-0.0589 -1.256342,-0.089 -0.512329,-0.0367 -1.024663,-0.0734 -1.536798,-0.11268 -0.573786,-0.0445 -1.147564,-0.0899 -1.720236,-0.14728 -0.542669,-0.0561 -1.085245,-0.11689 -1.623066,-0.20984 -0.485412,-0.0873 -0.969719,-0.18621 -1.439103,-0.34022 -0.421463,-0.14296 -0.836673,-0.30572 -1.224473,-0.5264 -0.29999,-0.16999 -0.594265,-0.35169 -0.858975,-0.57407 -3.732427,-3.11936 0.679027,-8.39781 4.411453,-5.27844 z"
       inkscape:connector-curvature="0" />
    <path
       style="opacity:1;fill:#020900;fill-opacity:1;stroke:none;stroke-width:1;stroke-linecap:butt;stroke-linejoin:round;stroke-miterlimit:4;stroke-dasharray:none;stroke-opacity:1"
       id="path1539"
       d="m 51.36185,270.24383 c 0.01955,0.31483 0.02334,0.63038 0.02735,0.9457 0.0029,0.69733 -0.02212,1.3944 -0.04895,2.0911 -0.03796,0.8692 -0.07717,1.73834 -0.113797,2.6076 -0.03338,0.80082 -0.06559,1.60169 -0.09793,2.40255 -0.02614,0.6477 -0.05227,1.29539 -0.0784,1.94309 -0.02082,0.51643 -0.04166,1.03285 -0.06249,1.54928 -0.01662,0.41161 -0.03321,0.82322 -0.04981,1.23483 -0.0072,0.17724 -0.01622,0.35441 -0.02545,0.53155 -0.254561,4.85764 -7.124301,4.49764 -6.86974,-0.36 v 0 c 0.0079,-0.14958 0.01545,-0.29917 0.02162,-0.44882 0.01659,-0.41161 0.03321,-0.82322 0.04981,-1.23483 0.02082,-0.51643 0.04166,-1.03286 0.0625,-1.54929 0.02614,-0.64781 0.05226,-1.29562 0.07841,-1.94343 0.03251,-0.80486 0.06488,-1.60973 0.09843,-2.41455 0.0363,-0.8613 0.07501,-1.72249 0.112832,-2.58372 0.02252,-0.57997 0.04397,-1.16021 0.04434,-1.7407 -0.0021,-0.18626 -0.0045,-0.37255 -0.01169,-0.55869 -0.333515,-4.85286 6.529462,-5.32452 6.862979,-0.47167 z"
       inkscape:connector-curvature="0" />
  </g>
</svg>
