<svg viewBox="0 0 100 100"><path style="opacity:1;fill:#020900;fill-opacity:1;stroke:none;stroke-width:1;stroke-linecap:butt;stroke-linejoin:round;stroke-miterlimit:4;stroke-dasharray:none;stroke-opacity:1" d="M10.207 242.695c-.087 0-.122.003-.04-.004q.168-.015.336-.038.186-.034.371-.074l.76-.17c.384-.082.77-.152 1.157-.219l1.26-.204q.727-.121 1.456-.236c.57-.086 1.14-.162 1.71-.242a101 101 0 0 1 11.048-.925q1.277-.046 2.556-.07 1.312-.021 2.625-.021 1.347-.004 2.693.009 1.428.016 2.854.045c.988.017 1.976.044 2.963.07a635 635 0 0 0 5.857.123l2.948.05q1.463.027 2.925.078c.94.033 1.88.077 2.821.12q1.38.061 2.758.116 1.387.054 2.776.094c.91.027 1.819.035 2.728.037q1.35-.003 2.702-.022c.89-.01 1.778-.035 2.667-.061q1.344-.038 2.688-.084l2.658-.095q1.23-.043 2.457-.093 1.1-.045 2.2-.099.937-.045 1.875-.103.792-.053 1.582-.113l1.338-.102q.54-.039 1.078-.082l.907-.075.771-.067q.338-.029.677-.055.255-.023.508-.05l.169-.018c4.838-.504 5.551 6.338.713 6.842l-.172.018q-.328.036-.656.064l-.651.053-.77.067q-.47.04-.941.078-.558.044-1.116.085l-1.339.101q-.834.065-1.668.12-.984.06-1.969.108-1.131.055-2.264.102-1.246.05-2.493.094-1.326.046-2.652.095-1.365.048-2.73.085c-.925.027-1.851.052-2.778.064q-1.401.019-2.804.022c-.97-.002-1.939-.011-2.908-.04q-1.428-.04-2.854-.096a476 476 0 0 1-2.798-.119c-.914-.041-1.829-.084-2.744-.116q-1.41-.049-2.82-.074-1.468-.028-2.936-.05a679 679 0 0 1-5.917-.125c-.971-.025-1.942-.052-2.913-.07q-1.395-.026-2.789-.043a233 233 0 0 0-5.13.01q-1.22.023-2.436.068-1.158.039-2.316.097c-.72.038-1.44.08-2.159.136a99 99 0 0 0-4.052.396q-.91.108-1.818.234c-.535.075-1.07.147-1.605.227q-.708.11-1.414.229-.594.095-1.187.192c-.289.05-.577.101-.864.162-.273.06-.546.124-.82.183-.29.06-.578.119-.871.159q-.293.038-.588.066c-.203.02-.406.035-.61.035-4.864 0-4.864-6.88 0-6.88" transform="translate(0 -197)"/><path style="opacity:1;fill:#020900;fill-opacity:1;stroke:none;stroke-width:1;stroke-linecap:butt;stroke-linejoin:round;stroke-miterlimit:4;stroke-dasharray:none;stroke-opacity:1" d="M28.82 246.929q.018.21.042.423c.036.325.06.65.084.977.032.44.055.882.077 1.324q.035.766.063 1.534l.062 1.709.078 1.954.093 2.188q.049 1.191.088 2.382.036 1.264.092 2.53c.042.9.092 1.8.141 2.7l.154 2.832q.074 1.44.155 2.882.076 1.371.17 2.741l.156 2.386q.063.988.13 1.975a548 548 0 0 1 .191 3.002q.031.533.068 1.065c.026.481.09.496-.075-.104 1.725 4.548-4.708 6.987-6.432 2.439-.193-.605-.34-1.212-.355-1.85q-.039-.564-.072-1.127a967 967 0 0 0-.19-2.97l-.13-1.987q-.076-1.187-.156-2.372c-.062-.939-.123-1.877-.174-2.816q-.081-1.448-.156-2.897l-.152-2.821c-.051-.924-.102-1.847-.145-2.77q-.059-1.305-.095-2.61-.04-1.164-.086-2.328l-.094-2.19-.078-1.969q-.033-.86-.062-1.72-.027-.726-.06-1.452a50 50 0 0 0-.066-1.155c-.019-.251-.037-.502-.064-.753q-.03-.266-.054-.533c-.438-4.844 6.413-5.464 6.851-.62m51.67.828c0 .018-.02.18-.026.238q-.023.275-.041.55c-.028.35-.047.701-.07 1.052a51 51 0 0 1-.14 1.695c-.079.71-.164 1.419-.24 2.13-.092.85-.166 1.701-.233 2.554a147 147 0 0 0-.194 3.008q-.091 1.611-.12 3.226c-.019 1.14-.007 2.282.013 3.422q.035 1.692.102 3.382c.039 1.003.087 2.004.134 3.006l.117 2.451.093 2.01q.038.813.086 1.628l.077 1.346.062 1.078.05.86.042.65.037.544.03.435.023.347.02.277.014.21-.001-.006-.009-.093c.548 4.834-6.288 5.608-6.835.774-.015-.15-.01-.086-.018-.191l-.015-.227-.02-.277-.023-.347-.03-.435-.036-.547-.048-.72-.049-.86-.062-1.078-.077-1.349q-.051-.852-.09-1.706-.044-.997-.093-1.996l-.116-2.451a349 349 0 0 1-.138-3.066 184 184 0 0 1-.105-3.526c-.022-1.225-.034-2.45-.013-3.675.023-1.162.062-2.323.13-3.483.06-1.054.123-2.107.204-3.16a92 92 0 0 1 .25-2.745c.075-.696.157-1.392.236-2.088q.073-.72.12-1.442c.024-.375.044-.75.074-1.125.02-.258.035-.517.062-.774q.025-.245.057-.488c.694-4.815 7.503-3.832 6.808.982z" transform="translate(0 -197)"/></svg>