<?xml version="1.0" encoding="UTF-8" standalone="no"?>
<!-- Created with Inkscape (http://www.inkscape.org/) -->

<svg
   xmlns:dc="http://purl.org/dc/elements/1.1/"
   xmlns:cc="http://creativecommons.org/ns#"
   xmlns:rdf="http://www.w3.org/1999/02/22-rdf-syntax-ns#"
   xmlns:svg="http://www.w3.org/2000/svg"
   xmlns="http://www.w3.org/2000/svg"
   xmlns:sodipodi="http://sodipodi.sourceforge.net/DTD/sodipodi-0.dtd"
   xmlns:inkscape="http://www.inkscape.org/namespaces/inkscape"
   width="10cm"
   height="10cm"
   viewBox="0 0 100 99.999997"
   version="1.1"
   id="svg8"
   sodipodi:docname="supa.svg"
   inkscape:version="0.92.3 (2405546, 2018-03-11)">
  <defs
     id="defs2" />
  <sodipodi:namedview
     id="base"
     pagecolor="#ffffff"
     bordercolor="#666666"
     borderopacity="1.0"
     inkscape:pageopacity="0.0"
     inkscape:pageshadow="2"
     inkscape:zoom="1"
     inkscape:cx="175.50186"
     inkscape:cy="186.50542"
     inkscape:document-units="cm"
     inkscape:current-layer="layer1"
     showgrid="true"
     units="cm"
     inkscape:window-width="881"
     inkscape:window-height="707"
     inkscape:window-x="971"
     inkscape:window-y="213"
     inkscape:window-maximized="0"
     inkscape:snap-nodes="false">
    <inkscape:grid
       type="xygrid"
       id="grid815"
       units="cm"
       spacingx="9.9999998"
       spacingy="9.9999998" />
  </sodipodi:namedview>
  <metadata
     id="metadata5">
    <rdf:RDF>
      <cc:Work
         rdf:about="">
        <dc:format>image/svg+xml</dc:format>
        <dc:type
           rdf:resource="http://purl.org/dc/dcmitype/StillImage" />
        <dc:title></dc:title>
      </cc:Work>
    </rdf:RDF>
  </metadata>
  <g
     inkscape:label="Layer 1"
     inkscape:groupmode="layer"
     id="layer1"
     transform="translate(0,-197.00002)">
    <path
       style="opacity:1;fill:#020900;fill-opacity:1;stroke:none;stroke-width:1;stroke-linecap:butt;stroke-linejoin:round;stroke-miterlimit:4;stroke-dasharray:none;stroke-opacity:1"
       id="path1541"
       d="m 10.207381,242.69494 c -0.08788,0 -0.122715,0.003 -0.03989,-0.004 0.111998,-0.0109 0.223943,-0.0224 0.335432,-0.0377 0.124281,-0.0224 0.247953,-0.0482 0.371571,-0.074 0.253537,-0.0559 0.506473,-0.11439 0.760165,-0.16961 0.383593,-0.0827 0.769681,-0.15278 1.156291,-0.21962 0.419699,-0.0701 0.840022,-0.13643 1.260102,-0.20423 0.484966,-0.0806 0.970071,-0.16016 1.455879,-0.23552 0.569167,-0.086 1.139703,-0.16263 1.709812,-0.24209 0.646552,-0.0908 1.294333,-0.17242 1.942505,-0.25071 0.703432,-0.0832 1.4077,-0.15909 2.112456,-0.23013 0.741976,-0.0739 1.485045,-0.13595 2.228397,-0.1941 0.77846,-0.0614 1.55802,-0.10679 2.337799,-0.14736 0.808733,-0.0419 1.617924,-0.0735 2.427205,-0.10247 0.851609,-0.0305 1.703388,-0.0552 2.555399,-0.0709 0.875091,-0.0149 1.750317,-0.019 2.625516,-0.0208 0.897816,-0.002 1.795621,8e-4 2.6934,0.009 0.95123,0.0107 1.902375,0.0276 2.8535,0.0452 0.987941,0.0173 1.975667,0.0445 2.963418,0.07 0.975696,0.0254 1.951468,0.0476 2.92727,0.0685 0.976416,0.0208 1.952892,0.0384 2.929387,0.055 0.982726,0.0153 1.965431,0.0318 2.948104,0.0503 0.975053,0.0167 1.949831,0.0444 2.92445,0.0774 0.940848,0.0327 1.881249,0.0765 2.821686,0.11907 0.919089,0.0417 1.838291,0.0808 2.757612,0.1171 0.925306,0.0362 1.85079,0.0674 2.776437,0.0934 0.909034,0.0269 1.818402,0.0354 2.727785,0.037 0.900722,-10e-4 1.801413,-0.009 2.702052,-0.0212 0.888993,-0.0111 1.777731,-0.0355 2.666387,-0.0615 0.896408,-0.0256 1.792766,-0.0527 2.688989,-0.0842 0.885949,-0.0317 1.771872,-0.0641 2.657867,-0.0945 0.818814,-0.0284 1.637485,-0.0605 2.456143,-0.093 0.733655,-0.0303 1.467209,-0.0629 2.200611,-0.0988 0.625181,-0.0303 1.25018,-0.0642 1.874866,-0.10332 0.527553,-0.034 1.054693,-0.0739 1.581835,-0.11364 0.446136,-0.0337 0.892271,-0.0674 1.338416,-0.10102 0.35914,-0.0269 0.718333,-0.053 1.077299,-0.0821 0.302538,-0.025 0.605102,-0.0496 0.907553,-0.0756 0.257132,-0.0223 0.514241,-0.0448 0.771392,-0.0669 0.225351,-0.0197 0.450932,-0.0365 0.676376,-0.0551 0.169489,-0.0145 0.338648,-0.0324 0.507836,-0.05 0.113728,-0.0118 0.05729,-0.006 0.169309,-0.0177 4.838078,-0.50443 5.551445,6.33765 0.713365,6.84208 v 0 c -0.11398,0.0119 -0.05639,0.006 -0.172779,0.018 -0.218331,0.0226 -0.43666,0.0455 -0.655418,0.0637 -0.217183,0.0178 -0.434477,0.0342 -0.651576,0.053 -0.256394,0.022 -0.512741,0.0445 -0.769117,0.0667 -0.313801,0.027 -0.627711,0.0526 -0.941604,0.0785 -0.371883,0.0301 -0.743969,0.0574 -1.116034,0.0851 -0.446164,0.0336 -0.892323,0.0673 -1.33848,0.10103 -0.556056,0.0419 -1.112115,0.0839 -1.66861,0.11962 -0.655881,0.041 -1.312066,0.0768 -1.96846,0.10854 -0.754587,0.0369 -1.509329,0.0705 -2.264178,0.10162 -0.830879,0.0329 -1.661771,0.0655 -2.492806,0.0944 -0.884124,0.0303 -1.768178,0.0626 -2.652257,0.0943 -0.909728,0.0319 -1.819587,0.0595 -2.729503,0.0855 -0.925962,0.0271 -1.852017,0.0523 -2.778328,0.0639 -0.934556,0.0121 -1.86917,0.0208 -2.803814,0.0217 -0.969565,-0.002 -1.939115,-0.0111 -2.908313,-0.0397 -0.951664,-0.0268 -1.903166,-0.0588 -2.854478,-0.096 -0.93263,-0.0368 -1.865138,-0.0765 -2.797533,-0.11879 -0.914423,-0.0414 -1.82881,-0.0841 -2.743633,-0.11598 -0.94002,-0.0319 -1.880198,-0.0587 -2.820641,-0.0747 -0.978501,-0.0184 -1.957033,-0.0349 -2.935589,-0.0501 -0.986658,-0.0168 -1.973303,-0.0345 -2.959881,-0.0556 -0.985983,-0.0211 -1.971937,-0.0436 -2.957814,-0.0692 -0.970727,-0.0251 -1.941422,-0.0518 -2.912335,-0.0689 -0.929576,-0.0171 -1.859174,-0.0337 -2.788854,-0.0443 -0.87259,-0.008 -1.745207,-0.0108 -2.617837,-0.009 -0.837833,0.002 -1.675691,0.006 -2.513423,0.0196 -0.811948,0.0147 -1.623655,0.0387 -2.43522,0.0676 -0.772173,0.0276 -1.544267,0.0577 -2.31592,0.0976 -0.720051,0.0374 -1.439911,0.079 -2.158742,0.13571 -0.692201,0.0541 -1.384143,0.11174 -2.07507,0.18039 -0.659677,0.0664 -1.318875,0.13751 -1.977326,0.21517 -0.606472,0.0732 -1.21258,0.14946 -1.817525,0.23446 -0.535241,0.0746 -1.070873,0.14654 -1.605316,0.22671 -0.471809,0.0731 -0.94286,0.15081 -1.413874,0.22887 -0.395823,0.0639 -0.791852,0.12651 -1.187396,0.1921 -0.288594,0.0496 -0.57682,0.10149 -0.863245,0.16253 -0.273881,0.0595 -0.546648,0.12389 -0.820727,0.18249 -0.288866,0.06 -0.5782,0.11915 -0.870696,0.15882 -0.195541,0.0255 -0.391429,0.0481 -0.587789,0.0663 -0.202756,0.0192 -0.406033,0.0349 -0.609844,0.0352 -4.8643056,0 -4.8643056,-6.87917 0,-6.87917 z"
       inkscape:connector-curvature="0" />
    <path
       style="opacity:1;fill:#020900;fill-opacity:1;stroke:none;stroke-width:1;stroke-linecap:butt;stroke-linejoin:round;stroke-miterlimit:4;stroke-dasharray:none;stroke-opacity:1"
       id="path1543"
       d="m 28.819451,246.92853 c 0.01196,0.14128 0.02752,0.2822 0.04255,0.42316 0.03553,0.32504 0.06012,0.65112 0.08417,0.97717 0.03197,0.44101 0.05515,0.88258 0.0768,1.3242 0.02381,0.51108 0.04437,1.02231 0.0633,1.53359 0.01992,0.56966 0.03958,1.13933 0.06159,1.70891 0.02469,0.65147 0.05157,1.30286 0.07809,1.95426 0.03029,0.72929 0.0633,1.45845 0.09329,2.18775 0.03227,0.794 0.06122,1.58813 0.08766,2.38234 0.02469,0.84333 0.0542,1.68648 0.09204,2.52932 0.04197,0.90025 0.09195,1.80009 0.141539,2.69995 0.05128,0.9441 0.1026,1.8882 0.153077,2.83234 0.04927,0.96083 0.101534,1.92149 0.154985,2.88209 0.0496,0.91434 0.108802,1.82811 0.169548,2.74176 0.05339,0.79524 0.105666,1.59055 0.156916,2.38593 0.04189,0.65818 0.08601,1.31623 0.129707,1.97429 0.03638,0.5461 0.07182,1.09227 0.106563,1.63847 0.02867,0.45453 0.05686,0.90909 0.0849,1.36366 0.0223,0.35509 0.04227,0.71032 0.06746,1.06521 0.02635,0.48156 0.09043,0.49601 -0.07452,-0.10398 1.724536,4.54835 -4.707797,6.98721 -6.432332,2.43886 v 0 c -0.19322,-0.60523 -0.339302,-1.21215 -0.355229,-1.85033 -0.02639,-0.37527 -0.04827,-0.75082 -0.0715,-1.12629 -0.02776,-0.45017 -0.05568,-0.90034 -0.08407,-1.35047 -0.03434,-0.53984 -0.06936,-1.07964 -0.105324,-1.61938 -0.04399,-0.66254 -0.08841,-1.32506 -0.130586,-1.98773 -0.05095,-0.7907 -0.102919,-1.58134 -0.155999,-2.37191 -0.06238,-0.93837 -0.123102,-1.87686 -0.174077,-2.81593 -0.05372,-0.96557 -0.106274,-1.9312 -0.155798,-2.89699 -0.05028,-0.9404 -0.101393,-1.88076 -0.152467,-2.82112 -0.05088,-0.92339 -0.102119,-1.84678 -0.145068,-2.77058 -0.03886,-0.86919 -0.06979,-1.73867 -0.09512,-2.60836 -0.02583,-0.7763 -0.05413,-1.55251 -0.08566,-2.3286 -0.03001,-0.73021 -0.06314,-1.46028 -0.0934,-2.19048 -0.02671,-0.65617 -0.05379,-1.31232 -0.07866,-1.96856 -0.02213,-0.5733 -0.04202,-1.14666 -0.06201,-1.72003 -0.0179,-0.48402 -0.03736,-0.96798 -0.05979,-1.45181 -0.01882,-0.38521 -0.03877,-0.77038 -0.06643,-1.15507 -0.01848,-0.25124 -0.03661,-0.50258 -0.06397,-0.75304 -0.01893,-0.17756 -0.03808,-0.35509 -0.05337,-0.533 -0.438118,-4.84454 6.413089,-5.46413 6.851207,-0.6196 z"
       inkscape:connector-curvature="0" />
    <path
       style="opacity:1;fill:#020900;fill-opacity:1;stroke:none;stroke-width:1;stroke-linecap:butt;stroke-linejoin:round;stroke-miterlimit:4;stroke-dasharray:none;stroke-opacity:1"
       id="path1545"
       d="m 80.488501,247.75563 c 0.0011,0.0188 -0.01955,0.18079 -0.02561,0.23885 -0.01624,0.18288 -0.02753,0.36616 -0.04105,0.54925 -0.02832,0.35035 -0.04686,0.70137 -0.06906,1.05213 -0.03748,0.56574 -0.08461,1.13074 -0.140912,1.6949 -0.07871,0.71001 -0.163853,1.41924 -0.239545,2.12959 -0.09265,0.85015 -0.166243,1.70213 -0.23318,2.55463 -0.07702,1.00171 -0.137192,2.00459 -0.193657,3.00764 -0.06284,1.07463 -0.09985,2.15037 -0.120131,3.22657 -0.01934,1.14066 -0.0077,2.28144 0.01273,3.42198 0.02215,1.12772 0.05778,2.25511 0.101524,3.38218 0.03928,1.00222 0.08729,2.00406 0.134799,3.00592 0.03884,0.81705 0.07788,1.63409 0.116639,2.45114 0.03185,0.66954 0.06286,1.33912 0.09343,2.00873 0.02307,0.54324 0.05454,1.08607 0.08545,1.62891 0.02569,0.44867 0.05152,0.89733 0.07725,1.346 0.02061,0.35942 0.04121,0.71884 0.06182,1.07826 0.01643,0.28649 0.03285,0.57298 0.04927,0.85947 0.01341,0.21653 0.02822,0.43298 0.04288,0.64943 0.01233,0.1817 0.02468,0.3634 0.03703,0.5451 0.0099,0.14504 0.01971,0.29008 0.02959,0.43513 0.0079,0.11561 0.01572,0.23122 0.02357,0.34683 0.0063,0.0921 0.01254,0.18428 0.01879,0.27642 0.0048,0.0704 0.0096,0.14083 0.01442,0.21123 -1.38e-4,-0.002 -2.65e-4,-0.005 -5.3e-4,-0.007 -0.0029,-0.0309 -0.0058,-0.0618 -0.0087,-0.0926 0.547296,4.83341 -6.288191,5.60741 -6.835487,0.77399 v 0 c -0.0149,-0.15026 -0.0095,-0.0864 -0.01765,-0.19138 -0.0053,-0.0757 -0.01035,-0.15146 -0.01553,-0.22719 -0.0063,-0.0922 -0.01254,-0.18429 -0.01879,-0.27643 -0.0079,-0.11561 -0.01572,-0.23122 -0.02357,-0.34683 -0.0099,-0.14506 -0.01974,-0.29012 -0.02959,-0.43518 -0.01238,-0.18228 -0.02479,-0.36456 -0.03715,-0.54684 -0.01627,-0.24017 -0.03273,-0.48033 -0.04733,-0.72061 -0.01643,-0.28649 -0.03285,-0.57298 -0.04927,-0.85946 -0.02058,-0.35935 -0.0412,-0.7187 -0.0618,-1.07805 -0.0258,-0.44965 -0.05167,-0.89929 -0.07742,-1.34894 -0.03237,-0.56858 -0.06516,-1.13716 -0.08941,-1.70617 -0.03038,-0.66551 -0.0612,-1.33101 -0.09286,-1.99647 -0.03876,-0.81709 -0.07781,-1.63417 -0.116641,-2.45125 -0.04845,-1.02169 -0.09735,-2.04337 -0.137364,-3.06543 -0.04546,-1.17504 -0.0827,-2.35039 -0.105593,-3.5261 -0.02172,-1.22502 -0.03375,-2.45032 -0.01257,-3.67547 0.02236,-1.1615 0.06194,-2.32252 0.12977,-3.48235 0.05939,-1.05385 0.122804,-2.10752 0.203933,-3.15996 0.0721,-0.916 0.151347,-1.83144 0.250801,-2.74493 0.07432,-0.69646 0.156549,-1.39197 0.235233,-2.08793 0.04868,-0.48017 0.08756,-0.96124 0.12025,-1.44277 0.02387,-0.3749 0.0437,-0.75008 0.07404,-1.12455 0.01918,-0.25825 0.03445,-0.51687 0.06146,-0.77447 0.01767,-0.16282 0.03552,-0.32561 0.05693,-0.48799 0.694695,-4.81445 7.503348,-3.832 6.80865,0.98245 z"
       inkscape:connector-curvature="0" />
  </g>
</svg>
