<svg viewBox="0 0 100 100"><path style="opacity:1;fill:#020900;fill-opacity:1;stroke:none;stroke-width:1;stroke-linecap:butt;stroke-linejoin:round;stroke-miterlimit:4;stroke-dasharray:none;stroke-opacity:1" d="M11.618 235.048c.035-.052.097-.159.14-.232.172-.308.331-.623.485-.941.242-.5.458-1.01.667-1.523.292-.732.557-1.474.828-2.213q.419-1.15.83-2.303.393-1.086.778-2.174.351-.998.677-2.005.303-.939.592-1.88.251-.814.504-1.627.206-.665.42-1.327.184-.587.393-1.165c.181-.523.436-1.01.728-1.478.72-1.048 1.46-1.484 2.671-1.828 1.256-.237 2.379.145 3.414.833.644.478 1.15 1.1 1.638 1.729.398.52.777 1.052 1.16 1.582.408.563.823 1.12 1.229 1.684.485.678.936 1.38 1.377 2.087q.59.965 1.173 1.933.48.796.963 1.591.436.709.85 1.429l.736 1.275q.35.6.703 1.198.284.48.59.944.277.421.558.841.24.363.479.729a9 9 0 0 1 .604 1.051c2.13 4.373-4.053 7.386-6.184 3.014l-.02-.042a4 4 0 0 0-.167-.272l-.44-.669-.59-.89q-.389-.592-.75-1.202-.367-.622-.732-1.247-.374-.646-.745-1.293-.375-.652-.77-1.294-.488-.802-.974-1.607-.559-.928-1.124-1.853a32 32 0 0 0-1.124-1.709c-.4-.558-.812-1.108-1.214-1.665-.34-.468-.675-.94-1.025-1.4-.023-.03-.564-.656-.224-.363a2.75 2.75 0 0 0 2.002.323c.671-.212 1.315-.52 1.695-1.145.132-.24-.013-.005-.03.086-.11.297-.205.599-.302.9q-.203.63-.398 1.262l-.502 1.615q-.305.993-.623 1.982a90 90 0 0 1-.73 2.159q-.391 1.109-.791 2.215-.42 1.172-.845 2.34c-.3.82-.594 1.64-.92 2.45a33 33 0 0 1-.85 1.933 23 23 0 0 1-.735 1.406 9 9 0 0 1-.62.947c-2.963 3.857-8.419-.333-5.455-4.19m45.732-2.046q.113-.269.218-.538c.141-.347.267-.7.394-1.052q.317-.88.624-1.763a115 115 0 0 0 1.978-6.26q.303-1.054.594-2.113c.182-.667.361-1.335.546-2.002q.255-.923.519-1.844l.428-1.489c.126-.451.257-.9.408-1.345.203-.62.516-1.184.886-1.717.801-1.03 1.633-1.435 2.893-1.681 1.372-.141 2.527.415 3.51 1.322.534.538.938 1.181 1.317 1.833.359.631.671 1.286.97 1.947.31.707.603 1.42.904 2.131q.46 1.08.925 2.154c.322.73.644 1.46.957 2.194q.428 1.012.854 2.025.388.919.75 1.85c.223.57.431 1.148.636 1.726l.49 1.398.395 1.13.322.932.25.735q.102.292.2.584l.163.474a14 14 0 0 1 .297 1c1.183 4.717-5.49 6.39-6.673 1.673a2 2 0 0 0-.044-.162q-.044-.15-.095-.3l-.156-.459-.2-.584-.25-.731-.307-.891-.394-1.125-.483-1.38a51 51 0 0 0-1.24-3.199l-.84-1.993c-.31-.723-.628-1.443-.944-2.163q-.478-1.102-.949-2.208c-.28-.66-.552-1.325-.839-1.983a17 17 0 0 0-.656-1.335c-.005-.008-.383-.594-.18-.365.613.494 1.374.692 2.157.596.714-.162 1.373-.445 1.802-1.071.053-.084.198-.37.076-.117-.118.33-.2.672-.301 1.008l-.425 1.478q-.255.892-.503 1.787c-.184.663-.362 1.328-.543 1.992a187 187 0 0 1-1.289 4.467 120 120 0 0 1-1.422 4.35q-.319.916-.647 1.828c-.152.422-.304.843-.472 1.259q-.11.281-.227.56c-1.812 4.514-8.196 1.95-6.383-2.563m-9.195 28.647c.29-.017.569-.092.835-.206.12-.052.23-.122.335-.198.004.01-.08.107-.107.148-.051.074-.088.157-.126.239a4 4 0 0 0-.194.512 1 1 0 0 0-.04.299c.025.05.008-.146.003-.188-.024-.108.007-.059.058 0 .1.112.206.221.328.31.018-.022-.092-.08-.135-.103a.4.4 0 0 0-.125-.05 1 1 0 0 0-.238.022c-.011-.01.047-.058.067-.08q.109-.11.2-.237c-.07.069-.112.17-.151.26a.4.4 0 0 0-.041.13c.009.017-.016.106-.016.106a.3.3 0 0 0 .01.077c.044.133.13.246.212.358.19.242.427.442.698.587.105.056.218.088.332.114.215.044.431.03.646-.001l.163-.036c-4.672 1.352-6.585-5.256-1.912-6.609l.352-.09c.602-.111 1.21-.16 1.818-.06.508.087 1.008.215 1.477.433.653.314 1.258.711 1.725 1.276.345.44.653.906.858 1.429.174.44.323.892.402 1.361.081.504.132 1.013.098 1.523a6.7 6.7 0 0 1-.3 1.588c-.222.626-.507 1.225-.92 1.75a9 9 0 0 1-1.116 1.214c-.5.43-1.031.822-1.627 1.11-.724.334-1.48.587-2.283.64-.794.04-1.588-.005-2.354-.24-.813-.268-1.586-.63-2.246-1.188-.523-.444-1.016-.923-1.43-1.473-.467-.637-.879-1.314-1.117-2.074-.23-.784-.368-1.589-.293-2.41.057-.642.156-1.282.362-1.895.158-.474.332-.943.552-1.392.23-.462.48-.915.792-1.329a8.4 8.4 0 0 1 .937-1.07c.407-.371.843-.71 1.342-.951.513-.237 1.047-.42 1.615-.462 4.848-.392 5.402 6.465.554 6.857z" transform="translate(0 -197)"/></svg>