<?xml version="1.0" encoding="UTF-8" standalone="no"?>
<!-- Created with Inkscape (http://www.inkscape.org/) -->

<svg
   xmlns:dc="http://purl.org/dc/elements/1.1/"
   xmlns:cc="http://creativecommons.org/ns#"
   xmlns:rdf="http://www.w3.org/1999/02/22-rdf-syntax-ns#"
   xmlns:svg="http://www.w3.org/2000/svg"
   xmlns="http://www.w3.org/2000/svg"
   xmlns:sodipodi="http://sodipodi.sourceforge.net/DTD/sodipodi-0.dtd"
   xmlns:inkscape="http://www.inkscape.org/namespaces/inkscape"
   width="10cm"
   height="10cm"
   viewBox="0 0 100 99.999997"
   version="1.1"
   id="svg8"
   sodipodi:docname="suwi.svg"
   inkscape:version="0.92.3 (2405546, 2018-03-11)">
  <defs
     id="defs2" />
  <sodipodi:namedview
     id="base"
     pagecolor="#ffffff"
     bordercolor="#666666"
     borderopacity="1.0"
     inkscape:pageopacity="0.0"
     inkscape:pageshadow="2"
     inkscape:zoom="1"
     inkscape:cx="175.50186"
     inkscape:cy="186.50542"
     inkscape:document-units="cm"
     inkscape:current-layer="layer1"
     showgrid="true"
     units="cm"
     inkscape:window-width="881"
     inkscape:window-height="707"
     inkscape:window-x="971"
     inkscape:window-y="213"
     inkscape:window-maximized="0"
     inkscape:snap-nodes="false">
    <inkscape:grid
       type="xygrid"
       id="grid815"
       units="cm"
       spacingx="9.9999998"
       spacingy="9.9999998" />
  </sodipodi:namedview>
  <metadata
     id="metadata5">
    <rdf:RDF>
      <cc:Work
         rdf:about="">
        <dc:format>image/svg+xml</dc:format>
        <dc:type
           rdf:resource="http://purl.org/dc/dcmitype/StillImage" />
        <dc:title></dc:title>
      </cc:Work>
    </rdf:RDF>
  </metadata>
  <g
     inkscape:label="Layer 1"
     inkscape:groupmode="layer"
     id="layer1"
     transform="translate(0,-197.00002)">
    <path
       style="opacity:1;fill:#020900;fill-opacity:1;stroke:none;stroke-width:1;stroke-linecap:butt;stroke-linejoin:round;stroke-miterlimit:4;stroke-dasharray:none;stroke-opacity:1"
       id="path1547"
       d="m 11.617545,235.04817 c 0.03593,-0.0523 0.0973,-0.15899 0.13952,-0.23207 0.173098,-0.30799 0.332137,-0.62355 0.486265,-0.94136 0.241483,-0.49881 0.457493,-1.00938 0.666504,-1.52247 0.291684,-0.73188 0.557109,-1.47387 0.827962,-2.21362 0.28052,-0.76641 0.555091,-1.53498 0.831148,-2.30301 0.261439,-0.72356 0.521035,-1.44778 0.776647,-2.17342 0.235678,-0.66515 0.459148,-1.33452 0.67775,-2.00545 0.202905,-0.625 0.397218,-1.25274 0.591165,-1.88057 0.167869,-0.54213 0.336382,-1.08407 0.504824,-1.62603 0.136249,-0.44355 0.276914,-0.88571 0.419028,-1.32742 0.123327,-0.39094 0.25321,-0.77966 0.393813,-1.16473 0.180875,-0.52274 0.436125,-1.01038 0.728303,-1.47822 0.718636,-1.04763 1.459076,-1.48385 2.671016,-1.82785 1.255538,-0.23729 2.378452,0.14458 3.413993,0.83347 0.643625,0.47793 1.14942,1.10032 1.637729,1.72839 0.397727,0.51933 0.776907,1.05248 1.160365,1.58233 0.407792,0.56249 0.82241,1.11995 1.227987,1.68404 0.485378,0.67822 0.936908,1.37952 1.377799,2.08718 0.39338,0.64263 0.782931,1.28762 1.172483,1.93258 0.319619,0.53134 0.641516,1.06131 0.963493,1.59122 0.290949,0.47182 0.573556,0.94861 0.850575,1.42871 0.24462,0.42512 0.488381,0.85074 0.734769,1.27484 0.234074,0.39952 0.467566,0.79939 0.703511,1.19781 0.188608,0.31986 0.386397,0.6341 0.589597,0.94485 0.184923,0.28095 0.371449,0.56084 0.557792,0.84085 0.160867,0.24215 0.320845,0.48488 0.479383,0.72856 0.196752,0.29319 0.373613,0.59814 0.535511,0.91175 0.02283,0.0465 0.04565,0.093 0.06848,0.13954 2.130894,4.37273 -4.05308,7.38626 -6.183974,3.01354 v 0 c -0.0066,-0.0138 -0.01312,-0.0276 -0.01969,-0.0414 -0.02341,-0.042 -0.115236,-0.20268 -0.166954,-0.27256 -0.145349,-0.22353 -0.292195,-0.44608 -0.439677,-0.66821 -0.197355,-0.29655 -0.394909,-0.59298 -0.590605,-0.89063 -0.257898,-0.3953 -0.509411,-0.79474 -0.749187,-1.20135 -0.245676,-0.41497 -0.488973,-0.83133 -0.732641,-1.24748 -0.249817,-0.43014 -0.497208,-0.86169 -0.745213,-1.29288 -0.250785,-0.43491 -0.507031,-0.86658 -0.770713,-1.29383 -0.325129,-0.5351 -0.650177,-1.07026 -0.972935,-1.6068 -0.373584,-0.61856 -0.747336,-1.23703 -1.124084,-1.85366 -0.360038,-0.57896 -0.728127,-1.15316 -1.124194,-1.70836 -0.400715,-0.55805 -0.811792,-1.10852 -1.214402,-1.6652 -0.339168,-0.46866 -0.674418,-0.94031 -1.024489,-1.40094 -0.02296,-0.0298 -0.563889,-0.65512 -0.223847,-0.36279 0.617187,0.35806 1.298736,0.47359 2.001667,0.3232 0.67136,-0.21126 1.315413,-0.52064 1.694643,-1.14509 0.132041,-0.24004 -0.013,-0.005 -0.02936,0.0868 -0.110286,0.29651 -0.205574,0.59821 -0.302398,0.89932 -0.135132,0.41996 -0.268915,0.84036 -0.398377,1.26212 -0.167277,0.53821 -0.334624,1.0764 -0.501338,1.61478 -0.204412,0.66167 -0.409351,1.32322 -0.62332,1.98188 -0.235532,0.72241 -0.476211,1.44318 -0.729962,2.15943 -0.260486,0.73935 -0.524863,1.47731 -0.791278,2.21454 -0.280654,0.78082 -0.559828,1.56217 -0.845051,2.34133 -0.299738,0.81864 -0.593942,1.63959 -0.918937,2.44866 -0.2665,0.65158 -0.542068,1.2998 -0.850024,1.93308 -0.232043,0.47546 -0.471138,0.94779 -0.735171,1.40648 -0.191555,0.32523 -0.389486,0.64747 -0.620444,0.94668 -2.963186,3.85758 -8.4186411,-0.33299 -5.455456,-4.19058 z"
       inkscape:connector-curvature="0" />
    <path
       style="opacity:1;fill:#020900;fill-opacity:1;stroke:none;stroke-width:1;stroke-linecap:butt;stroke-linejoin:round;stroke-miterlimit:4;stroke-dasharray:none;stroke-opacity:1"
       id="path1549"
       d="m 57.350638,233.00273 c 0.0749,-0.1784 0.146095,-0.35831 0.217562,-0.53811 0.141076,-0.34678 0.267078,-0.69932 0.39406,-1.05142 0.211653,-0.58636 0.417602,-1.17475 0.623273,-1.76323 0.235183,-0.67289 0.461396,-1.34886 0.684033,-2.02599 0.226573,-0.68954 0.443682,-1.38214 0.656868,-2.07592 0.219948,-0.71689 0.429741,-1.43681 0.637264,-2.15737 0.202695,-0.70318 0.400405,-1.40777 0.594472,-2.11337 0.181416,-0.66747 0.361063,-1.3354 0.545517,-2.00204 0.170395,-0.61542 0.343422,-1.2301 0.518986,-1.84406 0.142293,-0.49641 0.285157,-0.99266 0.427961,-1.48893 0.126741,-0.45139 0.257855,-0.90121 0.408622,-1.3452 0.202417,-0.61957 0.516007,-1.18396 0.885275,-1.71744 0.801476,-1.03023 1.633487,-1.43465 2.893179,-1.68105 1.372571,-0.14075 2.527485,0.41578 3.510134,1.32257 0.534594,0.53816 0.93835,1.18109 1.317242,1.833 0.358889,0.63084 0.6712,1.28621 0.970163,1.94704 0.310542,0.70634 0.603137,1.42038 0.903775,2.13096 0.305485,0.71918 0.614648,1.4368 0.925229,2.1538 0.321334,0.73023 0.643353,1.46013 0.956979,2.19372 0.285499,0.67454 0.569188,1.34985 0.853647,2.02483 0.260101,0.6125 0.508428,1.22985 0.75003,1.84984 0.2228,0.57148 0.431284,1.14835 0.635902,1.72653 0.162944,0.46626 0.326546,0.93229 0.48994,1.3984 0.131807,0.3763 0.263445,0.75266 0.395099,1.12902 0.108321,0.31067 0.215212,0.62183 0.321829,0.93308 0.08379,0.24476 0.167502,0.48955 0.251219,0.73434 0.06661,0.19475 0.13321,0.38951 0.199814,0.58426 0.05395,0.158 0.108233,0.31588 0.161898,0.47398 0.05939,0.17211 0.112437,0.34629 0.165256,0.5205 0.04887,0.15819 0.09098,0.31826 0.131794,0.47868 1.183408,4.71816 -5.489074,6.39175 -6.672482,1.67359 v 0 c -0.01278,-0.0545 -0.02746,-0.10837 -0.04422,-0.1618 -0.03022,-0.10057 -0.06039,-0.20123 -0.0947,-0.3005 -0.05186,-0.15292 -0.10446,-0.30559 -0.156594,-0.45841 -0.06659,-0.19473 -0.133188,-0.38946 -0.199787,-0.58419 -0.08336,-0.24374 -0.166714,-0.48748 -0.250147,-0.7312 -0.101788,-0.29716 -0.203822,-0.59424 -0.307211,-0.89085 -0.131161,-0.37495 -0.262308,-0.74991 -0.39362,-1.1248 -0.161187,-0.45982 -0.32262,-0.91955 -0.483296,-1.37954 -0.180546,-0.51043 -0.364159,-1.01982 -0.560774,-1.52433 -0.218591,-0.56149 -0.443569,-1.12045 -0.679177,-1.67505 -0.279943,-0.66427 -0.559171,-1.32884 -0.840015,-1.99272 -0.309126,-0.72344 -0.62738,-1.44287 -0.943817,-2.16313 -0.318349,-0.73499 -0.635272,-1.4706 -0.948362,-2.20784 -0.279659,-0.66113 -0.552592,-1.32515 -0.839261,-1.98329 -0.203155,-0.45258 -0.415001,-0.90162 -0.656582,-1.33522 -0.0043,-0.008 -0.382296,-0.59372 -0.180438,-0.36514 0.613405,0.49449 1.374455,0.69254 2.157405,0.59671 0.714603,-0.16277 1.373116,-0.4458 1.802913,-1.07167 0.05272,-0.0842 0.198001,-0.37046 0.07597,-0.11654 -0.118411,0.33012 -0.200287,0.67198 -0.301916,1.00737 -0.141756,0.49263 -0.283575,0.98524 -0.424833,1.47802 -0.170175,0.59506 -0.337857,1.19083 -0.503015,1.7873 -0.183547,0.66324 -0.362048,1.32785 -0.542716,1.99187 -0.201415,0.73214 -0.406522,1.46326 -0.616855,2.19289 -0.218819,0.75965 -0.440143,1.51859 -0.67209,2.27435 -0.226425,0.73658 -0.456972,1.4719 -0.697595,2.20398 -0.235974,0.71743 -0.475694,1.43364 -0.724932,2.14659 -0.213196,0.61 -0.426773,1.21987 -0.64616,1.82768 -0.152029,0.42145 -0.304114,0.84298 -0.472456,1.25828 -0.07447,0.18735 -0.148301,0.37499 -0.226615,0.56078 -1.812745,4.51392 -8.196384,1.95031 -6.383642,-2.56361 z"
       inkscape:connector-curvature="0" />
    <path
       style="opacity:1;fill:#020900;fill-opacity:1;stroke:none;stroke-width:1;stroke-linecap:butt;stroke-linejoin:round;stroke-miterlimit:4;stroke-dasharray:none;stroke-opacity:1"
       id="path1551"
       d="m 48.155568,261.65039 c 0.289846,-0.0176 0.569402,-0.0926 0.835549,-0.20597 0.119655,-0.0522 0.229502,-0.12219 0.335225,-0.19793 0.0034,0.009 -0.08004,0.10659 -0.107434,0.1474 -0.0511,0.0741 -0.08789,0.15718 -0.125767,0.23861 -0.07679,0.16615 -0.138266,0.33868 -0.193715,0.51293 -0.03165,0.0968 -0.03861,0.1974 -0.04074,0.29847 0.02514,0.05 0.0084,-0.14597 0.0038,-0.18775 -0.02463,-0.10814 0.0062,-0.059 0.05781,-2.7e-4 0.100142,0.11246 0.20561,0.22146 0.327205,0.31084 0.01894,-0.0225 -0.09186,-0.0815 -0.134086,-0.10421 -0.04058,-0.0223 -0.07961,-0.0415 -0.125288,-0.0494 -0.08023,-0.006 -0.159271,0.008 -0.237935,0.0215 -0.01169,-0.009 0.04643,-0.0577 0.06674,-0.0794 0.07165,-0.0747 0.140629,-0.15187 0.199874,-0.23689 -0.06968,0.0685 -0.112011,0.16891 -0.150897,0.25963 -0.02196,0.046 -0.03318,0.0786 -0.04106,0.12948 0.0088,0.0176 -0.01537,0.10628 -0.0154,0.1064 0.0011,0.0356 0.0026,0.0538 0.0096,0.0768 0.04404,0.13335 0.130077,0.24661 0.211722,0.35882 0.191117,0.24142 0.427506,0.44186 0.698632,0.58684 0.104331,0.0554 0.217504,0.0879 0.332084,0.11376 0.214326,0.0442 0.431001,0.0302 0.645623,-10e-4 0.05434,-0.0122 0.108673,-0.0243 0.163007,-0.0365 -4.672607,1.35211 -6.584785,-5.25595 -1.912178,-6.60807 v 0 c 0.117502,-0.0304 0.235003,-0.0609 0.352505,-0.0913 0.601432,-0.11017 1.210291,-0.15884 1.817981,-0.0587 0.507931,0.0863 1.00798,0.21414 1.476785,0.43294 0.652708,0.31397 1.258133,0.71097 1.724554,1.27563 0.345472,0.43964 0.65274,0.90555 0.858523,1.42875 0.174201,0.44102 0.323059,0.89233 0.401621,1.36138 0.08158,0.50351 0.132326,1.01252 0.09811,1.52322 -0.04441,0.5387 -0.127585,1.07358 -0.299569,1.58808 -0.222629,0.62537 -0.507828,1.22448 -0.920033,1.74979 -0.338966,0.43409 -0.702755,0.84896 -1.116574,1.21408 -0.499538,0.42978 -1.031015,0.82196 -1.627103,1.10948 -0.724201,0.3342 -1.480618,0.58719 -2.282875,0.63991 -0.794274,0.0395 -1.588214,-0.005 -2.353773,-0.24054 -0.813474,-0.26715 -1.586354,-0.63012 -2.246177,-1.18671 -0.522883,-0.44444 -1.016376,-0.92333 -1.430049,-1.47348 -0.466826,-0.63739 -0.878721,-1.31449 -1.117047,-2.07377 -0.229093,-0.78473 -0.367623,-1.58911 -0.293243,-2.40995 0.05731,-0.64275 0.156339,-1.2818 0.362672,-1.89569 0.157647,-0.47378 0.33193,-0.94247 0.551437,-1.39164 0.229568,-0.46245 0.480314,-0.91528 0.7919,-1.32854 0.286703,-0.37847 0.589531,-0.74573 0.936985,-1.07078 0.407667,-0.37065 0.843642,-0.7103 1.342874,-0.95059 0.512178,-0.23732 1.04679,-0.42086 1.614231,-0.46206 4.848516,-0.39163 5.402358,6.46521 0.553844,6.85683 z"
       inkscape:connector-curvature="0" />
  </g>
</svg>
