<svg viewBox="0 0 100 100"><path style="opacity:1;fill:#020900;fill-opacity:1;stroke:none;stroke-width:1;stroke-linecap:butt;stroke-linejoin:round;stroke-miterlimit:4;stroke-dasharray:none;stroke-opacity:1" d="M13.495 257.159a5.3 5.3 0 0 1 .083-1.12c.068-.386.172-.764.282-1.14.134-.454.3-.898.474-1.338.197-.498.418-.985.646-1.469q.397-.833.823-1.653a31 31 0 0 1 1.026-1.798c.37-.606.766-1.197 1.174-1.78a27 27 0 0 1 1.456-1.855c.565-.65 1.154-1.28 1.74-1.912q.978-1.058 1.98-2.092a36 36 0 0 1 2.303-2.174c.86-.744 1.781-1.408 2.726-2.038a33 33 0 0 1 3.067-1.758c1.095-.56 2.233-1.021 3.383-1.452 1.172-.432 2.37-.79 3.573-1.123a65 65 0 0 1 3.65-.87 43 43 0 0 1 3.786-.61c1.262-.15 2.531-.206 3.8-.229a39 39 0 0 1 3.705.143c1.21.096 2.41.275 3.604.491 1.178.22 2.34.516 3.496.831 1.146.317 2.27.705 3.387 1.112 1.05.382 2.083.807 3.107 1.254.995.434 1.962.926 2.914 1.447a28 28 0 0 1 2.705 1.72c.901.638 1.729 1.371 2.528 2.132.726.7 1.403 1.447 2.077 2.196.6.665 1.179 1.348 1.751 2.036q.755.915 1.494 1.841.65.809 1.27 1.64c.363.494.707 1.002 1.048 1.511l.768 1.157.607.915.483.729.385.58.307.464c.057.087.171.259.199.299l-.084-.116c3.01 3.82-2.393 8.078-5.404 4.257l-.155-.206a27 27 0 0 1-.29-.434l-.307-.463-.385-.58-.483-.73-.606-.913q-.375-.567-.753-1.133a33 33 0 0 0-.86-1.244 46 46 0 0 0-1.118-1.443 130 130 0 0 0-1.405-1.732 60 60 0 0 0-1.577-1.836c-.557-.619-1.115-1.238-1.712-1.819-.556-.533-1.13-1.05-1.758-1.498a21 21 0 0 0-2.03-1.297 30 30 0 0 0-2.363-1.176c-.892-.39-1.794-.76-2.709-1.095a38 38 0 0 0-2.848-.94 38 38 0 0 0-2.912-.698 29 29 0 0 0-2.919-.402 31 31 0 0 0-6.14.059 36 36 0 0 0-3.176.509c-1.087.23-2.17.479-3.24.77-1.013.28-2.02.578-3.005.94-.902.335-1.796.694-2.655 1.13-.819.417-1.624.862-2.394 1.364a20 20 0 0 0-2.023 1.504 28 28 0 0 0-1.872 1.765q-.95.98-1.875 1.982c-.519.559-1.04 1.116-1.543 1.69-.373.438-.735.885-1.068 1.354q-.486.686-.927 1.4c-.279.458-.55.92-.798 1.394q-.366.704-.707 1.42c-.166.35-.328.705-.472 1.067a10 10 0 0 0-.268.737c-.035.119-.07.246-.102.362.009-.103.016-.206.01-.31.193 4.861-6.681 5.134-6.874.274" transform="translate(0 -197)"/><path style="opacity:1;fill:#020900;fill-opacity:1;stroke:none;stroke-width:1;stroke-linecap:butt;stroke-linejoin:round;stroke-miterlimit:4;stroke-dasharray:none;stroke-opacity:1" d="M10.925 257.661a2 2 0 0 0 .05-.248q.073-.472.142-.946.103-.738.196-1.478c.085-.68.187-1.356.284-2.034.117-.82.218-1.643.316-2.466.106-.885.198-1.772.29-2.659l.243-2.414q.099-.995.195-1.989.086-.9.187-1.801.072-.684.172-1.363c.73-4.81 7.53-3.778 6.801 1.031-.056.362-.095.727-.136 1.091q-.095.851-.177 1.704-.097 1.005-.197 2.01-.121 1.218-.245 2.436c-.095.923-.191 1.847-.302 2.769-.105.878-.213 1.757-.338 2.633-.093.643-.189 1.285-.27 1.93-.068.526-.135 1.052-.21 1.577q-.075.52-.156 1.04c-.03.182-.09.529-.122.635-1.031 4.754-7.754 3.296-6.723-1.458" transform="translate(0 -197)"/><path style="opacity:1;fill:#020900;fill-opacity:1;stroke:none;stroke-width:1;stroke-linecap:butt;stroke-linejoin:round;stroke-miterlimit:4;stroke-dasharray:none;stroke-opacity:1" d="M14.372 257.82c-.193.093.072-.045.121-.071.116-.063.226-.137.336-.21q.457-.305.925-.59c.424-.257.86-.494 1.3-.722a18 18 0 0 1 1.88-.825 32 32 0 0 1 2.197-.714 63 63 0 0 1 2.326-.636c.867-.214 1.739-.406 2.61-.602q1.302-.292 2.606-.58l2.282-.505 1.843-.416c.394-.09.787-.176 1.179-.272 4.726-1.153 6.355 5.53 1.63 6.683q-.645.154-1.29.298l-1.87.422q-1.142.254-2.285.506-1.291.284-2.582.575c-.81.182-1.62.36-2.426.558-.695.177-1.387.363-2.075.566a26 26 0 0 0-1.686.542 11.5 11.5 0 0 0-2.07 1.004q-.37.224-.727.466c-.274.178-.55.353-.839.507a9 9 0 0 1-.6.307c-4.447 1.97-7.233-4.32-2.785-6.29" transform="translate(0 -197)"/></svg>