<?xml version="1.0" encoding="UTF-8" standalone="no"?>
<!-- Created with Inkscape (http://www.inkscape.org/) -->

<svg
   xmlns:dc="http://purl.org/dc/elements/1.1/"
   xmlns:cc="http://creativecommons.org/ns#"
   xmlns:rdf="http://www.w3.org/1999/02/22-rdf-syntax-ns#"
   xmlns:svg="http://www.w3.org/2000/svg"
   xmlns="http://www.w3.org/2000/svg"
   xmlns:sodipodi="http://sodipodi.sourceforge.net/DTD/sodipodi-0.dtd"
   xmlns:inkscape="http://www.inkscape.org/namespaces/inkscape"
   width="10cm"
   height="10cm"
   viewBox="0 0 100 99.999997"
   version="1.1"
   id="svg8"
   sodipodi:docname="tan.svg"
   inkscape:version="0.92.3 (2405546, 2018-03-11)">
  <defs
     id="defs2" />
  <sodipodi:namedview
     id="base"
     pagecolor="#ffffff"
     bordercolor="#666666"
     borderopacity="1.0"
     inkscape:pageopacity="0.0"
     inkscape:pageshadow="2"
     inkscape:zoom="1"
     inkscape:cx="175.50186"
     inkscape:cy="186.50542"
     inkscape:document-units="cm"
     inkscape:current-layer="layer1"
     showgrid="true"
     units="cm"
     inkscape:window-width="881"
     inkscape:window-height="707"
     inkscape:window-x="971"
     inkscape:window-y="213"
     inkscape:window-maximized="0"
     inkscape:snap-nodes="false">
    <inkscape:grid
       type="xygrid"
       id="grid815"
       units="cm"
       spacingx="9.9999998"
       spacingy="9.9999998" />
  </sodipodi:namedview>
  <metadata
     id="metadata5">
    <rdf:RDF>
      <cc:Work
         rdf:about="">
        <dc:format>image/svg+xml</dc:format>
        <dc:type
           rdf:resource="http://purl.org/dc/dcmitype/StillImage" />
        <dc:title></dc:title>
      </cc:Work>
    </rdf:RDF>
  </metadata>
  <g
     inkscape:label="Layer 1"
     inkscape:groupmode="layer"
     id="layer1"
     transform="translate(0,-197.00002)">
    <path
       style="opacity:1;fill:#020900;fill-opacity:1;stroke:none;stroke-width:1;stroke-linecap:butt;stroke-linejoin:round;stroke-miterlimit:4;stroke-dasharray:none;stroke-opacity:1"
       id="path1553"
       d="m 13.495075,257.15859 c -0.01878,-0.37552 0.02211,-0.74919 0.08255,-1.11914 0.06824,-0.38601 0.172475,-0.76423 0.28197,-1.14018 0.134101,-0.45451 0.300744,-0.89825 0.474668,-1.33873 0.197211,-0.49733 0.417915,-0.98469 0.645824,-1.46855 0.26405,-0.55584 0.539371,-1.10622 0.822634,-1.65249 0.318712,-0.61247 0.667499,-1.20847 1.025794,-1.79841 0.3711,-0.60658 0.766643,-1.19755 1.174743,-1.77972 0.453689,-0.64282 0.947536,-1.25544 1.456105,-1.85526 0.564338,-0.65102 1.153479,-1.27994 1.739063,-1.91174 0.65225,-0.70529 1.312628,-1.40294 1.981088,-2.09287 0.732223,-0.76152 1.50602,-1.48057 2.302781,-2.17366 0.858919,-0.74382 1.780877,-1.4079 2.725379,-2.03746 0.986015,-0.64845 2.018477,-1.22041 3.067783,-1.75864 1.094192,-0.55892 2.232705,-1.02123 3.382401,-1.45134 1.172187,-0.43278 2.369826,-0.78984 3.573267,-1.12368 1.20682,-0.33007 2.426266,-0.61063 3.649879,-0.87044 1.251572,-0.266 2.516648,-0.4571 3.786439,-0.60998 1.261507,-0.1493 2.530607,-0.20549 3.799845,-0.22819 1.237047,-0.0203 2.4726,0.045 3.705204,0.14265 1.20976,0.096 2.410008,0.27524 3.603437,0.49138 1.178029,0.22064 2.340097,0.51554 3.495654,0.83134 1.146376,0.31618 2.27053,0.70458 3.387373,1.11124 1.049838,0.3827 2.083358,0.80748 3.107309,1.25431 0.994667,0.43437 1.962145,0.92641 2.91411,1.44681 0.937636,0.51474 1.831716,1.10221 2.704439,1.71923 0.90166,0.6393 1.729121,1.3721 2.528591,2.13299 0.725218,0.69988 1.402779,1.44652 2.076408,2.19548 0.59986,0.66502 1.1788,1.34832 1.75151,2.03671 0.503488,0.60916 1.000805,1.22339 1.493628,1.84121 0.432618,0.53928 0.857803,1.08435 1.269611,1.63968 0.363347,0.49397 0.707483,1.0016 1.048451,1.51114 0.256863,0.38523 0.512591,0.77122 0.768443,1.15712 0.202112,0.30487 0.404204,0.60976 0.606295,0.91465 0.161028,0.24293 0.322056,0.48587 0.483084,0.7288 0.128339,0.19363 0.256681,0.38725 0.385022,0.58087 0.102291,0.15432 0.204584,0.30865 0.306874,0.46297 0.05747,0.0871 0.171747,0.25902 0.198821,0.29892 -0.02799,-0.0387 -0.05597,-0.0773 -0.08395,-0.116 3.010667,3.82065 -2.392545,8.07838 -5.403212,4.25773 v 0 c -0.05174,-0.0688 -0.103481,-0.13763 -0.155223,-0.20645 -0.09856,-0.14332 -0.194564,-0.28833 -0.290349,-0.43352 -0.10229,-0.15433 -0.204581,-0.30865 -0.306874,-0.46297 -0.128339,-0.19362 -0.25668,-0.38724 -0.385022,-0.58087 -0.161025,-0.24293 -0.322048,-0.48586 -0.483073,-0.72879 -0.201962,-0.30469 -0.403924,-0.60938 -0.605907,-0.91406 -0.250542,-0.3779 -0.500967,-0.75587 -0.752467,-1.13313 -0.280104,-0.41875 -0.561938,-0.83654 -0.859684,-1.24305 -0.361868,-0.48979 -0.738616,-0.96818 -1.118989,-1.4437 -0.463322,-0.58104 -0.931077,-1.15855 -1.404313,-1.73155 -0.51599,-0.62053 -1.037299,-1.23672 -1.577941,-1.83604 -0.556537,-0.61908 -1.114218,-1.23823 -1.711086,-1.81911 -0.556234,-0.53313 -1.129919,-1.04927 -1.758016,-1.49765 -0.654783,-0.46629 -1.326851,-0.90878 -2.030924,-1.29784 -0.771194,-0.42392 -1.556279,-0.82242 -2.362559,-1.17587 -0.892379,-0.39051 -1.793627,-0.76056 -2.708762,-1.09479 -0.939332,-0.34278 -1.884199,-0.67211 -2.848253,-0.9395 -0.962623,-0.26414 -1.930458,-0.51188 -2.911544,-0.69846 -0.966655,-0.17727 -1.939144,-0.32296 -2.919306,-0.40196 -1.010746,-0.0817 -2.023946,-0.137 -3.038494,-0.12177 -1.035812,0.017 -2.071584,0.0603 -3.101274,0.18053 -1.065456,0.12637 -2.126657,0.28692 -3.17678,0.50912 -1.086356,0.22984 -2.168904,0.47866 -3.240495,0.77046 -1.011582,0.27958 -2.018676,0.57746 -3.004444,0.93919 -0.901886,0.33537 -1.795823,0.69424 -2.654459,1.13065 -0.81869,0.41724 -1.6237,0.86183 -2.39385,1.36414 -0.701349,0.46382 -1.385429,0.95419 -2.023393,1.50319 -0.649017,0.56136 -1.276246,1.14728 -1.87162,1.76561 -0.633087,0.65297 -1.25789,1.31387 -1.87552,1.98148 -0.518424,0.55934 -1.040136,1.11595 -1.542288,1.69005 -0.373191,0.43783 -0.735303,0.88532 -1.068772,1.35446 -0.322367,0.45782 -0.633356,0.92361 -0.926729,1.40063 -0.278533,0.45713 -0.54984,0.91892 -0.797873,1.39347 -0.243795,0.46887 -0.479576,0.94186 -0.706942,1.41893 -0.166486,0.35177 -0.32787,0.70604 -0.471971,1.06769 -0.09696,0.24295 -0.191241,0.48725 -0.267917,0.73751 -0.03511,0.11853 -0.06986,0.24579 -0.102163,0.36123 0.0085,-0.10225 0.01633,-0.20574 0.0097,-0.30876 0.192868,4.86048 -6.680889,5.13323 -6.873757,0.27275 z"
       inkscape:connector-curvature="0" />
    <path
       style="opacity:1;fill:#020900;fill-opacity:1;stroke:none;stroke-width:1;stroke-linecap:butt;stroke-linejoin:round;stroke-miterlimit:4;stroke-dasharray:none;stroke-opacity:1"
       id="path1555"
       d="m 10.924637,257.66135 c 0.03316,-0.13045 0.03509,-0.14344 0.0503,-0.24824 0.04856,-0.3152 0.09696,-0.63041 0.142144,-0.94611 0.06954,-0.49197 0.132515,-0.98483 0.195879,-1.47762 0.08541,-0.6795 0.18671,-1.35685 0.284453,-2.03465 0.11708,-0.82037 0.217436,-1.64298 0.315573,-2.46579 0.106431,-0.88516 0.198479,-1.77193 0.289755,-2.65875 0.08227,-0.80474 0.162697,-1.60966 0.243088,-2.4146 0.06677,-0.66256 0.13072,-1.32541 0.194753,-1.98825 0.05746,-0.60096 0.12045,-1.20138 0.18704,-1.8014 0.04894,-0.45549 0.104577,-0.91009 0.172187,-1.36319 0.729265,-4.80932 7.530682,-3.77799 6.801418,1.03134 v 0 c -0.05658,0.36225 -0.095,0.72693 -0.136471,1.09115 -0.06306,0.56742 -0.122528,1.13525 -0.176885,1.70358 -0.06475,0.67023 -0.129422,1.34046 -0.19693,2.01042 -0.08108,0.81183 -0.162194,1.62366 -0.245187,2.43529 -0.09508,0.92371 -0.191189,1.84735 -0.30204,2.76933 -0.104839,0.87855 -0.212314,1.75685 -0.337568,2.63275 -0.09273,0.64299 -0.189112,1.28551 -0.270194,1.9301 -0.06763,0.52598 -0.134982,1.052 -0.209405,1.57707 -0.04984,0.34678 -0.10261,0.69312 -0.156171,1.03934 -0.02943,0.18307 -0.09041,0.52976 -0.122745,0.63573 -1.030608,4.75388 -7.7536009,3.29638 -6.722994,-1.4575 z"
       inkscape:connector-curvature="0" />
    <path
       style="opacity:1;fill:#020900;fill-opacity:1;stroke:none;stroke-width:1;stroke-linecap:butt;stroke-linejoin:round;stroke-miterlimit:4;stroke-dasharray:none;stroke-opacity:1"
       id="path1557"
       d="m 14.371799,257.82058 c -0.19269,0.0921 0.0726,-0.0455 0.121396,-0.0718 0.116055,-0.0631 0.225987,-0.13651 0.336276,-0.20896 0.303556,-0.20397 0.612121,-0.40007 0.9245,-0.5902 0.423985,-0.25717 0.859428,-0.49439 1.299328,-0.72298 0.608733,-0.31578 1.242082,-0.57866 1.881576,-0.82453 0.720932,-0.27107 1.457735,-0.49617 2.195973,-0.71446 0.770996,-0.22798 1.54742,-0.4367 2.326476,-0.63516 0.866657,-0.21429 1.738659,-0.40609 2.609505,-0.60242 0.867902,-0.19641 1.737011,-0.38743 2.605749,-0.58009 0.760804,-0.16867 1.521854,-0.33622 2.282563,-0.50531 0.614627,-0.13759 1.228889,-0.27682 1.843191,-0.41587 0.393234,-0.0892 0.786995,-0.1761 1.178665,-0.272 4.72585,-1.15231 6.355459,5.53105 1.629609,6.68336 v 0 c -0.428739,0.10422 -0.859121,0.2013 -1.289595,0.29808 -0.622967,0.14101 -1.245891,0.2822 -1.869194,0.4217 -0.761794,0.16934 -1.523926,0.33713 -2.285815,0.50603 -0.860922,0.19092 -1.722215,0.38022 -2.582309,0.57486 -0.809488,0.18249 -1.62005,0.36074 -2.426011,0.55839 -0.694662,0.17653 -1.386817,0.3628 -2.074247,0.56585 -0.566251,0.16702 -1.132054,0.33717 -1.686078,0.5419 -0.399156,0.15163 -0.795167,0.3123 -1.17534,0.50765 -0.303338,0.15648 -0.603128,0.31976 -0.895432,0.49615 -0.246481,0.14879 -0.487784,0.30563 -0.727045,0.46576 -0.273644,0.17858 -0.549954,0.35352 -0.838288,0.50773 -0.197649,0.10644 -0.394968,0.21408 -0.599804,0.30629 -4.447644,1.96975 -7.2332937,-4.32017 -2.785649,-6.28992 z"
       inkscape:connector-curvature="0" />
  </g>
</svg>
