<svg viewBox="0 0 100 100"><path style="opacity:1;fill:#020900;fill-opacity:1;stroke:none;stroke-width:1;stroke-linecap:butt;stroke-linejoin:round;stroke-miterlimit:4;stroke-dasharray:none;stroke-opacity:1" d="M58.26 278.802c-.012.016-.046.218-.032.1q.021-.186.035-.372.022-.315.037-.629.019-.42.032-.84.015-.536.026-1.074.014-.694.021-1.389a490 490 0 0 0 .032-3.492q.005-.964.013-1.927.008-1.042.019-2.086.01-1.143.018-2.287.01-1.329.011-2.658-.004-1.362-.013-2.722-.009-1.4-.01-2.797l.002-3 .003-2.922.002-2.946q0-1.494-.017-2.988-.02-1.474-.048-2.95a924 924 0 0 1-.086-5.906q-.017-1.436-.03-2.872-.017-1.358-.044-2.714-.023-1.281-.05-2.562-.023-1.213-.05-2.427a1010 1010 0 0 1-.08-4.198 1571 1571 0 0 1-.093-7.057l-.022-2.363-.004-.517c-.039-4.864 6.84-4.919 6.879-.055l.003.519.006.678.007.763.01.904a994 994 0 0 0 .065 5.184 1534 1534 0 0 0 .063 3.841q.02 1.077.044 2.153.026 1.217.05 2.435.027 1.29.05 2.577c.017.924.035 1.848.044 2.772a1396 1396 0 0 0 .069 5.785q.021 1.47.047 2.938c.018.999.037 1.997.049 2.996q.018 1.535.017 3.069 0 1.474-.002 2.947 0 1.463-.003 2.924l-.002 2.986q.001 1.383.01 2.766l.014 2.755q0 1.354-.012 2.71-.007 1.152-.018 2.304-.011 1.039-.019 2.078-.008.958-.013 1.916a906 906 0 0 1-.032 3.533q-.009.722-.022 1.442-.011.578-.029 1.154-.014.478-.036.955-.02.417-.05.834a14 14 0 0 1-.074.741 6 6 0 0 1-.165.855c-1.318 4.683-7.94 2.819-6.622-1.864" transform="translate(0 -197)"/><path style="opacity:1;fill:#020900;fill-opacity:1;stroke:none;stroke-width:1;stroke-linecap:butt;stroke-linejoin:round;stroke-miterlimit:4;stroke-dasharray:none;stroke-opacity:1" d="M58.347 250.127q-.24-.011-.48-.025a24 24 0 0 1-.791-.068 26 26 0 0 0-1.707-.113 13 13 0 0 0-.894.002c-.37.016-.738.04-1.107.06a221 221 0 0 1-3.333.156q-1.107.041-2.214.07-1.27.03-2.542.054-1.353.028-2.706.031-1.263-.001-2.525-.005l-2.246-.006-1.84-.005q-.735-.001-1.468-.004l-1.17-.003q-.468 0-.933-.003-.374 0-.747-.002h-.112c-4.864-.013-4.846-6.892.018-6.879h.113l.747.002.932.003 1.17.003 1.47.004 1.84.005 2.246.006q1.245.004 2.49.005 1.298-.004 2.594-.03a327 327 0 0 0 2.486-.053q1.066-.028 2.133-.067a204 204 0 0 0 3.2-.149c.432-.025.863-.052 1.294-.069.437-.013.874-.017 1.31-.002q.595.017 1.187.06.499.035.996.084.275.03.551.048l.364.019c4.859.23 4.533 7.101-.326 6.871" transform="translate(0 -197)"/></svg>