<?xml version="1.0" encoding="UTF-8" standalone="no"?>
<!-- Created with Inkscape (http://www.inkscape.org/) -->

<svg
   xmlns:dc="http://purl.org/dc/elements/1.1/"
   xmlns:cc="http://creativecommons.org/ns#"
   xmlns:rdf="http://www.w3.org/1999/02/22-rdf-syntax-ns#"
   xmlns:svg="http://www.w3.org/2000/svg"
   xmlns="http://www.w3.org/2000/svg"
   xmlns:sodipodi="http://sodipodi.sourceforge.net/DTD/sodipodi-0.dtd"
   xmlns:inkscape="http://www.inkscape.org/namespaces/inkscape"
   width="10cm"
   height="10cm"
   viewBox="0 0 100 99.999997"
   version="1.1"
   id="svg8"
   sodipodi:docname="taso.svg"
   inkscape:version="0.92.3 (2405546, 2018-03-11)">
  <defs
     id="defs2" />
  <sodipodi:namedview
     id="base"
     pagecolor="#ffffff"
     bordercolor="#666666"
     borderopacity="1.0"
     inkscape:pageopacity="0.0"
     inkscape:pageshadow="2"
     inkscape:zoom="1"
     inkscape:cx="175.50186"
     inkscape:cy="186.50542"
     inkscape:document-units="cm"
     inkscape:current-layer="layer1"
     showgrid="true"
     units="cm"
     inkscape:window-width="881"
     inkscape:window-height="707"
     inkscape:window-x="971"
     inkscape:window-y="213"
     inkscape:window-maximized="0"
     inkscape:snap-nodes="false">
    <inkscape:grid
       type="xygrid"
       id="grid815"
       units="cm"
       spacingx="9.9999998"
       spacingy="9.9999998" />
  </sodipodi:namedview>
  <metadata
     id="metadata5">
    <rdf:RDF>
      <cc:Work
         rdf:about="">
        <dc:format>image/svg+xml</dc:format>
        <dc:type
           rdf:resource="http://purl.org/dc/dcmitype/StillImage" />
        <dc:title></dc:title>
      </cc:Work>
    </rdf:RDF>
  </metadata>
  <g
     inkscape:label="Layer 1"
     inkscape:groupmode="layer"
     id="layer1"
     transform="translate(0,-197.00002)">
    <path
       style="opacity:1;fill:#020900;fill-opacity:1;stroke:none;stroke-width:1;stroke-linecap:butt;stroke-linejoin:round;stroke-miterlimit:4;stroke-dasharray:none;stroke-opacity:1"
       id="path1559"
       d="m 58.260154,278.80245 c -0.01265,0.0157 -0.04607,0.21795 -0.03176,0.099 0.015,-0.12339 0.02487,-0.24734 0.03449,-0.37125 0.01582,-0.20947 0.02646,-0.41929 0.03666,-0.62909 0.01344,-0.27971 0.02315,-0.55956 0.03206,-0.83944 0.01119,-0.35801 0.0191,-0.71612 0.02638,-1.07423 0.0092,-0.46311 0.01553,-0.92628 0.02143,-1.38944 0.0069,-0.55721 0.01228,-1.11443 0.01728,-1.67165 0.0053,-0.60693 0.0097,-1.21386 0.01381,-1.82079 0.0036,-0.64216 0.0084,-1.28431 0.01368,-1.92646 0.005,-0.69536 0.01228,-1.39071 0.01884,-2.08606 0.0073,-0.76233 0.0131,-1.52467 0.01834,-2.28702 0.0061,-0.88614 0.01143,-1.77228 0.01101,-2.65844 -0.0027,-0.90726 -0.0083,-1.8145 -0.01307,-2.72175 -0.0051,-0.93236 -0.0099,-1.86472 -0.01071,-2.79709 6.8e-5,-0.99968 0.0013,-1.99935 0.0024,-2.99903 0.0011,-0.97417 0.0019,-1.94835 0.0028,-2.92252 7.93e-4,-0.98196 0.0016,-1.96391 0.0024,-2.94586 0.0013,-0.99608 -0.0059,-1.99214 -0.01696,-2.98815 -0.01214,-0.98316 -0.03077,-1.96621 -0.04834,-2.94928 -0.01773,-0.98654 -0.03323,-1.97312 -0.0478,-2.95971 -0.01437,-0.98238 -0.02665,-1.96478 -0.03834,-2.9472 -0.01132,-0.95728 -0.02114,-1.91459 -0.03053,-2.87189 -0.0085,-0.90494 -0.02659,-1.80976 -0.04291,-2.71458 -0.01508,-0.85379 -0.03202,-1.70755 -0.04944,-2.5613 -0.01569,-0.80923 -0.03337,-1.61842 -0.05068,-2.42761 -0.01553,-0.72245 -0.03023,-1.44492 -0.04421,-2.16741 -0.01307,-0.67685 -0.02447,-1.35372 -0.0354,-2.03061 -0.0098,-0.61398 -0.01905,-1.22797 -0.02813,-1.84197 -0.0078,-0.5296 -0.01524,-1.05921 -0.02244,-1.58882 -0.0062,-0.46062 -0.01206,-0.92125 -0.01786,-1.38188 -0.005,-0.39521 -0.0097,-0.79042 -0.01426,-1.18564 -0.004,-0.35284 -0.0078,-0.70568 -0.01138,-1.05852 -0.0031,-0.3025 -0.0061,-0.60501 -0.009,-0.90751 -0.0026,-0.25578 -0.0049,-0.51155 -0.0072,-0.76733 -0.0021,-0.22935 -0.004,-0.4587 -0.0058,-0.68805 -0.0013,-0.17239 -0.0026,-0.34478 -0.0039,-0.51718 -0.0384,-4.86415 6.840553,-4.91845 6.878952,-0.0543 v 0 c 0.0013,0.17276 0.0026,0.34552 0.0039,0.51828 0.0019,0.22628 0.0036,0.45255 0.0057,0.67882 0.0024,0.25409 0.0047,0.50817 0.0072,0.76226 0.003,0.30146 0.0059,0.60293 0.009,0.9044 0.0036,0.35009 0.0073,0.70018 0.01127,1.05027 0.0045,0.39258 0.0092,0.78516 0.01416,1.17774 0.0058,0.45845 0.01162,0.91691 0.01778,1.37536 0.0071,0.52674 0.01453,1.05349 0.0223,1.58023 0.009,0.61093 0.01826,1.22186 0.02799,1.83278 0.0108,0.66956 0.02207,1.33911 0.03501,2.00863 0.01389,0.71779 0.02849,1.43557 0.04392,2.15333 0.01736,0.81145 0.03508,1.62289 0.05082,2.43438 0.01754,0.85918 0.03458,1.71837 0.04975,2.57759 0.01667,0.92368 0.03508,1.84735 0.0437,2.77116 0.0093,0.95251 0.01913,1.90502 0.03038,2.85752 0.01162,0.97585 0.02381,1.9517 0.03808,2.92752 0.01445,0.97944 0.02984,1.95887 0.04745,2.93827 0.01786,0.99862 0.03676,1.99723 0.04902,2.99594 0.01132,1.02301 0.01876,2.04607 0.01738,3.06916 -7.93e-4,0.98242 -0.0013,1.96484 -0.0024,2.94726 -7.94e-4,0.97453 -0.0019,1.94906 -0.0028,2.92358 -0.0011,0.99531 -0.0024,1.99063 -0.0024,2.98594 7.94e-4,0.9222 0.0056,1.84438 0.01061,2.76657 0.0049,0.91837 0.01053,1.83673 0.01318,2.75511 2.65e-4,0.90296 -0.0049,1.80589 -0.01117,2.70883 -0.0053,0.76824 -0.01116,1.53649 -0.01847,2.30472 -0.0065,0.69262 -0.01376,1.38524 -0.01876,2.07787 -0.0053,0.63875 -0.01005,1.27751 -0.0136,1.91627 -0.0042,0.61201 -0.0085,1.22403 -0.01394,1.83603 -0.0051,0.56574 -0.01056,1.13147 -0.01754,1.69719 -0.0061,0.48067 -0.0127,0.96135 -0.02228,1.44197 -0.0078,0.38469 -0.01638,0.76936 -0.02846,1.15394 -0.01019,0.31845 -0.02135,0.63687 -0.03673,0.95511 -0.0136,0.27789 -0.02822,0.55577 -0.04966,0.83319 -0.01963,0.24772 -0.04124,0.49537 -0.07376,0.74179 -0.03922,0.28772 -0.08577,0.57502 -0.165103,0.85485 -1.317942,4.68236 -7.939799,2.81851 -6.621856,-1.86385 z"
       inkscape:connector-curvature="0" />
    <path
       style="opacity:1;fill:#020900;fill-opacity:1;stroke:none;stroke-width:1;stroke-linecap:butt;stroke-linejoin:round;stroke-miterlimit:4;stroke-dasharray:none;stroke-opacity:1"
       id="path1561"
       d="m 58.347194,250.12718 c -0.159842,-0.008 -0.319651,-0.0154 -0.479366,-0.0254 -0.264391,-0.0173 -0.528262,-0.0413 -0.791904,-0.0675 -0.268636,-0.0278 -0.537905,-0.0487 -0.807267,-0.068 -0.299384,-0.0223 -0.599239,-0.0365 -0.8993,-0.0453 -0.298051,-0.0111 -0.596152,-0.008 -0.894149,0.002 -0.369388,0.016 -0.738381,0.0396 -1.107483,0.0609 -0.492598,0.0274 -0.985342,0.052 -1.47811,0.0761 -0.618236,0.0292 -1.236586,0.0557 -1.855055,0.0795 -0.737706,0.0278 -1.475637,0.0491 -2.213599,0.0688 -0.847146,0.0221 -1.694421,0.0388 -2.541707,0.0545 -0.902134,0.0184 -1.804349,0.0298 -2.706666,0.0317 -0.841489,-1.2e-4 -1.682975,-0.003 -2.524461,-0.005 -0.748546,-0.002 -1.497092,-0.004 -2.245638,-0.006 -0.613492,-0.002 -1.226981,-0.003 -1.840473,-0.005 -0.48945,-0.001 -0.9789,-0.003 -1.468353,-0.004 -0.390112,-0.001 -0.780224,-0.002 -1.170337,-0.003 -0.31093,-7.9e-4 -0.62186,-0.002 -0.932788,-0.003 -0.248867,-8e-4 -0.497734,-0.001 -0.746601,-0.002 -0.03734,-1e-4 -0.07468,-2e-4 -0.112012,-2.6e-4 -4.864288,-0.0131 -4.845862,-6.89217 0.01841,-6.87915 v 0 c 0.0374,1e-4 0.0748,2e-4 0.112199,2.7e-4 0.249018,7.9e-4 0.498039,0.001 0.747057,0.002 0.31093,8e-4 0.621858,0.002 0.932788,0.003 0.390113,0.001 0.780227,0.002 1.17034,0.003 0.48945,0.001 0.978902,0.003 1.468352,0.004 0.613516,0.002 1.227032,0.003 1.840548,0.005 0.748795,0.002 1.497592,0.004 2.246386,0.006 0.83017,0.002 1.660343,0.005 2.490518,0.005 0.864542,-0.002 1.728981,-0.0131 2.593351,-0.0306 0.828691,-0.0153 1.657368,-0.0316 2.485924,-0.0532 0.711044,-0.0189 1.422059,-0.0394 2.132862,-0.0661 0.594434,-0.0228 1.188752,-0.0483 1.782966,-0.0763 0.472591,-0.0231 0.945161,-0.0468 1.417593,-0.0729 0.431294,-0.0249 0.862464,-0.0527 1.294193,-0.0691 0.43675,-0.013 0.873699,-0.0173 1.310489,-0.002 0.39564,0.0121 0.791059,0.0304 1.185831,0.0599 0.332528,0.024 0.664922,0.0501 0.996585,0.0842 0.183475,0.0184 0.367109,0.0353 0.551103,0.0477 0.120978,0.008 0.242184,0.0123 0.363262,0.0189 4.858859,0.23017 4.533355,7.10163 -0.325503,6.87147 z"
       inkscape:connector-curvature="0" />
  </g>
</svg>
