<svg viewBox="0 0 100 100"><path style="opacity:1;fill:#020900;fill-opacity:1;stroke:none;stroke-width:1;stroke-linecap:butt;stroke-linejoin:round;stroke-miterlimit:4;stroke-dasharray:none;stroke-opacity:1" d="M33.138 284.14q-.16-.005-.321-.008-.3-.007-.602 0l-.898.029c-.36.012-.721.034-1.082.054q-.684.034-1.369.064c-.486.021-.973.048-1.459.071q-.784.035-1.568.073-.812.041-1.625.078-.775.034-1.55.079c-.485.028-.97.052-1.456.083-.423.027-.845.06-1.267.09a235 235 0 0 1-2.132.14q-.382.024-.763.05l-.63.045-.504.036-.415.029c-1.17.061-2.331-.402-3.067-1.35-.263-.34-.396-.762-.594-1.142-.28-.99-.118-1.896.256-2.812.185-.42.382-.835.567-1.255.265-.605.491-1.225.716-1.846q.462-1.273.905-2.552c.367-1.064.72-2.133 1.072-3.203q.633-1.928 1.276-3.853.73-2.156 1.455-4.314c.555-1.655 1.086-3.318 1.618-4.98.57-1.787 1.146-3.573 1.71-5.362a462 462 0 0 0 1.718-5.618 502 502 0 0 0 1.707-5.903c.56-1.976 1.11-3.954 1.672-5.928a694 694 0 0 1 1.657-5.67 622 622 0 0 1 1.557-5.149q.67-2.189 1.346-4.376l1.105-3.58.903-2.91c.244-.793.498-1.585.75-2.376l.604-1.878.487-1.499q.229-.755.548-1.478c.345-.71.791-1.43 1.473-1.867.311-.2.66-.333.991-.5.45-.057.898-.195 1.351-.172 1.35.066 2.356.886 3.078 1.94.32.501.58 1.04.823 1.581.3.682.548 1.383.787 2.088.28.86.545 1.724.814 2.588q.46 1.485.956 2.96.558 1.653 1.138 3.298c.43 1.21.874 2.416 1.322 3.62q.712 1.902 1.446 3.796.784 2.016 1.559 4.035c.546 1.422 1.082 2.848 1.618 4.273l1.672 4.447q.826 2.212 1.675 4.415a510 510 0 0 1 1.647 4.3q.771 2.051 1.535 4.105.711 1.91 1.4 3.83.623 1.74 1.233 3.484a178 178 0 0 1 1.08 3.188q.459 1.39.899 2.786l.733 2.344c.223.718.432 1.44.637 2.163q.266.94.53 1.882c.143.515.297 1.028.446 1.542.133.454.27.906.402 1.36l.343 1.194.297 1.038.275.977c.078.275.16.55.237.824q.1.364.204.727.092.324.179.649l.135.466q.053.184.11.366.024.085.053.168a3.1 3.1 0 0 0-.948-1.307c-.255-.2-.556-.335-.834-.502-.372-.084-.736-.226-1.117-.252a3.17 3.17 0 0 0-2.364.864c-.008.008-.028.034-.025.023.03-.13.423-.638.503-.763q.678-1.046 1.337-2.103.775-1.262 1.575-2.509c.481-.742.97-1.48 1.457-2.217q.582-.882 1.16-1.766.463-.707.922-1.416l.74-1.142c.182-.286.374-.565.553-.853l.009-.019-.028.046c2.266-4.305 8.353-1.1 6.087 3.205-.159.291-.078.15-.241.424-.2.316-.406.628-.609.943l-.741 1.142q-.467.72-.938 1.441-.584.893-1.172 1.784c-.473.716-.947 1.432-1.414 2.152q-.774 1.206-1.525 2.427-.686 1.101-1.39 2.19c-.364.563-.725 1.131-1.167 1.636-.801.84-1.803 1.448-3.022 1.384-.408-.022-.798-.17-1.197-.255-.301-.177-.626-.318-.903-.53-.558-.428-.938-1.04-1.177-1.689a9 9 0 0 1-.163-.495q-.071-.232-.14-.466-.083-.281-.162-.563-.078-.296-.163-.59l-.205-.731-.233-.81-.273-.97-.293-1.028-.336-1.168c-.133-.456-.27-.91-.403-1.366-.156-.536-.316-1.07-.466-1.608l-.521-1.854a85 85 0 0 0-.593-2.01q-.359-1.156-.722-2.31-.425-1.35-.87-2.694a171 171 0 0 0-1.04-3.074q-.602-1.718-1.214-3.432a329 329 0 0 0-1.374-3.757q-.759-2.04-1.524-4.077a505 505 0 0 0-1.633-4.261 507 507 0 0 1-1.694-4.465q-.833-2.22-1.669-4.44a634 634 0 0 0-1.603-4.232q-.772-2.01-1.552-4.019-.751-1.935-1.478-3.88a262 262 0 0 1-1.36-3.729q-.601-1.7-1.178-3.408-.517-1.542-1-3.095c-.251-.81-.5-1.62-.76-2.427a20 20 0 0 0-.548-1.48q-.139-.314-.298-.62a3.1 3.1 0 0 0 2.32 1.157c.406.01.804-.12 1.205-.18.59-.315 1.349-.667 1.606-1.325-.126.247-.184.522-.279.78l-.482 1.484q-.3.931-.597 1.862c-.247.77-.494 1.54-.731 2.312q-.45 1.455-.904 2.91l-1.103 3.576q-.673 2.176-1.34 4.355c-.517 1.695-1.035 3.39-1.539 5.09a690 690 0 0 0-1.637 5.605c-.563 1.974-1.113 3.951-1.672 5.926-.57 2.001-1.14 4.002-1.734 5.996a469 469 0 0 1-1.747 5.711c-.567 1.799-1.145 3.593-1.719 5.39a361 361 0 0 1-1.647 5.068q-.724 2.157-1.454 4.312a673 673 0 0 0-1.265 3.822 242 242 0 0 1-1.107 3.306q-.46 1.324-.938 2.644a37 37 0 0 1-.89 2.279q-.25.564-.51 1.122c-.016.035.017-.073.025-.11.137-.603.11-1.152-.059-1.759-.192-.36-.322-.76-.575-1.08a3.33 3.33 0 0 0-2.762-1.259l.355-.025 1.139-.08q.405-.03.812-.055a510 510 0 0 0 2.075-.137c.444-.031.888-.065 1.331-.093q.747-.045 1.494-.085.812-.047 1.624-.083.798-.036 1.595-.076.79-.039 1.58-.074.74-.038 1.479-.072.656-.028 1.312-.062c.412-.022.823-.046 1.236-.06.327-.01.653-.023.98-.031q.433-.008.865 0 .278.004.554.017c4.858.257 4.494 7.126-.364 6.87z" transform="translate(0 -197)"/></svg>