<?xml version="1.0" encoding="UTF-8" standalone="no"?>
<!-- Created with Inkscape (http://www.inkscape.org/) -->

<svg
   xmlns:dc="http://purl.org/dc/elements/1.1/"
   xmlns:cc="http://creativecommons.org/ns#"
   xmlns:rdf="http://www.w3.org/1999/02/22-rdf-syntax-ns#"
   xmlns:svg="http://www.w3.org/2000/svg"
   xmlns="http://www.w3.org/2000/svg"
   xmlns:sodipodi="http://sodipodi.sourceforge.net/DTD/sodipodi-0.dtd"
   xmlns:inkscape="http://www.inkscape.org/namespaces/inkscape"
   width="10cm"
   height="10cm"
   viewBox="0 0 100 99.999997"
   version="1.1"
   id="svg8"
   sodipodi:docname="tawa.svg"
   inkscape:version="0.92.3 (2405546, 2018-03-11)">
  <defs
     id="defs2" />
  <sodipodi:namedview
     id="base"
     pagecolor="#ffffff"
     bordercolor="#666666"
     borderopacity="1.0"
     inkscape:pageopacity="0.0"
     inkscape:pageshadow="2"
     inkscape:zoom="1"
     inkscape:cx="175.50186"
     inkscape:cy="186.50542"
     inkscape:document-units="cm"
     inkscape:current-layer="layer1"
     showgrid="true"
     units="cm"
     inkscape:window-width="881"
     inkscape:window-height="707"
     inkscape:window-x="971"
     inkscape:window-y="213"
     inkscape:window-maximized="0"
     inkscape:snap-nodes="false">
    <inkscape:grid
       type="xygrid"
       id="grid815"
       units="cm"
       spacingx="9.9999998"
       spacingy="9.9999998" />
  </sodipodi:namedview>
  <metadata
     id="metadata5">
    <rdf:RDF>
      <cc:Work
         rdf:about="">
        <dc:format>image/svg+xml</dc:format>
        <dc:type
           rdf:resource="http://purl.org/dc/dcmitype/StillImage" />
        <dc:title></dc:title>
      </cc:Work>
    </rdf:RDF>
  </metadata>
  <g
     inkscape:label="Layer 1"
     inkscape:groupmode="layer"
     id="layer1"
     transform="translate(0,-197.00002)">
    <path
       style="opacity:1;fill:#020900;fill-opacity:1;stroke:none;stroke-width:1;stroke-linecap:butt;stroke-linejoin:round;stroke-miterlimit:4;stroke-dasharray:none;stroke-opacity:1"
       id="path1565"
       d="m 33.138377,284.14038 c -0.107135,-0.004 -0.214331,-0.006 -0.321517,-0.008 -0.200638,-0.005 -0.401275,-0.005 -0.601916,-7.9e-4 -0.299408,0.009 -0.598734,0.0198 -0.898123,0.0291 -0.360714,0.0128 -0.721016,0.0347 -1.081418,0.0541 -0.4562,0.0245 -0.912672,0.0432 -1.369049,0.0639 -0.486556,0.0217 -0.972881,0.048 -1.459352,0.0715 -0.522711,0.0235 -1.045414,0.0472 -1.568006,0.0733 -0.541651,0.0274 -1.083398,0.0529 -1.625181,0.0775 -0.516681,0.0222 -1.033096,0.0497 -1.549427,0.0789 -0.48556,0.028 -0.971301,0.0526 -1.456739,0.0827 -0.422499,0.0277 -0.844719,0.0595 -1.267056,0.0895 -0.385158,0.0272 -0.770407,0.0532 -1.155698,0.0785 -0.325398,0.0211 -0.650831,0.0417 -0.976272,0.0622 -0.254181,0.0152 -0.508191,0.0329 -0.762195,0.0507 -0.210078,0.0148 -0.420149,0.0297 -0.630221,0.0445 -0.168034,0.0119 -0.336067,0.0238 -0.504101,0.0357 -0.138552,0.01 -0.277017,0.0202 -0.415595,0.0293 -1.169493,0.0612 -2.330955,-0.402 -3.06652,-1.35036 -0.262937,-0.339 -0.39566,-0.76137 -0.593491,-1.14206 -0.281364,-0.98872 -0.118993,-1.8953 0.255882,-2.81161 0.184198,-0.42051 0.381663,-0.83498 0.566766,-1.25512 0.264547,-0.60493 0.490984,-1.22529 0.715908,-1.84571 0.306844,-0.84874 0.609199,-1.69909 0.904766,-2.55182 0.367125,-1.06436 0.720316,-2.13343 1.072193,-3.2029 0.421518,-1.28569 0.847261,-2.57 1.276446,-3.85315 0.485649,-1.43771 0.972325,-2.87508 1.454063,-4.31412 0.555405,-1.65488 1.086763,-3.31766 1.618571,-4.98023 0.570445,-1.78703 1.145572,-3.57255 1.709432,-5.36167 0.586016,-1.8687 1.15663,-3.74217 1.718817,-5.61816 0.584742,-1.96327 1.146401,-3.93332 1.707055,-5.90358 0.559092,-1.97539 1.109787,-3.95313 1.67202,-5.92763 0.541546,-1.89287 1.098547,-3.78126 1.65617,-5.66944 0.509211,-1.71932 1.033827,-3.43402 1.557094,-5.14911 0.44527,-1.45965 0.895958,-2.91764 1.345996,-4.37583 0.369147,-1.19352 0.735528,-2.3879 1.10499,-3.58133 0.301776,-0.96915 0.603025,-1.93847 0.902853,-2.90824 0.244298,-0.79422 0.498105,-1.58546 0.751409,-2.37684 0.200917,-0.62619 0.400799,-1.25272 0.60284,-1.87854 0.161748,-0.49953 0.324284,-0.9988 0.486738,-1.4981 0.153355,-0.50386 0.335563,-0.99688 0.548219,-1.47855 0.34538,-0.70959 0.791573,-1.42959 1.472997,-1.86729 0.31138,-0.20001 0.661051,-0.33295 0.991576,-0.49943 0.450273,-0.0576 0.897427,-0.19488 1.35082,-0.17266 1.350716,0.0662 2.355921,0.88644 3.077551,1.94018 0.321267,0.50171 0.579414,1.0394 0.823806,1.58155 0.299432,0.68138 0.548021,1.38323 0.786808,2.08765 0.279439,0.85998 0.544769,1.72448 0.813308,2.58792 0.306485,0.99093 0.62788,1.9771 0.956199,2.96097 0.371856,1.10154 0.751668,2.20038 1.138557,3.29672 0.42961,1.21068 0.873411,2.41625 1.321229,3.6203 0.474107,1.26831 0.957683,2.53304 1.446072,3.7959 0.522912,1.34397 1.042599,2.68919 1.559277,4.03557 0.54573,1.42202 1.08209,2.84762 1.618546,4.27316 0.558382,1.4818 1.114883,2.96431 1.671071,4.44694 0.550545,1.47442 1.110877,2.94514 1.675324,4.41428 0.554831,1.4311 1.105222,2.86389 1.647097,4.29994 0.514784,1.36719 1.024858,2.73615 1.534541,4.10525 0.47548,1.27352 0.941226,2.55062 1.401217,3.82981 0.415491,1.15983 0.824701,2.3219 1.23207,3.4846 0.372607,1.05827 0.727199,2.12273 1.07968,3.18783 0.306842,0.92636 0.605657,1.85535 0.899059,2.78604 0.244819,0.78113 0.49108,1.56181 0.733219,2.34378 0.223329,0.7178 0.431916,1.44004 0.637593,2.16305 0.177255,0.62695 0.353126,1.25429 0.528759,1.88169 0.14429,0.51544 0.297807,1.02823 0.447238,1.5422 0.132197,0.45368 0.269031,0.90599 0.401423,1.35961 0.114242,0.39813 0.228865,0.79614 0.343276,1.19422 0.09984,0.346 0.19834,0.69238 0.297215,1.03866 0.09191,0.32531 0.181856,0.65117 0.274428,0.9763 0.07795,0.27526 0.159417,0.54949 0.237215,0.82479 0.06736,0.24238 0.135236,0.48461 0.203726,0.72668 0.06242,0.21554 0.120126,0.43239 0.179367,0.64881 0.04417,0.1557 0.08973,0.311 0.134688,0.46648 0.03492,0.12222 0.07251,0.24366 0.109678,0.36521 0.0168,0.0564 0.03386,0.1133 0.05401,0.16826 -0.194881,-0.50293 -0.520292,-0.97216 -0.948341,-1.30714 -0.255524,-0.19997 -0.555998,-0.33463 -0.833998,-0.50195 -0.372285,-0.0839 -0.736081,-0.22623 -1.116851,-0.25181 -0.870987,-0.0585 -1.737855,0.27242 -2.363764,0.86402 -0.0086,0.008 -0.02858,0.0345 -0.0259,0.0232 0.03051,-0.12926 0.423482,-0.63788 0.503929,-0.76271 0.451572,-0.69735 0.896387,-1.39897 1.336264,-2.10375 0.517782,-0.84084 1.041443,-1.67798 1.575787,-2.5084 0.480963,-0.74226 0.9695,-1.47958 1.456688,-2.21776 0.387974,-0.58775 0.774062,-1.17675 1.160134,-1.76576 0.308512,-0.47122 0.614998,-0.94377 0.92171,-1.41616 0.246978,-0.38044 0.493911,-0.7609 0.740852,-1.14136 0.181589,-0.28592 0.373192,-0.56555 0.551802,-0.85335 0.003,-0.006 0.006,-0.0124 0.009,-0.0186 -0.0092,0.0151 -0.01842,0.0301 -0.02764,0.0452 2.266382,-4.30407 8.353248,-1.09892 6.086867,3.20515 v 0 c -0.158515,0.29145 -0.07797,0.15011 -0.241009,0.42438 -0.199483,0.31638 -0.405863,0.62832 -0.608714,0.94254 -0.247128,0.38075 -0.494255,0.7615 -0.741418,1.14223 -0.312134,0.48074 -0.624041,0.96162 -0.938022,1.44116 -0.390043,0.59506 -0.780108,1.19011 -1.172075,1.78391 -0.472699,0.71623 -0.946721,1.43162 -1.413602,2.15166 -0.517351,0.80354 -1.023372,1.61419 -1.524704,2.42781 -0.457967,0.73363 -0.920949,1.46406 -1.391002,2.19001 -0.363141,0.56255 -0.724149,1.13058 -1.166458,1.63555 -0.801171,0.84023 -1.803231,1.44796 -3.022296,1.38396 -0.407413,-0.0214 -0.798007,-0.17016 -1.197009,-0.25523 -0.301016,-0.17675 -0.626046,-0.31782 -0.903047,-0.53023 -0.557117,-0.42721 -0.937231,-1.04024 -1.176694,-1.68821 -0.05843,-0.16361 -0.113787,-0.32827 -0.162926,-0.49494 -0.04743,-0.15513 -0.09509,-0.3102 -0.139705,-0.46616 -0.05425,-0.18765 -0.109453,-0.37504 -0.161888,-0.56321 -0.05375,-0.19681 -0.106206,-0.39399 -0.162999,-0.58996 -0.06889,-0.24351 -0.13725,-0.48716 -0.204949,-0.73101 -0.07616,-0.27033 -0.156832,-0.53936 -0.232942,-0.80971 -0.09206,-0.32342 -0.181776,-0.6475 -0.272965,-0.97117 -0.09778,-0.34246 -0.195199,-0.68503 -0.293936,-1.02721 -0.111842,-0.38918 -0.22397,-0.77828 -0.335547,-1.16753 -0.132964,-0.45582 -0.270762,-0.91021 -0.403323,-1.36615 -0.155768,-0.5359 -0.315878,-1.07056 -0.466037,-1.60808 -0.173054,-0.61821 -0.346358,-1.23634 -0.520978,-1.85411 -0.191093,-0.67195 -0.384654,-1.34325 -0.592236,-2.01033 -0.238662,-0.77084 -0.481507,-1.54037 -0.722788,-2.31039 -0.283536,-0.89961 -0.572418,-1.79753 -0.868982,-2.69293 -0.33991,-1.0272 -0.681683,-2.05385 -1.041059,-3.07444 -0.401145,-1.14498 -0.804105,-2.28934 -1.213215,-3.4315 -0.451268,-1.25504 -0.908251,-2.50802 -1.374756,-3.75749 -0.506143,-1.3596 -1.012669,-2.71905 -1.523865,-4.07676 -0.536967,-1.42318 -1.082593,-2.84304 -1.632392,-4.26132 -0.57095,-1.48609 -1.137735,-2.97379 -1.694659,-4.46521 -0.555355,-1.4804 -1.11102,-2.96069 -1.668563,-4.44027 -0.531212,-1.41161 -1.062294,-2.82327 -1.602676,-4.2314 -0.514546,-1.34084 -1.032129,-2.68052 -1.552882,-4.01896 -0.499073,-1.29057 -0.99323,-2.58303 -1.477656,-3.87917 -0.461267,-1.2403 -0.918337,-2.48219 -1.360744,-3.72936 -0.399875,-1.1335 -0.792702,-2.26949 -1.17689,-3.4084 -0.343115,-1.02851 -0.679048,-2.0594 -0.999472,-3.09524 -0.251796,-0.80962 -0.5011,-1.62006 -0.761106,-2.42708 -0.167986,-0.49825 -0.341058,-0.9953 -0.548148,-1.47893 -0.0929,-0.20973 -0.190547,-0.41718 -0.297381,-0.62009 0.556181,0.69554 1.417863,1.13337 2.319875,1.15588 0.406098,0.0101 0.803518,-0.12011 1.205278,-0.18017 0.590298,-0.31393 1.348255,-0.66675 1.605211,-1.32425 -0.125672,0.24666 -0.183483,0.52212 -0.278376,0.78069 -0.160848,0.49436 -0.321781,0.98871 -0.481944,1.4833 -0.200292,0.62032 -0.398351,1.24136 -0.597535,1.86204 -0.246372,0.76971 -0.493332,1.53927 -0.730927,2.31175 -0.30008,0.97057 -0.601565,1.9407 -0.903605,2.91067 -0.368877,1.19151 -0.734653,2.38399 -1.103218,3.5756 -0.447857,1.45111 -0.896371,2.90203 -1.339485,4.3546 -0.517268,1.69542 -1.035923,3.39044 -1.539359,5.09003 -0.551293,1.86675 -1.102021,3.73368 -1.63749,5.60504 -0.562147,1.9741 -1.112591,3.95148 -1.671682,5.92645 -0.569413,2.00099 -1.139929,4.00174 -1.733939,5.99561 -0.571548,1.90706 -1.151605,3.81158 -1.747422,5.71121 -0.566857,1.79843 -1.144818,3.59331 -1.718311,5.38963 -0.541209,1.69195 -1.082123,3.38407 -1.647361,5.0682 -0.481564,1.43848 -0.967963,2.87532 -1.453509,4.31246 -0.425631,1.27246 -0.847788,2.54607 -1.2658,3.82106 -0.363245,1.10396 -0.727954,2.20748 -1.107064,3.30611 -0.30638,0.8836 -0.619501,1.76482 -0.93756,2.64429 -0.278196,0.76656 -0.561234,1.5319 -0.889788,2.27867 -0.166305,0.376 -0.337751,0.7496 -0.510023,1.12289 -0.0164,0.0342 0.01681,-0.0739 0.02517,-0.11084 0.136212,-0.60218 0.110038,-1.15134 -0.05929,-1.75834 -0.191546,-0.36038 -0.321548,-0.76098 -0.574637,-1.08115 -0.660348,-0.8354 -1.708536,-1.31596 -2.762495,-1.2581 0.117335,-0.008 0.237084,-0.0171 0.355468,-0.0253 0.168068,-0.0119 0.336136,-0.0238 0.504205,-0.0357 0.211475,-0.015 0.422949,-0.0299 0.634429,-0.0448 0.270562,-0.019 0.541135,-0.0378 0.81188,-0.054 0.319251,-0.0201 0.638495,-0.0403 0.957704,-0.061 0.372676,-0.0244 0.74531,-0.0495 1.117857,-0.0759 0.443648,-0.0316 0.887168,-0.065 1.331009,-0.0938 0.497791,-0.0307 0.995861,-0.0564 1.493782,-0.0849 0.54115,-0.0305 1.08239,-0.0593 1.623904,-0.0827 0.531754,-0.0242 1.063473,-0.0492 1.595098,-0.0761 0.526609,-0.0263 1.053324,-0.0503 1.580056,-0.0739 0.492766,-0.0237 0.985377,-0.0505 1.47823,-0.0724 0.437465,-0.0198 0.875022,-0.0378 1.312323,-0.0611 0.411795,-0.0221 0.823486,-0.0469 1.235678,-0.0606 0.327017,-0.0102 0.653957,-0.0229 0.98103,-0.0312 0.288234,-0.005 0.576493,-0.006 0.864719,7.9e-4 0.184658,0.004 0.369356,0.007 0.553842,0.0163 4.857501,0.25717 4.493805,7.12672 -0.363699,6.86955 z"
       inkscape:connector-curvature="0" />
  </g>
</svg>
