<svg viewBox="0 0 100 100"><path style="opacity:1;fill:#020900;fill-opacity:1;stroke:none;stroke-width:1;stroke-linecap:butt;stroke-linejoin:round;stroke-miterlimit:4;stroke-dasharray:none;stroke-opacity:1" d="M10.804 242.616c.01-.472.11-.932.228-1.387.114-.42.248-.836.385-1.25a25 25 0 0 1 1.368-3.239 27 27 0 0 1 1.048-1.9c.436-.723.938-1.402 1.463-2.063.589-.73 1.247-1.4 1.928-2.044.78-.736 1.647-1.367 2.544-1.953.99-.636 2.058-1.133 3.14-1.59 1.139-.47 2.323-.81 3.515-1.112 1.22-.308 2.463-.493 3.713-.618 1.226-.113 2.456-.104 3.684-.045a24 24 0 0 1 3.447.452c1.096.223 2.156.582 3.194.994.977.393 1.904.89 2.806 1.43.867.524 1.679 1.131 2.472 1.76.76.61 1.493 1.253 2.217 1.905.747.676 1.478 1.37 2.206 2.066q1.102 1.06 2.23 2.093 1.11 1.011 2.282 1.95a26 26 0 0 0 2.295 1.614 9.2 9.2 0 0 0 2.098 1.013c.666.21 1.362.25 2.055.262.858.006 1.71-.092 2.556-.226a11.3 11.3 0 0 0 2.418-.676c.836-.356 1.594-.862 2.332-1.385.842-.604 1.603-1.309 2.348-2.025a58 58 0 0 0 2.115-2.177q.879-.959 1.74-1.935c.468-.535.929-1.078 1.39-1.62l1.134-1.343.891-1.054.101-.12c3.128-3.725 8.396.698 5.269 4.423l-.112.133q-.447.527-.892 1.056l-1.15 1.36c-.489.575-.977 1.151-1.476 1.719q-.918 1.041-1.857 2.065a65 65 0 0 1-2.39 2.457c-.999.956-2.024 1.887-3.154 2.688-1.198.839-2.438 1.627-3.802 2.172-1.248.477-2.528.86-3.852 1.06-1.252.192-2.514.327-3.783.305-1.404-.042-2.806-.185-4.143-.643-1.236-.44-2.427-.985-3.528-1.704a33 33 0 0 1-2.913-2.057 54 54 0 0 1-2.611-2.233 125 125 0 0 1-2.344-2.2c-.68-.65-1.362-1.297-2.06-1.928a45 45 0 0 0-1.884-1.625c-.56-.446-1.13-.88-1.742-1.255a13 13 0 0 0-1.814-.937c-.649-.262-1.311-.493-1.998-.638a17 17 0 0 0-2.43-.325 19.5 19.5 0 0 0-2.675.02c-.91.086-1.816.221-2.704.444-.86.214-1.714.453-2.536.785-.706.294-1.406.61-2.056 1.017-.555.356-1.09.742-1.573 1.193-.447.417-.877.851-1.265 1.324-.339.422-.662.856-.944 1.318q-.423.697-.788 1.426a19 19 0 0 0-.996 2.342q-.14.406-.258.82c-.058.21.012-.15-.004-.199-.114 4.863-6.991 4.703-6.878-.16m5.209 22.456a2.5 2.5 0 0 0-.562.457c.096-.144.183-.293.272-.441.272-.452.534-.91.798-1.366q.559-.956 1.13-1.905c.453-.757.925-1.504 1.402-2.247.52-.82 1.082-1.611 1.667-2.386a25 25 0 0 1 1.993-2.306c.73-.758 1.527-1.447 2.344-2.109.793-.636 1.634-1.207 2.49-1.755a21 21 0 0 1 2.56-1.388c.877-.405 1.801-.68 2.744-.883.932-.193 1.88-.202 2.825-.133.889.074 1.748.306 2.59.589.829.286 1.61.681 2.378 1.1a36 36 0 0 1 2.258 1.379c.83.549 1.623 1.15 2.41 1.759.806.632 1.592 1.29 2.383 1.943q1.2.989 2.407 1.969 1.166.947 2.36 1.86 1.097.832 2.234 1.61a32 32 0 0 0 2.089 1.314 22 22 0 0 0 2.007 1.01c.646.288 1.32.507 2.001.695.657.181 1.331.276 2.008.335.72.058 1.442.028 2.16-.029.792-.061 1.565-.238 2.328-.45.938-.271 1.847-.632 2.75-1.001.922-.384 1.836-.785 2.747-1.194.72-.324 1.435-.661 2.125-1.045a17 17 0 0 0 1.616-1.076c.496-.371.975-.764 1.456-1.154l1.265-1.03 1.012-.826.807-.657a8 8 0 0 1 1.11-.8c4.224-2.412 7.636 3.561 3.412 5.974.404-.268-.074.046-.176.159l-.807.657-1.013.825-1.275 1.039c-.57.463-1.14.929-1.732 1.367-.758.553-1.532 1.086-2.351 1.545q-1.288.703-2.631 1.297c-.984.442-1.97.875-2.967 1.288-1.161.474-2.333.93-3.542 1.27-1.185.32-2.387.581-3.615.672-1.101.081-2.207.117-3.31.019-1.089-.104-2.173-.263-3.229-.56-1.01-.285-2.007-.613-2.965-1.044a29 29 0 0 1-2.649-1.339 39 39 0 0 1-2.526-1.59 62 62 0 0 1-2.52-1.819 109 109 0 0 1-2.515-1.982q-1.227-.995-2.445-2c-.74-.61-1.475-1.226-2.229-1.819a33 33 0 0 0-1.963-1.44 29 29 0 0 0-1.792-1.099c-.419-.231-.842-.457-1.293-.622a4.3 4.3 0 0 0-.925-.242 3 3 0 0 0-.872.012q-.664.125-1.28.403-.89.401-1.714.927a22 22 0 0 0-1.875 1.313c-.596.48-1.177.978-1.71 1.528a18 18 0 0 0-1.46 1.682c-.48.634-.94 1.283-1.367 1.955-.439.684-.873 1.37-1.29 2.068q-.544.903-1.076 1.813c-.284.49-.566.982-.858 1.468-.252.419-.51.837-.817 1.219-.35.42-.735.81-1.208 1.092-4.154 2.53-7.734-3.344-3.58-5.875" transform="translate(0 -197)"/></svg>