<?xml version="1.0" encoding="UTF-8" standalone="no"?>
<!-- Created with Inkscape (http://www.inkscape.org/) -->

<svg
   xmlns:dc="http://purl.org/dc/elements/1.1/"
   xmlns:cc="http://creativecommons.org/ns#"
   xmlns:rdf="http://www.w3.org/1999/02/22-rdf-syntax-ns#"
   xmlns:svg="http://www.w3.org/2000/svg"
   xmlns="http://www.w3.org/2000/svg"
   xmlns:sodipodi="http://sodipodi.sourceforge.net/DTD/sodipodi-0.dtd"
   xmlns:inkscape="http://www.inkscape.org/namespaces/inkscape"
   width="10cm"
   height="10cm"
   viewBox="0 0 100 99.999997"
   version="1.1"
   id="svg8"
   sodipodi:docname="telo.svg"
   inkscape:version="0.92.3 (2405546, 2018-03-11)">
  <defs
     id="defs2" />
  <sodipodi:namedview
     id="base"
     pagecolor="#ffffff"
     bordercolor="#666666"
     borderopacity="1.0"
     inkscape:pageopacity="0.0"
     inkscape:pageshadow="2"
     inkscape:zoom="1"
     inkscape:cx="175.50186"
     inkscape:cy="186.50542"
     inkscape:document-units="cm"
     inkscape:current-layer="layer1"
     showgrid="true"
     units="cm"
     inkscape:window-width="881"
     inkscape:window-height="707"
     inkscape:window-x="971"
     inkscape:window-y="213"
     inkscape:window-maximized="0"
     inkscape:snap-nodes="false">
    <inkscape:grid
       type="xygrid"
       id="grid815"
       units="cm"
       spacingx="9.9999998"
       spacingy="9.9999998" />
  </sodipodi:namedview>
  <metadata
     id="metadata5">
    <rdf:RDF>
      <cc:Work
         rdf:about="">
        <dc:format>image/svg+xml</dc:format>
        <dc:type
           rdf:resource="http://purl.org/dc/dcmitype/StillImage" />
        <dc:title></dc:title>
      </cc:Work>
    </rdf:RDF>
  </metadata>
  <g
     inkscape:label="Layer 1"
     inkscape:groupmode="layer"
     id="layer1"
     transform="translate(0,-197.00002)">
    <path
       style="opacity:1;fill:#020900;fill-opacity:1;stroke:none;stroke-width:1;stroke-linecap:butt;stroke-linejoin:round;stroke-miterlimit:4;stroke-dasharray:none;stroke-opacity:1"
       id="path1567"
       d="m 10.804358,242.61557 c 0.0088,-0.47129 0.109776,-0.93206 0.22723,-1.38625 0.114618,-0.42107 0.248145,-0.83671 0.385864,-1.2507 0.168395,-0.50114 0.362534,-0.99297 0.561765,-1.48249 0.241946,-0.59725 0.51861,-1.17923 0.805835,-1.75576 0.321736,-0.64819 0.676132,-1.27901 1.048139,-1.89944 0.43607,-0.72358 0.938167,-1.40311 1.463276,-2.06372 0.588512,-0.73098 1.246093,-1.4006 1.927532,-2.04417 0.780726,-0.73576 1.647163,-1.36736 2.543536,-1.95288 0.990644,-0.63608 2.058258,-1.13353 3.140751,-1.58958 1.138573,-0.46974 2.322729,-0.81056 3.514931,-1.11231 1.219393,-0.3084 2.463004,-0.49356 3.712993,-0.61861 1.225302,-0.11311 2.456135,-0.10336 3.683749,-0.0449 1.159825,0.0588 2.308781,0.22664 3.446685,0.45228 1.096732,0.22297 2.15629,0.5823 3.194624,0.9939 0.976519,0.39271 1.903701,0.89 2.805755,1.42921 0.867061,0.52469 1.678501,1.13221 2.472272,1.76032 0.760418,0.60964 1.492509,1.25327 2.216433,1.90546 0.747342,0.67592 1.478071,1.36984 2.206453,2.06604 0.734804,0.70672 1.477433,1.40516 2.230284,2.09261 0.738206,0.67564 1.500706,1.32364 2.281119,1.94982 0.731435,0.58504 1.504492,1.11393 2.295046,1.61502 0.656711,0.4246 1.357225,0.76625 2.098566,1.01249 0.665795,0.20966 1.361813,0.24979 2.054521,0.262 0.857883,0.006 1.710357,-0.0918 2.556193,-0.22555 0.830966,-0.13145 1.637615,-0.36493 2.417794,-0.67598 0.836107,-0.35649 1.59394,-0.86222 2.332747,-1.38538 0.842018,-0.6038 1.602121,-1.30867 2.347732,-2.0252 0.726493,-0.70423 1.425885,-1.43549 2.114423,-2.17663 0.587759,-0.638 1.16526,-1.28535 1.73948,-1.93553 0.469222,-0.53472 0.929415,-1.07726 1.390041,-1.61937 0.37901,-0.44719 0.757034,-0.89521 1.135166,-1.34314 0.295944,-0.35218 0.594307,-0.70231 0.890915,-1.05392 0.03359,-0.04 0.06719,-0.08 0.10078,-0.12006 3.127661,-3.72548 8.396285,0.6977 5.268624,4.42318 v 0 c -0.03724,0.0444 -0.07449,0.0887 -0.111736,0.13308 -0.297043,0.35197 -0.59563,0.70264 -0.891993,1.05519 -0.382886,0.45357 -0.765664,0.90723 -1.149461,1.36003 -0.489098,0.57561 -0.977884,1.15155 -1.476409,1.71906 -0.612852,0.69378 -1.22922,1.38453 -1.856825,2.06503 -0.778309,0.8369 -1.568944,1.66258 -2.390634,2.45723 -0.99807,0.95616 -2.023462,1.88735 -3.153066,2.6882 -1.198185,0.83846 -2.43844,1.62641 -3.801994,2.17179 -1.248037,0.47668 -2.528366,0.85975 -3.852452,1.0605 -1.251977,0.19122 -2.513817,0.32691 -3.782558,0.30445 -1.404011,-0.0415 -2.806015,-0.18447 -4.143526,-0.64243 -1.235588,-0.43986 -2.426681,-0.98546 -3.527914,-1.70429 -1.002866,-0.63941 -1.984608,-1.31234 -2.912666,-2.05752 -0.89254,-0.71819 -1.766667,-1.45885 -2.611461,-2.23294 -0.790959,-0.72274 -1.571982,-1.45616 -2.344121,-2.19899 -0.679847,-0.64989 -1.361614,-1.29794 -2.058958,-1.92912 -0.615985,-0.5556 -1.238496,-1.10439 -1.884667,-1.62488 -0.560366,-0.44554 -1.130697,-0.8801 -1.742009,-1.25447 -0.582827,-0.3533 -1.182362,-0.67863 -1.814113,-0.93711 -0.649057,-0.26252 -1.311359,-0.49307 -1.997834,-0.63779 -0.801553,-0.1644 -1.612302,-0.28037 -2.429944,-0.32577 -0.89141,-0.046 -1.785339,-0.056 -2.675652,0.0206 -0.910484,0.086 -1.81566,0.22132 -2.703904,0.44334 -0.858948,0.21439 -1.713264,0.4538 -2.535322,0.78593 -0.706612,0.29364 -1.406448,0.60923 -2.056188,1.01665 -0.555194,0.35558 -1.090404,0.74208 -1.573672,1.19242 -0.446434,0.41702 -0.876861,0.85154 -1.264176,1.32486 -0.338865,0.42146 -0.662515,0.85558 -0.944466,1.31773 -0.28111,0.465 -0.545793,0.93963 -0.788118,1.42611 -0.210375,0.42015 -0.413563,0.84408 -0.590335,1.27968 -0.143332,0.35089 -0.283946,0.7031 -0.406144,1.06203 -0.09086,0.27149 -0.178556,0.54411 -0.257523,0.81932 -0.05741,0.21012 0.01267,-0.14961 -0.0041,-0.19781 -0.113749,4.86297 -6.991034,4.70211 -6.877285,-0.16087 z"
       inkscape:connector-curvature="0" />
    <path
       style="opacity:1;fill:#020900;fill-opacity:1;stroke:none;stroke-width:1;stroke-linecap:butt;stroke-linejoin:round;stroke-miterlimit:4;stroke-dasharray:none;stroke-opacity:1"
       id="path1569"
       d="m 16.012534,265.07232 c -0.20924,0.1233 -0.396879,0.27897 -0.561794,0.4567 0.09602,-0.14374 0.183737,-0.29287 0.272738,-0.441 0.271545,-0.45196 0.533461,-0.90958 0.797568,-1.3659 0.371646,-0.63798 0.750211,-1.27191 1.129906,-1.90512 0.453505,-0.75743 0.924956,-1.5038 1.401834,-2.24666 0.520225,-0.81995 1.082619,-1.61138 1.667211,-2.38635 0.611304,-0.81344 1.288772,-1.57234 1.992799,-2.30573 0.730758,-0.75814 1.526976,-1.44738 2.34456,-2.10927 0.792583,-0.63609 1.633754,-1.20668 2.488697,-1.75458 0.818113,-0.5271 1.677972,-0.98133 2.561032,-1.38832 0.877229,-0.40546 1.801349,-0.68098 2.743938,-0.88299 0.931818,-0.19284 1.880621,-0.2022 2.825242,-0.133 0.888481,0.0744 1.748234,0.30637 2.590091,0.58887 0.828172,0.28623 1.610566,0.6812 2.377898,1.10014 0.771572,0.42762 1.519557,0.89554 2.257319,1.37861 0.829992,0.54887 1.623769,1.14939 2.409515,1.75912 0.807151,0.63223 1.592998,1.29094 2.384232,1.94281 0.799304,0.65998 1.602047,1.31575 2.406753,1.96912 0.776983,0.63173 1.563865,1.25101 2.359176,1.85947 0.730329,0.5568 1.477491,1.09088 2.234652,1.61044 0.678223,0.46661 1.377119,0.90146 2.089063,1.31438 0.648819,0.37543 1.322694,0.70367 2.006698,1.00918 0.646477,0.28905 1.31995,0.50768 2.001657,0.6957 0.656696,0.18139 1.330886,0.27565 2.008135,0.33467 0.719706,0.0583 1.441233,0.0284 2.159722,-0.0282 0.791469,-0.0616 1.564423,-0.23862 2.327442,-0.44952 0.938358,-0.27229 1.847302,-0.63321 2.750849,-1.00231 0.921686,-0.38352 1.835877,-0.78485 2.746489,-1.19388 0.720703,-0.32332 1.43492,-0.66079 2.125374,-1.04486 0.562485,-0.3217 1.093994,-0.69301 1.616096,-1.07572 0.495496,-0.37135 0.974444,-0.76411 1.455086,-1.15431 0.422119,-0.34316 0.843812,-0.68685 1.265553,-1.03048 0.33746,-0.27497 0.674915,-0.54995 1.012367,-0.82493 0.268991,-0.21918 0.537983,-0.43838 0.806974,-0.65756 0.345726,-0.30103 0.718743,-0.56171 1.110062,-0.79942 4.223906,-2.41249 7.635674,3.56102 3.411768,5.9735 v 0 c 0.403484,-0.2676 -0.0739,0.0457 -0.176295,0.15876 -0.268991,0.21919 -0.537985,0.43838 -0.806976,0.65758 -0.337535,0.27504 -0.675066,0.55008 -1.012606,0.82511 -0.424923,0.34623 -0.849799,0.69251 -1.275106,1.03825 -0.571101,0.46362 -1.140958,0.92934 -1.731934,1.36763 -0.758057,0.55274 -1.532149,1.08528 -2.351323,1.54456 -0.857861,0.47091 -1.736698,0.90047 -2.631262,1.29749 -0.983422,0.4414 -1.970548,0.87487 -2.966236,1.28799 -1.161944,0.47329 -2.333138,0.9297 -3.542144,1.27027 -1.185672,0.31943 -2.387658,0.58079 -3.615325,0.67142 -1.101428,0.081 -2.207313,0.1167 -3.309395,0.0188 -1.089329,-0.10361 -2.173565,-0.26296 -3.229165,-0.55964 -1.009793,-0.28472 -2.007751,-0.61274 -2.965601,-1.04444 -0.902488,-0.4062 -1.792282,-0.84089 -2.648495,-1.33856 -0.860163,-0.50103 -1.706134,-1.02599 -2.526078,-1.59094 -0.8539,-0.58693 -1.69722,-1.18923 -2.520897,-1.81807 -0.847463,-0.64877 -1.686425,-1.30848 -2.514478,-1.9819 -0.817425,-0.66371 -1.632852,-1.32985 -2.444805,-2.00024 -0.740098,-0.60975 -1.475005,-1.22609 -2.229033,-1.81867 -0.640882,-0.49799 -1.287007,-0.99027 -1.963018,-1.44014 -0.585822,-0.38495 -1.180049,-0.75742 -1.792306,-1.09922 -0.418769,-0.23112 -0.84206,-0.4571 -1.292434,-0.62159 -0.300945,-0.10676 -0.606412,-0.20435 -0.924851,-0.24269 -0.290742,-0.0312 -0.583628,-0.0393 -0.872966,0.0125 -0.441373,0.0831 -0.869302,0.21829 -1.279189,0.40322 -0.593265,0.26746 -1.166027,0.57608 -1.714497,0.92702 -0.643213,0.41042 -1.277234,0.8363 -1.874417,1.31222 -0.59627,0.47948 -1.177446,0.97853 -1.710597,1.52844 -0.516668,0.53408 -1.012627,1.08801 -1.460104,1.68211 -0.480435,0.63384 -0.940024,1.2831 -1.366263,1.95487 -0.439079,0.68369 -0.873294,1.37054 -1.290764,2.06771 -0.361448,0.60272 -0.721834,1.20611 -1.075794,1.81327 -0.283869,0.49046 -0.565621,0.98218 -0.857726,1.46781 -0.252627,0.41907 -0.509452,0.83734 -0.817461,1.21881 -0.349242,0.4202 -0.734648,0.81069 -1.20796,1.09232 -4.154049,2.53087 -7.73325,-3.34384 -3.579201,-5.87472 z"
       inkscape:connector-curvature="0" />
  </g>
</svg>
