<svg viewBox="0 0 100 100"><path style="opacity:1;fill:#020900;fill-opacity:1;stroke:none;stroke-width:1;stroke-linecap:butt;stroke-linejoin:round;stroke-miterlimit:4;stroke-dasharray:none;stroke-opacity:1" d="M41.999 221.449c.206.634.615 1.138 1.144 1.53.178.134.428.23.612.301q-.466-.059-.936-.08a11 11 0 0 0-1.521.07c-.675.073-1.34.212-2.003.358-.8.178-1.59.399-2.372.644-.802.256-1.584.565-2.352.909-.759.343-1.473.771-2.17 1.225-.757.497-1.449 1.082-2.124 1.684a22.5 22.5 0 0 0-2.084 2.155c-.693.811-1.283 1.7-1.84 2.608-.617 1.02-1.125 2.099-1.605 3.189-.51 1.17-.93 2.378-1.313 3.597-.382 1.223-.657 2.475-.882 3.736-.214 1.216-.31 2.447-.352 3.68-.034 1.242.057 2.48.177 3.715.136 1.328.353 2.646.597 3.958a51 51 0 0 0 .94 4.001c.347 1.261.785 2.494 1.26 3.711a34 34 0 0 0 1.577 3.4c.524 1.011 1.157 1.955 1.849 2.856.7.9 1.512 1.7 2.354 2.466.9.808 1.886 1.51 2.893 2.175 1.063.697 2.19 1.288 3.333 1.842 1.201.574 2.44 1.065 3.69 1.52 1.223.445 2.48.785 3.747 1.078 1.236.283 2.495.432 3.758.52 1.275.085 2.55.016 3.819-.112 1.331-.14 2.636-.436 3.922-.801 1.329-.39 2.6-.942 3.85-1.53 1.293-.613 2.522-1.345 3.73-2.111 1.232-.787 2.398-1.67 3.544-2.578a52 52 0 0 0 3.27-2.859c.986-.93 1.91-1.921 2.8-2.942a36 36 0 0 0 2.276-2.968 27 27 0 0 0 1.773-2.963c.494-.954.89-1.952 1.238-2.967.325-.958.547-1.945.721-2.94.165-.968.221-1.95.238-2.93a20.5 20.5 0 0 0-.186-2.821c-.122-.916-.331-1.816-.558-2.71a24 24 0 0 0-.86-2.653 22 22 0 0 0-1.154-2.504c-.432-.806-.944-1.565-1.479-2.306-.575-.784-1.206-1.524-1.843-2.258a37 37 0 0 0-1.975-2.09 26 26 0 0 0-1.98-1.743 34 34 0 0 0-2.104-1.51 34 34 0 0 0-2.14-1.322 44 44 0 0 0-2.126-1.127 67 67 0 0 0-2.072-.98 51 51 0 0 0-1.906-.804 44 44 0 0 0-3.37-1.187 35 35 0 0 0-1.528-.425 52 52 0 0 0-4.018-.847 34 34 0 0 0-1.026-.152 15 15 0 0 0-1.63-.112q-.294 0-.586.028c-.052.003-.108.027-.022.011.009-.01.019-.003.028-.004-4.466 1.928-7.192-4.389-2.726-6.316.353-.148.173-.077.54-.212a7 7 0 0 1 1.608-.334c.412-.034.826-.056 1.24-.051q.594.007 1.187.048c.424.03.848.067 1.27.123a41 41 0 0 1 2.657.441 58 58 0 0 1 3.195.716 41 41 0 0 1 3.736 1.136c.675.24 1.348.486 2.012.754.733.295 1.463.598 2.183.923.777.353 1.55.715 2.314 1.095.834.42 1.662.85 2.472 1.314a41 41 0 0 1 2.55 1.578c.877.59 1.745 1.196 2.573 1.855a33 33 0 0 1 2.506 2.212 44 44 0 0 1 2.333 2.472c.773.892 1.536 1.794 2.23 2.748.72 1 1.403 2.027 1.981 3.116a30 30 0 0 1 1.506 3.284c.42 1.115.803 2.243 1.094 3.4.295 1.169.56 2.347.715 3.544.154 1.262.257 2.53.237 3.803-.028 1.34-.112 2.68-.343 4.003-.242 1.348-.546 2.685-.992 3.982-.465 1.338-.99 2.656-1.648 3.913-.673 1.279-1.4 2.529-2.229 3.714-.857 1.222-1.75 2.42-2.73 3.547-1.041 1.19-2.119 2.347-3.27 3.43-1.2 1.126-2.427 2.222-3.717 3.244-1.334 1.054-2.694 2.078-4.13 2.992-1.452.919-2.933 1.795-4.49 2.53-1.592.744-3.213 1.435-4.906 1.922-1.675.468-3.375.85-5.109 1.025-1.659.16-3.326.244-4.993.128-1.618-.12-3.231-.314-4.814-.681-1.541-.36-3.07-.775-4.558-1.318-1.469-.539-2.924-1.117-4.335-1.795-1.415-.69-2.81-1.427-4.126-2.295-1.3-.865-2.57-1.779-3.728-2.828-1.144-1.048-2.242-2.147-3.19-3.379-.92-1.214-1.77-2.479-2.47-3.834-.696-1.334-1.346-2.691-1.893-4.093-.56-1.443-1.076-2.902-1.485-4.396a59 59 0 0 1-1.068-4.56c-.28-1.507-.526-3.022-.68-4.549-.147-1.535-.253-3.076-.204-4.62.057-1.559.18-3.116.456-4.653.28-1.548.618-3.084 1.09-4.586.461-1.459.966-2.905 1.581-4.307.609-1.376 1.258-2.736 2.043-4.022.753-1.218 1.554-2.408 2.49-3.495.852-.984 1.744-1.935 2.72-2.8.936-.83 1.9-1.63 2.952-2.314 1-.646 2.027-1.253 3.116-1.739a30 30 0 0 1 3.099-1.19 36 36 0 0 1 2.945-.796c.93-.203 1.863-.39 2.81-.486.845-.08 1.694-.134 2.543-.093.598.033 1.196.079 1.787.177.683.129 1.35.323 1.938.707.73.516 1.325 1.159 1.616 2.023 1.563 4.607-4.95 6.818-6.514 2.212" transform="translate(0 -197)"/><path style="opacity:1;fill:#020900;fill-opacity:1;stroke:none;stroke-width:1;stroke-linecap:butt;stroke-linejoin:round;stroke-miterlimit:4;stroke-dasharray:none;stroke-opacity:1" d="M49.03 230.571c.371.61.516 1.299.61 1.996a27 27 0 0 1 .138 1.792c.048.841.059 1.684.062 2.527-.002.957-.01 1.914-.015 2.871q-.011 1.395-.012 2.79.008 1.155.023 2.31a1451 1451 0 0 1 .042 3.842l.015 1.489.012 1.188.01.947c.008.183-.007.393.008.564-.008-.375-.165-.717-.335-1.044a2.53 2.53 0 0 0-.942-.917c-.235-.099.044-.026.132-.01.344.059.693.093 1.04.122.49.037.98.037 1.47.039l2.089-.003 2.28-.006a74 74 0 0 0 2.169-.046 170 170 0 0 0 5.185-.285l1.232-.091q.51-.039 1.021-.074l.822-.06.657-.046.524-.037c.424-.055.831.025 1.25.086 4.732 1.128 3.138 7.82-1.594 6.692.202.028.403.064.606.083.144.013.476-.018.225 0l-.523.038-.657.046-.817.059-1.008.073-1.234.091a121 121 0 0 1-3.33.204c-.71.035-1.42.07-2.13.096-.789.026-1.577.046-2.366.05l-2.297.005q-1.063.004-2.126.003a25 25 0 0 1-2.041-.064 18 18 0 0 1-1.743-.22c-.612-.12-1.223-.265-1.79-.533-.787-.4-1.485-.919-1.958-1.682-.369-.663-.638-1.36-.676-2.126a18 18 0 0 1-.023-.94l-.01-.946-.01-1.188-.016-1.489-.041-3.828q-.017-1.195-.024-2.391 0-1.417.012-2.833.009-1.404.015-2.808a40 40 0 0 0-.053-2.182c-.022-.424-.044-.848-.09-1.27-.037-.335.182.62.33.681-2.522-4.16 3.361-7.725 5.882-3.565" transform="translate(0 -197)"/></svg>