<?xml version="1.0" encoding="UTF-8" standalone="no"?>
<!-- Created with Inkscape (http://www.inkscape.org/) -->

<svg
   xmlns:dc="http://purl.org/dc/elements/1.1/"
   xmlns:cc="http://creativecommons.org/ns#"
   xmlns:rdf="http://www.w3.org/1999/02/22-rdf-syntax-ns#"
   xmlns:svg="http://www.w3.org/2000/svg"
   xmlns="http://www.w3.org/2000/svg"
   xmlns:sodipodi="http://sodipodi.sourceforge.net/DTD/sodipodi-0.dtd"
   xmlns:inkscape="http://www.inkscape.org/namespaces/inkscape"
   width="10cm"
   height="10cm"
   viewBox="0 0 100 99.999997"
   version="1.1"
   id="svg8"
   sodipodi:docname="tenpo.svg"
   inkscape:version="0.92.3 (2405546, 2018-03-11)">
  <defs
     id="defs2" />
  <sodipodi:namedview
     id="base"
     pagecolor="#ffffff"
     bordercolor="#666666"
     borderopacity="1.0"
     inkscape:pageopacity="0.0"
     inkscape:pageshadow="2"
     inkscape:zoom="1"
     inkscape:cx="175.50186"
     inkscape:cy="186.50542"
     inkscape:document-units="cm"
     inkscape:current-layer="layer1"
     showgrid="true"
     units="cm"
     inkscape:window-width="881"
     inkscape:window-height="707"
     inkscape:window-x="971"
     inkscape:window-y="213"
     inkscape:window-maximized="0"
     inkscape:snap-nodes="false">
    <inkscape:grid
       type="xygrid"
       id="grid815"
       units="cm"
       spacingx="9.9999998"
       spacingy="9.9999998" />
  </sodipodi:namedview>
  <metadata
     id="metadata5">
    <rdf:RDF>
      <cc:Work
         rdf:about="">
        <dc:format>image/svg+xml</dc:format>
        <dc:type
           rdf:resource="http://purl.org/dc/dcmitype/StillImage" />
        <dc:title></dc:title>
      </cc:Work>
    </rdf:RDF>
  </metadata>
  <g
     inkscape:label="Layer 1"
     inkscape:groupmode="layer"
     id="layer1"
     transform="translate(0,-197.00002)">
    <path
       style="opacity:1;fill:#020900;fill-opacity:1;stroke:none;stroke-width:1;stroke-linecap:butt;stroke-linejoin:round;stroke-miterlimit:4;stroke-dasharray:none;stroke-opacity:1"
       id="path1571"
       d="m 41.998598,221.449 c 0.206785,0.63439 0.615569,1.13834 1.144799,1.53025 0.177541,0.13352 0.427625,0.22938 0.611587,0.30093 -0.310764,-0.041 -0.623255,-0.065 -0.936252,-0.0796 -0.508246,-0.0196 -1.015897,0.0181 -1.521164,0.0692 -0.674983,0.0735 -1.340156,0.2124 -2.002432,0.3585 -0.800619,0.17725 -1.590141,0.39832 -2.372347,0.64338 -0.801479,0.2561 -1.584156,0.56537 -2.351646,0.90922 -0.758957,0.34272 -1.47311,0.77127 -2.169419,1.22547 -0.757579,0.49674 -1.449692,1.08145 -2.12449,1.68335 -0.748041,0.6658 -1.432261,1.39664 -2.084642,2.15504 -0.692579,0.81164 -1.282814,1.70052 -1.839856,2.60826 -0.616357,1.02026 -1.125116,2.09887 -1.604393,3.18857 -0.51113,1.17135 -0.930893,2.37851 -1.3133,3.59698 -0.382459,1.22346 -0.656864,2.47538 -0.881708,3.73612 -0.21465,1.21633 -0.31045,2.44754 -0.351964,3.68052 -0.03475,1.24136 0.05647,2.4803 0.176815,3.71469 0.135918,1.32825 0.352808,2.6459 0.596449,3.95804 0.25501,1.34705 0.578655,2.67939 0.940369,4.00136 0.347001,1.26095 0.784699,2.49339 1.259851,3.71092 0.455819,1.16525 0.996811,2.29317 1.577472,3.40052 0.52318,1.01076 1.1571,1.95393 1.848298,2.85577 0.700553,0.89934 1.512345,1.69997 2.354238,2.46503 0.900115,0.80799 1.885638,1.50982 2.893034,2.17584 1.063469,0.69712 2.189927,1.2876 3.33266,1.84191 1.201615,0.57342 2.439696,1.0644 3.689736,1.52066 1.223769,0.44378 2.48023,0.78443 3.747635,1.07664 1.236027,0.28384 2.495037,0.43219 3.75821,0.52134 1.274773,0.0841 2.549964,0.0154 3.818745,-0.11278 1.331476,-0.13943 2.636295,-0.43607 3.921826,-0.80125 1.328862,-0.38972 2.599952,-0.94157 3.850817,-1.52964 1.292847,-0.61282 2.521934,-1.34571 3.728622,-2.11139 1.232561,-0.78728 2.398355,-1.67078 3.544417,-2.57748 1.134755,-0.90108 2.21507,-1.86672 3.269847,-2.85933 0.986399,-0.92935 1.90967,-1.92135 2.799662,-2.94244 0.817248,-0.94336 1.562627,-1.94465 2.276893,-2.96716 0.659866,-0.94568 1.23956,-1.9422 1.772759,-2.96359 0.494239,-0.95372 0.89046,-1.95207 1.238623,-2.96687 0.325017,-0.95785 0.546584,-1.94472 0.721048,-2.93963 0.164629,-0.96861 0.220601,-1.94964 0.237421,-2.93048 0.01161,-0.94432 -0.06759,-1.88538 -0.185835,-2.82125 -0.122108,-0.91553 -0.331163,-1.81573 -0.557713,-2.71009 -0.229052,-0.90239 -0.530722,-1.783 -0.860449,-2.65282 -0.327834,-0.86016 -0.723238,-1.69107 -1.154102,-2.50371 -0.432204,-0.80643 -0.94339,-1.56541 -1.478589,-2.30606 -0.575022,-0.78393 -1.205894,-1.52428 -1.843064,-2.25778 -0.627528,-0.72555 -1.292513,-1.41676 -1.974868,-2.09051 -0.626531,-0.61805 -1.293247,-1.19234 -1.979621,-1.74238 -0.677576,-0.53603 -1.387943,-1.02816 -2.104448,-1.51016 -0.694632,-0.47064 -1.413018,-0.90397 -2.140125,-1.32208 -0.696277,-0.39872 -1.408816,-0.76766 -2.125874,-1.12726 -0.684662,-0.33949 -1.376415,-0.66436 -2.072285,-0.98016 -0.628833,-0.28285 -1.265843,-0.54698 -1.905556,-0.80409 -0.576506,-0.23278 -1.160806,-0.44523 -1.746657,-0.65308 -0.53703,-0.18971 -1.078579,-0.36609 -1.622846,-0.53378 -0.50582,-0.15542 -1.016918,-0.2925 -1.529262,-0.42447 -0.486564,-0.12428 -0.975649,-0.23822 -1.465599,-0.34826 -0.444426,-0.0996 -0.890659,-0.19077 -1.337569,-0.27844 -0.403897,-0.0792 -0.809241,-0.15058 -1.214848,-0.22039 -0.341101,-0.0557 -0.682979,-0.10676 -1.025615,-0.15206 -0.284752,-0.0374 -0.571124,-0.0603 -0.857501,-0.0808 -0.257175,-0.0184 -0.514768,-0.0283 -0.772552,-0.0309 -0.195712,-3e-5 -0.391191,0.0102 -0.586073,0.0277 -0.05191,0.003 -0.10745,0.0269 -0.02175,0.0111 0.0087,-0.0107 0.01879,-0.003 0.0282,-0.004 -4.466146,1.92743 -7.191955,-4.38865 -2.725809,-6.31609 v 0 c 0.35265,-0.14771 0.172691,-0.0768 0.540099,-0.21213 0.52355,-0.16529 1.057817,-0.29303 1.607034,-0.33437 0.412676,-0.0334 0.826371,-0.0553 1.240576,-0.051 0.396041,0.005 0.791882,0.0195 1.186971,0.0483 0.42396,0.0309 0.847736,0.0669 1.269204,0.12311 0.429016,0.0575 0.857318,0.12043 1.284298,0.19155 0.458467,0.0789 0.91659,0.15997 1.373121,0.24954 0.508063,0.0998 1.01536,0.20361 1.520597,0.31697 0.559957,0.12591 1.1189,0.25641 1.674937,0.39876 0.616482,0.15913 1.231308,0.32497 1.839889,0.51239 0.635614,0.19638 1.268293,0.40218 1.895475,0.62419 0.67518,0.23974 1.348309,0.48549 2.012778,0.75377 0.732922,0.29499 1.462759,0.59798 2.183037,0.92284 0.776759,0.35299 1.549204,0.71551 2.313276,1.0953 0.834171,0.41889 1.662766,0.84924 2.47259,1.31387 0.866245,0.49922 1.721985,1.01677 2.550048,1.57765 0.876766,0.59084 1.744655,1.19599 2.572277,1.85475 0.868116,0.6995 1.713195,1.42751 2.506189,2.2121 0.805661,0.79744 1.591434,1.6149 2.333077,2.47273 0.773258,0.89126 1.535898,1.79323 2.230837,2.74775 0.718413,1.00045 1.402233,2.02687 1.980504,3.11609 0.560607,1.06675 1.078651,2.15558 1.505405,3.28367 0.419563,1.1149 0.80327,2.24355 1.094785,3.39958 0.294127,1.16951 0.560253,2.34759 0.714275,3.54499 0.154733,1.26158 0.257754,2.52995 0.237019,3.80232 -0.02811,1.34029 -0.11139,2.68045 -0.342601,4.00303 -0.242504,1.34773 -0.546436,2.68484 -0.992151,3.98173 -0.465301,1.3384 -0.99079,2.65614 -1.647756,3.91366 -0.672777,1.27878 -1.399484,2.52882 -2.229144,3.71341 -0.856866,1.2225 -1.750806,2.41963 -2.730891,3.54712 -1.040297,1.18989 -2.118035,2.34708 -3.270041,3.43043 -1.199002,1.12604 -2.426478,2.222 -3.716076,3.24417 -1.3345,1.05373 -2.69359,2.07816 -4.129106,2.99199 -1.452763,0.91866 -2.933898,1.79514 -4.490357,2.52891 -1.592821,0.74444 -3.213904,1.43562 -4.906751,1.92258 -1.675299,0.4679 -3.374694,0.84995 -5.108445,1.02501 -1.659324,0.16113 -3.326834,0.24453 -4.992899,0.12809 -1.61848,-0.11985 -3.231655,-0.31401 -4.814919,-0.68122 -1.541063,-0.3592 -3.069315,-0.77496 -4.557192,-1.31766 -1.468921,-0.53865 -2.92405,-1.11722 -4.335232,-1.79492 -1.41555,-0.69029 -2.809706,-1.42734 -4.126002,-2.29535 -1.299951,-0.86465 -2.569253,-1.77838 -3.728373,-2.82793 -1.143448,-1.04751 -2.24224,-2.14648 -3.189525,-3.37835 -0.920014,-1.21417 -1.770428,-2.47905 -2.470712,-3.83477 -0.695861,-1.33336 -1.345623,-2.69069 -1.892192,-4.09303 -0.56033,-1.4423 -1.076789,-2.90203 -1.485792,-4.39538 -0.41026,-1.50663 -0.779382,-3.02452 -1.068019,-4.55963 -0.27873,-1.5081 -0.525865,-3.02264 -0.67961,-4.54928 -0.147244,-1.53534 -0.252925,-3.07651 -0.204389,-4.62006 0.05744,-1.55915 0.181125,-3.11609 0.456143,-4.65375 0.279824,-1.54717 0.618753,-3.08381 1.090764,-4.58513 0.460689,-1.45926 0.965938,-2.90498 1.580921,-4.30746 0.608395,-1.37587 1.25795,-2.7356 2.042236,-4.02163 0.75326,-1.21802 1.554392,-2.40811 2.490099,-3.49559 0.852738,-0.98414 1.74456,-1.93447 2.719851,-2.79938 0.936292,-0.83031 1.901137,-1.63075 2.952178,-2.3139 1.000284,-0.64602 2.026955,-1.25315 3.116228,-1.73899 1.012571,-0.44825 2.042123,-0.85802 3.099001,-1.19095 0.971474,-0.30211 1.951377,-0.57676 2.945387,-0.79541 0.92873,-0.20328 1.862595,-0.38979 2.809497,-0.48608 0.845171,-0.0807 1.694193,-0.13435 2.543508,-0.0927 0.597662,0.0323 1.195411,0.0785 1.786401,0.17668 0.682804,0.12887 1.3506,0.32323 1.938459,0.70737 0.730152,0.51575 1.324784,1.15862 1.615416,2.02302 1.563735,4.6061 -4.950277,6.81756 -6.514015,2.21145 z"
       inkscape:connector-curvature="0" />
    <path
       style="opacity:1;fill:#020900;fill-opacity:1;stroke:none;stroke-width:1;stroke-linecap:butt;stroke-linejoin:round;stroke-miterlimit:4;stroke-dasharray:none;stroke-opacity:1"
       id="path1575"
       d="m 49.030366,230.5714 c 0.371067,0.61052 0.51603,1.29824 0.610142,1.9953 0.07211,0.59505 0.105121,1.19386 0.137168,1.79212 0.04817,0.84155 0.05919,1.68443 0.062,2.52714 -0.0019,0.95716 -0.0091,1.9143 -0.01505,2.87144 -0.0062,0.92968 -0.01172,1.85937 -0.01148,2.78908 0.0039,0.77028 0.01397,1.5405 0.0232,2.31073 0.0083,0.67775 0.01585,1.35552 0.0232,2.03328 0.0065,0.60287 0.01257,1.20574 0.0186,1.8086 0.0049,0.49629 0.0099,0.99257 0.01479,1.48885 0.0039,0.39597 0.0079,0.79195 0.0118,1.18793 0.0031,0.31561 0.0063,0.63122 0.0094,0.94683 0.0087,0.1837 -0.0066,0.39327 0.0091,0.56476 -0.0087,-0.37553 -0.165531,-0.71763 -0.335711,-1.04465 -0.228994,-0.38887 -0.551894,-0.69524 -0.941655,-0.91712 -0.234571,-0.0987 0.04449,-0.0259 0.131731,-0.0102 0.344731,0.0591 0.693034,0.0933 1.041329,0.12292 0.488878,0.0368 0.97949,0.0367 1.469443,0.0382 0.696063,1.9e-4 1.392123,-0.002 2.088184,-0.003 0.760259,-0.002 1.520526,-0.002 2.280782,-0.006 0.723085,-0.003 1.445951,-0.0216 2.168605,-0.0457 0.673737,-0.0252 1.347178,-0.058 2.020567,-0.0912 0.572344,-0.0277 1.144482,-0.0596 1.716421,-0.0947 0.483002,-0.0292 0.965671,-0.0635 1.448249,-0.099 0.410668,-0.0304 0.821309,-0.0612 1.231988,-0.0915 0.340328,-0.0251 0.680709,-0.0495 1.021088,-0.0739 0.274055,-0.0197 0.548129,-0.0392 0.822203,-0.0587 0.218993,-0.0156 0.437986,-0.0311 0.656979,-0.0466 0.174522,-0.0124 0.349041,-0.0248 0.523563,-0.0372 0.423534,-0.055 0.831371,0.0252 1.250312,0.0862 4.731851,1.1274 3.137466,7.81925 -1.594387,6.69185 v 0 c 0.201978,0.0275 0.402907,0.0643 0.605935,0.0825 0.144093,0.0129 0.476113,-0.0174 0.225367,10e-4 -0.174516,0.0124 -0.349033,0.0248 -0.523549,0.0372 -0.218864,0.0155 -0.437724,0.0311 -0.656582,0.0466 -0.272437,0.0194 -0.54487,0.0387 -0.817288,0.0583 -0.335819,0.0241 -0.671644,0.0482 -1.007417,0.0729 -0.411522,0.0304 -0.823005,0.0612 -1.234516,0.0917 -0.509993,0.0374 -1.020083,0.0736 -1.53052,0.10453 -0.599643,0.0368 -1.199485,0.0703 -1.799555,0.0993 -0.710002,0.0349 -1.420056,0.0695 -2.130441,0.0957 -0.788146,0.0261 -1.576528,0.0459 -2.365142,0.0494 -0.765829,0.004 -1.531665,0.003 -2.297496,0.006 -0.708589,0.002 -1.417177,0.004 -2.125766,0.003 -0.680786,-0.002 -1.362318,-0.007 -2.041229,-0.0638 -0.583456,-0.0513 -1.166614,-0.11324 -1.742879,-0.22034 -0.612052,-0.12015 -1.222385,-0.26547 -1.789522,-0.53293 -0.787157,-0.39983 -1.485453,-0.91895 -1.958309,-1.68196 -0.368898,-0.66306 -0.638505,-1.35945 -0.675663,-2.12603 -0.01752,-0.31301 -0.02233,-0.6261 -0.02305,-0.93958 -0.0031,-0.31561 -0.0063,-0.63122 -0.0094,-0.94683 -0.0039,-0.39598 -0.0079,-0.79195 -0.0118,-1.18792 -0.0049,-0.49614 -0.0098,-0.99229 -0.01479,-1.48843 -0.006,-0.60087 -0.01201,-1.20175 -0.01852,-1.80262 -0.0073,-0.67515 -0.0149,-1.35029 -0.02312,-2.02543 -0.0096,-0.79723 -0.02003,-1.59447 -0.02371,-2.39176 -1.83e-4,-0.94435 0.0052,-1.88867 0.01161,-2.833 0.0058,-0.93594 0.01286,-1.87187 0.01495,-2.80783 -0.0021,-0.72758 -0.01045,-1.45534 -0.05228,-2.18192 -0.02249,-0.42379 -0.04421,-0.84796 -0.08932,-1.27008 -0.03817,-0.335 0.180827,0.62051 0.3283,0.68163 -2.521103,-4.15999 3.36201,-7.72537 5.883111,-3.56538 z"
       inkscape:connector-curvature="0" />
  </g>
</svg>
