<svg viewBox="0 0 100 100"><path style="opacity:1;fill:#020900;fill-opacity:1;stroke:none;stroke-width:1;stroke-linecap:butt;stroke-linejoin:round;stroke-miterlimit:4;stroke-dasharray:none;stroke-opacity:1" d="m39.48 239.169-.02.002a12 12 0 0 0-.402.165q-.39.18-.754.407c-.324.207-.61.464-.893.722-.443.407-.828.87-1.2 1.34-.505.64-.953 1.322-1.382 2.015a27 27 0 0 0-1.335 2.505 39 39 0 0 0-1.202 2.866 45 45 0 0 0-.986 2.933c-.29.924-.502 1.868-.673 2.82-.172.959-.238 1.93-.266 2.903-.029 1.073.047 2.144.163 3.21.124 1.122.363 2.225.645 3.317.28 1.08.679 2.12 1.133 3.138.44.98 1.004 1.893 1.609 2.778.628.907 1.343 1.747 2.085 2.562.754.818 1.57 1.575 2.405 2.308.851.744 1.754 1.425 2.667 2.09a42 42 0 0 0 2.809 1.856 38 38 0 0 0 2.786 1.54c.866.443 1.77.8 2.693 1.102.915.294 1.862.463 2.814.585 1.004.123 2.016.123 3.025.084 1.038-.043 2.064-.202 3.08-.413 1.063-.233 2.099-.57 3.122-.936a23 23 0 0 0 2.858-1.275c.842-.44 1.629-.973 2.387-1.544.728-.548 1.373-1.189 1.98-1.866.648-.74 1.195-1.557 1.709-2.393.545-.884.98-1.825 1.359-2.79.393-1.02.646-2.084.853-3.155.214-1.15.3-2.32.35-3.487.05-1.296-.016-2.591-.125-3.882-.11-1.279-.352-2.54-.647-3.787-.28-1.164-.662-2.299-1.093-3.415-.398-1.02-.881-2-1.405-2.96-.472-.867-1.03-1.68-1.625-2.466-.553-.73-1.183-1.393-1.838-2.03a24 24 0 0 0-2.093-1.753 34 34 0 0 0-2.31-1.554 33 33 0 0 0-2.358-1.333 39 39 0 0 0-4.566-1.98c-.68-.238-1.37-.444-2.064-.64a15 15 0 0 0-1.755-.376 31 31 0 0 0-1.803-.209 97 97 0 0 0-1.77-.141q-.734-.056-1.473-.088a25 25 0 0 0-1.243-.015 11 11 0 0 0-1.002.059 8 8 0 0 0-.882.163c-.375.092-.746.201-1.117.308l-1.179.34c-.177.053-.355.104-.53.164-4.615 1.535-6.786-4.993-2.17-6.528q.393-.13.79-.244l1.182-.341c.491-.142.982-.285 1.48-.402.566-.13 1.138-.242 1.717-.303a18 18 0 0 1 1.624-.095q.807-.01 1.614.021.844.037 1.687.1.964.068 1.926.154c.756.073 1.512.15 2.262.268.847.14 1.688.307 2.513.546.851.24 1.7.495 2.533.79a46 46 0 0 1 5.402 2.347 40 40 0 0 1 2.838 1.608c.96.603 1.911 1.223 2.818 1.905.95.724 1.877 1.478 2.736 2.309.902.883 1.768 1.804 2.528 2.814.794 1.058 1.54 2.152 2.172 3.316.664 1.225 1.278 2.478 1.782 3.779.54 1.409 1.02 2.84 1.37 4.31.368 1.578.67 3.172.805 4.789.13 1.582.207 3.17.142 4.757-.07 1.51-.189 3.02-.472 4.506-.294 1.485-.656 2.958-1.21 4.37-.536 1.338-1.143 2.646-1.904 3.872-.736 1.184-1.523 2.34-2.453 3.382-.909 1.001-1.875 1.951-2.962 2.762-1.063.793-2.164 1.534-3.343 2.145-1.204.622-2.436 1.191-3.713 1.647-1.328.472-2.673.902-4.053 1.196-1.388.281-2.79.495-4.207.548-1.392.05-2.788.04-4.172-.138-1.383-.184-2.757-.44-4.086-.875-1.242-.415-2.462-.893-3.629-1.49a45 45 0 0 1-3.287-1.821 49 49 0 0 1-3.263-2.16c-1.081-.79-2.148-1.6-3.156-2.483-1.026-.904-2.028-1.838-2.952-2.847-.957-1.056-1.877-2.146-2.684-3.322-.831-1.229-1.605-2.498-2.208-3.858-.603-1.368-1.136-2.766-1.507-4.216-.36-1.413-.664-2.84-.82-4.29-.147-1.381-.241-2.768-.2-4.157.043-1.314.138-2.627.374-3.922a30 30 0 0 1 .86-3.593c.347-1.138.716-2.27 1.14-3.382.44-1.146.9-2.284 1.429-3.392.517-1.075 1.062-2.136 1.69-3.152.574-.922 1.174-1.83 1.85-2.681.607-.756 1.239-1.493 1.959-2.145.608-.549 1.238-1.077 1.94-1.504a14 14 0 0 1 1.603-.844c.414-.178.833-.348 1.267-.472.264-.072.672-.168.87-.183 4.813-.712 5.82 6.093 1.008 6.805m6.555-12.812c-.242-.447-.406-.928-.555-1.411-.22-.784-.35-1.589-.488-2.39-.136-.794-.279-1.587-.42-2.38q-.184-1.021-.36-2.044-.152-.895-.294-1.792l-.245-1.56c-.06-.384-.117-.769-.188-1.151l-.03-.167c-.86-4.788 5.912-6.003 6.77-1.215l.025.138c.082.444.152.89.22 1.335l.242 1.54a148 148 0 0 0 .632 3.707q.216 1.208.427 2.418c.091.53.177 1.063.299 1.588.013.05.032.11.04.159 2.281 4.296-3.795 7.521-6.075 3.225m23.461 4.717c.195-.389.455-.74.702-1.096.42-.612.813-1.24 1.207-1.869a361 361 0 0 0 1.666-2.692l1.413-2.304c.185-.298.355-.606.5-.926 2.077-4.399 8.298-1.462 6.22 2.937-.258.539-.532 1.07-.85 1.577l-1.421 2.317a366 366 0 0 1-1.703 2.752c-.45.715-.899 1.43-1.378 2.126-.066.095-.444.671-.188.224-2.153 4.362-8.321 1.316-6.168-3.046m-46.803-.477c.006.011.027.045.02.035-.158-.211-.284-.454-.422-.677a19 19 0 0 0-.906-1.382 20 20 0 0 0-1.21-1.477c-.423-.479-.87-.938-1.315-1.396a207 207 0 0 0-2.205-2.223l-.834-.817c-.186-.176-.363-.362-.559-.527.12.12.286.196.439.27-4.515-1.812-1.953-8.196 2.562-6.385.548.24 1.072.525 1.52.93q.433.382.843.79l.854.836q.53.52 1.051 1.05.633.638 1.262 1.28a47 47 0 0 1 1.552 1.653c.573.653 1.135 1.317 1.642 2.023.411.58.807 1.17 1.17 1.781.172.281.35.558.519.841 2.4 4.231-3.583 7.626-5.983 3.395" transform="translate(0 -197)"/></svg>