<?xml version="1.0" encoding="UTF-8" standalone="no"?>
<!-- Created with Inkscape (http://www.inkscape.org/) -->

<svg
   xmlns:dc="http://purl.org/dc/elements/1.1/"
   xmlns:cc="http://creativecommons.org/ns#"
   xmlns:rdf="http://www.w3.org/1999/02/22-rdf-syntax-ns#"
   xmlns:svg="http://www.w3.org/2000/svg"
   xmlns="http://www.w3.org/2000/svg"
   xmlns:sodipodi="http://sodipodi.sourceforge.net/DTD/sodipodi-0.dtd"
   xmlns:inkscape="http://www.inkscape.org/namespaces/inkscape"
   width="10cm"
   height="10cm"
   viewBox="0 0 100 99.999997"
   version="1.1"
   id="svg8"
   sodipodi:docname="tomo.svg"
   inkscape:version="0.92.3 (2405546, 2018-03-11)">
  <defs
     id="defs2" />
  <sodipodi:namedview
     id="base"
     pagecolor="#ffffff"
     bordercolor="#666666"
     borderopacity="1.0"
     inkscape:pageopacity="0.0"
     inkscape:pageshadow="2"
     inkscape:zoom="1"
     inkscape:cx="175.50186"
     inkscape:cy="186.50542"
     inkscape:document-units="cm"
     inkscape:current-layer="layer1"
     showgrid="true"
     units="cm"
     inkscape:window-width="881"
     inkscape:window-height="707"
     inkscape:window-x="971"
     inkscape:window-y="213"
     inkscape:window-maximized="0"
     inkscape:snap-nodes="false">
    <inkscape:grid
       type="xygrid"
       id="grid815"
       units="cm"
       spacingx="9.9999998"
       spacingy="9.9999998" />
  </sodipodi:namedview>
  <metadata
     id="metadata5">
    <rdf:RDF>
      <cc:Work
         rdf:about="">
        <dc:format>image/svg+xml</dc:format>
        <dc:type
           rdf:resource="http://purl.org/dc/dcmitype/StillImage" />
        <dc:title></dc:title>
      </cc:Work>
    </rdf:RDF>
  </metadata>
  <g
     inkscape:label="Layer 1"
     inkscape:groupmode="layer"
     id="layer1"
     transform="translate(0,-197.00002)">
    <path
       style="opacity:1;fill:#020900;fill-opacity:1;stroke:none;stroke-width:1;stroke-linecap:butt;stroke-linejoin:round;stroke-miterlimit:4;stroke-dasharray:none;stroke-opacity:1"
       id="path1587"
       d="m 18.033201,232.84665 c -0.08466,0.0125 -0.168358,0.0309 -0.252602,0.0459 -0.06488,0.0172 -0.126058,0.0458 -0.185913,0.0757 -0.0043,0.003 -0.0088,-0.005 -0.01323,-0.007 0.161655,-0.15184 0.317392,-0.30986 0.474641,-0.46623 0.24383,-0.24517 0.48891,-0.48909 0.735037,-0.73196 0.329065,-0.32776 0.671008,-0.64204 1.014988,-0.95397 0.360303,-0.32944 0.718861,-0.66078 1.079245,-0.99014 0.397397,-0.36276 0.789516,-0.73124 1.182158,-1.09912 0.451739,-0.42685 0.910351,-0.84623 1.375215,-1.25872 0.498989,-0.44095 1.007526,-0.87089 1.512965,-1.30439 0.491667,-0.42424 0.975272,-0.85774 1.455291,-1.29508 0.470786,-0.43235 0.925264,-0.88199 1.380027,-1.33103 0.500716,-0.4941 0.990785,-0.99878 1.483259,-1.50105 0.54057,-0.55305 1.088832,-1.09848 1.638737,-1.64222 0.527238,-0.51566 1.045607,-1.04024 1.566719,-1.56206 0.502635,-0.49606 1.001932,-0.99538 1.496997,-1.49899 0.44324,-0.45388 0.885036,-0.90915 1.325634,-1.3656 0.378894,-0.39346 0.758544,-0.78619 1.138457,-1.17867 0.321715,-0.32821 0.639276,-0.66043 0.956662,-0.99281 0.281535,-0.29453 0.563621,-0.58853 0.845645,-0.88259 0.225682,-0.2353 0.451374,-0.47059 0.677066,-0.70589 0.179888,-0.18754 0.359773,-0.37507 0.539658,-0.56261 0.179726,-0.19075 0.363527,-0.37736 0.552772,-0.55865 0.300721,-0.29308 0.638855,-0.54022 0.991553,-0.76614 0.425323,-0.26702 0.892442,-0.44702 1.372312,-0.58732 0.457009,-0.12686 0.928481,-0.17169 1.40072,-0.18591 0.497684,-0.0105 0.990369,0.0594 1.477232,0.1551 0.393094,0.0829 0.779431,0.1938 1.164127,0.30871 0.419288,0.12394 0.831503,0.26969 1.241716,0.42053 0.430241,0.16028 0.858853,0.32491 1.287349,0.4898 0.53993,0.20627 1.071589,0.43287 1.599914,0.667 0.600884,0.26571 1.19004,0.55652 1.774854,0.85562 0.634352,0.32501 1.262719,0.66145 1.886228,1.00676 0.68825,0.3859 1.368004,0.78666 2.049303,1.18462 0.711359,0.41372 1.422496,0.82777 2.130685,1.2469 0.733867,0.43296 1.455417,0.88616 2.173136,1.34524 0.684536,0.44067 1.361969,0.89223 2.040149,1.34258 0.66524,0.43762 1.321428,0.88869 1.979624,1.33676 0.617593,0.42094 1.236128,0.84048 1.85756,1.25573 0.63446,0.42071 1.270418,0.8391 1.900544,1.26629 0.657812,0.44812 1.308682,0.90624 1.953085,1.3734 0.616395,0.45301 1.225865,0.91535 1.836561,1.37598 0.554638,0.41823 1.107969,0.83819 1.659906,1.25997 0.461264,0.35073 0.92412,0.69936 1.385612,1.04978 0.37991,0.28911 0.760105,0.57784 1.138296,0.86919 0.292608,0.22701 0.586295,0.45262 0.881284,0.67652 0.237366,0.18059 0.476105,0.35935 0.714875,0.53807 0.195639,0.14638 0.391322,0.2927 0.587002,0.43902 0.156316,0.11689 0.312635,0.23378 0.46895,0.35066 0.124598,0.0932 0.249196,0.18634 0.373793,0.27951 0.124913,0.0936 0.248095,0.18944 0.370576,0.28619 0.380328,0.28258 0.681431,0.64423 0.95628,1.02601 0.276307,0.40586 0.462024,0.85967 0.614162,1.32372 0.126196,0.38689 0.203795,0.78628 0.264562,1.18791 0.04642,0.32396 0.07906,0.64963 0.108813,0.97548 0.02994,0.33217 0.05158,0.66499 0.07151,0.99789 0.02326,0.38165 0.03869,0.76369 0.05192,1.1458 0.01455,0.43829 0.02506,0.87671 0.03504,1.31513 0.01082,0.4844 0.01926,0.96886 0.02726,1.45332 0.0082,0.50296 0.01513,1.00595 0.02156,1.50894 0.0068,0.53704 0.01222,1.0741 0.01717,1.61115 0.0054,0.59846 0.0097,1.19693 0.01365,1.7954 0.0021,0.65124 0.0097,1.30242 0.01992,1.95357 0.01474,0.72775 0.03081,1.45547 0.04515,2.18323 0.01508,0.76992 0.0278,1.53989 0.03972,2.30987 0.01204,0.78525 0.02215,1.57053 0.03168,2.35581 0.0094,0.78623 0.01754,1.57247 0.02521,2.35871 0.0074,0.76221 0.01389,1.52443 0.02008,2.28665 0.0064,0.71442 0.0097,1.42886 0.01712,2.14327 0.0071,0.69377 0.01789,1.38748 0.03151,2.08114 0.01397,0.70143 0.02693,1.40288 0.04307,2.10426 0.01553,0.66064 0.03083,1.32129 0.04563,1.98195 0.01381,0.60891 0.02595,1.21785 0.03723,1.82681 0.01061,0.58258 0.02013,1.16518 0.0296,1.74779 0.008,0.49165 0.01577,0.98331 0.02352,1.47496 0.0064,0.4044 0.01257,0.80879 0.01876,1.21319 0.005,0.32646 0.0099,0.65291 0.01492,0.97937 0.0029,0.24974 0.0088,0.49941 0.01492,0.74909 0.0051,0.2065 0.01035,0.413 0.01558,0.6195 0.0042,0.16533 0.0084,0.33065 0.01257,0.49597 0.01603,0.29143 -2.04e-4,0.58161 -0.02577,0.87197 -0.08668,0.82739 -0.464544,1.53374 -0.970846,2.17621 -0.440613,0.51218 -1.004953,0.86679 -1.611931,1.14651 -0.443164,0.19399 -0.912189,0.31318 -1.383835,0.41329 -0.490852,0.0989 -0.989105,0.15085 -1.487339,0.19474 -0.542769,0.0443 -1.086816,0.0695 -1.630818,0.0928 -0.611499,0.0252 -1.223227,0.0442 -1.83498,0.062 -0.700149,0.0208 -1.400638,0.0202 -2.10099,0.0146 -0.713767,-0.008 -1.427337,-0.0266 -2.140919,-0.0438 -0.710602,-0.0175 -1.421278,-0.0318 -2.13193,-0.047 -0.716979,-0.0157 -1.433994,-0.0298 -2.151026,-0.0429 -0.738285,-0.0134 -1.47661,-0.0244 -2.214946,-0.0347 -0.776777,-0.0107 -1.55358,-0.0195 -2.330386,-0.0277 -0.811403,-0.008 -1.622817,-0.0155 -2.434236,-0.0221 -0.831511,-0.007 -1.663028,-0.0123 -2.494549,-0.0176 -0.833909,-0.005 -1.667812,-0.0109 -2.501734,-0.0129 -0.830876,-10e-4 -1.661715,0.009 -2.492539,0.017 -0.857017,0.008 -1.714045,0.0158 -2.571075,0.0227 -0.884304,0.007 -1.768605,0.0136 -2.652892,0.0221 -0.899499,0.009 -1.799003,0.0178 -2.698512,0.0258 -0.899631,0.008 -1.799281,0.0139 -2.698904,0.023 -0.899517,0.01 -1.798957,0.025 -2.698379,0.0411 -0.883002,0.0182 -1.76598,0.0376 -2.648985,0.0557 -0.81375,0.0124 -1.627211,0.034 -2.440371,0.0671 -0.776936,0.0345 -1.553816,0.0703 -2.330714,0.10575 -0.726245,0.0331 -1.4526,0.0637 -2.178974,0.0937 -0.62384,0.0243 -1.247536,0.0519 -1.871227,0.0797 -0.553542,0.0247 -1.107142,0.0482 -1.660762,0.0711 -0.472363,0.0195 -0.944745,0.0386 -1.417157,0.0569 -0.434202,0.0169 -0.868472,0.0319 -1.302776,0.0459 -0.415737,0.013 -0.831514,0.0248 -1.247294,0.0364 -0.362087,0.01 -0.72419,0.0195 -1.086295,0.0288 -0.29731,0.008 -0.594621,0.0152 -0.891932,0.0228 -0.259291,0.007 -0.51864,0.0119 -0.778035,0.0107 -0.278512,0.004 -0.554037,-0.0265 -0.829257,-0.0654 -2.83218,-0.64231 -0.894545,-1.69403 -0.484339,-6.67165 2.1e-4,-0.003 0.48072,-0.14886 0.311313,-0.0919 -0.08419,0.0283 -0.170183,0.051 -0.255274,0.0765 -1.016074,0.39543 -1.820287,1.1788 -2.112835,2.2374 -0.02439,0.12082 0.003,-0.0955 0.0043,-0.10985 0.02282,-0.26126 0.03542,-0.52327 0.04798,-0.78517 0.01508,-0.38446 0.01059,-0.76933 0.0062,-1.15395 -0.01081,-0.56074 -0.02273,-1.12145 -0.03291,-1.68219 -0.012,-0.67697 -0.02146,-1.35398 -0.03044,-2.03099 -0.0094,-0.71395 -0.01705,-1.42792 -0.02425,-2.1419 -0.0064,-0.73921 -0.02433,-1.47825 -0.04159,-2.21726 -0.02274,-0.89194 -0.04155,-1.78396 -0.05817,-2.67603 -0.01833,-1.02849 -0.03191,-2.05704 -0.05154,-3.0855 -0.01717,-0.9338 -0.05742,-1.86687 -0.09821,-2.79985 -0.0419,-0.94636 -0.07879,-1.89292 -0.116057,-2.83946 -0.03496,-0.88575 -0.0659,-1.77165 -0.101815,-2.65737 -0.03417,-0.82365 -0.07983,-1.64676 -0.122313,-2.47001 -0.03996,-0.80881 -0.08153,-1.61753 -0.126181,-2.4261 -0.0401,-0.7177 -0.07965,-1.43544 -0.117722,-2.15326 -0.03364,-0.6304 -0.06375,-1.26097 -0.09538,-1.89147 -0.02764,-0.53231 -0.05945,-1.06439 -0.09049,-1.59651 -0.02579,-0.4428 -0.05162,-0.8856 -0.07733,-1.3284 -0.0206,-0.3552 -0.04115,-0.7104 -0.0617,-1.06561 -0.01679,-0.27362 -0.03509,-0.54715 -0.05321,-0.82068 -0.01495,-0.22543 -0.02994,-0.45086 -0.04492,-0.67628 -0.01195,-0.17985 -0.02391,-0.3597 -0.03587,-0.53955 -0.0095,-0.14336 -0.01906,-0.28671 -0.02859,-0.43006 -0.0076,-0.11425 -0.01519,-0.2285 -0.02278,-0.34276 -0.0061,-0.0911 -0.01211,-0.18212 -0.01816,-0.27319 -0.0048,-0.0726 -0.0096,-0.14515 -0.01447,-0.21773 -0.0038,-0.0579 -0.0077,-0.1157 -0.01154,-0.17354 -0.0031,-0.0461 -0.0061,-0.0922 -0.0092,-0.13832 -0.0024,-0.0368 -0.0049,-0.0735 -0.0073,-0.11025 0.01098,0.13244 0.0052,0.0763 0.01556,0.16855 -0.605576,-4.82646 6.220073,-5.68288 6.825649,-0.85641 v 0 c 0.01566,0.13383 0.0075,0.0567 0.02281,0.2316 0.0024,0.0367 0.0049,0.0735 0.0073,0.11024 0.0031,0.0461 0.0061,0.0922 0.0092,0.13832 0.0038,0.0578 0.0077,0.11569 0.01154,0.17354 0.0048,0.0726 0.0097,0.14516 0.01447,0.21774 0.0061,0.0911 0.01211,0.18212 0.01816,0.27319 0.0076,0.11425 0.01519,0.2285 0.02278,0.34276 0.0095,0.14335 0.01906,0.2867 0.02859,0.43005 0.01196,0.17986 0.02391,0.35972 0.03587,0.53959 0.01502,0.22589 0.03003,0.45179 0.04502,0.67769 0.01939,0.29266 0.03897,0.5853 0.05677,0.87807 0.02053,0.35478 0.04106,0.70956 0.06163,1.06434 0.02567,0.44215 0.05146,0.8843 0.07722,1.32645 0.03213,0.5508 0.06504,1.10157 0.09354,1.65257 0.03129,0.62393 0.0611,1.24793 0.09436,1.87175 0.0378,0.71284 0.0771,1.42559 0.116912,2.13831 0.0451,0.81683 0.08716,1.63382 0.127506,2.4509 0.04378,0.84852 0.09077,1.6969 0.125806,2.54585 0.036,0.88837 0.06713,1.77692 0.102133,2.66534 0.03688,0.93662 0.07337,1.87327 0.114822,2.80971 0.04324,0.98938 0.08536,1.97888 0.103519,2.96912 0.01961,1.02947 0.03335,2.05903 0.05159,3.08852 0.01641,0.88123 0.03501,1.76242 0.05749,2.64352 0.01797,0.76945 0.03645,1.53891 0.04312,2.30857 0.0071,0.70668 0.01472,1.41337 0.02399,2.12003 0.0088,0.66583 0.01812,1.33165 0.02991,1.99743 0.01046,0.57683 0.023,1.15361 0.03361,1.73044 0.0057,0.5206 0.0095,1.04152 -0.01379,1.5618 -0.01858,0.38345 -0.03835,0.76701 -0.07523,1.14921 -0.03432,0.32987 -0.07545,0.65958 -0.150342,0.98312 -0.312887,1.23794 -1.089316,2.21702 -2.311632,2.68657 -0.09971,0.0306 -0.199742,0.0602 -0.299133,0.0918 -0.0072,0.002 0.1833,-0.0508 0.183575,-0.0559 0.115986,-2.12134 0.331672,-4.24457 0.264842,-6.36803 -0.0026,-0.0815 -0.710066,-0.22713 -0.811338,-0.25016 -0.102892,-0.0138 -0.412729,-0.0454 -0.309252,-0.037 0.1859,0.002 0.371783,-0.005 0.557614,-0.009 0.296736,-0.008 0.593473,-0.0152 0.890208,-0.0228 0.357338,-0.009 0.714674,-0.0185 1.071994,-0.0284 0.406007,-0.0113 0.812012,-0.0228 1.217978,-0.0355 0.419201,-0.0135 0.838369,-0.028 1.257471,-0.0443 0.466267,-0.0181 0.932505,-0.0369 1.398724,-0.0562 0.546483,-0.0226 1.092947,-0.0458 1.639354,-0.0702 0.630983,-0.0281 1.261975,-0.056 1.893107,-0.0806 0.716785,-0.0297 1.433549,-0.0599 2.150207,-0.0925 0.78839,-0.0359 1.576758,-0.0723 2.365195,-0.10723 0.859113,-0.0347 1.718525,-0.0582 2.578254,-0.0713 0.888786,-0.0182 1.777539,-0.0378 2.666323,-0.0561 0.917392,-0.0165 1.834806,-0.0319 2.752296,-0.0419 0.902396,-0.009 1.804821,-0.0151 2.707227,-0.0231 0.898001,-0.008 1.795997,-0.0166 2.693988,-0.0257 0.887785,-0.009 1.775581,-0.0156 2.663383,-0.0222 0.853225,-0.007 1.706448,-0.0142 2.559658,-0.0226 0.858647,-0.008 1.717307,-0.0186 2.576007,-0.0173 0.843008,0.002 1.685999,0.008 2.528994,0.0131 0.83553,0.005 1.671058,0.011 2.50658,0.0177 0.817012,0.007 1.634019,0.0137 2.451015,0.0223 0.784493,0.008 1.568979,0.0172 2.35344,0.028 0.748281,0.0104 1.496552,0.0216 2.244786,0.0352 0.724268,0.0132 1.448514,0.0275 2.172729,0.0434 0.716809,0.0154 1.433639,0.0298 2.150396,0.0474 0.676645,0.0163 1.353277,0.0345 2.030095,0.042 0.615463,0.005 1.231053,0.006 1.846347,-0.012 0.580691,-0.0169 1.161365,-0.0348 1.741821,-0.0587 0.442957,-0.0188 0.885975,-0.0385 1.328039,-0.0732 0.229438,-0.0195 0.459046,-0.0397 0.686376,-0.0773 0.108411,-0.0204 0.143653,-0.0306 0.01431,0.0241 -0.31646,0.15968 -0.595833,0.37824 -0.824132,0.6508 -0.348133,0.45935 -0.609949,0.9619 -0.661998,1.546 -0.01757,0.25416 -0.0078,0.42175 -0.01627,0.0813 -0.0042,-0.16537 -0.0084,-0.33074 -0.01257,-0.49611 -0.0053,-0.20841 -0.01056,-0.41682 -0.01572,-0.62523 -0.0066,-0.27085 -0.01296,-0.54171 -0.01619,-0.81262 -0.005,-0.32638 -0.0099,-0.65275 -0.01492,-0.97913 -0.0062,-0.40328 -0.01233,-0.80655 -0.01871,-1.20982 -0.0077,-0.49047 -0.0155,-0.98093 -0.02347,-1.47139 -0.0094,-0.57746 -0.01881,-1.15492 -0.02934,-1.73236 -0.01111,-0.60008 -0.02307,-1.20013 -0.03668,-1.80016 -0.01476,-0.65924 -0.03002,-1.31848 -0.04553,-1.9777 -0.01632,-0.70912 -0.02947,-1.41831 -0.04357,-2.12748 -0.01402,-0.71488 -0.02519,-1.42982 -0.03247,-2.14481 -0.0074,-0.71955 -0.0109,-1.43913 -0.01725,-2.15869 -0.0062,-0.75848 -0.01265,-1.51696 -0.01998,-2.27543 -0.0076,-0.78079 -0.01566,-1.56158 -0.02503,-2.34236 -0.0094,-0.77763 -0.01945,-1.55525 -0.03136,-2.33284 -0.01177,-0.76029 -0.02432,-1.52056 -0.03921,-2.2808 -0.01453,-0.73715 -0.03092,-1.47426 -0.04565,-2.21141 -0.01048,-0.67172 -0.01834,-1.34347 -0.02058,-2.01527 -0.0039,-0.59251 -0.0081,-1.18502 -0.01352,-1.77752 -0.0049,-0.52893 -0.01019,-1.05786 -0.01691,-1.58678 -0.0063,-0.49444 -0.01312,-0.98888 -0.02119,-1.4833 -0.0078,-0.47023 -0.01593,-0.94045 -0.02643,-1.41062 -0.0093,-0.41135 -0.01916,-0.82269 -0.03271,-1.23393 -0.01117,-0.3246 -0.02397,-0.64915 -0.0438,-0.97336 -0.01558,-0.2619 -0.03221,-0.52377 -0.0555,-0.78512 -0.01797,-0.19889 -0.03687,-0.39774 -0.06361,-0.59568 -0.0078,-0.0592 -5.3e-4,-0.0497 -0.01119,-0.0953 0.06671,0.14893 0.139533,0.29584 0.235654,0.42875 0.118967,0.15851 0.382013,0.46601 0.481382,0.52398 -0.07452,-0.0589 -0.149288,-0.11747 -0.225266,-0.17449 -0.124597,-0.0932 -0.249195,-0.18634 -0.373793,-0.2795 -0.156339,-0.11691 -0.312676,-0.23381 -0.469016,-0.35071 -0.196546,-0.14698 -0.393097,-0.29394 -0.5896,-0.44097 -0.251148,-0.18799 -0.502235,-0.37606 -0.751919,-0.56599 -0.308137,-0.23391 -0.615003,-0.46948 -0.92066,-0.70663 -0.365385,-0.28158 -0.73288,-0.56041 -1.099916,-0.83983 -0.467079,-0.3547 -0.935617,-0.70748 -1.402394,-1.06257 -0.540446,-0.41304 -1.082302,-0.82423 -1.625399,-1.23377 -0.576456,-0.43481 -1.151798,-0.87117 -1.733127,-1.29947 C 65.668,228.93825 65.076,228.5223 64.478285,228.1146 c -0.616958,-0.41863 -1.240399,-0.82749 -1.861455,-1.23998 -0.637789,-0.42624 -1.272717,-0.85671 -1.906569,-1.28878 -0.636394,-0.43325 -1.270741,-0.86956 -1.913993,-1.29263 -0.645613,-0.42874 -1.290468,-0.85871 -1.941923,-1.27855 -0.650528,-0.4163 -1.304382,-0.82752 -1.969656,-1.21999 -0.696799,-0.41245 -1.396645,-0.81967 -2.09655,-1.22682 -0.636591,-0.37185 -1.271686,-0.7464 -1.914303,-1.1078 -0.557329,-0.30916 -1.119508,-0.60947 -1.6866,-0.90038 -0.471019,-0.24148 -0.945443,-0.47649 -1.429575,-0.69078 -0.422865,-0.18788 -0.84835,-0.36982 -1.280737,-0.53488 -0.39742,-0.15294 -0.794946,-0.30565 -1.193882,-0.45461 -0.277085,-0.10222 -0.555009,-0.20254 -0.838449,-0.28602 -0.186954,-0.0562 -0.374287,-0.11155 -0.563962,-0.15799 -0.07555,-0.022 5.29e-4,-0.0104 0.03319,-0.0179 0.09754,-0.012 0.194217,-0.0288 0.288036,-0.0593 0.14578,-0.0482 0.288935,-0.10552 0.416716,-0.19214 0.01172,-0.008 0.203888,-0.14879 0.137247,-0.10454 -0.115713,0.10751 -0.221228,0.22521 -0.33148,0.33819 -0.179883,0.18754 -0.359767,0.37508 -0.53965,0.56261 -0.225589,0.23519 -0.45118,0.47038 -0.676762,0.70557 -0.278553,0.29044 -0.557167,0.58083 -0.835244,0.87172 -0.328184,0.34369 -0.656574,0.68718 -0.989166,1.02662 -0.37768,0.39017 -0.755094,0.78059 -1.131753,1.17174 -0.455139,0.4715 -0.911513,0.9418 -1.369454,1.41058 -0.507741,0.51647 -1.019553,1.02883 -1.535136,1.53748 -0.531339,0.53201 -1.0599,1.06682 -1.597425,1.59261 -0.524666,0.51877 -1.047877,1.03905 -1.563589,1.56676 -0.518496,0.5288 -1.034645,1.05996 -1.561957,1.58002 -0.520534,0.51392 -1.041488,1.02774 -1.581127,1.52174 -0.530748,0.48325 -1.065313,0.96242 -1.609084,1.43101 -0.476674,0.4088 -0.956289,0.81422 -1.427234,1.22963 -0.418126,0.37047 -0.829765,0.7481 -1.235879,1.13171 -0.413388,0.38731 -0.826316,0.77515 -1.244739,1.15703 -0.367182,0.33557 -0.732379,0.67329 -1.099673,1.00874 -0.272238,0.24672 -0.543661,0.49446 -0.803713,0.75413 -0.23982,0.23663 -0.478489,0.4744 -0.716122,0.71323 -0.256706,0.25526 -0.511347,0.51301 -0.781989,0.7537 -0.336047,0.29149 -0.686437,0.56715 -1.073208,0.78928 -0.356314,0.20162 -0.723745,0.3838 -1.114649,0.50924 -0.298618,0.0969 -0.60105,0.18395 -0.912528,0.22897 -4.813555,0.70083 -5.804672,-6.10657 -0.991117,-6.80739 z"
       inkscape:connector-curvature="0" />
  </g>
</svg>
