<svg viewBox="0 0 100 100"><path style="opacity:1;fill:#020900;fill-opacity:1;stroke:none;stroke-width:1;stroke-linecap:butt;stroke-linejoin:round;stroke-miterlimit:4;stroke-dasharray:none;stroke-opacity:1" d="M18.033 232.847q-.126.02-.252.046a1 1 0 0 0-.186.075c-.005.003-.01-.005-.014-.007.162-.152.318-.31.475-.466q.366-.368.735-.732c.33-.328.671-.642 1.015-.954l1.08-.99q.594-.546 1.182-1.1.677-.639 1.375-1.258c.499-.44 1.007-.87 1.513-1.304q.736-.639 1.455-1.295c.47-.433.925-.882 1.38-1.331.5-.494.99-1 1.483-1.501.54-.553 1.09-1.099 1.639-1.643.527-.515 1.046-1.04 1.567-1.562a140 140 0 0 0 2.822-2.864l1.139-1.179q.483-.493.956-.993l.846-.882.677-.706.54-.563q.269-.286.553-.559c.3-.293.638-.54.991-.766.426-.267.893-.447 1.372-.587a6 6 0 0 1 1.401-.186c.498-.01.99.06 1.477.155.394.083.78.194 1.165.309.419.124.831.27 1.241.42q.646.241 1.288.49a35 35 0 0 1 3.375 1.523q.95.488 1.886 1.007c.688.386 1.368.786 2.049 1.184q1.067.62 2.13 1.247c.734.433 1.456.886 2.174 1.345.684.441 1.362.893 2.04 1.343.665.438 1.321.889 1.98 1.337q.926.631 1.857 1.255c.635.421 1.27.84 1.9 1.267q.988.672 1.954 1.373c.616.453 1.226.915 1.836 1.376q.832.627 1.66 1.26l1.386 1.05q.57.433 1.138.87a105 105 0 0 0 1.596 1.214l.587.439.47.35.373.28q.187.14.37.286c.38.283.682.644.957 1.026.276.406.462.86.614 1.324.126.387.204.786.265 1.188.046.324.079.65.108.975q.044.498.072.998.034.573.052 1.146.02.657.035 1.315a250 250 0 0 1 .049 2.962 468 468 0 0 1 .03 3.407q.005.977.02 1.953l.046 2.184a563 563 0 0 1 .071 4.665 1072 1072 0 0 1 .045 4.646l.017 2.143q.01 1.04.032 2.081.02 1.052.043 2.104l.046 1.982a440 440 0 0 1 .066 3.575l.024 1.475.019 1.213.015.98q.004.375.015.748l.015.62.013.496c.016.291 0 .582-.026.872-.087.827-.465 1.534-.97 2.176-.442.512-1.006.867-1.613 1.147-.443.194-.912.313-1.384.413-.49.099-.989.15-1.487.195-.543.044-1.087.07-1.63.092q-.918.038-1.836.062c-.7.021-1.4.02-2.1.015-.715-.008-1.428-.027-2.142-.044q-1.065-.025-2.132-.047a593 593 0 0 0-4.366-.077 724 724 0 0 0-4.764-.05l-2.495-.018q-1.251-.008-2.502-.013c-.83 0-1.661.01-2.492.017l-2.571.023-2.653.022-2.699.026q-1.35.01-2.698.023-1.35.016-2.699.041l-2.649.056q-1.22.018-2.44.067-1.166.051-2.33.106-1.09.049-2.18.093-.935.038-1.871.08a511 511 0 0 1-4.38.174 371 371 0 0 1-2.334.065l-.892.023q-.39.012-.778.01a5.4 5.4 0 0 1-.83-.065c-2.832-.642-.894-1.694-.484-6.671 0-.003.48-.15.311-.092-.084.028-.17.05-.255.076-1.016.396-1.82 1.179-2.113 2.238-.024.12.003-.096.005-.11.022-.262.035-.524.048-.785.015-.385.01-.77.006-1.154l-.033-1.683a455 455 0 0 1-.055-4.173c-.006-.739-.024-1.478-.041-2.217q-.034-1.338-.059-2.676c-.018-1.028-.032-2.057-.051-3.085-.017-.934-.058-1.867-.098-2.8q-.062-1.42-.116-2.84c-.035-.885-.066-1.771-.102-2.657-.034-.824-.08-1.647-.123-2.47a419 419 0 0 0-.126-2.426q-.06-1.077-.117-2.153-.05-.945-.096-1.892c-.027-.532-.06-1.064-.09-1.596l-.078-1.329-.061-1.065-.054-.821-.045-.676-.035-.54-.029-.43-.023-.343-.018-.273-.014-.218-.012-.173-.01-.138-.006-.11c.01.132.005.076.015.168-.605-4.827 6.22-5.683 6.826-.857.015.134.007.057.023.232l.007.11.01.139.01.173.015.218.018.273.023.343.029.43.036.54.045.677q.03.439.056.878l.062 1.065.077 1.326q.05.826.094 1.653.045.936.094 1.871l.117 2.139q.067 1.224.127 2.45c.044.85.091 1.697.126 2.546.036.889.067 1.777.102 2.666q.055 1.404.115 2.81c.043.989.086 1.978.104 2.969.02 1.029.033 2.059.051 3.088q.024 1.322.058 2.644c.018.77.036 1.539.043 2.308a691 691 0 0 0 .054 4.118l.033 1.73c.006.52.01 1.042-.013 1.562-.019.383-.039.767-.076 1.15a8 8 0 0 1-.15.982c-.313 1.238-1.09 2.217-2.312 2.687q-.15.045-.299.092c-.007.002.184-.051.184-.056.116-2.122.332-4.245.265-6.368-.003-.082-.71-.227-.812-.25-.102-.014-.412-.046-.309-.038.186.002.372-.005.558-.009l.89-.022a426 426 0 0 0 2.29-.064q.63-.02 1.257-.045a544 544 0 0 0 3.039-.126 342 342 0 0 1 1.893-.08q1.074-.044 2.15-.093l2.365-.107q1.29-.052 2.578-.072l2.667-.056q1.375-.026 2.752-.042l2.707-.023 2.694-.025q1.332-.014 2.663-.023l2.56-.022c.859-.008 1.717-.019 2.576-.017q1.264.004 2.53.013 1.252.007 2.506.017 1.226.01 2.45.023a659 659 0 0 1 4.599.063q1.086.02 2.173.043 1.075.022 2.15.048c.677.016 1.353.034 2.03.042a49 49 0 0 0 1.847-.012q.87-.024 1.741-.059c.443-.019.886-.039 1.328-.073.23-.02.46-.04.687-.078.108-.02.143-.03.014.025-.316.16-.596.378-.824.65-.348.46-.61.962-.662 1.546-.018.255-.008.422-.016.082l-.029-1.122q-.01-.405-.016-.812l-.015-.98-.018-1.21-.053-3.203q-.016-.9-.037-1.8l-.045-1.978q-.024-1.063-.044-2.127-.021-1.072-.032-2.145c-.008-.72-.011-1.44-.018-2.159a1527 1527 0 0 0-.045-4.618 723 723 0 0 0-.07-4.613l-.046-2.212q-.016-1.007-.02-2.015a693 693 0 0 0-.031-3.364 414 414 0 0 0-.048-2.894q-.013-.618-.032-1.234a37 37 0 0 0-.1-1.759 14 14 0 0 0-.063-.595c-.008-.06 0-.05-.011-.096.066.15.14.296.235.43.12.158.382.465.482.523q-.112-.088-.226-.174l-.373-.28-.47-.35-.59-.441a122 122 0 0 1-1.672-1.273q-.549-.422-1.1-.84-.701-.53-1.402-1.063-.81-.62-1.625-1.233c-.577-.435-1.152-.871-1.733-1.3a74 74 0 0 0-1.776-1.248c-.617-.419-1.24-.828-1.861-1.24q-.956-.64-1.907-1.29c-.636-.432-1.27-.869-1.914-1.292-.645-.429-1.29-.859-1.942-1.278a64 64 0 0 0-1.97-1.22q-1.045-.618-2.096-1.227c-.636-.372-1.272-.747-1.914-1.108q-.836-.465-1.687-.9a28 28 0 0 0-2.71-1.226q-.596-.23-1.194-.455a13 13 0 0 0-1.402-.444c-.076-.022 0-.01.033-.018a1.7 1.7 0 0 0 .705-.251c.011-.008.203-.149.137-.104-.116.107-.221.225-.332.338l-.54.562-.676.706q-.418.435-.835.872-.491.516-.99 1.026-.566.584-1.131 1.172-.683.707-1.37 1.41-.762.776-1.535 1.538c-.531.532-1.06 1.067-1.597 1.593q-.789.776-1.564 1.566c-.518.53-1.034 1.06-1.562 1.58a58 58 0 0 1-1.58 1.522c-.532.483-1.066.963-1.61 1.431-.477.409-.956.814-1.427 1.23q-.627.556-1.236 1.131c-.414.388-.826.776-1.245 1.158l-1.1 1.008c-.272.247-.543.495-.803.754q-.36.356-.716.714c-.257.255-.512.513-.782.753a7 7 0 0 1-1.074.79 6 6 0 0 1-2.027.738c-4.813.7-5.804-6.107-.99-6.808z" transform="translate(0 -197)"/></svg>