<svg viewBox="0 0 100 100"><path style="opacity:1;fill:#020900;fill-opacity:1;stroke:none;stroke-width:1;stroke-linecap:butt;stroke-linejoin:round;stroke-miterlimit:4;stroke-dasharray:none;stroke-opacity:1" d="M31.234 277.852a10 10 0 0 1 .03-1.186c.024-.276.061-.55.1-.825q.056-.384.106-.768.05-.392.084-.786c.023-.241.02-.483.015-.726a32 32 0 0 0-.07-1.207 36 36 0 0 0-.137-1.505c-.07-.593-.147-1.185-.218-1.777a67 67 0 0 1-.211-2.088q-.086-1.054-.18-2.109-.103-1.076-.204-2.153-.108-1.167-.197-2.335-.097-1.281-.171-2.564-.077-1.377-.157-2.755-.085-1.382-.158-2.765a268 268 0 0 1-.13-2.831q-.055-1.398-.102-2.797c-.032-.933-.056-1.866-.083-2.8l-.087-2.871q-.041-1.492-.075-2.983a1106 1106 0 0 1-.146-7.698q-.017-1.041-.044-2.081l-.075-3.368-.027-1.248-.004-.164c-.113-4.863 6.765-5.022 6.877-.16l.004.175.027 1.248.076 3.355c.016.712.034 1.424.045 2.137a907 907 0 0 0 .085 4.81q.028 1.417.06 2.836.032 1.47.073 2.941l.087 2.874c.027.922.05 1.844.082 2.766q.045 1.373.1 2.745a239 239 0 0 0 .282 5.476q.08 1.377.157 2.756a133 133 0 0 0 .351 4.663l.203 2.162q.098 1.065.183 2.13c.056.627.115 1.254.19 1.879.072.61.151 1.219.224 1.829q.099.89.162 1.782c.037.52.072 1.039.086 1.559.009.494.005.989-.042 1.481q-.046.524-.112 1.043-.055.428-.118.853c-.021.15-.043.3-.057.452-.007.065-.007.13-.01.196q0 .097.002.193c.148 4.862-6.728 5.071-6.876.21m28.619-.387a21 21 0 0 0 .025-.686c.007-.307.001-.614-.007-.92-.014-.45-.042-.9-.075-1.35-.045-.576-.107-1.151-.168-1.727q-.11-1.03-.226-2.062-.122-1.097-.227-2.195a134 134 0 0 1-.192-2.277q-.091-1.203-.178-2.408-.091-1.332-.194-2.662-.116-1.455-.248-2.91c-.096-1.05-.202-2.1-.306-3.15q-.16-1.601-.317-3.203-.156-1.618-.293-3.237-.14-1.623-.277-3.246-.129-1.578-.256-3.158-.12-1.443-.224-2.888a291 291 0 0 1-.322-5.198 369 369 0 0 1-.205-4.211 483 483 0 0 1-.129-3.175q-.024-.624-.046-1.25l-.037-1.106q-.018-.501-.025-1.002a47 47 0 0 1 .017-1.91l.022-.725.017-.586.014-.467.011-.373.008-.23c.218-4.86 7.09-4.552 6.872.308 0 .035-.003.086-.004.125l-.01.373-.015.468-.017.586-.021.713q-.011.385-.015.77c-.003.28-.006.562 0 .843q.006.442.022.884a619 619 0 0 0 .08 2.311l.129 3.141a466 466 0 0 0 .2 4.139 308 308 0 0 0 .315 5.075q.102 1.413.219 2.826l.255 3.14q.136 1.615.275 3.23c.092 1.055.184 2.11.286 3.165q.156 1.594.317 3.189c.106 1.07.213 2.14.31 3.212.09 1 .179 2 .257 3q.104 1.348.196 2.695.085 1.185.176 2.37c.056.718.113 1.436.18 2.152q.102 1.052.218 2.102c.076.697.155 1.393.229 2.09.069.65.138 1.298.188 1.949.04.559.075 1.118.09 1.678.011.42.018.84.008 1.26q-.01.414-.031.827c-.014.23-.03.458-.064.686-.704 4.813-7.51 3.818-6.807-.995" transform="translate(0 -197)"/></svg>