<?xml version="1.0" encoding="UTF-8" standalone="no"?>
<!-- Created with Inkscape (http://www.inkscape.org/) -->

<svg
   xmlns:dc="http://purl.org/dc/elements/1.1/"
   xmlns:cc="http://creativecommons.org/ns#"
   xmlns:rdf="http://www.w3.org/1999/02/22-rdf-syntax-ns#"
   xmlns:svg="http://www.w3.org/2000/svg"
   xmlns="http://www.w3.org/2000/svg"
   xmlns:sodipodi="http://sodipodi.sourceforge.net/DTD/sodipodi-0.dtd"
   xmlns:inkscape="http://www.inkscape.org/namespaces/inkscape"
   width="10cm"
   height="10cm"
   viewBox="0 0 100 99.999997"
   version="1.1"
   id="svg8"
   sodipodi:docname="tu.svg"
   inkscape:version="0.92.3 (2405546, 2018-03-11)">
  <defs
     id="defs2" />
  <sodipodi:namedview
     id="base"
     pagecolor="#ffffff"
     bordercolor="#666666"
     borderopacity="1.0"
     inkscape:pageopacity="0.0"
     inkscape:pageshadow="2"
     inkscape:zoom="1"
     inkscape:cx="175.50186"
     inkscape:cy="186.50542"
     inkscape:document-units="cm"
     inkscape:current-layer="layer1"
     showgrid="true"
     units="cm"
     inkscape:window-width="881"
     inkscape:window-height="707"
     inkscape:window-x="971"
     inkscape:window-y="213"
     inkscape:window-maximized="0"
     inkscape:snap-nodes="false">
    <inkscape:grid
       type="xygrid"
       id="grid815"
       units="cm"
       spacingx="9.9999998"
       spacingy="9.9999998" />
  </sodipodi:namedview>
  <metadata
     id="metadata5">
    <rdf:RDF>
      <cc:Work
         rdf:about="">
        <dc:format>image/svg+xml</dc:format>
        <dc:type
           rdf:resource="http://purl.org/dc/dcmitype/StillImage" />
        <dc:title></dc:title>
      </cc:Work>
    </rdf:RDF>
  </metadata>
  <g
     inkscape:label="Layer 1"
     inkscape:groupmode="layer"
     id="layer1"
     transform="translate(0,-197.00002)">
    <path
       style="opacity:1;fill:#020900;fill-opacity:1;stroke:none;stroke-width:1;stroke-linecap:butt;stroke-linejoin:round;stroke-miterlimit:4;stroke-dasharray:none;stroke-opacity:1"
       id="path1589"
       d="m 31.234369,277.85209 c -0.0053,-0.1567 -0.0061,-0.31347 -0.0049,-0.47024 0.0024,-0.23899 0.01545,-0.47751 0.03489,-0.71567 0.02397,-0.27612 0.0606,-0.55088 0.09926,-0.82526 0.03701,-0.25586 0.07358,-0.51177 0.106408,-0.7682 0.0337,-0.26119 0.06009,-0.52321 0.08363,-0.78549 0.02339,-0.24134 0.0209,-0.48369 0.01537,-0.72574 -0.01355,-0.40307 -0.04126,-0.80548 -0.0699,-1.20771 -0.03511,-0.50248 -0.08037,-1.00406 -0.136797,-1.50458 -0.07126,-0.59273 -0.147349,-1.18487 -0.218276,-1.77765 -0.08284,-0.69458 -0.149215,-1.39094 -0.211066,-2.08766 -0.05804,-0.703 -0.116337,-1.40597 -0.18088,-2.10841 -0.06734,-0.71795 -0.135879,-1.43577 -0.202692,-2.15377 -0.07193,-0.7777 -0.137171,-1.556 -0.197779,-2.33467 -0.06588,-0.85396 -0.120848,-1.7087 -0.171037,-2.56371 -0.05144,-0.91839 -0.102817,-1.83678 -0.156739,-2.75503 -0.05607,-0.92167 -0.108971,-1.84352 -0.15798,-2.76559 -0.04977,-0.94325 -0.09064,-1.88693 -0.129506,-2.83068 -0.03801,-0.93204 -0.07123,-1.86426 -0.102684,-2.79654 -0.03187,-0.93329 -0.05614,-1.86681 -0.08286,-2.80025 -0.02848,-0.9571 -0.05885,-1.91413 -0.08664,-2.87125 -0.02861,-0.99437 -0.05249,-1.98887 -0.07522,-2.98339 -0.02146,-0.95223 -0.04085,-1.90451 -0.05985,-2.85679 -0.01688,-0.84626 -0.03254,-1.69254 -0.04768,-2.53884 -0.01378,-0.76743 -0.02619,-1.53488 -0.03803,-2.30235 -0.01037,-0.69373 -0.02763,-1.38734 -0.04392,-2.08095 -0.01442,-0.61172 -0.02836,-1.22345 -0.04212,-1.83518 -0.01146,-0.51077 -0.02262,-1.02154 -0.03372,-1.53232 -0.009,-0.41604 -0.01778,-0.83209 -0.02682,-1.24813 -0.0013,-0.0546 -0.0026,-0.10922 -0.0038,-0.16382 -0.112646,-4.863 6.764676,-5.02231 6.877322,-0.15931 v 0 c 0.0013,0.0579 0.0027,0.11577 0.004,0.17365 0.009,0.41612 0.01778,0.83224 0.02683,1.24836 0.01106,0.50898 0.0222,1.01795 0.03359,1.52692 0.01371,0.60942 0.0276,1.21884 0.04196,1.82824 0.01672,0.71215 0.03438,1.42429 0.045,2.13657 0.01175,0.7618 0.02408,1.52358 0.03775,2.28535 0.01506,0.84153 0.03061,1.68306 0.0474,2.52456 0.01886,0.94565 0.03812,1.89129 0.05943,2.83689 0.02238,0.98038 0.04593,1.96073 0.07412,2.94095 0.02781,0.95805 0.05824,1.91602 0.08672,2.87404 0.02638,0.92174 0.05033,1.84355 0.08176,2.76513 0.03087,0.91525 0.06347,1.83045 0.100772,2.74546 0.03772,0.9164 0.07735,1.83274 0.12564,2.74866 0.0483,0.90933 0.100561,1.81842 0.155837,2.72735 0.05393,0.9184 0.105379,1.83693 0.156769,2.75548 0.04756,0.81144 0.09968,1.62261 0.162126,2.43305 0.05783,0.74402 0.12024,1.48767 0.188902,2.23077 0.06707,0.72077 0.135913,1.44137 0.203461,2.16209 0.06512,0.70959 0.124505,1.41964 0.182809,2.12981 0.05553,0.62692 0.114924,1.25354 0.189299,1.87855 0.07289,0.60992 0.151844,1.21909 0.224229,1.82907 0.06603,0.59305 0.120938,1.18718 0.162213,1.7825 0.03679,0.519 0.0716,1.03832 0.08583,1.55852 0.009,0.49425 0.005,0.98898 -0.04195,1.48156 -0.03163,0.34822 -0.06692,0.69613 -0.1118,1.04293 -0.03667,0.28464 -0.07647,0.56884 -0.117816,0.85284 -0.02125,0.15029 -0.04274,0.30061 -0.05692,0.45178 -0.0075,0.0651 -0.0077,0.13056 -0.01005,0.19604 -5.29e-4,0.0643 -5.29e-4,0.12851 0.0021,0.19276 0.148,4.86205 -6.727981,5.07135 -6.875983,0.2093 z"
       inkscape:connector-curvature="0" />
    <path
       style="opacity:1;fill:#020900;fill-opacity:1;stroke:none;stroke-width:1;stroke-linecap:butt;stroke-linejoin:round;stroke-miterlimit:4;stroke-dasharray:none;stroke-opacity:1"
       id="path1591"
       d="m 59.853284,277.46566 c -0.01027,0.0614 0.0032,-0.095 0.0034,-0.099 0.01016,-0.19561 0.01667,-0.39138 0.02132,-0.58719 0.0065,-0.3065 0.0011,-0.61304 -0.0069,-0.91945 -0.01368,-0.4503 -0.04178,-0.89993 -0.07479,-1.34917 -0.04554,-0.57679 -0.107516,-1.15212 -0.168256,-1.72746 -0.0735,-0.68765 -0.150971,-1.37487 -0.22633,-2.06232 -0.08082,-0.73107 -0.156554,-1.46267 -0.226843,-2.19483 -0.07188,-0.75823 -0.132443,-1.51745 -0.191405,-2.27677 -0.06193,-0.80267 -0.121113,-1.60554 -0.178874,-2.40852 -0.06027,-0.88762 -0.125728,-1.77486 -0.193805,-2.6619 -0.07584,-0.97062 -0.160888,-1.94049 -0.248192,-2.91013 -0.09584,-1.05058 -0.201144,-2.10026 -0.305292,-3.15003 -0.106413,-1.06754 -0.213781,-2.13499 -0.317598,-3.20278 -0.104998,-1.07852 -0.199314,-2.15802 -0.292661,-3.23758 -0.09276,-1.08174 -0.185859,-2.16344 -0.276971,-3.24531 -0.08672,-1.05263 -0.170617,-2.10548 -0.256427,-3.15818 -0.07948,-0.96224 -0.153664,-1.9249 -0.22353,-2.88788 -0.06513,-0.90836 -0.123087,-1.8172 -0.179687,-2.72613 -0.05141,-0.82372 -0.09798,-1.64773 -0.142904,-2.47183 -0.04044,-0.74284 -0.0778,-1.48583 -0.113744,-2.22889 -0.03177,-0.66085 -0.0615,-1.32179 -0.0905,-1.98277 -0.02527,-0.57562 -0.04887,-1.15131 -0.07208,-1.72702 -0.01931,-0.48242 -0.0384,-0.96485 -0.05722,-1.44729 -0.01638,-0.41666 -0.03151,-0.83336 -0.046,-1.25009 -0.01262,-0.36878 -0.02455,-0.73757 -0.03651,-1.10637 -0.01209,-0.33399 -0.01995,-0.66809 -0.02508,-1.00226 -0.0066,-0.34189 -0.0035,-0.68382 2.64e-4,-1.02571 0.0026,-0.29473 0.0087,-0.58939 0.01685,-0.88401 0.0071,-0.2415 0.01426,-0.483 0.02141,-0.7245 0.0058,-0.19537 0.01156,-0.39075 0.01733,-0.58613 0.0046,-0.15585 0.0092,-0.3117 0.01384,-0.46754 0.0037,-0.12422 0.0074,-0.24844 0.01103,-0.37265 0.0021,-0.0769 0.0048,-0.15382 0.008,-0.2307 0.218186,-4.85941 7.090429,-4.55085 6.872243,0.30856 v 0 c -0.0013,0.0348 -0.0031,0.086 -0.0041,0.12549 -0.0037,0.12422 -0.0074,0.24844 -0.01103,0.37265 -0.0046,0.15585 -0.0092,0.3117 -0.01384,0.46755 -0.0058,0.19542 -0.01156,0.39085 -0.01733,0.58627 -0.007,0.23785 -0.01413,0.47569 -0.02109,0.71354 -0.0072,0.25649 -0.01249,0.51303 -0.01461,0.76962 -0.0032,0.28088 -0.0064,0.56179 -7.93e-4,0.84266 0.0044,0.29489 0.01154,0.58971 0.02228,0.88444 0.01177,0.36336 0.02355,0.72673 0.03596,1.09007 0.01415,0.40701 0.02894,0.814 0.04493,1.22094 0.01871,0.47945 0.03768,0.95888 0.05686,1.43831 0.02289,0.56757 0.04615,1.13513 0.07105,1.70262 0.02855,0.65071 0.05781,1.3014 0.08909,1.95199 0.03525,0.72904 0.07191,1.458 0.111577,2.18682 0.04395,0.80639 0.0895,1.6127 0.139803,2.41872 0.05513,0.88553 0.111559,1.77099 0.174961,2.65598 0.06835,0.94257 0.141023,1.88481 0.218813,2.82665 0.08531,1.04657 0.168744,2.09329 0.254902,3.13979 0.09067,1.07676 0.183357,2.15335 0.275662,3.22997 0.09124,1.05523 0.183343,2.1104 0.285959,3.1646 0.103351,1.06328 0.210336,2.1262 0.316267,3.18923 0.106209,1.07055 0.21355,2.14101 0.311192,3.21238 0.08999,0.99979 0.177642,1.9998 0.255736,3.0006 0.0689,0.89798 0.135239,1.79615 0.196244,2.6947 0.05682,0.79 0.115049,1.57989 0.175961,2.36958 0.05572,0.71779 0.112789,1.43551 0.180599,2.15229 0.06723,0.70126 0.139952,1.40197 0.217324,2.10219 0.07636,0.69661 0.154892,1.39298 0.229288,2.0898 0.06848,0.64888 0.13784,1.29781 0.187981,1.94842 0.04061,0.55883 0.07503,1.11817 0.09092,1.67833 0.01032,0.4201 0.01688,0.84038 0.007,1.26056 -0.007,0.27559 -0.01595,0.55115 -0.03137,0.82641 -0.01392,0.22918 -0.03035,0.45844 -0.06367,0.68577 -0.703646,4.81315 -7.51046,3.81804 -6.806811,-0.99511 z"
       inkscape:connector-curvature="0" />
  </g>
</svg>
