<svg viewBox="0 0 100 100"><path style="opacity:1;fill:#020900;fill-opacity:1;stroke:none;stroke-width:1;stroke-linecap:butt;stroke-linejoin:round;stroke-miterlimit:4;stroke-dasharray:none;stroke-opacity:1" d="M35.847 217.353a2.6 2.6 0 0 0-.245.425c-.09.213-.116.443-.144.67-.027.222.009.456.039.668a4 4 0 0 0-.157-.252 5 5 0 0 0-.373-.463 1.4 1.4 0 0 0-.289-.254 4 4 0 0 0-.457-.246 6 6 0 0 0-.737-.28 3.6 3.6 0 0 0-.716-.14 9 9 0 0 0-1.053-.032 6.6 6.6 0 0 0-1.065.108c-.311.053-.61.153-.901.271-.338.14-.658.317-.968.51a7 7 0 0 0-.95.734 10 10 0 0 0-.999 1.08c-.35.43-.646.9-.93 1.375a16 16 0 0 0-.837 1.673 16 16 0 0 0-.657 1.771 15 15 0 0 0-.395 1.687q-.136.77-.2 1.548c-.032.39-.048.78-.034 1.172q.013.343.092.676a.6.6 0 0 0 .101.226q.12.161.257.31c.165.17.351.317.537.463a15 15 0 0 0 1.949 1.2c.385.2.785.368 1.187.53.495.198 1 .369 1.509.53.618.193 1.248.343 1.879.486q1.187.268 2.385.487c.862.162 1.732.276 2.604.369.99.102 1.986.148 2.981.182a39 39 0 0 0 3.156-.039 42 42 0 0 0 3.19-.29 39 39 0 0 0 3.215-.571 43 43 0 0 0 3.16-.823c.979-.29 1.926-.672 2.864-1.073a55 55 0 0 0 2.83-1.341 45 45 0 0 0 2.432-1.308 16.5 16.5 0 0 0 1.812-1.245c.49-.375.935-.803 1.351-1.257.4-.448.748-.94 1.077-1.442.304-.466.56-.96.777-1.472.182-.426.29-.875.373-1.329.074-.425.1-.856.102-1.287a10 10 0 0 0-.085-1.243 5.5 5.5 0 0 0-.211-.919 3.5 3.5 0 0 0-.31-.65 4.3 4.3 0 0 0-.536-.702 6.3 6.3 0 0 0-.884-.756 9 9 0 0 0-1.324-.779 13 13 0 0 0-1.726-.678c-.628-.2-1.276-.325-1.927-.429a18 18 0 0 0-2.148-.178 16 16 0 0 0-2.029.083 14 14 0 0 0-1.805.315c-.544.13-1.07.318-1.587.529-.557.229-1.083.521-1.6.828a16 16 0 0 0-1.648 1.157c-.536.418-1.019.894-1.474 1.396-.508.57-.952 1.19-1.384 1.818a18 18 0 0 0-1.225 2.096 25 25 0 0 0-1.036 2.41c-.341.91-.613 1.842-.863 2.78a50 50 0 0 0-.723 3.293 84 84 0 0 0-.596 3.743 150 150 0 0 0-.489 3.95 101 101 0 0 0-.36 3.9 71 71 0 0 0-.122 7.383c.039 1.183.125 2.364.226 3.544a53 53 0 0 0 .405 3.357c.163 1.078.36 2.15.574 3.218.211 1.037.444 2.069.688 3.098a74 74 0 0 0 1.555 5.516q.404 1.25.84 2.491c.256.74.536 1.47.825 2.197.273.682.554 1.36.855 2.03.285.62.593 1.228.904 1.835q.418.811.888 1.594c.217.364.461.71.74 1.03q.21.254.501.403c.214.107.446.168.677.222.253.059.51.063.767.047a1.8 1.8 0 0 0 .582-.17c.306-.143.585-.334.851-.538.324-.253.591-.565.842-.888.34-.448.608-.943.86-1.445.32-.645.573-1.32.804-2.002.287-.857.498-1.736.696-2.616a39 39 0 0 0 .558-3.136c.157-1.153.238-2.313.301-3.473a77 77 0 0 0 .075-4.046c-.008-1.442-.06-2.884-.125-4.324-.071-1.48-.18-2.96-.3-4.437a154 154 0 0 0-.947-8.437 89 89 0 0 0-.643-3.84 78 78 0 0 0-1.558-6.538 45 45 0 0 0-.867-2.705 34 34 0 0 0-.922-2.261 31 31 0 0 0-.973-1.955 17 17 0 0 0-.949-1.555 15 15 0 0 0-.978-1.272 13.6 13.6 0 0 0-1.992-1.901 18 18 0 0 0-1.037-.718 6 6 0 0 0-.792-.446 7 7 0 0 0-.768-.266 8 8 0 0 0-.848-.198c-.338-.059-.676-.11-1.014-.163a67 67 0 0 0-1.623-.232l-.642-.08-.384-.047c-4.829-.583-4.005-7.412.825-6.83l.391.048a78 78 0 0 1 2.485.343c.41.063.821.126 1.23.2a15 15 0 0 1 1.6.383c.571.176 1.14.367 1.683.62.556.266 1.097.562 1.61.903.511.333 1.016.676 1.5 1.047.538.42 1.06.86 1.552 1.334a21 21 0 0 1 1.486 1.572c.5.597.982 1.209 1.418 1.855.47.7.918 1.415 1.314 2.16.421.79.827 1.587 1.192 2.404.402.906.784 1.821 1.119 2.755q.55 1.545 1 3.122a85 85 0 0 1 1.704 7.156c.257 1.375.496 2.754.692 4.14a161 161 0 0 1 .993 8.848c.126 1.558.24 3.118.315 4.68.07 1.538.124 3.077.132 4.617a84 84 0 0 1-.085 4.44c-.075 1.358-.173 2.714-.359 4.06a47 47 0 0 1-.659 3.686c-.253 1.122-.528 2.241-.898 3.332-.339.984-.71 1.958-1.18 2.89-.467.914-.976 1.81-1.615 2.62-.63.78-1.31 1.518-2.118 2.12-.768.562-1.574 1.075-2.464 1.427-.916.345-1.861.602-2.846.633-.908.022-1.815-.031-2.699-.259-.895-.236-1.773-.54-2.568-1.024-.803-.507-1.551-1.091-2.16-1.828a14.6 14.6 0 0 1-1.388-1.939c-.388-.65-.759-1.31-1.104-1.983a52 52 0 0 1-1.06-2.16q-.507-1.139-.968-2.299a58 58 0 0 1-.927-2.47q-.467-1.328-.9-2.667a81 81 0 0 1-.877-2.9 87 87 0 0 1-.82-3.129 107 107 0 0 1-.739-3.334 76 76 0 0 1-.632-3.552 60 60 0 0 1-.455-3.781 74 74 0 0 1-.248-3.92 78 78 0 0 1 .137-8.107c.104-1.388.228-2.774.385-4.158.156-1.383.32-2.766.513-4.145.193-1.361.397-2.721.652-4.073.243-1.267.505-2.532.834-3.78.313-1.162.652-2.317 1.078-3.443.403-1.058.835-2.105 1.35-3.114.507-.983 1.05-1.95 1.682-2.86.611-.883 1.246-1.753 1.968-2.55.717-.779 1.473-1.52 2.31-2.17.767-.599 1.556-1.17 2.395-1.666.814-.478 1.645-.928 2.521-1.282.85-.34 1.716-.644 2.61-.85a21 21 0 0 1 2.708-.462c.971-.09 1.945-.143 2.92-.109 1.004.037 2.008.106 3.001.263 1.003.164 2.001.366 2.97.681.916.303 1.82.644 2.685 1.076.817.416 1.617.868 2.353 1.418.684.517 1.346 1.066 1.916 1.71.507.581.983 1.19 1.363 1.865.363.651.687 1.325.904 2.04.203.683.37 1.376.457 2.084.085.713.14 1.43.134 2.15-.012.838-.068 1.676-.223 2.502-.186.95-.433 1.889-.822 2.78a17 17 0 0 1-1.347 2.524c-.54.811-1.11 1.603-1.77 2.322-.682.732-1.404 1.426-2.202 2.034-.82.628-1.662 1.228-2.557 1.745q-1.376.794-2.798 1.505a61 61 0 0 1-3.216 1.52c-1.182.502-2.376.978-3.61 1.34-1.215.36-2.439.69-3.678.955-1.26.268-2.526.51-3.804.67a50 50 0 0 1-3.72.335c-1.235.056-2.47.086-3.705.042a50 50 0 0 1-3.478-.217 40 40 0 0 1-3.123-.444 68 68 0 0 1-2.664-.545 31 31 0 0 1-2.424-.635 28 28 0 0 1-2.01-.71 20 20 0 0 1-1.795-.81 23 23 0 0 1-1.558-.888 17 17 0 0 1-1.48-1.02c-.504-.4-.995-.82-1.423-1.304-.444-.51-.86-1.045-1.18-1.644-.324-.631-.595-1.287-.742-1.985a11 11 0 0 1-.246-1.952 18 18 0 0 1 .058-1.957c.066-.733.155-1.464.288-2.188a21 21 0 0 1 .598-2.508c.27-.85.57-1.688.934-2.502a23 23 0 0 1 1.22-2.41c.466-.773.958-1.531 1.534-2.228.543-.653 1.108-1.288 1.746-1.85.607-.532 1.238-1.037 1.93-1.456.655-.395 1.33-.76 2.044-1.042.732-.28 1.48-.516 2.256-.644a14 14 0 0 1 2.105-.203c.666-.008 1.332.005 1.994.083.671.087 1.338.209 1.983.42a13 13 0 0 1 1.633.64c.55.27 1.09.565 1.583.932.478.366.934.76 1.328 1.217.359.411.702.836.998 1.295.32.505.613 1.028.821 1.59.24.675.41 1.371.37 2.094-.049.503-.127 1.001-.327 1.47a4.8 4.8 0 0 1-.512.983c-2.787 3.987-8.425.047-5.639-3.94z" transform="translate(0 -197)"/></svg>