<?xml version="1.0" encoding="UTF-8" standalone="no"?>
<!-- Created with Inkscape (http://www.inkscape.org/) -->

<svg
   xmlns:dc="http://purl.org/dc/elements/1.1/"
   xmlns:cc="http://creativecommons.org/ns#"
   xmlns:rdf="http://www.w3.org/1999/02/22-rdf-syntax-ns#"
   xmlns:svg="http://www.w3.org/2000/svg"
   xmlns="http://www.w3.org/2000/svg"
   xmlns:sodipodi="http://sodipodi.sourceforge.net/DTD/sodipodi-0.dtd"
   xmlns:inkscape="http://www.inkscape.org/namespaces/inkscape"
   width="10cm"
   height="10cm"
   viewBox="0 0 100 99.999997"
   version="1.1"
   id="svg8"
   sodipodi:docname="unpa.svg"
   inkscape:version="0.92.3 (2405546, 2018-03-11)">
  <defs
     id="defs2" />
  <sodipodi:namedview
     id="base"
     pagecolor="#ffffff"
     bordercolor="#666666"
     borderopacity="1.0"
     inkscape:pageopacity="0.0"
     inkscape:pageshadow="2"
     inkscape:zoom="1"
     inkscape:cx="175.50186"
     inkscape:cy="186.50542"
     inkscape:document-units="cm"
     inkscape:current-layer="layer1"
     showgrid="true"
     units="cm"
     inkscape:window-width="881"
     inkscape:window-height="707"
     inkscape:window-x="971"
     inkscape:window-y="213"
     inkscape:window-maximized="0"
     inkscape:snap-nodes="false">
    <inkscape:grid
       type="xygrid"
       id="grid815"
       units="cm"
       spacingx="9.9999998"
       spacingy="9.9999998" />
  </sodipodi:namedview>
  <metadata
     id="metadata5">
    <rdf:RDF>
      <cc:Work
         rdf:about="">
        <dc:format>image/svg+xml</dc:format>
        <dc:type
           rdf:resource="http://purl.org/dc/dcmitype/StillImage" />
        <dc:title></dc:title>
      </cc:Work>
    </rdf:RDF>
  </metadata>
  <g
     inkscape:label="Layer 1"
     inkscape:groupmode="layer"
     id="layer1"
     transform="translate(0,-197.00002)">
    <path
       style="opacity:1;fill:#020900;fill-opacity:1;stroke:none;stroke-width:1;stroke-linecap:butt;stroke-linejoin:round;stroke-miterlimit:4;stroke-dasharray:none;stroke-opacity:1"
       id="path1593"
       d="m 35.847345,217.35335 c -0.09583,0.13307 -0.176226,0.27628 -0.244898,0.42496 -0.09031,0.21233 -0.116144,0.44315 -0.14464,0.66985 -0.02711,0.22176 0.0091,0.45563 0.03903,0.66773 -0.04481,-0.0792 -0.103439,-0.17093 -0.157207,-0.25169 -0.113017,-0.1631 -0.240398,-0.31521 -0.372494,-0.46301 -0.08459,-0.098 -0.18147,-0.18242 -0.288875,-0.25411 -0.145409,-0.0943 -0.300468,-0.17195 -0.457049,-0.24566 -0.238474,-0.11228 -0.486188,-0.20194 -0.737449,-0.28063 -0.232931,-0.0736 -0.473244,-0.11543 -0.715698,-0.14062 -0.349954,-0.0342 -0.701709,-0.038 -1.052954,-0.0315 -0.357892,0.004 -0.712804,0.0465 -1.064723,0.10854 -0.311338,0.053 -0.609844,0.15277 -0.901618,0.27091 -0.337328,0.14082 -0.657326,0.31734 -0.967642,0.50955 -0.341022,0.2119 -0.650976,0.46701 -0.949455,0.73421 -0.366096,0.32852 -0.687393,0.70134 -0.999339,1.08036 -0.350102,0.43022 -0.646613,0.89911 -0.929698,1.37495 -0.316864,0.53809 -0.58522,1.10198 -0.837756,1.67242 -0.255986,0.57652 -0.46915,1.1699 -0.65703,1.77163 -0.170874,0.55263 -0.291406,1.11841 -0.394826,1.68693 -0.09195,0.51266 -0.15608,1.02949 -0.200722,1.54824 -0.03103,0.38966 -0.04687,0.7805 -0.03343,1.17124 0.0093,0.22798 0.03838,0.45448 0.09228,0.67614 0.01805,0.0838 0.05149,0.15767 0.100982,0.22619 0.07985,0.10779 0.165484,0.21085 0.256775,0.30913 0.164876,0.17046 0.351454,0.31774 0.537563,0.46395 0.277084,0.21297 0.572009,0.40093 0.867861,0.58635 0.351189,0.22041 0.713025,0.42283 1.08091,0.6138 0.385004,0.1997 0.784678,0.36818 1.186739,0.52989 0.495321,0.19779 1.00049,0.36886 1.509014,0.52906 0.617812,0.19366 1.247793,0.34355 1.878713,0.48715 0.791501,0.17891 1.586863,0.33966 2.384817,0.48689 0.862359,0.1619 1.732237,0.27572 2.604415,0.36831 0.990907,0.10223 1.986222,0.14821 2.98142,0.182 1.052021,0.0368 2.104351,0.0102 3.155408,-0.0383 1.067499,-0.0511 2.130859,-0.15906 3.191087,-0.29056 1.080471,-0.13643 2.149935,-0.34351 3.214425,-0.57076 1.064482,-0.22878 2.115611,-0.51327 3.159104,-0.82278 0.979585,-0.28937 1.926635,-0.67256 2.864908,-1.07313 0.958736,-0.41396 1.896706,-0.87347 2.829933,-1.34146 0.822886,-0.41242 1.635588,-0.84471 2.431444,-1.30715 0.635908,-0.36777 1.231892,-0.79724 1.812571,-1.24565 0.490678,-0.37469 0.934381,-0.80231 1.350872,-1.25657 0.400513,-0.44849 0.747742,-0.93994 1.077307,-1.44175 0.304022,-0.46634 0.558911,-0.96096 0.776621,-1.47263 0.181983,-0.42572 0.290184,-0.87482 0.372877,-1.32863 0.07441,-0.42528 0.09992,-0.85628 0.101605,-1.28734 -0.0011,-0.41591 -0.03216,-0.83088 -0.08451,-1.24327 -0.04285,-0.31194 -0.116424,-0.61843 -0.211497,-0.9183 -0.07672,-0.22854 -0.18755,-0.44268 -0.309669,-0.64974 -0.150121,-0.2551 -0.337349,-0.48419 -0.5355,-0.70291 -0.265113,-0.28498 -0.572315,-0.52436 -0.884045,-0.75538 -0.414993,-0.3033 -0.865854,-0.54996 -1.324787,-0.779 -0.556445,-0.27157 -1.136568,-0.48844 -1.725152,-0.67848 -0.628772,-0.20004 -1.276694,-0.32491 -1.927206,-0.42827 -0.711425,-0.10837 -1.42988,-0.15411 -2.148417,-0.17864 -0.677561,-0.0216 -1.354336,0.0176 -2.02842,0.0828 -0.60883,0.0616 -1.210024,0.17596 -1.80526,0.31553 -0.544132,0.12894 -1.070438,0.31793 -1.587408,0.52883 -0.556667,0.22872 -1.082709,0.52146 -1.599538,0.82776 -0.578109,0.34383 -1.12028,0.74186 -1.648481,1.15702 -0.535226,0.41808 -1.018651,0.89381 -1.473928,1.39624 -0.507513,0.56946 -0.951767,1.19048 -1.384149,1.81763 -0.461664,0.66657 -0.855316,1.37549 -1.224481,2.0963 -0.394563,0.78123 -0.726131,1.59155 -1.035762,2.40945 -0.341704,0.90974 -0.612968,1.84308 -0.863671,2.78124 -0.28506,1.08735 -0.51144,2.18864 -0.722376,3.29236 -0.233032,1.24196 -0.419852,2.49184 -0.596715,3.74282 -0.183512,1.31415 -0.340082,2.6318 -0.488371,3.95031 -0.147129,1.2974 -0.264194,2.59783 -0.360783,3.89988 -0.09085,1.24975 -0.132696,2.5022 -0.157168,3.75477 -0.02238,1.20956 -0.0021,2.41919 0.03556,3.62818 0.0388,1.18333 0.124815,2.36424 0.226423,3.5436 0.09476,1.1239 0.238437,2.24252 0.404855,3.35778 0.163049,1.07745 0.360518,2.14915 0.57418,3.21758 0.210997,1.03665 0.444079,2.06864 0.687702,3.09805 0.229505,0.96154 0.487482,1.91589 0.752399,2.86817 0.248163,0.8884 0.521544,1.76937 0.802642,2.64781 0.268899,0.83422 0.550722,1.6642 0.840341,2.49143 0.255772,0.7393 0.53527,1.46994 0.82483,2.19656 0.273259,0.68188 0.553823,1.3608 0.85493,2.03088 0.284509,0.61952 0.592833,1.22767 0.903883,1.83417 0.277561,0.54152 0.575114,1.07228 0.887698,1.59426 0.217538,0.36358 0.461693,0.70987 0.73942,1.02978 0.140698,0.16885 0.307235,0.30373 0.502238,0.40289 0.213582,0.1073 0.445323,0.16821 0.676814,0.22258 0.252556,0.0585 0.509771,0.0628 0.766946,0.047 0.20521,-0.0162 0.395938,-0.0882 0.582353,-0.17048 0.305779,-0.14253 0.584186,-0.33371 0.851016,-0.53835 0.32394,-0.25296 0.590561,-0.56499 0.841769,-0.88766 0.340471,-0.44783 0.607574,-0.9434 0.859433,-1.44457 0.32003,-0.64589 0.572855,-1.32109 0.804635,-2.00265 0.286914,-0.85664 0.497427,-1.73565 0.695378,-2.61624 0.232672,-1.03672 0.410041,-2.08413 0.558109,-3.13589 0.156748,-1.15221 0.238065,-2.31247 0.301242,-3.47297 0.06699,-1.34754 0.07873,-2.69688 0.07492,-4.0458 -0.0079,-1.44216 -0.0594,-2.8835 -0.124862,-4.32404 -0.07129,-1.48059 -0.180414,-2.95898 -0.299939,-4.43635 -0.119013,-1.45118 -0.268547,-2.89955 -0.427887,-4.34678 -0.149842,-1.3666 -0.326118,-2.73003 -0.51906,-4.09115 -0.18248,-1.2853 -0.403902,-2.56451 -0.642736,-3.84039 -0.219162,-1.16145 -0.479547,-2.31449 -0.751377,-3.46457 -0.24375,-1.03076 -0.516993,-2.05406 -0.807156,-3.07261 -0.259977,-0.91092 -0.54999,-1.8126 -0.86741,-2.70501 -0.276196,-0.76615 -0.590418,-1.51756 -0.921634,-2.2613 -0.297842,-0.66442 -0.629203,-1.31285 -0.972717,-1.95458 -0.285866,-0.53657 -0.607952,-1.0521 -0.948989,-1.55497 -0.3004,-0.44324 -0.632632,-0.86311 -0.978085,-1.27172 -0.311039,-0.36917 -0.648131,-0.71447 -0.996326,-1.04832 -0.315193,-0.3037 -0.648856,-0.5865 -0.995579,-0.85328 -0.335415,-0.25359 -0.684379,-0.48837 -1.036876,-0.71735 -0.253777,-0.16666 -0.515138,-0.32112 -0.791956,-0.44613 -0.249325,-0.10721 -0.50904,-0.18716 -0.768286,-0.26625 -0.278612,-0.0837 -0.562547,-0.14608 -0.848506,-0.19837 -0.337095,-0.0584 -0.675285,-0.11035 -1.013378,-0.16265 -0.294232,-0.0459 -0.588997,-0.0883 -0.883814,-0.13029 -0.246227,-0.0351 -0.492548,-0.0695 -0.739114,-0.10208 -0.214055,-0.028 -0.428315,-0.0544 -0.642604,-0.0805 -0.127714,-0.0155 -0.255444,-0.0309 -0.383172,-0.0463 -4.829281,-0.58267 -4.005257,-7.41231 0.824024,-6.82963 v 0 c 0.130505,0.0157 0.261011,0.0315 0.391504,0.0473 0.237818,0.029 0.475601,0.0583 0.71315,0.0895 0.268763,0.0356 0.537292,0.0729 0.805688,0.11123 0.322291,0.0459 0.644514,0.0924 0.966173,0.14252 0.410406,0.0635 0.820952,0.12651 1.229773,0.19968 0.539036,0.10242 1.074674,0.2226 1.599652,0.38353 0.57167,0.17629 1.139955,0.36726 1.68306,0.62031 0.556244,0.26602 1.097402,0.56128 1.611207,0.90319 0.510426,0.33287 1.015047,0.67518 1.498893,1.04604 0.538779,0.41968 1.061191,0.85974 1.552348,1.33484 0.518943,0.50132 1.02186,1.01923 1.486238,1.57209 0.500608,0.59615 0.982253,1.20841 1.417918,1.85417 0.470832,0.69987 0.918017,1.41556 1.314067,2.16089 0.421121,0.78893 0.827111,1.58617 1.191858,2.40302 0.402153,0.90615 0.784005,1.82147 1.118616,2.75502 0.364929,1.0305 0.701434,2.07064 1.000667,3.12227 0.318135,1.11866 0.618294,2.24236 0.885693,3.37435 0.296325,1.25521 0.579741,2.51373 0.818377,3.78137 0.257035,1.37553 0.495559,2.7546 0.691989,4.14024 0.202657,1.43176 0.388262,2.86588 0.545761,4.30338 0.166473,1.51322 0.322575,3.02766 0.446804,4.54502 0.125871,1.55818 0.240589,3.11745 0.315246,4.67904 0.06961,1.53833 0.124156,3.07752 0.1319,4.61757 0.0036,1.48066 -0.01019,2.96177 -0.08524,4.44085 -0.07499,1.35685 -0.172935,2.71326 -0.358804,4.06013 -0.175731,1.23586 -0.384286,2.46691 -0.658741,3.68513 -0.253786,1.12234 -0.528209,2.24137 -0.898065,3.33211 -0.338937,0.98439 -0.710861,1.95843 -1.179666,2.88953 -0.467982,0.91486 -0.976813,1.81112 -1.615747,2.61973 -0.629497,0.77987 -1.310222,1.519 -2.117836,2.11983 -0.768125,0.56284 -1.5743,1.07602 -2.463522,1.42837 -0.916451,0.34443 -1.861804,0.60163 -2.846956,0.63255 -0.907503,0.0219 -1.814862,-0.0315 -2.698033,-0.25866 -0.895488,-0.23605 -1.773267,-0.54027 -2.568888,-1.02426 -0.803023,-0.50742 -1.550606,-1.0916 -2.159357,-1.82789 -0.510262,-0.61136 -0.983657,-1.25195 -1.388253,-1.93908 -0.387588,-0.65003 -0.758798,-1.30967 -1.103497,-1.98359 -0.365707,-0.71349 -0.727298,-1.4294 -1.059863,-2.15909 -0.339664,-0.75935 -0.660244,-1.52689 -0.968555,-2.2995 -0.325101,-0.81695 -0.639093,-1.63834 -0.926803,-2.46931 -0.309873,-0.88584 -0.611804,-1.77449 -0.899409,-2.66784 -0.307676,-0.96223 -0.606637,-1.92733 -0.878165,-2.90049 -0.288701,-1.03845 -0.569384,-2.07928 -0.819198,-3.12788 -0.261901,-1.10783 -0.512683,-2.21838 -0.739167,-3.33405 -0.235368,-1.17962 -0.453125,-2.3628 -0.632491,-3.55238 -0.186497,-1.25606 -0.347983,-2.51583 -0.454541,-3.78149 -0.111808,-1.30433 -0.206148,-2.61037 -0.248365,-3.91907 -0.04088,-1.32539 -0.06257,-2.65146 -0.03753,-3.97745 0.02746,-1.37745 0.0742,-2.75476 0.174766,-4.12908 0.103473,-1.38849 0.22792,-2.77533 0.384976,-4.15889 0.155715,-1.38347 0.320249,-2.76602 0.513075,-4.14488 0.192741,-1.36131 0.397039,-2.72132 0.651595,-4.07268 0.243059,-1.26752 0.504904,-2.53201 0.834355,-3.78035 0.312373,-1.16181 0.651883,-2.31707 1.077585,-3.44323 0.403061,-1.05762 0.835337,-2.10497 1.349806,-3.11412 0.507936,-0.98327 1.049882,-1.94972 1.682125,-2.85963 0.611775,-0.88329 1.246225,-1.75315 1.968469,-2.55064 0.71661,-0.77818 1.472628,-1.51935 2.309354,-2.16951 0.767461,-0.59858 1.55611,-1.17083 2.395308,-1.66598 0.813839,-0.47766 1.645028,-0.92792 2.521402,-1.28188 0.850244,-0.33989 1.715323,-0.64408 2.608884,-0.85045 0.89376,-0.2046 1.795783,-0.3741 2.709376,-0.46188 0.970481,-0.0897 1.944642,-0.14297 2.919635,-0.10863 1.003953,0.0372 2.007534,0.10592 3.000867,0.26255 1.00317,0.1643 2.001096,0.36659 2.969358,0.68159 0.916619,0.30283 1.82119,0.64383 2.685904,1.07579 0.817078,0.4157 1.616787,0.86745 2.35259,1.41741 0.684133,0.51703 1.345912,1.06619 1.916348,1.70983 0.506934,0.58181 0.982515,1.19157 1.362581,1.86562 0.362968,0.6515 0.687609,1.32481 0.904668,2.04065 0.202912,0.68226 0.370298,1.37523 0.456605,2.08296 0.08454,0.71354 0.139517,1.4307 0.13422,2.14982 -0.01251,0.8385 -0.06824,1.67664 -0.223655,2.50222 -0.186076,0.95062 -0.432461,1.88927 -0.821105,2.77969 -0.38467,0.87471 -0.819232,1.72674 -1.347705,2.52467 -0.539136,0.81118 -1.110187,1.60273 -1.769065,2.32226 -0.682686,0.73204 -1.405004,1.42588 -2.202543,2.03347 -0.819555,0.62852 -1.661771,1.22842 -2.557552,1.74489 -0.917051,0.53023 -1.850229,1.03159 -2.797974,1.50496 -1.06018,0.53113 -2.126258,1.05152 -3.215849,1.52019 -1.181582,0.50261 -2.376088,0.97801 -3.609255,1.34084 -1.21533,0.35898 -2.439281,0.68964 -3.678913,0.95482 -1.259758,0.26753 -2.525529,0.51009 -3.804131,0.66973 -1.236078,0.15192 -2.475722,0.2769 -3.720182,0.3352 -1.234003,0.0557 -2.469483,0.0852 -3.704521,0.0414 -1.160941,-0.0401 -2.321896,-0.0961 -3.477675,-0.217 -1.045835,-0.1126 -2.089042,-0.24958 -3.123229,-0.44391 -0.891384,-0.16509 -1.780096,-0.34417 -2.664275,-0.54458 -0.814258,-0.18613 -1.626457,-0.38356 -2.423425,-0.63517 -0.677418,-0.21496 -1.350506,-0.44399 -2.010155,-0.7092 -0.608837,-0.24659 -1.212666,-0.50649 -1.795291,-0.81088 -0.529602,-0.27763 -1.052081,-0.56881 -1.558099,-0.88782 -0.507015,-0.3195 -1.008927,-0.64841 -1.480123,-1.01962 -0.50373,-0.40135 -0.994628,-0.82115 -1.422965,-1.30417 -0.443803,-0.51003 -0.859777,-1.04588 -1.179206,-1.64451 -0.324374,-0.63113 -0.595577,-1.28737 -0.742449,-1.98464 -0.134903,-0.64308 -0.22993,-1.29395 -0.245833,-1.95201 -0.01473,-0.65292 2.57e-4,-1.306 0.05773,-1.95688 0.06583,-0.73314 0.155517,-1.46399 0.287715,-2.18842 0.156933,-0.84571 0.341353,-1.68679 0.598965,-2.50833 0.268996,-0.84897 0.570114,-1.68748 0.933265,-2.50133 0.367352,-0.8227 0.759488,-1.63492 1.220795,-2.40985 0.465053,-0.77342 0.957731,-1.53142 1.533296,-2.22844 0.542661,-0.6528 1.108522,-1.28789 1.745943,-1.85083 0.606796,-0.53161 1.238313,-1.03597 1.92934,-1.45547 0.656124,-0.39504 1.330948,-0.75988 2.044736,-1.04126 0.732004,-0.2804 1.480497,-0.51669 2.255975,-0.64407 0.696566,-0.11443 1.398315,-0.19647 2.105208,-0.20302 0.665527,-0.008 1.33201,0.005 1.993857,0.0824 0.671523,0.0869 1.338421,0.20932 1.983491,0.42017 0.556173,0.18125 1.10535,0.38444 1.632376,0.63983 0.550614,0.27019 1.090142,0.5653 1.583098,0.93273 0.478353,0.36541 0.93387,0.7599 1.328306,1.21671 0.358391,0.41099 0.701765,0.83571 0.997945,1.29449 0.319601,0.50533 0.61255,1.02831 0.821174,1.59054 0.239395,0.67492 0.410287,1.3708 0.370469,2.0937 -0.04974,0.50351 -0.127677,1.0016 -0.327411,1.47041 -0.138194,0.34361 -0.29782,0.67945 -0.51245,0.98294 -2.786542,3.98706 -8.425095,0.0463 -5.638554,-3.94076 z"
       inkscape:connector-curvature="0" />
  </g>
</svg>
