<svg viewBox="0 0 100 100"><path style="opacity:1;fill:#020900;fill-opacity:1;stroke:none;stroke-width:1;stroke-linecap:butt;stroke-linejoin:round;stroke-miterlimit:4;stroke-dasharray:none;stroke-opacity:1" d="M16.291 230.333c.009.045.01.058.024.102.08.184.053.13-.031-.007a31 31 0 0 1-.281-.46l-.218-.369-.165-.28c.024.038-.093-.158-.07-.119.129.21.26.36.424.556.3.224.539.568.898.67.773.221 1.613.453 2.396.272 1.286-.298 2.21-1.343 2.476-2.55.003-.011-.002-.04.008-.033 0 0-.005.444-.003.571.009.473.046.944.092 1.414.06.598.167 1.19.273 1.78.131.759.31 1.506.506 2.25.241.918.54 1.82.858 2.714a38 38 0 0 0 1.315 3.137 31 31 0 0 0 1.748 3.211c.627 1.021 1.35 1.976 2.117 2.895.777.914 1.634 1.755 2.517 2.566.9.824 1.86 1.578 2.836 2.31 1.01.75 2.06 1.442 3.12 2.118a55 55 0 0 0 3.222 1.877 42 42 0 0 0 3.175 1.524 29 29 0 0 0 3.068 1.121c.944.288 1.912.48 2.885.634.916.146 1.842.187 2.768.18.98-.017 1.953-.143 2.92-.295a27 27 0 0 0 3.057-.687c.986-.281 1.942-.65 2.89-1.039a37 37 0 0 0 2.696-1.255 16 16 0 0 0 2.168-1.358c.698-.518 1.317-1.13 1.916-1.758.671-.71 1.282-1.473 1.88-2.245a31 31 0 0 0 1.605-2.295c.461-.724.853-1.488 1.216-2.266.378-.817.68-1.666.957-2.522.293-.926.522-1.87.744-2.815.212-.907.395-1.821.565-2.737a102 102 0 0 0 .699-4.551q.115-.897.224-1.794.084-.712.161-1.423c.035-.332.078-.663.1-.996a7 7 0 0 0 .005-.453c-.005.484.204.913.424 1.33.365.564.884.985 1.52 1.198.133.03-.45-.036-.477-.038-.502-.042-1.005-.066-1.508-.091a386 386 0 0 1-5.061-.29q-1.54-.1-3.078-.203a234 234 0 0 0-6.46-.33 185 185 0 0 0-3.328-.09 95 95 0 0 0-3.263-.013 98 98 0 0 0-3.288.107q-1.715.08-3.428.184c-1.142.07-2.283.145-3.425.215q-1.651.096-3.303.201c-1.046.067-2.092.145-3.137.223l-2.99.222q-1.392.105-2.784.2a322 322 0 0 1-4.836.294q-.992.054-1.984.103a253 253 0 0 1-3.391.149 777 777 0 0 1-3.43.127l-.808.026q-.375.008-.748.007-.312-.002-.624-.014l-.415-.016c.109.001-.111-.003-.083-.003.349.008.604-.063.971-.132-4.659 1.398-6.636-5.19-1.977-6.589.45-.089.888-.193 1.349-.15l.4.015q.2.009.4.01.266.001.532-.004l.77-.025a317 317 0 0 0 2.04-.074 762 762 0 0 0 2.932-.117q.868-.037 1.737-.08a511 511 0 0 0 4.196-.23 317 317 0 0 0 5.246-.357l2.98-.222c1.072-.08 2.144-.16 3.216-.228q1.661-.105 3.323-.203c1.143-.07 2.287-.145 3.43-.215q1.767-.107 3.534-.19c1.175-.052 2.35-.1 3.525-.113a103 103 0 0 1 3.476.013c1.15.024 2.3.051 3.45.095a264 264 0 0 1 6.644.34l3.066.202a380 380 0 0 0 4.97.284c.593.03 1.186.059 1.778.11.529.048 1.06.101 1.576.228 1.03.294 1.93.81 2.538 1.724.4.72.696 1.467.681 2.305.005.348.001.696-.021 1.044-.03.42-.076.84-.123 1.26a150 150 0 0 1-.404 3.36q-.148 1.142-.32 2.28c-.135.88-.273 1.76-.436 2.636a69 69 0 0 1-.63 3.051c-.267 1.132-.545 2.261-.9 3.37-.368 1.126-.77 2.243-1.272 3.319-.492 1.045-1.023 2.072-1.647 3.046a38 38 0 0 1-1.966 2.81c-.747.961-1.514 1.909-2.354 2.792-.883.917-1.801 1.802-2.831 2.555-.982.71-2 1.37-3.082 1.92a44 44 0 0 1-3.223 1.497c-1.195.488-2.403.947-3.647 1.298a34 34 0 0 1-3.85.859c-1.304.201-2.618.361-3.94.376-1.301.004-2.602-.058-3.888-.266-1.294-.209-2.58-.469-3.833-.855a36 36 0 0 1-3.788-1.39 48 48 0 0 1-3.707-1.783 62 62 0 0 1-7.186-4.537c-1.16-.872-2.301-1.772-3.371-2.755-1.104-1.02-2.176-2.076-3.144-3.227-.974-1.176-1.896-2.396-2.694-3.7-.774-1.268-1.5-2.565-2.123-3.914-.564-1.222-1.102-2.457-1.555-3.725a41 41 0 0 1-1.03-3.272c-.24-.917-.46-1.84-.622-2.775a30 30 0 0 1-.35-2.339 25 25 0 0 1-.123-1.998c-.005-.563-.003-1.128.08-1.687.254-1.401 1.033-2.66 2.61-3.04.793-.19 1.648.041 2.433.263.373.105.624.46.936.69.226.266.454.53.618.84l.165.28q.097.167.197.334.116.195.237.388c.198.322.391.648.534.998.132.33.25.667.326 1.015 1.055 4.749-5.66 6.24-6.715 1.492M51.04 277.56l-.286-.01q.139 0 .277-.007c.084-.011.164-.046.242-.078.11-.045.213-.108.311-.175q-.106.132-.216.263-.17.21-.319.436a3 3 0 0 0-.161.272c.083-.148.126-.315.155-.482.012-.097.032.04.037.061.035.126.055.313.113.407.02-.01.033.026.013-.026-.13-.203-.358-.324-.567-.43-.154-.077-.322-.103-.489-.135a1 1 0 0 0 .122-.071q.105-.09.208-.185c.124-.12.227-.257.331-.394q.144-.205.256-.429.057-.113.085-.237c.004-.019-.005-.005-.014-.012-.02.18.02.362.065.536.03.113.08.215.141.313.164.251.392.447.641.609.104.063.076.05.22.1l.084.025.02.006c-4.773-.94-3.445-7.69 1.328-6.75.291.06.135.025.469.108.444.14.879.302 1.284.534.614.367 1.168.816 1.58 1.409.31.456.581.936.756 1.462.198.64.323 1.296.284 1.969-.031.553-.1 1.104-.26 1.637a8.4 8.4 0 0 1-.598 1.5c-.264.494-.551.976-.893 1.42-.377.487-.778.958-1.242 1.366-.539.466-1.11.895-1.755 1.208-.701.327-1.43.59-2.202.694-.96.112-1.923.092-2.844-.245-.905-.376-1.725-.885-2.344-1.663-.437-.554-.825-1.146-1.083-1.808a9.5 9.5 0 0 1-.468-1.637c-.11-.607-.184-1.222-.139-1.84.063-.702.203-1.393.52-2.029.193-.386.406-.761.65-1.118.22-.323.448-.64.697-.943a9.4 9.4 0 0 1 .91-.993c.428-.38.885-.726 1.407-.967a6 6 0 0 1 1.26-.422 5.7 5.7 0 0 1 1.59-.126c4.863.125 4.686 7.002-.177 6.877z" transform="translate(0 -197)"/></svg>