<?xml version="1.0" encoding="UTF-8" standalone="no"?>
<!-- Created with Inkscape (http://www.inkscape.org/) -->

<svg
   xmlns:dc="http://purl.org/dc/elements/1.1/"
   xmlns:cc="http://creativecommons.org/ns#"
   xmlns:rdf="http://www.w3.org/1999/02/22-rdf-syntax-ns#"
   xmlns:svg="http://www.w3.org/2000/svg"
   xmlns="http://www.w3.org/2000/svg"
   xmlns:sodipodi="http://sodipodi.sourceforge.net/DTD/sodipodi-0.dtd"
   xmlns:inkscape="http://www.inkscape.org/namespaces/inkscape"
   width="10cm"
   height="10cm"
   viewBox="0 0 100 99.999997"
   version="1.1"
   id="svg8"
   sodipodi:docname="uta.svg"
   inkscape:version="0.92.3 (2405546, 2018-03-11)">
  <defs
     id="defs2" />
  <sodipodi:namedview
     id="base"
     pagecolor="#ffffff"
     bordercolor="#666666"
     borderopacity="1.0"
     inkscape:pageopacity="0.0"
     inkscape:pageshadow="2"
     inkscape:zoom="1"
     inkscape:cx="175.50186"
     inkscape:cy="160.37856"
     inkscape:document-units="cm"
     inkscape:current-layer="layer1"
     showgrid="true"
     units="cm"
     inkscape:window-width="881"
     inkscape:window-height="707"
     inkscape:window-x="971"
     inkscape:window-y="213"
     inkscape:window-maximized="0"
     inkscape:snap-nodes="false">
    <inkscape:grid
       type="xygrid"
       id="grid815"
       units="cm"
       spacingx="9.9999998"
       spacingy="9.9999998" />
  </sodipodi:namedview>
  <metadata
     id="metadata5">
    <rdf:RDF>
      <cc:Work
         rdf:about="">
        <dc:format>image/svg+xml</dc:format>
        <dc:type
           rdf:resource="http://purl.org/dc/dcmitype/StillImage" />
        <dc:title></dc:title>
      </cc:Work>
    </rdf:RDF>
  </metadata>
  <g
     inkscape:label="Layer 1"
     inkscape:groupmode="layer"
     id="layer1"
     transform="translate(0,-197.00002)">
    <path
       style="opacity:1;fill:#020900;fill-opacity:1;stroke:none;stroke-width:1;stroke-linecap:butt;stroke-linejoin:round;stroke-miterlimit:4;stroke-dasharray:none;stroke-opacity:1"
       id="path1595"
       d="m 16.290964,230.33347 c 0.0086,0.0447 0.01098,0.0579 0.02382,0.1012 0.08079,0.18425 0.05355,0.13073 -0.03096,-0.007 -0.09501,-0.1527 -0.188677,-0.30622 -0.280968,-0.46058 -0.0728,-0.12244 -0.14508,-0.24519 -0.217414,-0.36791 -0.05516,-0.0936 -0.110303,-0.18718 -0.165452,-0.28077 0.02411,0.0388 -0.09348,-0.15701 -0.06957,-0.11808 0.128273,0.20889 0.260474,0.35961 0.423559,0.55611 0.299336,0.22325 0.538957,0.56716 0.898007,0.66974 0.77289,0.22082 1.613016,0.45268 2.396125,0.27141 1.285873,-0.29766 2.21047,-1.34277 2.476067,-2.55025 0.0025,-0.0108 -0.0017,-0.0387 0.0074,-0.0324 0.0011,8e-4 -0.0043,0.44375 -0.0026,0.57142 0.0088,0.47227 0.0457,0.94344 0.09165,1.41336 0.06077,0.598 0.166926,1.18996 0.273276,1.78114 0.131406,0.75772 0.310979,1.50531 0.506352,2.24867 0.240879,0.91874 0.539519,1.82027 0.857577,2.7147 0.383754,1.06784 0.838874,2.10745 1.315632,3.13642 0.513364,1.10741 1.109578,2.17214 1.747555,3.21171 0.627089,1.02084 1.350354,1.97542 2.116928,2.89429 0.776756,0.91476 1.634427,1.75485 2.516656,2.56656 0.900512,0.82417 1.860714,1.57826 2.836826,2.30986 1.010224,0.74931 2.060299,1.44212 3.120308,2.1183 1.049623,0.66649 2.129073,1.28361 3.221471,1.87671 1.033161,0.55933 2.098701,1.05422 3.175098,1.52361 0.998707,0.43766 2.026639,0.8011 3.068132,1.12159 0.943779,0.28776 1.911657,0.47986 2.885051,0.63351 0.915831,0.14623 1.841566,0.18743 2.767433,0.17975 0.98039,-0.0169 1.953305,-0.14278 2.920537,-0.29436 1.032783,-0.16443 2.050471,-0.40491 3.05666,-0.68743 0.985708,-0.28102 1.94237,-0.65012 2.889766,-1.03859 0.916532,-0.37935 1.813594,-0.80306 2.696032,-1.25553 0.761508,-0.3888 1.479032,-0.85261 2.16766,-1.35759 0.69881,-0.51826 1.316943,-1.13087 1.916906,-1.75786 0.670674,-0.71057 1.281909,-1.47326 1.880093,-2.24485 0.571534,-0.73897 1.102082,-1.50776 1.603949,-2.29534 0.461835,-0.72427 0.853799,-1.48845 1.216937,-2.26585 0.377884,-0.81741 0.679636,-1.66637 0.956395,-2.52237 0.293058,-0.92587 0.522608,-1.86995 0.744186,-2.81494 0.211542,-0.90732 0.394613,-1.82091 0.564676,-2.7368 0.149217,-0.80393 0.275257,-1.61185 0.399037,-2.42 0.109217,-0.70904 0.206298,-1.41984 0.299474,-2.13113 0.07812,-0.59771 0.152233,-1.19593 0.224512,-1.79437 0.05673,-0.47388 0.109757,-0.94818 0.161756,-1.42259 0.03458,-0.3317 0.07758,-0.66267 0.09947,-0.99554 0.0057,-0.151 0.0085,-0.3023 0.0049,-0.45339 -0.0044,0.48356 0.204364,0.91289 0.423643,1.33001 0.365434,0.56358 0.884526,0.9848 1.520089,1.19759 0.133361,0.0311 -0.450448,-0.0358 -0.476345,-0.038 -0.50214,-0.0421 -1.005554,-0.0658 -1.508742,-0.0911 -0.758237,-0.0358 -1.516139,-0.078 -2.273972,-0.12146 -0.929293,-0.0525 -1.858356,-0.10886 -2.787247,-0.16808 -1.025851,-0.066 -2.05145,-0.13575 -3.077224,-0.20291 -1.058195,-0.0696 -2.117034,-0.12863 -3.176063,-0.18385 -1.094132,-0.056 -2.188633,-0.10454 -3.283389,-0.14652 -1.109194,-0.0415 -2.218878,-0.0676 -3.328588,-0.0906 -1.087599,-0.026 -2.175505,-0.0237 -3.263263,-0.0125 -1.096742,0.0119 -2.192631,0.0582 -3.288212,0.10706 -1.143021,0.0524 -2.2855,0.11552 -3.427645,0.1842 -1.141796,0.0705 -2.283309,0.14541 -3.425169,0.21493 -1.101196,0.0641 -2.202209,0.13122 -3.303037,0.20138 -1.046025,0.0666 -2.091301,0.14437 -3.136472,0.22311 -0.996801,0.0757 -1.993833,0.1482 -2.990786,0.22185 -0.92751,0.0701 -1.855272,0.13683 -2.783229,0.20078 -0.850641,0.0584 -1.70162,0.11158 -2.552689,0.16321 -0.760979,0.0459 -1.522153,0.0884 -2.283383,0.12989 -0.661319,0.0358 -1.322716,0.0701 -1.984166,0.1033 -0.594475,0.03 -1.189089,0.057 -1.783755,0.0828 -0.535773,0.023 -1.071608,0.0445 -1.607457,0.0657 -0.45505,0.0179 -0.910123,0.0351 -1.365204,0.0522 -0.373796,0.0139 -0.747593,0.0278 -1.121396,0.0415 -0.314454,0.0116 -0.628927,0.0226 -0.943413,0.0333 -0.269246,0.009 -0.538464,0.0186 -0.807746,0.0263 -0.249347,0.006 -0.498799,0.007 -0.74821,0.007 -0.208153,1.8e-4 -0.416194,-0.007 -0.624182,-0.0144 -0.138071,-0.005 -0.276134,-0.0103 -0.414197,-0.0155 0.108495,0.001 -0.111812,-0.003 -0.08385,-0.003 0.349447,0.008 0.604554,-0.0629 0.971639,-0.13236 -4.659028,1.39818 -6.636358,-5.19068 -1.977329,-6.58887 v 0 c 0.450908,-0.0888 0.887839,-0.19328 1.348658,-0.15027 0.13367,0.005 0.26734,0.0101 0.401016,0.015 0.132822,0.005 0.265667,0.0102 0.398601,0.01 0.177681,7.9e-4 0.355396,-2.7e-4 0.533044,-0.004 0.256363,-0.007 0.512648,-0.0169 0.768978,-0.0251 0.308311,-0.0105 0.616611,-0.0213 0.92489,-0.0327 0.371942,-0.0136 0.743877,-0.0274 1.115811,-0.0413 0.450542,-0.0169 0.901078,-0.034 1.35159,-0.0517 0.526852,-0.0208 1.05369,-0.042 1.580468,-0.0646 0.578989,-0.0251 1.157927,-0.0515 1.736728,-0.0806 0.651875,-0.0328 1.3037,-0.0665 1.955446,-0.1018 0.747077,-0.0407 1.494097,-0.0824 2.240925,-0.12745 0.832258,-0.0505 1.664425,-0.10249 2.496262,-0.15955 0.916675,-0.0632 1.833152,-0.12909 2.749386,-0.19836 0.993611,-0.0734 1.987301,-0.14569 2.980764,-0.2211 1.071584,-0.0807 2.143284,-0.16034 3.215746,-0.22863 1.107321,-0.0706 2.214824,-0.13809 3.322516,-0.20259 1.143629,-0.0696 2.286907,-0.14474 3.430484,-0.21526 1.177554,-0.0707 2.355453,-0.13585 3.533912,-0.18976 1.174398,-0.0523 2.349148,-0.10114 3.524785,-0.11353 1.158597,-0.0117 2.317348,-0.0138 3.475773,0.0137 1.150143,0.0239 2.300255,0.051 3.449865,0.0942 1.12623,0.0433 2.252207,0.0931 3.377795,0.1508 1.089409,0.0568 2.178619,0.11762 3.267173,0.18921 1.021887,0.0669 2.043604,0.13638 3.065568,0.20215 0.914154,0.0583 1.828477,0.11372 2.743031,0.16541 0.742042,0.0425 1.484151,0.0839 2.226593,0.11891 0.593283,0.0299 1.186775,0.0589 1.778704,0.11005 0.52855,0.0481 1.058783,0.10093 1.575437,0.22765 1.029613,0.29387 1.929956,0.81098 2.538278,1.72419 0.400076,0.71985 0.695539,1.46677 0.681127,2.30501 0.0044,0.34809 0.0011,0.69647 -0.02127,1.04399 -0.03075,0.42087 -0.07568,0.84032 -0.123272,1.25958 -0.05476,0.49957 -0.110662,0.99901 -0.170445,1.49801 -0.07506,0.62137 -0.15204,1.24252 -0.233172,1.86313 -0.0997,0.76073 -0.203732,1.5209 -0.320516,2.27922 -0.134922,0.88039 -0.272897,1.76044 -0.435695,2.63619 -0.190225,1.02109 -0.394345,2.0397 -0.63079,3.05122 -0.265986,1.13152 -0.544571,2.26113 -0.89893,3.36884 -0.367797,1.12716 -0.769789,2.24432 -1.271768,3.3198 -0.492582,1.04512 -1.023535,2.07254 -1.647317,3.04656 -0.616714,0.96284 -1.265099,1.90504 -1.966203,2.80887 -0.747141,0.96162 -1.513729,1.90951 -2.353556,2.7927 -0.883169,0.91659 -1.801535,1.80234 -2.831428,2.55533 -0.981953,0.71032 -1.999824,1.36978 -3.081991,1.91913 -1.055648,0.53864 -2.127088,1.04628 -3.223294,1.49766 -1.194882,0.48789 -2.402787,0.94731 -3.646239,1.29785 -1.267783,0.35183 -2.548953,0.65501 -3.849717,0.85896 -1.30507,0.20107 -2.618298,0.36133 -3.940698,0.37567 -1.300949,0.004 -2.601783,-0.0575 -3.888087,-0.26586 -1.293434,-0.20862 -2.57929,-0.46843 -3.832894,-0.85472 -1.28519,-0.39938 -2.555047,-0.84746 -3.788016,-1.38922 -1.256702,-0.54961 -2.500603,-1.1292 -3.706794,-1.78361 -1.233501,-0.67105 -2.452777,-1.36851 -3.637923,-2.12239 -1.205828,-0.77025 -2.399757,-1.56027 -3.548102,-2.41475 -1.160753,-0.87215 -2.301399,-1.77244 -3.371538,-2.75517 -1.10346,-1.01981 -2.175115,-2.07601 -3.143639,-3.22684 -0.97437,-1.17625 -1.896174,-2.39591 -2.693983,-3.70056 -0.773765,-1.26784 -1.499747,-2.56455 -2.123141,-3.91393 -0.564249,-1.22169 -1.10205,-2.4563 -1.555239,-3.72421 -0.381775,-1.07817 -0.739815,-2.165 -1.029119,-3.27217 -0.239565,-0.91754 -0.459698,-1.84028 -0.622357,-2.77501 -0.13923,-0.776 -0.273395,-1.55369 -0.350062,-2.33888 -0.06316,-0.66453 -0.11377,-1.3307 -0.12285,-1.99848 -0.0051,-0.56294 -0.0034,-1.12824 0.07915,-1.6865 0.254332,-1.40183 1.034159,-2.65979 2.610643,-3.03948 0.793035,-0.191 1.648044,0.0403 2.433073,0.26194 0.372992,0.10529 0.624251,0.45951 0.936377,0.68927 0.225733,0.26739 0.453338,0.53017 0.617333,0.84107 0.05499,0.0933 0.109968,0.18664 0.164961,0.27995 0.0656,0.11129 0.131148,0.2226 0.197106,0.33368 0.07766,0.13027 0.157193,0.2594 0.237167,0.38826 0.19755,0.32192 0.39113,0.64767 0.53435,0.99834 0.131781,0.33035 0.250288,0.6664 0.32595,1.01464 1.055175,4.74848 -5.660192,6.24072 -6.715367,1.49224 z"
       inkscape:connector-curvature="0" />
    <path
       style="opacity:1;fill:#020900;fill-opacity:1;stroke:none;stroke-width:1;stroke-linecap:butt;stroke-linejoin:round;stroke-miterlimit:4;stroke-dasharray:none;stroke-opacity:1"
       id="path1599"
       d="m 51.039392,277.55977 c -0.09477,-0.003 -0.192776,-0.008 -0.285589,-0.009 0.09241,6e-5 0.184806,-0.003 0.277111,-0.008 0.08368,-0.0111 0.163934,-0.0461 0.241885,-0.0773 0.110763,-0.0458 0.212984,-0.10824 0.311671,-0.17555 -0.07046,0.0889 -0.14451,0.17514 -0.216352,0.26303 -0.114165,0.13942 -0.219094,0.28607 -0.319138,0.43584 -0.05709,0.0888 -0.113276,0.17846 -0.161163,0.2725 0.08333,-0.14871 0.126601,-0.3157 0.155305,-0.48259 0.01177,-0.0964 0.03205,0.0402 0.03692,0.0613 0.03542,0.12576 0.05535,0.31347 0.113408,0.40722 0.019,-0.0107 0.03217,0.0254 0.01228,-0.0258 -0.130014,-0.20319 -0.357486,-0.32469 -0.566349,-0.43045 -0.154408,-0.0768 -0.322289,-0.10326 -0.489,-0.1354 0.04136,-0.0205 0.0839,-0.0421 0.121425,-0.0707 0.071,-0.0599 0.140185,-0.12151 0.208413,-0.18456 0.123571,-0.11964 0.227107,-0.25751 0.330856,-0.39409 0.09671,-0.13576 0.18129,-0.28001 0.255833,-0.429 0.03768,-0.0757 0.06696,-0.15489 0.08523,-0.2373 0.004,-0.0186 -0.0052,-0.005 -0.01389,-0.0121 -0.02101,0.18106 0.01934,0.362 0.06497,0.53613 0.02916,0.11257 0.08051,0.21478 0.140838,0.31333 0.163928,0.25089 0.391665,0.44662 0.640993,0.60864 0.103682,0.0628 0.07579,0.0503 0.219892,0.10063 0.028,0.008 0.05599,0.0162 0.08399,0.0243 0.0065,0.002 0.0131,0.004 0.01963,0.006 -4.772766,-0.93924 -3.444486,-7.68895 1.328282,-6.74972 v 0 c 0.291409,0.0601 0.134805,0.0249 0.469162,0.10835 0.443648,0.13864 0.878813,0.3018 1.283875,0.53318 0.613923,0.36698 1.168527,0.8161 1.579533,1.40923 0.309965,0.45603 0.582052,0.93627 0.75697,1.46195 0.197498,0.6396 0.322302,1.29592 0.283546,1.96903 -0.03135,0.55312 -0.100713,1.10404 -0.259474,1.63675 -0.156946,0.5164 -0.344816,1.02327 -0.598768,1.50088 -0.263782,0.4936 -0.55068,0.9754 -0.892387,1.41986 -0.377719,0.48684 -0.778107,0.95735 -1.242181,1.36515 -0.538753,0.46655 -1.110597,0.89589 -1.75463,1.20859 -0.701558,0.3273 -1.43057,0.59023 -2.20201,0.69438 -0.961263,0.11164 -1.923693,0.0919 -2.844483,-0.24511 -0.905026,-0.37685 -1.725366,-0.88558 -2.343748,-1.66297 -0.437716,-0.5546 -0.825748,-1.14606 -1.08337,-1.80811 -0.200568,-0.53255 -0.365464,-1.07647 -0.467707,-1.63722 -0.110585,-0.60712 -0.184396,-1.22199 -0.139147,-1.84028 0.06289,-0.70179 0.202774,-1.39255 0.519655,-2.02835 0.193752,-0.38602 0.406135,-0.76186 0.650044,-1.11882 0.219818,-0.32311 0.448183,-0.64057 0.696883,-0.94228 0.285221,-0.34717 0.578017,-0.68961 0.910413,-0.99316 0.427805,-0.37971 0.884992,-0.7265 1.40739,-0.96753 0.406297,-0.18023 0.822746,-0.33628 1.260475,-0.42198 0.39801,-0.0805 0.800849,-0.14297 1.208344,-0.13669 0.127053,0.002 0.254074,0.005 0.381014,0.0111 4.862697,0.12505 4.685855,7.00194 -0.176843,6.87689 z"
       inkscape:connector-curvature="0" />
  </g>
</svg>
