<svg viewBox="0 0 100 100"><path style="opacity:1;fill:#020900;fill-opacity:1;stroke:none;stroke-width:1;stroke-linecap:butt;stroke-linejoin:round;stroke-miterlimit:4;stroke-dasharray:none;stroke-opacity:1" d="M20.412 262.84c.609.043 1.173.26 1.713.531.519.274.972.647 1.416 1.026l1.393 1.215 1.738 1.502q.834.726 1.665 1.458.667.585 1.336 1.168.534.466 1.07.93.423.367.85.733c.142.106.267.25.422.336-.222-.175-.525-.217-.793-.265-.384-.069-.762.052-1.115.14.49-.502.874-1.092 1.258-1.675 1.04-1.654 1.975-3.37 2.937-5.069 1.262-2.21 2.541-4.413 3.806-6.623a338 338 0 0 0 3.953-7.09c1.329-2.446 2.582-4.932 3.82-7.426 1.127-2.29 2.247-4.583 3.373-6.874l2.763-5.597 2.207-4.477 1.76-3.568 1.402-2.845 1.117-2.267.891-1.807c.184-.402.412-.785.577-1.196 1.905-4.475 8.235-1.78 6.33 2.695-.227.523-.483 1.032-.737 1.543l-.89 1.807-1.118 2.267-1.402 2.844-1.76 3.57-2.207 4.477-2.76 5.59c-1.13 2.297-2.253 4.598-3.384 6.895-1.275 2.57-2.567 5.13-3.936 7.651a346 346 0 0 1-4.028 7.224c-1.26 2.2-2.532 4.393-3.79 6.594-1.042 1.843-2.057 3.705-3.196 5.492-.825 1.234-1.694 2.461-2.878 3.383-1.058.75-2.199 1.283-3.53 1.2-.889-.115-1.733-.346-2.479-.864a11 11 0 0 1-1.086-.839q-.442-.378-.88-.76-.545-.471-1.089-.945l-1.35-1.18q-.812-.716-1.627-1.425l-1.745-1.509-1.36-1.185c-.043-.038-.407-.32-.156-.17.29.131.597.217.915.239-4.846-.413-4.263-7.267.584-6.855" transform="translate(0 -197)"/><path style="opacity:1;fill:#020900;fill-opacity:1;stroke:none;stroke-width:1;stroke-linecap:butt;stroke-linejoin:round;stroke-miterlimit:4;stroke-dasharray:none;stroke-opacity:1" d="M23.328 214.858c.743-.115 1.464.042 2.158.298.602.246 1.125.63 1.63 1.032.538.444 1.043.926 1.541 1.415a60 60 0 0 1 2.137 2.275 136 136 0 0 1 2.832 3.26 194 194 0 0 1 3.503 4.311c1.38 1.736 2.736 3.49 4.085 5.25 1.457 1.915 2.91 3.832 4.37 5.745a704 704 0 0 0 4.31 5.596q1.898 2.437 3.8 4.87l3.07 3.931q1.247 1.596 2.477 3.2c.696.914 1.38 1.837 2.063 2.76q.869 1.171 1.728 2.35.765 1.04 1.528 2.085c.468.645.93 1.293 1.396 1.94q.597.828 1.198 1.651l.976 1.33q.39.534.783 1.067l.638.871q.238.329.484.653l.41.545.34.453.27.358.22.292.02.024c-.569-.713-1.355-1.126-2.268-1.244-.33-.043-.665.035-.997.053a3.2 3.2 0 0 0-1.22.548l-.152.125c0-.016.02-.025.03-.038l.844-1.031c.333-.398.654-.805.974-1.213q.508-.645 1.006-1.297.461-.601.916-1.209l.764-1.018.61-.814.487-.649.389-.517.309-.412c.078-.09.246-.352.052-.06 2.626-4.094 8.416-.38 5.79 3.714q-.161.244-.34.475l-.31.412-.387.517-.487.65q-.306.406-.61.813l-.768 1.023a156 156 0 0 1-2.01 2.619c-.352.45-.707.898-1.074 1.338-.327.398-.65.8-.981 1.194-.652.732-1.383 1.32-2.365 1.55-.367.026-.736.118-1.102.077-1.054-.118-1.989-.637-2.61-1.486l-.22-.292-.281-.372-.331-.442-.417-.553q-.272-.36-.538-.725l-.626-.854-.788-1.074-.99-1.35q-.613-.84-1.223-1.684-.685-.958-1.375-1.912-.755-1.034-1.513-2.067-.849-1.16-1.704-2.317a249 249 0 0 0-2.004-2.679q-1.209-1.579-2.433-3.144l-3.07-3.93q-1.906-2.44-3.809-4.883a711 711 0 0 1-4.35-5.647c-1.456-1.909-2.906-3.822-4.36-5.732a364 364 0 0 0-4.006-5.15 189 189 0 0 0-3.372-4.15 130 130 0 0 0-2.685-3.092 55 55 0 0 0-1.855-1.982c-.336-.33-.676-.658-1.035-.963-.28-.231-.093-.077.103-.014.446.15.913.214 1.383.139-4.817.677-5.775-6.135-.958-6.812" transform="translate(0 -197)"/></svg>