<?xml version="1.0" encoding="UTF-8" standalone="no"?>
<!-- Created with Inkscape (http://www.inkscape.org/) -->

<svg
   xmlns:dc="http://purl.org/dc/elements/1.1/"
   xmlns:cc="http://creativecommons.org/ns#"
   xmlns:rdf="http://www.w3.org/1999/02/22-rdf-syntax-ns#"
   xmlns:svg="http://www.w3.org/2000/svg"
   xmlns="http://www.w3.org/2000/svg"
   xmlns:sodipodi="http://sodipodi.sourceforge.net/DTD/sodipodi-0.dtd"
   xmlns:inkscape="http://www.inkscape.org/namespaces/inkscape"
   width="10cm"
   height="10cm"
   viewBox="0 0 100 99.999997"
   version="1.1"
   id="svg8"
   sodipodi:docname="utala.svg"
   inkscape:version="0.92.3 (2405546, 2018-03-11)">
  <defs
     id="defs2" />
  <sodipodi:namedview
     id="base"
     pagecolor="#ffffff"
     bordercolor="#666666"
     borderopacity="1.0"
     inkscape:pageopacity="0.0"
     inkscape:pageshadow="2"
     inkscape:zoom="1"
     inkscape:cx="175.50186"
     inkscape:cy="160.37856"
     inkscape:document-units="cm"
     inkscape:current-layer="layer1"
     showgrid="true"
     units="cm"
     inkscape:window-width="882"
     inkscape:window-height="707"
     inkscape:window-x="970"
     inkscape:window-y="213"
     inkscape:window-maximized="0"
     inkscape:snap-nodes="false">
    <inkscape:grid
       type="xygrid"
       id="grid815"
       units="cm"
       spacingx="9.9999998"
       spacingy="9.9999998" />
  </sodipodi:namedview>
  <metadata
     id="metadata5">
    <rdf:RDF>
      <cc:Work
         rdf:about="">
        <dc:format>image/svg+xml</dc:format>
        <dc:type
           rdf:resource="http://purl.org/dc/dcmitype/StillImage" />
        <dc:title></dc:title>
      </cc:Work>
    </rdf:RDF>
  </metadata>
  <g
     inkscape:label="Layer 1"
     inkscape:groupmode="layer"
     id="layer1"
     transform="translate(0,-197.00002)">
    <path
       style="opacity:1;fill:#020900;fill-opacity:1;stroke:none;stroke-width:1;stroke-linecap:butt;stroke-linejoin:round;stroke-miterlimit:4;stroke-dasharray:none;stroke-opacity:1"
       id="path1601"
       d="m 20.411847,262.83937 c 0.608879,0.0441 1.173438,0.26155 1.713421,0.53163 0.518385,0.27416 0.97186,0.64741 1.415922,1.02599 0.464734,0.40458 0.927543,0.81136 1.39316,1.21494 0.578979,0.50094 1.158208,1.0016 1.737483,1.50221 0.557332,0.48333 1.110843,0.97105 1.665441,1.45752 0.44446,0.39065 0.890283,0.77975 1.336196,1.16874 0.355762,0.31066 0.712941,0.61968 1.069957,0.9289 0.2829,0.24469 0.56497,0.49033 0.849183,0.7335 0.142404,0.10647 0.267152,0.24993 0.422013,0.33629 -0.221676,-0.17476 -0.524143,-0.21695 -0.792443,-0.2655 -0.383749,-0.0685 -0.76182,0.0524 -1.115277,0.14028 0.490013,-0.50224 0.873797,-1.09168 1.258435,-1.67484 1.039101,-1.65364 1.975122,-3.36915 2.936248,-5.06854 1.262784,-2.21129 2.541518,-4.41339 3.806081,-6.62367 1.347351,-2.3465 2.662812,-4.71092 3.953457,-7.08901 1.328627,-2.44664 2.581942,-4.93279 3.819001,-7.42661 1.127914,-2.28977 2.247771,-4.5835 3.374033,-6.87408 0.920684,-1.86598 1.84268,-3.7313 2.763089,-5.59742 0.73578,-1.49205 1.471361,-2.9842 2.206963,-4.47634 0.586452,-1.18961 1.172904,-2.37921 1.759353,-3.56882 0.467418,-0.94815 0.934836,-1.8963 1.402254,-2.84445 0.372541,-0.75569 0.745085,-1.51139 1.117627,-2.26709 0.296926,-0.60231 0.593852,-1.20461 0.890778,-1.80692 0.183504,-0.40216 0.411932,-0.78497 0.576593,-1.1957 1.90559,-4.47551 8.234918,-1.7806 6.329328,2.69491 v 0 c -0.22637,0.52317 -0.482423,1.03203 -0.735777,1.54254 -0.296926,0.60231 -0.593852,1.20461 -0.890776,1.80692 -0.372544,0.7557 -0.745088,1.5114 -1.117629,2.2671 -0.467418,0.94814 -0.934836,1.8963 -1.402254,2.84445 -0.586455,1.18961 -1.172909,2.37922 -1.759368,3.56884 -0.735796,1.49253 -1.471571,2.98508 -2.207546,4.47752 -0.91916,1.86359 -1.839897,3.72639 -2.759348,5.58983 -1.129834,2.29784 -2.253183,4.59885 -3.384777,6.89583 -1.274654,2.56928 -2.566551,5.13041 -3.935548,7.65108 -1.315323,2.42314 -2.655519,4.83259 -4.028476,7.22362 -1.258941,2.2004 -2.531764,4.3928 -3.789233,6.59404 -1.042557,1.84334 -2.057588,3.70463 -3.196,5.49144 -0.825887,1.2346 -1.694347,2.46161 -2.878376,3.38318 -1.057756,0.75043 -2.19864,1.28346 -3.530491,1.20003 -0.888566,-0.11459 -1.732746,-0.34599 -2.478162,-0.86372 -0.378931,-0.25777 -0.742908,-0.53509 -1.086628,-0.83867 -0.294457,-0.25206 -0.586946,-0.50639 -0.880021,-0.76005 -0.363199,-0.31457 -0.726553,-0.62896 -1.088478,-0.945 -0.450592,-0.39308 -0.901092,-0.78627 -1.350224,-1.18102 -0.541899,-0.47532 -1.082734,-0.95187 -1.627217,-1.42424 -0.581879,-0.50285 -1.163713,-1.00576 -1.745291,-1.50896 -0.454155,-0.3937 -0.905986,-0.79004 -1.358761,-1.18532 -0.04419,-0.038 -0.407268,-0.32003 -0.156506,-0.17048 0.28912,0.13187 0.596662,0.21803 0.915019,0.23949 -4.846771,-0.41264 -4.263199,-7.26701 0.583572,-6.85437 z"
       inkscape:connector-curvature="0" />
    <path
       style="opacity:1;fill:#020900;fill-opacity:1;stroke:none;stroke-width:1;stroke-linecap:butt;stroke-linejoin:round;stroke-miterlimit:4;stroke-dasharray:none;stroke-opacity:1"
       id="path1603"
       d="m 23.327821,214.85849 c 0.743411,-0.11523 1.464061,0.0415 2.158515,0.29781 0.601392,0.24573 1.12486,0.62947 1.628735,1.03188 0.538877,0.44382 1.044038,0.92627 1.542037,1.41488 0.737439,0.73422 1.438688,1.50344 2.136415,2.27511 0.96447,1.06919 1.902587,2.16154 2.83265,3.26064 1.194073,1.41504 2.349664,2.86181 3.502734,4.31026 1.379943,1.73592 2.736342,3.49034 4.084902,5.2507 1.457331,1.91419 2.910721,3.83138 4.369316,5.74461 1.426451,1.87328 2.86566,3.73677 4.31083,5.59563 1.264782,1.62504 2.532457,3.24783 3.799739,4.87092 1.023189,1.31039 2.047354,2.62002 3.070413,3.93052 0.830136,1.06324 1.657514,2.12864 2.476714,3.20033 0.695757,0.91353 1.379572,1.83606 2.063576,2.7584 0.57935,0.7808 1.153189,1.56566 1.727747,2.34998 0.509628,0.69512 1.020734,1.38914 1.527649,2.08625 0.468257,0.64438 0.930532,1.29307 1.395743,1.93964 0.397288,0.55214 0.798473,1.10147 1.198957,1.6513 0.324331,0.44395 0.649766,0.88709 0.975079,1.33033 0.260933,0.35553 0.52182,0.71109 0.783231,1.06627 0.213002,0.29011 0.425378,0.58067 0.637825,0.87118 0.159123,0.21914 0.321316,0.43601 0.484042,0.65247 0.136798,0.18177 0.273781,0.3634 0.410742,0.54504 0.114147,0.15021 0.225999,0.30214 0.339297,0.45298 0.09006,0.1197 0.180321,0.23925 0.27056,0.35882 0.0733,0.0971 0.146605,0.19424 0.219911,0.29135 0.0063,0.008 0.02535,0.0327 0.01889,0.0246 -0.56783,-0.7134 -1.35387,-1.12686 -2.267095,-1.24478 -0.33001,-0.0426 -0.664557,0.0354 -0.996837,0.0531 -0.449191,0.10165 -0.852368,0.2761 -1.2198,0.54877 -0.01357,0.01 -0.152122,0.12555 -0.152128,0.12482 -1.37e-4,-0.0164 0.02043,-0.0257 0.03064,-0.0385 0.280633,-0.34406 0.561155,-0.6882 0.843314,-1.031 0.332581,-0.3979 0.653836,-0.80498 0.973939,-1.21293 0.339238,-0.42906 0.672516,-0.86277 1.005769,-1.29647 0.307869,-0.40107 0.611992,-0.80498 0.91577,-1.20914 0.254868,-0.3393 0.509556,-0.67873 0.764263,-1.01814 0.203591,-0.27131 0.407177,-0.54261 0.610764,-0.81392 0.162277,-0.21625 0.324554,-0.43251 0.48683,-0.64876 0.129339,-0.17236 0.258678,-0.34473 0.388017,-0.51709 0.103087,-0.13737 0.206171,-0.27475 0.309258,-0.41212 0.07858,-0.09 0.246547,-0.35244 0.052,-0.06 2.626283,-4.09439 8.416639,-0.38027 5.790355,3.71413 v 0 c -0.107002,0.16283 -0.221577,0.32016 -0.340071,0.47479 -0.103087,0.13737 -0.206174,0.27475 -0.309258,0.41212 -0.129339,0.17236 -0.258678,0.34472 -0.388017,0.51708 -0.162277,0.21626 -0.324554,0.43251 -0.486833,0.64877 -0.203613,0.27134 -0.407226,0.54268 -0.610841,0.81402 -0.255768,0.34083 -0.511517,0.68167 -0.767448,1.02238 -0.318408,0.42362 -0.637238,0.84693 -0.959959,1.26728 -0.347514,0.45227 -0.695155,0.90446 -1.048834,1.35194 -0.35315,0.44999 -0.707909,0.89875 -1.074444,1.33797 -0.327494,0.39784 -0.650391,0.79948 -0.981827,1.19404 -0.651658,0.73182 -1.382916,1.32045 -2.364708,1.55096 -0.367281,0.0253 -0.735983,0.11703 -1.101844,0.076 -1.05361,-0.11814 -1.98887,-0.63633 -2.61054,-1.48556 -0.07339,-0.0972 -0.146775,-0.19445 -0.220158,-0.29168 -0.09359,-0.12401 -0.1872,-0.248 -0.280598,-0.37215 -0.110535,-0.14723 -0.21976,-0.29544 -0.331086,-0.44207 -0.138994,-0.18434 -0.278009,-0.36866 -0.41683,-0.55312 -0.180872,-0.24063 -0.361061,-0.48178 -0.538033,-0.7253 -0.208301,-0.28484 -0.416536,-0.56973 -0.625364,-0.85419 -0.263213,-0.35762 -0.525904,-0.71563 -0.78863,-1.07362 -0.330235,-0.44994 -0.660596,-0.89979 -0.989812,-1.35048 -0.408366,-0.56065 -0.817422,-1.12081 -1.22251,-1.68384 -0.458457,-0.63722 -0.914074,-1.27648 -1.375463,-1.91159 -0.502142,-0.69058 -1.008544,-1.37802 -1.513348,-2.06666 -0.566621,-0.77349 -1.132506,-1.54753 -1.703842,-2.31755 -0.664178,-0.89562 -1.328103,-1.79149 -2.003547,-2.67867 -0.804849,-1.05312 -1.61807,-2.09981 -2.433677,-3.14461 -1.022956,-1.31037 -2.04702,-2.61986 -3.070103,-3.93013 -1.270215,-1.62685 -2.540826,-3.25339 -3.808529,-4.8822 -1.458471,-1.87601 -2.910941,-3.75667 -4.350541,-5.64721 -1.455365,-1.909 -2.905593,-3.8219 -4.359619,-5.73192 -1.322515,-1.72647 -2.652713,-3.44711 -4.005982,-5.14965 -1.11034,-1.39483 -2.222699,-2.7884 -3.372266,-4.15129 -0.881401,-1.04185 -1.770295,-2.07742 -2.684253,-3.09097 -0.60686,-0.67152 -1.215878,-1.34172 -1.855618,-1.98232 -0.335577,-0.33069 -0.675407,-0.65759 -1.034434,-0.96299 -0.28087,-0.23117 -0.09371,-0.0772 0.102285,-0.0141 0.446686,0.14922 0.913924,0.21394 1.383259,0.13882 -4.816907,0.6774 -5.774902,-6.13473 -0.957996,-6.81214 z"
       inkscape:connector-curvature="0" />
  </g>
</svg>
