<?xml version="1.0" encoding="UTF-8" standalone="no"?>
<!-- Created with Inkscape (http://www.inkscape.org/) -->

<svg
   xmlns:dc="http://purl.org/dc/elements/1.1/"
   xmlns:cc="http://creativecommons.org/ns#"
   xmlns:rdf="http://www.w3.org/1999/02/22-rdf-syntax-ns#"
   xmlns:svg="http://www.w3.org/2000/svg"
   xmlns="http://www.w3.org/2000/svg"
   xmlns:sodipodi="http://sodipodi.sourceforge.net/DTD/sodipodi-0.dtd"
   xmlns:inkscape="http://www.inkscape.org/namespaces/inkscape"
   width="10cm"
   height="10cm"
   viewBox="0 0 100 99.999997"
   version="1.1"
   id="svg8"
   sodipodi:docname="walo.svg"
   inkscape:version="0.92.3 (2405546, 2018-03-11)">
  <defs
     id="defs2" />
  <sodipodi:namedview
     id="base"
     pagecolor="#ffffff"
     bordercolor="#666666"
     borderopacity="1.0"
     inkscape:pageopacity="0.0"
     inkscape:pageshadow="2"
     inkscape:zoom="1"
     inkscape:cx="175.50186"
     inkscape:cy="160.37856"
     inkscape:document-units="cm"
     inkscape:current-layer="layer1"
     showgrid="true"
     units="cm"
     inkscape:window-width="882"
     inkscape:window-height="707"
     inkscape:window-x="970"
     inkscape:window-y="213"
     inkscape:window-maximized="0"
     inkscape:snap-nodes="false">
    <inkscape:grid
       type="xygrid"
       id="grid815"
       units="cm"
       spacingx="9.9999998"
       spacingy="9.9999998" />
  </sodipodi:namedview>
  <metadata
     id="metadata5">
    <rdf:RDF>
      <cc:Work
         rdf:about="">
        <dc:format>image/svg+xml</dc:format>
        <dc:type
           rdf:resource="http://purl.org/dc/dcmitype/StillImage" />
        <dc:title></dc:title>
      </cc:Work>
    </rdf:RDF>
  </metadata>
  <g
     inkscape:label="Layer 1"
     inkscape:groupmode="layer"
     id="layer1"
     transform="translate(0,-197.00002)">
    <path
       style="opacity:1;fill:#020900;fill-opacity:1;stroke:none;stroke-width:1;stroke-linecap:butt;stroke-linejoin:round;stroke-miterlimit:4;stroke-dasharray:none;stroke-opacity:1"
       id="path1605"
       d="m 72.943126,278.33154 c -0.108738,-0.004 -0.217561,-0.007 -0.326363,-0.009 -0.210476,-0.004 -0.420979,-0.007 -0.631481,-0.009 -0.288915,-0.003 -0.57784,-0.006 -0.866765,-0.008 -0.416094,-0.001 -0.831963,-0.0121 -1.247584,-0.0314 -0.501502,-0.0265 -1.001628,-0.073 -1.501844,-0.11662 -0.534098,-0.0479 -1.068766,-0.0888 -1.6037,-0.12605 -0.651008,-0.04 -1.300941,-0.0947 -1.950853,-0.14919 -0.720894,-0.0602 -1.441214,-0.127 -2.161706,-0.19176 -0.795989,-0.0724 -1.592136,-0.14294 -2.387873,-0.21805 -0.822266,-0.0804 -1.645152,-0.15385 -2.468546,-0.22162 -0.840359,-0.0684 -1.681533,-0.12615 -2.522882,-0.18088 -0.86561,-0.0542 -1.731216,-0.1085 -2.597012,-0.15967 -0.910333,-0.0541 -1.821249,-0.0971 -2.732424,-0.134 -0.97238,-0.0398 -1.945428,-0.0577 -2.91847,-0.0709 -1.02045,-0.0111 -2.040969,-0.008 -3.061396,0.003 -1.061842,0.0145 -2.123107,0.0547 -3.184072,0.0986 -1.10725,0.0456 -2.213661,0.10846 -3.319876,0.17395 -1.058947,0.0624 -2.117428,0.13149 -3.175103,0.21262 -0.978231,0.0745 -1.953186,0.18319 -2.926217,0.3072 -0.909424,0.12049 -1.817333,0.25204 -2.725375,0.38241 -0.747816,0.10668 -1.495198,0.21632 -2.242555,0.32612 -0.598737,0.088 -1.197457,0.17617 -1.796179,0.2643 -0.477436,0.0703 -0.954872,0.14056 -1.432308,0.21084 -0.380534,0.056 -0.761067,0.11202 -1.141601,0.16804 -0.305196,0.0433 -0.609296,0.0937 -0.914723,0.13532 -0.706615,0.077 -1.462995,0.0599 -2.122625,-0.24379 -0.312694,-0.14397 -0.592789,-0.35018 -0.889183,-0.52526 -0.258867,-0.2893 -0.571267,-0.53844 -0.776602,-0.8679 -0.652305,-1.04662 -0.663571,-2.18815 -0.319759,-3.31667 0.15008,-0.45154 0.347821,-0.88485 0.550196,-1.31478 0.223881,-0.47281 0.459276,-0.94001 0.696029,-1.40646 0.289472,-0.57172 0.570905,-1.14746 0.854159,-1.72227 0.352665,-0.71505 0.703689,-1.43091 1.058571,-2.14487 0.407024,-0.81187 0.806865,-1.62731 1.206736,-2.44271 0.440583,-0.89029 0.873412,-1.78436 1.295059,-2.68377 0.444333,-0.94614 0.864123,-1.90345 1.277389,-2.86347 0.450765,-1.05518 0.895828,-2.11277 1.344798,-3.16872 0.474221,-1.11037 0.952799,-2.21888 1.427119,-3.32921 0.496162,-1.16309 0.986266,-2.32874 1.474962,-3.49499 0.52927,-1.25459 1.053026,-2.51144 1.566156,-3.77272 0.530418,-1.31121 1.050756,-2.62646 1.564587,-3.94426 0.517702,-1.32947 1.014778,-2.66675 1.500315,-4.00826 0.480922,-1.34408 0.941967,-2.69514 1.403889,-4.04583 0.416354,-1.21344 0.823717,-2.42991 1.228844,-3.64712 0.358352,-1.07868 0.714436,-2.15811 1.074328,-3.23628 0.320265,-0.96227 0.643321,-1.92359 0.966015,-2.88505 0.284363,-0.8538 0.568256,-1.70777 0.850553,-2.56227 0.244234,-0.74457 0.486265,-1.48986 0.733782,-2.23336 0.205571,-0.6117 0.412173,-1.22306 0.618657,-1.83445 0.163978,-0.48551 0.327977,-0.97102 0.491974,-1.45652 0.132964,-0.39275 0.264388,-0.78603 0.399669,-1.17799 0.132342,-0.39426 0.288076,-0.77939 0.464696,-1.15571 0.37125,-0.72406 0.903343,-1.42787 1.657604,-1.79097 0.358087,-0.17239 0.751985,-0.25747 1.127979,-0.3862 0.451409,0.0134 0.911299,-0.0481 1.354228,0.0401 1.17979,0.2347 2.002803,1.08256 2.555216,2.08157 0.218231,0.42629 0.393396,0.8727 0.565645,1.31899 0.201358,0.53481 0.395708,1.07224 0.5916,1.60907 0.256715,0.71198 0.534551,1.416 0.817544,2.11786 0.34979,0.86181 0.7283,1.7115 1.108731,2.5601 0.437822,0.97439 0.895715,1.93955 1.342448,2.90985 0.491284,1.06547 0.952373,2.14434 1.399652,3.22889 0.456522,1.11887 0.891349,2.24643 1.327287,3.37343 0.42984,1.11947 0.860465,2.23864 1.291048,3.35781 0.43135,1.12511 0.854752,2.25322 1.289142,3.37716 0.433467,1.11582 0.883814,2.22499 1.342446,3.33067 0.48356,1.15242 0.977596,2.30042 1.476483,3.44627 0.497226,1.14387 1.019532,2.27647 1.555224,3.40275 0.504888,1.06482 1.043654,2.11285 1.598647,3.15226 0.518255,0.97055 1.078349,1.91766 1.648004,2.85865 0.52741,0.87391 1.089184,1.72614 1.659679,2.5723 0.538059,0.8005 1.102159,1.58289 1.671076,2.3616 0.550151,0.75079 1.103535,1.4992 1.663557,2.24266 0.501391,0.66762 1.018617,1.32301 1.543228,1.97246 0.492294,0.60351 0.989187,1.20325 1.484545,1.80425 0.436608,0.53156 0.869881,1.06583 1.307481,1.59658 0.376375,0.45413 0.749514,0.91089 1.116587,1.37257 0.314213,0.39668 0.622046,0.79831 0.925546,1.20322 0.264674,0.35385 0.521124,0.71371 0.774796,1.0755 0.194889,0.27891 0.389853,0.55777 0.583872,0.83728 0.158292,0.22928 0.315444,0.45933 0.472715,0.68931 0.122145,0.17862 0.244268,0.35727 0.366395,0.53591 0.09124,0.13344 0.18206,0.26718 0.274603,0.39973 0.07698,0.10994 0.154225,0.2197 0.231444,0.32948 0.06351,0.0903 0.127034,0.18057 0.190553,0.27085 0.137255,0.18437 0.253606,0.38171 0.367271,0.58121 0.537054,1.03832 0.526402,2.18442 0.04903,3.25627 -0.129918,0.29171 -0.359264,0.52804 -0.538898,0.79205 -3.224181,3.64227 -8.375129,-0.91741 -5.150948,-4.55968 v 0 c -0.160089,0.24194 -0.366048,0.45913 -0.480264,0.72581 -0.423889,0.98974 -0.456665,2.05716 0.04635,3.01365 0.05268,0.0901 0.254014,0.40601 0.08122,0.14903 -0.06364,-0.0905 -0.127283,-0.18092 -0.190921,-0.27138 -0.08222,-0.11689 -0.164472,-0.23375 -0.246406,-0.35084 -0.105018,-0.15058 -0.208508,-0.30221 -0.311983,-0.45385 -0.12191,-0.17832 -0.243817,-0.35665 -0.365745,-0.53496 -0.148349,-0.21692 -0.296592,-0.43393 -0.445815,-0.65026 -0.187917,-0.27078 -0.376838,-0.54087 -0.565594,-0.81108 -0.211802,-0.30227 -0.425768,-0.60306 -0.646695,-0.89877 -0.2643,-0.35279 -0.532407,-0.70269 -0.806005,-1.04834 -0.341294,-0.42964 -0.688962,-0.8541 -1.038955,-1.27667 -0.437761,-0.531 -0.871406,-1.06536 -1.308055,-1.59728 -0.509977,-0.61873 -1.021591,-1.23612 -1.528133,-1.85767 -0.573109,-0.70989 -1.138253,-1.42619 -1.686198,-2.15576 -0.580096,-0.77031 -1.153615,-1.54552 -1.723472,-2.32343 -0.620003,-0.84884 -1.234127,-1.70213 -1.8206,-2.57464 -0.632894,-0.93927 -1.255456,-1.88571 -1.840735,-2.85563 -0.633365,-1.04705 -1.255348,-2.10133 -1.83151,-3.18123 -0.604626,-1.13346 -1.191921,-2.27614 -1.742278,-3.4371 -0.568177,-1.19524 -1.122424,-2.39704 -1.649963,-3.61085 -0.514842,-1.18264 -1.02475,-2.36746 -1.523537,-3.55697 -0.479883,-1.15735 -0.95128,-2.31827 -1.404755,-3.48626 -0.435525,-1.12716 -0.860499,-2.25833 -1.292828,-3.38671 -0.429091,-1.11531 -0.858248,-2.23059 -1.286568,-3.3462 -0.417804,-1.08014 -0.834351,-2.16088 -1.271368,-3.23345 -0.411594,-0.99898 -0.836163,-1.99265 -1.288495,-2.97398 -0.456258,-0.99126 -0.924314,-1.97708 -1.37101,-2.97273 -0.416229,-0.92873 -0.829648,-1.85897 -1.21181,-2.80238 -0.311242,-0.7726 -0.616677,-1.5476 -0.899422,-2.33117 -0.182197,-0.49931 -0.363143,-0.99909 -0.549539,-1.49684 -0.07463,-0.19486 -0.15312,-0.38857 -0.230997,-0.58191 0.447288,0.72511 1.215892,1.27785 2.064752,1.43219 0.414822,0.0754 0.843129,0.0137 1.264695,0.0205 0.346618,-0.12374 0.709925,-0.20812 1.039858,-0.37121 0.517742,-0.25594 0.962948,-0.73402 1.219258,-1.24872 -0.02222,0.0482 -0.128199,0.30464 -0.160353,0.41672 -0.130374,0.37717 -0.256371,0.75583 -0.384559,1.13375 -0.163954,0.48538 -0.327911,0.97076 -0.49185,1.45615 -0.203332,0.60206 -0.406762,1.2041 -0.609264,1.80644 -0.245888,0.73845 -0.486039,1.47876 -0.728768,2.21825 -0.28571,0.86479 -0.573,1.72906 -0.860838,2.59315 -0.321495,0.95788 -0.643358,1.91564 -0.96243,2.87434 -0.359267,1.07626 -0.714676,2.1538 -1.072425,3.23057 -0.411088,1.2351 -0.824473,2.46944 -1.246925,3.70071 -0.475136,1.3893 -0.949487,2.77894 -1.444538,4.16132 -0.504791,1.39424 -1.0214,2.78416 -1.559573,4.16591 -0.526047,1.34898 -1.058685,2.69539 -1.60178,4.03762 -0.522187,1.28333 -1.054867,2.56228 -1.593453,3.83881 -0.494826,1.18087 -0.9911,2.36114 -1.493499,3.53881 -0.4728,1.10676 -0.949782,2.21172 -1.422553,3.3185 -0.453051,1.06552 -0.902076,2.13275 -1.357088,3.19744 -0.442378,1.02725 -0.891971,2.0515 -1.36752,3.06393 -0.438851,0.93543 -0.888442,1.86574 -1.346856,2.79175 -0.40531,0.8265 -0.810622,1.65301 -1.223141,2.47594 -0.351385,0.70683 -0.698797,1.41561 -1.048002,2.12352 -0.295272,0.59919 -0.588728,1.19931 -0.890639,1.7952 -0.207135,0.40802 -0.413504,0.81648 -0.60959,1.22997 -0.07827,0.16495 -0.155104,0.33116 -0.226821,0.49877 0.217309,-0.86383 0.04174,-1.77997 -0.44329,-2.53335 -0.193864,-0.30112 -0.484686,-0.52736 -0.727029,-0.79104 -0.719268,-0.41181 -1.308372,-0.77735 -2.160078,-0.66395 0.270448,-0.028 0.537198,-0.0903 0.807513,-0.1204 0.380534,-0.056 0.761068,-0.11203 1.141602,-0.16804 0.477451,-0.0703 0.954902,-0.14057 1.432353,-0.21084 0.599323,-0.0882 1.198644,-0.17645 1.797982,-0.26457 0.754782,-0.11089 1.509589,-0.22161 2.264829,-0.32935 0.944623,-0.13563 1.889109,-0.27245 2.835233,-0.39729 1.086884,-0.13795 2.175893,-0.25906 3.268522,-0.34206 1.097338,-0.084 2.195475,-0.15611 3.294131,-0.22069 1.147117,-0.0679 2.294446,-0.13286 3.442634,-0.18012 1.130432,-0.0466 2.26119,-0.0891 3.392559,-0.10403 1.07664,-0.0117 2.153372,-0.0147 3.230033,-0.003 1.034876,0.0141 2.069748,0.0335 3.103915,0.0759 0.953587,0.0387 1.906907,0.0837 2.859614,0.14033 0.879348,0.052 1.758508,0.10709 2.637665,0.16221 0.880679,0.0573 1.76117,0.11783 2.640812,0.18956 0.850746,0.0701 1.700993,0.14585 2.550586,0.22888 0.785489,0.0742 1.5714,0.1437 2.357138,0.21521 0.706721,0.0635 1.413272,0.12905 2.120382,0.18817 0.617775,0.0518 1.235551,0.10407 1.85439,0.1418 0.574982,0.0401 1.149686,0.084 1.723779,0.13547 0.410276,0.0358 0.820423,0.0745 1.231617,0.0984 0.322762,0.0161 0.645819,0.0225 0.968973,0.0238 0.299254,0.002 0.598506,0.004 0.897747,0.008 0.23114,0.003 0.46228,0.006 0.693391,0.0102 0.172839,0.004 0.345699,0.007 0.518398,0.0154 4.858557,0.23638 4.524277,7.10741 -0.334283,6.87104 z"
       inkscape:connector-curvature="0" />
    <path
       style="opacity:1;fill:#020900;fill-opacity:1;stroke:none;stroke-width:1;stroke-linecap:butt;stroke-linejoin:round;stroke-miterlimit:4;stroke-dasharray:none;stroke-opacity:1"
       id="path1607"
       d="m 57.538601,242.34739 c -0.02793,-0.0265 -0.467379,0.24669 -0.340077,0.14773 0.207849,-0.16163 0.397896,-0.34454 0.587893,-0.52636 0.52935,-0.51897 1.041215,-1.05537 1.555491,-1.58917 0.696521,-0.72233 1.396688,-1.44113 2.098109,-2.1587 0.603864,-0.61769 1.208468,-1.23464 1.813412,-1.85127 0.490635,-0.50332 0.98408,-1.00388 1.478049,-1.50393 0.404689,-0.40771 0.811427,-0.81337 1.217936,-1.21926 0.287427,-0.29029 0.58289,-0.57273 0.861597,-0.87151 0.01365,-0.0161 0.0304,-0.0301 0.04094,-0.0484 0.0075,-0.013 -0.02212,0.0203 -0.03146,0.0319 -0.04185,0.0523 -0.08127,0.10653 -0.121907,0.15979 2.67753,-4.06107 8.420751,-0.27447 5.74322,3.7866 v 0 c -0.191817,0.2709 -0.382299,0.54187 -0.616146,0.77925 -0.330856,0.35103 -0.673756,0.69012 -1.015653,1.03035 -0.395356,0.39475 -0.790935,0.7893 -1.184595,1.18574 -0.488408,0.49442 -0.976289,0.98935 -1.461389,1.48701 -0.602033,0.61366 -1.203727,1.22764 -1.804686,1.84235 -0.689811,0.70568 -1.378386,1.41257 -2.063382,2.12292 -0.583205,0.60534 -1.163876,1.21352 -1.766896,1.7993 -0.409881,0.38878 -0.826381,0.77241 -1.283382,1.10604 -0.388469,0.2794 -0.791649,0.54193 -1.241936,0.71189 -4.541258,1.74311 -7.006391,-4.67919 -2.465133,-6.42231 z"
       inkscape:connector-curvature="0" />
    <path
       style="opacity:1;fill:#020900;fill-opacity:1;stroke:none;stroke-width:1;stroke-linecap:butt;stroke-linejoin:round;stroke-miterlimit:4;stroke-dasharray:none;stroke-opacity:1"
       id="path1609"
       d="m 26.169612,244.3687 c 0.03898,0.44224 0.163823,0.87189 0.396555,1.25055 0.0894,0.11832 -0.332622,-0.30513 -0.344906,-0.3167 -0.408085,-0.36848 -0.818651,-0.73409 -1.222355,-1.1074 -0.554425,-0.51862 -1.096443,-1.05031 -1.637207,-1.58309 -0.548865,-0.54463 -1.097936,-1.08903 -1.650949,-1.62946 -0.506478,-0.49171 -1.016647,-0.97961 -1.527161,-1.46712 -0.44381,-0.423 -0.889015,-0.84454 -1.333469,-1.26686 -0.361094,-0.34229 -0.722905,-0.68383 -1.084637,-1.02545 -0.298611,-0.28197 -0.59506,-0.56622 -0.891475,-0.8505 -0.23217,-0.22274 -0.464272,-0.44555 -0.69638,-0.66836 -0.18473,-0.17732 -0.369457,-0.35465 -0.554186,-0.53197 -0.147225,-0.14133 -0.294451,-0.28266 -0.441677,-0.42398 -0.142303,-0.13565 -0.283914,-0.27192 -0.422609,-0.41125 -0.04667,-0.05 -0.09334,-0.0999 -0.140005,-0.14991 -3.278077,-3.59383 1.804379,-8.22973 5.082456,-4.6359 v 0 c -0.01247,-0.0125 -0.02495,-0.0249 -0.03742,-0.0374 0.07577,0.0759 0.191163,0.18444 0.281443,0.27177 0.147226,0.14133 0.294451,0.28266 0.441677,0.42398 0.18471,0.17731 0.369419,0.35462 0.554131,0.53193 0.231378,0.2221 0.462749,0.44421 0.694187,0.66625 0.283683,0.27207 0.567364,0.54415 0.853141,0.81402 0.366835,0.34644 0.733752,0.69279 1.099925,1.03993 0.448602,0.42627 0.897969,0.85173 1.345899,1.2787 0.52966,0.50582 1.058969,1.01203 1.58431,1.52233 0.559728,0.54706 1.1157,1.09792 1.671169,1.6493 0.489585,0.4825 0.980239,0.96408 1.481555,1.43444 0.421664,0.39069 0.853832,0.76966 1.277083,1.15862 0.419095,0.39759 0.835258,0.80239 1.180645,1.26764 0.462696,0.66017 0.820198,1.37261 0.892718,2.1903 0.428238,4.84541 -6.424219,5.45103 -6.852457,0.60562 z"
       inkscape:connector-curvature="0" />
  </g>
</svg>
