<svg viewBox="0 0 100 100"><path style="opacity:1;fill:#020900;fill-opacity:1;stroke:none;stroke-width:1;stroke-linecap:butt;stroke-linejoin:round;stroke-miterlimit:4;stroke-dasharray:none;stroke-opacity:1" d="m72.943 278.332-.326-.01-.632-.008-.866-.008a28 28 0 0 1-1.248-.032c-.502-.026-1.002-.073-1.502-.116a81 81 0 0 0-1.604-.127c-.65-.04-1.3-.094-1.95-.149-.721-.06-1.442-.127-2.162-.191-.796-.073-1.592-.143-2.388-.219q-1.233-.12-2.469-.221c-.84-.069-1.681-.126-2.522-.181q-1.3-.082-2.597-.16a145 145 0 0 0-2.733-.134 107 107 0 0 0-2.918-.07q-1.53-.016-3.062.002c-1.062.015-2.123.055-3.184.099a185 185 0 0 0-3.32.174q-1.588.091-3.175.213c-.978.074-1.953.183-2.926.307-.91.12-1.817.252-2.725.382q-1.122.161-2.243.326l-1.796.265-1.432.21-1.142.168c-.305.044-.61.094-.915.136-.706.077-1.463.06-2.122-.244-.313-.144-.593-.35-.89-.525-.258-.29-.57-.539-.776-.868-.652-1.047-.664-2.188-.32-3.317.15-.451.348-.885.55-1.315.224-.472.46-.94.696-1.406.29-.572.571-1.148.854-1.722q.528-1.073 1.059-2.145.609-1.22 1.207-2.443.661-1.334 1.295-2.684c.444-.946.864-1.903 1.277-2.863.451-1.055.896-2.113 1.345-3.169.474-1.11.953-2.219 1.427-3.33q.743-1.744 1.475-3.494.796-1.882 1.566-3.773.794-1.967 1.565-3.944a176 176 0 0 0 1.5-4.008c.481-1.344.942-2.695 1.404-4.046q.623-1.821 1.229-3.647.535-1.619 1.074-3.237.481-1.443.966-2.885.427-1.28.85-2.562c.245-.744.487-1.49.735-2.233q.308-.918.618-1.835l.492-1.456q.199-.59.4-1.178.199-.591.465-1.156c.37-.724.903-1.428 1.657-1.79.358-.173.752-.258 1.128-.387.452.013.911-.048 1.354.04 1.18.235 2.003 1.083 2.556 2.082.218.426.393.872.565 1.319.202.534.396 1.072.592 1.609.257.712.534 1.416.817 2.118.35.861.729 1.711 1.11 2.56.437.974.895 1.94 1.342 2.91a86 86 0 0 1 1.4 3.228c.456 1.12.89 2.247 1.326 3.374l1.292 3.358c.43 1.125.854 2.253 1.289 3.377a158 158 0 0 0 1.342 3.33q.727 1.728 1.477 3.447c.497 1.144 1.02 2.276 1.555 3.402a74 74 0 0 0 1.598 3.153 61 61 0 0 0 1.648 2.858c.528.874 1.09 1.727 1.66 2.573a74 74 0 0 0 1.671 2.361q.825 1.127 1.664 2.243a71 71 0 0 0 1.543 1.972c.492.604.99 1.204 1.485 1.805l1.307 1.596q.565.68 1.117 1.373.47.595.925 1.203.396.532.775 1.076.293.417.584.837l.473.69.366.535q.136.2.275.4l.231.33.19.27c.138.184.254.382.368.581.537 1.039.526 2.185.049 3.257-.13.291-.36.528-.54.792-3.223 3.642-8.374-.918-5.15-4.56-.16.242-.366.46-.48.726-.424.99-.457 2.057.046 3.013.053.09.254.406.081.15l-.19-.272-.247-.35q-.157-.227-.312-.455l-.366-.535q-.222-.326-.446-.65l-.565-.811a36 36 0 0 0-1.453-1.947q-.513-.644-1.039-1.277c-.438-.53-.871-1.065-1.308-1.597q-.766-.927-1.528-1.858a78 78 0 0 1-1.686-2.155q-.87-1.156-1.724-2.324a81 81 0 0 1-1.82-2.575 68 68 0 0 1-1.841-2.855 68 68 0 0 1-1.832-3.181 81 81 0 0 1-1.742-3.437 118 118 0 0 1-1.65-3.611 286 286 0 0 1-1.523-3.557c-.48-1.158-.952-2.319-1.405-3.487-.436-1.127-.86-2.258-1.293-3.386l-1.286-3.346c-.418-1.08-.835-2.161-1.272-3.234a79 79 0 0 0-1.288-2.974c-.457-.991-.925-1.977-1.371-2.973a68 68 0 0 1-2.111-5.134q-.273-.748-.55-1.496-.113-.292-.231-.582c.447.725 1.216 1.278 2.065 1.432.414.076.843.014 1.264.02.347-.123.71-.207 1.04-.37.518-.256.963-.734 1.22-1.25a5 5 0 0 0-.16.418q-.195.566-.385 1.133l-.492 1.456-.61 1.807q-.366 1.108-.728 2.218-.429 1.298-.861 2.593-.484 1.437-.963 2.875-.537 1.614-1.072 3.23-.614 1.854-1.247 3.7c-.475 1.39-.95 2.78-1.444 4.162a185 185 0 0 1-1.56 4.166 343 343 0 0 1-1.602 4.038 324 324 0 0 1-1.593 3.839 598 598 0 0 1-1.494 3.538c-.473 1.107-.95 2.212-1.422 3.319-.453 1.065-.902 2.133-1.357 3.197a103 103 0 0 1-1.368 3.064q-.659 1.404-1.347 2.792c-.405.827-.81 1.653-1.223 2.476q-.526 1.061-1.048 2.123c-.295.6-.589 1.2-.89 1.796-.208.408-.414.816-.61 1.23q-.118.247-.227.498c.217-.863.042-1.78-.443-2.533-.194-.301-.485-.527-.727-.791-.72-.412-1.309-.777-2.16-.664.27-.028.537-.09.807-.12l1.142-.168 1.432-.211 1.798-.265 2.265-.33c.945-.135 1.889-.272 2.835-.396a65 65 0 0 1 3.269-.342q1.645-.125 3.294-.221a188 188 0 0 1 3.442-.18c1.13-.047 2.262-.09 3.393-.104q1.615-.02 3.23-.003c1.035.014 2.07.033 3.104.076q1.43.056 2.86.14 1.319.079 2.637.162 1.32.084 2.641.19 1.276.105 2.55.229c.786.074 1.572.143 2.358.215.706.063 1.413.129 2.12.188.618.052 1.236.104 1.854.142q.863.06 1.724.135c.41.036.82.075 1.232.099q.484.023.969.023a134 134 0 0 1 1.591.019q.26.005.518.015c4.859.236 4.525 7.107-.334 6.871z" transform="translate(0 -197)"/><path style="opacity:1;fill:#020900;fill-opacity:1;stroke:none;stroke-width:1;stroke-linecap:butt;stroke-linejoin:round;stroke-miterlimit:4;stroke-dasharray:none;stroke-opacity:1" d="M57.539 242.347c-.028-.026-.468.247-.34.148.207-.162.397-.344.587-.526.53-.52 1.042-1.056 1.556-1.59a442 442 0 0 1 2.098-2.158 1479 1479 0 0 1 3.291-3.355q.608-.611 1.218-1.22c.288-.29.583-.572.862-.871q.023-.022.041-.048c.007-.013-.022.02-.032.031l-.121.16c2.677-4.06 8.42-.274 5.743 3.787-.192.27-.382.542-.616.78-.331.35-.674.69-1.016 1.03l-1.185 1.185q-.733.742-1.461 1.487l-1.805 1.843q-1.035 1.057-2.063 2.122c-.583.606-1.164 1.214-1.767 1.8-.41.389-.826.772-1.283 1.106-.389.28-.792.542-1.242.712-4.542 1.743-7.007-4.68-2.465-6.423m-31.369 2.022c.039.442.163.872.396 1.25.09.119-.332-.305-.345-.316-.408-.369-.818-.735-1.222-1.108a88 88 0 0 1-1.637-1.583 304 304 0 0 0-1.651-1.63 257 257 0 0 0-1.527-1.467l-1.334-1.266q-.542-.514-1.085-1.026-.447-.423-.891-.85l-.696-.669-.555-.532-.441-.424a23 23 0 0 1-.423-.41l-.14-.15c-3.278-3.595 1.805-8.23 5.083-4.637l-.038-.037c.076.076.191.184.282.272l.441.424.554.532.695.666q.424.409.853.814l1.1 1.04 1.346 1.278q.796.759 1.584 1.523.84.821 1.671 1.65c.49.482.98.963 1.482 1.434.421.39.853.77 1.277 1.158.419.398.835.803 1.18 1.268.463.66.82 1.372.893 2.19.428 4.846-6.424 5.451-6.852.606" transform="translate(0 -197)"/></svg>