<svg viewBox="0 0 100 100"><path style="opacity:1;fill:#020900;fill-opacity:1;stroke:none;stroke-width:1;stroke-linecap:butt;stroke-linejoin:round;stroke-miterlimit:4;stroke-dasharray:none;stroke-opacity:1" d="M27.739 225.617c.072-.04.148-.082.218-.125.077-.05.147-.11.22-.168.203-.162.398-.335.59-.51.302-.278.59-.568.883-.855.362-.35.721-.701 1.07-1.064.394-.41.767-.838 1.135-1.272q.735-.886 1.496-1.748c.531-.597 1.07-1.185 1.608-1.775.51-.558 1.026-1.11 1.538-1.666q.725-.79 1.457-1.57c.442-.47.878-.945 1.316-1.418q.555-.596 1.1-1.202.45-.503.897-1.009l.73-.825.583-.658.464-.524c.324-.403.727-.715 1.15-1.004 1.131-.649 2.234-.666 3.44-.249.747.301 1.326.83 1.815 1.456.299.408.518.864.712 1.328a11 11 0 0 1 .663 2.578c.065.474.11.95.147 1.425.044.554.065 1.108.077 1.662.01.575.007 1.15.003 1.725q-.01.926-.023 1.853-.016 1.033-.037 2.067a507 507 0 0 0-.062 4.518q-.01 1.183.01 2.366a101 101 0 0 0 .218 5.307c.068 1.108.157 2.215.252 3.321.109 1.275.231 2.549.346 3.823.123 1.407.24 2.814.362 4.22.125 1.415.254 2.83.375 4.244q.178 2.109.337 4.22.151 2.022.3 4.045.133 1.88.252 3.76.105 1.712.232 3.42.114 1.478.234 2.955a892 892 0 0 1 .476 6.192 153 153 0 0 1 .173 2.69 84 84 0 0 1 .071 2.208q.008.465.012.93l.006.75v.645l-.002.486-.001.39-.001.331-.001.275q-.001.168-.008.337l-.006.187-.006.145-.004.112-.002.082c-.01.232.028.517-.045-.573.795 4.799-5.992 5.922-6.786 1.123-.019-.257-.056-.494-.046-.744l.004-.125.004-.124.006-.145.006-.177c.002-.063.004-.082.004-.12v-.275l.001-.332.002-.391.001-.485.001-.564-.006-.746q-.003-.427-.011-.854-.009-.48-.025-.962-.013-.506-.038-1.013a151 151 0 0 0-.164-2.564 554 554 0 0 0-.278-3.685l-.193-2.452q-.123-1.497-.238-2.996a263 263 0 0 1-.238-3.494 418 418 0 0 0-.248-3.7q-.146-2.012-.298-4.023a419 419 0 0 0-.33-4.151c-.122-1.412-.25-2.823-.375-4.235-.122-1.4-.238-2.799-.36-4.198-.116-1.285-.24-2.57-.35-3.856a150 150 0 0 1-.263-3.478 107 107 0 0 1-.231-5.635c-.012-.838-.018-1.677-.01-2.515q.01-1.19.027-2.377.015-1.111.036-2.222.021-1.014.036-2.028.013-.904.023-1.809a65 65 0 0 0-.001-1.532 22 22 0 0 0-.158-2.267 4.3 4.3 0 0 0-.214-.928c-.005-.014-.022-.056-.013-.044.041.054.07.118.117.167.311.377.69.677 1.15.853.93.303 1.883.26 2.735-.262.002-.002.815-.675.407-.302l-.465.525-.582.658-.732.826q-.467.528-.936 1.052-.576.642-1.164 1.273-.667.723-1.339 1.443-.714.76-1.42 1.53c-.505.548-1.013 1.092-1.517 1.643-.512.56-1.025 1.121-1.53 1.689q-.72.812-1.41 1.647c-.461.543-.93 1.08-1.426 1.594q-.59.61-1.203 1.198c-.356.35-.709.702-1.077 1.038-.299.271-.602.538-.917.789a9 9 0 0 1-.833.606 8 8 0 0 1-.45.267c-4.207 2.443-7.662-3.506-3.455-5.948z" transform="translate(0 -197)"/></svg>