<?xml version="1.0" encoding="UTF-8" standalone="no"?>
<!-- Created with Inkscape (http://www.inkscape.org/) -->

<svg
   xmlns:dc="http://purl.org/dc/elements/1.1/"
   xmlns:cc="http://creativecommons.org/ns#"
   xmlns:rdf="http://www.w3.org/1999/02/22-rdf-syntax-ns#"
   xmlns:svg="http://www.w3.org/2000/svg"
   xmlns="http://www.w3.org/2000/svg"
   xmlns:sodipodi="http://sodipodi.sourceforge.net/DTD/sodipodi-0.dtd"
   xmlns:inkscape="http://www.inkscape.org/namespaces/inkscape"
   width="10cm"
   height="10cm"
   viewBox="0 0 100 99.999997"
   version="1.1"
   id="svg8"
   sodipodi:docname="wan.svg"
   inkscape:version="0.92.3 (2405546, 2018-03-11)">
  <defs
     id="defs2" />
  <sodipodi:namedview
     id="base"
     pagecolor="#ffffff"
     bordercolor="#666666"
     borderopacity="1.0"
     inkscape:pageopacity="0.0"
     inkscape:pageshadow="2"
     inkscape:zoom="1"
     inkscape:cx="175.50186"
     inkscape:cy="160.37856"
     inkscape:document-units="cm"
     inkscape:current-layer="layer1"
     showgrid="true"
     units="cm"
     inkscape:window-width="882"
     inkscape:window-height="707"
     inkscape:window-x="970"
     inkscape:window-y="213"
     inkscape:window-maximized="0"
     inkscape:snap-nodes="false">
    <inkscape:grid
       type="xygrid"
       id="grid815"
       units="cm"
       spacingx="9.9999998"
       spacingy="9.9999998" />
  </sodipodi:namedview>
  <metadata
     id="metadata5">
    <rdf:RDF>
      <cc:Work
         rdf:about="">
        <dc:format>image/svg+xml</dc:format>
        <dc:type
           rdf:resource="http://purl.org/dc/dcmitype/StillImage" />
        <dc:title></dc:title>
      </cc:Work>
    </rdf:RDF>
  </metadata>
  <g
     inkscape:label="Layer 1"
     inkscape:groupmode="layer"
     id="layer1"
     transform="translate(0,-197.00002)">
    <path
       style="opacity:1;fill:#020900;fill-opacity:1;stroke:none;stroke-width:1;stroke-linecap:butt;stroke-linejoin:round;stroke-miterlimit:4;stroke-dasharray:none;stroke-opacity:1"
       id="path1615"
       d="m 27.738564,225.61748 c 0.0729,-0.0409 0.14822,-0.0822 0.218017,-0.12594 0.07783,-0.0494 0.147849,-0.11017 0.219538,-0.16792 0.204015,-0.16194 0.398534,-0.33503 0.591016,-0.51036 0.301508,-0.27718 0.590603,-0.5674 0.882697,-0.85437 0.361929,-0.34926 0.721223,-0.70107 1.069777,-1.06371 0.394385,-0.40952 0.767649,-0.83848 1.135102,-1.27209 0.48927,-0.59109 0.988999,-1.17319 1.496595,-1.74858 0.530828,-0.59606 1.069816,-1.1848 1.607867,-1.77434 0.50995,-0.55796 1.026163,-1.11015 1.538235,-1.66617 0.482179,-0.52652 0.969227,-1.04853 1.457047,-1.56982 0.44133,-0.47001 0.877398,-0.9449 1.315603,-1.41781 0.371346,-0.39636 0.735748,-0.7991 1.099349,-1.20254 0.300729,-0.33477 0.598853,-0.67186 0.897279,-1.00868 0.243552,-0.27494 0.487051,-0.54993 0.730557,-0.82491 0.194255,-0.21937 0.388509,-0.43874 0.582763,-0.65811 0.154832,-0.17485 0.309661,-0.34969 0.46449,-0.52454 0.323699,-0.40286 0.726051,-0.71464 1.150138,-1.00401 1.130623,-0.64862 2.233359,-0.66525 3.438544,-0.24835 0.747474,0.30102 1.327263,0.82893 1.816288,1.45546 0.298124,0.40849 0.517297,0.86416 0.71175,1.32872 0.160374,0.39269 0.282146,0.79922 0.39374,1.20795 0.123917,0.44953 0.202639,0.90924 0.26898,1.37021 0.06545,0.47316 0.109442,0.94884 0.146733,1.42492 0.04388,0.55303 0.06559,1.10733 0.07781,1.66184 0.01005,0.57498 0.0064,1.15008 0.0026,1.7251 -0.0057,0.61742 -0.01537,1.23479 -0.02339,1.85219 -0.0091,0.68903 -0.024,1.37797 -0.0369,2.06693 -0.01368,0.73071 -0.02506,1.46146 -0.03558,2.19223 -0.01095,0.77553 -0.02082,1.55108 -0.0263,2.32668 -0.0078,0.7885 -0.0021,1.57701 0.0095,2.36544 0.01447,0.83565 0.03999,1.67105 0.06899,2.50632 0.03227,0.93448 0.09058,1.86776 0.1489,2.80089 0.0688,1.10812 0.158096,2.21477 0.252719,3.32093 0.108725,1.27505 0.231167,2.54887 0.346268,3.82335 0.122889,1.40663 0.239337,2.81381 0.361672,4.22048 0.125291,1.41427 0.253731,2.82824 0.375132,4.24285 0.12056,1.40582 0.230267,2.81254 0.336849,4.21948 0.100936,1.34867 0.201885,2.69733 0.299397,4.04625 0.09088,1.2529 0.172532,2.50643 0.252302,3.76008 0.06952,1.14058 0.147751,2.28058 0.23256,3.42012 0.07453,0.98498 0.154882,1.96951 0.234228,2.95412 0.06644,0.82295 0.131093,1.64606 0.195247,2.46919 0.05285,0.67778 0.104719,1.35562 0.15585,2.03352 0.04243,0.56326 0.08374,1.12661 0.124478,1.69 0.03512,0.48126 0.06856,0.96264 0.09912,1.44422 0.02574,0.41514 0.05101,0.83032 0.07348,1.24565 0.02058,0.39118 0.03289,0.78271 0.04485,1.17422 0.01111,0.34453 0.0195,0.68911 0.02638,1.03375 0.0064,0.30964 0.0089,0.61935 0.0117,0.92905 0.0021,0.24996 0.0044,0.49993 0.0065,0.7499 0.0011,0.21516 1.22e-4,0.43031 -5.29e-4,0.64547 -5.29e-4,0.16203 -0.0011,0.32405 -0.0016,0.48608 -5.29e-4,0.13027 -7.94e-4,0.26054 -0.0013,0.39082 -2.64e-4,0.11026 -7.93e-4,0.22052 -0.0011,0.33079 -2.65e-4,0.0915 -5.29e-4,0.18306 -7.94e-4,0.27459 1.85e-4,0.11231 -0.0036,0.22458 -0.0075,0.33681 -0.0021,0.0624 -0.0045,0.12473 -0.0067,0.1871 -0.0019,0.0484 -0.0035,0.0968 -0.0053,0.14524 -0.0013,0.0372 -0.0027,0.0744 -0.004,0.11162 -0.0011,0.0273 -0.0019,0.0546 -0.0027,0.082 -0.0091,0.23201 0.02866,0.51741 -0.04403,-0.57322 0.794666,4.79895 -5.992082,5.92278 -6.786748,1.12382 v 0 c -0.01836,-0.25711 -0.05579,-0.49469 -0.04566,-0.74418 0.0013,-0.0417 0.0024,-0.0833 0.004,-0.12502 0.0013,-0.0414 0.0029,-0.0829 0.0044,-0.12432 0.0019,-0.0483 0.0035,-0.0967 0.0053,-0.14499 0.0021,-0.059 0.0043,-0.11801 0.0064,-0.17701 0.0021,-0.0633 0.0035,-0.0814 0.0034,-0.11896 2.64e-4,-0.0919 5.29e-4,-0.18372 7.93e-4,-0.27557 2.65e-4,-0.11088 7.94e-4,-0.22176 0.0011,-0.33263 5.29e-4,-0.1304 7.93e-4,-0.26079 0.0013,-0.39118 5.29e-4,-0.16137 0.0011,-0.32274 0.0016,-0.48412 5.29e-4,-0.188 0.0013,-0.37601 7.94e-4,-0.56401 -0.0021,-0.24867 -0.0043,-0.49733 -0.0065,-0.74598 -0.0026,-0.28489 -0.0048,-0.5698 -0.01061,-0.85465 -0.0064,-0.3205 -0.01418,-0.64097 -0.02455,-0.96137 -0.01029,-0.33788 -0.02056,-0.67579 -0.03806,-1.0134 -0.02117,-0.39374 -0.04542,-0.78732 -0.06968,-1.18088 -0.02924,-0.46134 -0.06137,-0.92248 -0.095,-1.38352 -0.04022,-0.5563 -0.08101,-1.11255 -0.12291,-1.66872 -0.0507,-0.67219 -0.102134,-1.34432 -0.154535,-2.01637 -0.06368,-0.81712 -0.127857,-1.6342 -0.193812,-2.45114 -0.08048,-0.99866 -0.161968,-1.99725 -0.237501,-2.99631 -0.08657,-1.16405 -0.166597,-2.32857 -0.237635,-3.49368 -0.07851,-1.23393 -0.15883,-2.46775 -0.248283,-3.70094 -0.09693,-1.34104 -0.197318,-2.68182 -0.297648,-4.02261 -0.104836,-1.38408 -0.212722,-2.76795 -0.331311,-4.15093 -0.121158,-1.41201 -0.249476,-2.82337 -0.37446,-4.23505 -0.12165,-1.3991 -0.237598,-2.79868 -0.359656,-4.19774 -0.116057,-1.28535 -0.239604,-2.57001 -0.349131,-3.85594 -0.09903,-1.15848 -0.192315,-2.31748 -0.264342,-3.47801 -0.06226,-0.99661 -0.123894,-1.9934 -0.158155,-2.99145 -0.03052,-0.8809 -0.05734,-1.76195 -0.07237,-2.64328 -0.0123,-0.83849 -0.01826,-1.67706 -0.01005,-2.51564 0.0056,-0.79238 0.01558,-1.58471 0.02683,-2.37703 0.01066,-0.74069 0.0222,-1.48136 0.03608,-2.222 0.01265,-0.67581 0.02726,-1.35159 0.03627,-2.02746 0.0078,-0.60309 0.0172,-1.20617 0.02297,-1.80929 0.0035,-0.51057 0.007,-1.0212 -0.0011,-1.53175 -0.0087,-0.42595 -0.02519,-0.85172 -0.05876,-1.27653 -0.02535,-0.33084 -0.05512,-0.66141 -0.09908,-0.99037 -0.02498,-0.18087 -0.05008,-0.36232 -0.09809,-0.53884 -0.03485,-0.13097 -0.0706,-0.26187 -0.115919,-0.38969 -0.005,-0.0142 -0.02217,-0.0554 -0.01304,-0.0434 0.04088,0.0539 0.06909,0.11771 0.116509,0.16696 0.311825,0.3763 0.689737,0.67674 1.150134,0.85268 0.930394,0.30273 1.883402,0.25945 2.734786,-0.26204 0.0029,-0.002 0.815631,-0.67523 0.407257,-0.30186 -0.154829,0.17485 -0.30966,0.3497 -0.464489,0.52455 -0.194265,0.21938 -0.38853,0.43876 -0.582795,0.65814 -0.243925,0.27545 -0.487842,0.55091 -0.731811,0.82633 -0.311338,0.35139 -0.622388,0.70304 -0.936202,1.05223 -0.384813,0.42693 -0.770554,0.85305 -1.163402,1.27263 -0.445865,0.48117 -0.889571,0.96435 -1.338638,1.44254 -0.475393,0.50801 -0.950071,1.01668 -1.419921,1.52984 -0.505058,0.54833 -1.014042,1.09303 -1.517145,1.64317 -0.512265,0.56127 -1.025419,1.12178 -1.531199,1.68891 -0.478285,0.54169 -0.94797,1.09069 -1.408906,1.64725 -0.461653,0.54355 -0.931071,1.08078 -1.426356,1.59417 -0.393096,0.40736 -0.794906,0.80592 -1.203007,1.19825 -0.355772,0.3495 -0.708639,0.70219 -1.077293,1.03825 -0.298638,0.27093 -0.601335,0.53742 -0.916988,0.78853 -0.268251,0.21421 -0.540869,0.42369 -0.832297,0.60587 -0.148207,0.0929 -0.297117,0.18484 -0.451276,0.26765 -4.206555,2.44261 -7.660933,-3.50635 -3.454379,-5.94897 z"
       inkscape:connector-curvature="0" />
  </g>
</svg>
