<?xml version="1.0" encoding="UTF-8" standalone="no"?>
<!-- Created with Inkscape (http://www.inkscape.org/) -->

<svg
   xmlns:dc="http://purl.org/dc/elements/1.1/"
   xmlns:cc="http://creativecommons.org/ns#"
   xmlns:rdf="http://www.w3.org/1999/02/22-rdf-syntax-ns#"
   xmlns:svg="http://www.w3.org/2000/svg"
   xmlns="http://www.w3.org/2000/svg"
   xmlns:sodipodi="http://sodipodi.sourceforge.net/DTD/sodipodi-0.dtd"
   xmlns:inkscape="http://www.inkscape.org/namespaces/inkscape"
   width="10cm"
   height="10cm"
   viewBox="0 0 100 99.999997"
   version="1.1"
   id="svg8"
   sodipodi:docname="waso.svg"
   inkscape:version="0.92.3 (2405546, 2018-03-11)">
  <defs
     id="defs2" />
  <sodipodi:namedview
     id="base"
     pagecolor="#ffffff"
     bordercolor="#666666"
     borderopacity="1.0"
     inkscape:pageopacity="0.0"
     inkscape:pageshadow="2"
     inkscape:zoom="1"
     inkscape:cx="175.50186"
     inkscape:cy="160.37856"
     inkscape:document-units="cm"
     inkscape:current-layer="layer1"
     showgrid="true"
     units="cm"
     inkscape:window-width="882"
     inkscape:window-height="707"
     inkscape:window-x="970"
     inkscape:window-y="213"
     inkscape:window-maximized="0"
     inkscape:snap-nodes="false">
    <inkscape:grid
       type="xygrid"
       id="grid815"
       units="cm"
       spacingx="9.9999998"
       spacingy="9.9999998" />
  </sodipodi:namedview>
  <metadata
     id="metadata5">
    <rdf:RDF>
      <cc:Work
         rdf:about="">
        <dc:format>image/svg+xml</dc:format>
        <dc:type
           rdf:resource="http://purl.org/dc/dcmitype/StillImage" />
        <dc:title></dc:title>
      </cc:Work>
    </rdf:RDF>
  </metadata>
  <g
     inkscape:label="Layer 1"
     inkscape:groupmode="layer"
     id="layer1"
     transform="translate(0,-197.00002)">
    <path
       style="opacity:1;fill:#020900;fill-opacity:1;stroke:none;stroke-width:1;stroke-linecap:butt;stroke-linejoin:round;stroke-miterlimit:4;stroke-dasharray:none;stroke-opacity:1"
       id="path1617"
       d="m 39.958099,205.33549 c 0.08105,0.12229 0.157512,0.24743 0.231892,0.37385 0.164393,0.28215 0.289552,0.58395 0.403852,0.88905 0.04719,0.12918 0.100851,0.25588 0.154117,0.38264 0.06395,0.1407 0.137933,0.27666 0.209682,0.41348 0.11049,0.21531 0.239734,0.42013 0.36553,0.62663 0.166201,0.28164 0.344755,0.55543 0.53113,0.82404 0.251068,0.36121 0.509937,0.71688 0.768903,1.07244 0.324019,0.44641 0.656127,0.88685 0.986218,1.32876 0.408443,0.54774 0.816092,1.09606 1.226596,1.64225 0.454591,0.60319 0.915924,1.20122 1.383022,1.79476 0.532672,0.67378 1.070969,1.34304 1.617011,2.00603 0.618186,0.74732 1.24442,1.48793 1.872613,2.22684 0.676275,0.79572 1.368705,1.57745 2.072166,2.34918 0.752041,0.82404 1.533647,1.62013 2.323266,2.40796 0.834578,0.83135 1.688177,1.64321 2.543149,2.45346 0.852646,0.80884 1.71047,1.61218 2.57271,2.41079 0.815661,0.75657 1.645235,1.49782 2.481898,2.23103 0.786794,0.68844 1.58351,1.3654 2.382327,2.03981 0.727649,0.6147 1.461735,1.22168 2.195404,1.82916 0.640514,0.52893 1.276318,1.0635 1.911768,1.59849 0.513865,0.43316 1.030057,0.86354 1.547886,1.29195 0.417735,0.34708 0.844304,0.68327 1.275676,1.01317 0.387995,0.2932 0.781785,0.57862 1.174244,0.86578 0.340739,0.25093 0.681421,0.50194 1.022313,0.75266 0.271698,0.1998 0.543415,0.39958 0.815131,0.59936 0.216707,0.15934 0.433417,0.31867 0.650124,0.47801 0.264686,0.18701 0.517387,0.38873 0.762703,0.60029 0.641271,0.55155 1.021324,1.27021 1.288685,2.05868 0.287576,1.06803 0.07564,2.09091 -0.416247,3.05444 -0.352513,0.62752 -0.870988,1.11517 -1.440249,1.54193 -0.408109,0.29687 -0.851329,0.53893 -1.299858,0.76797 -0.433123,0.21698 -0.87774,0.40959 -1.323682,0.59836 -0.505182,0.21507 -1.018222,0.41053 -1.53539,0.59462 -0.595831,0.20734 -1.201378,0.38485 -1.807332,0.55975 -0.63459,0.18372 -1.273532,0.3516 -1.914226,0.51252 -0.637087,0.15814 -1.276276,0.30752 -1.916787,0.45109 -0.665165,0.14982 -1.334939,0.27745 -2.006341,0.3957 -0.692864,0.12017 -1.389017,0.21983 -2.085945,0.31305 -0.715852,0.0947 -1.433698,0.17291 -2.1521,0.24527 -0.779349,0.0776 -1.560232,0.13802 -2.341404,0.1937 -0.810604,0.0524 -1.621115,0.10514 -2.43087,0.16947 -0.822751,0.067 -1.644758,0.14254 -2.466803,0.21756 -0.811038,0.0751 -1.622554,0.14489 -2.434214,0.21293 -0.701585,0.0585 -1.403318,0.11521 -2.10511,0.17119 -0.585523,0.0467 -1.171154,0.0919 -1.756836,0.13655 -0.494561,0.0374 -0.989139,0.0746 -1.483907,0.10911 -0.447477,0.0323 -0.895742,0.0509 -1.34407,0.066 -0.371909,0.0125 -0.74395,0.0204 -1.11601,0.0265 -0.309126,0.005 -0.61826,0.009 -0.927391,0.0128 -0.248169,0.003 -0.496337,0.007 -0.744506,0.01 -0.197829,0.003 -0.395658,0.005 -0.593487,0.008 -0.157676,0.002 -0.315349,0.004 -0.473025,0.006 -0.11454,0.002 -0.229089,0.003 -0.343617,0.005 0.706859,-8e-4 1.330415,-0.30381 1.882519,-0.71987 0.320659,-0.27745 0.581221,-0.61423 0.749593,-1.00343 -0.0028,0.0475 -0.03728,0.22105 -0.05052,0.30172 -0.04802,0.30775 -0.07449,0.61824 -0.09706,0.92872 -0.03158,0.4843 -0.05236,0.96921 -0.0659,1.45432 -0.01204,0.60348 -0.0028,1.20712 0.0053,1.81059 0.0089,0.70329 0.02864,1.40638 0.05577,2.10919 0.03312,0.80482 0.07922,1.60905 0.128008,2.41306 0.05738,0.94034 0.127571,1.87983 0.199602,2.81915 0.08177,1.06342 0.179027,2.12557 0.275484,3.18773 0.104814,1.16212 0.208671,2.32433 0.309586,3.48679 0.102142,1.17352 0.190743,2.34815 0.275164,3.52306 0.07558,1.071 0.146706,2.1423 0.218175,3.21358 0.05803,0.87017 0.116028,1.74034 0.173178,2.61056 0.05224,0.75057 0.09239,1.50184 0.123897,2.25354 0.02402,0.60715 0.04541,1.2144 0.06699,1.82165 0.01709,0.48227 0.03413,0.96454 0.05117,1.44681 0.01357,0.38435 0.02716,0.7687 0.04074,1.15305 0.01082,0.30633 0.02164,0.61266 0.03247,0.919 0.0086,0.24415 0.01725,0.4883 0.02588,0.73246 0.0027,0.26735 0.03084,0.39475 -0.01519,0.004 0.832059,4.79262 -5.945722,5.96932 -6.777778,1.17671 v 0 c -0.04422,-0.31141 -0.08099,-0.62259 -0.08192,-0.9376 -0.0086,-0.24415 -0.01725,-0.48831 -0.02588,-0.73246 -0.01082,-0.30633 -0.02164,-0.61267 -0.03247,-0.919 -0.01357,-0.38434 -0.02716,-0.76867 -0.04073,-1.15301 -0.01701,-0.48182 -0.03404,-0.96364 -0.05113,-1.44545 -0.02106,-0.59293 -0.04194,-1.18587 -0.06532,-1.77872 -0.02903,-0.69714 -0.06658,-1.39387 -0.115112,-2.08996 -0.05699,-0.86784 -0.114834,-1.73564 -0.172704,-2.60343 -0.07069,-1.05961 -0.141031,-2.11925 -0.215752,-3.17859 -0.08194,-1.1409 -0.167904,-2.28152 -0.267075,-3.42107 -0.100108,-1.15339 -0.20319,-2.30652 -0.307168,-3.45956 -0.09936,-1.09424 -0.199398,-2.18848 -0.283546,-3.28402 -0.07479,-0.9758 -0.147598,-1.9518 -0.207122,-2.92867 -0.05178,-0.85471 -0.100663,-1.70965 -0.135543,-2.56524 -0.02908,-0.76009 -0.05067,-1.52046 -0.06022,-2.28107 -0.0094,-0.69946 -0.0191,-1.39913 -0.0031,-2.09857 0.01707,-0.59062 0.04205,-1.18105 0.0822,-1.7706 0.03987,-0.52522 0.08867,-1.05021 0.175358,-1.57011 0.08155,-0.47212 0.17563,-0.94332 0.331242,-1.39756 0.264631,-0.73197 0.633709,-1.40995 1.228585,-1.93062 0.726334,-0.56803 1.541471,-0.96752 2.48349,-0.97423 0.13679,-0.003 0.273598,-0.004 0.410404,-0.006 0.157675,-0.002 0.315348,-0.004 0.473024,-0.006 0.197824,-0.003 0.395648,-0.005 0.593471,-0.008 0.247957,-0.003 0.495917,-0.007 0.743874,-0.01 0.302019,-0.004 0.604041,-0.008 0.906049,-0.0125 0.332042,-0.005 0.664067,-0.0123 0.995974,-0.0234 0.366033,-0.0123 0.732047,-0.0267 1.097375,-0.0533 0.480251,-0.0335 0.960303,-0.0697 1.440355,-0.10593 0.577474,-0.044 1.154898,-0.0886 1.732214,-0.13463 0.692605,-0.0553 1.385154,-0.1112 2.077558,-0.16895 0.794758,-0.0666 1.589379,-0.13491 2.383528,-0.20849 0.849106,-0.0775 1.698189,-0.15547 2.548038,-0.22448 0.828231,-0.0656 1.657155,-0.12057 2.486274,-0.17364 0.714486,-0.0508 1.428726,-0.10579 2.141559,-0.17655 0.64422,-0.0647 1.287944,-0.13465 1.929894,-0.21926 0.603316,-0.0804 1.20599,-0.1663 1.80585,-0.26975 0.566632,-0.0993 1.131845,-0.20684 1.693164,-0.33314 0.583555,-0.13066 1.16586,-0.2668 1.746324,-0.41061 0.562952,-0.14113 1.124326,-0.28851 1.681864,-0.44986 0.47399,-0.13665 0.948034,-0.27406 1.414915,-0.4337 0.389467,-0.13733 0.774954,-0.28556 1.155142,-0.44695 0.299344,-0.12643 0.598408,-0.254 0.890291,-0.39706 0.112921,-0.0565 0.229973,-0.11872 0.338823,-0.17655 -0.182791,0.19077 -0.364826,0.39062 -0.483952,0.63278 -0.327105,0.68645 -0.424453,1.42231 -0.211686,2.16326 0.168408,0.46297 0.377256,0.91153 0.765824,1.2326 0.173569,0.13651 -0.247097,-0.1937 -0.266264,-0.19848 -0.216715,-0.15934 -0.43343,-0.31868 -0.650145,-0.47802 -0.271981,-0.19998 -0.543967,-0.39995 -0.81593,-0.59996 -0.336359,-0.24738 -0.672531,-0.49502 -1.008697,-0.74266 -0.432411,-0.3164 -0.866238,-0.63095 -1.293154,-0.95477 -0.500165,-0.38308 -0.995145,-0.77294 -1.479754,-1.17561 -0.53296,-0.44096 -1.064275,-0.88392 -1.593177,-1.32975 -0.621083,-0.52289 -1.242471,-1.04543 -1.868525,-1.56238 -0.750583,-0.62149 -1.501539,-1.24254 -2.245955,-1.87143 -0.831242,-0.70182 -1.660197,-1.4064 -2.478881,-2.12287 -0.883868,-0.77484 -1.760398,-1.55802 -2.622177,-2.35742 -0.881423,-0.81646 -1.758424,-1.63765 -2.63007,-2.46454 -0.897998,-0.85106 -1.79424,-1.70413 -2.670677,-2.57749 -0.866434,-0.86497 -1.723724,-1.73933 -2.548859,-2.64406 -0.756097,-0.83026 -1.501148,-1.67054 -2.228183,-2.52644 -0.65155,-0.76642 -1.301017,-1.53463 -1.942076,-2.30986 -0.578276,-0.70248 -1.14881,-1.41123 -1.712899,-2.12516 -0.498319,-0.63354 -0.990846,-1.27161 -1.475827,-1.91544 -0.414531,-0.55162 -0.826307,-1.10528 -1.23874,-1.65847 -0.346628,-0.46408 -0.695261,-0.9267 -1.035473,-1.39554 -0.292772,-0.40201 -0.585137,-0.80438 -0.868627,-1.21303 -0.259967,-0.3775 -0.511903,-0.76043 -0.74581,-1.15476 -0.202449,-0.33241 -0.405191,-0.665 -0.583245,-1.01137 -0.162685,-0.31045 -0.324546,-0.62182 -0.460124,-0.94535 -0.09015,-0.21503 -0.17935,-0.43056 -0.259625,-0.64952 -0.02864,-0.0804 0.07452,0.15193 0.09364,0.16628 0.05116,0.0802 -0.03359,-0.0536 -0.04495,-0.0699 -2.654755,-4.07599 3.109574,-7.83038 5.764329,-3.75439 z"
       inkscape:connector-curvature="0" />
    <path
       style="opacity:1;fill:#020900;fill-opacity:1;stroke:none;stroke-width:1;stroke-linecap:butt;stroke-linejoin:round;stroke-miterlimit:4;stroke-dasharray:none;stroke-opacity:1"
       id="path1619"
       d="m 22.836326,230.97295 c 0.145239,-0.13577 0.270084,-0.29163 0.378644,-0.45782 0.05933,-0.0856 0.102351,-0.19273 0.146818,-0.28041 0.01812,-0.0368 0.0254,-0.078 0.0343,-0.11772 0.01397,-0.0437 0.0049,-0.0964 2.61e-4,-0.14261 -0.01677,-0.10017 -0.02402,-0.11907 0.01842,-0.0265 -0.06982,-0.21298 -0.377206,-0.54435 -0.572933,-0.74039 -0.405728,-0.34841 -0.89093,-0.5823 -1.421136,-0.65612 -0.272752,-0.0348 -0.542009,0.0202 -0.804921,0.088 -0.348111,0.10043 -0.647744,0.29206 -0.916914,0.52948 -0.251556,0.23628 -0.434827,0.52684 -0.560471,0.84625 -0.06152,0.15075 -0.06933,0.31128 -0.07565,0.47199 -0.008,0.33091 0.09417,0.63594 0.222795,0.93551 0.231439,0.49626 0.622819,0.84918 1.072913,1.14319 0.341916,0.17489 0.179572,0.10264 0.483764,0.22396 -4.600231,-1.58093 -2.364457,-8.08664 2.235774,-6.50571 v 0 c 0.431744,0.16485 0.20496,0.0677 0.676854,0.29949 0.700908,0.44037 1.29747,0.98955 1.672867,1.74123 0.292491,0.63466 0.501346,1.29527 0.512318,2.00145 -0.0017,0.60488 -0.06028,1.20549 -0.249246,1.78391 -0.248003,0.72257 -0.596003,1.39897 -1.146308,1.94165 -0.526027,0.49496 -1.1116,0.90878 -1.807043,1.13142 -0.614546,0.17716 -1.242114,0.28528 -1.884165,0.22386 -0.907203,-0.0893 -1.762229,-0.36843 -2.4724,-0.96293 -0.53978,-0.51062 -1.006676,-1.07369 -1.283078,-1.77255 -0.194159,-0.45787 -0.365534,-0.9266 -0.460322,-1.41643 -0.09001,-0.51506 -0.143227,-1.03564 -0.107646,-1.55918 0.03629,-0.49935 0.104155,-0.99654 0.254441,-1.47596 0.136129,-0.43295 0.298014,-0.85867 0.534331,-1.24828 0.21688,-0.35154 0.460119,-0.68736 0.763307,-0.97054 3.515559,-3.36189 8.269991,1.60986 4.754431,4.97175 z"
       inkscape:connector-curvature="0" />
    <path
       style="opacity:1;fill:#020900;fill-opacity:1;stroke:none;stroke-width:1;stroke-linecap:butt;stroke-linejoin:round;stroke-miterlimit:4;stroke-dasharray:none;stroke-opacity:1"
       id="path1621"
       d="m 36.168507,230.66355 c 0.341622,0.0428 0.680744,0.009 1.010708,-0.0823 0.07941,-0.0256 0.156922,-0.0495 0.228254,-0.0903 0.04763,-0.0265 0.107473,-0.0753 0.144631,-0.0963 -0.0088,0.0309 -0.02482,0.0586 -0.03359,0.0899 0.02474,0.024 0.07044,-0.21225 0.08286,-0.27934 0.0158,-0.0757 0.01849,-0.14881 0.0099,-0.22522 -0.03419,-0.21729 -0.163306,-0.39887 -0.286493,-0.57494 -0.194556,-0.24723 -0.43837,-0.44725 -0.722717,-0.58102 -0.07057,-0.035 -0.147056,-0.0532 -0.224581,-0.0641 -0.01405,0.001 -0.02545,-0.0122 -0.03819,-0.0183 0.03197,-0.0219 -0.07402,0.0238 -0.108759,0.041 -0.286891,0.15392 -0.507754,0.39086 -0.695082,0.65237 -0.09329,0.13269 -0.154858,0.27805 -0.199168,0.43277 -0.07237,0.26504 -0.05259,0.53458 -0.0173,0.80333 0.09763,0.54112 0.357994,1.02288 0.740412,1.41315 0.21136,0.20764 0.475454,0.33545 0.751716,0.43226 0.213296,0.055 0.111725,0.0334 0.304101,0.0674 -4.836019,-0.52383 -4.09521,-7.36299 0.740807,-6.83916 v 0 c 0.498213,0.0667 0.243483,0.023 0.763606,0.13454 0.742424,0.22475 1.442604,0.54808 2.02311,1.07502 0.69814,0.65824 1.23716,1.4349 1.427078,2.39416 0.107437,0.66141 0.137557,1.32624 -0.01241,1.98542 -0.143542,0.60145 -0.342463,1.18727 -0.669576,1.7167 -0.433366,0.65921 -0.955011,1.24396 -1.644028,1.64639 -0.48329,0.27586 -0.986345,0.5141 -1.525013,0.66207 -0.572762,0.15722 -1.15715,0.27202 -1.753452,0.2795 -0.710877,-0.002 -1.41872,-0.0738 -2.095011,-0.30741 -0.881496,-0.32195 -1.693836,-0.77451 -2.311638,-1.49988 -0.503991,-0.64587 -0.914667,-1.34306 -1.112014,-2.14657 -0.163918,-0.68507 -0.259594,-1.38337 -0.197401,-2.08935 0.08079,-0.71674 0.237223,-1.41836 0.558837,-2.06951 0.253371,-0.51891 0.54015,-1.02175 0.906312,-1.47083 0.38422,-0.46234 0.802497,-0.89683 1.30198,-1.23704 0.452488,-0.29982 0.924409,-0.57031 1.440363,-0.747 0.623969,-0.19716 1.264494,-0.32252 1.922295,-0.24975 4.838285,0.50246 4.127702,7.34482 -0.710583,6.84237 z"
       inkscape:connector-curvature="0" />
  </g>
</svg>
