<svg viewBox="0 0 100 100"><path style="opacity:1;fill:#020900;fill-opacity:1;stroke:none;stroke-width:1;stroke-linecap:butt;stroke-linejoin:round;stroke-miterlimit:4;stroke-dasharray:none;stroke-opacity:1" d="M39.958 205.335q.121.185.232.374c.164.282.29.584.404.89q.072.192.154.382c.064.14.138.277.21.414.11.215.24.42.365.626q.25.423.531.824.378.54.77 1.073c.323.446.655.886.985 1.328l1.227 1.643a108 108 0 0 0 3 3.8q.928 1.12 1.873 2.227a90 90 0 0 0 2.072 2.35 71 71 0 0 0 2.323 2.407c.835.832 1.688 1.644 2.543 2.454q1.279 1.213 2.573 2.41a119 119 0 0 0 2.482 2.232c.787.688 1.583 1.365 2.382 2.04q1.094.919 2.196 1.829.96.794 1.911 1.598.771.65 1.548 1.292.628.52 1.276 1.013.584.438 1.174.866l1.022.753.816.6.65.477q.395.282.762.6c.642.552 1.022 1.27 1.29 2.059.287 1.068.075 2.09-.417 3.054-.353.628-.871 1.116-1.44 1.542a9.6 9.6 0 0 1-1.3.768c-.433.217-.878.41-1.324.599a27 27 0 0 1-1.535.594 35 35 0 0 1-1.808.56c-.634.184-1.273.352-1.914.513q-.956.236-1.917.45c-.665.15-1.335.278-2.006.396-.693.12-1.389.22-2.086.313a71 71 0 0 1-4.493.439c-.811.053-1.622.106-2.431.17q-1.234.102-2.467.217-1.217.113-2.434.213a588 588 0 0 1-3.862.308q-.743.057-1.484.11c-.448.032-.896.05-1.344.065q-.558.018-1.116.027l-.928.013-.744.01-.594.008-.473.006-.343.005c.707-.001 1.33-.304 1.882-.72.32-.278.581-.615.75-1.004-.003.048-.037.221-.05.302a11 11 0 0 0-.098.929q-.046.726-.066 1.454c-.012.603-.002 1.207.006 1.81q.014 1.056.055 2.11c.034.805.08 1.609.128 2.413a190 190 0 0 0 .476 6.007q.156 1.743.31 3.487.15 1.76.274 3.523.113 1.606.218 3.213l.174 2.61q.077 1.127.124 2.254.035.911.066 1.822l.052 1.447.04 1.153.033.919.026.732c.002.268.03.395-.015.004.832 4.793-5.946 5.97-6.778 1.177a7 7 0 0 1-.082-.938l-.026-.732-.032-.92-.041-1.152-.051-1.446q-.03-.889-.066-1.778a75 75 0 0 0-.115-2.09l-.172-2.604q-.106-1.59-.216-3.178a230 230 0 0 0-.267-3.421q-.15-1.73-.307-3.46c-.1-1.094-.2-2.188-.284-3.284a188 188 0 0 1-.207-2.929q-.08-1.282-.136-2.565-.044-1.14-.06-2.28c-.01-.7-.019-1.4-.003-2.1q.024-.885.082-1.77c.04-.525.089-1.05.176-1.57a9 9 0 0 1 .33-1.398c.265-.732.635-1.41 1.23-1.93.726-.568 1.54-.968 2.483-.975l.41-.006.473-.006.594-.008.744-.01.906-.012q.498-.007.996-.024c.366-.012.732-.026 1.097-.053q.72-.05 1.44-.106a494 494 0 0 0 6.194-.512c.849-.077 1.698-.155 2.548-.224.828-.066 1.657-.12 2.486-.174q1.072-.073 2.142-.176a63 63 0 0 0 1.93-.22c.603-.08 1.205-.166 1.805-.27a35 35 0 0 0 1.693-.333q.876-.195 1.747-.41a48 48 0 0 0 1.682-.45c.474-.137.948-.274 1.415-.434q.584-.205 1.155-.447c.3-.126.598-.254.89-.397.113-.056.23-.119.339-.176-.183.19-.365.39-.484.632-.327.687-.425 1.423-.212 2.164.169.463.377.911.766 1.232.174.137-.247-.193-.266-.198l-.65-.478-.816-.6-1.009-.743c-.432-.316-.866-.63-1.293-.955q-.751-.573-1.48-1.175a227 227 0 0 1-1.593-1.33 255 255 0 0 0-1.869-1.562c-.75-.622-1.501-1.243-2.246-1.872-.83-.702-1.66-1.406-2.478-2.123q-1.327-1.16-2.623-2.357a303 303 0 0 1-2.63-2.465 148 148 0 0 1-2.67-2.577 78 78 0 0 1-2.55-2.644 98 98 0 0 1-2.227-2.527 222 222 0 0 1-1.943-2.31 116 116 0 0 1-3.189-4.04q-.62-.828-1.238-1.659c-.347-.464-.695-.926-1.035-1.395a65 65 0 0 1-.87-1.213 20 20 0 0 1-.745-1.155c-.202-.332-.405-.665-.583-1.011a12 12 0 0 1-.72-1.595c-.029-.08.075.152.094.166.05.08-.034-.053-.045-.07-2.655-4.076 3.11-7.83 5.764-3.754zm-17.122 25.638c.146-.136.27-.292.379-.458.06-.085.102-.193.147-.28.018-.037.025-.078.034-.118.014-.044.005-.096 0-.143-.016-.1-.024-.119.019-.026-.07-.213-.377-.544-.573-.74a2.77 2.77 0 0 0-1.421-.657c-.273-.034-.542.02-.805.088-.348.1-.648.292-.917.53a2.3 2.3 0 0 0-.56.846c-.062.15-.07.311-.076.472-.008.331.094.636.223.936.231.496.622.849 1.072 1.143.342.175.18.102.484.224-4.6-1.581-2.364-8.087 2.236-6.506.432.165.205.068.677.3.7.44 1.297.99 1.673 1.74.292.635.501 1.296.512 2.002-.002.605-.06 1.206-.25 1.784-.247.723-.595 1.4-1.146 1.942-.526.495-1.111.909-1.807 1.131-.614.177-1.242.285-1.884.224-.907-.09-1.762-.368-2.472-.963-.54-.51-1.007-1.074-1.283-1.772-.194-.458-.366-.927-.46-1.417a6.5 6.5 0 0 1-.108-1.559c.036-.5.104-.997.254-1.476.136-.433.298-.859.535-1.248.216-.352.46-.688.763-.97 3.515-3.363 8.27 1.61 4.754 4.97" transform="translate(0 -197)"/><path style="opacity:1;fill:#020900;fill-opacity:1;stroke:none;stroke-width:1;stroke-linecap:butt;stroke-linejoin:round;stroke-miterlimit:4;stroke-dasharray:none;stroke-opacity:1" d="M36.169 230.664c.341.042.68.009 1.01-.083.08-.025.157-.05.228-.09.048-.027.108-.075.145-.096-.009.03-.025.058-.033.09.024.024.07-.213.082-.28a.7.7 0 0 0 .01-.225c-.034-.217-.163-.399-.286-.575a2 2 0 0 0-.723-.581.7.7 0 0 0-.225-.064c-.014 0-.025-.012-.038-.018.032-.022-.074.023-.108.04-.287.155-.508.391-.696.653a1.4 1.4 0 0 0-.199.433c-.072.265-.052.534-.017.803.098.541.358 1.023.74 1.413.212.208.476.336.752.433.213.055.112.033.304.067-4.836-.524-4.095-7.363.741-6.84.498.067.243.024.764.135.742.225 1.442.548 2.023 1.075.698.659 1.237 1.435 1.427 2.394.107.662.137 1.327-.013 1.986-.143.601-.342 1.187-.67 1.717-.433.659-.954 1.244-1.643 1.646a6.6 6.6 0 0 1-1.525.662c-.573.157-1.157.272-1.754.28-.71-.002-1.418-.074-2.095-.308-.881-.322-1.694-.774-2.311-1.5-.504-.646-.915-1.343-1.112-2.146-.164-.685-.26-1.384-.198-2.09.081-.716.237-1.418.56-2.07.252-.518.54-1.02.905-1.47.385-.462.803-.897 1.302-1.237.453-.3.925-.57 1.44-.747.625-.197 1.265-.323 1.923-.25 4.838.503 4.128 7.345-.71 6.843" transform="translate(0 -197)"/></svg>