<svg viewBox="0 0 100 100"><path style="opacity:1;fill:#020900;fill-opacity:1;stroke:none;stroke-width:1;stroke-linecap:butt;stroke-linejoin:round;stroke-miterlimit:4;stroke-dasharray:none;stroke-opacity:1" d="M45.793 249.152c.134.683.496 1.253 1.005 1.715.212.174.449.319.708.41.03-.002.056.023.074.047a6 6 0 0 0-.666.183c-.414.14-.805.332-1.184.546-.563.33-1.084.723-1.596 1.125-.638.51-1.24 1.063-1.828 1.629a22 22 0 0 0-1.684 1.863 24 24 0 0 0-1.512 2.102c-.468.73-.869 1.499-1.25 2.277a16.6 16.6 0 0 0-.909 2.304 15 15 0 0 0-.498 2.337 18 18 0 0 0-.124 2.44c.006.733.108 1.458.265 2.173.154.692.42 1.348.731 1.983.335.654.758 1.256 1.204 1.838.435.562.933 1.07 1.458 1.547.428.397.916.711 1.436.972.523.251 1.084.404 1.648.526.541.12 1.09.128 1.64.083.613-.058 1.202-.24 1.779-.446.702-.262 1.363-.613 2.004-.998.668-.412 1.28-.904 1.869-1.422.582-.518 1.096-1.105 1.583-1.713q.692-.868 1.224-1.842a8 8 0 0 0 .653-1.714c.166-.666.247-1.349.307-2.032.062-.755.06-1.512.034-2.269a20 20 0 0 0-.219-2.226c-.11-.735-.273-1.46-.447-2.181a23 23 0 0 0-.59-1.995 10.5 10.5 0 0 0-.65-1.541 11 11 0 0 0-.8-1.267q-.42-.59-.893-1.138a8 8 0 0 0-.787-.78 4.5 4.5 0 0 0-.658-.439 15 15 0 0 0-.892-.457 36 36 0 0 0-.607-.287c-4.413-2.046-1.52-8.288 2.893-6.242q.358.166.712.337c.467.227.933.458 1.382.72.6.355 1.184.738 1.709 1.2.516.457 1.01.94 1.462 1.461.46.538.902 1.093 1.31 1.672.474.678.927 1.371 1.304 2.108.4.797.759 1.614 1.037 2.463.284.848.548 1.702.755 2.572.224.932.431 1.868.57 2.817.14.989.252 1.982.285 2.98.032 1.04.03 2.08-.06 3.115-.1 1.095-.244 2.187-.529 3.251-.314 1.108-.705 2.193-1.263 3.204a20 20 0 0 1-1.888 2.83c-.741.914-1.525 1.795-2.411 2.573-.905.787-1.848 1.533-2.877 2.153-1.04.614-2.112 1.173-3.252 1.58-1.169.403-2.365.73-3.604.818-1.206.07-2.414.034-3.597-.237-1.141-.263-2.267-.6-3.314-1.136-1.046-.554-2.042-1.195-2.911-2.007-.82-.758-1.602-1.56-2.28-2.45-.724-.955-1.403-1.948-1.932-3.027-.537-1.134-.997-2.303-1.259-3.534-.242-1.17-.409-2.354-.413-3.551-.005-1.159.036-2.319.195-3.468.172-1.17.399-2.333.758-3.463.358-1.102.768-2.187 1.282-3.227.505-1.025 1.038-2.036 1.658-2.996.614-.94 1.26-1.86 1.972-2.729.704-.851 1.432-1.683 2.229-2.45a33 33 0 0 1 2.353-2.083c.802-.626 1.624-1.23 2.513-1.731.774-.422 1.57-.805 2.413-1.075.735-.23 1.483-.428 2.254-.49.715-.044 1.434-.03 2.133.15.682.187 1.34.442 1.897.892.696.604 1.23 1.328 1.421 2.25.988 4.762-5.748 6.16-6.735 1.396" transform="translate(0 -197)"/><path style="opacity:1;fill:#020900;fill-opacity:1;stroke:none;stroke-width:1;stroke-linecap:butt;stroke-linejoin:round;stroke-miterlimit:4;stroke-dasharray:none;stroke-opacity:1" d="M61.513 265.662c.088-.341.202-.675.31-1.01q.392-1.216.78-2.433c.466-1.46.942-2.917 1.414-4.376a215 215 0 0 0 1.593-5.104c.533-1.791 1.006-3.6 1.473-5.41q.684-2.692 1.381-5.381l1.21-4.627.97-3.708c.188-.698.369-1.398.484-2.112.81-4.797 7.593-3.651 6.783 1.145a28 28 0 0 1-.611 2.707l-.97 3.71q-.605 2.306-1.207 4.613-.696 2.685-1.38 5.374c-.488 1.893-.984 3.784-1.542 5.657a222 222 0 0 1-1.64 5.255c-.468 1.447-.94 2.894-1.403 4.343q-.391 1.23-.788 2.458c-.049.151-.142.447-.18.556-1.172 4.72-7.85 3.064-6.677-1.657m-40.145-.294c.016.54-.077-.455-.083-.5a54 54 0 0 0-.46-2.864c-.254-1.366-.574-2.718-.905-4.066a122 122 0 0 0-1.335-4.85 209 209 0 0 0-1.608-5.127c-.528-1.61-1.075-3.212-1.619-4.816q-.715-2.107-1.426-4.216l-1.145-3.396-1.64-4.865q-.286-.848-.58-1.695l-.474-1.37-.378-1.091-.301-.871-.086-.25c-1.592-4.596 4.91-6.846 6.5-2.25l.086.25.302.87.378 1.093.475 1.372q.302.87.596 1.744l.728 2.158.912 2.707 1.145 3.395q.709 2.103 1.424 4.207c.552 1.63 1.108 3.259 1.644 4.894a216 216 0 0 1 1.668 5.318 128 128 0 0 1 1.415 5.148c.364 1.483.713 2.97.99 4.472.198 1.082.384 2.167.522 3.259.067.545.142 1.094.127 1.645-.216 4.86-7.088 4.554-6.872-.305" transform="translate(0 -197)"/></svg>