<?xml version="1.0" encoding="UTF-8" standalone="no"?>
<!-- Created with Inkscape (http://www.inkscape.org/) -->

<svg
   xmlns:dc="http://purl.org/dc/elements/1.1/"
   xmlns:cc="http://creativecommons.org/ns#"
   xmlns:rdf="http://www.w3.org/1999/02/22-rdf-syntax-ns#"
   xmlns:svg="http://www.w3.org/2000/svg"
   xmlns="http://www.w3.org/2000/svg"
   xmlns:sodipodi="http://sodipodi.sourceforge.net/DTD/sodipodi-0.dtd"
   xmlns:inkscape="http://www.inkscape.org/namespaces/inkscape"
   width="10cm"
   height="10cm"
   viewBox="0 0 100 99.999997"
   version="1.1"
   id="svg8"
   sodipodi:docname="wawa.svg"
   inkscape:version="0.92.3 (2405546, 2018-03-11)">
  <defs
     id="defs2" />
  <sodipodi:namedview
     id="base"
     pagecolor="#ffffff"
     bordercolor="#666666"
     borderopacity="1.0"
     inkscape:pageopacity="0.0"
     inkscape:pageshadow="2"
     inkscape:zoom="1"
     inkscape:cx="175.50186"
     inkscape:cy="160.37856"
     inkscape:document-units="cm"
     inkscape:current-layer="layer1"
     showgrid="true"
     units="cm"
     inkscape:window-width="882"
     inkscape:window-height="707"
     inkscape:window-x="970"
     inkscape:window-y="213"
     inkscape:window-maximized="0"
     inkscape:snap-nodes="false">
    <inkscape:grid
       type="xygrid"
       id="grid815"
       units="cm"
       spacingx="9.9999998"
       spacingy="9.9999998" />
  </sodipodi:namedview>
  <metadata
     id="metadata5">
    <rdf:RDF>
      <cc:Work
         rdf:about="">
        <dc:format>image/svg+xml</dc:format>
        <dc:type
           rdf:resource="http://purl.org/dc/dcmitype/StillImage" />
        <dc:title></dc:title>
      </cc:Work>
    </rdf:RDF>
  </metadata>
  <g
     inkscape:label="Layer 1"
     inkscape:groupmode="layer"
     id="layer1"
     transform="translate(0,-197.00002)">
    <path
       style="opacity:1;fill:#020900;fill-opacity:1;stroke:none;stroke-width:1;stroke-linecap:butt;stroke-linejoin:round;stroke-miterlimit:4;stroke-dasharray:none;stroke-opacity:1"
       id="path1623"
       d="m 45.792612,249.1515 c 0.134583,0.68327 0.496697,1.25304 1.005239,1.71504 0.212402,0.1745 0.448789,0.3191 0.708343,0.41051 0.02898,-0.002 0.0563,0.0232 0.07372,0.0465 -0.226599,0.0443 -0.447167,0.11102 -0.66608,0.18345 -0.413523,0.13911 -0.804561,0.33188 -1.183751,0.54572 -0.562661,0.32995 -1.084263,0.72321 -1.596459,1.12545 -0.637961,0.50968 -1.239086,1.0628 -1.827435,1.62834 -0.602353,0.5832 -1.152437,1.21611 -1.684541,1.86304 -0.546105,0.66986 -1.042091,1.37772 -1.511795,2.10254 -0.467741,0.72984 -0.868854,1.49863 -1.249563,2.27647 -0.365543,0.74267 -0.65827,1.51637 -0.909064,2.30424 -0.236852,0.76274 -0.386881,1.54737 -0.497811,2.33708 -0.105407,0.80882 -0.131619,1.6245 -0.12392,2.43922 0.0053,0.73358 0.107445,1.45854 0.264057,2.17359 0.154006,0.69257 0.421113,1.34832 0.731782,1.98338 0.334179,0.65434 0.757547,1.2558 1.203505,1.83751 0.435097,0.56228 0.93291,1.06963 1.458055,1.54712 0.42813,0.39738 0.916157,0.71175 1.4365,0.9722 0.523076,0.2514 1.083135,0.40375 1.64806,0.52604 0.540753,0.11954 1.09039,0.12827 1.639478,0.0833 0.61328,-0.0584 1.201671,-0.23962 1.7786,-0.4465 0.702011,-0.26127 1.363618,-0.61271 2.004012,-0.99821 0.668407,-0.41183 1.280787,-0.90382 1.868972,-1.42161 0.582946,-0.51815 1.096264,-1.1052 1.582994,-1.71263 0.460939,-0.57866 0.871384,-1.19304 1.224828,-1.84246 0.290981,-0.54199 0.494313,-1.12115 0.652843,-1.71363 0.165833,-0.66644 0.246534,-1.34905 0.306671,-2.03184 0.06206,-0.755 0.06017,-1.51255 0.03439,-2.26897 -0.02561,-0.74627 -0.111959,-1.48796 -0.218916,-2.22633 -0.109411,-0.73479 -0.272963,-1.45969 -0.447525,-2.18126 -0.16026,-0.67529 -0.368239,-1.3374 -0.589539,-1.99474 -0.173773,-0.53173 -0.394888,-1.04464 -0.65065,-1.54152 -0.232114,-0.44306 -0.511339,-0.85831 -0.799174,-1.26646 -0.279535,-0.39356 -0.577884,-0.77307 -0.893913,-1.13785 -0.246507,-0.27513 -0.505656,-0.53927 -0.786286,-0.77969 -0.202155,-0.171 -0.429713,-0.30702 -0.658016,-0.43943 -0.290783,-0.16532 -0.591757,-0.31148 -0.892699,-0.4571 -0.201287,-0.0978 -0.403553,-0.19343 -0.606605,-0.28746 -4.413091,-2.046 -1.519621,-8.28705 2.89347,-6.24106 v 0 c 0.237964,0.11042 0.475202,0.22237 0.711171,0.33701 0.467675,0.22659 0.933445,0.45796 1.382882,0.71942 0.599564,0.35517 1.183775,0.73822 1.708602,1.19927 0.51616,0.4576 1.009642,0.94027 1.461791,1.46196 0.460923,0.53781 0.901668,1.09254 1.309587,1.67193 0.474231,0.67744 0.927182,1.37096 1.304515,2.10808 0.400817,0.79691 0.759103,1.61403 1.036587,2.46291 0.28403,0.84748 0.548907,1.70166 0.755671,2.57176 0.224195,0.93178 0.431099,1.86844 0.56959,2.81739 0.140769,0.98863 0.252653,1.98177 0.285025,2.98064 0.03228,1.03836 0.03095,2.07822 -0.05903,3.11412 -0.101581,1.09453 -0.245128,2.18734 -0.529706,3.25149 -0.313846,1.10776 -0.704583,2.19256 -1.262602,3.20378 -0.554406,0.99164 -1.173933,1.94383 -1.888498,2.8289 -0.741024,0.91462 -1.524625,1.79585 -2.410955,2.57389 -0.905097,0.78701 -1.847919,1.53271 -2.877291,2.15295 -1.039259,0.61411 -2.112121,1.17331 -3.251549,1.58037 -1.168932,0.40298 -2.365351,0.73036 -3.60467,0.81766 -1.205852,0.0692 -2.413696,0.0343 -3.596553,-0.23728 -1.141341,-0.26268 -2.266913,-0.5994 -3.313512,-1.13575 -1.046377,-0.55444 -2.042382,-1.19539 -2.911573,-2.00653 -0.820732,-0.75831 -1.601694,-1.55984 -2.280729,-2.44981 -0.723281,-0.95612 -1.402149,-1.94862 -1.931048,-3.02793 -0.537155,-1.13346 -0.997548,-2.30266 -1.258872,-3.53382 -0.242332,-1.16972 -0.408821,-2.35363 -0.412742,-3.55097 -0.0055,-1.15864 0.03553,-2.31843 0.194299,-3.46765 0.171903,-1.17055 0.398902,-2.33371 0.758357,-3.46294 0.357727,-1.10247 0.767723,-2.18745 1.282131,-3.22765 0.504296,-1.0246 1.03786,-2.03583 1.658231,-2.99591 0.613471,-0.94029 1.258724,-1.8601 1.9714,-2.72863 0.703765,-0.8513 1.432258,-1.68307 2.228805,-2.44971 0.756761,-0.72492 1.530705,-1.43299 2.352916,-2.08378 0.802783,-0.62563 1.624793,-1.23054 2.513208,-1.73082 0.77466,-0.42212 1.571083,-0.80516 2.413357,-1.07466 0.734849,-0.23067 1.482656,-0.42843 2.253385,-0.49039 0.715849,-0.0438 1.434357,-0.0296 2.133666,0.14949 0.681792,0.18742 1.340075,0.44306 1.897163,0.89229 0.695698,0.60442 1.230204,1.32826 1.421035,2.24992 0.98783,4.76295 -5.747994,6.15995 -6.735823,1.39701 z"
       inkscape:connector-curvature="0" />
    <path
       style="opacity:1;fill:#020900;fill-opacity:1;stroke:none;stroke-width:1;stroke-linecap:butt;stroke-linejoin:round;stroke-miterlimit:4;stroke-dasharray:none;stroke-opacity:1"
       id="path1625"
       d="m 61.512788,265.66154 c 0.08867,-0.34095 0.202038,-0.67485 0.310121,-1.00998 0.261958,-0.81023 0.521271,-1.62131 0.779523,-2.43273 0.466767,-1.46002 0.942388,-2.9172 1.414373,-4.37554 0.552177,-1.69479 1.083034,-3.39632 1.592921,-5.10428 0.532849,-1.79148 1.00593,-3.59979 1.47321,-5.40922 0.456814,-1.79496 0.91585,-3.58935 1.381295,-5.3821 0.402571,-1.54237 0.806788,-3.08431 1.21018,-4.62646 0.323292,-1.23612 0.646504,-2.47227 0.969724,-3.7084 0.187902,-0.69802 0.368872,-1.39805 0.484167,-2.11208 0.809852,-4.79642 7.593009,-3.65111 6.783157,1.1453 v 0 c -0.157803,0.91256 -0.363823,1.81451 -0.61191,2.70701 -0.323273,1.23634 -0.646541,2.47269 -0.969886,3.70902 -0.402333,1.53811 -0.805484,3.07601 -1.207018,4.61433 -0.46472,1.78992 -0.922933,3.5815 -1.379098,5.37361 -0.488823,1.89254 -0.984544,3.78368 -1.542273,5.65734 -0.525118,1.75802 -1.071083,3.50964 -1.639546,5.25416 -0.468548,1.44773 -0.940694,2.89429 -1.404141,4.34366 -0.260927,0.81981 -0.522922,1.63928 -0.787582,2.45789 -0.04877,0.15121 -0.142045,0.44666 -0.180653,0.55571 -1.171842,4.72104 -7.848406,3.06381 -6.676564,-1.65724 z"
       inkscape:connector-curvature="0" />
    <path
       style="opacity:1;fill:#020900;fill-opacity:1;stroke:none;stroke-width:1;stroke-linecap:butt;stroke-linejoin:round;stroke-miterlimit:4;stroke-dasharray:none;stroke-opacity:1"
       id="path1627"
       d="m 21.367853,265.36781 c 0.01648,0.54063 -0.07724,-0.45531 -0.08267,-0.4991 -0.122372,-0.95979 -0.287047,-1.91343 -0.460893,-2.86502 -0.253564,-1.36564 -0.572887,-2.71768 -0.904138,-4.06617 -0.405638,-1.62734 -0.862288,-3.24122 -1.334893,-4.85017 -0.510657,-1.71678 -1.053475,-3.42374 -1.608037,-5.12677 -0.528356,-1.60889 -1.075344,-3.21157 -1.618884,-4.81536 -0.477013,-1.40493 -0.952065,-2.81052 -1.42641,-4.21635 -0.38183,-1.13199 -0.763468,-2.26404 -1.145128,-3.39609 -0.304224,-0.90237 -0.608445,-1.80474 -0.912666,-2.70712 -0.242472,-0.71921 -0.484943,-1.43842 -0.727414,-2.15764 -0.189584,-0.56631 -0.384781,-1.13072 -0.579824,-1.69517 -0.157791,-0.45635 -0.315745,-0.91265 -0.473681,-1.36896 -0.1260341,-0.36413 -0.2520713,-0.72826 -0.3781077,-1.09239 -0.100458,-0.29022 -0.2009158,-0.58045 -0.3013736,-0.87068 -0.028731,-0.083 -0.057462,-0.16601 -0.086193,-0.24902 -1.5910803,-4.59673 4.9096773,-6.84686 6.5007583,-2.25013 v 0 c 0.0016,0.005 0.08574,0.24772 0.08619,0.24902 0.100458,0.29023 0.200916,0.58046 0.301374,0.87069 0.126046,0.36415 0.252093,0.72831 0.378136,1.09247 0.158321,0.45741 0.31666,0.91483 0.474836,1.37229 0.200682,0.58078 0.401458,1.16153 0.596561,1.74421 0.242471,0.71922 0.484942,1.43843 0.727414,2.15764 0.304217,0.90236 0.608433,1.80472 0.912653,2.70708 0.38148,1.13152 0.76294,2.26304 1.144591,3.3945 0.473362,1.40291 0.947428,2.80559 1.423454,4.2076 0.552371,1.62986 1.1082,3.25859 1.644908,4.8937 0.575115,1.76666 1.138088,3.53738 1.667352,5.3184 0.501272,1.70777 0.985462,3.42082 1.415189,5.14821 0.363815,1.48292 0.713287,2.96999 0.990854,4.47189 0.197077,1.08212 0.383222,2.16663 0.520911,3.25817 0.0669,0.54582 0.142433,1.09449 0.127514,1.64569 -0.215969,4.85951 -7.088352,4.55409 -6.872383,-0.30542 z"
       inkscape:connector-curvature="0" />
  </g>
</svg>
