<?xml version="1.0" encoding="UTF-8" standalone="no"?>
<!-- Created with Inkscape (http://www.inkscape.org/) -->

<svg
   xmlns:dc="http://purl.org/dc/elements/1.1/"
   xmlns:cc="http://creativecommons.org/ns#"
   xmlns:rdf="http://www.w3.org/1999/02/22-rdf-syntax-ns#"
   xmlns:svg="http://www.w3.org/2000/svg"
   xmlns="http://www.w3.org/2000/svg"
   xmlns:sodipodi="http://sodipodi.sourceforge.net/DTD/sodipodi-0.dtd"
   xmlns:inkscape="http://www.inkscape.org/namespaces/inkscape"
   width="10cm"
   height="10cm"
   viewBox="0 0 100 99.999997"
   version="1.1"
   id="svg8"
   sodipodi:docname="weka.svg"
   inkscape:version="0.92.3 (2405546, 2018-03-11)">
  <defs
     id="defs2" />
  <sodipodi:namedview
     id="base"
     pagecolor="#ffffff"
     bordercolor="#666666"
     borderopacity="1.0"
     inkscape:pageopacity="0.0"
     inkscape:pageshadow="2"
     inkscape:zoom="1"
     inkscape:cx="175.50186"
     inkscape:cy="160.37856"
     inkscape:document-units="cm"
     inkscape:current-layer="layer1"
     showgrid="true"
     units="cm"
     inkscape:window-width="1920"
     inkscape:window-height="1017"
     inkscape:window-x="-8"
     inkscape:window-y="-8"
     inkscape:window-maximized="1"
     inkscape:snap-nodes="false">
    <inkscape:grid
       type="xygrid"
       id="grid815"
       units="cm"
       spacingx="9.9999998"
       spacingy="9.9999998" />
  </sodipodi:namedview>
  <metadata
     id="metadata5">
    <rdf:RDF>
      <cc:Work
         rdf:about="">
        <dc:format>image/svg+xml</dc:format>
        <dc:type
           rdf:resource="http://purl.org/dc/dcmitype/StillImage" />
        <dc:title></dc:title>
      </cc:Work>
    </rdf:RDF>
  </metadata>
  <g
     inkscape:label="Layer 1"
     inkscape:groupmode="layer"
     id="layer1"
     transform="translate(0,-197.00002)">
    <path
       style="opacity:1;fill:#020900;fill-opacity:1;stroke:none;stroke-width:1;stroke-linecap:butt;stroke-linejoin:round;stroke-miterlimit:4;stroke-dasharray:none;stroke-opacity:1"
       id="path150"
       d="m 59.347486,230.98839 c -0.239964,-0.0206 -0.561626,0.10768 -0.742969,0.14378 0.309033,-0.20529 0.604885,-0.4296 0.90071,-0.65325 0.501129,-0.37472 0.978858,-0.77871 1.445589,-1.19506 0.571261,-0.51744 1.126505,-1.05217 1.681527,-1.58688 0.593551,-0.57762 1.184116,-1.15828 1.780905,-1.73257 0.585997,-0.56089 1.177682,-1.11578 1.768668,-1.67139 0.556006,-0.51317 1.099119,-1.03959 1.62455,-1.58398 0.538255,-0.56217 1.043162,-1.15482 1.547622,-1.74711 0.491223,-0.58151 0.986255,-1.15977 1.482897,-1.73665 0.421375,-0.49184 0.848796,-0.97845 1.276805,-1.46452 0.370808,-0.42124 0.745765,-0.8388 1.116595,-1.26002 0.323588,-0.36991 0.641625,-0.74461 0.96112,-1.11804 0.269517,-0.31513 0.537651,-0.63144 0.805288,-0.94817 0.219924,-0.26073 0.440026,-0.52132 0.660778,-0.78135 0.103214,-0.12077 0.206071,-0.24185 0.309177,-0.36271 3.157064,-3.70059 8.390498,0.76417 5.233431,4.46477 v 0 c -0.09948,0.1166 -0.198704,0.23343 -0.298312,0.34993 -0.217371,0.25606 -0.434091,0.51267 -0.650655,0.76941 -0.276707,0.32746 -0.55394,0.65447 -0.832591,0.98028 -0.340728,0.39824 -0.679942,0.79781 -1.025343,1.19202 -0.370922,0.42117 -0.745627,0.83897 -1.116631,1.26007 -0.411102,0.46686 -0.821722,0.93417 -1.226397,1.40663 -0.48881,0.56776 -0.975982,1.13693 -1.459439,1.70925 -0.598387,0.70235 -1.199383,1.40327 -1.839343,2.06846 -0.602282,0.62181 -1.221121,1.22683 -1.857579,1.81374 -0.571709,0.53748 -1.144117,1.07426 -1.711148,1.61668 -0.595826,0.57314 -1.184815,1.15328 -1.777674,1.72947 -0.620697,0.59794 -1.242103,1.19544 -1.882236,1.77268 -0.605268,0.53723 -1.223581,1.05981 -1.871961,1.54474 -0.513977,0.38779 -1.030092,0.77538 -1.582769,1.10718 -0.722988,0.4097 -1.487615,0.73383 -2.329384,0.78064 -4.856432,0.27664 -5.247664,-6.59139 -0.391231,-6.86803 z"
       inkscape:connector-curvature="0" />
    <path
       style="opacity:1;fill:#020900;fill-opacity:1;stroke:none;stroke-width:1;stroke-linecap:butt;stroke-linejoin:round;stroke-miterlimit:4;stroke-dasharray:none;stroke-opacity:1"
       id="path152"
       d="m 34.250428,237.6158 c 0.08926,0.2191 0.225658,0.41218 0.385562,0.58488 0.02381,0.0321 -0.344022,-0.22789 -0.395608,-0.26296 -0.485825,-0.32416 -0.954238,-0.673 -1.41895,-1.02643 -0.555164,-0.42769 -1.107104,-0.85953 -1.662646,-1.28673 -0.601396,-0.4619 -1.215388,-0.90701 -1.824541,-1.35854 -0.741227,-0.55034 -1.479269,-1.10498 -2.214448,-1.66337 -0.829847,-0.63468 -1.66131,-1.26723 -2.493655,-1.89864 -0.878811,-0.66368 -1.744796,-1.3439 -2.600911,-2.03653 -0.893546,-0.72594 -1.75317,-1.49198 -2.611995,-2.25825 -0.781022,-0.69908 -1.5601,-1.40033 -2.339985,-2.10067 -0.651792,-0.58344 -1.301767,-1.16889 -1.951943,-1.75412 -0.525127,-0.47294 -1.051246,-0.94478 -1.573621,-1.42075 -0.44144,-0.40231 -0.880045,-0.80771 -1.313159,-1.21898 -0.369606,-0.35452 -0.731777,-0.71667 -1.094708,-1.078 -0.227768,-0.21629 -0.436827,-0.45406 -0.673791,-0.65989 -3.6677575,-3.19516 0.850875,-8.38215 4.518633,-5.187 v 0 c 0.349449,0.31032 0.679829,0.63984 1.008666,0.97181 0.325046,0.32361 0.649304,0.64807 0.979745,0.96619 0.398208,0.37869 0.802405,0.751 1.208321,1.12141 0.511822,0.46654 1.027639,0.92867 1.542146,1.39224 0.648202,0.58346 1.296202,1.16714 1.946018,1.7488 0.774429,0.69545 1.548068,1.39178 2.323599,2.086 0.776485,0.69285 1.552639,1.38672 2.359846,2.04393 0.799832,0.6476 1.609457,1.28286 2.430697,1.90315 0.833517,0.6323 1.666172,1.26571 2.49717,1.90131 0.713785,0.54225 1.430467,1.08068 2.150131,1.6151 0.641635,0.47571 1.288409,0.94462 1.921504,1.43175 0.546442,0.4203 1.089679,0.84471 1.635419,1.26591 0.367506,0.28001 0.737354,0.55721 1.122405,0.8129 0.406868,0.27703 0.815107,0.55508 1.181134,0.88583 0.502796,0.48062 0.948952,1.0139 1.232104,1.65642 1.996329,4.43577 -4.276807,7.25901 -6.273139,2.82323 z"
       inkscape:connector-curvature="0" />
    <path
       style="opacity:1;fill:#020900;fill-opacity:1;stroke:none;stroke-width:1;stroke-linecap:butt;stroke-linejoin:round;stroke-miterlimit:4;stroke-dasharray:none;stroke-opacity:1"
       id="path154"
       d="m 43.337458,258.9428 c -0.24902,0.35081 -0.533429,0.67375 -0.825235,0.98906 -0.348821,0.37036 -0.719738,0.71891 -1.088075,1.06957 -0.441053,0.42441 -0.880227,0.85051 -1.330309,1.26538 -0.573056,0.51761 -1.16264,1.01639 -1.74044,1.52866 -0.664988,0.59714 -1.302023,1.22433 -1.941306,1.84862 -0.735269,0.72 -1.473303,1.43717 -2.209414,2.1563 -0.7473,0.72757 -1.485569,1.46431 -2.222656,2.2022 -0.72649,0.72008 -1.439648,1.45322 -2.140058,2.19865 -0.639668,0.68681 -1.26564,1.38617 -1.888213,2.08845 -0.538413,0.61148 -1.074012,1.22543 -1.606878,1.84174 -0.440258,0.51148 -0.882253,1.02146 -1.320801,1.53441 -0.355614,0.41692 -0.71007,0.83482 -1.064963,1.25235 -0.26865,0.31292 -0.529192,0.63265 -0.784664,0.95637 -0.228256,0.29076 -0.455039,0.58267 -0.681989,0.87445 -0.186441,0.23851 -0.37068,0.47873 -0.556271,0.7179 -0.128555,0.16082 -0.253492,0.3242 -0.372697,0.49203 -0.0069,0.0106 -0.01378,0.0213 -0.02067,0.0319 -2.733888,4.02335 -8.42376,0.15705 -5.689873,-3.8663 v 0 c 0.03604,-0.0525 0.07207,-0.10505 0.108112,-0.15758 0.17415,-0.24395 0.35379,-0.48374 0.540793,-0.71801 0.1871,-0.24099 0.372666,-0.48317 0.56062,-0.7235 0.237733,-0.30564 0.475284,-0.61143 0.714498,-0.91591 0.306702,-0.38776 0.618633,-0.77139 0.940594,-1.14662 0.359247,-0.42265 0.718046,-0.84568 1.078045,-1.26769 0.446824,-0.52252 0.896972,-1.04219 1.345556,-1.5632 0.551511,-0.63781 1.105769,-1.27324 1.663112,-1.90597 0.666999,-0.75227 1.33779,-1.50129 2.023489,-2.23663 0.748421,-0.7958 1.509415,-1.5795 2.285347,-2.34857 0.756878,-0.75768 1.515031,-1.51411 2.282357,-2.26123 0.736449,-0.71945 1.474792,-1.43696 2.2104,-2.15727 0.718736,-0.70186 1.436029,-1.40585 2.185186,-2.07551 0.54573,-0.48338 1.100757,-0.95607 1.64433,-1.44187 0.422315,-0.38786 0.831138,-0.78972 1.245507,-1.18599 0.268571,-0.25568 0.539891,-0.50889 0.797457,-0.77577 0.09309,-0.0983 0.186526,-0.19713 0.266753,-0.30651 2.832709,-3.95439 8.425066,0.0517 5.592355,4.00606 z"
       inkscape:connector-curvature="0" />
    <path
       style="opacity:1;fill:#020900;fill-opacity:1;stroke:none;stroke-width:1;stroke-linecap:butt;stroke-linejoin:round;stroke-miterlimit:4;stroke-dasharray:none;stroke-opacity:1"
       id="path156"
       d="m 59.438153,250.22869 c 0.470614,0.26024 0.891461,0.59619 1.300858,0.94203 0.458079,0.39456 0.887288,0.82069 1.30973,1.25267 0.528003,0.54927 1.033711,1.11932 1.539658,1.68879 0.578054,0.64984 1.158812,1.29726 1.733407,1.95017 0.652106,0.74392 1.294437,1.49632 1.940042,2.24587 0.667215,0.7734 1.341969,1.54025 2.021152,2.30315 0.653436,0.72993 1.313196,1.45417 1.970614,2.18051 0.595566,0.65929 1.186508,1.32273 1.77125,1.99164 0.507807,0.58312 1.008706,1.17221 1.502262,1.76743 0.465349,0.56385 0.911021,1.14348 1.355669,1.72367 0.377272,0.49459 0.756563,0.98762 1.137735,1.47921 0.340281,0.43866 0.682035,0.87617 1.026007,1.31193 0.289263,0.36333 0.580945,0.72473 0.872349,1.08635 0.238747,0.29694 0.476309,0.59484 0.715865,0.89113 0.18923,0.2309 0.377058,0.46295 0.568264,0.69222 0.146085,0.1747 0.295868,0.34624 0.446916,0.51664 0.184155,0.20509 0.36417,0.41379 0.541271,0.62499 0.176914,0.20939 0.347036,0.42433 0.516768,0.63953 0.160203,0.2013 0.314884,0.40684 0.467149,0.61417 0.114562,0.16014 0.230243,0.31945 0.346241,0.47855 0.09313,0.12772 0.186264,0.25545 0.279395,0.38318 0.07433,0.10193 0.148656,0.20387 0.222986,0.30581 0.04666,0.0644 0.09511,0.12757 0.143211,0.19094 0.04858,0.064 0.0972,0.12792 0.14582,0.19187 0.15001,0.18643 0.268155,0.39185 0.396718,0.59466 2.332519,4.26859 -3.704171,7.56726 -6.03669,3.29868 v 0 c 0.397232,0.61285 0.288461,0.42703 0.163734,0.27004 -0.04983,-0.0655 -0.09968,-0.1311 -0.149476,-0.19668 -0.07461,-0.0983 -0.149344,-0.19658 -0.221769,-0.29655 -0.07433,-0.10193 -0.148658,-0.20387 -0.222985,-0.30581 -0.09316,-0.12777 -0.186325,-0.25553 -0.279485,-0.3833 -0.111675,-0.15317 -0.223401,-0.3063 -0.33325,-0.46078 -0.105225,-0.14345 -0.211871,-0.28582 -0.323012,-0.42477 -0.128108,-0.16243 -0.255823,-0.32522 -0.389601,-0.48307 -0.135811,-0.16256 -0.274826,-0.32235 -0.416357,-0.47996 -0.196873,-0.22235 -0.392011,-0.44626 -0.58235,-0.67426 -0.21286,-0.25559 -0.422619,-0.51373 -0.633135,-0.77125 -0.241795,-0.29912 -0.481735,-0.59972 -0.722651,-0.89954 -0.305946,-0.37966 -0.612198,-0.75909 -0.915699,-1.1407 -0.356246,-0.45136 -0.710266,-0.90447 -1.062691,-1.35882 -0.389091,-0.50184 -0.776327,-1.0051 -1.161455,-1.50999 -0.391318,-0.51065 -0.782833,-1.02136 -1.191807,-1.5181 -0.45502,-0.54921 -0.917406,-1.09226 -1.385554,-1.63032 -0.558441,-0.63905 -1.123138,-1.27259 -1.691926,-1.90245 -0.670124,-0.74039 -1.342657,-1.47861 -2.008566,-2.2228 -0.70403,-0.79095 -1.403583,-1.58589 -2.095206,-2.38772 -0.629754,-0.73117 -1.256329,-1.4651 -1.892229,-2.19095 -0.567277,-0.64478 -1.141039,-1.28378 -1.711671,-1.92559 -0.43428,-0.48884 -0.867752,-0.97868 -1.319073,-1.45197 -0.272817,-0.28003 -0.548722,-0.55751 -0.842078,-0.81625 -0.0026,-0.002 -0.29246,-0.22927 -0.172813,-0.16277 -4.257794,-2.35216 -0.931336,-8.37359 3.326458,-6.02143 z"
       inkscape:connector-curvature="0" />
  </g>
</svg>
