<svg viewBox="0 0 100 100"><path style="opacity:1;fill:#020900;fill-opacity:1;stroke:none;stroke-width:1;stroke-linecap:butt;stroke-linejoin:round;stroke-miterlimit:4;stroke-dasharray:none;stroke-opacity:1" d="M18.6 228.577c.063-.033.124-.07.188-.1a6 6 0 0 0-.384.436c-.266.33-.513.674-.758 1.02q-.52.734-1.02 1.481a19 19 0 0 0-.91 1.544 34 34 0 0 0-.869 1.79 32 32 0 0 0-.817 1.966 24 24 0 0 0-.675 2.153 40 40 0 0 0-.57 2.537 36 36 0 0 0-.434 2.815c-.116 1.032-.158 2.07-.183 3.108a37 37 0 0 0 .088 3.32c.07 1.102.212 2.199.384 3.29a33 33 0 0 0 .667 3.106c.246.957.569 1.891.93 2.81.333.846.751 1.652 1.218 2.43.473.774 1.04 1.481 1.63 2.166.645.747 1.37 1.417 2.123 2.051.819.68 1.71 1.264 2.617 1.817.972.585 1.994 1.08 3.026 1.55 1.034.47 2.1.864 3.178 1.22.967.316 1.954.559 2.955.739.88.154 1.773.189 2.665.19.921-.004 1.839-.087 2.753-.186a17 17 0 0 0 2.506-.457c.793-.215 1.556-.525 2.312-.845.735-.313 1.45-.67 2.147-1.06a9.6 9.6 0 0 0 1.513-1.073 7.8 7.8 0 0 0 1.108-1.165c.293-.38.516-.803.718-1.236.228-.496.404-1.013.564-1.534.163-.55.295-1.107.425-1.665a38 38 0 0 0 .314-1.482c.067-.358.113-.72.15-1.083.032-.343.054-.688.076-1.032l.06-.923c.012-.433.078-.857.17-1.28.198-.608.076-.296.376-.933 2.34-4.264 8.371-.954 6.03 3.31.213-.476.131-.249.26-.677.103-.539.036-.352.029.021l-.06.933c-.029.428-.056.856-.098 1.282a20 20 0 0 1-.237 1.677 45 45 0 0 1-.371 1.754 34 34 0 0 1-.553 2.135c-.262.838-.553 1.67-.928 2.465-.435.9-.923 1.774-1.548 2.558-.629.78-1.309 1.517-2.08 2.16-.807.667-1.65 1.288-2.567 1.796a29 29 0 0 1-2.822 1.39c-1.077.453-2.167.88-3.299 1.176-1.14.285-2.293.511-3.464.628-1.168.125-2.34.225-3.516.226-1.297-.008-2.596-.073-3.875-.304a29.5 29.5 0 0 1-3.879-.976c-1.311-.436-2.607-.916-3.865-1.49-1.285-.586-2.554-1.208-3.763-1.94-1.205-.74-2.385-1.524-3.47-2.434-1.03-.876-2.022-1.798-2.903-2.826-.845-.989-1.65-2.013-2.322-3.13-.652-1.104-1.243-2.243-1.71-3.439a31 31 0 0 1-1.186-3.603c-.317-1.24-.603-2.487-.8-3.752a43 43 0 0 1-.453-3.918 44 44 0 0 1-.1-3.926c.031-1.25.086-2.499.228-3.741.133-1.122.297-2.24.518-3.347.2-1.009.414-2.015.68-3.009.258-.943.537-1.88.884-2.796.307-.803.633-1.6.992-2.381.34-.74.687-1.478 1.071-2.197.386-.712.788-1.415 1.239-2.088q.555-.832 1.133-1.648c.34-.48.686-.956 1.059-1.412.351-.424.715-.84 1.127-1.207.374-.327.766-.634 1.21-.86 4.318-2.241 7.486 3.865 3.168 6.105" transform="translate(0 -197)"/><path style="opacity:1;fill:#020900;fill-opacity:1;stroke:none;stroke-width:1;stroke-linecap:butt;stroke-linejoin:round;stroke-miterlimit:4;stroke-dasharray:none;stroke-opacity:1" d="M56.057 260.103c-.051-.05-.01.042 0 .015-.017.14-.033.282-.037.423-.01.273-.005.545 0 .818.003.284.03.567.065.849.03.256.08.508.159.754.102.306.243.597.39.884.249.473.53.929.822 1.377.323.496.694.958 1.08 1.406.402.468.844.898 1.305 1.306.478.414.992.781 1.515 1.133.532.353 1.09.662 1.654.959.543.281 1.098.54 1.665.769a8 8 0 0 0 1.399.398 8 8 0 0 0 1.437.125c.528 0 1.05-.074 1.568-.171.613-.118 1.21-.303 1.8-.501a17 17 0 0 0 1.9-.788c.653-.316 1.27-.698 1.878-1.09a39 39 0 0 0 2.08-1.475 31 31 0 0 0 2.041-1.701 25 25 0 0 0 1.905-1.967 18 18 0 0 0 1.666-2.258c.585-.95 1.08-1.952 1.557-2.96.525-1.116.968-2.266 1.39-3.424a31 31 0 0 0 1.039-3.447c.26-1.097.405-2.215.498-3.338.088-1.174.054-2.352-.017-3.526a31 31 0 0 0-.459-3.555c-.208-1.134-.517-2.246-.86-3.346-.324-1.027-.725-2.028-1.147-3.018a37 37 0 0 0-1.282-2.67 35 35 0 0 0-1.31-2.216 39 39 0 0 0-1.266-1.866c-.41-.566-.829-1.128-1.247-1.69q-.532-.717-1.073-1.429-.454-.593-.913-1.185l-.759-.983-.608-.786-.485-.626-.4-.52c-.115-.147-.217-.303-.32-.458-2.625-4.095 3.166-7.808 5.791-3.713-.08-.112-.015-.02-.001 0l.371.481.485.627.609.787q.382.492.76.985.475.613.946 1.227.563.74 1.116 1.486c.442.595.885 1.19 1.32 1.79.515.72 1.017 1.45 1.49 2.198.555.88 1.094 1.77 1.583 2.69a44 44 0 0 1 1.524 3.18c.512 1.205.996 2.423 1.388 3.673.423 1.37.803 2.755 1.06 4.168.257 1.444.464 2.898.555 4.363.087 1.503.123 3.01.003 4.512-.127 1.474-.32 2.943-.668 4.383a38 38 0 0 1-1.26 4.176c-.494 1.357-1.018 2.706-1.635 4.013-.604 1.273-1.236 2.534-1.984 3.73-.697 1.082-1.444 2.131-2.299 3.097-.779.88-1.586 1.738-2.46 2.528a38 38 0 0 1-2.507 2.083 44 44 0 0 1-2.499 1.768c-.853.547-1.72 1.074-2.636 1.512-.874.415-1.763.797-2.681 1.103-.903.3-1.816.572-2.753.745-.957.17-1.923.292-2.897.28-.92-.017-1.839-.082-2.741-.269-.883-.188-1.755-.422-2.592-.764a27 27 0 0 1-2.274-1.053 26 26 0 0 1-2.296-1.342c-.777-.527-1.54-1.08-2.244-1.702a21 21 0 0 1-1.957-1.97c-.578-.68-1.134-1.38-1.62-2.131a24 24 0 0 1-1.193-2.024c-.328-.656-.632-1.325-.844-2.03a11.3 11.3 0 0 1-.393-1.891 15 15 0 0 1-.11-1.525c-.01-.428-.015-.857.005-1.286.02-.373.05-.745.105-1.115.044-.28.095-.56.175-.833 1.302-4.686 7.93-2.845 6.628 1.841" transform="translate(0 -197)"/></svg>