<?xml version="1.0" encoding="UTF-8" standalone="no"?>
<!-- Created with Inkscape (http://www.inkscape.org/) -->

<svg
   xmlns:dc="http://purl.org/dc/elements/1.1/"
   xmlns:cc="http://creativecommons.org/ns#"
   xmlns:rdf="http://www.w3.org/1999/02/22-rdf-syntax-ns#"
   xmlns:svg="http://www.w3.org/2000/svg"
   xmlns="http://www.w3.org/2000/svg"
   xmlns:sodipodi="http://sodipodi.sourceforge.net/DTD/sodipodi-0.dtd"
   xmlns:inkscape="http://www.inkscape.org/namespaces/inkscape"
   width="10cm"
   height="10cm"
   viewBox="0 0 100 99.999997"
   version="1.1"
   id="svg8"
   sodipodi:docname="wile.svg"
   inkscape:version="0.92.3 (2405546, 2018-03-11)">
  <defs
     id="defs2" />
  <sodipodi:namedview
     id="base"
     pagecolor="#ffffff"
     bordercolor="#666666"
     borderopacity="1.0"
     inkscape:pageopacity="0.0"
     inkscape:pageshadow="2"
     inkscape:zoom="1"
     inkscape:cx="175.50186"
     inkscape:cy="160.37856"
     inkscape:document-units="cm"
     inkscape:current-layer="layer1"
     showgrid="true"
     units="cm"
     inkscape:window-width="882"
     inkscape:window-height="707"
     inkscape:window-x="784"
     inkscape:window-y="204"
     inkscape:window-maximized="0"
     inkscape:snap-nodes="false">
    <inkscape:grid
       type="xygrid"
       id="grid815"
       units="cm"
       spacingx="9.9999998"
       spacingy="9.9999998" />
  </sodipodi:namedview>
  <metadata
     id="metadata5">
    <rdf:RDF>
      <cc:Work
         rdf:about="">
        <dc:format>image/svg+xml</dc:format>
        <dc:type
           rdf:resource="http://purl.org/dc/dcmitype/StillImage" />
        <dc:title></dc:title>
      </cc:Work>
    </rdf:RDF>
  </metadata>
  <g
     inkscape:label="Layer 1"
     inkscape:groupmode="layer"
     id="layer1"
     transform="translate(0,-197.00002)">
    <path
       style="opacity:1;fill:#020900;fill-opacity:1;stroke:none;stroke-width:1;stroke-linecap:butt;stroke-linejoin:round;stroke-miterlimit:4;stroke-dasharray:none;stroke-opacity:1"
       id="path1751"
       d="m 18.600264,228.57745 c 0.06252,-0.0332 0.123384,-0.0696 0.187289,-0.10003 -0.136898,0.13699 -0.261076,0.28588 -0.383206,0.43595 -0.266509,0.32925 -0.513493,0.67353 -0.758409,1.01894 -0.34577,0.48977 -0.686829,0.98286 -1.01903,1.48194 -0.332647,0.49698 -0.627278,1.01753 -0.910796,1.54361 -0.311554,0.58604 -0.592851,1.18741 -0.868985,1.79072 -0.295521,0.64546 -0.565581,1.30196 -0.81752,1.96552 -0.265409,0.70448 -0.477402,1.42688 -0.674172,2.15297 -0.222757,0.8381 -0.40201,1.68672 -0.569858,2.53723 -0.185182,0.93184 -0.324557,1.87138 -0.434373,2.81479 -0.116027,1.03224 -0.158002,2.07046 -0.183003,3.10824 -0.02778,1.10734 0.0166,2.21406 0.08787,3.31885 0.0707,1.10321 0.212387,2.19962 0.38436,3.29105 0.164207,1.04717 0.402565,2.0801 0.666799,3.10591 0.246056,0.95706 0.568402,1.89103 0.92958,2.81 0.333602,0.8455 0.751399,1.6519 1.217912,2.43064 0.473327,0.77275 1.040269,1.4802 1.630474,2.16549 0.64484,0.74703 1.369338,1.41641 2.1232,2.05079 0.818494,0.6805 1.708846,1.26433 2.616319,1.8174 0.972568,0.58491 1.99421,1.07995 3.026268,1.54927 1.034368,0.46964 2.099628,0.86412 3.177623,1.2202 0.966999,0.31603 1.954863,0.55868 2.955509,0.739 0.880303,0.15372 1.773343,0.18864 2.66496,0.19058 0.920914,-0.005 1.838539,-0.088 2.753387,-0.18635 0.846722,-0.0857 1.681892,-0.24493 2.505297,-0.45707 0.793411,-0.21524 1.556073,-0.52475 2.311746,-0.84485 0.73541,-0.31292 1.450724,-0.66937 2.147467,-1.0603 0.542721,-0.30181 1.038937,-0.67343 1.512581,-1.07274 0.411228,-0.34773 0.777361,-0.7417 1.108122,-1.1656 0.293243,-0.37905 0.516319,-0.80296 0.718778,-1.23534 0.227439,-0.49625 0.403423,-1.01338 0.563398,-1.53459 0.163648,-0.54897 0.29499,-1.10677 0.425276,-1.66436 0.114596,-0.49204 0.219294,-0.98624 0.314177,-1.48243 0.06662,-0.35833 0.113083,-0.71986 0.149325,-1.08238 0.03241,-0.34363 0.05397,-0.68815 0.07659,-1.03252 0.02003,-0.30763 0.03979,-0.61528 0.05956,-0.92293 0.01185,-0.43328 0.07807,-0.85753 0.17032,-1.28032 0.197459,-0.60772 0.07597,-0.29529 0.375931,-0.93275 2.340742,-4.26409 8.371065,-0.95378 6.030322,3.31031 v 0 c 0.212887,-0.47668 0.130924,-0.24927 0.259453,-0.67718 0.102894,-0.53866 0.03635,-0.35169 0.02898,0.0212 -0.01998,0.31092 -0.03993,0.62183 -0.0602,0.93273 -0.02812,0.4278 -0.05565,0.85574 -0.0976,1.28246 -0.05837,0.56161 -0.131037,1.12182 -0.236577,1.67675 -0.112758,0.58683 -0.235953,1.17155 -0.371832,1.75349 -0.167521,0.71585 -0.339151,1.43126 -0.553072,2.13495 -0.261726,0.83877 -0.552672,1.66949 -0.927941,2.46526 -0.434724,0.89947 -0.923058,1.77391 -1.547509,2.55796 -0.628941,0.78006 -1.308629,1.51756 -2.080897,2.15946 -0.805688,0.66716 -1.648582,1.28875 -2.565855,1.79619 -0.917446,0.50973 -1.855476,0.98141 -2.82279,1.39003 -1.07624,0.45333 -2.166027,0.88106 -3.298105,1.17594 -1.140018,0.28568 -2.293641,0.51155 -3.464319,0.62889 -1.168231,0.12409 -2.340255,0.22431 -3.516093,0.22519 -1.29722,-0.008 -2.595639,-0.0722 -3.874876,-0.30355 -1.31233,-0.24395 -2.610821,-0.55614 -3.879135,-0.97573 -1.310952,-0.43623 -2.60723,-0.91677 -3.865292,-1.49007 -1.284321,-0.58659 -2.554094,-1.20812 -3.762837,-1.94059 -1.205331,-0.73949 -2.385223,-1.52343 -3.469948,-2.4341 -1.030451,-0.87536 -2.021467,-1.79758 -2.902967,-2.82563 -0.844554,-0.9889 -1.650672,-2.01305 -2.3221131,-3.12975 -0.6518069,-1.10414 -1.243249,-2.24283 -1.7102169,-3.4389 -0.458978,-1.17932 -0.8720492,-2.37641 -1.1854786,-3.60357 -0.3172322,-1.23914 -0.6027655,-2.48691 -0.7999367,-3.75153 -0.2026828,-1.29942 -0.3702892,-2.60458 -0.4533194,-3.91778 -0.082681,-1.30707 -0.1333815,-2.61641 -0.099763,-3.92635 0.031315,-1.2493 0.08552,-2.49893 0.2278663,-3.74127 0.1326377,-1.12159 0.2971604,-2.23907 0.5181171,-3.34702 0.1998351,-1.00873 0.4142206,-2.01499 0.6804454,-3.00862 0.2574041,-0.94319 0.5364101,-1.88098 0.8834556,-2.79571 0.3068487,-0.80359 0.6329302,-1.5997 0.9918441,-2.38162 0.339512,-0.74072 0.6868819,-1.47829 1.0715061,-2.19691 0.3854901,-0.71166 0.7872801,-1.41497 1.2381971,-2.08771 0.370151,-0.55483 0.74851,-1.10412 1.133696,-1.64863 0.340608,-0.47947 0.686115,-0.95588 1.058657,-1.41129 0.351488,-0.42417 0.715372,-0.8397 1.126903,-1.20742 0.373966,-0.32639 0.766191,-0.63388 1.210291,-0.8606 4.317733,-2.24023 7.485901,3.86597 3.168168,6.1062 z"
       inkscape:connector-curvature="0" />
    <path
       style="opacity:1;fill:#020900;fill-opacity:1;stroke:none;stroke-width:1;stroke-linecap:butt;stroke-linejoin:round;stroke-miterlimit:4;stroke-dasharray:none;stroke-opacity:1"
       id="path1753"
       d="m 56.056969,260.10348 c -0.05121,-0.0499 -0.0105,0.0416 -1.4e-5,0.0149 -0.01714,0.14052 -0.03275,0.28124 -0.03697,0.4228 -0.0105,0.27239 -0.0048,0.54507 7.93e-4,0.8175 0.0021,0.28428 0.02936,0.56698 0.0639,0.84884 0.03051,0.25619 0.07964,0.5089 0.15898,0.75438 0.102827,0.30611 0.243461,0.5969 0.390165,0.88385 0.248999,0.47355 0.530376,0.92899 0.822227,1.37706 0.323051,0.49635 0.694201,0.95786 1.079426,1.40667 0.40259,0.4672 0.844637,0.89703 1.305777,1.30566 0.477258,0.41372 0.99138,0.78117 1.514954,1.13324 0.531609,0.35256 1.089808,0.66181 1.653939,0.9585 0.543317,0.2812 1.098167,0.53934 1.665267,0.76871 0.452061,0.17997 0.922395,0.30291 1.398452,0.3989 0.473922,0.0915 0.955456,0.1211 1.437116,0.12462 0.527804,-8e-4 1.050311,-0.0745 1.567831,-0.17155 0.613384,-0.11726 1.209963,-0.30252 1.801027,-0.50101 0.651295,-0.21801 1.281221,-0.49098 1.899938,-0.78764 0.652405,-0.31612 1.268929,-0.69821 1.877626,-1.09021 0.711917,-0.46439 1.400332,-0.96323 2.078834,-1.4748 0.707107,-0.53475 1.384028,-1.10711 2.041946,-1.70086 0.676299,-0.61457 1.301499,-1.28116 1.904598,-1.96674 0.620323,-0.70365 1.162767,-1.46789 1.665883,-2.25802 0.585223,-0.95068 1.081156,-1.95179 1.557512,-2.9602 0.524631,-1.11577 0.968303,-2.26624 1.389321,-3.42424 0.41623,-1.12745 0.757431,-2.27876 1.039064,-3.44649 0.261192,-1.09735 0.405466,-2.21577 0.498052,-3.33839 0.08845,-1.17438 0.05481,-2.35217 -0.01622,-3.52619 -0.07727,-1.19373 -0.246737,-2.37802 -0.459235,-3.55434 -0.208357,-1.13451 -0.516972,-2.24619 -0.859242,-3.34653 -0.324797,-1.0273 -0.725705,-2.0277 -1.147588,-3.01828 -0.388136,-0.90806 -0.821764,-1.79535 -1.282123,-2.66868 -0.404551,-0.75749 -0.850823,-1.49137 -1.309801,-2.21679 -0.401805,-0.63557 -0.827628,-1.25528 -1.265905,-1.86611 -0.411421,-0.5663 -0.829156,-1.12799 -1.247079,-1.6895 -0.354925,-0.47845 -0.712531,-0.95489 -1.073142,-1.42906 -0.302514,-0.39669 -0.608359,-0.79081 -0.913384,-1.18556 -0.252238,-0.32805 -0.505529,-0.65529 -0.758703,-0.98261 -0.202644,-0.26198 -0.40531,-0.52394 -0.607973,-0.7859 -0.161599,-0.20888 -0.323202,-0.41777 -0.484804,-0.62665 -0.133741,-0.17323 -0.268322,-0.34582 -0.40114,-0.51976 -0.114583,-0.14715 -0.216733,-0.30291 -0.319445,-0.45836 -2.625246,-4.09507 3.166049,-7.80773 5.791296,-3.71266 v 0 c -0.08077,-0.11213 -0.01556,-0.0208 -0.0013,2e-5 0.122727,0.16136 0.248118,0.32067 0.371673,0.48139 0.161605,0.20889 0.323212,0.41778 0.484817,0.62667 0.202822,0.26217 0.405644,0.52433 0.608447,0.78651 0.253846,0.3282 0.507812,0.6563 0.760719,0.98523 0.315817,0.40872 0.632476,0.81681 0.945616,1.2276 0.374943,0.49307 0.74685,0.98842 1.115914,1.48591 0.442479,0.59452 0.884764,1.18923 1.319879,1.78917 0.515454,0.7198 1.016829,1.44965 1.489668,2.19832 0.555575,0.8798 1.094695,1.77048 1.583068,2.68974 0.546629,1.04107 1.063601,2.09764 1.524662,3.17975 0.51163,1.20537 0.995664,2.42341 1.387747,3.67374 0.423262,1.37055 0.803286,2.75543 1.0594,4.16821 0.257416,1.44412 0.464098,2.89764 0.55526,4.36282 0.08709,1.50269 0.123557,3.01 0.0037,4.51244 -0.127291,1.47387 -0.32044,2.94234 -0.668094,4.38242 -0.34558,1.41359 -0.754629,2.80992 -1.259663,4.1756 -0.495067,1.35784 -1.018693,2.70602 -1.635654,4.01398 -0.603515,1.27259 -1.235594,2.534 -1.983682,3.72915 -0.697029,1.08231 -1.444252,2.13179 -2.298972,3.0969 -0.77936,0.88131 -1.586691,1.73851 -2.460234,2.52798 -0.808545,0.72655 -1.638419,1.42917 -2.506731,2.08384 -0.815525,0.6134 -1.642785,1.21171 -2.499071,1.76737 -0.853261,0.54695 -1.72075,1.07408 -2.636034,1.51227 -0.873913,0.41465 -1.762934,0.79749 -2.681684,1.10296 -0.902581,0.29983 -1.815486,0.57221 -2.752235,0.74456 -0.957022,0.17001 -1.923325,0.29263 -2.897577,0.28097 -0.919443,-0.0175 -1.838354,-0.0828 -2.740922,-0.2693 -0.882562,-0.18784 -1.755105,-0.42266 -2.592223,-0.7641 -0.773033,-0.31764 -1.533549,-0.66481 -2.274099,-1.0528 -0.78381,-0.41444 -1.557965,-0.8486 -2.295057,-1.34261 -0.777711,-0.52708 -1.539602,-1.07923 -2.244931,-1.70145 -0.689727,-0.61849 -1.353855,-1.26554 -1.956292,-1.97061 -0.578599,-0.67994 -1.134211,-1.38017 -1.619684,-2.13069 -0.425276,-0.65775 -0.835348,-1.32616 -1.193303,-2.02345 -0.328252,-0.65602 -0.632055,-1.3257 -0.844158,-2.02963 -0.178747,-0.6203 -0.321911,-1.2497 -0.393216,-1.89233 -0.05926,-0.50627 -0.104703,-1.01421 -0.110739,-1.52429 -0.0084,-0.42862 -0.01397,-0.8576 0.0058,-1.28603 0.01974,-0.37307 0.05089,-0.74548 0.105553,-1.11525 0.04381,-0.28036 0.09498,-0.55978 0.17441,-0.83259 1.301851,-4.68686 7.930071,-2.84576 6.628217,1.8411 z"
       inkscape:connector-curvature="0" />
  </g>
</svg>
